<?xml version="1.0" encoding="utf-8" standalone="no"?>
<!DOCTYPE svg PUBLIC "-//W3C//DTD SVG 1.1//EN"
  "http://www.w3.org/Graphics/SVG/1.1/DTD/svg11.dtd">
<svg height="504pt" version="1.1" viewBox="0 0 1080 504" width="1080pt" xmlns="http://www.w3.org/2000/svg" xmlns:xlink="http://www.w3.org/1999/xlink">
 <metadata>
  <rdf:RDF xmlns:cc="http://creativecommons.org/ns#" xmlns:dc="http://purl.org/dc/elements/1.1/" xmlns:rdf="http://www.w3.org/1999/02/22-rdf-syntax-ns#">
   <cc:Work>
    <dc:type rdf:resource="http://purl.org/dc/dcmitype/StillImage"/>
    <dc:date>2022-01-07T22:01:03.588942</dc:date>
    <dc:format>image/svg+xml</dc:format>
    <dc:creator>
     <cc:Agent>
      <dc:title>Matplotlib v3.4.3, https://matplotlib.org/</dc:title>
     </cc:Agent>
    </dc:creator>
   </cc:Work>
  </rdf:RDF>
 </metadata>
 <defs>
  <style type="text/css">*{stroke-linecap:butt;stroke-linejoin:round;}</style>
 </defs>
 <g id="figure_1">
  <g id="patch_1">
   <path d="M 0 504 
L 1080 504 
L 1080 0 
L 0 0 
z
" style="fill:#ffffff;"/>
  </g>
  <g id="axes_1">
   <g id="patch_2">
    <path d="M 135 448.56 
L 972 448.56 
L 972 60.48 
L 135 60.48 
z
" style="fill:#ffffff;"/>
   </g>
   <g id="matplotlib.axis_1">
    <g id="xtick_1">
     <g id="line2d_1">
      <defs>
       <path d="M 0 0 
L 0 3.5 
" id="ma3e41eacfc" style="stroke:#000000;stroke-width:0.8;"/>
      </defs>
      <g>
       <use style="stroke:#000000;stroke-width:0.8;" x="135" xlink:href="#ma3e41eacfc" y="448.56"/>
      </g>
     </g>
     <g id="text_1">
      <!-- 0.0 -->
      <g transform="translate(120.687187 469.237188)scale(0.18 -0.18)">
       <defs>
        <path d="M 2034 4250 
Q 1547 4250 1301 3770 
Q 1056 3291 1056 2328 
Q 1056 1369 1301 889 
Q 1547 409 2034 409 
Q 2525 409 2770 889 
Q 3016 1369 3016 2328 
Q 3016 3291 2770 3770 
Q 2525 4250 2034 4250 
z
M 2034 4750 
Q 2819 4750 3233 4129 
Q 3647 3509 3647 2328 
Q 3647 1150 3233 529 
Q 2819 -91 2034 -91 
Q 1250 -91 836 529 
Q 422 1150 422 2328 
Q 422 3509 836 4129 
Q 1250 4750 2034 4750 
z
" id="DejaVuSans-30" transform="scale(0.015625)"/>
        <path d="M 684 794 
L 1344 794 
L 1344 0 
L 684 0 
L 684 794 
z
" id="DejaVuSans-2e" transform="scale(0.015625)"/>
       </defs>
       <use xlink:href="#DejaVuSans-30"/>
       <use x="63.623047" xlink:href="#DejaVuSans-2e"/>
       <use x="95.410156" xlink:href="#DejaVuSans-30"/>
      </g>
     </g>
    </g>
    <g id="xtick_2">
     <g id="line2d_2">
      <g>
       <use style="stroke:#000000;stroke-width:0.8;" x="302.4" xlink:href="#ma3e41eacfc" y="448.56"/>
      </g>
     </g>
     <g id="text_2">
      <!-- 0.2 -->
      <g transform="translate(288.087187 469.237188)scale(0.18 -0.18)">
       <defs>
        <path d="M 1228 531 
L 3431 531 
L 3431 0 
L 469 0 
L 469 531 
Q 828 903 1448 1529 
Q 2069 2156 2228 2338 
Q 2531 2678 2651 2914 
Q 2772 3150 2772 3378 
Q 2772 3750 2511 3984 
Q 2250 4219 1831 4219 
Q 1534 4219 1204 4116 
Q 875 4013 500 3803 
L 500 4441 
Q 881 4594 1212 4672 
Q 1544 4750 1819 4750 
Q 2544 4750 2975 4387 
Q 3406 4025 3406 3419 
Q 3406 3131 3298 2873 
Q 3191 2616 2906 2266 
Q 2828 2175 2409 1742 
Q 1991 1309 1228 531 
z
" id="DejaVuSans-32" transform="scale(0.015625)"/>
       </defs>
       <use xlink:href="#DejaVuSans-30"/>
       <use x="63.623047" xlink:href="#DejaVuSans-2e"/>
       <use x="95.410156" xlink:href="#DejaVuSans-32"/>
      </g>
     </g>
    </g>
    <g id="xtick_3">
     <g id="line2d_3">
      <g>
       <use style="stroke:#000000;stroke-width:0.8;" x="469.8" xlink:href="#ma3e41eacfc" y="448.56"/>
      </g>
     </g>
     <g id="text_3">
      <!-- 0.4 -->
      <g transform="translate(455.487188 469.237188)scale(0.18 -0.18)">
       <defs>
        <path d="M 2419 4116 
L 825 1625 
L 2419 1625 
L 2419 4116 
z
M 2253 4666 
L 3047 4666 
L 3047 1625 
L 3713 1625 
L 3713 1100 
L 3047 1100 
L 3047 0 
L 2419 0 
L 2419 1100 
L 313 1100 
L 313 1709 
L 2253 4666 
z
" id="DejaVuSans-34" transform="scale(0.015625)"/>
       </defs>
       <use xlink:href="#DejaVuSans-30"/>
       <use x="63.623047" xlink:href="#DejaVuSans-2e"/>
       <use x="95.410156" xlink:href="#DejaVuSans-34"/>
      </g>
     </g>
    </g>
    <g id="xtick_4">
     <g id="line2d_4">
      <g>
       <use style="stroke:#000000;stroke-width:0.8;" x="637.2" xlink:href="#ma3e41eacfc" y="448.56"/>
      </g>
     </g>
     <g id="text_4">
      <!-- 0.6 -->
      <g transform="translate(622.887188 469.237188)scale(0.18 -0.18)">
       <defs>
        <path d="M 2113 2584 
Q 1688 2584 1439 2293 
Q 1191 2003 1191 1497 
Q 1191 994 1439 701 
Q 1688 409 2113 409 
Q 2538 409 2786 701 
Q 3034 994 3034 1497 
Q 3034 2003 2786 2293 
Q 2538 2584 2113 2584 
z
M 3366 4563 
L 3366 3988 
Q 3128 4100 2886 4159 
Q 2644 4219 2406 4219 
Q 1781 4219 1451 3797 
Q 1122 3375 1075 2522 
Q 1259 2794 1537 2939 
Q 1816 3084 2150 3084 
Q 2853 3084 3261 2657 
Q 3669 2231 3669 1497 
Q 3669 778 3244 343 
Q 2819 -91 2113 -91 
Q 1303 -91 875 529 
Q 447 1150 447 2328 
Q 447 3434 972 4092 
Q 1497 4750 2381 4750 
Q 2619 4750 2861 4703 
Q 3103 4656 3366 4563 
z
" id="DejaVuSans-36" transform="scale(0.015625)"/>
       </defs>
       <use xlink:href="#DejaVuSans-30"/>
       <use x="63.623047" xlink:href="#DejaVuSans-2e"/>
       <use x="95.410156" xlink:href="#DejaVuSans-36"/>
      </g>
     </g>
    </g>
    <g id="xtick_5">
     <g id="line2d_5">
      <g>
       <use style="stroke:#000000;stroke-width:0.8;" x="804.6" xlink:href="#ma3e41eacfc" y="448.56"/>
      </g>
     </g>
     <g id="text_5">
      <!-- 0.8 -->
      <g transform="translate(790.287188 469.237188)scale(0.18 -0.18)">
       <defs>
        <path d="M 2034 2216 
Q 1584 2216 1326 1975 
Q 1069 1734 1069 1313 
Q 1069 891 1326 650 
Q 1584 409 2034 409 
Q 2484 409 2743 651 
Q 3003 894 3003 1313 
Q 3003 1734 2745 1975 
Q 2488 2216 2034 2216 
z
M 1403 2484 
Q 997 2584 770 2862 
Q 544 3141 544 3541 
Q 544 4100 942 4425 
Q 1341 4750 2034 4750 
Q 2731 4750 3128 4425 
Q 3525 4100 3525 3541 
Q 3525 3141 3298 2862 
Q 3072 2584 2669 2484 
Q 3125 2378 3379 2068 
Q 3634 1759 3634 1313 
Q 3634 634 3220 271 
Q 2806 -91 2034 -91 
Q 1263 -91 848 271 
Q 434 634 434 1313 
Q 434 1759 690 2068 
Q 947 2378 1403 2484 
z
M 1172 3481 
Q 1172 3119 1398 2916 
Q 1625 2713 2034 2713 
Q 2441 2713 2670 2916 
Q 2900 3119 2900 3481 
Q 2900 3844 2670 4047 
Q 2441 4250 2034 4250 
Q 1625 4250 1398 4047 
Q 1172 3844 1172 3481 
z
" id="DejaVuSans-38" transform="scale(0.015625)"/>
       </defs>
       <use xlink:href="#DejaVuSans-30"/>
       <use x="63.623047" xlink:href="#DejaVuSans-2e"/>
       <use x="95.410156" xlink:href="#DejaVuSans-38"/>
      </g>
     </g>
    </g>
    <g id="xtick_6">
     <g id="line2d_6">
      <g>
       <use style="stroke:#000000;stroke-width:0.8;" x="972" xlink:href="#ma3e41eacfc" y="448.56"/>
      </g>
     </g>
     <g id="text_6">
      <!-- 1.0 -->
      <g transform="translate(957.687188 469.237188)scale(0.18 -0.18)">
       <defs>
        <path d="M 794 531 
L 1825 531 
L 1825 4091 
L 703 3866 
L 703 4441 
L 1819 4666 
L 2450 4666 
L 2450 531 
L 3481 531 
L 3481 0 
L 794 0 
L 794 531 
z
" id="DejaVuSans-31" transform="scale(0.015625)"/>
       </defs>
       <use xlink:href="#DejaVuSans-31"/>
       <use x="63.623047" xlink:href="#DejaVuSans-2e"/>
       <use x="95.410156" xlink:href="#DejaVuSans-30"/>
      </g>
     </g>
    </g>
    <g id="text_7">
     <!-- $FPR_{Utility}$ -->
     <g transform="translate(509.94 493.040625)scale(0.22 -0.22)">
      <defs>
       <path d="M 1081 4666 
L 3756 4666 
L 3653 4134 
L 1606 4134 
L 1338 2759 
L 3188 2759 
L 3084 2228 
L 1234 2228 
L 800 0 
L 172 0 
L 1081 4666 
z
" id="DejaVuSans-Oblique-46" transform="scale(0.015625)"/>
       <path d="M 1081 4666 
L 2541 4666 
Q 3178 4666 3512 4369 
Q 3847 4072 3847 3500 
Q 3847 2731 3353 2303 
Q 2859 1875 1966 1875 
L 1172 1875 
L 806 0 
L 172 0 
L 1081 4666 
z
M 1613 4147 
L 1275 2394 
L 2069 2394 
Q 2606 2394 2893 2669 
Q 3181 2944 3181 3456 
Q 3181 3784 2986 3965 
Q 2791 4147 2438 4147 
L 1613 4147 
z
" id="DejaVuSans-Oblique-50" transform="scale(0.015625)"/>
       <path d="M 1613 4147 
L 1294 2491 
L 2106 2491 
Q 2584 2491 2879 2755 
Q 3175 3019 3175 3444 
Q 3175 3784 2976 3965 
Q 2778 4147 2406 4147 
L 1613 4147 
z
M 2772 2241 
Q 2972 2194 3105 2009 
Q 3238 1825 3413 1275 
L 3809 0 
L 3144 0 
L 2778 1197 
Q 2638 1659 2453 1815 
Q 2269 1972 1888 1972 
L 1191 1972 
L 806 0 
L 172 0 
L 1081 4666 
L 2503 4666 
Q 3150 4666 3495 4373 
Q 3841 4081 3841 3531 
Q 3841 3044 3547 2687 
Q 3253 2331 2772 2241 
z
" id="DejaVuSans-Oblique-52" transform="scale(0.015625)"/>
       <path d="M 991 4666 
L 1625 4666 
L 1075 1831 
Q 1041 1641 1027 1517 
Q 1013 1394 1013 1300 
Q 1013 869 1253 645 
Q 1494 422 1959 422 
Q 2563 422 2898 753 
Q 3234 1084 3378 1831 
L 3928 4666 
L 4563 4666 
L 4000 1753 
Q 3816 809 3300 359 
Q 2784 -91 1888 -91 
Q 1188 -91 780 261 
Q 372 613 372 1216 
Q 372 1325 387 1461 
Q 403 1597 434 1753 
L 991 4666 
z
" id="DejaVuSans-Oblique-55" transform="scale(0.015625)"/>
       <path d="M 2706 3500 
L 2619 3053 
L 1472 3053 
L 1100 1153 
Q 1081 1047 1072 975 
Q 1063 903 1063 863 
Q 1063 663 1183 572 
Q 1303 481 1569 481 
L 2150 481 
L 2053 0 
L 1503 0 
Q 991 0 739 200 
Q 488 400 488 806 
Q 488 878 497 964 
Q 506 1050 525 1153 
L 897 3053 
L 409 3053 
L 500 3500 
L 978 3500 
L 1172 4494 
L 1747 4494 
L 1556 3500 
L 2706 3500 
z
" id="DejaVuSans-Oblique-74" transform="scale(0.015625)"/>
       <path d="M 1172 4863 
L 1747 4863 
L 1606 4134 
L 1031 4134 
L 1172 4863 
z
M 909 3500 
L 1484 3500 
L 800 0 
L 225 0 
L 909 3500 
z
" id="DejaVuSans-Oblique-69" transform="scale(0.015625)"/>
       <path d="M 1172 4863 
L 1747 4863 
L 800 0 
L 225 0 
L 1172 4863 
z
" id="DejaVuSans-Oblique-6c" transform="scale(0.015625)"/>
       <path d="M 1588 -325 
Q 1188 -997 936 -1164 
Q 684 -1331 294 -1331 
L -159 -1331 
L -63 -850 
L 269 -850 
Q 509 -850 678 -719 
Q 847 -588 1056 -206 
L 1234 128 
L 459 3500 
L 1069 3500 
L 1650 819 
L 3256 3500 
L 3859 3500 
L 1588 -325 
z
" id="DejaVuSans-Oblique-79" transform="scale(0.015625)"/>
      </defs>
      <use transform="translate(0 0.09375)" xlink:href="#DejaVuSans-Oblique-46"/>
      <use transform="translate(57.519531 0.09375)" xlink:href="#DejaVuSans-Oblique-50"/>
      <use transform="translate(117.822266 0.09375)" xlink:href="#DejaVuSans-Oblique-52"/>
      <use transform="translate(187.304688 -16.3125)scale(0.7)" xlink:href="#DejaVuSans-Oblique-55"/>
      <use transform="translate(238.540039 -16.3125)scale(0.7)" xlink:href="#DejaVuSans-Oblique-74"/>
      <use transform="translate(265.986328 -16.3125)scale(0.7)" xlink:href="#DejaVuSans-Oblique-69"/>
      <use transform="translate(285.43457 -16.3125)scale(0.7)" xlink:href="#DejaVuSans-Oblique-6c"/>
      <use transform="translate(304.882812 -16.3125)scale(0.7)" xlink:href="#DejaVuSans-Oblique-69"/>
      <use transform="translate(324.331055 -16.3125)scale(0.7)" xlink:href="#DejaVuSans-Oblique-74"/>
      <use transform="translate(351.777344 -16.3125)scale(0.7)" xlink:href="#DejaVuSans-Oblique-79"/>
     </g>
    </g>
   </g>
   <g id="matplotlib.axis_2">
    <g id="ytick_1">
     <g id="line2d_7">
      <defs>
       <path d="M 0 0 
L -3.5 0 
" id="m7b9ae520f7" style="stroke:#000000;stroke-width:0.8;"/>
      </defs>
      <g>
       <use style="stroke:#000000;stroke-width:0.8;" x="135" xlink:href="#m7b9ae520f7" y="448.56"/>
      </g>
     </g>
     <g id="text_8">
      <!-- 0.0 -->
      <g transform="translate(99.374375 455.398594)scale(0.18 -0.18)">
       <use xlink:href="#DejaVuSans-30"/>
       <use x="63.623047" xlink:href="#DejaVuSans-2e"/>
       <use x="95.410156" xlink:href="#DejaVuSans-30"/>
      </g>
     </g>
    </g>
    <g id="ytick_2">
     <g id="line2d_8">
      <g>
       <use style="stroke:#000000;stroke-width:0.8;" x="135" xlink:href="#m7b9ae520f7" y="370.944"/>
      </g>
     </g>
     <g id="text_9">
      <!-- 0.2 -->
      <g transform="translate(99.374375 377.782594)scale(0.18 -0.18)">
       <use xlink:href="#DejaVuSans-30"/>
       <use x="63.623047" xlink:href="#DejaVuSans-2e"/>
       <use x="95.410156" xlink:href="#DejaVuSans-32"/>
      </g>
     </g>
    </g>
    <g id="ytick_3">
     <g id="line2d_9">
      <g>
       <use style="stroke:#000000;stroke-width:0.8;" x="135" xlink:href="#m7b9ae520f7" y="293.328"/>
      </g>
     </g>
     <g id="text_10">
      <!-- 0.4 -->
      <g transform="translate(99.374375 300.166594)scale(0.18 -0.18)">
       <use xlink:href="#DejaVuSans-30"/>
       <use x="63.623047" xlink:href="#DejaVuSans-2e"/>
       <use x="95.410156" xlink:href="#DejaVuSans-34"/>
      </g>
     </g>
    </g>
    <g id="ytick_4">
     <g id="line2d_10">
      <g>
       <use style="stroke:#000000;stroke-width:0.8;" x="135" xlink:href="#m7b9ae520f7" y="215.712"/>
      </g>
     </g>
     <g id="text_11">
      <!-- 0.6 -->
      <g transform="translate(99.374375 222.550594)scale(0.18 -0.18)">
       <use xlink:href="#DejaVuSans-30"/>
       <use x="63.623047" xlink:href="#DejaVuSans-2e"/>
       <use x="95.410156" xlink:href="#DejaVuSans-36"/>
      </g>
     </g>
    </g>
    <g id="ytick_5">
     <g id="line2d_11">
      <g>
       <use style="stroke:#000000;stroke-width:0.8;" x="135" xlink:href="#m7b9ae520f7" y="138.096"/>
      </g>
     </g>
     <g id="text_12">
      <!-- 0.8 -->
      <g transform="translate(99.374375 144.934594)scale(0.18 -0.18)">
       <use xlink:href="#DejaVuSans-30"/>
       <use x="63.623047" xlink:href="#DejaVuSans-2e"/>
       <use x="95.410156" xlink:href="#DejaVuSans-38"/>
      </g>
     </g>
    </g>
    <g id="ytick_6">
     <g id="line2d_12">
      <g>
       <use style="stroke:#000000;stroke-width:0.8;" x="135" xlink:href="#m7b9ae520f7" y="60.48"/>
      </g>
     </g>
     <g id="text_13">
      <!-- 1.0 -->
      <g transform="translate(99.374375 67.318594)scale(0.18 -0.18)">
       <use xlink:href="#DejaVuSans-31"/>
       <use x="63.623047" xlink:href="#DejaVuSans-2e"/>
       <use x="95.410156" xlink:href="#DejaVuSans-30"/>
      </g>
     </g>
    </g>
    <g id="text_14">
     <!-- $TPR_{Utility}$ -->
     <g transform="translate(88.554375 298.52)rotate(-90)scale(0.22 -0.22)">
      <defs>
       <path d="M 378 4666 
L 4325 4666 
L 4225 4134 
L 2559 4134 
L 1759 0 
L 1125 0 
L 1925 4134 
L 275 4134 
L 378 4666 
z
" id="DejaVuSans-Oblique-54" transform="scale(0.015625)"/>
      </defs>
      <use transform="translate(0 0.09375)" xlink:href="#DejaVuSans-Oblique-54"/>
      <use transform="translate(61.083984 0.09375)" xlink:href="#DejaVuSans-Oblique-50"/>
      <use transform="translate(121.386719 0.09375)" xlink:href="#DejaVuSans-Oblique-52"/>
      <use transform="translate(190.869141 -16.3125)scale(0.7)" xlink:href="#DejaVuSans-Oblique-55"/>
      <use transform="translate(242.104492 -16.3125)scale(0.7)" xlink:href="#DejaVuSans-Oblique-74"/>
      <use transform="translate(269.550781 -16.3125)scale(0.7)" xlink:href="#DejaVuSans-Oblique-69"/>
      <use transform="translate(288.999023 -16.3125)scale(0.7)" xlink:href="#DejaVuSans-Oblique-6c"/>
      <use transform="translate(308.447266 -16.3125)scale(0.7)" xlink:href="#DejaVuSans-Oblique-69"/>
      <use transform="translate(327.895508 -16.3125)scale(0.7)" xlink:href="#DejaVuSans-Oblique-74"/>
      <use transform="translate(355.341797 -16.3125)scale(0.7)" xlink:href="#DejaVuSans-Oblique-79"/>
     </g>
    </g>
   </g>
   <g id="line2d_13">
    <path clip-path="url(#p843a037f67)" d="M 135 448.56 
L 135 430.583542 
L 137.051471 430.583542 
L 137.051471 392.515749 
L 139.102941 392.515749 
L 139.102941 338.586376 
L 141.154412 338.586376 
L 141.154412 332.241744 
L 143.205882 332.241744 
L 143.205882 326.95455 
L 145.257353 326.95455 
L 145.257353 325.897112 
L 147.308824 325.897112 
L 147.308824 324.839673 
L 149.360294 324.839673 
L 149.360294 322.724796 
L 151.411765 322.724796 
L 151.411765 295.23139 
L 153.463235 295.23139 
L 153.463235 289.944196 
L 155.514706 289.944196 
L 155.514706 279.369809 
L 157.566176 279.369809 
L 157.566176 269.852861 
L 159.617647 269.852861 
L 159.617647 258.221035 
L 165.772059 258.221035 
L 165.772059 250.818965 
L 167.823529 250.818965 
L 167.823529 248.704087 
L 169.875 248.704087 
L 169.875 244.474332 
L 171.926471 244.474332 
L 171.926471 243.416894 
L 173.977941 243.416894 
L 173.977941 242.359455 
L 178.080882 242.359455 
L 178.080882 238.1297 
L 180.132353 238.1297 
L 180.132353 237.072262 
L 182.183824 237.072262 
L 182.183824 231.785068 
L 186.286765 231.785068 
L 186.286765 223.325559 
L 188.338235 223.325559 
L 188.338235 220.153243 
L 190.389706 220.153243 
L 190.389706 213.80861 
L 192.441176 213.80861 
L 192.441176 205.349101 
L 196.544118 205.349101 
L 196.544118 200.061907 
L 198.595588 200.061907 
L 198.595588 196.889591 
L 200.647059 196.889591 
L 200.647059 195.832153 
L 202.698529 195.832153 
L 202.698529 193.717275 
L 204.75 193.717275 
L 204.75 191.602398 
L 208.852941 191.602398 
L 208.852941 190.544959 
L 212.955882 190.544959 
L 212.955882 188.430082 
L 215.007353 188.430082 
L 215.007353 187.372643 
L 219.110294 187.372643 
L 219.110294 186.315204 
L 221.161765 186.315204 
L 221.161765 185.257766 
L 223.213235 185.257766 
L 223.213235 184.200327 
L 227.316176 184.200327 
L 227.316176 183.142888 
L 229.367647 183.142888 
L 229.367647 179.970572 
L 231.419118 179.970572 
L 231.419118 177.855695 
L 233.470588 177.855695 
L 233.470588 176.798256 
L 235.522059 176.798256 
L 235.522059 175.740817 
L 241.676471 175.740817 
L 241.676471 173.62594 
L 245.779412 173.62594 
L 245.779412 170.453624 
L 249.882353 170.453624 
L 249.882353 168.338747 
L 251.933824 168.338747 
L 251.933824 167.281308 
L 253.985294 167.281308 
L 253.985294 166.223869 
L 260.139706 166.223869 
L 260.139706 164.108992 
L 264.242647 164.108992 
L 264.242647 163.051553 
L 270.397059 163.051553 
L 270.397059 161.994114 
L 272.448529 161.994114 
L 272.448529 160.936676 
L 274.5 160.936676 
L 274.5 159.879237 
L 276.551471 159.879237 
L 276.551471 158.821798 
L 284.757353 158.821798 
L 284.757353 152.477166 
L 286.808824 152.477166 
L 286.808824 147.189973 
L 288.860294 147.189973 
L 288.860294 145.075095 
L 290.911765 145.075095 
L 290.911765 144.017657 
L 299.117647 144.017657 
L 299.117647 142.960218 
L 307.323529 142.960218 
L 307.323529 141.902779 
L 309.375 141.902779 
L 309.375 140.845341 
L 313.477941 140.845341 
L 313.477941 138.730463 
L 319.632353 138.730463 
L 319.632353 137.673025 
L 329.889706 137.673025 
L 329.889706 136.615586 
L 342.198529 136.615586 
L 342.198529 134.500708 
L 348.352941 134.500708 
L 348.352941 133.44327 
L 354.507353 133.44327 
L 354.507353 132.385831 
L 360.661765 132.385831 
L 360.661765 130.270954 
L 364.764706 130.270954 
L 364.764706 129.213515 
L 366.816176 129.213515 
L 366.816176 128.156076 
L 370.919118 128.156076 
L 370.919118 127.098638 
L 372.970588 127.098638 
L 372.970588 124.98376 
L 377.073529 124.98376 
L 377.073529 123.926322 
L 381.176471 123.926322 
L 381.176471 122.868883 
L 385.279412 122.868883 
L 385.279412 120.754005 
L 389.382353 120.754005 
L 389.382353 119.696567 
L 391.433824 119.696567 
L 391.433824 118.639128 
L 393.485294 118.639128 
L 393.485294 117.581689 
L 397.588235 117.581689 
L 397.588235 116.524251 
L 401.691176 116.524251 
L 401.691176 115.466812 
L 409.897059 115.466812 
L 409.897059 114.409373 
L 411.948529 114.409373 
L 411.948529 112.294496 
L 420.154412 112.294496 
L 420.154412 111.237057 
L 440.669118 111.237057 
L 440.669118 109.12218 
L 442.720588 109.12218 
L 442.720588 107.007302 
L 446.823529 107.007302 
L 446.823529 104.892425 
L 450.926471 104.892425 
L 450.926471 103.834986 
L 452.977941 103.834986 
L 452.977941 101.720109 
L 455.029412 101.720109 
L 455.029412 100.66267 
L 477.595588 100.66267 
L 477.595588 98.547793 
L 481.698529 98.547793 
L 481.698529 97.490354 
L 483.75 97.490354 
L 483.75 96.432916 
L 528.882353 96.432916 
L 528.882353 95.375477 
L 545.294118 95.375477 
L 545.294118 92.203161 
L 555.551471 92.203161 
L 555.551471 91.145722 
L 569.911765 91.145722 
L 569.911765 90.088283 
L 586.323529 90.088283 
L 586.323529 89.030845 
L 590.426471 89.030845 
L 590.426471 87.973406 
L 592.477941 87.973406 
L 592.477941 85.858529 
L 612.992647 85.858529 
L 612.992647 84.80109 
L 615.044118 84.80109 
L 615.044118 83.743651 
L 625.301471 83.743651 
L 625.301471 82.686213 
L 633.507353 82.686213 
L 633.507353 81.628774 
L 647.867647 81.628774 
L 647.867647 80.571335 
L 658.125 80.571335 
L 658.125 79.513896 
L 664.279412 79.513896 
L 664.279412 78.456458 
L 672.485294 78.456458 
L 672.485294 77.399019 
L 758.647059 77.399019 
L 758.647059 76.34158 
L 762.75 76.34158 
L 762.75 75.284142 
L 770.955882 75.284142 
L 770.955882 74.226703 
L 779.161765 74.226703 
L 779.161765 73.169264 
L 789.419118 73.169264 
L 789.419118 72.111826 
L 801.727941 72.111826 
L 801.727941 69.996948 
L 805.830882 69.996948 
L 805.830882 68.93951 
L 809.933824 68.93951 
L 809.933824 67.882071 
L 811.985294 67.882071 
L 811.985294 66.824632 
L 848.911765 66.824632 
L 848.911765 65.767193 
L 859.169118 65.767193 
L 859.169118 63.652316 
L 871.477941 63.652316 
L 871.477941 62.594877 
L 922.764706 62.594877 
L 922.764706 61.537439 
L 955.588235 61.537439 
L 955.588235 60.48 
L 972 60.48 
L 972 60.48 
" style="fill:none;stroke:#1f77b4;stroke-linecap:square;stroke-width:1.5;"/>
   </g>
   <g id="line2d_14">
    <path clip-path="url(#p843a037f67)" d="M 135 448.56 
L 135 433.755858 
L 137.051471 433.755858 
L 137.051471 398.860381 
L 139.102941 398.860381 
L 139.102941 341.758692 
L 141.154412 341.758692 
L 141.154412 331.184305 
L 143.205882 331.184305 
L 143.205882 321.667357 
L 147.308824 321.667357 
L 147.308824 319.55248 
L 149.360294 319.55248 
L 149.360294 312.150409 
L 151.411765 312.150409 
L 151.411765 299.461144 
L 153.463235 299.461144 
L 153.463235 274.082616 
L 155.514706 274.082616 
L 155.514706 269.852861 
L 157.566176 269.852861 
L 157.566176 262.45079 
L 159.617647 262.45079 
L 159.617647 261.393351 
L 165.772059 261.393351 
L 165.772059 257.163597 
L 167.823529 257.163597 
L 167.823529 242.359455 
L 169.875 242.359455 
L 169.875 238.1297 
L 171.926471 238.1297 
L 171.926471 237.072262 
L 180.132353 237.072262 
L 180.132353 234.957384 
L 182.183824 234.957384 
L 182.183824 230.727629 
L 184.235294 230.727629 
L 184.235294 226.497875 
L 186.286765 226.497875 
L 186.286765 223.325559 
L 190.389706 223.325559 
L 190.389706 221.210681 
L 192.441176 221.210681 
L 192.441176 220.153243 
L 194.492647 220.153243 
L 194.492647 215.923488 
L 198.595588 215.923488 
L 198.595588 208.521417 
L 200.647059 208.521417 
L 200.647059 201.119346 
L 202.698529 201.119346 
L 202.698529 195.832153 
L 204.75 195.832153 
L 204.75 193.717275 
L 210.904412 193.717275 
L 210.904412 191.602398 
L 215.007353 191.602398 
L 215.007353 190.544959 
L 221.161765 190.544959 
L 221.161765 182.08545 
L 231.419118 182.08545 
L 231.419118 171.511063 
L 235.522059 171.511063 
L 235.522059 165.166431 
L 237.573529 165.166431 
L 237.573529 163.051553 
L 249.882353 163.051553 
L 249.882353 161.994114 
L 264.242647 161.994114 
L 264.242647 159.879237 
L 278.602941 159.879237 
L 278.602941 157.76436 
L 280.654412 157.76436 
L 280.654412 156.706921 
L 282.705882 156.706921 
L 282.705882 155.649482 
L 286.808824 155.649482 
L 286.808824 153.534605 
L 288.860294 153.534605 
L 288.860294 152.477166 
L 292.963235 152.477166 
L 292.963235 151.419728 
L 295.014706 151.419728 
L 295.014706 149.30485 
L 297.066176 149.30485 
L 297.066176 148.247411 
L 299.117647 148.247411 
L 299.117647 147.189973 
L 301.169118 147.189973 
L 301.169118 146.132534 
L 303.220588 146.132534 
L 303.220588 145.075095 
L 305.272059 145.075095 
L 305.272059 142.960218 
L 309.375 142.960218 
L 309.375 140.845341 
L 321.683824 140.845341 
L 321.683824 136.615586 
L 327.838235 136.615586 
L 327.838235 134.500708 
L 331.941176 134.500708 
L 331.941176 132.385831 
L 342.198529 132.385831 
L 342.198529 128.156076 
L 344.25 128.156076 
L 344.25 127.098638 
L 348.352941 127.098638 
L 348.352941 126.041199 
L 356.558824 126.041199 
L 356.558824 123.926322 
L 368.867647 123.926322 
L 368.867647 121.811444 
L 381.176471 121.811444 
L 381.176471 120.754005 
L 383.227941 120.754005 
L 383.227941 119.696567 
L 385.279412 119.696567 
L 385.279412 117.581689 
L 387.330882 117.581689 
L 387.330882 115.466812 
L 397.588235 115.466812 
L 397.588235 113.351935 
L 399.639706 113.351935 
L 399.639706 112.294496 
L 401.691176 112.294496 
L 401.691176 111.237057 
L 409.897059 111.237057 
L 409.897059 110.179619 
L 411.948529 110.179619 
L 411.948529 109.12218 
L 414 109.12218 
L 414 108.064741 
L 432.463235 108.064741 
L 432.463235 107.007302 
L 438.617647 107.007302 
L 438.617647 105.949864 
L 444.772059 105.949864 
L 444.772059 104.892425 
L 448.875 104.892425 
L 448.875 103.834986 
L 450.926471 103.834986 
L 450.926471 102.777548 
L 467.338235 102.777548 
L 467.338235 101.720109 
L 471.441176 101.720109 
L 471.441176 100.66267 
L 483.75 100.66267 
L 483.75 98.547793 
L 489.904412 98.547793 
L 489.904412 97.490354 
L 500.161765 97.490354 
L 500.161765 96.432916 
L 504.264706 96.432916 
L 504.264706 95.375477 
L 516.573529 95.375477 
L 516.573529 92.203161 
L 545.294118 92.203161 
L 545.294118 91.145722 
L 561.705882 91.145722 
L 561.705882 90.088283 
L 567.860294 90.088283 
L 567.860294 89.030845 
L 582.220588 89.030845 
L 582.220588 87.973406 
L 586.323529 87.973406 
L 586.323529 86.915967 
L 590.426471 86.915967 
L 590.426471 85.858529 
L 596.580882 85.858529 
L 596.580882 84.80109 
L 604.786765 84.80109 
L 604.786765 83.743651 
L 612.992647 83.743651 
L 612.992647 82.686213 
L 615.044118 82.686213 
L 615.044118 81.628774 
L 682.742647 81.628774 
L 682.742647 80.571335 
L 690.948529 80.571335 
L 690.948529 78.456458 
L 715.566176 78.456458 
L 715.566176 77.399019 
L 736.080882 77.399019 
L 736.080882 75.284142 
L 744.286765 75.284142 
L 744.286765 74.226703 
L 764.801471 74.226703 
L 764.801471 73.169264 
L 807.882353 73.169264 
L 807.882353 72.111826 
L 811.985294 72.111826 
L 811.985294 71.054387 
L 818.139706 71.054387 
L 818.139706 68.93951 
L 828.397059 68.93951 
L 828.397059 67.882071 
L 830.448529 67.882071 
L 830.448529 66.824632 
L 853.014706 66.824632 
L 853.014706 64.709755 
L 863.272059 64.709755 
L 863.272059 62.594877 
L 894.044118 62.594877 
L 894.044118 61.537439 
L 957.639706 61.537439 
L 957.639706 60.48 
L 972 60.48 
L 972 60.48 
" style="fill:none;stroke:#ff7f0e;stroke-linecap:square;stroke-width:1.5;"/>
   </g>
   <g id="line2d_15">
    <path clip-path="url(#p843a037f67)" d="M 135 448.56 
L 135 430.583542 
L 137.051471 430.583542 
L 137.051471 392.515749 
L 139.102941 392.515749 
L 139.102941 336.471499 
L 143.205882 336.471499 
L 143.205882 334.356621 
L 145.257353 334.356621 
L 145.257353 329.069428 
L 147.308824 329.069428 
L 147.308824 322.724796 
L 149.360294 322.724796 
L 149.360294 302.63346 
L 151.411765 302.63346 
L 151.411765 292.059074 
L 153.463235 292.059074 
L 153.463235 274.082616 
L 155.514706 274.082616 
L 155.514706 269.852861 
L 157.566176 269.852861 
L 157.566176 265.623106 
L 159.617647 265.623106 
L 159.617647 262.45079 
L 163.720588 262.45079 
L 163.720588 259.278474 
L 165.772059 259.278474 
L 165.772059 256.106158 
L 167.823529 256.106158 
L 167.823529 244.474332 
L 173.977941 244.474332 
L 173.977941 239.187139 
L 184.235294 239.187139 
L 184.235294 238.1297 
L 186.286765 238.1297 
L 186.286765 232.842507 
L 188.338235 232.842507 
L 188.338235 225.440436 
L 190.389706 225.440436 
L 190.389706 221.210681 
L 192.441176 221.210681 
L 192.441176 215.923488 
L 194.492647 215.923488 
L 194.492647 211.693733 
L 196.544118 211.693733 
L 196.544118 210.636294 
L 198.595588 210.636294 
L 198.595588 201.119346 
L 200.647059 201.119346 
L 200.647059 199.004469 
L 202.698529 199.004469 
L 202.698529 197.94703 
L 204.75 197.94703 
L 204.75 195.832153 
L 206.801471 195.832153 
L 206.801471 194.774714 
L 210.904412 194.774714 
L 210.904412 193.717275 
L 212.955882 193.717275 
L 212.955882 191.602398 
L 221.161765 191.602398 
L 221.161765 190.544959 
L 225.264706 190.544959 
L 225.264706 188.430082 
L 227.316176 188.430082 
L 227.316176 186.315204 
L 233.470588 186.315204 
L 233.470588 184.200327 
L 237.573529 184.200327 
L 237.573529 179.970572 
L 239.625 179.970572 
L 239.625 177.855695 
L 243.727941 177.855695 
L 243.727941 173.62594 
L 247.830882 173.62594 
L 247.830882 166.223869 
L 251.933824 166.223869 
L 251.933824 164.108992 
L 256.036765 164.108992 
L 256.036765 163.051553 
L 264.242647 163.051553 
L 264.242647 161.994114 
L 266.294118 161.994114 
L 266.294118 159.879237 
L 272.448529 159.879237 
L 272.448529 158.821798 
L 276.551471 158.821798 
L 276.551471 154.592044 
L 278.602941 154.592044 
L 278.602941 153.534605 
L 280.654412 153.534605 
L 280.654412 151.419728 
L 284.757353 151.419728 
L 284.757353 149.30485 
L 286.808824 149.30485 
L 286.808824 148.247411 
L 288.860294 148.247411 
L 288.860294 147.189973 
L 290.911765 147.189973 
L 290.911765 146.132534 
L 292.963235 146.132534 
L 292.963235 145.075095 
L 297.066176 145.075095 
L 297.066176 142.960218 
L 301.169118 142.960218 
L 301.169118 141.902779 
L 309.375 141.902779 
L 309.375 140.845341 
L 319.632353 140.845341 
L 319.632353 138.730463 
L 336.044118 138.730463 
L 336.044118 137.673025 
L 338.095588 137.673025 
L 338.095588 135.558147 
L 340.147059 135.558147 
L 340.147059 134.500708 
L 348.352941 134.500708 
L 348.352941 133.44327 
L 352.455882 133.44327 
L 352.455882 130.270954 
L 354.507353 130.270954 
L 354.507353 129.213515 
L 356.558824 129.213515 
L 356.558824 128.156076 
L 360.661765 128.156076 
L 360.661765 127.098638 
L 364.764706 127.098638 
L 364.764706 124.98376 
L 368.867647 124.98376 
L 368.867647 123.926322 
L 370.919118 123.926322 
L 370.919118 120.754005 
L 375.022059 120.754005 
L 375.022059 119.696567 
L 377.073529 119.696567 
L 377.073529 118.639128 
L 407.845588 118.639128 
L 407.845588 117.581689 
L 411.948529 117.581689 
L 411.948529 116.524251 
L 414 116.524251 
L 414 115.466812 
L 420.154412 115.466812 
L 420.154412 114.409373 
L 424.257353 114.409373 
L 424.257353 113.351935 
L 430.411765 113.351935 
L 430.411765 110.179619 
L 436.566176 110.179619 
L 436.566176 109.12218 
L 446.823529 109.12218 
L 446.823529 108.064741 
L 450.926471 108.064741 
L 450.926471 107.007302 
L 457.080882 107.007302 
L 457.080882 105.949864 
L 459.132353 105.949864 
L 459.132353 104.892425 
L 463.235294 104.892425 
L 463.235294 102.777548 
L 471.441176 102.777548 
L 471.441176 99.605232 
L 489.904412 99.605232 
L 489.904412 98.547793 
L 491.955882 98.547793 
L 491.955882 95.375477 
L 524.779412 95.375477 
L 524.779412 94.318038 
L 539.139706 94.318038 
L 539.139706 93.260599 
L 563.757353 93.260599 
L 563.757353 92.203161 
L 576.066176 92.203161 
L 576.066176 91.145722 
L 588.375 91.145722 
L 588.375 90.088283 
L 590.426471 90.088283 
L 590.426471 89.030845 
L 604.786765 89.030845 
L 604.786765 87.973406 
L 619.147059 87.973406 
L 619.147059 86.915967 
L 621.198529 86.915967 
L 621.198529 84.80109 
L 639.661765 84.80109 
L 639.661765 83.743651 
L 649.919118 83.743651 
L 649.919118 81.628774 
L 666.330882 81.628774 
L 666.330882 80.571335 
L 707.360294 80.571335 
L 707.360294 78.456458 
L 713.514706 78.456458 
L 713.514706 77.399019 
L 723.772059 77.399019 
L 723.772059 76.34158 
L 736.080882 76.34158 
L 736.080882 75.284142 
L 738.132353 75.284142 
L 738.132353 74.226703 
L 764.801471 74.226703 
L 764.801471 73.169264 
L 768.904412 73.169264 
L 768.904412 72.111826 
L 770.955882 72.111826 
L 770.955882 71.054387 
L 781.213235 71.054387 
L 781.213235 69.996948 
L 797.625 69.996948 
L 797.625 68.93951 
L 818.139706 68.93951 
L 818.139706 67.882071 
L 820.191176 67.882071 
L 820.191176 66.824632 
L 840.705882 66.824632 
L 840.705882 65.767193 
L 869.426471 65.767193 
L 869.426471 64.709755 
L 875.580882 64.709755 
L 875.580882 63.652316 
L 891.992647 63.652316 
L 891.992647 62.594877 
L 896.095588 62.594877 
L 896.095588 61.537439 
L 943.279412 61.537439 
L 943.279412 60.48 
L 972 60.48 
L 972 60.48 
" style="fill:none;stroke:#2ca02c;stroke-linecap:square;stroke-width:1.5;"/>
   </g>
   <g id="line2d_16">
    <path clip-path="url(#p843a037f67)" d="M 135 448.56 
L 135 429.526104 
L 137.051471 429.526104 
L 137.051471 381.941362 
L 139.102941 381.941362 
L 139.102941 362.907466 
L 141.154412 362.907466 
L 141.154412 351.27564 
L 143.205882 351.27564 
L 143.205882 345.988447 
L 145.257353 345.988447 
L 145.257353 343.873569 
L 147.308824 343.873569 
L 147.308824 321.667357 
L 149.360294 321.667357 
L 149.360294 319.55248 
L 151.411765 319.55248 
L 151.411765 311.09297 
L 153.463235 311.09297 
L 153.463235 307.920654 
L 155.514706 307.920654 
L 155.514706 305.805777 
L 157.566176 305.805777 
L 157.566176 295.23139 
L 159.617647 295.23139 
L 159.617647 293.116512 
L 161.669118 293.116512 
L 161.669118 289.944196 
L 163.720588 289.944196 
L 163.720588 280.427248 
L 167.823529 280.427248 
L 167.823529 271.967738 
L 173.977941 271.967738 
L 173.977941 268.795422 
L 176.029412 268.795422 
L 176.029412 262.45079 
L 178.080882 262.45079 
L 178.080882 256.106158 
L 180.132353 256.106158 
L 180.132353 248.704087 
L 186.286765 248.704087 
L 186.286765 245.531771 
L 190.389706 245.531771 
L 190.389706 234.957384 
L 192.441176 234.957384 
L 192.441176 230.727629 
L 196.544118 230.727629 
L 196.544118 226.497875 
L 198.595588 226.497875 
L 198.595588 225.440436 
L 204.75 225.440436 
L 204.75 224.382997 
L 206.801471 224.382997 
L 206.801471 221.210681 
L 208.852941 221.210681 
L 208.852941 211.693733 
L 210.904412 211.693733 
L 210.904412 206.40654 
L 212.955882 206.40654 
L 212.955882 204.291662 
L 215.007353 204.291662 
L 215.007353 201.119346 
L 221.161765 201.119346 
L 221.161765 196.889591 
L 223.213235 196.889591 
L 223.213235 195.832153 
L 225.264706 195.832153 
L 225.264706 192.659837 
L 233.470588 192.659837 
L 233.470588 191.602398 
L 237.573529 191.602398 
L 237.573529 190.544959 
L 239.625 190.544959 
L 239.625 186.315204 
L 241.676471 186.315204 
L 241.676471 185.257766 
L 243.727941 185.257766 
L 243.727941 179.970572 
L 247.830882 179.970572 
L 247.830882 174.683379 
L 249.882353 174.683379 
L 249.882353 172.568501 
L 251.933824 172.568501 
L 251.933824 171.511063 
L 253.985294 171.511063 
L 253.985294 170.453624 
L 258.088235 170.453624 
L 258.088235 168.338747 
L 260.139706 168.338747 
L 260.139706 164.108992 
L 262.191176 164.108992 
L 262.191176 163.051553 
L 266.294118 163.051553 
L 266.294118 159.879237 
L 276.551471 159.879237 
L 276.551471 158.821798 
L 278.602941 158.821798 
L 278.602941 157.76436 
L 284.757353 157.76436 
L 284.757353 155.649482 
L 288.860294 155.649482 
L 288.860294 154.592044 
L 295.014706 154.592044 
L 295.014706 153.534605 
L 301.169118 153.534605 
L 301.169118 152.477166 
L 303.220588 152.477166 
L 303.220588 151.419728 
L 305.272059 151.419728 
L 305.272059 150.362289 
L 309.375 150.362289 
L 309.375 149.30485 
L 313.477941 149.30485 
L 313.477941 148.247411 
L 315.529412 148.247411 
L 315.529412 146.132534 
L 317.580882 146.132534 
L 317.580882 145.075095 
L 319.632353 145.075095 
L 319.632353 144.017657 
L 321.683824 144.017657 
L 321.683824 142.960218 
L 327.838235 142.960218 
L 327.838235 141.902779 
L 340.147059 141.902779 
L 340.147059 139.787902 
L 346.301471 139.787902 
L 346.301471 138.730463 
L 356.558824 138.730463 
L 356.558824 137.673025 
L 360.661765 137.673025 
L 360.661765 135.558147 
L 362.713235 135.558147 
L 362.713235 134.500708 
L 364.764706 134.500708 
L 364.764706 133.44327 
L 379.125 133.44327 
L 379.125 132.385831 
L 385.279412 132.385831 
L 385.279412 131.328392 
L 389.382353 131.328392 
L 389.382353 129.213515 
L 395.536765 129.213515 
L 395.536765 128.156076 
L 397.588235 128.156076 
L 397.588235 127.098638 
L 399.639706 127.098638 
L 399.639706 123.926322 
L 403.742647 123.926322 
L 403.742647 122.868883 
L 407.845588 122.868883 
L 407.845588 121.811444 
L 409.897059 121.811444 
L 409.897059 119.696567 
L 418.102941 119.696567 
L 418.102941 118.639128 
L 440.669118 118.639128 
L 440.669118 117.581689 
L 448.875 117.581689 
L 448.875 116.524251 
L 455.029412 116.524251 
L 455.029412 115.466812 
L 471.441176 115.466812 
L 471.441176 114.409373 
L 481.698529 114.409373 
L 481.698529 111.237057 
L 489.904412 111.237057 
L 489.904412 110.179619 
L 494.007353 110.179619 
L 494.007353 109.12218 
L 496.058824 109.12218 
L 496.058824 108.064741 
L 508.367647 108.064741 
L 508.367647 105.949864 
L 514.522059 105.949864 
L 514.522059 104.892425 
L 518.625 104.892425 
L 518.625 103.834986 
L 522.727941 103.834986 
L 522.727941 102.777548 
L 528.882353 102.777548 
L 528.882353 101.720109 
L 549.397059 101.720109 
L 549.397059 99.605232 
L 553.5 99.605232 
L 553.5 98.547793 
L 569.911765 98.547793 
L 569.911765 96.432916 
L 576.066176 96.432916 
L 576.066176 95.375477 
L 584.272059 95.375477 
L 584.272059 94.318038 
L 600.683824 94.318038 
L 600.683824 93.260599 
L 606.838235 93.260599 
L 606.838235 92.203161 
L 612.992647 92.203161 
L 612.992647 86.915967 
L 623.25 86.915967 
L 623.25 85.858529 
L 627.352941 85.858529 
L 627.352941 84.80109 
L 629.404412 84.80109 
L 629.404412 83.743651 
L 635.558824 83.743651 
L 635.558824 82.686213 
L 643.764706 82.686213 
L 643.764706 81.628774 
L 645.816176 81.628774 
L 645.816176 80.571335 
L 647.867647 80.571335 
L 647.867647 78.456458 
L 674.536765 78.456458 
L 674.536765 77.399019 
L 680.691176 77.399019 
L 680.691176 76.34158 
L 686.845588 76.34158 
L 686.845588 75.284142 
L 711.463235 75.284142 
L 711.463235 74.226703 
L 736.080882 74.226703 
L 736.080882 71.054387 
L 748.389706 71.054387 
L 748.389706 69.996948 
L 756.595588 69.996948 
L 756.595588 68.93951 
L 777.110294 68.93951 
L 777.110294 67.882071 
L 838.654412 67.882071 
L 838.654412 66.824632 
L 848.911765 66.824632 
L 848.911765 65.767193 
L 855.066176 65.767193 
L 855.066176 64.709755 
L 863.272059 64.709755 
L 863.272059 63.652316 
L 904.301471 63.652316 
L 904.301471 62.594877 
L 908.404412 62.594877 
L 908.404412 61.537439 
L 939.176471 61.537439 
L 939.176471 60.48 
L 972 60.48 
L 972 60.48 
" style="fill:none;stroke:#d62728;stroke-linecap:square;stroke-width:1.5;"/>
   </g>
   <g id="line2d_17">
    <path clip-path="url(#p843a037f67)" d="M 135 448.56 
L 972 60.48 
" style="fill:none;stroke:#ff0000;stroke-dasharray:5.55,2.4;stroke-dashoffset:0;stroke-width:1.5;"/>
   </g>
   <g id="patch_3">
    <path d="M 135 448.56 
L 135 60.48 
" style="fill:none;stroke:#000000;stroke-linecap:square;stroke-linejoin:miter;stroke-width:0.8;"/>
   </g>
   <g id="patch_4">
    <path d="M 972 448.56 
L 972 60.48 
" style="fill:none;stroke:#000000;stroke-linecap:square;stroke-linejoin:miter;stroke-width:0.8;"/>
   </g>
   <g id="patch_5">
    <path d="M 135 448.56 
L 972 448.56 
" style="fill:none;stroke:#000000;stroke-linecap:square;stroke-linejoin:miter;stroke-width:0.8;"/>
   </g>
   <g id="patch_6">
    <path d="M 135 60.48 
L 972 60.48 
" style="fill:none;stroke:#000000;stroke-linecap:square;stroke-linejoin:miter;stroke-width:0.8;"/>
   </g>
   <g id="text_15">
    <!-- Compas -->
    <g transform="translate(504.86625 54.48)scale(0.24 -0.24)">
     <defs>
      <path d="M 4122 4306 
L 4122 3641 
Q 3803 3938 3442 4084 
Q 3081 4231 2675 4231 
Q 1875 4231 1450 3742 
Q 1025 3253 1025 2328 
Q 1025 1406 1450 917 
Q 1875 428 2675 428 
Q 3081 428 3442 575 
Q 3803 722 4122 1019 
L 4122 359 
Q 3791 134 3420 21 
Q 3050 -91 2638 -91 
Q 1578 -91 968 557 
Q 359 1206 359 2328 
Q 359 3453 968 4101 
Q 1578 4750 2638 4750 
Q 3056 4750 3426 4639 
Q 3797 4528 4122 4306 
z
" id="DejaVuSans-43" transform="scale(0.015625)"/>
      <path d="M 1959 3097 
Q 1497 3097 1228 2736 
Q 959 2375 959 1747 
Q 959 1119 1226 758 
Q 1494 397 1959 397 
Q 2419 397 2687 759 
Q 2956 1122 2956 1747 
Q 2956 2369 2687 2733 
Q 2419 3097 1959 3097 
z
M 1959 3584 
Q 2709 3584 3137 3096 
Q 3566 2609 3566 1747 
Q 3566 888 3137 398 
Q 2709 -91 1959 -91 
Q 1206 -91 779 398 
Q 353 888 353 1747 
Q 353 2609 779 3096 
Q 1206 3584 1959 3584 
z
" id="DejaVuSans-6f" transform="scale(0.015625)"/>
      <path d="M 3328 2828 
Q 3544 3216 3844 3400 
Q 4144 3584 4550 3584 
Q 5097 3584 5394 3201 
Q 5691 2819 5691 2113 
L 5691 0 
L 5113 0 
L 5113 2094 
Q 5113 2597 4934 2840 
Q 4756 3084 4391 3084 
Q 3944 3084 3684 2787 
Q 3425 2491 3425 1978 
L 3425 0 
L 2847 0 
L 2847 2094 
Q 2847 2600 2669 2842 
Q 2491 3084 2119 3084 
Q 1678 3084 1418 2786 
Q 1159 2488 1159 1978 
L 1159 0 
L 581 0 
L 581 3500 
L 1159 3500 
L 1159 2956 
Q 1356 3278 1631 3431 
Q 1906 3584 2284 3584 
Q 2666 3584 2933 3390 
Q 3200 3197 3328 2828 
z
" id="DejaVuSans-6d" transform="scale(0.015625)"/>
      <path d="M 1159 525 
L 1159 -1331 
L 581 -1331 
L 581 3500 
L 1159 3500 
L 1159 2969 
Q 1341 3281 1617 3432 
Q 1894 3584 2278 3584 
Q 2916 3584 3314 3078 
Q 3713 2572 3713 1747 
Q 3713 922 3314 415 
Q 2916 -91 2278 -91 
Q 1894 -91 1617 61 
Q 1341 213 1159 525 
z
M 3116 1747 
Q 3116 2381 2855 2742 
Q 2594 3103 2138 3103 
Q 1681 3103 1420 2742 
Q 1159 2381 1159 1747 
Q 1159 1113 1420 752 
Q 1681 391 2138 391 
Q 2594 391 2855 752 
Q 3116 1113 3116 1747 
z
" id="DejaVuSans-70" transform="scale(0.015625)"/>
      <path d="M 2194 1759 
Q 1497 1759 1228 1600 
Q 959 1441 959 1056 
Q 959 750 1161 570 
Q 1363 391 1709 391 
Q 2188 391 2477 730 
Q 2766 1069 2766 1631 
L 2766 1759 
L 2194 1759 
z
M 3341 1997 
L 3341 0 
L 2766 0 
L 2766 531 
Q 2569 213 2275 61 
Q 1981 -91 1556 -91 
Q 1019 -91 701 211 
Q 384 513 384 1019 
Q 384 1609 779 1909 
Q 1175 2209 1959 2209 
L 2766 2209 
L 2766 2266 
Q 2766 2663 2505 2880 
Q 2244 3097 1772 3097 
Q 1472 3097 1187 3025 
Q 903 2953 641 2809 
L 641 3341 
Q 956 3463 1253 3523 
Q 1550 3584 1831 3584 
Q 2591 3584 2966 3190 
Q 3341 2797 3341 1997 
z
" id="DejaVuSans-61" transform="scale(0.015625)"/>
      <path d="M 2834 3397 
L 2834 2853 
Q 2591 2978 2328 3040 
Q 2066 3103 1784 3103 
Q 1356 3103 1142 2972 
Q 928 2841 928 2578 
Q 928 2378 1081 2264 
Q 1234 2150 1697 2047 
L 1894 2003 
Q 2506 1872 2764 1633 
Q 3022 1394 3022 966 
Q 3022 478 2636 193 
Q 2250 -91 1575 -91 
Q 1294 -91 989 -36 
Q 684 19 347 128 
L 347 722 
Q 666 556 975 473 
Q 1284 391 1588 391 
Q 1994 391 2212 530 
Q 2431 669 2431 922 
Q 2431 1156 2273 1281 
Q 2116 1406 1581 1522 
L 1381 1569 
Q 847 1681 609 1914 
Q 372 2147 372 2553 
Q 372 3047 722 3315 
Q 1072 3584 1716 3584 
Q 2034 3584 2315 3537 
Q 2597 3491 2834 3397 
z
" id="DejaVuSans-73" transform="scale(0.015625)"/>
     </defs>
     <use xlink:href="#DejaVuSans-43"/>
     <use x="69.824219" xlink:href="#DejaVuSans-6f"/>
     <use x="131.005859" xlink:href="#DejaVuSans-6d"/>
     <use x="228.417969" xlink:href="#DejaVuSans-70"/>
     <use x="291.894531" xlink:href="#DejaVuSans-61"/>
     <use x="353.173828" xlink:href="#DejaVuSans-73"/>
    </g>
   </g>
   <g id="legend_1">
    <g id="patch_7">
     <path d="M 681.5875 438.56 
L 958 438.56 
Q 962 438.56 962 434.56 
L 962 316.91 
Q 962 312.91 958 312.91 
L 681.5875 312.91 
Q 677.5875 312.91 677.5875 316.91 
L 677.5875 434.56 
Q 677.5875 438.56 681.5875 438.56 
z
" style="fill:#ffffff;opacity:0.8;stroke:#cccccc;stroke-linejoin:miter;"/>
    </g>
    <g id="line2d_18">
     <path d="M 685.5875 329.106875 
L 725.5875 329.106875 
" style="fill:none;stroke:#1f77b4;stroke-linecap:square;stroke-width:1.5;"/>
    </g>
    <g id="line2d_19"/>
    <g id="text_16">
     <!-- AUC_5-Layers = 0.87 -->
     <g transform="translate(741.5875 336.106875)scale(0.2 -0.2)">
      <defs>
       <path d="M 2188 4044 
L 1331 1722 
L 3047 1722 
L 2188 4044 
z
M 1831 4666 
L 2547 4666 
L 4325 0 
L 3669 0 
L 3244 1197 
L 1141 1197 
L 716 0 
L 50 0 
L 1831 4666 
z
" id="DejaVuSans-41" transform="scale(0.015625)"/>
       <path d="M 556 4666 
L 1191 4666 
L 1191 1831 
Q 1191 1081 1462 751 
Q 1734 422 2344 422 
Q 2950 422 3222 751 
Q 3494 1081 3494 1831 
L 3494 4666 
L 4128 4666 
L 4128 1753 
Q 4128 841 3676 375 
Q 3225 -91 2344 -91 
Q 1459 -91 1007 375 
Q 556 841 556 1753 
L 556 4666 
z
" id="DejaVuSans-55" transform="scale(0.015625)"/>
       <path d="M 3263 -1063 
L 3263 -1509 
L -63 -1509 
L -63 -1063 
L 3263 -1063 
z
" id="DejaVuSans-5f" transform="scale(0.015625)"/>
       <path d="M 691 4666 
L 3169 4666 
L 3169 4134 
L 1269 4134 
L 1269 2991 
Q 1406 3038 1543 3061 
Q 1681 3084 1819 3084 
Q 2600 3084 3056 2656 
Q 3513 2228 3513 1497 
Q 3513 744 3044 326 
Q 2575 -91 1722 -91 
Q 1428 -91 1123 -41 
Q 819 9 494 109 
L 494 744 
Q 775 591 1075 516 
Q 1375 441 1709 441 
Q 2250 441 2565 725 
Q 2881 1009 2881 1497 
Q 2881 1984 2565 2268 
Q 2250 2553 1709 2553 
Q 1456 2553 1204 2497 
Q 953 2441 691 2322 
L 691 4666 
z
" id="DejaVuSans-35" transform="scale(0.015625)"/>
       <path d="M 313 2009 
L 1997 2009 
L 1997 1497 
L 313 1497 
L 313 2009 
z
" id="DejaVuSans-2d" transform="scale(0.015625)"/>
       <path d="M 628 4666 
L 1259 4666 
L 1259 531 
L 3531 531 
L 3531 0 
L 628 0 
L 628 4666 
z
" id="DejaVuSans-4c" transform="scale(0.015625)"/>
       <path d="M 2059 -325 
Q 1816 -950 1584 -1140 
Q 1353 -1331 966 -1331 
L 506 -1331 
L 506 -850 
L 844 -850 
Q 1081 -850 1212 -737 
Q 1344 -625 1503 -206 
L 1606 56 
L 191 3500 
L 800 3500 
L 1894 763 
L 2988 3500 
L 3597 3500 
L 2059 -325 
z
" id="DejaVuSans-79" transform="scale(0.015625)"/>
       <path d="M 3597 1894 
L 3597 1613 
L 953 1613 
Q 991 1019 1311 708 
Q 1631 397 2203 397 
Q 2534 397 2845 478 
Q 3156 559 3463 722 
L 3463 178 
Q 3153 47 2828 -22 
Q 2503 -91 2169 -91 
Q 1331 -91 842 396 
Q 353 884 353 1716 
Q 353 2575 817 3079 
Q 1281 3584 2069 3584 
Q 2775 3584 3186 3129 
Q 3597 2675 3597 1894 
z
M 3022 2063 
Q 3016 2534 2758 2815 
Q 2500 3097 2075 3097 
Q 1594 3097 1305 2825 
Q 1016 2553 972 2059 
L 3022 2063 
z
" id="DejaVuSans-65" transform="scale(0.015625)"/>
       <path d="M 2631 2963 
Q 2534 3019 2420 3045 
Q 2306 3072 2169 3072 
Q 1681 3072 1420 2755 
Q 1159 2438 1159 1844 
L 1159 0 
L 581 0 
L 581 3500 
L 1159 3500 
L 1159 2956 
Q 1341 3275 1631 3429 
Q 1922 3584 2338 3584 
Q 2397 3584 2469 3576 
Q 2541 3569 2628 3553 
L 2631 2963 
z
" id="DejaVuSans-72" transform="scale(0.015625)"/>
       <path id="DejaVuSans-20" transform="scale(0.015625)"/>
       <path d="M 678 2906 
L 4684 2906 
L 4684 2381 
L 678 2381 
L 678 2906 
z
M 678 1631 
L 4684 1631 
L 4684 1100 
L 678 1100 
L 678 1631 
z
" id="DejaVuSans-3d" transform="scale(0.015625)"/>
       <path d="M 525 4666 
L 3525 4666 
L 3525 4397 
L 1831 0 
L 1172 0 
L 2766 4134 
L 525 4134 
L 525 4666 
z
" id="DejaVuSans-37" transform="scale(0.015625)"/>
      </defs>
      <use xlink:href="#DejaVuSans-41"/>
      <use x="68.408203" xlink:href="#DejaVuSans-55"/>
      <use x="141.601562" xlink:href="#DejaVuSans-43"/>
      <use x="211.425781" xlink:href="#DejaVuSans-5f"/>
      <use x="261.425781" xlink:href="#DejaVuSans-35"/>
      <use x="325.048828" xlink:href="#DejaVuSans-2d"/>
      <use x="361.132812" xlink:href="#DejaVuSans-4c"/>
      <use x="416.845703" xlink:href="#DejaVuSans-61"/>
      <use x="478.125" xlink:href="#DejaVuSans-79"/>
      <use x="537.304688" xlink:href="#DejaVuSans-65"/>
      <use x="598.828125" xlink:href="#DejaVuSans-72"/>
      <use x="639.941406" xlink:href="#DejaVuSans-73"/>
      <use x="692.041016" xlink:href="#DejaVuSans-20"/>
      <use x="723.828125" xlink:href="#DejaVuSans-3d"/>
      <use x="807.617188" xlink:href="#DejaVuSans-20"/>
      <use x="839.404297" xlink:href="#DejaVuSans-30"/>
      <use x="903.027344" xlink:href="#DejaVuSans-2e"/>
      <use x="934.814453" xlink:href="#DejaVuSans-38"/>
      <use x="998.4375" xlink:href="#DejaVuSans-37"/>
     </g>
    </g>
    <g id="line2d_20">
     <path d="M 685.5875 359.019375 
L 725.5875 359.019375 
" style="fill:none;stroke:#ff7f0e;stroke-linecap:square;stroke-width:1.5;"/>
    </g>
    <g id="line2d_21"/>
    <g id="text_17">
     <!-- AUC_4-Layers = 0.87 -->
     <g transform="translate(741.5875 366.019375)scale(0.2 -0.2)">
      <use xlink:href="#DejaVuSans-41"/>
      <use x="68.408203" xlink:href="#DejaVuSans-55"/>
      <use x="141.601562" xlink:href="#DejaVuSans-43"/>
      <use x="211.425781" xlink:href="#DejaVuSans-5f"/>
      <use x="261.425781" xlink:href="#DejaVuSans-34"/>
      <use x="325.048828" xlink:href="#DejaVuSans-2d"/>
      <use x="361.132812" xlink:href="#DejaVuSans-4c"/>
      <use x="416.845703" xlink:href="#DejaVuSans-61"/>
      <use x="478.125" xlink:href="#DejaVuSans-79"/>
      <use x="537.304688" xlink:href="#DejaVuSans-65"/>
      <use x="598.828125" xlink:href="#DejaVuSans-72"/>
      <use x="639.941406" xlink:href="#DejaVuSans-73"/>
      <use x="692.041016" xlink:href="#DejaVuSans-20"/>
      <use x="723.828125" xlink:href="#DejaVuSans-3d"/>
      <use x="807.617188" xlink:href="#DejaVuSans-20"/>
      <use x="839.404297" xlink:href="#DejaVuSans-30"/>
      <use x="903.027344" xlink:href="#DejaVuSans-2e"/>
      <use x="934.814453" xlink:href="#DejaVuSans-38"/>
      <use x="998.4375" xlink:href="#DejaVuSans-37"/>
     </g>
    </g>
    <g id="line2d_22">
     <path d="M 685.5875 388.931875 
L 725.5875 388.931875 
" style="fill:none;stroke:#2ca02c;stroke-linecap:square;stroke-width:1.5;"/>
    </g>
    <g id="line2d_23"/>
    <g id="text_18">
     <!-- AUC_3-Layers = 0.86 -->
     <g transform="translate(741.5875 395.931875)scale(0.2 -0.2)">
      <defs>
       <path d="M 2597 2516 
Q 3050 2419 3304 2112 
Q 3559 1806 3559 1356 
Q 3559 666 3084 287 
Q 2609 -91 1734 -91 
Q 1441 -91 1130 -33 
Q 819 25 488 141 
L 488 750 
Q 750 597 1062 519 
Q 1375 441 1716 441 
Q 2309 441 2620 675 
Q 2931 909 2931 1356 
Q 2931 1769 2642 2001 
Q 2353 2234 1838 2234 
L 1294 2234 
L 1294 2753 
L 1863 2753 
Q 2328 2753 2575 2939 
Q 2822 3125 2822 3475 
Q 2822 3834 2567 4026 
Q 2313 4219 1838 4219 
Q 1578 4219 1281 4162 
Q 984 4106 628 3988 
L 628 4550 
Q 988 4650 1302 4700 
Q 1616 4750 1894 4750 
Q 2613 4750 3031 4423 
Q 3450 4097 3450 3541 
Q 3450 3153 3228 2886 
Q 3006 2619 2597 2516 
z
" id="DejaVuSans-33" transform="scale(0.015625)"/>
      </defs>
      <use xlink:href="#DejaVuSans-41"/>
      <use x="68.408203" xlink:href="#DejaVuSans-55"/>
      <use x="141.601562" xlink:href="#DejaVuSans-43"/>
      <use x="211.425781" xlink:href="#DejaVuSans-5f"/>
      <use x="261.425781" xlink:href="#DejaVuSans-33"/>
      <use x="325.048828" xlink:href="#DejaVuSans-2d"/>
      <use x="361.132812" xlink:href="#DejaVuSans-4c"/>
      <use x="416.845703" xlink:href="#DejaVuSans-61"/>
      <use x="478.125" xlink:href="#DejaVuSans-79"/>
      <use x="537.304688" xlink:href="#DejaVuSans-65"/>
      <use x="598.828125" xlink:href="#DejaVuSans-72"/>
      <use x="639.941406" xlink:href="#DejaVuSans-73"/>
      <use x="692.041016" xlink:href="#DejaVuSans-20"/>
      <use x="723.828125" xlink:href="#DejaVuSans-3d"/>
      <use x="807.617188" xlink:href="#DejaVuSans-20"/>
      <use x="839.404297" xlink:href="#DejaVuSans-30"/>
      <use x="903.027344" xlink:href="#DejaVuSans-2e"/>
      <use x="934.814453" xlink:href="#DejaVuSans-38"/>
      <use x="998.4375" xlink:href="#DejaVuSans-36"/>
     </g>
    </g>
    <g id="line2d_24">
     <path d="M 685.5875 418.844375 
L 725.5875 418.844375 
" style="fill:none;stroke:#d62728;stroke-linecap:square;stroke-width:1.5;"/>
    </g>
    <g id="line2d_25"/>
    <g id="text_19">
     <!-- AUC_2-Layers = 0.85 -->
     <g transform="translate(741.5875 425.844375)scale(0.2 -0.2)">
      <use xlink:href="#DejaVuSans-41"/>
      <use x="68.408203" xlink:href="#DejaVuSans-55"/>
      <use x="141.601562" xlink:href="#DejaVuSans-43"/>
      <use x="211.425781" xlink:href="#DejaVuSans-5f"/>
      <use x="261.425781" xlink:href="#DejaVuSans-32"/>
      <use x="325.048828" xlink:href="#DejaVuSans-2d"/>
      <use x="361.132812" xlink:href="#DejaVuSans-4c"/>
      <use x="416.845703" xlink:href="#DejaVuSans-61"/>
      <use x="478.125" xlink:href="#DejaVuSans-79"/>
      <use x="537.304688" xlink:href="#DejaVuSans-65"/>
      <use x="598.828125" xlink:href="#DejaVuSans-72"/>
      <use x="639.941406" xlink:href="#DejaVuSans-73"/>
      <use x="692.041016" xlink:href="#DejaVuSans-20"/>
      <use x="723.828125" xlink:href="#DejaVuSans-3d"/>
      <use x="807.617188" xlink:href="#DejaVuSans-20"/>
      <use x="839.404297" xlink:href="#DejaVuSans-30"/>
      <use x="903.027344" xlink:href="#DejaVuSans-2e"/>
      <use x="934.814453" xlink:href="#DejaVuSans-38"/>
      <use x="998.4375" xlink:href="#DejaVuSans-35"/>
     </g>
    </g>
   </g>
  </g>
 </g>
 <defs>
  <clipPath id="p843a037f67">
   <rect height="388.08" width="837" x="135" y="60.48"/>
  </clipPath>
 </defs>
</svg>
