<?xml version="1.0" encoding="utf-8" standalone="no"?>
<!DOCTYPE svg PUBLIC "-//W3C//DTD SVG 1.1//EN"
  "http://www.w3.org/Graphics/SVG/1.1/DTD/svg11.dtd">
<svg height="504pt" version="1.1" viewBox="0 0 1080 504" width="1080pt" xmlns="http://www.w3.org/2000/svg" xmlns:xlink="http://www.w3.org/1999/xlink">
 <metadata>
  <rdf:RDF xmlns:cc="http://creativecommons.org/ns#" xmlns:dc="http://purl.org/dc/elements/1.1/" xmlns:rdf="http://www.w3.org/1999/02/22-rdf-syntax-ns#">
   <cc:Work>
    <dc:type rdf:resource="http://purl.org/dc/dcmitype/StillImage"/>
    <dc:date>2022-01-07T13:24:52.303605</dc:date>
    <dc:format>image/svg+xml</dc:format>
    <dc:creator>
     <cc:Agent>
      <dc:title>Matplotlib v3.4.3, https://matplotlib.org/</dc:title>
     </cc:Agent>
    </dc:creator>
   </cc:Work>
  </rdf:RDF>
 </metadata>
 <defs>
  <style type="text/css">*{stroke-linecap:butt;stroke-linejoin:round;}</style>
 </defs>
 <g id="figure_1">
  <g id="patch_1">
   <path d="M 0 504 
L 1080 504 
L 1080 0 
L 0 0 
z
" style="fill:#ffffff;"/>
  </g>
  <g id="axes_1">
   <g id="patch_2">
    <path d="M 135 448.56 
L 972 448.56 
L 972 60.48 
L 135 60.48 
z
" style="fill:#ffffff;"/>
   </g>
   <g id="matplotlib.axis_1">
    <g id="xtick_1">
     <g id="line2d_1">
      <defs>
       <path d="M 0 0 
L 0 3.5 
" id="m87bf401ac6" style="stroke:#000000;stroke-width:0.8;"/>
      </defs>
      <g>
       <use style="stroke:#000000;stroke-width:0.8;" x="135" xlink:href="#m87bf401ac6" y="448.56"/>
      </g>
     </g>
     <g id="text_1">
      <!-- 0.0 -->
      <g transform="translate(120.687187 469.237188)scale(0.18 -0.18)">
       <defs>
        <path d="M 2034 4250 
Q 1547 4250 1301 3770 
Q 1056 3291 1056 2328 
Q 1056 1369 1301 889 
Q 1547 409 2034 409 
Q 2525 409 2770 889 
Q 3016 1369 3016 2328 
Q 3016 3291 2770 3770 
Q 2525 4250 2034 4250 
z
M 2034 4750 
Q 2819 4750 3233 4129 
Q 3647 3509 3647 2328 
Q 3647 1150 3233 529 
Q 2819 -91 2034 -91 
Q 1250 -91 836 529 
Q 422 1150 422 2328 
Q 422 3509 836 4129 
Q 1250 4750 2034 4750 
z
" id="DejaVuSans-30" transform="scale(0.015625)"/>
        <path d="M 684 794 
L 1344 794 
L 1344 0 
L 684 0 
L 684 794 
z
" id="DejaVuSans-2e" transform="scale(0.015625)"/>
       </defs>
       <use xlink:href="#DejaVuSans-30"/>
       <use x="63.623047" xlink:href="#DejaVuSans-2e"/>
       <use x="95.410156" xlink:href="#DejaVuSans-30"/>
      </g>
     </g>
    </g>
    <g id="xtick_2">
     <g id="line2d_2">
      <g>
       <use style="stroke:#000000;stroke-width:0.8;" x="302.4" xlink:href="#m87bf401ac6" y="448.56"/>
      </g>
     </g>
     <g id="text_2">
      <!-- 0.2 -->
      <g transform="translate(288.087187 469.237188)scale(0.18 -0.18)">
       <defs>
        <path d="M 1228 531 
L 3431 531 
L 3431 0 
L 469 0 
L 469 531 
Q 828 903 1448 1529 
Q 2069 2156 2228 2338 
Q 2531 2678 2651 2914 
Q 2772 3150 2772 3378 
Q 2772 3750 2511 3984 
Q 2250 4219 1831 4219 
Q 1534 4219 1204 4116 
Q 875 4013 500 3803 
L 500 4441 
Q 881 4594 1212 4672 
Q 1544 4750 1819 4750 
Q 2544 4750 2975 4387 
Q 3406 4025 3406 3419 
Q 3406 3131 3298 2873 
Q 3191 2616 2906 2266 
Q 2828 2175 2409 1742 
Q 1991 1309 1228 531 
z
" id="DejaVuSans-32" transform="scale(0.015625)"/>
       </defs>
       <use xlink:href="#DejaVuSans-30"/>
       <use x="63.623047" xlink:href="#DejaVuSans-2e"/>
       <use x="95.410156" xlink:href="#DejaVuSans-32"/>
      </g>
     </g>
    </g>
    <g id="xtick_3">
     <g id="line2d_3">
      <g>
       <use style="stroke:#000000;stroke-width:0.8;" x="469.8" xlink:href="#m87bf401ac6" y="448.56"/>
      </g>
     </g>
     <g id="text_3">
      <!-- 0.4 -->
      <g transform="translate(455.487188 469.237188)scale(0.18 -0.18)">
       <defs>
        <path d="M 2419 4116 
L 825 1625 
L 2419 1625 
L 2419 4116 
z
M 2253 4666 
L 3047 4666 
L 3047 1625 
L 3713 1625 
L 3713 1100 
L 3047 1100 
L 3047 0 
L 2419 0 
L 2419 1100 
L 313 1100 
L 313 1709 
L 2253 4666 
z
" id="DejaVuSans-34" transform="scale(0.015625)"/>
       </defs>
       <use xlink:href="#DejaVuSans-30"/>
       <use x="63.623047" xlink:href="#DejaVuSans-2e"/>
       <use x="95.410156" xlink:href="#DejaVuSans-34"/>
      </g>
     </g>
    </g>
    <g id="xtick_4">
     <g id="line2d_4">
      <g>
       <use style="stroke:#000000;stroke-width:0.8;" x="637.2" xlink:href="#m87bf401ac6" y="448.56"/>
      </g>
     </g>
     <g id="text_4">
      <!-- 0.6 -->
      <g transform="translate(622.887188 469.237188)scale(0.18 -0.18)">
       <defs>
        <path d="M 2113 2584 
Q 1688 2584 1439 2293 
Q 1191 2003 1191 1497 
Q 1191 994 1439 701 
Q 1688 409 2113 409 
Q 2538 409 2786 701 
Q 3034 994 3034 1497 
Q 3034 2003 2786 2293 
Q 2538 2584 2113 2584 
z
M 3366 4563 
L 3366 3988 
Q 3128 4100 2886 4159 
Q 2644 4219 2406 4219 
Q 1781 4219 1451 3797 
Q 1122 3375 1075 2522 
Q 1259 2794 1537 2939 
Q 1816 3084 2150 3084 
Q 2853 3084 3261 2657 
Q 3669 2231 3669 1497 
Q 3669 778 3244 343 
Q 2819 -91 2113 -91 
Q 1303 -91 875 529 
Q 447 1150 447 2328 
Q 447 3434 972 4092 
Q 1497 4750 2381 4750 
Q 2619 4750 2861 4703 
Q 3103 4656 3366 4563 
z
" id="DejaVuSans-36" transform="scale(0.015625)"/>
       </defs>
       <use xlink:href="#DejaVuSans-30"/>
       <use x="63.623047" xlink:href="#DejaVuSans-2e"/>
       <use x="95.410156" xlink:href="#DejaVuSans-36"/>
      </g>
     </g>
    </g>
    <g id="xtick_5">
     <g id="line2d_5">
      <g>
       <use style="stroke:#000000;stroke-width:0.8;" x="804.6" xlink:href="#m87bf401ac6" y="448.56"/>
      </g>
     </g>
     <g id="text_5">
      <!-- 0.8 -->
      <g transform="translate(790.287188 469.237188)scale(0.18 -0.18)">
       <defs>
        <path d="M 2034 2216 
Q 1584 2216 1326 1975 
Q 1069 1734 1069 1313 
Q 1069 891 1326 650 
Q 1584 409 2034 409 
Q 2484 409 2743 651 
Q 3003 894 3003 1313 
Q 3003 1734 2745 1975 
Q 2488 2216 2034 2216 
z
M 1403 2484 
Q 997 2584 770 2862 
Q 544 3141 544 3541 
Q 544 4100 942 4425 
Q 1341 4750 2034 4750 
Q 2731 4750 3128 4425 
Q 3525 4100 3525 3541 
Q 3525 3141 3298 2862 
Q 3072 2584 2669 2484 
Q 3125 2378 3379 2068 
Q 3634 1759 3634 1313 
Q 3634 634 3220 271 
Q 2806 -91 2034 -91 
Q 1263 -91 848 271 
Q 434 634 434 1313 
Q 434 1759 690 2068 
Q 947 2378 1403 2484 
z
M 1172 3481 
Q 1172 3119 1398 2916 
Q 1625 2713 2034 2713 
Q 2441 2713 2670 2916 
Q 2900 3119 2900 3481 
Q 2900 3844 2670 4047 
Q 2441 4250 2034 4250 
Q 1625 4250 1398 4047 
Q 1172 3844 1172 3481 
z
" id="DejaVuSans-38" transform="scale(0.015625)"/>
       </defs>
       <use xlink:href="#DejaVuSans-30"/>
       <use x="63.623047" xlink:href="#DejaVuSans-2e"/>
       <use x="95.410156" xlink:href="#DejaVuSans-38"/>
      </g>
     </g>
    </g>
    <g id="xtick_6">
     <g id="line2d_6">
      <g>
       <use style="stroke:#000000;stroke-width:0.8;" x="972" xlink:href="#m87bf401ac6" y="448.56"/>
      </g>
     </g>
     <g id="text_6">
      <!-- 1.0 -->
      <g transform="translate(957.687188 469.237188)scale(0.18 -0.18)">
       <defs>
        <path d="M 794 531 
L 1825 531 
L 1825 4091 
L 703 3866 
L 703 4441 
L 1819 4666 
L 2450 4666 
L 2450 531 
L 3481 531 
L 3481 0 
L 794 0 
L 794 531 
z
" id="DejaVuSans-31" transform="scale(0.015625)"/>
       </defs>
       <use xlink:href="#DejaVuSans-31"/>
       <use x="63.623047" xlink:href="#DejaVuSans-2e"/>
       <use x="95.410156" xlink:href="#DejaVuSans-30"/>
      </g>
     </g>
    </g>
    <g id="text_7">
     <!-- $FPR_{Fair}$ -->
     <g transform="translate(518.08 493.697187)scale(0.22 -0.22)">
      <defs>
       <path d="M 1081 4666 
L 3756 4666 
L 3653 4134 
L 1606 4134 
L 1338 2759 
L 3188 2759 
L 3084 2228 
L 1234 2228 
L 800 0 
L 172 0 
L 1081 4666 
z
" id="DejaVuSans-Oblique-46" transform="scale(0.015625)"/>
       <path d="M 1081 4666 
L 2541 4666 
Q 3178 4666 3512 4369 
Q 3847 4072 3847 3500 
Q 3847 2731 3353 2303 
Q 2859 1875 1966 1875 
L 1172 1875 
L 806 0 
L 172 0 
L 1081 4666 
z
M 1613 4147 
L 1275 2394 
L 2069 2394 
Q 2606 2394 2893 2669 
Q 3181 2944 3181 3456 
Q 3181 3784 2986 3965 
Q 2791 4147 2438 4147 
L 1613 4147 
z
" id="DejaVuSans-Oblique-50" transform="scale(0.015625)"/>
       <path d="M 1613 4147 
L 1294 2491 
L 2106 2491 
Q 2584 2491 2879 2755 
Q 3175 3019 3175 3444 
Q 3175 3784 2976 3965 
Q 2778 4147 2406 4147 
L 1613 4147 
z
M 2772 2241 
Q 2972 2194 3105 2009 
Q 3238 1825 3413 1275 
L 3809 0 
L 3144 0 
L 2778 1197 
Q 2638 1659 2453 1815 
Q 2269 1972 1888 1972 
L 1191 1972 
L 806 0 
L 172 0 
L 1081 4666 
L 2503 4666 
Q 3150 4666 3495 4373 
Q 3841 4081 3841 3531 
Q 3841 3044 3547 2687 
Q 3253 2331 2772 2241 
z
" id="DejaVuSans-Oblique-52" transform="scale(0.015625)"/>
       <path d="M 3438 1997 
L 3047 0 
L 2472 0 
L 2578 531 
Q 2325 219 2001 64 
Q 1678 -91 1281 -91 
Q 834 -91 548 182 
Q 263 456 263 884 
Q 263 1497 752 1853 
Q 1241 2209 2100 2209 
L 2900 2209 
L 2931 2363 
Q 2938 2388 2941 2417 
Q 2944 2447 2944 2509 
Q 2944 2788 2717 2942 
Q 2491 3097 2081 3097 
Q 1800 3097 1504 3025 
Q 1209 2953 897 2809 
L 997 3341 
Q 1322 3463 1633 3523 
Q 1944 3584 2234 3584 
Q 2853 3584 3176 3315 
Q 3500 3047 3500 2534 
Q 3500 2431 3484 2292 
Q 3469 2153 3438 1997 
z
M 2816 1759 
L 2241 1759 
Q 1534 1759 1195 1570 
Q 856 1381 856 984 
Q 856 709 1029 553 
Q 1203 397 1509 397 
Q 1978 397 2328 733 
Q 2678 1069 2791 1631 
L 2816 1759 
z
" id="DejaVuSans-Oblique-61" transform="scale(0.015625)"/>
       <path d="M 1172 4863 
L 1747 4863 
L 1606 4134 
L 1031 4134 
L 1172 4863 
z
M 909 3500 
L 1484 3500 
L 800 0 
L 225 0 
L 909 3500 
z
" id="DejaVuSans-Oblique-69" transform="scale(0.015625)"/>
       <path d="M 2853 2969 
Q 2766 3016 2653 3041 
Q 2541 3066 2413 3066 
Q 1953 3066 1609 2717 
Q 1266 2369 1153 1784 
L 800 0 
L 225 0 
L 909 3500 
L 1484 3500 
L 1375 2956 
Q 1603 3259 1920 3421 
Q 2238 3584 2597 3584 
Q 2691 3584 2781 3573 
Q 2872 3563 2963 3538 
L 2853 2969 
z
" id="DejaVuSans-Oblique-72" transform="scale(0.015625)"/>
      </defs>
      <use transform="translate(0 0.09375)" xlink:href="#DejaVuSans-Oblique-46"/>
      <use transform="translate(57.519531 0.09375)" xlink:href="#DejaVuSans-Oblique-50"/>
      <use transform="translate(117.822266 0.09375)" xlink:href="#DejaVuSans-Oblique-52"/>
      <use transform="translate(187.304688 -16.3125)scale(0.7)" xlink:href="#DejaVuSans-Oblique-46"/>
      <use transform="translate(227.568359 -16.3125)scale(0.7)" xlink:href="#DejaVuSans-Oblique-61"/>
      <use transform="translate(270.463867 -16.3125)scale(0.7)" xlink:href="#DejaVuSans-Oblique-69"/>
      <use transform="translate(289.912109 -16.3125)scale(0.7)" xlink:href="#DejaVuSans-Oblique-72"/>
     </g>
    </g>
   </g>
   <g id="matplotlib.axis_2">
    <g id="ytick_1">
     <g id="line2d_7">
      <defs>
       <path d="M 0 0 
L -3.5 0 
" id="m658f02d6dd" style="stroke:#000000;stroke-width:0.8;"/>
      </defs>
      <g>
       <use style="stroke:#000000;stroke-width:0.8;" x="135" xlink:href="#m658f02d6dd" y="448.56"/>
      </g>
     </g>
     <g id="text_8">
      <!-- 0.0 -->
      <g transform="translate(99.374375 455.398594)scale(0.18 -0.18)">
       <use xlink:href="#DejaVuSans-30"/>
       <use x="63.623047" xlink:href="#DejaVuSans-2e"/>
       <use x="95.410156" xlink:href="#DejaVuSans-30"/>
      </g>
     </g>
    </g>
    <g id="ytick_2">
     <g id="line2d_8">
      <g>
       <use style="stroke:#000000;stroke-width:0.8;" x="135" xlink:href="#m658f02d6dd" y="370.944"/>
      </g>
     </g>
     <g id="text_9">
      <!-- 0.2 -->
      <g transform="translate(99.374375 377.782594)scale(0.18 -0.18)">
       <use xlink:href="#DejaVuSans-30"/>
       <use x="63.623047" xlink:href="#DejaVuSans-2e"/>
       <use x="95.410156" xlink:href="#DejaVuSans-32"/>
      </g>
     </g>
    </g>
    <g id="ytick_3">
     <g id="line2d_9">
      <g>
       <use style="stroke:#000000;stroke-width:0.8;" x="135" xlink:href="#m658f02d6dd" y="293.328"/>
      </g>
     </g>
     <g id="text_10">
      <!-- 0.4 -->
      <g transform="translate(99.374375 300.166594)scale(0.18 -0.18)">
       <use xlink:href="#DejaVuSans-30"/>
       <use x="63.623047" xlink:href="#DejaVuSans-2e"/>
       <use x="95.410156" xlink:href="#DejaVuSans-34"/>
      </g>
     </g>
    </g>
    <g id="ytick_4">
     <g id="line2d_10">
      <g>
       <use style="stroke:#000000;stroke-width:0.8;" x="135" xlink:href="#m658f02d6dd" y="215.712"/>
      </g>
     </g>
     <g id="text_11">
      <!-- 0.6 -->
      <g transform="translate(99.374375 222.550594)scale(0.18 -0.18)">
       <use xlink:href="#DejaVuSans-30"/>
       <use x="63.623047" xlink:href="#DejaVuSans-2e"/>
       <use x="95.410156" xlink:href="#DejaVuSans-36"/>
      </g>
     </g>
    </g>
    <g id="ytick_5">
     <g id="line2d_11">
      <g>
       <use style="stroke:#000000;stroke-width:0.8;" x="135" xlink:href="#m658f02d6dd" y="138.096"/>
      </g>
     </g>
     <g id="text_12">
      <!-- 0.8 -->
      <g transform="translate(99.374375 144.934594)scale(0.18 -0.18)">
       <use xlink:href="#DejaVuSans-30"/>
       <use x="63.623047" xlink:href="#DejaVuSans-2e"/>
       <use x="95.410156" xlink:href="#DejaVuSans-38"/>
      </g>
     </g>
    </g>
    <g id="ytick_6">
     <g id="line2d_12">
      <g>
       <use style="stroke:#000000;stroke-width:0.8;" x="135" xlink:href="#m658f02d6dd" y="60.48"/>
      </g>
     </g>
     <g id="text_13">
      <!-- 1.0 -->
      <g transform="translate(99.374375 67.318594)scale(0.18 -0.18)">
       <use xlink:href="#DejaVuSans-31"/>
       <use x="63.623047" xlink:href="#DejaVuSans-2e"/>
       <use x="95.410156" xlink:href="#DejaVuSans-30"/>
      </g>
     </g>
    </g>
    <g id="text_14">
     <!-- $TPR_{Fair}$ -->
     <g transform="translate(90.799062 290.27)rotate(-90)scale(0.22 -0.22)">
      <defs>
       <path d="M 378 4666 
L 4325 4666 
L 4225 4134 
L 2559 4134 
L 1759 0 
L 1125 0 
L 1925 4134 
L 275 4134 
L 378 4666 
z
" id="DejaVuSans-Oblique-54" transform="scale(0.015625)"/>
      </defs>
      <use transform="translate(0 0.09375)" xlink:href="#DejaVuSans-Oblique-54"/>
      <use transform="translate(61.083984 0.09375)" xlink:href="#DejaVuSans-Oblique-50"/>
      <use transform="translate(121.386719 0.09375)" xlink:href="#DejaVuSans-Oblique-52"/>
      <use transform="translate(190.869141 -16.3125)scale(0.7)" xlink:href="#DejaVuSans-Oblique-46"/>
      <use transform="translate(231.132812 -16.3125)scale(0.7)" xlink:href="#DejaVuSans-Oblique-61"/>
      <use transform="translate(274.02832 -16.3125)scale(0.7)" xlink:href="#DejaVuSans-Oblique-69"/>
      <use transform="translate(293.476562 -16.3125)scale(0.7)" xlink:href="#DejaVuSans-Oblique-72"/>
     </g>
    </g>
   </g>
   <g id="line2d_13">
    <path clip-path="url(#pf77ae7b3b2)" d="M 135 448.56 
L 972 60.48 
" style="fill:none;stroke:#ff0000;stroke-dasharray:5.55,2.4;stroke-dashoffset:0;stroke-width:1.5;"/>
   </g>
   <g id="line2d_14">
    <path clip-path="url(#pf77ae7b3b2)" d="M 972 60.48 
L 233.490775 311.004247 
L 195.549847 366.007007 
L 179.856328 390.074298 
L 171.102305 402.916887 
L 165.703349 410.721725 
L 162.172749 416.082617 
L 159.795978 420.086346 
L 157.792102 423.510149 
L 156.408678 426.054159 
L 155.25668 427.804747 
L 154.283402 429.145836 
L 153.355565 430.248913 
L 152.466336 431.475848 
L 151.539256 432.513813 
L 150.767183 433.572193 
L 150.010549 434.43564 
L 149.570931 435.075434 
L 149.004431 435.628635 
L 148.507812 436.362064 
L 148.114189 436.963227 
L 147.747237 437.652067 
L 147.45207 438.03161 
L 147.052721 438.369966 
L 146.76971 438.752724 
L 146.370995 439.04585 
L 146.140733 439.391511 
L 145.821299 439.723654 
L 145.478308 439.994992 
L 145.27567 440.345632 
L 145.056943 440.638052 
L 144.672076 440.95699 
L 144.389762 441.401198 
L 144.211543 441.680258 
L 144.034885 442.099276 
L 143.819043 442.436703 
L 143.526181 442.686357 
L 143.327967 443.006597 
L 143.228333 443.354393 
L 143.091959 443.760074 
L 142.953394 444.132636 
L 142.790576 444.30728 
L 142.634359 444.362065 
L 142.519062 444.460299 
L 142.399697 444.511309 
L 142.253904 444.561822 
L 142.113415 444.610722 
L 142.005215 444.661316 
L 141.871234 444.716926 
L 141.710112 444.780788 
L 141.58461 444.833721 
L 141.46516 444.89252 
L 141.272442 444.98231 
L 141.211131 445.059068 
L 141.162451 445.100485 
L 141.057345 445.134446 
L 141.014293 445.168856 
L 140.96699 445.203395 
L 140.888701 445.270134 
L 140.850241 445.335979 
L 140.778326 445.406604 
L 140.707392 445.439518 
L 140.671071 445.479295 
L 140.56549 445.548682 
L 140.47079 445.588307 
L 140.404755 445.627334 
L 140.337232 445.65715 
L 140.298235 445.695223 
L 140.202867 445.71965 
L 140.111313 445.747034 
L 140.083176 445.770006 
L 140.049106 445.826287 
L 140.020591 445.853761 
L 139.959568 445.879418 
L 139.845698 445.904771 
L 139.814487 445.927549 
L 139.758614 445.949424 
L 139.708339 445.970939 
L 139.650315 446.017771 
L 139.597506 446.037405 
L 139.540839 446.105053 
L 139.487562 446.123116 
L 139.464074 446.166555 
L 139.441123 446.211668 
L 139.418987 446.234014 
L 139.342023 446.279552 
L 139.240728 446.324923 
L 139.136738 446.368775 
L 139.118379 446.388988 
L 139.098739 446.407689 
L 139.050688 446.424572 
L 139.030923 446.46288 
L 139.010718 446.497295 
L 138.912442 446.531668 
L 138.842927 446.56359 
L 138.796036 446.597215 
L 138.77808 446.608858 
L 138.705362 446.641618 
L 138.688353 446.653079 
L 138.644449 446.68657 
L 138.627989 446.700806 
" style="fill:none;stroke:#1f77b4;stroke-linecap:square;stroke-width:1.5;"/>
   </g>
   <g id="line2d_15">
    <path clip-path="url(#pf77ae7b3b2)" d="M 972 60.48 
L 940.618355 60.48 
L 925.75819 61.163841 
L 914.156663 61.85984 
L 906.483658 62.559929 
L 896.22128 62.921852 
L 887.387738 63.646564 
L 882.647059 64.189458 
L 874.289545 64.566923 
L 872.493304 64.957157 
L 870.413425 65.170879 
L 868.527258 65.214904 
L 865.375796 65.610425 
L 862.431629 66.192479 
L 859.358317 67.148678 
L 857.246223 67.370096 
L 853.166667 68.181491 
L 850.344391 68.438672 
L 848.605263 69.065841 
L 846.687784 69.523014 
L 844.552609 70.356287 
L 843.120206 70.826197 
L 842.323944 71.26 
L 840.274617 71.888332 
L 838.923545 72.335804 
L 835.941945 73.152 
L 833.352838 73.786735 
L 830.910605 73.834576 
L 830.002348 74.075796 
L 828.711924 74.33283 
L 827.818236 74.972614 
L 826.532755 75.250511 
L 825.493534 75.75874 
L 824.368469 76.453741 
L 822.708295 77.191579 
L 821.166158 77.931135 
L 819.350936 78.310703 
L 817.266995 79.090921 
L 815.45 79.873344 
L 813.620626 80.40375 
L 812.459888 81.421922 
L 811.249922 81.930558 
L 809.703017 83.205405 
L 809.140019 83.860946 
L 808.314105 83.966742 
L 807.160612 84.446414 
L 805.1374 84.735 
L 802.491279 84.983345 
L 800.517073 85.67426 
L 799.129412 86.130872 
L 797.728079 87.015385 
L 796.152704 87.647809 
L 793.932625 88.152561 
L 791.230283 88.897757 
L 788.547945 89.75232 
L 787.065005 90.22984 
L 785.905584 90.948172 
L 784.925951 91.819794 
L 783.710769 92.653585 
L 783.12963 93.782059 
L 782.022077 94.670114 
L 780.411601 95.010654 
L 778.553497 96.14502 
L 775.231579 96.492035 
L 773.584713 97.610421 
L 772.177013 97.739271 
L 770.726398 98.094254 
L 768.583274 99.174857 
L 767.339806 99.810896 
L 766.229935 101.09037 
L 765.483309 101.945455 
L 764.504557 102.068206 
L 763.516484 102.96213 
L 761.746588 103.446821 
L 760.11695 103.70218 
L 758.165615 103.727801 
L 756.816045 103.959762 
L 755.777611 105.036478 
L 754.89527 106.245241 
L 753.912896 107.114242 
L 752.770628 107.688301 
L 750.983663 108.874224 
L 749.82151 109.568878 
L 747.941538 110.293254 
L 746.728538 110.58477 
L 745.590361 111.823123 
L 744.262705 113.284706 
L 743.040424 113.745882 
L 742.138298 113.936458 
L 740.475267 114.829702 
L 737.560191 115.423226 
L 736.102994 116.679905 
L 734.345783 116.713417 
L 732.56809 117.046022 
L 731.117219 117.147576 
L 728.256379 117.756867 
L 726.825061 118.094774 
L 725.481618 119.009328 
L 723.719803 119.28 
L 722.453196 119.530517 
L 721.142208 120.458155 
" style="fill:none;stroke:#ff7f0e;stroke-linecap:square;stroke-width:1.5;"/>
   </g>
   <g id="line2d_16">
    <path clip-path="url(#pf77ae7b3b2)" d="M 972 60.48 
L 847.462902 69.916869 
L 781.897225 78.346257 
L 732.546778 87.355831 
L 696.09537 95.376181 
L 662.690493 103.515451 
L 639.157895 110.492892 
L 621.710863 118.298343 
L 607.487507 126.594354 
L 597.236445 131.729062 
L 587.750158 137.369731 
L 578.604041 142.3296 
L 569.965936 146.356337 
L 561.392109 150.93124 
L 553.176278 155.766812 
L 546.791439 161.482946 
L 540.07314 167.617261 
L 533.601562 171.767096 
L 527.003832 176.07038 
L 520.791722 180.360822 
L 515.842222 185.648229 
L 512.085759 191.309726 
L 507.865964 194.740906 
L 502.85307 197.483026 
L 498.328409 200.424646 
L 494.16597 202.787771 
L 490.629437 206.001255 
L 487.406948 209.177082 
L 484.68119 211.442087 
L 481.639738 213.546864 
L 478.184663 215.602855 
L 474.626162 218.42111 
L 471.127518 220.741668 
L 468.395393 222.761896 
L 465.642145 224.907067 
L 462.409651 227.627321 
L 458.804363 229.900014 
L 455.276592 232.03411 
L 452.021617 234.571963 
L 449.104225 237.119674 
L 446.800468 239.09285 
L 443.825263 240.758298 
L 440.898372 242.353767 
L 438.299511 243.808525 
L 435.888302 245.298489 
L 433.057141 246.54929 
L 430.289602 247.86003 
L 427.373161 249.301633 
L 424.9679 251.080026 
L 423.134766 252.842056 
L 421.360906 254.394123 
L 419.396644 256.0528 
L 417.080715 257.724444 
L 415.171995 258.866496 
L 413.109043 259.837859 
L 411.060407 261.26199 
L 409.054428 263.116128 
L 407.262134 264.244864 
L 405.339875 265.641768 
L 403.806525 267.210825 
L 402.169457 268.726821 
L 399.881717 270.354523 
L 398.01403 271.928143 
L 395.861831 273.490309 
L 394.093304 274.951443 
L 392.027874 276.734315 
L 390.271184 277.886073 
L 388.142745 279.194937 
L 385.738516 280.357319 
L 384.047627 281.661898 
L 382.861019 282.553453 
L 380.889746 283.442889 
L 379.072862 284.401067 
L 377.237492 285.197128 
L 375.458998 285.706022 
L 373.606873 286.446299 
L 371.809756 287.382072 
L 370.344551 288.575537 
L 368.715901 289.859065 
L 366.758309 290.795208 
L 365.005733 291.767372 
L 363.470024 292.802283 
L 361.747799 293.673803 
L 359.808601 294.838558 
L 358.411014 295.575974 
L 356.6423 296.537187 
L 354.884233 297.456978 
L 353.181302 298.245396 
L 351.511041 299.151385 
L 349.779601 299.968359 
L 347.466693 300.988687 
L 345.601276 301.902802 
L 343.755786 302.599279 
L 341.730106 303.465819 
L 339.987652 304.201739 
L 338.138112 305.110051 
L 336.416058 305.819158 
L 334.042283 306.645776 
L 332.164361 307.401406 
L 330.043078 308.431769 
L 328.259386 309.280403 
" style="fill:none;stroke:#2ca02c;stroke-linecap:square;stroke-width:1.5;"/>
   </g>
   <g id="line2d_17">
    <path clip-path="url(#pf77ae7b3b2)" d="M 972 60.48 
L 879.144172 77.157918 
L 821.128674 91.926847 
L 778.193199 106.518561 
L 741.926742 120.087239 
L 712.91306 131.945982 
L 689.473138 142.383202 
L 668.623333 152.262157 
L 650.003966 161.268484 
L 634.092269 170.558309 
L 620.370348 177.961759 
L 607.658168 183.922074 
L 595.481363 189.870395 
L 583.957889 196.590256 
L 570.311561 202.818625 
L 558.844531 208.369711 
L 548.767449 214.124498 
L 540.379459 218.446692 
L 531.10071 223.096009 
L 522.845853 228.363102 
L 515.002251 233.718392 
L 507.950605 238.740483 
L 500.653488 242.333148 
L 494.242328 245.628785 
L 487.869277 249.635698 
L 482.016369 252.70868 
L 476.618756 255.350683 
L 470.645409 258.178315 
L 465.279772 261.302553 
L 460.239592 264.366697 
L 454.689325 267.489532 
L 449.156891 270.377758 
L 443.997841 273.524279 
L 439.301575 276.226522 
L 434.221683 279.284505 
L 429.373441 281.725363 
L 424.407341 284.407239 
L 420.331524 287.220381 
L 416.133216 289.88089 
L 411.882971 292.181772 
L 408.089325 293.849569 
L 404.55054 295.412259 
L 401.094802 297.008401 
L 397.69962 298.718354 
L 393.782228 300.444852 
L 390.294801 301.980542 
L 386.817585 303.294742 
L 383.191057 304.894136 
L 379.697776 306.666816 
L 376.607851 308.502418 
L 373.596969 310.101407 
L 370.361083 311.981471 
L 366.617647 313.603776 
L 363.214661 315.207587 
L 360.196596 316.716196 
L 357.420101 317.821079 
L 354.827554 318.981085 
L 351.922038 320.004419 
L 349.022368 321.17324 
L 346.616523 322.408815 
L 344.304573 323.681122 
L 341.703806 324.78872 
L 339.365664 326.228946 
L 336.685015 327.609169 
L 334.237995 329.04524 
L 331.674665 330.447536 
L 329.173481 331.516216 
L 327.070517 333.198335 
L 324.683789 334.251567 
L 322.569521 335.59799 
L 320.53325 336.685263 
L 318.200617 338.027162 
L 316.330285 339.173773 
L 314.277943 340.082136 
L 312.48159 341.071296 
L 310.432775 341.949803 
L 308.390348 342.850259 
L 306.598355 343.760471 
L 304.807308 344.637053 
L 302.692527 345.42195 
L 300.658015 346.224912 
L 298.60021 347.080278 
L 296.781017 347.850094 
L 294.819547 348.871905 
L 293.099629 349.853209 
L 291.330086 350.760935 
L 289.475076 351.691176 
L 287.647896 352.666729 
L 286.036106 353.640895 
L 284.385568 354.464109 
L 282.686581 355.3147 
L 281.211453 355.971012 
L 279.599742 356.487307 
L 277.779287 357.05746 
L 276.368231 357.647324 
L 274.656541 358.363629 
L 272.965968 359.011592 
L 271.284279 359.576735 
L 269.927458 360.120299 
L 268.476573 360.965738 
L 266.811527 361.782996 
" style="fill:none;stroke:#d62728;stroke-linecap:square;stroke-width:1.5;"/>
   </g>
   <g id="line2d_18">
    <path clip-path="url(#pf77ae7b3b2)" d="M 972 60.48 
L 962.732517 60.48 
L 958.159512 60.675827 
L 954.466063 60.87449 
L 951.930591 61.074835 
L 948.526102 61.17718 
L 945.670765 61.381347 
L 944.061989 61.536342 
L 941.317867 61.643279 
L 940.783721 61.751393 
L 940.041818 61.809917 
L 939.378237 61.820162 
L 938.28495 61.931542 
L 937.260509 62.099612 
L 936.120064 62.376156 
L 935.341424 62.445904 
L 933.865301 62.677387 
L 932.765625 62.747895 
L 932.164745 62.927596 
L 931.445284 63.05551 
L 930.472132 63.296576 
L 929.864668 63.43012 
L 929.488713 63.554676 
L 928.641176 63.738344 
L 928.006307 63.866387 
L 926.884992 64.102684 
L 925.895439 64.283593 
L 924.943683 64.299236 
L 924.438523 64.369953 
L 923.968645 64.44293 
L 923.532479 64.629972 
L 923.075168 64.703921 
L 922.600787 64.839796 
L 922.069207 65.0326 
L 921.397479 65.230564 
L 920.751575 65.430451 
L 919.986989 65.516153 
L 919.11841 65.721105 
L 918.281695 65.936625 
L 917.496023 66.032622 
L 917.021113 66.3012 
L 916.541559 66.43457 
L 915.874108 66.807061 
L 915.501361 67.00389 
L 915.104923 67.024454 
L 914.597791 67.161523 
L 913.890521 67.181635 
L 912.871272 67.256 
L 912.160181 67.458523 
L 911.607774 67.600166 
L 910.957735 67.864317 
L 910.172282 68.067462 
L 909.246993 68.212913 
L 907.963983 68.415302 
L 906.798553 68.678433 
L 906.184273 68.822434 
L 905.584226 69.090034 
L 904.942462 69.355796 
L 904.433953 69.619451 
L 903.984733 69.948445 
L 903.366208 70.221535 
L 902.703602 70.315252 
L 901.986395 70.649145 
L 900.472423 70.742957 
L 899.505621 71.077348 
L 898.842078 71.112329 
L 898.063913 71.195833 
L 897.023539 71.488905 
L 896.38077 71.645448 
L 895.868676 72.01226 
L 895.298328 72.24 
L 894.625506 72.275547 
L 894.046907 72.556501 
L 893.388007 72.701448 
L 892.489039 72.779231 
L 891.461122 72.8 
L 890.66732 72.839654 
L 890.045224 73.1899 
L 889.345062 73.543557 
L 888.587629 73.825618 
L 887.804734 73.985343 
L 886.815353 74.337632 
L 886.144425 74.565424 
L 885.332792 74.801524 
L 884.752862 74.897833 
L 884.099326 75.313636 
L 883.261797 75.799828 
L 882.376144 75.976366 
L 881.728991 76.035523 
L 880.756891 76.329635 
L 879.347989 76.511891 
L 878.649882 76.9321 
L 877.794499 76.955094 
L 876.552632 77.06055 
L 875.671108 77.112974 
L 874.038797 77.240021 
L 873.152468 77.35901 
L 872.186925 77.604211 
L 871.355111 77.712682 
L 870.355322 77.789545 
L 869.272163 78.050551 
" style="fill:none;stroke:#9467bd;stroke-linecap:square;stroke-width:1.5;"/>
   </g>
   <g id="line2d_19">
    <path clip-path="url(#pf77ae7b3b2)" d="M 972 60.48 
L 907.146145 64.879287 
L 869.665216 68.604248 
L 837.595213 72.570817 
L 812.53711 76.526664 
L 788.653582 80.060418 
L 770.845198 83.146688 
L 757.740996 87.0545 
L 746.749973 91.003146 
L 738.626274 93.408926 
L 731.003322 96.282846 
L 723.86983 98.288423 
L 716.455172 100.078441 
L 708.631185 102.065465 
L 701.428741 104.447578 
L 695.608015 107.124784 
L 689.535144 110.308597 
L 683.695221 112.702353 
L 677.943266 115.163477 
L 672.655953 117.757214 
L 667.989841 120.39451 
L 664.20524 123.657598 
L 659.861359 125.632396 
L 654.861977 127.14593 
L 650.46769 129.011974 
L 646.561577 130.591923 
L 643.467906 132.5471 
L 640.625217 134.575603 
L 637.610819 136.275097 
L 634.869049 137.77756 
L 631.530512 139.179684 
L 627.865204 141.030614 
L 624.395791 142.527311 
L 621.206753 143.880339 
L 617.926094 145.290933 
L 614.537545 147.152586 
L 610.730215 148.78133 
L 607.150526 150.240514 
L 603.809824 151.908696 
L 600.994884 153.485902 
L 598.326923 154.686316 
L 595.148579 155.882212 
L 592.101409 156.989866 
L 589.10963 158.009737 
L 586.69633 159.178286 
L 583.658827 159.92385 
L 580.870759 160.735572 
L 577.662717 161.918136 
L 575.016597 163.084088 
L 572.727488 164.291588 
L 570.571293 165.427485 
L 568.176455 166.879946 
L 565.540773 168.398702 
L 562.933493 169.353631 
L 560.488023 170.333729 
L 558.472011 171.589422 
L 556.218262 172.79834 
L 553.860504 173.891847 
L 551.557481 174.89669 
L 549.580739 176.031702 
L 547.300505 177.367103 
L 544.777929 178.554302 
L 542.680266 179.79549 
L 539.589657 181.088996 
L 537.395022 182.295533 
L 535.046239 183.794797 
L 532.8 184.832674 
L 530.092099 185.934055 
L 527.419028 186.826521 
L 525.411194 187.679117 
L 523.45074 188.423293 
L 521.027353 189.082151 
L 518.646457 189.888866 
L 516.405255 190.633021 
L 513.976305 191.205921 
L 511.713562 191.802586 
L 509.412587 192.462327 
L 507.246977 193.6268 
L 504.77444 194.654074 
L 502.341823 195.499196 
L 499.843714 196.31892 
L 497.609431 197.115591 
L 495.583975 197.992381 
L 493.392452 199.046299 
L 491.339876 199.800067 
L 489.380243 200.853211 
L 486.894649 201.767578 
L 484.198125 202.539836 
L 481.967136 203.392115 
L 479.678515 204.225381 
L 477.185723 205.214161 
L 474.86093 206.118362 
L 472.538511 206.808203 
L 469.897666 207.757297 
L 467.464004 208.374913 
L 464.752469 209.034269 
L 462.404623 209.763723 
L 459.316067 210.587095 
L 456.719579 211.361989 
L 454.246824 212.312339 
L 451.918993 213.096944 
" style="fill:none;stroke:#8c564b;stroke-linecap:square;stroke-width:1.5;"/>
   </g>
   <g id="line2d_20">
    <path clip-path="url(#pf77ae7b3b2)" d="M 972 60.48 
L 862.769684 73.776661 
L 800.629661 85.717612 
L 753.337435 97.934197 
L 715.740218 109.238769 
L 684.383279 119.320118 
L 660.671291 127.998485 
L 641.488599 137.088439 
L 625.116366 145.77503 
L 612.086992 153.318103 
L 600.367394 159.866665 
L 589.677788 164.785361 
L 579.605235 169.718294 
L 569.627086 175.237179 
L 559.06926 180.343518 
L 550.194573 185.641247 
L 541.978169 190.953892 
L 534.685135 194.905079 
L 526.825033 199.179019 
L 519.479763 203.981864 
L 512.936354 208.868428 
L 507.463969 213.983442 
L 501.539105 217.489111 
L 496.063308 220.447328 
L 490.800724 224.081458 
L 486.05418 227.177384 
L 481.725462 230.116814 
L 477.257067 233.124881 
L 472.916804 236.236662 
L 468.872644 239.099675 
L 464.22195 242.107968 
L 459.586124 245.050227 
L 455.127202 247.931313 
L 451.115852 250.458576 
L 446.849269 253.383208 
L 442.616601 255.792259 
L 438.267368 258.276401 
L 434.454477 260.869886 
L 430.827756 263.447944 
L 427.282026 265.714998 
L 423.870174 267.326382 
L 420.456592 268.985302 
L 417.289553 270.54722 
L 414 272.216572 
L 410.631699 273.882474 
L 407.381428 275.305198 
L 404.353603 276.659947 
L 401.054148 278.325152 
L 398.143812 280.162516 
L 395.428897 282.098387 
L 392.786161 283.821498 
L 390.043839 285.823904 
L 386.937267 287.642984 
L 383.939842 289.22022 
L 381.261184 290.747647 
L 378.87426 291.958454 
L 376.509858 293.285215 
L 373.909781 294.452458 
L 371.335102 295.749975 
L 369.126488 297.074399 
L 366.761364 298.512381 
L 364.332445 299.775225 
L 362.182907 301.257052 
L 359.550879 302.786789 
L 357.36619 304.331359 
L 355.076833 305.904029 
L 352.843674 307.106225 
L 350.553558 308.747893 
L 348.271651 309.85529 
L 346.276948 311.033402 
L 344.282317 312.048381 
L 342.055296 313.364211 
L 340.093995 314.554876 
L 338.002612 315.618823 
L 336.115473 316.620761 
L 334.061838 317.568547 
L 332.081759 318.54279 
L 330.315625 319.534818 
L 328.294442 320.517025 
L 326.2779 321.402468 
L 324.27125 322.234657 
L 322.289318 323.180071 
L 320.498438 324.089036 
L 318.595514 325.168037 
L 316.781862 326.242131 
L 315.038402 327.190828 
L 313.06456 328.197828 
L 310.934742 329.177142 
L 309.255544 330.279101 
L 307.531227 331.187521 
L 305.832499 332.243265 
L 304.210742 333.110987 
L 302.553719 333.778235 
L 300.619723 334.445292 
L 299.053077 335.049748 
L 297.151315 335.792014 
L 295.487212 336.480587 
L 293.605502 337.149542 
L 292.035031 337.808565 
L 290.429397 338.633898 
L 288.727179 339.488244 
" style="fill:none;stroke:#e377c2;stroke-linecap:square;stroke-width:1.5;"/>
   </g>
   <g id="line2d_21">
    <path clip-path="url(#pf77ae7b3b2)" d="M 972 60.48 
L 920.358734 68.067434 
L 887.791089 74.968244 
L 861.746256 82.191556 
L 838.491955 89.207135 
L 819.280318 95.525664 
L 803.196028 101.320529 
L 788.505774 107.307068 
L 775.241615 112.679138 
L 763.151766 118.44 
L 752.373467 123.288984 
L 743.063445 126.954031 
L 734.31189 130.815644 
L 725.714078 135.17162 
L 715.439409 139.218661 
L 706.590258 143.04591 
L 698.564103 146.954895 
L 691.890022 149.998324 
L 684.385785 153.340394 
L 677.380435 157.158271 
L 670.798207 161.134612 
L 664.833649 165.072082 
L 658.225682 168.007537 
L 652.562577 170.603223 
L 646.847214 173.812454 
L 641.610302 176.366506 
L 636.684669 178.68 
L 631.366364 181.143329 
L 626.552337 183.943833 
L 621.978947 186.651356 
L 616.65823 189.504729 
L 611.532126 192.133809 
L 606.566508 194.824273 
L 601.89966 197.21952 
L 596.90289 200.117542 
L 591.921764 202.270148 
L 586.925327 204.728732 
L 582.142762 207.323514 
L 577.663815 209.810477 
L 573.279047 211.871881 
L 569.188761 213.355266 
L 565.45802 214.978935 
L 561.89117 216.565506 
L 558.065232 218.408283 
L 553.775128 220.10255 
L 549.685467 221.707618 
L 546.000656 223.07315 
L 542.152138 224.803332 
L 538.523645 226.695396 
L 535.084477 228.71436 
L 531.598647 230.519335 
L 528.069493 232.628145 
L 523.969026 234.428722 
L 519.935519 236.151831 
L 516.503847 237.856419 
L 513.488843 239.082047 
L 510.528611 240.427594 
L 507.131671 241.621178 
L 503.576026 242.969143 
L 500.636044 244.411936 
L 497.646445 245.901666 
L 494.533268 247.159371 
L 491.646656 248.795092 
L 488.248287 250.454017 
L 485.226083 252.200239 
L 482.164255 253.873565 
L 479.127646 255.173333 
L 476.232626 257.116642 
L 473.291295 258.361212 
L 470.546806 259.759578 
L 467.764834 260.976332 
L 464.821222 262.575585 
L 462.328794 263.979029 
L 459.470417 265.143012 
L 456.988558 266.429555 
L 454.20316 267.592608 
L 451.539177 268.733272 
L 449.129581 269.878124 
L 446.443981 270.954517 
L 443.755676 271.967687 
L 440.902305 272.937324 
L 438.028176 274.075572 
L 435.400913 275.066284 
L 432.761059 276.334383 
L 430.174645 277.623281 
L 427.651407 278.799005 
L 425.002646 280.061396 
L 422.093701 281.302884 
L 419.757271 282.644879 
L 417.388869 283.805667 
L 415.000978 285.058853 
L 412.877569 285.995358 
L 410.571662 286.723444 
L 407.89716 287.520847 
L 405.782509 288.248725 
L 403.115551 289.117514 
L 400.669978 289.934816 
L 398.220144 290.723531 
L 396.050265 291.514312 
L 393.845337 292.535606 
L 391.385485 293.558615 
" style="fill:none;stroke:#7f7f7f;stroke-linecap:square;stroke-width:1.5;"/>
   </g>
   <g id="line2d_22">
    <path clip-path="url(#pf77ae7b3b2)" d="M 972 60.48 
L 886.946227 70.028988 
L 836.930071 78.846801 
L 797.470388 87.797446 
L 764.617355 96.368996 
L 736.751896 103.943817 
L 715.360173 110.607881 
L 697.641063 117.766899 
L 682.715664 124.5825 
L 670.712172 130.919486 
L 659.916682 136.557161 
L 649.938263 140.782284 
L 640.35264 144.924041 
L 630.9593 149.789013 
L 620.934822 154.148556 
L 612.441899 158.687913 
L 604.549902 163.215145 
L 597.610331 166.633583 
L 589.935899 170.305678 
L 582.822119 174.411172 
L 576.45194 178.594895 
L 571.069149 183.094107 
L 565.167994 186.134693 
L 559.786633 188.848193 
L 554.480204 192.229606 
L 549.763183 195.002441 
L 545.35242 197.760404 
L 540.790622 200.647838 
L 536.377536 203.535871 
L 532.314677 206.256932 
L 527.542931 209.08226 
L 522.639678 211.998389 
L 518.04827 214.68974 
L 513.913706 217.16013 
L 509.516935 219.953679 
L 505.143431 222.359392 
L 500.534195 224.835051 
L 496.365779 227.40972 
L 492.617683 229.906451 
L 488.895874 232.099374 
L 485.343043 233.619487 
L 481.836371 235.263573 
L 478.560207 236.909286 
L 475.160208 238.617708 
L 471.59286 240.281782 
L 468.104005 241.803872 
L 464.827461 243.147242 
L 461.343321 244.796139 
L 458.230456 246.658214 
L 455.3507 248.627957 
L 452.351798 250.350886 
L 449.46201 252.402144 
L 446.043593 254.239853 
L 442.785309 255.929328 
L 439.950435 257.54886 
L 437.421304 258.888427 
L 434.764113 260.276975 
L 431.911884 261.488768 
L 428.987333 262.848251 
L 426.56652 264.258509 
L 423.973106 265.79779 
L 421.232042 267.127807 
L 418.813349 268.701896 
L 415.834954 270.327216 
L 413.3329 271.981606 
L 410.751176 273.648918 
L 408.216039 274.995474 
L 405.571128 276.765577 
L 402.92518 277.914008 
L 400.651895 279.166288 
L 398.396621 280.307384 
L 395.874374 281.751794 
L 393.692122 283.031875 
L 391.180678 284.191867 
L 388.979329 285.343688 
L 386.503133 286.380917 
L 384.258297 287.436426 
L 382.147289 288.528863 
L 379.754044 289.68071 
L 377.451072 290.677814 
L 375.068595 291.652025 
L 372.764965 292.735421 
L 370.649946 293.718665 
L 368.436081 294.970574 
L 366.300394 296.209019 
L 364.284403 297.379718 
L 362.092856 298.563772 
L 359.557301 299.673061 
L 357.538873 300.890482 
L 355.510982 301.937177 
L 353.459834 303.102516 
L 351.534647 304.067073 
L 349.541773 304.799106 
L 347.329648 305.558825 
L 345.464299 306.21319 
L 343.170786 307.038068 
L 341.084964 307.822956 
L 338.905111 308.556017 
L 336.985299 309.344615 
L 335.025571 310.264356 
L 333.040653 311.214023 
" style="fill:none;stroke:#bcbd22;stroke-linecap:square;stroke-width:1.5;"/>
   </g>
   <g id="line2d_23">
    <path clip-path="url(#pf77ae7b3b2)" d="M 972 60.48 
L 894.45866 68.418367 
L 849.066501 76.001374 
L 812.353251 84.051166 
L 782.118903 91.947744 
L 756.0134 98.716747 
L 735.837945 104.768916 
L 719.159277 111.349831 
L 705.210956 117.48169 
L 693.709423 123.388802 
L 683.19764 128.614453 
L 673.407866 132.314777 
L 664.449546 136.141347 
L 655.212264 140.327692 
L 645.534967 144.381038 
L 637.335179 148.61736 
L 629.482027 152.900791 
L 622.595685 156.127122 
L 615.016336 159.681329 
L 608.026848 163.58908 
L 601.867824 167.521119 
L 596.621701 171.732952 
L 590.805136 174.635888 
L 585.381871 177.286911 
L 580.053927 180.438229 
L 575.31927 183.152009 
L 570.990709 185.817472 
L 566.471897 188.563585 
L 562.161752 191.471835 
L 558.040175 194.116973 
L 553.319417 196.869042 
L 548.57197 199.633205 
L 544.085293 202.330554 
L 539.953775 204.685571 
L 535.728113 207.441618 
L 531.335268 209.827537 
L 526.70115 212.297517 
L 522.578755 214.785954 
L 518.798031 217.247223 
L 515.027879 219.343565 
L 511.352319 220.832018 
L 507.758457 222.515271 
L 504.381414 224.133577 
L 500.878444 225.881618 
L 497.284886 227.534305 
L 493.842046 229.005386 
L 490.572995 230.401317 
L 487.036193 232.111026 
L 483.891437 233.994285 
L 480.90517 235.972242 
L 477.848871 237.745998 
L 474.94903 239.877491 
L 471.534963 241.678997 
L 468.183616 243.359849 
L 465.282719 245.01848 
L 462.648308 246.347262 
L 460.006128 247.750789 
L 457.080243 248.994305 
L 454.162161 250.333119 
L 451.706224 251.740967 
L 449.054106 253.287498 
L 446.228774 254.661612 
L 443.785575 256.272337 
L 440.750947 257.959432 
L 438.137828 259.708318 
L 435.474352 261.402487 
L 432.865155 262.739569 
L 430.140855 264.534134 
L 427.382668 265.768366 
L 425.034226 267.073754 
L 422.726904 268.21296 
L 420.156011 269.677505 
L 417.863724 271.012023 
L 415.31173 272.219269 
L 413.101333 273.409372 
L 410.564682 274.507993 
L 408.222237 275.583769 
L 406.039757 276.746228 
L 403.503272 277.897788 
L 401.119622 278.919806 
L 398.647182 279.969525 
L 396.18133 281.059071 
L 393.921194 282.037358 
L 391.67248 283.297572 
L 389.389368 284.54755 
L 387.229938 285.752054 
L 384.932678 286.944365 
L 382.342324 288.092534 
L 380.256829 289.377026 
L 378.121852 290.494995 
L 375.998912 291.691034 
L 373.966393 292.707293 
L 371.921122 293.479352 
L 369.589671 294.272728 
L 367.675608 294.975264 
L 365.235577 295.784012 
L 363.038759 296.611313 
L 360.739898 297.355053 
L 358.703545 298.187139 
L 356.59623 299.142368 
L 354.520137 300.115793 
" style="fill:none;stroke:#17becf;stroke-linecap:square;stroke-width:1.5;"/>
   </g>
   <g id="patch_3">
    <path d="M 135 448.56 
L 135 60.48 
" style="fill:none;stroke:#000000;stroke-linecap:square;stroke-linejoin:miter;stroke-width:0.8;"/>
   </g>
   <g id="patch_4">
    <path d="M 972 448.56 
L 972 60.48 
" style="fill:none;stroke:#000000;stroke-linecap:square;stroke-linejoin:miter;stroke-width:0.8;"/>
   </g>
   <g id="patch_5">
    <path d="M 135 448.56 
L 972 448.56 
" style="fill:none;stroke:#000000;stroke-linecap:square;stroke-linejoin:miter;stroke-width:0.8;"/>
   </g>
   <g id="patch_6">
    <path d="M 135 60.48 
L 972 60.48 
" style="fill:none;stroke:#000000;stroke-linecap:square;stroke-linejoin:miter;stroke-width:0.8;"/>
   </g>
   <g id="legend_1">
    <g id="patch_7">
     <path d="M 850.269375 439.56 
L 959.4 439.56 
Q 963 439.56 963 435.96 
L 963 173.55375 
Q 963 169.95375 959.4 169.95375 
L 850.269375 169.95375 
Q 846.669375 169.95375 846.669375 173.55375 
L 846.669375 435.96 
Q 846.669375 439.56 850.269375 439.56 
z
" style="fill:#ffffff;opacity:0.8;stroke:#cccccc;stroke-linejoin:miter;"/>
    </g>
    <g id="line2d_24">
     <path d="M 853.869375 184.530938 
L 889.869375 184.530938 
" style="fill:none;stroke:#1f77b4;stroke-linecap:square;stroke-width:1.5;"/>
    </g>
    <g id="line2d_25"/>
    <g id="text_15">
     <!-- 0.001 -->
     <g transform="translate(904.269375 190.830938)scale(0.18 -0.18)">
      <use xlink:href="#DejaVuSans-30"/>
      <use x="63.623047" xlink:href="#DejaVuSans-2e"/>
      <use x="95.410156" xlink:href="#DejaVuSans-30"/>
      <use x="159.033203" xlink:href="#DejaVuSans-30"/>
      <use x="222.65625" xlink:href="#DejaVuSans-31"/>
     </g>
    </g>
    <g id="line2d_26">
     <path d="M 853.869375 210.951563 
L 889.869375 210.951563 
" style="fill:none;stroke:#ff7f0e;stroke-linecap:square;stroke-width:1.5;"/>
    </g>
    <g id="line2d_27"/>
    <g id="text_16">
     <!-- 0.011 -->
     <g transform="translate(904.269375 217.251563)scale(0.18 -0.18)">
      <use xlink:href="#DejaVuSans-30"/>
      <use x="63.623047" xlink:href="#DejaVuSans-2e"/>
      <use x="95.410156" xlink:href="#DejaVuSans-30"/>
      <use x="159.033203" xlink:href="#DejaVuSans-31"/>
      <use x="222.65625" xlink:href="#DejaVuSans-31"/>
     </g>
    </g>
    <g id="line2d_28">
     <path d="M 853.869375 237.372188 
L 889.869375 237.372188 
" style="fill:none;stroke:#2ca02c;stroke-linecap:square;stroke-width:1.5;"/>
    </g>
    <g id="line2d_29"/>
    <g id="text_17">
     <!-- 0.021 -->
     <g transform="translate(904.269375 243.672188)scale(0.18 -0.18)">
      <use xlink:href="#DejaVuSans-30"/>
      <use x="63.623047" xlink:href="#DejaVuSans-2e"/>
      <use x="95.410156" xlink:href="#DejaVuSans-30"/>
      <use x="159.033203" xlink:href="#DejaVuSans-32"/>
      <use x="222.65625" xlink:href="#DejaVuSans-31"/>
     </g>
    </g>
    <g id="line2d_30">
     <path d="M 853.869375 263.792813 
L 889.869375 263.792813 
" style="fill:none;stroke:#d62728;stroke-linecap:square;stroke-width:1.5;"/>
    </g>
    <g id="line2d_31"/>
    <g id="text_18">
     <!-- 0.031 -->
     <g transform="translate(904.269375 270.092813)scale(0.18 -0.18)">
      <defs>
       <path d="M 2597 2516 
Q 3050 2419 3304 2112 
Q 3559 1806 3559 1356 
Q 3559 666 3084 287 
Q 2609 -91 1734 -91 
Q 1441 -91 1130 -33 
Q 819 25 488 141 
L 488 750 
Q 750 597 1062 519 
Q 1375 441 1716 441 
Q 2309 441 2620 675 
Q 2931 909 2931 1356 
Q 2931 1769 2642 2001 
Q 2353 2234 1838 2234 
L 1294 2234 
L 1294 2753 
L 1863 2753 
Q 2328 2753 2575 2939 
Q 2822 3125 2822 3475 
Q 2822 3834 2567 4026 
Q 2313 4219 1838 4219 
Q 1578 4219 1281 4162 
Q 984 4106 628 3988 
L 628 4550 
Q 988 4650 1302 4700 
Q 1616 4750 1894 4750 
Q 2613 4750 3031 4423 
Q 3450 4097 3450 3541 
Q 3450 3153 3228 2886 
Q 3006 2619 2597 2516 
z
" id="DejaVuSans-33" transform="scale(0.015625)"/>
      </defs>
      <use xlink:href="#DejaVuSans-30"/>
      <use x="63.623047" xlink:href="#DejaVuSans-2e"/>
      <use x="95.410156" xlink:href="#DejaVuSans-30"/>
      <use x="159.033203" xlink:href="#DejaVuSans-33"/>
      <use x="222.65625" xlink:href="#DejaVuSans-31"/>
     </g>
    </g>
    <g id="line2d_32">
     <path d="M 853.869375 290.213438 
L 889.869375 290.213438 
" style="fill:none;stroke:#9467bd;stroke-linecap:square;stroke-width:1.5;"/>
    </g>
    <g id="line2d_33"/>
    <g id="text_19">
     <!-- 0.041 -->
     <g transform="translate(904.269375 296.513438)scale(0.18 -0.18)">
      <use xlink:href="#DejaVuSans-30"/>
      <use x="63.623047" xlink:href="#DejaVuSans-2e"/>
      <use x="95.410156" xlink:href="#DejaVuSans-30"/>
      <use x="159.033203" xlink:href="#DejaVuSans-34"/>
      <use x="222.65625" xlink:href="#DejaVuSans-31"/>
     </g>
    </g>
    <g id="line2d_34">
     <path d="M 853.869375 316.634063 
L 889.869375 316.634063 
" style="fill:none;stroke:#8c564b;stroke-linecap:square;stroke-width:1.5;"/>
    </g>
    <g id="line2d_35"/>
    <g id="text_20">
     <!-- 0.051 -->
     <g transform="translate(904.269375 322.934063)scale(0.18 -0.18)">
      <defs>
       <path d="M 691 4666 
L 3169 4666 
L 3169 4134 
L 1269 4134 
L 1269 2991 
Q 1406 3038 1543 3061 
Q 1681 3084 1819 3084 
Q 2600 3084 3056 2656 
Q 3513 2228 3513 1497 
Q 3513 744 3044 326 
Q 2575 -91 1722 -91 
Q 1428 -91 1123 -41 
Q 819 9 494 109 
L 494 744 
Q 775 591 1075 516 
Q 1375 441 1709 441 
Q 2250 441 2565 725 
Q 2881 1009 2881 1497 
Q 2881 1984 2565 2268 
Q 2250 2553 1709 2553 
Q 1456 2553 1204 2497 
Q 953 2441 691 2322 
L 691 4666 
z
" id="DejaVuSans-35" transform="scale(0.015625)"/>
      </defs>
      <use xlink:href="#DejaVuSans-30"/>
      <use x="63.623047" xlink:href="#DejaVuSans-2e"/>
      <use x="95.410156" xlink:href="#DejaVuSans-30"/>
      <use x="159.033203" xlink:href="#DejaVuSans-35"/>
      <use x="222.65625" xlink:href="#DejaVuSans-31"/>
     </g>
    </g>
    <g id="line2d_36">
     <path d="M 853.869375 343.054688 
L 889.869375 343.054688 
" style="fill:none;stroke:#e377c2;stroke-linecap:square;stroke-width:1.5;"/>
    </g>
    <g id="line2d_37"/>
    <g id="text_21">
     <!-- 0.061 -->
     <g transform="translate(904.269375 349.354688)scale(0.18 -0.18)">
      <use xlink:href="#DejaVuSans-30"/>
      <use x="63.623047" xlink:href="#DejaVuSans-2e"/>
      <use x="95.410156" xlink:href="#DejaVuSans-30"/>
      <use x="159.033203" xlink:href="#DejaVuSans-36"/>
      <use x="222.65625" xlink:href="#DejaVuSans-31"/>
     </g>
    </g>
    <g id="line2d_38">
     <path d="M 853.869375 369.475313 
L 889.869375 369.475313 
" style="fill:none;stroke:#7f7f7f;stroke-linecap:square;stroke-width:1.5;"/>
    </g>
    <g id="line2d_39"/>
    <g id="text_22">
     <!-- 0.071 -->
     <g transform="translate(904.269375 375.775313)scale(0.18 -0.18)">
      <defs>
       <path d="M 525 4666 
L 3525 4666 
L 3525 4397 
L 1831 0 
L 1172 0 
L 2766 4134 
L 525 4134 
L 525 4666 
z
" id="DejaVuSans-37" transform="scale(0.015625)"/>
      </defs>
      <use xlink:href="#DejaVuSans-30"/>
      <use x="63.623047" xlink:href="#DejaVuSans-2e"/>
      <use x="95.410156" xlink:href="#DejaVuSans-30"/>
      <use x="159.033203" xlink:href="#DejaVuSans-37"/>
      <use x="222.65625" xlink:href="#DejaVuSans-31"/>
     </g>
    </g>
    <g id="line2d_40">
     <path d="M 853.869375 395.895938 
L 889.869375 395.895938 
" style="fill:none;stroke:#bcbd22;stroke-linecap:square;stroke-width:1.5;"/>
    </g>
    <g id="line2d_41"/>
    <g id="text_23">
     <!-- 0.081 -->
     <g transform="translate(904.269375 402.195938)scale(0.18 -0.18)">
      <use xlink:href="#DejaVuSans-30"/>
      <use x="63.623047" xlink:href="#DejaVuSans-2e"/>
      <use x="95.410156" xlink:href="#DejaVuSans-30"/>
      <use x="159.033203" xlink:href="#DejaVuSans-38"/>
      <use x="222.65625" xlink:href="#DejaVuSans-31"/>
     </g>
    </g>
    <g id="line2d_42">
     <path d="M 853.869375 422.316563 
L 889.869375 422.316563 
" style="fill:none;stroke:#17becf;stroke-linecap:square;stroke-width:1.5;"/>
    </g>
    <g id="line2d_43"/>
    <g id="text_24">
     <!-- 0.091 -->
     <g transform="translate(904.269375 428.616563)scale(0.18 -0.18)">
      <defs>
       <path d="M 703 97 
L 703 672 
Q 941 559 1184 500 
Q 1428 441 1663 441 
Q 2288 441 2617 861 
Q 2947 1281 2994 2138 
Q 2813 1869 2534 1725 
Q 2256 1581 1919 1581 
Q 1219 1581 811 2004 
Q 403 2428 403 3163 
Q 403 3881 828 4315 
Q 1253 4750 1959 4750 
Q 2769 4750 3195 4129 
Q 3622 3509 3622 2328 
Q 3622 1225 3098 567 
Q 2575 -91 1691 -91 
Q 1453 -91 1209 -44 
Q 966 3 703 97 
z
M 1959 2075 
Q 2384 2075 2632 2365 
Q 2881 2656 2881 3163 
Q 2881 3666 2632 3958 
Q 2384 4250 1959 4250 
Q 1534 4250 1286 3958 
Q 1038 3666 1038 3163 
Q 1038 2656 1286 2365 
Q 1534 2075 1959 2075 
z
" id="DejaVuSans-39" transform="scale(0.015625)"/>
      </defs>
      <use xlink:href="#DejaVuSans-30"/>
      <use x="63.623047" xlink:href="#DejaVuSans-2e"/>
      <use x="95.410156" xlink:href="#DejaVuSans-30"/>
      <use x="159.033203" xlink:href="#DejaVuSans-39"/>
      <use x="222.65625" xlink:href="#DejaVuSans-31"/>
     </g>
    </g>
   </g>
  </g>
 </g>
 <defs>
  <clipPath id="pf77ae7b3b2">
   <rect height="388.08" width="837" x="135" y="60.48"/>
  </clipPath>
 </defs>
</svg>
