<?xml version="1.0" encoding="utf-8" standalone="no"?>
<!DOCTYPE svg PUBLIC "-//W3C//DTD SVG 1.1//EN"
  "http://www.w3.org/Graphics/SVG/1.1/DTD/svg11.dtd">
<svg height="504pt" version="1.1" viewBox="0 0 1080 504" width="1080pt" xmlns="http://www.w3.org/2000/svg" xmlns:xlink="http://www.w3.org/1999/xlink">
 <metadata>
  <rdf:RDF xmlns:cc="http://creativecommons.org/ns#" xmlns:dc="http://purl.org/dc/elements/1.1/" xmlns:rdf="http://www.w3.org/1999/02/22-rdf-syntax-ns#">
   <cc:Work>
    <dc:type rdf:resource="http://purl.org/dc/dcmitype/StillImage"/>
    <dc:date>2022-01-07T13:24:52.984606</dc:date>
    <dc:format>image/svg+xml</dc:format>
    <dc:creator>
     <cc:Agent>
      <dc:title>Matplotlib v3.4.3, https://matplotlib.org/</dc:title>
     </cc:Agent>
    </dc:creator>
   </cc:Work>
  </rdf:RDF>
 </metadata>
 <defs>
  <style type="text/css">*{stroke-linecap:butt;stroke-linejoin:round;}</style>
 </defs>
 <g id="figure_1">
  <g id="patch_1">
   <path d="M 0 504 
L 1080 504 
L 1080 0 
L 0 0 
z
" style="fill:#ffffff;"/>
  </g>
  <g id="axes_1">
   <g id="patch_2">
    <path d="M 135 448.56 
L 972 448.56 
L 972 60.48 
L 135 60.48 
z
" style="fill:#ffffff;"/>
   </g>
   <g id="matplotlib.axis_1">
    <g id="xtick_1">
     <g id="line2d_1">
      <defs>
       <path d="M 0 0 
L 0 3.5 
" id="m7ca0ba8d92" style="stroke:#000000;stroke-width:0.8;"/>
      </defs>
      <g>
       <use style="stroke:#000000;stroke-width:0.8;" x="135" xlink:href="#m7ca0ba8d92" y="448.56"/>
      </g>
     </g>
     <g id="text_1">
      <!-- 0.0 -->
      <g transform="translate(120.687187 469.237188)scale(0.18 -0.18)">
       <defs>
        <path d="M 2034 4250 
Q 1547 4250 1301 3770 
Q 1056 3291 1056 2328 
Q 1056 1369 1301 889 
Q 1547 409 2034 409 
Q 2525 409 2770 889 
Q 3016 1369 3016 2328 
Q 3016 3291 2770 3770 
Q 2525 4250 2034 4250 
z
M 2034 4750 
Q 2819 4750 3233 4129 
Q 3647 3509 3647 2328 
Q 3647 1150 3233 529 
Q 2819 -91 2034 -91 
Q 1250 -91 836 529 
Q 422 1150 422 2328 
Q 422 3509 836 4129 
Q 1250 4750 2034 4750 
z
" id="DejaVuSans-30" transform="scale(0.015625)"/>
        <path d="M 684 794 
L 1344 794 
L 1344 0 
L 684 0 
L 684 794 
z
" id="DejaVuSans-2e" transform="scale(0.015625)"/>
       </defs>
       <use xlink:href="#DejaVuSans-30"/>
       <use x="63.623047" xlink:href="#DejaVuSans-2e"/>
       <use x="95.410156" xlink:href="#DejaVuSans-30"/>
      </g>
     </g>
    </g>
    <g id="xtick_2">
     <g id="line2d_2">
      <g>
       <use style="stroke:#000000;stroke-width:0.8;" x="302.4" xlink:href="#m7ca0ba8d92" y="448.56"/>
      </g>
     </g>
     <g id="text_2">
      <!-- 0.2 -->
      <g transform="translate(288.087187 469.237188)scale(0.18 -0.18)">
       <defs>
        <path d="M 1228 531 
L 3431 531 
L 3431 0 
L 469 0 
L 469 531 
Q 828 903 1448 1529 
Q 2069 2156 2228 2338 
Q 2531 2678 2651 2914 
Q 2772 3150 2772 3378 
Q 2772 3750 2511 3984 
Q 2250 4219 1831 4219 
Q 1534 4219 1204 4116 
Q 875 4013 500 3803 
L 500 4441 
Q 881 4594 1212 4672 
Q 1544 4750 1819 4750 
Q 2544 4750 2975 4387 
Q 3406 4025 3406 3419 
Q 3406 3131 3298 2873 
Q 3191 2616 2906 2266 
Q 2828 2175 2409 1742 
Q 1991 1309 1228 531 
z
" id="DejaVuSans-32" transform="scale(0.015625)"/>
       </defs>
       <use xlink:href="#DejaVuSans-30"/>
       <use x="63.623047" xlink:href="#DejaVuSans-2e"/>
       <use x="95.410156" xlink:href="#DejaVuSans-32"/>
      </g>
     </g>
    </g>
    <g id="xtick_3">
     <g id="line2d_3">
      <g>
       <use style="stroke:#000000;stroke-width:0.8;" x="469.8" xlink:href="#m7ca0ba8d92" y="448.56"/>
      </g>
     </g>
     <g id="text_3">
      <!-- 0.4 -->
      <g transform="translate(455.487188 469.237188)scale(0.18 -0.18)">
       <defs>
        <path d="M 2419 4116 
L 825 1625 
L 2419 1625 
L 2419 4116 
z
M 2253 4666 
L 3047 4666 
L 3047 1625 
L 3713 1625 
L 3713 1100 
L 3047 1100 
L 3047 0 
L 2419 0 
L 2419 1100 
L 313 1100 
L 313 1709 
L 2253 4666 
z
" id="DejaVuSans-34" transform="scale(0.015625)"/>
       </defs>
       <use xlink:href="#DejaVuSans-30"/>
       <use x="63.623047" xlink:href="#DejaVuSans-2e"/>
       <use x="95.410156" xlink:href="#DejaVuSans-34"/>
      </g>
     </g>
    </g>
    <g id="xtick_4">
     <g id="line2d_4">
      <g>
       <use style="stroke:#000000;stroke-width:0.8;" x="637.2" xlink:href="#m7ca0ba8d92" y="448.56"/>
      </g>
     </g>
     <g id="text_4">
      <!-- 0.6 -->
      <g transform="translate(622.887188 469.237188)scale(0.18 -0.18)">
       <defs>
        <path d="M 2113 2584 
Q 1688 2584 1439 2293 
Q 1191 2003 1191 1497 
Q 1191 994 1439 701 
Q 1688 409 2113 409 
Q 2538 409 2786 701 
Q 3034 994 3034 1497 
Q 3034 2003 2786 2293 
Q 2538 2584 2113 2584 
z
M 3366 4563 
L 3366 3988 
Q 3128 4100 2886 4159 
Q 2644 4219 2406 4219 
Q 1781 4219 1451 3797 
Q 1122 3375 1075 2522 
Q 1259 2794 1537 2939 
Q 1816 3084 2150 3084 
Q 2853 3084 3261 2657 
Q 3669 2231 3669 1497 
Q 3669 778 3244 343 
Q 2819 -91 2113 -91 
Q 1303 -91 875 529 
Q 447 1150 447 2328 
Q 447 3434 972 4092 
Q 1497 4750 2381 4750 
Q 2619 4750 2861 4703 
Q 3103 4656 3366 4563 
z
" id="DejaVuSans-36" transform="scale(0.015625)"/>
       </defs>
       <use xlink:href="#DejaVuSans-30"/>
       <use x="63.623047" xlink:href="#DejaVuSans-2e"/>
       <use x="95.410156" xlink:href="#DejaVuSans-36"/>
      </g>
     </g>
    </g>
    <g id="xtick_5">
     <g id="line2d_5">
      <g>
       <use style="stroke:#000000;stroke-width:0.8;" x="804.6" xlink:href="#m7ca0ba8d92" y="448.56"/>
      </g>
     </g>
     <g id="text_5">
      <!-- 0.8 -->
      <g transform="translate(790.287188 469.237188)scale(0.18 -0.18)">
       <defs>
        <path d="M 2034 2216 
Q 1584 2216 1326 1975 
Q 1069 1734 1069 1313 
Q 1069 891 1326 650 
Q 1584 409 2034 409 
Q 2484 409 2743 651 
Q 3003 894 3003 1313 
Q 3003 1734 2745 1975 
Q 2488 2216 2034 2216 
z
M 1403 2484 
Q 997 2584 770 2862 
Q 544 3141 544 3541 
Q 544 4100 942 4425 
Q 1341 4750 2034 4750 
Q 2731 4750 3128 4425 
Q 3525 4100 3525 3541 
Q 3525 3141 3298 2862 
Q 3072 2584 2669 2484 
Q 3125 2378 3379 2068 
Q 3634 1759 3634 1313 
Q 3634 634 3220 271 
Q 2806 -91 2034 -91 
Q 1263 -91 848 271 
Q 434 634 434 1313 
Q 434 1759 690 2068 
Q 947 2378 1403 2484 
z
M 1172 3481 
Q 1172 3119 1398 2916 
Q 1625 2713 2034 2713 
Q 2441 2713 2670 2916 
Q 2900 3119 2900 3481 
Q 2900 3844 2670 4047 
Q 2441 4250 2034 4250 
Q 1625 4250 1398 4047 
Q 1172 3844 1172 3481 
z
" id="DejaVuSans-38" transform="scale(0.015625)"/>
       </defs>
       <use xlink:href="#DejaVuSans-30"/>
       <use x="63.623047" xlink:href="#DejaVuSans-2e"/>
       <use x="95.410156" xlink:href="#DejaVuSans-38"/>
      </g>
     </g>
    </g>
    <g id="xtick_6">
     <g id="line2d_6">
      <g>
       <use style="stroke:#000000;stroke-width:0.8;" x="972" xlink:href="#m7ca0ba8d92" y="448.56"/>
      </g>
     </g>
     <g id="text_6">
      <!-- 1.0 -->
      <g transform="translate(957.687188 469.237188)scale(0.18 -0.18)">
       <defs>
        <path d="M 794 531 
L 1825 531 
L 1825 4091 
L 703 3866 
L 703 4441 
L 1819 4666 
L 2450 4666 
L 2450 531 
L 3481 531 
L 3481 0 
L 794 0 
L 794 531 
z
" id="DejaVuSans-31" transform="scale(0.015625)"/>
       </defs>
       <use xlink:href="#DejaVuSans-31"/>
       <use x="63.623047" xlink:href="#DejaVuSans-2e"/>
       <use x="95.410156" xlink:href="#DejaVuSans-30"/>
      </g>
     </g>
    </g>
    <g id="text_7">
     <!-- $FPR_{Fair}$ -->
     <g transform="translate(518.08 493.697187)scale(0.22 -0.22)">
      <defs>
       <path d="M 1081 4666 
L 3756 4666 
L 3653 4134 
L 1606 4134 
L 1338 2759 
L 3188 2759 
L 3084 2228 
L 1234 2228 
L 800 0 
L 172 0 
L 1081 4666 
z
" id="DejaVuSans-Oblique-46" transform="scale(0.015625)"/>
       <path d="M 1081 4666 
L 2541 4666 
Q 3178 4666 3512 4369 
Q 3847 4072 3847 3500 
Q 3847 2731 3353 2303 
Q 2859 1875 1966 1875 
L 1172 1875 
L 806 0 
L 172 0 
L 1081 4666 
z
M 1613 4147 
L 1275 2394 
L 2069 2394 
Q 2606 2394 2893 2669 
Q 3181 2944 3181 3456 
Q 3181 3784 2986 3965 
Q 2791 4147 2438 4147 
L 1613 4147 
z
" id="DejaVuSans-Oblique-50" transform="scale(0.015625)"/>
       <path d="M 1613 4147 
L 1294 2491 
L 2106 2491 
Q 2584 2491 2879 2755 
Q 3175 3019 3175 3444 
Q 3175 3784 2976 3965 
Q 2778 4147 2406 4147 
L 1613 4147 
z
M 2772 2241 
Q 2972 2194 3105 2009 
Q 3238 1825 3413 1275 
L 3809 0 
L 3144 0 
L 2778 1197 
Q 2638 1659 2453 1815 
Q 2269 1972 1888 1972 
L 1191 1972 
L 806 0 
L 172 0 
L 1081 4666 
L 2503 4666 
Q 3150 4666 3495 4373 
Q 3841 4081 3841 3531 
Q 3841 3044 3547 2687 
Q 3253 2331 2772 2241 
z
" id="DejaVuSans-Oblique-52" transform="scale(0.015625)"/>
       <path d="M 3438 1997 
L 3047 0 
L 2472 0 
L 2578 531 
Q 2325 219 2001 64 
Q 1678 -91 1281 -91 
Q 834 -91 548 182 
Q 263 456 263 884 
Q 263 1497 752 1853 
Q 1241 2209 2100 2209 
L 2900 2209 
L 2931 2363 
Q 2938 2388 2941 2417 
Q 2944 2447 2944 2509 
Q 2944 2788 2717 2942 
Q 2491 3097 2081 3097 
Q 1800 3097 1504 3025 
Q 1209 2953 897 2809 
L 997 3341 
Q 1322 3463 1633 3523 
Q 1944 3584 2234 3584 
Q 2853 3584 3176 3315 
Q 3500 3047 3500 2534 
Q 3500 2431 3484 2292 
Q 3469 2153 3438 1997 
z
M 2816 1759 
L 2241 1759 
Q 1534 1759 1195 1570 
Q 856 1381 856 984 
Q 856 709 1029 553 
Q 1203 397 1509 397 
Q 1978 397 2328 733 
Q 2678 1069 2791 1631 
L 2816 1759 
z
" id="DejaVuSans-Oblique-61" transform="scale(0.015625)"/>
       <path d="M 1172 4863 
L 1747 4863 
L 1606 4134 
L 1031 4134 
L 1172 4863 
z
M 909 3500 
L 1484 3500 
L 800 0 
L 225 0 
L 909 3500 
z
" id="DejaVuSans-Oblique-69" transform="scale(0.015625)"/>
       <path d="M 2853 2969 
Q 2766 3016 2653 3041 
Q 2541 3066 2413 3066 
Q 1953 3066 1609 2717 
Q 1266 2369 1153 1784 
L 800 0 
L 225 0 
L 909 3500 
L 1484 3500 
L 1375 2956 
Q 1603 3259 1920 3421 
Q 2238 3584 2597 3584 
Q 2691 3584 2781 3573 
Q 2872 3563 2963 3538 
L 2853 2969 
z
" id="DejaVuSans-Oblique-72" transform="scale(0.015625)"/>
      </defs>
      <use transform="translate(0 0.09375)" xlink:href="#DejaVuSans-Oblique-46"/>
      <use transform="translate(57.519531 0.09375)" xlink:href="#DejaVuSans-Oblique-50"/>
      <use transform="translate(117.822266 0.09375)" xlink:href="#DejaVuSans-Oblique-52"/>
      <use transform="translate(187.304688 -16.3125)scale(0.7)" xlink:href="#DejaVuSans-Oblique-46"/>
      <use transform="translate(227.568359 -16.3125)scale(0.7)" xlink:href="#DejaVuSans-Oblique-61"/>
      <use transform="translate(270.463867 -16.3125)scale(0.7)" xlink:href="#DejaVuSans-Oblique-69"/>
      <use transform="translate(289.912109 -16.3125)scale(0.7)" xlink:href="#DejaVuSans-Oblique-72"/>
     </g>
    </g>
   </g>
   <g id="matplotlib.axis_2">
    <g id="ytick_1">
     <g id="line2d_7">
      <defs>
       <path d="M 0 0 
L -3.5 0 
" id="md6ad70db4b" style="stroke:#000000;stroke-width:0.8;"/>
      </defs>
      <g>
       <use style="stroke:#000000;stroke-width:0.8;" x="135" xlink:href="#md6ad70db4b" y="448.56"/>
      </g>
     </g>
     <g id="text_8">
      <!-- 0.0 -->
      <g transform="translate(99.374375 455.398594)scale(0.18 -0.18)">
       <use xlink:href="#DejaVuSans-30"/>
       <use x="63.623047" xlink:href="#DejaVuSans-2e"/>
       <use x="95.410156" xlink:href="#DejaVuSans-30"/>
      </g>
     </g>
    </g>
    <g id="ytick_2">
     <g id="line2d_8">
      <g>
       <use style="stroke:#000000;stroke-width:0.8;" x="135" xlink:href="#md6ad70db4b" y="370.944"/>
      </g>
     </g>
     <g id="text_9">
      <!-- 0.2 -->
      <g transform="translate(99.374375 377.782594)scale(0.18 -0.18)">
       <use xlink:href="#DejaVuSans-30"/>
       <use x="63.623047" xlink:href="#DejaVuSans-2e"/>
       <use x="95.410156" xlink:href="#DejaVuSans-32"/>
      </g>
     </g>
    </g>
    <g id="ytick_3">
     <g id="line2d_9">
      <g>
       <use style="stroke:#000000;stroke-width:0.8;" x="135" xlink:href="#md6ad70db4b" y="293.328"/>
      </g>
     </g>
     <g id="text_10">
      <!-- 0.4 -->
      <g transform="translate(99.374375 300.166594)scale(0.18 -0.18)">
       <use xlink:href="#DejaVuSans-30"/>
       <use x="63.623047" xlink:href="#DejaVuSans-2e"/>
       <use x="95.410156" xlink:href="#DejaVuSans-34"/>
      </g>
     </g>
    </g>
    <g id="ytick_4">
     <g id="line2d_10">
      <g>
       <use style="stroke:#000000;stroke-width:0.8;" x="135" xlink:href="#md6ad70db4b" y="215.712"/>
      </g>
     </g>
     <g id="text_11">
      <!-- 0.6 -->
      <g transform="translate(99.374375 222.550594)scale(0.18 -0.18)">
       <use xlink:href="#DejaVuSans-30"/>
       <use x="63.623047" xlink:href="#DejaVuSans-2e"/>
       <use x="95.410156" xlink:href="#DejaVuSans-36"/>
      </g>
     </g>
    </g>
    <g id="ytick_5">
     <g id="line2d_11">
      <g>
       <use style="stroke:#000000;stroke-width:0.8;" x="135" xlink:href="#md6ad70db4b" y="138.096"/>
      </g>
     </g>
     <g id="text_12">
      <!-- 0.8 -->
      <g transform="translate(99.374375 144.934594)scale(0.18 -0.18)">
       <use xlink:href="#DejaVuSans-30"/>
       <use x="63.623047" xlink:href="#DejaVuSans-2e"/>
       <use x="95.410156" xlink:href="#DejaVuSans-38"/>
      </g>
     </g>
    </g>
    <g id="ytick_6">
     <g id="line2d_12">
      <g>
       <use style="stroke:#000000;stroke-width:0.8;" x="135" xlink:href="#md6ad70db4b" y="60.48"/>
      </g>
     </g>
     <g id="text_13">
      <!-- 1.0 -->
      <g transform="translate(99.374375 67.318594)scale(0.18 -0.18)">
       <use xlink:href="#DejaVuSans-31"/>
       <use x="63.623047" xlink:href="#DejaVuSans-2e"/>
       <use x="95.410156" xlink:href="#DejaVuSans-30"/>
      </g>
     </g>
    </g>
    <g id="text_14">
     <!-- $TPR_{Fair}$ -->
     <g transform="translate(90.799062 290.27)rotate(-90)scale(0.22 -0.22)">
      <defs>
       <path d="M 378 4666 
L 4325 4666 
L 4225 4134 
L 2559 4134 
L 1759 0 
L 1125 0 
L 1925 4134 
L 275 4134 
L 378 4666 
z
" id="DejaVuSans-Oblique-54" transform="scale(0.015625)"/>
      </defs>
      <use transform="translate(0 0.09375)" xlink:href="#DejaVuSans-Oblique-54"/>
      <use transform="translate(61.083984 0.09375)" xlink:href="#DejaVuSans-Oblique-50"/>
      <use transform="translate(121.386719 0.09375)" xlink:href="#DejaVuSans-Oblique-52"/>
      <use transform="translate(190.869141 -16.3125)scale(0.7)" xlink:href="#DejaVuSans-Oblique-46"/>
      <use transform="translate(231.132812 -16.3125)scale(0.7)" xlink:href="#DejaVuSans-Oblique-61"/>
      <use transform="translate(274.02832 -16.3125)scale(0.7)" xlink:href="#DejaVuSans-Oblique-69"/>
      <use transform="translate(293.476562 -16.3125)scale(0.7)" xlink:href="#DejaVuSans-Oblique-72"/>
     </g>
    </g>
   </g>
   <g id="line2d_13">
    <path clip-path="url(#pcaaad70cca)" d="M 135 448.56 
L 972 60.48 
" style="fill:none;stroke:#ff0000;stroke-dasharray:5.55,2.4;stroke-dashoffset:0;stroke-width:1.5;"/>
   </g>
   <g id="line2d_14">
    <path clip-path="url(#pcaaad70cca)" d="M 972 60.48 
L 897.835443 62.345769 
L 880.166144 62.373073 
L 854.972644 64.266146 
L 833.756757 64.303448 
L 820.943787 66.243564 
L 800.245665 71.950345 
L 787.053824 71.950345 
L 772.714286 73.928317 
L 772.154494 74.0628 
L 768.02521 74.131055 
L 766.256983 74.2 
L 761.581006 76.081206 
L 756.905028 85.332414 
L 749.891061 87.244138 
L 746.292135 89.297822 
L 736.88764 94.555317 
L 726.911602 96.44839 
L 723.914127 99.850435 
L 722.532033 100.234537 
L 718.575 105.474783 
L 715.537604 106.136471 
L 715.537604 106.361379 
L 708.543175 109.941176 
L 707.807263 115.112621 
L 701.620787 116.996505 
L 694.554318 119.165268 
L 689.103352 119.743448 
L 685.90678 120.036832 
L 685.096317 122.5728 
L 682.725212 129.642772 
L 678.568966 130.685427 
L 674.453757 132.867979 
L 673.591304 135.657801 
L 672.723837 139.765161 
L 670.973684 143.64 
L 665.840708 145.033743 
L 660.902655 150.885 
L 660.902655 155.797895 
L 656.894118 160.476074 
L 654.432353 169.241274 
L 652.553254 173.148387 
L 650.651786 174.913846 
L 649.692537 177.401538 
L 648.727545 177.401538 
L 646.78012 180.833924 
L 644.809091 182.517736 
L 642.272727 184.1805 
L 638.726444 184.1805 
L 635.659509 185.822609 
L 632.049231 189.04638 
L 628.416667 192.192 
L 624.121875 194.544 
L 621.083851 198.412048 
L 616.596923 199.90994 
L 614.396285 201.39 
L 612.916667 205.726316 
L 611.446154 207.13814 
L 610.333333 209.394419 
L 610.333333 211.650698 
L 609.213622 212.534737 
L 608.086957 212.534737 
L 606.622291 216.604138 
L 602.888199 217.50659 
L 599.130841 220.1472 
L 597.965625 220.1472 
L 596.793103 220.1472 
L 593.915888 222.728136 
L 591.545455 222.728136 
L 589.14511 223.996854 
L 589.14511 225.251397 
L 589.14511 226.177079 
L 589.14511 228.648 
L 587.933544 229.862983 
L 584.252396 229.862983 
L 582.821656 229.862983 
L 581.578275 229.862983 
L 580.326923 232.253115 
L 579.067524 235.537826 
L 577.8 237.828387 
L 576.524272 239.756087 
L 572.4 243.105882 
L 572.4 244.087742 
L 572.4 245.080216 
L 572.4 245.080216 
L 569.805195 248.260645 
L 565.84918 253.493333 
L 561.81457 255.546667 
L 561.81457 255.546667 
L 560.405941 257.567749 
L 557.643564 258.5625 
L 557.643564 261.55772 
L 557.643564 262.605 
L 552.109635 264.62625 
L 549.301003 265.695079 
L 545.13 267.726911 
L 545.13 267.726911 
L 540.90301 271.611606 
L 540.90301 272.523711 
L 539.456376 273.622383 
L 538.103679 275.416615 
" style="fill:none;stroke:#1f77b4;stroke-linecap:square;stroke-width:1.5;"/>
   </g>
   <g id="line2d_15">
    <path clip-path="url(#pcaaad70cca)" d="M 972 60.48 
L 958.515535 61.326258 
L 948.658947 62.207956 
L 942.113196 62.980515 
L 935.481084 63.592109 
L 929.299953 64.468934 
L 922.681723 65.401567 
L 917.901633 66.194893 
L 911.799191 66.806862 
L 906.689706 67.560415 
L 901.182566 68.123517 
L 897.703033 68.776832 
L 894.665084 69.158947 
L 891.93021 69.916294 
L 888.077044 70.50061 
L 885.079224 71.08685 
L 882.440885 71.588243 
L 879.880816 72.19994 
L 877.428661 72.875048 
L 874.993786 73.537666 
L 872.548643 74.116855 
L 870.572243 74.713082 
L 868.085929 75.392042 
L 865.684016 75.993734 
L 863.513305 76.611497 
L 860.816239 77.151695 
L 857.387795 77.749812 
L 854.177221 78.277198 
L 852.437228 79.031077 
L 850.211387 79.771776 
L 847.223358 80.476948 
L 844.971277 80.939178 
L 842.731442 81.530049 
L 840.067363 82.120951 
L 836.799017 83.26372 
L 834.493304 84.128879 
L 832.647063 84.784219 
L 830.034889 85.587695 
L 828.225921 86.350179 
L 826.271183 87.11079 
L 823.970498 87.527833 
L 821.736243 87.918609 
L 819.612467 88.444264 
L 817.209216 89.203162 
L 813.318072 89.613641 
L 810.840131 89.987046 
L 809.034958 90.223358 
L 806.960533 90.775277 
L 804.998098 91.130372 
L 802.760293 91.583409 
L 800.742178 92.311407 
L 799.036614 93.013989 
L 796.656328 93.688612 
L 794.14687 94.264001 
L 791.611479 94.751342 
L 789.839941 95.113884 
L 788.231138 95.7112 
L 786.456413 96.09431 
L 784.561816 96.537648 
L 782.501176 97.013185 
L 780.748291 97.546852 
L 778.988283 98.053562 
L 776.561999 98.889677 
L 774.518519 99.703881 
L 772.133408 100.47091 
L 770.225806 101.135184 
L 768.077956 101.733498 
L 766.161087 102.974889 
L 764.060235 103.441097 
L 762.119617 104.070979 
L 760.159765 104.746809 
L 757.991764 105.579561 
L 755.657736 106.295199 
L 753.162133 107.02779 
L 751.49306 108.090671 
L 748.998359 108.903989 
L 747.054336 109.703541 
L 744.825276 110.236056 
L 742.108317 110.851622 
L 739.655 111.318163 
L 737.048536 111.955 
L 734.106746 112.587338 
L 730.556189 113.274112 
L 727.835682 113.765147 
L 725.721246 114.511698 
L 723.634878 115.65999 
L 721.579189 116.448354 
L 719.254101 116.999034 
L 717.355648 117.791882 
L 715.472521 118.455631 
L 713.390132 118.966976 
L 711.347372 119.658416 
L 709.217114 120.054579 
L 706.746551 120.433965 
L 704.831851 120.812256 
L 702.289832 121.367353 
L 699.939467 121.718742 
L 697.952166 122.203983 
L 696.176204 122.488083 
L 693.818844 123.245519 
L 691.440866 124.034917 
" style="fill:none;stroke:#ff7f0e;stroke-linecap:square;stroke-width:1.5;"/>
   </g>
   <g id="line2d_16">
    <path clip-path="url(#pcaaad70cca)" d="M 972 60.48 
L 758.584375 94.682806 
L 662.195931 123.886158 
L 598.599667 149.57963 
L 550.787623 171.562829 
L 514.805902 188.842474 
L 488.574153 202.968169 
L 469.049327 216.874743 
L 453.342809 228.940752 
L 439.139368 239.820398 
L 427.635888 248.529231 
L 416.902963 255.607336 
L 407.403274 262.143086 
L 398.7074 269.064816 
L 388.943433 275.599427 
L 380.755635 282.075715 
L 373.404284 288.428022 
L 367.454447 293.032882 
L 360.707414 297.914475 
L 354.631319 302.994902 
L 349.111783 308.213902 
L 344.3357 313.239878 
L 339.287919 316.461168 
L 334.640546 319.310375 
L 330.449004 322.743945 
L 326.630081 325.352128 
L 323.128146 327.872763 
L 319.414817 330.298429 
L 316.144377 332.872286 
L 312.948662 335.252936 
L 309.318586 337.76811 
L 305.775404 340.20518 
L 302.327321 342.528757 
L 299.407798 344.512706 
L 296.3529 346.882309 
L 293.347896 348.934479 
L 290.32904 350.962059 
L 287.679665 353.000265 
L 285.063716 355.078351 
L 282.515945 357.062392 
L 280.362624 358.430042 
L 278.097854 359.648381 
L 275.921019 360.779338 
L 273.8304 361.984293 
L 271.540492 363.187296 
L 269.366915 364.277959 
L 267.194586 365.199421 
L 264.992565 366.27688 
L 262.947768 367.538918 
L 261.256959 368.784987 
L 259.604868 369.820241 
L 257.889959 371.110234 
L 255.906198 372.233948 
L 254.156154 373.295851 
L 252.455816 374.182471 
L 250.821488 374.958203 
L 249.348285 375.801005 
L 247.819524 376.550315 
L 246.233887 377.265045 
L 244.961029 378.127803 
L 243.70718 379.037213 
L 242.126881 379.877752 
L 240.809085 380.818427 
L 239.418393 381.77393 
L 238.110588 382.706296 
L 236.69086 383.61906 
L 235.383096 384.32818 
L 234.204766 385.386197 
L 232.795224 386.120217 
L 231.61421 387.022636 
L 230.64118 387.686783 
L 229.418839 388.501749 
L 228.34975 389.201201 
L 227.217598 389.784398 
L 226.222418 390.311134 
L 225.127754 390.836989 
L 224.047294 391.437727 
L 223.197402 392.019738 
L 222.297942 392.644767 
L 221.199164 393.134134 
L 220.154933 393.653969 
L 219.128511 394.199891 
L 218.119035 394.705822 
L 216.953297 395.301291 
L 216.040883 395.862962 
L 215.044499 396.393111 
L 214.047362 396.926152 
L 213.07968 397.450751 
L 212.214109 398.07099 
L 211.29981 398.556116 
L 210.243567 399.087581 
L 209.38345 399.510071 
L 208.454805 399.829643 
L 207.484426 400.155208 
L 206.661353 400.524911 
L 205.795601 400.988903 
L 204.947657 401.35941 
L 203.983641 401.734283 
L 203.185761 402.051292 
L 202.279844 402.534903 
L 201.388329 403.010379 
" style="fill:none;stroke:#2ca02c;stroke-linecap:square;stroke-width:1.5;"/>
   </g>
   <g id="line2d_17">
    <path clip-path="url(#pcaaad70cca)" d="M 972 60.48 
L 960.405448 61.326258 
L 951.89993 62.207956 
L 946.231915 62.980515 
L 940.482191 63.592109 
L 935.110127 64.468934 
L 929.334772 65.401567 
L 925.165937 66.194893 
L 919.828076 66.806862 
L 915.343951 67.560415 
L 910.481113 68.123517 
L 907.399824 68.776832 
L 904.739749 69.158947 
L 902.295477 69.916294 
L 898.862143 70.50061 
L 896.218515 71.08685 
L 893.855176 71.588243 
L 891.554214 72.19994 
L 889.392955 72.875048 
L 887.243092 73.537666 
L 885.056291 74.116855 
L 883.256962 74.713082 
L 881.067947 75.392042 
L 878.942042 75.993734 
L 877.007892 76.611497 
L 874.593691 77.151695 
L 871.534686 77.749812 
L 868.598723 78.277198 
L 866.989126 79.031077 
L 865.009007 79.771776 
L 862.365999 80.476948 
L 860.363977 80.939178 
L 858.315882 81.530049 
L 855.883446 82.120951 
L 852.969264 83.26372 
L 850.892271 84.128879 
L 849.207418 84.784219 
L 846.831746 85.587695 
L 845.173334 86.350179 
L 843.408257 87.11079 
L 841.336976 87.527833 
L 839.396948 87.918609 
L 837.475009 88.444264 
L 835.27203 89.203162 
L 831.704281 89.613641 
L 829.420105 89.987046 
L 827.787751 90.223358 
L 825.853436 90.775277 
L 824.076324 91.130372 
L 821.972256 91.583409 
L 820.14751 92.311407 
L 818.514139 93.013989 
L 816.333645 93.688612 
L 814.075472 94.264001 
L 811.667757 94.751342 
L 810.071068 95.113884 
L 808.577797 95.7112 
L 806.941172 96.09431 
L 805.210131 96.537648 
L 803.298445 97.013185 
L 801.731795 97.546852 
L 800.171429 98.053562 
L 797.977219 98.889677 
L 796.152683 99.703881 
L 794.020197 100.47091 
L 792.208623 101.135184 
L 790.235815 101.733498 
L 788.470892 102.974889 
L 786.490244 103.441097 
L 784.70578 104.070979 
L 782.894825 104.746809 
L 780.792833 105.579561 
L 778.639213 106.295199 
L 776.359619 107.02779 
L 774.691128 108.090671 
L 772.346744 108.903989 
L 770.400885 109.703541 
L 768.369995 110.236056 
L 765.775593 110.851622 
L 763.462977 111.318163 
L 760.985136 111.955 
L 758.22321 112.587338 
L 754.856759 113.274112 
L 752.369729 113.765147 
L 750.43072 114.511698 
L 748.513846 115.65999 
L 746.565315 116.448354 
L 744.305911 116.999034 
L 742.52347 117.791882 
L 740.795842 118.455631 
L 738.826797 118.966976 
L 736.872719 119.658416 
L 734.793222 120.054579 
L 732.38882 120.433965 
L 730.538998 120.812256 
L 728.150791 121.367353 
L 725.787923 121.718742 
L 723.743732 122.203983 
L 722.061439 122.488083 
L 719.871216 123.245519 
L 717.505714 124.034917 
" style="fill:none;stroke:#d62728;stroke-linecap:square;stroke-width:1.5;"/>
   </g>
   <g id="line2d_18">
    <path clip-path="url(#pcaaad70cca)" d="M 972 60.48 
L 838.831481 78.827953 
L 767.166143 95.021619 
L 714.221255 110.719814 
L 671.996681 125.60075 
L 638.092054 138.016148 
L 612.915117 148.655314 
L 592.186228 159.435514 
L 574.699007 169.546566 
L 560.311994 178.685421 
L 547.612435 186.559214 
L 536.190667 192.547323 
L 525.352497 198.329774 
L 514.764256 204.761505 
L 503.774853 210.590396 
L 494.382793 216.599368 
L 485.658878 222.640207 
L 478.046724 227.105516 
L 470.025389 231.97568 
L 462.861239 237.19956 
L 456.358575 242.544774 
L 450.738313 247.907966 
L 444.7692 251.573933 
L 439.040022 254.576637 
L 433.653121 258.356989 
L 428.926172 261.368795 
L 424.491616 264.318625 
L 419.972417 267.493605 
L 415.642377 270.579579 
L 411.674839 273.532753 
L 407.085964 276.478993 
L 402.38408 279.283735 
L 398.064395 282.07426 
L 394.186808 284.589213 
L 390.075381 287.359436 
L 385.964746 289.766692 
L 381.780654 292.249664 
L 378.263735 294.858322 
L 374.729067 297.480842 
L 371.441436 299.679724 
L 368.374511 301.254104 
L 365.220011 302.763398 
L 362.157123 304.234628 
L 359.245519 305.860391 
L 356.172391 307.427659 
L 353.12069 308.775714 
L 350.279314 310.004674 
L 347.207281 311.494201 
L 344.390308 313.112815 
L 341.873747 314.80902 
L 339.301905 316.362843 
L 336.77093 318.169894 
L 333.910234 319.805177 
L 331.15 321.230079 
L 328.776762 322.576173 
L 326.531475 323.69625 
L 324.368309 324.900332 
L 322.04214 325.944144 
L 319.716563 327.074087 
L 317.804367 328.240356 
L 315.693156 329.535002 
L 313.451641 330.718582 
L 311.494028 332.012514 
L 309.26125 333.391256 
L 307.217266 334.73475 
L 305.047153 336.084938 
L 303.032096 337.152284 
L 301.083167 338.679667 
L 299.060278 339.677598 
L 297.344232 340.80532 
L 295.620354 341.767936 
L 293.665718 342.927891 
L 292.00959 343.958184 
L 290.244136 344.820664 
L 288.585709 345.692832 
L 286.853081 346.521724 
L 285.082759 347.370238 
L 283.617925 348.212695 
L 281.884297 349.049614 
L 280.091691 349.794363 
L 278.380539 350.53515 
L 276.666968 351.333281 
L 275.166589 352.088426 
L 273.450613 353.012967 
L 271.99837 353.890668 
L 270.544538 354.686754 
L 268.879231 355.566332 
L 267.237552 356.433298 
L 265.882674 357.375046 
L 264.447601 358.165237 
L 263.013085 358.983032 
L 261.799187 359.680661 
L 260.384726 360.197318 
L 258.799425 360.740415 
L 257.556665 361.282443 
L 256.021125 361.919181 
L 254.618774 362.532022 
L 253.095782 363.087642 
L 251.813681 363.652704 
L 250.467905 364.38955 
L 249.105591 365.112868 
" style="fill:none;stroke:#9467bd;stroke-linecap:square;stroke-width:1.5;"/>
   </g>
   <g id="line2d_19">
    <path clip-path="url(#pcaaad70cca)" d="M 972 60.48 
L 966.525269 60.673967 
L 963.148061 60.798098 
L 960.605917 60.923915 
L 958.222222 60.951785 
L 955.398444 61.07939 
L 952.967899 61.30907 
L 950.430881 61.490362 
L 947.862042 61.62343 
L 944.588637 61.680537 
L 940.498396 61.712081 
L 937.96879 61.823374 
L 936.683036 61.908388 
L 935.194799 62.021555 
L 932.375091 62.112469 
L 930.760613 62.256413 
L 929.831573 62.403701 
L 928.572809 62.496209 
L 927.950666 62.672237 
L 927.128078 62.688718 
L 926.257788 62.875216 
L 925.450336 62.924074 
L 924.178774 62.964829 
L 923.214413 63.060655 
L 922.062933 63.130935 
L 920.723026 63.281102 
L 918.07839 63.377179 
L 916.477283 63.445926 
L 915.938424 63.457742 
L 915.459509 63.527598 
L 914.996136 63.682504 
L 914.521566 63.695892 
L 913.929149 63.738243 
L 913.449263 63.809404 
L 912.795019 63.912 
L 912.239278 64.0155 
L 911.413247 64.030865 
L 910.588325 64.107472 
L 910.021157 64.215561 
L 909.313064 64.297673 
L 908.760642 64.373779 
L 908.293058 64.412834 
L 907.621025 64.4827 
L 907.087083 64.613684 
L 906.586146 64.625372 
L 905.980147 64.69959 
L 905.435018 64.712262 
L 904.675261 64.817636 
L 903.979866 64.833165 
L 903.265714 64.908652 
L 902.728892 64.986776 
L 901.943421 65.126358 
L 901.197567 65.266476 
L 900.220764 65.341586 
L 899.029124 65.508979 
L 898.501013 65.553147 
L 897.862227 65.725178 
L 897.206349 65.800069 
L 896.660087 65.843991 
L 896.052773 65.952189 
L 895.353183 65.968387 
L 894.726768 65.983773 
L 893.892465 66.093191 
L 893.032883 66.144462 
L 892.289827 66.319914 
L 891.572795 66.339888 
L 890.949067 66.352626 
L 890.110923 66.467483 
L 889.431201 66.484097 
L 888.802057 66.599484 
L 888.083207 66.650419 
L 887.307366 66.669789 
L 886.52071 66.751067 
L 885.770351 66.827875 
L 885.109036 66.872919 
L 884.412423 66.887686 
L 883.646329 66.904174 
L 882.949358 66.989169 
L 882.328264 67.104695 
L 881.497867 67.220178 
L 880.706818 67.239452 
L 879.598176 67.321532 
L 878.967149 67.371393 
L 878.171714 67.425731 
L 877.332138 67.443361 
L 876.48104 67.562 
L 875.599077 67.713424 
L 874.531258 67.770619 
L 873.857566 67.798375 
L 872.733715 67.917253 
L 871.656363 68.020235 
L 870.944605 68.105042 
L 870.214177 68.122789 
L 869.127894 68.214425 
L 868.210276 68.268843 
L 866.913619 68.395711 
L 865.939909 68.415765 
L 864.93545 68.575266 
L 864.085953 68.596614 
L 863.044726 68.658677 
L 861.969187 68.788392 
" style="fill:none;stroke:#8c564b;stroke-linecap:square;stroke-width:1.5;"/>
   </g>
   <g id="line2d_20">
    <path clip-path="url(#pcaaad70cca)" d="M 972 60.48 
L 862.957728 73.839597 
L 800.534571 85.806857 
L 753.61322 97.822202 
L 715.666765 109.291492 
L 684.294922 119.170294 
L 660.386242 127.54558 
L 641.108367 136.500031 
L 625.295837 144.978397 
L 612.052709 152.453499 
L 600.531597 159.234042 
L 589.898889 164.073278 
L 579.879241 169.008203 
L 569.891003 174.586453 
L 559.477777 179.799361 
L 550.794151 185.182371 
L 542.598664 190.427023 
L 535.339389 194.487223 
L 527.52139 198.724972 
L 520.469167 203.465717 
L 514.183009 208.382448 
L 508.69535 213.457007 
L 502.899114 216.947701 
L 497.505228 219.835292 
L 492.33091 223.512488 
L 487.649016 226.531502 
L 483.332785 229.43481 
L 478.854972 232.434146 
L 474.527218 235.466721 
L 470.505081 238.300073 
L 465.850569 241.143883 
L 461.172188 244.132054 
L 456.654924 246.958077 
L 452.735279 249.462284 
L 448.467152 252.21198 
L 444.238451 254.746947 
L 439.874777 257.293023 
L 436.133251 259.878427 
L 432.545225 262.429102 
L 428.995812 264.695732 
L 425.506832 266.348302 
L 422.107772 267.995 
L 418.846154 269.50827 
L 415.601687 271.212349 
L 412.290451 272.876973 
L 409.09606 274.373998 
L 406.087686 275.748981 
L 402.855414 277.378565 
L 399.893174 279.216 
L 397.212897 281.105719 
L 394.519527 282.806014 
L 391.858927 284.860463 
L 388.766862 286.674569 
L 385.80922 288.230764 
L 383.205939 289.774453 
L 380.849792 291.012396 
L 378.437465 292.345156 
L 375.876743 293.517142 
L 373.27525 294.835279 
L 371.082597 296.145335 
L 368.712382 297.618596 
L 366.217419 298.887177 
L 364.047266 300.417009 
L 361.389576 301.993947 
L 359.189771 303.508822 
L 356.878901 305.034441 
L 354.623731 306.249449 
L 352.299544 307.919928 
L 350.002185 309.002342 
L 347.961282 310.174372 
L 345.921916 311.182044 
L 343.664534 312.517497 
L 341.749263 313.732106 
L 339.632166 314.768759 
L 337.686161 315.787357 
L 335.608645 316.739998 
L 333.585388 317.702459 
L 331.788382 318.694502 
L 329.748267 319.682041 
L 327.734343 320.54087 
L 325.660787 321.407774 
L 323.656602 322.373527 
L 321.830926 323.266791 
L 319.936375 324.347995 
L 318.120896 325.429499 
L 316.330957 326.417836 
L 314.319391 327.454563 
L 312.172563 328.438929 
L 310.514958 329.551387 
L 308.824213 330.455794 
L 307.084427 331.51202 
L 305.456902 332.362569 
L 303.78527 333.015335 
L 301.856494 333.680488 
L 300.284129 334.265361 
L 298.385631 335.002541 
L 296.702391 335.681901 
L 294.795809 336.336963 
L 293.218839 337.028538 
L 291.582826 337.874555 
L 289.858806 338.730077 
" style="fill:none;stroke:#e377c2;stroke-linecap:square;stroke-width:1.5;"/>
   </g>
   <g id="line2d_21">
    <path clip-path="url(#pcaaad70cca)" d="M 972 60.48 
L 923.374679 67.339475 
L 891.882117 73.583665 
L 866.43559 80.168733 
L 843.365196 86.54564 
L 824.851142 92.324256 
L 809.106274 97.662949 
L 794.506 103.185961 
L 781.589544 108.172228 
L 769.365694 113.496262 
L 758.491701 117.995422 
L 749.116245 121.407966 
L 740.411765 124.98273 
L 731.807285 129.039312 
L 721.540639 132.807723 
L 712.625603 136.41275 
L 704.684987 140.065902 
L 698 142.915143 
L 690.402749 146.076035 
L 683.372489 149.683223 
L 676.713781 153.441257 
L 670.660375 157.145954 
L 663.976182 159.928201 
L 658.299748 162.389241 
L 652.582598 165.459662 
L 647.380471 167.8952 
L 642.418983 170.080493 
L 637.097368 172.462067 
L 632.255939 175.171145 
L 627.634833 177.780955 
L 622.252207 180.517347 
L 617.083289 183.057865 
L 612.049424 185.649678 
L 607.350057 187.962517 
L 602.305263 190.744765 
L 597.30237 192.822609 
L 592.271246 195.218221 
L 587.479832 197.723688 
L 582.982388 200.124905 
L 578.581336 202.134025 
L 574.443644 203.548361 
L 570.683732 205.139 
L 567.102182 206.669682 
L 563.222461 208.475559 
L 558.86836 210.169177 
L 554.735516 211.747687 
L 551.046676 213.075954 
L 547.19297 214.790863 
L 543.520658 216.637498 
L 540.037805 218.614325 
L 536.504842 220.419533 
L 532.960973 222.458262 
L 528.851542 224.245738 
L 524.804 225.92265 
L 521.340818 227.591356 
L 518.286706 228.785617 
L 515.292275 230.141244 
L 511.85155 231.320415 
L 508.24223 232.661412 
L 505.2635 234.093716 
L 502.248524 235.541187 
L 499.112049 236.781898 
L 496.203437 238.389957 
L 492.827335 240.046243 
L 489.790169 241.801667 
L 486.691265 243.470316 
L 483.639843 244.767687 
L 480.744793 246.686609 
L 477.767034 247.915057 
L 474.986072 249.3138 
L 472.169884 250.532433 
L 469.190198 252.153995 
L 466.664753 253.575967 
L 463.77855 254.766441 
L 461.302757 256.073047 
L 458.492104 257.270287 
L 455.792483 258.398635 
L 453.349577 259.564087 
L 450.626513 260.651542 
L 447.904396 261.688789 
L 445.010265 262.688979 
L 442.092753 263.842096 
L 439.436248 264.800734 
L 436.762548 266.074308 
L 434.139193 267.393901 
L 431.582786 268.601925 
L 428.901591 269.88709 
L 425.955239 271.147041 
L 423.587805 272.507486 
L 421.197222 273.694117 
L 418.816883 274.930795 
L 416.6753 275.903021 
L 414.338294 276.683794 
L 411.640288 277.513352 
L 409.506453 278.258619 
L 406.831165 279.143675 
L 404.351024 279.975512 
L 401.867782 280.760375 
L 399.678629 281.586317 
L 397.460362 282.600969 
L 394.976107 283.636075 
" style="fill:none;stroke:#7f7f7f;stroke-linecap:square;stroke-width:1.5;"/>
   </g>
   <g id="line2d_22">
    <path clip-path="url(#pcaaad70cca)" d="M 972 60.48 
L 893.854249 69.334117 
L 848.616584 77.698995 
L 811.806132 86.557791 
L 780.974096 94.936609 
L 755.510559 102.265871 
L 735.571619 108.736083 
L 718.38368 115.644014 
L 703.984919 122.224697 
L 691.718394 128.49192 
L 680.800223 133.914441 
L 670.68761 138.01602 
L 660.89147 142.234403 
L 651.228914 147.066803 
L 640.775126 151.401352 
L 632.061578 155.891874 
L 624.144093 160.309233 
L 617.225815 163.622209 
L 609.28133 167.244275 
L 601.949656 171.267025 
L 595.347491 175.500697 
L 589.825091 179.946627 
L 583.756604 182.943731 
L 578.136572 185.694853 
L 572.634174 188.992738 
L 567.772061 191.811213 
L 563.174041 194.467403 
L 558.415228 197.379142 
L 553.876316 200.254409 
L 549.555768 202.922598 
L 544.619843 205.703067 
L 539.568 208.579698 
L 534.807247 211.263409 
L 530.593811 213.746313 
L 526.107705 216.572127 
L 521.563028 218.97802 
L 516.75631 221.425005 
L 512.477047 224.007408 
L 508.607536 226.509365 
L 504.724103 228.645543 
L 500.998162 230.188015 
L 497.371108 231.77515 
L 493.91006 233.416831 
L 490.333906 235.153088 
L 486.657936 236.832539 
L 483.101905 238.384363 
L 479.714813 239.723065 
L 476.119237 241.388404 
L 472.90298 243.234902 
L 469.924089 245.159462 
L 466.770551 246.920705 
L 463.824707 248.931801 
L 460.283425 250.743423 
L 456.916031 252.423385 
L 453.975937 254.058651 
L 451.357084 255.353812 
L 448.617655 256.765735 
L 445.668169 257.964497 
L 442.667876 259.301463 
L 440.176933 260.667653 
L 437.503461 262.200386 
L 434.653434 263.549355 
L 432.151532 265.12886 
L 429.083544 266.767828 
L 426.476104 268.434636 
L 423.781746 270.113078 
L 421.135356 271.469641 
L 418.453015 273.278478 
L 415.722738 274.427866 
L 413.393132 275.678343 
L 411.025619 276.827807 
L 408.453386 278.300683 
L 406.203018 279.591706 
L 403.67509 280.760534 
L 401.429837 281.915156 
L 398.89925 282.961944 
L 396.603717 284.019117 
L 394.460678 285.116026 
L 392.132944 286.295259 
L 389.799397 287.301282 
L 387.351084 288.2891 
L 384.963493 289.385915 
L 382.772657 290.35385 
L 380.467435 291.619725 
L 378.257087 292.861543 
L 376.161049 294.034487 
L 373.874412 295.250979 
L 371.276663 296.376071 
L 369.210576 297.617321 
L 367.151662 298.698135 
L 365.09812 299.854826 
L 363.209044 300.817389 
L 361.190576 301.571093 
L 358.900324 302.338791 
L 356.9484 302.997824 
L 354.556133 303.839391 
L 352.385342 304.626028 
L 350.130904 305.383064 
L 348.119073 306.16829 
L 346.055329 307.102767 
L 343.964254 308.055787 
" style="fill:none;stroke:#bcbd22;stroke-linecap:square;stroke-width:1.5;"/>
   </g>
   <g id="line2d_23">
    <path clip-path="url(#pcaaad70cca)" d="M 972 60.48 
L 970.807744 60.48 
L 970.324835 60.48 
L 969.763405 60.503966 
L 969.268566 60.50413 
L 969.024529 60.528549 
L 968.592081 60.60213 
L 968.307298 60.602841 
L 967.979791 60.628358 
L 967.909801 60.629147 
L 967.805765 60.629876 
L 967.7375 60.630877 
L 967.588367 60.656952 
L 967.476526 60.708911 
L 967.280373 60.736328 
L 967.201147 60.764024 
L 967.002263 60.844321 
L 966.723852 60.872794 
L 966.640385 60.928251 
L 966.603455 60.931657 
L 966.477303 61.016652 
L 966.352791 61.021444 
L 966.303826 61.02433 
L 966.084956 61.081632 
L 966.037973 61.112545 
L 965.87161 61.142488 
L 965.656787 61.172852 
L 965.522485 61.175783 
L 965.467145 61.178538 
L 965.421349 61.209685 
L 965.368522 61.296773 
L 965.313758 61.300226 
L 965.213637 61.303648 
L 965.115267 61.33543 
L 965.054326 61.368055 
L 964.95266 61.400917 
L 964.794632 61.404826 
L 964.650824 61.438437 
L 964.599258 61.472607 
L 964.449494 61.478617 
L 964.350859 61.541859 
L 964.284814 61.573766 
L 964.224025 61.606072 
L 964.165521 61.638625 
L 964.1 61.642005 
L 964.03769 61.705547 
L 963.972441 61.70924 
L 963.852893 61.743223 
L 963.73027 61.747643 
L 963.660232 61.781977 
L 963.540678 61.847549 
L 963.415928 61.883103 
L 963.330861 61.918694 
L 963.144 61.983948 
L 962.908683 62.018291 
L 962.833563 62.052922 
L 962.700615 62.150758 
L 962.56162 62.15463 
L 962.486077 62.189877 
L 962.411916 62.225581 
L 962.334609 62.230643 
L 962.189603 62.235593 
L 962.054409 62.302857 
L 961.902223 62.309227 
L 961.755129 62.377392 
L 961.658549 62.384064 
L 961.566148 62.38859 
L 961.355788 62.458209 
L 961.25033 62.463918 
L 961.165249 62.502086 
L 961.074737 62.540146 
L 960.973577 62.546488 
L 960.825609 62.616398 
L 960.728135 62.652574 
L 960.639469 62.656757 
L 960.471792 62.662421 
L 960.37135 62.668667 
L 960.278424 62.740469 
L 960.178343 62.811698 
L 960.07366 62.883278 
L 959.972966 62.89064 
L 959.732498 62.962176 
L 959.638366 62.96833 
L 959.527223 62.976012 
L 959.421459 62.982666 
L 959.312812 63.056048 
L 959.192426 63.195722 
L 959.054091 63.237827 
L 958.942391 63.249105 
L 958.759821 63.323077 
L 958.583688 63.370536 
L 958.483137 63.445305 
L 958.374944 63.452615 
L 958.162776 63.495811 
L 958.061488 63.503554 
L 957.774247 63.547145 
L 957.644295 63.55479 
L 957.442794 63.666093 
L 957.32414 63.67436 
L 957.203536 63.685833 
L 956.988719 63.730895 
" style="fill:none;stroke:#17becf;stroke-linecap:square;stroke-width:1.5;"/>
   </g>
   <g id="patch_3">
    <path d="M 135 448.56 
L 135 60.48 
" style="fill:none;stroke:#000000;stroke-linecap:square;stroke-linejoin:miter;stroke-width:0.8;"/>
   </g>
   <g id="patch_4">
    <path d="M 972 448.56 
L 972 60.48 
" style="fill:none;stroke:#000000;stroke-linecap:square;stroke-linejoin:miter;stroke-width:0.8;"/>
   </g>
   <g id="patch_5">
    <path d="M 135 448.56 
L 972 448.56 
" style="fill:none;stroke:#000000;stroke-linecap:square;stroke-linejoin:miter;stroke-width:0.8;"/>
   </g>
   <g id="patch_6">
    <path d="M 135 60.48 
L 972 60.48 
" style="fill:none;stroke:#000000;stroke-linecap:square;stroke-linejoin:miter;stroke-width:0.8;"/>
   </g>
   <g id="legend_1">
    <g id="patch_7">
     <path d="M 147.6 339.08625 
L 256.730625 339.08625 
Q 260.330625 339.08625 260.330625 335.48625 
L 260.330625 73.08 
Q 260.330625 69.48 256.730625 69.48 
L 147.6 69.48 
Q 144 69.48 144 73.08 
L 144 335.48625 
Q 144 339.08625 147.6 339.08625 
z
" style="fill:#ffffff;opacity:0.8;stroke:#cccccc;stroke-linejoin:miter;"/>
    </g>
    <g id="line2d_24">
     <path d="M 151.2 84.057188 
L 187.2 84.057188 
" style="fill:none;stroke:#1f77b4;stroke-linecap:square;stroke-width:1.5;"/>
    </g>
    <g id="line2d_25"/>
    <g id="text_15">
     <!-- 0.001 -->
     <g transform="translate(201.6 90.357188)scale(0.18 -0.18)">
      <use xlink:href="#DejaVuSans-30"/>
      <use x="63.623047" xlink:href="#DejaVuSans-2e"/>
      <use x="95.410156" xlink:href="#DejaVuSans-30"/>
      <use x="159.033203" xlink:href="#DejaVuSans-30"/>
      <use x="222.65625" xlink:href="#DejaVuSans-31"/>
     </g>
    </g>
    <g id="line2d_26">
     <path d="M 151.2 110.477812 
L 187.2 110.477812 
" style="fill:none;stroke:#ff7f0e;stroke-linecap:square;stroke-width:1.5;"/>
    </g>
    <g id="line2d_27"/>
    <g id="text_16">
     <!-- 0.011 -->
     <g transform="translate(201.6 116.777812)scale(0.18 -0.18)">
      <use xlink:href="#DejaVuSans-30"/>
      <use x="63.623047" xlink:href="#DejaVuSans-2e"/>
      <use x="95.410156" xlink:href="#DejaVuSans-30"/>
      <use x="159.033203" xlink:href="#DejaVuSans-31"/>
      <use x="222.65625" xlink:href="#DejaVuSans-31"/>
     </g>
    </g>
    <g id="line2d_28">
     <path d="M 151.2 136.898438 
L 187.2 136.898438 
" style="fill:none;stroke:#2ca02c;stroke-linecap:square;stroke-width:1.5;"/>
    </g>
    <g id="line2d_29"/>
    <g id="text_17">
     <!-- 0.021 -->
     <g transform="translate(201.6 143.198438)scale(0.18 -0.18)">
      <use xlink:href="#DejaVuSans-30"/>
      <use x="63.623047" xlink:href="#DejaVuSans-2e"/>
      <use x="95.410156" xlink:href="#DejaVuSans-30"/>
      <use x="159.033203" xlink:href="#DejaVuSans-32"/>
      <use x="222.65625" xlink:href="#DejaVuSans-31"/>
     </g>
    </g>
    <g id="line2d_30">
     <path d="M 151.2 163.319062 
L 187.2 163.319062 
" style="fill:none;stroke:#d62728;stroke-linecap:square;stroke-width:1.5;"/>
    </g>
    <g id="line2d_31"/>
    <g id="text_18">
     <!-- 0.031 -->
     <g transform="translate(201.6 169.619062)scale(0.18 -0.18)">
      <defs>
       <path d="M 2597 2516 
Q 3050 2419 3304 2112 
Q 3559 1806 3559 1356 
Q 3559 666 3084 287 
Q 2609 -91 1734 -91 
Q 1441 -91 1130 -33 
Q 819 25 488 141 
L 488 750 
Q 750 597 1062 519 
Q 1375 441 1716 441 
Q 2309 441 2620 675 
Q 2931 909 2931 1356 
Q 2931 1769 2642 2001 
Q 2353 2234 1838 2234 
L 1294 2234 
L 1294 2753 
L 1863 2753 
Q 2328 2753 2575 2939 
Q 2822 3125 2822 3475 
Q 2822 3834 2567 4026 
Q 2313 4219 1838 4219 
Q 1578 4219 1281 4162 
Q 984 4106 628 3988 
L 628 4550 
Q 988 4650 1302 4700 
Q 1616 4750 1894 4750 
Q 2613 4750 3031 4423 
Q 3450 4097 3450 3541 
Q 3450 3153 3228 2886 
Q 3006 2619 2597 2516 
z
" id="DejaVuSans-33" transform="scale(0.015625)"/>
      </defs>
      <use xlink:href="#DejaVuSans-30"/>
      <use x="63.623047" xlink:href="#DejaVuSans-2e"/>
      <use x="95.410156" xlink:href="#DejaVuSans-30"/>
      <use x="159.033203" xlink:href="#DejaVuSans-33"/>
      <use x="222.65625" xlink:href="#DejaVuSans-31"/>
     </g>
    </g>
    <g id="line2d_32">
     <path d="M 151.2 189.739688 
L 187.2 189.739688 
" style="fill:none;stroke:#9467bd;stroke-linecap:square;stroke-width:1.5;"/>
    </g>
    <g id="line2d_33"/>
    <g id="text_19">
     <!-- 0.041 -->
     <g transform="translate(201.6 196.039688)scale(0.18 -0.18)">
      <use xlink:href="#DejaVuSans-30"/>
      <use x="63.623047" xlink:href="#DejaVuSans-2e"/>
      <use x="95.410156" xlink:href="#DejaVuSans-30"/>
      <use x="159.033203" xlink:href="#DejaVuSans-34"/>
      <use x="222.65625" xlink:href="#DejaVuSans-31"/>
     </g>
    </g>
    <g id="line2d_34">
     <path d="M 151.2 216.160312 
L 187.2 216.160312 
" style="fill:none;stroke:#8c564b;stroke-linecap:square;stroke-width:1.5;"/>
    </g>
    <g id="line2d_35"/>
    <g id="text_20">
     <!-- 0.051 -->
     <g transform="translate(201.6 222.460312)scale(0.18 -0.18)">
      <defs>
       <path d="M 691 4666 
L 3169 4666 
L 3169 4134 
L 1269 4134 
L 1269 2991 
Q 1406 3038 1543 3061 
Q 1681 3084 1819 3084 
Q 2600 3084 3056 2656 
Q 3513 2228 3513 1497 
Q 3513 744 3044 326 
Q 2575 -91 1722 -91 
Q 1428 -91 1123 -41 
Q 819 9 494 109 
L 494 744 
Q 775 591 1075 516 
Q 1375 441 1709 441 
Q 2250 441 2565 725 
Q 2881 1009 2881 1497 
Q 2881 1984 2565 2268 
Q 2250 2553 1709 2553 
Q 1456 2553 1204 2497 
Q 953 2441 691 2322 
L 691 4666 
z
" id="DejaVuSans-35" transform="scale(0.015625)"/>
      </defs>
      <use xlink:href="#DejaVuSans-30"/>
      <use x="63.623047" xlink:href="#DejaVuSans-2e"/>
      <use x="95.410156" xlink:href="#DejaVuSans-30"/>
      <use x="159.033203" xlink:href="#DejaVuSans-35"/>
      <use x="222.65625" xlink:href="#DejaVuSans-31"/>
     </g>
    </g>
    <g id="line2d_36">
     <path d="M 151.2 242.580937 
L 187.2 242.580937 
" style="fill:none;stroke:#e377c2;stroke-linecap:square;stroke-width:1.5;"/>
    </g>
    <g id="line2d_37"/>
    <g id="text_21">
     <!-- 0.061 -->
     <g transform="translate(201.6 248.880937)scale(0.18 -0.18)">
      <use xlink:href="#DejaVuSans-30"/>
      <use x="63.623047" xlink:href="#DejaVuSans-2e"/>
      <use x="95.410156" xlink:href="#DejaVuSans-30"/>
      <use x="159.033203" xlink:href="#DejaVuSans-36"/>
      <use x="222.65625" xlink:href="#DejaVuSans-31"/>
     </g>
    </g>
    <g id="line2d_38">
     <path d="M 151.2 269.001562 
L 187.2 269.001562 
" style="fill:none;stroke:#7f7f7f;stroke-linecap:square;stroke-width:1.5;"/>
    </g>
    <g id="line2d_39"/>
    <g id="text_22">
     <!-- 0.071 -->
     <g transform="translate(201.6 275.301562)scale(0.18 -0.18)">
      <defs>
       <path d="M 525 4666 
L 3525 4666 
L 3525 4397 
L 1831 0 
L 1172 0 
L 2766 4134 
L 525 4134 
L 525 4666 
z
" id="DejaVuSans-37" transform="scale(0.015625)"/>
      </defs>
      <use xlink:href="#DejaVuSans-30"/>
      <use x="63.623047" xlink:href="#DejaVuSans-2e"/>
      <use x="95.410156" xlink:href="#DejaVuSans-30"/>
      <use x="159.033203" xlink:href="#DejaVuSans-37"/>
      <use x="222.65625" xlink:href="#DejaVuSans-31"/>
     </g>
    </g>
    <g id="line2d_40">
     <path d="M 151.2 295.422188 
L 187.2 295.422188 
" style="fill:none;stroke:#bcbd22;stroke-linecap:square;stroke-width:1.5;"/>
    </g>
    <g id="line2d_41"/>
    <g id="text_23">
     <!-- 0.081 -->
     <g transform="translate(201.6 301.722188)scale(0.18 -0.18)">
      <use xlink:href="#DejaVuSans-30"/>
      <use x="63.623047" xlink:href="#DejaVuSans-2e"/>
      <use x="95.410156" xlink:href="#DejaVuSans-30"/>
      <use x="159.033203" xlink:href="#DejaVuSans-38"/>
      <use x="222.65625" xlink:href="#DejaVuSans-31"/>
     </g>
    </g>
    <g id="line2d_42">
     <path d="M 151.2 321.842812 
L 187.2 321.842812 
" style="fill:none;stroke:#17becf;stroke-linecap:square;stroke-width:1.5;"/>
    </g>
    <g id="line2d_43"/>
    <g id="text_24">
     <!-- 0.091 -->
     <g transform="translate(201.6 328.142812)scale(0.18 -0.18)">
      <defs>
       <path d="M 703 97 
L 703 672 
Q 941 559 1184 500 
Q 1428 441 1663 441 
Q 2288 441 2617 861 
Q 2947 1281 2994 2138 
Q 2813 1869 2534 1725 
Q 2256 1581 1919 1581 
Q 1219 1581 811 2004 
Q 403 2428 403 3163 
Q 403 3881 828 4315 
Q 1253 4750 1959 4750 
Q 2769 4750 3195 4129 
Q 3622 3509 3622 2328 
Q 3622 1225 3098 567 
Q 2575 -91 1691 -91 
Q 1453 -91 1209 -44 
Q 966 3 703 97 
z
M 1959 2075 
Q 2384 2075 2632 2365 
Q 2881 2656 2881 3163 
Q 2881 3666 2632 3958 
Q 2384 4250 1959 4250 
Q 1534 4250 1286 3958 
Q 1038 3666 1038 3163 
Q 1038 2656 1286 2365 
Q 1534 2075 1959 2075 
z
" id="DejaVuSans-39" transform="scale(0.015625)"/>
      </defs>
      <use xlink:href="#DejaVuSans-30"/>
      <use x="63.623047" xlink:href="#DejaVuSans-2e"/>
      <use x="95.410156" xlink:href="#DejaVuSans-30"/>
      <use x="159.033203" xlink:href="#DejaVuSans-39"/>
      <use x="222.65625" xlink:href="#DejaVuSans-31"/>
     </g>
    </g>
   </g>
  </g>
 </g>
 <defs>
  <clipPath id="pcaaad70cca">
   <rect height="388.08" width="837" x="135" y="60.48"/>
  </clipPath>
 </defs>
</svg>
