<?xml version="1.0" encoding="utf-8" standalone="no"?>
<!DOCTYPE svg PUBLIC "-//W3C//DTD SVG 1.1//EN"
  "http://www.w3.org/Graphics/SVG/1.1/DTD/svg11.dtd">
<svg height="504pt" version="1.1" viewBox="0 0 1080 504" width="1080pt" xmlns="http://www.w3.org/2000/svg" xmlns:xlink="http://www.w3.org/1999/xlink">
 <metadata>
  <rdf:RDF xmlns:cc="http://creativecommons.org/ns#" xmlns:dc="http://purl.org/dc/elements/1.1/" xmlns:rdf="http://www.w3.org/1999/02/22-rdf-syntax-ns#">
   <cc:Work>
    <dc:type rdf:resource="http://purl.org/dc/dcmitype/StillImage"/>
    <dc:date>2022-01-07T13:24:52.874343</dc:date>
    <dc:format>image/svg+xml</dc:format>
    <dc:creator>
     <cc:Agent>
      <dc:title>Matplotlib v3.4.3, https://matplotlib.org/</dc:title>
     </cc:Agent>
    </dc:creator>
   </cc:Work>
  </rdf:RDF>
 </metadata>
 <defs>
  <style type="text/css">*{stroke-linecap:butt;stroke-linejoin:round;}</style>
 </defs>
 <g id="figure_1">
  <g id="patch_1">
   <path d="M 0 504 
L 1080 504 
L 1080 0 
L 0 0 
z
" style="fill:#ffffff;"/>
  </g>
  <g id="axes_1">
   <g id="patch_2">
    <path d="M 135 448.56 
L 972 448.56 
L 972 60.48 
L 135 60.48 
z
" style="fill:#ffffff;"/>
   </g>
   <g id="matplotlib.axis_1">
    <g id="xtick_1">
     <g id="line2d_1">
      <defs>
       <path d="M 0 0 
L 0 3.5 
" id="m3b9092c93e" style="stroke:#000000;stroke-width:0.8;"/>
      </defs>
      <g>
       <use style="stroke:#000000;stroke-width:0.8;" x="135" xlink:href="#m3b9092c93e" y="448.56"/>
      </g>
     </g>
     <g id="text_1">
      <!-- 0.0 -->
      <g transform="translate(120.687187 469.237188)scale(0.18 -0.18)">
       <defs>
        <path d="M 2034 4250 
Q 1547 4250 1301 3770 
Q 1056 3291 1056 2328 
Q 1056 1369 1301 889 
Q 1547 409 2034 409 
Q 2525 409 2770 889 
Q 3016 1369 3016 2328 
Q 3016 3291 2770 3770 
Q 2525 4250 2034 4250 
z
M 2034 4750 
Q 2819 4750 3233 4129 
Q 3647 3509 3647 2328 
Q 3647 1150 3233 529 
Q 2819 -91 2034 -91 
Q 1250 -91 836 529 
Q 422 1150 422 2328 
Q 422 3509 836 4129 
Q 1250 4750 2034 4750 
z
" id="DejaVuSans-30" transform="scale(0.015625)"/>
        <path d="M 684 794 
L 1344 794 
L 1344 0 
L 684 0 
L 684 794 
z
" id="DejaVuSans-2e" transform="scale(0.015625)"/>
       </defs>
       <use xlink:href="#DejaVuSans-30"/>
       <use x="63.623047" xlink:href="#DejaVuSans-2e"/>
       <use x="95.410156" xlink:href="#DejaVuSans-30"/>
      </g>
     </g>
    </g>
    <g id="xtick_2">
     <g id="line2d_2">
      <g>
       <use style="stroke:#000000;stroke-width:0.8;" x="302.4" xlink:href="#m3b9092c93e" y="448.56"/>
      </g>
     </g>
     <g id="text_2">
      <!-- 0.2 -->
      <g transform="translate(288.087187 469.237188)scale(0.18 -0.18)">
       <defs>
        <path d="M 1228 531 
L 3431 531 
L 3431 0 
L 469 0 
L 469 531 
Q 828 903 1448 1529 
Q 2069 2156 2228 2338 
Q 2531 2678 2651 2914 
Q 2772 3150 2772 3378 
Q 2772 3750 2511 3984 
Q 2250 4219 1831 4219 
Q 1534 4219 1204 4116 
Q 875 4013 500 3803 
L 500 4441 
Q 881 4594 1212 4672 
Q 1544 4750 1819 4750 
Q 2544 4750 2975 4387 
Q 3406 4025 3406 3419 
Q 3406 3131 3298 2873 
Q 3191 2616 2906 2266 
Q 2828 2175 2409 1742 
Q 1991 1309 1228 531 
z
" id="DejaVuSans-32" transform="scale(0.015625)"/>
       </defs>
       <use xlink:href="#DejaVuSans-30"/>
       <use x="63.623047" xlink:href="#DejaVuSans-2e"/>
       <use x="95.410156" xlink:href="#DejaVuSans-32"/>
      </g>
     </g>
    </g>
    <g id="xtick_3">
     <g id="line2d_3">
      <g>
       <use style="stroke:#000000;stroke-width:0.8;" x="469.8" xlink:href="#m3b9092c93e" y="448.56"/>
      </g>
     </g>
     <g id="text_3">
      <!-- 0.4 -->
      <g transform="translate(455.487188 469.237188)scale(0.18 -0.18)">
       <defs>
        <path d="M 2419 4116 
L 825 1625 
L 2419 1625 
L 2419 4116 
z
M 2253 4666 
L 3047 4666 
L 3047 1625 
L 3713 1625 
L 3713 1100 
L 3047 1100 
L 3047 0 
L 2419 0 
L 2419 1100 
L 313 1100 
L 313 1709 
L 2253 4666 
z
" id="DejaVuSans-34" transform="scale(0.015625)"/>
       </defs>
       <use xlink:href="#DejaVuSans-30"/>
       <use x="63.623047" xlink:href="#DejaVuSans-2e"/>
       <use x="95.410156" xlink:href="#DejaVuSans-34"/>
      </g>
     </g>
    </g>
    <g id="xtick_4">
     <g id="line2d_4">
      <g>
       <use style="stroke:#000000;stroke-width:0.8;" x="637.2" xlink:href="#m3b9092c93e" y="448.56"/>
      </g>
     </g>
     <g id="text_4">
      <!-- 0.6 -->
      <g transform="translate(622.887188 469.237188)scale(0.18 -0.18)">
       <defs>
        <path d="M 2113 2584 
Q 1688 2584 1439 2293 
Q 1191 2003 1191 1497 
Q 1191 994 1439 701 
Q 1688 409 2113 409 
Q 2538 409 2786 701 
Q 3034 994 3034 1497 
Q 3034 2003 2786 2293 
Q 2538 2584 2113 2584 
z
M 3366 4563 
L 3366 3988 
Q 3128 4100 2886 4159 
Q 2644 4219 2406 4219 
Q 1781 4219 1451 3797 
Q 1122 3375 1075 2522 
Q 1259 2794 1537 2939 
Q 1816 3084 2150 3084 
Q 2853 3084 3261 2657 
Q 3669 2231 3669 1497 
Q 3669 778 3244 343 
Q 2819 -91 2113 -91 
Q 1303 -91 875 529 
Q 447 1150 447 2328 
Q 447 3434 972 4092 
Q 1497 4750 2381 4750 
Q 2619 4750 2861 4703 
Q 3103 4656 3366 4563 
z
" id="DejaVuSans-36" transform="scale(0.015625)"/>
       </defs>
       <use xlink:href="#DejaVuSans-30"/>
       <use x="63.623047" xlink:href="#DejaVuSans-2e"/>
       <use x="95.410156" xlink:href="#DejaVuSans-36"/>
      </g>
     </g>
    </g>
    <g id="xtick_5">
     <g id="line2d_5">
      <g>
       <use style="stroke:#000000;stroke-width:0.8;" x="804.6" xlink:href="#m3b9092c93e" y="448.56"/>
      </g>
     </g>
     <g id="text_5">
      <!-- 0.8 -->
      <g transform="translate(790.287188 469.237188)scale(0.18 -0.18)">
       <defs>
        <path d="M 2034 2216 
Q 1584 2216 1326 1975 
Q 1069 1734 1069 1313 
Q 1069 891 1326 650 
Q 1584 409 2034 409 
Q 2484 409 2743 651 
Q 3003 894 3003 1313 
Q 3003 1734 2745 1975 
Q 2488 2216 2034 2216 
z
M 1403 2484 
Q 997 2584 770 2862 
Q 544 3141 544 3541 
Q 544 4100 942 4425 
Q 1341 4750 2034 4750 
Q 2731 4750 3128 4425 
Q 3525 4100 3525 3541 
Q 3525 3141 3298 2862 
Q 3072 2584 2669 2484 
Q 3125 2378 3379 2068 
Q 3634 1759 3634 1313 
Q 3634 634 3220 271 
Q 2806 -91 2034 -91 
Q 1263 -91 848 271 
Q 434 634 434 1313 
Q 434 1759 690 2068 
Q 947 2378 1403 2484 
z
M 1172 3481 
Q 1172 3119 1398 2916 
Q 1625 2713 2034 2713 
Q 2441 2713 2670 2916 
Q 2900 3119 2900 3481 
Q 2900 3844 2670 4047 
Q 2441 4250 2034 4250 
Q 1625 4250 1398 4047 
Q 1172 3844 1172 3481 
z
" id="DejaVuSans-38" transform="scale(0.015625)"/>
       </defs>
       <use xlink:href="#DejaVuSans-30"/>
       <use x="63.623047" xlink:href="#DejaVuSans-2e"/>
       <use x="95.410156" xlink:href="#DejaVuSans-38"/>
      </g>
     </g>
    </g>
    <g id="xtick_6">
     <g id="line2d_6">
      <g>
       <use style="stroke:#000000;stroke-width:0.8;" x="972" xlink:href="#m3b9092c93e" y="448.56"/>
      </g>
     </g>
     <g id="text_6">
      <!-- 1.0 -->
      <g transform="translate(957.687188 469.237188)scale(0.18 -0.18)">
       <defs>
        <path d="M 794 531 
L 1825 531 
L 1825 4091 
L 703 3866 
L 703 4441 
L 1819 4666 
L 2450 4666 
L 2450 531 
L 3481 531 
L 3481 0 
L 794 0 
L 794 531 
z
" id="DejaVuSans-31" transform="scale(0.015625)"/>
       </defs>
       <use xlink:href="#DejaVuSans-31"/>
       <use x="63.623047" xlink:href="#DejaVuSans-2e"/>
       <use x="95.410156" xlink:href="#DejaVuSans-30"/>
      </g>
     </g>
    </g>
    <g id="text_7">
     <!-- $FPR_{Fair}$ -->
     <g transform="translate(518.08 493.697187)scale(0.22 -0.22)">
      <defs>
       <path d="M 1081 4666 
L 3756 4666 
L 3653 4134 
L 1606 4134 
L 1338 2759 
L 3188 2759 
L 3084 2228 
L 1234 2228 
L 800 0 
L 172 0 
L 1081 4666 
z
" id="DejaVuSans-Oblique-46" transform="scale(0.015625)"/>
       <path d="M 1081 4666 
L 2541 4666 
Q 3178 4666 3512 4369 
Q 3847 4072 3847 3500 
Q 3847 2731 3353 2303 
Q 2859 1875 1966 1875 
L 1172 1875 
L 806 0 
L 172 0 
L 1081 4666 
z
M 1613 4147 
L 1275 2394 
L 2069 2394 
Q 2606 2394 2893 2669 
Q 3181 2944 3181 3456 
Q 3181 3784 2986 3965 
Q 2791 4147 2438 4147 
L 1613 4147 
z
" id="DejaVuSans-Oblique-50" transform="scale(0.015625)"/>
       <path d="M 1613 4147 
L 1294 2491 
L 2106 2491 
Q 2584 2491 2879 2755 
Q 3175 3019 3175 3444 
Q 3175 3784 2976 3965 
Q 2778 4147 2406 4147 
L 1613 4147 
z
M 2772 2241 
Q 2972 2194 3105 2009 
Q 3238 1825 3413 1275 
L 3809 0 
L 3144 0 
L 2778 1197 
Q 2638 1659 2453 1815 
Q 2269 1972 1888 1972 
L 1191 1972 
L 806 0 
L 172 0 
L 1081 4666 
L 2503 4666 
Q 3150 4666 3495 4373 
Q 3841 4081 3841 3531 
Q 3841 3044 3547 2687 
Q 3253 2331 2772 2241 
z
" id="DejaVuSans-Oblique-52" transform="scale(0.015625)"/>
       <path d="M 3438 1997 
L 3047 0 
L 2472 0 
L 2578 531 
Q 2325 219 2001 64 
Q 1678 -91 1281 -91 
Q 834 -91 548 182 
Q 263 456 263 884 
Q 263 1497 752 1853 
Q 1241 2209 2100 2209 
L 2900 2209 
L 2931 2363 
Q 2938 2388 2941 2417 
Q 2944 2447 2944 2509 
Q 2944 2788 2717 2942 
Q 2491 3097 2081 3097 
Q 1800 3097 1504 3025 
Q 1209 2953 897 2809 
L 997 3341 
Q 1322 3463 1633 3523 
Q 1944 3584 2234 3584 
Q 2853 3584 3176 3315 
Q 3500 3047 3500 2534 
Q 3500 2431 3484 2292 
Q 3469 2153 3438 1997 
z
M 2816 1759 
L 2241 1759 
Q 1534 1759 1195 1570 
Q 856 1381 856 984 
Q 856 709 1029 553 
Q 1203 397 1509 397 
Q 1978 397 2328 733 
Q 2678 1069 2791 1631 
L 2816 1759 
z
" id="DejaVuSans-Oblique-61" transform="scale(0.015625)"/>
       <path d="M 1172 4863 
L 1747 4863 
L 1606 4134 
L 1031 4134 
L 1172 4863 
z
M 909 3500 
L 1484 3500 
L 800 0 
L 225 0 
L 909 3500 
z
" id="DejaVuSans-Oblique-69" transform="scale(0.015625)"/>
       <path d="M 2853 2969 
Q 2766 3016 2653 3041 
Q 2541 3066 2413 3066 
Q 1953 3066 1609 2717 
Q 1266 2369 1153 1784 
L 800 0 
L 225 0 
L 909 3500 
L 1484 3500 
L 1375 2956 
Q 1603 3259 1920 3421 
Q 2238 3584 2597 3584 
Q 2691 3584 2781 3573 
Q 2872 3563 2963 3538 
L 2853 2969 
z
" id="DejaVuSans-Oblique-72" transform="scale(0.015625)"/>
      </defs>
      <use transform="translate(0 0.09375)" xlink:href="#DejaVuSans-Oblique-46"/>
      <use transform="translate(57.519531 0.09375)" xlink:href="#DejaVuSans-Oblique-50"/>
      <use transform="translate(117.822266 0.09375)" xlink:href="#DejaVuSans-Oblique-52"/>
      <use transform="translate(187.304688 -16.3125)scale(0.7)" xlink:href="#DejaVuSans-Oblique-46"/>
      <use transform="translate(227.568359 -16.3125)scale(0.7)" xlink:href="#DejaVuSans-Oblique-61"/>
      <use transform="translate(270.463867 -16.3125)scale(0.7)" xlink:href="#DejaVuSans-Oblique-69"/>
      <use transform="translate(289.912109 -16.3125)scale(0.7)" xlink:href="#DejaVuSans-Oblique-72"/>
     </g>
    </g>
   </g>
   <g id="matplotlib.axis_2">
    <g id="ytick_1">
     <g id="line2d_7">
      <defs>
       <path d="M 0 0 
L -3.5 0 
" id="md822b7e2a9" style="stroke:#000000;stroke-width:0.8;"/>
      </defs>
      <g>
       <use style="stroke:#000000;stroke-width:0.8;" x="135" xlink:href="#md822b7e2a9" y="448.56"/>
      </g>
     </g>
     <g id="text_8">
      <!-- 0.0 -->
      <g transform="translate(99.374375 455.398594)scale(0.18 -0.18)">
       <use xlink:href="#DejaVuSans-30"/>
       <use x="63.623047" xlink:href="#DejaVuSans-2e"/>
       <use x="95.410156" xlink:href="#DejaVuSans-30"/>
      </g>
     </g>
    </g>
    <g id="ytick_2">
     <g id="line2d_8">
      <g>
       <use style="stroke:#000000;stroke-width:0.8;" x="135" xlink:href="#md822b7e2a9" y="370.944"/>
      </g>
     </g>
     <g id="text_9">
      <!-- 0.2 -->
      <g transform="translate(99.374375 377.782594)scale(0.18 -0.18)">
       <use xlink:href="#DejaVuSans-30"/>
       <use x="63.623047" xlink:href="#DejaVuSans-2e"/>
       <use x="95.410156" xlink:href="#DejaVuSans-32"/>
      </g>
     </g>
    </g>
    <g id="ytick_3">
     <g id="line2d_9">
      <g>
       <use style="stroke:#000000;stroke-width:0.8;" x="135" xlink:href="#md822b7e2a9" y="293.328"/>
      </g>
     </g>
     <g id="text_10">
      <!-- 0.4 -->
      <g transform="translate(99.374375 300.166594)scale(0.18 -0.18)">
       <use xlink:href="#DejaVuSans-30"/>
       <use x="63.623047" xlink:href="#DejaVuSans-2e"/>
       <use x="95.410156" xlink:href="#DejaVuSans-34"/>
      </g>
     </g>
    </g>
    <g id="ytick_4">
     <g id="line2d_10">
      <g>
       <use style="stroke:#000000;stroke-width:0.8;" x="135" xlink:href="#md822b7e2a9" y="215.712"/>
      </g>
     </g>
     <g id="text_11">
      <!-- 0.6 -->
      <g transform="translate(99.374375 222.550594)scale(0.18 -0.18)">
       <use xlink:href="#DejaVuSans-30"/>
       <use x="63.623047" xlink:href="#DejaVuSans-2e"/>
       <use x="95.410156" xlink:href="#DejaVuSans-36"/>
      </g>
     </g>
    </g>
    <g id="ytick_5">
     <g id="line2d_11">
      <g>
       <use style="stroke:#000000;stroke-width:0.8;" x="135" xlink:href="#md822b7e2a9" y="138.096"/>
      </g>
     </g>
     <g id="text_12">
      <!-- 0.8 -->
      <g transform="translate(99.374375 144.934594)scale(0.18 -0.18)">
       <use xlink:href="#DejaVuSans-30"/>
       <use x="63.623047" xlink:href="#DejaVuSans-2e"/>
       <use x="95.410156" xlink:href="#DejaVuSans-38"/>
      </g>
     </g>
    </g>
    <g id="ytick_6">
     <g id="line2d_12">
      <g>
       <use style="stroke:#000000;stroke-width:0.8;" x="135" xlink:href="#md822b7e2a9" y="60.48"/>
      </g>
     </g>
     <g id="text_13">
      <!-- 1.0 -->
      <g transform="translate(99.374375 67.318594)scale(0.18 -0.18)">
       <use xlink:href="#DejaVuSans-31"/>
       <use x="63.623047" xlink:href="#DejaVuSans-2e"/>
       <use x="95.410156" xlink:href="#DejaVuSans-30"/>
      </g>
     </g>
    </g>
    <g id="text_14">
     <!-- $TPR_{Fair}$ -->
     <g transform="translate(90.799062 290.27)rotate(-90)scale(0.22 -0.22)">
      <defs>
       <path d="M 378 4666 
L 4325 4666 
L 4225 4134 
L 2559 4134 
L 1759 0 
L 1125 0 
L 1925 4134 
L 275 4134 
L 378 4666 
z
" id="DejaVuSans-Oblique-54" transform="scale(0.015625)"/>
      </defs>
      <use transform="translate(0 0.09375)" xlink:href="#DejaVuSans-Oblique-54"/>
      <use transform="translate(61.083984 0.09375)" xlink:href="#DejaVuSans-Oblique-50"/>
      <use transform="translate(121.386719 0.09375)" xlink:href="#DejaVuSans-Oblique-52"/>
      <use transform="translate(190.869141 -16.3125)scale(0.7)" xlink:href="#DejaVuSans-Oblique-46"/>
      <use transform="translate(231.132812 -16.3125)scale(0.7)" xlink:href="#DejaVuSans-Oblique-61"/>
      <use transform="translate(274.02832 -16.3125)scale(0.7)" xlink:href="#DejaVuSans-Oblique-69"/>
      <use transform="translate(293.476562 -16.3125)scale(0.7)" xlink:href="#DejaVuSans-Oblique-72"/>
     </g>
    </g>
   </g>
   <g id="line2d_13">
    <path clip-path="url(#pdbfa1bd4f6)" d="M 135 448.56 
L 972 60.48 
" style="fill:none;stroke:#ff0000;stroke-dasharray:5.55,2.4;stroke-dashoffset:0;stroke-width:1.5;"/>
   </g>
   <g id="line2d_14">
    <path clip-path="url(#pdbfa1bd4f6)" d="M 972 60.48 
L 229.129702 325.16129 
L 191.844492 374.223549 
L 177.058803 396.004803 
L 168.576973 407.741538 
L 163.463775 414.836017 
L 160.127424 419.512979 
L 157.929214 423.084572 
L 156.070785 426.217042 
L 154.740566 428.538765 
L 153.667855 430.23453 
L 152.764952 431.397861 
L 151.861249 432.39 
L 151.012489 433.434831 
L 150.128941 434.345442 
L 149.393666 435.273482 
L 148.697536 436.008814 
L 148.286541 436.583415 
L 147.76053 437.104218 
L 147.298016 437.730955 
L 146.939404 438.282339 
L 146.588656 438.896921 
L 146.308962 439.241915 
L 145.929805 439.527803 
L 145.658525 439.849607 
L 145.297842 440.129726 
L 145.078748 440.431203 
L 144.785109 440.735623 
L 144.463619 440.979273 
L 144.277687 441.287558 
L 144.072957 441.547015 
L 143.716732 441.844102 
L 143.461475 442.237642 
L 143.294561 442.48083 
L 143.13447 442.847265 
L 142.935029 443.151615 
L 142.668379 443.37226 
L 142.485825 443.661832 
L 142.385806 443.972598 
L 142.260607 444.331102 
L 142.134681 444.658137 
L 141.985915 444.812739 
L 141.841328 444.86368 
L 141.729087 444.949491 
L 141.616344 444.998734 
L 141.475946 445.042561 
L 141.344995 445.081036 
L 141.244395 445.131787 
L 141.12151 445.183236 
L 140.975711 445.239692 
L 140.858908 445.287217 
L 140.747795 445.341992 
L 140.571014 445.419535 
L 140.515553 445.489338 
L 140.468282 445.527018 
L 140.3695 445.558586 
L 140.328259 445.590779 
L 140.284381 445.619375 
L 140.210784 445.676669 
L 140.17697 445.734763 
L 140.111879 445.794079 
L 140.044183 445.824078 
L 140.011313 445.860494 
L 139.915614 445.92122 
L 139.826329 445.954587 
L 139.766453 445.988115 
L 139.706478 446.016104 
L 139.671951 446.051859 
L 139.586083 446.075864 
L 139.50666 446.100775 
L 139.479999 446.121776 
L 139.450051 446.172104 
L 139.422824 446.197613 
L 139.367001 446.220372 
L 139.265977 446.24134 
L 139.240353 446.261135 
L 139.191312 446.279281 
L 139.142694 446.29934 
L 139.091446 446.339259 
L 139.043239 446.356983 
L 138.993697 446.416031 
L 138.944531 446.434534 
L 138.921915 446.472632 
L 138.901702 446.514477 
L 138.880132 446.53429 
L 138.813813 446.57356 
L 138.722651 446.613145 
L 138.629435 446.651377 
L 138.612032 446.670946 
L 138.594291 446.687335 
L 138.551461 446.702212 
L 138.534 446.737016 
L 138.516515 446.767123 
L 138.429385 446.79644 
L 138.368348 446.824573 
L 138.326401 446.854112 
L 138.308748 446.863829 
L 138.245584 446.891736 
L 138.229495 446.901941 
L 138.190909 446.931535 
L 138.175838 446.943542 
" style="fill:none;stroke:#1f77b4;stroke-linecap:square;stroke-width:1.5;"/>
   </g>
   <g id="line2d_15">
    <path clip-path="url(#pdbfa1bd4f6)" d="M 972 60.48 
L 962.387597 60.48 
L 958.936994 60.48 
L 955.749928 60.826037 
L 953.004946 61.002315 
L 950.199298 61.181138 
L 946.681057 61.718177 
L 944.864721 61.724986 
L 942.319149 61.91203 
L 941.75 61.924691 
L 940.63759 61.93621 
L 939.924261 61.95 
L 938.876712 62.144786 
L 937.894301 62.527424 
L 936.931608 62.916041 
L 936.432692 63.117437 
L 935.142723 63.712415 
L 933.429781 63.93301 
L 932.596209 64.347265 
L 932.092181 64.384225 
L 930.81853 65.001702 
L 930.082825 65.239285 
L 929.61 65.263729 
L 928.533593 65.881113 
L 928.335181 66.110176 
L 927.283186 66.7296 
L 925.438776 66.958122 
L 924.084381 66.981864 
L 923.813311 67.00578 
L 923.474196 67.238121 
L 923.130273 67.872 
L 922.714432 67.915274 
L 922.123973 67.971088 
L 921.578313 68.229034 
L 921.17592 68.714559 
L 920.820755 68.995195 
L 920.16608 69.084878 
L 919.373366 69.595973 
L 919.074245 69.897291 
L 918.212067 70.276627 
L 917.64155 70.810833 
L 917.248645 71.07835 
L 916.605818 71.535767 
L 916.363039 71.774529 
L 916.036003 71.827368 
L 915.663462 72.302004 
L 915.116505 72.343704 
L 914.286737 72.586086 
L 913.464082 73.065142 
L 913.083397 73.309091 
L 912.398383 73.782979 
L 911.728223 74.233574 
L 911.186719 74.504218 
L 909.890459 75.015696 
L 907.589976 75.255205 
L 906.974104 75.512896 
L 906.274038 76.23489 
L 905.646278 76.263158 
L 905.135036 76.717657 
L 904.89011 77.221618 
L 904.422541 77.261838 
L 903.835883 77.33269 
L 902.918716 77.842709 
L 901.722922 77.916503 
L 900.983959 78.870182 
L 900.37931 78.937463 
L 899.949893 79.016583 
L 898.857081 79.60902 
L 897.986996 79.956134 
L 897.502618 80.778082 
L 897.176161 81.365407 
L 896.747466 81.43096 
L 896.31383 81.931658 
L 895.636852 82.202717 
L 895.22482 82.460617 
L 894.429928 82.474458 
L 893.935851 82.599823 
L 893.232526 83.5537 
L 892.943604 84.350488 
L 892.506224 84.842663 
L 892.101019 85.167023 
L 890.560056 85.725 
L 890.140852 85.773393 
L 889.289362 86.070423 
L 888.73822 86.119666 
L 888.219828 86.600769 
L 887.613603 87.561127 
L 887.163434 87.827085 
L 886.75 87.932605 
L 885.838235 88.681312 
L 884.416584 89.022658 
L 883.850969 89.986082 
L 883.144717 90.005106 
L 882.276296 90.5443 
L 881.822458 90.602639 
L 879.755714 91.071322 
L 879.190087 91.151248 
L 877.853621 92.035357 
L 877.122671 92.076796 
L 876.629032 92.222691 
L 875.843342 92.648435 
" style="fill:none;stroke:#ff7f0e;stroke-linecap:square;stroke-width:1.5;"/>
   </g>
   <g id="line2d_16">
    <path clip-path="url(#pdbfa1bd4f6)" d="M 972 60.48 
L 966.444976 60.48 
L 964.455944 60.48 
L 962.710177 60.667887 
L 961.088896 60.763615 
L 959.422493 60.859726 
L 957.36248 61.149268 
L 956.348889 61.152916 
L 954.92934 61.253453 
L 954.763256 61.259669 
L 954.139273 61.265388 
L 953.714685 61.272607 
L 953.153642 61.377871 
L 952.612731 61.587649 
L 952.04131 61.801729 
L 951.757991 62.018372 
L 950.878772 62.346766 
L 949.863988 62.465866 
L 949.542842 62.691582 
L 949.232432 62.709735 
L 948.492891 63.157152 
L 948.174505 63.184767 
L 948.000534 63.199933 
L 947.377937 63.544365 
L 947.226854 63.672715 
L 946.465952 64.013018 
L 945.409166 64.135906 
L 944.602795 64.145323 
L 944.430422 64.161127 
L 944.235184 64.285803 
L 944.031913 64.635994 
L 943.820314 64.656545 
L 943.424185 64.679754 
L 943.248705 64.812268 
L 943.037502 65.065879 
L 942.806118 65.211276 
L 942.412412 65.245283 
L 941.894466 65.506337 
L 941.642487 65.666974 
L 941.074699 65.961019 
L 940.762356 66.238219 
L 940.508237 66.380068 
L 940.091412 66.636168 
L 939.900619 66.768613 
L 939.660573 66.794193 
L 939.423729 67.055563 
L 939.127956 67.078338 
L 938.683908 67.213249 
L 938.203608 67.480177 
L 937.977081 67.621066 
L 937.595259 67.876696 
L 937.155565 68.137849 
L 936.84748 68.283715 
L 935.891928 68.557233 
L 934.516794 68.686754 
L 934.178039 68.835193 
L 933.712107 69.231804 
L 933.257104 69.254419 
L 932.979922 69.51387 
L 932.74437 69.788888 
L 932.51518 69.813091 
L 932.142857 69.849631 
L 931.660256 70.128047 
L 930.990201 70.162889 
L 930.492537 70.692632 
L 930.119504 70.726337 
L 929.801762 70.750063 
L 929.140325 71.055793 
L 928.724832 71.231215 
L 928.410616 71.568 
L 928.180216 71.86717 
L 927.82441 71.913444 
L 927.519673 72.204073 
L 927.210702 72.351924 
L 926.920766 72.364042 
L 926.373239 72.384294 
L 926.025493 72.429093 
L 925.573693 72.981549 
L 925.327138 73.420447 
L 924.927156 73.705446 
L 924.609868 73.880552 
L 923.646054 74.176941 
L 923.289344 74.214962 
L 922.791885 74.388225 
L 922.491252 74.412464 
L 922.075329 74.702827 
L 921.666573 75.249804 
L 921.308786 75.416599 
L 920.960492 75.469045 
L 920.336314 75.888658 
L 919.611354 76.074332 
L 919.227273 76.621502 
L 918.806089 76.65 
L 918.096601 76.815875 
L 917.708108 76.873866 
L 916.385382 77.088274 
L 915.962264 77.129839 
L 915.223757 77.588903 
L 914.820093 77.613467 
L 914.320861 77.7 
L 913.567925 77.902853 
" style="fill:none;stroke:#2ca02c;stroke-linecap:square;stroke-width:1.5;"/>
   </g>
   <g id="line2d_17">
    <path clip-path="url(#pdbfa1bd4f6)" d="M 972 60.48 
L 956.597839 68.000448 
L 946.641775 76.516871 
L 936.273306 85.351492 
L 924.607655 93.939271 
L 914.197103 99.393808 
L 902.751485 104.881946 
L 893.52854 109.228538 
L 884.126211 114.109146 
L 874.864332 119.143917 
L 866.103645 123.418 
L 855.986089 126.72931 
L 847.432315 131.375468 
L 838.940625 136.106701 
L 829.60337 140.132991 
L 820.775205 144.861959 
L 812.178806 149.155814 
L 804.135323 152.625103 
L 795.298164 156.235054 
L 788.342615 159.519274 
L 780.43021 163.827977 
L 772.181561 168.333499 
L 763.236628 171.951481 
L 755.616707 175.056 
L 747.70168 178.82581 
L 741.564689 182.144118 
L 734.792877 184.436376 
L 727.223718 186.742069 
L 719.976229 189.244342 
L 714.346414 191.516701 
L 707.349916 194.495414 
L 700.441388 197.481801 
L 693.284985 200.174865 
L 686.657333 201.848451 
L 680.732024 203.60557 
L 674.58103 205.210487 
L 667.712991 206.741057 
L 662.466484 208.962353 
L 656.830513 210.90358 
L 651.555082 212.908268 
L 646.10522 214.7264 
L 640.058966 216.535928 
L 634.455246 218.366206 
L 628.542666 219.774545 
L 621.828045 221.502216 
L 615.98694 223.235656 
L 610.330607 224.680619 
L 604.574171 226.663717 
L 598.804565 228.837538 
L 593.461317 231.052729 
L 588.114964 233.037834 
L 583.196262 235.06266 
L 577.179144 236.371376 
L 571.501932 238.171802 
L 566.613955 239.963001 
L 561.537772 241.213358 
L 556.703896 242.53157 
L 551.091571 243.895722 
L 547.102863 245.25 
L 543.275484 246.983815 
L 539.100453 248.786798 
L 534.148006 250.361368 
L 530.209262 252.345205 
L 524.909853 253.842226 
L 520.662887 255.627559 
L 515.975974 257.050674 
L 511.470859 258.35172 
L 507.365872 260.196189 
L 503.121197 261.64504 
L 499.340373 263.669025 
L 495.453401 265.195477 
L 491.271283 267.921534 
L 487.549216 269.84495 
L 483.907348 271.1025 
L 480.521456 272.212245 
L 476.573798 273.440278 
L 472.608949 274.843746 
L 469.306313 276.375988 
L 465.814286 278.022985 
L 462.181256 279.206566 
L 458.470588 280.279282 
L 454.686126 281.856254 
L 451.496583 282.897858 
L 447.751939 284.872299 
L 444.37579 286.695543 
L 441.135259 287.8995 
L 437.343837 289.22603 
L 433.558896 290.987972 
L 430.594075 293.019403 
L 427.303084 294.641123 
L 424.283345 296.101324 
L 421.681647 297.529625 
L 418.676693 298.484333 
L 415.514681 299.197258 
L 412.914148 299.868387 
L 409.710306 300.794579 
L 406.810262 301.681617 
L 403.711359 302.500207 
L 401.217342 303.237655 
L 398.364199 304.287249 
L 395.167395 305.418682 
" style="fill:none;stroke:#d62728;stroke-linecap:square;stroke-width:1.5;"/>
   </g>
   <g id="line2d_18">
    <path clip-path="url(#pdbfa1bd4f6)" d="M 972 60.48 
L 842.035493 78.475365 
L 772.276125 94.573845 
L 721.658307 110.682397 
L 680.689562 125.497557 
L 648.00863 137.8883 
L 622.343325 148.445318 
L 601.548173 159.54747 
L 585.338918 169.599008 
L 570.367774 178.660741 
L 557.416901 186.231245 
L 545.583389 192.254325 
L 534.345303 198.026491 
L 523.402642 204.346635 
L 511.875894 210.311439 
L 502.271251 216.331957 
L 493.627106 222.512269 
L 486.25273 226.928508 
L 478.292404 231.565741 
L 470.951387 236.740402 
L 464.329916 242.215024 
L 458.442759 247.727874 
L 452.167368 251.312254 
L 446.258596 254.505835 
L 440.706533 258.137908 
L 435.847005 261.142526 
L 431.283454 263.98204 
L 426.60349 266.902665 
L 422.18453 270.018742 
L 418.086827 272.869278 
L 413.325024 275.777373 
L 408.485898 278.568404 
L 404.020263 281.313406 
L 400.104436 283.762683 
L 395.849495 286.514968 
L 391.617906 288.973177 
L 387.287234 291.36827 
L 383.621008 293.89584 
L 379.97561 296.441413 
L 376.510802 298.599566 
L 373.334601 300.235984 
L 370.16706 301.71955 
L 367.041202 303.226866 
L 363.987287 304.923577 
L 360.855034 306.46673 
L 357.851217 307.863475 
L 354.932393 309.081453 
L 351.762678 310.565101 
L 348.921719 312.195026 
L 346.326923 313.941878 
L 343.758621 315.528162 
L 341.19535 317.355676 
L 338.264463 318.994644 
L 335.473228 320.40766 
L 333.039155 321.789706 
L 330.850379 322.881369 
L 328.654553 324.046102 
L 326.266691 325.063227 
L 323.881643 326.098476 
L 321.952047 327.255928 
L 319.84541 328.537947 
L 317.575635 329.652527 
L 315.539632 330.997147 
L 313.290739 332.361457 
L 311.218309 333.715045 
L 309.043091 335.069084 
L 306.982609 336.125965 
L 304.963366 337.677295 
L 302.896606 338.658574 
L 301.138069 339.765819 
L 299.392988 340.671003 
L 297.396498 341.85648 
L 295.674322 342.920076 
L 293.91402 343.832485 
L 292.27444 344.686211 
L 290.533659 345.500963 
L 288.76 346.344257 
L 287.322391 347.191839 
L 285.706503 348.038367 
L 283.892611 348.755431 
L 282.088064 349.473509 
L 280.313643 350.299558 
L 278.786477 351.050634 
L 277.031399 352.000341 
L 275.514673 352.894324 
L 273.992022 353.746543 
L 272.247753 354.621004 
L 270.514506 355.478452 
L 269.100124 356.447821 
L 267.565318 357.244139 
L 266.038261 358.075452 
L 264.709924 358.781641 
L 263.22808 359.341155 
L 261.604084 359.885196 
L 260.326082 360.438655 
L 258.770041 361.102629 
L 257.285074 361.702777 
L 255.703405 362.256 
L 254.379052 362.815836 
L 253.008341 363.573765 
L 251.612671 364.345772 
" style="fill:none;stroke:#9467bd;stroke-linecap:square;stroke-width:1.5;"/>
   </g>
   <g id="line2d_19">
    <path clip-path="url(#pdbfa1bd4f6)" d="M 972 60.48 
L 863.493455 74.755527 
L 801.480167 86.999423 
L 754.107089 99.20437 
L 716.737073 110.802384 
L 685.571899 121.122884 
L 661.744208 129.932996 
L 642.355182 139.129739 
L 626.224949 147.78191 
L 612.838502 155.52193 
L 601.089379 162.358737 
L 590.310062 167.400313 
L 579.763872 172.397635 
L 569.603754 177.988556 
L 558.813874 183.420247 
L 549.615082 188.711068 
L 541.161904 194.271849 
L 533.69795 198.377608 
L 525.785279 202.644838 
L 518.642805 207.555439 
L 512.215581 212.577731 
L 506.609748 217.72354 
L 500.549248 221.150407 
L 494.910296 224.139797 
L 489.540067 227.804635 
L 484.821507 230.737829 
L 480.420754 233.481706 
L 475.805923 236.492462 
L 471.410001 239.550874 
L 467.338235 242.450647 
L 462.622642 245.399685 
L 457.844062 248.275742 
L 453.372558 251.203494 
L 449.333943 253.722079 
L 444.980512 256.579669 
L 440.697248 259.036428 
L 436.327665 261.601924 
L 432.428975 264.217327 
L 428.673768 266.755503 
L 425.059104 268.940724 
L 421.703631 270.481392 
L 418.339506 272.101916 
L 415.161023 273.633779 
L 411.890109 275.334525 
L 408.613832 277.024034 
L 405.364098 278.456751 
L 402.333583 279.761246 
L 399.037279 281.436431 
L 396.040821 283.212522 
L 393.366643 285.105508 
L 390.727725 286.793726 
L 387.943248 288.781153 
L 384.80043 290.57548 
L 381.737952 292.102197 
L 379.046025 293.590625 
L 376.71079 294.808493 
L 374.339821 296.083061 
L 371.712351 297.218238 
L 369.044218 298.462434 
L 366.813071 299.800391 
L 364.474719 301.215625 
L 361.995026 302.444215 
L 359.836733 303.907121 
L 357.099676 305.439837 
L 354.835655 306.95954 
L 352.533907 308.525729 
L 350.237848 309.6871 
L 347.981157 311.314763 
L 345.655197 312.374871 
L 343.660598 313.570708 
L 341.665749 314.602015 
L 339.472942 315.906314 
L 337.479275 317.057044 
L 335.438306 318.007998 
L 333.503765 319.028101 
L 331.56539 319.963276 
L 329.584406 320.908586 
L 327.765715 321.945906 
L 325.774729 322.871409 
L 323.767825 323.717923 
L 321.703214 324.545504 
L 319.702338 325.480707 
L 317.848507 326.316396 
L 315.942233 327.390763 
L 314.126017 328.402878 
L 312.414684 329.386512 
L 310.461142 330.393007 
L 308.379774 331.374856 
L 306.726785 332.449534 
L 304.999141 333.383363 
L 303.266093 334.406843 
L 301.736302 335.18205 
L 300.074139 335.790082 
L 298.19287 336.46999 
L 296.594659 337.077755 
L 294.764842 337.789593 
L 293.078455 338.49903 
L 291.1708 339.161872 
L 289.567616 339.826278 
L 287.978034 340.680503 
L 286.314485 341.517002 
" style="fill:none;stroke:#8c564b;stroke-linecap:square;stroke-width:1.5;"/>
   </g>
   <g id="line2d_20">
    <path clip-path="url(#pdbfa1bd4f6)" d="M 972 60.48 
L 877.695735 72.291557 
L 822.434263 82.535837 
L 779.21398 92.937829 
L 744.579313 102.900332 
L 715.501147 111.736417 
L 693.022955 119.495138 
L 674.566729 127.591361 
L 659.173544 135.265212 
L 646.433728 142.288585 
L 635.080772 148.487063 
L 624.626851 153.071361 
L 614.432809 157.682661 
L 604.549226 162.87253 
L 594.013578 167.839338 
L 585.031331 172.700019 
L 576.824396 177.811957 
L 569.477289 181.580597 
L 561.597765 185.565332 
L 554.500512 190.136309 
L 548.108421 194.802789 
L 542.515415 199.658501 
L 536.45752 202.944128 
L 530.90022 205.810471 
L 525.47996 209.371237 
L 520.722917 212.202189 
L 516.264076 214.91292 
L 511.625464 217.837296 
L 507.229369 220.876062 
L 503.107969 223.721479 
L 498.295449 226.648317 
L 493.404743 229.499926 
L 488.840885 232.382883 
L 484.744345 234.891904 
L 480.362281 237.730438 
L 475.922081 240.155294 
L 471.470439 242.714615 
L 467.420917 245.292495 
L 463.552958 247.826717 
L 459.863014 249.987821 
L 456.302073 251.521827 
L 452.804608 253.169075 
L 449.555898 254.722558 
L 446.137727 256.468873 
L 442.663804 258.182721 
L 439.269262 259.651671 
L 436.105844 260.967135 
L 432.674452 262.699599 
L 429.552167 264.547135 
L 426.724436 266.497273 
L 423.933553 268.215147 
L 421.02527 270.279696 
L 417.672696 272.118091 
L 414.498526 273.695015 
L 411.709646 275.26654 
L 409.199091 276.517633 
L 406.693212 277.835378 
L 403.908088 279.017684 
L 401.056063 280.338313 
L 398.683548 281.721689 
L 396.170658 283.185654 
L 393.551287 284.452362 
L 391.219966 285.996715 
L 388.359239 287.602816 
L 385.96498 289.198057 
L 383.50775 290.854923 
L 381.107334 292.102329 
L 378.661575 293.815413 
L 376.148387 294.922574 
L 373.947758 296.153834 
L 371.809518 297.231046 
L 369.420414 298.593028 
L 367.326987 299.822524 
L 365.045672 300.852998 
L 362.996956 301.944137 
L 360.793658 302.961778 
L 358.645548 303.968451 
L 356.692546 305.054887 
L 354.501024 306.060653 
L 352.347472 306.978916 
L 350.117835 307.871085 
L 347.914308 308.860127 
L 345.898771 309.780389 
L 343.842526 310.921141 
L 341.838914 312.033382 
L 339.898595 313.077644 
L 337.783033 314.159638 
L 335.484477 315.209531 
L 333.651817 316.371131 
L 331.792586 317.353178 
L 329.886849 318.482459 
L 328.120956 319.330898 
L 326.323774 319.999022 
L 324.191912 320.733742 
L 322.475314 321.3733 
L 320.398831 322.133138 
L 318.552218 322.880954 
L 316.459076 323.590264 
L 314.707925 324.301958 
L 312.938419 325.21724 
L 311.053935 326.111435 
" style="fill:none;stroke:#e377c2;stroke-linecap:square;stroke-width:1.5;"/>
   </g>
   <g id="line2d_21">
    <path clip-path="url(#pdbfa1bd4f6)" d="M 972 60.48 
L 931.076106 62.898035 
L 905.049762 64.923218 
L 882.359795 67.06954 
L 864.694315 69.240734 
L 846.757721 71.351163 
L 833.196803 73.098102 
L 823.200838 75.097944 
L 815.027336 77.50234 
L 809.877702 78.883006 
L 804.802482 80.673211 
L 799.236968 81.731719 
L 793.110371 82.738879 
L 787.033195 84.104325 
L 781.553636 85.519342 
L 777.024274 87.127602 
L 772.263066 89.095576 
L 767.298506 90.258192 
L 762.487782 91.510688 
L 758.169524 92.989319 
L 754.47988 94.470182 
L 751.540683 96.419569 
L 748.387021 97.458997 
L 744.884654 98.371469 
L 741.637907 99.592896 
L 738.906095 100.625144 
L 736.316113 101.801192 
L 733.840775 103.178665 
L 731.282824 104.258164 
L 728.868311 105.151524 
L 725.889407 106.036411 
L 722.397614 107.183303 
L 719.311964 108.246077 
L 716.783351 109.156861 
L 714.025104 110.024776 
L 711.062866 111.322623 
L 707.804403 112.390379 
L 704.993213 113.270639 
L 702.468356 114.225739 
L 700.051401 115.195911 
L 697.481182 115.906473 
L 694.476402 116.691002 
L 691.746247 117.389983 
L 689.094161 118.000241 
L 686.969528 118.826256 
L 684.601015 119.30589 
L 682.124073 119.894551 
L 679.117175 120.764887 
L 676.573802 121.605456 
L 674.394524 122.514385 
L 672.311441 123.231468 
L 670.099901 124.290531 
L 667.545468 125.361528 
L 665.219994 126.062018 
L 663.065099 126.736784 
L 661.180631 127.628702 
L 658.925282 128.516689 
L 656.559937 129.255285 
L 654.390492 130.130483 
L 652.50323 130.938604 
L 650.232634 131.880345 
L 647.684667 132.758784 
L 645.486613 133.715274 
L 642.57131 134.741632 
L 640.483211 135.629268 
L 638.123647 136.796454 
L 635.866241 137.637638 
L 633.037143 138.401951 
L 630.362811 138.957337 
L 628.169199 139.507897 
L 626.126674 140.078774 
L 623.662811 140.530509 
L 621.409422 141.179103 
L 618.982675 141.749272 
L 616.539845 142.135494 
L 614.126711 142.650327 
L 611.878838 143.107629 
L 609.72876 144.018532 
L 607.041655 144.828459 
L 604.598619 145.441789 
L 602.07755 146.177116 
L 599.798265 146.755743 
L 597.743096 147.417387 
L 595.549342 148.243902 
L 593.338094 148.917152 
L 591.133108 149.774453 
L 588.744853 150.465366 
L 585.915993 151.00406 
L 583.577297 151.669432 
L 581.320057 152.249126 
L 578.711423 153.029629 
L 575.9824 153.800531 
L 573.410184 154.375545 
L 570.482258 155.069639 
L 567.966187 155.529269 
L 564.985754 156.021878 
L 562.358563 156.598282 
L 558.974422 157.190967 
L 555.922753 157.874092 
L 553.156927 158.58334 
L 550.549354 159.179788 
" style="fill:none;stroke:#7f7f7f;stroke-linecap:square;stroke-width:1.5;"/>
   </g>
   <g id="line2d_22">
    <path clip-path="url(#pdbfa1bd4f6)" d="M 972 60.48 
L 896.359256 69.01063 
L 850.674954 76.447468 
L 813.987767 84.28615 
L 783.969189 91.856577 
L 758.183141 98.729837 
L 738.093694 104.844969 
L 721.405871 111.335927 
L 707.422544 117.484127 
L 695.787755 123.273212 
L 685.338313 128.567402 
L 675.673363 132.313149 
L 666.285404 136.113569 
L 657.069133 140.500174 
L 647.177342 144.625361 
L 638.805755 148.745114 
L 631.069918 153.037485 
L 624.159566 156.240566 
L 616.665421 159.611372 
L 609.812594 163.558018 
L 603.663808 167.500234 
L 598.296144 171.695704 
L 592.459383 174.623677 
L 587.160804 177.200083 
L 581.923424 180.422452 
L 577.28325 183.014 
L 572.913403 185.435902 
L 568.406844 188.133549 
L 564.120439 190.953935 
L 560.012122 193.569775 
L 555.242977 196.290793 
L 550.321706 198.977998 
L 545.795284 201.65814 
L 541.65913 204.017527 
L 537.306396 206.73823 
L 532.844028 209.050779 
L 528.269507 211.523721 
L 524.036708 214.025794 
L 520.164077 216.43124 
L 516.390853 218.450254 
L 512.723817 219.897158 
L 509.189366 221.523909 
L 505.858634 223.079304 
L 502.367571 224.827451 
L 498.778873 226.533008 
L 495.259894 228.001419 
L 491.99658 229.335227 
L 488.461952 231.085127 
L 485.242998 232.904265 
L 482.251003 234.880548 
L 479.249232 236.614272 
L 476.277849 238.705544 
L 472.80536 240.5529 
L 469.471643 242.178329 
L 466.58809 243.808452 
L 464.018562 245.093971 
L 461.354303 246.465509 
L 458.408003 247.686603 
L 455.365031 249.072673 
L 452.874581 250.490542 
L 450.173269 251.992249 
L 447.368429 253.295994 
L 444.847646 254.911297 
L 441.803334 256.596219 
L 439.184253 258.293358 
L 436.511254 260.022984 
L 433.869107 261.357065 
L 431.143259 263.148319 
L 428.337786 264.307068 
L 425.95567 265.586665 
L 423.607558 266.7233 
L 421.02381 268.162982 
L 418.729217 269.471641 
L 416.125775 270.58417 
L 413.841306 271.760159 
L 411.285714 272.86884 
L 408.912554 273.91585 
L 406.698205 275.09139 
L 404.214144 276.175275 
L 401.854734 277.155178 
L 399.295764 278.13478 
L 396.813467 279.207553 
L 394.603136 280.170526 
L 392.293667 281.433559 
L 390.026034 282.66961 
L 387.870951 283.84027 
L 385.622556 285.029138 
L 382.970073 286.170031 
L 380.847956 287.429371 
L 378.719039 288.503531 
L 376.564196 289.693227 
L 374.532517 290.624404 
L 372.415534 291.359734 
L 370.033489 292.166579 
L 368.083208 292.872209 
L 365.649156 293.697338 
L 363.449148 294.505891 
L 361.108893 295.257008 
L 359.043785 296.069705 
L 356.956296 297.047453 
L 354.836282 298.013931 
" style="fill:none;stroke:#bcbd22;stroke-linecap:square;stroke-width:1.5;"/>
   </g>
   <g id="line2d_23">
    <path clip-path="url(#pdbfa1bd4f6)" d="M 972 60.48 
L 963.193619 61.748005 
L 956.845005 63.054446 
L 952.362899 64.700065 
L 947.86891 66.303815 
L 943.308212 67.536 
L 938.537327 68.754321 
L 935.029908 69.810807 
L 930.838442 70.973853 
L 927.208757 72.481729 
L 923.233879 73.334652 
L 920.738686 74.191788 
L 918.541636 74.966957 
L 916.465855 76.393721 
L 913.600337 77.407442 
L 911.444078 78.51648 
L 909.390059 79.528543 
L 907.293606 80.470794 
L 905.547962 81.410045 
L 903.58256 82.437323 
L 901.806424 83.767326 
L 900.087756 85.131687 
L 898.063903 86.112727 
L 896.157106 86.993356 
L 894.145913 88.492097 
L 892.019825 89.704894 
L 889.483876 90.549029 
L 886.782648 91.376536 
L 885.301029 92.458265 
L 883.603696 93.580866 
L 881.201183 94.94171 
L 879.337495 95.98941 
L 877.569649 96.990616 
L 875.352228 97.686072 
L 872.807927 99.013866 
L 870.939234 100.016022 
L 869.386017 100.749758 
L 867.144871 101.863062 
L 865.687585 102.733485 
L 864.18821 103.591275 
L 862.333215 104.203628 
L 860.354442 104.851504 
L 858.581991 105.578705 
L 856.571068 106.471748 
L 853.344496 107.030664 
L 851.116445 107.633353 
L 849.625432 108.175509 
L 847.970616 108.937186 
L 846.243733 109.641207 
L 844.308422 110.45238 
L 842.437048 111.312305 
L 840.806796 112.147927 
L 838.896718 112.955558 
L 836.816949 113.843325 
L 834.746908 114.644295 
L 833.209845 115.129412 
L 831.669134 115.840077 
L 830.099815 116.407452 
L 828.325613 116.964384 
L 826.525493 117.666802 
L 824.995555 118.332592 
L 823.209602 118.927395 
L 821.120943 119.832782 
L 819.102884 120.666536 
L 817.037997 121.581046 
L 815.234661 122.327234 
L 813.160508 123.05971 
L 811.431027 124.418912 
L 809.484004 125.110854 
L 807.62439 125.88433 
L 805.735465 126.672093 
L 803.753154 127.709627 
L 801.555991 128.524183 
L 799.415774 129.357562 
L 797.668173 130.458127 
L 795.367156 131.354 
L 793.230423 132.307997 
L 791.266138 133.054121 
L 788.633462 134.036597 
L 786.396021 134.780084 
L 783.915517 135.57151 
L 781.333291 136.429662 
L 778.237032 137.228064 
L 775.96693 138.063841 
L 773.886402 139.044235 
L 772.103868 140.326898 
L 769.887594 141.441333 
L 767.3704 142.303452 
L 765.471157 143.496769 
L 763.549789 144.622302 
L 761.425098 145.61154 
L 759.592204 146.589342 
L 757.584563 147.233899 
L 755.316175 147.879619 
L 753.186997 148.407304 
L 750.829231 149.117376 
L 748.637046 149.723383 
L 746.51433 150.404247 
L 744.507692 150.894154 
L 742.223712 151.804004 
L 739.856322 152.771249 
" style="fill:none;stroke:#17becf;stroke-linecap:square;stroke-width:1.5;"/>
   </g>
   <g id="patch_3">
    <path d="M 135 448.56 
L 135 60.48 
" style="fill:none;stroke:#000000;stroke-linecap:square;stroke-linejoin:miter;stroke-width:0.8;"/>
   </g>
   <g id="patch_4">
    <path d="M 972 448.56 
L 972 60.48 
" style="fill:none;stroke:#000000;stroke-linecap:square;stroke-linejoin:miter;stroke-width:0.8;"/>
   </g>
   <g id="patch_5">
    <path d="M 135 448.56 
L 972 448.56 
" style="fill:none;stroke:#000000;stroke-linecap:square;stroke-linejoin:miter;stroke-width:0.8;"/>
   </g>
   <g id="patch_6">
    <path d="M 135 60.48 
L 972 60.48 
" style="fill:none;stroke:#000000;stroke-linecap:square;stroke-linejoin:miter;stroke-width:0.8;"/>
   </g>
   <g id="legend_1">
    <g id="patch_7">
     <path d="M 850.269375 439.56 
L 959.4 439.56 
Q 963 439.56 963 435.96 
L 963 173.55375 
Q 963 169.95375 959.4 169.95375 
L 850.269375 169.95375 
Q 846.669375 169.95375 846.669375 173.55375 
L 846.669375 435.96 
Q 846.669375 439.56 850.269375 439.56 
z
" style="fill:#ffffff;opacity:0.8;stroke:#cccccc;stroke-linejoin:miter;"/>
    </g>
    <g id="line2d_24">
     <path d="M 853.869375 184.530938 
L 889.869375 184.530938 
" style="fill:none;stroke:#1f77b4;stroke-linecap:square;stroke-width:1.5;"/>
    </g>
    <g id="line2d_25"/>
    <g id="text_15">
     <!-- 0.001 -->
     <g transform="translate(904.269375 190.830938)scale(0.18 -0.18)">
      <use xlink:href="#DejaVuSans-30"/>
      <use x="63.623047" xlink:href="#DejaVuSans-2e"/>
      <use x="95.410156" xlink:href="#DejaVuSans-30"/>
      <use x="159.033203" xlink:href="#DejaVuSans-30"/>
      <use x="222.65625" xlink:href="#DejaVuSans-31"/>
     </g>
    </g>
    <g id="line2d_26">
     <path d="M 853.869375 210.951563 
L 889.869375 210.951563 
" style="fill:none;stroke:#ff7f0e;stroke-linecap:square;stroke-width:1.5;"/>
    </g>
    <g id="line2d_27"/>
    <g id="text_16">
     <!-- 0.011 -->
     <g transform="translate(904.269375 217.251563)scale(0.18 -0.18)">
      <use xlink:href="#DejaVuSans-30"/>
      <use x="63.623047" xlink:href="#DejaVuSans-2e"/>
      <use x="95.410156" xlink:href="#DejaVuSans-30"/>
      <use x="159.033203" xlink:href="#DejaVuSans-31"/>
      <use x="222.65625" xlink:href="#DejaVuSans-31"/>
     </g>
    </g>
    <g id="line2d_28">
     <path d="M 853.869375 237.372188 
L 889.869375 237.372188 
" style="fill:none;stroke:#2ca02c;stroke-linecap:square;stroke-width:1.5;"/>
    </g>
    <g id="line2d_29"/>
    <g id="text_17">
     <!-- 0.021 -->
     <g transform="translate(904.269375 243.672188)scale(0.18 -0.18)">
      <use xlink:href="#DejaVuSans-30"/>
      <use x="63.623047" xlink:href="#DejaVuSans-2e"/>
      <use x="95.410156" xlink:href="#DejaVuSans-30"/>
      <use x="159.033203" xlink:href="#DejaVuSans-32"/>
      <use x="222.65625" xlink:href="#DejaVuSans-31"/>
     </g>
    </g>
    <g id="line2d_30">
     <path d="M 853.869375 263.792813 
L 889.869375 263.792813 
" style="fill:none;stroke:#d62728;stroke-linecap:square;stroke-width:1.5;"/>
    </g>
    <g id="line2d_31"/>
    <g id="text_18">
     <!-- 0.031 -->
     <g transform="translate(904.269375 270.092813)scale(0.18 -0.18)">
      <defs>
       <path d="M 2597 2516 
Q 3050 2419 3304 2112 
Q 3559 1806 3559 1356 
Q 3559 666 3084 287 
Q 2609 -91 1734 -91 
Q 1441 -91 1130 -33 
Q 819 25 488 141 
L 488 750 
Q 750 597 1062 519 
Q 1375 441 1716 441 
Q 2309 441 2620 675 
Q 2931 909 2931 1356 
Q 2931 1769 2642 2001 
Q 2353 2234 1838 2234 
L 1294 2234 
L 1294 2753 
L 1863 2753 
Q 2328 2753 2575 2939 
Q 2822 3125 2822 3475 
Q 2822 3834 2567 4026 
Q 2313 4219 1838 4219 
Q 1578 4219 1281 4162 
Q 984 4106 628 3988 
L 628 4550 
Q 988 4650 1302 4700 
Q 1616 4750 1894 4750 
Q 2613 4750 3031 4423 
Q 3450 4097 3450 3541 
Q 3450 3153 3228 2886 
Q 3006 2619 2597 2516 
z
" id="DejaVuSans-33" transform="scale(0.015625)"/>
      </defs>
      <use xlink:href="#DejaVuSans-30"/>
      <use x="63.623047" xlink:href="#DejaVuSans-2e"/>
      <use x="95.410156" xlink:href="#DejaVuSans-30"/>
      <use x="159.033203" xlink:href="#DejaVuSans-33"/>
      <use x="222.65625" xlink:href="#DejaVuSans-31"/>
     </g>
    </g>
    <g id="line2d_32">
     <path d="M 853.869375 290.213438 
L 889.869375 290.213438 
" style="fill:none;stroke:#9467bd;stroke-linecap:square;stroke-width:1.5;"/>
    </g>
    <g id="line2d_33"/>
    <g id="text_19">
     <!-- 0.041 -->
     <g transform="translate(904.269375 296.513438)scale(0.18 -0.18)">
      <use xlink:href="#DejaVuSans-30"/>
      <use x="63.623047" xlink:href="#DejaVuSans-2e"/>
      <use x="95.410156" xlink:href="#DejaVuSans-30"/>
      <use x="159.033203" xlink:href="#DejaVuSans-34"/>
      <use x="222.65625" xlink:href="#DejaVuSans-31"/>
     </g>
    </g>
    <g id="line2d_34">
     <path d="M 853.869375 316.634063 
L 889.869375 316.634063 
" style="fill:none;stroke:#8c564b;stroke-linecap:square;stroke-width:1.5;"/>
    </g>
    <g id="line2d_35"/>
    <g id="text_20">
     <!-- 0.051 -->
     <g transform="translate(904.269375 322.934063)scale(0.18 -0.18)">
      <defs>
       <path d="M 691 4666 
L 3169 4666 
L 3169 4134 
L 1269 4134 
L 1269 2991 
Q 1406 3038 1543 3061 
Q 1681 3084 1819 3084 
Q 2600 3084 3056 2656 
Q 3513 2228 3513 1497 
Q 3513 744 3044 326 
Q 2575 -91 1722 -91 
Q 1428 -91 1123 -41 
Q 819 9 494 109 
L 494 744 
Q 775 591 1075 516 
Q 1375 441 1709 441 
Q 2250 441 2565 725 
Q 2881 1009 2881 1497 
Q 2881 1984 2565 2268 
Q 2250 2553 1709 2553 
Q 1456 2553 1204 2497 
Q 953 2441 691 2322 
L 691 4666 
z
" id="DejaVuSans-35" transform="scale(0.015625)"/>
      </defs>
      <use xlink:href="#DejaVuSans-30"/>
      <use x="63.623047" xlink:href="#DejaVuSans-2e"/>
      <use x="95.410156" xlink:href="#DejaVuSans-30"/>
      <use x="159.033203" xlink:href="#DejaVuSans-35"/>
      <use x="222.65625" xlink:href="#DejaVuSans-31"/>
     </g>
    </g>
    <g id="line2d_36">
     <path d="M 853.869375 343.054688 
L 889.869375 343.054688 
" style="fill:none;stroke:#e377c2;stroke-linecap:square;stroke-width:1.5;"/>
    </g>
    <g id="line2d_37"/>
    <g id="text_21">
     <!-- 0.061 -->
     <g transform="translate(904.269375 349.354688)scale(0.18 -0.18)">
      <use xlink:href="#DejaVuSans-30"/>
      <use x="63.623047" xlink:href="#DejaVuSans-2e"/>
      <use x="95.410156" xlink:href="#DejaVuSans-30"/>
      <use x="159.033203" xlink:href="#DejaVuSans-36"/>
      <use x="222.65625" xlink:href="#DejaVuSans-31"/>
     </g>
    </g>
    <g id="line2d_38">
     <path d="M 853.869375 369.475313 
L 889.869375 369.475313 
" style="fill:none;stroke:#7f7f7f;stroke-linecap:square;stroke-width:1.5;"/>
    </g>
    <g id="line2d_39"/>
    <g id="text_22">
     <!-- 0.071 -->
     <g transform="translate(904.269375 375.775313)scale(0.18 -0.18)">
      <defs>
       <path d="M 525 4666 
L 3525 4666 
L 3525 4397 
L 1831 0 
L 1172 0 
L 2766 4134 
L 525 4134 
L 525 4666 
z
" id="DejaVuSans-37" transform="scale(0.015625)"/>
      </defs>
      <use xlink:href="#DejaVuSans-30"/>
      <use x="63.623047" xlink:href="#DejaVuSans-2e"/>
      <use x="95.410156" xlink:href="#DejaVuSans-30"/>
      <use x="159.033203" xlink:href="#DejaVuSans-37"/>
      <use x="222.65625" xlink:href="#DejaVuSans-31"/>
     </g>
    </g>
    <g id="line2d_40">
     <path d="M 853.869375 395.895938 
L 889.869375 395.895938 
" style="fill:none;stroke:#bcbd22;stroke-linecap:square;stroke-width:1.5;"/>
    </g>
    <g id="line2d_41"/>
    <g id="text_23">
     <!-- 0.081 -->
     <g transform="translate(904.269375 402.195938)scale(0.18 -0.18)">
      <use xlink:href="#DejaVuSans-30"/>
      <use x="63.623047" xlink:href="#DejaVuSans-2e"/>
      <use x="95.410156" xlink:href="#DejaVuSans-30"/>
      <use x="159.033203" xlink:href="#DejaVuSans-38"/>
      <use x="222.65625" xlink:href="#DejaVuSans-31"/>
     </g>
    </g>
    <g id="line2d_42">
     <path d="M 853.869375 422.316563 
L 889.869375 422.316563 
" style="fill:none;stroke:#17becf;stroke-linecap:square;stroke-width:1.5;"/>
    </g>
    <g id="line2d_43"/>
    <g id="text_24">
     <!-- 0.091 -->
     <g transform="translate(904.269375 428.616563)scale(0.18 -0.18)">
      <defs>
       <path d="M 703 97 
L 703 672 
Q 941 559 1184 500 
Q 1428 441 1663 441 
Q 2288 441 2617 861 
Q 2947 1281 2994 2138 
Q 2813 1869 2534 1725 
Q 2256 1581 1919 1581 
Q 1219 1581 811 2004 
Q 403 2428 403 3163 
Q 403 3881 828 4315 
Q 1253 4750 1959 4750 
Q 2769 4750 3195 4129 
Q 3622 3509 3622 2328 
Q 3622 1225 3098 567 
Q 2575 -91 1691 -91 
Q 1453 -91 1209 -44 
Q 966 3 703 97 
z
M 1959 2075 
Q 2384 2075 2632 2365 
Q 2881 2656 2881 3163 
Q 2881 3666 2632 3958 
Q 2384 4250 1959 4250 
Q 1534 4250 1286 3958 
Q 1038 3666 1038 3163 
Q 1038 2656 1286 2365 
Q 1534 2075 1959 2075 
z
" id="DejaVuSans-39" transform="scale(0.015625)"/>
      </defs>
      <use xlink:href="#DejaVuSans-30"/>
      <use x="63.623047" xlink:href="#DejaVuSans-2e"/>
      <use x="95.410156" xlink:href="#DejaVuSans-30"/>
      <use x="159.033203" xlink:href="#DejaVuSans-39"/>
      <use x="222.65625" xlink:href="#DejaVuSans-31"/>
     </g>
    </g>
   </g>
  </g>
 </g>
 <defs>
  <clipPath id="pdbfa1bd4f6">
   <rect height="388.08" width="837" x="135" y="60.48"/>
  </clipPath>
 </defs>
</svg>
