<?xml version="1.0" encoding="utf-8" standalone="no"?>
<!DOCTYPE svg PUBLIC "-//W3C//DTD SVG 1.1//EN"
  "http://www.w3.org/Graphics/SVG/1.1/DTD/svg11.dtd">
<svg height="504pt" version="1.1" viewBox="0 0 1080 504" width="1080pt" xmlns="http://www.w3.org/2000/svg" xmlns:xlink="http://www.w3.org/1999/xlink">
 <metadata>
  <rdf:RDF xmlns:cc="http://creativecommons.org/ns#" xmlns:dc="http://purl.org/dc/elements/1.1/" xmlns:rdf="http://www.w3.org/1999/02/22-rdf-syntax-ns#">
   <cc:Work>
    <dc:type rdf:resource="http://purl.org/dc/dcmitype/StillImage"/>
    <dc:date>2022-01-07T13:22:37.205540</dc:date>
    <dc:format>image/svg+xml</dc:format>
    <dc:creator>
     <cc:Agent>
      <dc:title>Matplotlib v3.4.3, https://matplotlib.org/</dc:title>
     </cc:Agent>
    </dc:creator>
   </cc:Work>
  </rdf:RDF>
 </metadata>
 <defs>
  <style type="text/css">*{stroke-linecap:butt;stroke-linejoin:round;}</style>
 </defs>
 <g id="figure_1">
  <g id="patch_1">
   <path d="M 0 504 
L 1080 504 
L 1080 0 
L 0 0 
z
" style="fill:#ffffff;"/>
  </g>
  <g id="axes_1">
   <g id="patch_2">
    <path d="M 135 448.56 
L 972 448.56 
L 972 60.48 
L 135 60.48 
z
" style="fill:#ffffff;"/>
   </g>
   <g id="matplotlib.axis_1">
    <g id="xtick_1">
     <g id="line2d_1">
      <defs>
       <path d="M 0 0 
L 0 3.5 
" id="m56df74dabc" style="stroke:#000000;stroke-width:0.8;"/>
      </defs>
      <g>
       <use style="stroke:#000000;stroke-width:0.8;" x="135" xlink:href="#m56df74dabc" y="448.56"/>
      </g>
     </g>
     <g id="text_1">
      <!-- 0.0 -->
      <g transform="translate(120.687187 469.237188)scale(0.18 -0.18)">
       <defs>
        <path d="M 2034 4250 
Q 1547 4250 1301 3770 
Q 1056 3291 1056 2328 
Q 1056 1369 1301 889 
Q 1547 409 2034 409 
Q 2525 409 2770 889 
Q 3016 1369 3016 2328 
Q 3016 3291 2770 3770 
Q 2525 4250 2034 4250 
z
M 2034 4750 
Q 2819 4750 3233 4129 
Q 3647 3509 3647 2328 
Q 3647 1150 3233 529 
Q 2819 -91 2034 -91 
Q 1250 -91 836 529 
Q 422 1150 422 2328 
Q 422 3509 836 4129 
Q 1250 4750 2034 4750 
z
" id="DejaVuSans-30" transform="scale(0.015625)"/>
        <path d="M 684 794 
L 1344 794 
L 1344 0 
L 684 0 
L 684 794 
z
" id="DejaVuSans-2e" transform="scale(0.015625)"/>
       </defs>
       <use xlink:href="#DejaVuSans-30"/>
       <use x="63.623047" xlink:href="#DejaVuSans-2e"/>
       <use x="95.410156" xlink:href="#DejaVuSans-30"/>
      </g>
     </g>
    </g>
    <g id="xtick_2">
     <g id="line2d_2">
      <g>
       <use style="stroke:#000000;stroke-width:0.8;" x="302.4" xlink:href="#m56df74dabc" y="448.56"/>
      </g>
     </g>
     <g id="text_2">
      <!-- 0.2 -->
      <g transform="translate(288.087187 469.237188)scale(0.18 -0.18)">
       <defs>
        <path d="M 1228 531 
L 3431 531 
L 3431 0 
L 469 0 
L 469 531 
Q 828 903 1448 1529 
Q 2069 2156 2228 2338 
Q 2531 2678 2651 2914 
Q 2772 3150 2772 3378 
Q 2772 3750 2511 3984 
Q 2250 4219 1831 4219 
Q 1534 4219 1204 4116 
Q 875 4013 500 3803 
L 500 4441 
Q 881 4594 1212 4672 
Q 1544 4750 1819 4750 
Q 2544 4750 2975 4387 
Q 3406 4025 3406 3419 
Q 3406 3131 3298 2873 
Q 3191 2616 2906 2266 
Q 2828 2175 2409 1742 
Q 1991 1309 1228 531 
z
" id="DejaVuSans-32" transform="scale(0.015625)"/>
       </defs>
       <use xlink:href="#DejaVuSans-30"/>
       <use x="63.623047" xlink:href="#DejaVuSans-2e"/>
       <use x="95.410156" xlink:href="#DejaVuSans-32"/>
      </g>
     </g>
    </g>
    <g id="xtick_3">
     <g id="line2d_3">
      <g>
       <use style="stroke:#000000;stroke-width:0.8;" x="469.8" xlink:href="#m56df74dabc" y="448.56"/>
      </g>
     </g>
     <g id="text_3">
      <!-- 0.4 -->
      <g transform="translate(455.487188 469.237188)scale(0.18 -0.18)">
       <defs>
        <path d="M 2419 4116 
L 825 1625 
L 2419 1625 
L 2419 4116 
z
M 2253 4666 
L 3047 4666 
L 3047 1625 
L 3713 1625 
L 3713 1100 
L 3047 1100 
L 3047 0 
L 2419 0 
L 2419 1100 
L 313 1100 
L 313 1709 
L 2253 4666 
z
" id="DejaVuSans-34" transform="scale(0.015625)"/>
       </defs>
       <use xlink:href="#DejaVuSans-30"/>
       <use x="63.623047" xlink:href="#DejaVuSans-2e"/>
       <use x="95.410156" xlink:href="#DejaVuSans-34"/>
      </g>
     </g>
    </g>
    <g id="xtick_4">
     <g id="line2d_4">
      <g>
       <use style="stroke:#000000;stroke-width:0.8;" x="637.2" xlink:href="#m56df74dabc" y="448.56"/>
      </g>
     </g>
     <g id="text_4">
      <!-- 0.6 -->
      <g transform="translate(622.887188 469.237188)scale(0.18 -0.18)">
       <defs>
        <path d="M 2113 2584 
Q 1688 2584 1439 2293 
Q 1191 2003 1191 1497 
Q 1191 994 1439 701 
Q 1688 409 2113 409 
Q 2538 409 2786 701 
Q 3034 994 3034 1497 
Q 3034 2003 2786 2293 
Q 2538 2584 2113 2584 
z
M 3366 4563 
L 3366 3988 
Q 3128 4100 2886 4159 
Q 2644 4219 2406 4219 
Q 1781 4219 1451 3797 
Q 1122 3375 1075 2522 
Q 1259 2794 1537 2939 
Q 1816 3084 2150 3084 
Q 2853 3084 3261 2657 
Q 3669 2231 3669 1497 
Q 3669 778 3244 343 
Q 2819 -91 2113 -91 
Q 1303 -91 875 529 
Q 447 1150 447 2328 
Q 447 3434 972 4092 
Q 1497 4750 2381 4750 
Q 2619 4750 2861 4703 
Q 3103 4656 3366 4563 
z
" id="DejaVuSans-36" transform="scale(0.015625)"/>
       </defs>
       <use xlink:href="#DejaVuSans-30"/>
       <use x="63.623047" xlink:href="#DejaVuSans-2e"/>
       <use x="95.410156" xlink:href="#DejaVuSans-36"/>
      </g>
     </g>
    </g>
    <g id="xtick_5">
     <g id="line2d_5">
      <g>
       <use style="stroke:#000000;stroke-width:0.8;" x="804.6" xlink:href="#m56df74dabc" y="448.56"/>
      </g>
     </g>
     <g id="text_5">
      <!-- 0.8 -->
      <g transform="translate(790.287188 469.237188)scale(0.18 -0.18)">
       <defs>
        <path d="M 2034 2216 
Q 1584 2216 1326 1975 
Q 1069 1734 1069 1313 
Q 1069 891 1326 650 
Q 1584 409 2034 409 
Q 2484 409 2743 651 
Q 3003 894 3003 1313 
Q 3003 1734 2745 1975 
Q 2488 2216 2034 2216 
z
M 1403 2484 
Q 997 2584 770 2862 
Q 544 3141 544 3541 
Q 544 4100 942 4425 
Q 1341 4750 2034 4750 
Q 2731 4750 3128 4425 
Q 3525 4100 3525 3541 
Q 3525 3141 3298 2862 
Q 3072 2584 2669 2484 
Q 3125 2378 3379 2068 
Q 3634 1759 3634 1313 
Q 3634 634 3220 271 
Q 2806 -91 2034 -91 
Q 1263 -91 848 271 
Q 434 634 434 1313 
Q 434 1759 690 2068 
Q 947 2378 1403 2484 
z
M 1172 3481 
Q 1172 3119 1398 2916 
Q 1625 2713 2034 2713 
Q 2441 2713 2670 2916 
Q 2900 3119 2900 3481 
Q 2900 3844 2670 4047 
Q 2441 4250 2034 4250 
Q 1625 4250 1398 4047 
Q 1172 3844 1172 3481 
z
" id="DejaVuSans-38" transform="scale(0.015625)"/>
       </defs>
       <use xlink:href="#DejaVuSans-30"/>
       <use x="63.623047" xlink:href="#DejaVuSans-2e"/>
       <use x="95.410156" xlink:href="#DejaVuSans-38"/>
      </g>
     </g>
    </g>
    <g id="xtick_6">
     <g id="line2d_6">
      <g>
       <use style="stroke:#000000;stroke-width:0.8;" x="972" xlink:href="#m56df74dabc" y="448.56"/>
      </g>
     </g>
     <g id="text_6">
      <!-- 1.0 -->
      <g transform="translate(957.687188 469.237188)scale(0.18 -0.18)">
       <defs>
        <path d="M 794 531 
L 1825 531 
L 1825 4091 
L 703 3866 
L 703 4441 
L 1819 4666 
L 2450 4666 
L 2450 531 
L 3481 531 
L 3481 0 
L 794 0 
L 794 531 
z
" id="DejaVuSans-31" transform="scale(0.015625)"/>
       </defs>
       <use xlink:href="#DejaVuSans-31"/>
       <use x="63.623047" xlink:href="#DejaVuSans-2e"/>
       <use x="95.410156" xlink:href="#DejaVuSans-30"/>
      </g>
     </g>
    </g>
    <g id="text_7">
     <!-- $FPR_{Fair}$ -->
     <g transform="translate(518.08 493.697187)scale(0.22 -0.22)">
      <defs>
       <path d="M 1081 4666 
L 3756 4666 
L 3653 4134 
L 1606 4134 
L 1338 2759 
L 3188 2759 
L 3084 2228 
L 1234 2228 
L 800 0 
L 172 0 
L 1081 4666 
z
" id="DejaVuSans-Oblique-46" transform="scale(0.015625)"/>
       <path d="M 1081 4666 
L 2541 4666 
Q 3178 4666 3512 4369 
Q 3847 4072 3847 3500 
Q 3847 2731 3353 2303 
Q 2859 1875 1966 1875 
L 1172 1875 
L 806 0 
L 172 0 
L 1081 4666 
z
M 1613 4147 
L 1275 2394 
L 2069 2394 
Q 2606 2394 2893 2669 
Q 3181 2944 3181 3456 
Q 3181 3784 2986 3965 
Q 2791 4147 2438 4147 
L 1613 4147 
z
" id="DejaVuSans-Oblique-50" transform="scale(0.015625)"/>
       <path d="M 1613 4147 
L 1294 2491 
L 2106 2491 
Q 2584 2491 2879 2755 
Q 3175 3019 3175 3444 
Q 3175 3784 2976 3965 
Q 2778 4147 2406 4147 
L 1613 4147 
z
M 2772 2241 
Q 2972 2194 3105 2009 
Q 3238 1825 3413 1275 
L 3809 0 
L 3144 0 
L 2778 1197 
Q 2638 1659 2453 1815 
Q 2269 1972 1888 1972 
L 1191 1972 
L 806 0 
L 172 0 
L 1081 4666 
L 2503 4666 
Q 3150 4666 3495 4373 
Q 3841 4081 3841 3531 
Q 3841 3044 3547 2687 
Q 3253 2331 2772 2241 
z
" id="DejaVuSans-Oblique-52" transform="scale(0.015625)"/>
       <path d="M 3438 1997 
L 3047 0 
L 2472 0 
L 2578 531 
Q 2325 219 2001 64 
Q 1678 -91 1281 -91 
Q 834 -91 548 182 
Q 263 456 263 884 
Q 263 1497 752 1853 
Q 1241 2209 2100 2209 
L 2900 2209 
L 2931 2363 
Q 2938 2388 2941 2417 
Q 2944 2447 2944 2509 
Q 2944 2788 2717 2942 
Q 2491 3097 2081 3097 
Q 1800 3097 1504 3025 
Q 1209 2953 897 2809 
L 997 3341 
Q 1322 3463 1633 3523 
Q 1944 3584 2234 3584 
Q 2853 3584 3176 3315 
Q 3500 3047 3500 2534 
Q 3500 2431 3484 2292 
Q 3469 2153 3438 1997 
z
M 2816 1759 
L 2241 1759 
Q 1534 1759 1195 1570 
Q 856 1381 856 984 
Q 856 709 1029 553 
Q 1203 397 1509 397 
Q 1978 397 2328 733 
Q 2678 1069 2791 1631 
L 2816 1759 
z
" id="DejaVuSans-Oblique-61" transform="scale(0.015625)"/>
       <path d="M 1172 4863 
L 1747 4863 
L 1606 4134 
L 1031 4134 
L 1172 4863 
z
M 909 3500 
L 1484 3500 
L 800 0 
L 225 0 
L 909 3500 
z
" id="DejaVuSans-Oblique-69" transform="scale(0.015625)"/>
       <path d="M 2853 2969 
Q 2766 3016 2653 3041 
Q 2541 3066 2413 3066 
Q 1953 3066 1609 2717 
Q 1266 2369 1153 1784 
L 800 0 
L 225 0 
L 909 3500 
L 1484 3500 
L 1375 2956 
Q 1603 3259 1920 3421 
Q 2238 3584 2597 3584 
Q 2691 3584 2781 3573 
Q 2872 3563 2963 3538 
L 2853 2969 
z
" id="DejaVuSans-Oblique-72" transform="scale(0.015625)"/>
      </defs>
      <use transform="translate(0 0.09375)" xlink:href="#DejaVuSans-Oblique-46"/>
      <use transform="translate(57.519531 0.09375)" xlink:href="#DejaVuSans-Oblique-50"/>
      <use transform="translate(117.822266 0.09375)" xlink:href="#DejaVuSans-Oblique-52"/>
      <use transform="translate(187.304688 -16.3125)scale(0.7)" xlink:href="#DejaVuSans-Oblique-46"/>
      <use transform="translate(227.568359 -16.3125)scale(0.7)" xlink:href="#DejaVuSans-Oblique-61"/>
      <use transform="translate(270.463867 -16.3125)scale(0.7)" xlink:href="#DejaVuSans-Oblique-69"/>
      <use transform="translate(289.912109 -16.3125)scale(0.7)" xlink:href="#DejaVuSans-Oblique-72"/>
     </g>
    </g>
   </g>
   <g id="matplotlib.axis_2">
    <g id="ytick_1">
     <g id="line2d_7">
      <defs>
       <path d="M 0 0 
L -3.5 0 
" id="mcddce3e7c2" style="stroke:#000000;stroke-width:0.8;"/>
      </defs>
      <g>
       <use style="stroke:#000000;stroke-width:0.8;" x="135" xlink:href="#mcddce3e7c2" y="448.56"/>
      </g>
     </g>
     <g id="text_8">
      <!-- 0.0 -->
      <g transform="translate(99.374375 455.398594)scale(0.18 -0.18)">
       <use xlink:href="#DejaVuSans-30"/>
       <use x="63.623047" xlink:href="#DejaVuSans-2e"/>
       <use x="95.410156" xlink:href="#DejaVuSans-30"/>
      </g>
     </g>
    </g>
    <g id="ytick_2">
     <g id="line2d_8">
      <g>
       <use style="stroke:#000000;stroke-width:0.8;" x="135" xlink:href="#mcddce3e7c2" y="370.944"/>
      </g>
     </g>
     <g id="text_9">
      <!-- 0.2 -->
      <g transform="translate(99.374375 377.782594)scale(0.18 -0.18)">
       <use xlink:href="#DejaVuSans-30"/>
       <use x="63.623047" xlink:href="#DejaVuSans-2e"/>
       <use x="95.410156" xlink:href="#DejaVuSans-32"/>
      </g>
     </g>
    </g>
    <g id="ytick_3">
     <g id="line2d_9">
      <g>
       <use style="stroke:#000000;stroke-width:0.8;" x="135" xlink:href="#mcddce3e7c2" y="293.328"/>
      </g>
     </g>
     <g id="text_10">
      <!-- 0.4 -->
      <g transform="translate(99.374375 300.166594)scale(0.18 -0.18)">
       <use xlink:href="#DejaVuSans-30"/>
       <use x="63.623047" xlink:href="#DejaVuSans-2e"/>
       <use x="95.410156" xlink:href="#DejaVuSans-34"/>
      </g>
     </g>
    </g>
    <g id="ytick_4">
     <g id="line2d_10">
      <g>
       <use style="stroke:#000000;stroke-width:0.8;" x="135" xlink:href="#mcddce3e7c2" y="215.712"/>
      </g>
     </g>
     <g id="text_11">
      <!-- 0.6 -->
      <g transform="translate(99.374375 222.550594)scale(0.18 -0.18)">
       <use xlink:href="#DejaVuSans-30"/>
       <use x="63.623047" xlink:href="#DejaVuSans-2e"/>
       <use x="95.410156" xlink:href="#DejaVuSans-36"/>
      </g>
     </g>
    </g>
    <g id="ytick_5">
     <g id="line2d_11">
      <g>
       <use style="stroke:#000000;stroke-width:0.8;" x="135" xlink:href="#mcddce3e7c2" y="138.096"/>
      </g>
     </g>
     <g id="text_12">
      <!-- 0.8 -->
      <g transform="translate(99.374375 144.934594)scale(0.18 -0.18)">
       <use xlink:href="#DejaVuSans-30"/>
       <use x="63.623047" xlink:href="#DejaVuSans-2e"/>
       <use x="95.410156" xlink:href="#DejaVuSans-38"/>
      </g>
     </g>
    </g>
    <g id="ytick_6">
     <g id="line2d_12">
      <g>
       <use style="stroke:#000000;stroke-width:0.8;" x="135" xlink:href="#mcddce3e7c2" y="60.48"/>
      </g>
     </g>
     <g id="text_13">
      <!-- 1.0 -->
      <g transform="translate(99.374375 67.318594)scale(0.18 -0.18)">
       <use xlink:href="#DejaVuSans-31"/>
       <use x="63.623047" xlink:href="#DejaVuSans-2e"/>
       <use x="95.410156" xlink:href="#DejaVuSans-30"/>
      </g>
     </g>
    </g>
    <g id="text_14">
     <!-- $TPR_{Fair}$ -->
     <g transform="translate(90.799062 290.27)rotate(-90)scale(0.22 -0.22)">
      <defs>
       <path d="M 378 4666 
L 4325 4666 
L 4225 4134 
L 2559 4134 
L 1759 0 
L 1125 0 
L 1925 4134 
L 275 4134 
L 378 4666 
z
" id="DejaVuSans-Oblique-54" transform="scale(0.015625)"/>
      </defs>
      <use transform="translate(0 0.09375)" xlink:href="#DejaVuSans-Oblique-54"/>
      <use transform="translate(61.083984 0.09375)" xlink:href="#DejaVuSans-Oblique-50"/>
      <use transform="translate(121.386719 0.09375)" xlink:href="#DejaVuSans-Oblique-52"/>
      <use transform="translate(190.869141 -16.3125)scale(0.7)" xlink:href="#DejaVuSans-Oblique-46"/>
      <use transform="translate(231.132812 -16.3125)scale(0.7)" xlink:href="#DejaVuSans-Oblique-61"/>
      <use transform="translate(274.02832 -16.3125)scale(0.7)" xlink:href="#DejaVuSans-Oblique-69"/>
      <use transform="translate(293.476562 -16.3125)scale(0.7)" xlink:href="#DejaVuSans-Oblique-72"/>
     </g>
    </g>
   </g>
   <g id="line2d_13">
    <path clip-path="url(#p37619a5774)" d="M 135 448.56 
L 972 60.48 
" style="fill:none;stroke:#ff0000;stroke-dasharray:5.55,2.4;stroke-dashoffset:0;stroke-width:1.5;"/>
   </g>
   <g id="line2d_14">
    <path clip-path="url(#p37619a5774)" d="M 972 60.48 
L 562.871109 266.480795 
L 422.693898 329.343654 
L 352.613313 359.444419 
L 310.524146 377.187979 
L 282.756926 388.731392 
L 263.009955 396.950895 
L 248.188535 403.068852 
L 236.668954 407.803725 
L 227.392884 411.524891 
L 219.705995 414.554328 
L 213.389008 416.981088 
L 207.955357 418.984228 
L 203.2199 420.678095 
L 199.10972 422.161343 
L 195.461125 423.456139 
L 192.242002 424.638182 
L 189.355871 425.664577 
L 186.673597 426.565578 
L 184.236385 427.388344 
L 182.064266 428.156079 
L 180.025973 428.845262 
L 178.182113 429.493307 
L 176.462679 430.103603 
L 174.840438 430.677745 
L 173.326742 431.212913 
L 171.925967 431.730461 
L 170.558358 432.197215 
L 169.304019 432.643918 
L 168.130102 433.078297 
L 167.022385 433.492122 
L 165.987726 433.87014 
L 165.013991 434.245602 
L 164.078987 434.581174 
L 163.175936 434.918193 
L 162.324773 435.25789 
L 161.496654 435.577585 
L 160.721348 435.890368 
L 159.98591 436.195079 
L 159.301122 436.473679 
L 158.628345 436.741274 
L 157.969182 437.014477 
L 157.356514 437.281354 
L 156.76536 437.542555 
L 156.207859 437.787432 
L 155.678977 438.022714 
L 155.165749 438.255498 
L 154.677806 438.476051 
L 154.185895 438.696329 
L 153.723092 438.900688 
L 153.279137 439.103858 
L 152.849595 439.298613 
L 152.445336 439.486575 
L 152.039533 439.66889 
L 151.655266 439.852688 
L 151.286338 440.024514 
L 150.915747 440.191996 
L 150.575341 440.357465 
L 150.248241 440.502232 
L 149.940246 440.643823 
L 149.633408 440.781122 
L 149.330943 440.910484 
L 149.036385 441.040509 
L 148.743081 441.171698 
L 148.477573 441.297452 
L 148.223248 441.418401 
L 147.965163 441.543798 
L 147.714821 441.660462 
L 147.474395 441.77107 
L 147.233555 441.881187 
L 147.007934 441.989299 
L 146.774822 442.09366 
L 146.563767 442.197388 
L 146.351994 442.297989 
L 146.147606 442.398206 
L 145.949839 442.502268 
L 145.755 442.600477 
L 145.558887 442.700788 
L 145.375042 442.789605 
L 145.191994 442.891438 
L 145.019253 442.979373 
L 144.84873 443.06886 
L 144.668881 443.152921 
L 144.506378 443.245369 
L 144.345169 443.329271 
L 144.184872 443.407765 
L 144.021631 443.494846 
L 143.853621 443.574851 
L 143.69812 443.652502 
L 143.54579 443.732582 
L 143.398881 443.821836 
L 143.249209 443.906696 
L 143.101975 443.988656 
L 142.972417 444.068938 
L 142.837651 444.15677 
L 142.708168 444.240448 
L 142.585758 444.325481 
L 142.454528 444.406271 
L 142.339573 444.498098 
L 142.220718 444.581151 
L 142.092624 444.670459 
" style="fill:none;stroke:#1f77b4;stroke-linecap:square;stroke-width:1.5;"/>
   </g>
   <g id="line2d_15">
    <path clip-path="url(#p37619a5774)" d="M 972 60.48 
L 971.910609 60.495715 
L 971.875443 60.517866 
L 971.819388 60.549723 
L 971.744174 60.575477 
L 971.622612 60.598189 
L 971.483146 60.63068 
L 971.287893 60.644007 
L 971.149604 60.667107 
L 970.921116 60.696756 
L 970.628768 60.739535 
L 970.348649 60.772721 
L 970.16405 60.80287 
L 970.025022 60.820077 
L 969.921041 60.847211 
L 969.768739 60.874424 
L 969.64515 60.91165 
L 969.557723 60.935857 
L 969.427343 60.953418 
L 969.360205 60.984496 
L 969.261068 61.015705 
L 969.201783 61.047149 
L 969.138972 61.078605 
L 969.087152 61.093462 
L 969.02053 61.118538 
L 968.960179 61.143626 
L 968.874258 61.158774 
L 968.819269 61.173973 
L 968.761338 61.189209 
L 968.733769 61.221656 
L 968.69372 61.260934 
L 968.650724 61.283415 
L 968.593006 61.29227 
L 968.552899 61.297575 
L 968.48414 61.323645 
L 968.404953 61.339615 
L 968.326807 61.366027 
L 968.260144 61.409824 
L 968.198646 61.429846 
L 968.161421 61.456635 
L 968.100507 61.472961 
L 968.035319 61.496604 
L 967.972539 61.506453 
L 967.890838 61.551684 
L 967.808267 61.572197 
L 967.70728 61.59998 
L 967.627684 61.613573 
L 967.586298 61.651909 
L 967.541072 61.669476 
L 967.477616 61.697731 
L 967.426317 61.736899 
L 967.379605 61.761707 
L 967.287043 61.808485 
L 967.171757 61.837455 
L 967.126406 61.863005 
L 967.074323 61.9143 
L 967.006767 61.958463 
L 966.953034 62.003707 
L 966.892933 62.015597 
L 966.824561 62.056393 
L 966.763241 62.083392 
L 966.689529 62.121612 
L 966.612484 62.15239 
L 966.53531 62.202497 
L 966.438587 62.245207 
L 966.313114 62.280574 
L 966.229376 62.327391 
L 966.139337 62.363499 
L 966.054822 62.399202 
L 965.976467 62.447019 
L 965.884643 62.499563 
L 965.782076 62.555212 
L 965.665175 62.59634 
L 965.599771 62.633991 
L 965.518484 62.683838 
L 965.392239 62.725901 
L 965.271189 62.807345 
L 965.175753 62.878107 
L 965.047384 62.911545 
L 964.96713 62.95335 
L 964.886573 62.992254 
L 964.778203 63.054453 
L 964.670982 63.113793 
L 964.600455 63.146171 
L 964.534327 63.197416 
L 964.445917 63.23609 
L 964.346464 63.301368 
L 964.255817 63.363022 
L 964.150442 63.417489 
L 964.013643 63.477503 
L 963.910832 63.562985 
L 963.827778 63.624821 
L 963.756077 63.675157 
L 963.680453 63.758213 
L 963.593348 63.819149 
L 963.481647 63.882273 
L 963.390461 63.968283 
L 963.305662 64.04973 
L 963.209279 64.123659 
L 963.118851 64.169713 
L 963.033132 64.264234 
" style="fill:none;stroke:#ff7f0e;stroke-linecap:square;stroke-width:1.5;"/>
   </g>
   <g id="line2d_16">
    <path clip-path="url(#p37619a5774)" d="M 972 60.48 
L 971.963543 60.481711 
L 971.956891 60.481718 
L 971.932836 60.483451 
L 971.903084 60.483466 
L 971.85771 60.483479 
L 971.796482 60.486984 
L 971.700368 60.487005 
L 971.635511 60.488785 
L 971.54096 60.492333 
L 971.409514 60.499433 
L 971.280224 60.508337 
L 971.206146 60.511957 
L 971.14958 60.513818 
L 971.102663 60.513904 
L 971.043996 60.517564 
L 970.998646 60.526621 
L 970.973649 60.530328 
L 970.932068 60.532234 
L 970.910014 60.535969 
L 970.872216 60.541533 
L 970.85192 60.55074 
L 970.825417 60.556353 
L 970.804804 60.558347 
L 970.777533 60.562195 
L 970.751267 60.569717 
L 970.713916 60.571773 
L 970.69564 60.571983 
L 970.670899 60.574047 
L 970.662096 60.585355 
L 970.648316 60.592998 
L 970.634193 60.59513 
L 970.611138 60.595412 
L 970.600322 60.595665 
L 970.573224 60.597802 
L 970.539038 60.599972 
L 970.500545 60.604017 
L 970.470747 60.608105 
L 970.446 60.610346 
L 970.434214 60.612588 
L 970.416805 60.612941 
L 970.392348 60.61329 
L 970.369208 60.613648 
L 970.331895 60.61784 
L 970.293411 60.618217 
L 970.246028 60.618586 
L 970.211583 60.61894 
L 970.197623 60.621209 
L 970.183258 60.623515 
L 970.166213 60.62579 
L 970.15023 60.630047 
L 970.131142 60.6304 
L 970.100464 60.6308 
L 970.053485 60.635135 
L 970.036387 60.63557 
L 970.021814 60.641926 
L 969.993896 60.648335 
L 969.978967 60.654803 
L 969.960893 60.655292 
L 969.937079 60.655765 
L 969.921747 60.660297 
L 969.90601 60.660833 
L 969.890088 60.661388 
L 969.871007 60.668037 
L 969.833078 60.672695 
L 969.786828 60.675361 
L 969.765045 60.675978 
L 969.745043 60.678664 
L 969.724436 60.679249 
L 969.703943 60.683987 
L 969.685746 60.69497 
L 969.654725 60.701863 
L 969.616518 60.704656 
L 969.595861 60.709573 
L 969.575617 60.714467 
L 969.54337 60.715205 
L 969.510568 60.726453 
L 969.485748 60.731446 
L 969.443842 60.73443 
L 969.42335 60.739585 
L 969.40257 60.744824 
L 969.363202 60.752161 
L 969.322079 60.757477 
L 969.302013 60.760642 
L 969.277375 60.761657 
L 969.243874 60.766972 
L 969.204479 60.77463 
L 969.167516 60.782376 
L 969.127156 60.783612 
L 969.069706 60.79159 
L 969.029818 60.812922 
L 968.998424 60.816689 
L 968.968886 60.822811 
L 968.940876 60.831094 
L 968.911625 60.837383 
L 968.862643 60.848297 
L 968.828675 60.854791 
L 968.797667 60.866184 
L 968.770616 60.873049 
L 968.737443 60.875589 
L 968.707069 60.882833 
" style="fill:none;stroke:#2ca02c;stroke-linecap:square;stroke-width:1.5;"/>
   </g>
   <g id="line2d_17">
    <path clip-path="url(#p37619a5774)" d="M 972 60.48 
L 956.410852 69.382573 
L 941.567792 77.799951 
L 927.337757 85.65143 
L 913.682291 93.047834 
L 900.749312 99.897889 
L 888.347614 106.398185 
L 876.480872 112.561305 
L 865.241791 118.343023 
L 854.265521 123.835531 
L 843.636119 129.125295 
L 833.489877 133.885013 
L 823.693917 138.326717 
L 814.119185 142.482963 
L 804.848774 146.442226 
L 795.721382 150.238862 
L 786.915358 153.933314 
L 778.329761 157.438481 
L 769.785841 160.673495 
L 761.445552 163.793125 
L 753.35651 166.813281 
L 745.320625 169.727824 
L 737.475342 172.592902 
L 729.888162 175.361855 
L 722.2283 178.108071 
L 714.701086 180.875682 
L 707.29441 183.590593 
L 699.966029 186.167108 
L 692.759704 188.689458 
L 685.726577 191.213427 
L 678.832125 193.685524 
L 672.06209 196.043202 
L 665.415853 198.443303 
L 658.76559 200.713399 
L 652.284773 203.088571 
L 645.772396 205.424316 
L 639.390815 207.776439 
L 633.058535 210.195684 
L 626.863824 212.533792 
L 620.85396 214.768854 
L 614.7607 216.976934 
L 608.775394 219.229849 
L 602.914392 221.47118 
L 597.099946 223.741924 
L 591.420771 225.951598 
L 585.786802 228.128446 
L 580.239185 230.294076 
L 574.788838 232.391556 
L 569.45014 234.489024 
L 564.102498 236.523094 
L 558.925659 238.52625 
L 553.755398 240.549192 
L 548.732719 242.517586 
L 543.706996 244.454336 
L 538.740202 246.398915 
L 533.850532 248.339925 
L 529.040835 250.215177 
L 524.280718 252.009803 
L 519.528978 253.760651 
L 514.881125 255.459863 
L 510.313024 257.140592 
L 505.783885 258.772666 
L 501.278446 260.39941 
L 496.801252 262.046777 
L 492.41198 263.671983 
L 488.105638 265.273397 
L 483.878925 266.845581 
L 479.646903 268.401143 
L 475.474859 269.955292 
L 471.383507 271.480877 
L 467.342936 272.989892 
L 463.329718 274.509105 
L 459.318634 275.990661 
L 455.378059 277.451906 
L 451.531772 278.864186 
L 447.696565 280.253297 
L 443.911754 281.685834 
L 440.186965 283.089392 
L 436.549407 284.473612 
L 432.877822 285.876016 
L 429.267016 287.26495 
L 425.73437 288.652983 
L 422.206714 289.989039 
L 418.776272 291.321389 
L 415.343822 292.588359 
L 411.970943 293.850463 
L 408.611875 295.151133 
L 405.287114 296.422016 
L 402.045877 297.660553 
L 398.815751 298.921913 
L 395.641721 300.178285 
L 392.445744 301.442108 
L 389.348852 302.709075 
L 386.275378 303.92814 
L 383.155277 305.195082 
L 380.099385 306.452281 
L 377.040417 307.717005 
L 374.011225 308.998737 
L 371.035239 310.286248 
L 368.09192 311.585061 
L 365.171714 312.855096 
" style="fill:none;stroke:#d62728;stroke-linecap:square;stroke-width:1.5;"/>
   </g>
   <g id="line2d_18">
    <path clip-path="url(#p37619a5774)" d="M 972 60.48 
L 957.947046 68.561748 
L 944.482583 76.298293 
L 931.720901 83.554502 
L 919.615828 90.498601 
L 908.211092 97.004731 
L 897.45164 103.21734 
L 887.270091 109.228035 
L 877.663536 114.880711 
L 868.387834 120.22706 
L 859.429288 125.33615 
L 850.918765 130.00523 
L 842.788796 134.296175 
L 834.843796 138.283219 
L 827.132803 142.078686 
L 819.575334 145.712916 
L 812.270366 149.252676 
L 805.127704 152.587664 
L 798.00324 155.714067 
L 791.040772 158.698729 
L 784.268419 161.616509 
L 777.542202 164.447793 
L 770.963881 167.206887 
L 764.579703 169.884837 
L 758.079225 172.517756 
L 751.643281 175.148302 
L 745.268939 177.754443 
L 738.926546 180.236169 
L 732.630219 182.65119 
L 726.491446 185.119331 
L 720.425694 187.528132 
L 714.488262 189.794858 
L 708.642211 192.131174 
L 702.775696 194.364229 
L 697.052873 196.65128 
L 691.248869 198.930682 
L 685.530937 201.234451 
L 679.84015 203.562378 
L 674.25833 205.841374 
L 668.833581 208.037158 
L 663.339848 210.206653 
L 657.910218 212.447893 
L 652.560533 214.699212 
L 647.241283 216.948323 
L 642.000415 219.149205 
L 636.791353 221.317515 
L 631.636684 223.477246 
L 626.552989 225.59859 
L 621.564826 227.680984 
L 616.555264 229.742394 
L 611.695757 231.768419 
L 606.829835 233.812904 
L 602.091112 235.798208 
L 597.335613 237.763223 
L 592.600145 239.726114 
L 587.91961 241.694928 
L 583.297711 243.589796 
L 578.693127 245.424852 
L 574.093254 247.203827 
L 569.572159 248.915052 
L 565.130155 250.60193 
L 560.715885 252.237279 
L 556.313325 253.879289 
L 551.925599 255.554059 
L 547.618928 257.207584 
L 543.376006 258.85481 
L 539.20695 260.482085 
L 534.990944 262.082564 
L 530.80965 263.697105 
L 526.696802 265.292078 
L 522.631124 266.85563 
L 518.567528 268.423452 
L 514.488132 269.978536 
L 510.475176 271.523235 
L 506.548507 273.015418 
L 502.618474 274.505215 
L 498.727536 276.01716 
L 494.890631 277.50274 
L 491.13103 278.971125 
L 487.336055 280.466122 
L 483.598756 281.949387 
L 479.918895 283.421903 
L 476.260889 284.84276 
L 472.681513 286.26688 
L 469.113473 287.641682 
L 465.579515 289.013754 
L 462.063545 290.413539 
L 458.570342 291.775471 
L 455.154273 293.114421 
L 451.733647 294.48211 
L 448.36408 295.825187 
L 444.982915 297.203793 
L 441.695251 298.575152 
L 438.411064 299.913296 
L 435.076289 301.300292 
L 431.80292 302.670002 
L 428.51752 304.047894 
L 425.271322 305.451899 
L 422.067181 306.848154 
L 418.880679 308.236695 
L 415.7207 309.629225 
" style="fill:none;stroke:#9467bd;stroke-linecap:square;stroke-width:1.5;"/>
   </g>
   <g id="line2d_19">
    <path clip-path="url(#p37619a5774)" d="M 972 60.48 
L 959.572921 67.757174 
L 947.541773 74.728026 
L 936.115459 81.323226 
L 925.310825 87.672228 
L 915.083464 93.63613 
L 905.446691 99.315337 
L 896.256344 104.814815 
L 887.576707 110.003854 
L 879.262526 114.934942 
L 871.215869 119.663437 
L 863.566349 124.027455 
L 856.212622 128.018944 
L 849.063762 131.751551 
L 842.118601 135.292288 
L 835.288679 138.679116 
L 828.644377 141.994126 
L 822.143739 145.105165 
L 815.651415 148.03507 
L 809.307838 150.830233 
L 803.086219 153.565925 
L 796.947287 156.217716 
L 790.898575 158.801216 
L 784.972637 161.352001 
L 778.989603 163.857536 
L 773.076982 166.334113 
L 767.188642 168.794774 
L 761.308953 171.149361 
L 755.435072 173.45885 
L 749.713775 175.814319 
L 744.049248 178.139733 
L 738.503229 180.326053 
L 733.04448 182.551655 
L 727.528732 184.714887 
L 722.151735 186.914403 
L 716.716349 189.105553 
L 711.306853 191.313445 
L 705.932471 193.556908 
L 700.633991 195.759951 
L 695.494295 197.87873 
L 690.274257 199.972684 
L 685.092017 202.15049 
L 679.998032 204.353628 
L 674.931146 206.533686 
L 669.898725 208.667318 
L 664.900948 210.776612 
L 659.943687 212.867137 
L 655.027252 214.925951 
L 650.210741 216.962548 
L 645.366118 218.989972 
L 640.658417 220.986549 
L 635.949693 222.985673 
L 631.343128 224.939307 
L 626.700181 226.872475 
L 622.082742 228.804544 
L 617.494846 230.754248 
L 612.985728 232.631831 
L 608.474001 234.448172 
L 603.961923 236.223749 
L 599.518994 237.910675 
L 595.159965 239.574944 
L 590.825159 241.205445 
L 586.478378 242.838127 
L 582.169899 244.49335 
L 577.903652 246.136716 
L 573.702233 247.765216 
L 569.57377 249.372141 
L 565.382441 250.949111 
L 561.224702 252.546232 
L 557.115007 254.131597 
L 553.065063 255.685938 
L 548.988362 257.256888 
L 544.904437 258.809361 
L 540.877529 260.353748 
L 536.91873 261.860381 
L 532.964332 263.350836 
L 529.029451 264.873762 
L 525.157297 266.375037 
L 521.360533 267.854082 
L 517.517301 269.358933 
L 513.732999 270.849022 
L 509.982531 272.320669 
L 506.279154 273.743783 
L 502.626651 275.173385 
L 498.999566 276.563559 
L 495.396026 277.953547 
L 491.796306 279.361228 
L 488.228511 280.737738 
L 484.718473 282.084744 
L 481.202801 283.464457 
L 477.738895 284.826889 
L 474.269183 286.216432 
L 470.878414 287.589921 
L 467.487254 288.949834 
L 464.059029 290.341327 
L 460.681123 291.734035 
L 457.299744 293.120363 
L 453.939499 294.548685 
L 450.609212 295.960683 
L 447.310399 297.365228 
L 444.025695 298.773857 
" style="fill:none;stroke:#8c564b;stroke-linecap:square;stroke-width:1.5;"/>
   </g>
   <g id="line2d_20">
    <path clip-path="url(#p37619a5774)" d="M 972 60.48 
L 963.349614 65.55722 
L 954.929644 70.507535 
L 946.889055 75.275533 
L 939.331779 79.832952 
L 931.995845 84.202937 
L 925.074296 88.402808 
L 918.507099 92.502436 
L 912.247073 96.399126 
L 906.234514 100.142087 
L 900.380407 103.793264 
L 894.74245 107.165854 
L 889.325943 110.309984 
L 884.066221 113.236403 
L 878.948208 116.035613 
L 873.886941 118.753155 
L 868.873717 121.410147 
L 863.960023 123.932149 
L 859.093016 126.297729 
L 854.301903 128.554652 
L 849.607928 130.787115 
L 844.932103 132.966638 
L 840.285957 135.097691 
L 835.744421 137.206183 
L 831.098302 139.282898 
L 826.483456 141.352516 
L 821.878727 143.379094 
L 817.267803 145.319258 
L 812.639253 147.215882 
L 808.093297 149.179035 
L 803.568673 151.137181 
L 799.11402 152.999428 
L 794.692843 154.885203 
L 790.257741 156.722458 
L 785.87935 158.593231 
L 781.446481 160.454299 
L 777.00079 162.342419 
L 772.571761 164.263997 
L 768.179245 166.169233 
L 763.901506 168.01733 
L 759.555165 169.86718 
L 755.22154 171.796469 
L 750.898738 173.740369 
L 746.606582 175.681588 
L 742.330015 177.582938 
L 738.022787 179.45909 
L 733.784798 181.341674 
L 729.550421 183.205439 
L 725.386519 185.052631 
L 721.182115 186.911723 
L 717.080269 188.746964 
L 712.92311 190.587424 
L 708.864343 192.387652 
L 704.75073 194.183555 
L 700.625452 195.979285 
L 696.539334 197.785836 
L 692.468864 199.549508 
L 688.409892 201.266694 
L 684.319466 202.934792 
L 680.288526 204.533801 
L 676.330295 206.113943 
L 672.368852 207.639534 
L 668.378915 209.177365 
L 664.412588 210.73652 
L 660.473722 212.281114 
L 656.582168 213.823648 
L 652.732667 215.339896 
L 648.781225 216.819223 
L 644.874253 218.343267 
L 640.984248 219.854814 
L 637.133866 221.319872 
L 633.237104 222.818008 
L 629.347965 224.308001 
L 625.48058 225.803378 
L 621.677468 227.251328 
L 617.853966 228.70865 
L 614.028908 230.207207 
L 610.238835 231.682557 
L 606.513291 233.136371 
L 602.718051 234.624153 
L 598.985038 236.112869 
L 595.275219 237.576317 
L 591.575876 238.992196 
L 587.933499 240.415891 
L 584.30096 241.801301 
L 580.672778 243.201293 
L 577.045948 244.611374 
L 573.445136 245.986056 
L 569.85575 247.346973 
L 566.301708 248.736386 
L 562.744071 250.105129 
L 559.190849 251.505335 
L 555.712468 252.905324 
L 552.199047 254.295351 
L 548.624578 255.719849 
L 545.102599 257.145597 
L 541.578784 258.579456 
L 538.066909 260.047568 
L 534.563274 261.502008 
L 531.078987 262.960656 
L 527.580574 264.423668 
" style="fill:none;stroke:#e377c2;stroke-linecap:square;stroke-width:1.5;"/>
   </g>
   <g id="line2d_21">
    <path clip-path="url(#p37619a5774)" d="M 972 60.48 
L 963.611578 65.534344 
L 955.422838 70.416552 
L 947.621876 75.057142 
L 940.205792 79.542616 
L 933.158127 83.808708 
L 926.474614 87.956252 
L 920.126407 91.969911 
L 914.100427 95.812141 
L 908.25562 99.513458 
L 902.604024 103.067328 
L 897.18749 106.386882 
L 891.978593 109.442586 
L 886.899719 112.303622 
L 881.957241 115.068037 
L 877.056063 117.708688 
L 872.260137 120.298751 
L 867.563694 122.754897 
L 862.847487 125.07727 
L 858.230906 127.30311 
L 853.671999 129.478076 
L 849.131076 131.614357 
L 844.635736 133.70455 
L 840.257152 135.761601 
L 835.780001 137.809094 
L 831.308529 139.835125 
L 826.862751 141.848663 
L 822.382976 143.765284 
L 817.911871 145.663818 
L 813.486231 147.610711 
L 809.113572 149.532573 
L 804.819691 151.337077 
L 800.548908 153.20157 
L 796.240522 155.009713 
L 791.99968 156.855918 
L 787.703998 158.705768 
L 783.412532 160.576447 
L 779.127626 162.489226 
L 774.868704 164.361923 
L 770.712429 166.166643 
L 766.477071 167.973227 
L 762.272102 169.85447 
L 758.074122 171.758911 
L 753.895066 173.651464 
L 749.743752 175.512854 
L 745.562767 177.339664 
L 741.409794 179.182095 
L 737.264893 181.016816 
L 733.218432 182.835091 
L 729.118628 184.64222 
L 725.126871 186.435618 
L 721.093047 188.235196 
L 717.149261 190.003986 
L 713.135221 191.768646 
L 709.113232 193.526674 
L 705.123533 195.296278 
L 701.159307 197.022526 
L 697.175546 198.680606 
L 693.181765 200.308776 
L 689.240371 201.880393 
L 685.355512 203.412772 
L 681.465562 204.922056 
L 677.556962 206.429964 
L 673.671042 207.964623 
L 669.793322 209.481145 
L 665.971797 210.987074 
L 662.180566 212.486824 
L 658.307928 213.970206 
L 654.464621 215.467605 
L 650.627711 216.958196 
L 646.853072 218.429231 
L 643.047484 219.915402 
L 639.204311 221.393772 
L 635.395812 222.864928 
L 631.618 224.300078 
L 627.827301 225.737673 
L 624.051312 227.200779 
L 620.309651 228.652419 
L 616.621428 230.089595 
L 612.882567 231.557326 
L 609.165525 233.003219 
L 605.493919 234.451954 
L 601.846693 235.849132 
L 598.246235 237.255091 
L 594.656235 238.615569 
L 591.075828 239.990569 
L 587.49372 241.377826 
L 583.925132 242.737206 
L 580.390639 244.065186 
L 576.858806 245.425973 
L 573.343124 246.764147 
L 569.813632 248.13862 
L 566.362138 249.500312 
L 562.88852 250.847943 
L 559.362239 252.231624 
L 555.855894 253.626256 
L 552.342996 255.017246 
L 548.848512 256.447327 
L 545.361635 257.859808 
L 541.894704 259.272705 
L 538.436854 260.692436 
" style="fill:none;stroke:#7f7f7f;stroke-linecap:square;stroke-width:1.5;"/>
   </g>
   <g id="line2d_22">
    <path clip-path="url(#p37619a5774)" d="M 972 60.48 
L 964.851207 64.840474 
L 957.841045 69.060293 
L 951.160454 73.126718 
L 944.813585 77.02556 
L 938.752436 80.796972 
L 933.004679 84.440555 
L 927.539782 87.962066 
L 922.354485 91.34319 
L 917.356081 94.617145 
L 912.53838 97.78448 
L 907.892777 100.735027 
L 903.42299 103.475801 
L 899.095459 106.054979 
L 894.846327 108.533061 
L 890.627444 110.906944 
L 886.517934 113.238161 
L 882.46708 115.436476 
L 878.419018 117.510055 
L 874.421925 119.508267 
L 870.498068 121.463087 
L 866.577055 123.391983 
L 862.704209 125.273095 
L 858.923949 127.125749 
L 855.036115 128.969778 
L 851.154192 130.803344 
L 847.271939 132.631095 
L 843.362923 134.372509 
L 839.450696 136.093431 
L 835.573855 137.849162 
L 831.732168 139.613706 
L 827.973433 141.267377 
L 824.216024 142.962506 
L 820.430347 144.615779 
L 816.695814 146.304102 
L 812.906899 148.008265 
L 809.108259 149.72675 
L 805.298939 151.482264 
L 801.512095 153.216745 
L 797.824573 154.888414 
L 794.081484 156.545371 
L 790.335844 158.282159 
L 786.596938 160.042843 
L 782.868591 161.822521 
L 779.144005 163.560949 
L 775.383461 165.276139 
L 771.644076 167.006285 
L 767.912353 168.724537 
L 764.240215 170.414197 
L 760.549861 172.122085 
L 756.940287 173.804762 
L 753.276012 175.499199 
L 749.695326 177.169068 
L 746.036994 178.814821 
L 742.372362 180.476265 
L 738.728602 182.139884 
L 735.095325 183.777999 
L 731.438979 185.356353 
L 727.775869 186.899047 
L 724.139076 188.38513 
L 720.548213 189.842496 
L 716.958951 191.280519 
L 713.327732 192.715333 
L 709.718657 194.176765 
L 706.135451 195.620566 
L 702.58568 197.052144 
L 699.054357 198.479338 
L 695.435537 199.890571 
L 691.833431 201.313791 
L 688.240891 202.734607 
L 684.682545 204.142118 
L 681.096367 205.56077 
L 677.468174 206.969493 
L 673.874958 208.367377 
L 670.323982 209.745731 
L 666.752542 211.136354 
L 663.153646 212.547855 
L 659.608165 213.954942 
L 656.076494 215.33458 
L 652.510155 216.747898 
L 648.970427 218.151293 
L 645.451185 219.559615 
L 641.956124 220.923401 
L 638.493428 222.278685 
L 635.03429 223.601874 
L 631.592416 224.939874 
L 628.147018 226.291933 
L 624.696812 227.610922 
L 621.27338 228.905412 
L 617.856217 230.232397 
L 614.444406 231.542817 
L 611.016029 232.882735 
L 607.659206 234.212417 
L 604.271856 235.532475 
L 600.848 236.882133 
L 597.431693 238.241164 
L 593.988069 239.610394 
L 590.568031 241.022032 
L 587.136114 242.408722 
L 583.724081 243.795498 
L 580.31724 245.192939 
" style="fill:none;stroke:#bcbd22;stroke-linecap:square;stroke-width:1.5;"/>
   </g>
   <g id="line2d_23">
    <path clip-path="url(#p37619a5774)" d="M 972 60.48 
L 969.491302 61.298127 
L 967.029082 62.13222 
L 964.772329 62.980915 
L 962.707526 63.823988 
L 960.8228 64.681617 
L 959.162707 65.588663 
L 957.665323 66.507722 
L 956.27673 67.397315 
L 955.01247 68.297286 
L 953.815464 69.156829 
L 952.73406 69.989476 
L 951.779444 70.718409 
L 950.872671 71.383896 
L 949.997546 72.052983 
L 949.189514 72.683486 
L 948.400476 73.292559 
L 947.638688 73.85735 
L 946.899055 74.407925 
L 946.193894 74.955498 
L 945.517803 75.481917 
L 944.88818 76.022565 
L 944.262065 76.534138 
L 943.657987 77.047544 
L 943.037146 77.559356 
L 942.390493 78.065507 
L 941.727131 78.547432 
L 941.031011 79.018086 
L 940.322755 79.480656 
L 939.643815 79.995596 
L 938.970103 80.53071 
L 938.333911 80.998872 
L 937.721681 81.482899 
L 937.097588 81.966389 
L 936.486802 82.448689 
L 935.833744 82.967497 
L 935.15413 83.48467 
L 934.484981 84.007755 
L 933.838573 84.5389 
L 933.231555 85.062692 
L 932.645498 85.569819 
L 932.042554 86.133029 
L 931.413585 86.737281 
L 930.78491 87.340903 
L 930.122072 87.963962 
L 929.44995 88.541957 
L 928.781517 89.153534 
L 928.111898 89.785313 
L 927.462727 90.39743 
L 926.833449 91.029515 
L 926.214131 91.693248 
L 925.583852 92.354449 
L 924.986302 93.020665 
L 924.355272 93.713957 
L 923.711512 94.386099 
L 923.068091 95.090116 
L 922.401583 95.782803 
L 921.713774 96.482156 
L 921.016616 97.145108 
L 920.332709 97.757911 
L 919.668379 98.359449 
L 919.019044 98.981463 
L 918.367175 99.636993 
L 917.709514 100.309005 
L 917.05079 100.979143 
L 916.398076 101.654335 
L 915.759246 102.339578 
L 915.086734 103.023726 
L 914.390962 103.722389 
L 913.700555 104.443761 
L 912.974863 105.149087 
L 912.247717 105.872983 
L 911.501001 106.631342 
L 910.744 107.38844 
L 910.014849 108.12646 
L 909.259382 108.911821 
L 908.502965 109.707632 
L 907.763882 110.508548 
L 907.028941 111.335572 
L 906.290891 112.192949 
L 905.534733 113.071158 
L 904.785394 113.971401 
L 904.061544 114.840649 
L 903.358165 115.735713 
L 902.672788 116.645849 
L 901.985535 117.557528 
L 901.308159 118.471981 
L 900.626377 119.365762 
L 899.927557 120.276875 
L 899.241724 121.239587 
L 898.546288 122.172583 
L 897.846782 123.158638 
L 897.182573 124.150398 
L 896.493562 125.1415 
L 895.785896 126.169686 
L 895.066967 127.208196 
L 894.33349 128.296915 
L 893.594941 129.434971 
L 892.844782 130.551396 
L 892.078486 131.689221 
L 891.329301 132.860393 
" style="fill:none;stroke:#17becf;stroke-linecap:square;stroke-width:1.5;"/>
   </g>
   <g id="patch_3">
    <path d="M 135 448.56 
L 135 60.48 
" style="fill:none;stroke:#000000;stroke-linecap:square;stroke-linejoin:miter;stroke-width:0.8;"/>
   </g>
   <g id="patch_4">
    <path d="M 972 448.56 
L 972 60.48 
" style="fill:none;stroke:#000000;stroke-linecap:square;stroke-linejoin:miter;stroke-width:0.8;"/>
   </g>
   <g id="patch_5">
    <path d="M 135 448.56 
L 972 448.56 
" style="fill:none;stroke:#000000;stroke-linecap:square;stroke-linejoin:miter;stroke-width:0.8;"/>
   </g>
   <g id="patch_6">
    <path d="M 135 60.48 
L 972 60.48 
" style="fill:none;stroke:#000000;stroke-linecap:square;stroke-linejoin:miter;stroke-width:0.8;"/>
   </g>
   <g id="legend_1">
    <g id="patch_7">
     <path d="M 147.6 339.08625 
L 256.730625 339.08625 
Q 260.330625 339.08625 260.330625 335.48625 
L 260.330625 73.08 
Q 260.330625 69.48 256.730625 69.48 
L 147.6 69.48 
Q 144 69.48 144 73.08 
L 144 335.48625 
Q 144 339.08625 147.6 339.08625 
z
" style="fill:#ffffff;opacity:0.8;stroke:#cccccc;stroke-linejoin:miter;"/>
    </g>
    <g id="line2d_24">
     <path d="M 151.2 84.057188 
L 187.2 84.057188 
" style="fill:none;stroke:#1f77b4;stroke-linecap:square;stroke-width:1.5;"/>
    </g>
    <g id="line2d_25"/>
    <g id="text_15">
     <!-- 0.001 -->
     <g transform="translate(201.6 90.357188)scale(0.18 -0.18)">
      <use xlink:href="#DejaVuSans-30"/>
      <use x="63.623047" xlink:href="#DejaVuSans-2e"/>
      <use x="95.410156" xlink:href="#DejaVuSans-30"/>
      <use x="159.033203" xlink:href="#DejaVuSans-30"/>
      <use x="222.65625" xlink:href="#DejaVuSans-31"/>
     </g>
    </g>
    <g id="line2d_26">
     <path d="M 151.2 110.477812 
L 187.2 110.477812 
" style="fill:none;stroke:#ff7f0e;stroke-linecap:square;stroke-width:1.5;"/>
    </g>
    <g id="line2d_27"/>
    <g id="text_16">
     <!-- 0.011 -->
     <g transform="translate(201.6 116.777812)scale(0.18 -0.18)">
      <use xlink:href="#DejaVuSans-30"/>
      <use x="63.623047" xlink:href="#DejaVuSans-2e"/>
      <use x="95.410156" xlink:href="#DejaVuSans-30"/>
      <use x="159.033203" xlink:href="#DejaVuSans-31"/>
      <use x="222.65625" xlink:href="#DejaVuSans-31"/>
     </g>
    </g>
    <g id="line2d_28">
     <path d="M 151.2 136.898438 
L 187.2 136.898438 
" style="fill:none;stroke:#2ca02c;stroke-linecap:square;stroke-width:1.5;"/>
    </g>
    <g id="line2d_29"/>
    <g id="text_17">
     <!-- 0.021 -->
     <g transform="translate(201.6 143.198438)scale(0.18 -0.18)">
      <use xlink:href="#DejaVuSans-30"/>
      <use x="63.623047" xlink:href="#DejaVuSans-2e"/>
      <use x="95.410156" xlink:href="#DejaVuSans-30"/>
      <use x="159.033203" xlink:href="#DejaVuSans-32"/>
      <use x="222.65625" xlink:href="#DejaVuSans-31"/>
     </g>
    </g>
    <g id="line2d_30">
     <path d="M 151.2 163.319062 
L 187.2 163.319062 
" style="fill:none;stroke:#d62728;stroke-linecap:square;stroke-width:1.5;"/>
    </g>
    <g id="line2d_31"/>
    <g id="text_18">
     <!-- 0.031 -->
     <g transform="translate(201.6 169.619062)scale(0.18 -0.18)">
      <defs>
       <path d="M 2597 2516 
Q 3050 2419 3304 2112 
Q 3559 1806 3559 1356 
Q 3559 666 3084 287 
Q 2609 -91 1734 -91 
Q 1441 -91 1130 -33 
Q 819 25 488 141 
L 488 750 
Q 750 597 1062 519 
Q 1375 441 1716 441 
Q 2309 441 2620 675 
Q 2931 909 2931 1356 
Q 2931 1769 2642 2001 
Q 2353 2234 1838 2234 
L 1294 2234 
L 1294 2753 
L 1863 2753 
Q 2328 2753 2575 2939 
Q 2822 3125 2822 3475 
Q 2822 3834 2567 4026 
Q 2313 4219 1838 4219 
Q 1578 4219 1281 4162 
Q 984 4106 628 3988 
L 628 4550 
Q 988 4650 1302 4700 
Q 1616 4750 1894 4750 
Q 2613 4750 3031 4423 
Q 3450 4097 3450 3541 
Q 3450 3153 3228 2886 
Q 3006 2619 2597 2516 
z
" id="DejaVuSans-33" transform="scale(0.015625)"/>
      </defs>
      <use xlink:href="#DejaVuSans-30"/>
      <use x="63.623047" xlink:href="#DejaVuSans-2e"/>
      <use x="95.410156" xlink:href="#DejaVuSans-30"/>
      <use x="159.033203" xlink:href="#DejaVuSans-33"/>
      <use x="222.65625" xlink:href="#DejaVuSans-31"/>
     </g>
    </g>
    <g id="line2d_32">
     <path d="M 151.2 189.739688 
L 187.2 189.739688 
" style="fill:none;stroke:#9467bd;stroke-linecap:square;stroke-width:1.5;"/>
    </g>
    <g id="line2d_33"/>
    <g id="text_19">
     <!-- 0.041 -->
     <g transform="translate(201.6 196.039688)scale(0.18 -0.18)">
      <use xlink:href="#DejaVuSans-30"/>
      <use x="63.623047" xlink:href="#DejaVuSans-2e"/>
      <use x="95.410156" xlink:href="#DejaVuSans-30"/>
      <use x="159.033203" xlink:href="#DejaVuSans-34"/>
      <use x="222.65625" xlink:href="#DejaVuSans-31"/>
     </g>
    </g>
    <g id="line2d_34">
     <path d="M 151.2 216.160312 
L 187.2 216.160312 
" style="fill:none;stroke:#8c564b;stroke-linecap:square;stroke-width:1.5;"/>
    </g>
    <g id="line2d_35"/>
    <g id="text_20">
     <!-- 0.051 -->
     <g transform="translate(201.6 222.460312)scale(0.18 -0.18)">
      <defs>
       <path d="M 691 4666 
L 3169 4666 
L 3169 4134 
L 1269 4134 
L 1269 2991 
Q 1406 3038 1543 3061 
Q 1681 3084 1819 3084 
Q 2600 3084 3056 2656 
Q 3513 2228 3513 1497 
Q 3513 744 3044 326 
Q 2575 -91 1722 -91 
Q 1428 -91 1123 -41 
Q 819 9 494 109 
L 494 744 
Q 775 591 1075 516 
Q 1375 441 1709 441 
Q 2250 441 2565 725 
Q 2881 1009 2881 1497 
Q 2881 1984 2565 2268 
Q 2250 2553 1709 2553 
Q 1456 2553 1204 2497 
Q 953 2441 691 2322 
L 691 4666 
z
" id="DejaVuSans-35" transform="scale(0.015625)"/>
      </defs>
      <use xlink:href="#DejaVuSans-30"/>
      <use x="63.623047" xlink:href="#DejaVuSans-2e"/>
      <use x="95.410156" xlink:href="#DejaVuSans-30"/>
      <use x="159.033203" xlink:href="#DejaVuSans-35"/>
      <use x="222.65625" xlink:href="#DejaVuSans-31"/>
     </g>
    </g>
    <g id="line2d_36">
     <path d="M 151.2 242.580937 
L 187.2 242.580937 
" style="fill:none;stroke:#e377c2;stroke-linecap:square;stroke-width:1.5;"/>
    </g>
    <g id="line2d_37"/>
    <g id="text_21">
     <!-- 0.061 -->
     <g transform="translate(201.6 248.880937)scale(0.18 -0.18)">
      <use xlink:href="#DejaVuSans-30"/>
      <use x="63.623047" xlink:href="#DejaVuSans-2e"/>
      <use x="95.410156" xlink:href="#DejaVuSans-30"/>
      <use x="159.033203" xlink:href="#DejaVuSans-36"/>
      <use x="222.65625" xlink:href="#DejaVuSans-31"/>
     </g>
    </g>
    <g id="line2d_38">
     <path d="M 151.2 269.001562 
L 187.2 269.001562 
" style="fill:none;stroke:#7f7f7f;stroke-linecap:square;stroke-width:1.5;"/>
    </g>
    <g id="line2d_39"/>
    <g id="text_22">
     <!-- 0.071 -->
     <g transform="translate(201.6 275.301562)scale(0.18 -0.18)">
      <defs>
       <path d="M 525 4666 
L 3525 4666 
L 3525 4397 
L 1831 0 
L 1172 0 
L 2766 4134 
L 525 4134 
L 525 4666 
z
" id="DejaVuSans-37" transform="scale(0.015625)"/>
      </defs>
      <use xlink:href="#DejaVuSans-30"/>
      <use x="63.623047" xlink:href="#DejaVuSans-2e"/>
      <use x="95.410156" xlink:href="#DejaVuSans-30"/>
      <use x="159.033203" xlink:href="#DejaVuSans-37"/>
      <use x="222.65625" xlink:href="#DejaVuSans-31"/>
     </g>
    </g>
    <g id="line2d_40">
     <path d="M 151.2 295.422188 
L 187.2 295.422188 
" style="fill:none;stroke:#bcbd22;stroke-linecap:square;stroke-width:1.5;"/>
    </g>
    <g id="line2d_41"/>
    <g id="text_23">
     <!-- 0.081 -->
     <g transform="translate(201.6 301.722188)scale(0.18 -0.18)">
      <use xlink:href="#DejaVuSans-30"/>
      <use x="63.623047" xlink:href="#DejaVuSans-2e"/>
      <use x="95.410156" xlink:href="#DejaVuSans-30"/>
      <use x="159.033203" xlink:href="#DejaVuSans-38"/>
      <use x="222.65625" xlink:href="#DejaVuSans-31"/>
     </g>
    </g>
    <g id="line2d_42">
     <path d="M 151.2 321.842812 
L 187.2 321.842812 
" style="fill:none;stroke:#17becf;stroke-linecap:square;stroke-width:1.5;"/>
    </g>
    <g id="line2d_43"/>
    <g id="text_24">
     <!-- 0.091 -->
     <g transform="translate(201.6 328.142812)scale(0.18 -0.18)">
      <defs>
       <path d="M 703 97 
L 703 672 
Q 941 559 1184 500 
Q 1428 441 1663 441 
Q 2288 441 2617 861 
Q 2947 1281 2994 2138 
Q 2813 1869 2534 1725 
Q 2256 1581 1919 1581 
Q 1219 1581 811 2004 
Q 403 2428 403 3163 
Q 403 3881 828 4315 
Q 1253 4750 1959 4750 
Q 2769 4750 3195 4129 
Q 3622 3509 3622 2328 
Q 3622 1225 3098 567 
Q 2575 -91 1691 -91 
Q 1453 -91 1209 -44 
Q 966 3 703 97 
z
M 1959 2075 
Q 2384 2075 2632 2365 
Q 2881 2656 2881 3163 
Q 2881 3666 2632 3958 
Q 2384 4250 1959 4250 
Q 1534 4250 1286 3958 
Q 1038 3666 1038 3163 
Q 1038 2656 1286 2365 
Q 1534 2075 1959 2075 
z
" id="DejaVuSans-39" transform="scale(0.015625)"/>
      </defs>
      <use xlink:href="#DejaVuSans-30"/>
      <use x="63.623047" xlink:href="#DejaVuSans-2e"/>
      <use x="95.410156" xlink:href="#DejaVuSans-30"/>
      <use x="159.033203" xlink:href="#DejaVuSans-39"/>
      <use x="222.65625" xlink:href="#DejaVuSans-31"/>
     </g>
    </g>
   </g>
  </g>
 </g>
 <defs>
  <clipPath id="p37619a5774">
   <rect height="388.08" width="837" x="135" y="60.48"/>
  </clipPath>
 </defs>
</svg>
