<?xml version="1.0" encoding="utf-8" standalone="no"?>
<!DOCTYPE svg PUBLIC "-//W3C//DTD SVG 1.1//EN"
  "http://www.w3.org/Graphics/SVG/1.1/DTD/svg11.dtd">
<svg height="504pt" version="1.1" viewBox="0 0 1080 504" width="1080pt" xmlns="http://www.w3.org/2000/svg" xmlns:xlink="http://www.w3.org/1999/xlink">
 <metadata>
  <rdf:RDF xmlns:cc="http://creativecommons.org/ns#" xmlns:dc="http://purl.org/dc/elements/1.1/" xmlns:rdf="http://www.w3.org/1999/02/22-rdf-syntax-ns#">
   <cc:Work>
    <dc:type rdf:resource="http://purl.org/dc/dcmitype/StillImage"/>
    <dc:date>2022-01-07T13:25:02.463848</dc:date>
    <dc:format>image/svg+xml</dc:format>
    <dc:creator>
     <cc:Agent>
      <dc:title>Matplotlib v3.4.3, https://matplotlib.org/</dc:title>
     </cc:Agent>
    </dc:creator>
   </cc:Work>
  </rdf:RDF>
 </metadata>
 <defs>
  <style type="text/css">*{stroke-linecap:butt;stroke-linejoin:round;}</style>
 </defs>
 <g id="figure_1">
  <g id="patch_1">
   <path d="M 0 504 
L 1080 504 
L 1080 0 
L 0 0 
z
" style="fill:#ffffff;"/>
  </g>
  <g id="axes_1">
   <g id="patch_2">
    <path d="M 135 448.56 
L 972 448.56 
L 972 60.48 
L 135 60.48 
z
" style="fill:#ffffff;"/>
   </g>
   <g id="matplotlib.axis_1">
    <g id="xtick_1">
     <g id="line2d_1">
      <defs>
       <path d="M 0 0 
L 0 3.5 
" id="m0bda4526e4" style="stroke:#000000;stroke-width:0.8;"/>
      </defs>
      <g>
       <use style="stroke:#000000;stroke-width:0.8;" x="135" xlink:href="#m0bda4526e4" y="448.56"/>
      </g>
     </g>
     <g id="text_1">
      <!-- 0.0 -->
      <g transform="translate(120.687187 469.237188)scale(0.18 -0.18)">
       <defs>
        <path d="M 2034 4250 
Q 1547 4250 1301 3770 
Q 1056 3291 1056 2328 
Q 1056 1369 1301 889 
Q 1547 409 2034 409 
Q 2525 409 2770 889 
Q 3016 1369 3016 2328 
Q 3016 3291 2770 3770 
Q 2525 4250 2034 4250 
z
M 2034 4750 
Q 2819 4750 3233 4129 
Q 3647 3509 3647 2328 
Q 3647 1150 3233 529 
Q 2819 -91 2034 -91 
Q 1250 -91 836 529 
Q 422 1150 422 2328 
Q 422 3509 836 4129 
Q 1250 4750 2034 4750 
z
" id="DejaVuSans-30" transform="scale(0.015625)"/>
        <path d="M 684 794 
L 1344 794 
L 1344 0 
L 684 0 
L 684 794 
z
" id="DejaVuSans-2e" transform="scale(0.015625)"/>
       </defs>
       <use xlink:href="#DejaVuSans-30"/>
       <use x="63.623047" xlink:href="#DejaVuSans-2e"/>
       <use x="95.410156" xlink:href="#DejaVuSans-30"/>
      </g>
     </g>
    </g>
    <g id="xtick_2">
     <g id="line2d_2">
      <g>
       <use style="stroke:#000000;stroke-width:0.8;" x="302.4" xlink:href="#m0bda4526e4" y="448.56"/>
      </g>
     </g>
     <g id="text_2">
      <!-- 0.2 -->
      <g transform="translate(288.087187 469.237188)scale(0.18 -0.18)">
       <defs>
        <path d="M 1228 531 
L 3431 531 
L 3431 0 
L 469 0 
L 469 531 
Q 828 903 1448 1529 
Q 2069 2156 2228 2338 
Q 2531 2678 2651 2914 
Q 2772 3150 2772 3378 
Q 2772 3750 2511 3984 
Q 2250 4219 1831 4219 
Q 1534 4219 1204 4116 
Q 875 4013 500 3803 
L 500 4441 
Q 881 4594 1212 4672 
Q 1544 4750 1819 4750 
Q 2544 4750 2975 4387 
Q 3406 4025 3406 3419 
Q 3406 3131 3298 2873 
Q 3191 2616 2906 2266 
Q 2828 2175 2409 1742 
Q 1991 1309 1228 531 
z
" id="DejaVuSans-32" transform="scale(0.015625)"/>
       </defs>
       <use xlink:href="#DejaVuSans-30"/>
       <use x="63.623047" xlink:href="#DejaVuSans-2e"/>
       <use x="95.410156" xlink:href="#DejaVuSans-32"/>
      </g>
     </g>
    </g>
    <g id="xtick_3">
     <g id="line2d_3">
      <g>
       <use style="stroke:#000000;stroke-width:0.8;" x="469.8" xlink:href="#m0bda4526e4" y="448.56"/>
      </g>
     </g>
     <g id="text_3">
      <!-- 0.4 -->
      <g transform="translate(455.487188 469.237188)scale(0.18 -0.18)">
       <defs>
        <path d="M 2419 4116 
L 825 1625 
L 2419 1625 
L 2419 4116 
z
M 2253 4666 
L 3047 4666 
L 3047 1625 
L 3713 1625 
L 3713 1100 
L 3047 1100 
L 3047 0 
L 2419 0 
L 2419 1100 
L 313 1100 
L 313 1709 
L 2253 4666 
z
" id="DejaVuSans-34" transform="scale(0.015625)"/>
       </defs>
       <use xlink:href="#DejaVuSans-30"/>
       <use x="63.623047" xlink:href="#DejaVuSans-2e"/>
       <use x="95.410156" xlink:href="#DejaVuSans-34"/>
      </g>
     </g>
    </g>
    <g id="xtick_4">
     <g id="line2d_4">
      <g>
       <use style="stroke:#000000;stroke-width:0.8;" x="637.2" xlink:href="#m0bda4526e4" y="448.56"/>
      </g>
     </g>
     <g id="text_4">
      <!-- 0.6 -->
      <g transform="translate(622.887188 469.237188)scale(0.18 -0.18)">
       <defs>
        <path d="M 2113 2584 
Q 1688 2584 1439 2293 
Q 1191 2003 1191 1497 
Q 1191 994 1439 701 
Q 1688 409 2113 409 
Q 2538 409 2786 701 
Q 3034 994 3034 1497 
Q 3034 2003 2786 2293 
Q 2538 2584 2113 2584 
z
M 3366 4563 
L 3366 3988 
Q 3128 4100 2886 4159 
Q 2644 4219 2406 4219 
Q 1781 4219 1451 3797 
Q 1122 3375 1075 2522 
Q 1259 2794 1537 2939 
Q 1816 3084 2150 3084 
Q 2853 3084 3261 2657 
Q 3669 2231 3669 1497 
Q 3669 778 3244 343 
Q 2819 -91 2113 -91 
Q 1303 -91 875 529 
Q 447 1150 447 2328 
Q 447 3434 972 4092 
Q 1497 4750 2381 4750 
Q 2619 4750 2861 4703 
Q 3103 4656 3366 4563 
z
" id="DejaVuSans-36" transform="scale(0.015625)"/>
       </defs>
       <use xlink:href="#DejaVuSans-30"/>
       <use x="63.623047" xlink:href="#DejaVuSans-2e"/>
       <use x="95.410156" xlink:href="#DejaVuSans-36"/>
      </g>
     </g>
    </g>
    <g id="xtick_5">
     <g id="line2d_5">
      <g>
       <use style="stroke:#000000;stroke-width:0.8;" x="804.6" xlink:href="#m0bda4526e4" y="448.56"/>
      </g>
     </g>
     <g id="text_5">
      <!-- 0.8 -->
      <g transform="translate(790.287188 469.237188)scale(0.18 -0.18)">
       <defs>
        <path d="M 2034 2216 
Q 1584 2216 1326 1975 
Q 1069 1734 1069 1313 
Q 1069 891 1326 650 
Q 1584 409 2034 409 
Q 2484 409 2743 651 
Q 3003 894 3003 1313 
Q 3003 1734 2745 1975 
Q 2488 2216 2034 2216 
z
M 1403 2484 
Q 997 2584 770 2862 
Q 544 3141 544 3541 
Q 544 4100 942 4425 
Q 1341 4750 2034 4750 
Q 2731 4750 3128 4425 
Q 3525 4100 3525 3541 
Q 3525 3141 3298 2862 
Q 3072 2584 2669 2484 
Q 3125 2378 3379 2068 
Q 3634 1759 3634 1313 
Q 3634 634 3220 271 
Q 2806 -91 2034 -91 
Q 1263 -91 848 271 
Q 434 634 434 1313 
Q 434 1759 690 2068 
Q 947 2378 1403 2484 
z
M 1172 3481 
Q 1172 3119 1398 2916 
Q 1625 2713 2034 2713 
Q 2441 2713 2670 2916 
Q 2900 3119 2900 3481 
Q 2900 3844 2670 4047 
Q 2441 4250 2034 4250 
Q 1625 4250 1398 4047 
Q 1172 3844 1172 3481 
z
" id="DejaVuSans-38" transform="scale(0.015625)"/>
       </defs>
       <use xlink:href="#DejaVuSans-30"/>
       <use x="63.623047" xlink:href="#DejaVuSans-2e"/>
       <use x="95.410156" xlink:href="#DejaVuSans-38"/>
      </g>
     </g>
    </g>
    <g id="xtick_6">
     <g id="line2d_6">
      <g>
       <use style="stroke:#000000;stroke-width:0.8;" x="972" xlink:href="#m0bda4526e4" y="448.56"/>
      </g>
     </g>
     <g id="text_6">
      <!-- 1.0 -->
      <g transform="translate(957.687188 469.237188)scale(0.18 -0.18)">
       <defs>
        <path d="M 794 531 
L 1825 531 
L 1825 4091 
L 703 3866 
L 703 4441 
L 1819 4666 
L 2450 4666 
L 2450 531 
L 3481 531 
L 3481 0 
L 794 0 
L 794 531 
z
" id="DejaVuSans-31" transform="scale(0.015625)"/>
       </defs>
       <use xlink:href="#DejaVuSans-31"/>
       <use x="63.623047" xlink:href="#DejaVuSans-2e"/>
       <use x="95.410156" xlink:href="#DejaVuSans-30"/>
      </g>
     </g>
    </g>
    <g id="text_7">
     <!-- $FPR_{Fair}$ -->
     <g transform="translate(518.08 493.697187)scale(0.22 -0.22)">
      <defs>
       <path d="M 1081 4666 
L 3756 4666 
L 3653 4134 
L 1606 4134 
L 1338 2759 
L 3188 2759 
L 3084 2228 
L 1234 2228 
L 800 0 
L 172 0 
L 1081 4666 
z
" id="DejaVuSans-Oblique-46" transform="scale(0.015625)"/>
       <path d="M 1081 4666 
L 2541 4666 
Q 3178 4666 3512 4369 
Q 3847 4072 3847 3500 
Q 3847 2731 3353 2303 
Q 2859 1875 1966 1875 
L 1172 1875 
L 806 0 
L 172 0 
L 1081 4666 
z
M 1613 4147 
L 1275 2394 
L 2069 2394 
Q 2606 2394 2893 2669 
Q 3181 2944 3181 3456 
Q 3181 3784 2986 3965 
Q 2791 4147 2438 4147 
L 1613 4147 
z
" id="DejaVuSans-Oblique-50" transform="scale(0.015625)"/>
       <path d="M 1613 4147 
L 1294 2491 
L 2106 2491 
Q 2584 2491 2879 2755 
Q 3175 3019 3175 3444 
Q 3175 3784 2976 3965 
Q 2778 4147 2406 4147 
L 1613 4147 
z
M 2772 2241 
Q 2972 2194 3105 2009 
Q 3238 1825 3413 1275 
L 3809 0 
L 3144 0 
L 2778 1197 
Q 2638 1659 2453 1815 
Q 2269 1972 1888 1972 
L 1191 1972 
L 806 0 
L 172 0 
L 1081 4666 
L 2503 4666 
Q 3150 4666 3495 4373 
Q 3841 4081 3841 3531 
Q 3841 3044 3547 2687 
Q 3253 2331 2772 2241 
z
" id="DejaVuSans-Oblique-52" transform="scale(0.015625)"/>
       <path d="M 3438 1997 
L 3047 0 
L 2472 0 
L 2578 531 
Q 2325 219 2001 64 
Q 1678 -91 1281 -91 
Q 834 -91 548 182 
Q 263 456 263 884 
Q 263 1497 752 1853 
Q 1241 2209 2100 2209 
L 2900 2209 
L 2931 2363 
Q 2938 2388 2941 2417 
Q 2944 2447 2944 2509 
Q 2944 2788 2717 2942 
Q 2491 3097 2081 3097 
Q 1800 3097 1504 3025 
Q 1209 2953 897 2809 
L 997 3341 
Q 1322 3463 1633 3523 
Q 1944 3584 2234 3584 
Q 2853 3584 3176 3315 
Q 3500 3047 3500 2534 
Q 3500 2431 3484 2292 
Q 3469 2153 3438 1997 
z
M 2816 1759 
L 2241 1759 
Q 1534 1759 1195 1570 
Q 856 1381 856 984 
Q 856 709 1029 553 
Q 1203 397 1509 397 
Q 1978 397 2328 733 
Q 2678 1069 2791 1631 
L 2816 1759 
z
" id="DejaVuSans-Oblique-61" transform="scale(0.015625)"/>
       <path d="M 1172 4863 
L 1747 4863 
L 1606 4134 
L 1031 4134 
L 1172 4863 
z
M 909 3500 
L 1484 3500 
L 800 0 
L 225 0 
L 909 3500 
z
" id="DejaVuSans-Oblique-69" transform="scale(0.015625)"/>
       <path d="M 2853 2969 
Q 2766 3016 2653 3041 
Q 2541 3066 2413 3066 
Q 1953 3066 1609 2717 
Q 1266 2369 1153 1784 
L 800 0 
L 225 0 
L 909 3500 
L 1484 3500 
L 1375 2956 
Q 1603 3259 1920 3421 
Q 2238 3584 2597 3584 
Q 2691 3584 2781 3573 
Q 2872 3563 2963 3538 
L 2853 2969 
z
" id="DejaVuSans-Oblique-72" transform="scale(0.015625)"/>
      </defs>
      <use transform="translate(0 0.09375)" xlink:href="#DejaVuSans-Oblique-46"/>
      <use transform="translate(57.519531 0.09375)" xlink:href="#DejaVuSans-Oblique-50"/>
      <use transform="translate(117.822266 0.09375)" xlink:href="#DejaVuSans-Oblique-52"/>
      <use transform="translate(187.304688 -16.3125)scale(0.7)" xlink:href="#DejaVuSans-Oblique-46"/>
      <use transform="translate(227.568359 -16.3125)scale(0.7)" xlink:href="#DejaVuSans-Oblique-61"/>
      <use transform="translate(270.463867 -16.3125)scale(0.7)" xlink:href="#DejaVuSans-Oblique-69"/>
      <use transform="translate(289.912109 -16.3125)scale(0.7)" xlink:href="#DejaVuSans-Oblique-72"/>
     </g>
    </g>
   </g>
   <g id="matplotlib.axis_2">
    <g id="ytick_1">
     <g id="line2d_7">
      <defs>
       <path d="M 0 0 
L -3.5 0 
" id="m1eff95d4cd" style="stroke:#000000;stroke-width:0.8;"/>
      </defs>
      <g>
       <use style="stroke:#000000;stroke-width:0.8;" x="135" xlink:href="#m1eff95d4cd" y="448.56"/>
      </g>
     </g>
     <g id="text_8">
      <!-- 0.0 -->
      <g transform="translate(99.374375 455.398594)scale(0.18 -0.18)">
       <use xlink:href="#DejaVuSans-30"/>
       <use x="63.623047" xlink:href="#DejaVuSans-2e"/>
       <use x="95.410156" xlink:href="#DejaVuSans-30"/>
      </g>
     </g>
    </g>
    <g id="ytick_2">
     <g id="line2d_8">
      <g>
       <use style="stroke:#000000;stroke-width:0.8;" x="135" xlink:href="#m1eff95d4cd" y="370.944"/>
      </g>
     </g>
     <g id="text_9">
      <!-- 0.2 -->
      <g transform="translate(99.374375 377.782594)scale(0.18 -0.18)">
       <use xlink:href="#DejaVuSans-30"/>
       <use x="63.623047" xlink:href="#DejaVuSans-2e"/>
       <use x="95.410156" xlink:href="#DejaVuSans-32"/>
      </g>
     </g>
    </g>
    <g id="ytick_3">
     <g id="line2d_9">
      <g>
       <use style="stroke:#000000;stroke-width:0.8;" x="135" xlink:href="#m1eff95d4cd" y="293.328"/>
      </g>
     </g>
     <g id="text_10">
      <!-- 0.4 -->
      <g transform="translate(99.374375 300.166594)scale(0.18 -0.18)">
       <use xlink:href="#DejaVuSans-30"/>
       <use x="63.623047" xlink:href="#DejaVuSans-2e"/>
       <use x="95.410156" xlink:href="#DejaVuSans-34"/>
      </g>
     </g>
    </g>
    <g id="ytick_4">
     <g id="line2d_10">
      <g>
       <use style="stroke:#000000;stroke-width:0.8;" x="135" xlink:href="#m1eff95d4cd" y="215.712"/>
      </g>
     </g>
     <g id="text_11">
      <!-- 0.6 -->
      <g transform="translate(99.374375 222.550594)scale(0.18 -0.18)">
       <use xlink:href="#DejaVuSans-30"/>
       <use x="63.623047" xlink:href="#DejaVuSans-2e"/>
       <use x="95.410156" xlink:href="#DejaVuSans-36"/>
      </g>
     </g>
    </g>
    <g id="ytick_5">
     <g id="line2d_11">
      <g>
       <use style="stroke:#000000;stroke-width:0.8;" x="135" xlink:href="#m1eff95d4cd" y="138.096"/>
      </g>
     </g>
     <g id="text_12">
      <!-- 0.8 -->
      <g transform="translate(99.374375 144.934594)scale(0.18 -0.18)">
       <use xlink:href="#DejaVuSans-30"/>
       <use x="63.623047" xlink:href="#DejaVuSans-2e"/>
       <use x="95.410156" xlink:href="#DejaVuSans-38"/>
      </g>
     </g>
    </g>
    <g id="ytick_6">
     <g id="line2d_12">
      <g>
       <use style="stroke:#000000;stroke-width:0.8;" x="135" xlink:href="#m1eff95d4cd" y="60.48"/>
      </g>
     </g>
     <g id="text_13">
      <!-- 1.0 -->
      <g transform="translate(99.374375 67.318594)scale(0.18 -0.18)">
       <use xlink:href="#DejaVuSans-31"/>
       <use x="63.623047" xlink:href="#DejaVuSans-2e"/>
       <use x="95.410156" xlink:href="#DejaVuSans-30"/>
      </g>
     </g>
    </g>
    <g id="text_14">
     <!-- $TPR_{Fair}$ -->
     <g transform="translate(90.799062 290.27)rotate(-90)scale(0.22 -0.22)">
      <defs>
       <path d="M 378 4666 
L 4325 4666 
L 4225 4134 
L 2559 4134 
L 1759 0 
L 1125 0 
L 1925 4134 
L 275 4134 
L 378 4666 
z
" id="DejaVuSans-Oblique-54" transform="scale(0.015625)"/>
      </defs>
      <use transform="translate(0 0.09375)" xlink:href="#DejaVuSans-Oblique-54"/>
      <use transform="translate(61.083984 0.09375)" xlink:href="#DejaVuSans-Oblique-50"/>
      <use transform="translate(121.386719 0.09375)" xlink:href="#DejaVuSans-Oblique-52"/>
      <use transform="translate(190.869141 -16.3125)scale(0.7)" xlink:href="#DejaVuSans-Oblique-46"/>
      <use transform="translate(231.132812 -16.3125)scale(0.7)" xlink:href="#DejaVuSans-Oblique-61"/>
      <use transform="translate(274.02832 -16.3125)scale(0.7)" xlink:href="#DejaVuSans-Oblique-69"/>
      <use transform="translate(293.476562 -16.3125)scale(0.7)" xlink:href="#DejaVuSans-Oblique-72"/>
     </g>
    </g>
   </g>
   <g id="line2d_13">
    <path clip-path="url(#p3ee8850fdf)" d="M 135 448.56 
L 972 60.48 
" style="fill:none;stroke:#ff0000;stroke-dasharray:5.55,2.4;stroke-dashoffset:0;stroke-width:1.5;"/>
   </g>
   <g id="line2d_14">
    <path clip-path="url(#p3ee8850fdf)" d="M 972 60.48 
L 892.285714 60.48 
L 857.863636 60.48 
L 857.863636 60.48 
L 826.434783 60.48 
L 819.818182 63.714 
L 790.043478 63.768814 
L 737.64 67.002353 
L 737.64 67.113846 
L 727.875 76.65 
L 682.269231 76.65 
L 682.269231 76.785882 
L 662 80.047059 
L 609.3 80.381538 
L 579.65625 80.905263 
L 553.5 81.086018 
L 528.882353 82.04 
L 528.882353 82.656 
L 496.945946 86.352 
L 483.75 86.600769 
L 474.324324 90.332308 
L 448.875 94.389903 
L 441.219512 101.526923 
L 441.219512 108.074717 
L 441.219512 112.721538 
L 427.95 113.745882 
L 420.804878 113.745882 
L 420.804878 114.273267 
L 420.804878 118.115644 
L 400.390244 121.95802 
L 386.1 131.379231 
L 379.97561 132.769412 
L 374.142857 135.83534 
L 363.272727 136.574118 
L 358.2 139.603107 
L 344.25 142.573846 
L 344.25 142.573846 
L 339.6 142.573846 
L 339.6 142.573846 
L 339.6 149.184 
L 339.6 157.5 
L 339.6 157.5 
L 339.6 159.330566 
L 321 160.272 
L 321 160.272 
L 302.4 161.231538 
L 302.4 162.209709 
L 287.181818 169.745243 
L 268.159091 172.426154 
L 268.159091 178.752 
L 265.2 183.79514 
L 265.2 189.84 
L 265.2 199.603019 
L 265.2 203.264151 
L 262.369565 204.624 
L 259.659574 209.741538 
L 259.659574 214.247547 
L 259.659574 215.712 
L 254.571429 217.204615 
L 254.571429 217.204615 
L 254.571429 225.230943 
L 239.625 227.318131 
L 239.625 227.318131 
L 237.489796 228.892075 
L 237.489796 228.892075 
L 222.1875 228.892075 
L 222.1875 230.945047 
L 206.234043 230.945047 
L 206.234043 232.553208 
L 204.75 232.553208 
L 204.75 232.553208 
L 204.75 232.553208 
L 204.75 232.553208 
L 204.75 234.192 
L 204.75 239.301176 
L 204.75 239.301176 
L 171.391304 245.100583 
L 171.391304 245.100583 
L 153.6 245.100583 
L 153.6 246.910588 
L 153.6 250.6392 
L 152.808511 250.6392 
L 152.808511 252.56 
L 152.808511 258.48 
L 152.808511 262.605 
L 152.4375 262.605 
L 152.081633 266.905532 
L 135 266.905532 
L 135 271.393043 
L 135 273.710769 
L 135 278.502472 
L 135 280.98 
L 135 286.107907 
L 135 286.107907 
L 135 293.328 
L 135 296.1 
L 135 298.938795 
L 135 298.938795 
L 135 298.938795 
L 135 298.938795 
L 135 298.938795 
" style="fill:none;stroke:#1f77b4;stroke-linecap:square;stroke-width:1.5;"/>
   </g>
   <g id="line2d_15">
    <path clip-path="url(#p3ee8850fdf)" d="M 972 60.48 
L 972 60.48 
L 972 60.48 
L 972 60.48 
L 972 60.48 
L 972 60.48 
L 972 60.48 
L 972 60.48 
L 972 60.48 
L 972 67.41 
L 972 67.472432 
L 972 67.536 
L 972 70.968649 
L 972 71.064 
L 972 71.161101 
L 972 71.161101 
L 972 74.592 
L 972 74.721468 
L 972 74.987664 
L 972 75.124528 
L 972 75.124528 
L 956.35514 75.406154 
L 955.903846 75.551068 
L 955.747573 75.551068 
L 955.26 75.698824 
L 954.742268 75.849505 
L 954.5625 76.16 
L 954.378947 76.483299 
L 953.804348 80.484124 
L 953.4 80.6925 
L 953.191011 88.485773 
L 952.758621 88.7775 
L 952.534884 88.7775 
L 952.305882 88.7775 
L 952.071429 92.486598 
L 951.831325 96.487423 
L 951.585366 97.245474 
L 951.585366 97.245474 
L 951.333333 97.245474 
L 950.810127 101.330526 
L 950.810127 111.96 
L 950.25974 113.0325 
L 949.973684 113.0325 
L 949.378378 113.0325 
L 948.75 113.0325 
L 947.382353 113.0325 
L 947.382353 114.150638 
L 946.246154 125.840842 
L 945.428571 125.840842 
L 945 133.245 
L 944.557377 139.68 
L 944.557377 139.68 
L 944.1 144.49732 
L 943.137931 149.415 
L 942.631579 150.351158 
L 942.107143 151.307234 
L 941.563636 158.521263 
L 941.563636 160.629677 
L 941.563636 161.718261 
L 941 162.830769 
L 941 168.975484 
L 939.807692 170.154783 
L 939.176471 170.154783 
L 938.52 171.36 
L 938.52 176.457931 
L 937.836735 176.457931 
L 937.125 176.457931 
L 934.8 176.457931 
L 934.8 177.806512 
L 934.8 179.186824 
L 934.8 180.6 
L 933.954545 180.6 
L 932.142857 180.6 
L 932.142857 182.047229 
L 931.170732 182.047229 
L 931.170732 182.047229 
L 930.15 185.048889 
L 930.15 185.048889 
L 930.15 186.606 
L 929.076923 188.202532 
L 929.076923 188.202532 
L 909.225 189.84 
L 907.615385 189.84 
L 905.921053 189.84 
L 904.135135 193.244211 
L 904.135135 193.244211 
L 904.135135 196.832432 
L 902.25 198.700274 
L 900.257143 200.62 
L 893.53125 202.593803 
L 885.413793 204.624 
L 882.321429 206.713043 
L 882.321429 208.863529 
L 879 211.078209 
L 875.423077 213.36 
L 871.56 213.36 
L 867.375 218.1375 
L 867.375 218.1375 
L 867.375 220.64 
L 862.826087 220.64 
L 862.826087 220.64 
" style="fill:none;stroke:#ff7f0e;stroke-linecap:square;stroke-width:1.5;"/>
   </g>
   <g id="line2d_16">
    <path clip-path="url(#p3ee8850fdf)" d="M 972 60.48 
L 843.230769 85.68 
L 758.850932 116.140876 
L 686.082645 127.907027 
L 632.101523 149.063478 
L 579.962529 168.353085 
L 541.698482 186.544204 
L 501.606 198.147523 
L 472.015123 213.906977 
L 451.702703 228.470795 
L 430.077966 238.179789 
L 410.8752 253.082667 
L 394.101669 262.757547 
L 376.879828 272.16 
L 363.478378 278.454449 
L 352.318766 286.585932 
L 341.425767 291.896557 
L 327.775558 296.43264 
L 317.738688 304.331034 
L 308.490628 308.175 
L 302.222104 312.053039 
L 290.06346 317.09087 
L 282.558765 321.038153 
L 274.367269 325.018962 
L 266.671573 328.44 
L 258.06643 332.136 
L 253.130809 335.131034 
L 248.467782 337.859708 
L 243.197561 341.822576 
L 239.045131 344.426209 
L 233.090979 347.373497 
L 229.479545 350.518737 
L 225.937916 352.822203 
L 221.858491 353.796279 
L 220.017167 356.50125 
L 217.644958 358.586145 
L 214.549587 362.025062 
L 211.347973 363.537097 
L 208.2167 364.886667 
L 205.47846 366.912 
L 203.676923 368.67568 
L 201.092862 370.55397 
L 199.344699 372.192772 
L 197.056985 372.755676 
L 194.533454 374.32678 
L 191.931981 374.950588 
L 191.22746 376.607368 
L 188.135119 379.080424 
L 185.756293 380.420372 
L 184.45695 382.389677 
L 183.467706 383.143326 
L 182.499174 384.67673 
L 181.348534 386.243721 
L 179.879357 387.576 
L 178.842857 389.147101 
L 177.529597 390.866824 
L 176.568546 392.12687 
L 175.797845 393.643019 
L 174.958354 394.962243 
L 173.63723 395.911942 
L 173.10193 397.73531 
L 171.980854 398.725662 
L 170.877253 399.759521 
L 170.127352 400.961662 
L 169.490656 402.76885 
L 168.337127 403.328345 
L 167.207414 403.68 
L 165.6125 404.239923 
L 165.30385 405.151434 
L 164.91991 405.849108 
L 164.585235 406.823094 
L 163.951663 407.096907 
L 162.887769 407.367151 
L 162.621363 408.637034 
L 161.685911 409.503458 
L 160.038462 409.610365 
L 159.106734 410.947174 
L 158.52307 411.284811 
L 158.337079 412.774646 
L 156.825745 413.688043 
L 156.329223 414.458067 
L 155.556693 415.286299 
L 155.058083 415.968 
L 154.198793 416.941132 
L 153.465704 417.765256 
L 153.326035 418.025787 
L 152.575674 419.535529 
L 151.805906 420.148153 
L 151.039499 421.230423 
L 149.352299 422.347018 
L 148.280573 423.132973 
L 147.896764 423.889878 
L 147.798165 424.600552 
L 147.098136 425.087419 
L 146.396369 426.004395 
L 145.967802 426.506519 
L 145.579182 427.169764 
L 144.90899 427.574483 
L 144.839824 428.658462 
L 144.493963 429.425085 
L 144.466253 429.600366 
" style="fill:none;stroke:#2ca02c;stroke-linecap:square;stroke-width:1.5;"/>
   </g>
   <g id="line2d_17">
    <path clip-path="url(#p3ee8850fdf)" d="M 972 60.48 
L 937.215584 74.298872 
L 914.34949 85.22713 
L 889.128713 97.75322 
L 875.105911 106.577901 
L 855.352078 120.343404 
L 835.182692 129.743622 
L 818.183771 138.096 
L 793.914894 151.6788 
L 773.455814 164.963077 
L 761.300231 174.621176 
L 751.231651 185.37931 
L 737.487472 191.588108 
L 719.214765 202.146372 
L 714.174107 207.595294 
L 707.781457 214.38806 
L 688.790948 224.050909 
L 674.359914 232.78752 
L 657.683544 241.177367 
L 646.695378 247.388936 
L 638.237603 250.831027 
L 623.68323 257.426966 
L 615.756198 262.367206 
L 607.861856 267.734194 
L 596.379098 271.661343 
L 584.372951 276.75375 
L 571.183099 282.050462 
L 562.688623 286.425906 
L 555.996024 292.311751 
L 544.420118 295.94427 
L 537.754455 299.109223 
L 528.687747 302.19493 
L 523.725296 304.450169 
L 516.059642 306.852 
L 510.661417 311.115 
L 501.701375 314.093684 
L 495.832677 317.897094 
L 488.289941 320.477179 
L 482.371542 322.813408 
L 475.390963 323.87783 
L 472.102161 326.259209 
L 466.828402 328.989405 
L 459.317025 332.136 
L 450.105882 332.753634 
L 445.182353 335.581097 
L 438.763314 337.68 
L 432.159763 340.594154 
L 422.822134 343.793156 
L 416.205534 345.331694 
L 412.903733 347.928834 
L 409.614931 349.749963 
L 405.842105 351.421538 
L 402.058366 353.558776 
L 397.77907 356.00339 
L 392.912791 358.644706 
L 388.196532 360.465376 
L 385.618042 363.127869 
L 384.011516 365.625366 
L 381.931034 367.375448 
L 375.294798 368.465952 
L 371.856597 370.505492 
L 367.323194 372.68818 
L 364.577143 373.879422 
L 362.117647 375.069767 
L 358.517045 377.376265 
L 354.101695 378.730992 
L 349.777358 379.26 
L 343.854442 380.00197 
L 339.915254 381.049819 
L 333.68972 382.713977 
L 331.757463 383.605932 
L 330.195896 384.286792 
L 322.738318 384.621898 
L 317.9 386.096449 
L 314.8 387.010752 
L 305.210821 387.598768 
L 299.88743 389.711803 
L 298.62406 391.767805 
L 294.20339 393.62451 
L 287.470588 394.573065 
L 285.311909 396.011555 
L 280.565217 397.202149 
L 276.085227 398.373939 
L 271.847909 399.479294 
L 268.92 400.76129 
L 265.731429 401.657544 
L 262.542857 403.68 
L 257.994275 405.14893 
L 254.344106 406.846987 
L 245.850288 408.490554 
L 241.234615 409.752 
L 239.224138 410.527422 
L 239.024857 411.740266 
L 235.824092 412.211921 
L 231.576923 413.180526 
L 229.967308 414.104299 
L 227.102317 414.955307 
L 223.699422 415.56244 
L 220.473988 417.055351 
L 218.7 418.32462 
L 217.090385 418.653563 
" style="fill:none;stroke:#d62728;stroke-linecap:square;stroke-width:1.5;"/>
   </g>
   <g id="line2d_18">
    <path clip-path="url(#p3ee8850fdf)" d="M 972 60.48 
L 898.382409 77.2 
L 843 98.036129 
L 796.682432 114.201818 
L 757.040128 129.506087 
L 721.802773 144.27 
L 686.854626 160.493358 
L 653.588811 170.776421 
L 623.25 184.797153 
L 596.16 197.597407 
L 573.876404 208.291034 
L 555.521739 222.325022 
L 536.838407 230.335304 
L 515.454545 240.601519 
L 502.041349 247.59 
L 487.421053 255.815327 
L 473.379837 264.284594 
L 457.819085 272.24831 
L 443.32594 281.0976 
L 429.950328 286.398 
L 421.664835 289.862186 
L 408 295.382278 
L 397.473868 298.349694 
L 384.619208 302.43907 
L 374.240786 306.13759 
L 361.881558 310.254894 
L 353.319659 314.193389 
L 345.98717 317.607877 
L 338.095588 321.537831 
L 329.357297 324.052596 
L 321.524683 326.861126 
L 315.689415 330.288 
L 310.066302 333.399516 
L 304.204852 335.34033 
L 300.726 338.726038 
L 296.110086 341.196899 
L 291.800914 344.669845 
L 286.544459 346.520305 
L 281.954198 348.368349 
L 277.748269 349.851997 
L 274.326708 351.776442 
L 271.064039 353.951885 
L 267.291793 356.686746 
L 262.916968 357.336792 
L 258.945133 359.856 
L 254.921053 361.2346 
L 251.858639 363.335745 
L 247.274611 366.231184 
L 243.12238 367.674146 
L 239.917739 369.46992 
L 237.53714 371.28 
L 235.826733 372.715549 
L 233.416984 374.534776 
L 230.812095 376.480169 
L 228.499463 378.346367 
L 226.567711 379.980374 
L 224.568266 381.677003 
L 223.036107 383.48641 
L 221.526234 384.530704 
L 218.829633 385.642047 
L 216.991837 387.190394 
L 215.318182 388.524125 
L 213.53437 389.395349 
L 211.544732 390.993146 
L 209.961405 392.556084 
L 208.139912 393.329471 
L 205.192101 393.883732 
L 202.219158 394.392506 
L 200.033094 395.585522 
L 197.735294 396.625414 
L 196.810442 397.384615 
L 195.23271 397.930631 
L 192.456401 398.205625 
L 191.184828 399.320746 
L 189.885246 400.397327 
L 186.886425 400.714521 
L 184.722772 402.228936 
L 183.288462 403.641222 
L 181.645118 404.835867 
L 179.600355 405.49011 
L 178.586055 407.131956 
L 177.328496 407.97792 
L 176.025821 409.049593 
L 174.597656 410.123264 
L 172.764859 411.361749 
L 171.767442 412.21806 
L 170.861183 413.806567 
L 169.577939 414.851017 
L 168.324015 416.344453 
L 166.10473 417.283816 
L 164.541176 418.495974 
L 164.055207 419.19521 
L 163.862069 419.969057 
L 163.015289 420.301748 
L 161.855615 421.151461 
L 160.591113 422.137532 
L 159.398381 422.715349 
L 158.577465 423.272601 
L 157.802885 424.393846 
L 157.351136 425.125705 
L 156.623609 425.331269 
" style="fill:none;stroke:#9467bd;stroke-linecap:square;stroke-width:1.5;"/>
   </g>
   <g id="line2d_19">
    <path clip-path="url(#p3ee8850fdf)" d="M 972 60.48 
L 972 60.48 
L 972 60.48 
L 972 60.48 
L 972 60.48 
L 972 60.48 
L 972 60.48 
L 972 60.48 
L 972 60.48 
L 972 62.03232 
L 972 62.051174 
L 972 62.067239 
L 972 62.077037 
L 972 62.103766 
L 972 62.117468 
L 972 62.145579 
L 972 62.163644 
L 972 62.193377 
L 972 62.220269 
L 972 62.248018 
L 972 62.260183 
L 972 62.280835 
L 972 62.306259 
L 972 62.310566 
L 972 62.328 
L 972 62.341295 
L 972 62.359322 
L 972 62.368467 
L 972 63.326553 
L 972 63.340541 
L 972 65.247568 
L 972 65.28297 
L 972 65.306866 
L 972 65.331 
L 972 66.330452 
L 972 67.305528 
L 972 67.374822 
L 972 67.445538 
L 972 67.481443 
L 972 68.502326 
L 972 71.453985 
L 972 71.539275 
L 972 71.713895 
L 972 71.743536 
L 972 71.833404 
L 972 71.924718 
L 972 72.143607 
L 972 74.533036 
L 972 74.611765 
L 972 76.831685 
L 972 79.11661 
L 972 79.3296 
L 972 80.786512 
L 972 82.166824 
L 972 82.490507 
L 972 82.756495 
L 972 85.176 
L 972 85.555938 
L 972 85.789565 
L 972 86.027586 
L 972 88.548679 
L 972 88.906242 
L 972 88.997061 
L 972 89.46 
L 972 89.938218 
L 972 90.035762 
L 972 90.133953 
L 972 90.2328 
L 972 90.634865 
L 972 90.943618 
L 972 91.258759 
L 972 91.4725 
L 972 91.4725 
L 972 92.020071 
L 972 92.587338 
L 972 92.703249 
L 972 93.295588 
L 972 94.035789 
L 972 94.548092 
L 972 94.810154 
L 972 95.76 
L 972 96.18336 
L 972 96.763902 
L 972 97.51668 
L 972 98.301356 
L 972 98.788326 
L 972 99.974867 
L 972 100.686486 
L 972 101.995535 
L 972 102.782559 
L 972 103.80932 
L 972 104.667327 
L 972 105.56 
L 972 105.788832 
L 972 106.489485 
L 972 107.706667 
L 972 108.468387 
L 972 108.99 
L 972 110.345028 
L 972 111.777931 
L 972 112.374419 
" style="fill:none;stroke:#8c564b;stroke-linecap:square;stroke-width:1.5;"/>
   </g>
   <g id="line2d_20">
    <path clip-path="url(#p3ee8850fdf)" d="M 972 60.48 
L 949.560322 67.536 
L 935.269947 75.017199 
L 923.221192 83.491154 
L 913.321429 89.861451 
L 905.04 97.296299 
L 889.183377 105.121104 
L 875.932718 111.989864 
L 858.862205 120.229238 
L 844.155352 127.724405 
L 832.681404 135.737192 
L 820.604651 145.989153 
L 809.790698 151.697691 
L 794.324808 157.768753 
L 785.407643 162.437744 
L 777.86692 168.781395 
L 767.750943 177.891084 
L 758.522727 185.567873 
L 745.356423 193.709025 
L 734.954887 199.366512 
L 729.27 203.090704 
L 718.904642 209.022662 
L 713.003774 212.572035 
L 707.461441 217.835821 
L 701.829114 222.02069 
L 692.288265 226.934727 
L 681.330798 231.719137 
L 674.282278 235.919716 
L 668.309735 240.950769 
L 658.389873 244.471899 
L 651.310345 247.447927 
L 643.407928 250.354169 
L 636.339332 253.871037 
L 630.27907 256.661722 
L 623.16 260.643134 
L 619.178988 263.878842 
L 613.907672 268.277333 
L 605.470588 271.605283 
L 599.144547 273.883659 
L 592.751651 275.946502 
L 587.312583 278.626802 
L 581.995995 281.399151 
L 573.056075 284.417402 
L 565.26506 285.527397 
L 559.679195 288.785 
L 554.066306 291.798621 
L 548.389417 294.778053 
L 538.084584 298.888322 
L 531.715068 301.422456 
L 525.215172 303.966486 
L 520.597241 307.203901 
L 515.559066 309.457922 
L 511.076712 311.786819 
L 505.851852 314.650266 
L 500.971034 317.486623 
L 495.518519 319.928789 
L 490.925926 322.793333 
L 489.115385 325.388335 
L 485.185185 326.79545 
L 479.240715 328.795385 
L 474.386301 331.570492 
L 469.341997 333.403775 
L 467.270604 334.583351 
L 462.920548 337.082801 
L 458.334247 339.217245 
L 450.740741 340.874681 
L 444.401379 341.598021 
L 437.769553 342.689053 
L 433.173913 344.391158 
L 423.417722 346.380262 
L 420.287324 347.6592 
L 416.762376 348.768 
L 404.420601 349.369157 
L 400.129261 351.290163 
L 394.923077 353.364308 
L 386.459227 353.857884 
L 381.38961 356.254527 
L 375.531205 358.316525 
L 370.482507 360.165826 
L 365.727273 361.192917 
L 362.938507 363.698099 
L 359.590909 365.4462 
L 354.097059 367.281656 
L 349.80531 369.274839 
L 343.939079 371.328555 
L 339.267857 372.735631 
L 335.179372 375.174104 
L 330.76012 376.693333 
L 325.055639 378.756832 
L 317.895296 380.150511 
L 311.614679 381.968276 
L 309.055046 383.50797 
L 307.775229 384.992432 
L 303.170245 385.465294 
L 297.75 386.985061 
L 293.316279 388.612683 
L 286.469579 390.064959 
L 280.167187 391.066667 
L 277.551563 392.628986 
L 273.84507 394.547257 
L 269.915493 395.555463 
" style="fill:none;stroke:#e377c2;stroke-linecap:square;stroke-width:1.5;"/>
   </g>
   <g id="line2d_21">
    <path clip-path="url(#p3ee8850fdf)" d="M 972 60.48 
L 922.428246 74.520521 
L 881.636859 90.207577 
L 848.131078 103.890566 
L 818.335385 118.64186 
L 788.043956 131.878949 
L 759.505814 145.885756 
L 731.954717 154.988894 
L 705.542202 166.968083 
L 682.269231 178.53531 
L 662.594595 188.446034 
L 643.026316 201.745936 
L 626.449541 209.621408 
L 604.503632 218.911089 
L 588.731707 226.055839 
L 572.362872 234.296113 
L 556.609212 242.647233 
L 540.412364 250.192614 
L 525.202847 257.728668 
L 512.173853 263.807385 
L 500.9389 268.49608 
L 486.250996 273.556076 
L 474.471123 277.729015 
L 461.324051 282.682105 
L 449.910891 286.043849 
L 436.32 290.375217 
L 425.914591 293.862464 
L 417.408377 297.299323 
L 408.735849 301.525258 
L 399.092801 304.826667 
L 389.577839 307.44 
L 383.340659 310.642759 
L 375.899347 313.936386 
L 369.576116 316.199836 
L 364.940139 319.54681 
L 359.172742 322.017743 
L 354.203868 325.663803 
L 347.502591 328.232825 
L 341.360102 330.096061 
L 335.88 331.990288 
L 330.607823 334.095517 
L 325.624565 336.295688 
L 320.038405 339.047653 
L 314.912066 340.231632 
L 309.57659 342.927407 
L 304.244849 344.981538 
L 300.884707 347.25307 
L 295.183799 350.195612 
L 289.607595 351.928746 
L 284.922042 353.627633 
L 281.889452 355.516676 
L 279.336679 357.5768 
L 276.321477 359.28439 
L 272.942385 361.204623 
L 269.796362 363.144249 
L 266.575958 365.070357 
L 263.909686 367.021915 
L 261.620286 368.691293 
L 259.306931 370.090183 
L 256.257692 371.670515 
L 253.964467 373.505848 
L 251.562081 374.83871 
L 249.088787 376.04 
L 246.968621 377.805083 
L 244.787418 379.197723 
L 241.122699 380.199545 
L 237.753659 380.827257 
L 233.410909 381.734517 
L 230.609218 382.937143 
L 226.890215 384.378978 
L 225.102918 385.245605 
L 223.191539 386.223031 
L 218.765442 386.606916 
L 217.370399 387.813861 
L 215.128028 389.48459 
L 211.556831 389.886216 
L 208.974857 391.600743 
L 206.652273 393.068856 
L 204.776311 394.211039 
L 202.864865 395.190164 
L 201.835075 396.886304 
L 200.604383 397.804369 
L 198.765533 399.03261 
L 196.498898 400.502157 
L 194.632024 401.743456 
L 193.018971 402.632363 
L 191.570494 404.309725 
L 189.790958 405.290343 
L 187.669903 406.632602 
L 185.418071 407.516285 
L 183.17912 408.854897 
L 182.062633 409.768578 
L 181.51646 410.726743 
L 179.860367 411.035725 
L 178.201896 412.3 
L 176.689655 413.590511 
L 174.732848 414.503669 
L 173.111073 415.052055 
L 172.04048 416.006182 
L 171.043062 417.046496 
L 169.589139 417.608834 
" style="fill:none;stroke:#7f7f7f;stroke-linecap:square;stroke-width:1.5;"/>
   </g>
   <g id="line2d_22">
    <path clip-path="url(#p3ee8850fdf)" d="M 972 60.48 
L 961.118093 62.563651 
L 956.533696 65.16193 
L 950.937637 69.806355 
L 949.778761 71.34624 
L 947.548315 75.465779 
L 937.164229 79.574362 
L 931.054608 83.03683 
L 924.912744 85.35028 
L 916.972318 88.901305 
L 910.071676 93.035313 
L 904.108922 96.18336 
L 899.557895 100.111512 
L 887.908879 103.829362 
L 881.064252 107.831936 
L 878.672535 110.738692 
L 871.050351 117.973333 
L 866.879147 122.593333 
L 860 125.84626 
L 853.717365 129.540717 
L 850.418968 132.537294 
L 845.027913 135.408895 
L 841.731618 137.265882 
L 838.37005 141.502021 
L 836.864831 145.292185 
L 830.370229 149.169353 
L 821.468112 152.245284 
L 816.403846 155.842628 
L 813.034884 160.170275 
L 805.47644 163.326266 
L 799.709163 166.32 
L 793.604558 169.282791 
L 788.268293 172.071682 
L 783.331967 174.971034 
L 778.31405 177.645554 
L 775.5375 180.342684 
L 771.542017 184.116106 
L 763.637907 186.9 
L 760.055794 188.208726 
L 754.910663 190.489235 
L 750.836496 193.852407 
L 748.223043 196.259851 
L 744.295964 199.630273 
L 737.18552 200.459104 
L 732.857143 203.000695 
L 727.497682 206.309815 
L 724.28972 208.550424 
L 717.721519 212.8014 
L 712.704655 214.835533 
L 707.470016 218.228229 
L 703.45114 221.697313 
L 697.529221 223.831233 
L 695.735294 226.313684 
L 691.164474 229.506083 
L 687.447761 232.420325 
L 679.05 235.067368 
L 674.275168 238.591343 
L 670.849662 241.776357 
L 666.991525 243.673043 
L 662.953846 245.831642 
L 659.558219 249.458087 
L 652.731959 251.631067 
L 649.965338 253.079109 
L 646.5 255.96806 
L 642.76049 258.153708 
L 632.47619 260.546087 
L 625.860963 261.724455 
L 618.938182 263.645644 
L 614.163303 265.594243 
L 601.55 268.001687 
L 599.480447 269.223652 
L 596.684803 271.152 
L 586.433781 271.591673 
L 579.90631 274.261042 
L 573.581574 276.778953 
L 562.438835 277.476164 
L 556.795276 280.57054 
L 550.165339 282.868413 
L 544.237425 285.312242 
L 538.189024 286.941873 
L 536.418367 290.16 
L 532.016427 292.243151 
L 524.906832 295.11 
L 517.528302 297.805846 
L 511.738854 300.980282 
L 505.417021 302.967887 
L 500.627409 306.214054 
L 493.971983 308.211892 
L 485.117647 311.324456 
L 476.481153 312.984 
L 468.668919 315.648941 
L 464.497738 317.672126 
L 463.346939 319.88354 
L 456.041096 321.077256 
L 448.150115 323.672553 
L 441.314685 326.473253 
L 432.381176 328.91067 
L 424.578199 330.426168 
L 419.339713 332.396456 
L 414 334.911741 
L 405.854015 336.482915 
" style="fill:none;stroke:#bcbd22;stroke-linecap:square;stroke-width:1.5;"/>
   </g>
   <g id="line2d_23">
    <path clip-path="url(#p3ee8850fdf)" d="M 972 60.48 
L 940.70278 68.362151 
L 912.660448 79.476923 
L 888.376719 88.485773 
L 866.997292 100.537092 
L 845.181818 108.883851 
L 823.819457 119.77 
L 800.992241 127.460335 
L 780.157895 136.006957 
L 760.304674 145.323401 
L 742.854098 153.634661 
L 726.975 165.467826 
L 711.941693 172.043795 
L 691.039813 180.30694 
L 677.308937 186.391985 
L 662.563636 193.827525 
L 648.401487 201.819911 
L 633.272727 208.983468 
L 618.909551 216.711348 
L 604.218285 222.289627 
L 594.793562 225.821647 
L 580.323225 230.990233 
L 567.440517 234.347525 
L 552.104069 238.69292 
L 540.053115 242.627226 
L 525.563837 247.424738 
L 514.675624 251.308936 
L 503.722467 255.124486 
L 493.121981 259.594892 
L 481.610429 263.071915 
L 471.531022 266.174054 
L 464.328087 269.755733 
L 455.45716 273.5712 
L 448.129454 275.955466 
L 442.246892 279.8775 
L 436.103873 282.939313 
L 430.268222 286.994191 
L 422.749129 289.654815 
L 416.096532 291.693424 
L 409.505178 293.69362 
L 402.648138 296.467639 
L 397.606959 299.219644 
L 391.07932 302.522042 
L 384.921127 304.040625 
L 377.473538 307.236069 
L 371.148581 309.465 
L 367.319668 311.852814 
L 360.505785 315.419466 
L 353.387555 318.135646 
L 347.535463 320.255006 
L 343.687802 322.585121 
L 340.673077 324.72 
L 336.82035 326.715352 
L 332.900474 328.894054 
L 329.538825 331.06789 
L 324.789969 333.433532 
L 320.709375 336.214919 
L 316.843035 338.3759 
L 313.738883 340.091871 
L 310.146015 341.820747 
L 306.997965 344.446557 
L 303.245455 346.074085 
L 300.131024 347.812806 
L 296.986567 350.2464 
L 294.171301 352.043855 
L 289.708127 353.488193 
L 285.643491 354.365825 
L 280.332514 355.897351 
L 276.746706 357.26 
L 271.454148 359.222579 
L 268.709942 360.280541 
L 265.931862 361.497745 
L 260.590125 362.031572 
L 258.041389 363.714847 
L 254.797355 365.861487 
L 250.013647 366.30508 
L 246.835443 368.547916 
L 243.492747 370.517538 
L 240.652174 372.046139 
L 237.919422 373.270365 
L 236.431082 375.544405 
L 234.514286 377.066062 
L 231.206897 378.947368 
L 227.659652 380.625225 
L 225.362306 382.428846 
L 222.924966 383.535957 
L 221.089261 385.589302 
L 218.775473 386.801471 
L 215.574899 388.432059 
L 212.08221 389.433675 
L 209.183527 391.066667 
L 207.490179 392.137738 
L 206.668589 393.465959 
L 204.534247 394.039689 
L 202.018918 395.922022 
L 199.665648 397.654444 
L 196.55483 398.979743 
L 194.189154 399.678939 
L 192.5121 401.035976 
L 190.872093 402.313144 
L 189.023236 403.156793 
" style="fill:none;stroke:#17becf;stroke-linecap:square;stroke-width:1.5;"/>
   </g>
   <g id="patch_3">
    <path d="M 135 448.56 
L 135 60.48 
" style="fill:none;stroke:#000000;stroke-linecap:square;stroke-linejoin:miter;stroke-width:0.8;"/>
   </g>
   <g id="patch_4">
    <path d="M 972 448.56 
L 972 60.48 
" style="fill:none;stroke:#000000;stroke-linecap:square;stroke-linejoin:miter;stroke-width:0.8;"/>
   </g>
   <g id="patch_5">
    <path d="M 135 448.56 
L 972 448.56 
" style="fill:none;stroke:#000000;stroke-linecap:square;stroke-linejoin:miter;stroke-width:0.8;"/>
   </g>
   <g id="patch_6">
    <path d="M 135 60.48 
L 972 60.48 
" style="fill:none;stroke:#000000;stroke-linecap:square;stroke-linejoin:miter;stroke-width:0.8;"/>
   </g>
   <g id="legend_1">
    <g id="patch_7">
     <path d="M 147.6 339.08625 
L 256.730625 339.08625 
Q 260.330625 339.08625 260.330625 335.48625 
L 260.330625 73.08 
Q 260.330625 69.48 256.730625 69.48 
L 147.6 69.48 
Q 144 69.48 144 73.08 
L 144 335.48625 
Q 144 339.08625 147.6 339.08625 
z
" style="fill:#ffffff;opacity:0.8;stroke:#cccccc;stroke-linejoin:miter;"/>
    </g>
    <g id="line2d_24">
     <path d="M 151.2 84.057188 
L 187.2 84.057188 
" style="fill:none;stroke:#1f77b4;stroke-linecap:square;stroke-width:1.5;"/>
    </g>
    <g id="line2d_25"/>
    <g id="text_15">
     <!-- 0.001 -->
     <g transform="translate(201.6 90.357188)scale(0.18 -0.18)">
      <use xlink:href="#DejaVuSans-30"/>
      <use x="63.623047" xlink:href="#DejaVuSans-2e"/>
      <use x="95.410156" xlink:href="#DejaVuSans-30"/>
      <use x="159.033203" xlink:href="#DejaVuSans-30"/>
      <use x="222.65625" xlink:href="#DejaVuSans-31"/>
     </g>
    </g>
    <g id="line2d_26">
     <path d="M 151.2 110.477812 
L 187.2 110.477812 
" style="fill:none;stroke:#ff7f0e;stroke-linecap:square;stroke-width:1.5;"/>
    </g>
    <g id="line2d_27"/>
    <g id="text_16">
     <!-- 0.011 -->
     <g transform="translate(201.6 116.777812)scale(0.18 -0.18)">
      <use xlink:href="#DejaVuSans-30"/>
      <use x="63.623047" xlink:href="#DejaVuSans-2e"/>
      <use x="95.410156" xlink:href="#DejaVuSans-30"/>
      <use x="159.033203" xlink:href="#DejaVuSans-31"/>
      <use x="222.65625" xlink:href="#DejaVuSans-31"/>
     </g>
    </g>
    <g id="line2d_28">
     <path d="M 151.2 136.898438 
L 187.2 136.898438 
" style="fill:none;stroke:#2ca02c;stroke-linecap:square;stroke-width:1.5;"/>
    </g>
    <g id="line2d_29"/>
    <g id="text_17">
     <!-- 0.021 -->
     <g transform="translate(201.6 143.198438)scale(0.18 -0.18)">
      <use xlink:href="#DejaVuSans-30"/>
      <use x="63.623047" xlink:href="#DejaVuSans-2e"/>
      <use x="95.410156" xlink:href="#DejaVuSans-30"/>
      <use x="159.033203" xlink:href="#DejaVuSans-32"/>
      <use x="222.65625" xlink:href="#DejaVuSans-31"/>
     </g>
    </g>
    <g id="line2d_30">
     <path d="M 151.2 163.319062 
L 187.2 163.319062 
" style="fill:none;stroke:#d62728;stroke-linecap:square;stroke-width:1.5;"/>
    </g>
    <g id="line2d_31"/>
    <g id="text_18">
     <!-- 0.031 -->
     <g transform="translate(201.6 169.619062)scale(0.18 -0.18)">
      <defs>
       <path d="M 2597 2516 
Q 3050 2419 3304 2112 
Q 3559 1806 3559 1356 
Q 3559 666 3084 287 
Q 2609 -91 1734 -91 
Q 1441 -91 1130 -33 
Q 819 25 488 141 
L 488 750 
Q 750 597 1062 519 
Q 1375 441 1716 441 
Q 2309 441 2620 675 
Q 2931 909 2931 1356 
Q 2931 1769 2642 2001 
Q 2353 2234 1838 2234 
L 1294 2234 
L 1294 2753 
L 1863 2753 
Q 2328 2753 2575 2939 
Q 2822 3125 2822 3475 
Q 2822 3834 2567 4026 
Q 2313 4219 1838 4219 
Q 1578 4219 1281 4162 
Q 984 4106 628 3988 
L 628 4550 
Q 988 4650 1302 4700 
Q 1616 4750 1894 4750 
Q 2613 4750 3031 4423 
Q 3450 4097 3450 3541 
Q 3450 3153 3228 2886 
Q 3006 2619 2597 2516 
z
" id="DejaVuSans-33" transform="scale(0.015625)"/>
      </defs>
      <use xlink:href="#DejaVuSans-30"/>
      <use x="63.623047" xlink:href="#DejaVuSans-2e"/>
      <use x="95.410156" xlink:href="#DejaVuSans-30"/>
      <use x="159.033203" xlink:href="#DejaVuSans-33"/>
      <use x="222.65625" xlink:href="#DejaVuSans-31"/>
     </g>
    </g>
    <g id="line2d_32">
     <path d="M 151.2 189.739688 
L 187.2 189.739688 
" style="fill:none;stroke:#9467bd;stroke-linecap:square;stroke-width:1.5;"/>
    </g>
    <g id="line2d_33"/>
    <g id="text_19">
     <!-- 0.041 -->
     <g transform="translate(201.6 196.039688)scale(0.18 -0.18)">
      <use xlink:href="#DejaVuSans-30"/>
      <use x="63.623047" xlink:href="#DejaVuSans-2e"/>
      <use x="95.410156" xlink:href="#DejaVuSans-30"/>
      <use x="159.033203" xlink:href="#DejaVuSans-34"/>
      <use x="222.65625" xlink:href="#DejaVuSans-31"/>
     </g>
    </g>
    <g id="line2d_34">
     <path d="M 151.2 216.160312 
L 187.2 216.160312 
" style="fill:none;stroke:#8c564b;stroke-linecap:square;stroke-width:1.5;"/>
    </g>
    <g id="line2d_35"/>
    <g id="text_20">
     <!-- 0.051 -->
     <g transform="translate(201.6 222.460312)scale(0.18 -0.18)">
      <defs>
       <path d="M 691 4666 
L 3169 4666 
L 3169 4134 
L 1269 4134 
L 1269 2991 
Q 1406 3038 1543 3061 
Q 1681 3084 1819 3084 
Q 2600 3084 3056 2656 
Q 3513 2228 3513 1497 
Q 3513 744 3044 326 
Q 2575 -91 1722 -91 
Q 1428 -91 1123 -41 
Q 819 9 494 109 
L 494 744 
Q 775 591 1075 516 
Q 1375 441 1709 441 
Q 2250 441 2565 725 
Q 2881 1009 2881 1497 
Q 2881 1984 2565 2268 
Q 2250 2553 1709 2553 
Q 1456 2553 1204 2497 
Q 953 2441 691 2322 
L 691 4666 
z
" id="DejaVuSans-35" transform="scale(0.015625)"/>
      </defs>
      <use xlink:href="#DejaVuSans-30"/>
      <use x="63.623047" xlink:href="#DejaVuSans-2e"/>
      <use x="95.410156" xlink:href="#DejaVuSans-30"/>
      <use x="159.033203" xlink:href="#DejaVuSans-35"/>
      <use x="222.65625" xlink:href="#DejaVuSans-31"/>
     </g>
    </g>
    <g id="line2d_36">
     <path d="M 151.2 242.580937 
L 187.2 242.580937 
" style="fill:none;stroke:#e377c2;stroke-linecap:square;stroke-width:1.5;"/>
    </g>
    <g id="line2d_37"/>
    <g id="text_21">
     <!-- 0.061 -->
     <g transform="translate(201.6 248.880937)scale(0.18 -0.18)">
      <use xlink:href="#DejaVuSans-30"/>
      <use x="63.623047" xlink:href="#DejaVuSans-2e"/>
      <use x="95.410156" xlink:href="#DejaVuSans-30"/>
      <use x="159.033203" xlink:href="#DejaVuSans-36"/>
      <use x="222.65625" xlink:href="#DejaVuSans-31"/>
     </g>
    </g>
    <g id="line2d_38">
     <path d="M 151.2 269.001562 
L 187.2 269.001562 
" style="fill:none;stroke:#7f7f7f;stroke-linecap:square;stroke-width:1.5;"/>
    </g>
    <g id="line2d_39"/>
    <g id="text_22">
     <!-- 0.071 -->
     <g transform="translate(201.6 275.301562)scale(0.18 -0.18)">
      <defs>
       <path d="M 525 4666 
L 3525 4666 
L 3525 4397 
L 1831 0 
L 1172 0 
L 2766 4134 
L 525 4134 
L 525 4666 
z
" id="DejaVuSans-37" transform="scale(0.015625)"/>
      </defs>
      <use xlink:href="#DejaVuSans-30"/>
      <use x="63.623047" xlink:href="#DejaVuSans-2e"/>
      <use x="95.410156" xlink:href="#DejaVuSans-30"/>
      <use x="159.033203" xlink:href="#DejaVuSans-37"/>
      <use x="222.65625" xlink:href="#DejaVuSans-31"/>
     </g>
    </g>
    <g id="line2d_40">
     <path d="M 151.2 295.422188 
L 187.2 295.422188 
" style="fill:none;stroke:#bcbd22;stroke-linecap:square;stroke-width:1.5;"/>
    </g>
    <g id="line2d_41"/>
    <g id="text_23">
     <!-- 0.081 -->
     <g transform="translate(201.6 301.722188)scale(0.18 -0.18)">
      <use xlink:href="#DejaVuSans-30"/>
      <use x="63.623047" xlink:href="#DejaVuSans-2e"/>
      <use x="95.410156" xlink:href="#DejaVuSans-30"/>
      <use x="159.033203" xlink:href="#DejaVuSans-38"/>
      <use x="222.65625" xlink:href="#DejaVuSans-31"/>
     </g>
    </g>
    <g id="line2d_42">
     <path d="M 151.2 321.842812 
L 187.2 321.842812 
" style="fill:none;stroke:#17becf;stroke-linecap:square;stroke-width:1.5;"/>
    </g>
    <g id="line2d_43"/>
    <g id="text_24">
     <!-- 0.091 -->
     <g transform="translate(201.6 328.142812)scale(0.18 -0.18)">
      <defs>
       <path d="M 703 97 
L 703 672 
Q 941 559 1184 500 
Q 1428 441 1663 441 
Q 2288 441 2617 861 
Q 2947 1281 2994 2138 
Q 2813 1869 2534 1725 
Q 2256 1581 1919 1581 
Q 1219 1581 811 2004 
Q 403 2428 403 3163 
Q 403 3881 828 4315 
Q 1253 4750 1959 4750 
Q 2769 4750 3195 4129 
Q 3622 3509 3622 2328 
Q 3622 1225 3098 567 
Q 2575 -91 1691 -91 
Q 1453 -91 1209 -44 
Q 966 3 703 97 
z
M 1959 2075 
Q 2384 2075 2632 2365 
Q 2881 2656 2881 3163 
Q 2881 3666 2632 3958 
Q 2384 4250 1959 4250 
Q 1534 4250 1286 3958 
Q 1038 3666 1038 3163 
Q 1038 2656 1286 2365 
Q 1534 2075 1959 2075 
z
" id="DejaVuSans-39" transform="scale(0.015625)"/>
      </defs>
      <use xlink:href="#DejaVuSans-30"/>
      <use x="63.623047" xlink:href="#DejaVuSans-2e"/>
      <use x="95.410156" xlink:href="#DejaVuSans-30"/>
      <use x="159.033203" xlink:href="#DejaVuSans-39"/>
      <use x="222.65625" xlink:href="#DejaVuSans-31"/>
     </g>
    </g>
   </g>
  </g>
 </g>
 <defs>
  <clipPath id="p3ee8850fdf">
   <rect height="388.08" width="837" x="135" y="60.48"/>
  </clipPath>
 </defs>
</svg>
