<?xml version="1.0" encoding="utf-8" standalone="no"?>
<!DOCTYPE svg PUBLIC "-//W3C//DTD SVG 1.1//EN"
  "http://www.w3.org/Graphics/SVG/1.1/DTD/svg11.dtd">
<svg height="504pt" version="1.1" viewBox="0 0 1080 504" width="1080pt" xmlns="http://www.w3.org/2000/svg" xmlns:xlink="http://www.w3.org/1999/xlink">
 <metadata>
  <rdf:RDF xmlns:cc="http://creativecommons.org/ns#" xmlns:dc="http://purl.org/dc/elements/1.1/" xmlns:rdf="http://www.w3.org/1999/02/22-rdf-syntax-ns#">
   <cc:Work>
    <dc:type rdf:resource="http://purl.org/dc/dcmitype/StillImage"/>
    <dc:date>2022-01-07T13:24:52.658726</dc:date>
    <dc:format>image/svg+xml</dc:format>
    <dc:creator>
     <cc:Agent>
      <dc:title>Matplotlib v3.4.3, https://matplotlib.org/</dc:title>
     </cc:Agent>
    </dc:creator>
   </cc:Work>
  </rdf:RDF>
 </metadata>
 <defs>
  <style type="text/css">*{stroke-linecap:butt;stroke-linejoin:round;}</style>
 </defs>
 <g id="figure_1">
  <g id="patch_1">
   <path d="M 0 504 
L 1080 504 
L 1080 0 
L 0 0 
z
" style="fill:#ffffff;"/>
  </g>
  <g id="axes_1">
   <g id="patch_2">
    <path d="M 135 448.56 
L 972 448.56 
L 972 60.48 
L 135 60.48 
z
" style="fill:#ffffff;"/>
   </g>
   <g id="matplotlib.axis_1">
    <g id="xtick_1">
     <g id="line2d_1">
      <defs>
       <path d="M 0 0 
L 0 3.5 
" id="mffcf3b6948" style="stroke:#000000;stroke-width:0.8;"/>
      </defs>
      <g>
       <use style="stroke:#000000;stroke-width:0.8;" x="135" xlink:href="#mffcf3b6948" y="448.56"/>
      </g>
     </g>
     <g id="text_1">
      <!-- 0.0 -->
      <g transform="translate(120.687187 469.237188)scale(0.18 -0.18)">
       <defs>
        <path d="M 2034 4250 
Q 1547 4250 1301 3770 
Q 1056 3291 1056 2328 
Q 1056 1369 1301 889 
Q 1547 409 2034 409 
Q 2525 409 2770 889 
Q 3016 1369 3016 2328 
Q 3016 3291 2770 3770 
Q 2525 4250 2034 4250 
z
M 2034 4750 
Q 2819 4750 3233 4129 
Q 3647 3509 3647 2328 
Q 3647 1150 3233 529 
Q 2819 -91 2034 -91 
Q 1250 -91 836 529 
Q 422 1150 422 2328 
Q 422 3509 836 4129 
Q 1250 4750 2034 4750 
z
" id="DejaVuSans-30" transform="scale(0.015625)"/>
        <path d="M 684 794 
L 1344 794 
L 1344 0 
L 684 0 
L 684 794 
z
" id="DejaVuSans-2e" transform="scale(0.015625)"/>
       </defs>
       <use xlink:href="#DejaVuSans-30"/>
       <use x="63.623047" xlink:href="#DejaVuSans-2e"/>
       <use x="95.410156" xlink:href="#DejaVuSans-30"/>
      </g>
     </g>
    </g>
    <g id="xtick_2">
     <g id="line2d_2">
      <g>
       <use style="stroke:#000000;stroke-width:0.8;" x="302.4" xlink:href="#mffcf3b6948" y="448.56"/>
      </g>
     </g>
     <g id="text_2">
      <!-- 0.2 -->
      <g transform="translate(288.087187 469.237188)scale(0.18 -0.18)">
       <defs>
        <path d="M 1228 531 
L 3431 531 
L 3431 0 
L 469 0 
L 469 531 
Q 828 903 1448 1529 
Q 2069 2156 2228 2338 
Q 2531 2678 2651 2914 
Q 2772 3150 2772 3378 
Q 2772 3750 2511 3984 
Q 2250 4219 1831 4219 
Q 1534 4219 1204 4116 
Q 875 4013 500 3803 
L 500 4441 
Q 881 4594 1212 4672 
Q 1544 4750 1819 4750 
Q 2544 4750 2975 4387 
Q 3406 4025 3406 3419 
Q 3406 3131 3298 2873 
Q 3191 2616 2906 2266 
Q 2828 2175 2409 1742 
Q 1991 1309 1228 531 
z
" id="DejaVuSans-32" transform="scale(0.015625)"/>
       </defs>
       <use xlink:href="#DejaVuSans-30"/>
       <use x="63.623047" xlink:href="#DejaVuSans-2e"/>
       <use x="95.410156" xlink:href="#DejaVuSans-32"/>
      </g>
     </g>
    </g>
    <g id="xtick_3">
     <g id="line2d_3">
      <g>
       <use style="stroke:#000000;stroke-width:0.8;" x="469.8" xlink:href="#mffcf3b6948" y="448.56"/>
      </g>
     </g>
     <g id="text_3">
      <!-- 0.4 -->
      <g transform="translate(455.487188 469.237188)scale(0.18 -0.18)">
       <defs>
        <path d="M 2419 4116 
L 825 1625 
L 2419 1625 
L 2419 4116 
z
M 2253 4666 
L 3047 4666 
L 3047 1625 
L 3713 1625 
L 3713 1100 
L 3047 1100 
L 3047 0 
L 2419 0 
L 2419 1100 
L 313 1100 
L 313 1709 
L 2253 4666 
z
" id="DejaVuSans-34" transform="scale(0.015625)"/>
       </defs>
       <use xlink:href="#DejaVuSans-30"/>
       <use x="63.623047" xlink:href="#DejaVuSans-2e"/>
       <use x="95.410156" xlink:href="#DejaVuSans-34"/>
      </g>
     </g>
    </g>
    <g id="xtick_4">
     <g id="line2d_4">
      <g>
       <use style="stroke:#000000;stroke-width:0.8;" x="637.2" xlink:href="#mffcf3b6948" y="448.56"/>
      </g>
     </g>
     <g id="text_4">
      <!-- 0.6 -->
      <g transform="translate(622.887188 469.237188)scale(0.18 -0.18)">
       <defs>
        <path d="M 2113 2584 
Q 1688 2584 1439 2293 
Q 1191 2003 1191 1497 
Q 1191 994 1439 701 
Q 1688 409 2113 409 
Q 2538 409 2786 701 
Q 3034 994 3034 1497 
Q 3034 2003 2786 2293 
Q 2538 2584 2113 2584 
z
M 3366 4563 
L 3366 3988 
Q 3128 4100 2886 4159 
Q 2644 4219 2406 4219 
Q 1781 4219 1451 3797 
Q 1122 3375 1075 2522 
Q 1259 2794 1537 2939 
Q 1816 3084 2150 3084 
Q 2853 3084 3261 2657 
Q 3669 2231 3669 1497 
Q 3669 778 3244 343 
Q 2819 -91 2113 -91 
Q 1303 -91 875 529 
Q 447 1150 447 2328 
Q 447 3434 972 4092 
Q 1497 4750 2381 4750 
Q 2619 4750 2861 4703 
Q 3103 4656 3366 4563 
z
" id="DejaVuSans-36" transform="scale(0.015625)"/>
       </defs>
       <use xlink:href="#DejaVuSans-30"/>
       <use x="63.623047" xlink:href="#DejaVuSans-2e"/>
       <use x="95.410156" xlink:href="#DejaVuSans-36"/>
      </g>
     </g>
    </g>
    <g id="xtick_5">
     <g id="line2d_5">
      <g>
       <use style="stroke:#000000;stroke-width:0.8;" x="804.6" xlink:href="#mffcf3b6948" y="448.56"/>
      </g>
     </g>
     <g id="text_5">
      <!-- 0.8 -->
      <g transform="translate(790.287188 469.237188)scale(0.18 -0.18)">
       <defs>
        <path d="M 2034 2216 
Q 1584 2216 1326 1975 
Q 1069 1734 1069 1313 
Q 1069 891 1326 650 
Q 1584 409 2034 409 
Q 2484 409 2743 651 
Q 3003 894 3003 1313 
Q 3003 1734 2745 1975 
Q 2488 2216 2034 2216 
z
M 1403 2484 
Q 997 2584 770 2862 
Q 544 3141 544 3541 
Q 544 4100 942 4425 
Q 1341 4750 2034 4750 
Q 2731 4750 3128 4425 
Q 3525 4100 3525 3541 
Q 3525 3141 3298 2862 
Q 3072 2584 2669 2484 
Q 3125 2378 3379 2068 
Q 3634 1759 3634 1313 
Q 3634 634 3220 271 
Q 2806 -91 2034 -91 
Q 1263 -91 848 271 
Q 434 634 434 1313 
Q 434 1759 690 2068 
Q 947 2378 1403 2484 
z
M 1172 3481 
Q 1172 3119 1398 2916 
Q 1625 2713 2034 2713 
Q 2441 2713 2670 2916 
Q 2900 3119 2900 3481 
Q 2900 3844 2670 4047 
Q 2441 4250 2034 4250 
Q 1625 4250 1398 4047 
Q 1172 3844 1172 3481 
z
" id="DejaVuSans-38" transform="scale(0.015625)"/>
       </defs>
       <use xlink:href="#DejaVuSans-30"/>
       <use x="63.623047" xlink:href="#DejaVuSans-2e"/>
       <use x="95.410156" xlink:href="#DejaVuSans-38"/>
      </g>
     </g>
    </g>
    <g id="xtick_6">
     <g id="line2d_6">
      <g>
       <use style="stroke:#000000;stroke-width:0.8;" x="972" xlink:href="#mffcf3b6948" y="448.56"/>
      </g>
     </g>
     <g id="text_6">
      <!-- 1.0 -->
      <g transform="translate(957.687188 469.237188)scale(0.18 -0.18)">
       <defs>
        <path d="M 794 531 
L 1825 531 
L 1825 4091 
L 703 3866 
L 703 4441 
L 1819 4666 
L 2450 4666 
L 2450 531 
L 3481 531 
L 3481 0 
L 794 0 
L 794 531 
z
" id="DejaVuSans-31" transform="scale(0.015625)"/>
       </defs>
       <use xlink:href="#DejaVuSans-31"/>
       <use x="63.623047" xlink:href="#DejaVuSans-2e"/>
       <use x="95.410156" xlink:href="#DejaVuSans-30"/>
      </g>
     </g>
    </g>
    <g id="text_7">
     <!-- $FPR_{Fair}$ -->
     <g transform="translate(518.08 493.697187)scale(0.22 -0.22)">
      <defs>
       <path d="M 1081 4666 
L 3756 4666 
L 3653 4134 
L 1606 4134 
L 1338 2759 
L 3188 2759 
L 3084 2228 
L 1234 2228 
L 800 0 
L 172 0 
L 1081 4666 
z
" id="DejaVuSans-Oblique-46" transform="scale(0.015625)"/>
       <path d="M 1081 4666 
L 2541 4666 
Q 3178 4666 3512 4369 
Q 3847 4072 3847 3500 
Q 3847 2731 3353 2303 
Q 2859 1875 1966 1875 
L 1172 1875 
L 806 0 
L 172 0 
L 1081 4666 
z
M 1613 4147 
L 1275 2394 
L 2069 2394 
Q 2606 2394 2893 2669 
Q 3181 2944 3181 3456 
Q 3181 3784 2986 3965 
Q 2791 4147 2438 4147 
L 1613 4147 
z
" id="DejaVuSans-Oblique-50" transform="scale(0.015625)"/>
       <path d="M 1613 4147 
L 1294 2491 
L 2106 2491 
Q 2584 2491 2879 2755 
Q 3175 3019 3175 3444 
Q 3175 3784 2976 3965 
Q 2778 4147 2406 4147 
L 1613 4147 
z
M 2772 2241 
Q 2972 2194 3105 2009 
Q 3238 1825 3413 1275 
L 3809 0 
L 3144 0 
L 2778 1197 
Q 2638 1659 2453 1815 
Q 2269 1972 1888 1972 
L 1191 1972 
L 806 0 
L 172 0 
L 1081 4666 
L 2503 4666 
Q 3150 4666 3495 4373 
Q 3841 4081 3841 3531 
Q 3841 3044 3547 2687 
Q 3253 2331 2772 2241 
z
" id="DejaVuSans-Oblique-52" transform="scale(0.015625)"/>
       <path d="M 3438 1997 
L 3047 0 
L 2472 0 
L 2578 531 
Q 2325 219 2001 64 
Q 1678 -91 1281 -91 
Q 834 -91 548 182 
Q 263 456 263 884 
Q 263 1497 752 1853 
Q 1241 2209 2100 2209 
L 2900 2209 
L 2931 2363 
Q 2938 2388 2941 2417 
Q 2944 2447 2944 2509 
Q 2944 2788 2717 2942 
Q 2491 3097 2081 3097 
Q 1800 3097 1504 3025 
Q 1209 2953 897 2809 
L 997 3341 
Q 1322 3463 1633 3523 
Q 1944 3584 2234 3584 
Q 2853 3584 3176 3315 
Q 3500 3047 3500 2534 
Q 3500 2431 3484 2292 
Q 3469 2153 3438 1997 
z
M 2816 1759 
L 2241 1759 
Q 1534 1759 1195 1570 
Q 856 1381 856 984 
Q 856 709 1029 553 
Q 1203 397 1509 397 
Q 1978 397 2328 733 
Q 2678 1069 2791 1631 
L 2816 1759 
z
" id="DejaVuSans-Oblique-61" transform="scale(0.015625)"/>
       <path d="M 1172 4863 
L 1747 4863 
L 1606 4134 
L 1031 4134 
L 1172 4863 
z
M 909 3500 
L 1484 3500 
L 800 0 
L 225 0 
L 909 3500 
z
" id="DejaVuSans-Oblique-69" transform="scale(0.015625)"/>
       <path d="M 2853 2969 
Q 2766 3016 2653 3041 
Q 2541 3066 2413 3066 
Q 1953 3066 1609 2717 
Q 1266 2369 1153 1784 
L 800 0 
L 225 0 
L 909 3500 
L 1484 3500 
L 1375 2956 
Q 1603 3259 1920 3421 
Q 2238 3584 2597 3584 
Q 2691 3584 2781 3573 
Q 2872 3563 2963 3538 
L 2853 2969 
z
" id="DejaVuSans-Oblique-72" transform="scale(0.015625)"/>
      </defs>
      <use transform="translate(0 0.09375)" xlink:href="#DejaVuSans-Oblique-46"/>
      <use transform="translate(57.519531 0.09375)" xlink:href="#DejaVuSans-Oblique-50"/>
      <use transform="translate(117.822266 0.09375)" xlink:href="#DejaVuSans-Oblique-52"/>
      <use transform="translate(187.304688 -16.3125)scale(0.7)" xlink:href="#DejaVuSans-Oblique-46"/>
      <use transform="translate(227.568359 -16.3125)scale(0.7)" xlink:href="#DejaVuSans-Oblique-61"/>
      <use transform="translate(270.463867 -16.3125)scale(0.7)" xlink:href="#DejaVuSans-Oblique-69"/>
      <use transform="translate(289.912109 -16.3125)scale(0.7)" xlink:href="#DejaVuSans-Oblique-72"/>
     </g>
    </g>
   </g>
   <g id="matplotlib.axis_2">
    <g id="ytick_1">
     <g id="line2d_7">
      <defs>
       <path d="M 0 0 
L -3.5 0 
" id="m5809653850" style="stroke:#000000;stroke-width:0.8;"/>
      </defs>
      <g>
       <use style="stroke:#000000;stroke-width:0.8;" x="135" xlink:href="#m5809653850" y="448.56"/>
      </g>
     </g>
     <g id="text_8">
      <!-- 0.0 -->
      <g transform="translate(99.374375 455.398594)scale(0.18 -0.18)">
       <use xlink:href="#DejaVuSans-30"/>
       <use x="63.623047" xlink:href="#DejaVuSans-2e"/>
       <use x="95.410156" xlink:href="#DejaVuSans-30"/>
      </g>
     </g>
    </g>
    <g id="ytick_2">
     <g id="line2d_8">
      <g>
       <use style="stroke:#000000;stroke-width:0.8;" x="135" xlink:href="#m5809653850" y="370.944"/>
      </g>
     </g>
     <g id="text_9">
      <!-- 0.2 -->
      <g transform="translate(99.374375 377.782594)scale(0.18 -0.18)">
       <use xlink:href="#DejaVuSans-30"/>
       <use x="63.623047" xlink:href="#DejaVuSans-2e"/>
       <use x="95.410156" xlink:href="#DejaVuSans-32"/>
      </g>
     </g>
    </g>
    <g id="ytick_3">
     <g id="line2d_9">
      <g>
       <use style="stroke:#000000;stroke-width:0.8;" x="135" xlink:href="#m5809653850" y="293.328"/>
      </g>
     </g>
     <g id="text_10">
      <!-- 0.4 -->
      <g transform="translate(99.374375 300.166594)scale(0.18 -0.18)">
       <use xlink:href="#DejaVuSans-30"/>
       <use x="63.623047" xlink:href="#DejaVuSans-2e"/>
       <use x="95.410156" xlink:href="#DejaVuSans-34"/>
      </g>
     </g>
    </g>
    <g id="ytick_4">
     <g id="line2d_10">
      <g>
       <use style="stroke:#000000;stroke-width:0.8;" x="135" xlink:href="#m5809653850" y="215.712"/>
      </g>
     </g>
     <g id="text_11">
      <!-- 0.6 -->
      <g transform="translate(99.374375 222.550594)scale(0.18 -0.18)">
       <use xlink:href="#DejaVuSans-30"/>
       <use x="63.623047" xlink:href="#DejaVuSans-2e"/>
       <use x="95.410156" xlink:href="#DejaVuSans-36"/>
      </g>
     </g>
    </g>
    <g id="ytick_5">
     <g id="line2d_11">
      <g>
       <use style="stroke:#000000;stroke-width:0.8;" x="135" xlink:href="#m5809653850" y="138.096"/>
      </g>
     </g>
     <g id="text_12">
      <!-- 0.8 -->
      <g transform="translate(99.374375 144.934594)scale(0.18 -0.18)">
       <use xlink:href="#DejaVuSans-30"/>
       <use x="63.623047" xlink:href="#DejaVuSans-2e"/>
       <use x="95.410156" xlink:href="#DejaVuSans-38"/>
      </g>
     </g>
    </g>
    <g id="ytick_6">
     <g id="line2d_12">
      <g>
       <use style="stroke:#000000;stroke-width:0.8;" x="135" xlink:href="#m5809653850" y="60.48"/>
      </g>
     </g>
     <g id="text_13">
      <!-- 1.0 -->
      <g transform="translate(99.374375 67.318594)scale(0.18 -0.18)">
       <use xlink:href="#DejaVuSans-31"/>
       <use x="63.623047" xlink:href="#DejaVuSans-2e"/>
       <use x="95.410156" xlink:href="#DejaVuSans-30"/>
      </g>
     </g>
    </g>
    <g id="text_14">
     <!-- $TPR_{Fair}$ -->
     <g transform="translate(90.799062 290.27)rotate(-90)scale(0.22 -0.22)">
      <defs>
       <path d="M 378 4666 
L 4325 4666 
L 4225 4134 
L 2559 4134 
L 1759 0 
L 1125 0 
L 1925 4134 
L 275 4134 
L 378 4666 
z
" id="DejaVuSans-Oblique-54" transform="scale(0.015625)"/>
      </defs>
      <use transform="translate(0 0.09375)" xlink:href="#DejaVuSans-Oblique-54"/>
      <use transform="translate(61.083984 0.09375)" xlink:href="#DejaVuSans-Oblique-50"/>
      <use transform="translate(121.386719 0.09375)" xlink:href="#DejaVuSans-Oblique-52"/>
      <use transform="translate(190.869141 -16.3125)scale(0.7)" xlink:href="#DejaVuSans-Oblique-46"/>
      <use transform="translate(231.132812 -16.3125)scale(0.7)" xlink:href="#DejaVuSans-Oblique-61"/>
      <use transform="translate(274.02832 -16.3125)scale(0.7)" xlink:href="#DejaVuSans-Oblique-69"/>
      <use transform="translate(293.476562 -16.3125)scale(0.7)" xlink:href="#DejaVuSans-Oblique-72"/>
     </g>
    </g>
   </g>
   <g id="line2d_13">
    <path clip-path="url(#pd7db4dc044)" d="M 135 448.56 
L 972 60.48 
" style="fill:none;stroke:#ff0000;stroke-dasharray:5.55,2.4;stroke-dashoffset:0;stroke-width:1.5;"/>
   </g>
   <g id="line2d_14">
    <path clip-path="url(#pd7db4dc044)" d="M 972 60.48 
L 889.645293 69.880301 
L 841.105447 78.512759 
L 802.438515 87.293427 
L 770.392681 95.753393 
L 743.229665 103.223661 
L 722.483591 109.849313 
L 705.024893 116.917039 
L 690.443826 123.628165 
L 678.41461 129.978793 
L 667.404573 135.681201 
L 657.50168 139.871544 
L 647.971214 144.049948 
L 638.40947 148.90384 
L 628.247717 153.282208 
L 619.673946 157.729817 
L 611.711837 162.232165 
L 604.722167 165.667662 
L 596.945396 169.358058 
L 589.843162 173.425237 
L 583.403336 177.614724 
L 577.987414 182.024928 
L 572.003991 185.07034 
L 566.583024 187.773655 
L 561.146631 191.110608 
L 556.402849 193.916905 
L 551.929108 196.577569 
L 547.277084 199.449525 
L 542.786816 202.335742 
L 538.647871 205.029435 
L 533.805054 207.854597 
L 528.827352 210.807113 
L 524.203719 213.520275 
L 519.948485 215.965313 
L 515.486134 218.759739 
L 511.079937 221.152322 
L 506.384106 223.62746 
L 502.150658 226.213292 
L 498.319831 228.709649 
L 494.572361 230.878387 
L 490.97047 232.389758 
L 487.406752 234.029955 
L 484.104137 235.662376 
L 480.672766 237.387766 
L 477.023471 239.029225 
L 473.463924 240.565585 
L 470.158554 241.930563 
L 466.588339 243.595354 
L 463.446999 245.465791 
L 460.526071 247.391929 
L 457.47936 249.122792 
L 454.539224 251.194778 
L 451.085054 253.025085 
L 447.797941 254.698353 
L 444.920065 256.326987 
L 442.369991 257.67232 
L 439.691126 259.066439 
L 436.779592 260.274646 
L 433.828725 261.640886 
L 431.379746 263.058487 
L 428.762374 264.598613 
L 425.972442 265.93508 
L 423.526721 267.511282 
L 420.499868 269.146374 
L 417.953576 270.805098 
L 415.335246 272.440104 
L 412.768619 273.795392 
L 410.095429 275.571881 
L 407.390302 276.725849 
L 405.089085 277.985011 
L 402.802873 279.131548 
L 400.249591 280.585769 
L 398.01298 281.854465 
L 395.495123 283.028901 
L 393.275042 284.182166 
L 390.773895 285.231476 
L 388.508062 286.2921 
L 386.364525 287.384229 
L 383.988399 288.512299 
L 381.681528 289.508857 
L 379.251458 290.494211 
L 376.914245 291.57264 
L 374.782075 292.561546 
L 372.535032 293.828558 
L 370.375422 295.076491 
L 368.328052 296.261798 
L 366.11423 297.454846 
L 363.573647 298.571466 
L 361.551448 299.796958 
L 359.530519 300.856844 
L 357.457672 302.01789 
L 355.525376 302.962581 
L 353.553883 303.703775 
L 351.298708 304.466418 
L 349.403404 305.127796 
L 347.082414 305.946362 
L 344.968324 306.730553 
L 342.766574 307.466688 
L 340.81469 308.249651 
L 338.83654 309.189724 
L 336.825332 310.14097 
" style="fill:none;stroke:#1f77b4;stroke-linecap:square;stroke-width:1.5;"/>
   </g>
   <g id="line2d_15">
    <path clip-path="url(#pd7db4dc044)" d="M 972 60.48 
L 621.575245 121.946087 
L 508.476384 165.585 
L 444.162986 200.562353 
L 402.769744 227.7703 
L 372.174981 248.095961 
L 351.184019 263.756225 
L 335.488564 278.025509 
L 323.278782 290.722516 
L 313.207494 301.092184 
L 305.052091 309.657887 
L 297.537166 316.033365 
L 290.530321 321.887508 
L 284.145642 328.128889 
L 277.82727 333.720534 
L 272.50778 338.856826 
L 267.616824 344.056464 
L 263.66176 347.908361 
L 259.213835 351.847928 
L 255.462937 355.916428 
L 252.105922 359.851135 
L 249.289312 363.662363 
L 246.405416 366.081968 
L 243.671785 368.145611 
L 241.258407 370.552814 
L 238.940234 372.454097 
L 236.813145 374.373647 
L 234.66788 376.189006 
L 232.738707 378.022433 
L 230.794626 379.678653 
L 228.672451 381.327139 
L 226.457852 383.071915 
L 224.577066 384.727621 
L 222.918542 386.142436 
L 221.105081 387.852638 
L 219.360293 389.317768 
L 217.580112 390.823798 
L 216.109636 392.331307 
L 214.724379 393.74861 
L 213.400408 395.271229 
L 212.109262 396.274551 
L 210.776087 397.114977 
L 209.547311 397.828006 
L 208.482153 398.58401 
L 207.288306 399.371803 
L 206.092929 400.039784 
L 204.798996 400.64389 
L 203.455594 401.306667 
L 202.288181 402.054654 
L 201.32923 402.821073 
L 200.365198 403.512483 
L 199.461251 404.220258 
L 198.304316 404.938991 
L 197.363875 405.607026 
L 196.452431 406.178829 
L 195.488372 406.647167 
L 194.729993 407.178195 
L 193.990932 407.603378 
L 193.077656 408.013627 
L 192.500122 408.544557 
L 191.726877 409.068493 
L 190.852018 409.587811 
L 190.035479 410.162356 
L 189.18369 410.768687 
L 188.527057 411.331459 
L 187.741253 411.896509 
L 187.09858 412.377748 
L 186.443764 413.057077 
L 185.744847 413.539695 
L 185.116162 414.064 
L 184.624979 414.52228 
L 184.049194 414.977938 
L 183.497384 415.360753 
L 182.766018 415.708916 
L 182.25359 416.034397 
L 181.703272 416.329492 
L 181.15212 416.730718 
L 180.701128 417.022494 
L 180.240763 417.386648 
L 179.744709 417.64276 
L 179.247396 417.958503 
L 178.717477 418.298455 
L 178.25204 418.567869 
L 177.589668 418.943023 
L 177.080563 419.251633 
L 176.614863 419.527779 
L 176.107806 419.810624 
L 175.648134 420.082892 
L 175.25511 420.426 
L 174.80216 420.697113 
L 174.280805 421.023643 
L 173.830787 421.263638 
L 173.325042 421.436223 
L 172.911176 421.64337 
L 172.540611 421.821557 
L 172.094897 422.159179 
L 171.675891 422.367816 
L 171.257046 422.637909 
L 170.791043 422.819307 
L 170.418105 423.093041 
L 170.099599 423.413341 
" style="fill:none;stroke:#ff7f0e;stroke-linecap:square;stroke-width:1.5;"/>
   </g>
   <g id="line2d_16">
    <path clip-path="url(#pd7db4dc044)" d="M 972 60.48 
L 889.694289 69.880301 
L 841.178906 78.512759 
L 802.529151 87.293427 
L 770.496027 95.753393 
L 743.342826 103.223661 
L 722.6037 109.849313 
L 705.141432 116.917039 
L 690.564402 123.628165 
L 678.529102 129.978793 
L 667.521732 135.681201 
L 657.62123 139.871544 
L 648.082942 144.049948 
L 638.523218 148.90384 
L 628.363561 153.282208 
L 619.79162 157.729817 
L 611.83117 162.232165 
L 604.842939 165.667662 
L 597.067654 169.358058 
L 589.955475 173.425237 
L 583.516821 177.614724 
L 578.101909 182.024928 
L 572.119626 185.07034 
L 566.699801 187.773655 
L 561.264445 191.110608 
L 556.521445 193.916905 
L 552.048527 196.577569 
L 547.397344 199.449525 
L 542.908056 202.335742 
L 538.769894 205.029435 
L 533.926817 207.854597 
L 528.949714 210.807113 
L 524.326701 213.520275 
L 520.071999 215.965313 
L 515.610349 218.759739 
L 511.204664 221.152322 
L 506.509437 223.62746 
L 502.27636 226.213292 
L 498.445916 228.709649 
L 494.685936 230.878387 
L 491.084349 232.389758 
L 487.521137 234.029955 
L 484.218955 235.662376 
L 480.787993 237.387766 
L 477.139105 239.029225 
L 473.579957 240.565585 
L 470.274995 241.930563 
L 466.705218 243.595354 
L 463.564406 245.465791 
L 460.643986 247.391929 
L 457.597702 249.122792 
L 454.658067 251.194778 
L 451.204458 253.025085 
L 447.917793 254.698353 
L 445.040372 256.326987 
L 442.490715 257.67232 
L 439.812336 259.066439 
L 436.901272 260.274646 
L 433.950755 261.640886 
L 431.502172 263.058487 
L 428.88522 264.598613 
L 426.09576 265.93508 
L 423.650479 267.511282 
L 420.624065 269.146374 
L 418.078214 270.805098 
L 415.460385 272.440104 
L 412.894174 273.795392 
L 410.221369 275.571881 
L 407.516768 276.725849 
L 405.215903 277.985011 
L 402.93015 279.131548 
L 400.377313 280.585769 
L 398.141037 281.854465 
L 395.623547 283.028901 
L 393.403869 284.182166 
L 390.903146 285.231476 
L 388.6377 286.2921 
L 386.49451 287.384229 
L 384.118674 288.512299 
L 381.812207 289.508857 
L 379.382451 290.494211 
L 377.045533 291.57264 
L 374.897893 292.561546 
L 372.65123 293.828558 
L 370.491869 295.076491 
L 368.444805 296.261798 
L 366.231331 297.454846 
L 363.69116 298.571466 
L 361.669241 299.796958 
L 359.648592 300.856844 
L 357.575901 302.01789 
L 355.643774 302.962581 
L 353.672528 303.703775 
L 351.417704 304.466418 
L 349.522553 305.127796 
L 347.201785 305.946362 
L 345.087914 306.730553 
L 342.88633 307.466688 
L 340.934601 308.249651 
L 338.956578 309.189724 
L 336.945607 310.14097 
" style="fill:none;stroke:#2ca02c;stroke-linecap:square;stroke-width:1.5;"/>
   </g>
   <g id="line2d_17">
    <path clip-path="url(#pd7db4dc044)" d="M 972 60.48 
L 795.884251 85.251064 
L 710.299055 106.68 
L 650.041769 127.040996 
L 605.008096 145.269751 
L 569.061623 160.035304 
L 542.776357 172.369669 
L 522.063276 184.773106 
L 505.233668 196.078819 
L 491.248591 206.168848 
L 479.199702 214.580548 
L 468.033349 221.03116 
L 457.938821 227.274919 
L 448.044829 233.870283 
L 437.803087 240.452237 
L 429.24773 246.844282 
L 421.11986 253.206908 
L 414.138462 257.880075 
L 406.691886 262.946223 
L 400.077289 268.279471 
L 394.157706 273.708634 
L 389.079401 279.099667 
L 383.730223 282.569655 
L 378.593587 285.734395 
L 373.838536 289.370964 
L 369.658707 292.327349 
L 365.872219 295.136437 
L 361.805881 298.026921 
L 358.077557 301.007121 
L 354.524837 303.741064 
L 350.593147 306.425976 
L 346.727066 309.114582 
L 342.997613 311.779903 
L 339.686737 314.094149 
L 336.27498 316.639968 
L 332.884534 318.984773 
L 329.21976 321.30058 
L 326.233633 323.635488 
L 323.237103 325.975644 
L 320.391207 328.085633 
L 317.753334 329.565804 
L 315.141098 331.008595 
L 312.597171 332.350356 
L 310.099839 333.74823 
L 307.505229 335.167062 
L 305.02664 336.366701 
L 302.618057 337.510347 
L 300.037531 338.833078 
L 297.661586 340.31115 
L 295.555881 341.838 
L 293.548312 343.154453 
L 291.424028 344.701392 
L 288.980447 346.059014 
L 286.772935 347.310452 
L 284.792037 348.496067 
L 282.906997 349.502011 
L 281.141291 350.520738 
L 279.251914 351.414136 
L 277.410915 352.341474 
L 275.8624 353.3468 
L 274.310314 354.421073 
L 272.51076 355.425676 
L 270.944636 356.562614 
L 269.118836 357.720888 
L 267.513693 358.875574 
L 265.770872 360.022409 
L 264.129175 360.882738 
L 262.662021 362.153588 
L 260.993954 363.0363 
L 259.593028 364.047243 
L 258.283217 364.86682 
L 256.683928 365.858105 
L 255.366526 366.714447 
L 253.996455 367.464535 
L 252.766886 368.185051 
L 251.337563 368.853333 
L 249.942626 369.558773 
L 248.731954 370.295378 
L 247.497571 371.043699 
L 246.029463 371.666042 
L 244.655749 372.334085 
L 243.337365 372.99996 
L 242.148464 373.607584 
L 240.845699 374.438567 
L 239.721739 375.172802 
L 238.561166 375.883231 
L 237.308549 376.569522 
L 236.076905 377.283082 
L 234.973544 378.043918 
L 233.856039 378.667561 
L 232.675318 379.355084 
L 231.597721 379.912002 
L 230.492013 380.333478 
L 229.244746 380.796146 
L 228.254814 381.248065 
L 227.05591 381.780417 
L 225.916728 382.288394 
L 224.699772 382.746195 
L 223.734634 383.203663 
L 222.701954 383.853703 
L 221.620231 384.463315 
" style="fill:none;stroke:#d62728;stroke-linecap:square;stroke-width:1.5;"/>
   </g>
   <g id="line2d_18">
    <path clip-path="url(#pd7db4dc044)" d="M 972 60.48 
L 916.673104 68.58936 
L 879.014019 77.186416 
L 846.659813 85.682854 
L 819.239992 94.014665 
L 793.369165 100.241129 
L 771.046623 106.070254 
L 753.744442 111.421372 
L 739.479184 117.222678 
L 728.126662 123.502699 
L 718.028609 128.707943 
L 707.095097 132.409773 
L 696.348068 136.731294 
L 685.073385 141.87014 
L 675.096971 145.979742 
L 666.02029 150.329274 
L 656.807801 154.756587 
L 647.697867 157.982367 
L 639.066555 161.501155 
L 631.917728 164.784071 
L 624.665033 168.746743 
L 618.514548 173.045858 
L 611.125879 176.376064 
L 604.870857 179.030636 
L 598.749554 182.352794 
L 593.625042 185.29765 
L 588.151393 187.820177 
L 582.33271 190.435339 
L 576.601182 193.088286 
L 571.669881 195.443539 
L 565.926203 198.240385 
L 560.107776 201.273457 
L 554.285178 204.040069 
L 548.680936 206.002715 
L 543.365321 208.097349 
L 537.952492 210.288594 
L 532.163671 212.958477 
L 527.375176 215.660587 
L 522.836588 218.125051 
L 518.525497 220.167471 
L 514.022126 221.722114 
L 508.854565 223.443171 
L 504.096419 225.025696 
L 499.576047 226.464846 
L 494.957746 228.174381 
L 490.672398 229.860231 
L 486.260902 231.530523 
L 481.704668 233.440598 
L 477.392063 235.770861 
L 473.476476 238.069076 
L 469.460949 240.02299 
L 465.658519 242.281086 
L 461.267236 244.278156 
L 457.124761 246.024102 
L 453.487429 247.546157 
L 449.842712 248.808732 
L 446.189705 250.073763 
L 442.20606 251.396568 
L 438.84661 252.953504 
L 436.00125 254.456142 
L 432.535807 256.284346 
L 428.957856 257.792538 
L 425.9465 259.553317 
L 422.156424 261.231683 
L 418.89937 262.982379 
L 415.475842 264.49765 
L 412.069886 265.949989 
L 408.602192 267.915506 
L 405.079397 269.261512 
L 402.276002 270.901097 
L 399.405755 272.258261 
L 396.225844 274.372985 
L 393.376749 275.956439 
L 390.538111 277.380731 
L 387.829339 278.530856 
L 384.969696 279.66967 
L 382.12339 280.892005 
L 379.631632 282.187278 
L 376.834612 283.394658 
L 374.066987 284.526186 
L 371.257321 285.530855 
L 368.581395 286.807095 
L 366.175368 287.887204 
L 363.351231 289.383933 
L 360.831017 290.786867 
L 358.501137 291.939465 
L 355.680914 293.411733 
L 352.819807 294.926298 
L 350.567331 296.508698 
L 348.122433 297.781731 
L 345.80847 299.020242 
L 343.643372 300.228722 
L 341.424281 301.116885 
L 338.999737 301.822437 
L 337.053402 302.440294 
L 334.655727 303.252669 
L 332.44858 304.10847 
L 330.089407 304.87903 
L 327.967256 305.723831 
L 325.686482 306.580537 
L 323.44379 307.548525 
" style="fill:none;stroke:#9467bd;stroke-linecap:square;stroke-width:1.5;"/>
   </g>
   <g id="line2d_19">
    <path clip-path="url(#pd7db4dc044)" d="M 972 60.48 
L 878.747983 67.173036 
L 827.604556 72.303019 
L 787.480485 78.456562 
L 756.305607 84.148948 
L 727.818476 89.257198 
L 706.715235 93.586527 
L 689.970014 99.063208 
L 677.881448 104.378471 
L 668.58259 108.350816 
L 659.353255 112.353684 
L 650.461538 115.421744 
L 641.887048 118.134115 
L 633.415712 121.074947 
L 624.469307 124.719108 
L 617.115272 128.379743 
L 609.473475 132.296654 
L 602.647948 135.208986 
L 595.291804 138.173871 
L 588.30287 141.415338 
L 582.394848 145.218542 
L 577.749466 149.894526 
L 573.088754 152.349727 
L 567.985033 154.391609 
L 563.599949 156.920595 
L 559.353518 159.238957 
L 556.078101 161.68101 
L 552.688406 164.1681 
L 549.266669 166.140804 
L 545.70077 168.155767 
L 542.054237 170.148909 
L 538.027289 172.29738 
L 534.2693 174.479129 
L 530.920514 176.405647 
L 527.366755 178.113409 
L 523.619639 180.404147 
L 519.288288 182.216248 
L 515.619059 184.064111 
L 511.868746 186.037245 
L 508.290009 187.841011 
L 505.133086 189.3767 
L 502.148928 190.862739 
L 499.395695 192.067129 
L 496.634639 193.267553 
L 494.426609 194.549364 
L 491.582703 195.740325 
L 489.032779 196.790036 
L 486.025712 198.066961 
L 483.49832 199.41941 
L 481.396401 200.876989 
L 479.272186 202.177491 
L 476.847687 203.890337 
L 474.295039 205.599648 
L 471.747082 206.792614 
L 469.224718 207.940149 
L 467.262252 209.350975 
L 465.025995 210.70657 
L 462.664294 211.842953 
L 460.16496 212.936605 
L 458.151158 214.239798 
L 456.04158 215.6175 
L 453.594059 217.018582 
L 451.717083 218.397696 
L 448.928262 219.807568 
L 446.900943 221.387429 
L 444.820458 223.023518 
L 442.811983 224.172804 
L 440.494278 225.347769 
L 438.198614 226.329834 
L 436.378785 227.278764 
L 434.449384 228.020875 
L 432.268143 228.689002 
L 430.174435 229.554892 
L 428.117609 230.341611 
L 425.99392 230.911851 
L 424.031812 231.699857 
L 421.984869 232.525542 
L 420.098031 233.542703 
L 417.986232 234.649258 
L 415.7904 235.553 
L 413.600443 236.51941 
L 411.63621 237.245781 
L 409.885278 238.137353 
L 407.940338 239.290248 
L 406.094005 240.195101 
L 404.337662 241.128106 
L 402.081625 242.052949 
L 399.795295 242.822553 
L 397.968898 243.628626 
L 395.975856 244.529023 
L 393.866359 245.622643 
L 391.938508 246.42817 
L 389.908727 247.080957 
L 387.602799 248.032701 
L 385.565941 248.81076 
L 383.319208 249.508881 
L 381.295669 250.375111 
L 378.75066 251.192586 
L 376.650356 252.055203 
L 374.620996 253.015814 
L 372.612587 253.886508 
" style="fill:none;stroke:#8c564b;stroke-linecap:square;stroke-width:1.5;"/>
   </g>
   <g id="line2d_20">
    <path clip-path="url(#pd7db4dc044)" d="M 972 60.48 
L 878.165919 71.74418 
L 824.298974 81.958453 
L 781.978589 92.548851 
L 747.098796 102.628972 
L 717.009713 111.447091 
L 694.196191 118.911637 
L 674.977293 127.011096 
L 658.947916 134.441853 
L 645.863063 141.269986 
L 633.851747 147.761933 
L 623.603902 152.300903 
L 613.673347 157.10204 
L 603.253024 162.395963 
L 592.174305 167.2342 
L 583.152818 172.120797 
L 574.721575 177.164 
L 567.263871 180.926942 
L 559.096455 185.042976 
L 551.68278 189.650323 
L 545.091408 194.462798 
L 539.476289 199.272661 
L 533.206313 202.625313 
L 527.476698 205.554924 
L 521.843897 209.185458 
L 516.84018 212.22808 
L 512.164994 214.976831 
L 507.3324 217.915971 
L 502.636154 220.923741 
L 498.398724 223.738249 
L 493.467794 226.535839 
L 488.501434 229.511441 
L 483.824384 232.34762 
L 479.602491 234.761522 
L 475.004415 237.534349 
L 470.805032 239.994378 
L 466.48285 242.639163 
L 462.622123 245.272249 
L 458.720707 247.787835 
L 455.015196 250.013524 
L 451.355825 251.66426 
L 447.774083 253.234703 
L 444.39444 254.807261 
L 440.874154 256.586139 
L 437.233363 258.255676 
L 433.827327 259.765376 
L 430.524031 261.186976 
L 426.962954 262.863527 
L 423.789906 264.810218 
L 420.849293 266.749052 
L 417.935108 268.508864 
L 415.02105 270.599421 
L 411.652585 272.511819 
L 408.439997 274.150326 
L 405.608656 275.731222 
L 403.033554 276.95913 
L 400.36597 278.338628 
L 397.540728 279.467483 
L 394.727795 280.866666 
L 392.323228 282.188832 
L 389.762161 283.699884 
L 387.054278 285.00871 
L 384.674523 286.572507 
L 381.784975 288.178305 
L 379.371012 289.785015 
L 376.867364 291.398368 
L 374.384429 292.680572 
L 371.86841 294.453165 
L 369.346713 295.631818 
L 367.163005 296.893649 
L 364.964306 297.972552 
L 362.578295 299.441988 
L 360.44604 300.749173 
L 358.162304 301.871522 
L 356.068145 302.972708 
L 353.810479 303.992993 
L 351.65682 305.005777 
L 349.701262 306.072854 
L 347.533224 307.078866 
L 345.352882 308.00215 
L 343.143597 308.932911 
L 340.955319 309.936165 
L 338.961926 310.896059 
L 336.898646 312.027616 
L 334.911322 313.202903 
L 332.987579 314.311938 
L 330.808644 315.427129 
L 328.499628 316.485974 
L 326.706981 317.678538 
L 324.841687 318.661677 
L 322.932136 319.781928 
L 321.1883 320.695753 
L 319.414816 321.402577 
L 317.364788 322.132267 
L 315.650599 322.744383 
L 313.578509 323.544848 
L 311.748453 324.283931 
L 309.697969 324.984189 
L 308.014838 325.719535 
L 306.250195 326.616856 
L 304.369783 327.519915 
" style="fill:none;stroke:#e377c2;stroke-linecap:square;stroke-width:1.5;"/>
   </g>
   <g id="line2d_21">
    <path clip-path="url(#pd7db4dc044)" d="M 972 60.48 
L 880.958855 71.603674 
L 827.694702 81.654585 
L 786.077025 92.013034 
L 752.67135 101.590622 
L 723.981138 110.067854 
L 701.720357 117.500526 
L 683.200165 125.434229 
L 668.572785 132.753303 
L 655.995118 139.638526 
L 644.58865 145.74475 
L 634.11011 150.110564 
L 624.346181 154.59017 
L 614.604214 159.686482 
L 604.008387 164.287503 
L 595.190426 169.137791 
L 586.926348 173.992544 
L 579.627457 177.632373 
L 571.751199 181.73109 
L 564.474425 186.084507 
L 557.921993 190.659435 
L 552.454897 195.517722 
L 546.40635 198.879614 
L 540.74485 201.735503 
L 535.313067 205.193964 
L 530.479759 208.194753 
L 525.945414 210.978906 
L 521.241268 213.975886 
L 516.748502 217.002223 
L 512.571892 219.716505 
L 507.673854 222.67118 
L 502.786678 225.582709 
L 498.154476 228.358875 
L 493.995808 230.792202 
L 489.552184 233.686066 
L 485.125285 236.119149 
L 480.516032 238.60076 
L 476.387686 241.22431 
L 472.596041 243.797442 
L 468.857311 246.019672 
L 465.333882 247.594411 
L 461.732474 249.279759 
L 458.401683 250.925798 
L 454.960577 252.739303 
L 451.453592 254.399519 
L 448.03132 255.912918 
L 444.807654 257.294625 
L 441.345301 258.97691 
L 438.191854 260.856074 
L 435.271006 262.775487 
L 432.373282 264.501555 
L 429.459464 266.571345 
L 426.115582 268.402091 
L 422.894181 270.02564 
L 420.06752 271.604734 
L 417.567137 272.914804 
L 414.989415 274.266363 
L 412.18934 275.460311 
L 409.371449 276.766951 
L 407.000189 278.08699 
L 404.500754 279.582017 
L 401.764211 280.844662 
L 399.379716 282.362162 
L 396.530207 283.989159 
L 394.110965 285.61732 
L 391.591172 287.243111 
L 389.113693 288.485775 
L 386.614595 290.245659 
L 384.077073 291.365897 
L 381.82802 292.640877 
L 379.554729 293.708612 
L 377.078123 295.099009 
L 374.941782 296.356886 
L 372.566706 297.456578 
L 370.411807 298.528669 
L 368.125428 299.553466 
L 365.956984 300.554585 
L 363.999974 301.603746 
L 361.702246 302.637984 
L 359.462857 303.611691 
L 357.165713 304.526693 
L 354.951254 305.548792 
L 352.913777 306.521601 
L 350.816365 307.705345 
L 348.794141 308.884107 
L 346.794873 309.955749 
L 344.64477 311.051805 
L 342.261525 312.136325 
L 340.391117 313.316224 
L 338.476983 314.323902 
L 336.532344 315.424658 
L 334.685376 316.324797 
L 332.780145 317.017236 
L 330.614853 317.756378 
L 328.85606 318.400891 
L 326.71169 319.171371 
L 324.751495 319.917927 
L 322.634404 320.641707 
L 320.750413 321.355527 
L 318.897304 322.258345 
L 316.965885 323.147595 
" style="fill:none;stroke:#7f7f7f;stroke-linecap:square;stroke-width:1.5;"/>
   </g>
   <g id="line2d_22">
    <path clip-path="url(#pd7db4dc044)" d="M 972 60.48 
L 889.822594 69.830713 
L 841.348797 78.4411 
L 802.707608 87.201636 
L 770.728801 95.687308 
L 743.536333 103.159973 
L 722.886687 109.787659 
L 705.332941 116.857583 
L 690.765793 123.570727 
L 678.723472 129.94179 
L 667.692478 135.645343 
L 657.803403 139.836408 
L 648.292107 144.015567 
L 638.726207 148.870335 
L 628.57526 153.249415 
L 619.997783 157.713795 
L 612.046632 162.216508 
L 605.053713 165.652276 
L 597.27314 169.342965 
L 590.156126 173.410468 
L 583.713384 177.585787 
L 578.295133 181.996676 
L 572.309261 185.042579 
L 566.89885 187.746336 
L 561.472343 191.070463 
L 556.738073 193.864355 
L 552.262046 196.525888 
L 547.607638 199.398815 
L 543.127095 202.286 
L 538.986026 204.992784 
L 534.139459 207.818651 
L 529.158817 210.760152 
L 524.53266 213.474175 
L 520.285714 215.919984 
L 515.821096 218.715279 
L 511.412203 221.097646 
L 506.713681 223.573726 
L 502.477382 226.16052 
L 498.644125 228.657769 
L 494.901123 230.827213 
L 491.296672 232.339059 
L 487.731022 233.979913 
L 484.426526 235.612984 
L 480.993098 237.339049 
L 477.341555 238.981119 
L 473.779832 240.518028 
L 470.481545 241.874061 
L 466.909164 243.539592 
L 463.766318 245.410839 
L 460.84404 247.337842 
L 457.795646 249.069438 
L 454.854129 251.142327 
L 451.398268 252.973422 
L 448.109322 254.647429 
L 445.230014 256.268412 
L 442.67053 257.614415 
L 439.990565 259.009185 
L 437.08572 260.209882 
L 434.133105 261.576906 
L 431.682942 262.98741 
L 429.0643 264.5285 
L 426.273074 265.86579 
L 423.826285 267.435396 
L 420.797857 269.071584 
L 418.250417 270.731506 
L 415.631018 272.367623 
L 413.063164 273.723861 
L 410.388588 275.501561 
L 407.682379 276.649299 
L 405.380021 277.909344 
L 403.092926 279.056661 
L 400.538504 280.511931 
L 398.300773 281.781563 
L 395.781634 282.956897 
L 393.560601 284.111043 
L 391.058316 285.161095 
L 388.79146 286.222417 
L 386.646915 287.31528 
L 384.269469 288.444128 
L 381.961582 289.447499 
L 379.530203 290.433439 
L 377.191723 291.512543 
L 375.04255 292.502046 
L 372.794567 293.769837 
L 370.633791 295.018553 
L 368.585475 296.198888 
L 366.370667 297.392758 
L 363.828979 298.510099 
L 361.805799 299.736344 
L 359.783891 300.796963 
L 357.709758 301.958655 
L 355.776321 302.903982 
L 353.803822 303.645663 
L 351.54764 304.408737 
L 349.651197 305.070486 
L 347.328889 305.889526 
L 345.213633 306.669082 
L 343.010548 307.405672 
L 341.062845 308.189155 
L 339.0834 309.12981 
L 337.071101 310.081687 
" style="fill:none;stroke:#bcbd22;stroke-linecap:square;stroke-width:1.5;"/>
   </g>
   <g id="line2d_23">
    <path clip-path="url(#pd7db4dc044)" d="M 972 60.48 
L 894.726841 68.44097 
L 849.38534 76.001374 
L 812.738699 84.07231 
L 782.495431 91.947744 
L 756.465779 98.736476 
L 736.30335 104.788091 
L 719.602059 111.368386 
L 705.688905 117.499693 
L 694.171945 123.423717 
L 683.629304 128.648421 
L 673.811072 132.348185 
L 664.873898 136.174127 
L 655.640372 140.343747 
L 645.950809 144.396796 
L 637.741153 148.632795 
L 629.878587 152.915909 
L 622.984097 156.171771 
L 615.395838 159.725207 
L 608.411196 163.632101 
L 602.245275 167.563387 
L 596.993501 171.774329 
L 591.170788 174.676618 
L 585.754446 177.327054 
L 580.432884 180.47767 
L 575.716681 183.190801 
L 571.383055 185.842921 
L 566.859046 188.588611 
L 562.544472 191.496401 
L 558.406731 194.153229 
L 553.669438 196.91652 
L 548.916938 199.679843 
L 544.425612 202.376377 
L 540.300723 204.730704 
L 536.07089 207.485945 
L 531.694411 209.860282 
L 527.055188 212.329724 
L 522.927796 214.817645 
L 519.142718 217.278414 
L 515.378356 219.374379 
L 511.68848 220.862568 
L 508.091102 222.555494 
L 504.710657 224.173326 
L 501.203925 225.920853 
L 497.606699 227.573073 
L 494.160285 229.043769 
L 490.888046 230.439329 
L 487.356851 232.148567 
L 484.20918 234.031304 
L 481.22017 236.017815 
L 478.16086 237.790986 
L 475.258412 239.92174 
L 471.841198 241.722645 
L 468.486581 243.402913 
L 465.582937 245.060955 
L 462.946224 246.389292 
L 460.293333 247.79238 
L 457.36487 249.035478 
L 454.443916 250.373846 
L 451.985847 251.781228 
L 449.331308 253.319297 
L 446.503518 254.693053 
L 444.058191 256.31109 
L 441.028736 257.990002 
L 438.413315 259.745938 
L 435.747603 261.439566 
L 433.136111 262.776207 
L 430.409207 264.577392 
L 427.64867 265.81117 
L 425.298071 267.116082 
L 422.988767 268.254884 
L 420.415628 269.718877 
L 418.121187 271.059699 
L 415.566804 272.273116 
L 413.354402 273.462597 
L 410.815449 274.56069 
L 408.463825 275.635967 
L 406.279428 276.797883 
L 403.733531 277.948888 
L 401.347843 278.964103 
L 398.873101 280.007143 
L 396.405014 281.096293 
L 394.142735 282.068093 
L 391.892177 283.327938 
L 389.607032 284.577538 
L 387.445799 285.781686 
L 385.146667 286.973638 
L 382.5542 288.121485 
L 380.466973 289.405633 
L 378.330123 290.528926 
L 376.205182 291.724615 
L 374.170744 292.734985 
L 372.123624 293.506839 
L 369.790243 294.300019 
L 367.86836 295.002377 
L 365.426169 295.810924 
L 363.227469 296.643338 
L 360.92645 297.386851 
L 358.888267 298.218671 
L 356.779004 299.173613 
L 354.701175 300.146733 
" style="fill:none;stroke:#17becf;stroke-linecap:square;stroke-width:1.5;"/>
   </g>
   <g id="patch_3">
    <path d="M 135 448.56 
L 135 60.48 
" style="fill:none;stroke:#000000;stroke-linecap:square;stroke-linejoin:miter;stroke-width:0.8;"/>
   </g>
   <g id="patch_4">
    <path d="M 972 448.56 
L 972 60.48 
" style="fill:none;stroke:#000000;stroke-linecap:square;stroke-linejoin:miter;stroke-width:0.8;"/>
   </g>
   <g id="patch_5">
    <path d="M 135 448.56 
L 972 448.56 
" style="fill:none;stroke:#000000;stroke-linecap:square;stroke-linejoin:miter;stroke-width:0.8;"/>
   </g>
   <g id="patch_6">
    <path d="M 135 60.48 
L 972 60.48 
" style="fill:none;stroke:#000000;stroke-linecap:square;stroke-linejoin:miter;stroke-width:0.8;"/>
   </g>
   <g id="legend_1">
    <g id="patch_7">
     <path d="M 147.6 339.08625 
L 256.730625 339.08625 
Q 260.330625 339.08625 260.330625 335.48625 
L 260.330625 73.08 
Q 260.330625 69.48 256.730625 69.48 
L 147.6 69.48 
Q 144 69.48 144 73.08 
L 144 335.48625 
Q 144 339.08625 147.6 339.08625 
z
" style="fill:#ffffff;opacity:0.8;stroke:#cccccc;stroke-linejoin:miter;"/>
    </g>
    <g id="line2d_24">
     <path d="M 151.2 84.057188 
L 187.2 84.057188 
" style="fill:none;stroke:#1f77b4;stroke-linecap:square;stroke-width:1.5;"/>
    </g>
    <g id="line2d_25"/>
    <g id="text_15">
     <!-- 0.001 -->
     <g transform="translate(201.6 90.357188)scale(0.18 -0.18)">
      <use xlink:href="#DejaVuSans-30"/>
      <use x="63.623047" xlink:href="#DejaVuSans-2e"/>
      <use x="95.410156" xlink:href="#DejaVuSans-30"/>
      <use x="159.033203" xlink:href="#DejaVuSans-30"/>
      <use x="222.65625" xlink:href="#DejaVuSans-31"/>
     </g>
    </g>
    <g id="line2d_26">
     <path d="M 151.2 110.477812 
L 187.2 110.477812 
" style="fill:none;stroke:#ff7f0e;stroke-linecap:square;stroke-width:1.5;"/>
    </g>
    <g id="line2d_27"/>
    <g id="text_16">
     <!-- 0.011 -->
     <g transform="translate(201.6 116.777812)scale(0.18 -0.18)">
      <use xlink:href="#DejaVuSans-30"/>
      <use x="63.623047" xlink:href="#DejaVuSans-2e"/>
      <use x="95.410156" xlink:href="#DejaVuSans-30"/>
      <use x="159.033203" xlink:href="#DejaVuSans-31"/>
      <use x="222.65625" xlink:href="#DejaVuSans-31"/>
     </g>
    </g>
    <g id="line2d_28">
     <path d="M 151.2 136.898438 
L 187.2 136.898438 
" style="fill:none;stroke:#2ca02c;stroke-linecap:square;stroke-width:1.5;"/>
    </g>
    <g id="line2d_29"/>
    <g id="text_17">
     <!-- 0.021 -->
     <g transform="translate(201.6 143.198438)scale(0.18 -0.18)">
      <use xlink:href="#DejaVuSans-30"/>
      <use x="63.623047" xlink:href="#DejaVuSans-2e"/>
      <use x="95.410156" xlink:href="#DejaVuSans-30"/>
      <use x="159.033203" xlink:href="#DejaVuSans-32"/>
      <use x="222.65625" xlink:href="#DejaVuSans-31"/>
     </g>
    </g>
    <g id="line2d_30">
     <path d="M 151.2 163.319062 
L 187.2 163.319062 
" style="fill:none;stroke:#d62728;stroke-linecap:square;stroke-width:1.5;"/>
    </g>
    <g id="line2d_31"/>
    <g id="text_18">
     <!-- 0.031 -->
     <g transform="translate(201.6 169.619062)scale(0.18 -0.18)">
      <defs>
       <path d="M 2597 2516 
Q 3050 2419 3304 2112 
Q 3559 1806 3559 1356 
Q 3559 666 3084 287 
Q 2609 -91 1734 -91 
Q 1441 -91 1130 -33 
Q 819 25 488 141 
L 488 750 
Q 750 597 1062 519 
Q 1375 441 1716 441 
Q 2309 441 2620 675 
Q 2931 909 2931 1356 
Q 2931 1769 2642 2001 
Q 2353 2234 1838 2234 
L 1294 2234 
L 1294 2753 
L 1863 2753 
Q 2328 2753 2575 2939 
Q 2822 3125 2822 3475 
Q 2822 3834 2567 4026 
Q 2313 4219 1838 4219 
Q 1578 4219 1281 4162 
Q 984 4106 628 3988 
L 628 4550 
Q 988 4650 1302 4700 
Q 1616 4750 1894 4750 
Q 2613 4750 3031 4423 
Q 3450 4097 3450 3541 
Q 3450 3153 3228 2886 
Q 3006 2619 2597 2516 
z
" id="DejaVuSans-33" transform="scale(0.015625)"/>
      </defs>
      <use xlink:href="#DejaVuSans-30"/>
      <use x="63.623047" xlink:href="#DejaVuSans-2e"/>
      <use x="95.410156" xlink:href="#DejaVuSans-30"/>
      <use x="159.033203" xlink:href="#DejaVuSans-33"/>
      <use x="222.65625" xlink:href="#DejaVuSans-31"/>
     </g>
    </g>
    <g id="line2d_32">
     <path d="M 151.2 189.739688 
L 187.2 189.739688 
" style="fill:none;stroke:#9467bd;stroke-linecap:square;stroke-width:1.5;"/>
    </g>
    <g id="line2d_33"/>
    <g id="text_19">
     <!-- 0.041 -->
     <g transform="translate(201.6 196.039688)scale(0.18 -0.18)">
      <use xlink:href="#DejaVuSans-30"/>
      <use x="63.623047" xlink:href="#DejaVuSans-2e"/>
      <use x="95.410156" xlink:href="#DejaVuSans-30"/>
      <use x="159.033203" xlink:href="#DejaVuSans-34"/>
      <use x="222.65625" xlink:href="#DejaVuSans-31"/>
     </g>
    </g>
    <g id="line2d_34">
     <path d="M 151.2 216.160312 
L 187.2 216.160312 
" style="fill:none;stroke:#8c564b;stroke-linecap:square;stroke-width:1.5;"/>
    </g>
    <g id="line2d_35"/>
    <g id="text_20">
     <!-- 0.051 -->
     <g transform="translate(201.6 222.460312)scale(0.18 -0.18)">
      <defs>
       <path d="M 691 4666 
L 3169 4666 
L 3169 4134 
L 1269 4134 
L 1269 2991 
Q 1406 3038 1543 3061 
Q 1681 3084 1819 3084 
Q 2600 3084 3056 2656 
Q 3513 2228 3513 1497 
Q 3513 744 3044 326 
Q 2575 -91 1722 -91 
Q 1428 -91 1123 -41 
Q 819 9 494 109 
L 494 744 
Q 775 591 1075 516 
Q 1375 441 1709 441 
Q 2250 441 2565 725 
Q 2881 1009 2881 1497 
Q 2881 1984 2565 2268 
Q 2250 2553 1709 2553 
Q 1456 2553 1204 2497 
Q 953 2441 691 2322 
L 691 4666 
z
" id="DejaVuSans-35" transform="scale(0.015625)"/>
      </defs>
      <use xlink:href="#DejaVuSans-30"/>
      <use x="63.623047" xlink:href="#DejaVuSans-2e"/>
      <use x="95.410156" xlink:href="#DejaVuSans-30"/>
      <use x="159.033203" xlink:href="#DejaVuSans-35"/>
      <use x="222.65625" xlink:href="#DejaVuSans-31"/>
     </g>
    </g>
    <g id="line2d_36">
     <path d="M 151.2 242.580937 
L 187.2 242.580937 
" style="fill:none;stroke:#e377c2;stroke-linecap:square;stroke-width:1.5;"/>
    </g>
    <g id="line2d_37"/>
    <g id="text_21">
     <!-- 0.061 -->
     <g transform="translate(201.6 248.880937)scale(0.18 -0.18)">
      <use xlink:href="#DejaVuSans-30"/>
      <use x="63.623047" xlink:href="#DejaVuSans-2e"/>
      <use x="95.410156" xlink:href="#DejaVuSans-30"/>
      <use x="159.033203" xlink:href="#DejaVuSans-36"/>
      <use x="222.65625" xlink:href="#DejaVuSans-31"/>
     </g>
    </g>
    <g id="line2d_38">
     <path d="M 151.2 269.001562 
L 187.2 269.001562 
" style="fill:none;stroke:#7f7f7f;stroke-linecap:square;stroke-width:1.5;"/>
    </g>
    <g id="line2d_39"/>
    <g id="text_22">
     <!-- 0.071 -->
     <g transform="translate(201.6 275.301562)scale(0.18 -0.18)">
      <defs>
       <path d="M 525 4666 
L 3525 4666 
L 3525 4397 
L 1831 0 
L 1172 0 
L 2766 4134 
L 525 4134 
L 525 4666 
z
" id="DejaVuSans-37" transform="scale(0.015625)"/>
      </defs>
      <use xlink:href="#DejaVuSans-30"/>
      <use x="63.623047" xlink:href="#DejaVuSans-2e"/>
      <use x="95.410156" xlink:href="#DejaVuSans-30"/>
      <use x="159.033203" xlink:href="#DejaVuSans-37"/>
      <use x="222.65625" xlink:href="#DejaVuSans-31"/>
     </g>
    </g>
    <g id="line2d_40">
     <path d="M 151.2 295.422188 
L 187.2 295.422188 
" style="fill:none;stroke:#bcbd22;stroke-linecap:square;stroke-width:1.5;"/>
    </g>
    <g id="line2d_41"/>
    <g id="text_23">
     <!-- 0.081 -->
     <g transform="translate(201.6 301.722188)scale(0.18 -0.18)">
      <use xlink:href="#DejaVuSans-30"/>
      <use x="63.623047" xlink:href="#DejaVuSans-2e"/>
      <use x="95.410156" xlink:href="#DejaVuSans-30"/>
      <use x="159.033203" xlink:href="#DejaVuSans-38"/>
      <use x="222.65625" xlink:href="#DejaVuSans-31"/>
     </g>
    </g>
    <g id="line2d_42">
     <path d="M 151.2 321.842812 
L 187.2 321.842812 
" style="fill:none;stroke:#17becf;stroke-linecap:square;stroke-width:1.5;"/>
    </g>
    <g id="line2d_43"/>
    <g id="text_24">
     <!-- 0.091 -->
     <g transform="translate(201.6 328.142812)scale(0.18 -0.18)">
      <defs>
       <path d="M 703 97 
L 703 672 
Q 941 559 1184 500 
Q 1428 441 1663 441 
Q 2288 441 2617 861 
Q 2947 1281 2994 2138 
Q 2813 1869 2534 1725 
Q 2256 1581 1919 1581 
Q 1219 1581 811 2004 
Q 403 2428 403 3163 
Q 403 3881 828 4315 
Q 1253 4750 1959 4750 
Q 2769 4750 3195 4129 
Q 3622 3509 3622 2328 
Q 3622 1225 3098 567 
Q 2575 -91 1691 -91 
Q 1453 -91 1209 -44 
Q 966 3 703 97 
z
M 1959 2075 
Q 2384 2075 2632 2365 
Q 2881 2656 2881 3163 
Q 2881 3666 2632 3958 
Q 2384 4250 1959 4250 
Q 1534 4250 1286 3958 
Q 1038 3666 1038 3163 
Q 1038 2656 1286 2365 
Q 1534 2075 1959 2075 
z
" id="DejaVuSans-39" transform="scale(0.015625)"/>
      </defs>
      <use xlink:href="#DejaVuSans-30"/>
      <use x="63.623047" xlink:href="#DejaVuSans-2e"/>
      <use x="95.410156" xlink:href="#DejaVuSans-30"/>
      <use x="159.033203" xlink:href="#DejaVuSans-39"/>
      <use x="222.65625" xlink:href="#DejaVuSans-31"/>
     </g>
    </g>
   </g>
  </g>
 </g>
 <defs>
  <clipPath id="pd7db4dc044">
   <rect height="388.08" width="837" x="135" y="60.48"/>
  </clipPath>
 </defs>
</svg>
