<?xml version="1.0" encoding="utf-8" standalone="no"?>
<!DOCTYPE svg PUBLIC "-//W3C//DTD SVG 1.1//EN"
  "http://www.w3.org/Graphics/SVG/1.1/DTD/svg11.dtd">
<svg height="504pt" version="1.1" viewBox="0 0 1080 504" width="1080pt" xmlns="http://www.w3.org/2000/svg" xmlns:xlink="http://www.w3.org/1999/xlink">
 <metadata>
  <rdf:RDF xmlns:cc="http://creativecommons.org/ns#" xmlns:dc="http://purl.org/dc/elements/1.1/" xmlns:rdf="http://www.w3.org/1999/02/22-rdf-syntax-ns#">
   <cc:Work>
    <dc:type rdf:resource="http://purl.org/dc/dcmitype/StillImage"/>
    <dc:date>2022-01-07T13:24:43.681540</dc:date>
    <dc:format>image/svg+xml</dc:format>
    <dc:creator>
     <cc:Agent>
      <dc:title>Matplotlib v3.4.3, https://matplotlib.org/</dc:title>
     </cc:Agent>
    </dc:creator>
   </cc:Work>
  </rdf:RDF>
 </metadata>
 <defs>
  <style type="text/css">*{stroke-linecap:butt;stroke-linejoin:round;}</style>
 </defs>
 <g id="figure_1">
  <g id="patch_1">
   <path d="M 0 504 
L 1080 504 
L 1080 0 
L 0 0 
z
" style="fill:#ffffff;"/>
  </g>
  <g id="axes_1">
   <g id="patch_2">
    <path d="M 135 448.56 
L 972 448.56 
L 972 60.48 
L 135 60.48 
z
" style="fill:#ffffff;"/>
   </g>
   <g id="matplotlib.axis_1">
    <g id="xtick_1">
     <g id="line2d_1">
      <defs>
       <path d="M 0 0 
L 0 3.5 
" id="mefbc1eab62" style="stroke:#000000;stroke-width:0.8;"/>
      </defs>
      <g>
       <use style="stroke:#000000;stroke-width:0.8;" x="135" xlink:href="#mefbc1eab62" y="448.56"/>
      </g>
     </g>
     <g id="text_1">
      <!-- 0.0 -->
      <g transform="translate(120.687187 469.237188)scale(0.18 -0.18)">
       <defs>
        <path d="M 2034 4250 
Q 1547 4250 1301 3770 
Q 1056 3291 1056 2328 
Q 1056 1369 1301 889 
Q 1547 409 2034 409 
Q 2525 409 2770 889 
Q 3016 1369 3016 2328 
Q 3016 3291 2770 3770 
Q 2525 4250 2034 4250 
z
M 2034 4750 
Q 2819 4750 3233 4129 
Q 3647 3509 3647 2328 
Q 3647 1150 3233 529 
Q 2819 -91 2034 -91 
Q 1250 -91 836 529 
Q 422 1150 422 2328 
Q 422 3509 836 4129 
Q 1250 4750 2034 4750 
z
" id="DejaVuSans-30" transform="scale(0.015625)"/>
        <path d="M 684 794 
L 1344 794 
L 1344 0 
L 684 0 
L 684 794 
z
" id="DejaVuSans-2e" transform="scale(0.015625)"/>
       </defs>
       <use xlink:href="#DejaVuSans-30"/>
       <use x="63.623047" xlink:href="#DejaVuSans-2e"/>
       <use x="95.410156" xlink:href="#DejaVuSans-30"/>
      </g>
     </g>
    </g>
    <g id="xtick_2">
     <g id="line2d_2">
      <g>
       <use style="stroke:#000000;stroke-width:0.8;" x="302.4" xlink:href="#mefbc1eab62" y="448.56"/>
      </g>
     </g>
     <g id="text_2">
      <!-- 0.2 -->
      <g transform="translate(288.087187 469.237188)scale(0.18 -0.18)">
       <defs>
        <path d="M 1228 531 
L 3431 531 
L 3431 0 
L 469 0 
L 469 531 
Q 828 903 1448 1529 
Q 2069 2156 2228 2338 
Q 2531 2678 2651 2914 
Q 2772 3150 2772 3378 
Q 2772 3750 2511 3984 
Q 2250 4219 1831 4219 
Q 1534 4219 1204 4116 
Q 875 4013 500 3803 
L 500 4441 
Q 881 4594 1212 4672 
Q 1544 4750 1819 4750 
Q 2544 4750 2975 4387 
Q 3406 4025 3406 3419 
Q 3406 3131 3298 2873 
Q 3191 2616 2906 2266 
Q 2828 2175 2409 1742 
Q 1991 1309 1228 531 
z
" id="DejaVuSans-32" transform="scale(0.015625)"/>
       </defs>
       <use xlink:href="#DejaVuSans-30"/>
       <use x="63.623047" xlink:href="#DejaVuSans-2e"/>
       <use x="95.410156" xlink:href="#DejaVuSans-32"/>
      </g>
     </g>
    </g>
    <g id="xtick_3">
     <g id="line2d_3">
      <g>
       <use style="stroke:#000000;stroke-width:0.8;" x="469.8" xlink:href="#mefbc1eab62" y="448.56"/>
      </g>
     </g>
     <g id="text_3">
      <!-- 0.4 -->
      <g transform="translate(455.487188 469.237188)scale(0.18 -0.18)">
       <defs>
        <path d="M 2419 4116 
L 825 1625 
L 2419 1625 
L 2419 4116 
z
M 2253 4666 
L 3047 4666 
L 3047 1625 
L 3713 1625 
L 3713 1100 
L 3047 1100 
L 3047 0 
L 2419 0 
L 2419 1100 
L 313 1100 
L 313 1709 
L 2253 4666 
z
" id="DejaVuSans-34" transform="scale(0.015625)"/>
       </defs>
       <use xlink:href="#DejaVuSans-30"/>
       <use x="63.623047" xlink:href="#DejaVuSans-2e"/>
       <use x="95.410156" xlink:href="#DejaVuSans-34"/>
      </g>
     </g>
    </g>
    <g id="xtick_4">
     <g id="line2d_4">
      <g>
       <use style="stroke:#000000;stroke-width:0.8;" x="637.2" xlink:href="#mefbc1eab62" y="448.56"/>
      </g>
     </g>
     <g id="text_4">
      <!-- 0.6 -->
      <g transform="translate(622.887188 469.237188)scale(0.18 -0.18)">
       <defs>
        <path d="M 2113 2584 
Q 1688 2584 1439 2293 
Q 1191 2003 1191 1497 
Q 1191 994 1439 701 
Q 1688 409 2113 409 
Q 2538 409 2786 701 
Q 3034 994 3034 1497 
Q 3034 2003 2786 2293 
Q 2538 2584 2113 2584 
z
M 3366 4563 
L 3366 3988 
Q 3128 4100 2886 4159 
Q 2644 4219 2406 4219 
Q 1781 4219 1451 3797 
Q 1122 3375 1075 2522 
Q 1259 2794 1537 2939 
Q 1816 3084 2150 3084 
Q 2853 3084 3261 2657 
Q 3669 2231 3669 1497 
Q 3669 778 3244 343 
Q 2819 -91 2113 -91 
Q 1303 -91 875 529 
Q 447 1150 447 2328 
Q 447 3434 972 4092 
Q 1497 4750 2381 4750 
Q 2619 4750 2861 4703 
Q 3103 4656 3366 4563 
z
" id="DejaVuSans-36" transform="scale(0.015625)"/>
       </defs>
       <use xlink:href="#DejaVuSans-30"/>
       <use x="63.623047" xlink:href="#DejaVuSans-2e"/>
       <use x="95.410156" xlink:href="#DejaVuSans-36"/>
      </g>
     </g>
    </g>
    <g id="xtick_5">
     <g id="line2d_5">
      <g>
       <use style="stroke:#000000;stroke-width:0.8;" x="804.6" xlink:href="#mefbc1eab62" y="448.56"/>
      </g>
     </g>
     <g id="text_5">
      <!-- 0.8 -->
      <g transform="translate(790.287188 469.237188)scale(0.18 -0.18)">
       <defs>
        <path d="M 2034 2216 
Q 1584 2216 1326 1975 
Q 1069 1734 1069 1313 
Q 1069 891 1326 650 
Q 1584 409 2034 409 
Q 2484 409 2743 651 
Q 3003 894 3003 1313 
Q 3003 1734 2745 1975 
Q 2488 2216 2034 2216 
z
M 1403 2484 
Q 997 2584 770 2862 
Q 544 3141 544 3541 
Q 544 4100 942 4425 
Q 1341 4750 2034 4750 
Q 2731 4750 3128 4425 
Q 3525 4100 3525 3541 
Q 3525 3141 3298 2862 
Q 3072 2584 2669 2484 
Q 3125 2378 3379 2068 
Q 3634 1759 3634 1313 
Q 3634 634 3220 271 
Q 2806 -91 2034 -91 
Q 1263 -91 848 271 
Q 434 634 434 1313 
Q 434 1759 690 2068 
Q 947 2378 1403 2484 
z
M 1172 3481 
Q 1172 3119 1398 2916 
Q 1625 2713 2034 2713 
Q 2441 2713 2670 2916 
Q 2900 3119 2900 3481 
Q 2900 3844 2670 4047 
Q 2441 4250 2034 4250 
Q 1625 4250 1398 4047 
Q 1172 3844 1172 3481 
z
" id="DejaVuSans-38" transform="scale(0.015625)"/>
       </defs>
       <use xlink:href="#DejaVuSans-30"/>
       <use x="63.623047" xlink:href="#DejaVuSans-2e"/>
       <use x="95.410156" xlink:href="#DejaVuSans-38"/>
      </g>
     </g>
    </g>
    <g id="xtick_6">
     <g id="line2d_6">
      <g>
       <use style="stroke:#000000;stroke-width:0.8;" x="972" xlink:href="#mefbc1eab62" y="448.56"/>
      </g>
     </g>
     <g id="text_6">
      <!-- 1.0 -->
      <g transform="translate(957.687188 469.237188)scale(0.18 -0.18)">
       <defs>
        <path d="M 794 531 
L 1825 531 
L 1825 4091 
L 703 3866 
L 703 4441 
L 1819 4666 
L 2450 4666 
L 2450 531 
L 3481 531 
L 3481 0 
L 794 0 
L 794 531 
z
" id="DejaVuSans-31" transform="scale(0.015625)"/>
       </defs>
       <use xlink:href="#DejaVuSans-31"/>
       <use x="63.623047" xlink:href="#DejaVuSans-2e"/>
       <use x="95.410156" xlink:href="#DejaVuSans-30"/>
      </g>
     </g>
    </g>
    <g id="text_7">
     <!-- $FPR_{Fair}$ -->
     <g transform="translate(518.08 493.697187)scale(0.22 -0.22)">
      <defs>
       <path d="M 1081 4666 
L 3756 4666 
L 3653 4134 
L 1606 4134 
L 1338 2759 
L 3188 2759 
L 3084 2228 
L 1234 2228 
L 800 0 
L 172 0 
L 1081 4666 
z
" id="DejaVuSans-Oblique-46" transform="scale(0.015625)"/>
       <path d="M 1081 4666 
L 2541 4666 
Q 3178 4666 3512 4369 
Q 3847 4072 3847 3500 
Q 3847 2731 3353 2303 
Q 2859 1875 1966 1875 
L 1172 1875 
L 806 0 
L 172 0 
L 1081 4666 
z
M 1613 4147 
L 1275 2394 
L 2069 2394 
Q 2606 2394 2893 2669 
Q 3181 2944 3181 3456 
Q 3181 3784 2986 3965 
Q 2791 4147 2438 4147 
L 1613 4147 
z
" id="DejaVuSans-Oblique-50" transform="scale(0.015625)"/>
       <path d="M 1613 4147 
L 1294 2491 
L 2106 2491 
Q 2584 2491 2879 2755 
Q 3175 3019 3175 3444 
Q 3175 3784 2976 3965 
Q 2778 4147 2406 4147 
L 1613 4147 
z
M 2772 2241 
Q 2972 2194 3105 2009 
Q 3238 1825 3413 1275 
L 3809 0 
L 3144 0 
L 2778 1197 
Q 2638 1659 2453 1815 
Q 2269 1972 1888 1972 
L 1191 1972 
L 806 0 
L 172 0 
L 1081 4666 
L 2503 4666 
Q 3150 4666 3495 4373 
Q 3841 4081 3841 3531 
Q 3841 3044 3547 2687 
Q 3253 2331 2772 2241 
z
" id="DejaVuSans-Oblique-52" transform="scale(0.015625)"/>
       <path d="M 3438 1997 
L 3047 0 
L 2472 0 
L 2578 531 
Q 2325 219 2001 64 
Q 1678 -91 1281 -91 
Q 834 -91 548 182 
Q 263 456 263 884 
Q 263 1497 752 1853 
Q 1241 2209 2100 2209 
L 2900 2209 
L 2931 2363 
Q 2938 2388 2941 2417 
Q 2944 2447 2944 2509 
Q 2944 2788 2717 2942 
Q 2491 3097 2081 3097 
Q 1800 3097 1504 3025 
Q 1209 2953 897 2809 
L 997 3341 
Q 1322 3463 1633 3523 
Q 1944 3584 2234 3584 
Q 2853 3584 3176 3315 
Q 3500 3047 3500 2534 
Q 3500 2431 3484 2292 
Q 3469 2153 3438 1997 
z
M 2816 1759 
L 2241 1759 
Q 1534 1759 1195 1570 
Q 856 1381 856 984 
Q 856 709 1029 553 
Q 1203 397 1509 397 
Q 1978 397 2328 733 
Q 2678 1069 2791 1631 
L 2816 1759 
z
" id="DejaVuSans-Oblique-61" transform="scale(0.015625)"/>
       <path d="M 1172 4863 
L 1747 4863 
L 1606 4134 
L 1031 4134 
L 1172 4863 
z
M 909 3500 
L 1484 3500 
L 800 0 
L 225 0 
L 909 3500 
z
" id="DejaVuSans-Oblique-69" transform="scale(0.015625)"/>
       <path d="M 2853 2969 
Q 2766 3016 2653 3041 
Q 2541 3066 2413 3066 
Q 1953 3066 1609 2717 
Q 1266 2369 1153 1784 
L 800 0 
L 225 0 
L 909 3500 
L 1484 3500 
L 1375 2956 
Q 1603 3259 1920 3421 
Q 2238 3584 2597 3584 
Q 2691 3584 2781 3573 
Q 2872 3563 2963 3538 
L 2853 2969 
z
" id="DejaVuSans-Oblique-72" transform="scale(0.015625)"/>
      </defs>
      <use transform="translate(0 0.09375)" xlink:href="#DejaVuSans-Oblique-46"/>
      <use transform="translate(57.519531 0.09375)" xlink:href="#DejaVuSans-Oblique-50"/>
      <use transform="translate(117.822266 0.09375)" xlink:href="#DejaVuSans-Oblique-52"/>
      <use transform="translate(187.304688 -16.3125)scale(0.7)" xlink:href="#DejaVuSans-Oblique-46"/>
      <use transform="translate(227.568359 -16.3125)scale(0.7)" xlink:href="#DejaVuSans-Oblique-61"/>
      <use transform="translate(270.463867 -16.3125)scale(0.7)" xlink:href="#DejaVuSans-Oblique-69"/>
      <use transform="translate(289.912109 -16.3125)scale(0.7)" xlink:href="#DejaVuSans-Oblique-72"/>
     </g>
    </g>
   </g>
   <g id="matplotlib.axis_2">
    <g id="ytick_1">
     <g id="line2d_7">
      <defs>
       <path d="M 0 0 
L -3.5 0 
" id="m5dc109f4a5" style="stroke:#000000;stroke-width:0.8;"/>
      </defs>
      <g>
       <use style="stroke:#000000;stroke-width:0.8;" x="135" xlink:href="#m5dc109f4a5" y="448.56"/>
      </g>
     </g>
     <g id="text_8">
      <!-- 0.0 -->
      <g transform="translate(99.374375 455.398594)scale(0.18 -0.18)">
       <use xlink:href="#DejaVuSans-30"/>
       <use x="63.623047" xlink:href="#DejaVuSans-2e"/>
       <use x="95.410156" xlink:href="#DejaVuSans-30"/>
      </g>
     </g>
    </g>
    <g id="ytick_2">
     <g id="line2d_8">
      <g>
       <use style="stroke:#000000;stroke-width:0.8;" x="135" xlink:href="#m5dc109f4a5" y="370.944"/>
      </g>
     </g>
     <g id="text_9">
      <!-- 0.2 -->
      <g transform="translate(99.374375 377.782594)scale(0.18 -0.18)">
       <use xlink:href="#DejaVuSans-30"/>
       <use x="63.623047" xlink:href="#DejaVuSans-2e"/>
       <use x="95.410156" xlink:href="#DejaVuSans-32"/>
      </g>
     </g>
    </g>
    <g id="ytick_3">
     <g id="line2d_9">
      <g>
       <use style="stroke:#000000;stroke-width:0.8;" x="135" xlink:href="#m5dc109f4a5" y="293.328"/>
      </g>
     </g>
     <g id="text_10">
      <!-- 0.4 -->
      <g transform="translate(99.374375 300.166594)scale(0.18 -0.18)">
       <use xlink:href="#DejaVuSans-30"/>
       <use x="63.623047" xlink:href="#DejaVuSans-2e"/>
       <use x="95.410156" xlink:href="#DejaVuSans-34"/>
      </g>
     </g>
    </g>
    <g id="ytick_4">
     <g id="line2d_10">
      <g>
       <use style="stroke:#000000;stroke-width:0.8;" x="135" xlink:href="#m5dc109f4a5" y="215.712"/>
      </g>
     </g>
     <g id="text_11">
      <!-- 0.6 -->
      <g transform="translate(99.374375 222.550594)scale(0.18 -0.18)">
       <use xlink:href="#DejaVuSans-30"/>
       <use x="63.623047" xlink:href="#DejaVuSans-2e"/>
       <use x="95.410156" xlink:href="#DejaVuSans-36"/>
      </g>
     </g>
    </g>
    <g id="ytick_5">
     <g id="line2d_11">
      <g>
       <use style="stroke:#000000;stroke-width:0.8;" x="135" xlink:href="#m5dc109f4a5" y="138.096"/>
      </g>
     </g>
     <g id="text_12">
      <!-- 0.8 -->
      <g transform="translate(99.374375 144.934594)scale(0.18 -0.18)">
       <use xlink:href="#DejaVuSans-30"/>
       <use x="63.623047" xlink:href="#DejaVuSans-2e"/>
       <use x="95.410156" xlink:href="#DejaVuSans-38"/>
      </g>
     </g>
    </g>
    <g id="ytick_6">
     <g id="line2d_12">
      <g>
       <use style="stroke:#000000;stroke-width:0.8;" x="135" xlink:href="#m5dc109f4a5" y="60.48"/>
      </g>
     </g>
     <g id="text_13">
      <!-- 1.0 -->
      <g transform="translate(99.374375 67.318594)scale(0.18 -0.18)">
       <use xlink:href="#DejaVuSans-31"/>
       <use x="63.623047" xlink:href="#DejaVuSans-2e"/>
       <use x="95.410156" xlink:href="#DejaVuSans-30"/>
      </g>
     </g>
    </g>
    <g id="text_14">
     <!-- $TPR_{Fair}$ -->
     <g transform="translate(90.799062 290.27)rotate(-90)scale(0.22 -0.22)">
      <defs>
       <path d="M 378 4666 
L 4325 4666 
L 4225 4134 
L 2559 4134 
L 1759 0 
L 1125 0 
L 1925 4134 
L 275 4134 
L 378 4666 
z
" id="DejaVuSans-Oblique-54" transform="scale(0.015625)"/>
      </defs>
      <use transform="translate(0 0.09375)" xlink:href="#DejaVuSans-Oblique-54"/>
      <use transform="translate(61.083984 0.09375)" xlink:href="#DejaVuSans-Oblique-50"/>
      <use transform="translate(121.386719 0.09375)" xlink:href="#DejaVuSans-Oblique-52"/>
      <use transform="translate(190.869141 -16.3125)scale(0.7)" xlink:href="#DejaVuSans-Oblique-46"/>
      <use transform="translate(231.132812 -16.3125)scale(0.7)" xlink:href="#DejaVuSans-Oblique-61"/>
      <use transform="translate(274.02832 -16.3125)scale(0.7)" xlink:href="#DejaVuSans-Oblique-69"/>
      <use transform="translate(293.476562 -16.3125)scale(0.7)" xlink:href="#DejaVuSans-Oblique-72"/>
     </g>
    </g>
   </g>
   <g id="line2d_13">
    <path clip-path="url(#p908cfb5cca)" d="M 135 448.56 
L 972 60.48 
" style="fill:none;stroke:#ff0000;stroke-dasharray:5.55,2.4;stroke-dashoffset:0;stroke-width:1.5;"/>
   </g>
   <g id="line2d_14">
    <path clip-path="url(#p908cfb5cca)" d="M 972 60.48 
L 249.825416 364.566668 
L 195.434118 401.640944 
L 175.544902 415.999767 
L 165.205936 423.758854 
L 158.872673 428.577151 
L 154.634691 431.8565 
L 151.573329 434.147803 
L 149.27575 435.987082 
L 147.492322 437.379037 
L 146.056344 438.495843 
L 144.866699 439.445502 
L 143.881479 440.247998 
L 143.045422 440.896862 
L 142.34653 441.457851 
L 141.742838 441.946745 
L 141.215599 442.38252 
L 140.745806 442.792919 
L 140.328193 443.127573 
L 139.965746 443.43371 
L 139.637827 443.702669 
L 139.344528 443.944025 
L 139.080148 444.159455 
L 138.841992 444.370333 
L 138.630356 444.550145 
L 138.432868 444.727387 
L 138.254811 444.878458 
L 138.088441 445.025968 
L 137.934035 445.160481 
L 137.796555 445.288171 
L 137.661001 445.404831 
L 137.542493 445.517033 
L 137.429955 445.622996 
L 137.322698 445.721573 
L 137.224703 445.809321 
L 137.131578 445.894825 
L 137.045584 445.972437 
L 136.964347 446.046065 
L 136.891352 446.115987 
L 136.822854 446.18459 
L 136.758335 446.25029 
L 136.6924 446.31511 
L 136.636931 446.36947 
L 136.581452 446.430712 
L 136.529462 446.492956 
L 136.480987 446.545451 
L 136.431552 446.596101 
L 136.386453 446.643707 
L 136.344542 446.68755 
L 136.303804 446.737683 
L 136.267118 446.783843 
L 136.228632 446.825659 
L 136.193868 446.876648 
L 136.160073 446.915031 
L 136.12907 446.952137 
L 136.098122 446.991039 
L 136.070512 447.029857 
L 136.043481 447.06387 
L 136.017298 447.098278 
L 135.990023 447.12359 
L 135.963801 447.153453 
L 135.94007 447.182077 
L 135.91605 447.207366 
L 135.893042 447.235147 
L 135.871308 447.263231 
L 135.851643 447.286037 
L 135.831975 447.316506 
L 135.812401 447.34093 
L 135.792925 447.364122 
L 135.774857 447.383051 
L 135.75872 447.404337 
L 135.74161 447.427387 
L 135.724809 447.453316 
L 135.706373 447.473147 
L 135.692214 447.494625 
L 135.676849 447.512252 
L 135.658722 447.532293 
L 135.644373 447.551155 
L 135.629429 447.568511 
L 135.613937 447.587348 
L 135.597974 447.608309 
L 135.580759 447.625225 
L 135.564958 447.640617 
L 135.547398 447.655913 
L 135.530825 447.671446 
L 135.515613 447.68889 
L 135.503843 447.702631 
L 135.492089 447.71835 
L 135.477503 447.735575 
L 135.465753 447.7514 
L 135.452612 447.768522 
L 135.438689 447.785319 
L 135.427982 447.802429 
L 135.413962 447.819292 
L 135.404362 447.832447 
L 135.394226 447.847087 
L 135.381963 447.86081 
L 135.372404 447.879486 
L 135.362699 447.896435 
L 135.352577 447.914489 
L 135.342914 447.928116 
" style="fill:none;stroke:#1f77b4;stroke-linecap:square;stroke-width:1.5;"/>
   </g>
   <g id="line2d_15">
    <path clip-path="url(#p908cfb5cca)" d="M 972 60.48 
L 542.062621 240.317274 
L 400.557942 306.55708 
L 330.033812 340.86774 
L 287.85876 362.072064 
L 259.858646 376.402648 
L 239.952999 386.762378 
L 225.030063 394.454126 
L 213.447672 400.641387 
L 204.198937 405.486476 
L 196.659223 409.494802 
L 190.439036 412.87504 
L 185.187731 415.711268 
L 180.690995 418.126399 
L 176.824438 420.265635 
L 173.464794 422.100286 
L 170.506392 423.737265 
L 167.910212 425.218677 
L 165.610783 426.540899 
L 163.520479 427.711188 
L 161.647625 428.774 
L 159.990646 429.73855 
L 158.479597 430.617596 
L 157.100777 431.434966 
L 155.846067 432.190112 
L 154.701564 432.894989 
L 153.658592 433.527485 
L 152.69523 434.091047 
L 151.822349 434.633486 
L 151.017836 435.15423 
L 150.2606 435.622961 
L 149.566732 436.066679 
L 148.913292 436.485838 
L 148.320189 436.871901 
L 147.760263 437.239273 
L 147.239201 437.588775 
L 146.75638 437.915678 
L 146.295753 438.215265 
L 145.867433 438.507027 
L 145.468153 438.787205 
L 145.095173 439.053755 
L 144.740537 439.308189 
L 144.410347 439.554028 
L 144.098481 439.788428 
L 143.799534 440.006343 
L 143.514168 440.217106 
L 143.248036 440.426932 
L 142.995244 440.618277 
L 142.75034 440.804162 
L 142.524575 440.98702 
L 142.309021 441.16165 
L 142.097284 441.333251 
L 141.898639 441.507893 
L 141.707185 441.660218 
L 141.528615 441.810381 
L 141.348366 441.95482 
L 141.184091 442.09405 
L 141.026023 442.224975 
L 140.87197 442.360864 
L 140.723142 442.490482 
L 140.580267 442.613184 
L 140.443456 442.732846 
L 140.301786 442.847167 
L 140.171146 442.955829 
L 140.044149 443.064656 
L 139.917754 443.170637 
L 139.796396 443.278298 
L 139.679744 443.380376 
L 139.565009 443.479675 
L 139.45874 443.579381 
L 139.355286 443.670983 
L 139.253835 443.762219 
L 139.154268 443.855248 
L 139.055893 443.941319 
L 138.958356 444.025993 
L 138.864469 444.109379 
L 138.774091 444.19033 
L 138.685871 444.267408 
L 138.598923 444.351197 
L 138.516633 444.430275 
L 138.43561 444.506108 
L 138.357292 444.580694 
L 138.277584 444.648843 
L 138.200179 444.719135 
L 138.126259 444.788724 
L 138.053684 444.855014 
L 137.982585 444.924675 
L 137.914543 444.988573 
L 137.850831 445.056284 
L 137.782702 445.123868 
L 137.717625 445.188763 
L 137.657279 445.249039 
L 137.59749 445.315248 
L 137.532841 445.380043 
L 137.471028 445.438407 
L 137.408952 445.498575 
L 137.349618 445.559498 
L 137.294274 445.621066 
L 137.238752 445.687896 
L 137.178847 445.754095 
L 137.122237 445.812432 
" style="fill:none;stroke:#ff7f0e;stroke-linecap:square;stroke-width:1.5;"/>
   </g>
   <g id="line2d_16">
    <path clip-path="url(#p908cfb5cca)" d="M 972 60.48 
L 795.778893 118.538076 
L 677.722547 161.981963 
L 592.616792 195.587162 
L 528.753942 222.508723 
L 479.252633 244.020095 
L 439.441226 262.099905 
L 406.913958 277.188089 
L 379.827318 290.390207 
L 356.879042 301.480993 
L 337.371393 311.24772 
L 320.547332 319.973313 
L 305.829484 327.61128 
L 292.92674 334.363163 
L 281.512274 340.556366 
L 271.309602 346.096885 
L 262.211282 351.17358 
L 254.032364 355.855077 
L 246.691041 360.184928 
L 239.958154 364.099958 
L 233.79127 367.685364 
L 228.240195 370.999931 
L 223.183883 374.051371 
L 218.502424 376.932538 
L 214.205764 379.624821 
L 210.248448 382.193714 
L 206.580793 384.529344 
L 203.208641 386.679176 
L 200.119821 388.762327 
L 197.217544 390.718988 
L 194.497478 392.534227 
L 192.004473 394.239692 
L 189.638796 395.875843 
L 187.453971 397.372819 
L 185.413455 398.818458 
L 183.489883 400.175173 
L 181.688844 401.477246 
L 180.004972 402.698617 
L 178.406884 403.847634 
L 176.915476 404.985103 
L 175.503149 406.056069 
L 174.157706 407.098144 
L 172.89343 408.095942 
L 171.705537 409.063543 
L 170.565167 409.977696 
L 169.473356 410.850641 
L 168.455361 411.716847 
L 167.468633 412.520209 
L 166.520417 413.3089 
L 165.638378 414.065515 
L 164.789487 414.800444 
L 163.964988 415.525643 
L 163.174151 416.228636 
L 162.415496 416.886946 
L 161.707577 417.539195 
L 160.994252 418.149747 
L 160.329301 418.75304 
L 159.68571 419.335051 
L 159.054189 419.909038 
L 158.447332 420.469358 
L 157.859848 421.009309 
L 157.305573 421.532472 
L 156.748662 422.040242 
L 156.216339 422.520827 
L 155.701195 423.005169 
L 155.181539 423.476047 
L 154.696732 423.93654 
L 154.218142 424.391148 
L 153.757856 424.824952 
L 153.328512 425.250732 
L 152.906996 425.667334 
L 152.486359 426.083836 
L 152.076861 426.504165 
L 151.674563 426.892319 
L 151.282894 427.27562 
L 150.888146 427.657319 
L 150.520933 428.023633 
L 150.157454 428.384649 
L 149.805428 428.762419 
L 149.464765 429.113357 
L 149.130248 429.468846 
L 148.806641 429.81872 
L 148.480196 430.139829 
L 148.162502 430.467184 
L 147.865466 430.792104 
L 147.57231 431.10546 
L 147.28615 431.427875 
L 146.996404 431.73873 
L 146.723355 432.049392 
L 146.452394 432.344424 
L 146.185724 432.64995 
L 145.933778 432.93673 
L 145.672014 433.231784 
L 145.411181 433.529651 
L 145.161311 433.813985 
L 144.916854 434.090424 
L 144.669683 434.370043 
L 144.436935 434.651301 
L 144.206967 434.938556 
L 143.962081 435.230235 
L 143.737329 435.498929 
" style="fill:none;stroke:#2ca02c;stroke-linecap:square;stroke-width:1.5;"/>
   </g>
   <g id="line2d_17">
    <path clip-path="url(#p908cfb5cca)" d="M 972 60.48 
L 739.308762 140.252843 
L 604.661036 193.067804 
L 516.58576 230.435196 
L 454.603113 258.566881 
L 408.693117 280.44313 
L 373.343199 298.059728 
L 345.292972 312.131405 
L 322.529073 324.243618 
L 303.680646 334.213493 
L 287.832183 342.783374 
L 274.380541 350.260516 
L 262.784445 356.772779 
L 252.697359 362.471982 
L 243.90233 367.653551 
L 236.078563 372.192727 
L 229.144117 376.318718 
L 222.933025 380.059123 
L 217.399201 383.491259 
L 212.35987 386.569601 
L 207.802462 389.419022 
L 203.676209 392.014136 
L 199.915131 394.406016 
L 196.470188 396.641552 
L 193.299837 398.723861 
L 190.389875 400.674428 
L 187.699638 402.464958 
L 185.224822 404.106861 
L 182.944794 405.669683 
L 180.80915 407.138688 
L 178.813771 408.505017 
L 176.968204 409.812691 
L 175.219297 411.049495 
L 173.608163 412.199746 
L 172.100438 413.288032 
L 170.676793 414.31386 
L 169.345364 415.290319 
L 168.084369 416.215921 
L 166.900695 417.094964 
L 165.788125 417.944572 
L 164.737739 418.748084 
L 163.724463 419.517989 
L 162.777698 420.265151 
L 161.887146 420.975748 
L 161.033969 421.653672 
L 160.206676 422.300324 
L 159.444232 422.940278 
L 158.696519 423.534432 
L 157.98384 424.117197 
L 157.312213 424.673872 
L 156.658139 425.209243 
L 156.029223 425.732944 
L 155.436901 426.243213 
L 154.857932 426.724991 
L 154.313665 427.201269 
L 153.77687 427.65043 
L 153.278834 428.091045 
L 152.784518 428.51352 
L 152.302798 428.923911 
L 151.848502 429.329716 
L 151.403991 429.727863 
L 150.983796 430.111291 
L 150.559874 430.484233 
L 150.15969 430.830964 
L 149.769159 431.196153 
L 149.381197 431.53672 
L 149.011526 431.871972 
L 148.65154 432.202339 
L 148.307227 432.51442 
L 147.976179 432.827045 
L 147.655175 433.139302 
L 147.336113 433.443331 
L 147.031322 433.743455 
L 146.729619 434.034106 
L 146.43429 434.319322 
L 146.150955 434.59149 
L 145.87079 434.8599 
L 145.604863 435.117364 
L 145.348469 435.391045 
L 145.092623 435.649265 
L 144.843506 435.906991 
L 144.596438 436.156903 
L 144.356901 436.395984 
L 144.120546 436.633881 
L 143.902798 436.864869 
L 143.683978 437.092001 
L 143.469411 437.32139 
L 143.258907 437.542948 
L 143.057878 437.76219 
L 142.856371 437.971582 
L 142.658474 438.195459 
L 142.469177 438.396236 
L 142.277205 438.608408 
L 142.088031 438.819586 
L 141.906529 439.019135 
L 141.725412 439.209557 
L 141.547685 439.409791 
L 141.379042 439.602955 
L 141.211689 439.80169 
L 141.037985 440.004174 
L 140.876161 440.191507 
" style="fill:none;stroke:#d62728;stroke-linecap:square;stroke-width:1.5;"/>
   </g>
   <g id="line2d_18">
    <path clip-path="url(#p908cfb5cca)" d="M 972 60.48 
L 815.637482 102.106765 
L 705.680694 136.156338 
L 623.913896 164.173196 
L 560.989382 187.884193 
L 511.075354 207.870094 
L 470.546753 225.257406 
L 437.019361 240.142206 
L 408.847257 253.6666 
L 384.802137 265.290649 
L 364.176776 275.660628 
L 346.184409 285.144625 
L 330.403718 293.598683 
L 316.483826 301.201848 
L 304.153746 308.268583 
L 293.065599 314.612171 
L 283.148759 320.51904 
L 274.134783 325.962938 
L 266.026513 331.083153 
L 258.601623 335.785206 
L 251.820447 340.139184 
L 245.630057 344.207224 
L 239.928079 347.965752 
L 234.669663 351.520268 
L 229.798941 354.899399 
L 225.310225 358.047622 
L 221.143205 360.990642 
L 217.265242 363.721568 
L 213.676368 366.344082 
L 210.312293 368.832545 
L 207.138026 371.157548 
L 204.195777 373.407177 
L 201.389953 375.525773 
L 198.800011 377.52286 
L 196.342662 379.421373 
L 194.015093 381.215907 
L 191.849021 382.945383 
L 189.782846 384.572091 
L 187.834727 386.135203 
L 186.005671 387.652451 
L 184.247954 389.101772 
L 182.566252 390.500121 
L 180.980798 391.846771 
L 179.473614 393.138786 
L 178.031742 394.366978 
L 176.650007 395.570105 
L 175.351375 396.735224 
L 174.089392 397.833385 
L 172.888439 398.929336 
L 171.741884 399.962422 
L 170.618329 400.966335 
L 169.551751 401.952508 
L 168.530496 402.909888 
L 167.538164 403.818836 
L 166.596767 404.731427 
L 165.685436 405.601986 
L 164.815912 406.447739 
L 163.959406 407.274171 
L 163.12438 408.069682 
L 162.345512 408.849474 
L 161.578566 409.616102 
L 160.84375 410.368888 
L 160.115275 411.096584 
L 159.421404 411.784934 
L 158.747002 412.500966 
L 158.084766 413.167133 
L 157.447715 413.83407 
L 156.829474 414.497919 
L 156.238454 415.132869 
L 155.666522 415.759307 
L 155.109366 416.381838 
L 154.568759 416.999368 
L 154.049296 417.607942 
L 153.534215 418.196536 
L 153.028158 418.76739 
L 152.543626 419.325154 
L 152.070371 419.879547 
L 151.620014 420.413913 
L 151.184001 420.974335 
L 150.753879 421.511806 
L 150.332451 422.048421 
L 149.920582 422.566493 
L 149.521797 423.070045 
L 149.132513 423.570569 
L 148.762793 424.057727 
L 148.393542 424.540933 
L 148.035319 425.019227 
L 147.685332 425.480041 
L 147.347058 425.944877 
L 147.01287 426.383579 
L 146.689662 426.853053 
L 146.374812 427.278233 
L 146.055453 427.723197 
L 145.745009 428.164999 
L 145.446444 428.585705 
L 145.150352 428.995695 
L 144.864109 429.418035 
L 144.586452 429.830061 
L 144.317165 430.249254 
L 144.043247 430.67645 
L 143.77979 431.079214 
" style="fill:none;stroke:#9467bd;stroke-linecap:square;stroke-width:1.5;"/>
   </g>
   <g id="line2d_19">
    <path clip-path="url(#p908cfb5cca)" d="M 972 60.48 
L 971.926738 61.007899 
L 971.852657 61.563083 
L 971.776883 62.14562 
L 971.717116 62.740656 
L 971.63354 63.327193 
L 971.546159 63.836716 
L 971.452739 64.418292 
L 971.357886 64.975725 
L 971.258442 65.515827 
L 971.167396 66.04495 
L 971.057005 66.583537 
L 970.966016 67.14608 
L 970.83948 67.716576 
L 970.732941 68.28171 
L 970.608034 68.834112 
L 970.485238 69.355144 
L 970.370183 69.901659 
L 970.25415 70.446629 
L 970.136706 71.029139 
L 969.98998 71.537709 
L 969.864424 72.024772 
L 969.742045 72.56044 
L 969.602142 73.05933 
L 969.459383 73.54272 
L 969.287418 74.106905 
L 969.114922 74.601016 
L 968.947139 75.08568 
L 968.798584 75.592644 
L 968.635371 76.147458 
L 968.460941 76.65541 
L 968.304708 77.110363 
L 968.13482 77.604645 
L 967.961929 78.064142 
L 967.773104 78.503508 
L 967.582673 78.951694 
L 967.399309 79.405452 
L 967.228023 79.809465 
L 967.034374 80.259579 
L 966.862573 80.712452 
L 966.651328 81.202909 
L 966.47111 81.644615 
L 966.268965 82.138207 
L 966.050368 82.585931 
L 965.8291 83.022052 
L 965.595081 83.494053 
L 965.358027 83.988192 
L 965.135974 84.430571 
L 964.906172 84.860525 
L 964.67292 85.271111 
L 964.415656 85.756704 
L 964.157885 86.242407 
L 963.901086 86.666003 
L 963.624179 87.155944 
L 963.375561 87.671798 
L 963.098362 88.114732 
L 962.818454 88.587245 
L 962.517803 89.07281 
L 962.22718 89.588666 
L 961.937549 90.069076 
L 961.617317 90.612231 
L 961.277126 91.147526 
L 960.93942 91.663074 
L 960.579195 92.156428 
L 960.216122 92.691632 
L 959.869085 93.185936 
L 959.485228 93.729732 
L 959.121915 94.33886 
L 958.75459 94.943828 
L 958.343798 95.502652 
L 957.925212 96.082516 
L 957.485133 96.728967 
L 957.052695 97.348808 
L 956.575344 98.023009 
L 956.095116 98.702758 
L 955.631734 99.356749 
L 955.143356 100.02978 
L 954.644365 100.770701 
L 954.112321 101.579983 
L 953.570101 102.381752 
L 953.033832 103.189244 
L 952.496721 104.021619 
L 951.954747 104.88524 
L 951.36345 105.779797 
L 950.733861 106.685663 
L 950.143837 107.583534 
L 949.42574 108.522446 
L 948.751091 109.479512 
L 948.039913 110.513976 
L 947.341212 111.515157 
L 946.636204 112.67493 
L 945.922732 113.783593 
L 945.127374 115.01029 
L 944.321833 116.245899 
L 943.44621 117.544451 
L 942.567973 118.80669 
L 941.720348 120.218237 
L 940.837232 121.593572 
L 939.873904 123.075736 
L 938.877892 124.564562 
L 937.847601 126.123545 
" style="fill:none;stroke:#8c564b;stroke-linecap:square;stroke-width:1.5;"/>
   </g>
   <g id="line2d_20">
    <path clip-path="url(#p908cfb5cca)" d="M 972 60.48 
L 863.284641 96.329304 
L 777.369801 126.42833 
L 707.493783 151.720277 
L 649.540478 173.604804 
L 600.872517 192.682392 
L 559.420166 209.542879 
L 523.746626 224.111654 
L 492.743622 237.530704 
L 465.564604 249.275564 
L 441.553393 259.862685 
L 420.230133 269.560967 
L 401.169434 278.410384 
L 384.014531 286.39236 
L 368.594929 293.8543 
L 354.549153 300.544777 
L 341.800411 306.848183 
L 330.083671 312.684912 
L 319.446669 318.129388 
L 309.632153 323.127015 
L 300.593222 327.848781 
L 292.253477 332.248838 
L 284.505899 336.357815 
L 277.313088 340.255365 
L 270.626193 343.920677 
L 264.420761 347.385828 
L 258.634857 350.651762 
L 253.203998 353.676107 
L 248.151476 356.570683 
L 243.41108 359.333621 
L 238.913016 361.932809 
L 234.735934 364.441384 
L 230.758126 366.831602 
L 227.040129 369.088114 
L 223.513506 371.223957 
L 220.192972 373.259644 
L 217.06952 375.210027 
L 214.077926 377.074197 
L 211.253919 378.860479 
L 208.585748 380.603331 
L 206.020431 382.246006 
L 203.580961 383.826285 
L 201.263683 385.362881 
L 199.068244 386.833776 
L 196.96808 388.254721 
L 194.952124 389.63817 
L 193.049654 390.975147 
L 191.205689 392.240282 
L 189.453052 393.499691 
L 187.766555 394.68371 
L 186.127444 395.83711 
L 184.55963 396.958374 
L 183.056914 398.051234 
L 181.610285 399.09908 
L 180.227651 400.128981 
L 178.899634 401.126005 
L 177.613799 402.088075 
L 176.367341 403.032041 
L 175.147304 403.948379 
L 173.991516 404.838904 
L 172.866436 405.716232 
L 171.785628 406.565909 
L 170.721478 407.396216 
L 169.712523 408.190372 
L 168.730402 408.984112 
L 167.767328 409.744769 
L 166.851202 410.498066 
L 165.962776 411.236546 
L 165.106704 411.95122 
L 164.269569 412.638751 
L 163.462275 413.334357 
L 162.683724 414.02793 
L 161.934292 414.714791 
L 161.191325 415.377234 
L 160.471838 416.019447 
L 159.771448 416.651654 
L 159.09331 417.271354 
L 158.434206 417.867769 
L 157.799039 418.493633 
L 157.179625 419.09986 
L 156.576029 419.695652 
L 155.993442 420.269092 
L 155.422156 420.830231 
L 154.865407 421.386137 
L 154.332002 421.929966 
L 153.798064 422.470321 
L 153.283068 423.009722 
L 152.78916 423.52811 
L 152.304601 424.053626 
L 151.829009 424.545843 
L 151.366468 425.065592 
L 150.911743 425.544305 
L 150.458213 426.046057 
L 150.018887 426.529102 
L 149.592659 427.007901 
L 149.172735 427.472403 
L 148.76924 427.947712 
L 148.374446 428.408421 
L 147.986004 428.876128 
L 147.593015 429.354626 
L 147.217955 429.808859 
" style="fill:none;stroke:#e377c2;stroke-linecap:square;stroke-width:1.5;"/>
   </g>
   <g id="line2d_21">
    <path clip-path="url(#p908cfb5cca)" d="M 972 60.48 
L 971.952204 60.862562 
L 971.912049 61.269028 
L 971.862066 61.684362 
L 971.807238 62.110991 
L 971.74534 62.532643 
L 971.689341 62.909255 
L 971.633123 63.335685 
L 971.581344 63.740312 
L 971.524806 64.132571 
L 971.458667 64.524903 
L 971.398442 64.931514 
L 971.330151 65.351952 
L 971.259251 65.779724 
L 971.175291 66.189914 
L 971.09472 66.602185 
L 971.025574 66.994075 
L 970.943371 67.409217 
L 970.869943 67.818249 
L 970.78866 68.251247 
L 970.699137 68.63469 
L 970.591225 69.006457 
L 970.503495 69.413504 
L 970.405901 69.78882 
L 970.311074 70.154687 
L 970.220971 70.579298 
L 970.113353 70.959643 
L 970.019771 71.318026 
L 969.895141 71.703014 
L 969.77715 72.119831 
L 969.661334 72.50373 
L 969.544098 72.841994 
L 969.424539 73.222973 
L 969.319305 73.57204 
L 969.19043 73.912269 
L 969.064376 74.25085 
L 968.950524 74.601916 
L 968.826921 74.914092 
L 968.698983 75.259016 
L 968.556376 75.613876 
L 968.420016 76.00219 
L 968.282059 76.348442 
L 968.121622 76.732171 
L 967.976139 77.068523 
L 967.830401 77.40583 
L 967.66751 77.774021 
L 967.509822 78.147978 
L 967.349712 78.502748 
L 967.172123 78.842517 
L 967.001749 79.163793 
L 966.828617 79.546929 
L 966.656078 79.920164 
L 966.495111 80.254224 
L 966.293461 80.641821 
L 966.112864 81.042738 
L 965.928152 81.397982 
L 965.731772 81.779307 
L 965.526749 82.169196 
L 965.31615 82.578447 
L 965.106141 82.976348 
L 964.897017 83.395978 
L 964.66151 83.824403 
L 964.4171 84.227136 
L 964.178114 84.623698 
L 963.924653 85.044041 
L 963.650007 85.439154 
L 963.379523 85.861804 
L 963.108734 86.339624 
L 962.854698 86.807177 
L 962.551728 87.252054 
L 962.282676 87.717879 
L 961.96092 88.247906 
L 961.669439 88.756449 
L 961.354072 89.292746 
L 961.019969 89.832798 
L 960.673749 90.363101 
L 960.341061 90.89728 
L 959.998354 91.497281 
L 959.612797 92.131384 
L 959.237982 92.745454 
L 958.831909 93.398771 
L 958.442927 94.054879 
L 958.048479 94.726652 
L 957.608628 95.463951 
L 957.18718 96.190095 
L 956.744746 96.918236 
L 956.268457 97.692095 
L 955.770736 98.461115 
L 955.265687 99.28981 
L 954.760952 100.097381 
L 954.249635 101.037038 
L 953.695073 101.953608 
L 953.147189 102.941441 
L 952.574037 103.954399 
L 951.976196 105.019462 
L 951.361225 106.050986 
L 950.742167 107.194837 
L 950.10098 108.327456 
L 949.446573 109.54069 
L 948.731492 110.766111 
L 948.043218 112.085463 
" style="fill:none;stroke:#7f7f7f;stroke-linecap:square;stroke-width:1.5;"/>
   </g>
   <g id="line2d_22">
    <path clip-path="url(#p908cfb5cca)" d="M 972 60.48 
L 895.290231 78.004266 
L 829.560088 94.117816 
L 772.388785 108.914136 
L 722.261592 122.765604 
L 678.165139 135.788924 
L 638.876636 147.817822 
L 603.837473 158.846761 
L 572.439062 169.514903 
L 544.141078 179.283679 
L 518.501072 188.440847 
L 495.20828 197.269175 
L 473.935702 205.524438 
L 454.467065 213.207176 
L 436.657709 220.553923 
L 420.195459 227.399338 
L 405.041893 234.055241 
L 390.963624 240.322217 
L 377.995603 246.341131 
L 365.950652 251.969316 
L 354.740954 257.411933 
L 344.310247 262.556095 
L 334.551547 267.440316 
L 325.412731 272.176755 
L 316.864847 276.698404 
L 308.902354 281.004839 
L 301.41552 285.157016 
L 294.363213 289.020037 
L 287.759786 292.820273 
L 281.539436 296.460739 
L 275.652004 299.890767 
L 270.143841 303.269617 
L 264.877411 306.508133 
L 259.92922 309.605215 
L 255.238151 312.540647 
L 250.823697 315.384902 
L 246.657283 318.127157 
L 242.658953 320.732097 
L 238.882156 323.224512 
L 235.309667 325.738841 
L 231.872449 328.137849 
L 228.601436 330.440699 
L 225.493179 332.688229 
L 222.541902 334.835184 
L 219.722117 336.944782 
L 217.013695 339.007107 
L 214.457116 341.009792 
L 211.97197 342.925755 
L 209.601239 344.839742 
L 207.334684 346.653302 
L 205.131569 348.430785 
L 203.029836 350.181911 
L 201.014 351.907315 
L 199.065729 353.559535 
L 197.191846 355.211454 
L 195.404498 356.815725 
L 193.676595 358.381985 
L 191.994691 359.920228 
L 190.353416 361.413945 
L 188.791866 362.873724 
L 187.271984 364.322736 
L 185.815609 365.733654 
L 184.392213 367.115703 
L 183.040947 368.442487 
L 181.728724 369.788601 
L 180.433399 371.081541 
L 179.203189 372.36403 
L 178.010525 373.625185 
L 176.849958 374.864642 
L 175.721515 376.067338 
L 174.637295 377.28628 
L 173.588547 378.513509 
L 172.583842 379.728495 
L 171.581576 380.907639 
L 170.608848 382.050923 
L 169.672182 383.176513 
L 168.756434 384.308087 
L 167.86862 385.40824 
L 167.011951 386.543557 
L 166.175613 387.663196 
L 165.366678 388.757768 
L 164.576718 389.82112 
L 163.805168 390.862885 
L 163.054365 391.919507 
L 162.332244 392.943033 
L 161.60918 393.959323 
L 160.911723 394.982718 
L 160.241321 395.973368 
L 159.579128 396.968302 
L 158.92392 397.913617 
L 158.287473 398.902161 
L 157.667492 399.826679 
L 157.047862 400.786926 
L 156.446965 401.732692 
L 155.85998 402.662457 
L 155.283104 403.574604 
L 154.719002 404.509116 
L 154.168143 405.414921 
L 153.625483 406.342125 
L 153.077425 407.286533 
L 152.553595 408.186919 
" style="fill:none;stroke:#bcbd22;stroke-linecap:square;stroke-width:1.5;"/>
   </g>
   <g id="line2d_23">
    <path clip-path="url(#p908cfb5cca)" d="M 972 60.48 
L 971.966904 60.795136 
L 971.929327 61.141449 
L 971.892675 61.494308 
L 971.856082 61.851357 
L 971.817542 62.203471 
L 971.776503 62.515755 
L 971.722627 62.86966 
L 971.679061 63.210153 
L 971.633679 63.542318 
L 971.590321 63.874691 
L 971.537553 64.213861 
L 971.489904 64.557706 
L 971.42657 64.916452 
L 971.378367 65.27137 
L 971.320849 65.610498 
L 971.252373 65.9325 
L 971.191085 66.275108 
L 971.128419 66.614657 
L 971.060465 66.981641 
L 970.974391 67.301094 
L 970.899526 67.622433 
L 970.825132 67.964525 
L 970.741758 68.287795 
L 970.659614 68.590328 
L 970.583994 68.94117 
L 970.496192 69.252102 
L 970.413536 69.555995 
L 970.317917 69.878261 
L 970.22541 70.235797 
L 970.127022 70.563484 
L 970.040134 70.850007 
L 969.94336 71.163811 
L 969.845617 71.468147 
L 969.761841 71.759565 
L 969.659129 72.048678 
L 969.541998 72.347315 
L 969.432743 72.614118 
L 969.331622 72.914821 
L 969.227987 73.206675 
L 969.12556 73.533937 
L 969.015371 73.827125 
L 968.880309 74.147623 
L 968.769198 74.438411 
L 968.650256 74.732565 
L 968.519167 75.04417 
L 968.391874 75.367909 
L 968.258864 75.675578 
L 968.126058 75.967878 
L 967.992911 76.250819 
L 967.858993 76.566543 
L 967.722236 76.890428 
L 967.597275 77.177902 
L 967.445615 77.508811 
L 967.304128 77.858353 
L 967.156609 78.159553 
L 967.003935 78.481191 
L 966.856002 78.81094 
L 966.695196 79.165827 
L 966.535928 79.50618 
L 966.364872 79.868942 
L 966.186779 80.218233 
L 965.998782 80.558123 
L 965.812962 80.901295 
L 965.626583 81.26853 
L 965.428952 81.598453 
L 965.220599 81.971342 
L 965.015117 82.375388 
L 964.829772 82.789069 
L 964.615344 83.171613 
L 964.394012 83.563875 
L 964.147109 84.006875 
L 963.920305 84.424369 
L 963.66472 84.872372 
L 963.423113 85.329955 
L 963.166935 85.780624 
L 962.899317 86.24112 
L 962.643609 86.750936 
L 962.357223 87.288321 
L 962.072228 87.8152 
L 961.796143 88.37367 
L 961.489568 88.948228 
L 961.206221 89.527612 
L 960.873993 90.155086 
L 960.541881 90.773489 
L 960.212599 91.39372 
L 959.856926 92.060509 
L 959.517439 92.735934 
L 959.169254 93.44358 
L 958.795168 94.149396 
L 958.411211 94.962728 
L 957.982803 95.751108 
L 957.583667 96.600272 
L 957.135661 97.484043 
L 956.653924 98.413205 
L 956.192513 99.327329 
L 955.722346 100.340952 
L 955.21387 101.33304 
L 954.718493 102.401187 
L 954.181051 103.478227 
L 953.654984 104.64972 
" style="fill:none;stroke:#17becf;stroke-linecap:square;stroke-width:1.5;"/>
   </g>
   <g id="patch_3">
    <path d="M 135 448.56 
L 135 60.48 
" style="fill:none;stroke:#000000;stroke-linecap:square;stroke-linejoin:miter;stroke-width:0.8;"/>
   </g>
   <g id="patch_4">
    <path d="M 972 448.56 
L 972 60.48 
" style="fill:none;stroke:#000000;stroke-linecap:square;stroke-linejoin:miter;stroke-width:0.8;"/>
   </g>
   <g id="patch_5">
    <path d="M 135 448.56 
L 972 448.56 
" style="fill:none;stroke:#000000;stroke-linecap:square;stroke-linejoin:miter;stroke-width:0.8;"/>
   </g>
   <g id="patch_6">
    <path d="M 135 60.48 
L 972 60.48 
" style="fill:none;stroke:#000000;stroke-linecap:square;stroke-linejoin:miter;stroke-width:0.8;"/>
   </g>
   <g id="legend_1">
    <g id="patch_7">
     <path d="M 850.269375 439.56 
L 959.4 439.56 
Q 963 439.56 963 435.96 
L 963 173.55375 
Q 963 169.95375 959.4 169.95375 
L 850.269375 169.95375 
Q 846.669375 169.95375 846.669375 173.55375 
L 846.669375 435.96 
Q 846.669375 439.56 850.269375 439.56 
z
" style="fill:#ffffff;opacity:0.8;stroke:#cccccc;stroke-linejoin:miter;"/>
    </g>
    <g id="line2d_24">
     <path d="M 853.869375 184.530938 
L 889.869375 184.530938 
" style="fill:none;stroke:#1f77b4;stroke-linecap:square;stroke-width:1.5;"/>
    </g>
    <g id="line2d_25"/>
    <g id="text_15">
     <!-- 0.001 -->
     <g transform="translate(904.269375 190.830938)scale(0.18 -0.18)">
      <use xlink:href="#DejaVuSans-30"/>
      <use x="63.623047" xlink:href="#DejaVuSans-2e"/>
      <use x="95.410156" xlink:href="#DejaVuSans-30"/>
      <use x="159.033203" xlink:href="#DejaVuSans-30"/>
      <use x="222.65625" xlink:href="#DejaVuSans-31"/>
     </g>
    </g>
    <g id="line2d_26">
     <path d="M 853.869375 210.951563 
L 889.869375 210.951563 
" style="fill:none;stroke:#ff7f0e;stroke-linecap:square;stroke-width:1.5;"/>
    </g>
    <g id="line2d_27"/>
    <g id="text_16">
     <!-- 0.011 -->
     <g transform="translate(904.269375 217.251563)scale(0.18 -0.18)">
      <use xlink:href="#DejaVuSans-30"/>
      <use x="63.623047" xlink:href="#DejaVuSans-2e"/>
      <use x="95.410156" xlink:href="#DejaVuSans-30"/>
      <use x="159.033203" xlink:href="#DejaVuSans-31"/>
      <use x="222.65625" xlink:href="#DejaVuSans-31"/>
     </g>
    </g>
    <g id="line2d_28">
     <path d="M 853.869375 237.372188 
L 889.869375 237.372188 
" style="fill:none;stroke:#2ca02c;stroke-linecap:square;stroke-width:1.5;"/>
    </g>
    <g id="line2d_29"/>
    <g id="text_17">
     <!-- 0.021 -->
     <g transform="translate(904.269375 243.672188)scale(0.18 -0.18)">
      <use xlink:href="#DejaVuSans-30"/>
      <use x="63.623047" xlink:href="#DejaVuSans-2e"/>
      <use x="95.410156" xlink:href="#DejaVuSans-30"/>
      <use x="159.033203" xlink:href="#DejaVuSans-32"/>
      <use x="222.65625" xlink:href="#DejaVuSans-31"/>
     </g>
    </g>
    <g id="line2d_30">
     <path d="M 853.869375 263.792813 
L 889.869375 263.792813 
" style="fill:none;stroke:#d62728;stroke-linecap:square;stroke-width:1.5;"/>
    </g>
    <g id="line2d_31"/>
    <g id="text_18">
     <!-- 0.031 -->
     <g transform="translate(904.269375 270.092813)scale(0.18 -0.18)">
      <defs>
       <path d="M 2597 2516 
Q 3050 2419 3304 2112 
Q 3559 1806 3559 1356 
Q 3559 666 3084 287 
Q 2609 -91 1734 -91 
Q 1441 -91 1130 -33 
Q 819 25 488 141 
L 488 750 
Q 750 597 1062 519 
Q 1375 441 1716 441 
Q 2309 441 2620 675 
Q 2931 909 2931 1356 
Q 2931 1769 2642 2001 
Q 2353 2234 1838 2234 
L 1294 2234 
L 1294 2753 
L 1863 2753 
Q 2328 2753 2575 2939 
Q 2822 3125 2822 3475 
Q 2822 3834 2567 4026 
Q 2313 4219 1838 4219 
Q 1578 4219 1281 4162 
Q 984 4106 628 3988 
L 628 4550 
Q 988 4650 1302 4700 
Q 1616 4750 1894 4750 
Q 2613 4750 3031 4423 
Q 3450 4097 3450 3541 
Q 3450 3153 3228 2886 
Q 3006 2619 2597 2516 
z
" id="DejaVuSans-33" transform="scale(0.015625)"/>
      </defs>
      <use xlink:href="#DejaVuSans-30"/>
      <use x="63.623047" xlink:href="#DejaVuSans-2e"/>
      <use x="95.410156" xlink:href="#DejaVuSans-30"/>
      <use x="159.033203" xlink:href="#DejaVuSans-33"/>
      <use x="222.65625" xlink:href="#DejaVuSans-31"/>
     </g>
    </g>
    <g id="line2d_32">
     <path d="M 853.869375 290.213438 
L 889.869375 290.213438 
" style="fill:none;stroke:#9467bd;stroke-linecap:square;stroke-width:1.5;"/>
    </g>
    <g id="line2d_33"/>
    <g id="text_19">
     <!-- 0.041 -->
     <g transform="translate(904.269375 296.513438)scale(0.18 -0.18)">
      <use xlink:href="#DejaVuSans-30"/>
      <use x="63.623047" xlink:href="#DejaVuSans-2e"/>
      <use x="95.410156" xlink:href="#DejaVuSans-30"/>
      <use x="159.033203" xlink:href="#DejaVuSans-34"/>
      <use x="222.65625" xlink:href="#DejaVuSans-31"/>
     </g>
    </g>
    <g id="line2d_34">
     <path d="M 853.869375 316.634063 
L 889.869375 316.634063 
" style="fill:none;stroke:#8c564b;stroke-linecap:square;stroke-width:1.5;"/>
    </g>
    <g id="line2d_35"/>
    <g id="text_20">
     <!-- 0.051 -->
     <g transform="translate(904.269375 322.934063)scale(0.18 -0.18)">
      <defs>
       <path d="M 691 4666 
L 3169 4666 
L 3169 4134 
L 1269 4134 
L 1269 2991 
Q 1406 3038 1543 3061 
Q 1681 3084 1819 3084 
Q 2600 3084 3056 2656 
Q 3513 2228 3513 1497 
Q 3513 744 3044 326 
Q 2575 -91 1722 -91 
Q 1428 -91 1123 -41 
Q 819 9 494 109 
L 494 744 
Q 775 591 1075 516 
Q 1375 441 1709 441 
Q 2250 441 2565 725 
Q 2881 1009 2881 1497 
Q 2881 1984 2565 2268 
Q 2250 2553 1709 2553 
Q 1456 2553 1204 2497 
Q 953 2441 691 2322 
L 691 4666 
z
" id="DejaVuSans-35" transform="scale(0.015625)"/>
      </defs>
      <use xlink:href="#DejaVuSans-30"/>
      <use x="63.623047" xlink:href="#DejaVuSans-2e"/>
      <use x="95.410156" xlink:href="#DejaVuSans-30"/>
      <use x="159.033203" xlink:href="#DejaVuSans-35"/>
      <use x="222.65625" xlink:href="#DejaVuSans-31"/>
     </g>
    </g>
    <g id="line2d_36">
     <path d="M 853.869375 343.054688 
L 889.869375 343.054688 
" style="fill:none;stroke:#e377c2;stroke-linecap:square;stroke-width:1.5;"/>
    </g>
    <g id="line2d_37"/>
    <g id="text_21">
     <!-- 0.061 -->
     <g transform="translate(904.269375 349.354688)scale(0.18 -0.18)">
      <use xlink:href="#DejaVuSans-30"/>
      <use x="63.623047" xlink:href="#DejaVuSans-2e"/>
      <use x="95.410156" xlink:href="#DejaVuSans-30"/>
      <use x="159.033203" xlink:href="#DejaVuSans-36"/>
      <use x="222.65625" xlink:href="#DejaVuSans-31"/>
     </g>
    </g>
    <g id="line2d_38">
     <path d="M 853.869375 369.475313 
L 889.869375 369.475313 
" style="fill:none;stroke:#7f7f7f;stroke-linecap:square;stroke-width:1.5;"/>
    </g>
    <g id="line2d_39"/>
    <g id="text_22">
     <!-- 0.071 -->
     <g transform="translate(904.269375 375.775313)scale(0.18 -0.18)">
      <defs>
       <path d="M 525 4666 
L 3525 4666 
L 3525 4397 
L 1831 0 
L 1172 0 
L 2766 4134 
L 525 4134 
L 525 4666 
z
" id="DejaVuSans-37" transform="scale(0.015625)"/>
      </defs>
      <use xlink:href="#DejaVuSans-30"/>
      <use x="63.623047" xlink:href="#DejaVuSans-2e"/>
      <use x="95.410156" xlink:href="#DejaVuSans-30"/>
      <use x="159.033203" xlink:href="#DejaVuSans-37"/>
      <use x="222.65625" xlink:href="#DejaVuSans-31"/>
     </g>
    </g>
    <g id="line2d_40">
     <path d="M 853.869375 395.895938 
L 889.869375 395.895938 
" style="fill:none;stroke:#bcbd22;stroke-linecap:square;stroke-width:1.5;"/>
    </g>
    <g id="line2d_41"/>
    <g id="text_23">
     <!-- 0.081 -->
     <g transform="translate(904.269375 402.195938)scale(0.18 -0.18)">
      <use xlink:href="#DejaVuSans-30"/>
      <use x="63.623047" xlink:href="#DejaVuSans-2e"/>
      <use x="95.410156" xlink:href="#DejaVuSans-30"/>
      <use x="159.033203" xlink:href="#DejaVuSans-38"/>
      <use x="222.65625" xlink:href="#DejaVuSans-31"/>
     </g>
    </g>
    <g id="line2d_42">
     <path d="M 853.869375 422.316563 
L 889.869375 422.316563 
" style="fill:none;stroke:#17becf;stroke-linecap:square;stroke-width:1.5;"/>
    </g>
    <g id="line2d_43"/>
    <g id="text_24">
     <!-- 0.091 -->
     <g transform="translate(904.269375 428.616563)scale(0.18 -0.18)">
      <defs>
       <path d="M 703 97 
L 703 672 
Q 941 559 1184 500 
Q 1428 441 1663 441 
Q 2288 441 2617 861 
Q 2947 1281 2994 2138 
Q 2813 1869 2534 1725 
Q 2256 1581 1919 1581 
Q 1219 1581 811 2004 
Q 403 2428 403 3163 
Q 403 3881 828 4315 
Q 1253 4750 1959 4750 
Q 2769 4750 3195 4129 
Q 3622 3509 3622 2328 
Q 3622 1225 3098 567 
Q 2575 -91 1691 -91 
Q 1453 -91 1209 -44 
Q 966 3 703 97 
z
M 1959 2075 
Q 2384 2075 2632 2365 
Q 2881 2656 2881 3163 
Q 2881 3666 2632 3958 
Q 2384 4250 1959 4250 
Q 1534 4250 1286 3958 
Q 1038 3666 1038 3163 
Q 1038 2656 1286 2365 
Q 1534 2075 1959 2075 
z
" id="DejaVuSans-39" transform="scale(0.015625)"/>
      </defs>
      <use xlink:href="#DejaVuSans-30"/>
      <use x="63.623047" xlink:href="#DejaVuSans-2e"/>
      <use x="95.410156" xlink:href="#DejaVuSans-30"/>
      <use x="159.033203" xlink:href="#DejaVuSans-39"/>
      <use x="222.65625" xlink:href="#DejaVuSans-31"/>
     </g>
    </g>
   </g>
  </g>
 </g>
 <defs>
  <clipPath id="p908cfb5cca">
   <rect height="388.08" width="837" x="135" y="60.48"/>
  </clipPath>
 </defs>
</svg>
