<?xml version="1.0" encoding="utf-8" standalone="no"?>
<!DOCTYPE svg PUBLIC "-//W3C//DTD SVG 1.1//EN"
  "http://www.w3.org/Graphics/SVG/1.1/DTD/svg11.dtd">
<svg height="504pt" version="1.1" viewBox="0 0 1080 504" width="1080pt" xmlns="http://www.w3.org/2000/svg" xmlns:xlink="http://www.w3.org/1999/xlink">
 <metadata>
  <rdf:RDF xmlns:cc="http://creativecommons.org/ns#" xmlns:dc="http://purl.org/dc/elements/1.1/" xmlns:rdf="http://www.w3.org/1999/02/22-rdf-syntax-ns#">
   <cc:Work>
    <dc:type rdf:resource="http://purl.org/dc/dcmitype/StillImage"/>
    <dc:date>2022-01-07T13:22:37.393716</dc:date>
    <dc:format>image/svg+xml</dc:format>
    <dc:creator>
     <cc:Agent>
      <dc:title>Matplotlib v3.4.3, https://matplotlib.org/</dc:title>
     </cc:Agent>
    </dc:creator>
   </cc:Work>
  </rdf:RDF>
 </metadata>
 <defs>
  <style type="text/css">*{stroke-linecap:butt;stroke-linejoin:round;}</style>
 </defs>
 <g id="figure_1">
  <g id="patch_1">
   <path d="M 0 504 
L 1080 504 
L 1080 0 
L 0 0 
z
" style="fill:#ffffff;"/>
  </g>
  <g id="axes_1">
   <g id="patch_2">
    <path d="M 135 448.56 
L 972 448.56 
L 972 60.48 
L 135 60.48 
z
" style="fill:#ffffff;"/>
   </g>
   <g id="matplotlib.axis_1">
    <g id="xtick_1">
     <g id="line2d_1">
      <defs>
       <path d="M 0 0 
L 0 3.5 
" id="mb9eb4bdf91" style="stroke:#000000;stroke-width:0.8;"/>
      </defs>
      <g>
       <use style="stroke:#000000;stroke-width:0.8;" x="135" xlink:href="#mb9eb4bdf91" y="448.56"/>
      </g>
     </g>
     <g id="text_1">
      <!-- 0.0 -->
      <g transform="translate(120.687187 469.237188)scale(0.18 -0.18)">
       <defs>
        <path d="M 2034 4250 
Q 1547 4250 1301 3770 
Q 1056 3291 1056 2328 
Q 1056 1369 1301 889 
Q 1547 409 2034 409 
Q 2525 409 2770 889 
Q 3016 1369 3016 2328 
Q 3016 3291 2770 3770 
Q 2525 4250 2034 4250 
z
M 2034 4750 
Q 2819 4750 3233 4129 
Q 3647 3509 3647 2328 
Q 3647 1150 3233 529 
Q 2819 -91 2034 -91 
Q 1250 -91 836 529 
Q 422 1150 422 2328 
Q 422 3509 836 4129 
Q 1250 4750 2034 4750 
z
" id="DejaVuSans-30" transform="scale(0.015625)"/>
        <path d="M 684 794 
L 1344 794 
L 1344 0 
L 684 0 
L 684 794 
z
" id="DejaVuSans-2e" transform="scale(0.015625)"/>
       </defs>
       <use xlink:href="#DejaVuSans-30"/>
       <use x="63.623047" xlink:href="#DejaVuSans-2e"/>
       <use x="95.410156" xlink:href="#DejaVuSans-30"/>
      </g>
     </g>
    </g>
    <g id="xtick_2">
     <g id="line2d_2">
      <g>
       <use style="stroke:#000000;stroke-width:0.8;" x="302.4" xlink:href="#mb9eb4bdf91" y="448.56"/>
      </g>
     </g>
     <g id="text_2">
      <!-- 0.2 -->
      <g transform="translate(288.087187 469.237188)scale(0.18 -0.18)">
       <defs>
        <path d="M 1228 531 
L 3431 531 
L 3431 0 
L 469 0 
L 469 531 
Q 828 903 1448 1529 
Q 2069 2156 2228 2338 
Q 2531 2678 2651 2914 
Q 2772 3150 2772 3378 
Q 2772 3750 2511 3984 
Q 2250 4219 1831 4219 
Q 1534 4219 1204 4116 
Q 875 4013 500 3803 
L 500 4441 
Q 881 4594 1212 4672 
Q 1544 4750 1819 4750 
Q 2544 4750 2975 4387 
Q 3406 4025 3406 3419 
Q 3406 3131 3298 2873 
Q 3191 2616 2906 2266 
Q 2828 2175 2409 1742 
Q 1991 1309 1228 531 
z
" id="DejaVuSans-32" transform="scale(0.015625)"/>
       </defs>
       <use xlink:href="#DejaVuSans-30"/>
       <use x="63.623047" xlink:href="#DejaVuSans-2e"/>
       <use x="95.410156" xlink:href="#DejaVuSans-32"/>
      </g>
     </g>
    </g>
    <g id="xtick_3">
     <g id="line2d_3">
      <g>
       <use style="stroke:#000000;stroke-width:0.8;" x="469.8" xlink:href="#mb9eb4bdf91" y="448.56"/>
      </g>
     </g>
     <g id="text_3">
      <!-- 0.4 -->
      <g transform="translate(455.487188 469.237188)scale(0.18 -0.18)">
       <defs>
        <path d="M 2419 4116 
L 825 1625 
L 2419 1625 
L 2419 4116 
z
M 2253 4666 
L 3047 4666 
L 3047 1625 
L 3713 1625 
L 3713 1100 
L 3047 1100 
L 3047 0 
L 2419 0 
L 2419 1100 
L 313 1100 
L 313 1709 
L 2253 4666 
z
" id="DejaVuSans-34" transform="scale(0.015625)"/>
       </defs>
       <use xlink:href="#DejaVuSans-30"/>
       <use x="63.623047" xlink:href="#DejaVuSans-2e"/>
       <use x="95.410156" xlink:href="#DejaVuSans-34"/>
      </g>
     </g>
    </g>
    <g id="xtick_4">
     <g id="line2d_4">
      <g>
       <use style="stroke:#000000;stroke-width:0.8;" x="637.2" xlink:href="#mb9eb4bdf91" y="448.56"/>
      </g>
     </g>
     <g id="text_4">
      <!-- 0.6 -->
      <g transform="translate(622.887188 469.237188)scale(0.18 -0.18)">
       <defs>
        <path d="M 2113 2584 
Q 1688 2584 1439 2293 
Q 1191 2003 1191 1497 
Q 1191 994 1439 701 
Q 1688 409 2113 409 
Q 2538 409 2786 701 
Q 3034 994 3034 1497 
Q 3034 2003 2786 2293 
Q 2538 2584 2113 2584 
z
M 3366 4563 
L 3366 3988 
Q 3128 4100 2886 4159 
Q 2644 4219 2406 4219 
Q 1781 4219 1451 3797 
Q 1122 3375 1075 2522 
Q 1259 2794 1537 2939 
Q 1816 3084 2150 3084 
Q 2853 3084 3261 2657 
Q 3669 2231 3669 1497 
Q 3669 778 3244 343 
Q 2819 -91 2113 -91 
Q 1303 -91 875 529 
Q 447 1150 447 2328 
Q 447 3434 972 4092 
Q 1497 4750 2381 4750 
Q 2619 4750 2861 4703 
Q 3103 4656 3366 4563 
z
" id="DejaVuSans-36" transform="scale(0.015625)"/>
       </defs>
       <use xlink:href="#DejaVuSans-30"/>
       <use x="63.623047" xlink:href="#DejaVuSans-2e"/>
       <use x="95.410156" xlink:href="#DejaVuSans-36"/>
      </g>
     </g>
    </g>
    <g id="xtick_5">
     <g id="line2d_5">
      <g>
       <use style="stroke:#000000;stroke-width:0.8;" x="804.6" xlink:href="#mb9eb4bdf91" y="448.56"/>
      </g>
     </g>
     <g id="text_5">
      <!-- 0.8 -->
      <g transform="translate(790.287188 469.237188)scale(0.18 -0.18)">
       <defs>
        <path d="M 2034 2216 
Q 1584 2216 1326 1975 
Q 1069 1734 1069 1313 
Q 1069 891 1326 650 
Q 1584 409 2034 409 
Q 2484 409 2743 651 
Q 3003 894 3003 1313 
Q 3003 1734 2745 1975 
Q 2488 2216 2034 2216 
z
M 1403 2484 
Q 997 2584 770 2862 
Q 544 3141 544 3541 
Q 544 4100 942 4425 
Q 1341 4750 2034 4750 
Q 2731 4750 3128 4425 
Q 3525 4100 3525 3541 
Q 3525 3141 3298 2862 
Q 3072 2584 2669 2484 
Q 3125 2378 3379 2068 
Q 3634 1759 3634 1313 
Q 3634 634 3220 271 
Q 2806 -91 2034 -91 
Q 1263 -91 848 271 
Q 434 634 434 1313 
Q 434 1759 690 2068 
Q 947 2378 1403 2484 
z
M 1172 3481 
Q 1172 3119 1398 2916 
Q 1625 2713 2034 2713 
Q 2441 2713 2670 2916 
Q 2900 3119 2900 3481 
Q 2900 3844 2670 4047 
Q 2441 4250 2034 4250 
Q 1625 4250 1398 4047 
Q 1172 3844 1172 3481 
z
" id="DejaVuSans-38" transform="scale(0.015625)"/>
       </defs>
       <use xlink:href="#DejaVuSans-30"/>
       <use x="63.623047" xlink:href="#DejaVuSans-2e"/>
       <use x="95.410156" xlink:href="#DejaVuSans-38"/>
      </g>
     </g>
    </g>
    <g id="xtick_6">
     <g id="line2d_6">
      <g>
       <use style="stroke:#000000;stroke-width:0.8;" x="972" xlink:href="#mb9eb4bdf91" y="448.56"/>
      </g>
     </g>
     <g id="text_6">
      <!-- 1.0 -->
      <g transform="translate(957.687188 469.237188)scale(0.18 -0.18)">
       <defs>
        <path d="M 794 531 
L 1825 531 
L 1825 4091 
L 703 3866 
L 703 4441 
L 1819 4666 
L 2450 4666 
L 2450 531 
L 3481 531 
L 3481 0 
L 794 0 
L 794 531 
z
" id="DejaVuSans-31" transform="scale(0.015625)"/>
       </defs>
       <use xlink:href="#DejaVuSans-31"/>
       <use x="63.623047" xlink:href="#DejaVuSans-2e"/>
       <use x="95.410156" xlink:href="#DejaVuSans-30"/>
      </g>
     </g>
    </g>
    <g id="text_7">
     <!-- $FPR_{Fair}$ -->
     <g transform="translate(518.08 493.697187)scale(0.22 -0.22)">
      <defs>
       <path d="M 1081 4666 
L 3756 4666 
L 3653 4134 
L 1606 4134 
L 1338 2759 
L 3188 2759 
L 3084 2228 
L 1234 2228 
L 800 0 
L 172 0 
L 1081 4666 
z
" id="DejaVuSans-Oblique-46" transform="scale(0.015625)"/>
       <path d="M 1081 4666 
L 2541 4666 
Q 3178 4666 3512 4369 
Q 3847 4072 3847 3500 
Q 3847 2731 3353 2303 
Q 2859 1875 1966 1875 
L 1172 1875 
L 806 0 
L 172 0 
L 1081 4666 
z
M 1613 4147 
L 1275 2394 
L 2069 2394 
Q 2606 2394 2893 2669 
Q 3181 2944 3181 3456 
Q 3181 3784 2986 3965 
Q 2791 4147 2438 4147 
L 1613 4147 
z
" id="DejaVuSans-Oblique-50" transform="scale(0.015625)"/>
       <path d="M 1613 4147 
L 1294 2491 
L 2106 2491 
Q 2584 2491 2879 2755 
Q 3175 3019 3175 3444 
Q 3175 3784 2976 3965 
Q 2778 4147 2406 4147 
L 1613 4147 
z
M 2772 2241 
Q 2972 2194 3105 2009 
Q 3238 1825 3413 1275 
L 3809 0 
L 3144 0 
L 2778 1197 
Q 2638 1659 2453 1815 
Q 2269 1972 1888 1972 
L 1191 1972 
L 806 0 
L 172 0 
L 1081 4666 
L 2503 4666 
Q 3150 4666 3495 4373 
Q 3841 4081 3841 3531 
Q 3841 3044 3547 2687 
Q 3253 2331 2772 2241 
z
" id="DejaVuSans-Oblique-52" transform="scale(0.015625)"/>
       <path d="M 3438 1997 
L 3047 0 
L 2472 0 
L 2578 531 
Q 2325 219 2001 64 
Q 1678 -91 1281 -91 
Q 834 -91 548 182 
Q 263 456 263 884 
Q 263 1497 752 1853 
Q 1241 2209 2100 2209 
L 2900 2209 
L 2931 2363 
Q 2938 2388 2941 2417 
Q 2944 2447 2944 2509 
Q 2944 2788 2717 2942 
Q 2491 3097 2081 3097 
Q 1800 3097 1504 3025 
Q 1209 2953 897 2809 
L 997 3341 
Q 1322 3463 1633 3523 
Q 1944 3584 2234 3584 
Q 2853 3584 3176 3315 
Q 3500 3047 3500 2534 
Q 3500 2431 3484 2292 
Q 3469 2153 3438 1997 
z
M 2816 1759 
L 2241 1759 
Q 1534 1759 1195 1570 
Q 856 1381 856 984 
Q 856 709 1029 553 
Q 1203 397 1509 397 
Q 1978 397 2328 733 
Q 2678 1069 2791 1631 
L 2816 1759 
z
" id="DejaVuSans-Oblique-61" transform="scale(0.015625)"/>
       <path d="M 1172 4863 
L 1747 4863 
L 1606 4134 
L 1031 4134 
L 1172 4863 
z
M 909 3500 
L 1484 3500 
L 800 0 
L 225 0 
L 909 3500 
z
" id="DejaVuSans-Oblique-69" transform="scale(0.015625)"/>
       <path d="M 2853 2969 
Q 2766 3016 2653 3041 
Q 2541 3066 2413 3066 
Q 1953 3066 1609 2717 
Q 1266 2369 1153 1784 
L 800 0 
L 225 0 
L 909 3500 
L 1484 3500 
L 1375 2956 
Q 1603 3259 1920 3421 
Q 2238 3584 2597 3584 
Q 2691 3584 2781 3573 
Q 2872 3563 2963 3538 
L 2853 2969 
z
" id="DejaVuSans-Oblique-72" transform="scale(0.015625)"/>
      </defs>
      <use transform="translate(0 0.09375)" xlink:href="#DejaVuSans-Oblique-46"/>
      <use transform="translate(57.519531 0.09375)" xlink:href="#DejaVuSans-Oblique-50"/>
      <use transform="translate(117.822266 0.09375)" xlink:href="#DejaVuSans-Oblique-52"/>
      <use transform="translate(187.304688 -16.3125)scale(0.7)" xlink:href="#DejaVuSans-Oblique-46"/>
      <use transform="translate(227.568359 -16.3125)scale(0.7)" xlink:href="#DejaVuSans-Oblique-61"/>
      <use transform="translate(270.463867 -16.3125)scale(0.7)" xlink:href="#DejaVuSans-Oblique-69"/>
      <use transform="translate(289.912109 -16.3125)scale(0.7)" xlink:href="#DejaVuSans-Oblique-72"/>
     </g>
    </g>
   </g>
   <g id="matplotlib.axis_2">
    <g id="ytick_1">
     <g id="line2d_7">
      <defs>
       <path d="M 0 0 
L -3.5 0 
" id="m7fea48b658" style="stroke:#000000;stroke-width:0.8;"/>
      </defs>
      <g>
       <use style="stroke:#000000;stroke-width:0.8;" x="135" xlink:href="#m7fea48b658" y="448.56"/>
      </g>
     </g>
     <g id="text_8">
      <!-- 0.0 -->
      <g transform="translate(99.374375 455.398594)scale(0.18 -0.18)">
       <use xlink:href="#DejaVuSans-30"/>
       <use x="63.623047" xlink:href="#DejaVuSans-2e"/>
       <use x="95.410156" xlink:href="#DejaVuSans-30"/>
      </g>
     </g>
    </g>
    <g id="ytick_2">
     <g id="line2d_8">
      <g>
       <use style="stroke:#000000;stroke-width:0.8;" x="135" xlink:href="#m7fea48b658" y="370.944"/>
      </g>
     </g>
     <g id="text_9">
      <!-- 0.2 -->
      <g transform="translate(99.374375 377.782594)scale(0.18 -0.18)">
       <use xlink:href="#DejaVuSans-30"/>
       <use x="63.623047" xlink:href="#DejaVuSans-2e"/>
       <use x="95.410156" xlink:href="#DejaVuSans-32"/>
      </g>
     </g>
    </g>
    <g id="ytick_3">
     <g id="line2d_9">
      <g>
       <use style="stroke:#000000;stroke-width:0.8;" x="135" xlink:href="#m7fea48b658" y="293.328"/>
      </g>
     </g>
     <g id="text_10">
      <!-- 0.4 -->
      <g transform="translate(99.374375 300.166594)scale(0.18 -0.18)">
       <use xlink:href="#DejaVuSans-30"/>
       <use x="63.623047" xlink:href="#DejaVuSans-2e"/>
       <use x="95.410156" xlink:href="#DejaVuSans-34"/>
      </g>
     </g>
    </g>
    <g id="ytick_4">
     <g id="line2d_10">
      <g>
       <use style="stroke:#000000;stroke-width:0.8;" x="135" xlink:href="#m7fea48b658" y="215.712"/>
      </g>
     </g>
     <g id="text_11">
      <!-- 0.6 -->
      <g transform="translate(99.374375 222.550594)scale(0.18 -0.18)">
       <use xlink:href="#DejaVuSans-30"/>
       <use x="63.623047" xlink:href="#DejaVuSans-2e"/>
       <use x="95.410156" xlink:href="#DejaVuSans-36"/>
      </g>
     </g>
    </g>
    <g id="ytick_5">
     <g id="line2d_11">
      <g>
       <use style="stroke:#000000;stroke-width:0.8;" x="135" xlink:href="#m7fea48b658" y="138.096"/>
      </g>
     </g>
     <g id="text_12">
      <!-- 0.8 -->
      <g transform="translate(99.374375 144.934594)scale(0.18 -0.18)">
       <use xlink:href="#DejaVuSans-30"/>
       <use x="63.623047" xlink:href="#DejaVuSans-2e"/>
       <use x="95.410156" xlink:href="#DejaVuSans-38"/>
      </g>
     </g>
    </g>
    <g id="ytick_6">
     <g id="line2d_12">
      <g>
       <use style="stroke:#000000;stroke-width:0.8;" x="135" xlink:href="#m7fea48b658" y="60.48"/>
      </g>
     </g>
     <g id="text_13">
      <!-- 1.0 -->
      <g transform="translate(99.374375 67.318594)scale(0.18 -0.18)">
       <use xlink:href="#DejaVuSans-31"/>
       <use x="63.623047" xlink:href="#DejaVuSans-2e"/>
       <use x="95.410156" xlink:href="#DejaVuSans-30"/>
      </g>
     </g>
    </g>
    <g id="text_14">
     <!-- $TPR_{Fair}$ -->
     <g transform="translate(90.799062 290.27)rotate(-90)scale(0.22 -0.22)">
      <defs>
       <path d="M 378 4666 
L 4325 4666 
L 4225 4134 
L 2559 4134 
L 1759 0 
L 1125 0 
L 1925 4134 
L 275 4134 
L 378 4666 
z
" id="DejaVuSans-Oblique-54" transform="scale(0.015625)"/>
      </defs>
      <use transform="translate(0 0.09375)" xlink:href="#DejaVuSans-Oblique-54"/>
      <use transform="translate(61.083984 0.09375)" xlink:href="#DejaVuSans-Oblique-50"/>
      <use transform="translate(121.386719 0.09375)" xlink:href="#DejaVuSans-Oblique-52"/>
      <use transform="translate(190.869141 -16.3125)scale(0.7)" xlink:href="#DejaVuSans-Oblique-46"/>
      <use transform="translate(231.132812 -16.3125)scale(0.7)" xlink:href="#DejaVuSans-Oblique-61"/>
      <use transform="translate(274.02832 -16.3125)scale(0.7)" xlink:href="#DejaVuSans-Oblique-69"/>
      <use transform="translate(293.476562 -16.3125)scale(0.7)" xlink:href="#DejaVuSans-Oblique-72"/>
     </g>
    </g>
   </g>
   <g id="line2d_13">
    <path clip-path="url(#p31f3b22e60)" d="M 135 448.56 
L 972 60.48 
" style="fill:none;stroke:#ff0000;stroke-dasharray:5.55,2.4;stroke-dashoffset:0;stroke-width:1.5;"/>
   </g>
   <g id="line2d_14">
    <path clip-path="url(#p31f3b22e60)" d="M 972 60.48 
L 562.876951 266.480795 
L 422.699206 329.343654 
L 352.619413 359.444419 
L 310.52913 377.187979 
L 282.76189 388.731392 
L 263.015301 396.950895 
L 248.19483 403.068852 
L 236.675076 407.803725 
L 227.397963 411.524891 
L 219.711235 414.55405 
L 213.393923 416.98061 
L 207.96017 418.983808 
L 203.224442 420.677721 
L 199.114027 422.161007 
L 195.465223 423.455835 
L 192.246026 424.637905 
L 189.359515 425.664323 
L 186.677183 426.565344 
L 184.239657 427.388018 
L 182.067345 428.155776 
L 180.028806 428.844979 
L 178.184795 429.493042 
L 176.465164 430.103354 
L 174.842744 430.67751 
L 173.328991 431.212693 
L 171.928112 431.730253 
L 170.560359 432.197018 
L 169.30589 432.643732 
L 168.131857 433.078062 
L 167.02407 433.491898 
L 165.989313 433.869927 
L 165.015488 434.245399 
L 164.080399 434.58098 
L 163.17727 434.918009 
L 162.326035 435.25767 
L 161.497848 435.577333 
L 160.722505 435.890127 
L 159.987031 436.19485 
L 159.302189 436.47346 
L 158.629359 436.741064 
L 157.970168 437.014276 
L 157.357453 437.281162 
L 156.766256 437.542371 
L 156.208715 437.787256 
L 155.679795 438.022545 
L 155.166548 438.255336 
L 154.678571 438.475896 
L 154.186627 438.696179 
L 153.723793 438.900545 
L 153.27981 439.10372 
L 152.850241 439.29848 
L 152.445957 439.486447 
L 152.040142 439.668767 
L 151.655851 439.85257 
L 151.2869 440.024381 
L 150.916288 440.191868 
L 150.575863 440.357341 
L 150.248743 440.502113 
L 149.940731 440.643707 
L 149.633876 440.78101 
L 149.331395 440.910375 
L 149.036821 441.040404 
L 148.743502 441.171596 
L 148.47798 441.297353 
L 148.22365 441.418305 
L 147.965552 441.543705 
L 147.715197 441.660372 
L 147.47476 441.770983 
L 147.233908 441.881102 
L 147.008276 441.989216 
L 146.775153 442.093569 
L 146.564088 442.197299 
L 146.352305 442.297903 
L 146.147908 442.398122 
L 145.950133 442.502187 
L 145.755285 442.600388 
L 145.559169 442.700702 
L 145.375316 442.78952 
L 145.19226 442.891356 
L 145.019511 442.979294 
L 144.848986 443.068774 
L 144.66913 443.152838 
L 144.50662 443.245288 
L 144.345404 443.329193 
L 144.185105 443.407689 
L 144.021862 443.494771 
L 143.853845 443.574779 
L 143.698339 443.652431 
L 143.546003 443.732513 
L 143.399088 443.821769 
L 143.24941 443.906625 
L 143.102171 443.988586 
L 142.972608 444.06887 
L 142.837837 444.156704 
L 142.708349 444.240384 
L 142.585935 444.325419 
L 142.4547 444.406211 
L 142.339741 444.49804 
L 142.220885 444.581095 
L 142.092786 444.670405 
" style="fill:none;stroke:#1f77b4;stroke-linecap:square;stroke-width:1.5;"/>
   </g>
   <g id="line2d_15">
    <path clip-path="url(#p31f3b22e60)" d="M 972 60.48 
L 971.953306 60.48 
L 971.942864 60.483231 
L 971.924107 60.483245 
L 971.884529 60.483259 
L 971.827975 60.483271 
L 971.750004 60.486567 
L 971.63148 60.486588 
L 971.54122 60.489914 
L 971.409838 60.493258 
L 971.21762 60.499944 
L 971.03424 60.499997 
L 970.932491 60.506736 
L 970.855611 60.51016 
L 970.799438 60.510243 
L 970.714698 60.513688 
L 970.65517 60.527286 
L 970.61926 60.534182 
L 970.558594 60.534306 
L 970.530808 60.534451 
L 970.487025 60.541415 
L 970.463298 60.558686 
L 970.420887 60.569175 
L 970.394095 60.569396 
L 970.355302 60.573071 
L 970.327636 60.580209 
L 970.28139 60.580463 
L 970.252916 60.58071 
L 970.21712 60.580956 
L 970.204732 60.591692 
L 970.18964 60.595465 
L 970.171922 60.595762 
L 970.137294 60.596054 
L 970.125839 60.596319 
L 970.097727 60.600133 
L 970.047404 60.600454 
L 969.988902 60.600764 
L 969.942038 60.608193 
L 969.907587 60.612126 
L 969.887784 60.612463 
L 969.859837 60.612787 
L 969.823364 60.613144 
L 969.786819 60.613516 
L 969.729221 60.613909 
L 969.673567 60.614274 
L 969.602054 60.614643 
L 969.550081 60.615 
L 969.531532 60.618985 
L 969.512378 60.619377 
L 969.49079 60.623439 
L 969.463409 60.631212 
L 969.438303 60.631608 
L 969.396967 60.632037 
L 969.32518 60.639904 
L 969.302096 60.640353 
L 969.281091 60.644574 
L 969.242588 60.656299 
L 969.220856 60.668195 
L 969.201653 60.66876 
L 969.177023 60.669259 
L 969.151754 60.669852 
L 969.128962 60.670443 
L 969.10908 60.671003 
L 969.083552 60.683139 
L 969.039569 60.691471 
L 968.970759 60.695975 
L 968.943793 60.696647 
L 968.919905 60.697362 
L 968.891463 60.698012 
L 968.857196 60.70263 
L 968.823821 60.715176 
L 968.788364 60.715903 
L 968.730383 60.71668 
L 968.706198 60.717472 
L 968.675629 60.726261 
L 968.629029 60.731084 
L 968.569277 60.735989 
L 968.540104 60.740982 
L 968.478407 60.746106 
L 968.447508 60.755363 
L 968.413274 60.756662 
L 968.366837 60.761961 
L 968.311055 60.771468 
L 968.282201 60.772878 
L 968.252234 60.77829 
L 968.209395 60.77947 
L 968.164439 60.793399 
L 968.120506 60.80326 
L 968.067453 60.804845 
L 967.979009 60.819257 
L 967.923468 60.850863 
L 967.881469 60.852869 
L 967.846961 60.863546 
L 967.801354 60.874201 
L 967.76085 60.88523 
L 967.693122 60.905315 
L 967.64681 60.908169 
L 967.596103 60.911383 
L 967.556679 60.923612 
L 967.510815 60.927185 
L 967.457605 60.939843 
" style="fill:none;stroke:#ff7f0e;stroke-linecap:square;stroke-width:1.5;"/>
   </g>
   <g id="line2d_16">
    <path clip-path="url(#p31f3b22e60)" d="M 972 60.48 
L 971.973193 60.483421 
L 971.968745 60.485155 
L 971.958834 60.486902 
L 971.937928 60.486932 
L 971.906959 60.486958 
L 971.866878 60.48873 
L 971.802066 60.488757 
L 971.754381 60.492299 
L 971.682754 60.494095 
L 971.580066 60.497667 
L 971.483175 60.497712 
L 971.424878 60.501306 
L 971.385386 60.501361 
L 971.353452 60.503199 
L 971.305243 60.506834 
L 971.273927 60.514072 
L 971.253845 60.519546 
L 971.221886 60.519629 
L 971.206042 60.519724 
L 971.181644 60.523439 
L 971.167745 60.53442 
L 971.144127 60.539997 
L 971.127591 60.541954 
L 971.10696 60.545762 
L 971.091026 60.549584 
L 971.066501 60.549755 
L 971.0502 60.549914 
L 971.031176 60.550082 
L 971.020695 60.553943 
L 971.011423 60.55596 
L 970.999404 60.556145 
L 970.979712 60.556332 
L 970.97236 60.5565 
L 970.958852 60.558546 
L 970.930795 60.558743 
L 970.90238 60.558933 
L 970.873673 60.562905 
L 970.855224 60.565022 
L 970.847158 60.567143 
L 970.833558 60.567375 
L 970.812997 60.567604 
L 970.795073 60.567839 
L 970.765827 60.569993 
L 970.735344 60.57024 
L 970.696108 60.570481 
L 970.665859 60.570712 
L 970.656114 60.572865 
L 970.64608 60.573107 
L 970.634744 60.573322 
L 970.623165 60.577451 
L 970.609969 60.57768 
L 970.588087 60.57794 
L 970.545721 60.580169 
L 970.531841 60.58045 
L 970.522025 60.582704 
L 970.500373 60.588943 
L 970.488836 60.593246 
L 970.477154 60.593563 
L 970.464179 60.59387 
L 970.449361 60.594212 
L 970.435718 60.594551 
L 970.42343 60.596918 
L 970.411067 60.603361 
L 970.387668 60.607813 
L 970.353035 60.610267 
L 970.338345 60.610679 
L 970.325405 60.611105 
L 970.307273 60.611491 
L 970.290786 60.61602 
L 970.278426 60.622656 
L 970.25808 60.623105 
L 970.227469 60.623565 
L 970.212899 60.624041 
L 970.198646 60.628674 
L 970.172464 60.629143 
L 970.144165 60.631707 
L 970.125614 60.634294 
L 970.093382 60.636945 
L 970.077648 60.641757 
L 970.059957 60.646632 
L 970.030453 60.649349 
L 969.997881 60.652133 
L 969.977554 60.652758 
L 969.959963 60.653384 
L 969.938863 60.653981 
L 969.91385 60.661203 
L 969.886193 60.666309 
L 969.856887 60.667071 
L 969.80873 60.674533 
L 969.77836 60.690924 
L 969.756731 60.6919 
L 969.738898 60.697416 
L 969.717009 60.702891 
L 969.694178 60.708538 
L 969.659412 60.718799 
L 969.63401 60.720048 
L 969.609841 60.721462 
L 969.587643 60.727488 
L 969.563319 60.729087 
L 969.538068 60.735385 
" style="fill:none;stroke:#2ca02c;stroke-linecap:square;stroke-width:1.5;"/>
   </g>
   <g id="line2d_17">
    <path clip-path="url(#p31f3b22e60)" d="M 972 60.48 
L 950.040504 72.844295 
L 929.315686 84.452552 
L 909.963685 95.150274 
L 891.876437 105.079727 
L 874.961059 114.309091 
L 859.128142 122.889427 
L 844.244369 130.970941 
L 830.350798 138.512588 
L 817.101439 145.508895 
L 804.428358 152.122171 
L 792.468233 158.123575 
L 781.065641 163.570419 
L 770.062229 168.589417 
L 759.472115 173.357464 
L 749.204189 177.849859 
L 739.329121 182.193521 
L 729.723418 186.274048 
L 720.290114 190.049296 
L 711.130239 193.596234 
L 702.274306 197.079827 
L 693.623179 200.416728 
L 685.178173 203.644224 
L 677.034321 206.785712 
L 668.863724 209.877466 
L 660.866613 212.914647 
L 653.042306 215.904378 
L 645.319041 218.710849 
L 637.736276 221.426825 
L 630.387826 224.190413 
L 623.175935 226.894029 
L 616.131002 229.437873 
L 609.26849 232.019565 
L 602.465562 234.471037 
L 595.864437 236.978322 
L 589.25648 239.451755 
L 582.750826 241.940779 
L 576.34979 244.440558 
L 570.104898 246.886461 
L 564.071778 249.235329 
L 558.008777 251.559798 
L 552.052547 253.928662 
L 546.254036 256.294948 
L 540.531717 258.646864 
L 534.934908 260.929632 
L 529.38765 263.151762 
L 523.941216 265.361671 
L 518.608909 267.51038 
L 513.408524 269.618765 
L 508.222712 271.708456 
L 503.234086 273.742515 
L 498.254288 275.763474 
L 493.441583 277.743839 
L 488.621823 279.695427 
L 483.868621 281.632259 
L 479.191913 283.565506 
L 474.615228 285.42703 
L 470.097316 287.221044 
L 465.594802 288.958937 
L 461.208695 290.614243 
L 456.919061 292.244097 
L 452.670103 293.829548 
L 448.452999 295.40617 
L 444.290251 297.007733 
L 440.200844 298.586871 
L 436.206809 300.142002 
L 432.288198 301.673888 
L 428.370257 303.15637 
L 424.51291 304.647753 
L 420.744394 306.124572 
L 417.027236 307.555773 
L 413.333811 308.992117 
L 409.654656 310.406788 
L 406.051729 311.804563 
L 402.54141 313.158903 
L 399.050444 314.495709 
L 395.60711 315.853033 
L 392.232448 317.187617 
L 388.940688 318.514223 
L 385.632029 319.848077 
L 382.389002 321.173019 
L 379.212697 322.476066 
L 376.048943 323.737614 
L 372.967503 324.99281 
L 369.89897 326.20249 
L 366.881728 327.39733 
L 363.893685 328.614559 
L 360.940739 329.797771 
L 358.053446 330.955565 
L 355.201157 332.143869 
L 352.388107 333.303976 
L 349.58032 334.49172 
L 346.857996 335.667095 
L 344.149094 336.815537 
L 341.415226 337.998839 
L 338.737399 339.168319 
L 336.06727 340.337879 
L 333.420457 341.540005 
L 330.818449 342.732675 
L 328.253344 343.92565 
L 325.70252 345.10442 
" style="fill:none;stroke:#d62728;stroke-linecap:square;stroke-width:1.5;"/>
   </g>
   <g id="line2d_18">
    <path clip-path="url(#p31f3b22e60)" d="M 972 60.48 
L 957.950284 68.561748 
L 944.488356 76.295865 
L 931.73061 83.551379 
L 919.627285 90.495585 
L 908.227624 97.001084 
L 897.470648 103.21381 
L 887.293804 109.224616 
L 877.691775 114.876732 
L 868.419083 120.222553 
L 859.46519 125.330519 
L 850.958732 129.998529 
L 842.831863 134.289638 
L 834.888608 138.276832 
L 827.18176 142.07244 
L 819.627482 145.705135 
L 812.325217 149.243969 
L 805.185569 152.578063 
L 798.063231 155.704126 
L 791.10358 158.686914 
L 784.333224 161.603896 
L 777.607829 164.434908 
L 771.030675 167.193738 
L 764.647985 169.871911 
L 758.148914 172.505044 
L 751.715686 175.135341 
L 745.341931 177.741245 
L 739.000754 180.222736 
L 732.704596 182.637969 
L 726.565997 185.105458 
L 720.501036 187.514483 
L 714.563436 189.781417 
L 708.717215 192.117944 
L 702.851421 194.351202 
L 697.128995 196.638058 
L 691.325926 198.917274 
L 685.607733 201.220483 
L 679.917239 203.548257 
L 674.33683 205.827105 
L 668.912622 208.023112 
L 663.419385 210.191369 
L 657.990227 212.4325 
L 652.640715 214.684074 
L 647.321086 216.933438 
L 642.07983 219.133882 
L 636.870633 221.302107 
L 631.715818 223.461435 
L 626.631228 225.582714 
L 621.643179 227.665046 
L 616.633933 229.726717 
L 611.774039 231.752995 
L 606.908654 233.797431 
L 602.170451 235.782984 
L 597.414522 237.747065 
L 592.678384 239.710214 
L 587.997633 241.678718 
L 583.376161 243.573841 
L 578.771327 245.409141 
L 574.171817 247.188352 
L 569.650647 248.899534 
L 565.208982 250.586369 
L 560.794819 252.221675 
L 556.392147 253.863646 
L 552.004097 255.538386 
L 547.6975 257.191882 
L 543.454453 258.839328 
L 539.285268 260.466819 
L 535.068533 262.067509 
L 530.886702 263.681793 
L 526.773493 265.276517 
L 522.708177 266.839829 
L 518.644551 268.407425 
L 514.565623 269.96229 
L 510.552077 271.507 
L 506.624833 272.999408 
L 502.694221 274.489215 
L 498.802701 276.00097 
L 494.966358 277.48595 
L 491.20634 278.954365 
L 487.411082 280.449605 
L 483.673183 281.932907 
L 479.992731 283.405269 
L 476.3346 284.826163 
L 472.755246 286.250515 
L 469.187065 287.625539 
L 465.653249 288.997833 
L 462.136969 290.397659 
L 458.643031 291.759626 
L 455.226935 293.098787 
L 451.805713 294.466342 
L 448.435965 295.809287 
L 445.054326 297.187602 
L 441.765947 298.559017 
L 438.48092 299.897216 
L 435.145679 301.284439 
L 431.872217 302.654375 
L 428.586455 304.032332 
L 425.339653 305.436408 
L 422.13527 306.832581 
L 418.948282 308.221346 
L 415.787706 309.613951 
" style="fill:none;stroke:#9467bd;stroke-linecap:square;stroke-width:1.5;"/>
   </g>
   <g id="line2d_19">
    <path clip-path="url(#p31f3b22e60)" d="M 972 60.48 
L 962.905603 66.232031 
L 954.06334 71.74739 
L 945.439222 76.999128 
L 937.033552 81.988571 
L 928.926318 86.672622 
L 921.002115 91.120569 
L 913.304492 95.431083 
L 905.966773 99.485061 
L 898.723532 103.36859 
L 891.687019 107.142434 
L 884.823057 110.633418 
L 878.132641 113.890953 
L 871.526508 116.981985 
L 865.055099 119.929328 
L 858.621999 122.753375 
L 852.328132 125.550041 
L 846.162965 128.2345 
L 839.942575 130.714182 
L 833.835339 133.123992 
L 827.83388 135.464785 
L 821.852457 137.743303 
L 815.944877 139.991044 
L 810.142644 142.214203 
L 804.262761 144.41037 
L 798.440965 146.624113 
L 792.678188 148.83039 
L 786.937956 150.911001 
L 781.220405 152.961858 
L 775.595798 155.028139 
L 770.038768 157.050571 
L 764.524211 159.008174 
L 759.076358 161.010875 
L 753.576905 162.931545 
L 748.174045 164.916489 
L 742.750604 166.876271 
L 737.368673 168.862628 
L 731.996608 170.920156 
L 726.70371 172.931397 
L 721.528193 174.854538 
L 716.248746 176.777862 
L 711.014297 178.731663 
L 705.854214 180.692165 
L 700.732249 182.668909 
L 695.655321 184.591651 
L 690.595465 186.517459 
L 685.584927 188.434417 
L 680.633062 190.303271 
L 675.736892 192.182201 
L 670.812625 194.034665 
L 666.013347 195.852598 
L 661.197473 197.690815 
L 656.459132 199.484543 
L 651.715673 201.26411 
L 646.986323 203.04988 
L 642.297742 204.842602 
L 637.665353 206.572849 
L 633.062299 208.23486 
L 628.433557 209.87747 
L 623.881534 211.473712 
L 619.407587 213.061309 
L 614.931433 214.600727 
L 610.434731 216.115559 
L 605.973449 217.663434 
L 601.559659 219.194477 
L 597.214889 220.716482 
L 592.926741 222.219364 
L 588.578055 223.689008 
L 584.27567 225.192572 
L 580.016867 226.667772 
L 575.840859 228.115401 
L 571.629639 229.586395 
L 567.39983 231.023246 
L 563.232369 232.450251 
L 559.12959 233.829729 
L 555.030734 235.191441 
L 550.9482 236.58796 
L 546.919973 237.975918 
L 542.966856 239.337696 
L 538.9522 240.716956 
L 534.999032 242.077572 
L 531.108439 243.441326 
L 527.234323 244.76296 
L 523.409592 246.070861 
L 519.587534 247.32695 
L 515.798071 248.601158 
L 512.012527 249.892123 
L 508.251282 251.163838 
L 504.550409 252.402049 
L 500.848759 253.651187 
L 497.194199 254.895097 
L 493.530405 256.149653 
L 489.939323 257.414006 
L 486.347794 258.653024 
L 482.732985 259.91724 
L 479.163892 261.182767 
L 475.589756 262.428235 
L 472.044888 263.708439 
L 468.522203 264.988459 
L 465.042465 266.265385 
L 461.561473 267.531871 
" style="fill:none;stroke:#8c564b;stroke-linecap:square;stroke-width:1.5;"/>
   </g>
   <g id="line2d_20">
    <path clip-path="url(#p31f3b22e60)" d="M 972 60.48 
L 961.940862 66.445758 
L 952.13222 72.173865 
L 942.813056 77.631382 
L 933.979559 82.846165 
L 925.561405 87.817435 
L 917.62865 92.64556 
L 910.070721 97.321455 
L 902.935905 101.729781 
L 896.027013 105.979652 
L 889.381931 110.073818 
L 882.999504 113.838375 
L 876.878823 117.311838 
L 870.906434 120.549936 
L 865.064271 123.665133 
L 859.306728 126.642186 
L 853.697979 129.562713 
L 848.209872 132.322239 
L 842.698291 134.909756 
L 837.292642 137.419707 
L 831.995033 139.843114 
L 826.756642 142.230271 
L 821.541441 144.540951 
L 816.466204 146.822059 
L 811.296076 149.07068 
L 806.166866 151.302248 
L 801.074194 153.512824 
L 795.951575 155.641783 
L 790.830651 157.731686 
L 785.801492 159.859947 
L 780.823152 161.971179 
L 775.942226 163.955763 
L 771.112145 165.988947 
L 766.227277 167.944237 
L 761.442876 169.956012 
L 756.595462 171.972806 
L 751.772309 174.01977 
L 746.984628 176.092311 
L 742.230369 178.133726 
L 737.57872 180.102792 
L 732.885092 182.05732 
L 728.201129 184.092205 
L 723.564931 186.145327 
L 718.944166 188.202189 
L 714.335989 190.209804 
L 709.731021 192.181093 
L 705.164233 194.153018 
L 700.620067 196.104137 
L 696.185433 198.032126 
L 691.707785 199.953678 
L 687.341474 201.846935 
L 682.951439 203.758778 
L 678.659892 205.639781 
L 674.3281 207.495951 
L 670.013231 209.351075 
L 665.729009 211.203435 
L 661.465404 213.011797 
L 657.197397 214.760765 
L 652.913666 216.47302 
L 648.688037 218.110802 
L 644.533669 219.726977 
L 640.385122 221.29961 
L 636.217257 222.884545 
L 632.072509 224.492218 
L 627.977083 226.074624 
L 623.935955 227.646209 
L 619.942642 229.212248 
L 615.877491 230.751994 
L 611.84199 232.308673 
L 607.822788 233.855005 
L 603.870057 235.382488 
L 599.873168 236.917821 
L 595.857474 238.446208 
L 591.89958 239.960471 
L 588.006009 241.441868 
L 584.095165 242.916631 
L 580.196382 244.420145 
L 576.342374 245.916886 
L 572.55731 247.380866 
L 568.71903 248.889458 
L 564.914791 250.378757 
L 561.161136 251.858446 
L 557.430041 253.285853 
L 553.748787 254.718545 
L 550.092155 256.110108 
L 546.44694 257.513958 
L 542.81743 258.92562 
L 539.190261 260.307118 
L 535.608962 261.667673 
L 532.037308 263.059476 
L 528.491536 264.430735 
L 524.938648 265.830399 
L 521.461761 267.226238 
L 517.971113 268.601486 
L 514.441686 270.017802 
L 510.938388 271.438101 
L 507.435817 272.848925 
L 503.956753 274.302324 
L 500.493983 275.732172 
L 497.059017 277.163316 
L 493.629697 278.602455 
" style="fill:none;stroke:#e377c2;stroke-linecap:square;stroke-width:1.5;"/>
   </g>
   <g id="line2d_21">
    <path clip-path="url(#p31f3b22e60)" d="M 972 60.48 
L 963.611909 65.534344 
L 955.423814 70.416552 
L 947.623479 75.057142 
L 940.207375 79.542616 
L 933.160315 83.808708 
L 926.477393 87.956252 
L 920.130683 91.969911 
L 914.10617 95.812141 
L 908.262203 99.513458 
L 902.612618 103.066915 
L 897.197473 106.386069 
L 891.989362 109.441786 
L 886.910976 112.302833 
L 881.969553 115.06726 
L 877.068559 117.707921 
L 872.272814 120.297995 
L 867.576274 122.75415 
L 862.860247 125.076532 
L 858.24357 127.302016 
L 853.684842 129.476996 
L 849.143823 131.613289 
L 844.648659 133.703493 
L 840.270248 135.760556 
L 835.793001 137.808061 
L 831.321432 139.834103 
L 826.875558 141.847315 
L 822.395687 143.763951 
L 817.924485 145.662499 
L 813.498749 147.609079 
L 809.125997 149.530958 
L 804.832026 151.335479 
L 800.561403 153.199988 
L 796.252924 155.008148 
L 792.012238 156.854369 
L 787.716952 158.704235 
L 783.42539 160.574627 
L 779.140387 162.487426 
L 774.881609 164.360143 
L 770.725477 166.164881 
L 766.490258 167.971484 
L 762.285425 169.852746 
L 758.087344 171.757207 
L 753.90819 173.649779 
L 749.757233 175.511187 
L 745.576144 177.338016 
L 741.423069 179.180466 
L 737.278065 181.015204 
L 733.231506 182.833497 
L 729.131603 184.640645 
L 725.13975 186.43406 
L 721.105829 188.233656 
L 717.161948 190.002464 
L 713.147812 191.767141 
L 709.125725 193.525186 
L 705.135929 195.294562 
L 701.171607 197.020829 
L 697.18775 198.678928 
L 693.193873 200.307115 
L 689.252384 201.87875 
L 685.367433 203.410913 
L 681.477391 204.920215 
L 677.568697 206.428142 
L 673.682687 207.962819 
L 669.804875 209.479359 
L 665.983455 210.985305 
L 662.192133 212.485073 
L 658.319401 213.968472 
L 654.476002 215.465888 
L 650.638998 216.956496 
L 646.864268 218.427548 
L 643.058589 219.913528 
L 639.215509 221.391916 
L 635.406917 222.86309 
L 631.629012 224.298258 
L 627.838221 225.735871 
L 624.062138 227.198798 
L 620.320386 228.650262 
L 616.632072 230.087459 
L 612.89312 231.555212 
L 609.175988 233.001127 
L 605.504632 234.449696 
L 601.857485 235.846896 
L 598.256936 237.252878 
L 594.666847 238.613378 
L 591.086351 239.9884 
L 587.504318 241.375679 
L 583.935802 242.73508 
L 580.401379 244.06308 
L 576.869455 245.423887 
L 573.353683 246.762081 
L 569.824101 248.136574 
L 566.37252 249.498286 
L 562.898813 250.845937 
L 559.372444 252.229637 
L 555.86601 253.624289 
L 552.353022 255.015299 
L 548.858449 256.4454 
L 545.371484 257.8579 
L 541.904465 259.270816 
L 538.446528 260.690566 
" style="fill:none;stroke:#7f7f7f;stroke-linecap:square;stroke-width:1.5;"/>
   </g>
   <g id="line2d_22">
    <path clip-path="url(#p31f3b22e60)" d="M 972 60.48 
L 964.851207 64.840474 
L 957.841045 69.060293 
L 951.161031 73.126718 
L 944.814442 77.02556 
L 938.75385 80.796972 
L 933.00636 84.440555 
L 927.542558 87.962066 
L 922.358064 91.34319 
L 917.360179 94.617145 
L 912.542719 97.78448 
L 907.898162 100.735027 
L 903.428875 103.475801 
L 899.101839 106.054979 
L 894.853461 108.533061 
L 890.635322 110.906944 
L 886.526548 113.238161 
L 882.475645 115.436476 
L 878.428308 117.510055 
L 874.431162 119.507932 
L 870.507255 121.462755 
L 866.586191 123.391654 
L 862.713548 125.272769 
L 858.933239 127.125427 
L 855.045354 128.969458 
L 851.163628 130.803027 
L 847.281817 132.630468 
L 843.372746 134.371887 
L 839.460463 136.092815 
L 835.583567 137.848246 
L 831.741826 139.612798 
L 827.983039 141.266478 
L 824.225816 142.961614 
L 820.440086 144.614896 
L 816.705973 146.303226 
L 812.917003 148.007397 
L 809.118307 149.725604 
L 805.309162 151.481129 
L 801.522492 153.215621 
L 797.834914 154.887299 
L 794.091998 156.544266 
L 790.3463 158.281066 
L 786.607336 160.04176 
L 782.878931 161.821448 
L 779.154733 163.559887 
L 775.394127 165.275087 
L 771.65468 167.005244 
L 767.922896 168.723506 
L 764.250698 170.413176 
L 760.560285 172.121075 
L 756.950653 173.803762 
L 753.286318 175.498209 
L 749.705575 177.168087 
L 746.047184 178.813851 
L 742.382492 180.475304 
L 738.738883 182.138695 
L 735.105545 183.776822 
L 731.449137 185.355187 
L 727.785968 186.897892 
L 724.149114 188.383986 
L 720.558191 189.841362 
L 716.96887 191.279394 
L 713.337591 192.714218 
L 709.728458 194.175661 
L 706.145192 195.619471 
L 702.595561 197.051058 
L 699.064178 198.478262 
L 695.445297 199.889504 
L 691.84313 201.312733 
L 688.250528 202.733559 
L 684.692121 204.14087 
L 681.105882 205.559533 
L 677.477628 206.968267 
L 673.884351 208.366162 
L 670.333314 209.744526 
L 666.761813 211.135159 
L 663.162855 212.546671 
L 659.617496 213.953573 
L 656.085762 215.333224 
L 652.51936 216.746553 
L 648.979569 218.149961 
L 645.460444 219.558107 
L 641.965321 220.921907 
L 638.502564 222.277204 
L 635.043365 223.600406 
L 631.601431 224.938418 
L 628.155973 226.290491 
L 624.705878 227.609492 
L 621.282385 228.903994 
L 617.865162 230.230991 
L 614.45329 231.541423 
L 611.024852 232.88118 
L 607.667971 234.210875 
L 604.280562 235.530946 
L 600.856647 236.880618 
L 597.440279 238.239662 
L 593.996594 239.608904 
L 590.576496 241.020556 
L 587.144518 242.407259 
L 583.732582 243.794048 
L 580.32568 245.191502 
" style="fill:none;stroke:#bcbd22;stroke-linecap:square;stroke-width:1.5;"/>
   </g>
   <g id="line2d_23">
    <path clip-path="url(#p31f3b22e60)" d="M 972 60.48 
L 969.492385 61.297729 
L 967.030705 62.131823 
L 964.775303 62.980122 
L 962.711041 63.823196 
L 960.827128 64.680826 
L 959.168934 65.587873 
L 957.675896 66.506934 
L 956.289492 67.396529 
L 955.027977 68.296109 
L 953.834546 69.155263 
L 952.756191 69.987133 
L 951.803823 70.71607 
L 950.898767 71.381171 
L 950.025646 72.050262 
L 949.219356 72.680768 
L 948.431239 73.289456 
L 947.669549 73.85425 
L 946.931133 74.404828 
L 946.226641 74.952017 
L 945.551224 75.47844 
L 944.92172 76.019091 
L 944.29601 76.530667 
L 943.693192 77.043691 
L 943.072767 77.555506 
L 942.426816 78.061659 
L 941.764449 78.543203 
L 941.068463 79.01386 
L 940.360922 79.476048 
L 939.682123 79.990608 
L 939.009136 80.525727 
L 938.373096 80.993892 
L 937.761313 81.477922 
L 937.13738 81.961414 
L 936.527935 82.443718 
L 935.875635 82.962147 
L 935.197082 83.478942 
L 934.528107 84.002031 
L 933.882778 84.53318 
L 933.276245 85.056976 
L 932.69069 85.564105 
L 932.088247 86.12732 
L 931.459474 86.731578 
L 930.83161 87.335206 
L 930.169583 87.958271 
L 929.497662 88.53627 
L 928.830053 89.147853 
L 928.16064 89.77964 
L 927.511681 90.391762 
L 926.882623 91.023477 
L 926.263523 91.687219 
L 925.633464 92.348429 
L 925.03614 93.014654 
L 924.405978 93.707957 
L 923.762444 94.380108 
L 923.119255 95.083761 
L 922.453297 95.776458 
L 921.765721 96.475823 
L 921.068801 97.138783 
L 920.385791 97.751595 
L 919.721704 98.352768 
L 919.072618 98.974791 
L 918.421008 99.630331 
L 917.763606 100.302352 
L 917.106154 100.972498 
L 916.454722 101.647699 
L 915.816163 102.33295 
L 915.14393 103.016739 
L 914.448435 103.715411 
L 913.758302 104.436426 
L 913.032884 105.14103 
L 912.306719 105.864571 
L 911.560646 106.622943 
L 910.803934 107.380054 
L 910.075075 108.118086 
L 909.3199 108.903461 
L 908.563778 109.698923 
L 907.824999 110.499492 
L 907.090354 111.326534 
L 906.352617 112.18393 
L 905.596764 113.062159 
L 904.849201 113.962067 
L 904.126418 114.831336 
L 903.423377 115.726422 
L 902.738348 116.636581 
L 902.052196 117.548283 
L 901.376694 118.462758 
L 900.695667 119.356206 
L 899.997984 120.26734 
L 899.31331 121.230075 
L 898.618658 122.163092 
L 897.919952 123.148818 
L 897.256167 124.140602 
L 896.56758 125.131725 
L 895.860352 126.159934 
L 895.142258 127.198467 
L 894.409618 128.286865 
L 893.671514 129.424949 
L 892.921814 130.5414 
L 892.155977 131.67925 
L 891.407264 132.85045 
" style="fill:none;stroke:#17becf;stroke-linecap:square;stroke-width:1.5;"/>
   </g>
   <g id="patch_3">
    <path d="M 135 448.56 
L 135 60.48 
" style="fill:none;stroke:#000000;stroke-linecap:square;stroke-linejoin:miter;stroke-width:0.8;"/>
   </g>
   <g id="patch_4">
    <path d="M 972 448.56 
L 972 60.48 
" style="fill:none;stroke:#000000;stroke-linecap:square;stroke-linejoin:miter;stroke-width:0.8;"/>
   </g>
   <g id="patch_5">
    <path d="M 135 448.56 
L 972 448.56 
" style="fill:none;stroke:#000000;stroke-linecap:square;stroke-linejoin:miter;stroke-width:0.8;"/>
   </g>
   <g id="patch_6">
    <path d="M 135 60.48 
L 972 60.48 
" style="fill:none;stroke:#000000;stroke-linecap:square;stroke-linejoin:miter;stroke-width:0.8;"/>
   </g>
   <g id="legend_1">
    <g id="patch_7">
     <path d="M 147.6 339.08625 
L 256.730625 339.08625 
Q 260.330625 339.08625 260.330625 335.48625 
L 260.330625 73.08 
Q 260.330625 69.48 256.730625 69.48 
L 147.6 69.48 
Q 144 69.48 144 73.08 
L 144 335.48625 
Q 144 339.08625 147.6 339.08625 
z
" style="fill:#ffffff;opacity:0.8;stroke:#cccccc;stroke-linejoin:miter;"/>
    </g>
    <g id="line2d_24">
     <path d="M 151.2 84.057188 
L 187.2 84.057188 
" style="fill:none;stroke:#1f77b4;stroke-linecap:square;stroke-width:1.5;"/>
    </g>
    <g id="line2d_25"/>
    <g id="text_15">
     <!-- 0.001 -->
     <g transform="translate(201.6 90.357188)scale(0.18 -0.18)">
      <use xlink:href="#DejaVuSans-30"/>
      <use x="63.623047" xlink:href="#DejaVuSans-2e"/>
      <use x="95.410156" xlink:href="#DejaVuSans-30"/>
      <use x="159.033203" xlink:href="#DejaVuSans-30"/>
      <use x="222.65625" xlink:href="#DejaVuSans-31"/>
     </g>
    </g>
    <g id="line2d_26">
     <path d="M 151.2 110.477812 
L 187.2 110.477812 
" style="fill:none;stroke:#ff7f0e;stroke-linecap:square;stroke-width:1.5;"/>
    </g>
    <g id="line2d_27"/>
    <g id="text_16">
     <!-- 0.011 -->
     <g transform="translate(201.6 116.777812)scale(0.18 -0.18)">
      <use xlink:href="#DejaVuSans-30"/>
      <use x="63.623047" xlink:href="#DejaVuSans-2e"/>
      <use x="95.410156" xlink:href="#DejaVuSans-30"/>
      <use x="159.033203" xlink:href="#DejaVuSans-31"/>
      <use x="222.65625" xlink:href="#DejaVuSans-31"/>
     </g>
    </g>
    <g id="line2d_28">
     <path d="M 151.2 136.898438 
L 187.2 136.898438 
" style="fill:none;stroke:#2ca02c;stroke-linecap:square;stroke-width:1.5;"/>
    </g>
    <g id="line2d_29"/>
    <g id="text_17">
     <!-- 0.021 -->
     <g transform="translate(201.6 143.198438)scale(0.18 -0.18)">
      <use xlink:href="#DejaVuSans-30"/>
      <use x="63.623047" xlink:href="#DejaVuSans-2e"/>
      <use x="95.410156" xlink:href="#DejaVuSans-30"/>
      <use x="159.033203" xlink:href="#DejaVuSans-32"/>
      <use x="222.65625" xlink:href="#DejaVuSans-31"/>
     </g>
    </g>
    <g id="line2d_30">
     <path d="M 151.2 163.319062 
L 187.2 163.319062 
" style="fill:none;stroke:#d62728;stroke-linecap:square;stroke-width:1.5;"/>
    </g>
    <g id="line2d_31"/>
    <g id="text_18">
     <!-- 0.031 -->
     <g transform="translate(201.6 169.619062)scale(0.18 -0.18)">
      <defs>
       <path d="M 2597 2516 
Q 3050 2419 3304 2112 
Q 3559 1806 3559 1356 
Q 3559 666 3084 287 
Q 2609 -91 1734 -91 
Q 1441 -91 1130 -33 
Q 819 25 488 141 
L 488 750 
Q 750 597 1062 519 
Q 1375 441 1716 441 
Q 2309 441 2620 675 
Q 2931 909 2931 1356 
Q 2931 1769 2642 2001 
Q 2353 2234 1838 2234 
L 1294 2234 
L 1294 2753 
L 1863 2753 
Q 2328 2753 2575 2939 
Q 2822 3125 2822 3475 
Q 2822 3834 2567 4026 
Q 2313 4219 1838 4219 
Q 1578 4219 1281 4162 
Q 984 4106 628 3988 
L 628 4550 
Q 988 4650 1302 4700 
Q 1616 4750 1894 4750 
Q 2613 4750 3031 4423 
Q 3450 4097 3450 3541 
Q 3450 3153 3228 2886 
Q 3006 2619 2597 2516 
z
" id="DejaVuSans-33" transform="scale(0.015625)"/>
      </defs>
      <use xlink:href="#DejaVuSans-30"/>
      <use x="63.623047" xlink:href="#DejaVuSans-2e"/>
      <use x="95.410156" xlink:href="#DejaVuSans-30"/>
      <use x="159.033203" xlink:href="#DejaVuSans-33"/>
      <use x="222.65625" xlink:href="#DejaVuSans-31"/>
     </g>
    </g>
    <g id="line2d_32">
     <path d="M 151.2 189.739688 
L 187.2 189.739688 
" style="fill:none;stroke:#9467bd;stroke-linecap:square;stroke-width:1.5;"/>
    </g>
    <g id="line2d_33"/>
    <g id="text_19">
     <!-- 0.041 -->
     <g transform="translate(201.6 196.039688)scale(0.18 -0.18)">
      <use xlink:href="#DejaVuSans-30"/>
      <use x="63.623047" xlink:href="#DejaVuSans-2e"/>
      <use x="95.410156" xlink:href="#DejaVuSans-30"/>
      <use x="159.033203" xlink:href="#DejaVuSans-34"/>
      <use x="222.65625" xlink:href="#DejaVuSans-31"/>
     </g>
    </g>
    <g id="line2d_34">
     <path d="M 151.2 216.160312 
L 187.2 216.160312 
" style="fill:none;stroke:#8c564b;stroke-linecap:square;stroke-width:1.5;"/>
    </g>
    <g id="line2d_35"/>
    <g id="text_20">
     <!-- 0.051 -->
     <g transform="translate(201.6 222.460312)scale(0.18 -0.18)">
      <defs>
       <path d="M 691 4666 
L 3169 4666 
L 3169 4134 
L 1269 4134 
L 1269 2991 
Q 1406 3038 1543 3061 
Q 1681 3084 1819 3084 
Q 2600 3084 3056 2656 
Q 3513 2228 3513 1497 
Q 3513 744 3044 326 
Q 2575 -91 1722 -91 
Q 1428 -91 1123 -41 
Q 819 9 494 109 
L 494 744 
Q 775 591 1075 516 
Q 1375 441 1709 441 
Q 2250 441 2565 725 
Q 2881 1009 2881 1497 
Q 2881 1984 2565 2268 
Q 2250 2553 1709 2553 
Q 1456 2553 1204 2497 
Q 953 2441 691 2322 
L 691 4666 
z
" id="DejaVuSans-35" transform="scale(0.015625)"/>
      </defs>
      <use xlink:href="#DejaVuSans-30"/>
      <use x="63.623047" xlink:href="#DejaVuSans-2e"/>
      <use x="95.410156" xlink:href="#DejaVuSans-30"/>
      <use x="159.033203" xlink:href="#DejaVuSans-35"/>
      <use x="222.65625" xlink:href="#DejaVuSans-31"/>
     </g>
    </g>
    <g id="line2d_36">
     <path d="M 151.2 242.580937 
L 187.2 242.580937 
" style="fill:none;stroke:#e377c2;stroke-linecap:square;stroke-width:1.5;"/>
    </g>
    <g id="line2d_37"/>
    <g id="text_21">
     <!-- 0.061 -->
     <g transform="translate(201.6 248.880937)scale(0.18 -0.18)">
      <use xlink:href="#DejaVuSans-30"/>
      <use x="63.623047" xlink:href="#DejaVuSans-2e"/>
      <use x="95.410156" xlink:href="#DejaVuSans-30"/>
      <use x="159.033203" xlink:href="#DejaVuSans-36"/>
      <use x="222.65625" xlink:href="#DejaVuSans-31"/>
     </g>
    </g>
    <g id="line2d_38">
     <path d="M 151.2 269.001562 
L 187.2 269.001562 
" style="fill:none;stroke:#7f7f7f;stroke-linecap:square;stroke-width:1.5;"/>
    </g>
    <g id="line2d_39"/>
    <g id="text_22">
     <!-- 0.071 -->
     <g transform="translate(201.6 275.301562)scale(0.18 -0.18)">
      <defs>
       <path d="M 525 4666 
L 3525 4666 
L 3525 4397 
L 1831 0 
L 1172 0 
L 2766 4134 
L 525 4134 
L 525 4666 
z
" id="DejaVuSans-37" transform="scale(0.015625)"/>
      </defs>
      <use xlink:href="#DejaVuSans-30"/>
      <use x="63.623047" xlink:href="#DejaVuSans-2e"/>
      <use x="95.410156" xlink:href="#DejaVuSans-30"/>
      <use x="159.033203" xlink:href="#DejaVuSans-37"/>
      <use x="222.65625" xlink:href="#DejaVuSans-31"/>
     </g>
    </g>
    <g id="line2d_40">
     <path d="M 151.2 295.422188 
L 187.2 295.422188 
" style="fill:none;stroke:#bcbd22;stroke-linecap:square;stroke-width:1.5;"/>
    </g>
    <g id="line2d_41"/>
    <g id="text_23">
     <!-- 0.081 -->
     <g transform="translate(201.6 301.722188)scale(0.18 -0.18)">
      <use xlink:href="#DejaVuSans-30"/>
      <use x="63.623047" xlink:href="#DejaVuSans-2e"/>
      <use x="95.410156" xlink:href="#DejaVuSans-30"/>
      <use x="159.033203" xlink:href="#DejaVuSans-38"/>
      <use x="222.65625" xlink:href="#DejaVuSans-31"/>
     </g>
    </g>
    <g id="line2d_42">
     <path d="M 151.2 321.842812 
L 187.2 321.842812 
" style="fill:none;stroke:#17becf;stroke-linecap:square;stroke-width:1.5;"/>
    </g>
    <g id="line2d_43"/>
    <g id="text_24">
     <!-- 0.091 -->
     <g transform="translate(201.6 328.142812)scale(0.18 -0.18)">
      <defs>
       <path d="M 703 97 
L 703 672 
Q 941 559 1184 500 
Q 1428 441 1663 441 
Q 2288 441 2617 861 
Q 2947 1281 2994 2138 
Q 2813 1869 2534 1725 
Q 2256 1581 1919 1581 
Q 1219 1581 811 2004 
Q 403 2428 403 3163 
Q 403 3881 828 4315 
Q 1253 4750 1959 4750 
Q 2769 4750 3195 4129 
Q 3622 3509 3622 2328 
Q 3622 1225 3098 567 
Q 2575 -91 1691 -91 
Q 1453 -91 1209 -44 
Q 966 3 703 97 
z
M 1959 2075 
Q 2384 2075 2632 2365 
Q 2881 2656 2881 3163 
Q 2881 3666 2632 3958 
Q 2384 4250 1959 4250 
Q 1534 4250 1286 3958 
Q 1038 3666 1038 3163 
Q 1038 2656 1286 2365 
Q 1534 2075 1959 2075 
z
" id="DejaVuSans-39" transform="scale(0.015625)"/>
      </defs>
      <use xlink:href="#DejaVuSans-30"/>
      <use x="63.623047" xlink:href="#DejaVuSans-2e"/>
      <use x="95.410156" xlink:href="#DejaVuSans-30"/>
      <use x="159.033203" xlink:href="#DejaVuSans-39"/>
      <use x="222.65625" xlink:href="#DejaVuSans-31"/>
     </g>
    </g>
   </g>
  </g>
 </g>
 <defs>
  <clipPath id="p31f3b22e60">
   <rect height="388.08" width="837" x="135" y="60.48"/>
  </clipPath>
 </defs>
</svg>
