<?xml version="1.0" encoding="utf-8" standalone="no"?>
<!DOCTYPE svg PUBLIC "-//W3C//DTD SVG 1.1//EN"
  "http://www.w3.org/Graphics/SVG/1.1/DTD/svg11.dtd">
<svg height="504pt" version="1.1" viewBox="0 0 1080 504" width="1080pt" xmlns="http://www.w3.org/2000/svg" xmlns:xlink="http://www.w3.org/1999/xlink">
 <metadata>
  <rdf:RDF xmlns:cc="http://creativecommons.org/ns#" xmlns:dc="http://purl.org/dc/elements/1.1/" xmlns:rdf="http://www.w3.org/1999/02/22-rdf-syntax-ns#">
   <cc:Work>
    <dc:type rdf:resource="http://purl.org/dc/dcmitype/StillImage"/>
    <dc:date>2022-01-07T13:25:02.582181</dc:date>
    <dc:format>image/svg+xml</dc:format>
    <dc:creator>
     <cc:Agent>
      <dc:title>Matplotlib v3.4.3, https://matplotlib.org/</dc:title>
     </cc:Agent>
    </dc:creator>
   </cc:Work>
  </rdf:RDF>
 </metadata>
 <defs>
  <style type="text/css">*{stroke-linecap:butt;stroke-linejoin:round;}</style>
 </defs>
 <g id="figure_1">
  <g id="patch_1">
   <path d="M 0 504 
L 1080 504 
L 1080 0 
L 0 0 
z
" style="fill:#ffffff;"/>
  </g>
  <g id="axes_1">
   <g id="patch_2">
    <path d="M 135 448.56 
L 972 448.56 
L 972 60.48 
L 135 60.48 
z
" style="fill:#ffffff;"/>
   </g>
   <g id="matplotlib.axis_1">
    <g id="xtick_1">
     <g id="line2d_1">
      <defs>
       <path d="M 0 0 
L 0 3.5 
" id="m8873af91c9" style="stroke:#000000;stroke-width:0.8;"/>
      </defs>
      <g>
       <use style="stroke:#000000;stroke-width:0.8;" x="135" xlink:href="#m8873af91c9" y="448.56"/>
      </g>
     </g>
     <g id="text_1">
      <!-- 0.0 -->
      <g transform="translate(120.687187 469.237188)scale(0.18 -0.18)">
       <defs>
        <path d="M 2034 4250 
Q 1547 4250 1301 3770 
Q 1056 3291 1056 2328 
Q 1056 1369 1301 889 
Q 1547 409 2034 409 
Q 2525 409 2770 889 
Q 3016 1369 3016 2328 
Q 3016 3291 2770 3770 
Q 2525 4250 2034 4250 
z
M 2034 4750 
Q 2819 4750 3233 4129 
Q 3647 3509 3647 2328 
Q 3647 1150 3233 529 
Q 2819 -91 2034 -91 
Q 1250 -91 836 529 
Q 422 1150 422 2328 
Q 422 3509 836 4129 
Q 1250 4750 2034 4750 
z
" id="DejaVuSans-30" transform="scale(0.015625)"/>
        <path d="M 684 794 
L 1344 794 
L 1344 0 
L 684 0 
L 684 794 
z
" id="DejaVuSans-2e" transform="scale(0.015625)"/>
       </defs>
       <use xlink:href="#DejaVuSans-30"/>
       <use x="63.623047" xlink:href="#DejaVuSans-2e"/>
       <use x="95.410156" xlink:href="#DejaVuSans-30"/>
      </g>
     </g>
    </g>
    <g id="xtick_2">
     <g id="line2d_2">
      <g>
       <use style="stroke:#000000;stroke-width:0.8;" x="302.4" xlink:href="#m8873af91c9" y="448.56"/>
      </g>
     </g>
     <g id="text_2">
      <!-- 0.2 -->
      <g transform="translate(288.087187 469.237188)scale(0.18 -0.18)">
       <defs>
        <path d="M 1228 531 
L 3431 531 
L 3431 0 
L 469 0 
L 469 531 
Q 828 903 1448 1529 
Q 2069 2156 2228 2338 
Q 2531 2678 2651 2914 
Q 2772 3150 2772 3378 
Q 2772 3750 2511 3984 
Q 2250 4219 1831 4219 
Q 1534 4219 1204 4116 
Q 875 4013 500 3803 
L 500 4441 
Q 881 4594 1212 4672 
Q 1544 4750 1819 4750 
Q 2544 4750 2975 4387 
Q 3406 4025 3406 3419 
Q 3406 3131 3298 2873 
Q 3191 2616 2906 2266 
Q 2828 2175 2409 1742 
Q 1991 1309 1228 531 
z
" id="DejaVuSans-32" transform="scale(0.015625)"/>
       </defs>
       <use xlink:href="#DejaVuSans-30"/>
       <use x="63.623047" xlink:href="#DejaVuSans-2e"/>
       <use x="95.410156" xlink:href="#DejaVuSans-32"/>
      </g>
     </g>
    </g>
    <g id="xtick_3">
     <g id="line2d_3">
      <g>
       <use style="stroke:#000000;stroke-width:0.8;" x="469.8" xlink:href="#m8873af91c9" y="448.56"/>
      </g>
     </g>
     <g id="text_3">
      <!-- 0.4 -->
      <g transform="translate(455.487188 469.237188)scale(0.18 -0.18)">
       <defs>
        <path d="M 2419 4116 
L 825 1625 
L 2419 1625 
L 2419 4116 
z
M 2253 4666 
L 3047 4666 
L 3047 1625 
L 3713 1625 
L 3713 1100 
L 3047 1100 
L 3047 0 
L 2419 0 
L 2419 1100 
L 313 1100 
L 313 1709 
L 2253 4666 
z
" id="DejaVuSans-34" transform="scale(0.015625)"/>
       </defs>
       <use xlink:href="#DejaVuSans-30"/>
       <use x="63.623047" xlink:href="#DejaVuSans-2e"/>
       <use x="95.410156" xlink:href="#DejaVuSans-34"/>
      </g>
     </g>
    </g>
    <g id="xtick_4">
     <g id="line2d_4">
      <g>
       <use style="stroke:#000000;stroke-width:0.8;" x="637.2" xlink:href="#m8873af91c9" y="448.56"/>
      </g>
     </g>
     <g id="text_4">
      <!-- 0.6 -->
      <g transform="translate(622.887188 469.237188)scale(0.18 -0.18)">
       <defs>
        <path d="M 2113 2584 
Q 1688 2584 1439 2293 
Q 1191 2003 1191 1497 
Q 1191 994 1439 701 
Q 1688 409 2113 409 
Q 2538 409 2786 701 
Q 3034 994 3034 1497 
Q 3034 2003 2786 2293 
Q 2538 2584 2113 2584 
z
M 3366 4563 
L 3366 3988 
Q 3128 4100 2886 4159 
Q 2644 4219 2406 4219 
Q 1781 4219 1451 3797 
Q 1122 3375 1075 2522 
Q 1259 2794 1537 2939 
Q 1816 3084 2150 3084 
Q 2853 3084 3261 2657 
Q 3669 2231 3669 1497 
Q 3669 778 3244 343 
Q 2819 -91 2113 -91 
Q 1303 -91 875 529 
Q 447 1150 447 2328 
Q 447 3434 972 4092 
Q 1497 4750 2381 4750 
Q 2619 4750 2861 4703 
Q 3103 4656 3366 4563 
z
" id="DejaVuSans-36" transform="scale(0.015625)"/>
       </defs>
       <use xlink:href="#DejaVuSans-30"/>
       <use x="63.623047" xlink:href="#DejaVuSans-2e"/>
       <use x="95.410156" xlink:href="#DejaVuSans-36"/>
      </g>
     </g>
    </g>
    <g id="xtick_5">
     <g id="line2d_5">
      <g>
       <use style="stroke:#000000;stroke-width:0.8;" x="804.6" xlink:href="#m8873af91c9" y="448.56"/>
      </g>
     </g>
     <g id="text_5">
      <!-- 0.8 -->
      <g transform="translate(790.287188 469.237188)scale(0.18 -0.18)">
       <defs>
        <path d="M 2034 2216 
Q 1584 2216 1326 1975 
Q 1069 1734 1069 1313 
Q 1069 891 1326 650 
Q 1584 409 2034 409 
Q 2484 409 2743 651 
Q 3003 894 3003 1313 
Q 3003 1734 2745 1975 
Q 2488 2216 2034 2216 
z
M 1403 2484 
Q 997 2584 770 2862 
Q 544 3141 544 3541 
Q 544 4100 942 4425 
Q 1341 4750 2034 4750 
Q 2731 4750 3128 4425 
Q 3525 4100 3525 3541 
Q 3525 3141 3298 2862 
Q 3072 2584 2669 2484 
Q 3125 2378 3379 2068 
Q 3634 1759 3634 1313 
Q 3634 634 3220 271 
Q 2806 -91 2034 -91 
Q 1263 -91 848 271 
Q 434 634 434 1313 
Q 434 1759 690 2068 
Q 947 2378 1403 2484 
z
M 1172 3481 
Q 1172 3119 1398 2916 
Q 1625 2713 2034 2713 
Q 2441 2713 2670 2916 
Q 2900 3119 2900 3481 
Q 2900 3844 2670 4047 
Q 2441 4250 2034 4250 
Q 1625 4250 1398 4047 
Q 1172 3844 1172 3481 
z
" id="DejaVuSans-38" transform="scale(0.015625)"/>
       </defs>
       <use xlink:href="#DejaVuSans-30"/>
       <use x="63.623047" xlink:href="#DejaVuSans-2e"/>
       <use x="95.410156" xlink:href="#DejaVuSans-38"/>
      </g>
     </g>
    </g>
    <g id="xtick_6">
     <g id="line2d_6">
      <g>
       <use style="stroke:#000000;stroke-width:0.8;" x="972" xlink:href="#m8873af91c9" y="448.56"/>
      </g>
     </g>
     <g id="text_6">
      <!-- 1.0 -->
      <g transform="translate(957.687188 469.237188)scale(0.18 -0.18)">
       <defs>
        <path d="M 794 531 
L 1825 531 
L 1825 4091 
L 703 3866 
L 703 4441 
L 1819 4666 
L 2450 4666 
L 2450 531 
L 3481 531 
L 3481 0 
L 794 0 
L 794 531 
z
" id="DejaVuSans-31" transform="scale(0.015625)"/>
       </defs>
       <use xlink:href="#DejaVuSans-31"/>
       <use x="63.623047" xlink:href="#DejaVuSans-2e"/>
       <use x="95.410156" xlink:href="#DejaVuSans-30"/>
      </g>
     </g>
    </g>
    <g id="text_7">
     <!-- $FPR_{Fair}$ -->
     <g transform="translate(518.08 493.697187)scale(0.22 -0.22)">
      <defs>
       <path d="M 1081 4666 
L 3756 4666 
L 3653 4134 
L 1606 4134 
L 1338 2759 
L 3188 2759 
L 3084 2228 
L 1234 2228 
L 800 0 
L 172 0 
L 1081 4666 
z
" id="DejaVuSans-Oblique-46" transform="scale(0.015625)"/>
       <path d="M 1081 4666 
L 2541 4666 
Q 3178 4666 3512 4369 
Q 3847 4072 3847 3500 
Q 3847 2731 3353 2303 
Q 2859 1875 1966 1875 
L 1172 1875 
L 806 0 
L 172 0 
L 1081 4666 
z
M 1613 4147 
L 1275 2394 
L 2069 2394 
Q 2606 2394 2893 2669 
Q 3181 2944 3181 3456 
Q 3181 3784 2986 3965 
Q 2791 4147 2438 4147 
L 1613 4147 
z
" id="DejaVuSans-Oblique-50" transform="scale(0.015625)"/>
       <path d="M 1613 4147 
L 1294 2491 
L 2106 2491 
Q 2584 2491 2879 2755 
Q 3175 3019 3175 3444 
Q 3175 3784 2976 3965 
Q 2778 4147 2406 4147 
L 1613 4147 
z
M 2772 2241 
Q 2972 2194 3105 2009 
Q 3238 1825 3413 1275 
L 3809 0 
L 3144 0 
L 2778 1197 
Q 2638 1659 2453 1815 
Q 2269 1972 1888 1972 
L 1191 1972 
L 806 0 
L 172 0 
L 1081 4666 
L 2503 4666 
Q 3150 4666 3495 4373 
Q 3841 4081 3841 3531 
Q 3841 3044 3547 2687 
Q 3253 2331 2772 2241 
z
" id="DejaVuSans-Oblique-52" transform="scale(0.015625)"/>
       <path d="M 3438 1997 
L 3047 0 
L 2472 0 
L 2578 531 
Q 2325 219 2001 64 
Q 1678 -91 1281 -91 
Q 834 -91 548 182 
Q 263 456 263 884 
Q 263 1497 752 1853 
Q 1241 2209 2100 2209 
L 2900 2209 
L 2931 2363 
Q 2938 2388 2941 2417 
Q 2944 2447 2944 2509 
Q 2944 2788 2717 2942 
Q 2491 3097 2081 3097 
Q 1800 3097 1504 3025 
Q 1209 2953 897 2809 
L 997 3341 
Q 1322 3463 1633 3523 
Q 1944 3584 2234 3584 
Q 2853 3584 3176 3315 
Q 3500 3047 3500 2534 
Q 3500 2431 3484 2292 
Q 3469 2153 3438 1997 
z
M 2816 1759 
L 2241 1759 
Q 1534 1759 1195 1570 
Q 856 1381 856 984 
Q 856 709 1029 553 
Q 1203 397 1509 397 
Q 1978 397 2328 733 
Q 2678 1069 2791 1631 
L 2816 1759 
z
" id="DejaVuSans-Oblique-61" transform="scale(0.015625)"/>
       <path d="M 1172 4863 
L 1747 4863 
L 1606 4134 
L 1031 4134 
L 1172 4863 
z
M 909 3500 
L 1484 3500 
L 800 0 
L 225 0 
L 909 3500 
z
" id="DejaVuSans-Oblique-69" transform="scale(0.015625)"/>
       <path d="M 2853 2969 
Q 2766 3016 2653 3041 
Q 2541 3066 2413 3066 
Q 1953 3066 1609 2717 
Q 1266 2369 1153 1784 
L 800 0 
L 225 0 
L 909 3500 
L 1484 3500 
L 1375 2956 
Q 1603 3259 1920 3421 
Q 2238 3584 2597 3584 
Q 2691 3584 2781 3573 
Q 2872 3563 2963 3538 
L 2853 2969 
z
" id="DejaVuSans-Oblique-72" transform="scale(0.015625)"/>
      </defs>
      <use transform="translate(0 0.09375)" xlink:href="#DejaVuSans-Oblique-46"/>
      <use transform="translate(57.519531 0.09375)" xlink:href="#DejaVuSans-Oblique-50"/>
      <use transform="translate(117.822266 0.09375)" xlink:href="#DejaVuSans-Oblique-52"/>
      <use transform="translate(187.304688 -16.3125)scale(0.7)" xlink:href="#DejaVuSans-Oblique-46"/>
      <use transform="translate(227.568359 -16.3125)scale(0.7)" xlink:href="#DejaVuSans-Oblique-61"/>
      <use transform="translate(270.463867 -16.3125)scale(0.7)" xlink:href="#DejaVuSans-Oblique-69"/>
      <use transform="translate(289.912109 -16.3125)scale(0.7)" xlink:href="#DejaVuSans-Oblique-72"/>
     </g>
    </g>
   </g>
   <g id="matplotlib.axis_2">
    <g id="ytick_1">
     <g id="line2d_7">
      <defs>
       <path d="M 0 0 
L -3.5 0 
" id="mb8b82fc88a" style="stroke:#000000;stroke-width:0.8;"/>
      </defs>
      <g>
       <use style="stroke:#000000;stroke-width:0.8;" x="135" xlink:href="#mb8b82fc88a" y="448.56"/>
      </g>
     </g>
     <g id="text_8">
      <!-- 0.0 -->
      <g transform="translate(99.374375 455.398594)scale(0.18 -0.18)">
       <use xlink:href="#DejaVuSans-30"/>
       <use x="63.623047" xlink:href="#DejaVuSans-2e"/>
       <use x="95.410156" xlink:href="#DejaVuSans-30"/>
      </g>
     </g>
    </g>
    <g id="ytick_2">
     <g id="line2d_8">
      <g>
       <use style="stroke:#000000;stroke-width:0.8;" x="135" xlink:href="#mb8b82fc88a" y="370.944"/>
      </g>
     </g>
     <g id="text_9">
      <!-- 0.2 -->
      <g transform="translate(99.374375 377.782594)scale(0.18 -0.18)">
       <use xlink:href="#DejaVuSans-30"/>
       <use x="63.623047" xlink:href="#DejaVuSans-2e"/>
       <use x="95.410156" xlink:href="#DejaVuSans-32"/>
      </g>
     </g>
    </g>
    <g id="ytick_3">
     <g id="line2d_9">
      <g>
       <use style="stroke:#000000;stroke-width:0.8;" x="135" xlink:href="#mb8b82fc88a" y="293.328"/>
      </g>
     </g>
     <g id="text_10">
      <!-- 0.4 -->
      <g transform="translate(99.374375 300.166594)scale(0.18 -0.18)">
       <use xlink:href="#DejaVuSans-30"/>
       <use x="63.623047" xlink:href="#DejaVuSans-2e"/>
       <use x="95.410156" xlink:href="#DejaVuSans-34"/>
      </g>
     </g>
    </g>
    <g id="ytick_4">
     <g id="line2d_10">
      <g>
       <use style="stroke:#000000;stroke-width:0.8;" x="135" xlink:href="#mb8b82fc88a" y="215.712"/>
      </g>
     </g>
     <g id="text_11">
      <!-- 0.6 -->
      <g transform="translate(99.374375 222.550594)scale(0.18 -0.18)">
       <use xlink:href="#DejaVuSans-30"/>
       <use x="63.623047" xlink:href="#DejaVuSans-2e"/>
       <use x="95.410156" xlink:href="#DejaVuSans-36"/>
      </g>
     </g>
    </g>
    <g id="ytick_5">
     <g id="line2d_11">
      <g>
       <use style="stroke:#000000;stroke-width:0.8;" x="135" xlink:href="#mb8b82fc88a" y="138.096"/>
      </g>
     </g>
     <g id="text_12">
      <!-- 0.8 -->
      <g transform="translate(99.374375 144.934594)scale(0.18 -0.18)">
       <use xlink:href="#DejaVuSans-30"/>
       <use x="63.623047" xlink:href="#DejaVuSans-2e"/>
       <use x="95.410156" xlink:href="#DejaVuSans-38"/>
      </g>
     </g>
    </g>
    <g id="ytick_6">
     <g id="line2d_12">
      <g>
       <use style="stroke:#000000;stroke-width:0.8;" x="135" xlink:href="#mb8b82fc88a" y="60.48"/>
      </g>
     </g>
     <g id="text_13">
      <!-- 1.0 -->
      <g transform="translate(99.374375 67.318594)scale(0.18 -0.18)">
       <use xlink:href="#DejaVuSans-31"/>
       <use x="63.623047" xlink:href="#DejaVuSans-2e"/>
       <use x="95.410156" xlink:href="#DejaVuSans-30"/>
      </g>
     </g>
    </g>
    <g id="text_14">
     <!-- $TPR_{Fair}$ -->
     <g transform="translate(90.799062 290.27)rotate(-90)scale(0.22 -0.22)">
      <defs>
       <path d="M 378 4666 
L 4325 4666 
L 4225 4134 
L 2559 4134 
L 1759 0 
L 1125 0 
L 1925 4134 
L 275 4134 
L 378 4666 
z
" id="DejaVuSans-Oblique-54" transform="scale(0.015625)"/>
      </defs>
      <use transform="translate(0 0.09375)" xlink:href="#DejaVuSans-Oblique-54"/>
      <use transform="translate(61.083984 0.09375)" xlink:href="#DejaVuSans-Oblique-50"/>
      <use transform="translate(121.386719 0.09375)" xlink:href="#DejaVuSans-Oblique-52"/>
      <use transform="translate(190.869141 -16.3125)scale(0.7)" xlink:href="#DejaVuSans-Oblique-46"/>
      <use transform="translate(231.132812 -16.3125)scale(0.7)" xlink:href="#DejaVuSans-Oblique-61"/>
      <use transform="translate(274.02832 -16.3125)scale(0.7)" xlink:href="#DejaVuSans-Oblique-69"/>
      <use transform="translate(293.476562 -16.3125)scale(0.7)" xlink:href="#DejaVuSans-Oblique-72"/>
     </g>
    </g>
   </g>
   <g id="line2d_13">
    <path clip-path="url(#p45fdddfc9d)" d="M 135 448.56 
L 972 60.48 
" style="fill:none;stroke:#ff0000;stroke-dasharray:5.55,2.4;stroke-dashoffset:0;stroke-width:1.5;"/>
   </g>
   <g id="line2d_14">
    <path clip-path="url(#p45fdddfc9d)" d="M 972 60.48 
L 319.632353 108.688696 
L 249.136364 157.5 
L 217.598684 190.450189 
L 200.732984 215.378884 
L 185.727273 238.540235 
L 178.080882 262.718873 
L 172.082278 274.945263 
L 167.459834 292.624532 
L 163.862069 306.264 
L 161.391892 317.53299 
L 159.463466 329.853176 
L 157.797665 336.81375 
L 155.925 345.666138 
L 154.827411 352.123287 
L 153.71885 357.983454 
L 151.436556 365.900361 
L 150.5 371.877526 
L 149.66442 377.37 
L 147.876923 380.539718 
L 147.415328 382.693211 
L 146.788732 385.98497 
L 146.272727 387.904949 
L 145.66242 389.940923 
L 145.196954 392.892787 
L 143.912875 395.476016 
L 143.572626 397.049381 
L 143.272237 398.893551 
L 142.964533 400.818124 
L 141.998328 402.249737 
L 141.104538 403.329231 
L 140.969097 405.292833 
L 140.8125 406.582252 
L 140.676714 407.687296 
L 140.588279 408.934989 
L 139.880466 409.911376 
L 139.8 411.066215 
L 139.702247 411.83438 
L 139.61157 412.433551 
L 139.533514 413.28 
L 139.45509 414.03203 
L 139.396586 414.982951 
L 139.314433 416.3355 
L 138.715282 416.908085 
L 138.627864 417.701435 
L 138.064063 418.453197 
L 138.030779 419.413063 
L 137.48368 420.702772 
L 136.946512 421.177226 
L 136.917526 421.902748 
L 136.892595 422.363077 
L 136.873531 423.048167 
L 136.847682 424.379631 
L 136.825518 424.986424 
L 136.807775 425.56051 
L 136.784648 426.441451 
L 136.765823 426.906261 
L 136.750131 427.462661 
L 136.734715 427.946686 
L 136.716923 428.206154 
L 136.694332 428.768187 
L 136.256757 428.984049 
L 136.244918 429.221333 
L 136.229677 429.761168 
L 136.221304 429.970866 
L 135.807136 430.175938 
L 135.797523 430.306237 
L 135.394253 430.48097 
L 135.389665 431.098859 
L 135.384298 431.274128 
L 135.380801 431.403288 
L 135.377367 431.530532 
L 135.372829 431.624733 
L 135.369048 431.965254 
L 135.365183 432.820678 
L 135.360931 432.858696 
L 135.357845 433.491183 
L 135.354811 433.863479 
L 135.35257 434.001313 
L 135.349916 434.320606 
L 135.347447 435.123878 
L 135.34544 435.284743 
L 135.343033 435.660439 
L 135.339692 436.391758 
L 135.338455 436.898164 
L 135.335875 437.001081 
L 135.333865 437.562638 
L 135 437.651805 
L 135 438.319871 
L 135 438.577235 
L 135 439.059372 
L 135 439.295491 
L 135 439.758608 
L 135 439.800189 
L 135 440.272875 
L 135 440.545958 
L 135 440.802378 
L 135 440.861567 
L 135 440.927564 
L 135 440.988654 
L 135 441.0525 
" style="fill:none;stroke:#1f77b4;stroke-linecap:square;stroke-width:1.5;"/>
   </g>
   <g id="line2d_15">
    <path clip-path="url(#p45fdddfc9d)" d="M 972 60.48 
L 972 60.48 
L 972 60.48 
L 972 60.48 
L 972 60.48 
L 972 60.48 
L 972 60.48 
L 972 60.48 
L 972 60.48 
L 972 67.41 
L 972 67.472432 
L 972 67.536 
L 972 67.536 
L 972 67.600734 
L 972 71.161101 
L 972 71.161101 
L 972 71.161101 
L 972 71.26 
L 972 71.463396 
L 972 71.568 
L 972 71.568 
L 956.5 71.783301 
L 956.057143 71.894118 
L 955.903846 71.894118 
L 955.425743 72.007129 
L 954.918367 72.1224 
L 954.742268 72.36 
L 954.5625 72.6075 
L 954 72.735158 
L 953.604396 72.865532 
L 953.4 80.905263 
L 952.977273 81.122553 
L 952.758621 81.122553 
L 952.534884 81.122553 
L 952.305882 84.990316 
L 952.071429 89.075368 
L 951.831325 89.690323 
L 951.831325 89.690323 
L 951.585366 89.690323 
L 951.075 90.007826 
L 951.075 93.863226 
L 950.538462 94.596923 
L 950.25974 94.596923 
L 949.68 94.596923 
L 949.068493 94.596923 
L 947.73913 94.596923 
L 947.73913 95.363596 
L 946.636364 100.17 
L 945.84375 100.17 
L 945.428571 108.444944 
L 945 115.92 
L 945 115.92 
L 944.557377 117.165843 
L 943.627119 122.22 
L 942.631579 122.929655 
L 942.107143 123.655814 
L 941.563636 131.851034 
L 941.563636 133.530353 
L 941.563636 134.4 
L 941 135.290602 
L 941 142.661647 
L 939.807692 143.64 
L 939.176471 143.64 
L 938.52 144.641928 
L 938.52 148.903291 
L 937.836735 148.903291 
L 937.125 148.903291 
L 934.8 148.903291 
L 934.8 150.036923 
L 934.8 151.2 
L 934.8 152.393684 
L 933.954545 152.393684 
L 932.142857 152.393684 
L 932.142857 153.6192 
L 931.170732 153.6192 
L 931.170732 153.6192 
L 930.15 156.170959 
L 930.15 156.170959 
L 930.15 157.5 
L 929.076923 158.866479 
L 929.076923 158.866479 
L 909.225 160.272 
L 907.615385 160.272 
L 905.921053 160.272 
L 904.135135 163.207059 
L 904.135135 163.207059 
L 904.135135 166.32 
L 902.25 167.948308 
L 900.257143 169.6275 
L 893.53125 171.36 
L 885.413793 173.148387 
L 882.321429 174.99541 
L 882.321429 176.904 
L 879 178.877288 
L 875.423077 180.918621 
L 871.56 180.918621 
L 867.375 185.22 
L 867.375 185.22 
L 867.375 187.488 
L 862.826087 187.488 
L 862.826087 187.488 
" style="fill:none;stroke:#ff7f0e;stroke-linecap:square;stroke-width:1.5;"/>
   </g>
   <g id="line2d_16">
    <path clip-path="url(#p45fdddfc9d)" d="M 972 60.48 
L 965.139344 60.48 
L 965.082645 60.48 
L 958.222222 60.48 
L 954.48954 60.48 
L 950.446352 60.48 
L 946.636364 60.48 
L 935.449782 60.48 
L 934.466368 60.48 
L 933.954545 64.193684 
L 926.345455 64.211538 
L 925.926606 64.247767 
L 921.857143 66.13165 
L 910.568807 66.215172 
L 903.518182 66.243564 
L 896.594595 66.3012 
L 896.253394 66.3012 
L 894.5 66.330452 
L 886.353488 68.32 
L 880.763033 68.440615 
L 877.245283 70.38 
L 870.42233 70.58625 
L 864.79803 70.692632 
L 863.731343 72.735158 
L 857.863636 74.853333 
L 854.906736 75.007059 
L 849.9375 75.164108 
L 848.652632 75.32459 
L 846.673797 75.572 
L 841.5 77.728 
L 837.895028 82.04 
L 831.72067 82.282247 
L 826.230337 82.282247 
L 822.87931 82.282247 
L 822.017341 84.462472 
L 821.145349 86.642697 
L 818.467456 87.0912 
L 811.616766 87.0912 
L 808.682927 87.0912 
L 805.639752 89.3088 
L 804.6 91.35 
L 801.401274 91.704828 
L 800.307692 91.885318 
L 796.941176 91.885318 
L 793.44 92.067907 
L 784.102041 92.067907 
L 784.102041 92.628639 
L 777.485915 95.337485 
L 768.728571 97.661317 
L 767.266187 102.560964 
L 761.244604 106.68 
L 759.717391 108.99 
L 758.167883 111.604311 
L 755 114.25012 
L 748.8 114.905854 
L 745.443609 115.577778 
L 743.727273 120.001472 
L 741.984733 121.1175 
L 731.045455 121.885063 
L 727.338462 122.276178 
L 727.338462 127.647692 
L 723.515625 130.584774 
L 714.968504 131.04 
L 708.377953 131.968421 
L 706.285714 133.900541 
L 702 134.4 
L 697.57377 134.4 
L 690.655462 134.4 
L 690.655462 135.419586 
L 686.025 135.94 
L 686.025 137.002817 
L 683.621849 137.002817 
L 678.692308 137.002817 
L 678.692308 138.654388 
L 673.591304 139.22087 
L 662.837838 139.22087 
L 657.165138 140.970667 
L 654.25 140.970667 
L 654.25 143.428397 
L 642.028846 144.714419 
L 638.825243 145.3725 
L 622.572816 146.72 
L 619.147059 147.40992 
L 612.09 148.823415 
L 604.744898 150.283636 
L 600 150.283636 
L 587.663265 153.353846 
L 579.65625 154.154483 
L 571.308511 156.641416 
L 548.797753 159.264 
L 534.034884 161.093333 
L 528.882353 162.991698 
L 528.882353 164.963077 
L 518.204819 165.977476 
L 502.463415 168.066535 
L 496.666667 169.1424 
L 490.725 171.36 
L 478.384615 172.503093 
L 478.384615 176.078298 
L 471.974026 178.591304 
L 471.974026 178.591304 
" style="fill:none;stroke:#2ca02c;stroke-linecap:square;stroke-width:1.5;"/>
   </g>
   <g id="line2d_17">
    <path clip-path="url(#p45fdddfc9d)" d="M 972 60.48 
L 965.25 60.48 
L 962.926829 61.677778 
L 958.427027 61.688972 
L 955.991803 61.69275 
L 953.4 61.696552 
L 950.89916 61.715924 
L 941.349296 61.719872 
L 940.552023 61.744104 
L 940.090909 64.272313 
L 930.272727 64.322376 
L 929.902367 64.386846 
L 922.178571 64.4 
L 914.534328 64.494621 
L 909.537313 64.5225 
L 904.940653 64.550769 
L 904.338323 64.593922 
L 900.330275 64.623203 
L 894.97546 66.104348 
L 886.75 66.187059 
L 884.436923 67.587692 
L 879.586751 67.720299 
L 876.038217 67.774737 
L 872.421222 69.233684 
L 866.016234 69.3 
L 863.551495 69.401379 
L 860.026756 71.009302 
L 858.891892 71.091563 
L 857.733788 71.217391 
L 848.319588 71.26 
L 843.679443 74.34 
L 838.908127 74.45088 
L 832.5 74.45088 
L 829.467391 74.45088 
L 828.949091 76.128387 
L 826.3 77.693226 
L 824.109023 79.410732 
L 818.656489 79.410732 
L 816.27907 79.565902 
L 814.447059 81.156393 
L 813.201581 82.656 
L 807.948 82.930909 
L 805.955466 83.21272 
L 799.066116 83.21272 
L 796.895397 83.404557 
L 790.353191 83.501695 
L 787.207792 84 
L 779.415929 86.011579 
L 773.071749 87.713684 
L 772.175676 91.252863 
L 767.484163 94.67207 
L 766.554545 94.976 
L 764.669725 95.76 
L 762.75 97.863853 
L 756.883178 98.562617 
L 754.853774 99.104076 
L 753.824645 104.413585 
L 752.785714 105.258462 
L 745.890995 105.693204 
L 740.402913 105.913756 
L 739.273171 111.592976 
L 736.980296 112.610149 
L 731.673267 112.8708 
L 724.610837 113.4 
L 722.149254 114.770984 
L 719.638191 115.05375 
L 715.77551 115.05375 
L 707.455959 115.05375 
L 704.685864 115.628211 
L 694.468421 116.512941 
L 693 117.118703 
L 691.515957 117.118703 
L 683.852459 117.118703 
L 680.668508 118.052308 
L 677.413408 118.370387 
L 665.424419 118.692 
L 658.125 120.3552 
L 656.245509 121.755789 
L 650.469512 123.223473 
L 640.358491 123.984 
L 638.259494 125.16 
L 628.615385 127.972174 
L 621.882353 130.8195 
L 614.88 131.709873 
L 610.054054 133.088516 
L 601.897959 134.037647 
L 593.630137 136.522703 
L 585.692308 138.096 
L 580.212766 140.297872 
L 562.8 142.628321 
L 553.5 144.467463 
L 547.159091 145.74 
L 547.159091 147.722791 
L 540.623077 148.404375 
L 527.34375 149.8 
L 523.84252 151.240645 
L 516.672 152.728525 
L 509.268293 153.490909 
L 501.619835 156.670769 
L 497.7 159.202105 
L 493.714286 159.202105 
" style="fill:none;stroke:#d62728;stroke-linecap:square;stroke-width:1.5;"/>
   </g>
   <g id="line2d_18">
    <path clip-path="url(#p45fdddfc9d)" d="M 972 60.48 
L 966.76875 60.48 
L 966.713684 60.48 
L 964.90678 60.48 
L 963.057692 62.336842 
L 962.902174 62.345769 
L 960.962637 63.305825 
L 957.152993 64.247767 
L 956.850679 64.312889 
L 956.606897 66.229333 
L 956.35514 66.286683 
L 956.207547 67.32272 
L 954.02148 69.277783 
L 953.804348 69.435692 
L 951.733656 70.507907 
L 947.621359 71.625901 
L 947.442543 71.743536 
L 946.89 72.89856 
L 944.453165 74.152195 
L 941.953846 75.36526 
L 941.798969 76.516364 
L 941 77.776045 
L 938.52 79.93805 
L 937.97561 82.04 
L 935.309589 83.181058 
L 934.487395 84.395294 
L 931.805085 84.666289 
L 931.461538 84.804103 
L 930.994236 85.013793 
L 927.818182 88.2 
L 926.892216 91.437949 
L 923.662614 91.704828 
L 923.067692 92.82 
L 922.147335 92.913199 
L 921.674051 94.226087 
L 920.864952 95.350957 
L 920.029412 95.76 
L 918.99 96.791579 
L 915.445946 97.005176 
L 914.474227 98.146588 
L 913.875 99.174194 
L 913.056338 99.517633 
L 912.214286 100.103784 
L 910.905109 101.147066 
L 910.228782 101.51565 
L 908.830189 101.64 
L 907.615385 102.402222 
L 905.833992 104.275862 
L 901.409639 105.492414 
L 900.257143 108.074717 
L 899.367769 110.673312 
L 898.7625 113.121767 
L 897.835443 115.209231 
L 896.562232 117.18 
L 891.93913 118.115644 
L 891.236842 119.787907 
L 890.16 123.446623 
L 889.426009 124.506667 
L 885.283784 124.940746 
L 883.285714 125.380751 
L 882.460465 128.261096 
L 881.619718 131.404966 
L 876.796209 132.743172 
L 875.423077 134.850732 
L 874.009756 136.169362 
L 872.554455 136.438719 
L 869.510204 137.819786 
L 866.273684 137.819786 
L 864 138.936606 
L 857.655738 139.79562 
L 857.027473 140.378824 
L 855.100559 142.929231 
L 851.046243 142.929231 
L 849.631579 144.155242 
L 843.988235 146.235506 
L 838.490798 148.811642 
L 834.265823 152.740528 
L 831.6 154.514769 
L 827.880795 155.984062 
L 822.945205 156.736063 
L 820.875 159.064839 
L 812.852113 161.035142 
L 809.417266 162.271475 
L 805.830882 163.968 
L 799.48855 167.366441 
L 796.813953 168.742661 
L 788.90625 171.604229 
L 784.512 173.597489 
L 779.901639 178.513548 
L 769.965517 180.730141 
L 762.75 183.620769 
L 760.864865 186.700194 
L 760.864865 188.565517 
L 756.990826 189.199604 
L 745.149533 192.4272 
L 732.857143 195.12 
L 725.823529 196.508041 
L 720.9 197.925 
L 715.77551 201.6 
L 713.134021 203.90087 
L 707.684211 203.90087 
" style="fill:none;stroke:#9467bd;stroke-linecap:square;stroke-width:1.5;"/>
   </g>
   <g id="line2d_19">
    <path clip-path="url(#p45fdddfc9d)" d="M 972 60.48 
L 972 60.48 
L 972 60.48 
L 972 60.48 
L 970.546875 60.48 
L 970.526408 60.48 
L 970.508021 60.48 
L 970.480944 60.48 
L 970.452865 60.48 
L 970.432584 62.035431 
L 970.408745 62.054361 
L 970.390385 62.070492 
L 970.365234 62.077037 
L 970.34585 62.103766 
L 970.335984 62.117468 
L 970.322645 62.145579 
L 970.305668 62.163644 
L 968.541322 62.193377 
L 966.735849 62.220269 
L 966.657447 62.248018 
L 966.611588 62.260183 
L 966.481319 62.280835 
L 966.407572 62.306259 
L 966.319005 62.310566 
L 966.254005 62.328 
L 966.119438 62.341295 
L 966.049763 62.359322 
L 965.992823 62.368467 
L 965.920097 62.382353 
L 961.717445 62.391724 
L 959.350126 64.303448 
L 956.976923 64.331911 
L 954.65285 64.351122 
L 954.332454 64.370526 
L 954.144 65.367657 
L 953.902703 66.345189 
L 953.654795 66.404885 
L 953.348189 66.46581 
L 952.977273 66.496744 
L 952.534884 66.528 
L 952.363636 67.536 
L 949.513433 67.591414 
L 949.172727 67.704894 
L 946.246154 67.72416 
L 945.925234 67.782581 
L 945.343949 67.841951 
L 944.912621 67.984309 
L 941.31 69.250169 
L 937.952542 69.3 
L 937.365517 71.53641 
L 937.003484 73.823725 
L 936.757895 73.978435 
L 936.382979 74.257988 
L 935.740072 75.58491 
L 932.142857 75.814468 
L 931.848708 76.0032 
L 931.399254 78.446667 
L 931.093985 78.728276 
L 930.784091 78.901519 
L 929.825581 79.078083 
L 929.496094 81.625385 
L 928.992095 81.9 
L 928.476 81.969772 
L 924.75 82.325563 
L 924.171429 82.693333 
L 922.970711 82.768378 
L 921.708155 82.843932 
L 919.6875 82.92 
L 918.493151 83.229517 
L 913.331776 83.467317 
L 913.056338 83.710141 
L 911.92823 83.874894 
L 909.225 83.874894 
L 908.590909 84.297184 
L 907.283505 84.735 
L 904.860963 84.824502 
L 902.635359 85.282105 
L 901.067797 85.854462 
L 899.427746 86.250938 
L 897.267857 86.453858 
L 896.36747 87.18996 
L 894.97546 87.518361 
L 892.537975 87.969 
L 890.474026 88.553872 
L 887.168919 89.164174 
L 886.006849 89.54326 
L 879 90.468 
L 877.021277 91.023333 
L 874.248175 92.046316 
L 868.984615 92.662244 
L 865.714286 93.4668 
L 864 94.14 
L 864 94.84125 
L 860.4 95.021152 
L 856.551724 95.57234 
L 853.486726 96.531148 
L 848 97.132 
L 844.457143 97.54382 
L 841.980583 98.615029 
L 839.405941 99.75 
L 836.727273 100.223133 
" style="fill:none;stroke:#8c564b;stroke-linecap:square;stroke-width:1.5;"/>
   </g>
   <g id="line2d_20">
    <path clip-path="url(#p45fdddfc9d)" d="M 972 60.48 
L 933.504599 70.659148 
L 897.741445 83.925215 
L 863.405141 89.815181 
L 835.489286 100.830826 
L 807.328289 110.947803 
L 781.686652 119.746256 
L 752.172527 127.486619 
L 728.738428 136.995064 
L 708.614572 146.362158 
L 689.253099 153.258689 
L 668.861167 164.824689 
L 652.116832 172.792558 
L 633.156522 181.78582 
L 616.669811 187.567679 
L 599.914757 195.443465 
L 583.739518 200.778529 
L 567.047244 207.536949 
L 552.05938 215.804181 
L 540.045685 221.11217 
L 528.230769 225.639628 
L 512.430657 231.07443 
L 499.692857 235.470411 
L 484.126446 240.364444 
L 471.68797 243.25875 
L 457.207965 247.46011 
L 446.681128 250.914885 
L 438.010669 253.889317 
L 428.357441 257.639614 
L 418.787234 260.487296 
L 408.52571 263.856653 
L 401.649899 267.161696 
L 393.477137 270.541651 
L 386.045187 272.588502 
L 380.824561 275.8644 
L 374.449647 278.295652 
L 368.680203 282.023226 
L 361.358491 285.138122 
L 354.797138 287.139597 
L 349.032119 289.565247 
L 343.483516 292.017411 
L 338.032141 294.341642 
L 332.059459 297.36 
L 327 298.774737 
L 321.438421 301.21032 
L 316.105263 303.118684 
L 312.235602 305.732384 
L 306.182503 309.657049 
L 300.486857 311.941792 
L 295.195923 314.090628 
L 292.231721 316.307335 
L 289.515895 319.085217 
L 286.259504 321.720744 
L 282.571507 323.783171 
L 278.731853 326.386667 
L 276.072464 328.916122 
L 272.942584 331.466897 
L 270.968354 333.635021 
L 268.447465 335.411355 
L 264.804461 337.538812 
L 262.117496 340.342241 
L 259.695918 342.009068 
L 257.291709 343.569062 
L 254.930862 345.757351 
L 252.664008 347.780775 
L 249.117501 348.749778 
L 245.664036 349.637647 
L 240.954545 350.753776 
L 238.454015 352.559612 
L 234.305085 354.119903 
L 232.241479 355.433258 
L 229.995708 356.499489 
L 224.721296 357.084 
L 223.251064 358.766529 
L 220.664789 360.997925 
L 217.097151 361.576552 
L 214.270195 363.970687 
L 211.441882 366.111875 
L 209.237592 367.572009 
L 206.917733 368.608333 
L 205.604082 370.944 
L 204.151693 372.250467 
L 201.929919 373.838356 
L 199.90107 375.942 
L 197.663102 377.652282 
L 195.791851 379.092508 
L 194.099735 381.639578 
L 192.343874 383.251099 
L 190.118622 385.330224 
L 187.47192 386.813442 
L 185.002597 388.523938 
L 184.023256 390.00355 
L 183.329769 391.236514 
L 181.717938 391.899751 
L 179.744166 393.5232 
L 177.941127 395.244599 
L 175.641272 396.40474 
L 173.792067 397.151274 
L 172.856017 398.9412 
L 171.707489 400.706942 
L 170.594963 401.494979 
" style="fill:none;stroke:#e377c2;stroke-linecap:square;stroke-width:1.5;"/>
   </g>
   <g id="line2d_21">
    <path clip-path="url(#p45fdddfc9d)" d="M 972 60.48 
L 972 60.48 
L 972 60.48 
L 972 60.48 
L 972 60.48 
L 972 60.48 
L 972 60.48 
L 972 60.48 
L 972 60.48 
L 972 61.708101 
L 972 61.721856 
L 972 61.735922 
L 972 61.742049 
L 972 61.760792 
L 972 61.771448 
L 972 61.793299 
L 972 61.809041 
L 972 61.8275 
L 972 61.846479 
L 972 61.866 
L 972 61.873465 
L 972 61.8912 
L 972 61.906765 
L 972 61.92 
L 972 61.933483 
L 972 61.95 
L 972 61.961221 
L 972 61.96975 
L 972 61.984186 
L 972 61.992982 
L 972 63.505965 
L 972 63.523765 
L 972 63.535748 
L 972 63.553901 
L 972 64.345339 
L 972 65.127665 
L 972 65.184 
L 972 65.222322 
L 972 65.241718 
L 972 65.261273 
L 972 66.058152 
L 972 66.104348 
L 972 66.187059 
L 972 66.211139 
L 972 66.259915 
L 972 66.322065 
L 969.992806 66.437368 
L 969.933333 67.425503 
L 969.881013 67.488217 
L 969.837209 69.26009 
L 969.808901 71.088109 
L 969.791557 71.210323 
L 969.773936 71.38623 
L 969.737838 72.435071 
L 969.700549 72.6075 
L 969.662011 72.755036 
L 969.635593 74.678049 
L 969.608571 74.853333 
L 969.580925 74.996708 
L 969.538235 75.18 
L 969.51632 77.31 
L 969.486486 77.483505 
L 969.448171 77.527442 
L 969.424615 77.841474 
L 969.384375 78.07296 
L 969.308682 78.167292 
L 969.237624 78.214839 
L 969.133562 78.310703 
L 969.073427 78.554959 
L 968.978339 78.806 
L 968.945255 78.96 
L 968.9 79.11661 
L 968.743191 79.11661 
L 968.717647 79.38361 
L 968.652 79.770526 
L 968.5125 79.827097 
L 968.407725 80.291892 
L 968.312775 80.655413 
L 968.22973 80.905263 
L 968.142857 81.161379 
L 968.106977 81.693376 
L 968.051887 81.9 
L 967.956522 82.253465 
L 967.835821 82.768378 
L 967.707692 83.229517 
L 967.617801 83.547692 
L 967.524064 84.211511 
L 967.401099 84.557956 
L 967.244318 85.189213 
L 967.047337 85.565019 
L 966.833333 86.250938 
L 966.735849 86.764303 
L 966.702532 87.298537 
L 966.529412 87.408 
L 966.344595 88.084017 
L 966.1875 88.916897 
L 965.934783 89.54326 
L 965.706767 89.8016 
L 965.561538 90.468 
L 965.409449 91.308785 
L 965.139344 91.599623 
" style="fill:none;stroke:#7f7f7f;stroke-linecap:square;stroke-width:1.5;"/>
   </g>
   <g id="line2d_22">
    <path clip-path="url(#p45fdddfc9d)" d="M 972 60.48 
L 969.252735 60.48 
L 968.30871 60.48 
L 967.329241 60.48 
L 967.271186 61.541778 
L 967.18412 61.552044 
L 966.146853 61.56251 
L 964.066351 62.106034 
L 963.93253 62.13375 
L 963.814181 63.796923 
L 963.723115 63.835159 
L 963.640449 64.428488 
L 962.464557 65.571429 
L 962.32991 65.639114 
L 961.172057 66.255 
L 960.011719 66.918733 
L 959.917323 66.997374 
L 959.70761 67.677774 
L 959.490489 68.362875 
L 958.222222 69.063128 
L 958.127072 69.73469 
L 957.873418 70.462765 
L 957.671897 71.783301 
L 957.464544 73.100488 
L 956.068814 73.818265 
L 955.662162 74.568713 
L 954.164384 74.7096 
L 953.94453 76.055117 
L 953.719189 76.239594 
L 953.28115 78.866193 
L 952.852941 80.836142 
L 952.502496 81.564143 
L 952.138983 82.26 
L 951.831325 82.371692 
L 951.513986 83.15134 
L 951.260177 83.858313 
L 950.962298 84.143415 
L 950.499083 84.990316 
L 948.620112 85.07662 
L 948.266541 85.804444 
L 947.809249 86.488889 
L 947.430528 86.720285 
L 946.99004 87.051243 
L 946.481707 87.849114 
L 946.113402 88.048525 
L 945.45666 88.301912 
L 945.115632 88.769944 
L 944.406593 90.672182 
L 943.786517 91.704828 
L 943.270023 93.317538 
L 942.9375 95.076279 
L 942.734266 96.791579 
L 942.458824 98.06087 
L 942.0358 99.906454 
L 941.600484 100.383387 
L 941 101.580122 
L 940.533835 104.04 
L 940.134518 104.489072 
L 937.749361 104.9475 
L 937.215584 105.415579 
L 936.942408 107.545021 
L 936.382979 109.404615 
L 933.75 110.340385 
L 933.439024 111.942783 
L 932.909341 112.622907 
L 931.805085 112.969756 
L 930.875723 114.570796 
L 929.525373 115.05375 
L 928.75076 115.669707 
L 927.254717 116.299726 
L 926.828571 116.68469 
L 926.247588 119.496774 
L 924.251678 119.496774 
L 923.766102 120.324112 
L 920.226804 121.319145 
L 918.384342 123.014218 
L 917.014599 125.939277 
L 915.573034 126.89956 
L 914.275862 127.721584 
L 912.917647 128.564211 
L 912.450593 130.135385 
L 908.388 131.494639 
L 906.82377 132.79937 
L 904.898734 134.152941 
L 903.155844 136.202927 
L 901.942731 137.032767 
L 900.686099 138.748235 
L 899.050459 139.635127 
L 896.630332 141.470609 
L 893.660099 142.420645 
L 890.862245 144.137964 
L 889.601036 146.328 
L 889.171875 147.917778 
L 886.957219 148.46087 
L 880.021978 151.359494 
L 873.252809 153.418252 
L 869.80814 154.946842 
L 866.748503 155.57245 
L 864.165644 157.173333 
L 861.45283 159.16701 
L 857.863636 160.195 
" style="fill:none;stroke:#bcbd22;stroke-linecap:square;stroke-width:1.5;"/>
   </g>
   <g id="line2d_23">
    <path clip-path="url(#p45fdddfc9d)" d="M 972 60.48 
L 936.094376 70.619857 
L 902.635359 82.886467 
L 870.182469 92.966335 
L 845.204028 103.979077 
L 818.382504 115.44412 
L 792.692887 127.320501 
L 768.238525 134.36217 
L 743.971154 143.584 
L 724.390244 154.548459 
L 706.326656 163.569586 
L 686.501878 174.983529 
L 671.25167 182.882625 
L 651.899129 192.261176 
L 636.008541 198.788722 
L 621.301676 205.506436 
L 604.425561 213.539542 
L 588.096 220.752839 
L 572.958743 228.963512 
L 561.589562 234.960768 
L 549.278058 239.358232 
L 535.349442 244.545981 
L 522.878049 248.076973 
L 509.170557 253.342215 
L 497.078546 256.706777 
L 482.944573 261.270466 
L 472.753557 264.777621 
L 463.603477 268.58087 
L 454.011031 273.0924 
L 443.056161 276.414499 
L 433.091056 279.265171 
L 426.091493 282.545034 
L 418.73634 286.095719 
L 411.948529 288.869098 
L 406.270256 292.512063 
L 400.15814 295.687607 
L 394.418545 299.565 
L 387.164885 302.571493 
L 380.109375 304.781918 
L 374.023046 306.766137 
L 367.940648 309.219004 
L 362.670623 311.935217 
L 356.667484 315.099474 
L 351.078909 316.506603 
L 344.653179 319.654692 
L 338.920711 321.609499 
L 335.256447 324.158049 
L 329.346154 327.355142 
L 323.098731 329.787389 
L 318.008392 331.759223 
L 314.716798 333.94 
L 311.858062 336.249692 
L 308.028169 338.176663 
L 304.05668 340.268638 
L 300.531696 342.544768 
L 296.376277 344.845301 
L 292.353045 347.34 
L 289.058124 349.346868 
L 286.282713 351.176629 
L 282.91967 352.727578 
L 280.065637 355.133333 
L 276.936941 356.742965 
L 274.322745 358.365274 
L 271.688917 360.552237 
L 269.074028 362.342227 
L 265.08375 363.6675 
L 261.55551 364.581385 
L 256.638946 366.031595 
L 253.546531 367.26106 
L 249.136364 369.109014 
L 246.622482 370.050075 
L 244.363527 371.214709 
L 239.6668 371.674413 
L 237.469493 373.249426 
L 234.72906 375.185938 
L 230.694597 375.628381 
L 227.927542 377.585956 
L 224.93367 379.509305 
L 222.356011 380.880348 
L 220.118644 382.074687 
L 218.892119 384.159194 
L 217.296494 385.422939 
L 214.532497 387.04186 
L 211.579962 388.700491 
L 209.624858 390.219981 
L 207.550469 391.221726 
L 205.974598 393.042498 
L 204.024517 394.121 
L 201.241864 395.729543 
L 198.36226 396.709091 
L 195.906284 398.141555 
L 194.435578 399.119671 
L 193.742182 400.337041 
L 192.013043 400.864 
L 189.994224 402.564038 
L 188.080975 404.063417 
L 185.518929 405.188402 
L 183.569242 405.786345 
L 182.159107 407.010786 
L 180.826563 408.188685 
L 179.301341 408.949547 
" style="fill:none;stroke:#17becf;stroke-linecap:square;stroke-width:1.5;"/>
   </g>
   <g id="patch_3">
    <path d="M 135 448.56 
L 135 60.48 
" style="fill:none;stroke:#000000;stroke-linecap:square;stroke-linejoin:miter;stroke-width:0.8;"/>
   </g>
   <g id="patch_4">
    <path d="M 972 448.56 
L 972 60.48 
" style="fill:none;stroke:#000000;stroke-linecap:square;stroke-linejoin:miter;stroke-width:0.8;"/>
   </g>
   <g id="patch_5">
    <path d="M 135 448.56 
L 972 448.56 
" style="fill:none;stroke:#000000;stroke-linecap:square;stroke-linejoin:miter;stroke-width:0.8;"/>
   </g>
   <g id="patch_6">
    <path d="M 135 60.48 
L 972 60.48 
" style="fill:none;stroke:#000000;stroke-linecap:square;stroke-linejoin:miter;stroke-width:0.8;"/>
   </g>
   <g id="legend_1">
    <g id="patch_7">
     <path d="M 147.6 339.08625 
L 256.730625 339.08625 
Q 260.330625 339.08625 260.330625 335.48625 
L 260.330625 73.08 
Q 260.330625 69.48 256.730625 69.48 
L 147.6 69.48 
Q 144 69.48 144 73.08 
L 144 335.48625 
Q 144 339.08625 147.6 339.08625 
z
" style="fill:#ffffff;opacity:0.8;stroke:#cccccc;stroke-linejoin:miter;"/>
    </g>
    <g id="line2d_24">
     <path d="M 151.2 84.057188 
L 187.2 84.057188 
" style="fill:none;stroke:#1f77b4;stroke-linecap:square;stroke-width:1.5;"/>
    </g>
    <g id="line2d_25"/>
    <g id="text_15">
     <!-- 0.001 -->
     <g transform="translate(201.6 90.357188)scale(0.18 -0.18)">
      <use xlink:href="#DejaVuSans-30"/>
      <use x="63.623047" xlink:href="#DejaVuSans-2e"/>
      <use x="95.410156" xlink:href="#DejaVuSans-30"/>
      <use x="159.033203" xlink:href="#DejaVuSans-30"/>
      <use x="222.65625" xlink:href="#DejaVuSans-31"/>
     </g>
    </g>
    <g id="line2d_26">
     <path d="M 151.2 110.477812 
L 187.2 110.477812 
" style="fill:none;stroke:#ff7f0e;stroke-linecap:square;stroke-width:1.5;"/>
    </g>
    <g id="line2d_27"/>
    <g id="text_16">
     <!-- 0.011 -->
     <g transform="translate(201.6 116.777812)scale(0.18 -0.18)">
      <use xlink:href="#DejaVuSans-30"/>
      <use x="63.623047" xlink:href="#DejaVuSans-2e"/>
      <use x="95.410156" xlink:href="#DejaVuSans-30"/>
      <use x="159.033203" xlink:href="#DejaVuSans-31"/>
      <use x="222.65625" xlink:href="#DejaVuSans-31"/>
     </g>
    </g>
    <g id="line2d_28">
     <path d="M 151.2 136.898438 
L 187.2 136.898438 
" style="fill:none;stroke:#2ca02c;stroke-linecap:square;stroke-width:1.5;"/>
    </g>
    <g id="line2d_29"/>
    <g id="text_17">
     <!-- 0.021 -->
     <g transform="translate(201.6 143.198438)scale(0.18 -0.18)">
      <use xlink:href="#DejaVuSans-30"/>
      <use x="63.623047" xlink:href="#DejaVuSans-2e"/>
      <use x="95.410156" xlink:href="#DejaVuSans-30"/>
      <use x="159.033203" xlink:href="#DejaVuSans-32"/>
      <use x="222.65625" xlink:href="#DejaVuSans-31"/>
     </g>
    </g>
    <g id="line2d_30">
     <path d="M 151.2 163.319062 
L 187.2 163.319062 
" style="fill:none;stroke:#d62728;stroke-linecap:square;stroke-width:1.5;"/>
    </g>
    <g id="line2d_31"/>
    <g id="text_18">
     <!-- 0.031 -->
     <g transform="translate(201.6 169.619062)scale(0.18 -0.18)">
      <defs>
       <path d="M 2597 2516 
Q 3050 2419 3304 2112 
Q 3559 1806 3559 1356 
Q 3559 666 3084 287 
Q 2609 -91 1734 -91 
Q 1441 -91 1130 -33 
Q 819 25 488 141 
L 488 750 
Q 750 597 1062 519 
Q 1375 441 1716 441 
Q 2309 441 2620 675 
Q 2931 909 2931 1356 
Q 2931 1769 2642 2001 
Q 2353 2234 1838 2234 
L 1294 2234 
L 1294 2753 
L 1863 2753 
Q 2328 2753 2575 2939 
Q 2822 3125 2822 3475 
Q 2822 3834 2567 4026 
Q 2313 4219 1838 4219 
Q 1578 4219 1281 4162 
Q 984 4106 628 3988 
L 628 4550 
Q 988 4650 1302 4700 
Q 1616 4750 1894 4750 
Q 2613 4750 3031 4423 
Q 3450 4097 3450 3541 
Q 3450 3153 3228 2886 
Q 3006 2619 2597 2516 
z
" id="DejaVuSans-33" transform="scale(0.015625)"/>
      </defs>
      <use xlink:href="#DejaVuSans-30"/>
      <use x="63.623047" xlink:href="#DejaVuSans-2e"/>
      <use x="95.410156" xlink:href="#DejaVuSans-30"/>
      <use x="159.033203" xlink:href="#DejaVuSans-33"/>
      <use x="222.65625" xlink:href="#DejaVuSans-31"/>
     </g>
    </g>
    <g id="line2d_32">
     <path d="M 151.2 189.739688 
L 187.2 189.739688 
" style="fill:none;stroke:#9467bd;stroke-linecap:square;stroke-width:1.5;"/>
    </g>
    <g id="line2d_33"/>
    <g id="text_19">
     <!-- 0.041 -->
     <g transform="translate(201.6 196.039688)scale(0.18 -0.18)">
      <use xlink:href="#DejaVuSans-30"/>
      <use x="63.623047" xlink:href="#DejaVuSans-2e"/>
      <use x="95.410156" xlink:href="#DejaVuSans-30"/>
      <use x="159.033203" xlink:href="#DejaVuSans-34"/>
      <use x="222.65625" xlink:href="#DejaVuSans-31"/>
     </g>
    </g>
    <g id="line2d_34">
     <path d="M 151.2 216.160312 
L 187.2 216.160312 
" style="fill:none;stroke:#8c564b;stroke-linecap:square;stroke-width:1.5;"/>
    </g>
    <g id="line2d_35"/>
    <g id="text_20">
     <!-- 0.051 -->
     <g transform="translate(201.6 222.460312)scale(0.18 -0.18)">
      <defs>
       <path d="M 691 4666 
L 3169 4666 
L 3169 4134 
L 1269 4134 
L 1269 2991 
Q 1406 3038 1543 3061 
Q 1681 3084 1819 3084 
Q 2600 3084 3056 2656 
Q 3513 2228 3513 1497 
Q 3513 744 3044 326 
Q 2575 -91 1722 -91 
Q 1428 -91 1123 -41 
Q 819 9 494 109 
L 494 744 
Q 775 591 1075 516 
Q 1375 441 1709 441 
Q 2250 441 2565 725 
Q 2881 1009 2881 1497 
Q 2881 1984 2565 2268 
Q 2250 2553 1709 2553 
Q 1456 2553 1204 2497 
Q 953 2441 691 2322 
L 691 4666 
z
" id="DejaVuSans-35" transform="scale(0.015625)"/>
      </defs>
      <use xlink:href="#DejaVuSans-30"/>
      <use x="63.623047" xlink:href="#DejaVuSans-2e"/>
      <use x="95.410156" xlink:href="#DejaVuSans-30"/>
      <use x="159.033203" xlink:href="#DejaVuSans-35"/>
      <use x="222.65625" xlink:href="#DejaVuSans-31"/>
     </g>
    </g>
    <g id="line2d_36">
     <path d="M 151.2 242.580937 
L 187.2 242.580937 
" style="fill:none;stroke:#e377c2;stroke-linecap:square;stroke-width:1.5;"/>
    </g>
    <g id="line2d_37"/>
    <g id="text_21">
     <!-- 0.061 -->
     <g transform="translate(201.6 248.880937)scale(0.18 -0.18)">
      <use xlink:href="#DejaVuSans-30"/>
      <use x="63.623047" xlink:href="#DejaVuSans-2e"/>
      <use x="95.410156" xlink:href="#DejaVuSans-30"/>
      <use x="159.033203" xlink:href="#DejaVuSans-36"/>
      <use x="222.65625" xlink:href="#DejaVuSans-31"/>
     </g>
    </g>
    <g id="line2d_38">
     <path d="M 151.2 269.001562 
L 187.2 269.001562 
" style="fill:none;stroke:#7f7f7f;stroke-linecap:square;stroke-width:1.5;"/>
    </g>
    <g id="line2d_39"/>
    <g id="text_22">
     <!-- 0.071 -->
     <g transform="translate(201.6 275.301562)scale(0.18 -0.18)">
      <defs>
       <path d="M 525 4666 
L 3525 4666 
L 3525 4397 
L 1831 0 
L 1172 0 
L 2766 4134 
L 525 4134 
L 525 4666 
z
" id="DejaVuSans-37" transform="scale(0.015625)"/>
      </defs>
      <use xlink:href="#DejaVuSans-30"/>
      <use x="63.623047" xlink:href="#DejaVuSans-2e"/>
      <use x="95.410156" xlink:href="#DejaVuSans-30"/>
      <use x="159.033203" xlink:href="#DejaVuSans-37"/>
      <use x="222.65625" xlink:href="#DejaVuSans-31"/>
     </g>
    </g>
    <g id="line2d_40">
     <path d="M 151.2 295.422188 
L 187.2 295.422188 
" style="fill:none;stroke:#bcbd22;stroke-linecap:square;stroke-width:1.5;"/>
    </g>
    <g id="line2d_41"/>
    <g id="text_23">
     <!-- 0.081 -->
     <g transform="translate(201.6 301.722188)scale(0.18 -0.18)">
      <use xlink:href="#DejaVuSans-30"/>
      <use x="63.623047" xlink:href="#DejaVuSans-2e"/>
      <use x="95.410156" xlink:href="#DejaVuSans-30"/>
      <use x="159.033203" xlink:href="#DejaVuSans-38"/>
      <use x="222.65625" xlink:href="#DejaVuSans-31"/>
     </g>
    </g>
    <g id="line2d_42">
     <path d="M 151.2 321.842812 
L 187.2 321.842812 
" style="fill:none;stroke:#17becf;stroke-linecap:square;stroke-width:1.5;"/>
    </g>
    <g id="line2d_43"/>
    <g id="text_24">
     <!-- 0.091 -->
     <g transform="translate(201.6 328.142812)scale(0.18 -0.18)">
      <defs>
       <path d="M 703 97 
L 703 672 
Q 941 559 1184 500 
Q 1428 441 1663 441 
Q 2288 441 2617 861 
Q 2947 1281 2994 2138 
Q 2813 1869 2534 1725 
Q 2256 1581 1919 1581 
Q 1219 1581 811 2004 
Q 403 2428 403 3163 
Q 403 3881 828 4315 
Q 1253 4750 1959 4750 
Q 2769 4750 3195 4129 
Q 3622 3509 3622 2328 
Q 3622 1225 3098 567 
Q 2575 -91 1691 -91 
Q 1453 -91 1209 -44 
Q 966 3 703 97 
z
M 1959 2075 
Q 2384 2075 2632 2365 
Q 2881 2656 2881 3163 
Q 2881 3666 2632 3958 
Q 2384 4250 1959 4250 
Q 1534 4250 1286 3958 
Q 1038 3666 1038 3163 
Q 1038 2656 1286 2365 
Q 1534 2075 1959 2075 
z
" id="DejaVuSans-39" transform="scale(0.015625)"/>
      </defs>
      <use xlink:href="#DejaVuSans-30"/>
      <use x="63.623047" xlink:href="#DejaVuSans-2e"/>
      <use x="95.410156" xlink:href="#DejaVuSans-30"/>
      <use x="159.033203" xlink:href="#DejaVuSans-39"/>
      <use x="222.65625" xlink:href="#DejaVuSans-31"/>
     </g>
    </g>
   </g>
  </g>
 </g>
 <defs>
  <clipPath id="p45fdddfc9d">
   <rect height="388.08" width="837" x="135" y="60.48"/>
  </clipPath>
 </defs>
</svg>
