<?xml version="1.0" encoding="utf-8" standalone="no"?>
<!DOCTYPE svg PUBLIC "-//W3C//DTD SVG 1.1//EN"
  "http://www.w3.org/Graphics/SVG/1.1/DTD/svg11.dtd">
<svg height="504pt" version="1.1" viewBox="0 0 1080 504" width="1080pt" xmlns="http://www.w3.org/2000/svg" xmlns:xlink="http://www.w3.org/1999/xlink">
 <metadata>
  <rdf:RDF xmlns:cc="http://creativecommons.org/ns#" xmlns:dc="http://purl.org/dc/elements/1.1/" xmlns:rdf="http://www.w3.org/1999/02/22-rdf-syntax-ns#">
   <cc:Work>
    <dc:type rdf:resource="http://purl.org/dc/dcmitype/StillImage"/>
    <dc:date>2022-01-07T13:22:36.775723</dc:date>
    <dc:format>image/svg+xml</dc:format>
    <dc:creator>
     <cc:Agent>
      <dc:title>Matplotlib v3.4.3, https://matplotlib.org/</dc:title>
     </cc:Agent>
    </dc:creator>
   </cc:Work>
  </rdf:RDF>
 </metadata>
 <defs>
  <style type="text/css">*{stroke-linecap:butt;stroke-linejoin:round;}</style>
 </defs>
 <g id="figure_1">
  <g id="patch_1">
   <path d="M 0 504 
L 1080 504 
L 1080 0 
L 0 0 
z
" style="fill:#ffffff;"/>
  </g>
  <g id="axes_1">
   <g id="patch_2">
    <path d="M 135 448.56 
L 972 448.56 
L 972 60.48 
L 135 60.48 
z
" style="fill:#ffffff;"/>
   </g>
   <g id="matplotlib.axis_1">
    <g id="xtick_1">
     <g id="line2d_1">
      <defs>
       <path d="M 0 0 
L 0 3.5 
" id="mdf01cb2374" style="stroke:#000000;stroke-width:0.8;"/>
      </defs>
      <g>
       <use style="stroke:#000000;stroke-width:0.8;" x="135" xlink:href="#mdf01cb2374" y="448.56"/>
      </g>
     </g>
     <g id="text_1">
      <!-- 0.0 -->
      <g transform="translate(120.687187 469.237188)scale(0.18 -0.18)">
       <defs>
        <path d="M 2034 4250 
Q 1547 4250 1301 3770 
Q 1056 3291 1056 2328 
Q 1056 1369 1301 889 
Q 1547 409 2034 409 
Q 2525 409 2770 889 
Q 3016 1369 3016 2328 
Q 3016 3291 2770 3770 
Q 2525 4250 2034 4250 
z
M 2034 4750 
Q 2819 4750 3233 4129 
Q 3647 3509 3647 2328 
Q 3647 1150 3233 529 
Q 2819 -91 2034 -91 
Q 1250 -91 836 529 
Q 422 1150 422 2328 
Q 422 3509 836 4129 
Q 1250 4750 2034 4750 
z
" id="DejaVuSans-30" transform="scale(0.015625)"/>
        <path d="M 684 794 
L 1344 794 
L 1344 0 
L 684 0 
L 684 794 
z
" id="DejaVuSans-2e" transform="scale(0.015625)"/>
       </defs>
       <use xlink:href="#DejaVuSans-30"/>
       <use x="63.623047" xlink:href="#DejaVuSans-2e"/>
       <use x="95.410156" xlink:href="#DejaVuSans-30"/>
      </g>
     </g>
    </g>
    <g id="xtick_2">
     <g id="line2d_2">
      <g>
       <use style="stroke:#000000;stroke-width:0.8;" x="302.4" xlink:href="#mdf01cb2374" y="448.56"/>
      </g>
     </g>
     <g id="text_2">
      <!-- 0.2 -->
      <g transform="translate(288.087187 469.237188)scale(0.18 -0.18)">
       <defs>
        <path d="M 1228 531 
L 3431 531 
L 3431 0 
L 469 0 
L 469 531 
Q 828 903 1448 1529 
Q 2069 2156 2228 2338 
Q 2531 2678 2651 2914 
Q 2772 3150 2772 3378 
Q 2772 3750 2511 3984 
Q 2250 4219 1831 4219 
Q 1534 4219 1204 4116 
Q 875 4013 500 3803 
L 500 4441 
Q 881 4594 1212 4672 
Q 1544 4750 1819 4750 
Q 2544 4750 2975 4387 
Q 3406 4025 3406 3419 
Q 3406 3131 3298 2873 
Q 3191 2616 2906 2266 
Q 2828 2175 2409 1742 
Q 1991 1309 1228 531 
z
" id="DejaVuSans-32" transform="scale(0.015625)"/>
       </defs>
       <use xlink:href="#DejaVuSans-30"/>
       <use x="63.623047" xlink:href="#DejaVuSans-2e"/>
       <use x="95.410156" xlink:href="#DejaVuSans-32"/>
      </g>
     </g>
    </g>
    <g id="xtick_3">
     <g id="line2d_3">
      <g>
       <use style="stroke:#000000;stroke-width:0.8;" x="469.8" xlink:href="#mdf01cb2374" y="448.56"/>
      </g>
     </g>
     <g id="text_3">
      <!-- 0.4 -->
      <g transform="translate(455.487188 469.237188)scale(0.18 -0.18)">
       <defs>
        <path d="M 2419 4116 
L 825 1625 
L 2419 1625 
L 2419 4116 
z
M 2253 4666 
L 3047 4666 
L 3047 1625 
L 3713 1625 
L 3713 1100 
L 3047 1100 
L 3047 0 
L 2419 0 
L 2419 1100 
L 313 1100 
L 313 1709 
L 2253 4666 
z
" id="DejaVuSans-34" transform="scale(0.015625)"/>
       </defs>
       <use xlink:href="#DejaVuSans-30"/>
       <use x="63.623047" xlink:href="#DejaVuSans-2e"/>
       <use x="95.410156" xlink:href="#DejaVuSans-34"/>
      </g>
     </g>
    </g>
    <g id="xtick_4">
     <g id="line2d_4">
      <g>
       <use style="stroke:#000000;stroke-width:0.8;" x="637.2" xlink:href="#mdf01cb2374" y="448.56"/>
      </g>
     </g>
     <g id="text_4">
      <!-- 0.6 -->
      <g transform="translate(622.887188 469.237188)scale(0.18 -0.18)">
       <defs>
        <path d="M 2113 2584 
Q 1688 2584 1439 2293 
Q 1191 2003 1191 1497 
Q 1191 994 1439 701 
Q 1688 409 2113 409 
Q 2538 409 2786 701 
Q 3034 994 3034 1497 
Q 3034 2003 2786 2293 
Q 2538 2584 2113 2584 
z
M 3366 4563 
L 3366 3988 
Q 3128 4100 2886 4159 
Q 2644 4219 2406 4219 
Q 1781 4219 1451 3797 
Q 1122 3375 1075 2522 
Q 1259 2794 1537 2939 
Q 1816 3084 2150 3084 
Q 2853 3084 3261 2657 
Q 3669 2231 3669 1497 
Q 3669 778 3244 343 
Q 2819 -91 2113 -91 
Q 1303 -91 875 529 
Q 447 1150 447 2328 
Q 447 3434 972 4092 
Q 1497 4750 2381 4750 
Q 2619 4750 2861 4703 
Q 3103 4656 3366 4563 
z
" id="DejaVuSans-36" transform="scale(0.015625)"/>
       </defs>
       <use xlink:href="#DejaVuSans-30"/>
       <use x="63.623047" xlink:href="#DejaVuSans-2e"/>
       <use x="95.410156" xlink:href="#DejaVuSans-36"/>
      </g>
     </g>
    </g>
    <g id="xtick_5">
     <g id="line2d_5">
      <g>
       <use style="stroke:#000000;stroke-width:0.8;" x="804.6" xlink:href="#mdf01cb2374" y="448.56"/>
      </g>
     </g>
     <g id="text_5">
      <!-- 0.8 -->
      <g transform="translate(790.287188 469.237188)scale(0.18 -0.18)">
       <defs>
        <path d="M 2034 2216 
Q 1584 2216 1326 1975 
Q 1069 1734 1069 1313 
Q 1069 891 1326 650 
Q 1584 409 2034 409 
Q 2484 409 2743 651 
Q 3003 894 3003 1313 
Q 3003 1734 2745 1975 
Q 2488 2216 2034 2216 
z
M 1403 2484 
Q 997 2584 770 2862 
Q 544 3141 544 3541 
Q 544 4100 942 4425 
Q 1341 4750 2034 4750 
Q 2731 4750 3128 4425 
Q 3525 4100 3525 3541 
Q 3525 3141 3298 2862 
Q 3072 2584 2669 2484 
Q 3125 2378 3379 2068 
Q 3634 1759 3634 1313 
Q 3634 634 3220 271 
Q 2806 -91 2034 -91 
Q 1263 -91 848 271 
Q 434 634 434 1313 
Q 434 1759 690 2068 
Q 947 2378 1403 2484 
z
M 1172 3481 
Q 1172 3119 1398 2916 
Q 1625 2713 2034 2713 
Q 2441 2713 2670 2916 
Q 2900 3119 2900 3481 
Q 2900 3844 2670 4047 
Q 2441 4250 2034 4250 
Q 1625 4250 1398 4047 
Q 1172 3844 1172 3481 
z
" id="DejaVuSans-38" transform="scale(0.015625)"/>
       </defs>
       <use xlink:href="#DejaVuSans-30"/>
       <use x="63.623047" xlink:href="#DejaVuSans-2e"/>
       <use x="95.410156" xlink:href="#DejaVuSans-38"/>
      </g>
     </g>
    </g>
    <g id="xtick_6">
     <g id="line2d_6">
      <g>
       <use style="stroke:#000000;stroke-width:0.8;" x="972" xlink:href="#mdf01cb2374" y="448.56"/>
      </g>
     </g>
     <g id="text_6">
      <!-- 1.0 -->
      <g transform="translate(957.687188 469.237188)scale(0.18 -0.18)">
       <defs>
        <path d="M 794 531 
L 1825 531 
L 1825 4091 
L 703 3866 
L 703 4441 
L 1819 4666 
L 2450 4666 
L 2450 531 
L 3481 531 
L 3481 0 
L 794 0 
L 794 531 
z
" id="DejaVuSans-31" transform="scale(0.015625)"/>
       </defs>
       <use xlink:href="#DejaVuSans-31"/>
       <use x="63.623047" xlink:href="#DejaVuSans-2e"/>
       <use x="95.410156" xlink:href="#DejaVuSans-30"/>
      </g>
     </g>
    </g>
    <g id="text_7">
     <!-- $FPR_{Fair}$ -->
     <g transform="translate(518.08 493.697187)scale(0.22 -0.22)">
      <defs>
       <path d="M 1081 4666 
L 3756 4666 
L 3653 4134 
L 1606 4134 
L 1338 2759 
L 3188 2759 
L 3084 2228 
L 1234 2228 
L 800 0 
L 172 0 
L 1081 4666 
z
" id="DejaVuSans-Oblique-46" transform="scale(0.015625)"/>
       <path d="M 1081 4666 
L 2541 4666 
Q 3178 4666 3512 4369 
Q 3847 4072 3847 3500 
Q 3847 2731 3353 2303 
Q 2859 1875 1966 1875 
L 1172 1875 
L 806 0 
L 172 0 
L 1081 4666 
z
M 1613 4147 
L 1275 2394 
L 2069 2394 
Q 2606 2394 2893 2669 
Q 3181 2944 3181 3456 
Q 3181 3784 2986 3965 
Q 2791 4147 2438 4147 
L 1613 4147 
z
" id="DejaVuSans-Oblique-50" transform="scale(0.015625)"/>
       <path d="M 1613 4147 
L 1294 2491 
L 2106 2491 
Q 2584 2491 2879 2755 
Q 3175 3019 3175 3444 
Q 3175 3784 2976 3965 
Q 2778 4147 2406 4147 
L 1613 4147 
z
M 2772 2241 
Q 2972 2194 3105 2009 
Q 3238 1825 3413 1275 
L 3809 0 
L 3144 0 
L 2778 1197 
Q 2638 1659 2453 1815 
Q 2269 1972 1888 1972 
L 1191 1972 
L 806 0 
L 172 0 
L 1081 4666 
L 2503 4666 
Q 3150 4666 3495 4373 
Q 3841 4081 3841 3531 
Q 3841 3044 3547 2687 
Q 3253 2331 2772 2241 
z
" id="DejaVuSans-Oblique-52" transform="scale(0.015625)"/>
       <path d="M 3438 1997 
L 3047 0 
L 2472 0 
L 2578 531 
Q 2325 219 2001 64 
Q 1678 -91 1281 -91 
Q 834 -91 548 182 
Q 263 456 263 884 
Q 263 1497 752 1853 
Q 1241 2209 2100 2209 
L 2900 2209 
L 2931 2363 
Q 2938 2388 2941 2417 
Q 2944 2447 2944 2509 
Q 2944 2788 2717 2942 
Q 2491 3097 2081 3097 
Q 1800 3097 1504 3025 
Q 1209 2953 897 2809 
L 997 3341 
Q 1322 3463 1633 3523 
Q 1944 3584 2234 3584 
Q 2853 3584 3176 3315 
Q 3500 3047 3500 2534 
Q 3500 2431 3484 2292 
Q 3469 2153 3438 1997 
z
M 2816 1759 
L 2241 1759 
Q 1534 1759 1195 1570 
Q 856 1381 856 984 
Q 856 709 1029 553 
Q 1203 397 1509 397 
Q 1978 397 2328 733 
Q 2678 1069 2791 1631 
L 2816 1759 
z
" id="DejaVuSans-Oblique-61" transform="scale(0.015625)"/>
       <path d="M 1172 4863 
L 1747 4863 
L 1606 4134 
L 1031 4134 
L 1172 4863 
z
M 909 3500 
L 1484 3500 
L 800 0 
L 225 0 
L 909 3500 
z
" id="DejaVuSans-Oblique-69" transform="scale(0.015625)"/>
       <path d="M 2853 2969 
Q 2766 3016 2653 3041 
Q 2541 3066 2413 3066 
Q 1953 3066 1609 2717 
Q 1266 2369 1153 1784 
L 800 0 
L 225 0 
L 909 3500 
L 1484 3500 
L 1375 2956 
Q 1603 3259 1920 3421 
Q 2238 3584 2597 3584 
Q 2691 3584 2781 3573 
Q 2872 3563 2963 3538 
L 2853 2969 
z
" id="DejaVuSans-Oblique-72" transform="scale(0.015625)"/>
      </defs>
      <use transform="translate(0 0.09375)" xlink:href="#DejaVuSans-Oblique-46"/>
      <use transform="translate(57.519531 0.09375)" xlink:href="#DejaVuSans-Oblique-50"/>
      <use transform="translate(117.822266 0.09375)" xlink:href="#DejaVuSans-Oblique-52"/>
      <use transform="translate(187.304688 -16.3125)scale(0.7)" xlink:href="#DejaVuSans-Oblique-46"/>
      <use transform="translate(227.568359 -16.3125)scale(0.7)" xlink:href="#DejaVuSans-Oblique-61"/>
      <use transform="translate(270.463867 -16.3125)scale(0.7)" xlink:href="#DejaVuSans-Oblique-69"/>
      <use transform="translate(289.912109 -16.3125)scale(0.7)" xlink:href="#DejaVuSans-Oblique-72"/>
     </g>
    </g>
   </g>
   <g id="matplotlib.axis_2">
    <g id="ytick_1">
     <g id="line2d_7">
      <defs>
       <path d="M 0 0 
L -3.5 0 
" id="m75d6be79c9" style="stroke:#000000;stroke-width:0.8;"/>
      </defs>
      <g>
       <use style="stroke:#000000;stroke-width:0.8;" x="135" xlink:href="#m75d6be79c9" y="448.56"/>
      </g>
     </g>
     <g id="text_8">
      <!-- 0.0 -->
      <g transform="translate(99.374375 455.398594)scale(0.18 -0.18)">
       <use xlink:href="#DejaVuSans-30"/>
       <use x="63.623047" xlink:href="#DejaVuSans-2e"/>
       <use x="95.410156" xlink:href="#DejaVuSans-30"/>
      </g>
     </g>
    </g>
    <g id="ytick_2">
     <g id="line2d_8">
      <g>
       <use style="stroke:#000000;stroke-width:0.8;" x="135" xlink:href="#m75d6be79c9" y="370.944"/>
      </g>
     </g>
     <g id="text_9">
      <!-- 0.2 -->
      <g transform="translate(99.374375 377.782594)scale(0.18 -0.18)">
       <use xlink:href="#DejaVuSans-30"/>
       <use x="63.623047" xlink:href="#DejaVuSans-2e"/>
       <use x="95.410156" xlink:href="#DejaVuSans-32"/>
      </g>
     </g>
    </g>
    <g id="ytick_3">
     <g id="line2d_9">
      <g>
       <use style="stroke:#000000;stroke-width:0.8;" x="135" xlink:href="#m75d6be79c9" y="293.328"/>
      </g>
     </g>
     <g id="text_10">
      <!-- 0.4 -->
      <g transform="translate(99.374375 300.166594)scale(0.18 -0.18)">
       <use xlink:href="#DejaVuSans-30"/>
       <use x="63.623047" xlink:href="#DejaVuSans-2e"/>
       <use x="95.410156" xlink:href="#DejaVuSans-34"/>
      </g>
     </g>
    </g>
    <g id="ytick_4">
     <g id="line2d_10">
      <g>
       <use style="stroke:#000000;stroke-width:0.8;" x="135" xlink:href="#m75d6be79c9" y="215.712"/>
      </g>
     </g>
     <g id="text_11">
      <!-- 0.6 -->
      <g transform="translate(99.374375 222.550594)scale(0.18 -0.18)">
       <use xlink:href="#DejaVuSans-30"/>
       <use x="63.623047" xlink:href="#DejaVuSans-2e"/>
       <use x="95.410156" xlink:href="#DejaVuSans-36"/>
      </g>
     </g>
    </g>
    <g id="ytick_5">
     <g id="line2d_11">
      <g>
       <use style="stroke:#000000;stroke-width:0.8;" x="135" xlink:href="#m75d6be79c9" y="138.096"/>
      </g>
     </g>
     <g id="text_12">
      <!-- 0.8 -->
      <g transform="translate(99.374375 144.934594)scale(0.18 -0.18)">
       <use xlink:href="#DejaVuSans-30"/>
       <use x="63.623047" xlink:href="#DejaVuSans-2e"/>
       <use x="95.410156" xlink:href="#DejaVuSans-38"/>
      </g>
     </g>
    </g>
    <g id="ytick_6">
     <g id="line2d_12">
      <g>
       <use style="stroke:#000000;stroke-width:0.8;" x="135" xlink:href="#m75d6be79c9" y="60.48"/>
      </g>
     </g>
     <g id="text_13">
      <!-- 1.0 -->
      <g transform="translate(99.374375 67.318594)scale(0.18 -0.18)">
       <use xlink:href="#DejaVuSans-31"/>
       <use x="63.623047" xlink:href="#DejaVuSans-2e"/>
       <use x="95.410156" xlink:href="#DejaVuSans-30"/>
      </g>
     </g>
    </g>
    <g id="text_14">
     <!-- $TPR_{Fair}$ -->
     <g transform="translate(90.799062 290.27)rotate(-90)scale(0.22 -0.22)">
      <defs>
       <path d="M 378 4666 
L 4325 4666 
L 4225 4134 
L 2559 4134 
L 1759 0 
L 1125 0 
L 1925 4134 
L 275 4134 
L 378 4666 
z
" id="DejaVuSans-Oblique-54" transform="scale(0.015625)"/>
      </defs>
      <use transform="translate(0 0.09375)" xlink:href="#DejaVuSans-Oblique-54"/>
      <use transform="translate(61.083984 0.09375)" xlink:href="#DejaVuSans-Oblique-50"/>
      <use transform="translate(121.386719 0.09375)" xlink:href="#DejaVuSans-Oblique-52"/>
      <use transform="translate(190.869141 -16.3125)scale(0.7)" xlink:href="#DejaVuSans-Oblique-46"/>
      <use transform="translate(231.132812 -16.3125)scale(0.7)" xlink:href="#DejaVuSans-Oblique-61"/>
      <use transform="translate(274.02832 -16.3125)scale(0.7)" xlink:href="#DejaVuSans-Oblique-69"/>
      <use transform="translate(293.476562 -16.3125)scale(0.7)" xlink:href="#DejaVuSans-Oblique-72"/>
     </g>
    </g>
   </g>
   <g id="line2d_13">
    <path clip-path="url(#pcbc0211b05)" d="M 135 448.56 
L 972 60.48 
" style="fill:none;stroke:#ff0000;stroke-dasharray:5.55,2.4;stroke-dashoffset:0;stroke-width:1.5;"/>
   </g>
   <g id="line2d_14">
    <path clip-path="url(#pcbc0211b05)" d="M 972 60.48 
L 562.859425 266.488666 
L 422.680629 329.350411 
L 352.596538 359.448199 
L 310.506208 377.190407 
L 282.738489 388.734808 
L 262.991249 396.954075 
L 248.168816 403.071326 
L 236.648212 407.806111 
L 227.371731 411.52752 
L 219.685282 414.557101 
L 213.368126 416.983721 
L 207.936469 418.986749 
L 203.202362 420.680338 
L 199.093467 422.163524 
L 195.445857 423.459025 
L 192.227696 424.641083 
L 189.342718 425.667236 
L 186.661373 426.56827 
L 184.22481 427.390842 
L 182.053491 428.158504 
L 180.016062 428.847528 
L 178.172762 429.495518 
L 176.453833 430.105678 
L 174.832176 430.679929 
L 173.318952 431.215045 
L 171.918655 431.732471 
L 170.551494 432.199249 
L 169.297428 432.645908 
L 168.123883 433.080302 
L 167.016543 433.49408 
L 165.982192 433.872058 
L 165.008639 434.247426 
L 164.073937 434.582915 
L 163.171105 434.919854 
L 162.320121 435.259474 
L 161.492119 435.579137 
L 160.716975 435.891969 
L 159.981616 436.196608 
L 159.297038 436.475252 
L 158.624396 436.742815 
L 157.965426 437.016018 
L 157.352914 437.282827 
L 156.761852 437.544056 
L 156.204474 437.78887 
L 155.675706 438.024093 
L 155.162621 438.25682 
L 154.674811 438.47732 
L 154.183013 438.697572 
L 153.72033 438.901907 
L 153.276487 439.10503 
L 152.847 439.299762 
L 152.442841 439.487681 
L 152.037113 439.669976 
L 151.652915 439.853753 
L 151.284053 440.025558 
L 150.913539 440.193058 
L 150.573214 440.358525 
L 150.24618 440.503292 
L 149.938248 440.644881 
L 149.63148 440.782148 
L 149.329081 440.911493 
L 149.034588 441.041502 
L 148.741338 441.172719 
L 148.475854 441.298469 
L 148.221585 441.419401 
L 147.963546 441.544781 
L 147.713241 441.661415 
L 147.472866 441.77202 
L 147.232075 441.882146 
L 147.006499 441.990253 
L 146.773419 442.094587 
L 146.562401 442.198288 
L 146.350669 442.298864 
L 146.146321 442.399056 
L 145.948586 442.503104 
L 145.753772 442.601309 
L 145.557685 442.701595 
L 145.373874 442.790399 
L 145.190855 442.892218 
L 145.01814 442.980132 
L 144.847638 443.069597 
L 144.667812 443.153639 
L 144.505337 443.246067 
L 144.344157 443.329958 
L 144.183874 443.408449 
L 144.020652 443.495526 
L 143.852666 443.575521 
L 143.697192 443.653167 
L 143.544879 443.733243 
L 143.397987 443.822485 
L 143.248339 443.907333 
L 143.101129 443.989281 
L 142.971592 444.069552 
L 142.83684 444.157371 
L 142.707378 444.241037 
L 142.584978 444.326058 
L 142.453763 444.406837 
L 142.338826 444.498656 
L 142.219987 444.581696 
L 142.091908 444.671001 
" style="fill:none;stroke:#1f77b4;stroke-linecap:square;stroke-width:1.5;"/>
   </g>
   <g id="line2d_15">
    <path clip-path="url(#pcbc0211b05)" d="M 972 60.48 
L 971.874046 60.511429 
L 971.8142 60.552573 
L 971.694237 60.5624 
L 971.562715 60.620022 
L 971.371899 60.674819 
L 971.118814 60.720398 
L 970.739978 60.743639 
L 970.41637 60.773494 
L 970.01152 60.826058 
L 969.507494 60.901583 
L 969.050106 60.964393 
L 968.777949 61.014581 
L 968.582618 61.035605 
L 968.386919 61.079658 
L 968.129626 61.16646 
L 967.934503 61.273391 
L 967.811943 61.318243 
L 967.628614 61.35973 
L 967.518917 61.398427 
L 967.399122 61.450532 
L 967.325829 61.532944 
L 967.214768 61.592168 
L 967.103073 61.608247 
L 966.971088 61.651322 
L 966.862975 61.71452 
L 966.745269 61.737778 
L 966.655294 61.757735 
L 966.548098 61.767591 
L 966.489577 61.842101 
L 966.422722 61.913324 
L 966.350192 61.930607 
L 966.262741 61.961509 
L 966.187066 61.975174 
L 966.075824 61.995978 
L 965.948958 62.027371 
L 965.802843 62.076127 
L 965.643032 62.138817 
L 965.532163 62.178145 
L 965.467157 62.227544 
L 965.392659 62.252628 
L 965.30805 62.316572 
L 965.226068 62.339141 
L 965.102076 62.411149 
L 964.974257 62.437399 
L 964.825478 62.478024 
L 964.714916 62.511517 
L 964.662689 62.544841 
L 964.598231 62.586128 
L 964.516 62.616764 
L 964.416314 62.676105 
L 964.323145 62.699673 
L 964.224409 62.723799 
L 964.062755 62.780327 
L 963.970186 62.815628 
L 963.88355 62.865916 
L 963.788733 62.919861 
L 963.732671 62.971838 
L 963.650754 63.012064 
L 963.560982 63.066269 
L 963.488851 63.107266 
L 963.407054 63.144816 
L 963.333627 63.178475 
L 963.2434 63.276035 
L 963.077952 63.355247 
L 962.920418 63.419858 
L 962.816787 63.469963 
L 962.724851 63.505877 
L 962.634081 63.552242 
L 962.529094 63.599785 
L 962.441759 63.71267 
L 962.318078 63.771719 
L 962.188791 63.816588 
L 962.104375 63.87328 
L 962.016768 63.953896 
L 961.86906 63.99614 
L 961.717084 64.093127 
L 961.589288 64.152865 
L 961.438343 64.214653 
L 961.327292 64.281248 
L 961.20946 64.333835 
L 960.993203 64.385824 
L 960.807385 64.435178 
L 960.707276 64.485472 
L 960.593682 64.514321 
L 960.438425 64.565857 
L 960.262912 64.640958 
L 960.11702 64.736545 
L 959.940641 64.78516 
L 959.736522 64.880177 
L 959.566982 65.041627 
L 959.440641 65.164038 
L 959.325854 65.226533 
L 959.199772 65.329328 
L 959.038197 65.423855 
L 958.868769 65.534171 
L 958.692896 65.609392 
L 958.533257 65.710882 
L 958.384049 65.834972 
L 958.223013 65.924217 
L 958.07772 66.044735 
" style="fill:none;stroke:#ff7f0e;stroke-linecap:square;stroke-width:1.5;"/>
   </g>
   <g id="line2d_16">
    <path clip-path="url(#pcbc0211b05)" d="M 972 60.48 
L 934.867805 81.087495 
L 900.919528 99.515383 
L 870.463225 116.07232 
L 842.73199 130.895396 
L 817.799359 144.254263 
L 795.088857 156.395528 
L 774.207383 167.525002 
L 755.222375 177.640625 
L 737.551684 186.846553 
L 721.032322 195.324962 
L 705.796083 202.818669 
L 691.493291 209.480031 
L 677.924982 215.566826 
L 665.042619 221.207669 
L 652.766322 226.431557 
L 641.10952 231.436488 
L 629.885552 236.078397 
L 619.038431 240.298719 
L 608.631338 244.295509 
L 598.686436 248.13999 
L 589.088133 251.795608 
L 579.809232 255.300761 
L 570.980207 258.708279 
L 562.174314 262.016627 
L 553.680158 265.191849 
L 545.434444 268.312708 
L 537.339757 271.221019 
L 529.475009 274.048743 
L 521.92298 276.889911 
L 514.592866 279.632597 
L 507.515723 282.199151 
L 500.671879 284.783321 
L 493.911913 287.237704 
L 487.427525 289.681935 
L 481.005738 292.111949 
L 474.698502 294.519415 
L 468.572393 296.930678 
L 462.630446 299.28873 
L 456.93643 301.530842 
L 451.254265 303.723818 
L 445.705977 305.944241 
L 440.350614 308.166581 
L 435.098071 310.343007 
L 429.998149 312.443092 
L 424.968203 314.481324 
L 420.071811 316.486335 
L 415.267128 318.434565 
L 410.607619 320.33984 
L 406.030473 322.198769 
L 401.618618 324.020809 
L 397.255475 325.812409 
L 393.055088 327.567021 
L 388.862037 329.285315 
L 384.760951 330.996434 
L 380.7425 332.678516 
L 376.835107 334.305731 
L 372.973324 335.86165 
L 369.158131 337.371421 
L 365.471748 338.798795 
L 361.886771 340.20346 
L 358.349352 341.567106 
L 354.856687 342.916415 
L 351.437115 344.276645 
L 348.090238 345.609979 
L 344.827159 346.923226 
L 341.641025 348.210095 
L 338.470992 349.460577 
L 335.355651 350.689865 
L 332.323587 351.910931 
L 329.336415 353.100735 
L 326.381069 354.285583 
L 323.453562 355.455645 
L 320.586568 356.60483 
L 317.824188 357.720191 
L 315.091669 358.817284 
L 312.392284 359.914687 
L 309.759538 360.997812 
L 307.199493 362.070367 
L 304.634041 363.151529 
L 302.125586 364.223183 
L 299.699562 365.262954 
L 297.266898 366.281902 
L 294.902314 367.281484 
L 292.55314 368.250345 
L 290.257734 369.203596 
L 287.994558 370.171545 
L 285.742573 371.117338 
L 283.562041 372.046106 
L 281.419083 372.994389 
L 279.303901 373.921604 
L 277.208415 374.862381 
L 275.174189 375.796341 
L 273.162551 376.695033 
L 271.135946 377.622159 
L 269.145724 378.54845 
L 267.17939 379.462733 
L 265.232615 380.416619 
L 263.324176 381.343874 
L 261.455679 382.286901 
L 259.592533 383.222595 
" style="fill:none;stroke:#2ca02c;stroke-linecap:square;stroke-width:1.5;"/>
   </g>
   <g id="line2d_17">
    <path clip-path="url(#pcbc0211b05)" d="M 972 60.48 
L 957.531185 68.49367 
L 943.760433 76.207254 
L 930.554828 83.49176 
L 917.897766 90.2916 
L 905.835338 96.728697 
L 894.216133 102.850953 
L 883.00154 108.645706 
L 872.513081 114.156846 
L 862.28602 119.355096 
L 852.289994 124.403554 
L 842.758041 128.909136 
L 833.608439 133.096196 
L 824.648785 137.053951 
L 815.853245 140.827364 
L 807.217015 144.478661 
L 798.889111 148.033372 
L 790.705048 151.398656 
L 782.601714 154.522961 
L 774.652487 157.509727 
L 766.95661 160.450745 
L 759.345531 163.30269 
L 751.850437 166.117324 
L 744.616989 168.806341 
L 737.285777 171.539697 
L 730.098024 174.241588 
L 723.010068 176.903828 
L 715.975208 179.420541 
L 709.006941 181.853889 
L 702.250191 184.329709 
L 695.569393 186.766631 
L 689.063219 189.085808 
L 682.628525 191.427643 
L 676.195705 193.631102 
L 669.912603 195.952674 
L 663.626755 198.228813 
L 657.43211 200.511903 
L 651.256361 202.8985 
L 645.208084 205.225224 
L 639.328228 207.441385 
L 633.385659 209.641859 
L 627.540538 211.90056 
L 621.793487 214.138804 
L 616.081781 216.385513 
L 610.459016 218.548035 
L 604.94138 220.673644 
L 599.468624 222.786015 
L 594.094109 224.852174 
L 588.841501 226.933518 
L 583.545355 228.964373 
L 578.441489 230.935112 
L 573.31895 232.912979 
L 568.341685 234.869549 
L 563.309729 236.796093 
L 558.355927 238.75444 
L 553.480241 240.704833 
L 548.69048 242.620553 
L 543.925586 244.44353 
L 539.186343 246.215825 
L 534.531159 247.905429 
L 529.948456 249.598174 
L 525.409174 251.240247 
L 520.872426 252.891283 
L 516.357028 254.545168 
L 511.923678 256.182575 
L 507.566632 257.786819 
L 503.288531 259.368522 
L 499.004724 260.932359 
L 494.794551 262.497265 
L 490.668677 264.047184 
L 486.607492 265.559803 
L 482.552096 267.086505 
L 478.467188 268.579886 
L 474.480838 270.058994 
L 470.577514 271.500615 
L 466.668286 272.902106 
L 462.814107 274.359428 
L 459.032021 275.781598 
L 455.318472 277.191131 
L 451.556342 278.605477 
L 447.87213 280.020538 
L 444.252401 281.441806 
L 440.641855 282.808702 
L 437.129608 284.159368 
L 433.602376 285.449675 
L 430.136578 286.743076 
L 426.680216 288.069026 
L 423.260128 289.376202 
L 419.908741 290.645225 
L 416.57755 291.945882 
L 413.302088 293.237851 
L 410.010785 294.535792 
L 406.809008 295.835719 
L 403.620359 297.106115 
L 400.393533 298.423604 
L 397.22652 299.731887 
L 394.060221 301.054293 
L 390.91347 302.407574 
L 387.81176 303.753318 
L 384.763488 305.116299 
L 381.722726 306.444935 
" style="fill:none;stroke:#d62728;stroke-linecap:square;stroke-width:1.5;"/>
   </g>
   <g id="line2d_18">
    <path clip-path="url(#pcbc0211b05)" d="M 972 60.48 
L 971.613334 60.655064 
L 971.228155 60.845347 
L 970.840019 61.067645 
L 970.462901 61.293005 
L 970.1277 61.507921 
L 969.791742 61.742628 
L 969.463555 61.962109 
L 969.153579 62.154202 
L 968.847644 62.385187 
L 968.512051 62.58817 
L 968.216929 62.78892 
L 967.963506 62.979642 
L 967.75773 63.169884 
L 967.573193 63.300915 
L 967.372331 63.466561 
L 967.200098 63.648144 
L 967.057848 63.800682 
L 966.90613 63.949901 
L 966.770719 64.10747 
L 966.64125 64.246543 
L 966.528384 64.393475 
L 966.406221 64.540181 
L 966.2825 64.687454 
L 966.151829 64.833164 
L 966.021057 64.981994 
L 965.890368 65.116133 
L 965.757958 65.259078 
L 965.636099 65.372773 
L 965.520354 65.525726 
L 965.39528 65.673864 
L 965.266027 65.831594 
L 965.122651 65.976448 
L 964.992406 66.104375 
L 964.860601 66.240834 
L 964.712557 66.387209 
L 964.563843 66.54422 
L 964.414608 66.708894 
L 964.28332 66.882658 
L 964.160752 67.035396 
L 964.029298 67.195803 
L 963.898907 67.403303 
L 963.775816 67.562068 
L 963.622994 67.746341 
L 963.474018 67.950444 
L 963.311392 68.129901 
L 963.151214 68.308432 
L 962.995603 68.52056 
L 962.858633 68.695723 
L 962.708606 68.889432 
L 962.564708 69.101359 
L 962.415434 69.312473 
L 962.264558 69.515557 
L 962.102869 69.711162 
L 961.951638 69.916797 
L 961.802491 70.130926 
L 961.659241 70.335746 
L 961.500484 70.548919 
L 961.344448 70.754539 
L 961.179336 70.943561 
L 961.029442 71.147694 
L 960.880839 71.346785 
L 960.742222 71.548265 
L 960.593877 71.757837 
L 960.410391 72.002177 
L 960.245033 72.22266 
L 960.08465 72.430826 
L 959.926225 72.649403 
L 959.76316 72.872351 
L 959.586726 73.098449 
L 959.4123 73.352501 
L 959.251337 73.585567 
L 959.065847 73.817188 
L 958.900887 74.065103 
L 958.744702 74.350265 
L 958.549983 74.59109 
L 958.356187 74.876123 
L 958.190163 75.148749 
L 958.010614 75.408607 
L 957.842965 75.65648 
L 957.676642 75.938558 
L 957.491381 76.210298 
L 957.314665 76.498491 
L 957.165858 76.76492 
L 957.016429 77.055213 
L 956.853832 77.348672 
L 956.689991 77.63421 
L 956.527502 77.917833 
L 956.356348 78.222792 
L 956.18212 78.548635 
L 956.018292 78.888162 
L 955.863178 79.234736 
L 955.712351 79.533446 
L 955.551728 79.876757 
L 955.380603 80.25263 
L 955.203139 80.619417 
L 955.032336 81.019609 
L 954.862904 81.401828 
L 954.690201 81.802477 
L 954.503725 82.17687 
L 954.332932 82.598098 
" style="fill:none;stroke:#9467bd;stroke-linecap:square;stroke-width:1.5;"/>
   </g>
   <g id="line2d_19">
    <path clip-path="url(#pcbc0211b05)" d="M 972 60.48 
L 962.876302 66.235719 
L 954.004392 71.753274 
L 945.343374 77.003201 
L 936.922715 81.976959 
L 928.804255 86.654105 
L 920.865476 91.106383 
L 913.143918 95.413319 
L 905.75411 99.447534 
L 898.504758 103.351597 
L 891.390262 107.144415 
L 884.477671 110.628416 
L 877.772757 113.893365 
L 871.174574 116.995748 
L 864.674263 119.936355 
L 858.207989 122.782386 
L 851.901984 125.597742 
L 845.721684 128.30639 
L 839.506625 130.7875 
L 833.417892 133.20643 
L 827.406961 135.559018 
L 821.419149 137.851416 
L 815.487249 140.098119 
L 809.689042 142.312363 
L 803.795302 144.516471 
L 797.978805 146.724789 
L 792.223802 148.925635 
L 786.476951 150.997897 
L 780.737571 153.053712 
L 775.139345 155.129131 
L 769.571315 157.186948 
L 764.061479 159.141175 
L 758.60781 161.171131 
L 753.121899 163.098103 
L 747.730272 165.081102 
L 742.3087 167.052547 
L 736.927797 169.044642 
L 731.552112 171.108041 
L 726.242678 173.118824 
L 721.066314 175.051171 
L 715.780557 176.984228 
L 710.555476 178.945169 
L 705.391417 180.930523 
L 700.263268 182.919574 
L 695.177112 184.851107 
L 690.105751 186.777589 
L 685.10287 188.693358 
L 680.14388 190.578122 
L 675.253512 192.45532 
L 670.316661 194.291602 
L 665.51222 196.111046 
L 660.700433 197.952622 
L 655.974795 199.748328 
L 651.21405 201.521741 
L 646.492581 203.315517 
L 641.804957 205.115984 
L 637.177152 206.846019 
L 632.577997 208.511972 
L 627.950802 210.153078 
L 623.40012 211.741662 
L 618.927037 213.324148 
L 614.448107 214.856559 
L 609.956475 216.371355 
L 605.487913 217.918194 
L 601.075988 219.447051 
L 596.727845 220.963261 
L 592.444727 222.469641 
L 588.103549 223.941431 
L 583.813902 225.435952 
L 579.554722 226.908303 
L 575.375668 228.356903 
L 571.15552 229.821556 
L 566.931231 231.253577 
L 562.774452 232.681836 
L 558.681078 234.063363 
L 554.592363 235.422714 
L 550.507147 236.82007 
L 546.476157 238.204338 
L 542.526487 239.557843 
L 538.519882 240.938257 
L 534.566205 242.309277 
L 530.657267 243.675418 
L 526.778564 244.998752 
L 522.957101 246.306673 
L 519.143343 247.564278 
L 515.350815 248.84522 
L 511.565336 250.144129 
L 507.809687 251.410472 
L 504.125111 252.652061 
L 500.425513 253.898853 
L 496.782328 255.150672 
L 493.121847 256.413218 
L 489.533998 257.681008 
L 485.954172 258.922524 
L 482.337124 260.190434 
L 478.775697 261.453387 
L 475.206167 262.712109 
L 471.664073 263.993378 
L 468.145388 265.273195 
L 464.662287 266.556063 
L 461.186198 267.83081 
" style="fill:none;stroke:#8c564b;stroke-linecap:square;stroke-width:1.5;"/>
   </g>
   <g id="line2d_20">
    <path clip-path="url(#pcbc0211b05)" d="M 972 60.48 
L 961.908105 66.400058 
L 952.129634 72.087086 
L 942.833382 77.502879 
L 934.008824 82.730349 
L 925.612676 87.72969 
L 917.687454 92.52711 
L 910.136531 97.188028 
L 902.969208 101.570399 
L 896.066195 105.793563 
L 889.377668 109.863079 
L 883.011493 113.616891 
L 876.899646 117.088223 
L 870.921958 120.327121 
L 865.097182 123.423727 
L 859.347037 126.392412 
L 853.737866 129.288217 
L 848.247836 132.044077 
L 842.755706 134.631134 
L 837.358407 137.112702 
L 832.077532 139.550448 
L 826.806529 141.940766 
L 821.621754 144.26441 
L 816.550611 146.548346 
L 811.398081 148.791523 
L 806.277131 151.032911 
L 801.151427 153.243262 
L 796.03547 155.357989 
L 790.916156 157.452768 
L 785.880488 159.577852 
L 780.896297 161.679137 
L 776.013349 163.664772 
L 771.161112 165.702459 
L 766.279917 167.669795 
L 761.47472 169.679645 
L 756.642509 171.695599 
L 751.820408 173.732225 
L 746.99934 175.797637 
L 742.2279 177.828033 
L 737.576764 179.797743 
L 732.87613 181.752916 
L 728.192734 183.779049 
L 723.564694 185.837446 
L 718.958044 187.881629 
L 714.35299 189.883237 
L 709.756616 191.85152 
L 705.190715 193.828578 
L 700.666855 195.777773 
L 696.227294 197.699213 
L 691.745468 199.625102 
L 687.394603 201.534959 
L 682.997094 203.448787 
L 678.694557 205.322863 
L 674.348569 207.184151 
L 670.01492 209.041272 
L 665.701412 210.912741 
L 661.433939 212.720375 
L 657.165219 214.466574 
L 652.882216 216.168613 
L 648.662123 217.808784 
L 644.504031 219.426547 
L 640.346521 221.01402 
L 636.190932 222.590905 
L 632.045288 224.198971 
L 627.94841 225.781314 
L 623.906237 227.35594 
L 619.917526 228.922801 
L 615.847618 230.464661 
L 611.807274 232.01575 
L 607.79661 233.566893 
L 603.827765 235.096789 
L 599.831666 236.638529 
L 595.82257 238.16205 
L 591.853696 239.687692 
L 587.95041 241.168517 
L 584.040142 242.647755 
L 580.145823 244.151425 
L 576.291338 245.647195 
L 572.506802 247.114049 
L 568.665283 248.613836 
L 564.856426 250.099228 
L 561.08429 251.575555 
L 557.348593 253.002521 
L 553.673523 254.435927 
L 550.013932 255.827055 
L 546.36321 257.22702 
L 542.727704 258.645648 
L 539.10463 260.033204 
L 535.529141 261.387117 
L 531.956392 262.772383 
L 528.412187 264.143618 
L 524.853619 265.544824 
L 521.372739 266.932013 
L 517.881174 268.304692 
L 514.347927 269.718946 
L 510.856028 271.14063 
L 507.357636 272.555062 
L 503.878188 274.009808 
L 500.41331 275.449834 
L 496.974701 276.878086 
L 493.544842 278.31791 
" style="fill:none;stroke:#e377c2;stroke-linecap:square;stroke-width:1.5;"/>
   </g>
   <g id="line2d_21">
    <path clip-path="url(#pcbc0211b05)" d="M 972 60.48 
L 963.611248 65.534838 
L 955.421212 70.418003 
L 947.618027 75.058562 
L 940.200096 79.54447 
L 933.149378 83.812344 
L 926.462262 87.960261 
L 920.110221 91.974279 
L 914.079271 95.816857 
L 908.230487 99.518508 
L 902.575576 103.073529 
L 897.155194 106.393791 
L 891.945704 109.449787 
L 886.865373 112.310717 
L 881.920596 115.07542 
L 877.01716 117.717886 
L 872.220135 120.308961 
L 867.52344 122.764977 
L 862.806435 125.087595 
L 858.188787 127.313314 
L 853.629103 129.488525 
L 849.088228 131.625398 
L 844.592127 133.716171 
L 840.213589 135.773094 
L 835.736228 137.821149 
L 831.264294 139.847388 
L 826.818321 141.860792 
L 822.338104 143.777619 
L 817.866567 145.676355 
L 813.441015 147.623765 
L 809.068694 149.545487 
L 804.774885 151.350181 
L 800.50343 153.214538 
L 796.195379 155.022548 
L 791.954376 156.868619 
L 787.658541 158.718335 
L 783.366685 160.589486 
L 779.081399 162.503021 
L 774.822106 164.375867 
L 770.666171 166.181909 
L 766.430684 167.988624 
L 762.225824 169.870558 
L 758.028194 171.774819 
L 753.849254 173.667753 
L 749.698058 175.528962 
L 745.516971 177.355597 
L 741.364351 179.197849 
L 737.219801 181.032391 
L 733.173452 182.851023 
L 729.07399 184.658234 
L 725.082344 186.45145 
L 721.048425 188.250847 
L 717.104968 190.01946 
L 713.09084 191.784195 
L 709.068772 193.542296 
L 705.078784 195.311721 
L 701.114905 197.038278 
L 697.131492 198.696668 
L 693.138057 200.325141 
L 689.196802 201.896824 
L 685.312076 203.429504 
L 681.422463 204.938851 
L 677.514199 206.44682 
L 673.628416 207.981761 
L 669.750638 209.498113 
L 665.929447 211.004097 
L 662.138352 212.503901 
L 658.265673 213.987334 
L 654.422515 215.484992 
L 650.585952 216.975834 
L 646.811648 218.447327 
L 643.006212 219.933316 
L 639.163196 221.411507 
L 635.355037 222.882691 
L 631.577566 224.317869 
L 627.786851 225.755689 
L 624.011028 227.218811 
L 620.269354 228.670465 
L 616.581473 230.107653 
L 612.842951 231.57558 
L 609.125737 233.021286 
L 605.454129 234.46983 
L 601.806733 235.867013 
L 598.206443 237.273159 
L 594.616777 238.633643 
L 591.036042 240.008824 
L 587.453615 241.396434 
L 583.885206 242.755809 
L 580.350569 244.083964 
L 576.818915 245.444916 
L 573.303256 246.783254 
L 569.774104 248.158052 
L 566.32294 249.519727 
L 562.849655 250.867506 
L 559.323404 252.251161 
L 555.817247 253.645762 
L 552.304395 255.03672 
L 548.809955 256.466761 
L 545.32342 257.87952 
L 541.856684 259.292533 
L 538.399027 260.712374 
" style="fill:none;stroke:#7f7f7f;stroke-linecap:square;stroke-width:1.5;"/>
   </g>
   <g id="line2d_22">
    <path clip-path="url(#pcbc0211b05)" d="M 972 60.48 
L 964.850616 64.840911 
L 957.839294 69.061149 
L 951.157568 73.127559 
L 944.807589 77.026799 
L 938.745087 80.799002 
L 932.995999 84.44295 
L 927.527846 87.964814 
L 922.338241 91.34628 
L 917.335592 94.620187 
L 912.513431 97.788972 
L 907.863965 100.739455 
L 903.392764 103.480532 
L 899.063562 106.05965 
L 894.812245 108.538383 
L 890.591208 110.914308 
L 886.480087 113.246479 
L 882.428672 115.444703 
L 878.379798 117.518195 
L 874.381899 119.516326 
L 870.457753 121.471399 
L 866.536962 123.400542 
L 862.663071 125.282222 
L 858.882525 127.134791 
L 854.994666 128.979373 
L 851.112476 130.812848 
L 847.230207 132.64051 
L 843.32118 134.382149 
L 839.408701 136.103293 
L 835.531855 137.859544 
L 831.690403 139.624595 
L 827.93165 141.278471 
L 824.173512 142.973501 
L 820.388066 144.626677 
L 816.652818 146.314901 
L 812.863669 148.018965 
L 809.064801 149.737924 
L 805.25433 151.493899 
L 801.467043 153.228551 
L 797.779536 154.90067 
L 794.036461 156.557793 
L 790.29084 158.295009 
L 786.551733 160.055839 
L 782.822964 161.836458 
L 779.098192 163.574751 
L 775.337689 165.289809 
L 771.598348 167.019819 
L 767.866891 168.737937 
L 764.195011 170.427977 
L 760.504911 172.13598 
L 756.895587 173.818768 
L 753.231353 175.51356 
L 749.650915 177.183285 
L 745.992205 178.828897 
L 742.326993 180.490682 
L 738.682867 182.154394 
L 735.049862 183.793069 
L 731.393787 185.371512 
L 727.730946 186.914758 
L 724.094219 188.400926 
L 720.503622 189.858606 
L 716.914624 191.296712 
L 713.283672 192.731607 
L 709.674461 194.193337 
L 706.090526 195.63743 
L 702.541023 197.069298 
L 699.009773 198.496775 
L 695.390841 199.908073 
L 691.789015 201.331564 
L 688.196758 202.752645 
L 684.638691 204.160207 
L 681.0526 205.5787 
L 677.42469 206.987268 
L 673.831755 208.384999 
L 670.281058 209.763402 
L 666.709528 211.154269 
L 663.110739 212.565809 
L 659.565172 213.972735 
L 656.033794 215.352411 
L 652.467561 216.765566 
L 648.927764 218.1688 
L 645.408633 219.576958 
L 641.913503 220.940775 
L 638.45074 222.29609 
L 634.991886 223.619128 
L 631.549947 224.957157 
L 628.104484 226.309241 
L 624.654393 227.628439 
L 621.23091 228.92296 
L 617.813693 230.25032 
L 614.4015 231.561112 
L 610.973414 232.901564 
L 607.616874 234.23126 
L 604.229811 235.551667 
L 600.806241 236.90133 
L 597.390062 238.260527 
L 593.946416 239.629585 
L 590.526673 241.041377 
L 587.095052 242.428381 
L 583.683153 243.815307 
L 580.276604 245.21305 
" style="fill:none;stroke:#bcbd22;stroke-linecap:square;stroke-width:1.5;"/>
   </g>
   <g id="line2d_23">
    <path clip-path="url(#pcbc0211b05)" d="M 972 60.48 
L 964.860734 64.910771 
L 957.887128 69.181221 
L 951.237729 73.303092 
L 944.948967 77.240824 
L 938.978169 81.033727 
L 933.304653 84.70629 
L 927.910146 88.26411 
L 922.839602 91.678761 
L 917.942602 94.970227 
L 913.218676 98.146777 
L 908.691375 101.107052 
L 904.344198 103.84805 
L 900.139527 106.440901 
L 896.029061 108.937542 
L 891.94351 111.300852 
L 887.961364 113.627791 
L 884.039538 115.82658 
L 880.125698 117.890613 
L 876.276278 119.892055 
L 872.466915 121.853957 
L 868.671918 123.791144 
L 864.907074 125.677825 
L 861.248719 127.547203 
L 857.4656 129.409056 
L 853.721935 131.235958 
L 849.979695 133.059013 
L 846.177794 134.802296 
L 842.398728 136.526403 
L 838.660822 138.292675 
L 834.946508 140.058506 
L 831.302971 141.715211 
L 827.689774 143.403911 
L 824.036774 145.063194 
L 820.405815 146.739236 
L 816.743506 148.435444 
L 813.045359 150.146603 
L 809.374832 151.901023 
L 805.723875 153.635379 
L 802.148497 155.303866 
L 798.518592 156.965868 
L 794.885498 158.691732 
L 791.284452 160.456339 
L 787.683052 162.213842 
L 784.05792 163.934244 
L 780.401159 165.625247 
L 776.78076 167.338969 
L 773.141218 169.036456 
L 769.571419 170.719123 
L 765.983176 172.418263 
L 762.472692 174.107359 
L 758.912395 175.793089 
L 755.444875 177.46369 
L 751.882801 179.124323 
L 748.305539 180.788975 
L 744.748706 182.46088 
L 741.201492 184.101639 
L 737.653154 185.670509 
L 734.077636 187.21903 
L 730.530149 188.706566 
L 727.025808 190.169858 
L 723.518146 191.612218 
L 719.993356 193.049178 
L 716.48512 194.50658 
L 712.971364 195.953391 
L 709.495292 197.382938 
L 706.041569 198.809165 
L 702.518568 200.209379 
L 699.001925 201.626047 
L 695.487878 203.046793 
L 692.024408 204.440625 
L 688.501926 205.851444 
L 684.95447 207.255065 
L 681.435287 208.646031 
L 677.946483 210.024418 
L 674.437107 211.395151 
L 670.902031 212.792521 
L 667.425102 214.186513 
L 663.970628 215.564702 
L 660.456721 216.9716 
L 656.968921 218.371843 
L 653.50377 219.770549 
L 650.063779 221.128514 
L 646.648077 222.482288 
L 643.250556 223.802025 
L 639.858262 225.133542 
L 636.470064 226.472756 
L 633.068262 227.779644 
L 629.692113 229.063805 
L 626.330668 230.376451 
L 622.971428 231.669791 
L 619.608857 232.992202 
L 616.298795 234.301413 
L 612.959613 235.603823 
L 609.581692 236.933167 
L 606.213643 238.279376 
L 602.817313 239.621727 
L 599.440026 241.00772 
L 596.055501 242.370673 
L 592.690481 243.730443 
L 589.319914 245.107484 
" style="fill:none;stroke:#17becf;stroke-linecap:square;stroke-width:1.5;"/>
   </g>
   <g id="patch_3">
    <path d="M 135 448.56 
L 135 60.48 
" style="fill:none;stroke:#000000;stroke-linecap:square;stroke-linejoin:miter;stroke-width:0.8;"/>
   </g>
   <g id="patch_4">
    <path d="M 972 448.56 
L 972 60.48 
" style="fill:none;stroke:#000000;stroke-linecap:square;stroke-linejoin:miter;stroke-width:0.8;"/>
   </g>
   <g id="patch_5">
    <path d="M 135 448.56 
L 972 448.56 
" style="fill:none;stroke:#000000;stroke-linecap:square;stroke-linejoin:miter;stroke-width:0.8;"/>
   </g>
   <g id="patch_6">
    <path d="M 135 60.48 
L 972 60.48 
" style="fill:none;stroke:#000000;stroke-linecap:square;stroke-linejoin:miter;stroke-width:0.8;"/>
   </g>
   <g id="legend_1">
    <g id="patch_7">
     <path d="M 147.6 339.08625 
L 256.730625 339.08625 
Q 260.330625 339.08625 260.330625 335.48625 
L 260.330625 73.08 
Q 260.330625 69.48 256.730625 69.48 
L 147.6 69.48 
Q 144 69.48 144 73.08 
L 144 335.48625 
Q 144 339.08625 147.6 339.08625 
z
" style="fill:#ffffff;opacity:0.8;stroke:#cccccc;stroke-linejoin:miter;"/>
    </g>
    <g id="line2d_24">
     <path d="M 151.2 84.057188 
L 187.2 84.057188 
" style="fill:none;stroke:#1f77b4;stroke-linecap:square;stroke-width:1.5;"/>
    </g>
    <g id="line2d_25"/>
    <g id="text_15">
     <!-- 0.001 -->
     <g transform="translate(201.6 90.357188)scale(0.18 -0.18)">
      <use xlink:href="#DejaVuSans-30"/>
      <use x="63.623047" xlink:href="#DejaVuSans-2e"/>
      <use x="95.410156" xlink:href="#DejaVuSans-30"/>
      <use x="159.033203" xlink:href="#DejaVuSans-30"/>
      <use x="222.65625" xlink:href="#DejaVuSans-31"/>
     </g>
    </g>
    <g id="line2d_26">
     <path d="M 151.2 110.477812 
L 187.2 110.477812 
" style="fill:none;stroke:#ff7f0e;stroke-linecap:square;stroke-width:1.5;"/>
    </g>
    <g id="line2d_27"/>
    <g id="text_16">
     <!-- 0.011 -->
     <g transform="translate(201.6 116.777812)scale(0.18 -0.18)">
      <use xlink:href="#DejaVuSans-30"/>
      <use x="63.623047" xlink:href="#DejaVuSans-2e"/>
      <use x="95.410156" xlink:href="#DejaVuSans-30"/>
      <use x="159.033203" xlink:href="#DejaVuSans-31"/>
      <use x="222.65625" xlink:href="#DejaVuSans-31"/>
     </g>
    </g>
    <g id="line2d_28">
     <path d="M 151.2 136.898438 
L 187.2 136.898438 
" style="fill:none;stroke:#2ca02c;stroke-linecap:square;stroke-width:1.5;"/>
    </g>
    <g id="line2d_29"/>
    <g id="text_17">
     <!-- 0.021 -->
     <g transform="translate(201.6 143.198438)scale(0.18 -0.18)">
      <use xlink:href="#DejaVuSans-30"/>
      <use x="63.623047" xlink:href="#DejaVuSans-2e"/>
      <use x="95.410156" xlink:href="#DejaVuSans-30"/>
      <use x="159.033203" xlink:href="#DejaVuSans-32"/>
      <use x="222.65625" xlink:href="#DejaVuSans-31"/>
     </g>
    </g>
    <g id="line2d_30">
     <path d="M 151.2 163.319062 
L 187.2 163.319062 
" style="fill:none;stroke:#d62728;stroke-linecap:square;stroke-width:1.5;"/>
    </g>
    <g id="line2d_31"/>
    <g id="text_18">
     <!-- 0.031 -->
     <g transform="translate(201.6 169.619062)scale(0.18 -0.18)">
      <defs>
       <path d="M 2597 2516 
Q 3050 2419 3304 2112 
Q 3559 1806 3559 1356 
Q 3559 666 3084 287 
Q 2609 -91 1734 -91 
Q 1441 -91 1130 -33 
Q 819 25 488 141 
L 488 750 
Q 750 597 1062 519 
Q 1375 441 1716 441 
Q 2309 441 2620 675 
Q 2931 909 2931 1356 
Q 2931 1769 2642 2001 
Q 2353 2234 1838 2234 
L 1294 2234 
L 1294 2753 
L 1863 2753 
Q 2328 2753 2575 2939 
Q 2822 3125 2822 3475 
Q 2822 3834 2567 4026 
Q 2313 4219 1838 4219 
Q 1578 4219 1281 4162 
Q 984 4106 628 3988 
L 628 4550 
Q 988 4650 1302 4700 
Q 1616 4750 1894 4750 
Q 2613 4750 3031 4423 
Q 3450 4097 3450 3541 
Q 3450 3153 3228 2886 
Q 3006 2619 2597 2516 
z
" id="DejaVuSans-33" transform="scale(0.015625)"/>
      </defs>
      <use xlink:href="#DejaVuSans-30"/>
      <use x="63.623047" xlink:href="#DejaVuSans-2e"/>
      <use x="95.410156" xlink:href="#DejaVuSans-30"/>
      <use x="159.033203" xlink:href="#DejaVuSans-33"/>
      <use x="222.65625" xlink:href="#DejaVuSans-31"/>
     </g>
    </g>
    <g id="line2d_32">
     <path d="M 151.2 189.739688 
L 187.2 189.739688 
" style="fill:none;stroke:#9467bd;stroke-linecap:square;stroke-width:1.5;"/>
    </g>
    <g id="line2d_33"/>
    <g id="text_19">
     <!-- 0.041 -->
     <g transform="translate(201.6 196.039688)scale(0.18 -0.18)">
      <use xlink:href="#DejaVuSans-30"/>
      <use x="63.623047" xlink:href="#DejaVuSans-2e"/>
      <use x="95.410156" xlink:href="#DejaVuSans-30"/>
      <use x="159.033203" xlink:href="#DejaVuSans-34"/>
      <use x="222.65625" xlink:href="#DejaVuSans-31"/>
     </g>
    </g>
    <g id="line2d_34">
     <path d="M 151.2 216.160312 
L 187.2 216.160312 
" style="fill:none;stroke:#8c564b;stroke-linecap:square;stroke-width:1.5;"/>
    </g>
    <g id="line2d_35"/>
    <g id="text_20">
     <!-- 0.051 -->
     <g transform="translate(201.6 222.460312)scale(0.18 -0.18)">
      <defs>
       <path d="M 691 4666 
L 3169 4666 
L 3169 4134 
L 1269 4134 
L 1269 2991 
Q 1406 3038 1543 3061 
Q 1681 3084 1819 3084 
Q 2600 3084 3056 2656 
Q 3513 2228 3513 1497 
Q 3513 744 3044 326 
Q 2575 -91 1722 -91 
Q 1428 -91 1123 -41 
Q 819 9 494 109 
L 494 744 
Q 775 591 1075 516 
Q 1375 441 1709 441 
Q 2250 441 2565 725 
Q 2881 1009 2881 1497 
Q 2881 1984 2565 2268 
Q 2250 2553 1709 2553 
Q 1456 2553 1204 2497 
Q 953 2441 691 2322 
L 691 4666 
z
" id="DejaVuSans-35" transform="scale(0.015625)"/>
      </defs>
      <use xlink:href="#DejaVuSans-30"/>
      <use x="63.623047" xlink:href="#DejaVuSans-2e"/>
      <use x="95.410156" xlink:href="#DejaVuSans-30"/>
      <use x="159.033203" xlink:href="#DejaVuSans-35"/>
      <use x="222.65625" xlink:href="#DejaVuSans-31"/>
     </g>
    </g>
    <g id="line2d_36">
     <path d="M 151.2 242.580937 
L 187.2 242.580937 
" style="fill:none;stroke:#e377c2;stroke-linecap:square;stroke-width:1.5;"/>
    </g>
    <g id="line2d_37"/>
    <g id="text_21">
     <!-- 0.061 -->
     <g transform="translate(201.6 248.880937)scale(0.18 -0.18)">
      <use xlink:href="#DejaVuSans-30"/>
      <use x="63.623047" xlink:href="#DejaVuSans-2e"/>
      <use x="95.410156" xlink:href="#DejaVuSans-30"/>
      <use x="159.033203" xlink:href="#DejaVuSans-36"/>
      <use x="222.65625" xlink:href="#DejaVuSans-31"/>
     </g>
    </g>
    <g id="line2d_38">
     <path d="M 151.2 269.001562 
L 187.2 269.001562 
" style="fill:none;stroke:#7f7f7f;stroke-linecap:square;stroke-width:1.5;"/>
    </g>
    <g id="line2d_39"/>
    <g id="text_22">
     <!-- 0.071 -->
     <g transform="translate(201.6 275.301562)scale(0.18 -0.18)">
      <defs>
       <path d="M 525 4666 
L 3525 4666 
L 3525 4397 
L 1831 0 
L 1172 0 
L 2766 4134 
L 525 4134 
L 525 4666 
z
" id="DejaVuSans-37" transform="scale(0.015625)"/>
      </defs>
      <use xlink:href="#DejaVuSans-30"/>
      <use x="63.623047" xlink:href="#DejaVuSans-2e"/>
      <use x="95.410156" xlink:href="#DejaVuSans-30"/>
      <use x="159.033203" xlink:href="#DejaVuSans-37"/>
      <use x="222.65625" xlink:href="#DejaVuSans-31"/>
     </g>
    </g>
    <g id="line2d_40">
     <path d="M 151.2 295.422188 
L 187.2 295.422188 
" style="fill:none;stroke:#bcbd22;stroke-linecap:square;stroke-width:1.5;"/>
    </g>
    <g id="line2d_41"/>
    <g id="text_23">
     <!-- 0.081 -->
     <g transform="translate(201.6 301.722188)scale(0.18 -0.18)">
      <use xlink:href="#DejaVuSans-30"/>
      <use x="63.623047" xlink:href="#DejaVuSans-2e"/>
      <use x="95.410156" xlink:href="#DejaVuSans-30"/>
      <use x="159.033203" xlink:href="#DejaVuSans-38"/>
      <use x="222.65625" xlink:href="#DejaVuSans-31"/>
     </g>
    </g>
    <g id="line2d_42">
     <path d="M 151.2 321.842812 
L 187.2 321.842812 
" style="fill:none;stroke:#17becf;stroke-linecap:square;stroke-width:1.5;"/>
    </g>
    <g id="line2d_43"/>
    <g id="text_24">
     <!-- 0.091 -->
     <g transform="translate(201.6 328.142812)scale(0.18 -0.18)">
      <defs>
       <path d="M 703 97 
L 703 672 
Q 941 559 1184 500 
Q 1428 441 1663 441 
Q 2288 441 2617 861 
Q 2947 1281 2994 2138 
Q 2813 1869 2534 1725 
Q 2256 1581 1919 1581 
Q 1219 1581 811 2004 
Q 403 2428 403 3163 
Q 403 3881 828 4315 
Q 1253 4750 1959 4750 
Q 2769 4750 3195 4129 
Q 3622 3509 3622 2328 
Q 3622 1225 3098 567 
Q 2575 -91 1691 -91 
Q 1453 -91 1209 -44 
Q 966 3 703 97 
z
M 1959 2075 
Q 2384 2075 2632 2365 
Q 2881 2656 2881 3163 
Q 2881 3666 2632 3958 
Q 2384 4250 1959 4250 
Q 1534 4250 1286 3958 
Q 1038 3666 1038 3163 
Q 1038 2656 1286 2365 
Q 1534 2075 1959 2075 
z
" id="DejaVuSans-39" transform="scale(0.015625)"/>
      </defs>
      <use xlink:href="#DejaVuSans-30"/>
      <use x="63.623047" xlink:href="#DejaVuSans-2e"/>
      <use x="95.410156" xlink:href="#DejaVuSans-30"/>
      <use x="159.033203" xlink:href="#DejaVuSans-39"/>
      <use x="222.65625" xlink:href="#DejaVuSans-31"/>
     </g>
    </g>
   </g>
  </g>
 </g>
 <defs>
  <clipPath id="pcbc0211b05">
   <rect height="388.08" width="837" x="135" y="60.48"/>
  </clipPath>
 </defs>
</svg>
