<?xml version="1.0" encoding="utf-8" standalone="no"?>
<!DOCTYPE svg PUBLIC "-//W3C//DTD SVG 1.1//EN"
  "http://www.w3.org/Graphics/SVG/1.1/DTD/svg11.dtd">
<svg height="504pt" version="1.1" viewBox="0 0 1080 504" width="1080pt" xmlns="http://www.w3.org/2000/svg" xmlns:xlink="http://www.w3.org/1999/xlink">
 <metadata>
  <rdf:RDF xmlns:cc="http://creativecommons.org/ns#" xmlns:dc="http://purl.org/dc/elements/1.1/" xmlns:rdf="http://www.w3.org/1999/02/22-rdf-syntax-ns#">
   <cc:Work>
    <dc:type rdf:resource="http://purl.org/dc/dcmitype/StillImage"/>
    <dc:date>2022-01-07T13:24:53.375408</dc:date>
    <dc:format>image/svg+xml</dc:format>
    <dc:creator>
     <cc:Agent>
      <dc:title>Matplotlib v3.4.3, https://matplotlib.org/</dc:title>
     </cc:Agent>
    </dc:creator>
   </cc:Work>
  </rdf:RDF>
 </metadata>
 <defs>
  <style type="text/css">*{stroke-linecap:butt;stroke-linejoin:round;}</style>
 </defs>
 <g id="figure_1">
  <g id="patch_1">
   <path d="M 0 504 
L 1080 504 
L 1080 0 
L 0 0 
z
" style="fill:#ffffff;"/>
  </g>
  <g id="axes_1">
   <g id="patch_2">
    <path d="M 135 448.56 
L 972 448.56 
L 972 60.48 
L 135 60.48 
z
" style="fill:#ffffff;"/>
   </g>
   <g id="matplotlib.axis_1">
    <g id="xtick_1">
     <g id="line2d_1">
      <defs>
       <path d="M 0 0 
L 0 3.5 
" id="mce0e8462dc" style="stroke:#000000;stroke-width:0.8;"/>
      </defs>
      <g>
       <use style="stroke:#000000;stroke-width:0.8;" x="135" xlink:href="#mce0e8462dc" y="448.56"/>
      </g>
     </g>
     <g id="text_1">
      <!-- 0.0 -->
      <g transform="translate(120.687187 469.237188)scale(0.18 -0.18)">
       <defs>
        <path d="M 2034 4250 
Q 1547 4250 1301 3770 
Q 1056 3291 1056 2328 
Q 1056 1369 1301 889 
Q 1547 409 2034 409 
Q 2525 409 2770 889 
Q 3016 1369 3016 2328 
Q 3016 3291 2770 3770 
Q 2525 4250 2034 4250 
z
M 2034 4750 
Q 2819 4750 3233 4129 
Q 3647 3509 3647 2328 
Q 3647 1150 3233 529 
Q 2819 -91 2034 -91 
Q 1250 -91 836 529 
Q 422 1150 422 2328 
Q 422 3509 836 4129 
Q 1250 4750 2034 4750 
z
" id="DejaVuSans-30" transform="scale(0.015625)"/>
        <path d="M 684 794 
L 1344 794 
L 1344 0 
L 684 0 
L 684 794 
z
" id="DejaVuSans-2e" transform="scale(0.015625)"/>
       </defs>
       <use xlink:href="#DejaVuSans-30"/>
       <use x="63.623047" xlink:href="#DejaVuSans-2e"/>
       <use x="95.410156" xlink:href="#DejaVuSans-30"/>
      </g>
     </g>
    </g>
    <g id="xtick_2">
     <g id="line2d_2">
      <g>
       <use style="stroke:#000000;stroke-width:0.8;" x="302.4" xlink:href="#mce0e8462dc" y="448.56"/>
      </g>
     </g>
     <g id="text_2">
      <!-- 0.2 -->
      <g transform="translate(288.087187 469.237188)scale(0.18 -0.18)">
       <defs>
        <path d="M 1228 531 
L 3431 531 
L 3431 0 
L 469 0 
L 469 531 
Q 828 903 1448 1529 
Q 2069 2156 2228 2338 
Q 2531 2678 2651 2914 
Q 2772 3150 2772 3378 
Q 2772 3750 2511 3984 
Q 2250 4219 1831 4219 
Q 1534 4219 1204 4116 
Q 875 4013 500 3803 
L 500 4441 
Q 881 4594 1212 4672 
Q 1544 4750 1819 4750 
Q 2544 4750 2975 4387 
Q 3406 4025 3406 3419 
Q 3406 3131 3298 2873 
Q 3191 2616 2906 2266 
Q 2828 2175 2409 1742 
Q 1991 1309 1228 531 
z
" id="DejaVuSans-32" transform="scale(0.015625)"/>
       </defs>
       <use xlink:href="#DejaVuSans-30"/>
       <use x="63.623047" xlink:href="#DejaVuSans-2e"/>
       <use x="95.410156" xlink:href="#DejaVuSans-32"/>
      </g>
     </g>
    </g>
    <g id="xtick_3">
     <g id="line2d_3">
      <g>
       <use style="stroke:#000000;stroke-width:0.8;" x="469.8" xlink:href="#mce0e8462dc" y="448.56"/>
      </g>
     </g>
     <g id="text_3">
      <!-- 0.4 -->
      <g transform="translate(455.487188 469.237188)scale(0.18 -0.18)">
       <defs>
        <path d="M 2419 4116 
L 825 1625 
L 2419 1625 
L 2419 4116 
z
M 2253 4666 
L 3047 4666 
L 3047 1625 
L 3713 1625 
L 3713 1100 
L 3047 1100 
L 3047 0 
L 2419 0 
L 2419 1100 
L 313 1100 
L 313 1709 
L 2253 4666 
z
" id="DejaVuSans-34" transform="scale(0.015625)"/>
       </defs>
       <use xlink:href="#DejaVuSans-30"/>
       <use x="63.623047" xlink:href="#DejaVuSans-2e"/>
       <use x="95.410156" xlink:href="#DejaVuSans-34"/>
      </g>
     </g>
    </g>
    <g id="xtick_4">
     <g id="line2d_4">
      <g>
       <use style="stroke:#000000;stroke-width:0.8;" x="637.2" xlink:href="#mce0e8462dc" y="448.56"/>
      </g>
     </g>
     <g id="text_4">
      <!-- 0.6 -->
      <g transform="translate(622.887188 469.237188)scale(0.18 -0.18)">
       <defs>
        <path d="M 2113 2584 
Q 1688 2584 1439 2293 
Q 1191 2003 1191 1497 
Q 1191 994 1439 701 
Q 1688 409 2113 409 
Q 2538 409 2786 701 
Q 3034 994 3034 1497 
Q 3034 2003 2786 2293 
Q 2538 2584 2113 2584 
z
M 3366 4563 
L 3366 3988 
Q 3128 4100 2886 4159 
Q 2644 4219 2406 4219 
Q 1781 4219 1451 3797 
Q 1122 3375 1075 2522 
Q 1259 2794 1537 2939 
Q 1816 3084 2150 3084 
Q 2853 3084 3261 2657 
Q 3669 2231 3669 1497 
Q 3669 778 3244 343 
Q 2819 -91 2113 -91 
Q 1303 -91 875 529 
Q 447 1150 447 2328 
Q 447 3434 972 4092 
Q 1497 4750 2381 4750 
Q 2619 4750 2861 4703 
Q 3103 4656 3366 4563 
z
" id="DejaVuSans-36" transform="scale(0.015625)"/>
       </defs>
       <use xlink:href="#DejaVuSans-30"/>
       <use x="63.623047" xlink:href="#DejaVuSans-2e"/>
       <use x="95.410156" xlink:href="#DejaVuSans-36"/>
      </g>
     </g>
    </g>
    <g id="xtick_5">
     <g id="line2d_5">
      <g>
       <use style="stroke:#000000;stroke-width:0.8;" x="804.6" xlink:href="#mce0e8462dc" y="448.56"/>
      </g>
     </g>
     <g id="text_5">
      <!-- 0.8 -->
      <g transform="translate(790.287188 469.237188)scale(0.18 -0.18)">
       <defs>
        <path d="M 2034 2216 
Q 1584 2216 1326 1975 
Q 1069 1734 1069 1313 
Q 1069 891 1326 650 
Q 1584 409 2034 409 
Q 2484 409 2743 651 
Q 3003 894 3003 1313 
Q 3003 1734 2745 1975 
Q 2488 2216 2034 2216 
z
M 1403 2484 
Q 997 2584 770 2862 
Q 544 3141 544 3541 
Q 544 4100 942 4425 
Q 1341 4750 2034 4750 
Q 2731 4750 3128 4425 
Q 3525 4100 3525 3541 
Q 3525 3141 3298 2862 
Q 3072 2584 2669 2484 
Q 3125 2378 3379 2068 
Q 3634 1759 3634 1313 
Q 3634 634 3220 271 
Q 2806 -91 2034 -91 
Q 1263 -91 848 271 
Q 434 634 434 1313 
Q 434 1759 690 2068 
Q 947 2378 1403 2484 
z
M 1172 3481 
Q 1172 3119 1398 2916 
Q 1625 2713 2034 2713 
Q 2441 2713 2670 2916 
Q 2900 3119 2900 3481 
Q 2900 3844 2670 4047 
Q 2441 4250 2034 4250 
Q 1625 4250 1398 4047 
Q 1172 3844 1172 3481 
z
" id="DejaVuSans-38" transform="scale(0.015625)"/>
       </defs>
       <use xlink:href="#DejaVuSans-30"/>
       <use x="63.623047" xlink:href="#DejaVuSans-2e"/>
       <use x="95.410156" xlink:href="#DejaVuSans-38"/>
      </g>
     </g>
    </g>
    <g id="xtick_6">
     <g id="line2d_6">
      <g>
       <use style="stroke:#000000;stroke-width:0.8;" x="972" xlink:href="#mce0e8462dc" y="448.56"/>
      </g>
     </g>
     <g id="text_6">
      <!-- 1.0 -->
      <g transform="translate(957.687188 469.237188)scale(0.18 -0.18)">
       <defs>
        <path d="M 794 531 
L 1825 531 
L 1825 4091 
L 703 3866 
L 703 4441 
L 1819 4666 
L 2450 4666 
L 2450 531 
L 3481 531 
L 3481 0 
L 794 0 
L 794 531 
z
" id="DejaVuSans-31" transform="scale(0.015625)"/>
       </defs>
       <use xlink:href="#DejaVuSans-31"/>
       <use x="63.623047" xlink:href="#DejaVuSans-2e"/>
       <use x="95.410156" xlink:href="#DejaVuSans-30"/>
      </g>
     </g>
    </g>
    <g id="text_7">
     <!-- $FPR_{Fair}$ -->
     <g transform="translate(518.08 493.697187)scale(0.22 -0.22)">
      <defs>
       <path d="M 1081 4666 
L 3756 4666 
L 3653 4134 
L 1606 4134 
L 1338 2759 
L 3188 2759 
L 3084 2228 
L 1234 2228 
L 800 0 
L 172 0 
L 1081 4666 
z
" id="DejaVuSans-Oblique-46" transform="scale(0.015625)"/>
       <path d="M 1081 4666 
L 2541 4666 
Q 3178 4666 3512 4369 
Q 3847 4072 3847 3500 
Q 3847 2731 3353 2303 
Q 2859 1875 1966 1875 
L 1172 1875 
L 806 0 
L 172 0 
L 1081 4666 
z
M 1613 4147 
L 1275 2394 
L 2069 2394 
Q 2606 2394 2893 2669 
Q 3181 2944 3181 3456 
Q 3181 3784 2986 3965 
Q 2791 4147 2438 4147 
L 1613 4147 
z
" id="DejaVuSans-Oblique-50" transform="scale(0.015625)"/>
       <path d="M 1613 4147 
L 1294 2491 
L 2106 2491 
Q 2584 2491 2879 2755 
Q 3175 3019 3175 3444 
Q 3175 3784 2976 3965 
Q 2778 4147 2406 4147 
L 1613 4147 
z
M 2772 2241 
Q 2972 2194 3105 2009 
Q 3238 1825 3413 1275 
L 3809 0 
L 3144 0 
L 2778 1197 
Q 2638 1659 2453 1815 
Q 2269 1972 1888 1972 
L 1191 1972 
L 806 0 
L 172 0 
L 1081 4666 
L 2503 4666 
Q 3150 4666 3495 4373 
Q 3841 4081 3841 3531 
Q 3841 3044 3547 2687 
Q 3253 2331 2772 2241 
z
" id="DejaVuSans-Oblique-52" transform="scale(0.015625)"/>
       <path d="M 3438 1997 
L 3047 0 
L 2472 0 
L 2578 531 
Q 2325 219 2001 64 
Q 1678 -91 1281 -91 
Q 834 -91 548 182 
Q 263 456 263 884 
Q 263 1497 752 1853 
Q 1241 2209 2100 2209 
L 2900 2209 
L 2931 2363 
Q 2938 2388 2941 2417 
Q 2944 2447 2944 2509 
Q 2944 2788 2717 2942 
Q 2491 3097 2081 3097 
Q 1800 3097 1504 3025 
Q 1209 2953 897 2809 
L 997 3341 
Q 1322 3463 1633 3523 
Q 1944 3584 2234 3584 
Q 2853 3584 3176 3315 
Q 3500 3047 3500 2534 
Q 3500 2431 3484 2292 
Q 3469 2153 3438 1997 
z
M 2816 1759 
L 2241 1759 
Q 1534 1759 1195 1570 
Q 856 1381 856 984 
Q 856 709 1029 553 
Q 1203 397 1509 397 
Q 1978 397 2328 733 
Q 2678 1069 2791 1631 
L 2816 1759 
z
" id="DejaVuSans-Oblique-61" transform="scale(0.015625)"/>
       <path d="M 1172 4863 
L 1747 4863 
L 1606 4134 
L 1031 4134 
L 1172 4863 
z
M 909 3500 
L 1484 3500 
L 800 0 
L 225 0 
L 909 3500 
z
" id="DejaVuSans-Oblique-69" transform="scale(0.015625)"/>
       <path d="M 2853 2969 
Q 2766 3016 2653 3041 
Q 2541 3066 2413 3066 
Q 1953 3066 1609 2717 
Q 1266 2369 1153 1784 
L 800 0 
L 225 0 
L 909 3500 
L 1484 3500 
L 1375 2956 
Q 1603 3259 1920 3421 
Q 2238 3584 2597 3584 
Q 2691 3584 2781 3573 
Q 2872 3563 2963 3538 
L 2853 2969 
z
" id="DejaVuSans-Oblique-72" transform="scale(0.015625)"/>
      </defs>
      <use transform="translate(0 0.09375)" xlink:href="#DejaVuSans-Oblique-46"/>
      <use transform="translate(57.519531 0.09375)" xlink:href="#DejaVuSans-Oblique-50"/>
      <use transform="translate(117.822266 0.09375)" xlink:href="#DejaVuSans-Oblique-52"/>
      <use transform="translate(187.304688 -16.3125)scale(0.7)" xlink:href="#DejaVuSans-Oblique-46"/>
      <use transform="translate(227.568359 -16.3125)scale(0.7)" xlink:href="#DejaVuSans-Oblique-61"/>
      <use transform="translate(270.463867 -16.3125)scale(0.7)" xlink:href="#DejaVuSans-Oblique-69"/>
      <use transform="translate(289.912109 -16.3125)scale(0.7)" xlink:href="#DejaVuSans-Oblique-72"/>
     </g>
    </g>
   </g>
   <g id="matplotlib.axis_2">
    <g id="ytick_1">
     <g id="line2d_7">
      <defs>
       <path d="M 0 0 
L -3.5 0 
" id="m2531852032" style="stroke:#000000;stroke-width:0.8;"/>
      </defs>
      <g>
       <use style="stroke:#000000;stroke-width:0.8;" x="135" xlink:href="#m2531852032" y="448.56"/>
      </g>
     </g>
     <g id="text_8">
      <!-- 0.0 -->
      <g transform="translate(99.374375 455.398594)scale(0.18 -0.18)">
       <use xlink:href="#DejaVuSans-30"/>
       <use x="63.623047" xlink:href="#DejaVuSans-2e"/>
       <use x="95.410156" xlink:href="#DejaVuSans-30"/>
      </g>
     </g>
    </g>
    <g id="ytick_2">
     <g id="line2d_8">
      <g>
       <use style="stroke:#000000;stroke-width:0.8;" x="135" xlink:href="#m2531852032" y="370.944"/>
      </g>
     </g>
     <g id="text_9">
      <!-- 0.2 -->
      <g transform="translate(99.374375 377.782594)scale(0.18 -0.18)">
       <use xlink:href="#DejaVuSans-30"/>
       <use x="63.623047" xlink:href="#DejaVuSans-2e"/>
       <use x="95.410156" xlink:href="#DejaVuSans-32"/>
      </g>
     </g>
    </g>
    <g id="ytick_3">
     <g id="line2d_9">
      <g>
       <use style="stroke:#000000;stroke-width:0.8;" x="135" xlink:href="#m2531852032" y="293.328"/>
      </g>
     </g>
     <g id="text_10">
      <!-- 0.4 -->
      <g transform="translate(99.374375 300.166594)scale(0.18 -0.18)">
       <use xlink:href="#DejaVuSans-30"/>
       <use x="63.623047" xlink:href="#DejaVuSans-2e"/>
       <use x="95.410156" xlink:href="#DejaVuSans-34"/>
      </g>
     </g>
    </g>
    <g id="ytick_4">
     <g id="line2d_10">
      <g>
       <use style="stroke:#000000;stroke-width:0.8;" x="135" xlink:href="#m2531852032" y="215.712"/>
      </g>
     </g>
     <g id="text_11">
      <!-- 0.6 -->
      <g transform="translate(99.374375 222.550594)scale(0.18 -0.18)">
       <use xlink:href="#DejaVuSans-30"/>
       <use x="63.623047" xlink:href="#DejaVuSans-2e"/>
       <use x="95.410156" xlink:href="#DejaVuSans-36"/>
      </g>
     </g>
    </g>
    <g id="ytick_5">
     <g id="line2d_11">
      <g>
       <use style="stroke:#000000;stroke-width:0.8;" x="135" xlink:href="#m2531852032" y="138.096"/>
      </g>
     </g>
     <g id="text_12">
      <!-- 0.8 -->
      <g transform="translate(99.374375 144.934594)scale(0.18 -0.18)">
       <use xlink:href="#DejaVuSans-30"/>
       <use x="63.623047" xlink:href="#DejaVuSans-2e"/>
       <use x="95.410156" xlink:href="#DejaVuSans-38"/>
      </g>
     </g>
    </g>
    <g id="ytick_6">
     <g id="line2d_12">
      <g>
       <use style="stroke:#000000;stroke-width:0.8;" x="135" xlink:href="#m2531852032" y="60.48"/>
      </g>
     </g>
     <g id="text_13">
      <!-- 1.0 -->
      <g transform="translate(99.374375 67.318594)scale(0.18 -0.18)">
       <use xlink:href="#DejaVuSans-31"/>
       <use x="63.623047" xlink:href="#DejaVuSans-2e"/>
       <use x="95.410156" xlink:href="#DejaVuSans-30"/>
      </g>
     </g>
    </g>
    <g id="text_14">
     <!-- $TPR_{Fair}$ -->
     <g transform="translate(90.799062 290.27)rotate(-90)scale(0.22 -0.22)">
      <defs>
       <path d="M 378 4666 
L 4325 4666 
L 4225 4134 
L 2559 4134 
L 1759 0 
L 1125 0 
L 1925 4134 
L 275 4134 
L 378 4666 
z
" id="DejaVuSans-Oblique-54" transform="scale(0.015625)"/>
      </defs>
      <use transform="translate(0 0.09375)" xlink:href="#DejaVuSans-Oblique-54"/>
      <use transform="translate(61.083984 0.09375)" xlink:href="#DejaVuSans-Oblique-50"/>
      <use transform="translate(121.386719 0.09375)" xlink:href="#DejaVuSans-Oblique-52"/>
      <use transform="translate(190.869141 -16.3125)scale(0.7)" xlink:href="#DejaVuSans-Oblique-46"/>
      <use transform="translate(231.132812 -16.3125)scale(0.7)" xlink:href="#DejaVuSans-Oblique-61"/>
      <use transform="translate(274.02832 -16.3125)scale(0.7)" xlink:href="#DejaVuSans-Oblique-69"/>
      <use transform="translate(293.476562 -16.3125)scale(0.7)" xlink:href="#DejaVuSans-Oblique-72"/>
     </g>
    </g>
   </g>
   <g id="line2d_13">
    <path clip-path="url(#p128ba97b02)" d="M 135 448.56 
L 972 60.48 
" style="fill:none;stroke:#ff0000;stroke-dasharray:5.55,2.4;stroke-dashoffset:0;stroke-width:1.5;"/>
   </g>
   <g id="line2d_14">
    <path clip-path="url(#p128ba97b02)" d="M 972 60.48 
L 230.514513 322.449231 
L 192.703045 371.920774 
L 177.736556 394.116158 
L 169.287045 406.189506 
L 164.138749 413.504203 
L 160.788598 418.449027 
L 158.550832 422.133536 
L 156.645863 425.303823 
L 155.310057 427.679197 
L 154.211007 429.449623 
L 153.324489 430.673108 
L 152.395423 431.690797 
L 151.540268 432.811346 
L 150.639281 433.802028 
L 149.89508 434.744854 
L 149.183612 435.505321 
L 148.766447 436.088874 
L 148.230101 436.609192 
L 147.753415 437.273969 
L 147.388988 437.840205 
L 147.027813 438.482908 
L 146.749363 438.832186 
L 146.36976 439.128236 
L 146.099348 439.470393 
L 145.724467 439.743416 
L 145.508116 440.042603 
L 145.203626 440.350707 
L 144.877111 440.605825 
L 144.689636 440.930106 
L 144.480916 441.200932 
L 144.112353 441.504787 
L 143.853345 441.921456 
L 143.684774 442.177651 
L 143.519478 442.563358 
L 143.315075 442.878649 
L 143.040129 443.112717 
L 142.853242 443.414567 
L 142.752031 443.738434 
L 142.621898 444.111986 
L 142.493286 444.452372 
L 142.339629 444.61391 
L 142.194142 444.664326 
L 142.08005 444.753925 
L 141.963622 444.806942 
L 141.821076 444.852338 
L 141.686639 444.890611 
L 141.583258 444.943317 
L 141.45889 444.996033 
L 141.308882 445.053059 
L 141.190208 445.101799 
L 141.075877 445.1588 
L 140.889906 445.240187 
L 140.834939 445.312088 
L 140.78808 445.353223 
L 140.686939 445.385339 
L 140.647111 445.418959 
L 140.601717 445.448614 
L 140.52286 445.509916 
L 140.48646 445.571485 
L 140.418246 445.633855 
L 140.349848 445.664088 
L 140.315125 445.700203 
L 140.215044 445.764738 
L 140.123426 445.801772 
L 140.062442 445.839505 
L 140.000171 445.867179 
L 139.965591 445.904214 
L 139.877918 445.927476 
L 139.792627 445.953058 
L 139.765816 445.974808 
L 139.736482 446.027586 
L 139.709829 446.053722 
L 139.652889 446.075587 
L 139.546989 446.098758 
L 139.521105 446.119396 
L 139.469888 446.138654 
L 139.420067 446.160087 
L 139.365892 446.202483 
L 139.316617 446.219796 
L 139.264365 446.281914 
L 139.212736 446.300669 
L 139.188382 446.339552 
L 139.16843 446.382928 
L 139.145987 446.403506 
L 139.075425 446.445003 
L 138.979883 446.485873 
L 138.882637 446.524767 
L 138.864243 446.543331 
L 138.845214 446.560246 
L 138.800341 446.576016 
L 138.782151 446.611113 
L 138.764024 446.642938 
L 138.672025 446.674608 
L 138.606173 446.704637 
L 138.562325 446.735911 
L 138.544244 446.746637 
L 138.476034 446.776563 
L 138.458281 446.787117 
L 138.417302 446.819103 
L 138.400892 446.83158 
" style="fill:none;stroke:#1f77b4;stroke-linecap:square;stroke-width:1.5;"/>
   </g>
   <g id="line2d_15">
    <path clip-path="url(#p128ba97b02)" d="M 972 60.48 
L 895.667724 67.17392 
L 844.707554 73.28847 
L 805.036247 78.549509 
L 773.167311 84.303709 
L 740.694904 89.516671 
L 717.560481 93.716071 
L 701.175402 97.879449 
L 687.966349 102.617157 
L 681.577625 105.530746 
L 676.0125 109.250699 
L 670.020892 112.041954 
L 663.68458 113.480548 
L 657.45647 116.860828 
L 652.809325 120.517129 
L 647.710312 125.8992 
L 641.27404 130.293333 
L 634.145016 133.165993 
L 627.969104 136.993947 
L 624.5043 140.235395 
L 619.999805 143.8976 
L 617.037615 147.328548 
L 614.240795 149.73684 
L 611.674932 151.893708 
L 609.294554 154.315196 
L 606.650645 156.026475 
L 604.368761 158.46595 
L 602.189523 161.150257 
L 600.127923 162.904907 
L 597.856383 164.845363 
L 595.209591 166.292199 
L 592.615248 168.745933 
L 590.006741 170.880754 
L 587.620909 172.64626 
L 584.962411 174.594182 
L 582.612318 177.041671 
L 580.26259 179.41763 
L 578.531306 181.438004 
L 576.470553 183.841141 
L 574.315884 186.795628 
L 572.324096 188.805534 
L 570.186065 190.356613 
L 567.849536 191.232632 
L 566.42762 192.207911 
L 564.243784 193.848772 
L 561.888641 194.922 
L 558.683452 196.346424 
L 555.544788 197.404315 
L 552.730856 198.959905 
L 551.01454 200.881691 
L 549.033251 201.779366 
L 547.215182 203.46478 
L 544.941541 205.126633 
L 542.849162 206.984699 
L 540.313433 208.028136 
L 537.651685 209.271333 
L 535.122581 211.259839 
L 533.529902 212.876712 
L 530.958664 214.979774 
L 529.633173 216.733263 
L 527.316384 218.871128 
L 525.025829 220.311681 
L 522.473884 222.023884 
L 520.016466 223.700615 
L 518.35202 225.492646 
L 515.858082 227.166344 
L 514.015512 228.325312 
L 511.765681 229.551618 
L 509.297274 230.818278 
L 507.178503 232.309312 
L 505.630602 233.420921 
L 503.544523 234.530596 
L 501.377483 235.819919 
L 498.189264 236.634821 
L 495.732692 237.382161 
L 493.407692 238.2912 
L 491.056007 239.485253 
L 489.115385 240.373449 
L 485.363829 241.658964 
L 482.567797 242.313579 
L 480.910305 243.673913 
L 479.260038 244.734121 
L 477.595152 245.810844 
L 475.198847 246.585796 
L 473.346458 247.43622 
L 471.594212 248.363294 
L 469.835985 249.279403 
L 468.143287 250.119376 
L 466.770788 251.433468 
L 464.924272 252.192068 
L 462.529602 253.564138 
L 460.953216 254.52 
L 458.332755 255.198462 
L 456.615752 256.144899 
L 454.79974 256.885517 
L 452.896417 258.109571 
L 451.127202 259.443504 
L 448.988698 260.657518 
L 446.530781 262.029496 
L 444.844831 263.288279 
L 443.387595 264.49308 
" style="fill:none;stroke:#ff7f0e;stroke-linecap:square;stroke-width:1.5;"/>
   </g>
   <g id="line2d_16">
    <path clip-path="url(#p128ba97b02)" d="M 972 60.48 
L 970.519223 60.597757 
L 968.728765 60.670119 
L 966.521534 60.743479 
L 964.767709 60.793473 
L 964.087729 60.892309 
L 963.329317 60.96809 
L 962.495865 61.019954 
L 960.758288 61.146762 
L 959.997422 61.175083 
L 959.842501 61.178479 
L 959.643774 61.183134 
L 959.321696 61.237279 
L 958.996093 61.368752 
L 958.693725 61.452311 
L 958.388957 61.485188 
L 958.123767 61.596889 
L 957.78702 61.630022 
L 957.553616 61.716845 
L 957.415138 61.80541 
L 957.137153 61.872215 
L 956.945746 61.911531 
L 956.693856 61.919144 
L 956.478969 61.980591 
L 956.315523 62.098486 
L 956.091669 62.104572 
L 955.898892 62.138698 
L 955.695086 62.173339 
L 955.557449 62.235514 
L 955.400525 62.243364 
L 955.138741 62.305928 
L 954.957518 62.313627 
L 954.775187 62.377632 
L 954.598376 62.441867 
L 954.356815 62.479529 
L 954.127786 62.517391 
L 953.829604 62.554678 
L 953.614164 62.593852 
L 953.486887 62.633898 
L 953.306162 62.6469 
L 953.089063 62.685668 
L 952.928017 62.749301 
L 952.732402 62.755003 
L 952.493955 62.790353 
L 952.285008 62.856121 
L 952.034771 62.893766 
L 951.82469 62.901017 
L 951.605066 62.93867 
L 951.37922 62.977142 
L 951.157139 63.045269 
L 950.940467 63.085174 
L 950.71238 63.125171 
L 950.504689 63.19534 
L 950.205894 63.294169 
L 949.975094 63.3315 
L 949.690803 63.399743 
L 949.450511 63.470923 
L 949.250657 63.539154 
L 949.017666 63.669868 
L 948.841456 63.678547 
L 948.548478 63.74955 
L 948.283487 63.758758 
L 948.043241 63.860597 
L 947.820256 63.903496 
L 947.555247 63.975649 
L 947.271789 64.019204 
L 946.997239 64.027581 
L 946.72689 64.038909 
L 946.480972 64.049138 
L 946.282632 64.06031 
L 946.012302 64.102721 
L 945.716196 64.113828 
L 945.456264 64.12349 
L 945.168243 64.130161 
L 944.961189 64.137163 
L 944.657915 64.178781 
L 944.424294 64.189325 
L 944.14545 64.265191 
L 943.912312 64.339865 
L 943.668534 64.382444 
L 943.434129 64.426911 
L 943.124037 64.501554 
L 942.841659 64.511485 
L 942.584883 64.523881 
L 942.340623 64.534617 
L 942.089794 64.611701 
L 941.811967 64.688096 
L 941.356472 64.734675 
L 941.029073 64.752008 
L 940.704229 64.795746 
L 940.326204 64.816468 
L 940.094121 64.860672 
L 939.702997 64.871432 
L 939.384786 64.884956 
L 939.151529 64.896224 
L 938.695209 64.977786 
L 938.251843 65.022973 
L 937.966866 65.069192 
L 937.696087 65.081055 
L 937.420964 65.09752 
L 937.111874 65.146851 
" style="fill:none;stroke:#2ca02c;stroke-linecap:square;stroke-width:1.5;"/>
   </g>
   <g id="line2d_17">
    <path clip-path="url(#p128ba97b02)" d="M 972 60.48 
L 795.543179 85.893879 
L 708.002711 107.716199 
L 647.140618 128.264569 
L 601.872756 146.540005 
L 565.73741 161.82112 
L 539.730074 174.290134 
L 518.696274 186.911487 
L 501.51976 198.421095 
L 487.621586 208.613834 
L 475.694647 217.135778 
L 464.601291 223.846875 
L 454.452026 230.209662 
L 444.561619 237.085176 
L 434.45083 243.573399 
L 425.99479 249.932128 
L 418.073247 256.402176 
L 411.157604 261.095281 
L 403.831512 266.101943 
L 397.281601 271.265075 
L 391.462668 276.535608 
L 386.39963 282.02649 
L 381.105451 285.556388 
L 376.14394 288.589742 
L 371.536734 292.271917 
L 367.430091 295.239283 
L 363.642865 298.030751 
L 359.628506 300.816602 
L 355.908129 303.828049 
L 352.446752 306.495251 
L 348.49862 309.22512 
L 344.604453 311.935135 
L 340.853968 314.572648 
L 337.616387 316.838351 
L 334.175756 319.356927 
L 330.833678 321.682223 
L 327.18628 323.951374 
L 324.181931 326.239485 
L 321.214362 328.542713 
L 318.372644 330.593764 
L 315.791572 332.0525 
L 313.19863 333.445338 
L 310.666341 334.753761 
L 308.193185 336.127393 
L 305.597733 337.53455 
L 303.138446 338.730025 
L 300.777399 339.832298 
L 298.276621 341.141082 
L 295.919541 342.609886 
L 293.897817 344.089958 
L 291.915511 345.391003 
L 289.829487 346.912637 
L 287.46015 348.322932 
L 285.296754 349.565079 
L 283.363725 350.703621 
L 281.506289 351.673116 
L 279.746015 352.665743 
L 277.885234 353.539709 
L 276.019854 354.466744 
L 274.508032 355.450555 
L 272.961235 356.512102 
L 271.180846 357.45883 
L 269.634689 358.559626 
L 267.866914 359.707742 
L 266.277934 360.834087 
L 264.559215 361.980935 
L 262.947851 362.852532 
L 261.492636 364.138005 
L 259.837373 365.007582 
L 258.470569 366.014796 
L 257.186415 366.847045 
L 255.618429 367.829939 
L 254.319603 368.674266 
L 252.92713 369.397938 
L 251.680299 370.096337 
L 250.267995 370.733511 
L 248.880006 371.412979 
L 247.683888 372.133847 
L 246.444843 372.870512 
L 244.999467 373.488845 
L 243.619338 374.116095 
L 242.311665 374.780732 
L 241.146417 375.414759 
L 239.869637 376.198495 
L 238.775904 376.92553 
L 237.633834 377.641482 
L 236.395127 378.305302 
L 235.162194 379.025856 
L 234.071438 379.791385 
L 232.976877 380.40187 
L 231.786995 381.067112 
L 230.736765 381.592825 
L 229.633745 382.014829 
L 228.40966 382.470104 
L 227.424105 382.910216 
L 226.245993 383.451939 
L 225.110229 383.949251 
L 223.927178 384.392049 
L 222.96857 384.809659 
L 221.949655 385.449482 
L 220.868566 386.070681 
" style="fill:none;stroke:#d62728;stroke-linecap:square;stroke-width:1.5;"/>
   </g>
   <g id="line2d_18">
    <path clip-path="url(#p128ba97b02)" d="M 972 60.48 
L 861.676804 75.585469 
L 796.798267 89.194745 
L 748.453416 103.145951 
L 709.085684 115.859191 
L 677.67033 127.102466 
L 652.299605 136.878462 
L 631.721232 147.085756 
L 615.447121 155.787151 
L 600.434969 164.065263 
L 588.001169 171.412371 
L 576.620883 177.153627 
L 566.095803 182.428626 
L 555.826508 188.48029 
L 544.444359 194.256438 
L 534.793056 199.910965 
L 526.137392 205.651541 
L 518.733208 209.893138 
L 510.241717 214.490481 
L 502.637906 219.540388 
L 495.852365 224.931545 
L 490.3292 230.026141 
L 484.274957 233.815748 
L 478.369638 236.975473 
L 472.489567 240.656732 
L 467.463369 243.59582 
L 462.727233 246.349738 
L 457.770142 249.257297 
L 453.117503 252.269498 
L 448.932473 255.156197 
L 443.911857 258.108303 
L 438.767708 261.049241 
L 434.084323 264.051495 
L 429.982327 266.5289 
L 425.489913 269.353353 
L 421.197969 271.712385 
L 416.962536 274.279839 
L 413.295664 276.969806 
L 409.527591 279.641959 
L 406.165974 281.871803 
L 402.920725 283.437408 
L 399.701935 285.033359 
L 396.55492 286.569579 
L 393.320301 288.277223 
L 389.8747 289.951401 
L 386.595196 291.316332 
L 383.585612 292.639264 
L 380.203634 294.195831 
L 377.066735 295.944548 
L 374.294043 297.782944 
L 371.44796 299.410667 
L 368.622828 301.24515 
L 365.420081 302.976292 
L 362.298283 304.468781 
L 359.622968 305.992331 
L 357.151193 307.070309 
L 354.762439 308.330973 
L 352.084879 309.413883 
L 349.384269 310.610673 
L 347.214808 311.869423 
L 344.881061 313.352539 
L 342.495876 314.608357 
L 340.277926 316.012256 
L 337.872442 317.459962 
L 335.601683 319.046678 
L 333.217684 320.539655 
L 330.945894 321.638719 
L 328.81341 323.271467 
L 326.545192 324.319939 
L 324.61918 325.542767 
L 322.645855 326.604633 
L 320.469867 327.835151 
L 318.505571 329.010273 
L 316.531953 329.945625 
L 314.756184 330.921522 
L 312.848497 331.773461 
L 310.866006 332.73791 
L 309.229876 333.695736 
L 307.416137 334.603978 
L 305.397125 335.394108 
L 303.388934 336.204853 
L 301.403411 337.081808 
L 299.672024 337.873827 
L 297.713508 338.90561 
L 296.027338 339.920112 
L 294.319356 340.858545 
L 292.393491 341.823154 
L 290.465241 342.747711 
L 288.855813 343.809643 
L 287.17701 344.689315 
L 285.507487 345.616043 
L 284.113578 346.359207 
L 282.481812 346.922649 
L 280.639311 347.52984 
L 279.185889 348.130293 
L 277.460316 348.853547 
L 275.82659 349.526377 
L 274.041886 350.130343 
L 272.568846 350.758314 
L 271.077004 351.585273 
L 269.501768 352.472062 
" style="fill:none;stroke:#9467bd;stroke-linecap:square;stroke-width:1.5;"/>
   </g>
   <g id="line2d_19">
    <path clip-path="url(#p128ba97b02)" d="M 972 60.48 
L 892.18326 71.404763 
L 844.511903 81.911679 
L 807.45992 92.217506 
L 775.710982 101.947275 
L 750.363526 110.57663 
L 730.247643 118.232289 
L 712.892675 126.376498 
L 697.597322 134.263941 
L 683.181739 141.640803 
L 670.956274 147.475793 
L 659.906934 152.07592 
L 649.562179 156.86087 
L 639.531902 161.73478 
L 627.966997 166.728043 
L 617.881751 171.688757 
L 609.092259 176.42885 
L 601.744131 180.416965 
L 593.098599 184.636444 
L 585.157881 189.368871 
L 578.119737 194.217514 
L 571.757007 198.97268 
L 564.824056 202.382879 
L 558.318743 205.401452 
L 551.928834 209.060019 
L 546.402712 212.231233 
L 541.317958 215.216842 
L 536.231261 218.293439 
L 531.024657 221.282817 
L 526.31117 224.23203 
L 520.623567 227.102189 
L 514.967439 230.149188 
L 509.62049 232.945202 
L 505.042795 235.500617 
L 500.121312 238.49955 
L 495.531875 240.943578 
L 490.553828 243.484427 
L 486.12012 246.198322 
L 481.859395 248.734228 
L 477.793856 251.021957 
L 473.998298 252.752787 
L 470.393617 254.356804 
L 466.802505 256.05416 
L 463.060577 257.938116 
L 459.072513 259.50865 
L 455.248886 261.1215 
L 451.644087 262.471859 
L 447.782623 264.039493 
L 444.330106 265.792283 
L 441.233762 267.808445 
L 437.987257 269.515676 
L 434.76336 271.481827 
L 431.145763 273.17318 
L 427.442119 274.806053 
L 424.271863 276.396378 
L 421.537537 277.705286 
L 418.772939 279.034297 
L 415.721663 280.182803 
L 412.684862 281.439106 
L 410.120823 282.688554 
L 407.407637 284.133026 
L 404.47434 285.414387 
L 402.008682 287.002418 
L 398.971641 288.623599 
L 396.327815 290.327799 
L 393.627942 291.872564 
L 390.989282 293.116395 
L 388.657945 294.942769 
L 386.031833 296.199668 
L 383.753879 297.566995 
L 381.348549 298.749939 
L 378.767213 300.231951 
L 376.432675 301.490868 
L 374.042073 302.628834 
L 371.847442 303.755566 
L 369.51126 304.816052 
L 367.244586 305.823556 
L 365.144295 306.879033 
L 362.93043 307.988755 
L 360.632173 309.00869 
L 358.250452 309.925711 
L 355.886696 311.001827 
L 353.747204 311.921601 
L 351.406134 313.120041 
L 349.372337 314.226875 
L 347.308114 315.273707 
L 345.028631 316.479346 
L 342.551122 317.557741 
L 340.698028 318.82362 
L 338.72584 319.790424 
L 336.755527 320.920078 
L 335.075572 321.793369 
L 333.184891 322.375634 
L 330.956235 323.04281 
L 329.139482 323.713647 
L 327.00592 324.508832 
L 325.007641 325.278772 
L 322.79028 325.981068 
L 321.047218 326.715124 
L 319.293318 327.652413 
L 317.355711 328.628678 
" style="fill:none;stroke:#8c564b;stroke-linecap:square;stroke-width:1.5;"/>
   </g>
   <g id="line2d_20">
    <path clip-path="url(#p128ba97b02)" d="M 972 60.48 
L 931.987271 69.187557 
L 904.153808 77.436531 
L 881.141151 85.826485 
L 859.243979 93.998721 
L 841.612413 101.252137 
L 825.449382 107.449392 
L 810.182515 113.537576 
L 796.413979 119.436812 
L 784.140455 125.774408 
L 773.864475 131.18838 
L 764.560469 135.156483 
L 755.614433 139.596132 
L 746.473677 144.470013 
L 735.983634 148.768837 
L 726.460203 152.975168 
L 717.724958 157.192089 
L 710.466461 160.46872 
L 701.925749 164.019788 
L 694.193882 168.156013 
L 687.247032 172.495183 
L 680.899129 176.629075 
L 673.81781 179.96409 
L 668.230024 182.732997 
L 662.2438 186.16 
L 657.216109 188.948775 
L 651.619001 191.419487 
L 645.483909 194.137472 
L 639.844864 197.16259 
L 635.222632 200.027111 
L 629.214979 202.951386 
L 623.137671 205.84208 
L 617.309454 208.624424 
L 612.298418 211.133106 
L 606.791864 214.093448 
L 601.780153 216.423529 
L 596.738593 219.041346 
L 592.352785 221.846766 
L 588.313907 224.412018 
L 583.976592 226.69298 
L 579.23416 228.373279 
L 574.900568 229.972699 
L 570.604036 231.562617 
L 566.090848 233.592026 
L 561.027231 235.345807 
L 556.781458 237.052649 
L 552.537046 238.521276 
L 548.133943 240.317419 
L 543.916031 242.399714 
L 539.906679 244.442531 
L 535.854609 246.324338 
L 531.914229 248.579654 
L 527.305828 250.481952 
L 522.711925 252.342034 
L 518.832178 254.053718 
L 515.23192 255.261075 
L 511.64311 256.634877 
L 507.752897 257.801373 
L 503.643466 259.246825 
L 500.337847 260.637742 
L 496.914518 262.225404 
L 493.343295 263.487285 
L 490.178834 265.186476 
L 486.432255 266.866163 
L 483.020985 268.51657 
L 479.55106 270.076393 
L 476.070375 271.423021 
L 472.843267 273.512648 
L 469.515536 274.817157 
L 466.504911 276.257899 
L 463.437475 277.521951 
L 460.150884 279.339188 
L 457.3125 280.837513 
L 454.160367 282.142672 
L 451.375091 283.452208 
L 448.315868 284.598727 
L 445.334725 285.774103 
L 442.646073 286.899319 
L 439.69252 287.998801 
L 436.779382 289.002131 
L 433.685074 289.958123 
L 430.588348 291.12311 
L 427.68876 292.198886 
L 424.762743 293.446831 
L 421.979017 294.794609 
L 419.273538 296.005328 
L 416.343702 297.26979 
L 413.226688 298.508893 
L 410.853259 299.913397 
L 408.286539 300.992816 
L 405.856347 302.249294 
L 403.647495 303.273676 
L 401.259671 304.031127 
L 398.559916 304.739966 
L 396.350124 305.422768 
L 393.582687 306.318582 
L 391.138521 307.10689 
L 388.553639 307.862899 
L 386.441874 308.639018 
L 384.146617 309.655526 
L 381.566277 310.698194 
" style="fill:none;stroke:#e377c2;stroke-linecap:square;stroke-width:1.5;"/>
   </g>
   <g id="line2d_21">
    <path clip-path="url(#p128ba97b02)" d="M 972 60.48 
L 960.328169 61.181984 
L 951.271084 61.776153 
L 943.309985 62.258552 
L 937.126792 62.714283 
L 930.487344 63.410711 
L 924.769409 63.78639 
L 920.755102 64.343595 
L 916.340728 65.028523 
L 914.449208 65.444062 
L 912.481547 66.040148 
L 910.705981 66.351616 
L 908.704128 66.566439 
L 906.616278 67.093941 
L 905.25004 67.393799 
L 903.701803 67.879497 
L 901.559406 68.593392 
L 898.889099 68.992764 
L 896.926006 69.45888 
L 895.771908 69.937493 
L 894.290402 70.350582 
L 893.350423 70.883498 
L 892.028285 71.259084 
L 890.834941 71.534901 
L 889.868902 71.974237 
L 888.90776 72.270278 
L 887.984944 72.804771 
L 887.041714 73.238519 
L 886.205928 73.513415 
L 885.269541 73.791184 
L 884.314752 74.067194 
L 883.287758 74.382385 
L 882.160114 74.772669 
L 881.208473 75.060744 
L 879.950634 75.263673 
L 878.803026 75.664392 
L 877.774973 76.029461 
L 876.741722 76.272541 
L 875.856015 76.699414 
L 874.757773 77.099978 
L 873.904269 77.377533 
L 872.879502 77.818845 
L 871.788691 78.091124 
L 870.831201 78.269505 
L 869.794734 78.651325 
L 868.690656 78.875447 
L 867.449679 79.100719 
L 866.267351 79.355903 
L 865.025812 79.731917 
L 864.100265 80.095576 
L 863.10787 80.297616 
L 862.02098 80.679349 
L 860.846582 81.057534 
L 859.469873 81.520918 
L 858.193329 81.745652 
L 856.979103 82.076358 
L 855.727323 82.519651 
L 854.576812 82.913424 
L 853.382644 83.482202 
L 852.394585 83.712846 
L 851.163175 84.196611 
L 849.896045 84.608756 
L 848.811766 84.987992 
L 847.438053 85.410351 
L 846.357616 85.982927 
L 844.982504 86.438281 
L 843.841209 86.729639 
L 842.393914 86.923962 
L 841.115804 87.131187 
L 839.842105 87.555349 
L 838.524277 87.804839 
L 836.691357 87.98852 
L 835.284583 88.334068 
L 833.404358 88.519485 
L 831.338778 88.702632 
L 829.600869 89.036901 
L 827.942046 89.225268 
L 826.115025 89.543427 
L 822.959913 89.897806 
L 820.830927 90.174575 
L 819.305432 90.531284 
L 817.934559 90.921382 
L 816.605274 91.175162 
L 815.378548 91.506506 
L 814.108353 91.79161 
L 812.6416 92.106735 
L 811.133649 92.496504 
L 808.959152 92.800739 
L 807.466438 93.032636 
L 805.695248 93.313667 
L 804.107263 93.539531 
L 802.139092 93.784065 
L 799.945528 94.090465 
L 798.328955 94.331459 
L 796.855358 94.520731 
L 795.011242 94.903603 
L 793.281674 95.152464 
L 791.362314 95.39459 
L 789.669606 95.899843 
L 787.282232 96.173704 
L 785.589517 96.419945 
" style="fill:none;stroke:#7f7f7f;stroke-linecap:square;stroke-width:1.5;"/>
   </g>
   <g id="line2d_22">
    <path clip-path="url(#p128ba97b02)" d="M 972 60.48 
L 885.611412 70.004215 
L 834.005595 78.679856 
L 793.726348 87.751684 
L 760.510217 96.456764 
L 732.82393 104.133945 
L 710.99818 110.873599 
L 692.963327 118.082015 
L 678.16445 124.943679 
L 665.849172 131.378584 
L 655.036717 137.162094 
L 644.924801 141.305271 
L 635.470006 145.555053 
L 626.071377 150.287741 
L 616.201219 154.636693 
L 607.818621 159.196321 
L 599.94539 163.711856 
L 592.906596 167.167361 
L 585.233108 170.963702 
L 578.320685 175.186099 
L 571.967963 179.510953 
L 566.58886 184.029584 
L 560.735021 187.040176 
L 555.378156 189.766045 
L 550.168831 193.1547 
L 545.509852 195.910784 
L 541.070224 198.729185 
L 536.605829 201.635586 
L 532.368289 204.565744 
L 528.304369 207.268435 
L 523.565506 210.109504 
L 518.801453 212.924402 
L 514.227339 215.621495 
L 510.186618 218.020394 
L 505.821642 220.74277 
L 501.455812 223.189229 
L 496.97259 225.682173 
L 492.946127 228.231298 
L 489.264186 230.744635 
L 485.549452 232.905784 
L 481.940487 234.438194 
L 478.472844 236.042135 
L 475.144754 237.619425 
L 471.732721 239.308655 
L 468.183053 241.001615 
L 464.728598 242.496867 
L 461.542601 243.879634 
L 458.141296 245.573689 
L 455.035815 247.4514 
L 452.103143 249.452401 
L 449.105864 251.172859 
L 446.303434 253.22742 
L 442.961637 255.035727 
L 439.747954 256.655449 
L 436.943081 258.297504 
L 434.448259 259.571781 
L 431.810046 261.024736 
L 428.934324 262.276319 
L 426.066577 263.681039 
L 423.648975 265.096278 
L 421.024249 266.646992 
L 418.275724 267.982086 
L 415.882465 269.580924 
L 412.97342 271.20087 
L 410.504605 272.848425 
L 407.948827 274.537621 
L 405.440882 275.823676 
L 402.811617 277.634654 
L 400.123825 278.780821 
L 397.862523 280.056662 
L 395.590069 281.168643 
L 393.102036 282.568255 
L 390.918193 283.863675 
L 388.475122 284.981574 
L 386.245849 286.136308 
L 383.790901 287.146593 
L 381.545846 288.188323 
L 379.440074 289.297239 
L 377.008636 290.440142 
L 374.689473 291.447618 
L 372.282369 292.438233 
L 370.008358 293.518667 
L 367.922308 294.453505 
L 365.715907 295.684408 
L 363.578313 296.924656 
L 361.569185 298.075006 
L 359.415201 299.227962 
L 356.904106 300.335 
L 354.921899 301.571186 
L 352.919171 302.63627 
L 350.945236 303.772949 
L 349.039881 304.771636 
L 347.023626 305.518454 
L 344.816299 306.28305 
L 343.002324 306.942938 
L 340.743843 307.766702 
L 338.6847 308.565208 
L 336.508582 309.287797 
L 334.6093 310.070055 
L 332.651544 311.012137 
L 330.647622 311.982724 
" style="fill:none;stroke:#bcbd22;stroke-linecap:square;stroke-width:1.5;"/>
   </g>
   <g id="line2d_23">
    <path clip-path="url(#p128ba97b02)" d="M 972 60.48 
L 902.496056 67.761701 
L 859.959634 74.217954 
L 825.258956 81.173969 
L 796.74178 88.012627 
L 772.313684 94.220304 
L 753.079919 99.709731 
L 737.174924 105.651035 
L 723.577178 111.263654 
L 712.370216 116.561294 
L 702.394087 121.406516 
L 693.121199 124.824218 
L 684.125146 128.328781 
L 675.200903 132.389673 
L 665.695985 136.175732 
L 657.62272 140.027155 
L 650.151789 144.024006 
L 643.467451 147.0097 
L 636.228465 150.146232 
L 629.556388 153.843823 
L 623.518363 157.494962 
L 618.309257 161.401662 
L 612.586203 164.190346 
L 607.472686 166.589562 
L 602.372039 169.603368 
L 597.870882 172.063589 
L 593.60615 174.383491 
L 589.225756 176.941077 
L 585.06482 179.663947 
L 581.053001 182.157923 
L 576.363647 184.801412 
L 571.51494 187.398526 
L 567.082583 190.01066 
L 563.001414 192.280755 
L 558.759765 194.894787 
L 554.348932 197.147102 
L 549.838964 199.567247 
L 545.649825 201.98176 
L 541.793706 204.324538 
L 538.064051 206.269682 
L 534.416335 207.655535 
L 530.888459 209.259233 
L 527.568005 210.792035 
L 524.110759 212.507603 
L 520.55292 214.192382 
L 517.082441 215.625608 
L 513.799845 216.950553 
L 510.299701 218.66148 
L 507.108301 220.453539 
L 504.146559 222.414572 
L 501.130905 224.121605 
L 498.197924 226.191072 
L 494.766828 228.034605 
L 491.393703 229.657783 
L 488.497626 231.286388 
L 485.861169 232.571255 
L 483.20858 233.931928 
L 480.237745 235.157961 
L 477.198509 236.566758 
L 474.691332 237.979749 
L 472.008517 239.497548 
L 469.193816 240.823158 
L 466.702246 242.436002 
L 463.626443 244.129024 
L 460.942289 245.846755 
L 458.230187 247.609167 
L 455.537765 248.962847 
L 452.772307 250.777146 
L 449.931523 251.953657 
L 447.513725 253.245291 
L 445.177113 254.382366 
L 442.569462 255.841864 
L 440.236185 257.176543 
L 437.58639 258.30872 
L 435.310435 259.509668 
L 432.730508 260.642737 
L 430.31359 261.693777 
L 428.054646 262.891404 
L 425.473161 263.994947 
L 423.081204 265.002297 
L 420.481992 266.008594 
L 417.910373 267.096739 
L 415.57428 268.069954 
L 413.278806 269.360491 
L 410.934583 270.634182 
L 408.689375 271.842124 
L 406.359499 273.063619 
L 403.656769 274.232121 
L 401.450072 275.523939 
L 399.252453 276.633853 
L 397.013495 277.836753 
L 394.908169 278.805987 
L 392.752358 279.592963 
L 390.294785 280.416442 
L 388.287126 281.128041 
L 385.734806 281.971598 
L 383.425841 282.809444 
L 381.015861 283.565504 
L 378.847615 284.404204 
L 376.634418 285.395036 
L 374.414862 286.396001 
" style="fill:none;stroke:#17becf;stroke-linecap:square;stroke-width:1.5;"/>
   </g>
   <g id="patch_3">
    <path d="M 135 448.56 
L 135 60.48 
" style="fill:none;stroke:#000000;stroke-linecap:square;stroke-linejoin:miter;stroke-width:0.8;"/>
   </g>
   <g id="patch_4">
    <path d="M 972 448.56 
L 972 60.48 
" style="fill:none;stroke:#000000;stroke-linecap:square;stroke-linejoin:miter;stroke-width:0.8;"/>
   </g>
   <g id="patch_5">
    <path d="M 135 448.56 
L 972 448.56 
" style="fill:none;stroke:#000000;stroke-linecap:square;stroke-linejoin:miter;stroke-width:0.8;"/>
   </g>
   <g id="patch_6">
    <path d="M 135 60.48 
L 972 60.48 
" style="fill:none;stroke:#000000;stroke-linecap:square;stroke-linejoin:miter;stroke-width:0.8;"/>
   </g>
   <g id="legend_1">
    <g id="patch_7">
     <path d="M 850.269375 439.56 
L 959.4 439.56 
Q 963 439.56 963 435.96 
L 963 173.55375 
Q 963 169.95375 959.4 169.95375 
L 850.269375 169.95375 
Q 846.669375 169.95375 846.669375 173.55375 
L 846.669375 435.96 
Q 846.669375 439.56 850.269375 439.56 
z
" style="fill:#ffffff;opacity:0.8;stroke:#cccccc;stroke-linejoin:miter;"/>
    </g>
    <g id="line2d_24">
     <path d="M 853.869375 184.530938 
L 889.869375 184.530938 
" style="fill:none;stroke:#1f77b4;stroke-linecap:square;stroke-width:1.5;"/>
    </g>
    <g id="line2d_25"/>
    <g id="text_15">
     <!-- 0.001 -->
     <g transform="translate(904.269375 190.830938)scale(0.18 -0.18)">
      <use xlink:href="#DejaVuSans-30"/>
      <use x="63.623047" xlink:href="#DejaVuSans-2e"/>
      <use x="95.410156" xlink:href="#DejaVuSans-30"/>
      <use x="159.033203" xlink:href="#DejaVuSans-30"/>
      <use x="222.65625" xlink:href="#DejaVuSans-31"/>
     </g>
    </g>
    <g id="line2d_26">
     <path d="M 853.869375 210.951563 
L 889.869375 210.951563 
" style="fill:none;stroke:#ff7f0e;stroke-linecap:square;stroke-width:1.5;"/>
    </g>
    <g id="line2d_27"/>
    <g id="text_16">
     <!-- 0.011 -->
     <g transform="translate(904.269375 217.251563)scale(0.18 -0.18)">
      <use xlink:href="#DejaVuSans-30"/>
      <use x="63.623047" xlink:href="#DejaVuSans-2e"/>
      <use x="95.410156" xlink:href="#DejaVuSans-30"/>
      <use x="159.033203" xlink:href="#DejaVuSans-31"/>
      <use x="222.65625" xlink:href="#DejaVuSans-31"/>
     </g>
    </g>
    <g id="line2d_28">
     <path d="M 853.869375 237.372188 
L 889.869375 237.372188 
" style="fill:none;stroke:#2ca02c;stroke-linecap:square;stroke-width:1.5;"/>
    </g>
    <g id="line2d_29"/>
    <g id="text_17">
     <!-- 0.021 -->
     <g transform="translate(904.269375 243.672188)scale(0.18 -0.18)">
      <use xlink:href="#DejaVuSans-30"/>
      <use x="63.623047" xlink:href="#DejaVuSans-2e"/>
      <use x="95.410156" xlink:href="#DejaVuSans-30"/>
      <use x="159.033203" xlink:href="#DejaVuSans-32"/>
      <use x="222.65625" xlink:href="#DejaVuSans-31"/>
     </g>
    </g>
    <g id="line2d_30">
     <path d="M 853.869375 263.792813 
L 889.869375 263.792813 
" style="fill:none;stroke:#d62728;stroke-linecap:square;stroke-width:1.5;"/>
    </g>
    <g id="line2d_31"/>
    <g id="text_18">
     <!-- 0.031 -->
     <g transform="translate(904.269375 270.092813)scale(0.18 -0.18)">
      <defs>
       <path d="M 2597 2516 
Q 3050 2419 3304 2112 
Q 3559 1806 3559 1356 
Q 3559 666 3084 287 
Q 2609 -91 1734 -91 
Q 1441 -91 1130 -33 
Q 819 25 488 141 
L 488 750 
Q 750 597 1062 519 
Q 1375 441 1716 441 
Q 2309 441 2620 675 
Q 2931 909 2931 1356 
Q 2931 1769 2642 2001 
Q 2353 2234 1838 2234 
L 1294 2234 
L 1294 2753 
L 1863 2753 
Q 2328 2753 2575 2939 
Q 2822 3125 2822 3475 
Q 2822 3834 2567 4026 
Q 2313 4219 1838 4219 
Q 1578 4219 1281 4162 
Q 984 4106 628 3988 
L 628 4550 
Q 988 4650 1302 4700 
Q 1616 4750 1894 4750 
Q 2613 4750 3031 4423 
Q 3450 4097 3450 3541 
Q 3450 3153 3228 2886 
Q 3006 2619 2597 2516 
z
" id="DejaVuSans-33" transform="scale(0.015625)"/>
      </defs>
      <use xlink:href="#DejaVuSans-30"/>
      <use x="63.623047" xlink:href="#DejaVuSans-2e"/>
      <use x="95.410156" xlink:href="#DejaVuSans-30"/>
      <use x="159.033203" xlink:href="#DejaVuSans-33"/>
      <use x="222.65625" xlink:href="#DejaVuSans-31"/>
     </g>
    </g>
    <g id="line2d_32">
     <path d="M 853.869375 290.213438 
L 889.869375 290.213438 
" style="fill:none;stroke:#9467bd;stroke-linecap:square;stroke-width:1.5;"/>
    </g>
    <g id="line2d_33"/>
    <g id="text_19">
     <!-- 0.041 -->
     <g transform="translate(904.269375 296.513438)scale(0.18 -0.18)">
      <use xlink:href="#DejaVuSans-30"/>
      <use x="63.623047" xlink:href="#DejaVuSans-2e"/>
      <use x="95.410156" xlink:href="#DejaVuSans-30"/>
      <use x="159.033203" xlink:href="#DejaVuSans-34"/>
      <use x="222.65625" xlink:href="#DejaVuSans-31"/>
     </g>
    </g>
    <g id="line2d_34">
     <path d="M 853.869375 316.634063 
L 889.869375 316.634063 
" style="fill:none;stroke:#8c564b;stroke-linecap:square;stroke-width:1.5;"/>
    </g>
    <g id="line2d_35"/>
    <g id="text_20">
     <!-- 0.051 -->
     <g transform="translate(904.269375 322.934063)scale(0.18 -0.18)">
      <defs>
       <path d="M 691 4666 
L 3169 4666 
L 3169 4134 
L 1269 4134 
L 1269 2991 
Q 1406 3038 1543 3061 
Q 1681 3084 1819 3084 
Q 2600 3084 3056 2656 
Q 3513 2228 3513 1497 
Q 3513 744 3044 326 
Q 2575 -91 1722 -91 
Q 1428 -91 1123 -41 
Q 819 9 494 109 
L 494 744 
Q 775 591 1075 516 
Q 1375 441 1709 441 
Q 2250 441 2565 725 
Q 2881 1009 2881 1497 
Q 2881 1984 2565 2268 
Q 2250 2553 1709 2553 
Q 1456 2553 1204 2497 
Q 953 2441 691 2322 
L 691 4666 
z
" id="DejaVuSans-35" transform="scale(0.015625)"/>
      </defs>
      <use xlink:href="#DejaVuSans-30"/>
      <use x="63.623047" xlink:href="#DejaVuSans-2e"/>
      <use x="95.410156" xlink:href="#DejaVuSans-30"/>
      <use x="159.033203" xlink:href="#DejaVuSans-35"/>
      <use x="222.65625" xlink:href="#DejaVuSans-31"/>
     </g>
    </g>
    <g id="line2d_36">
     <path d="M 853.869375 343.054688 
L 889.869375 343.054688 
" style="fill:none;stroke:#e377c2;stroke-linecap:square;stroke-width:1.5;"/>
    </g>
    <g id="line2d_37"/>
    <g id="text_21">
     <!-- 0.061 -->
     <g transform="translate(904.269375 349.354688)scale(0.18 -0.18)">
      <use xlink:href="#DejaVuSans-30"/>
      <use x="63.623047" xlink:href="#DejaVuSans-2e"/>
      <use x="95.410156" xlink:href="#DejaVuSans-30"/>
      <use x="159.033203" xlink:href="#DejaVuSans-36"/>
      <use x="222.65625" xlink:href="#DejaVuSans-31"/>
     </g>
    </g>
    <g id="line2d_38">
     <path d="M 853.869375 369.475313 
L 889.869375 369.475313 
" style="fill:none;stroke:#7f7f7f;stroke-linecap:square;stroke-width:1.5;"/>
    </g>
    <g id="line2d_39"/>
    <g id="text_22">
     <!-- 0.071 -->
     <g transform="translate(904.269375 375.775313)scale(0.18 -0.18)">
      <defs>
       <path d="M 525 4666 
L 3525 4666 
L 3525 4397 
L 1831 0 
L 1172 0 
L 2766 4134 
L 525 4134 
L 525 4666 
z
" id="DejaVuSans-37" transform="scale(0.015625)"/>
      </defs>
      <use xlink:href="#DejaVuSans-30"/>
      <use x="63.623047" xlink:href="#DejaVuSans-2e"/>
      <use x="95.410156" xlink:href="#DejaVuSans-30"/>
      <use x="159.033203" xlink:href="#DejaVuSans-37"/>
      <use x="222.65625" xlink:href="#DejaVuSans-31"/>
     </g>
    </g>
    <g id="line2d_40">
     <path d="M 853.869375 395.895938 
L 889.869375 395.895938 
" style="fill:none;stroke:#bcbd22;stroke-linecap:square;stroke-width:1.5;"/>
    </g>
    <g id="line2d_41"/>
    <g id="text_23">
     <!-- 0.081 -->
     <g transform="translate(904.269375 402.195938)scale(0.18 -0.18)">
      <use xlink:href="#DejaVuSans-30"/>
      <use x="63.623047" xlink:href="#DejaVuSans-2e"/>
      <use x="95.410156" xlink:href="#DejaVuSans-30"/>
      <use x="159.033203" xlink:href="#DejaVuSans-38"/>
      <use x="222.65625" xlink:href="#DejaVuSans-31"/>
     </g>
    </g>
    <g id="line2d_42">
     <path d="M 853.869375 422.316563 
L 889.869375 422.316563 
" style="fill:none;stroke:#17becf;stroke-linecap:square;stroke-width:1.5;"/>
    </g>
    <g id="line2d_43"/>
    <g id="text_24">
     <!-- 0.091 -->
     <g transform="translate(904.269375 428.616563)scale(0.18 -0.18)">
      <defs>
       <path d="M 703 97 
L 703 672 
Q 941 559 1184 500 
Q 1428 441 1663 441 
Q 2288 441 2617 861 
Q 2947 1281 2994 2138 
Q 2813 1869 2534 1725 
Q 2256 1581 1919 1581 
Q 1219 1581 811 2004 
Q 403 2428 403 3163 
Q 403 3881 828 4315 
Q 1253 4750 1959 4750 
Q 2769 4750 3195 4129 
Q 3622 3509 3622 2328 
Q 3622 1225 3098 567 
Q 2575 -91 1691 -91 
Q 1453 -91 1209 -44 
Q 966 3 703 97 
z
M 1959 2075 
Q 2384 2075 2632 2365 
Q 2881 2656 2881 3163 
Q 2881 3666 2632 3958 
Q 2384 4250 1959 4250 
Q 1534 4250 1286 3958 
Q 1038 3666 1038 3163 
Q 1038 2656 1286 2365 
Q 1534 2075 1959 2075 
z
" id="DejaVuSans-39" transform="scale(0.015625)"/>
      </defs>
      <use xlink:href="#DejaVuSans-30"/>
      <use x="63.623047" xlink:href="#DejaVuSans-2e"/>
      <use x="95.410156" xlink:href="#DejaVuSans-30"/>
      <use x="159.033203" xlink:href="#DejaVuSans-39"/>
      <use x="222.65625" xlink:href="#DejaVuSans-31"/>
     </g>
    </g>
   </g>
  </g>
 </g>
 <defs>
  <clipPath id="p128ba97b02">
   <rect height="388.08" width="837" x="135" y="60.48"/>
  </clipPath>
 </defs>
</svg>
