<?xml version="1.0" encoding="utf-8" standalone="no"?>
<!DOCTYPE svg PUBLIC "-//W3C//DTD SVG 1.1//EN"
  "http://www.w3.org/Graphics/SVG/1.1/DTD/svg11.dtd">
<svg height="504pt" version="1.1" viewBox="0 0 1080 504" width="1080pt" xmlns="http://www.w3.org/2000/svg" xmlns:xlink="http://www.w3.org/1999/xlink">
 <metadata>
  <rdf:RDF xmlns:cc="http://creativecommons.org/ns#" xmlns:dc="http://purl.org/dc/elements/1.1/" xmlns:rdf="http://www.w3.org/1999/02/22-rdf-syntax-ns#">
   <cc:Work>
    <dc:type rdf:resource="http://purl.org/dc/dcmitype/StillImage"/>
    <dc:date>2022-01-07T13:25:02.727393</dc:date>
    <dc:format>image/svg+xml</dc:format>
    <dc:creator>
     <cc:Agent>
      <dc:title>Matplotlib v3.4.3, https://matplotlib.org/</dc:title>
     </cc:Agent>
    </dc:creator>
   </cc:Work>
  </rdf:RDF>
 </metadata>
 <defs>
  <style type="text/css">*{stroke-linecap:butt;stroke-linejoin:round;}</style>
 </defs>
 <g id="figure_1">
  <g id="patch_1">
   <path d="M 0 504 
L 1080 504 
L 1080 0 
L 0 0 
z
" style="fill:#ffffff;"/>
  </g>
  <g id="axes_1">
   <g id="patch_2">
    <path d="M 135 448.56 
L 972 448.56 
L 972 60.48 
L 135 60.48 
z
" style="fill:#ffffff;"/>
   </g>
   <g id="matplotlib.axis_1">
    <g id="xtick_1">
     <g id="line2d_1">
      <defs>
       <path d="M 0 0 
L 0 3.5 
" id="m2895d5b693" style="stroke:#000000;stroke-width:0.8;"/>
      </defs>
      <g>
       <use style="stroke:#000000;stroke-width:0.8;" x="135" xlink:href="#m2895d5b693" y="448.56"/>
      </g>
     </g>
     <g id="text_1">
      <!-- 0.0 -->
      <g transform="translate(120.687187 469.237188)scale(0.18 -0.18)">
       <defs>
        <path d="M 2034 4250 
Q 1547 4250 1301 3770 
Q 1056 3291 1056 2328 
Q 1056 1369 1301 889 
Q 1547 409 2034 409 
Q 2525 409 2770 889 
Q 3016 1369 3016 2328 
Q 3016 3291 2770 3770 
Q 2525 4250 2034 4250 
z
M 2034 4750 
Q 2819 4750 3233 4129 
Q 3647 3509 3647 2328 
Q 3647 1150 3233 529 
Q 2819 -91 2034 -91 
Q 1250 -91 836 529 
Q 422 1150 422 2328 
Q 422 3509 836 4129 
Q 1250 4750 2034 4750 
z
" id="DejaVuSans-30" transform="scale(0.015625)"/>
        <path d="M 684 794 
L 1344 794 
L 1344 0 
L 684 0 
L 684 794 
z
" id="DejaVuSans-2e" transform="scale(0.015625)"/>
       </defs>
       <use xlink:href="#DejaVuSans-30"/>
       <use x="63.623047" xlink:href="#DejaVuSans-2e"/>
       <use x="95.410156" xlink:href="#DejaVuSans-30"/>
      </g>
     </g>
    </g>
    <g id="xtick_2">
     <g id="line2d_2">
      <g>
       <use style="stroke:#000000;stroke-width:0.8;" x="302.4" xlink:href="#m2895d5b693" y="448.56"/>
      </g>
     </g>
     <g id="text_2">
      <!-- 0.2 -->
      <g transform="translate(288.087187 469.237188)scale(0.18 -0.18)">
       <defs>
        <path d="M 1228 531 
L 3431 531 
L 3431 0 
L 469 0 
L 469 531 
Q 828 903 1448 1529 
Q 2069 2156 2228 2338 
Q 2531 2678 2651 2914 
Q 2772 3150 2772 3378 
Q 2772 3750 2511 3984 
Q 2250 4219 1831 4219 
Q 1534 4219 1204 4116 
Q 875 4013 500 3803 
L 500 4441 
Q 881 4594 1212 4672 
Q 1544 4750 1819 4750 
Q 2544 4750 2975 4387 
Q 3406 4025 3406 3419 
Q 3406 3131 3298 2873 
Q 3191 2616 2906 2266 
Q 2828 2175 2409 1742 
Q 1991 1309 1228 531 
z
" id="DejaVuSans-32" transform="scale(0.015625)"/>
       </defs>
       <use xlink:href="#DejaVuSans-30"/>
       <use x="63.623047" xlink:href="#DejaVuSans-2e"/>
       <use x="95.410156" xlink:href="#DejaVuSans-32"/>
      </g>
     </g>
    </g>
    <g id="xtick_3">
     <g id="line2d_3">
      <g>
       <use style="stroke:#000000;stroke-width:0.8;" x="469.8" xlink:href="#m2895d5b693" y="448.56"/>
      </g>
     </g>
     <g id="text_3">
      <!-- 0.4 -->
      <g transform="translate(455.487188 469.237188)scale(0.18 -0.18)">
       <defs>
        <path d="M 2419 4116 
L 825 1625 
L 2419 1625 
L 2419 4116 
z
M 2253 4666 
L 3047 4666 
L 3047 1625 
L 3713 1625 
L 3713 1100 
L 3047 1100 
L 3047 0 
L 2419 0 
L 2419 1100 
L 313 1100 
L 313 1709 
L 2253 4666 
z
" id="DejaVuSans-34" transform="scale(0.015625)"/>
       </defs>
       <use xlink:href="#DejaVuSans-30"/>
       <use x="63.623047" xlink:href="#DejaVuSans-2e"/>
       <use x="95.410156" xlink:href="#DejaVuSans-34"/>
      </g>
     </g>
    </g>
    <g id="xtick_4">
     <g id="line2d_4">
      <g>
       <use style="stroke:#000000;stroke-width:0.8;" x="637.2" xlink:href="#m2895d5b693" y="448.56"/>
      </g>
     </g>
     <g id="text_4">
      <!-- 0.6 -->
      <g transform="translate(622.887188 469.237188)scale(0.18 -0.18)">
       <defs>
        <path d="M 2113 2584 
Q 1688 2584 1439 2293 
Q 1191 2003 1191 1497 
Q 1191 994 1439 701 
Q 1688 409 2113 409 
Q 2538 409 2786 701 
Q 3034 994 3034 1497 
Q 3034 2003 2786 2293 
Q 2538 2584 2113 2584 
z
M 3366 4563 
L 3366 3988 
Q 3128 4100 2886 4159 
Q 2644 4219 2406 4219 
Q 1781 4219 1451 3797 
Q 1122 3375 1075 2522 
Q 1259 2794 1537 2939 
Q 1816 3084 2150 3084 
Q 2853 3084 3261 2657 
Q 3669 2231 3669 1497 
Q 3669 778 3244 343 
Q 2819 -91 2113 -91 
Q 1303 -91 875 529 
Q 447 1150 447 2328 
Q 447 3434 972 4092 
Q 1497 4750 2381 4750 
Q 2619 4750 2861 4703 
Q 3103 4656 3366 4563 
z
" id="DejaVuSans-36" transform="scale(0.015625)"/>
       </defs>
       <use xlink:href="#DejaVuSans-30"/>
       <use x="63.623047" xlink:href="#DejaVuSans-2e"/>
       <use x="95.410156" xlink:href="#DejaVuSans-36"/>
      </g>
     </g>
    </g>
    <g id="xtick_5">
     <g id="line2d_5">
      <g>
       <use style="stroke:#000000;stroke-width:0.8;" x="804.6" xlink:href="#m2895d5b693" y="448.56"/>
      </g>
     </g>
     <g id="text_5">
      <!-- 0.8 -->
      <g transform="translate(790.287188 469.237188)scale(0.18 -0.18)">
       <defs>
        <path d="M 2034 2216 
Q 1584 2216 1326 1975 
Q 1069 1734 1069 1313 
Q 1069 891 1326 650 
Q 1584 409 2034 409 
Q 2484 409 2743 651 
Q 3003 894 3003 1313 
Q 3003 1734 2745 1975 
Q 2488 2216 2034 2216 
z
M 1403 2484 
Q 997 2584 770 2862 
Q 544 3141 544 3541 
Q 544 4100 942 4425 
Q 1341 4750 2034 4750 
Q 2731 4750 3128 4425 
Q 3525 4100 3525 3541 
Q 3525 3141 3298 2862 
Q 3072 2584 2669 2484 
Q 3125 2378 3379 2068 
Q 3634 1759 3634 1313 
Q 3634 634 3220 271 
Q 2806 -91 2034 -91 
Q 1263 -91 848 271 
Q 434 634 434 1313 
Q 434 1759 690 2068 
Q 947 2378 1403 2484 
z
M 1172 3481 
Q 1172 3119 1398 2916 
Q 1625 2713 2034 2713 
Q 2441 2713 2670 2916 
Q 2900 3119 2900 3481 
Q 2900 3844 2670 4047 
Q 2441 4250 2034 4250 
Q 1625 4250 1398 4047 
Q 1172 3844 1172 3481 
z
" id="DejaVuSans-38" transform="scale(0.015625)"/>
       </defs>
       <use xlink:href="#DejaVuSans-30"/>
       <use x="63.623047" xlink:href="#DejaVuSans-2e"/>
       <use x="95.410156" xlink:href="#DejaVuSans-38"/>
      </g>
     </g>
    </g>
    <g id="xtick_6">
     <g id="line2d_6">
      <g>
       <use style="stroke:#000000;stroke-width:0.8;" x="972" xlink:href="#m2895d5b693" y="448.56"/>
      </g>
     </g>
     <g id="text_6">
      <!-- 1.0 -->
      <g transform="translate(957.687188 469.237188)scale(0.18 -0.18)">
       <defs>
        <path d="M 794 531 
L 1825 531 
L 1825 4091 
L 703 3866 
L 703 4441 
L 1819 4666 
L 2450 4666 
L 2450 531 
L 3481 531 
L 3481 0 
L 794 0 
L 794 531 
z
" id="DejaVuSans-31" transform="scale(0.015625)"/>
       </defs>
       <use xlink:href="#DejaVuSans-31"/>
       <use x="63.623047" xlink:href="#DejaVuSans-2e"/>
       <use x="95.410156" xlink:href="#DejaVuSans-30"/>
      </g>
     </g>
    </g>
    <g id="text_7">
     <!-- $FPR_{Fair}$ -->
     <g transform="translate(518.08 493.697187)scale(0.22 -0.22)">
      <defs>
       <path d="M 1081 4666 
L 3756 4666 
L 3653 4134 
L 1606 4134 
L 1338 2759 
L 3188 2759 
L 3084 2228 
L 1234 2228 
L 800 0 
L 172 0 
L 1081 4666 
z
" id="DejaVuSans-Oblique-46" transform="scale(0.015625)"/>
       <path d="M 1081 4666 
L 2541 4666 
Q 3178 4666 3512 4369 
Q 3847 4072 3847 3500 
Q 3847 2731 3353 2303 
Q 2859 1875 1966 1875 
L 1172 1875 
L 806 0 
L 172 0 
L 1081 4666 
z
M 1613 4147 
L 1275 2394 
L 2069 2394 
Q 2606 2394 2893 2669 
Q 3181 2944 3181 3456 
Q 3181 3784 2986 3965 
Q 2791 4147 2438 4147 
L 1613 4147 
z
" id="DejaVuSans-Oblique-50" transform="scale(0.015625)"/>
       <path d="M 1613 4147 
L 1294 2491 
L 2106 2491 
Q 2584 2491 2879 2755 
Q 3175 3019 3175 3444 
Q 3175 3784 2976 3965 
Q 2778 4147 2406 4147 
L 1613 4147 
z
M 2772 2241 
Q 2972 2194 3105 2009 
Q 3238 1825 3413 1275 
L 3809 0 
L 3144 0 
L 2778 1197 
Q 2638 1659 2453 1815 
Q 2269 1972 1888 1972 
L 1191 1972 
L 806 0 
L 172 0 
L 1081 4666 
L 2503 4666 
Q 3150 4666 3495 4373 
Q 3841 4081 3841 3531 
Q 3841 3044 3547 2687 
Q 3253 2331 2772 2241 
z
" id="DejaVuSans-Oblique-52" transform="scale(0.015625)"/>
       <path d="M 3438 1997 
L 3047 0 
L 2472 0 
L 2578 531 
Q 2325 219 2001 64 
Q 1678 -91 1281 -91 
Q 834 -91 548 182 
Q 263 456 263 884 
Q 263 1497 752 1853 
Q 1241 2209 2100 2209 
L 2900 2209 
L 2931 2363 
Q 2938 2388 2941 2417 
Q 2944 2447 2944 2509 
Q 2944 2788 2717 2942 
Q 2491 3097 2081 3097 
Q 1800 3097 1504 3025 
Q 1209 2953 897 2809 
L 997 3341 
Q 1322 3463 1633 3523 
Q 1944 3584 2234 3584 
Q 2853 3584 3176 3315 
Q 3500 3047 3500 2534 
Q 3500 2431 3484 2292 
Q 3469 2153 3438 1997 
z
M 2816 1759 
L 2241 1759 
Q 1534 1759 1195 1570 
Q 856 1381 856 984 
Q 856 709 1029 553 
Q 1203 397 1509 397 
Q 1978 397 2328 733 
Q 2678 1069 2791 1631 
L 2816 1759 
z
" id="DejaVuSans-Oblique-61" transform="scale(0.015625)"/>
       <path d="M 1172 4863 
L 1747 4863 
L 1606 4134 
L 1031 4134 
L 1172 4863 
z
M 909 3500 
L 1484 3500 
L 800 0 
L 225 0 
L 909 3500 
z
" id="DejaVuSans-Oblique-69" transform="scale(0.015625)"/>
       <path d="M 2853 2969 
Q 2766 3016 2653 3041 
Q 2541 3066 2413 3066 
Q 1953 3066 1609 2717 
Q 1266 2369 1153 1784 
L 800 0 
L 225 0 
L 909 3500 
L 1484 3500 
L 1375 2956 
Q 1603 3259 1920 3421 
Q 2238 3584 2597 3584 
Q 2691 3584 2781 3573 
Q 2872 3563 2963 3538 
L 2853 2969 
z
" id="DejaVuSans-Oblique-72" transform="scale(0.015625)"/>
      </defs>
      <use transform="translate(0 0.09375)" xlink:href="#DejaVuSans-Oblique-46"/>
      <use transform="translate(57.519531 0.09375)" xlink:href="#DejaVuSans-Oblique-50"/>
      <use transform="translate(117.822266 0.09375)" xlink:href="#DejaVuSans-Oblique-52"/>
      <use transform="translate(187.304688 -16.3125)scale(0.7)" xlink:href="#DejaVuSans-Oblique-46"/>
      <use transform="translate(227.568359 -16.3125)scale(0.7)" xlink:href="#DejaVuSans-Oblique-61"/>
      <use transform="translate(270.463867 -16.3125)scale(0.7)" xlink:href="#DejaVuSans-Oblique-69"/>
      <use transform="translate(289.912109 -16.3125)scale(0.7)" xlink:href="#DejaVuSans-Oblique-72"/>
     </g>
    </g>
   </g>
   <g id="matplotlib.axis_2">
    <g id="ytick_1">
     <g id="line2d_7">
      <defs>
       <path d="M 0 0 
L -3.5 0 
" id="m17d2eaa9a8" style="stroke:#000000;stroke-width:0.8;"/>
      </defs>
      <g>
       <use style="stroke:#000000;stroke-width:0.8;" x="135" xlink:href="#m17d2eaa9a8" y="448.56"/>
      </g>
     </g>
     <g id="text_8">
      <!-- 0.0 -->
      <g transform="translate(99.374375 455.398594)scale(0.18 -0.18)">
       <use xlink:href="#DejaVuSans-30"/>
       <use x="63.623047" xlink:href="#DejaVuSans-2e"/>
       <use x="95.410156" xlink:href="#DejaVuSans-30"/>
      </g>
     </g>
    </g>
    <g id="ytick_2">
     <g id="line2d_8">
      <g>
       <use style="stroke:#000000;stroke-width:0.8;" x="135" xlink:href="#m17d2eaa9a8" y="370.944"/>
      </g>
     </g>
     <g id="text_9">
      <!-- 0.2 -->
      <g transform="translate(99.374375 377.782594)scale(0.18 -0.18)">
       <use xlink:href="#DejaVuSans-30"/>
       <use x="63.623047" xlink:href="#DejaVuSans-2e"/>
       <use x="95.410156" xlink:href="#DejaVuSans-32"/>
      </g>
     </g>
    </g>
    <g id="ytick_3">
     <g id="line2d_9">
      <g>
       <use style="stroke:#000000;stroke-width:0.8;" x="135" xlink:href="#m17d2eaa9a8" y="293.328"/>
      </g>
     </g>
     <g id="text_10">
      <!-- 0.4 -->
      <g transform="translate(99.374375 300.166594)scale(0.18 -0.18)">
       <use xlink:href="#DejaVuSans-30"/>
       <use x="63.623047" xlink:href="#DejaVuSans-2e"/>
       <use x="95.410156" xlink:href="#DejaVuSans-34"/>
      </g>
     </g>
    </g>
    <g id="ytick_4">
     <g id="line2d_10">
      <g>
       <use style="stroke:#000000;stroke-width:0.8;" x="135" xlink:href="#m17d2eaa9a8" y="215.712"/>
      </g>
     </g>
     <g id="text_11">
      <!-- 0.6 -->
      <g transform="translate(99.374375 222.550594)scale(0.18 -0.18)">
       <use xlink:href="#DejaVuSans-30"/>
       <use x="63.623047" xlink:href="#DejaVuSans-2e"/>
       <use x="95.410156" xlink:href="#DejaVuSans-36"/>
      </g>
     </g>
    </g>
    <g id="ytick_5">
     <g id="line2d_11">
      <g>
       <use style="stroke:#000000;stroke-width:0.8;" x="135" xlink:href="#m17d2eaa9a8" y="138.096"/>
      </g>
     </g>
     <g id="text_12">
      <!-- 0.8 -->
      <g transform="translate(99.374375 144.934594)scale(0.18 -0.18)">
       <use xlink:href="#DejaVuSans-30"/>
       <use x="63.623047" xlink:href="#DejaVuSans-2e"/>
       <use x="95.410156" xlink:href="#DejaVuSans-38"/>
      </g>
     </g>
    </g>
    <g id="ytick_6">
     <g id="line2d_12">
      <g>
       <use style="stroke:#000000;stroke-width:0.8;" x="135" xlink:href="#m17d2eaa9a8" y="60.48"/>
      </g>
     </g>
     <g id="text_13">
      <!-- 1.0 -->
      <g transform="translate(99.374375 67.318594)scale(0.18 -0.18)">
       <use xlink:href="#DejaVuSans-31"/>
       <use x="63.623047" xlink:href="#DejaVuSans-2e"/>
       <use x="95.410156" xlink:href="#DejaVuSans-30"/>
      </g>
     </g>
    </g>
    <g id="text_14">
     <!-- $TPR_{Fair}$ -->
     <g transform="translate(90.799062 290.27)rotate(-90)scale(0.22 -0.22)">
      <defs>
       <path d="M 378 4666 
L 4325 4666 
L 4225 4134 
L 2559 4134 
L 1759 0 
L 1125 0 
L 1925 4134 
L 275 4134 
L 378 4666 
z
" id="DejaVuSans-Oblique-54" transform="scale(0.015625)"/>
      </defs>
      <use transform="translate(0 0.09375)" xlink:href="#DejaVuSans-Oblique-54"/>
      <use transform="translate(61.083984 0.09375)" xlink:href="#DejaVuSans-Oblique-50"/>
      <use transform="translate(121.386719 0.09375)" xlink:href="#DejaVuSans-Oblique-52"/>
      <use transform="translate(190.869141 -16.3125)scale(0.7)" xlink:href="#DejaVuSans-Oblique-46"/>
      <use transform="translate(231.132812 -16.3125)scale(0.7)" xlink:href="#DejaVuSans-Oblique-61"/>
      <use transform="translate(274.02832 -16.3125)scale(0.7)" xlink:href="#DejaVuSans-Oblique-69"/>
      <use transform="translate(293.476562 -16.3125)scale(0.7)" xlink:href="#DejaVuSans-Oblique-72"/>
     </g>
    </g>
   </g>
   <g id="line2d_13">
    <path clip-path="url(#p4ce7fce75b)" d="M 135 448.56 
L 972 60.48 
" style="fill:none;stroke:#ff0000;stroke-dasharray:5.55,2.4;stroke-dashoffset:0;stroke-width:1.5;"/>
   </g>
   <g id="line2d_14">
    <path clip-path="url(#p4ce7fce75b)" d="M 972 60.48 
L 304.662162 319.2 
L 235.44 378.49 
L 205.533708 398.1096 
L 190.30837 408.835276 
L 176.701068 417.224348 
L 169.979104 422.554639 
L 164.892857 425.094698 
L 161.273543 429.781935 
L 158.625 432.162254 
L 156.74026 433.915472 
L 154.894737 435.730909 
L 153.511848 436.619077 
L 152.081633 438.562623 
L 151.118294 439.136424 
L 150.218182 439.758186 
L 148.285714 440.318919 
L 147.478211 440.784262 
L 146.801518 441.312326 
L 145.451613 441.67471 
L 145.023952 441.879437 
L 144.502365 442.179013 
L 144.081374 442.364238 
L 143.658621 442.606192 
L 143.293972 442.767761 
L 142.249606 442.979765 
L 141.985584 443.163186 
L 141.774834 443.809939 
L 141.548364 443.988975 
L 140.756534 444.114639 
L 140.022 444.223911 
L 139.913894 444.759434 
L 139.788938 444.864 
L 139.690535 444.936846 
L 139.610159 445.053253 
L 139.016797 445.149141 
L 138.938824 445.255629 
L 138.848276 445.337934 
L 138.761798 445.399167 
L 138.697405 445.795405 
L 138.633207 445.857963 
L 138.569296 445.913248 
L 138.505759 445.9728 
L 138.02322 445.998416 
L 137.960586 446.068315 
L 137.499751 446.105739 
L 137.470241 446.437687 
L 137.024673 446.48629 
L 136.588989 446.522071 
L 136.563755 446.842832 
L 136.54642 446.877572 
L 136.528069 446.905075 
L 136.504719 446.921379 
L 136.484043 446.945243 
L 136.467134 446.972761 
L 136.449978 447.257718 
L 136.431993 447.285936 
L 136.419245 447.554611 
L 136.404952 447.568102 
L 136.388635 447.581236 
L 136.371007 447.597619 
L 136.017423 447.610569 
L 136.00722 447.62543 
L 135.996429 447.639288 
L 135.988972 447.651148 
L 135.651869 447.661667 
L 135.644342 447.668886 
L 135.31813 447.679001 
L 135.314543 447.90409 
L 135.310345 447.911759 
L 135.307834 447.917129 
L 135.30514 447.922759 
L 135.301513 447.926917 
L 135.298502 447.932377 
L 135.295342 447.940394 
L 135.292045 447.943347 
L 135.289419 448.152994 
L 135.286742 448.158261 
L 135.284694 448.162581 
L 135.282484 448.16561 
L 135.280402 448.170557 
L 135.278814 448.174618 
L 135.276694 448.178969 
L 135.273977 448.182674 
L 135.272905 448.185586 
L 135.270611 448.188632 
L 135.269045 448.193887 
L 135 448.197139 
L 135 448.199666 
L 135 448.202323 
L 135 448.205103 
L 135 448.206718 
L 135 448.208955 
L 135 448.211164 
L 135 448.214733 
L 135 448.217778 
L 135 448.220026 
L 135 448.222392 
L 135 448.225592 
L 135 448.228166 
L 135 448.230979 
" style="fill:none;stroke:#1f77b4;stroke-linecap:square;stroke-width:1.5;"/>
   </g>
   <g id="line2d_15">
    <path clip-path="url(#p4ce7fce75b)" d="M 972 60.48 
L 892.824324 79.884 
L 797.625 94.906452 
L 727.132979 106.31622 
L 679.256158 119.728855 
L 633.306977 138.654388 
L 601.223684 149.415 
L 560.360656 157.5 
L 538.494024 171.36 
L 518.358779 192.938443 
L 503.9 196.77 
L 479.820423 207.682759 
L 459.090909 220.773913 
L 444.501608 228.853333 
L 432.083333 237.603692 
L 418.102941 240.8 
L 402.277311 244.914059 
L 384.319149 248.812941 
L 372.007653 260.011698 
L 360.022613 265.3 
L 352.905109 268.632 
L 339.86014 275.31 
L 329.473804 279.309251 
L 322.028761 284.372308 
L 311.780172 288.088101 
L 299.627329 291.711 
L 292.671343 296.841481 
L 287.033203 303.03 
L 278.212928 307.995591 
L 272.674766 311.67907 
L 266.918478 316.26 
L 262.044643 322.043077 
L 258.347368 324.763871 
L 253.753846 326.080851 
L 250.935811 328.6325 
L 246.508224 332.003549 
L 242.826087 336.186667 
L 240.117739 338.411881 
L 236.727692 339.134164 
L 232.946809 342.493119 
L 230.338757 345.153103 
L 226.776316 347.586207 
L 224.247839 349.450338 
L 220.480851 350.356829 
L 217.058824 351.831351 
L 211.618585 352.979466 
L 210.159184 355.005 
L 206.258108 357.585757 
L 202.985353 358.388471 
L 200.905512 360.565116 
L 199.384615 361.325879 
L 198.967617 363.050847 
L 197 365.711461 
L 194.181818 368.565794 
L 192.115385 370.083989 
L 190.389706 372.216393 
L 188.705811 374.689544 
L 188 376.770402 
L 187.250883 378.375319 
L 185.786464 379.954828 
L 185.433372 381.198964 
L 183.214286 382.716093 
L 181.765108 383.88 
L 180.243243 384.86 
L 179.889385 388.628658 
L 178.372657 388.930579 
L 177.170865 389.3778 
L 173.825243 389.672239 
L 173.247609 391.066667 
L 172.64749 392.302703 
L 172.296373 393.52665 
L 171.129496 394.191304 
L 169.02439 394.322313 
L 168.75 395.64 
L 167.807035 396.388868 
L 167.480597 396.75541 
L 166.428854 399.03703 
L 165.909621 399.604954 
L 165.641618 400.714521 
L 164.607075 401.92 
L 164.216038 402.64875 
L 164.024367 403.7152 
L 163.134454 403.913628 
L 162.125 404.402101 
L 161.35 405.913846 
L 161.132231 406.28549 
L 160.870909 408.413793 
L 159.9287 409.502698 
L 159.043088 410.415385 
L 156.672321 411.324179 
L 154.344 412.229106 
L 153.534101 413.205254 
L 153.419894 414.100465 
L 152.605609 414.991899 
L 151.783784 416.354191 
L 150.942857 416.42087 
L 150.100515 418.027826 
L 149.971891 418.216296 
L 149.857988 419.135902 
L 149.126582 419.315682 
L 149.079058 419.43432 
" style="fill:none;stroke:#ff7f0e;stroke-linecap:square;stroke-width:1.5;"/>
   </g>
   <g id="line2d_16">
    <path clip-path="url(#p4ce7fce75b)" d="M 972 60.48 
L 831.061856 94.866835 
L 743.727273 131.308289 
L 674.199461 158.178462 
L 622.208955 182.768875 
L 574.8125 204.00071 
L 534.761194 225.598049 
L 497.258893 238.598769 
L 465.15 255.448421 
L 438.57513 269.645612 
L 419.006525 281.661294 
L 402.736025 295.725405 
L 387.96 302.670667 
L 370.807531 312.391579 
L 360.732977 318.107432 
L 350.655612 324.85165 
L 340.167073 331.302699 
L 327.549296 337.355789 
L 316.915541 343.70273 
L 306.03913 348.257862 
L 300.812434 350.642853 
L 289.74668 355.161081 
L 281.392292 357.680506 
L 273.314448 360.62069 
L 265.590328 363.46294 
L 257.093146 366.378353 
L 251.82383 369.159724 
L 247.061157 371.81609 
L 241.722534 374.943947 
L 237.184292 376.940086 
L 231.674772 379.114105 
L 228.13891 381.484444 
L 224.809489 383.427692 
L 220.923187 384.578214 
L 219.174221 386.659943 
L 217.18454 388.296876 
L 214.494838 390.738208 
L 211.554878 391.827229 
L 208.656 392.679223 
L 205.988166 393.796098 
L 204.343689 394.871734 
L 202.067308 396.337292 
L 200.398866 397.690486 
L 197.944065 398.147647 
L 195.113208 399.624134 
L 192.446117 400.279181 
L 191.830256 401.602623 
L 188.698058 403.323681 
L 186.284393 404.266667 
L 185.076923 405.665422 
L 183.985931 406.358795 
L 183.081985 407.221043 
L 182.012115 408.047689 
L 180.613079 409.061466 
L 179.742441 409.99814 
L 178.347037 411.047399 
L 177.514286 412.053497 
L 176.718258 413.232421 
L 175.914197 414.035157 
L 174.692784 414.657578 
L 174.167854 415.860901 
L 172.930514 416.618224 
L 171.791209 417.194971 
L 170.96 418.0838 
L 170.319921 419.270943 
L 169.213139 419.804384 
L 168.044776 420 
L 166.517159 420.2625 
L 166.14602 420.907527 
L 165.71203 421.42481 
L 165.42936 422.036547 
L 164.783759 422.241666 
L 163.705776 422.381822 
L 163.410898 423.175863 
L 162.406195 423.654049 
L 160.686103 423.712037 
L 159.767624 424.654093 
L 159.213731 424.912756 
L 159.06824 425.964047 
L 157.524989 426.514961 
L 157.016971 426.988016 
L 156.21673 427.628883 
L 155.723038 428.068024 
L 154.845674 428.631568 
L 154.093737 429.176842 
L 153.944444 429.341981 
L 153.165848 430.343165 
L 152.373626 430.698577 
L 151.591019 431.379375 
L 149.838034 432.054523 
L 148.743292 432.58963 
L 148.349282 433.0368 
L 148.264659 433.527339 
L 147.531915 433.785381 
L 146.797964 434.316742 
L 146.359054 434.630907 
L 145.949596 435.105022 
L 145.246366 435.382087 
L 145.18403 436.029041 
L 144.81354 436.479689 
L 144.772881 436.578755 
" style="fill:none;stroke:#2ca02c;stroke-linecap:square;stroke-width:1.5;"/>
   </g>
   <g id="line2d_17">
    <path clip-path="url(#p4ce7fce75b)" d="M 972 60.48 
L 943.515707 67.514683 
L 902.600503 73.261078 
L 867.375 77.856716 
L 838.70726 83.375575 
L 812.296552 91.885318 
L 791.027027 97.49341 
L 762.75 101.623152 
L 747.573626 109.2672 
L 730.522777 121.755789 
L 716.948498 124.259164 
L 695.912317 131.430914 
L 676.991803 140.19373 
L 661.5 146.72 
L 647.786561 152.830588 
L 632.068966 155.68896 
L 613.50838 159.564255 
L 593.357143 162.389602 
L 578.205725 171.505512 
L 566.856383 176.29445 
L 557.126516 179.115855 
L 539.861063 184.826047 
L 528.050676 188.177275 
L 516.59401 193.114937 
L 504.103279 196.356877 
L 486.99679 199.915779 
L 475.853774 204.429474 
L 466.690402 209.372079 
L 455.85 214.570588 
L 446.675676 217.784272 
L 434.544919 222.412662 
L 426.66325 228.495812 
L 420.478955 231.55935 
L 410.788489 233.059355 
L 406.846154 237.202929 
L 397.518987 240.471855 
L 389.5875 244.490966 
L 381.041209 247.205854 
L 373.817935 248.926829 
L 368.502695 252.397024 
L 361.365435 255.771871 
L 355.494102 257.865517 
L 350.228571 261.583555 
L 342.36 262.777021 
L 337.292839 265.596279 
L 330.441624 267.564706 
L 324.509434 270.141864 
L 317.962312 273.058854 
L 311.757764 274.621395 
L 308.349265 277.8048 
L 305.462195 279.794118 
L 303.618932 283.162079 
L 299.589928 286.86 
L 295.846975 289.94639 
L 290.834895 292.843909 
L 287.269988 296.214545 
L 284.56701 299.664 
L 282.091837 302.234754 
L 279.504484 304.416 
L 274.344134 306.080325 
L 272.793103 309.569577 
L 270.179204 312.692958 
L 267.157895 315.085169 
L 264.676056 316.365418 
L 262.448164 319.71744 
L 259.298077 320.749222 
L 256.226837 321.51 
L 251.054622 322.012174 
L 247.990654 324.038268 
L 244.248715 326.330079 
L 242.504587 328.095088 
L 240.788675 329.266926 
L 235.944724 329.498563 
L 233.864865 331.985581 
L 231.995005 333.849213 
L 226.141858 335.029904 
L 222.622134 338.949618 
L 220.508841 342.1152 
L 217.717221 344.874504 
L 213.46875 346.744335 
L 211.677917 349.709434 
L 209.113571 351.357288 
L 206.627885 352.818983 
L 203.816444 354.810337 
L 202.280383 356.47322 
L 200.241445 358.274972 
L 198.169811 362.239402 
L 195.515493 364.572537 
L 193.668224 367.164944 
L 188.974766 369.776842 
L 186.387907 371.821017 
L 185.421687 373.424211 
L 185.096685 375.475254 
L 183.377064 376.342105 
L 180.904936 378.72 
L 179.81216 380.032862 
L 177.981081 381.475539 
L 176.25 382.442667 
L 174.502226 385.2 
L 173.688 387.36 
L 172.843085 387.586248 
" style="fill:none;stroke:#d62728;stroke-linecap:square;stroke-width:1.5;"/>
   </g>
   <g id="line2d_18">
    <path clip-path="url(#p4ce7fce75b)" d="M 972 60.48 
L 889.724008 78.040181 
L 828.094737 100.283077 
L 775.058824 118.968635 
L 734.893189 133.859649 
L 697.533235 149.925948 
L 662.827247 165.628235 
L 629.388 175.094301 
L 601.313222 190.054884 
L 574.605166 203.553797 
L 555 214.169174 
L 536.142857 227.931429 
L 518.430168 236.183357 
L 498.327974 246.843111 
L 486.365625 253.224673 
L 471.144578 262.04093 
L 456.673766 269.819775 
L 441.084826 277.389842 
L 427.796703 286.21396 
L 416.243968 291.448028 
L 407.206957 295.266198 
L 394.071429 300.163746 
L 384.024793 303.296246 
L 371.47087 307.137492 
L 360.918794 310.193924 
L 348.955772 314.255455 
L 341.190789 318.281623 
L 334.257306 321.769215 
L 326.8125 325.849932 
L 318.413161 328.325491 
L 310.508958 331.081237 
L 305.144262 334.103226 
L 300.027062 336.728455 
L 294.732824 338.471293 
L 291.345283 341.702308 
L 286.803727 344.140874 
L 282.464088 347.717754 
L 277.543636 349.706426 
L 272.917612 351.853981 
L 268.821239 353.323741 
L 265.568102 355.262772 
L 262.359078 357.458595 
L 258.788396 360.185347 
L 254.706081 360.853333 
L 250.942053 363.280356 
L 247.179978 364.380882 
L 244.233279 366.575263 
L 239.962863 369.32 
L 236.024881 370.667786 
L 233.10989 372.524663 
L 230.892691 374.384044 
L 229.243188 375.877895 
L 226.726027 377.663313 
L 224.078313 379.410244 
L 221.830923 381.497281 
L 220.188735 382.979881 
L 218.086064 384.596326 
L 216.708111 386.306546 
L 215.387548 387.519284 
L 212.767241 388.590703 
L 211.054898 389.995642 
L 209.452247 391.326049 
L 207.731877 392.268125 
L 205.938738 393.76112 
L 204.494037 395.266497 
L 202.628688 396.009922 
L 199.907124 396.492021 
L 197 397.07533 
L 194.944297 398.198473 
L 192.749345 399.287175 
L 191.788678 400.05 
L 190.32103 400.607586 
L 187.758092 400.8816 
L 186.649197 401.95506 
L 185.409034 402.98087 
L 182.620017 403.327703 
L 180.598019 404.71651 
L 179.269373 406.110383 
L 177.66925 407.270342 
L 175.762987 407.899945 
L 174.857143 409.477365 
L 173.703257 410.254369 
L 172.482607 411.224671 
L 171.174861 412.325475 
L 169.488114 413.485116 
L 168.558962 414.263609 
L 167.720876 415.832795 
L 166.541958 416.855429 
L 165.377606 418.260062 
L 163.361956 419.169088 
L 161.937931 420.3143 
L 161.465143 420.95349 
L 161.284904 421.686843 
L 160.525979 422.019574 
L 159.47919 422.830939 
L 158.336431 423.76008 
L 157.262283 424.280914 
L 156.500917 424.796089 
L 155.787436 425.855221 
L 155.377544 426.53589 
L 154.711957 426.749302 
" style="fill:none;stroke:#9467bd;stroke-linecap:square;stroke-width:1.5;"/>
   </g>
   <g id="line2d_19">
    <path clip-path="url(#p4ce7fce75b)" d="M 972 60.48 
L 919.025316 74.059227 
L 870.507485 89.379574 
L 830.905714 101.964414 
L 797.001376 115.82806 
L 766.089096 127.347246 
L 735.923077 140.876636 
L 707.574627 148.62622 
L 680.211098 161.242611 
L 653.745349 172.629013 
L 633.214286 182.060308 
L 614.47351 195.396403 
L 596.38835 202.708272 
L 576.216075 211.427677 
L 563.74898 217.862569 
L 547.69901 225.702178 
L 532.152069 233.947084 
L 516.31758 241.92 
L 501.67098 250.277468 
L 488.416817 255.623754 
L 478.555851 259.103622 
L 463.977391 264.393717 
L 451.625954 268.364786 
L 437.17352 272.841373 
L 425.6064 276.901333 
L 411.392523 281.318879 
L 402.100533 285.804 
L 393.641102 289.357673 
L 384.396802 293.93735 
L 374.312945 296.784279 
L 364.661053 299.9808 
L 357.928373 303.439175 
L 351.110656 307.083636 
L 344.673869 309.077197 
L 340.470903 312.974118 
L 335.26041 315.804724 
L 330.3 319.533402 
L 324.784884 322.277383 
L 318.979553 324.309176 
L 313.56 326.093455 
L 309.746708 328.515614 
L 305.113466 330.817282 
L 300.543438 334.09036 
L 296.059866 335.035803 
L 291.059353 337.72338 
L 286.457143 339.403077 
L 283.084615 341.679938 
L 276.955986 345.429677 
L 271.919653 347.270531 
L 267.963429 349.432449 
L 265.410765 351.683733 
L 263.58807 353.677004 
L 260.829621 355.739692 
L 257.61194 357.762857 
L 254.76885 359.759652 
L 252.55362 361.638995 
L 250.432666 363.813201 
L 248.666667 365.7696 
L 247.0464 367.157854 
L 243.730117 368.692707 
L 241.543216 370.307368 
L 239.24494 371.788226 
L 237.199382 372.875266 
L 234.825688 374.873924 
L 233.09589 376.550457 
L 230.017659 377.467209 
L 226.789184 378.092175 
L 222.447761 378.936839 
L 219.69151 380.251915 
L 216.4489 381.435336 
L 215.332525 382.519618 
L 213.254458 383.388137 
L 209.266187 383.757732 
L 207.834522 385.100377 
L 205.604618 386.786966 
L 202.430445 387.182466 
L 199.774825 388.8 
L 197.862309 390.562804 
L 196.11183 391.900794 
L 193.959945 392.614161 
L 192.81656 394.594825 
L 191.487004 395.745755 
L 189.380282 397.108252 
L 187.454013 398.440664 
L 185.212449 399.734814 
L 184.081021 400.648889 
L 182.743316 402.5972 
L 181.335252 403.790191 
L 179.615419 405.314869 
L 176.92355 406.313885 
L 175.240385 407.60346 
L 174.35394 408.544839 
L 174.081712 409.551384 
L 172.472234 409.929611 
L 170.907336 410.897299 
L 169.504462 412.184348 
L 167.559831 412.962341 
L 166.325904 413.576305 
L 165.480954 414.813913 
L 164.64375 415.986304 
L 163.874065 416.683528 
" style="fill:none;stroke:#8c564b;stroke-linecap:square;stroke-width:1.5;"/>
   </g>
   <g id="line2d_20">
    <path clip-path="url(#p4ce7fce75b)" d="M 972 60.48 
L 951.75 68.164752 
L 936.335553 75.624585 
L 922.178571 85.237895 
L 910.245059 91.550769 
L 899.940397 99.467944 
L 883.260471 107.215244 
L 871.077326 112.496747 
L 855.082245 121.695 
L 836.825581 130.062857 
L 828.174419 138.430072 
L 815.330769 148.951385 
L 806.321337 154.56 
L 793.482759 160.955507 
L 787.068966 164.779809 
L 780.320611 171.810122 
L 768.547859 180.047809 
L 759.310999 187.293543 
L 746.126103 195.355349 
L 738.737705 201.283385 
L 731.506901 204.652214 
L 721.110831 209.93 
L 715.193182 213.759396 
L 708.912548 218.693532 
L 700.397727 222.299336 
L 689.459391 227.472 
L 680.639241 232.237895 
L 674.282278 236.671981 
L 668.309735 241.914153 
L 657.728192 245.40701 
L 650.651786 248.36 
L 643.407928 250.577878 
L 636.984556 253.435978 
L 631.562176 256.024186 
L 624.423027 260.027686 
L 619.807792 263.283097 
L 614.53125 267.510988 
L 607.322835 270.860211 
L 600.98153 273.883659 
L 594.572944 275.589493 
L 589.721704 277.931779 
L 583.793566 281.22996 
L 574.817694 284.582535 
L 568.16442 285.854443 
L 562.548649 289.101386 
L 556.920981 291.644024 
L 550.645293 294.778053 
L 539.741096 298.593982 
L 532.259259 301.135078 
L 525.754144 303.966486 
L 521.6639 307.473664 
L 517.661602 309.722626 
L 512.10989 311.786819 
L 506.361264 314.3952 
L 501.476519 317.61051 
L 497.008264 319.928789 
L 491.905089 322.793333 
L 490.090909 325.388335 
L 486.632231 327.351452 
L 480.667127 329.449836 
L 475.786795 332.100816 
L 470.259259 334.027365 
L 468.18595 335.500054 
L 464.273728 337.976207 
L 459.668501 340.090435 
L 452.045455 341.820949 
L 445.257261 342.441718 
L 437.34728 343.60967 
L 431.924581 345.207102 
L 422.205882 347.175779 
L 418.689076 348.529034 
L 415.177215 349.794139 
L 402.887624 350.466587 
L 399.004243 352.2 
L 393.084866 354.330761 
L 385.02845 354.89681 
L 379.624642 357.189266 
L 373.798271 359.304869 
L 368.103896 361.274448 
L 363.383164 362.2122 
L 360.626087 364.755349 
L 356.986957 366.472296 
L 351.549419 368.212831 
L 347.300292 370.246471 
L 341.484581 372.2112 
L 337.162003 373.539641 
L 332.522124 376.071974 
L 328.153846 377.685 
L 322.517804 379.722376 
L 315.431138 381.15 
L 309.217195 382.884923 
L 306.17594 384.352117 
L 304.917293 385.814648 
L 300.38009 386.329605 
L 295.276596 387.776386 
L 290.899237 389.382472 
L 284.372308 390.813696 
L 277.933846 391.752745 
L 275.358462 393.34035 
L 271.495385 395.233678 
L 267.836672 396.265532 
" style="fill:none;stroke:#e377c2;stroke-linecap:square;stroke-width:1.5;"/>
   </g>
   <g id="line2d_21">
    <path clip-path="url(#p4ce7fce75b)" d="M 972 60.48 
L 970.987908 60.48 
L 970.978022 60.48 
L 970.962825 60.48 
L 970.949812 60.48 
L 969.862069 60.48 
L 969.831606 60.48 
L 967.594737 61.082609 
L 967.518072 61.093081 
L 967.444898 62.322152 
L 967.394773 62.342784 
L 967.343533 62.363883 
L 967.271186 62.373073 
L 967.2103 62.401188 
L 967.168831 62.417171 
L 967.133721 62.449949 
L 967.090909 62.473562 
L 967.002985 63.170329 
L 966.919575 63.208155 
L 964.321101 63.247059 
L 964.273846 63.261935 
L 964.128527 63.297278 
L 964.041204 64.033846 
L 962.595506 64.776089 
L 962.473171 64.816089 
L 962.251248 64.865085 
L 962.11973 64.898368 
L 962.018739 64.923664 
L 961.880829 64.966474 
L 961.684859 64.992558 
L 961.46223 66.496744 
L 961.288848 66.53193 
L 961.06903 66.555616 
L 960.903409 66.591496 
L 960.754319 67.396277 
L 960.601167 68.933228 
L 960.466535 69.03487 
L 960.211268 69.104 
L 960.018405 69.138986 
L 959.819127 69.174257 
L 959.613108 69.192 
L 959.4 69.263704 
L 957.347921 69.3735 
L 957.053571 69.410711 
L 956.816327 70.284126 
L 956.427907 70.388426 
L 956.207547 70.581866 
L 955.747573 70.805854 
L 955.343284 70.898255 
L 955.005076 72.661883 
L 954.786632 74.496433 
L 954.65285 74.656438 
L 954.516971 74.886682 
L 954.238727 75.966761 
L 953.951482 76.188 
L 951.418033 76.377253 
L 951.190608 79.182651 
L 950.958101 80.308905 
L 950.720339 80.503784 
L 950.353448 80.752836 
L 950.165217 82.906734 
L 949.909091 83.134416 
L 949.580357 83.192061 
L 946.94012 83.603938 
L 946.559271 83.907402 
L 945.84375 84.031029 
L 945.173077 84.093333 
L 944.192691 84.218936 
L 943.627119 84.538868 
L 942.734266 84.867541 
L 942.424028 85.069091 
L 942 85.274 
L 940.533835 85.274 
L 940.295455 85.623211 
L 939.683398 86.128966 
L 938.385542 86.202882 
L 937.413223 86.809912 
L 936.533898 87.284324 
L 935.766234 87.610213 
L 934.964602 87.944123 
L 934.633929 88.637224 
L 934.126697 88.906242 
L 933.25 89.366214 
L 932.142857 90.035762 
L 930.970588 90.634865 
L 930.15 91.047945 
L 929.295918 91.909014 
L 928.17801 92.358 
L 926.756757 93.175385 
L 924.977528 93.661561 
L 923.052632 94.548092 
L 922.178571 95.210895 
L 921.88024 95.9 
L 920.333333 96.041116 
L 918.687898 96.912 
L 917.294118 97.983529 
L 915.061224 98.788326 
L 913.056338 99.12 
L 911.784173 99.974867 
L 904.79562 101.052 
L 902.25 103.009315 
" style="fill:none;stroke:#7f7f7f;stroke-linecap:square;stroke-width:1.5;"/>
   </g>
   <g id="line2d_22">
    <path clip-path="url(#p4ce7fce75b)" d="M 972 60.48 
L 933.436649 70.182 
L 898.445455 80.931517 
L 868.300885 89.008061 
L 841.193672 97.118609 
L 815.308561 109.752551 
L 789.242202 122.116235 
L 764.821782 128.304167 
L 743.323607 136.582844 
L 723.005204 146.092273 
L 705.584681 153.533436 
L 685.365672 165.904941 
L 670.378378 173.449885 
L 650.179856 181.854815 
L 635.102584 188.530688 
L 620.524138 196.790687 
L 605.499251 203.536941 
L 588.195891 210.23234 
L 573.774403 217.041294 
L 561.834282 222.149519 
L 548.85 226.69676 
L 534.906357 231.206506 
L 522.302216 234.741818 
L 508.16021 239.782785 
L 496.566731 242.097241 
L 482.022857 246.744577 
L 471.790363 250.406078 
L 462.880938 254.181361 
L 454.220803 258.541554 
L 443.024053 262.135904 
L 432.048071 265.008649 
L 425.034829 268.875411 
L 416.772063 272.16 
L 409.640625 275.242718 
L 404.346021 279.373174 
L 397.934436 282.760563 
L 391.774576 286.784965 
L 383.850504 289.515702 
L 376.522388 292.388623 
L 370.73589 294.721257 
L 364.51469 297.385979 
L 359.043173 299.909474 
L 353.797101 303.381013 
L 348.274038 304.743764 
L 342.812995 308.190638 
L 337.080127 310.253437 
L 333.386995 312.718306 
L 327.112676 316.297111 
L 320.712074 318.658745 
L 315.579755 320.898576 
L 312.262062 323.54451 
L 309.480363 326.299024 
L 305.816327 328.320976 
L 301.821904 330.380338 
L 297.8978 332.967229 
L 293.924051 335.283989 
L 290.119691 337.789134 
L 287.291407 339.776167 
L 284.464286 341.737461 
L 280.822946 343.673514 
L 278.083606 346.081074 
L 274.758813 347.590076 
L 272.118136 349.221283 
L 269.901099 351.600751 
L 267.620548 353.297389 
L 263.15493 354.553043 
L 259.434252 355.31533 
L 254.410498 356.784324 
L 251.426215 358.198235 
L 246.822903 359.768054 
L 244.927721 360.852977 
L 242.73993 362.0064 
L 237.661283 362.527807 
L 235.992188 364.083175 
L 233.364615 366.162632 
L 229.395798 366.590835 
L 226.373987 368.817534 
L 223.422995 370.760402 
L 221.000423 372.448009 
L 218.594185 373.850626 
L 217.36809 376.148571 
L 215.796908 377.24327 
L 213.338186 379.019653 
L 210.461538 380.902785 
L 208.384615 382.356806 
L 206.497331 383.398143 
L 204.807032 385.610199 
L 202.736072 386.879864 
L 200.009709 388.703593 
L 197.275778 389.878988 
L 194.665324 391.566188 
L 193.442215 392.716461 
L 192.712635 394.11166 
L 190.822152 394.8756 
L 188.743163 396.701712 
L 186.715466 398.340396 
L 184.505288 399.516923 
L 182.660686 400.129655 
L 181.156893 401.449581 
L 179.735089 402.81673 
L 178.064217 403.765437 
" style="fill:none;stroke:#bcbd22;stroke-linecap:square;stroke-width:1.5;"/>
   </g>
   <g id="line2d_23">
    <path clip-path="url(#p4ce7fce75b)" d="M 972 60.48 
L 943.80462 68.815847 
L 914.114019 79.906589 
L 892.542857 89.3088 
L 872.991811 98.595 
L 852.213321 107.390769 
L 831.757979 117.648774 
L 811.489492 124.408701 
L 790.168966 133.725547 
L 770.921053 144.090732 
L 754.533835 151.265783 
L 739.155556 162.705951 
L 724.657959 168.859347 
L 705.742788 176.500132 
L 693.221253 182.727008 
L 679.05 189.601548 
L 663.732772 197.117967 
L 647.938868 204.2775 
L 633.333085 212.248819 
L 619.321141 216.79 
L 609.400722 219.864021 
L 594.903203 225.240307 
L 581.713483 228.724674 
L 566.19931 232.706779 
L 552.933694 236.645776 
L 536.76 241.499313 
L 525.93083 245.385 
L 515.207657 249.225169 
L 504.327586 253.596 
L 492.352941 256.80641 
L 481.435191 259.943478 
L 473.971963 263.590069 
L 465.558096 266.967849 
L 457.711138 269.490876 
L 451.61989 273.537922 
L 445.393829 276.800756 
L 439.500902 281.087484 
L 431.708982 283.777809 
L 424.634902 286.177722 
L 418.139466 287.965834 
L 411.031915 290.819092 
L 405.634921 293.8058 
L 399.007009 297.274576 
L 392.463726 298.470913 
L 384.850746 301.767899 
L 378.464716 303.930716 
L 374.484295 306.409927 
L 367.288876 310.143091 
L 359.641213 312.898065 
L 353.692479 315.236558 
L 349.924184 317.862081 
L 346.66575 319.947746 
L 342.652672 321.941734 
L 338.692683 324.076831 
L 335.211123 326.359237 
L 330.405056 328.621406 
L 326.186059 331.431284 
L 322.394751 333.564367 
L 319.3632 335.580782 
L 315.625133 337.406222 
L 312.31935 340.031174 
L 308.503125 341.683623 
L 305.435751 343.533495 
L 302.313977 346.088121 
L 299.311123 348.041683 
L 294.693606 349.510293 
L 290.473282 350.385 
L 284.980203 351.99981 
L 281.169602 353.487273 
L 275.686343 355.539647 
L 272.765788 356.712127 
L 269.946588 357.992905 
L 264.437253 358.518237 
L 261.780882 360.319072 
L 258.351654 362.419699 
L 253.527643 362.842215 
L 250.23913 365.097136 
L 246.788332 367.163278 
L 243.858382 368.732718 
L 241.081613 369.927968 
L 239.575107 372.310324 
L 237.684736 373.920812 
L 234.264706 375.903767 
L 230.589429 377.62531 
L 228.263456 379.399374 
L 225.815876 380.570456 
L 223.867633 382.809139 
L 221.465333 384.092763 
L 218.194612 385.794868 
L 214.62181 386.882622 
L 211.654024 388.530196 
L 209.897601 389.619162 
L 209.033456 390.980739 
L 206.852055 391.588342 
L 204.368852 393.449287 
L 201.914634 395.269532 
L 198.717568 396.635271 
L 196.23474 397.327632 
L 194.518336 398.758466 
L 192.839947 400.127286 
L 190.924276 401.023273 
" style="fill:none;stroke:#17becf;stroke-linecap:square;stroke-width:1.5;"/>
   </g>
   <g id="patch_3">
    <path d="M 135 448.56 
L 135 60.48 
" style="fill:none;stroke:#000000;stroke-linecap:square;stroke-linejoin:miter;stroke-width:0.8;"/>
   </g>
   <g id="patch_4">
    <path d="M 972 448.56 
L 972 60.48 
" style="fill:none;stroke:#000000;stroke-linecap:square;stroke-linejoin:miter;stroke-width:0.8;"/>
   </g>
   <g id="patch_5">
    <path d="M 135 448.56 
L 972 448.56 
" style="fill:none;stroke:#000000;stroke-linecap:square;stroke-linejoin:miter;stroke-width:0.8;"/>
   </g>
   <g id="patch_6">
    <path d="M 135 60.48 
L 972 60.48 
" style="fill:none;stroke:#000000;stroke-linecap:square;stroke-linejoin:miter;stroke-width:0.8;"/>
   </g>
   <g id="legend_1">
    <g id="patch_7">
     <path d="M 850.269375 439.56 
L 959.4 439.56 
Q 963 439.56 963 435.96 
L 963 173.55375 
Q 963 169.95375 959.4 169.95375 
L 850.269375 169.95375 
Q 846.669375 169.95375 846.669375 173.55375 
L 846.669375 435.96 
Q 846.669375 439.56 850.269375 439.56 
z
" style="fill:#ffffff;opacity:0.8;stroke:#cccccc;stroke-linejoin:miter;"/>
    </g>
    <g id="line2d_24">
     <path d="M 853.869375 184.530938 
L 889.869375 184.530938 
" style="fill:none;stroke:#1f77b4;stroke-linecap:square;stroke-width:1.5;"/>
    </g>
    <g id="line2d_25"/>
    <g id="text_15">
     <!-- 0.001 -->
     <g transform="translate(904.269375 190.830938)scale(0.18 -0.18)">
      <use xlink:href="#DejaVuSans-30"/>
      <use x="63.623047" xlink:href="#DejaVuSans-2e"/>
      <use x="95.410156" xlink:href="#DejaVuSans-30"/>
      <use x="159.033203" xlink:href="#DejaVuSans-30"/>
      <use x="222.65625" xlink:href="#DejaVuSans-31"/>
     </g>
    </g>
    <g id="line2d_26">
     <path d="M 853.869375 210.951563 
L 889.869375 210.951563 
" style="fill:none;stroke:#ff7f0e;stroke-linecap:square;stroke-width:1.5;"/>
    </g>
    <g id="line2d_27"/>
    <g id="text_16">
     <!-- 0.011 -->
     <g transform="translate(904.269375 217.251563)scale(0.18 -0.18)">
      <use xlink:href="#DejaVuSans-30"/>
      <use x="63.623047" xlink:href="#DejaVuSans-2e"/>
      <use x="95.410156" xlink:href="#DejaVuSans-30"/>
      <use x="159.033203" xlink:href="#DejaVuSans-31"/>
      <use x="222.65625" xlink:href="#DejaVuSans-31"/>
     </g>
    </g>
    <g id="line2d_28">
     <path d="M 853.869375 237.372188 
L 889.869375 237.372188 
" style="fill:none;stroke:#2ca02c;stroke-linecap:square;stroke-width:1.5;"/>
    </g>
    <g id="line2d_29"/>
    <g id="text_17">
     <!-- 0.021 -->
     <g transform="translate(904.269375 243.672188)scale(0.18 -0.18)">
      <use xlink:href="#DejaVuSans-30"/>
      <use x="63.623047" xlink:href="#DejaVuSans-2e"/>
      <use x="95.410156" xlink:href="#DejaVuSans-30"/>
      <use x="159.033203" xlink:href="#DejaVuSans-32"/>
      <use x="222.65625" xlink:href="#DejaVuSans-31"/>
     </g>
    </g>
    <g id="line2d_30">
     <path d="M 853.869375 263.792813 
L 889.869375 263.792813 
" style="fill:none;stroke:#d62728;stroke-linecap:square;stroke-width:1.5;"/>
    </g>
    <g id="line2d_31"/>
    <g id="text_18">
     <!-- 0.031 -->
     <g transform="translate(904.269375 270.092813)scale(0.18 -0.18)">
      <defs>
       <path d="M 2597 2516 
Q 3050 2419 3304 2112 
Q 3559 1806 3559 1356 
Q 3559 666 3084 287 
Q 2609 -91 1734 -91 
Q 1441 -91 1130 -33 
Q 819 25 488 141 
L 488 750 
Q 750 597 1062 519 
Q 1375 441 1716 441 
Q 2309 441 2620 675 
Q 2931 909 2931 1356 
Q 2931 1769 2642 2001 
Q 2353 2234 1838 2234 
L 1294 2234 
L 1294 2753 
L 1863 2753 
Q 2328 2753 2575 2939 
Q 2822 3125 2822 3475 
Q 2822 3834 2567 4026 
Q 2313 4219 1838 4219 
Q 1578 4219 1281 4162 
Q 984 4106 628 3988 
L 628 4550 
Q 988 4650 1302 4700 
Q 1616 4750 1894 4750 
Q 2613 4750 3031 4423 
Q 3450 4097 3450 3541 
Q 3450 3153 3228 2886 
Q 3006 2619 2597 2516 
z
" id="DejaVuSans-33" transform="scale(0.015625)"/>
      </defs>
      <use xlink:href="#DejaVuSans-30"/>
      <use x="63.623047" xlink:href="#DejaVuSans-2e"/>
      <use x="95.410156" xlink:href="#DejaVuSans-30"/>
      <use x="159.033203" xlink:href="#DejaVuSans-33"/>
      <use x="222.65625" xlink:href="#DejaVuSans-31"/>
     </g>
    </g>
    <g id="line2d_32">
     <path d="M 853.869375 290.213438 
L 889.869375 290.213438 
" style="fill:none;stroke:#9467bd;stroke-linecap:square;stroke-width:1.5;"/>
    </g>
    <g id="line2d_33"/>
    <g id="text_19">
     <!-- 0.041 -->
     <g transform="translate(904.269375 296.513438)scale(0.18 -0.18)">
      <use xlink:href="#DejaVuSans-30"/>
      <use x="63.623047" xlink:href="#DejaVuSans-2e"/>
      <use x="95.410156" xlink:href="#DejaVuSans-30"/>
      <use x="159.033203" xlink:href="#DejaVuSans-34"/>
      <use x="222.65625" xlink:href="#DejaVuSans-31"/>
     </g>
    </g>
    <g id="line2d_34">
     <path d="M 853.869375 316.634063 
L 889.869375 316.634063 
" style="fill:none;stroke:#8c564b;stroke-linecap:square;stroke-width:1.5;"/>
    </g>
    <g id="line2d_35"/>
    <g id="text_20">
     <!-- 0.051 -->
     <g transform="translate(904.269375 322.934063)scale(0.18 -0.18)">
      <defs>
       <path d="M 691 4666 
L 3169 4666 
L 3169 4134 
L 1269 4134 
L 1269 2991 
Q 1406 3038 1543 3061 
Q 1681 3084 1819 3084 
Q 2600 3084 3056 2656 
Q 3513 2228 3513 1497 
Q 3513 744 3044 326 
Q 2575 -91 1722 -91 
Q 1428 -91 1123 -41 
Q 819 9 494 109 
L 494 744 
Q 775 591 1075 516 
Q 1375 441 1709 441 
Q 2250 441 2565 725 
Q 2881 1009 2881 1497 
Q 2881 1984 2565 2268 
Q 2250 2553 1709 2553 
Q 1456 2553 1204 2497 
Q 953 2441 691 2322 
L 691 4666 
z
" id="DejaVuSans-35" transform="scale(0.015625)"/>
      </defs>
      <use xlink:href="#DejaVuSans-30"/>
      <use x="63.623047" xlink:href="#DejaVuSans-2e"/>
      <use x="95.410156" xlink:href="#DejaVuSans-30"/>
      <use x="159.033203" xlink:href="#DejaVuSans-35"/>
      <use x="222.65625" xlink:href="#DejaVuSans-31"/>
     </g>
    </g>
    <g id="line2d_36">
     <path d="M 853.869375 343.054688 
L 889.869375 343.054688 
" style="fill:none;stroke:#e377c2;stroke-linecap:square;stroke-width:1.5;"/>
    </g>
    <g id="line2d_37"/>
    <g id="text_21">
     <!-- 0.061 -->
     <g transform="translate(904.269375 349.354688)scale(0.18 -0.18)">
      <use xlink:href="#DejaVuSans-30"/>
      <use x="63.623047" xlink:href="#DejaVuSans-2e"/>
      <use x="95.410156" xlink:href="#DejaVuSans-30"/>
      <use x="159.033203" xlink:href="#DejaVuSans-36"/>
      <use x="222.65625" xlink:href="#DejaVuSans-31"/>
     </g>
    </g>
    <g id="line2d_38">
     <path d="M 853.869375 369.475313 
L 889.869375 369.475313 
" style="fill:none;stroke:#7f7f7f;stroke-linecap:square;stroke-width:1.5;"/>
    </g>
    <g id="line2d_39"/>
    <g id="text_22">
     <!-- 0.071 -->
     <g transform="translate(904.269375 375.775313)scale(0.18 -0.18)">
      <defs>
       <path d="M 525 4666 
L 3525 4666 
L 3525 4397 
L 1831 0 
L 1172 0 
L 2766 4134 
L 525 4134 
L 525 4666 
z
" id="DejaVuSans-37" transform="scale(0.015625)"/>
      </defs>
      <use xlink:href="#DejaVuSans-30"/>
      <use x="63.623047" xlink:href="#DejaVuSans-2e"/>
      <use x="95.410156" xlink:href="#DejaVuSans-30"/>
      <use x="159.033203" xlink:href="#DejaVuSans-37"/>
      <use x="222.65625" xlink:href="#DejaVuSans-31"/>
     </g>
    </g>
    <g id="line2d_40">
     <path d="M 853.869375 395.895938 
L 889.869375 395.895938 
" style="fill:none;stroke:#bcbd22;stroke-linecap:square;stroke-width:1.5;"/>
    </g>
    <g id="line2d_41"/>
    <g id="text_23">
     <!-- 0.081 -->
     <g transform="translate(904.269375 402.195938)scale(0.18 -0.18)">
      <use xlink:href="#DejaVuSans-30"/>
      <use x="63.623047" xlink:href="#DejaVuSans-2e"/>
      <use x="95.410156" xlink:href="#DejaVuSans-30"/>
      <use x="159.033203" xlink:href="#DejaVuSans-38"/>
      <use x="222.65625" xlink:href="#DejaVuSans-31"/>
     </g>
    </g>
    <g id="line2d_42">
     <path d="M 853.869375 422.316563 
L 889.869375 422.316563 
" style="fill:none;stroke:#17becf;stroke-linecap:square;stroke-width:1.5;"/>
    </g>
    <g id="line2d_43"/>
    <g id="text_24">
     <!-- 0.091 -->
     <g transform="translate(904.269375 428.616563)scale(0.18 -0.18)">
      <defs>
       <path d="M 703 97 
L 703 672 
Q 941 559 1184 500 
Q 1428 441 1663 441 
Q 2288 441 2617 861 
Q 2947 1281 2994 2138 
Q 2813 1869 2534 1725 
Q 2256 1581 1919 1581 
Q 1219 1581 811 2004 
Q 403 2428 403 3163 
Q 403 3881 828 4315 
Q 1253 4750 1959 4750 
Q 2769 4750 3195 4129 
Q 3622 3509 3622 2328 
Q 3622 1225 3098 567 
Q 2575 -91 1691 -91 
Q 1453 -91 1209 -44 
Q 966 3 703 97 
z
M 1959 2075 
Q 2384 2075 2632 2365 
Q 2881 2656 2881 3163 
Q 2881 3666 2632 3958 
Q 2384 4250 1959 4250 
Q 1534 4250 1286 3958 
Q 1038 3666 1038 3163 
Q 1038 2656 1286 2365 
Q 1534 2075 1959 2075 
z
" id="DejaVuSans-39" transform="scale(0.015625)"/>
      </defs>
      <use xlink:href="#DejaVuSans-30"/>
      <use x="63.623047" xlink:href="#DejaVuSans-2e"/>
      <use x="95.410156" xlink:href="#DejaVuSans-30"/>
      <use x="159.033203" xlink:href="#DejaVuSans-39"/>
      <use x="222.65625" xlink:href="#DejaVuSans-31"/>
     </g>
    </g>
   </g>
  </g>
 </g>
 <defs>
  <clipPath id="p4ce7fce75b">
   <rect height="388.08" width="837" x="135" y="60.48"/>
  </clipPath>
 </defs>
</svg>
