<?xml version="1.0" encoding="utf-8" standalone="no"?>
<!DOCTYPE svg PUBLIC "-//W3C//DTD SVG 1.1//EN"
  "http://www.w3.org/Graphics/SVG/1.1/DTD/svg11.dtd">
<svg height="504pt" version="1.1" viewBox="0 0 1080 504" width="1080pt" xmlns="http://www.w3.org/2000/svg" xmlns:xlink="http://www.w3.org/1999/xlink">
 <metadata>
  <rdf:RDF xmlns:cc="http://creativecommons.org/ns#" xmlns:dc="http://purl.org/dc/elements/1.1/" xmlns:rdf="http://www.w3.org/1999/02/22-rdf-syntax-ns#">
   <cc:Work>
    <dc:type rdf:resource="http://purl.org/dc/dcmitype/StillImage"/>
    <dc:date>2022-01-07T13:25:02.355311</dc:date>
    <dc:format>image/svg+xml</dc:format>
    <dc:creator>
     <cc:Agent>
      <dc:title>Matplotlib v3.4.3, https://matplotlib.org/</dc:title>
     </cc:Agent>
    </dc:creator>
   </cc:Work>
  </rdf:RDF>
 </metadata>
 <defs>
  <style type="text/css">*{stroke-linecap:butt;stroke-linejoin:round;}</style>
 </defs>
 <g id="figure_1">
  <g id="patch_1">
   <path d="M 0 504 
L 1080 504 
L 1080 0 
L 0 0 
z
" style="fill:#ffffff;"/>
  </g>
  <g id="axes_1">
   <g id="patch_2">
    <path d="M 135 448.56 
L 972 448.56 
L 972 60.48 
L 135 60.48 
z
" style="fill:#ffffff;"/>
   </g>
   <g id="matplotlib.axis_1">
    <g id="xtick_1">
     <g id="line2d_1">
      <defs>
       <path d="M 0 0 
L 0 3.5 
" id="mba4904916d" style="stroke:#000000;stroke-width:0.8;"/>
      </defs>
      <g>
       <use style="stroke:#000000;stroke-width:0.8;" x="135" xlink:href="#mba4904916d" y="448.56"/>
      </g>
     </g>
     <g id="text_1">
      <!-- 0.0 -->
      <g transform="translate(120.687187 469.237188)scale(0.18 -0.18)">
       <defs>
        <path d="M 2034 4250 
Q 1547 4250 1301 3770 
Q 1056 3291 1056 2328 
Q 1056 1369 1301 889 
Q 1547 409 2034 409 
Q 2525 409 2770 889 
Q 3016 1369 3016 2328 
Q 3016 3291 2770 3770 
Q 2525 4250 2034 4250 
z
M 2034 4750 
Q 2819 4750 3233 4129 
Q 3647 3509 3647 2328 
Q 3647 1150 3233 529 
Q 2819 -91 2034 -91 
Q 1250 -91 836 529 
Q 422 1150 422 2328 
Q 422 3509 836 4129 
Q 1250 4750 2034 4750 
z
" id="DejaVuSans-30" transform="scale(0.015625)"/>
        <path d="M 684 794 
L 1344 794 
L 1344 0 
L 684 0 
L 684 794 
z
" id="DejaVuSans-2e" transform="scale(0.015625)"/>
       </defs>
       <use xlink:href="#DejaVuSans-30"/>
       <use x="63.623047" xlink:href="#DejaVuSans-2e"/>
       <use x="95.410156" xlink:href="#DejaVuSans-30"/>
      </g>
     </g>
    </g>
    <g id="xtick_2">
     <g id="line2d_2">
      <g>
       <use style="stroke:#000000;stroke-width:0.8;" x="302.4" xlink:href="#mba4904916d" y="448.56"/>
      </g>
     </g>
     <g id="text_2">
      <!-- 0.2 -->
      <g transform="translate(288.087187 469.237188)scale(0.18 -0.18)">
       <defs>
        <path d="M 1228 531 
L 3431 531 
L 3431 0 
L 469 0 
L 469 531 
Q 828 903 1448 1529 
Q 2069 2156 2228 2338 
Q 2531 2678 2651 2914 
Q 2772 3150 2772 3378 
Q 2772 3750 2511 3984 
Q 2250 4219 1831 4219 
Q 1534 4219 1204 4116 
Q 875 4013 500 3803 
L 500 4441 
Q 881 4594 1212 4672 
Q 1544 4750 1819 4750 
Q 2544 4750 2975 4387 
Q 3406 4025 3406 3419 
Q 3406 3131 3298 2873 
Q 3191 2616 2906 2266 
Q 2828 2175 2409 1742 
Q 1991 1309 1228 531 
z
" id="DejaVuSans-32" transform="scale(0.015625)"/>
       </defs>
       <use xlink:href="#DejaVuSans-30"/>
       <use x="63.623047" xlink:href="#DejaVuSans-2e"/>
       <use x="95.410156" xlink:href="#DejaVuSans-32"/>
      </g>
     </g>
    </g>
    <g id="xtick_3">
     <g id="line2d_3">
      <g>
       <use style="stroke:#000000;stroke-width:0.8;" x="469.8" xlink:href="#mba4904916d" y="448.56"/>
      </g>
     </g>
     <g id="text_3">
      <!-- 0.4 -->
      <g transform="translate(455.487188 469.237188)scale(0.18 -0.18)">
       <defs>
        <path d="M 2419 4116 
L 825 1625 
L 2419 1625 
L 2419 4116 
z
M 2253 4666 
L 3047 4666 
L 3047 1625 
L 3713 1625 
L 3713 1100 
L 3047 1100 
L 3047 0 
L 2419 0 
L 2419 1100 
L 313 1100 
L 313 1709 
L 2253 4666 
z
" id="DejaVuSans-34" transform="scale(0.015625)"/>
       </defs>
       <use xlink:href="#DejaVuSans-30"/>
       <use x="63.623047" xlink:href="#DejaVuSans-2e"/>
       <use x="95.410156" xlink:href="#DejaVuSans-34"/>
      </g>
     </g>
    </g>
    <g id="xtick_4">
     <g id="line2d_4">
      <g>
       <use style="stroke:#000000;stroke-width:0.8;" x="637.2" xlink:href="#mba4904916d" y="448.56"/>
      </g>
     </g>
     <g id="text_4">
      <!-- 0.6 -->
      <g transform="translate(622.887188 469.237188)scale(0.18 -0.18)">
       <defs>
        <path d="M 2113 2584 
Q 1688 2584 1439 2293 
Q 1191 2003 1191 1497 
Q 1191 994 1439 701 
Q 1688 409 2113 409 
Q 2538 409 2786 701 
Q 3034 994 3034 1497 
Q 3034 2003 2786 2293 
Q 2538 2584 2113 2584 
z
M 3366 4563 
L 3366 3988 
Q 3128 4100 2886 4159 
Q 2644 4219 2406 4219 
Q 1781 4219 1451 3797 
Q 1122 3375 1075 2522 
Q 1259 2794 1537 2939 
Q 1816 3084 2150 3084 
Q 2853 3084 3261 2657 
Q 3669 2231 3669 1497 
Q 3669 778 3244 343 
Q 2819 -91 2113 -91 
Q 1303 -91 875 529 
Q 447 1150 447 2328 
Q 447 3434 972 4092 
Q 1497 4750 2381 4750 
Q 2619 4750 2861 4703 
Q 3103 4656 3366 4563 
z
" id="DejaVuSans-36" transform="scale(0.015625)"/>
       </defs>
       <use xlink:href="#DejaVuSans-30"/>
       <use x="63.623047" xlink:href="#DejaVuSans-2e"/>
       <use x="95.410156" xlink:href="#DejaVuSans-36"/>
      </g>
     </g>
    </g>
    <g id="xtick_5">
     <g id="line2d_5">
      <g>
       <use style="stroke:#000000;stroke-width:0.8;" x="804.6" xlink:href="#mba4904916d" y="448.56"/>
      </g>
     </g>
     <g id="text_5">
      <!-- 0.8 -->
      <g transform="translate(790.287188 469.237188)scale(0.18 -0.18)">
       <defs>
        <path d="M 2034 2216 
Q 1584 2216 1326 1975 
Q 1069 1734 1069 1313 
Q 1069 891 1326 650 
Q 1584 409 2034 409 
Q 2484 409 2743 651 
Q 3003 894 3003 1313 
Q 3003 1734 2745 1975 
Q 2488 2216 2034 2216 
z
M 1403 2484 
Q 997 2584 770 2862 
Q 544 3141 544 3541 
Q 544 4100 942 4425 
Q 1341 4750 2034 4750 
Q 2731 4750 3128 4425 
Q 3525 4100 3525 3541 
Q 3525 3141 3298 2862 
Q 3072 2584 2669 2484 
Q 3125 2378 3379 2068 
Q 3634 1759 3634 1313 
Q 3634 634 3220 271 
Q 2806 -91 2034 -91 
Q 1263 -91 848 271 
Q 434 634 434 1313 
Q 434 1759 690 2068 
Q 947 2378 1403 2484 
z
M 1172 3481 
Q 1172 3119 1398 2916 
Q 1625 2713 2034 2713 
Q 2441 2713 2670 2916 
Q 2900 3119 2900 3481 
Q 2900 3844 2670 4047 
Q 2441 4250 2034 4250 
Q 1625 4250 1398 4047 
Q 1172 3844 1172 3481 
z
" id="DejaVuSans-38" transform="scale(0.015625)"/>
       </defs>
       <use xlink:href="#DejaVuSans-30"/>
       <use x="63.623047" xlink:href="#DejaVuSans-2e"/>
       <use x="95.410156" xlink:href="#DejaVuSans-38"/>
      </g>
     </g>
    </g>
    <g id="xtick_6">
     <g id="line2d_6">
      <g>
       <use style="stroke:#000000;stroke-width:0.8;" x="972" xlink:href="#mba4904916d" y="448.56"/>
      </g>
     </g>
     <g id="text_6">
      <!-- 1.0 -->
      <g transform="translate(957.687188 469.237188)scale(0.18 -0.18)">
       <defs>
        <path d="M 794 531 
L 1825 531 
L 1825 4091 
L 703 3866 
L 703 4441 
L 1819 4666 
L 2450 4666 
L 2450 531 
L 3481 531 
L 3481 0 
L 794 0 
L 794 531 
z
" id="DejaVuSans-31" transform="scale(0.015625)"/>
       </defs>
       <use xlink:href="#DejaVuSans-31"/>
       <use x="63.623047" xlink:href="#DejaVuSans-2e"/>
       <use x="95.410156" xlink:href="#DejaVuSans-30"/>
      </g>
     </g>
    </g>
    <g id="text_7">
     <!-- $FPR_{Fair}$ -->
     <g transform="translate(518.08 493.697187)scale(0.22 -0.22)">
      <defs>
       <path d="M 1081 4666 
L 3756 4666 
L 3653 4134 
L 1606 4134 
L 1338 2759 
L 3188 2759 
L 3084 2228 
L 1234 2228 
L 800 0 
L 172 0 
L 1081 4666 
z
" id="DejaVuSans-Oblique-46" transform="scale(0.015625)"/>
       <path d="M 1081 4666 
L 2541 4666 
Q 3178 4666 3512 4369 
Q 3847 4072 3847 3500 
Q 3847 2731 3353 2303 
Q 2859 1875 1966 1875 
L 1172 1875 
L 806 0 
L 172 0 
L 1081 4666 
z
M 1613 4147 
L 1275 2394 
L 2069 2394 
Q 2606 2394 2893 2669 
Q 3181 2944 3181 3456 
Q 3181 3784 2986 3965 
Q 2791 4147 2438 4147 
L 1613 4147 
z
" id="DejaVuSans-Oblique-50" transform="scale(0.015625)"/>
       <path d="M 1613 4147 
L 1294 2491 
L 2106 2491 
Q 2584 2491 2879 2755 
Q 3175 3019 3175 3444 
Q 3175 3784 2976 3965 
Q 2778 4147 2406 4147 
L 1613 4147 
z
M 2772 2241 
Q 2972 2194 3105 2009 
Q 3238 1825 3413 1275 
L 3809 0 
L 3144 0 
L 2778 1197 
Q 2638 1659 2453 1815 
Q 2269 1972 1888 1972 
L 1191 1972 
L 806 0 
L 172 0 
L 1081 4666 
L 2503 4666 
Q 3150 4666 3495 4373 
Q 3841 4081 3841 3531 
Q 3841 3044 3547 2687 
Q 3253 2331 2772 2241 
z
" id="DejaVuSans-Oblique-52" transform="scale(0.015625)"/>
       <path d="M 3438 1997 
L 3047 0 
L 2472 0 
L 2578 531 
Q 2325 219 2001 64 
Q 1678 -91 1281 -91 
Q 834 -91 548 182 
Q 263 456 263 884 
Q 263 1497 752 1853 
Q 1241 2209 2100 2209 
L 2900 2209 
L 2931 2363 
Q 2938 2388 2941 2417 
Q 2944 2447 2944 2509 
Q 2944 2788 2717 2942 
Q 2491 3097 2081 3097 
Q 1800 3097 1504 3025 
Q 1209 2953 897 2809 
L 997 3341 
Q 1322 3463 1633 3523 
Q 1944 3584 2234 3584 
Q 2853 3584 3176 3315 
Q 3500 3047 3500 2534 
Q 3500 2431 3484 2292 
Q 3469 2153 3438 1997 
z
M 2816 1759 
L 2241 1759 
Q 1534 1759 1195 1570 
Q 856 1381 856 984 
Q 856 709 1029 553 
Q 1203 397 1509 397 
Q 1978 397 2328 733 
Q 2678 1069 2791 1631 
L 2816 1759 
z
" id="DejaVuSans-Oblique-61" transform="scale(0.015625)"/>
       <path d="M 1172 4863 
L 1747 4863 
L 1606 4134 
L 1031 4134 
L 1172 4863 
z
M 909 3500 
L 1484 3500 
L 800 0 
L 225 0 
L 909 3500 
z
" id="DejaVuSans-Oblique-69" transform="scale(0.015625)"/>
       <path d="M 2853 2969 
Q 2766 3016 2653 3041 
Q 2541 3066 2413 3066 
Q 1953 3066 1609 2717 
Q 1266 2369 1153 1784 
L 800 0 
L 225 0 
L 909 3500 
L 1484 3500 
L 1375 2956 
Q 1603 3259 1920 3421 
Q 2238 3584 2597 3584 
Q 2691 3584 2781 3573 
Q 2872 3563 2963 3538 
L 2853 2969 
z
" id="DejaVuSans-Oblique-72" transform="scale(0.015625)"/>
      </defs>
      <use transform="translate(0 0.09375)" xlink:href="#DejaVuSans-Oblique-46"/>
      <use transform="translate(57.519531 0.09375)" xlink:href="#DejaVuSans-Oblique-50"/>
      <use transform="translate(117.822266 0.09375)" xlink:href="#DejaVuSans-Oblique-52"/>
      <use transform="translate(187.304688 -16.3125)scale(0.7)" xlink:href="#DejaVuSans-Oblique-46"/>
      <use transform="translate(227.568359 -16.3125)scale(0.7)" xlink:href="#DejaVuSans-Oblique-61"/>
      <use transform="translate(270.463867 -16.3125)scale(0.7)" xlink:href="#DejaVuSans-Oblique-69"/>
      <use transform="translate(289.912109 -16.3125)scale(0.7)" xlink:href="#DejaVuSans-Oblique-72"/>
     </g>
    </g>
   </g>
   <g id="matplotlib.axis_2">
    <g id="ytick_1">
     <g id="line2d_7">
      <defs>
       <path d="M 0 0 
L -3.5 0 
" id="md458736baf" style="stroke:#000000;stroke-width:0.8;"/>
      </defs>
      <g>
       <use style="stroke:#000000;stroke-width:0.8;" x="135" xlink:href="#md458736baf" y="448.56"/>
      </g>
     </g>
     <g id="text_8">
      <!-- 0.0 -->
      <g transform="translate(99.374375 455.398594)scale(0.18 -0.18)">
       <use xlink:href="#DejaVuSans-30"/>
       <use x="63.623047" xlink:href="#DejaVuSans-2e"/>
       <use x="95.410156" xlink:href="#DejaVuSans-30"/>
      </g>
     </g>
    </g>
    <g id="ytick_2">
     <g id="line2d_8">
      <g>
       <use style="stroke:#000000;stroke-width:0.8;" x="135" xlink:href="#md458736baf" y="370.944"/>
      </g>
     </g>
     <g id="text_9">
      <!-- 0.2 -->
      <g transform="translate(99.374375 377.782594)scale(0.18 -0.18)">
       <use xlink:href="#DejaVuSans-30"/>
       <use x="63.623047" xlink:href="#DejaVuSans-2e"/>
       <use x="95.410156" xlink:href="#DejaVuSans-32"/>
      </g>
     </g>
    </g>
    <g id="ytick_3">
     <g id="line2d_9">
      <g>
       <use style="stroke:#000000;stroke-width:0.8;" x="135" xlink:href="#md458736baf" y="293.328"/>
      </g>
     </g>
     <g id="text_10">
      <!-- 0.4 -->
      <g transform="translate(99.374375 300.166594)scale(0.18 -0.18)">
       <use xlink:href="#DejaVuSans-30"/>
       <use x="63.623047" xlink:href="#DejaVuSans-2e"/>
       <use x="95.410156" xlink:href="#DejaVuSans-34"/>
      </g>
     </g>
    </g>
    <g id="ytick_4">
     <g id="line2d_10">
      <g>
       <use style="stroke:#000000;stroke-width:0.8;" x="135" xlink:href="#md458736baf" y="215.712"/>
      </g>
     </g>
     <g id="text_11">
      <!-- 0.6 -->
      <g transform="translate(99.374375 222.550594)scale(0.18 -0.18)">
       <use xlink:href="#DejaVuSans-30"/>
       <use x="63.623047" xlink:href="#DejaVuSans-2e"/>
       <use x="95.410156" xlink:href="#DejaVuSans-36"/>
      </g>
     </g>
    </g>
    <g id="ytick_5">
     <g id="line2d_11">
      <g>
       <use style="stroke:#000000;stroke-width:0.8;" x="135" xlink:href="#md458736baf" y="138.096"/>
      </g>
     </g>
     <g id="text_12">
      <!-- 0.8 -->
      <g transform="translate(99.374375 144.934594)scale(0.18 -0.18)">
       <use xlink:href="#DejaVuSans-30"/>
       <use x="63.623047" xlink:href="#DejaVuSans-2e"/>
       <use x="95.410156" xlink:href="#DejaVuSans-38"/>
      </g>
     </g>
    </g>
    <g id="ytick_6">
     <g id="line2d_12">
      <g>
       <use style="stroke:#000000;stroke-width:0.8;" x="135" xlink:href="#md458736baf" y="60.48"/>
      </g>
     </g>
     <g id="text_13">
      <!-- 1.0 -->
      <g transform="translate(99.374375 67.318594)scale(0.18 -0.18)">
       <use xlink:href="#DejaVuSans-31"/>
       <use x="63.623047" xlink:href="#DejaVuSans-2e"/>
       <use x="95.410156" xlink:href="#DejaVuSans-30"/>
      </g>
     </g>
    </g>
    <g id="text_14">
     <!-- $TPR_{Fair}$ -->
     <g transform="translate(90.799062 290.27)rotate(-90)scale(0.22 -0.22)">
      <defs>
       <path d="M 378 4666 
L 4325 4666 
L 4225 4134 
L 2559 4134 
L 1759 0 
L 1125 0 
L 1925 4134 
L 275 4134 
L 378 4666 
z
" id="DejaVuSans-Oblique-54" transform="scale(0.015625)"/>
      </defs>
      <use transform="translate(0 0.09375)" xlink:href="#DejaVuSans-Oblique-54"/>
      <use transform="translate(61.083984 0.09375)" xlink:href="#DejaVuSans-Oblique-50"/>
      <use transform="translate(121.386719 0.09375)" xlink:href="#DejaVuSans-Oblique-52"/>
      <use transform="translate(190.869141 -16.3125)scale(0.7)" xlink:href="#DejaVuSans-Oblique-46"/>
      <use transform="translate(231.132812 -16.3125)scale(0.7)" xlink:href="#DejaVuSans-Oblique-61"/>
      <use transform="translate(274.02832 -16.3125)scale(0.7)" xlink:href="#DejaVuSans-Oblique-69"/>
      <use transform="translate(293.476562 -16.3125)scale(0.7)" xlink:href="#DejaVuSans-Oblique-72"/>
     </g>
    </g>
   </g>
   <g id="line2d_13">
    <path clip-path="url(#p3e7b796cf3)" d="M 135 448.56 
L 972 60.48 
" style="fill:none;stroke:#ff0000;stroke-dasharray:5.55,2.4;stroke-dashoffset:0;stroke-width:1.5;"/>
   </g>
   <g id="line2d_14">
    <path clip-path="url(#p3e7b796cf3)" d="M 972 60.48 
L 304.662162 319.2 
L 235.44 378.49 
L 205.533708 398.1096 
L 190.30837 408.835276 
L 176.701068 417.224348 
L 169.979104 422.554639 
L 164.969309 425.094698 
L 161.332584 429.781935 
L 158.672727 432.162254 
L 156.780669 433.915472 
L 154.928571 435.730909 
L 153.541139 436.619077 
L 152.106569 438.539155 
L 151.140496 439.115575 
L 150.237971 439.74 
L 148.301956 440.302979 
L 147.492537 440.770073 
L 146.814332 441.3 
L 145.47341 441.663586 
L 145.044 441.868966 
L 144.520379 442.169461 
L 144.097826 442.355233 
L 143.673575 442.597877 
L 143.31457 442.759891 
L 142.266772 442.972461 
L 142.001521 443.156354 
L 141.789823 443.804118 
L 141.562366 443.983585 
L 140.768436 444.109541 
L 140.032064 444.21906 
L 139.923529 444.755294 
L 139.798089 444.860085 
L 139.699314 444.933084 
L 139.618639 445.049729 
L 139.024038 445.145806 
L 138.945787 445.2525 
L 138.854922 445.334958 
L 138.768149 445.396304 
L 138.70354 445.792941 
L 138.63913 445.85561 
L 138.575013 445.91099 
L 138.511274 445.970642 
L 138.027907 445.996301 
L 137.965081 446.066313 
L 137.50349 446.103797 
L 137.473892 446.436028 
L 137.027616 446.484706 
L 136.591255 446.520541 
L 136.565949 446.841565 
L 136.548566 446.876356 
L 136.530165 446.903898 
L 136.506751 446.920225 
L 136.486019 446.944122 
L 136.469065 446.971678 
L 136.451865 447.256844 
L 136.433833 447.285099 
L 136.421053 447.55396 
L 136.406723 447.567468 
L 136.390365 447.580618 
L 136.372694 447.597022 
L 136.018661 447.609406 
L 136.008839 447.624304 
L 135.998013 447.638195 
L 135.990533 447.650082 
L 135.652886 447.660626 
L 135.645335 447.667862 
L 135.318614 447.678 
L 135.315017 447.90335 
L 135.310806 447.911037 
L 135.308287 447.916418 
L 135.305586 447.92206 
L 135.301948 447.926228 
L 135.298929 447.9317 
L 135.29576 447.939734 
L 135.292453 447.942366 
L 135.28982 448.152353 
L 135.287136 448.157636 
L 135.285082 448.161969 
L 135.282866 448.165008 
L 135.280778 448.16997 
L 135.279186 448.174043 
L 135.277061 448.178407 
L 135.274336 448.182123 
L 135.273262 448.185043 
L 135.270961 448.188098 
L 135.269392 448.193368 
L 135 448.196629 
L 135 448.199163 
L 135 448.201827 
L 135 448.204615 
L 135 448.206235 
L 135 448.208478 
L 135 448.210693 
L 135 448.214272 
L 135 448.217325 
L 135 448.219579 
L 135 448.221951 
L 135 448.22516 
L 135 448.22774 
L 135 448.23056 
" style="fill:none;stroke:#1f77b4;stroke-linecap:square;stroke-width:1.5;"/>
   </g>
   <g id="line2d_15">
    <path clip-path="url(#p3e7b796cf3)" d="M 972 60.48 
L 806.60479 125.632117 
L 733.5 174.4785 
L 652.772093 212.337391 
L 613.285714 240.45913 
L 556.795276 264.470769 
L 517.370504 287.223371 
L 476.407895 297.413053 
L 442.832827 314.73931 
L 417.929577 326.592 
L 400.608 336.653333 
L 381.672544 348.529833 
L 366.939759 353.52 
L 348.425721 361.139874 
L 338.06962 365.623548 
L 331.438776 370.65 
L 320.638132 375.622979 
L 310.879925 380.190201 
L 301.5 385.011129 
L 290.484375 388.674735 
L 286.026981 390.60369 
L 277.439222 393.591161 
L 270.299525 395.712792 
L 264.857143 397.53753 
L 257.977511 399.295959 
L 250.406386 401.328181 
L 244.885475 403.268108 
L 241.924451 405.284892 
L 236.935047 407.092683 
L 232.043478 408.655729 
L 229.32513 409.795072 
L 226.09475 410.853537 
L 223.215809 411.73791 
L 221.085502 412.619188 
L 218.802198 413.423561 
L 216.781665 414.443077 
L 215 415.999141 
L 213.776471 416.71374 
L 211.53125 417.251482 
L 208.404328 418.016667 
L 207.577703 418.572 
L 205.218121 419.723259 
L 203.213656 420.379213 
L 200.647059 420.647834 
L 198.135776 421.309036 
L 194.14561 421.784738 
L 193.643312 422.815135 
L 190.389706 423.875362 
L 188.018692 424.266561 
L 186.719876 424.892885 
L 185.288187 425.32881 
L 184.531595 425.697281 
L 183.017804 426.467056 
L 180.773438 427.318935 
L 179.607558 427.896368 
L 178.501444 428.458014 
L 177.410134 429.114919 
L 177.168251 429.886695 
L 176.929112 430.322654 
L 175.944497 430.787368 
L 175.52514 431.06245 
L 173.642659 431.529894 
L 172.626606 431.764407 
L 171.55687 432.222435 
L 171.325497 433.346067 
L 170.345013 433.548662 
L 169.254448 433.652645 
L 166.878654 433.79214 
L 166.626538 434.115335 
L 166.351045 434.530147 
L 166.215091 434.826846 
L 165.305172 434.967826 
L 163.664384 435.065612 
L 163.372881 435.408656 
L 162.385067 435.578451 
L 162 435.654189 
L 161.199341 436.222197 
L 161.04914 436.370166 
L 160.92176 436.713578 
L 160.137175 437.004809 
L 159.995157 437.126848 
L 159.834804 437.447577 
L 158.952305 437.562638 
L 158.176424 437.67534 
L 157.425532 438.177978 
L 157.285043 438.249692 
L 157.163551 438.750711 
L 156.461538 439.035321 
L 155.682625 439.329555 
L 153.714726 439.590508 
L 151.701458 439.870168 
L 150.985485 440.102098 
L 150.948933 440.35287 
L 150.287671 440.568398 
L 149.573051 440.840855 
L 148.897358 440.913103 
L 148.215789 441.331059 
L 148.136771 441.387315 
L 148.068401 441.619952 
L 147.409192 441.683103 
L 147.363368 441.748349 
" style="fill:none;stroke:#ff7f0e;stroke-linecap:square;stroke-width:1.5;"/>
   </g>
   <g id="line2d_16">
    <path clip-path="url(#p3e7b796cf3)" d="M 972 60.48 
L 965.139344 60.48 
L 961.666667 60.48 
L 958.222222 60.48 
L 954.48954 60.48 
L 953.961207 60.48 
L 950.165217 60.48 
L 942.502203 62.310566 
L 941.701357 62.336842 
L 937.60274 66.024 
L 926.345455 66.050526 
L 925.926606 66.104348 
L 921.857143 67.97913 
L 910.568807 68.089412 
L 903.518182 68.126897 
L 896.594595 68.202985 
L 896.253394 68.202985 
L 894.5 68.2416 
L 889.864486 70.230754 
L 887.899522 70.38 
L 884.314286 72.299695 
L 877.632353 74.482887 
L 872.059701 78.483711 
L 871.055276 82.371692 
L 868.984615 84.484948 
L 866.273684 84.735 
L 861.285714 84.990316 
L 860.101604 85.251064 
L 858.277174 89.534118 
L 853.081967 91.609412 
L 849.741573 97.636596 
L 847.645714 98.036129 
L 842.12069 99.910588 
L 839.064706 99.910588 
L 838.278107 101.985882 
L 837.482143 104.061176 
L 835.036364 104.771739 
L 828.220859 104.771739 
L 825.525 104.771739 
L 822.726115 110.554839 
L 821.769231 117.670737 
L 818.823529 118.279149 
L 817.815789 118.588235 
L 814.711409 118.588235 
L 811.479452 120.663529 
L 797.625 120.663529 
L 797.625 121.644783 
L 791.352518 126.220328 
L 787.367647 128.340984 
L 786 132.978462 
L 779.8 136.408696 
L 778.365672 141.851613 
L 776.909774 146.024516 
L 773.931298 148.584649 
L 772.407692 149.547541 
L 769.289062 155.39087 
L 767.692913 159.073297 
L 766.071429 160.698462 
L 754.511811 161.812 
L 751.032 162.378101 
L 751.032 168.882235 
L 747.439024 171.671461 
L 743.727273 172.299661 
L 736.809917 173.5776 
L 734.85 176.223158 
L 730.830508 176.904 
L 726.672414 178.492632 
L 720.159292 178.492632 
L 720.159292 179.889231 
L 720.159292 180.6 
L 720.159292 182.047229 
L 717.910714 182.047229 
L 713.290909 182.047229 
L 713.290909 184.284663 
L 708.5 185.048889 
L 698.365385 185.048889 
L 687.582524 190.643478 
L 684.794118 190.643478 
L 684.794118 193.959745 
L 673.071429 195.682065 
L 669.989691 196.56 
L 652.731959 198.350526 
L 649.40625 199.263576 
L 642.542553 201.126443 
L 635.380435 203.04 
L 630 203.04 
L 617.184783 207.027692 
L 609.3 208.059718 
L 601.056818 211.244892 
L 578.710843 214.570588 
L 563.9625 216.870448 
L 558.797468 219.24 
L 558.797468 221.682462 
L 548.064935 222.932093 
L 531.473684 227.233125 
L 525.6 228.546142 
L 519.567568 231.2352 
L 507 232.612258 
L 507 236.88 
L 500.450704 239.844706 
L 500.450704 239.844706 
" style="fill:none;stroke:#2ca02c;stroke-linecap:square;stroke-width:1.5;"/>
   </g>
   <g id="line2d_17">
    <path clip-path="url(#p3e7b796cf3)" d="M 972 60.48 
L 960.81016 62.853578 
L 958.463612 64.051288 
L 949.620321 65.271111 
L 944.927224 73.416 
L 935.608696 74.592 
L 930.836066 77.095046 
L 923.578512 79.410732 
L 917.924157 83.167754 
L 914.931818 85.555938 
L 907.615385 89.226667 
L 904.848138 93.02087 
L 897.224784 95.323096 
L 883.26361 99.409655 
L 874.230769 104.002991 
L 870.042493 108.539443 
L 869.168571 114.214154 
L 864.629738 119.638537 
L 857.309038 120.74087 
L 849.272727 126.561734 
L 847.184211 130.50055 
L 839.579104 133.544444 
L 835.861446 138.808073 
L 829.963636 141.870638 
L 823.541284 145.152 
L 820.29375 146.851463 
L 814.570533 149.762209 
L 808.811321 151.231015 
L 805.129747 154.813292 
L 802.446945 159.564255 
L 799.676471 163.655347 
L 792.445545 165.144 
L 786.307947 168.538204 
L 782.543919 169.37409 
L 781.901695 171.193514 
L 778.624138 172.358919 
L 773.686411 174.207372 
L 767.925795 175.033735 
L 765 175.728 
L 758.233813 180.157365 
L 756.684783 183.333728 
L 753.518382 185.22 
L 748.8 187.909254 
L 743.727273 191.742353 
L 738.790076 194.771613 
L 731.930233 196.648421 
L 728.149606 198.668724 
L 722.25 203.275015 
L 718.155738 204.426588 
L 714.72541 207.165 
L 710.222222 210.184451 
L 709.140496 213.186036 
L 706.95 218.926864 
L 702.338912 222.371361 
L 698.911017 224.31018 
L 696.576923 228.454925 
L 695.39485 232.704852 
L 694.202586 234.767425 
L 688.2103 235.817349 
L 681.986842 237.621622 
L 680.709251 241.738922 
L 675.716814 245.779459 
L 668.309735 246.944865 
L 664.606195 248.675422 
L 661.861607 251.553028 
L 659.067568 252.739817 
L 654.780822 254.52 
L 648.87907 254.52 
L 645.84507 255.703171 
L 641.185714 259.252683 
L 639.602871 260.472147 
L 633.214286 262.752 
L 624.95122 263.871325 
L 619.147059 266.28 
L 615.653465 270.159045 
L 600.47449 272.890651 
L 592.734375 277.62 
L 590.748691 281.244072 
L 584.664894 284.417402 
L 574.081967 286.272 
L 569.508197 288.831951 
L 558.098901 291.198293 
L 548.85 293.564634 
L 541.677966 296.394894 
L 534.477273 299.480488 
L 527.194286 300.946748 
L 522.052023 305.13913 
L 514.111765 307.881 
L 508.660714 312.732 
L 491.5 315.925063 
L 482.433962 319.2 
L 479.335443 321.259873 
L 479.335443 323.775434 
L 470.866242 324.624774 
L 456.923077 327.518971 
L 453.6 330.014662 
L 444.798701 332.136 
L 437.861842 333.758199 
L 428.781457 337.318827 
L 425.16 340.406557 
L 421.489933 340.76 
" style="fill:none;stroke:#d62728;stroke-linecap:square;stroke-width:1.5;"/>
   </g>
   <g id="line2d_18">
    <path clip-path="url(#p3e7b796cf3)" d="M 972 60.48 
L 968.505219 60.48 
L 966.713684 60.48 
L 964.90678 60.48 
L 963.057692 60.48 
L 962.902174 60.48 
L 960.962637 60.48 
L 957.152993 61.428851 
L 956.850679 61.445373 
L 956.606897 63.376119 
L 950.638051 63.405226 
L 950.437939 63.442443 
L 948.199052 64.44 
L 942.107143 64.512 
L 938.121429 64.554331 
L 934.045346 64.608511 
L 933.771635 64.652903 
L 932.92629 64.709755 
L 930.358209 65.855069 
L 929.727273 65.930562 
L 929.51269 67.057627 
L 926.345455 68.2416 
L 923.795812 70.4592 
L 923.026596 72.642051 
L 922.366577 73.7856 
L 921.272727 73.900634 
L 918.525 74.057143 
L 918.07563 74.136774 
L 917.464589 76.459765 
L 916.361272 77.601176 
L 915.212389 80.965161 
L 914.189189 81.146982 
L 911.127273 82.295148 
L 910 82.359881 
L 909.420561 83.648955 
L 908.43038 84.807403 
L 907.40836 85.10139 
L 903.617647 85.10139 
L 902.481728 85.251064 
L 901.307432 88.618731 
L 900.583618 92.916537 
L 899.595156 93.209639 
L 898.578947 93.710092 
L 897 93.710092 
L 896.184783 95.108677 
L 894.5 95.215556 
L 893.037736 95.870943 
L 890.895349 98.793631 
L 889.29249 100.029554 
L 887.963855 102.635655 
L 883.894737 105.258462 
L 883.17551 108.835016 
L 882.07438 111.972816 
L 880.563025 113.920525 
L 879 114.8112 
L 878.198276 118.692 
L 876.969432 121.2792 
L 876.132159 122.309695 
L 872.004425 122.731741 
L 869.742081 123.159588 
L 868.808219 127.160412 
L 867.857143 129.2025 
L 866.397196 129.441951 
L 861.45283 130.416678 
L 859.866029 131.674532 
L 858.23301 131.931552 
L 854.82 133.332563 
L 851.195876 133.332563 
L 848.652632 134.4 
L 846 135.221333 
L 845.318919 135.779104 
L 843.230769 136.061124 
L 838.840909 136.061124 
L 837.310345 137.210646 
L 835.744186 138.096 
L 829.963636 138.395676 
L 825.525 142.340625 
L 822.726115 143.971315 
L 818.823529 145.323401 
L 813.648649 146.016 
L 811.479452 148.163347 
L 803.4375 148.903291 
L 799.851064 150.036923 
L 796.108696 151.594435 
L 789.496241 153.6192 
L 781.772727 154.877838 
L 773.931298 157.5 
L 769.289062 159.330566 
L 764.424 162.705951 
L 753.957983 164.740299 
L 746.373913 167.4 
L 744.394737 169.061969 
L 744.394737 170.776421 
L 740.330357 171.36 
L 728.509091 174.621176 
L 721.682243 177.116066 
L 714.461538 178.404862 
L 709.411765 179.722458 
L 704.16 183.148966 
L 701.454545 185.301053 
L 695.876289 185.301053 
" style="fill:none;stroke:#9467bd;stroke-linecap:square;stroke-width:1.5;"/>
   </g>
   <g id="line2d_19">
    <path clip-path="url(#p3e7b796cf3)" d="M 972 60.48 
L 963.602007 61.955589 
L 962.136364 62.6976 
L 956.473862 63.453793 
L 953.494898 68.565 
L 947.635274 69.333536 
L 943.137931 70.868375 
L 938.403141 72.352428 
L 934.964602 74.714595 
L 933.069767 76.212973 
L 926.756757 79.282326 
L 924.823636 81.620545 
L 919.783486 83.130584 
L 909.148352 85.640393 
L 903.142596 87.981732 
L 899.818349 90.569702 
L 899.15 93.721912 
L 896.196226 97.106024 
L 889.254753 97.628187 
L 883.810345 101.748221 
L 881.687861 104.832 
L 875.360078 106.698973 
L 872.750988 110.090227 
L 868.419162 112.277125 
L 864.433735 114.779259 
L 862.229508 115.805455 
L 858.098969 117.645311 
L 854.161491 118.570977 
L 851.430063 120.991435 
L 849.382166 124.625455 
L 846.45 127.555556 
L 841.103524 128.634545 
L 836.521064 131.548148 
L 834.385135 133.145185 
L 833.134091 134.247273 
L 831.537931 135.049091 
L 828.292343 136.320998 
L 824.640845 137.60887 
L 822.178998 137.932941 
L 815.949153 141.498789 
L 814.807317 144.215104 
L 812.076923 145.3725 
L 808.37594 147.083116 
L 805.877863 151.032 
L 802.453846 153.4575 
L 797.625 155.271983 
L 795.324538 156.677797 
L 790.536585 160.414764 
L 787.53719 161.464258 
L 783.150418 163.354655 
L 779.747899 166.091404 
L 778.664789 168.84 
L 777.017045 172.328384 
L 772.37069 175.372105 
L 769.460641 176.645854 
L 768.272727 180.087805 
L 766.464497 183.843179 
L 765.241071 185.22 
L 760.258929 186.060944 
L 756.409091 188.091892 
L 755.094512 191.293483 
L 749.311927 194.21027 
L 743.493865 195.653933 
L 739.5 197.76 
L 737.327103 199.334312 
L 732.857143 200.224404 
L 728.213592 202.244384 
L 720.9 202.568787 
L 716.644068 203.881386 
L 709.355172 206.570162 
L 708.446367 207.589395 
L 700.777003 210.501667 
L 691.996403 211.59871 
L 687.963899 213.36 
L 683.802198 217.344112 
L 672.179104 219.853921 
L 665.312977 223.310769 
L 660.55814 226.146226 
L 655.653543 228.248551 
L 649.301205 229.572 
L 644.625 232.437966 
L 636.522267 234.739223 
L 627.555556 237.482341 
L 621.790795 240.694054 
L 610.730769 243.953465 
L 605.587983 245.326085 
L 600.808696 249.116354 
L 595.903084 251.55 
L 589.156951 256.520412 
L 576.75 258.5625 
L 569.292453 262.15937 
L 565.457143 264.786667 
L 565.457143 266.971765 
L 555.521739 267.525362 
L 543.292683 270.168387 
L 536.925743 273.976585 
L 523.909091 276.197493 
L 515.066327 278.312371 
L 508.430769 281.321105 
L 503.626943 284.872626 
L 498.722513 286.588235 
" style="fill:none;stroke:#8c564b;stroke-linecap:square;stroke-width:1.5;"/>
   </g>
   <g id="line2d_20">
    <path clip-path="url(#p3e7b796cf3)" d="M 972 60.48 
L 969.700549 60.48 
L 968.522161 60.48 
L 967.317483 60.48 
L 966.088983 60.48 
L 965.978417 60.48 
L 964.711176 60.48 
L 962.138439 61.15375 
L 961.961019 61.846479 
L 961.808219 63.217778 
L 957.878834 63.932669 
L 957.725581 63.963662 
L 956.207547 64.667914 
L 952.103011 64.736819 
L 949.30622 64.776089 
L 947.855769 64.84863 
L 947.660743 64.898368 
L 947.220395 64.966474 
L 945.406355 65.785781 
L 945.091371 65.87 
L 944.908007 66.664542 
L 942.9375 67.521774 
L 942.579965 69.156585 
L 942.160428 70.755031 
L 941.837838 71.613443 
L 941.114391 71.705455 
L 939.20709 71.799 
L 938.835849 71.870189 
L 938.52 73.552168 
L 937.869903 74.398481 
L 937.125 76.820211 
L 934.949698 76.924068 
L 932.631902 78.568475 
L 931.977131 78.645447 
L 931.471579 79.552308 
L 930.953092 80.381538 
L 930.421166 81.389483 
L 927.753304 81.571304 
L 926.959641 82.462745 
L 926.136986 84.945913 
L 925.5 88.14013 
L 924.622642 88.381176 
L 923.711538 88.750728 
L 922.764706 88.876098 
L 922.029851 89.866904 
L 921.015228 90.197838 
L 920.226804 90.673867 
L 918.71618 93.046154 
L 915.598383 94.186479 
L 914.355372 96.092047 
L 911.55 98.184455 
L 911.042017 101.136 
L 910.525424 103.496096 
L 909.644699 104.96722 
L 908.553936 105.627921 
L 907.994118 108.628883 
L 907.232143 110.679403 
L 906.844311 111.311637 
L 903.930723 111.69868 
L 902.677914 113.219077 
L 902.034056 116.636279 
L 901.15674 118.085625 
L 900.484177 118.236031 
L 897.363057 120.026667 
L 896.4 120.824879 
L 894.653465 121.150189 
L 892.824324 122.196226 
L 890.341463 122.363027 
L 888.893617 123.21074 
L 886.153846 123.905817 
L 885.2 124.437318 
L 883.894737 124.796629 
L 879.367589 124.796629 
L 878.629482 125.712821 
L 876.731707 126.655491 
L 873.529412 126.847304 
L 870.982759 130.106118 
L 868.300885 131.356886 
L 865.954751 132.216 
L 863.5 132.653415 
L 862.485981 134.22729 
L 857.504717 134.923019 
L 854.73913 135.871338 
L 852.428571 137.34 
L 848.786802 138.86702 
L 842.56701 139.919195 
L 839.842105 142.110621 
L 837 143.252308 
L 833.270718 145.329032 
L 827.689655 146.5632 
L 822.535714 148.157333 
L 820.73494 150.934737 
L 819.818182 152.315725 
L 816.037267 152.667586 
L 806.732484 155.243721 
L 802.411765 157.116522 
L 795.489796 158.668916 
L 789.274648 159.463968 
L 786.664286 162.69037 
L 782.605839 165.277975 
L 778.365672 166.169872 
" style="fill:none;stroke:#e377c2;stroke-linecap:square;stroke-width:1.5;"/>
   </g>
   <g id="line2d_21">
    <path clip-path="url(#p3e7b796cf3)" d="M 972 60.48 
L 954.149289 64.516493 
L 946.21564 69.065841 
L 934.315166 75.754286 
L 926.273159 84.285193 
L 917.870659 89.654809 
L 905.921053 95.511199 
L 893.719424 101.983 
L 881.567827 106.96312 
L 867.750898 113.714568 
L 858 120.590217 
L 849.146778 126.034054 
L 840.686228 131.463925 
L 824.235782 137.786773 
L 815.865407 142.396623 
L 810.127358 147.516412 
L 801.06338 156.115798 
L 794.694675 163.470462 
L 783.798817 169.596641 
L 772.3396 175.974174 
L 767.661972 180.150112 
L 757.334118 184.858435 
L 753.351064 188.719307 
L 746.615658 193.95672 
L 742.274463 198.474466 
L 734.009639 203.677788 
L 725.231047 208.714591 
L 717.785114 213.442526 
L 711.824096 218.669654 
L 702.783555 222.623014 
L 696.065934 225.797695 
L 689.576687 228.109606 
L 680.959309 231.425139 
L 675.36803 234.623947 
L 668.769231 237.960788 
L 664.125935 240.855211 
L 659.17125 244.483448 
L 652.187894 247.2409 
L 648.274809 248.501647 
L 641.043367 250.812229 
L 635.695764 253.501952 
L 630.919793 255.737824 
L 621.804404 259.164037 
L 615.156454 260.753409 
L 609.373037 263.89295 
L 602.833113 267.192 
L 598.637816 270.027295 
L 590.725067 273.645092 
L 584.901774 275.416615 
L 578.793956 278.010092 
L 574.252066 280.837166 
L 569.596154 283.136 
L 566.146978 285.550688 
L 560.417355 288.555242 
L 556.402219 291.535663 
L 548.862881 294.412455 
L 545.3625 297.533793 
L 541.842618 300.321802 
L 537.179666 301.698353 
L 532.956522 303.600706 
L 528.882353 306.579512 
L 523.648951 308.367517 
L 519.408708 309.557483 
L 515.347826 312.18726 
L 510.004213 314.195745 
L 501.483051 316.226207 
L 495.076923 317.226921 
L 487.484805 318.33924 
L 482.733236 319.9392 
L 473.231332 322.626755 
L 471.030882 323.8462 
L 467.574594 325.528053 
L 457.213534 326.332935 
L 452.784753 328.371045 
L 447.463268 331.124246 
L 437.179758 331.92 
L 431.464122 334.8 
L 426.018462 336.856379 
L 421.342105 338.807246 
L 416.607477 340.341939 
L 414 343.013728 
L 410.088785 344.858182 
L 404.409375 347.105814 
L 398.622047 349.407692 
L 392.33439 351.805808 
L 387.028526 353.397265 
L 382.901274 355.889478 
L 377.3952 357.642443 
L 370.11236 360.038102 
L 362.902755 361.533856 
L 355.551555 363.855781 
L 352.152709 365.552029 
L 350.778325 367.325704 
L 344.594728 367.901623 
L 338.034653 370.095738 
L 333.492537 372.431168 
L 326.434057 374.269389 
L 319.755853 375.377189 
L 315.859296 377.071579 
L 311.949664 379.0584 
L 305.787521 380.199024 
" style="fill:none;stroke:#7f7f7f;stroke-linecap:square;stroke-width:1.5;"/>
   </g>
   <g id="line2d_22">
    <path clip-path="url(#p3e7b796cf3)" d="M 972 60.48 
L 970.166484 60.48 
L 969.228477 60.48 
L 968.259218 60.48 
L 968.21267 60.48 
L 968.142857 61.016763 
L 967.116686 61.022011 
L 965.049822 61.565538 
L 964.932449 61.584068 
L 964.828641 62.6976 
L 961.679408 62.723237 
L 961.576588 62.746161 
L 960.375 63.889195 
L 957.053571 63.934718 
L 954.808729 63.965749 
L 953.616279 64.018723 
L 953.472656 64.062277 
L 953.153642 64.112574 
L 951.722746 64.764795 
L 951.502041 64.819553 
L 951.361644 65.471383 
L 949.850975 66.15922 
L 949.538136 67.46671 
L 949.216332 68.777763 
L 948.918723 69.475232 
L 948.334821 69.565485 
L 946.751131 69.657568 
L 946.442748 69.72 
L 946.126739 71.776849 
L 945.512658 72.503133 
L 944.912621 74.506988 
L 944.421746 74.579792 
L 942.557789 75.276811 
L 942.107143 75.354146 
L 941.642487 76.111944 
L 941.270979 77.471243 
L 940.835106 77.682128 
L 938.701627 77.835993 
L 938.150735 77.898312 
L 937.645522 79.953548 
L 936.992395 82.616471 
L 936.451737 83.472172 
L 935.823183 83.7648 
L 935.098196 83.892505 
L 934.573171 84.735 
L 933.6375 84.96 
L 933.151899 85.375698 
L 932.142857 87.244138 
L 931.261062 88.253617 
L 930.527027 89.868583 
L 928.247727 91.617534 
L 927.947368 94.027191 
L 927.540416 95.970417 
L 926.915691 97.106024 
L 926.273159 97.552683 
L 925.387409 100.160982 
L 924.700246 101.9177 
L 924.11194 103.064348 
L 921.654135 103.509791 
L 920.885496 103.964651 
L 920.492308 106.81791 
L 919.6875 107.949013 
L 918.997361 108.153621 
L 916.496021 108.99 
L 915.75 109.6368 
L 914.196133 109.966711 
L 912.889831 110.834899 
L 910.994169 111.289571 
L 909.908012 111.869589 
L 907.812883 112.463002 
L 907.216718 112.825674 
L 906.404389 113.317183 
L 903.617647 113.317183 
L 902.940594 114.072 
L 901.781879 114.980339 
L 899.34375 115.112621 
L 897.533808 117.973333 
L 895.631387 118.837895 
L 893.921642 119.578477 
L 892.133588 120.338098 
L 891.519231 121.755789 
L 887.322957 122.243395 
L 885.298805 123.411892 
L 882.811475 124.625455 
L 880.563025 125.703529 
L 875.834043 126.442606 
L 874.168831 127.972174 
L 872.004425 128.763871 
L 868.808219 130.404324 
L 864.895735 131.254468 
L 861.220588 132.793043 
L 859.567164 133.933628 
L 859.005 135.35074 
L 856.107692 135.83534 
L 848.652632 138.608317 
L 841.5 140.455946 
L 837.15 141.830103 
L 833.297143 142.39308 
L 830.052632 143.835211 
L 826.652695 145.634245 
L 822.166667 146.5632 
" style="fill:none;stroke:#bcbd22;stroke-linecap:square;stroke-width:1.5;"/>
   </g>
   <g id="line2d_23">
    <path clip-path="url(#p3e7b796cf3)" d="M 972 60.48 
L 933.051282 71.068185 
L 900.520661 83.729032 
L 872.822262 91.75546 
L 850.214286 103.220088 
L 823.698358 114.008276 
L 800.489416 124.273973 
L 777.187032 131.112968 
L 755.911765 140.786055 
L 736.698795 150.155857 
L 717.54674 158.545269 
L 697.489655 168.444895 
L 681.806207 175.668539 
L 659.511782 184.251838 
L 643.610549 191.356393 
L 627.14417 198.364167 
L 611.552795 204.858047 
L 596.088195 212.497532 
L 581.139426 220.624405 
L 568.857798 226.615661 
L 557.265424 231.654403 
L 542.417402 236.794438 
L 531.583541 240.693291 
L 518.582209 245.804255 
L 506.66426 249.373853 
L 493.074866 253.472753 
L 481.429072 256.897213 
L 472.305699 260.4 
L 463.804434 264.961614 
L 452.758718 268.80866 
L 442.87813 271.620393 
L 436.245847 275.026024 
L 428.708402 278.397624 
L 421.893362 281.270091 
L 416.268293 284.763476 
L 409.521669 287.455215 
L 403.639257 291.554516 
L 395.654392 294.617302 
L 388.543796 296.746982 
L 382.45332 299.026901 
L 375.86952 301.63157 
L 370.593654 304.2675 
L 364.781393 307.506903 
L 359.045455 308.94883 
L 352.837838 312.057916 
L 346.755988 314.344025 
L 343.211023 316.813284 
L 337.219862 320.151176 
L 331.313052 322.753846 
L 325.930447 324.6096 
L 322.798839 327.051779 
L 319.484907 329.647126 
L 315.747508 331.768152 
L 311.769991 333.75967 
L 307.943563 336.221053 
L 303.957209 338.581463 
L 299.922294 341.119127 
L 296.302905 343.224 
L 293.423923 344.968924 
L 290.056441 346.653311 
L 287.250338 349.304013 
L 284.116383 350.888859 
L 281.326068 352.72186 
L 278.496254 355.018378 
L 275.786561 356.859079 
L 271.451486 358.254736 
L 267.886037 359.164878 
L 262.79455 360.50295 
L 259.759021 361.832375 
L 255.133276 363.778164 
L 252.592105 364.807692 
L 250.326289 366.208806 
L 245.400759 366.815924 
L 243.214644 368.661176 
L 240.451559 370.781962 
L 236.202484 371.3472 
L 233.247529 373.551256 
L 230.215195 375.570647 
L 227.618852 376.972427 
L 225.19102 378.21556 
L 223.927007 380.330488 
L 222.286176 381.62258 
L 219.443099 383.293776 
L 216.510664 384.886061 
L 214.457763 386.630275 
L 212.276978 387.620219 
L 210.576372 389.579525 
L 208.589703 390.691772 
L 205.685872 392.413065 
L 202.633031 393.471571 
L 200.041601 395.057709 
L 198.478499 396.076083 
L 197.783133 397.328936 
L 195.990698 397.924622 
L 193.907193 399.725053 
L 191.958478 401.346069 
L 189.196552 402.500934 
L 187.092784 403.19523 
L 185.582668 404.505699 
L 184.142045 405.743662 
L 182.556818 406.605405 
" style="fill:none;stroke:#17becf;stroke-linecap:square;stroke-width:1.5;"/>
   </g>
   <g id="patch_3">
    <path d="M 135 448.56 
L 135 60.48 
" style="fill:none;stroke:#000000;stroke-linecap:square;stroke-linejoin:miter;stroke-width:0.8;"/>
   </g>
   <g id="patch_4">
    <path d="M 972 448.56 
L 972 60.48 
" style="fill:none;stroke:#000000;stroke-linecap:square;stroke-linejoin:miter;stroke-width:0.8;"/>
   </g>
   <g id="patch_5">
    <path d="M 135 448.56 
L 972 448.56 
" style="fill:none;stroke:#000000;stroke-linecap:square;stroke-linejoin:miter;stroke-width:0.8;"/>
   </g>
   <g id="patch_6">
    <path d="M 135 60.48 
L 972 60.48 
" style="fill:none;stroke:#000000;stroke-linecap:square;stroke-linejoin:miter;stroke-width:0.8;"/>
   </g>
   <g id="legend_1">
    <g id="patch_7">
     <path d="M 147.6 339.08625 
L 256.730625 339.08625 
Q 260.330625 339.08625 260.330625 335.48625 
L 260.330625 73.08 
Q 260.330625 69.48 256.730625 69.48 
L 147.6 69.48 
Q 144 69.48 144 73.08 
L 144 335.48625 
Q 144 339.08625 147.6 339.08625 
z
" style="fill:#ffffff;opacity:0.8;stroke:#cccccc;stroke-linejoin:miter;"/>
    </g>
    <g id="line2d_24">
     <path d="M 151.2 84.057188 
L 187.2 84.057188 
" style="fill:none;stroke:#1f77b4;stroke-linecap:square;stroke-width:1.5;"/>
    </g>
    <g id="line2d_25"/>
    <g id="text_15">
     <!-- 0.001 -->
     <g transform="translate(201.6 90.357188)scale(0.18 -0.18)">
      <use xlink:href="#DejaVuSans-30"/>
      <use x="63.623047" xlink:href="#DejaVuSans-2e"/>
      <use x="95.410156" xlink:href="#DejaVuSans-30"/>
      <use x="159.033203" xlink:href="#DejaVuSans-30"/>
      <use x="222.65625" xlink:href="#DejaVuSans-31"/>
     </g>
    </g>
    <g id="line2d_26">
     <path d="M 151.2 110.477812 
L 187.2 110.477812 
" style="fill:none;stroke:#ff7f0e;stroke-linecap:square;stroke-width:1.5;"/>
    </g>
    <g id="line2d_27"/>
    <g id="text_16">
     <!-- 0.011 -->
     <g transform="translate(201.6 116.777812)scale(0.18 -0.18)">
      <use xlink:href="#DejaVuSans-30"/>
      <use x="63.623047" xlink:href="#DejaVuSans-2e"/>
      <use x="95.410156" xlink:href="#DejaVuSans-30"/>
      <use x="159.033203" xlink:href="#DejaVuSans-31"/>
      <use x="222.65625" xlink:href="#DejaVuSans-31"/>
     </g>
    </g>
    <g id="line2d_28">
     <path d="M 151.2 136.898438 
L 187.2 136.898438 
" style="fill:none;stroke:#2ca02c;stroke-linecap:square;stroke-width:1.5;"/>
    </g>
    <g id="line2d_29"/>
    <g id="text_17">
     <!-- 0.021 -->
     <g transform="translate(201.6 143.198438)scale(0.18 -0.18)">
      <use xlink:href="#DejaVuSans-30"/>
      <use x="63.623047" xlink:href="#DejaVuSans-2e"/>
      <use x="95.410156" xlink:href="#DejaVuSans-30"/>
      <use x="159.033203" xlink:href="#DejaVuSans-32"/>
      <use x="222.65625" xlink:href="#DejaVuSans-31"/>
     </g>
    </g>
    <g id="line2d_30">
     <path d="M 151.2 163.319062 
L 187.2 163.319062 
" style="fill:none;stroke:#d62728;stroke-linecap:square;stroke-width:1.5;"/>
    </g>
    <g id="line2d_31"/>
    <g id="text_18">
     <!-- 0.031 -->
     <g transform="translate(201.6 169.619062)scale(0.18 -0.18)">
      <defs>
       <path d="M 2597 2516 
Q 3050 2419 3304 2112 
Q 3559 1806 3559 1356 
Q 3559 666 3084 287 
Q 2609 -91 1734 -91 
Q 1441 -91 1130 -33 
Q 819 25 488 141 
L 488 750 
Q 750 597 1062 519 
Q 1375 441 1716 441 
Q 2309 441 2620 675 
Q 2931 909 2931 1356 
Q 2931 1769 2642 2001 
Q 2353 2234 1838 2234 
L 1294 2234 
L 1294 2753 
L 1863 2753 
Q 2328 2753 2575 2939 
Q 2822 3125 2822 3475 
Q 2822 3834 2567 4026 
Q 2313 4219 1838 4219 
Q 1578 4219 1281 4162 
Q 984 4106 628 3988 
L 628 4550 
Q 988 4650 1302 4700 
Q 1616 4750 1894 4750 
Q 2613 4750 3031 4423 
Q 3450 4097 3450 3541 
Q 3450 3153 3228 2886 
Q 3006 2619 2597 2516 
z
" id="DejaVuSans-33" transform="scale(0.015625)"/>
      </defs>
      <use xlink:href="#DejaVuSans-30"/>
      <use x="63.623047" xlink:href="#DejaVuSans-2e"/>
      <use x="95.410156" xlink:href="#DejaVuSans-30"/>
      <use x="159.033203" xlink:href="#DejaVuSans-33"/>
      <use x="222.65625" xlink:href="#DejaVuSans-31"/>
     </g>
    </g>
    <g id="line2d_32">
     <path d="M 151.2 189.739688 
L 187.2 189.739688 
" style="fill:none;stroke:#9467bd;stroke-linecap:square;stroke-width:1.5;"/>
    </g>
    <g id="line2d_33"/>
    <g id="text_19">
     <!-- 0.041 -->
     <g transform="translate(201.6 196.039688)scale(0.18 -0.18)">
      <use xlink:href="#DejaVuSans-30"/>
      <use x="63.623047" xlink:href="#DejaVuSans-2e"/>
      <use x="95.410156" xlink:href="#DejaVuSans-30"/>
      <use x="159.033203" xlink:href="#DejaVuSans-34"/>
      <use x="222.65625" xlink:href="#DejaVuSans-31"/>
     </g>
    </g>
    <g id="line2d_34">
     <path d="M 151.2 216.160312 
L 187.2 216.160312 
" style="fill:none;stroke:#8c564b;stroke-linecap:square;stroke-width:1.5;"/>
    </g>
    <g id="line2d_35"/>
    <g id="text_20">
     <!-- 0.051 -->
     <g transform="translate(201.6 222.460312)scale(0.18 -0.18)">
      <defs>
       <path d="M 691 4666 
L 3169 4666 
L 3169 4134 
L 1269 4134 
L 1269 2991 
Q 1406 3038 1543 3061 
Q 1681 3084 1819 3084 
Q 2600 3084 3056 2656 
Q 3513 2228 3513 1497 
Q 3513 744 3044 326 
Q 2575 -91 1722 -91 
Q 1428 -91 1123 -41 
Q 819 9 494 109 
L 494 744 
Q 775 591 1075 516 
Q 1375 441 1709 441 
Q 2250 441 2565 725 
Q 2881 1009 2881 1497 
Q 2881 1984 2565 2268 
Q 2250 2553 1709 2553 
Q 1456 2553 1204 2497 
Q 953 2441 691 2322 
L 691 4666 
z
" id="DejaVuSans-35" transform="scale(0.015625)"/>
      </defs>
      <use xlink:href="#DejaVuSans-30"/>
      <use x="63.623047" xlink:href="#DejaVuSans-2e"/>
      <use x="95.410156" xlink:href="#DejaVuSans-30"/>
      <use x="159.033203" xlink:href="#DejaVuSans-35"/>
      <use x="222.65625" xlink:href="#DejaVuSans-31"/>
     </g>
    </g>
    <g id="line2d_36">
     <path d="M 151.2 242.580937 
L 187.2 242.580937 
" style="fill:none;stroke:#e377c2;stroke-linecap:square;stroke-width:1.5;"/>
    </g>
    <g id="line2d_37"/>
    <g id="text_21">
     <!-- 0.061 -->
     <g transform="translate(201.6 248.880937)scale(0.18 -0.18)">
      <use xlink:href="#DejaVuSans-30"/>
      <use x="63.623047" xlink:href="#DejaVuSans-2e"/>
      <use x="95.410156" xlink:href="#DejaVuSans-30"/>
      <use x="159.033203" xlink:href="#DejaVuSans-36"/>
      <use x="222.65625" xlink:href="#DejaVuSans-31"/>
     </g>
    </g>
    <g id="line2d_38">
     <path d="M 151.2 269.001562 
L 187.2 269.001562 
" style="fill:none;stroke:#7f7f7f;stroke-linecap:square;stroke-width:1.5;"/>
    </g>
    <g id="line2d_39"/>
    <g id="text_22">
     <!-- 0.071 -->
     <g transform="translate(201.6 275.301562)scale(0.18 -0.18)">
      <defs>
       <path d="M 525 4666 
L 3525 4666 
L 3525 4397 
L 1831 0 
L 1172 0 
L 2766 4134 
L 525 4134 
L 525 4666 
z
" id="DejaVuSans-37" transform="scale(0.015625)"/>
      </defs>
      <use xlink:href="#DejaVuSans-30"/>
      <use x="63.623047" xlink:href="#DejaVuSans-2e"/>
      <use x="95.410156" xlink:href="#DejaVuSans-30"/>
      <use x="159.033203" xlink:href="#DejaVuSans-37"/>
      <use x="222.65625" xlink:href="#DejaVuSans-31"/>
     </g>
    </g>
    <g id="line2d_40">
     <path d="M 151.2 295.422188 
L 187.2 295.422188 
" style="fill:none;stroke:#bcbd22;stroke-linecap:square;stroke-width:1.5;"/>
    </g>
    <g id="line2d_41"/>
    <g id="text_23">
     <!-- 0.081 -->
     <g transform="translate(201.6 301.722188)scale(0.18 -0.18)">
      <use xlink:href="#DejaVuSans-30"/>
      <use x="63.623047" xlink:href="#DejaVuSans-2e"/>
      <use x="95.410156" xlink:href="#DejaVuSans-30"/>
      <use x="159.033203" xlink:href="#DejaVuSans-38"/>
      <use x="222.65625" xlink:href="#DejaVuSans-31"/>
     </g>
    </g>
    <g id="line2d_42">
     <path d="M 151.2 321.842812 
L 187.2 321.842812 
" style="fill:none;stroke:#17becf;stroke-linecap:square;stroke-width:1.5;"/>
    </g>
    <g id="line2d_43"/>
    <g id="text_24">
     <!-- 0.091 -->
     <g transform="translate(201.6 328.142812)scale(0.18 -0.18)">
      <defs>
       <path d="M 703 97 
L 703 672 
Q 941 559 1184 500 
Q 1428 441 1663 441 
Q 2288 441 2617 861 
Q 2947 1281 2994 2138 
Q 2813 1869 2534 1725 
Q 2256 1581 1919 1581 
Q 1219 1581 811 2004 
Q 403 2428 403 3163 
Q 403 3881 828 4315 
Q 1253 4750 1959 4750 
Q 2769 4750 3195 4129 
Q 3622 3509 3622 2328 
Q 3622 1225 3098 567 
Q 2575 -91 1691 -91 
Q 1453 -91 1209 -44 
Q 966 3 703 97 
z
M 1959 2075 
Q 2384 2075 2632 2365 
Q 2881 2656 2881 3163 
Q 2881 3666 2632 3958 
Q 2384 4250 1959 4250 
Q 1534 4250 1286 3958 
Q 1038 3666 1038 3163 
Q 1038 2656 1286 2365 
Q 1534 2075 1959 2075 
z
" id="DejaVuSans-39" transform="scale(0.015625)"/>
      </defs>
      <use xlink:href="#DejaVuSans-30"/>
      <use x="63.623047" xlink:href="#DejaVuSans-2e"/>
      <use x="95.410156" xlink:href="#DejaVuSans-30"/>
      <use x="159.033203" xlink:href="#DejaVuSans-39"/>
      <use x="222.65625" xlink:href="#DejaVuSans-31"/>
     </g>
    </g>
   </g>
  </g>
 </g>
 <defs>
  <clipPath id="p3e7b796cf3">
   <rect height="388.08" width="837" x="135" y="60.48"/>
  </clipPath>
 </defs>
</svg>
