<?xml version="1.0" encoding="utf-8" standalone="no"?>
<!DOCTYPE svg PUBLIC "-//W3C//DTD SVG 1.1//EN"
  "http://www.w3.org/Graphics/SVG/1.1/DTD/svg11.dtd">
<svg height="504pt" version="1.1" viewBox="0 0 1080 504" width="1080pt" xmlns="http://www.w3.org/2000/svg" xmlns:xlink="http://www.w3.org/1999/xlink">
 <metadata>
  <rdf:RDF xmlns:cc="http://creativecommons.org/ns#" xmlns:dc="http://purl.org/dc/elements/1.1/" xmlns:rdf="http://www.w3.org/1999/02/22-rdf-syntax-ns#">
   <cc:Work>
    <dc:type rdf:resource="http://purl.org/dc/dcmitype/StillImage"/>
    <dc:date>2022-01-07T13:24:53.162251</dc:date>
    <dc:format>image/svg+xml</dc:format>
    <dc:creator>
     <cc:Agent>
      <dc:title>Matplotlib v3.4.3, https://matplotlib.org/</dc:title>
     </cc:Agent>
    </dc:creator>
   </cc:Work>
  </rdf:RDF>
 </metadata>
 <defs>
  <style type="text/css">*{stroke-linecap:butt;stroke-linejoin:round;}</style>
 </defs>
 <g id="figure_1">
  <g id="patch_1">
   <path d="M 0 504 
L 1080 504 
L 1080 0 
L 0 0 
z
" style="fill:#ffffff;"/>
  </g>
  <g id="axes_1">
   <g id="patch_2">
    <path d="M 135 448.56 
L 972 448.56 
L 972 60.48 
L 135 60.48 
z
" style="fill:#ffffff;"/>
   </g>
   <g id="matplotlib.axis_1">
    <g id="xtick_1">
     <g id="line2d_1">
      <defs>
       <path d="M 0 0 
L 0 3.5 
" id="m5738b00627" style="stroke:#000000;stroke-width:0.8;"/>
      </defs>
      <g>
       <use style="stroke:#000000;stroke-width:0.8;" x="135" xlink:href="#m5738b00627" y="448.56"/>
      </g>
     </g>
     <g id="text_1">
      <!-- 0.0 -->
      <g transform="translate(120.687187 469.237188)scale(0.18 -0.18)">
       <defs>
        <path d="M 2034 4250 
Q 1547 4250 1301 3770 
Q 1056 3291 1056 2328 
Q 1056 1369 1301 889 
Q 1547 409 2034 409 
Q 2525 409 2770 889 
Q 3016 1369 3016 2328 
Q 3016 3291 2770 3770 
Q 2525 4250 2034 4250 
z
M 2034 4750 
Q 2819 4750 3233 4129 
Q 3647 3509 3647 2328 
Q 3647 1150 3233 529 
Q 2819 -91 2034 -91 
Q 1250 -91 836 529 
Q 422 1150 422 2328 
Q 422 3509 836 4129 
Q 1250 4750 2034 4750 
z
" id="DejaVuSans-30" transform="scale(0.015625)"/>
        <path d="M 684 794 
L 1344 794 
L 1344 0 
L 684 0 
L 684 794 
z
" id="DejaVuSans-2e" transform="scale(0.015625)"/>
       </defs>
       <use xlink:href="#DejaVuSans-30"/>
       <use x="63.623047" xlink:href="#DejaVuSans-2e"/>
       <use x="95.410156" xlink:href="#DejaVuSans-30"/>
      </g>
     </g>
    </g>
    <g id="xtick_2">
     <g id="line2d_2">
      <g>
       <use style="stroke:#000000;stroke-width:0.8;" x="302.4" xlink:href="#m5738b00627" y="448.56"/>
      </g>
     </g>
     <g id="text_2">
      <!-- 0.2 -->
      <g transform="translate(288.087187 469.237188)scale(0.18 -0.18)">
       <defs>
        <path d="M 1228 531 
L 3431 531 
L 3431 0 
L 469 0 
L 469 531 
Q 828 903 1448 1529 
Q 2069 2156 2228 2338 
Q 2531 2678 2651 2914 
Q 2772 3150 2772 3378 
Q 2772 3750 2511 3984 
Q 2250 4219 1831 4219 
Q 1534 4219 1204 4116 
Q 875 4013 500 3803 
L 500 4441 
Q 881 4594 1212 4672 
Q 1544 4750 1819 4750 
Q 2544 4750 2975 4387 
Q 3406 4025 3406 3419 
Q 3406 3131 3298 2873 
Q 3191 2616 2906 2266 
Q 2828 2175 2409 1742 
Q 1991 1309 1228 531 
z
" id="DejaVuSans-32" transform="scale(0.015625)"/>
       </defs>
       <use xlink:href="#DejaVuSans-30"/>
       <use x="63.623047" xlink:href="#DejaVuSans-2e"/>
       <use x="95.410156" xlink:href="#DejaVuSans-32"/>
      </g>
     </g>
    </g>
    <g id="xtick_3">
     <g id="line2d_3">
      <g>
       <use style="stroke:#000000;stroke-width:0.8;" x="469.8" xlink:href="#m5738b00627" y="448.56"/>
      </g>
     </g>
     <g id="text_3">
      <!-- 0.4 -->
      <g transform="translate(455.487188 469.237188)scale(0.18 -0.18)">
       <defs>
        <path d="M 2419 4116 
L 825 1625 
L 2419 1625 
L 2419 4116 
z
M 2253 4666 
L 3047 4666 
L 3047 1625 
L 3713 1625 
L 3713 1100 
L 3047 1100 
L 3047 0 
L 2419 0 
L 2419 1100 
L 313 1100 
L 313 1709 
L 2253 4666 
z
" id="DejaVuSans-34" transform="scale(0.015625)"/>
       </defs>
       <use xlink:href="#DejaVuSans-30"/>
       <use x="63.623047" xlink:href="#DejaVuSans-2e"/>
       <use x="95.410156" xlink:href="#DejaVuSans-34"/>
      </g>
     </g>
    </g>
    <g id="xtick_4">
     <g id="line2d_4">
      <g>
       <use style="stroke:#000000;stroke-width:0.8;" x="637.2" xlink:href="#m5738b00627" y="448.56"/>
      </g>
     </g>
     <g id="text_4">
      <!-- 0.6 -->
      <g transform="translate(622.887188 469.237188)scale(0.18 -0.18)">
       <defs>
        <path d="M 2113 2584 
Q 1688 2584 1439 2293 
Q 1191 2003 1191 1497 
Q 1191 994 1439 701 
Q 1688 409 2113 409 
Q 2538 409 2786 701 
Q 3034 994 3034 1497 
Q 3034 2003 2786 2293 
Q 2538 2584 2113 2584 
z
M 3366 4563 
L 3366 3988 
Q 3128 4100 2886 4159 
Q 2644 4219 2406 4219 
Q 1781 4219 1451 3797 
Q 1122 3375 1075 2522 
Q 1259 2794 1537 2939 
Q 1816 3084 2150 3084 
Q 2853 3084 3261 2657 
Q 3669 2231 3669 1497 
Q 3669 778 3244 343 
Q 2819 -91 2113 -91 
Q 1303 -91 875 529 
Q 447 1150 447 2328 
Q 447 3434 972 4092 
Q 1497 4750 2381 4750 
Q 2619 4750 2861 4703 
Q 3103 4656 3366 4563 
z
" id="DejaVuSans-36" transform="scale(0.015625)"/>
       </defs>
       <use xlink:href="#DejaVuSans-30"/>
       <use x="63.623047" xlink:href="#DejaVuSans-2e"/>
       <use x="95.410156" xlink:href="#DejaVuSans-36"/>
      </g>
     </g>
    </g>
    <g id="xtick_5">
     <g id="line2d_5">
      <g>
       <use style="stroke:#000000;stroke-width:0.8;" x="804.6" xlink:href="#m5738b00627" y="448.56"/>
      </g>
     </g>
     <g id="text_5">
      <!-- 0.8 -->
      <g transform="translate(790.287188 469.237188)scale(0.18 -0.18)">
       <defs>
        <path d="M 2034 2216 
Q 1584 2216 1326 1975 
Q 1069 1734 1069 1313 
Q 1069 891 1326 650 
Q 1584 409 2034 409 
Q 2484 409 2743 651 
Q 3003 894 3003 1313 
Q 3003 1734 2745 1975 
Q 2488 2216 2034 2216 
z
M 1403 2484 
Q 997 2584 770 2862 
Q 544 3141 544 3541 
Q 544 4100 942 4425 
Q 1341 4750 2034 4750 
Q 2731 4750 3128 4425 
Q 3525 4100 3525 3541 
Q 3525 3141 3298 2862 
Q 3072 2584 2669 2484 
Q 3125 2378 3379 2068 
Q 3634 1759 3634 1313 
Q 3634 634 3220 271 
Q 2806 -91 2034 -91 
Q 1263 -91 848 271 
Q 434 634 434 1313 
Q 434 1759 690 2068 
Q 947 2378 1403 2484 
z
M 1172 3481 
Q 1172 3119 1398 2916 
Q 1625 2713 2034 2713 
Q 2441 2713 2670 2916 
Q 2900 3119 2900 3481 
Q 2900 3844 2670 4047 
Q 2441 4250 2034 4250 
Q 1625 4250 1398 4047 
Q 1172 3844 1172 3481 
z
" id="DejaVuSans-38" transform="scale(0.015625)"/>
       </defs>
       <use xlink:href="#DejaVuSans-30"/>
       <use x="63.623047" xlink:href="#DejaVuSans-2e"/>
       <use x="95.410156" xlink:href="#DejaVuSans-38"/>
      </g>
     </g>
    </g>
    <g id="xtick_6">
     <g id="line2d_6">
      <g>
       <use style="stroke:#000000;stroke-width:0.8;" x="972" xlink:href="#m5738b00627" y="448.56"/>
      </g>
     </g>
     <g id="text_6">
      <!-- 1.0 -->
      <g transform="translate(957.687188 469.237188)scale(0.18 -0.18)">
       <defs>
        <path d="M 794 531 
L 1825 531 
L 1825 4091 
L 703 3866 
L 703 4441 
L 1819 4666 
L 2450 4666 
L 2450 531 
L 3481 531 
L 3481 0 
L 794 0 
L 794 531 
z
" id="DejaVuSans-31" transform="scale(0.015625)"/>
       </defs>
       <use xlink:href="#DejaVuSans-31"/>
       <use x="63.623047" xlink:href="#DejaVuSans-2e"/>
       <use x="95.410156" xlink:href="#DejaVuSans-30"/>
      </g>
     </g>
    </g>
    <g id="text_7">
     <!-- $FPR_{Fair}$ -->
     <g transform="translate(518.08 493.697187)scale(0.22 -0.22)">
      <defs>
       <path d="M 1081 4666 
L 3756 4666 
L 3653 4134 
L 1606 4134 
L 1338 2759 
L 3188 2759 
L 3084 2228 
L 1234 2228 
L 800 0 
L 172 0 
L 1081 4666 
z
" id="DejaVuSans-Oblique-46" transform="scale(0.015625)"/>
       <path d="M 1081 4666 
L 2541 4666 
Q 3178 4666 3512 4369 
Q 3847 4072 3847 3500 
Q 3847 2731 3353 2303 
Q 2859 1875 1966 1875 
L 1172 1875 
L 806 0 
L 172 0 
L 1081 4666 
z
M 1613 4147 
L 1275 2394 
L 2069 2394 
Q 2606 2394 2893 2669 
Q 3181 2944 3181 3456 
Q 3181 3784 2986 3965 
Q 2791 4147 2438 4147 
L 1613 4147 
z
" id="DejaVuSans-Oblique-50" transform="scale(0.015625)"/>
       <path d="M 1613 4147 
L 1294 2491 
L 2106 2491 
Q 2584 2491 2879 2755 
Q 3175 3019 3175 3444 
Q 3175 3784 2976 3965 
Q 2778 4147 2406 4147 
L 1613 4147 
z
M 2772 2241 
Q 2972 2194 3105 2009 
Q 3238 1825 3413 1275 
L 3809 0 
L 3144 0 
L 2778 1197 
Q 2638 1659 2453 1815 
Q 2269 1972 1888 1972 
L 1191 1972 
L 806 0 
L 172 0 
L 1081 4666 
L 2503 4666 
Q 3150 4666 3495 4373 
Q 3841 4081 3841 3531 
Q 3841 3044 3547 2687 
Q 3253 2331 2772 2241 
z
" id="DejaVuSans-Oblique-52" transform="scale(0.015625)"/>
       <path d="M 3438 1997 
L 3047 0 
L 2472 0 
L 2578 531 
Q 2325 219 2001 64 
Q 1678 -91 1281 -91 
Q 834 -91 548 182 
Q 263 456 263 884 
Q 263 1497 752 1853 
Q 1241 2209 2100 2209 
L 2900 2209 
L 2931 2363 
Q 2938 2388 2941 2417 
Q 2944 2447 2944 2509 
Q 2944 2788 2717 2942 
Q 2491 3097 2081 3097 
Q 1800 3097 1504 3025 
Q 1209 2953 897 2809 
L 997 3341 
Q 1322 3463 1633 3523 
Q 1944 3584 2234 3584 
Q 2853 3584 3176 3315 
Q 3500 3047 3500 2534 
Q 3500 2431 3484 2292 
Q 3469 2153 3438 1997 
z
M 2816 1759 
L 2241 1759 
Q 1534 1759 1195 1570 
Q 856 1381 856 984 
Q 856 709 1029 553 
Q 1203 397 1509 397 
Q 1978 397 2328 733 
Q 2678 1069 2791 1631 
L 2816 1759 
z
" id="DejaVuSans-Oblique-61" transform="scale(0.015625)"/>
       <path d="M 1172 4863 
L 1747 4863 
L 1606 4134 
L 1031 4134 
L 1172 4863 
z
M 909 3500 
L 1484 3500 
L 800 0 
L 225 0 
L 909 3500 
z
" id="DejaVuSans-Oblique-69" transform="scale(0.015625)"/>
       <path d="M 2853 2969 
Q 2766 3016 2653 3041 
Q 2541 3066 2413 3066 
Q 1953 3066 1609 2717 
Q 1266 2369 1153 1784 
L 800 0 
L 225 0 
L 909 3500 
L 1484 3500 
L 1375 2956 
Q 1603 3259 1920 3421 
Q 2238 3584 2597 3584 
Q 2691 3584 2781 3573 
Q 2872 3563 2963 3538 
L 2853 2969 
z
" id="DejaVuSans-Oblique-72" transform="scale(0.015625)"/>
      </defs>
      <use transform="translate(0 0.09375)" xlink:href="#DejaVuSans-Oblique-46"/>
      <use transform="translate(57.519531 0.09375)" xlink:href="#DejaVuSans-Oblique-50"/>
      <use transform="translate(117.822266 0.09375)" xlink:href="#DejaVuSans-Oblique-52"/>
      <use transform="translate(187.304688 -16.3125)scale(0.7)" xlink:href="#DejaVuSans-Oblique-46"/>
      <use transform="translate(227.568359 -16.3125)scale(0.7)" xlink:href="#DejaVuSans-Oblique-61"/>
      <use transform="translate(270.463867 -16.3125)scale(0.7)" xlink:href="#DejaVuSans-Oblique-69"/>
      <use transform="translate(289.912109 -16.3125)scale(0.7)" xlink:href="#DejaVuSans-Oblique-72"/>
     </g>
    </g>
   </g>
   <g id="matplotlib.axis_2">
    <g id="ytick_1">
     <g id="line2d_7">
      <defs>
       <path d="M 0 0 
L -3.5 0 
" id="mc82e21b4d8" style="stroke:#000000;stroke-width:0.8;"/>
      </defs>
      <g>
       <use style="stroke:#000000;stroke-width:0.8;" x="135" xlink:href="#mc82e21b4d8" y="448.56"/>
      </g>
     </g>
     <g id="text_8">
      <!-- 0.0 -->
      <g transform="translate(99.374375 455.398594)scale(0.18 -0.18)">
       <use xlink:href="#DejaVuSans-30"/>
       <use x="63.623047" xlink:href="#DejaVuSans-2e"/>
       <use x="95.410156" xlink:href="#DejaVuSans-30"/>
      </g>
     </g>
    </g>
    <g id="ytick_2">
     <g id="line2d_8">
      <g>
       <use style="stroke:#000000;stroke-width:0.8;" x="135" xlink:href="#mc82e21b4d8" y="370.944"/>
      </g>
     </g>
     <g id="text_9">
      <!-- 0.2 -->
      <g transform="translate(99.374375 377.782594)scale(0.18 -0.18)">
       <use xlink:href="#DejaVuSans-30"/>
       <use x="63.623047" xlink:href="#DejaVuSans-2e"/>
       <use x="95.410156" xlink:href="#DejaVuSans-32"/>
      </g>
     </g>
    </g>
    <g id="ytick_3">
     <g id="line2d_9">
      <g>
       <use style="stroke:#000000;stroke-width:0.8;" x="135" xlink:href="#mc82e21b4d8" y="293.328"/>
      </g>
     </g>
     <g id="text_10">
      <!-- 0.4 -->
      <g transform="translate(99.374375 300.166594)scale(0.18 -0.18)">
       <use xlink:href="#DejaVuSans-30"/>
       <use x="63.623047" xlink:href="#DejaVuSans-2e"/>
       <use x="95.410156" xlink:href="#DejaVuSans-34"/>
      </g>
     </g>
    </g>
    <g id="ytick_4">
     <g id="line2d_10">
      <g>
       <use style="stroke:#000000;stroke-width:0.8;" x="135" xlink:href="#mc82e21b4d8" y="215.712"/>
      </g>
     </g>
     <g id="text_11">
      <!-- 0.6 -->
      <g transform="translate(99.374375 222.550594)scale(0.18 -0.18)">
       <use xlink:href="#DejaVuSans-30"/>
       <use x="63.623047" xlink:href="#DejaVuSans-2e"/>
       <use x="95.410156" xlink:href="#DejaVuSans-36"/>
      </g>
     </g>
    </g>
    <g id="ytick_5">
     <g id="line2d_11">
      <g>
       <use style="stroke:#000000;stroke-width:0.8;" x="135" xlink:href="#mc82e21b4d8" y="138.096"/>
      </g>
     </g>
     <g id="text_12">
      <!-- 0.8 -->
      <g transform="translate(99.374375 144.934594)scale(0.18 -0.18)">
       <use xlink:href="#DejaVuSans-30"/>
       <use x="63.623047" xlink:href="#DejaVuSans-2e"/>
       <use x="95.410156" xlink:href="#DejaVuSans-38"/>
      </g>
     </g>
    </g>
    <g id="ytick_6">
     <g id="line2d_12">
      <g>
       <use style="stroke:#000000;stroke-width:0.8;" x="135" xlink:href="#mc82e21b4d8" y="60.48"/>
      </g>
     </g>
     <g id="text_13">
      <!-- 1.0 -->
      <g transform="translate(99.374375 67.318594)scale(0.18 -0.18)">
       <use xlink:href="#DejaVuSans-31"/>
       <use x="63.623047" xlink:href="#DejaVuSans-2e"/>
       <use x="95.410156" xlink:href="#DejaVuSans-30"/>
      </g>
     </g>
    </g>
    <g id="text_14">
     <!-- $TPR_{Fair}$ -->
     <g transform="translate(90.799062 290.27)rotate(-90)scale(0.22 -0.22)">
      <defs>
       <path d="M 378 4666 
L 4325 4666 
L 4225 4134 
L 2559 4134 
L 1759 0 
L 1125 0 
L 1925 4134 
L 275 4134 
L 378 4666 
z
" id="DejaVuSans-Oblique-54" transform="scale(0.015625)"/>
      </defs>
      <use transform="translate(0 0.09375)" xlink:href="#DejaVuSans-Oblique-54"/>
      <use transform="translate(61.083984 0.09375)" xlink:href="#DejaVuSans-Oblique-50"/>
      <use transform="translate(121.386719 0.09375)" xlink:href="#DejaVuSans-Oblique-52"/>
      <use transform="translate(190.869141 -16.3125)scale(0.7)" xlink:href="#DejaVuSans-Oblique-46"/>
      <use transform="translate(231.132812 -16.3125)scale(0.7)" xlink:href="#DejaVuSans-Oblique-61"/>
      <use transform="translate(274.02832 -16.3125)scale(0.7)" xlink:href="#DejaVuSans-Oblique-69"/>
      <use transform="translate(293.476562 -16.3125)scale(0.7)" xlink:href="#DejaVuSans-Oblique-72"/>
     </g>
    </g>
   </g>
   <g id="line2d_13">
    <path clip-path="url(#pbae98587c4)" d="M 135 448.56 
L 972 60.48 
" style="fill:none;stroke:#ff0000;stroke-dasharray:5.55,2.4;stroke-dashoffset:0;stroke-width:1.5;"/>
   </g>
   <g id="line2d_14">
    <path clip-path="url(#pbae98587c4)" d="M 972 60.48 
L 879.437236 67.311085 
L 825.804165 73.820674 
L 783.979972 80.153407 
L 748.686739 86.003321 
L 719.216726 91.137281 
L 696.212483 95.746343 
L 677.044876 100.763894 
L 660.218013 105.77114 
L 645.963799 110.129295 
L 633.282931 114.218389 
L 621.809831 117.711668 
L 610.951938 121.225796 
L 599.971716 124.979531 
L 588.572462 128.825529 
L 578.869275 132.429219 
L 569.911163 136.249182 
L 562.132626 139.045205 
L 553.334401 142.354602 
L 545.143728 145.966702 
L 537.977003 149.815933 
L 531.755161 153.766313 
L 525.012652 156.237109 
L 518.81928 158.417417 
L 512.766153 161.090812 
L 507.273174 163.200063 
L 502.314909 165.467744 
L 496.886167 167.801139 
L 491.944261 170.178583 
L 487.347193 172.405811 
L 481.742772 174.781661 
L 476.122542 177.191145 
L 470.841369 179.556244 
L 466.24874 181.601461 
L 461.616756 183.942698 
L 456.692202 186.001277 
L 451.822851 188.277483 
L 447.195875 190.522855 
L 443.261106 192.843058 
L 439.426744 194.837901 
L 435.439731 196.269069 
L 431.734583 197.829977 
L 428.087092 199.336976 
L 424.190342 201.008928 
L 420.413392 202.516477 
L 416.920695 203.932201 
L 413.568312 205.210824 
L 409.887062 206.850707 
L 406.850111 208.547691 
L 403.924929 210.462074 
L 400.887128 212.150706 
L 398.265194 214.084177 
L 395.02702 215.960065 
L 391.953977 217.561866 
L 389.246957 219.108268 
L 386.767432 220.360508 
L 384.276029 221.722856 
L 381.551954 222.945882 
L 378.488648 224.29689 
L 376.251482 225.674326 
L 373.906215 227.254463 
L 371.368268 228.673287 
L 369.221311 230.319123 
L 366.703977 232.004176 
L 364.277228 233.819836 
L 362.080934 235.562906 
L 359.7779 236.984194 
L 357.525241 238.952691 
L 355.250447 240.221996 
L 353.205382 241.619269 
L 351.245032 242.772998 
L 349.216595 244.310522 
L 347.487611 245.787528 
L 345.619359 247.052918 
L 343.870064 248.387744 
L 341.673394 249.526432 
L 339.909204 250.643916 
L 338.175475 251.831529 
L 336.002276 253.062044 
L 334.022085 254.191131 
L 331.928787 255.220189 
L 329.930592 256.425347 
L 327.906709 257.494738 
L 325.972226 258.833287 
L 324.093555 260.248704 
L 322.335852 261.578875 
L 320.591531 262.879351 
L 318.676025 264.125376 
L 317.119568 265.479542 
L 315.513207 266.71259 
L 313.760022 267.860691 
L 312.148661 269.037604 
L 310.379684 269.915537 
L 308.669305 270.698774 
L 307.273435 271.446088 
L 305.249959 272.348207 
L 303.511812 273.221473 
L 301.760174 273.976963 
L 300.243478 274.844953 
L 298.345515 275.839494 
L 296.488604 276.988518 
" style="fill:none;stroke:#1f77b4;stroke-linecap:square;stroke-width:1.5;"/>
   </g>
   <g id="line2d_15">
    <path clip-path="url(#pbae98587c4)" d="M 972 60.48 
L 613.962383 126.71345 
L 499.626233 171.675598 
L 435.650898 207.078383 
L 394.358647 234.056545 
L 364.276317 254.47591 
L 344.043936 270.126764 
L 328.954899 284.767857 
L 316.997798 297.39012 
L 307.199349 307.512172 
L 299.314616 316.046406 
L 292.193767 322.43099 
L 285.530973 328.225116 
L 279.452161 334.288618 
L 273.43001 339.691446 
L 268.364567 344.898977 
L 263.655923 349.986799 
L 259.804622 353.690719 
L 255.491517 357.433953 
L 251.848824 361.371004 
L 248.644479 365.194667 
L 245.976578 368.925206 
L 243.210223 371.226681 
L 240.561373 373.175846 
L 238.268775 375.517814 
L 236.084925 377.313151 
L 234.058369 379.047054 
L 232.00444 380.749348 
L 230.176357 382.472885 
L 228.339915 384.065529 
L 226.331741 385.64653 
L 224.229584 387.280695 
L 222.423968 388.888153 
L 220.847769 390.278694 
L 219.07012 391.890511 
L 217.403897 393.320064 
L 215.710498 394.803711 
L 214.316484 396.246106 
L 212.983758 397.603589 
L 211.698379 399.09194 
L 210.45818 400.053622 
L 209.16892 400.813063 
L 207.988062 401.4625 
L 206.972415 402.130249 
L 205.822433 402.877503 
L 204.660125 403.497411 
L 203.412216 404.07245 
L 202.136274 404.690087 
L 201.015684 405.393006 
L 200.08391 406.065683 
L 199.149149 406.690311 
L 198.274536 407.326183 
L 197.173846 408.016571 
L 196.26865 408.669942 
L 195.367162 409.186728 
L 194.422219 409.65747 
L 193.687088 410.17213 
L 192.976992 410.573144 
L 192.077914 410.986393 
L 191.519537 411.481104 
L 190.766805 411.981337 
L 189.917297 412.494615 
L 189.130285 413.037596 
L 188.318804 413.588779 
L 187.694321 414.124826 
L 186.941704 414.671693 
L 186.301398 415.119363 
L 185.654041 415.780448 
L 184.974411 416.241193 
L 184.374593 416.755674 
L 183.899823 417.189887 
L 183.343016 417.616813 
L 182.807906 417.969996 
L 182.104901 418.289719 
L 181.609122 418.585524 
L 181.063272 418.832007 
L 180.526431 419.215239 
L 180.094283 419.483489 
L 179.641207 419.835016 
L 179.149847 420.084528 
L 178.662357 420.397557 
L 178.145938 420.713126 
L 177.690504 420.970026 
L 177.031111 421.289717 
L 176.537752 421.59034 
L 176.086742 421.837255 
L 175.5957 422.110816 
L 175.15794 422.35997 
L 174.777875 422.688 
L 174.330238 422.940503 
L 173.814099 423.235399 
L 173.383136 423.455569 
L 172.889851 423.618001 
L 172.492147 423.816352 
L 172.130186 423.982178 
L 171.695067 424.305 
L 171.277797 424.505525 
L 170.864601 424.766187 
L 170.405251 424.93449 
L 170.043246 425.194501 
L 169.727992 425.496941 
" style="fill:none;stroke:#ff7f0e;stroke-linecap:square;stroke-width:1.5;"/>
   </g>
   <g id="line2d_16">
    <path clip-path="url(#pbae98587c4)" d="M 972 60.48 
L 903.338549 65.649182 
L 862.13043 70.596636 
L 829.168182 75.462601 
L 800.213452 80.213697 
L 776.134348 84.4186 
L 756.9853 88.076022 
L 740.847143 92.201432 
L 726.550692 96.282837 
L 714.487054 99.761076 
L 703.480286 103.017935 
L 693.643087 105.783733 
L 684.046351 108.59685 
L 674.216793 111.551378 
L 664.006003 114.603178 
L 655.251192 117.544648 
L 647.188191 120.656815 
L 640.13229 122.978732 
L 632.121173 125.761459 
L 624.66002 128.842683 
L 617.924874 132.079612 
L 612.22032 135.442201 
L 605.944022 137.581483 
L 600.072943 139.476191 
L 594.369141 141.818313 
L 589.150882 143.648669 
L 584.457397 145.654249 
L 579.477413 147.748107 
L 574.750931 149.893029 
L 570.291705 151.911594 
L 564.989208 154.021854 
L 559.626926 156.172192 
L 554.600437 158.286466 
L 550.132064 160.146408 
L 545.515566 162.206375 
L 540.637427 164.025708 
L 535.70944 166.09539 
L 531.086019 168.137262 
L 526.984945 170.250777 
L 522.993476 171.985843 
L 518.943622 173.283812 
L 515.103289 174.717509 
L 511.384669 176.117471 
L 507.454768 177.69198 
L 503.50386 179.069379 
L 499.737492 180.37523 
L 496.194326 181.556391 
L 492.342608 183.093875 
L 489.052074 184.688345 
L 485.975409 186.496613 
L 482.794412 188.089016 
L 479.887313 189.907584 
L 476.369539 191.651792 
L 472.996497 193.148034 
L 469.984174 194.576029 
L 467.250761 195.734874 
L 464.489308 197.014912 
L 461.456133 198.184412 
L 458.19173 199.476764 
L 455.704692 200.799221 
L 453.076419 202.295577 
L 450.175636 203.626612 
L 447.750756 205.159136 
L 444.861522 206.783915 
L 442.179537 208.509043 
L 439.579991 210.202794 
L 436.950238 211.58627 
L 434.32897 213.50589 
L 431.642339 214.738865 
L 429.29573 216.126832 
L 427.08465 217.306849 
L 424.658583 218.859125 
L 422.561121 220.312171 
L 420.281599 221.585583 
L 418.196182 222.929511 
L 415.658931 224.063615 
L 413.493815 225.162323 
L 411.48 226.358577 
L 409.042448 227.578989 
L 406.683246 228.71213 
L 404.255009 229.744411 
L 401.870228 230.958098 
L 399.501051 232.016964 
L 397.125553 233.33439 
L 394.937462 234.742493 
L 392.816103 236.087149 
L 390.704973 237.421673 
L 388.413918 238.686185 
L 386.468903 240.050427 
L 384.46391 241.273096 
L 382.261343 242.460564 
L 380.254336 243.622174 
L 378.094505 244.50572 
L 375.964861 245.295834 
L 374.16552 246.044751 
L 371.756537 246.967068 
L 369.598736 247.850455 
L 367.355804 248.634784 
L 365.407074 249.509702 
L 363.096634 250.561346 
L 360.826041 251.741604 
" style="fill:none;stroke:#2ca02c;stroke-linecap:square;stroke-width:1.5;"/>
   </g>
   <g id="line2d_17">
    <path clip-path="url(#pbae98587c4)" d="M 972 60.48 
L 970.362035 60.48 
L 969.797127 60.48 
L 969.225721 60.544562 
L 968.64753 60.54494 
L 968.338008 60.610447 
L 967.651457 60.74266 
L 967.245939 60.744 
L 966.641975 60.745672 
L 966.592524 60.747319 
L 966.462744 60.749173 
L 966.319448 60.751385 
L 966.076433 60.753055 
L 965.928291 60.893144 
L 965.678096 60.966316 
L 965.52809 61.040809 
L 965.163599 61.258851 
L 964.801327 61.336531 
L 964.737077 61.487253 
L 964.682653 61.494967 
L 964.517376 61.722207 
L 964.456588 61.733774 
L 964.401611 61.740241 
L 964.228011 61.89635 
L 964.173506 61.978957 
L 964.012941 62.058478 
L 963.744477 62.139429 
L 963.567869 62.14493 
L 963.505942 62.151449 
L 963.44425 62.233948 
L 963.37932 62.393232 
L 963.314582 62.401949 
L 963.127616 62.411515 
L 963.064883 62.498824 
L 962.991194 62.586163 
L 962.808672 62.678309 
L 962.600853 62.691282 
L 962.307791 62.783853 
L 962.228164 62.880495 
L 962.034267 62.900457 
L 961.855286 62.995784 
L 961.783676 63.084018 
L 961.703424 63.172167 
L 961.631194 63.259006 
L 961.551662 63.269581 
L 961.472496 63.439932 
L 961.257754 63.449369 
L 961.034371 63.538351 
L 960.928571 63.548154 
L 960.84175 63.638501 
L 960.635617 63.72788 
L 960.271338 63.819041 
L 960.152485 63.912854 
L 959.920707 64.089656 
L 959.415591 64.181608 
L 959.305638 64.276435 
L 959.069601 64.45467 
L 958.825519 64.46335 
L 958.727733 64.555222 
L 958.637568 64.649244 
L 958.553068 64.660242 
L 958.437166 64.674071 
L 958.190518 64.856842 
L 957.932773 64.869461 
L 957.6759 65.05072 
L 957.538119 65.066007 
L 957.410782 65.075228 
L 957.167089 65.182944 
L 957.031752 65.199892 
L 956.921691 65.227694 
L 956.815624 65.33431 
L 956.673767 65.353151 
L 956.56417 65.540755 
L 956.452995 65.636619 
L 956.343195 65.643716 
L 956.05254 65.650834 
L 955.913221 65.665128 
L 955.796832 65.857552 
L 955.698013 65.963641 
L 955.536062 66.152631 
L 955.397516 66.169793 
L 955.097738 66.361371 
L 954.980887 66.376494 
L 954.823723 66.39863 
L 954.706612 66.412549 
L 954.566132 66.516597 
L 954.408575 66.799924 
L 954.263191 66.914297 
L 954.123024 66.937238 
L 953.804348 67.038838 
L 953.468635 67.151862 
L 953.326772 67.345388 
L 953.170269 67.356897 
L 952.799332 67.466558 
L 952.661507 67.488428 
L 952.305882 67.60934 
L 952.126027 67.631814 
L 951.75 67.930382 
L 951.604317 67.944894 
L 951.442105 67.985097 
L 951.055241 68.01646 
" style="fill:none;stroke:#d62728;stroke-linecap:square;stroke-width:1.5;"/>
   </g>
   <g id="line2d_18">
    <path clip-path="url(#pbae98587c4)" d="M 972 60.48 
L 854.106434 69.054489 
L 791.26608 75.654816 
L 743.352827 82.981228 
L 704.4893 89.728316 
L 672.422993 96.620273 
L 649.783695 102.449281 
L 630.03581 109.564968 
L 613.574234 116.155499 
L 600.94673 121.116537 
L 589.873852 126.06711 
L 580.167823 130.141622 
L 570.60024 133.036721 
L 560.924438 136.781088 
L 551.061715 140.837576 
L 542.879079 144.888072 
L 534.989491 149.28325 
L 528.399816 152.601343 
L 521.211548 156.250311 
L 513.995525 160.816861 
L 507.985651 165.286761 
L 503.142909 169.794269 
L 498.199057 172.400341 
L 493.114894 174.91567 
L 488.443775 177.930846 
L 483.910396 180.296357 
L 480.11954 183.055156 
L 476.261006 185.860977 
L 472.723587 188.780729 
L 469.178182 191.406168 
L 465.158872 193.849185 
L 461.183585 196.279431 
L 457.209253 198.597761 
L 453.884802 201.080095 
L 449.908026 204.085398 
L 446.067861 206.686388 
L 442.032984 208.526417 
L 438.707979 210.597665 
L 435.077514 213.014471 
L 431.805602 214.985288 
L 428.709023 216.468819 
L 425.725238 217.81398 
L 422.789294 219.140232 
L 420.091976 220.473782 
L 417.204266 221.748858 
L 414.519128 222.948971 
L 411.95631 224.112291 
L 409.162868 225.462365 
L 406.645082 226.737468 
L 404.24975 228.267152 
L 401.866867 229.692299 
L 399.511731 231.454267 
L 397.033574 233.244741 
L 394.409276 234.746833 
L 391.9764 236.342125 
L 389.916938 237.681351 
L 387.897334 239.139467 
L 385.728138 240.260991 
L 383.340319 241.472569 
L 381.409287 242.687231 
L 379.374825 244.038065 
L 377.210602 245.379088 
L 375.228546 246.77224 
L 373.097968 248.264617 
L 371.091958 249.823803 
L 368.933936 251.603482 
L 367.105351 252.756774 
L 365.043066 254.374688 
L 363.062198 255.305783 
L 361.423149 256.271591 
L 359.812645 257.029658 
L 357.851714 257.631393 
L 356.096089 258.551719 
L 354.352576 259.21752 
L 352.638538 259.913996 
L 350.775789 260.727653 
L 348.893476 261.556235 
L 347.370828 262.484773 
L 345.415545 263.623052 
L 343.323705 264.472898 
L 341.325639 265.508306 
L 339.423882 266.339755 
L 337.764375 267.258036 
L 335.818343 268.243088 
L 334.318003 269.337941 
L 332.737166 270.602468 
L 330.894273 271.402155 
L 329.103052 272.187491 
L 327.477288 273.053084 
L 325.701438 273.812696 
L 323.843827 274.794907 
L 322.195294 275.56688 
L 320.291252 276.310465 
L 318.376906 277.181186 
L 316.747692 277.962769 
L 314.724115 278.863825 
L 312.87057 279.719108 
L 310.940691 280.553376 
L 309.262467 281.435814 
L 307.193554 282.600401 
L 305.432364 283.742141 
" style="fill:none;stroke:#9467bd;stroke-linecap:square;stroke-width:1.5;"/>
   </g>
   <g id="line2d_19">
    <path clip-path="url(#pbae98587c4)" d="M 972 60.48 
L 970.95737 60.48 
L 970.599261 60.48 
L 970.236038 60.52037 
L 969.869024 60.520611 
L 969.672845 60.520816 
L 969.236236 60.603161 
L 968.978776 60.603776 
L 968.594842 60.604464 
L 968.564896 60.605147 
L 968.482156 60.605796 
L 968.394385 60.606727 
L 968.242705 60.60749 
L 968.150128 60.694054 
L 967.989123 60.739123 
L 967.890449 60.784855 
L 967.661535 60.919452 
L 967.433003 60.966926 
L 967.331369 61.059623 
L 967.299612 61.06439 
L 967.19694 61.205553 
L 967.161073 61.21145 
L 967.121509 61.214826 
L 967.008904 61.310611 
L 966.970697 61.360631 
L 966.870559 61.41009 
L 966.630592 61.46 
L 966.522067 61.463904 
L 966.478518 61.467122 
L 966.370594 61.518278 
L 966.328101 61.616953 
L 966.284467 61.621552 
L 966.162671 61.626893 
L 966.045059 61.631858 
L 965.988029 61.685966 
L 965.941828 61.740787 
L 965.812855 61.74712 
L 965.622279 61.803 
L 965.497989 61.860717 
L 965.371823 61.869012 
L 965.255002 61.92527 
L 965.201475 61.978957 
L 965.147737 62.03232 
L 965.094452 62.086541 
L 965.044986 62.091126 
L 964.991434 62.196275 
L 964.937051 62.201425 
L 964.71177 62.256691 
L 964.647024 62.263222 
L 964.588499 62.319726 
L 964.451147 62.377576 
L 964.216315 62.435581 
L 964.059472 62.49372 
L 963.899722 62.601787 
L 963.567408 62.658768 
L 963.501204 62.716323 
L 963.342902 62.826312 
L 963.181034 62.832 
L 963.111028 62.888809 
L 963.042806 62.9475 
L 962.972546 62.954866 
L 962.892174 62.962613 
L 962.73295 63.074259 
L 962.549245 63.082781 
L 962.37931 63.195335 
L 962.295101 63.203931 
L 962.212771 63.209189 
L 962.038017 63.272329 
L 961.850997 63.280466 
L 961.777099 63.29139 
L 961.691142 63.354265 
L 961.597514 63.363937 
L 961.513553 63.479494 
L 961.43464 63.538328 
L 961.34541 63.543933 
L 961.160705 63.549559 
L 961.06767 63.559127 
L 960.984081 63.677704 
L 960.899204 63.740248 
L 960.797323 63.857498 
L 960.700823 63.865225 
L 960.501555 63.984234 
L 960.414469 63.992793 
L 960.304508 64.002916 
L 960.212834 64.010547 
L 960.119711 64.073853 
L 959.997565 64.249952 
L 959.874539 64.317906 
L 959.781022 64.333598 
L 959.56125 64.4 
L 959.346585 64.475529 
L 959.259197 64.59756 
L 959.15601 64.604245 
L 958.910617 64.671425 
L 958.687392 64.68324 
L 958.448804 64.754136 
L 958.335196 64.766257 
L 958.081069 64.952038 
L 957.970667 64.962772 
L 957.860633 64.981003 
L 957.6063 64.996651 
" style="fill:none;stroke:#8c564b;stroke-linecap:square;stroke-width:1.5;"/>
   </g>
   <g id="line2d_20">
    <path clip-path="url(#pbae98587c4)" d="M 972 60.48 
L 931.716831 69.057083 
L 904.450206 77.464804 
L 881.94475 85.672507 
L 860.044586 93.849334 
L 842.197629 101.137774 
L 825.871352 107.418733 
L 810.690018 113.559563 
L 796.61006 119.533702 
L 784.26742 125.843015 
L 774.173957 131.206902 
L 764.772371 135.127494 
L 755.910981 139.61315 
L 746.821896 144.486164 
L 736.436182 148.806147 
L 726.819367 152.989896 
L 717.887142 157.143077 
L 710.599234 160.420148 
L 702.1337 163.971699 
L 694.397605 168.068718 
L 687.522467 172.389785 
L 681.00921 176.525531 
L 673.877021 179.862191 
L 668.240314 182.632416 
L 662.206399 186.079225 
L 657.202085 188.904591 
L 651.490244 191.358269 
L 645.37937 194.042718 
L 639.785812 197.103044 
L 635.163915 199.951883 
L 629.135175 202.861161 
L 623.10124 205.705703 
L 617.314988 208.536989 
L 612.303502 211.077462 
L 606.816817 214.068624 
L 601.804388 216.398824 
L 596.682848 219.031315 
L 592.297412 221.850871 
L 588.25878 224.4438 
L 583.826087 226.765492 
L 579.06661 228.45852 
L 574.678647 230.029747 
L 570.38442 231.63213 
L 565.928246 233.660197 
L 560.866781 235.374029 
L 556.587266 237.093082 
L 552.292536 238.586378 
L 547.892048 240.39386 
L 543.676548 242.474706 
L 539.652766 244.503997 
L 535.553614 246.396547 
L 531.533955 248.673582 
L 526.914001 250.528333 
L 522.341354 252.398734 
L 518.418027 254.109392 
L 514.80615 255.316062 
L 511.175136 256.68909 
L 507.32069 257.865706 
L 503.307409 259.310168 
L 499.990026 260.710686 
L 496.570058 262.266043 
L 493.002203 263.537609 
L 489.855257 265.205517 
L 486.097806 266.854853 
L 482.704133 268.524847 
L 479.25137 270.074709 
L 475.77397 271.411665 
L 472.56336 273.501273 
L 469.238255 274.79653 
L 466.203344 276.264712 
L 463.112107 277.537539 
L 459.828642 279.336593 
L 456.967169 280.8522 
L 453.831497 282.157002 
L 451.087105 283.491596 
L 448.055812 284.637513 
L 445.064656 285.779203 
L 442.390689 286.904227 
L 439.476242 288.003523 
L 436.55289 288.982627 
L 433.460974 289.930745 
L 430.331382 291.111616 
L 427.422947 292.171853 
L 424.499464 293.420003 
L 421.729727 294.768014 
L 419.015283 295.964058 
L 416.098907 297.236286 
L 412.984411 298.497405 
L 410.612899 299.9019 
L 408.080716 300.981326 
L 405.630881 302.230816 
L 403.423731 303.269056 
L 401.03783 304.0128 
L 398.319171 304.714899 
L 396.111299 305.411251 
L 393.356502 306.300388 
L 390.934538 307.075524 
L 388.331606 307.825106 
L 386.182107 308.607962 
L 383.889255 309.63754 
L 381.301786 310.661189 
" style="fill:none;stroke:#e377c2;stroke-linecap:square;stroke-width:1.5;"/>
   </g>
   <g id="line2d_21">
    <path clip-path="url(#pbae98587c4)" d="M 972 60.48 
L 970.861165 60.48 
L 970.41143 60.509568 
L 970.132689 60.539576 
L 969.716906 60.539944 
L 969.5645 60.540284 
L 969.139315 60.601284 
L 968.89374 60.601971 
L 968.597561 60.602742 
L 968.476765 60.603406 
L 968.361072 60.603987 
L 968.241581 60.604865 
L 968.117547 60.605562 
L 968.039959 60.669523 
L 967.90862 60.702925 
L 967.77763 60.73673 
L 967.596025 60.835888 
L 967.367522 60.870947 
L 967.279888 60.939227 
L 967.196557 60.942826 
L 967.057484 61.047661 
L 967.021184 61.052687 
L 966.979127 61.055786 
L 966.883421 61.126516 
L 966.84298 61.163781 
L 966.708169 61.200318 
L 966.568702 61.237767 
L 966.476299 61.240602 
L 966.431779 61.243527 
L 966.392682 61.281314 
L 966.349367 61.354054 
L 966.30426 61.357612 
L 966.200541 61.361679 
L 966.157748 61.365381 
L 966.102865 61.405356 
L 966.056202 61.445551 
L 965.945544 61.449931 
L 965.732706 61.490907 
L 965.687608 61.533282 
L 965.582631 61.539928 
L 965.481583 61.581561 
L 965.425771 61.620762 
L 965.375615 61.660023 
L 965.325167 61.699912 
L 965.272484 61.703058 
L 965.157872 61.781034 
L 965.104016 61.78516 
L 964.920988 61.826202 
L 964.85633 61.83141 
L 964.797011 61.873127 
L 964.676887 61.915654 
L 964.54858 61.95905 
L 964.472905 62.00233 
L 964.339722 62.082375 
L 964.078864 62.124731 
L 964.017802 62.167471 
L 963.883555 62.24942 
L 963.744361 62.253639 
L 963.680463 62.296528 
L 963.616944 62.339994 
L 963.550352 62.345956 
L 963.472735 62.35158 
L 963.262165 62.435063 
L 963.108609 62.441585 
L 962.965305 62.524389 
L 962.880934 62.530829 
L 962.803 62.535006 
L 962.65339 62.582017 
L 962.567968 62.587834 
L 962.492039 62.594334 
L 962.407959 62.640445 
L 962.241734 62.647148 
L 962.168303 62.732771 
L 962.087343 62.776808 
L 962.005038 62.78063 
L 961.840704 62.785426 
L 961.755882 62.792657 
L 961.680493 62.879824 
L 961.595972 62.92691 
L 961.420515 63.014066 
L 961.329214 63.021024 
L 961.15996 63.10938 
L 961.080072 63.116637 
L 960.980201 63.124497 
L 960.890881 63.131272 
L 960.794379 63.178748 
L 960.68452 63.30936 
L 960.566528 63.359613 
L 960.472771 63.371741 
L 960.205022 63.42 
L 960.023705 63.47692 
L 959.932214 63.609336 
L 959.831399 63.615144 
L 959.614272 63.667254 
L 959.519881 63.675652 
L 959.311114 63.727889 
L 959.198381 63.735058 
L 958.9857 63.872908 
L 958.875472 63.880812 
L 958.772523 63.894447 
L 958.550303 63.905128 
" style="fill:none;stroke:#7f7f7f;stroke-linecap:square;stroke-width:1.5;"/>
   </g>
   <g id="line2d_22">
    <path clip-path="url(#pbae98587c4)" d="M 972 60.48 
L 905.108235 68.735395 
L 865.998755 76.541955 
L 833.966777 84.795479 
L 806.153596 92.593932 
L 783.240917 99.444727 
L 765.808578 105.749646 
L 749.860837 112.292959 
L 736.151814 118.530619 
L 723.615964 124.652152 
L 712.302558 129.963549 
L 702.45226 134.068967 
L 692.980978 138.140658 
L 683.05017 142.814755 
L 672.082444 147.05 
L 663.048814 151.305839 
L 654.862123 155.447299 
L 647.979732 158.775441 
L 639.757794 162.232683 
L 632.135907 166.158682 
L 625.376864 170.238065 
L 619.55515 174.495548 
L 613.266804 177.511656 
L 607.473188 180.148284 
L 601.664155 183.3443 
L 596.562229 186.126908 
L 591.727864 188.684267 
L 586.64466 191.517354 
L 581.778077 194.331386 
L 577.30364 197.023688 
L 571.997451 199.812775 
L 566.569724 202.741666 
L 561.551267 205.370286 
L 557.010821 207.892507 
L 552.179971 210.736466 
L 547.379064 213.04971 
L 542.257318 215.504584 
L 537.626338 218.135711 
L 533.46782 220.624934 
L 529.416451 222.805834 
L 525.480663 224.316284 
L 521.643845 225.922556 
L 518.028016 227.566107 
L 514.27838 229.330016 
L 510.343075 230.980661 
L 506.507415 232.569023 
L 502.978024 233.913007 
L 499.17135 235.603979 
L 495.810984 237.483317 
L 492.66609 239.400587 
L 489.361458 241.164292 
L 486.211092 243.221559 
L 482.494512 245.042925 
L 478.936069 246.712421 
L 475.850543 248.355952 
L 473.120322 249.668124 
L 470.308711 251.055779 
L 467.22281 252.224286 
L 464.047288 253.532916 
L 461.40315 254.90789 
L 458.599329 256.432865 
L 455.609258 257.757559 
L 452.986793 259.304082 
L 449.722339 260.92064 
L 446.945909 262.60885 
L 444.137333 264.234948 
L 441.374137 265.605626 
L 438.506318 267.492309 
L 435.652858 268.693585 
L 433.192067 269.97147 
L 430.721628 271.164588 
L 428 272.710236 
L 425.648031 274.01522 
L 422.995282 275.223382 
L 420.707317 276.431478 
L 418.065633 277.471823 
L 415.667152 278.582673 
L 413.422545 279.674943 
L 411.008043 280.850515 
L 408.575497 281.890546 
L 405.962629 282.883119 
L 403.427574 284.014329 
L 401.091517 284.994604 
L 398.636993 286.291368 
L 396.317758 287.577984 
L 394.102703 288.774039 
L 391.698166 290.048023 
L 389.021466 291.208998 
L 386.891345 292.489918 
L 384.77514 293.58599 
L 382.632272 294.79076 
L 380.66563 295.761692 
L 378.605022 296.488241 
L 376.183515 297.25875 
L 374.170647 297.938383 
L 371.674998 298.783023 
L 369.393995 299.567891 
L 367.012228 300.32419 
L 365.000463 301.102196 
L 362.995224 302.067869 
L 360.828694 303.046372 
" style="fill:none;stroke:#bcbd22;stroke-linecap:square;stroke-width:1.5;"/>
   </g>
   <g id="line2d_23">
    <path clip-path="url(#pbae98587c4)" d="M 972 60.48 
L 894.041866 68.531357 
L 847.873385 76.132803 
L 810.07365 84.199126 
L 779.232045 92.090332 
L 753.312897 98.933649 
L 733.15658 104.998876 
L 716.388749 111.609423 
L 702.097452 117.805448 
L 690.4254 123.702774 
L 679.998075 128.919907 
L 670.299387 132.615199 
L 661.389325 136.46883 
L 652.174705 140.680508 
L 642.569571 144.774502 
L 634.382723 149.002771 
L 626.569917 153.293372 
L 619.702187 156.513623 
L 612.162301 160.09034 
L 605.235974 164.018706 
L 599.088387 167.943226 
L 593.858491 172.132414 
L 588.050194 175.029106 
L 582.656096 177.687807 
L 577.382972 180.871445 
L 572.68807 183.565216 
L 568.392996 186.1987 
L 563.920119 188.950949 
L 559.639144 191.876582 
L 555.537181 194.515219 
L 550.818674 197.272032 
L 546.096285 200.029066 
L 541.63209 202.742347 
L 537.530965 205.113659 
L 533.313255 207.86207 
L 528.954026 210.241643 
L 524.343436 212.715529 
L 520.244128 215.197268 
L 516.492484 217.652052 
L 512.750595 219.743504 
L 509.09395 221.228526 
L 505.523694 222.916861 
L 502.169492 224.53044 
L 498.672868 226.273347 
L 495.094803 227.940691 
L 491.657782 229.407746 
L 488.401444 230.799781 
L 484.907272 232.504553 
L 481.7729 234.391577 
L 478.796047 236.372613 
L 475.759895 238.141235 
L 472.868784 240.266247 
L 469.475875 242.071164 
L 466.155049 243.746776 
L 463.27254 245.40012 
L 460.636744 246.716524 
L 458.009807 248.107909 
L 455.101843 249.356045 
L 452.195529 250.707178 
L 449.754474 252.110747 
L 447.103158 253.644632 
L 444.295128 255.01474 
L 441.866911 256.636005 
L 438.859606 258.318005 
L 436.262169 260.053856 
L 433.606222 261.750446 
L 431.005083 263.076094 
L 428.306216 264.865258 
L 425.564095 266.088903 
L 423.2304 267.383698 
L 420.929261 268.526911 
L 418.366468 269.987335 
L 416.081767 271.318069 
L 413.539117 272.521729 
L 411.349784 273.708343 
L 408.829066 274.810566 
L 406.50093 275.883476 
L 404.325157 277.042825 
L 401.806032 278.197565 
L 399.437406 279.210481 
L 396.981928 280.2575 
L 394.539231 281.344021 
L 392.288189 282.313566 
L 390.053075 283.570462 
L 387.784946 284.811072 
L 385.638807 286.018351 
L 383.355349 287.20744 
L 380.767911 288.352723 
L 378.695288 289.634122 
L 376.574223 290.743481 
L 374.472306 291.936963 
L 372.453986 292.945126 
L 370.416339 293.715421 
L 368.099236 294.507116 
L 366.204416 295.208124 
L 363.78086 296.020516 
L 361.586767 296.851173 
L 359.304497 297.593212 
L 357.282223 298.423302 
L 355.189882 299.376386 
L 353.127143 300.352669 
" style="fill:none;stroke:#17becf;stroke-linecap:square;stroke-width:1.5;"/>
   </g>
   <g id="patch_3">
    <path d="M 135 448.56 
L 135 60.48 
" style="fill:none;stroke:#000000;stroke-linecap:square;stroke-linejoin:miter;stroke-width:0.8;"/>
   </g>
   <g id="patch_4">
    <path d="M 972 448.56 
L 972 60.48 
" style="fill:none;stroke:#000000;stroke-linecap:square;stroke-linejoin:miter;stroke-width:0.8;"/>
   </g>
   <g id="patch_5">
    <path d="M 135 448.56 
L 972 448.56 
" style="fill:none;stroke:#000000;stroke-linecap:square;stroke-linejoin:miter;stroke-width:0.8;"/>
   </g>
   <g id="patch_6">
    <path d="M 135 60.48 
L 972 60.48 
" style="fill:none;stroke:#000000;stroke-linecap:square;stroke-linejoin:miter;stroke-width:0.8;"/>
   </g>
   <g id="legend_1">
    <g id="patch_7">
     <path d="M 147.6 339.08625 
L 256.730625 339.08625 
Q 260.330625 339.08625 260.330625 335.48625 
L 260.330625 73.08 
Q 260.330625 69.48 256.730625 69.48 
L 147.6 69.48 
Q 144 69.48 144 73.08 
L 144 335.48625 
Q 144 339.08625 147.6 339.08625 
z
" style="fill:#ffffff;opacity:0.8;stroke:#cccccc;stroke-linejoin:miter;"/>
    </g>
    <g id="line2d_24">
     <path d="M 151.2 84.057188 
L 187.2 84.057188 
" style="fill:none;stroke:#1f77b4;stroke-linecap:square;stroke-width:1.5;"/>
    </g>
    <g id="line2d_25"/>
    <g id="text_15">
     <!-- 0.001 -->
     <g transform="translate(201.6 90.357188)scale(0.18 -0.18)">
      <use xlink:href="#DejaVuSans-30"/>
      <use x="63.623047" xlink:href="#DejaVuSans-2e"/>
      <use x="95.410156" xlink:href="#DejaVuSans-30"/>
      <use x="159.033203" xlink:href="#DejaVuSans-30"/>
      <use x="222.65625" xlink:href="#DejaVuSans-31"/>
     </g>
    </g>
    <g id="line2d_26">
     <path d="M 151.2 110.477812 
L 187.2 110.477812 
" style="fill:none;stroke:#ff7f0e;stroke-linecap:square;stroke-width:1.5;"/>
    </g>
    <g id="line2d_27"/>
    <g id="text_16">
     <!-- 0.011 -->
     <g transform="translate(201.6 116.777812)scale(0.18 -0.18)">
      <use xlink:href="#DejaVuSans-30"/>
      <use x="63.623047" xlink:href="#DejaVuSans-2e"/>
      <use x="95.410156" xlink:href="#DejaVuSans-30"/>
      <use x="159.033203" xlink:href="#DejaVuSans-31"/>
      <use x="222.65625" xlink:href="#DejaVuSans-31"/>
     </g>
    </g>
    <g id="line2d_28">
     <path d="M 151.2 136.898438 
L 187.2 136.898438 
" style="fill:none;stroke:#2ca02c;stroke-linecap:square;stroke-width:1.5;"/>
    </g>
    <g id="line2d_29"/>
    <g id="text_17">
     <!-- 0.021 -->
     <g transform="translate(201.6 143.198438)scale(0.18 -0.18)">
      <use xlink:href="#DejaVuSans-30"/>
      <use x="63.623047" xlink:href="#DejaVuSans-2e"/>
      <use x="95.410156" xlink:href="#DejaVuSans-30"/>
      <use x="159.033203" xlink:href="#DejaVuSans-32"/>
      <use x="222.65625" xlink:href="#DejaVuSans-31"/>
     </g>
    </g>
    <g id="line2d_30">
     <path d="M 151.2 163.319062 
L 187.2 163.319062 
" style="fill:none;stroke:#d62728;stroke-linecap:square;stroke-width:1.5;"/>
    </g>
    <g id="line2d_31"/>
    <g id="text_18">
     <!-- 0.031 -->
     <g transform="translate(201.6 169.619062)scale(0.18 -0.18)">
      <defs>
       <path d="M 2597 2516 
Q 3050 2419 3304 2112 
Q 3559 1806 3559 1356 
Q 3559 666 3084 287 
Q 2609 -91 1734 -91 
Q 1441 -91 1130 -33 
Q 819 25 488 141 
L 488 750 
Q 750 597 1062 519 
Q 1375 441 1716 441 
Q 2309 441 2620 675 
Q 2931 909 2931 1356 
Q 2931 1769 2642 2001 
Q 2353 2234 1838 2234 
L 1294 2234 
L 1294 2753 
L 1863 2753 
Q 2328 2753 2575 2939 
Q 2822 3125 2822 3475 
Q 2822 3834 2567 4026 
Q 2313 4219 1838 4219 
Q 1578 4219 1281 4162 
Q 984 4106 628 3988 
L 628 4550 
Q 988 4650 1302 4700 
Q 1616 4750 1894 4750 
Q 2613 4750 3031 4423 
Q 3450 4097 3450 3541 
Q 3450 3153 3228 2886 
Q 3006 2619 2597 2516 
z
" id="DejaVuSans-33" transform="scale(0.015625)"/>
      </defs>
      <use xlink:href="#DejaVuSans-30"/>
      <use x="63.623047" xlink:href="#DejaVuSans-2e"/>
      <use x="95.410156" xlink:href="#DejaVuSans-30"/>
      <use x="159.033203" xlink:href="#DejaVuSans-33"/>
      <use x="222.65625" xlink:href="#DejaVuSans-31"/>
     </g>
    </g>
    <g id="line2d_32">
     <path d="M 151.2 189.739688 
L 187.2 189.739688 
" style="fill:none;stroke:#9467bd;stroke-linecap:square;stroke-width:1.5;"/>
    </g>
    <g id="line2d_33"/>
    <g id="text_19">
     <!-- 0.041 -->
     <g transform="translate(201.6 196.039688)scale(0.18 -0.18)">
      <use xlink:href="#DejaVuSans-30"/>
      <use x="63.623047" xlink:href="#DejaVuSans-2e"/>
      <use x="95.410156" xlink:href="#DejaVuSans-30"/>
      <use x="159.033203" xlink:href="#DejaVuSans-34"/>
      <use x="222.65625" xlink:href="#DejaVuSans-31"/>
     </g>
    </g>
    <g id="line2d_34">
     <path d="M 151.2 216.160312 
L 187.2 216.160312 
" style="fill:none;stroke:#8c564b;stroke-linecap:square;stroke-width:1.5;"/>
    </g>
    <g id="line2d_35"/>
    <g id="text_20">
     <!-- 0.051 -->
     <g transform="translate(201.6 222.460312)scale(0.18 -0.18)">
      <defs>
       <path d="M 691 4666 
L 3169 4666 
L 3169 4134 
L 1269 4134 
L 1269 2991 
Q 1406 3038 1543 3061 
Q 1681 3084 1819 3084 
Q 2600 3084 3056 2656 
Q 3513 2228 3513 1497 
Q 3513 744 3044 326 
Q 2575 -91 1722 -91 
Q 1428 -91 1123 -41 
Q 819 9 494 109 
L 494 744 
Q 775 591 1075 516 
Q 1375 441 1709 441 
Q 2250 441 2565 725 
Q 2881 1009 2881 1497 
Q 2881 1984 2565 2268 
Q 2250 2553 1709 2553 
Q 1456 2553 1204 2497 
Q 953 2441 691 2322 
L 691 4666 
z
" id="DejaVuSans-35" transform="scale(0.015625)"/>
      </defs>
      <use xlink:href="#DejaVuSans-30"/>
      <use x="63.623047" xlink:href="#DejaVuSans-2e"/>
      <use x="95.410156" xlink:href="#DejaVuSans-30"/>
      <use x="159.033203" xlink:href="#DejaVuSans-35"/>
      <use x="222.65625" xlink:href="#DejaVuSans-31"/>
     </g>
    </g>
    <g id="line2d_36">
     <path d="M 151.2 242.580937 
L 187.2 242.580937 
" style="fill:none;stroke:#e377c2;stroke-linecap:square;stroke-width:1.5;"/>
    </g>
    <g id="line2d_37"/>
    <g id="text_21">
     <!-- 0.061 -->
     <g transform="translate(201.6 248.880937)scale(0.18 -0.18)">
      <use xlink:href="#DejaVuSans-30"/>
      <use x="63.623047" xlink:href="#DejaVuSans-2e"/>
      <use x="95.410156" xlink:href="#DejaVuSans-30"/>
      <use x="159.033203" xlink:href="#DejaVuSans-36"/>
      <use x="222.65625" xlink:href="#DejaVuSans-31"/>
     </g>
    </g>
    <g id="line2d_38">
     <path d="M 151.2 269.001562 
L 187.2 269.001562 
" style="fill:none;stroke:#7f7f7f;stroke-linecap:square;stroke-width:1.5;"/>
    </g>
    <g id="line2d_39"/>
    <g id="text_22">
     <!-- 0.071 -->
     <g transform="translate(201.6 275.301562)scale(0.18 -0.18)">
      <defs>
       <path d="M 525 4666 
L 3525 4666 
L 3525 4397 
L 1831 0 
L 1172 0 
L 2766 4134 
L 525 4134 
L 525 4666 
z
" id="DejaVuSans-37" transform="scale(0.015625)"/>
      </defs>
      <use xlink:href="#DejaVuSans-30"/>
      <use x="63.623047" xlink:href="#DejaVuSans-2e"/>
      <use x="95.410156" xlink:href="#DejaVuSans-30"/>
      <use x="159.033203" xlink:href="#DejaVuSans-37"/>
      <use x="222.65625" xlink:href="#DejaVuSans-31"/>
     </g>
    </g>
    <g id="line2d_40">
     <path d="M 151.2 295.422188 
L 187.2 295.422188 
" style="fill:none;stroke:#bcbd22;stroke-linecap:square;stroke-width:1.5;"/>
    </g>
    <g id="line2d_41"/>
    <g id="text_23">
     <!-- 0.081 -->
     <g transform="translate(201.6 301.722188)scale(0.18 -0.18)">
      <use xlink:href="#DejaVuSans-30"/>
      <use x="63.623047" xlink:href="#DejaVuSans-2e"/>
      <use x="95.410156" xlink:href="#DejaVuSans-30"/>
      <use x="159.033203" xlink:href="#DejaVuSans-38"/>
      <use x="222.65625" xlink:href="#DejaVuSans-31"/>
     </g>
    </g>
    <g id="line2d_42">
     <path d="M 151.2 321.842812 
L 187.2 321.842812 
" style="fill:none;stroke:#17becf;stroke-linecap:square;stroke-width:1.5;"/>
    </g>
    <g id="line2d_43"/>
    <g id="text_24">
     <!-- 0.091 -->
     <g transform="translate(201.6 328.142812)scale(0.18 -0.18)">
      <defs>
       <path d="M 703 97 
L 703 672 
Q 941 559 1184 500 
Q 1428 441 1663 441 
Q 2288 441 2617 861 
Q 2947 1281 2994 2138 
Q 2813 1869 2534 1725 
Q 2256 1581 1919 1581 
Q 1219 1581 811 2004 
Q 403 2428 403 3163 
Q 403 3881 828 4315 
Q 1253 4750 1959 4750 
Q 2769 4750 3195 4129 
Q 3622 3509 3622 2328 
Q 3622 1225 3098 567 
Q 2575 -91 1691 -91 
Q 1453 -91 1209 -44 
Q 966 3 703 97 
z
M 1959 2075 
Q 2384 2075 2632 2365 
Q 2881 2656 2881 3163 
Q 2881 3666 2632 3958 
Q 2384 4250 1959 4250 
Q 1534 4250 1286 3958 
Q 1038 3666 1038 3163 
Q 1038 2656 1286 2365 
Q 1534 2075 1959 2075 
z
" id="DejaVuSans-39" transform="scale(0.015625)"/>
      </defs>
      <use xlink:href="#DejaVuSans-30"/>
      <use x="63.623047" xlink:href="#DejaVuSans-2e"/>
      <use x="95.410156" xlink:href="#DejaVuSans-30"/>
      <use x="159.033203" xlink:href="#DejaVuSans-39"/>
      <use x="222.65625" xlink:href="#DejaVuSans-31"/>
     </g>
    </g>
   </g>
  </g>
 </g>
 <defs>
  <clipPath id="pbae98587c4">
   <rect height="388.08" width="837" x="135" y="60.48"/>
  </clipPath>
 </defs>
</svg>
