<?xml version="1.0" encoding="utf-8" standalone="no"?>
<!DOCTYPE svg PUBLIC "-//W3C//DTD SVG 1.1//EN"
  "http://www.w3.org/Graphics/SVG/1.1/DTD/svg11.dtd">
<svg height="504pt" version="1.1" viewBox="0 0 1080 504" width="1080pt" xmlns="http://www.w3.org/2000/svg" xmlns:xlink="http://www.w3.org/1999/xlink">
 <metadata>
  <rdf:RDF xmlns:cc="http://creativecommons.org/ns#" xmlns:dc="http://purl.org/dc/elements/1.1/" xmlns:rdf="http://www.w3.org/1999/02/22-rdf-syntax-ns#">
   <cc:Work>
    <dc:type rdf:resource="http://purl.org/dc/dcmitype/StillImage"/>
    <dc:date>2022-01-07T13:24:52.766796</dc:date>
    <dc:format>image/svg+xml</dc:format>
    <dc:creator>
     <cc:Agent>
      <dc:title>Matplotlib v3.4.3, https://matplotlib.org/</dc:title>
     </cc:Agent>
    </dc:creator>
   </cc:Work>
  </rdf:RDF>
 </metadata>
 <defs>
  <style type="text/css">*{stroke-linecap:butt;stroke-linejoin:round;}</style>
 </defs>
 <g id="figure_1">
  <g id="patch_1">
   <path d="M 0 504 
L 1080 504 
L 1080 0 
L 0 0 
z
" style="fill:#ffffff;"/>
  </g>
  <g id="axes_1">
   <g id="patch_2">
    <path d="M 135 448.56 
L 972 448.56 
L 972 60.48 
L 135 60.48 
z
" style="fill:#ffffff;"/>
   </g>
   <g id="matplotlib.axis_1">
    <g id="xtick_1">
     <g id="line2d_1">
      <defs>
       <path d="M 0 0 
L 0 3.5 
" id="m16054d9b6e" style="stroke:#000000;stroke-width:0.8;"/>
      </defs>
      <g>
       <use style="stroke:#000000;stroke-width:0.8;" x="135" xlink:href="#m16054d9b6e" y="448.56"/>
      </g>
     </g>
     <g id="text_1">
      <!-- 0.0 -->
      <g transform="translate(120.687187 469.237188)scale(0.18 -0.18)">
       <defs>
        <path d="M 2034 4250 
Q 1547 4250 1301 3770 
Q 1056 3291 1056 2328 
Q 1056 1369 1301 889 
Q 1547 409 2034 409 
Q 2525 409 2770 889 
Q 3016 1369 3016 2328 
Q 3016 3291 2770 3770 
Q 2525 4250 2034 4250 
z
M 2034 4750 
Q 2819 4750 3233 4129 
Q 3647 3509 3647 2328 
Q 3647 1150 3233 529 
Q 2819 -91 2034 -91 
Q 1250 -91 836 529 
Q 422 1150 422 2328 
Q 422 3509 836 4129 
Q 1250 4750 2034 4750 
z
" id="DejaVuSans-30" transform="scale(0.015625)"/>
        <path d="M 684 794 
L 1344 794 
L 1344 0 
L 684 0 
L 684 794 
z
" id="DejaVuSans-2e" transform="scale(0.015625)"/>
       </defs>
       <use xlink:href="#DejaVuSans-30"/>
       <use x="63.623047" xlink:href="#DejaVuSans-2e"/>
       <use x="95.410156" xlink:href="#DejaVuSans-30"/>
      </g>
     </g>
    </g>
    <g id="xtick_2">
     <g id="line2d_2">
      <g>
       <use style="stroke:#000000;stroke-width:0.8;" x="302.4" xlink:href="#m16054d9b6e" y="448.56"/>
      </g>
     </g>
     <g id="text_2">
      <!-- 0.2 -->
      <g transform="translate(288.087187 469.237188)scale(0.18 -0.18)">
       <defs>
        <path d="M 1228 531 
L 3431 531 
L 3431 0 
L 469 0 
L 469 531 
Q 828 903 1448 1529 
Q 2069 2156 2228 2338 
Q 2531 2678 2651 2914 
Q 2772 3150 2772 3378 
Q 2772 3750 2511 3984 
Q 2250 4219 1831 4219 
Q 1534 4219 1204 4116 
Q 875 4013 500 3803 
L 500 4441 
Q 881 4594 1212 4672 
Q 1544 4750 1819 4750 
Q 2544 4750 2975 4387 
Q 3406 4025 3406 3419 
Q 3406 3131 3298 2873 
Q 3191 2616 2906 2266 
Q 2828 2175 2409 1742 
Q 1991 1309 1228 531 
z
" id="DejaVuSans-32" transform="scale(0.015625)"/>
       </defs>
       <use xlink:href="#DejaVuSans-30"/>
       <use x="63.623047" xlink:href="#DejaVuSans-2e"/>
       <use x="95.410156" xlink:href="#DejaVuSans-32"/>
      </g>
     </g>
    </g>
    <g id="xtick_3">
     <g id="line2d_3">
      <g>
       <use style="stroke:#000000;stroke-width:0.8;" x="469.8" xlink:href="#m16054d9b6e" y="448.56"/>
      </g>
     </g>
     <g id="text_3">
      <!-- 0.4 -->
      <g transform="translate(455.487188 469.237188)scale(0.18 -0.18)">
       <defs>
        <path d="M 2419 4116 
L 825 1625 
L 2419 1625 
L 2419 4116 
z
M 2253 4666 
L 3047 4666 
L 3047 1625 
L 3713 1625 
L 3713 1100 
L 3047 1100 
L 3047 0 
L 2419 0 
L 2419 1100 
L 313 1100 
L 313 1709 
L 2253 4666 
z
" id="DejaVuSans-34" transform="scale(0.015625)"/>
       </defs>
       <use xlink:href="#DejaVuSans-30"/>
       <use x="63.623047" xlink:href="#DejaVuSans-2e"/>
       <use x="95.410156" xlink:href="#DejaVuSans-34"/>
      </g>
     </g>
    </g>
    <g id="xtick_4">
     <g id="line2d_4">
      <g>
       <use style="stroke:#000000;stroke-width:0.8;" x="637.2" xlink:href="#m16054d9b6e" y="448.56"/>
      </g>
     </g>
     <g id="text_4">
      <!-- 0.6 -->
      <g transform="translate(622.887188 469.237188)scale(0.18 -0.18)">
       <defs>
        <path d="M 2113 2584 
Q 1688 2584 1439 2293 
Q 1191 2003 1191 1497 
Q 1191 994 1439 701 
Q 1688 409 2113 409 
Q 2538 409 2786 701 
Q 3034 994 3034 1497 
Q 3034 2003 2786 2293 
Q 2538 2584 2113 2584 
z
M 3366 4563 
L 3366 3988 
Q 3128 4100 2886 4159 
Q 2644 4219 2406 4219 
Q 1781 4219 1451 3797 
Q 1122 3375 1075 2522 
Q 1259 2794 1537 2939 
Q 1816 3084 2150 3084 
Q 2853 3084 3261 2657 
Q 3669 2231 3669 1497 
Q 3669 778 3244 343 
Q 2819 -91 2113 -91 
Q 1303 -91 875 529 
Q 447 1150 447 2328 
Q 447 3434 972 4092 
Q 1497 4750 2381 4750 
Q 2619 4750 2861 4703 
Q 3103 4656 3366 4563 
z
" id="DejaVuSans-36" transform="scale(0.015625)"/>
       </defs>
       <use xlink:href="#DejaVuSans-30"/>
       <use x="63.623047" xlink:href="#DejaVuSans-2e"/>
       <use x="95.410156" xlink:href="#DejaVuSans-36"/>
      </g>
     </g>
    </g>
    <g id="xtick_5">
     <g id="line2d_5">
      <g>
       <use style="stroke:#000000;stroke-width:0.8;" x="804.6" xlink:href="#m16054d9b6e" y="448.56"/>
      </g>
     </g>
     <g id="text_5">
      <!-- 0.8 -->
      <g transform="translate(790.287188 469.237188)scale(0.18 -0.18)">
       <defs>
        <path d="M 2034 2216 
Q 1584 2216 1326 1975 
Q 1069 1734 1069 1313 
Q 1069 891 1326 650 
Q 1584 409 2034 409 
Q 2484 409 2743 651 
Q 3003 894 3003 1313 
Q 3003 1734 2745 1975 
Q 2488 2216 2034 2216 
z
M 1403 2484 
Q 997 2584 770 2862 
Q 544 3141 544 3541 
Q 544 4100 942 4425 
Q 1341 4750 2034 4750 
Q 2731 4750 3128 4425 
Q 3525 4100 3525 3541 
Q 3525 3141 3298 2862 
Q 3072 2584 2669 2484 
Q 3125 2378 3379 2068 
Q 3634 1759 3634 1313 
Q 3634 634 3220 271 
Q 2806 -91 2034 -91 
Q 1263 -91 848 271 
Q 434 634 434 1313 
Q 434 1759 690 2068 
Q 947 2378 1403 2484 
z
M 1172 3481 
Q 1172 3119 1398 2916 
Q 1625 2713 2034 2713 
Q 2441 2713 2670 2916 
Q 2900 3119 2900 3481 
Q 2900 3844 2670 4047 
Q 2441 4250 2034 4250 
Q 1625 4250 1398 4047 
Q 1172 3844 1172 3481 
z
" id="DejaVuSans-38" transform="scale(0.015625)"/>
       </defs>
       <use xlink:href="#DejaVuSans-30"/>
       <use x="63.623047" xlink:href="#DejaVuSans-2e"/>
       <use x="95.410156" xlink:href="#DejaVuSans-38"/>
      </g>
     </g>
    </g>
    <g id="xtick_6">
     <g id="line2d_6">
      <g>
       <use style="stroke:#000000;stroke-width:0.8;" x="972" xlink:href="#m16054d9b6e" y="448.56"/>
      </g>
     </g>
     <g id="text_6">
      <!-- 1.0 -->
      <g transform="translate(957.687188 469.237188)scale(0.18 -0.18)">
       <defs>
        <path d="M 794 531 
L 1825 531 
L 1825 4091 
L 703 3866 
L 703 4441 
L 1819 4666 
L 2450 4666 
L 2450 531 
L 3481 531 
L 3481 0 
L 794 0 
L 794 531 
z
" id="DejaVuSans-31" transform="scale(0.015625)"/>
       </defs>
       <use xlink:href="#DejaVuSans-31"/>
       <use x="63.623047" xlink:href="#DejaVuSans-2e"/>
       <use x="95.410156" xlink:href="#DejaVuSans-30"/>
      </g>
     </g>
    </g>
    <g id="text_7">
     <!-- $FPR_{Fair}$ -->
     <g transform="translate(518.08 493.697187)scale(0.22 -0.22)">
      <defs>
       <path d="M 1081 4666 
L 3756 4666 
L 3653 4134 
L 1606 4134 
L 1338 2759 
L 3188 2759 
L 3084 2228 
L 1234 2228 
L 800 0 
L 172 0 
L 1081 4666 
z
" id="DejaVuSans-Oblique-46" transform="scale(0.015625)"/>
       <path d="M 1081 4666 
L 2541 4666 
Q 3178 4666 3512 4369 
Q 3847 4072 3847 3500 
Q 3847 2731 3353 2303 
Q 2859 1875 1966 1875 
L 1172 1875 
L 806 0 
L 172 0 
L 1081 4666 
z
M 1613 4147 
L 1275 2394 
L 2069 2394 
Q 2606 2394 2893 2669 
Q 3181 2944 3181 3456 
Q 3181 3784 2986 3965 
Q 2791 4147 2438 4147 
L 1613 4147 
z
" id="DejaVuSans-Oblique-50" transform="scale(0.015625)"/>
       <path d="M 1613 4147 
L 1294 2491 
L 2106 2491 
Q 2584 2491 2879 2755 
Q 3175 3019 3175 3444 
Q 3175 3784 2976 3965 
Q 2778 4147 2406 4147 
L 1613 4147 
z
M 2772 2241 
Q 2972 2194 3105 2009 
Q 3238 1825 3413 1275 
L 3809 0 
L 3144 0 
L 2778 1197 
Q 2638 1659 2453 1815 
Q 2269 1972 1888 1972 
L 1191 1972 
L 806 0 
L 172 0 
L 1081 4666 
L 2503 4666 
Q 3150 4666 3495 4373 
Q 3841 4081 3841 3531 
Q 3841 3044 3547 2687 
Q 3253 2331 2772 2241 
z
" id="DejaVuSans-Oblique-52" transform="scale(0.015625)"/>
       <path d="M 3438 1997 
L 3047 0 
L 2472 0 
L 2578 531 
Q 2325 219 2001 64 
Q 1678 -91 1281 -91 
Q 834 -91 548 182 
Q 263 456 263 884 
Q 263 1497 752 1853 
Q 1241 2209 2100 2209 
L 2900 2209 
L 2931 2363 
Q 2938 2388 2941 2417 
Q 2944 2447 2944 2509 
Q 2944 2788 2717 2942 
Q 2491 3097 2081 3097 
Q 1800 3097 1504 3025 
Q 1209 2953 897 2809 
L 997 3341 
Q 1322 3463 1633 3523 
Q 1944 3584 2234 3584 
Q 2853 3584 3176 3315 
Q 3500 3047 3500 2534 
Q 3500 2431 3484 2292 
Q 3469 2153 3438 1997 
z
M 2816 1759 
L 2241 1759 
Q 1534 1759 1195 1570 
Q 856 1381 856 984 
Q 856 709 1029 553 
Q 1203 397 1509 397 
Q 1978 397 2328 733 
Q 2678 1069 2791 1631 
L 2816 1759 
z
" id="DejaVuSans-Oblique-61" transform="scale(0.015625)"/>
       <path d="M 1172 4863 
L 1747 4863 
L 1606 4134 
L 1031 4134 
L 1172 4863 
z
M 909 3500 
L 1484 3500 
L 800 0 
L 225 0 
L 909 3500 
z
" id="DejaVuSans-Oblique-69" transform="scale(0.015625)"/>
       <path d="M 2853 2969 
Q 2766 3016 2653 3041 
Q 2541 3066 2413 3066 
Q 1953 3066 1609 2717 
Q 1266 2369 1153 1784 
L 800 0 
L 225 0 
L 909 3500 
L 1484 3500 
L 1375 2956 
Q 1603 3259 1920 3421 
Q 2238 3584 2597 3584 
Q 2691 3584 2781 3573 
Q 2872 3563 2963 3538 
L 2853 2969 
z
" id="DejaVuSans-Oblique-72" transform="scale(0.015625)"/>
      </defs>
      <use transform="translate(0 0.09375)" xlink:href="#DejaVuSans-Oblique-46"/>
      <use transform="translate(57.519531 0.09375)" xlink:href="#DejaVuSans-Oblique-50"/>
      <use transform="translate(117.822266 0.09375)" xlink:href="#DejaVuSans-Oblique-52"/>
      <use transform="translate(187.304688 -16.3125)scale(0.7)" xlink:href="#DejaVuSans-Oblique-46"/>
      <use transform="translate(227.568359 -16.3125)scale(0.7)" xlink:href="#DejaVuSans-Oblique-61"/>
      <use transform="translate(270.463867 -16.3125)scale(0.7)" xlink:href="#DejaVuSans-Oblique-69"/>
      <use transform="translate(289.912109 -16.3125)scale(0.7)" xlink:href="#DejaVuSans-Oblique-72"/>
     </g>
    </g>
   </g>
   <g id="matplotlib.axis_2">
    <g id="ytick_1">
     <g id="line2d_7">
      <defs>
       <path d="M 0 0 
L -3.5 0 
" id="m25efac04d8" style="stroke:#000000;stroke-width:0.8;"/>
      </defs>
      <g>
       <use style="stroke:#000000;stroke-width:0.8;" x="135" xlink:href="#m25efac04d8" y="448.56"/>
      </g>
     </g>
     <g id="text_8">
      <!-- 0.0 -->
      <g transform="translate(99.374375 455.398594)scale(0.18 -0.18)">
       <use xlink:href="#DejaVuSans-30"/>
       <use x="63.623047" xlink:href="#DejaVuSans-2e"/>
       <use x="95.410156" xlink:href="#DejaVuSans-30"/>
      </g>
     </g>
    </g>
    <g id="ytick_2">
     <g id="line2d_8">
      <g>
       <use style="stroke:#000000;stroke-width:0.8;" x="135" xlink:href="#m25efac04d8" y="370.944"/>
      </g>
     </g>
     <g id="text_9">
      <!-- 0.2 -->
      <g transform="translate(99.374375 377.782594)scale(0.18 -0.18)">
       <use xlink:href="#DejaVuSans-30"/>
       <use x="63.623047" xlink:href="#DejaVuSans-2e"/>
       <use x="95.410156" xlink:href="#DejaVuSans-32"/>
      </g>
     </g>
    </g>
    <g id="ytick_3">
     <g id="line2d_9">
      <g>
       <use style="stroke:#000000;stroke-width:0.8;" x="135" xlink:href="#m25efac04d8" y="293.328"/>
      </g>
     </g>
     <g id="text_10">
      <!-- 0.4 -->
      <g transform="translate(99.374375 300.166594)scale(0.18 -0.18)">
       <use xlink:href="#DejaVuSans-30"/>
       <use x="63.623047" xlink:href="#DejaVuSans-2e"/>
       <use x="95.410156" xlink:href="#DejaVuSans-34"/>
      </g>
     </g>
    </g>
    <g id="ytick_4">
     <g id="line2d_10">
      <g>
       <use style="stroke:#000000;stroke-width:0.8;" x="135" xlink:href="#m25efac04d8" y="215.712"/>
      </g>
     </g>
     <g id="text_11">
      <!-- 0.6 -->
      <g transform="translate(99.374375 222.550594)scale(0.18 -0.18)">
       <use xlink:href="#DejaVuSans-30"/>
       <use x="63.623047" xlink:href="#DejaVuSans-2e"/>
       <use x="95.410156" xlink:href="#DejaVuSans-36"/>
      </g>
     </g>
    </g>
    <g id="ytick_5">
     <g id="line2d_11">
      <g>
       <use style="stroke:#000000;stroke-width:0.8;" x="135" xlink:href="#m25efac04d8" y="138.096"/>
      </g>
     </g>
     <g id="text_12">
      <!-- 0.8 -->
      <g transform="translate(99.374375 144.934594)scale(0.18 -0.18)">
       <use xlink:href="#DejaVuSans-30"/>
       <use x="63.623047" xlink:href="#DejaVuSans-2e"/>
       <use x="95.410156" xlink:href="#DejaVuSans-38"/>
      </g>
     </g>
    </g>
    <g id="ytick_6">
     <g id="line2d_12">
      <g>
       <use style="stroke:#000000;stroke-width:0.8;" x="135" xlink:href="#m25efac04d8" y="60.48"/>
      </g>
     </g>
     <g id="text_13">
      <!-- 1.0 -->
      <g transform="translate(99.374375 67.318594)scale(0.18 -0.18)">
       <use xlink:href="#DejaVuSans-31"/>
       <use x="63.623047" xlink:href="#DejaVuSans-2e"/>
       <use x="95.410156" xlink:href="#DejaVuSans-30"/>
      </g>
     </g>
    </g>
    <g id="text_14">
     <!-- $TPR_{Fair}$ -->
     <g transform="translate(90.799062 290.27)rotate(-90)scale(0.22 -0.22)">
      <defs>
       <path d="M 378 4666 
L 4325 4666 
L 4225 4134 
L 2559 4134 
L 1759 0 
L 1125 0 
L 1925 4134 
L 275 4134 
L 378 4666 
z
" id="DejaVuSans-Oblique-54" transform="scale(0.015625)"/>
      </defs>
      <use transform="translate(0 0.09375)" xlink:href="#DejaVuSans-Oblique-54"/>
      <use transform="translate(61.083984 0.09375)" xlink:href="#DejaVuSans-Oblique-50"/>
      <use transform="translate(121.386719 0.09375)" xlink:href="#DejaVuSans-Oblique-52"/>
      <use transform="translate(190.869141 -16.3125)scale(0.7)" xlink:href="#DejaVuSans-Oblique-46"/>
      <use transform="translate(231.132812 -16.3125)scale(0.7)" xlink:href="#DejaVuSans-Oblique-61"/>
      <use transform="translate(274.02832 -16.3125)scale(0.7)" xlink:href="#DejaVuSans-Oblique-69"/>
      <use transform="translate(293.476562 -16.3125)scale(0.7)" xlink:href="#DejaVuSans-Oblique-72"/>
     </g>
    </g>
   </g>
   <g id="line2d_13">
    <path clip-path="url(#p313975d93f)" d="M 135 448.56 
L 972 60.48 
" style="fill:none;stroke:#ff0000;stroke-dasharray:5.55,2.4;stroke-dashoffset:0;stroke-width:1.5;"/>
   </g>
   <g id="line2d_14">
    <path clip-path="url(#p313975d93f)" d="M 972 60.48 
L 889.773667 69.830713 
L 841.275415 78.4411 
L 802.617042 87.201636 
L 770.625536 95.687308 
L 743.423232 103.159973 
L 722.766657 109.787659 
L 705.216446 116.857583 
L 690.645259 123.570727 
L 678.609015 129.94179 
L 667.575346 135.645343 
L 657.68388 139.836408 
L 648.180407 144.015567 
L 638.612483 148.870335 
L 628.459437 153.249415 
L 619.880128 157.713795 
L 611.927317 162.216508 
L 604.932956 165.652276 
L 597.150894 169.342965 
L 590.043822 173.410468 
L 583.599906 177.585787 
L 578.180644 181.996676 
L 572.19363 185.042579 
L 566.782076 187.746336 
L 561.354531 191.070463 
L 556.619477 193.864355 
L 552.142625 196.525888 
L 547.487376 199.398815 
L 543.005852 202.286 
L 538.863999 204.992784 
L 534.017678 207.818651 
L 529.036437 210.760152 
L 524.409658 213.474175 
L 520.162179 215.919984 
L 515.69686 218.715279 
L 511.287452 221.097646 
L 506.588326 223.573726 
L 502.351655 226.16052 
L 498.518014 228.657769 
L 494.787521 230.827213 
L 491.182765 232.339059 
L 487.616609 233.979913 
L 484.311679 235.612984 
L 480.877842 237.339049 
L 477.22589 238.981119 
L 473.663768 240.518028 
L 470.365071 241.874061 
L 466.792252 243.539592 
L 463.648878 245.410839 
L 460.72609 247.337842 
L 457.677269 249.069438 
L 454.73525 251.142327 
L 451.278826 252.973422 
L 447.989433 254.647429 
L 445.109669 256.268412 
L 442.549769 257.614415 
L 439.869318 259.009185 
L 436.964 260.209882 
L 434.011034 261.576906 
L 431.560475 262.98741 
L 428.941412 264.5285 
L 426.149714 265.86579 
L 423.702484 267.435396 
L 420.673617 269.071584 
L 418.125734 270.731506 
L 415.505834 272.367623 
L 412.937564 273.723861 
L 410.262603 275.501561 
L 407.555867 276.649299 
L 405.253156 277.909344 
L 402.965602 279.056661 
L 400.410735 280.511931 
L 398.172668 281.781563 
L 395.653161 282.956897 
L 393.431725 284.111043 
L 390.929016 285.161095 
L 388.661772 286.222417 
L 386.516879 287.31528 
L 384.139142 288.444128 
L 381.830851 289.447499 
L 379.399159 290.433439 
L 377.060382 291.512543 
L 374.926685 292.502046 
L 372.67832 293.769837 
L 370.517297 295.018553 
L 368.468674 296.198888 
L 366.253518 297.392758 
L 363.711418 298.510099 
L 361.687957 299.736344 
L 359.665767 300.796963 
L 357.59148 301.958655 
L 355.657872 302.903982 
L 353.685126 303.645663 
L 351.428594 304.408737 
L 349.531996 305.070486 
L 347.209465 305.889526 
L 345.093992 306.669082 
L 342.890739 307.405672 
L 340.94288 308.189155 
L 338.963308 309.12981 
L 336.95077 310.081687 
" style="fill:none;stroke:#1f77b4;stroke-linecap:square;stroke-width:1.5;"/>
   </g>
   <g id="line2d_15">
    <path clip-path="url(#p313975d93f)" d="M 972 60.48 
L 622.069397 121.946087 
L 508.868794 165.499535 
L 444.569067 200.429663 
L 403.076585 227.66438 
L 372.47874 248.008019 
L 351.45533 263.680687 
L 335.737928 277.863712 
L 323.499965 290.58296 
L 313.407912 300.920167 
L 305.246289 309.504137 
L 297.725851 315.892164 
L 290.704837 321.757645 
L 284.315871 328.010504 
L 277.992297 333.612107 
L 272.66183 338.757342 
L 267.761324 343.965228 
L 263.798572 347.822939 
L 259.342491 351.768282 
L 255.584746 355.832139 
L 252.221809 359.773226 
L 249.400324 363.590386 
L 246.516524 366.013706 
L 243.778303 368.072247 
L 241.365391 370.475647 
L 239.043274 372.380358 
L 236.912665 374.303235 
L 234.76392 376.121765 
L 232.831618 377.951882 
L 230.884545 379.611074 
L 228.762847 381.256615 
L 226.548429 383.004598 
L 224.66806 384.663209 
L 223.006711 386.080437 
L 221.190369 387.793474 
L 219.442769 389.260954 
L 217.659766 390.769295 
L 216.186855 392.27909 
L 214.802325 393.698512 
L 213.476247 395.219083 
L 212.183046 396.22388 
L 210.850555 397.065704 
L 209.619889 397.78001 
L 208.552974 398.53733 
L 207.357277 399.326382 
L 206.162515 399.995464 
L 204.866772 400.600521 
L 203.525991 401.264418 
L 202.359083 402.010433 
L 201.400778 402.7782 
L 200.43517 403.470803 
L 199.529757 404.176965 
L 198.373048 404.896948 
L 197.431033 405.566074 
L 196.51817 406.138892 
L 195.552725 406.605405 
L 194.793152 407.134789 
L 194.054684 407.558277 
L 193.141749 407.9694 
L 192.564951 408.501331 
L 191.790453 409.026294 
L 190.914231 409.546546 
L 190.096463 410.122159 
L 189.243316 410.729565 
L 188.585623 411.293383 
L 187.798641 411.859449 
L 187.154946 412.339488 
L 186.499084 413.019975 
L 185.800578 413.501463 
L 185.170912 414.026657 
L 184.678919 414.4857 
L 184.102222 414.940434 
L 183.549554 415.324032 
L 182.817125 415.672895 
L 182.305229 415.997358 
L 181.754042 416.29142 
L 181.202047 416.693381 
L 180.750331 416.984195 
L 180.289175 417.349065 
L 179.793578 417.604202 
L 179.296657 417.920587 
L 178.765888 418.261237 
L 178.299696 418.531241 
L 177.63641 418.904298 
L 177.126532 419.21223 
L 176.660131 419.489092 
L 176.152334 419.772639 
L 175.69193 420.045552 
L 175.298297 420.389415 
L 174.845719 420.661161 
L 174.324625 420.988371 
L 173.873918 421.228933 
L 173.367434 421.401934 
L 172.952915 421.609516 
L 172.58177 421.786887 
L 172.135359 422.123939 
L 171.715718 422.33304 
L 171.296216 422.603645 
L 170.829547 422.785476 
L 170.456033 423.058662 
L 170.137023 423.379621 
" style="fill:none;stroke:#ff7f0e;stroke-linecap:square;stroke-width:1.5;"/>
   </g>
   <g id="line2d_16">
    <path clip-path="url(#p313975d93f)" d="M 972 60.48 
L 889.822594 69.830713 
L 841.348797 78.4411 
L 802.707608 87.201636 
L 770.728801 95.687308 
L 743.536333 103.159973 
L 722.886687 109.787659 
L 705.332941 116.857583 
L 690.765793 123.570727 
L 678.723472 129.94179 
L 667.692478 135.645343 
L 657.803403 139.836408 
L 648.292107 144.015567 
L 638.726207 148.870335 
L 628.57526 153.249415 
L 619.997783 157.713795 
L 612.046632 162.216508 
L 605.053713 165.652276 
L 597.27314 169.342965 
L 590.156126 173.410468 
L 583.713384 177.585787 
L 578.295133 181.996676 
L 572.309261 185.042579 
L 566.89885 187.746336 
L 561.472343 191.070463 
L 556.738073 193.864355 
L 552.262046 196.525888 
L 547.607638 199.398815 
L 543.127095 202.286 
L 538.986026 204.992784 
L 534.139459 207.818651 
L 529.158817 210.760152 
L 524.53266 213.474175 
L 520.285714 215.919984 
L 515.821096 218.715279 
L 511.412203 221.097646 
L 506.713681 223.573726 
L 502.477382 226.16052 
L 498.644125 228.657769 
L 494.901123 230.827213 
L 491.296672 232.339059 
L 487.731022 233.979913 
L 484.426526 235.612984 
L 480.993098 237.339049 
L 477.341555 238.981119 
L 473.779832 240.518028 
L 470.481545 241.874061 
L 466.909164 243.539592 
L 463.766318 245.410839 
L 460.84404 247.337842 
L 457.795646 249.069438 
L 454.854129 251.142327 
L 451.398268 252.973422 
L 448.109322 254.647429 
L 445.230014 256.268412 
L 442.67053 257.614415 
L 439.990565 259.009185 
L 437.08572 260.209882 
L 434.133105 261.576906 
L 431.682942 262.98741 
L 429.0643 264.5285 
L 426.273074 265.86579 
L 423.826285 267.435396 
L 420.797857 269.071584 
L 418.250417 270.731506 
L 415.631018 272.367623 
L 413.063164 273.723861 
L 410.388588 275.501561 
L 407.682379 276.649299 
L 405.380021 277.909344 
L 403.092926 279.056661 
L 400.538504 280.511931 
L 398.300773 281.781563 
L 395.781634 282.956897 
L 393.560601 284.111043 
L 391.058316 285.161095 
L 388.79146 286.222417 
L 386.646915 287.31528 
L 384.269469 288.444128 
L 381.961582 289.447499 
L 379.530203 290.433439 
L 377.191723 291.512543 
L 375.04255 292.502046 
L 372.794567 293.769837 
L 370.633791 295.018553 
L 368.585475 296.198888 
L 366.370667 297.392758 
L 363.828979 298.510099 
L 361.805799 299.736344 
L 359.783891 300.796963 
L 357.709758 301.958655 
L 355.776321 302.903982 
L 353.803822 303.645663 
L 351.54764 304.408737 
L 349.651197 305.070486 
L 347.328889 305.889526 
L 345.213633 306.669082 
L 343.010548 307.405672 
L 341.062845 308.189155 
L 339.0834 309.12981 
L 337.071101 310.081687 
" style="fill:none;stroke:#2ca02c;stroke-linecap:square;stroke-width:1.5;"/>
   </g>
   <g id="line2d_17">
    <path clip-path="url(#p313975d93f)" d="M 972 60.48 
L 794.465436 86.115185 
L 707.916416 108.012628 
L 646.585113 128.704475 
L 601.117204 147.16905 
L 565.462689 162.177406 
L 539.463468 174.618444 
L 518.776718 187.091768 
L 501.723105 198.559293 
L 487.725176 208.665034 
L 475.856844 217.087799 
L 464.876928 223.550088 
L 454.887385 229.840827 
L 445.09774 236.509678 
L 435.008708 243.144924 
L 426.550501 249.526125 
L 418.509561 255.89567 
L 411.598967 260.541991 
L 404.242635 265.58951 
L 397.717457 270.930183 
L 391.882885 276.333413 
L 386.864988 281.712043 
L 381.582817 285.161196 
L 376.488276 288.321913 
L 371.800059 291.965782 
L 367.660439 294.896363 
L 363.917097 297.676054 
L 359.895353 300.551334 
L 356.21546 303.497781 
L 352.700509 306.206774 
L 348.804963 308.876708 
L 344.981922 311.540766 
L 341.298974 314.200797 
L 338.022957 316.513313 
L 334.639206 319.033941 
L 331.291569 321.360176 
L 327.669912 323.663633 
L 324.715607 325.968494 
L 321.753956 328.272195 
L 318.935537 330.367948 
L 316.324522 331.838291 
L 313.742834 333.27182 
L 311.227238 334.597891 
L 308.753171 335.968003 
L 306.182609 337.37853 
L 303.721374 338.563626 
L 301.338648 339.694908 
L 298.785909 341.000255 
L 296.428889 342.466187 
L 294.340469 343.96208 
L 292.354891 345.260062 
L 290.242514 346.785202 
L 287.823735 348.130701 
L 285.6352 349.365928 
L 283.674384 350.524843 
L 281.803279 351.513333 
L 280.055183 352.519251 
L 278.184844 353.40587 
L 276.358922 354.330179 
L 274.826019 355.321478 
L 273.282149 356.380744 
L 271.500172 357.372805 
L 269.949229 358.503496 
L 268.141837 359.639148 
L 266.552202 360.776 
L 264.821658 361.911053 
L 263.195319 362.75815 
L 261.746715 364.012489 
L 260.094097 364.88419 
L 258.706454 365.885554 
L 257.405563 366.699965 
L 255.817409 367.678008 
L 254.509191 368.521287 
L 253.149124 369.25878 
L 251.934158 369.966846 
L 250.517885 370.61689 
L 249.135336 371.312448 
L 247.932685 372.038447 
L 246.710664 372.780116 
L 245.25517 373.392868 
L 243.893987 374.055264 
L 242.587655 374.710849 
L 241.407109 375.309769 
L 240.115421 376.105034 
L 239.001889 376.824208 
L 237.851324 377.52636 
L 236.609359 378.201275 
L 235.386055 378.905477 
L 234.289646 379.655455 
L 233.181882 380.268118 
L 232.013803 380.932647 
L 230.945637 381.480005 
L 229.846863 381.894853 
L 228.609875 382.351446 
L 227.628624 382.798233 
L 226.440182 383.327821 
L 225.305948 383.8293 
L 224.099457 384.28131 
L 223.142818 384.73147 
L 222.119101 385.375004 
L 221.046144 385.977093 
" style="fill:none;stroke:#d62728;stroke-linecap:square;stroke-width:1.5;"/>
   </g>
   <g id="line2d_18">
    <path clip-path="url(#p313975d93f)" d="M 972 60.48 
L 916.094767 68.622063 
L 878.088373 77.316041 
L 845.391892 85.900405 
L 817.581945 94.344374 
L 790.348101 100.722454 
L 768.084829 106.635909 
L 750.535277 112.005136 
L 736.370363 117.877165 
L 725.102952 124.21675 
L 715.035935 129.486069 
L 704.137278 133.290569 
L 693.493715 137.649214 
L 682.226566 142.737856 
L 672.279707 146.917914 
L 663.290368 151.300382 
L 654.131398 155.756359 
L 645.106135 158.998009 
L 636.409695 162.59797 
L 629.219002 165.946819 
L 621.955033 170.001242 
L 615.832806 174.447167 
L 608.439854 177.797168 
L 602.166052 180.46891 
L 596.082578 183.807405 
L 591.040175 186.791485 
L 585.550515 189.338216 
L 579.743633 191.994504 
L 574.023649 194.665609 
L 569.099235 197.042541 
L 563.369111 199.832134 
L 557.610649 202.890409 
L 551.824123 205.739317 
L 546.233526 207.772039 
L 540.905379 209.909149 
L 535.505447 212.099166 
L 529.753455 214.855462 
L 524.999064 217.594215 
L 520.506224 220.183588 
L 516.221195 222.480415 
L 511.710191 224.119796 
L 506.577402 225.972478 
L 501.849347 227.736859 
L 497.340409 229.729422 
L 492.752376 231.589238 
L 488.475439 233.225076 
L 484.090855 234.858252 
L 479.527241 236.753225 
L 475.23851 239.02449 
L 471.353673 241.266876 
L 467.346107 243.178549 
L 463.564705 245.366924 
L 459.215218 247.344846 
L 455.112211 249.062786 
L 451.494822 250.525511 
L 447.855481 251.790994 
L 444.209161 253.04615 
L 440.264511 254.330199 
L 436.880704 255.854387 
L 434.051664 257.312934 
L 430.632667 259.149482 
L 427.075843 260.651491 
L 424.081145 262.395799 
L 420.329222 264.072174 
L 417.103799 265.792638 
L 413.698166 267.277039 
L 410.31243 268.708078 
L 406.866847 270.638262 
L 403.339562 271.969811 
L 400.516056 273.564404 
L 397.662569 274.90745 
L 394.500484 276.973033 
L 391.668199 278.509514 
L 388.873505 279.920803 
L 386.180359 281.036849 
L 383.337724 282.164962 
L 380.506801 283.364399 
L 378.019589 284.623021 
L 375.255954 285.838579 
L 372.502527 286.957207 
L 369.698943 287.944335 
L 367.03886 289.194235 
L 364.647967 290.253134 
L 361.865839 291.716412 
L 359.362034 293.082948 
L 357.025576 294.211979 
L 354.275229 295.651159 
L 351.431733 297.124108 
L 349.192623 298.688929 
L 346.761773 299.933617 
L 344.46115 301.148784 
L 342.310128 302.331221 
L 340.103361 303.202671 
L 337.682432 303.891866 
L 335.738722 304.49589 
L 333.338134 305.302564 
L 331.144137 306.137319 
L 328.79886 306.903028 
L 326.698372 307.735018 
L 324.424047 308.580485 
L 322.22227 309.532453 
" style="fill:none;stroke:#9467bd;stroke-linecap:square;stroke-width:1.5;"/>
   </g>
   <g id="line2d_19">
    <path clip-path="url(#p313975d93f)" d="M 972 60.48 
L 861.128074 75.564786 
L 797.792863 88.937714 
L 750.835294 102.447251 
L 712.04381 114.846839 
L 679.299107 125.171343 
L 654.629545 134.46492 
L 635.040094 143.96176 
L 618.583534 152.977881 
L 605.288899 160.689614 
L 593.338552 167.821277 
L 582.428264 172.797604 
L 571.824153 177.844458 
L 561.663409 183.877632 
L 551.335564 189.397283 
L 542.393829 194.857047 
L 534.007454 200.502775 
L 526.547532 204.647888 
L 518.790536 209.158568 
L 511.67847 214.128444 
L 505.258353 219.494875 
L 499.921741 224.750022 
L 493.760202 228.181799 
L 488.30449 231.284934 
L 483.103655 234.977875 
L 478.339123 238.119226 
L 473.921752 241.028313 
L 469.286018 243.99185 
L 464.850695 247.116695 
L 460.936233 250.101471 
L 456.299642 252.974771 
L 451.561932 255.847255 
L 447.09705 258.69593 
L 442.998339 261.126013 
L 438.601692 263.863136 
L 434.222988 266.368288 
L 429.743954 268.879911 
L 425.934975 271.478438 
L 422.19369 274.156523 
L 418.55435 276.465329 
L 415.116349 277.923634 
L 411.604032 279.535914 
L 408.183899 281.042672 
L 404.729526 282.751053 
L 401.325179 284.383007 
L 397.926591 285.805107 
L 394.830508 287.205543 
L 391.480805 288.816712 
L 388.473394 290.58459 
L 385.734938 292.485022 
L 382.964699 294.124188 
L 380.177016 296.057148 
L 377.118157 297.794672 
L 374.064722 299.310783 
L 371.2944 300.826919 
L 368.90076 301.94497 
L 366.473861 303.226556 
L 363.870458 304.310953 
L 361.249377 305.512585 
L 359.0342 306.823916 
L 356.661532 308.233064 
L 354.114538 309.512135 
L 351.946007 310.968859 
L 349.260561 312.516296 
L 346.987783 314.042955 
L 344.654016 315.503473 
L 342.367141 316.639928 
L 340.110831 318.249002 
L 337.750958 319.332541 
L 335.801666 320.530272 
L 333.777069 321.538011 
L 331.573049 322.871467 
L 329.624649 324.04056 
L 327.59455 324.998695 
L 325.631349 326.002001 
L 323.651603 326.911346 
L 321.672113 327.815565 
L 319.851691 328.773109 
L 317.834009 329.716796 
L 315.789196 330.566147 
L 313.784393 331.41749 
L 311.833278 332.329409 
L 310.023213 333.170389 
L 308.12371 334.239798 
L 306.321597 335.266077 
L 304.640668 336.230987 
L 302.713181 337.230386 
L 300.639733 338.210493 
L 299.037596 339.294601 
L 297.286488 340.206038 
L 295.577784 341.222798 
L 294.046852 341.979345 
L 292.38481 342.574756 
L 290.546866 343.200127 
L 288.990616 343.767864 
L 287.194131 344.476521 
L 285.574408 345.166708 
L 283.690192 345.812801 
L 282.156217 346.458978 
L 280.570075 347.245849 
L 278.941255 348.08502 
" style="fill:none;stroke:#8c564b;stroke-linecap:square;stroke-width:1.5;"/>
   </g>
   <g id="line2d_20">
    <path clip-path="url(#p313975d93f)" d="M 972 60.48 
L 930.547041 69.219798 
L 902.043299 77.467653 
L 879.019954 85.886377 
L 856.966244 94.11381 
L 839.027157 101.363178 
L 822.614507 107.557151 
L 807.421583 113.615944 
L 793.292414 119.563603 
L 781.139562 125.921519 
L 770.786055 131.283694 
L 761.608746 135.226701 
L 752.547049 139.596132 
L 743.357446 144.470013 
L 733.00262 148.812593 
L 723.629855 152.975168 
L 714.847769 157.192089 
L 707.45576 160.46872 
L 698.953221 164.019788 
L 691.30687 168.136103 
L 684.482933 172.495183 
L 678.056032 176.590922 
L 671.121314 179.851785 
L 665.518201 182.640882 
L 659.5716 186.105897 
L 654.554339 188.948775 
L 648.838539 191.402043 
L 642.637928 194.103178 
L 637.082768 197.112176 
L 632.557109 199.961139 
L 626.592807 202.854359 
L 620.559293 205.715193 
L 614.812597 208.515448 
L 609.753483 211.025902 
L 604.321962 213.988414 
L 599.343389 216.349615 
L 594.333191 218.997775 
L 589.958676 221.804024 
L 585.905737 224.369972 
L 581.520672 226.623879 
L 576.869815 228.304893 
L 572.525936 229.905134 
L 568.221283 231.509229 
L 563.792999 233.513226 
L 558.765581 235.242161 
L 554.547297 236.924788 
L 550.313054 238.407447 
L 545.91999 240.192716 
L 541.693661 242.277 
L 537.709836 244.321859 
L 533.652111 246.205466 
L 529.703144 248.462972 
L 525.124197 250.355568 
L 520.53019 252.206407 
L 516.596752 253.908938 
L 513.035398 255.095655 
L 509.454579 256.471314 
L 505.605475 257.639402 
L 501.615889 259.086932 
L 498.301587 260.490294 
L 494.899797 262.05921 
L 491.330721 263.322859 
L 488.171432 265.034694 
L 484.40546 266.706704 
L 481.016863 268.35961 
L 477.568907 269.931347 
L 474.111859 271.279853 
L 470.891783 273.362963 
L 467.570963 274.669275 
L 464.579472 276.121086 
L 461.51773 277.395757 
L 458.251234 279.22412 
L 455.431103 280.750344 
L 452.28755 282.048097 
L 449.5446 283.358936 
L 446.492409 284.506558 
L 443.530172 285.658076 
L 440.859005 286.776383 
L 437.925388 287.869094 
L 435.01766 288.865695 
L 431.932471 289.830943 
L 428.833723 290.989609 
L 425.966439 292.066798 
L 423.047279 293.308817 
L 420.282396 294.673766 
L 417.60539 295.878689 
L 414.692471 297.144933 
L 411.605433 298.392929 
L 409.246439 299.791959 
L 406.706671 300.879927 
L 404.259925 302.137745 
L 402.064757 303.149641 
L 399.692308 303.901327 
L 396.997412 304.611077 
L 394.791418 305.294774 
L 392.001839 306.198446 
L 389.584092 306.987777 
L 387.005625 307.744677 
L 384.90732 308.515309 
L 382.64704 309.526654 
L 380.073443 310.564446 
" style="fill:none;stroke:#e377c2;stroke-linecap:square;stroke-width:1.5;"/>
   </g>
   <g id="line2d_21">
    <path clip-path="url(#p313975d93f)" d="M 972 60.48 
L 965.216687 60.802082 
L 959.036071 61.12921 
L 953.576157 61.4603 
L 949.940348 61.794007 
L 945.768482 62.190132 
L 942.772684 62.410746 
L 940.763059 62.572484 
L 937.233737 63.070654 
L 936.015324 63.2975 
L 934.635926 63.585378 
L 933.735599 63.760683 
L 932.321879 63.902222 
L 930.682976 64.357985 
L 929.544143 64.702028 
L 928.414435 64.922816 
L 926.566976 65.370556 
L 923.953977 65.531701 
L 922.513139 65.790398 
L 921.78 66.088752 
L 920.681265 66.308115 
L 919.921065 66.685829 
L 919.234918 66.817361 
L 918.386073 66.979268 
L 917.712346 67.373969 
L 916.948465 67.628576 
L 916.008576 67.791407 
L 915.160517 68.118034 
L 914.590803 68.280432 
L 913.931105 68.411163 
L 913.322034 68.641442 
L 912.693508 68.775102 
L 911.930452 69.015687 
L 911.275554 69.288178 
L 910.403504 69.433816 
L 909.607372 69.715835 
L 908.883362 69.928232 
L 908.18323 70.113191 
L 907.557407 70.378009 
L 906.661014 70.682305 
L 905.955469 70.868923 
L 905.279425 71.241068 
L 904.451856 71.50847 
L 903.771144 71.676 
L 903.118722 71.914275 
L 902.400526 72.05476 
L 901.530147 72.160852 
L 900.651433 72.334768 
L 899.734363 72.59154 
L 899.075801 72.840633 
L 898.384761 73.024741 
L 897.411168 73.285978 
L 896.607471 73.545175 
L 895.434511 73.793208 
L 894.348928 73.9707 
L 893.525547 74.221947 
L 892.527892 74.51551 
L 891.715192 74.763552 
L 890.867637 75.19358 
L 890.133852 75.411911 
L 889.201084 75.638496 
L 888.217424 75.827159 
L 887.410596 76.197692 
L 886.216691 76.501998 
L 885.292853 76.828177 
L 884.208291 77.023105 
L 883.353191 77.201034 
L 882.20995 77.406083 
L 881.171611 77.597243 
L 880.213043 78.086943 
L 879.241441 78.357153 
L 877.844343 78.520393 
L 876.964621 78.859087 
L 875.588357 78.926921 
L 873.939672 79.02993 
L 872.377202 79.17752 
L 870.952301 79.270588 
L 869.355088 79.504674 
L 866.171594 79.813837 
L 864.31495 80.081183 
L 863.307154 80.31833 
L 862.205637 80.554455 
L 861.239979 80.681855 
L 860.350772 80.888674 
L 859.557175 81.125493 
L 858.571966 81.396385 
L 857.599169 81.820045 
L 856.162797 81.995892 
L 855.136139 82.119704 
L 854.117028 82.39257 
L 853.03948 82.574656 
L 852.249673 82.847608 
L 851.178814 83.000705 
L 849.884498 83.182519 
L 848.874116 83.277325 
L 847.191278 83.572765 
L 845.821134 83.735578 
L 844.532676 83.995069 
L 843.313102 84.238337 
L 842.026425 84.443633 
L 840.681329 84.668379 
" style="fill:none;stroke:#7f7f7f;stroke-linecap:square;stroke-width:1.5;"/>
   </g>
   <g id="line2d_22">
    <path clip-path="url(#p313975d93f)" d="M 972 60.48 
L 904.741071 68.735937 
L 865.695549 76.277323 
L 834.610084 84.54101 
L 807.24541 92.326726 
L 784.39002 99.097327 
L 766.62457 105.391477 
L 750.551842 112.007537 
L 736.859784 118.333032 
L 724.113561 124.479962 
L 712.744227 129.814786 
L 702.608443 133.758728 
L 693.095128 137.890407 
L 683.216639 142.395687 
L 672.512684 146.622083 
L 663.590744 150.836508 
L 655.340409 155.003662 
L 648.314805 158.338946 
L 640.166623 161.883077 
L 632.551345 165.909541 
L 625.721571 170.131177 
L 619.847886 174.420863 
L 613.524115 177.452902 
L 607.637086 180.104875 
L 601.810702 183.301699 
L 596.677637 186.099006 
L 591.713645 188.711741 
L 586.672673 191.544339 
L 581.916347 194.410882 
L 577.399161 197.075799 
L 572.118287 199.915077 
L 566.754613 202.691468 
L 561.733415 205.333277 
L 557.190476 207.783295 
L 552.458513 210.569731 
L 547.578546 212.920669 
L 542.551899 215.423822 
L 538.013026 218.033683 
L 533.873033 220.513381 
L 529.816503 222.673704 
L 525.782461 224.174392 
L 521.942287 225.717628 
L 518.26638 227.321103 
L 514.480261 229.077774 
L 510.553493 230.762645 
L 506.726181 232.332934 
L 503.259328 233.709647 
L 499.513475 235.453437 
L 496.139264 237.364579 
L 492.928439 239.322626 
L 489.64189 241.087361 
L 486.561099 243.136392 
L 482.871228 244.930969 
L 479.328622 246.555936 
L 476.239403 248.228856 
L 473.535667 249.470436 
L 470.7109 250.904673 
L 467.562844 252.06578 
L 464.431701 253.419715 
L 461.774809 254.813216 
L 458.92987 256.313885 
L 455.917977 257.639889 
L 453.311601 259.187979 
L 450.107893 260.797914 
L 447.337115 262.479969 
L 444.561291 264.139677 
L 441.803145 265.480175 
L 438.939911 267.415272 
L 436.012396 268.640224 
L 433.531139 269.97147 
L 431.040777 271.142208 
L 428.359037 272.651394 
L 426.004113 273.964375 
L 423.364819 275.144433 
L 421.015694 276.374771 
L 418.38774 277.387578 
L 415.96198 278.485353 
L 413.706907 279.606131 
L 411.225378 280.782473 
L 408.759035 281.836653 
L 406.09687 282.823038 
L 403.536992 283.94831 
L 401.199826 284.876832 
L 398.713663 286.162163 
L 396.393716 287.431324 
L 394.170489 288.616583 
L 391.787735 289.849113 
L 389.117555 291.000066 
L 386.993976 292.301773 
L 384.847837 293.424097 
L 382.754727 294.618705 
L 380.787066 295.656063 
L 378.690013 296.38342 
L 376.253657 297.160449 
L 374.29578 297.852195 
L 371.805606 298.714637 
L 369.557307 299.522677 
L 367.153498 300.26246 
L 365.133766 301.040954 
L 363.107466 302.02375 
L 360.900599 303.008165 
" style="fill:none;stroke:#bcbd22;stroke-linecap:square;stroke-width:1.5;"/>
   </g>
   <g id="line2d_23">
    <path clip-path="url(#p313975d93f)" d="M 972 60.48 
L 949.09115 61.91177 
L 933.100515 62.843171 
L 918.487337 63.924638 
L 906.717141 65.082399 
L 894.597232 66.17369 
L 884.518566 66.967221 
L 876.656182 67.999622 
L 870.409489 69.209321 
L 866.89634 69.966077 
L 863.512467 71.031069 
L 859.732262 71.59872 
L 855.333414 72.061548 
L 850.756919 72.873133 
L 847.46684 73.662974 
L 844.402924 74.406733 
L 841.010338 75.57659 
L 837.027627 76.176261 
L 833.972885 76.840706 
L 831.246868 77.567522 
L 828.626123 78.370485 
L 826.923714 79.359149 
L 824.578239 79.89824 
L 822.525656 80.408854 
L 820.673967 81.111177 
L 818.865552 81.679844 
L 817.093815 82.306388 
L 815.385195 82.98843 
L 813.734451 83.64267 
L 812.153733 84.211986 
L 810.402073 84.792872 
L 808.403213 85.48577 
L 806.397465 86.155315 
L 804.407535 86.625627 
L 802.381105 87.040303 
L 799.896408 87.805423 
L 797.203763 88.363251 
L 794.959715 88.843844 
L 792.899796 89.308955 
L 790.871831 89.823497 
L 788.747641 90.195746 
L 786.187457 90.662481 
L 783.873332 91.111411 
L 782.018953 91.437558 
L 780.301004 91.849434 
L 778.584342 92.12459 
L 776.752444 92.516468 
L 774.763361 93.068769 
L 772.915106 93.579393 
L 771.193632 94.160949 
L 769.459116 94.533331 
L 767.707572 95.235513 
L 765.70407 95.935118 
L 763.795532 96.484253 
L 761.925532 96.920225 
L 760.241902 97.461346 
L 758.320932 98.033413 
L 756.313796 98.518245 
L 754.396013 99.214915 
L 752.815973 99.816995 
L 750.871923 100.350268 
L 748.842824 100.907351 
L 747.061092 101.560858 
L 744.541647 102.195348 
L 742.599678 102.756792 
L 740.538739 103.521239 
L 738.518967 104.091827 
L 735.712203 104.544464 
L 733.155722 104.834442 
L 731.407754 105.261755 
L 729.704613 105.65878 
L 727.613179 105.883554 
L 725.617859 106.1939 
L 723.474261 106.572582 
L 721.344652 106.828646 
L 719.148568 107.189064 
L 717.109776 107.459625 
L 714.998554 107.992328 
L 712.394472 108.457957 
L 710.208497 108.79786 
L 708.056843 109.207925 
L 706.00102 109.513803 
L 704.039911 110.027705 
L 702.154613 110.619761 
L 700.096622 111.016575 
L 698.197755 111.545467 
L 696.166579 111.987788 
L 693.490162 112.335517 
L 691.308991 112.673419 
L 689.025829 113.065046 
L 686.563193 113.541163 
L 683.923457 114.037882 
L 681.606126 114.484564 
L 679.178166 114.91038 
L 677.143141 115.184823 
L 674.414643 115.536745 
L 671.951083 116.013785 
L 669.509929 116.500479 
L 666.931948 116.984017 
L 664.043286 117.389205 
L 661.647618 117.804196 
" style="fill:none;stroke:#17becf;stroke-linecap:square;stroke-width:1.5;"/>
   </g>
   <g id="patch_3">
    <path d="M 135 448.56 
L 135 60.48 
" style="fill:none;stroke:#000000;stroke-linecap:square;stroke-linejoin:miter;stroke-width:0.8;"/>
   </g>
   <g id="patch_4">
    <path d="M 972 448.56 
L 972 60.48 
" style="fill:none;stroke:#000000;stroke-linecap:square;stroke-linejoin:miter;stroke-width:0.8;"/>
   </g>
   <g id="patch_5">
    <path d="M 135 448.56 
L 972 448.56 
" style="fill:none;stroke:#000000;stroke-linecap:square;stroke-linejoin:miter;stroke-width:0.8;"/>
   </g>
   <g id="patch_6">
    <path d="M 135 60.48 
L 972 60.48 
" style="fill:none;stroke:#000000;stroke-linecap:square;stroke-linejoin:miter;stroke-width:0.8;"/>
   </g>
   <g id="legend_1">
    <g id="patch_7">
     <path d="M 147.6 339.08625 
L 256.730625 339.08625 
Q 260.330625 339.08625 260.330625 335.48625 
L 260.330625 73.08 
Q 260.330625 69.48 256.730625 69.48 
L 147.6 69.48 
Q 144 69.48 144 73.08 
L 144 335.48625 
Q 144 339.08625 147.6 339.08625 
z
" style="fill:#ffffff;opacity:0.8;stroke:#cccccc;stroke-linejoin:miter;"/>
    </g>
    <g id="line2d_24">
     <path d="M 151.2 84.057188 
L 187.2 84.057188 
" style="fill:none;stroke:#1f77b4;stroke-linecap:square;stroke-width:1.5;"/>
    </g>
    <g id="line2d_25"/>
    <g id="text_15">
     <!-- 0.001 -->
     <g transform="translate(201.6 90.357188)scale(0.18 -0.18)">
      <use xlink:href="#DejaVuSans-30"/>
      <use x="63.623047" xlink:href="#DejaVuSans-2e"/>
      <use x="95.410156" xlink:href="#DejaVuSans-30"/>
      <use x="159.033203" xlink:href="#DejaVuSans-30"/>
      <use x="222.65625" xlink:href="#DejaVuSans-31"/>
     </g>
    </g>
    <g id="line2d_26">
     <path d="M 151.2 110.477812 
L 187.2 110.477812 
" style="fill:none;stroke:#ff7f0e;stroke-linecap:square;stroke-width:1.5;"/>
    </g>
    <g id="line2d_27"/>
    <g id="text_16">
     <!-- 0.011 -->
     <g transform="translate(201.6 116.777812)scale(0.18 -0.18)">
      <use xlink:href="#DejaVuSans-30"/>
      <use x="63.623047" xlink:href="#DejaVuSans-2e"/>
      <use x="95.410156" xlink:href="#DejaVuSans-30"/>
      <use x="159.033203" xlink:href="#DejaVuSans-31"/>
      <use x="222.65625" xlink:href="#DejaVuSans-31"/>
     </g>
    </g>
    <g id="line2d_28">
     <path d="M 151.2 136.898438 
L 187.2 136.898438 
" style="fill:none;stroke:#2ca02c;stroke-linecap:square;stroke-width:1.5;"/>
    </g>
    <g id="line2d_29"/>
    <g id="text_17">
     <!-- 0.021 -->
     <g transform="translate(201.6 143.198438)scale(0.18 -0.18)">
      <use xlink:href="#DejaVuSans-30"/>
      <use x="63.623047" xlink:href="#DejaVuSans-2e"/>
      <use x="95.410156" xlink:href="#DejaVuSans-30"/>
      <use x="159.033203" xlink:href="#DejaVuSans-32"/>
      <use x="222.65625" xlink:href="#DejaVuSans-31"/>
     </g>
    </g>
    <g id="line2d_30">
     <path d="M 151.2 163.319062 
L 187.2 163.319062 
" style="fill:none;stroke:#d62728;stroke-linecap:square;stroke-width:1.5;"/>
    </g>
    <g id="line2d_31"/>
    <g id="text_18">
     <!-- 0.031 -->
     <g transform="translate(201.6 169.619062)scale(0.18 -0.18)">
      <defs>
       <path d="M 2597 2516 
Q 3050 2419 3304 2112 
Q 3559 1806 3559 1356 
Q 3559 666 3084 287 
Q 2609 -91 1734 -91 
Q 1441 -91 1130 -33 
Q 819 25 488 141 
L 488 750 
Q 750 597 1062 519 
Q 1375 441 1716 441 
Q 2309 441 2620 675 
Q 2931 909 2931 1356 
Q 2931 1769 2642 2001 
Q 2353 2234 1838 2234 
L 1294 2234 
L 1294 2753 
L 1863 2753 
Q 2328 2753 2575 2939 
Q 2822 3125 2822 3475 
Q 2822 3834 2567 4026 
Q 2313 4219 1838 4219 
Q 1578 4219 1281 4162 
Q 984 4106 628 3988 
L 628 4550 
Q 988 4650 1302 4700 
Q 1616 4750 1894 4750 
Q 2613 4750 3031 4423 
Q 3450 4097 3450 3541 
Q 3450 3153 3228 2886 
Q 3006 2619 2597 2516 
z
" id="DejaVuSans-33" transform="scale(0.015625)"/>
      </defs>
      <use xlink:href="#DejaVuSans-30"/>
      <use x="63.623047" xlink:href="#DejaVuSans-2e"/>
      <use x="95.410156" xlink:href="#DejaVuSans-30"/>
      <use x="159.033203" xlink:href="#DejaVuSans-33"/>
      <use x="222.65625" xlink:href="#DejaVuSans-31"/>
     </g>
    </g>
    <g id="line2d_32">
     <path d="M 151.2 189.739688 
L 187.2 189.739688 
" style="fill:none;stroke:#9467bd;stroke-linecap:square;stroke-width:1.5;"/>
    </g>
    <g id="line2d_33"/>
    <g id="text_19">
     <!-- 0.041 -->
     <g transform="translate(201.6 196.039688)scale(0.18 -0.18)">
      <use xlink:href="#DejaVuSans-30"/>
      <use x="63.623047" xlink:href="#DejaVuSans-2e"/>
      <use x="95.410156" xlink:href="#DejaVuSans-30"/>
      <use x="159.033203" xlink:href="#DejaVuSans-34"/>
      <use x="222.65625" xlink:href="#DejaVuSans-31"/>
     </g>
    </g>
    <g id="line2d_34">
     <path d="M 151.2 216.160312 
L 187.2 216.160312 
" style="fill:none;stroke:#8c564b;stroke-linecap:square;stroke-width:1.5;"/>
    </g>
    <g id="line2d_35"/>
    <g id="text_20">
     <!-- 0.051 -->
     <g transform="translate(201.6 222.460312)scale(0.18 -0.18)">
      <defs>
       <path d="M 691 4666 
L 3169 4666 
L 3169 4134 
L 1269 4134 
L 1269 2991 
Q 1406 3038 1543 3061 
Q 1681 3084 1819 3084 
Q 2600 3084 3056 2656 
Q 3513 2228 3513 1497 
Q 3513 744 3044 326 
Q 2575 -91 1722 -91 
Q 1428 -91 1123 -41 
Q 819 9 494 109 
L 494 744 
Q 775 591 1075 516 
Q 1375 441 1709 441 
Q 2250 441 2565 725 
Q 2881 1009 2881 1497 
Q 2881 1984 2565 2268 
Q 2250 2553 1709 2553 
Q 1456 2553 1204 2497 
Q 953 2441 691 2322 
L 691 4666 
z
" id="DejaVuSans-35" transform="scale(0.015625)"/>
      </defs>
      <use xlink:href="#DejaVuSans-30"/>
      <use x="63.623047" xlink:href="#DejaVuSans-2e"/>
      <use x="95.410156" xlink:href="#DejaVuSans-30"/>
      <use x="159.033203" xlink:href="#DejaVuSans-35"/>
      <use x="222.65625" xlink:href="#DejaVuSans-31"/>
     </g>
    </g>
    <g id="line2d_36">
     <path d="M 151.2 242.580937 
L 187.2 242.580937 
" style="fill:none;stroke:#e377c2;stroke-linecap:square;stroke-width:1.5;"/>
    </g>
    <g id="line2d_37"/>
    <g id="text_21">
     <!-- 0.061 -->
     <g transform="translate(201.6 248.880937)scale(0.18 -0.18)">
      <use xlink:href="#DejaVuSans-30"/>
      <use x="63.623047" xlink:href="#DejaVuSans-2e"/>
      <use x="95.410156" xlink:href="#DejaVuSans-30"/>
      <use x="159.033203" xlink:href="#DejaVuSans-36"/>
      <use x="222.65625" xlink:href="#DejaVuSans-31"/>
     </g>
    </g>
    <g id="line2d_38">
     <path d="M 151.2 269.001562 
L 187.2 269.001562 
" style="fill:none;stroke:#7f7f7f;stroke-linecap:square;stroke-width:1.5;"/>
    </g>
    <g id="line2d_39"/>
    <g id="text_22">
     <!-- 0.071 -->
     <g transform="translate(201.6 275.301562)scale(0.18 -0.18)">
      <defs>
       <path d="M 525 4666 
L 3525 4666 
L 3525 4397 
L 1831 0 
L 1172 0 
L 2766 4134 
L 525 4134 
L 525 4666 
z
" id="DejaVuSans-37" transform="scale(0.015625)"/>
      </defs>
      <use xlink:href="#DejaVuSans-30"/>
      <use x="63.623047" xlink:href="#DejaVuSans-2e"/>
      <use x="95.410156" xlink:href="#DejaVuSans-30"/>
      <use x="159.033203" xlink:href="#DejaVuSans-37"/>
      <use x="222.65625" xlink:href="#DejaVuSans-31"/>
     </g>
    </g>
    <g id="line2d_40">
     <path d="M 151.2 295.422188 
L 187.2 295.422188 
" style="fill:none;stroke:#bcbd22;stroke-linecap:square;stroke-width:1.5;"/>
    </g>
    <g id="line2d_41"/>
    <g id="text_23">
     <!-- 0.081 -->
     <g transform="translate(201.6 301.722188)scale(0.18 -0.18)">
      <use xlink:href="#DejaVuSans-30"/>
      <use x="63.623047" xlink:href="#DejaVuSans-2e"/>
      <use x="95.410156" xlink:href="#DejaVuSans-30"/>
      <use x="159.033203" xlink:href="#DejaVuSans-38"/>
      <use x="222.65625" xlink:href="#DejaVuSans-31"/>
     </g>
    </g>
    <g id="line2d_42">
     <path d="M 151.2 321.842812 
L 187.2 321.842812 
" style="fill:none;stroke:#17becf;stroke-linecap:square;stroke-width:1.5;"/>
    </g>
    <g id="line2d_43"/>
    <g id="text_24">
     <!-- 0.091 -->
     <g transform="translate(201.6 328.142812)scale(0.18 -0.18)">
      <defs>
       <path d="M 703 97 
L 703 672 
Q 941 559 1184 500 
Q 1428 441 1663 441 
Q 2288 441 2617 861 
Q 2947 1281 2994 2138 
Q 2813 1869 2534 1725 
Q 2256 1581 1919 1581 
Q 1219 1581 811 2004 
Q 403 2428 403 3163 
Q 403 3881 828 4315 
Q 1253 4750 1959 4750 
Q 2769 4750 3195 4129 
Q 3622 3509 3622 2328 
Q 3622 1225 3098 567 
Q 2575 -91 1691 -91 
Q 1453 -91 1209 -44 
Q 966 3 703 97 
z
M 1959 2075 
Q 2384 2075 2632 2365 
Q 2881 2656 2881 3163 
Q 2881 3666 2632 3958 
Q 2384 4250 1959 4250 
Q 1534 4250 1286 3958 
Q 1038 3666 1038 3163 
Q 1038 2656 1286 2365 
Q 1534 2075 1959 2075 
z
" id="DejaVuSans-39" transform="scale(0.015625)"/>
      </defs>
      <use xlink:href="#DejaVuSans-30"/>
      <use x="63.623047" xlink:href="#DejaVuSans-2e"/>
      <use x="95.410156" xlink:href="#DejaVuSans-30"/>
      <use x="159.033203" xlink:href="#DejaVuSans-39"/>
      <use x="222.65625" xlink:href="#DejaVuSans-31"/>
     </g>
    </g>
   </g>
  </g>
 </g>
 <defs>
  <clipPath id="p313975d93f">
   <rect height="388.08" width="837" x="135" y="60.48"/>
  </clipPath>
 </defs>
</svg>
