<?xml version="1.0" encoding="utf-8" standalone="no"?>
<!DOCTYPE svg PUBLIC "-//W3C//DTD SVG 1.1//EN"
  "http://www.w3.org/Graphics/SVG/1.1/DTD/svg11.dtd">
<svg height="504pt" version="1.1" viewBox="0 0 1080 504" width="1080pt" xmlns="http://www.w3.org/2000/svg" xmlns:xlink="http://www.w3.org/1999/xlink">
 <metadata>
  <rdf:RDF xmlns:cc="http://creativecommons.org/ns#" xmlns:dc="http://purl.org/dc/elements/1.1/" xmlns:rdf="http://www.w3.org/1999/02/22-rdf-syntax-ns#">
   <cc:Work>
    <dc:type rdf:resource="http://purl.org/dc/dcmitype/StillImage"/>
    <dc:date>2022-01-07T13:24:53.269018</dc:date>
    <dc:format>image/svg+xml</dc:format>
    <dc:creator>
     <cc:Agent>
      <dc:title>Matplotlib v3.4.3, https://matplotlib.org/</dc:title>
     </cc:Agent>
    </dc:creator>
   </cc:Work>
  </rdf:RDF>
 </metadata>
 <defs>
  <style type="text/css">*{stroke-linecap:butt;stroke-linejoin:round;}</style>
 </defs>
 <g id="figure_1">
  <g id="patch_1">
   <path d="M 0 504 
L 1080 504 
L 1080 0 
L 0 0 
z
" style="fill:#ffffff;"/>
  </g>
  <g id="axes_1">
   <g id="patch_2">
    <path d="M 135 448.56 
L 972 448.56 
L 972 60.48 
L 135 60.48 
z
" style="fill:#ffffff;"/>
   </g>
   <g id="matplotlib.axis_1">
    <g id="xtick_1">
     <g id="line2d_1">
      <defs>
       <path d="M 0 0 
L 0 3.5 
" id="m164b99a27c" style="stroke:#000000;stroke-width:0.8;"/>
      </defs>
      <g>
       <use style="stroke:#000000;stroke-width:0.8;" x="135" xlink:href="#m164b99a27c" y="448.56"/>
      </g>
     </g>
     <g id="text_1">
      <!-- 0.0 -->
      <g transform="translate(120.687187 469.237188)scale(0.18 -0.18)">
       <defs>
        <path d="M 2034 4250 
Q 1547 4250 1301 3770 
Q 1056 3291 1056 2328 
Q 1056 1369 1301 889 
Q 1547 409 2034 409 
Q 2525 409 2770 889 
Q 3016 1369 3016 2328 
Q 3016 3291 2770 3770 
Q 2525 4250 2034 4250 
z
M 2034 4750 
Q 2819 4750 3233 4129 
Q 3647 3509 3647 2328 
Q 3647 1150 3233 529 
Q 2819 -91 2034 -91 
Q 1250 -91 836 529 
Q 422 1150 422 2328 
Q 422 3509 836 4129 
Q 1250 4750 2034 4750 
z
" id="DejaVuSans-30" transform="scale(0.015625)"/>
        <path d="M 684 794 
L 1344 794 
L 1344 0 
L 684 0 
L 684 794 
z
" id="DejaVuSans-2e" transform="scale(0.015625)"/>
       </defs>
       <use xlink:href="#DejaVuSans-30"/>
       <use x="63.623047" xlink:href="#DejaVuSans-2e"/>
       <use x="95.410156" xlink:href="#DejaVuSans-30"/>
      </g>
     </g>
    </g>
    <g id="xtick_2">
     <g id="line2d_2">
      <g>
       <use style="stroke:#000000;stroke-width:0.8;" x="302.4" xlink:href="#m164b99a27c" y="448.56"/>
      </g>
     </g>
     <g id="text_2">
      <!-- 0.2 -->
      <g transform="translate(288.087187 469.237188)scale(0.18 -0.18)">
       <defs>
        <path d="M 1228 531 
L 3431 531 
L 3431 0 
L 469 0 
L 469 531 
Q 828 903 1448 1529 
Q 2069 2156 2228 2338 
Q 2531 2678 2651 2914 
Q 2772 3150 2772 3378 
Q 2772 3750 2511 3984 
Q 2250 4219 1831 4219 
Q 1534 4219 1204 4116 
Q 875 4013 500 3803 
L 500 4441 
Q 881 4594 1212 4672 
Q 1544 4750 1819 4750 
Q 2544 4750 2975 4387 
Q 3406 4025 3406 3419 
Q 3406 3131 3298 2873 
Q 3191 2616 2906 2266 
Q 2828 2175 2409 1742 
Q 1991 1309 1228 531 
z
" id="DejaVuSans-32" transform="scale(0.015625)"/>
       </defs>
       <use xlink:href="#DejaVuSans-30"/>
       <use x="63.623047" xlink:href="#DejaVuSans-2e"/>
       <use x="95.410156" xlink:href="#DejaVuSans-32"/>
      </g>
     </g>
    </g>
    <g id="xtick_3">
     <g id="line2d_3">
      <g>
       <use style="stroke:#000000;stroke-width:0.8;" x="469.8" xlink:href="#m164b99a27c" y="448.56"/>
      </g>
     </g>
     <g id="text_3">
      <!-- 0.4 -->
      <g transform="translate(455.487188 469.237188)scale(0.18 -0.18)">
       <defs>
        <path d="M 2419 4116 
L 825 1625 
L 2419 1625 
L 2419 4116 
z
M 2253 4666 
L 3047 4666 
L 3047 1625 
L 3713 1625 
L 3713 1100 
L 3047 1100 
L 3047 0 
L 2419 0 
L 2419 1100 
L 313 1100 
L 313 1709 
L 2253 4666 
z
" id="DejaVuSans-34" transform="scale(0.015625)"/>
       </defs>
       <use xlink:href="#DejaVuSans-30"/>
       <use x="63.623047" xlink:href="#DejaVuSans-2e"/>
       <use x="95.410156" xlink:href="#DejaVuSans-34"/>
      </g>
     </g>
    </g>
    <g id="xtick_4">
     <g id="line2d_4">
      <g>
       <use style="stroke:#000000;stroke-width:0.8;" x="637.2" xlink:href="#m164b99a27c" y="448.56"/>
      </g>
     </g>
     <g id="text_4">
      <!-- 0.6 -->
      <g transform="translate(622.887188 469.237188)scale(0.18 -0.18)">
       <defs>
        <path d="M 2113 2584 
Q 1688 2584 1439 2293 
Q 1191 2003 1191 1497 
Q 1191 994 1439 701 
Q 1688 409 2113 409 
Q 2538 409 2786 701 
Q 3034 994 3034 1497 
Q 3034 2003 2786 2293 
Q 2538 2584 2113 2584 
z
M 3366 4563 
L 3366 3988 
Q 3128 4100 2886 4159 
Q 2644 4219 2406 4219 
Q 1781 4219 1451 3797 
Q 1122 3375 1075 2522 
Q 1259 2794 1537 2939 
Q 1816 3084 2150 3084 
Q 2853 3084 3261 2657 
Q 3669 2231 3669 1497 
Q 3669 778 3244 343 
Q 2819 -91 2113 -91 
Q 1303 -91 875 529 
Q 447 1150 447 2328 
Q 447 3434 972 4092 
Q 1497 4750 2381 4750 
Q 2619 4750 2861 4703 
Q 3103 4656 3366 4563 
z
" id="DejaVuSans-36" transform="scale(0.015625)"/>
       </defs>
       <use xlink:href="#DejaVuSans-30"/>
       <use x="63.623047" xlink:href="#DejaVuSans-2e"/>
       <use x="95.410156" xlink:href="#DejaVuSans-36"/>
      </g>
     </g>
    </g>
    <g id="xtick_5">
     <g id="line2d_5">
      <g>
       <use style="stroke:#000000;stroke-width:0.8;" x="804.6" xlink:href="#m164b99a27c" y="448.56"/>
      </g>
     </g>
     <g id="text_5">
      <!-- 0.8 -->
      <g transform="translate(790.287188 469.237188)scale(0.18 -0.18)">
       <defs>
        <path d="M 2034 2216 
Q 1584 2216 1326 1975 
Q 1069 1734 1069 1313 
Q 1069 891 1326 650 
Q 1584 409 2034 409 
Q 2484 409 2743 651 
Q 3003 894 3003 1313 
Q 3003 1734 2745 1975 
Q 2488 2216 2034 2216 
z
M 1403 2484 
Q 997 2584 770 2862 
Q 544 3141 544 3541 
Q 544 4100 942 4425 
Q 1341 4750 2034 4750 
Q 2731 4750 3128 4425 
Q 3525 4100 3525 3541 
Q 3525 3141 3298 2862 
Q 3072 2584 2669 2484 
Q 3125 2378 3379 2068 
Q 3634 1759 3634 1313 
Q 3634 634 3220 271 
Q 2806 -91 2034 -91 
Q 1263 -91 848 271 
Q 434 634 434 1313 
Q 434 1759 690 2068 
Q 947 2378 1403 2484 
z
M 1172 3481 
Q 1172 3119 1398 2916 
Q 1625 2713 2034 2713 
Q 2441 2713 2670 2916 
Q 2900 3119 2900 3481 
Q 2900 3844 2670 4047 
Q 2441 4250 2034 4250 
Q 1625 4250 1398 4047 
Q 1172 3844 1172 3481 
z
" id="DejaVuSans-38" transform="scale(0.015625)"/>
       </defs>
       <use xlink:href="#DejaVuSans-30"/>
       <use x="63.623047" xlink:href="#DejaVuSans-2e"/>
       <use x="95.410156" xlink:href="#DejaVuSans-38"/>
      </g>
     </g>
    </g>
    <g id="xtick_6">
     <g id="line2d_6">
      <g>
       <use style="stroke:#000000;stroke-width:0.8;" x="972" xlink:href="#m164b99a27c" y="448.56"/>
      </g>
     </g>
     <g id="text_6">
      <!-- 1.0 -->
      <g transform="translate(957.687188 469.237188)scale(0.18 -0.18)">
       <defs>
        <path d="M 794 531 
L 1825 531 
L 1825 4091 
L 703 3866 
L 703 4441 
L 1819 4666 
L 2450 4666 
L 2450 531 
L 3481 531 
L 3481 0 
L 794 0 
L 794 531 
z
" id="DejaVuSans-31" transform="scale(0.015625)"/>
       </defs>
       <use xlink:href="#DejaVuSans-31"/>
       <use x="63.623047" xlink:href="#DejaVuSans-2e"/>
       <use x="95.410156" xlink:href="#DejaVuSans-30"/>
      </g>
     </g>
    </g>
    <g id="text_7">
     <!-- $FPR_{Fair}$ -->
     <g transform="translate(518.08 493.697187)scale(0.22 -0.22)">
      <defs>
       <path d="M 1081 4666 
L 3756 4666 
L 3653 4134 
L 1606 4134 
L 1338 2759 
L 3188 2759 
L 3084 2228 
L 1234 2228 
L 800 0 
L 172 0 
L 1081 4666 
z
" id="DejaVuSans-Oblique-46" transform="scale(0.015625)"/>
       <path d="M 1081 4666 
L 2541 4666 
Q 3178 4666 3512 4369 
Q 3847 4072 3847 3500 
Q 3847 2731 3353 2303 
Q 2859 1875 1966 1875 
L 1172 1875 
L 806 0 
L 172 0 
L 1081 4666 
z
M 1613 4147 
L 1275 2394 
L 2069 2394 
Q 2606 2394 2893 2669 
Q 3181 2944 3181 3456 
Q 3181 3784 2986 3965 
Q 2791 4147 2438 4147 
L 1613 4147 
z
" id="DejaVuSans-Oblique-50" transform="scale(0.015625)"/>
       <path d="M 1613 4147 
L 1294 2491 
L 2106 2491 
Q 2584 2491 2879 2755 
Q 3175 3019 3175 3444 
Q 3175 3784 2976 3965 
Q 2778 4147 2406 4147 
L 1613 4147 
z
M 2772 2241 
Q 2972 2194 3105 2009 
Q 3238 1825 3413 1275 
L 3809 0 
L 3144 0 
L 2778 1197 
Q 2638 1659 2453 1815 
Q 2269 1972 1888 1972 
L 1191 1972 
L 806 0 
L 172 0 
L 1081 4666 
L 2503 4666 
Q 3150 4666 3495 4373 
Q 3841 4081 3841 3531 
Q 3841 3044 3547 2687 
Q 3253 2331 2772 2241 
z
" id="DejaVuSans-Oblique-52" transform="scale(0.015625)"/>
       <path d="M 3438 1997 
L 3047 0 
L 2472 0 
L 2578 531 
Q 2325 219 2001 64 
Q 1678 -91 1281 -91 
Q 834 -91 548 182 
Q 263 456 263 884 
Q 263 1497 752 1853 
Q 1241 2209 2100 2209 
L 2900 2209 
L 2931 2363 
Q 2938 2388 2941 2417 
Q 2944 2447 2944 2509 
Q 2944 2788 2717 2942 
Q 2491 3097 2081 3097 
Q 1800 3097 1504 3025 
Q 1209 2953 897 2809 
L 997 3341 
Q 1322 3463 1633 3523 
Q 1944 3584 2234 3584 
Q 2853 3584 3176 3315 
Q 3500 3047 3500 2534 
Q 3500 2431 3484 2292 
Q 3469 2153 3438 1997 
z
M 2816 1759 
L 2241 1759 
Q 1534 1759 1195 1570 
Q 856 1381 856 984 
Q 856 709 1029 553 
Q 1203 397 1509 397 
Q 1978 397 2328 733 
Q 2678 1069 2791 1631 
L 2816 1759 
z
" id="DejaVuSans-Oblique-61" transform="scale(0.015625)"/>
       <path d="M 1172 4863 
L 1747 4863 
L 1606 4134 
L 1031 4134 
L 1172 4863 
z
M 909 3500 
L 1484 3500 
L 800 0 
L 225 0 
L 909 3500 
z
" id="DejaVuSans-Oblique-69" transform="scale(0.015625)"/>
       <path d="M 2853 2969 
Q 2766 3016 2653 3041 
Q 2541 3066 2413 3066 
Q 1953 3066 1609 2717 
Q 1266 2369 1153 1784 
L 800 0 
L 225 0 
L 909 3500 
L 1484 3500 
L 1375 2956 
Q 1603 3259 1920 3421 
Q 2238 3584 2597 3584 
Q 2691 3584 2781 3573 
Q 2872 3563 2963 3538 
L 2853 2969 
z
" id="DejaVuSans-Oblique-72" transform="scale(0.015625)"/>
      </defs>
      <use transform="translate(0 0.09375)" xlink:href="#DejaVuSans-Oblique-46"/>
      <use transform="translate(57.519531 0.09375)" xlink:href="#DejaVuSans-Oblique-50"/>
      <use transform="translate(117.822266 0.09375)" xlink:href="#DejaVuSans-Oblique-52"/>
      <use transform="translate(187.304688 -16.3125)scale(0.7)" xlink:href="#DejaVuSans-Oblique-46"/>
      <use transform="translate(227.568359 -16.3125)scale(0.7)" xlink:href="#DejaVuSans-Oblique-61"/>
      <use transform="translate(270.463867 -16.3125)scale(0.7)" xlink:href="#DejaVuSans-Oblique-69"/>
      <use transform="translate(289.912109 -16.3125)scale(0.7)" xlink:href="#DejaVuSans-Oblique-72"/>
     </g>
    </g>
   </g>
   <g id="matplotlib.axis_2">
    <g id="ytick_1">
     <g id="line2d_7">
      <defs>
       <path d="M 0 0 
L -3.5 0 
" id="m366adb0a92" style="stroke:#000000;stroke-width:0.8;"/>
      </defs>
      <g>
       <use style="stroke:#000000;stroke-width:0.8;" x="135" xlink:href="#m366adb0a92" y="448.56"/>
      </g>
     </g>
     <g id="text_8">
      <!-- 0.0 -->
      <g transform="translate(99.374375 455.398594)scale(0.18 -0.18)">
       <use xlink:href="#DejaVuSans-30"/>
       <use x="63.623047" xlink:href="#DejaVuSans-2e"/>
       <use x="95.410156" xlink:href="#DejaVuSans-30"/>
      </g>
     </g>
    </g>
    <g id="ytick_2">
     <g id="line2d_8">
      <g>
       <use style="stroke:#000000;stroke-width:0.8;" x="135" xlink:href="#m366adb0a92" y="370.944"/>
      </g>
     </g>
     <g id="text_9">
      <!-- 0.2 -->
      <g transform="translate(99.374375 377.782594)scale(0.18 -0.18)">
       <use xlink:href="#DejaVuSans-30"/>
       <use x="63.623047" xlink:href="#DejaVuSans-2e"/>
       <use x="95.410156" xlink:href="#DejaVuSans-32"/>
      </g>
     </g>
    </g>
    <g id="ytick_3">
     <g id="line2d_9">
      <g>
       <use style="stroke:#000000;stroke-width:0.8;" x="135" xlink:href="#m366adb0a92" y="293.328"/>
      </g>
     </g>
     <g id="text_10">
      <!-- 0.4 -->
      <g transform="translate(99.374375 300.166594)scale(0.18 -0.18)">
       <use xlink:href="#DejaVuSans-30"/>
       <use x="63.623047" xlink:href="#DejaVuSans-2e"/>
       <use x="95.410156" xlink:href="#DejaVuSans-34"/>
      </g>
     </g>
    </g>
    <g id="ytick_4">
     <g id="line2d_10">
      <g>
       <use style="stroke:#000000;stroke-width:0.8;" x="135" xlink:href="#m366adb0a92" y="215.712"/>
      </g>
     </g>
     <g id="text_11">
      <!-- 0.6 -->
      <g transform="translate(99.374375 222.550594)scale(0.18 -0.18)">
       <use xlink:href="#DejaVuSans-30"/>
       <use x="63.623047" xlink:href="#DejaVuSans-2e"/>
       <use x="95.410156" xlink:href="#DejaVuSans-36"/>
      </g>
     </g>
    </g>
    <g id="ytick_5">
     <g id="line2d_11">
      <g>
       <use style="stroke:#000000;stroke-width:0.8;" x="135" xlink:href="#m366adb0a92" y="138.096"/>
      </g>
     </g>
     <g id="text_12">
      <!-- 0.8 -->
      <g transform="translate(99.374375 144.934594)scale(0.18 -0.18)">
       <use xlink:href="#DejaVuSans-30"/>
       <use x="63.623047" xlink:href="#DejaVuSans-2e"/>
       <use x="95.410156" xlink:href="#DejaVuSans-38"/>
      </g>
     </g>
    </g>
    <g id="ytick_6">
     <g id="line2d_12">
      <g>
       <use style="stroke:#000000;stroke-width:0.8;" x="135" xlink:href="#m366adb0a92" y="60.48"/>
      </g>
     </g>
     <g id="text_13">
      <!-- 1.0 -->
      <g transform="translate(99.374375 67.318594)scale(0.18 -0.18)">
       <use xlink:href="#DejaVuSans-31"/>
       <use x="63.623047" xlink:href="#DejaVuSans-2e"/>
       <use x="95.410156" xlink:href="#DejaVuSans-30"/>
      </g>
     </g>
    </g>
    <g id="text_14">
     <!-- $TPR_{Fair}$ -->
     <g transform="translate(90.799062 290.27)rotate(-90)scale(0.22 -0.22)">
      <defs>
       <path d="M 378 4666 
L 4325 4666 
L 4225 4134 
L 2559 4134 
L 1759 0 
L 1125 0 
L 1925 4134 
L 275 4134 
L 378 4666 
z
" id="DejaVuSans-Oblique-54" transform="scale(0.015625)"/>
      </defs>
      <use transform="translate(0 0.09375)" xlink:href="#DejaVuSans-Oblique-54"/>
      <use transform="translate(61.083984 0.09375)" xlink:href="#DejaVuSans-Oblique-50"/>
      <use transform="translate(121.386719 0.09375)" xlink:href="#DejaVuSans-Oblique-52"/>
      <use transform="translate(190.869141 -16.3125)scale(0.7)" xlink:href="#DejaVuSans-Oblique-46"/>
      <use transform="translate(231.132812 -16.3125)scale(0.7)" xlink:href="#DejaVuSans-Oblique-61"/>
      <use transform="translate(274.02832 -16.3125)scale(0.7)" xlink:href="#DejaVuSans-Oblique-69"/>
      <use transform="translate(293.476562 -16.3125)scale(0.7)" xlink:href="#DejaVuSans-Oblique-72"/>
     </g>
    </g>
   </g>
   <g id="line2d_13">
    <path clip-path="url(#p9f6b182e52)" d="M 135 448.56 
L 972 60.48 
" style="fill:none;stroke:#ff0000;stroke-dasharray:5.55,2.4;stroke-dashoffset:0;stroke-width:1.5;"/>
   </g>
   <g id="line2d_14">
    <path clip-path="url(#p9f6b182e52)" d="M 972 60.48 
L 905.067601 68.735395 
L 865.937139 76.541955 
L 833.889476 84.795479 
L 806.063762 92.593932 
L 783.141372 99.444727 
L 765.701972 105.749646 
L 749.756213 112.292959 
L 736.042474 118.530619 
L 723.51102 124.652152 
L 712.194222 129.963549 
L 702.340961 134.068967 
L 692.876313 138.140658 
L 682.942892 142.814755 
L 671.972375 147.05 
L 662.936379 151.305839 
L 654.747562 155.447299 
L 647.86336 158.775441 
L 639.639443 162.232683 
L 632.026727 166.158682 
L 625.266154 170.238065 
L 619.443116 174.495548 
L 613.153299 177.511656 
L 607.358235 180.148284 
L 601.547858 183.3443 
L 596.444879 186.126908 
L 591.609436 188.684267 
L 586.525126 191.517354 
L 581.65731 194.331386 
L 577.181857 197.023688 
L 571.873422 199.812775 
L 566.444883 202.741666 
L 561.425605 205.370286 
L 556.88444 207.892507 
L 552.052694 210.736466 
L 547.251088 213.04971 
L 542.12854 215.504584 
L 537.497016 218.135711 
L 533.337956 220.624934 
L 529.299153 222.805834 
L 525.362934 224.316284 
L 521.525473 225.922556 
L 517.909091 227.566107 
L 514.158922 229.330016 
L 510.223071 230.980661 
L 506.386879 232.569023 
L 502.85695 233.913007 
L 499.049696 235.603979 
L 495.688673 237.483317 
L 492.543151 239.400587 
L 489.237975 241.164292 
L 486.086985 243.221559 
L 482.369701 245.042925 
L 478.810684 246.712421 
L 475.724581 248.355952 
L 472.993835 249.668124 
L 470.181611 251.055779 
L 467.095109 252.224286 
L 463.919118 253.532916 
L 461.27448 254.90789 
L 458.470125 256.432865 
L 455.479459 257.757559 
L 452.856443 259.304082 
L 449.591422 260.92064 
L 446.814445 262.60885 
L 444.005246 264.234948 
L 441.241521 265.605626 
L 438.373198 267.492309 
L 435.519071 268.693585 
L 433.057821 269.97147 
L 430.586816 271.164588 
L 427.864617 272.710236 
L 425.512195 274.01522 
L 422.858949 275.223382 
L 420.570446 276.431478 
L 417.928203 277.471823 
L 415.529213 278.582673 
L 413.284136 279.674943 
L 410.869189 280.850515 
L 408.436106 281.890546 
L 405.822806 282.883119 
L 403.287349 284.014329 
L 400.967619 284.994604 
L 398.51262 286.291368 
L 396.193042 287.577984 
L 393.97759 288.774039 
L 391.572608 290.048023 
L 388.895357 291.208998 
L 386.764846 292.489918 
L 384.648245 293.58599 
L 382.505103 294.79076 
L 380.538166 295.761692 
L 378.477195 296.488241 
L 376.055221 297.25875 
L 374.042103 297.938383 
L 371.54612 298.783023 
L 369.264798 299.567891 
L 366.882767 300.32419 
L 364.87072 301.102196 
L 362.865211 302.067869 
L 360.698339 303.046372 
" style="fill:none;stroke:#1f77b4;stroke-linecap:square;stroke-width:1.5;"/>
   </g>
   <g id="line2d_15">
    <path clip-path="url(#p9f6b182e52)" d="M 972 60.48 
L 620.34424 126.361705 
L 505.994005 171.763136 
L 440.819961 207.548715 
L 399.266027 235.120814 
L 369.19931 255.615776 
L 348.507853 271.212488 
L 333 285.245199 
L 320.626608 297.826869 
L 310.631 307.967551 
L 302.692913 316.345245 
L 295.37418 322.587332 
L 288.493043 328.332654 
L 282.223835 334.370031 
L 276.044448 339.840295 
L 270.814263 344.803738 
L 266.014286 349.825 
L 262.124944 353.539431 
L 257.762174 357.282329 
L 254.082454 361.220834 
L 250.781429 365.009924 
L 248.009915 368.678263 
L 245.173011 371.000701 
L 242.485318 372.983185 
L 240.118365 375.284801 
L 237.833262 377.097504 
L 235.752279 378.914129 
L 233.643952 380.65417 
L 231.747977 382.388204 
L 229.831847 383.972898 
L 227.737403 385.546922 
L 225.55829 387.196209 
L 223.708024 388.797321 
L 222.076365 390.167137 
L 220.283889 391.811855 
L 218.56296 393.226881 
L 216.803943 394.684715 
L 215.354184 396.111863 
L 213.992831 397.455426 
L 212.688562 398.93858 
L 211.41395 399.91196 
L 210.10196 400.717668 
L 208.887692 401.390212 
L 207.833464 402.083353 
L 206.654091 402.838408 
L 205.472725 403.471981 
L 204.192592 404.047574 
L 202.870811 404.671914 
L 201.717589 405.360638 
L 200.770867 406.065683 
L 199.819087 406.718074 
L 198.922481 407.377345 
L 197.78162 408.060998 
L 196.853113 408.695377 
L 195.952428 409.214019 
L 194.995164 409.655041 
L 194.245909 410.155499 
L 193.518037 410.556829 
L 192.61542 410.945294 
L 192.046927 411.447631 
L 191.279042 411.94432 
L 190.412107 412.439306 
L 189.604238 412.987886 
L 188.762027 413.548459 
L 188.112873 414.079718 
L 187.333848 414.616379 
L 186.696916 415.070863 
L 186.049525 415.720816 
L 185.359568 416.182846 
L 184.737652 416.684932 
L 184.250652 417.12738 
L 183.67981 417.555794 
L 183.132609 417.915097 
L 182.407336 418.242202 
L 181.901764 418.545098 
L 181.35735 418.804471 
L 180.811926 419.189747 
L 180.364612 419.461378 
L 179.90964 419.81044 
L 179.420015 420.04895 
L 178.929258 420.351415 
L 178.404816 420.674699 
L 177.943097 420.928172 
L 177.286643 421.248715 
L 176.782537 421.537166 
L 176.321368 421.795224 
L 175.819104 422.05957 
L 175.362058 422.299768 
L 174.971969 422.625435 
L 174.524399 422.88021 
L 174.008878 423.17624 
L 173.563126 423.400786 
L 173.060988 423.561627 
L 172.651181 423.758485 
L 172.284218 423.926067 
L 171.841903 424.254219 
L 171.425039 424.452234 
L 171.01032 424.713708 
L 170.548503 424.883716 
L 170.17919 425.144588 
L 169.863845 425.452998 
" style="fill:none;stroke:#ff7f0e;stroke-linecap:square;stroke-width:1.5;"/>
   </g>
   <g id="line2d_16">
    <path clip-path="url(#p9f6b182e52)" d="M 972 60.48 
L 905.108235 68.735395 
L 865.998755 76.541955 
L 833.966777 84.795479 
L 806.153596 92.593932 
L 783.240917 99.444727 
L 765.808578 105.749646 
L 749.860837 112.292959 
L 736.151814 118.530619 
L 723.615964 124.652152 
L 712.302558 129.963549 
L 702.45226 134.068967 
L 692.980978 138.140658 
L 683.05017 142.814755 
L 672.082444 147.05 
L 663.048814 151.305839 
L 654.862123 155.447299 
L 647.979732 158.775441 
L 639.757794 162.232683 
L 632.135907 166.158682 
L 625.376864 170.238065 
L 619.55515 174.495548 
L 613.266804 177.511656 
L 607.473188 180.148284 
L 601.664155 183.3443 
L 596.562229 186.126908 
L 591.727864 188.684267 
L 586.64466 191.517354 
L 581.778077 194.331386 
L 577.30364 197.023688 
L 571.997451 199.812775 
L 566.569724 202.741666 
L 561.551267 205.370286 
L 557.010821 207.892507 
L 552.179971 210.736466 
L 547.379064 213.04971 
L 542.257318 215.504584 
L 537.626338 218.135711 
L 533.46782 220.624934 
L 529.416451 222.805834 
L 525.480663 224.316284 
L 521.643845 225.922556 
L 518.028016 227.566107 
L 514.27838 229.330016 
L 510.343075 230.980661 
L 506.507415 232.569023 
L 502.978024 233.913007 
L 499.17135 235.603979 
L 495.810984 237.483317 
L 492.66609 239.400587 
L 489.361458 241.164292 
L 486.211092 243.221559 
L 482.494512 245.042925 
L 478.936069 246.712421 
L 475.850543 248.355952 
L 473.120322 249.668124 
L 470.308711 251.055779 
L 467.22281 252.224286 
L 464.047288 253.532916 
L 461.40315 254.90789 
L 458.599329 256.432865 
L 455.609258 257.757559 
L 452.986793 259.304082 
L 449.722339 260.92064 
L 446.945909 262.60885 
L 444.137333 264.234948 
L 441.374137 265.605626 
L 438.506318 267.492309 
L 435.652858 268.693585 
L 433.192067 269.97147 
L 430.721628 271.164588 
L 428 272.710236 
L 425.648031 274.01522 
L 422.995282 275.223382 
L 420.707317 276.431478 
L 418.065633 277.471823 
L 415.667152 278.582673 
L 413.422545 279.674943 
L 411.008043 280.850515 
L 408.575497 281.890546 
L 405.962629 282.883119 
L 403.427574 284.014329 
L 401.091517 284.994604 
L 398.636993 286.291368 
L 396.317758 287.577984 
L 394.102703 288.774039 
L 391.698166 290.048023 
L 389.021466 291.208998 
L 386.891345 292.489918 
L 384.77514 293.58599 
L 382.632272 294.79076 
L 380.66563 295.761692 
L 378.605022 296.488241 
L 376.183515 297.25875 
L 374.170647 297.938383 
L 371.674998 298.783023 
L 369.393995 299.567891 
L 367.012228 300.32419 
L 365.000463 301.102196 
L 362.995224 302.067869 
L 360.828694 303.046372 
" style="fill:none;stroke:#2ca02c;stroke-linecap:square;stroke-width:1.5;"/>
   </g>
   <g id="line2d_17">
    <path clip-path="url(#p9f6b182e52)" d="M 972 60.48 
L 794.578717 86.115185 
L 707.830146 108.012628 
L 646.169275 128.704475 
L 600.62451 147.208278 
L 565.113551 162.248557 
L 539.064217 174.684011 
L 518.455145 187.211818 
L 501.353555 198.669742 
L 487.345642 208.767367 
L 475.500214 217.183736 
L 464.5401 223.641491 
L 454.568005 229.927723 
L 444.781341 236.592084 
L 434.71005 243.222961 
L 426.253858 249.600067 
L 418.23818 255.965691 
L 411.338506 260.626033 
L 403.993647 265.701851 
L 397.478594 271.036877 
L 391.622589 276.43457 
L 386.603013 281.794187 
L 381.311147 285.240388 
L 376.243515 288.398527 
L 371.56304 292.039364 
L 367.430091 294.955596 
L 363.709285 297.733376 
L 359.709301 300.606677 
L 356.03411 303.57249 
L 352.523586 306.279003 
L 348.625533 308.94653 
L 344.807537 311.608258 
L 341.122154 314.266019 
L 337.850483 316.57664 
L 334.47104 319.09517 
L 331.1147 321.428111 
L 327.491449 323.729519 
L 324.541522 326.032365 
L 321.583859 328.341873 
L 318.769273 330.435783 
L 316.161987 331.904854 
L 313.583765 333.336951 
L 311.065822 334.661707 
L 308.589695 336.030427 
L 306.0227 337.446419 
L 303.564837 338.630247 
L 301.180093 339.760375 
L 298.635789 341.064313 
L 296.281631 342.528713 
L 294.195855 344.029102 
L 292.212887 345.325574 
L 290.10769 346.84896 
L 287.691735 348.192974 
L 285.510332 349.426865 
L 283.551715 350.584508 
L 281.67831 351.571981 
L 279.932205 352.571621 
L 278.064017 353.457391 
L 276.240267 354.380805 
L 274.709121 355.371165 
L 273.167083 356.429439 
L 271.387068 357.420617 
L 269.837822 358.550276 
L 268.032485 359.684889 
L 266.444582 360.816222 
L 264.715824 361.950375 
L 263.087607 362.792495 
L 261.640725 364.045996 
L 259.989893 364.91713 
L 258.603785 365.913861 
L 257.30432 366.727832 
L 255.717837 367.70532 
L 254.411053 368.548101 
L 253.052502 369.285145 
L 251.838832 369.992779 
L 250.42405 370.64243 
L 249.042916 371.337605 
L 247.841535 372.063203 
L 246.62092 372.804474 
L 245.166862 373.416885 
L 243.807106 374.078933 
L 242.504994 374.734158 
L 241.325681 375.332762 
L 240.035208 376.127615 
L 238.922819 376.846397 
L 237.773351 377.548168 
L 236.532555 378.222718 
L 235.30785 378.926573 
L 234.21509 379.676175 
L 233.108386 380.285594 
L 231.941408 380.952708 
L 230.874272 381.499776 
L 229.776525 381.914413 
L 228.540656 382.370791 
L 227.562703 382.817379 
L 226.375361 383.346739 
L 225.242132 383.850657 
L 224.036733 384.302433 
L 223.08098 384.752339 
L 222.058198 385.395567 
L 220.986156 385.999883 
" style="fill:none;stroke:#d62728;stroke-linecap:square;stroke-width:1.5;"/>
   </g>
   <g id="line2d_18">
    <path clip-path="url(#p9f6b182e52)" d="M 972 60.48 
L 853.950673 74.120709 
L 791.027027 85.995029 
L 742.092636 98.581892 
L 702.27609 110.142267 
L 669.833935 120.143774 
L 646.296074 129.180517 
L 624.882799 138.286158 
L 607.152772 147.057413 
L 591.775819 155.036024 
L 578.324242 162.097329 
L 566.761151 167.705676 
L 555.59625 172.817422 
L 543.87433 178.726696 
L 531.642461 184.097361 
L 521.444142 189.523648 
L 511.997488 194.831294 
L 504.274023 198.984367 
L 495.605565 203.328713 
L 487.570164 208.405144 
L 480.460144 213.679864 
L 474.318912 218.959401 
L 467.814524 222.626703 
L 461.622188 225.651813 
L 455.763173 229.349213 
L 450.545507 232.437785 
L 445.787627 235.262617 
L 440.629432 238.272748 
L 435.902375 241.460195 
L 431.559658 244.288518 
L 426.456455 247.28437 
L 421.523253 250.294126 
L 416.789597 253.086776 
L 412.59995 255.711554 
L 408.024761 258.660579 
L 403.676882 261.155192 
L 399.136808 263.66862 
L 395.383202 266.325555 
L 391.52516 268.944931 
L 387.945079 271.127076 
L 384.525161 272.738393 
L 381.051626 274.294021 
L 377.793893 275.8419 
L 374.618457 277.622785 
L 371.193759 279.251728 
L 368.024955 280.791 
L 364.990079 282.189266 
L 361.723404 283.807491 
L 358.745188 285.607576 
L 355.963222 287.399653 
L 353.141031 289.070343 
L 350.424016 290.991719 
L 347.35993 292.769612 
L 344.383433 294.317495 
L 341.751016 295.841243 
L 339.359681 297.034601 
L 337.087344 298.314188 
L 334.603046 299.39954 
L 332.058389 300.644971 
L 329.958609 301.895975 
L 327.671167 303.317013 
L 325.325179 304.57779 
L 323.225376 305.979727 
L 320.825387 307.414625 
L 318.642752 308.939777 
L 316.357259 310.410263 
L 314.262268 311.607724 
L 312.14528 313.360729 
L 309.980722 314.47381 
L 308.161947 315.687694 
L 306.326118 316.740797 
L 304.293061 318.116948 
L 302.485375 319.287714 
L 300.667723 320.269812 
L 298.98245 321.320088 
L 297.148665 322.21158 
L 295.295108 323.204599 
L 293.7944 324.152396 
L 292.031751 325.173423 
L 290.124263 326.020882 
L 288.263913 326.894588 
L 286.433098 327.872397 
L 284.829865 328.690181 
L 282.946789 329.736309 
L 281.393589 330.804724 
L 279.837876 331.818358 
L 278.037006 332.853672 
L 276.298209 333.826402 
L 274.877374 334.935947 
L 273.31413 335.790364 
L 271.78226 336.819724 
L 270.524085 337.65736 
L 269.051807 338.255268 
L 267.389949 338.925944 
L 266.053138 339.545942 
L 264.462068 340.280077 
L 262.972833 340.973156 
L 261.361855 341.6327 
L 260.077344 342.328235 
L 258.727171 343.160895 
L 257.303401 344.000621 
" style="fill:none;stroke:#9467bd;stroke-linecap:square;stroke-width:1.5;"/>
   </g>
   <g id="line2d_19">
    <path clip-path="url(#p9f6b182e52)" d="M 972 60.48 
L 863.669281 74.755527 
L 801.739815 86.96462 
L 754.332899 99.171634 
L 716.995266 110.771603 
L 685.882854 121.093809 
L 662.078755 129.905299 
L 642.756694 139.077231 
L 626.624952 147.707071 
L 613.220339 155.450504 
L 601.454924 162.267415 
L 590.679977 167.311528 
L 580.119498 172.311463 
L 569.946015 177.905208 
L 559.142259 183.339497 
L 549.932102 188.632848 
L 541.484133 194.196236 
L 534.010876 198.303873 
L 526.102721 202.573064 
L 518.950839 207.485935 
L 512.529348 212.510485 
L 506.916544 217.658671 
L 500.848558 221.087159 
L 495.228598 224.062411 
L 489.851319 227.729415 
L 485.138628 230.649636 
L 480.755847 233.39541 
L 476.146236 236.40823 
L 471.744244 239.468786 
L 467.666644 242.37049 
L 462.944221 245.308453 
L 458.158746 248.186716 
L 453.681244 251.116646 
L 449.637162 253.637065 
L 445.278234 256.484841 
L 440.98904 258.931892 
L 436.613723 261.499686 
L 432.709486 264.106263 
L 428.94933 266.646775 
L 425.339345 268.833954 
L 421.979087 270.375945 
L 418.610688 271.998098 
L 415.428267 273.511052 
L 412.153196 275.213845 
L 408.872585 276.905358 
L 405.618702 278.339714 
L 402.584459 279.64565 
L 399.284205 281.322806 
L 396.292462 283.100889 
L 393.615134 284.99607 
L 390.972963 286.686139 
L 388.185329 288.667031 
L 385.038746 290.463519 
L 381.980238 291.992111 
L 379.285242 293.482348 
L 376.947312 294.701624 
L 374.573679 295.969544 
L 371.943072 297.106133 
L 369.271576 298.35194 
L 367.037846 299.691563 
L 364.696729 301.108538 
L 362.214219 302.338575 
L 360.053391 303.803315 
L 357.313195 305.337884 
L 355.04656 306.852326 
L 352.742248 308.42054 
L 350.443565 309.583448 
L 348.184232 311.21316 
L 345.85569 312.274538 
L 343.858762 313.465139 
L 341.861797 314.497717 
L 339.666617 315.80369 
L 337.670745 316.955937 
L 335.627365 317.908192 
L 333.690779 318.929668 
L 331.750213 319.86608 
L 329.767098 320.812512 
L 327.946397 321.845188 
L 325.953081 322.771917 
L 323.944068 323.61954 
L 321.877129 324.448197 
L 319.879323 325.384613 
L 318.023289 326.221369 
L 316.115037 327.297128 
L 314.296717 328.3106 
L 312.58348 329.29554 
L 310.627964 330.303342 
L 308.544356 331.286391 
L 306.889508 332.362326 
L 305.16 333.292259 
L 303.424966 334.316912 
L 301.893393 335.093138 
L 300.229382 335.701977 
L 298.34612 336.382723 
L 296.746137 336.991186 
L 294.914248 337.703843 
L 293.225971 338.414132 
L 291.31619 339.077727 
L 289.711186 339.74295 
L 288.119788 340.598142 
L 286.454461 341.435628 
" style="fill:none;stroke:#8c564b;stroke-linecap:square;stroke-width:1.5;"/>
   </g>
   <g id="line2d_20">
    <path clip-path="url(#p9f6b182e52)" d="M 972 60.48 
L 932.350388 69.252033 
L 904.577304 77.52988 
L 881.864312 85.946248 
L 860.044586 94.142571 
L 842.593826 101.390927 
L 826.39212 107.58408 
L 811.25805 113.668169 
L 797.223107 119.588949 
L 784.989279 125.970526 
L 774.660186 131.355142 
L 765.429335 135.296886 
L 756.375735 139.641884 
L 747.159837 144.536949 
L 736.736626 148.856336 
L 727.305952 153.039472 
L 718.579211 157.255124 
L 711.278599 160.510101 
L 702.72005 164.040129 
L 694.997037 168.156013 
L 688.161703 172.534162 
L 681.72498 176.629075 
L 674.725494 179.90795 
L 669.126533 182.677735 
L 663.126768 186.141968 
L 658.110992 188.984188 
L 652.477007 191.436929 
L 646.327275 194.146479 
L 640.720559 197.154923 
L 636.132116 200.003387 
L 630.109203 202.912258 
L 624.016484 205.772284 
L 618.237117 208.571771 
L 613.151068 211.081571 
L 607.652865 214.043266 
L 602.649356 216.403897 
L 597.576313 219.065899 
L 593.179468 221.871149 
L 589.09301 224.450289 
L 584.727075 226.717146 
L 580.011232 228.397377 
L 575.631101 229.983174 
L 571.325493 231.573138 
L 566.857324 233.615727 
L 561.781197 235.356429 
L 557.525898 237.037757 
L 553.254443 238.51935 
L 548.824903 240.315719 
L 544.598721 242.398272 
L 540.56426 244.453401 
L 536.503662 246.335256 
L 532.555865 248.602284 
L 527.954811 250.504448 
L 523.351099 252.353079 
L 519.447911 254.064794 
L 515.856594 255.26116 
L 512.245269 256.646013 
L 508.362918 257.812534 
L 504.33544 259.268658 
L 500.992376 260.659475 
L 497.561796 262.215882 
L 493.983271 263.478011 
L 490.797671 265.167427 
L 487.043505 266.857558 
L 483.624959 268.508291 
L 480.147967 270.068414 
L 476.659708 271.405764 
L 473.425993 273.486627 
L 470.078186 274.791604 
L 467.061627 276.241968 
L 463.975035 277.515365 
L 460.682382 279.341783 
L 457.83851 280.866383 
L 454.68 282.16271 
L 451.915125 283.472126 
L 448.837097 284.626921 
L 445.850135 285.777283 
L 443.156111 286.894409 
L 440.196448 287.985976 
L 437.265839 288.997577 
L 434.165313 289.953729 
L 431.062313 291.111063 
L 428.168359 292.187098 
L 425.225287 293.42769 
L 422.43607 294.791015 
L 419.736821 296.001932 
L 416.790664 297.266599 
L 413.679069 298.51314 
L 411.301249 299.917756 
L 408.740436 301.004308 
L 406.273303 302.25384 
L 404.060535 303.278298 
L 401.668326 304.035804 
L 398.964204 304.7447 
L 396.750444 305.427555 
L 393.977919 306.336776 
L 391.539346 307.13164 
L 388.939857 307.887561 
L 386.834297 308.657061 
L 384.554263 309.667075 
L 381.96906 310.70338 
" style="fill:none;stroke:#e377c2;stroke-linecap:square;stroke-width:1.5;"/>
   </g>
   <g id="line2d_21">
    <path clip-path="url(#p9f6b182e52)" d="M 972 60.48 
L 971.561642 60.48 
L 971.337397 60.509566 
L 971.198745 60.539572 
L 970.968881 60.53994 
L 970.825644 60.54028 
L 970.499185 60.601275 
L 970.352723 60.601961 
L 970.203467 60.602732 
L 970.188412 60.603396 
L 970.176674 60.603977 
L 970.163648 60.604855 
L 970.101718 60.605552 
L 970.039253 60.637936 
L 969.925352 60.639245 
L 969.859335 60.704639 
L 969.792333 60.803535 
L 969.677471 60.838368 
L 969.658253 60.873657 
L 969.641547 60.876742 
L 969.572007 60.947566 
L 969.554122 60.951707 
L 969.533399 60.95426 
L 969.511552 60.990542 
L 969.491822 61.02717 
L 969.424454 61.029008 
L 969.354782 61.065755 
L 969.282295 61.067948 
L 969.260317 61.070209 
L 969.241016 61.107341 
L 969.219631 61.14458 
L 969.197361 61.147287 
L 969.173234 61.150381 
L 969.096658 61.153196 
L 969.069288 61.227677 
L 969.046016 61.23133 
L 968.961992 61.23474 
L 968.883541 61.274654 
L 968.861032 61.315753 
L 968.837531 61.321029 
L 968.757642 61.361666 
L 968.729772 61.400406 
L 968.704724 61.402419 
L 968.67953 61.441693 
L 968.653217 61.444174 
L 968.565147 61.484329 
L 968.538001 61.52473 
L 968.445727 61.565067 
L 968.413127 61.569268 
L 968.383216 61.572652 
L 968.354474 61.614184 
L 968.322155 61.65646 
L 968.284635 61.698701 
L 968.18529 61.778054 
L 968.086926 61.819659 
L 968.056616 61.861614 
L 967.955871 61.94271 
L 967.919727 61.9462 
L 967.887988 61.988383 
L 967.856436 61.992453 
L 967.823353 61.997305 
L 967.784791 62.001882 
L 967.678995 62.04547 
L 967.637645 62.050697 
L 967.530233 62.132744 
L 967.488263 62.137955 
L 967.449491 62.141335 
L 967.337666 62.147454 
L 967.294816 62.191708 
L 967.256724 62.196991 
L 967.214539 62.20213 
L 967.092708 62.207478 
L 967.055566 62.211961 
L 967.014611 62.215022 
L 966.972973 62.217913 
L 966.85045 62.22154 
L 966.807197 62.22701 
L 966.76875 62.312872 
L 966.725642 62.358531 
L 966.677135 62.403822 
L 966.630909 62.409113 
L 966.42111 62.537034 
L 966.379172 62.542719 
L 966.327433 62.548877 
L 966.281154 62.554185 
L 966.231149 62.600429 
L 966.174216 62.729981 
L 966.113059 62.778557 
L 966.064458 62.788251 
L 965.927665 62.835314 
L 965.79 62.847373 
L 965.742226 62.936739 
L 965.689576 62.941306 
L 965.623385 62.949136 
L 965.574433 62.955653 
L 965.42055 63.005838 
L 965.361659 63.011423 
L 965.299405 63.062036 
L 965.242215 63.068063 
L 965.188793 63.07846 
L 965.123239 63.086605 
" style="fill:none;stroke:#7f7f7f;stroke-linecap:square;stroke-width:1.5;"/>
   </g>
   <g id="line2d_22">
    <path clip-path="url(#p9f6b182e52)" d="M 972 60.48 
L 911.709644 67.86154 
L 875.71139 74.456653 
L 846.106158 81.725803 
L 820.765222 88.607829 
L 799.630858 94.831579 
L 783.079863 100.603689 
L 768.228239 106.535954 
L 755.322691 112.152988 
L 743.334267 117.68207 
L 732.740987 122.569093 
L 723.272669 126.205458 
L 714.083422 129.874976 
L 704.613178 134.047618 
L 693.968414 138.023487 
L 685.193384 141.918871 
L 677.292994 145.810032 
L 670.545386 148.881217 
L 662.699777 151.996109 
L 655.381706 155.776505 
L 649.010275 159.577421 
L 643.248317 163.585395 
L 637.172202 166.483131 
L 631.548454 168.956739 
L 625.970704 172.025379 
L 620.996447 174.554023 
L 616.318252 176.839642 
L 611.404455 179.474137 
L 606.781535 182.201492 
L 602.35819 184.801369 
L 597.151242 187.465525 
L 591.804125 190.096887 
L 586.931873 192.670786 
L 582.515101 195.086366 
L 577.832335 197.832432 
L 572.96168 200.041185 
L 567.985559 202.481263 
L 563.366064 205.016501 
L 559.143534 207.396 
L 555.094083 209.407003 
L 551.089194 210.840736 
L 547.304315 212.408428 
L 543.700395 213.938351 
L 539.899476 215.723843 
L 536.041622 217.437411 
L 532.259621 218.951549 
L 528.801855 220.252364 
L 525.049573 222.030938 
L 521.625306 223.846445 
L 518.407977 225.807201 
L 515.170044 227.569468 
L 511.986736 229.634768 
L 508.254268 231.463583 
L 504.653743 233.081672 
L 501.590271 234.719617 
L 498.852414 235.953953 
L 496.084644 237.297515 
L 492.969058 238.467101 
L 489.698491 239.780673 
L 487.016481 241.150666 
L 484.127359 242.640751 
L 481.126829 243.918674 
L 478.42854 245.492763 
L 475.171264 247.149784 
L 472.315034 248.872904 
L 469.456967 250.590031 
L 466.617109 251.929704 
L 463.693246 253.836604 
L 460.733359 255.050744 
L 458.191219 256.344496 
L 455.657842 257.525239 
L 452.920796 259.05818 
L 450.522898 260.403165 
L 447.792775 261.539132 
L 445.44956 262.772068 
L 442.768173 263.868013 
L 440.251331 264.963497 
L 437.946903 266.139008 
L 435.443838 267.264297 
L 432.973807 268.28489 
L 430.221136 269.263961 
L 427.521266 270.388722 
L 425.121455 271.330188 
L 422.600951 272.616561 
L 420.166577 273.885669 
L 417.832345 275.064045 
L 415.399651 276.336907 
L 412.616441 277.522452 
L 410.388493 278.839549 
L 408.166969 279.940978 
L 405.94996 281.174651 
L 403.89973 282.126427 
L 401.687391 282.836552 
L 399.129239 283.6571 
L 397.063728 284.382854 
L 394.441768 285.231599 
L 392.073435 286.035846 
L 389.537831 286.805243 
L 387.422237 287.607445 
L 385.325961 288.610371 
L 383.043353 289.601262 
" style="fill:none;stroke:#bcbd22;stroke-linecap:square;stroke-width:1.5;"/>
   </g>
   <g id="line2d_23">
    <path clip-path="url(#p9f6b182e52)" d="M 972 60.48 
L 970.519223 60.597757 
L 968.728765 60.670119 
L 966.521534 60.743479 
L 964.767709 60.793473 
L 964.087729 60.892309 
L 963.329317 60.96809 
L 962.495865 61.019954 
L 960.758288 61.146762 
L 959.997422 61.175083 
L 959.842501 61.178479 
L 959.643774 61.183134 
L 959.321696 61.237279 
L 958.996093 61.368752 
L 958.693725 61.452311 
L 958.388957 61.485188 
L 958.123767 61.596889 
L 957.78702 61.630022 
L 957.553616 61.716845 
L 957.415138 61.80541 
L 957.137153 61.872215 
L 956.945746 61.911531 
L 956.693856 61.919144 
L 956.478969 61.980591 
L 956.315523 62.098486 
L 956.091669 62.104572 
L 955.898892 62.138698 
L 955.695086 62.173339 
L 955.557449 62.235514 
L 955.400525 62.243364 
L 955.138741 62.305928 
L 954.957518 62.313627 
L 954.775187 62.377632 
L 954.598376 62.441867 
L 954.356815 62.479529 
L 954.127786 62.517391 
L 953.829604 62.554678 
L 953.614164 62.593852 
L 953.486887 62.633898 
L 953.306162 62.6469 
L 953.089063 62.685668 
L 952.928017 62.749301 
L 952.732402 62.755003 
L 952.493955 62.790353 
L 952.285008 62.856121 
L 952.034771 62.893766 
L 951.82469 62.901017 
L 951.605066 62.93867 
L 951.37922 62.977142 
L 951.157139 63.045269 
L 950.940467 63.085174 
L 950.71238 63.125171 
L 950.504689 63.19534 
L 950.205894 63.294169 
L 949.975094 63.3315 
L 949.690803 63.399743 
L 949.450511 63.470923 
L 949.250657 63.539154 
L 949.017666 63.669868 
L 948.841456 63.678547 
L 948.548478 63.74955 
L 948.283487 63.758758 
L 948.043241 63.860597 
L 947.820256 63.903496 
L 947.555247 63.975649 
L 947.271789 64.019204 
L 946.997239 64.027581 
L 946.72689 64.038909 
L 946.480972 64.049138 
L 946.282632 64.06031 
L 946.012302 64.102721 
L 945.716196 64.113828 
L 945.456264 64.12349 
L 945.168243 64.130161 
L 944.961189 64.137163 
L 944.657915 64.178781 
L 944.424294 64.189325 
L 944.14545 64.265191 
L 943.912312 64.339865 
L 943.668534 64.382444 
L 943.434129 64.426911 
L 943.124037 64.501554 
L 942.841659 64.511485 
L 942.584883 64.523881 
L 942.340623 64.534617 
L 942.089794 64.611701 
L 941.811967 64.688096 
L 941.356472 64.734675 
L 941.029073 64.752008 
L 940.704229 64.795746 
L 940.326204 64.816468 
L 940.094121 64.860672 
L 939.702997 64.871432 
L 939.384786 64.884956 
L 939.151529 64.896224 
L 938.695209 64.977786 
L 938.251843 65.022973 
L 937.966866 65.069192 
L 937.696087 65.081055 
L 937.420964 65.09752 
L 937.111874 65.146851 
" style="fill:none;stroke:#17becf;stroke-linecap:square;stroke-width:1.5;"/>
   </g>
   <g id="patch_3">
    <path d="M 135 448.56 
L 135 60.48 
" style="fill:none;stroke:#000000;stroke-linecap:square;stroke-linejoin:miter;stroke-width:0.8;"/>
   </g>
   <g id="patch_4">
    <path d="M 972 448.56 
L 972 60.48 
" style="fill:none;stroke:#000000;stroke-linecap:square;stroke-linejoin:miter;stroke-width:0.8;"/>
   </g>
   <g id="patch_5">
    <path d="M 135 448.56 
L 972 448.56 
" style="fill:none;stroke:#000000;stroke-linecap:square;stroke-linejoin:miter;stroke-width:0.8;"/>
   </g>
   <g id="patch_6">
    <path d="M 135 60.48 
L 972 60.48 
" style="fill:none;stroke:#000000;stroke-linecap:square;stroke-linejoin:miter;stroke-width:0.8;"/>
   </g>
   <g id="legend_1">
    <g id="patch_7">
     <path d="M 147.6 339.08625 
L 256.730625 339.08625 
Q 260.330625 339.08625 260.330625 335.48625 
L 260.330625 73.08 
Q 260.330625 69.48 256.730625 69.48 
L 147.6 69.48 
Q 144 69.48 144 73.08 
L 144 335.48625 
Q 144 339.08625 147.6 339.08625 
z
" style="fill:#ffffff;opacity:0.8;stroke:#cccccc;stroke-linejoin:miter;"/>
    </g>
    <g id="line2d_24">
     <path d="M 151.2 84.057188 
L 187.2 84.057188 
" style="fill:none;stroke:#1f77b4;stroke-linecap:square;stroke-width:1.5;"/>
    </g>
    <g id="line2d_25"/>
    <g id="text_15">
     <!-- 0.001 -->
     <g transform="translate(201.6 90.357188)scale(0.18 -0.18)">
      <use xlink:href="#DejaVuSans-30"/>
      <use x="63.623047" xlink:href="#DejaVuSans-2e"/>
      <use x="95.410156" xlink:href="#DejaVuSans-30"/>
      <use x="159.033203" xlink:href="#DejaVuSans-30"/>
      <use x="222.65625" xlink:href="#DejaVuSans-31"/>
     </g>
    </g>
    <g id="line2d_26">
     <path d="M 151.2 110.477812 
L 187.2 110.477812 
" style="fill:none;stroke:#ff7f0e;stroke-linecap:square;stroke-width:1.5;"/>
    </g>
    <g id="line2d_27"/>
    <g id="text_16">
     <!-- 0.011 -->
     <g transform="translate(201.6 116.777812)scale(0.18 -0.18)">
      <use xlink:href="#DejaVuSans-30"/>
      <use x="63.623047" xlink:href="#DejaVuSans-2e"/>
      <use x="95.410156" xlink:href="#DejaVuSans-30"/>
      <use x="159.033203" xlink:href="#DejaVuSans-31"/>
      <use x="222.65625" xlink:href="#DejaVuSans-31"/>
     </g>
    </g>
    <g id="line2d_28">
     <path d="M 151.2 136.898438 
L 187.2 136.898438 
" style="fill:none;stroke:#2ca02c;stroke-linecap:square;stroke-width:1.5;"/>
    </g>
    <g id="line2d_29"/>
    <g id="text_17">
     <!-- 0.021 -->
     <g transform="translate(201.6 143.198438)scale(0.18 -0.18)">
      <use xlink:href="#DejaVuSans-30"/>
      <use x="63.623047" xlink:href="#DejaVuSans-2e"/>
      <use x="95.410156" xlink:href="#DejaVuSans-30"/>
      <use x="159.033203" xlink:href="#DejaVuSans-32"/>
      <use x="222.65625" xlink:href="#DejaVuSans-31"/>
     </g>
    </g>
    <g id="line2d_30">
     <path d="M 151.2 163.319062 
L 187.2 163.319062 
" style="fill:none;stroke:#d62728;stroke-linecap:square;stroke-width:1.5;"/>
    </g>
    <g id="line2d_31"/>
    <g id="text_18">
     <!-- 0.031 -->
     <g transform="translate(201.6 169.619062)scale(0.18 -0.18)">
      <defs>
       <path d="M 2597 2516 
Q 3050 2419 3304 2112 
Q 3559 1806 3559 1356 
Q 3559 666 3084 287 
Q 2609 -91 1734 -91 
Q 1441 -91 1130 -33 
Q 819 25 488 141 
L 488 750 
Q 750 597 1062 519 
Q 1375 441 1716 441 
Q 2309 441 2620 675 
Q 2931 909 2931 1356 
Q 2931 1769 2642 2001 
Q 2353 2234 1838 2234 
L 1294 2234 
L 1294 2753 
L 1863 2753 
Q 2328 2753 2575 2939 
Q 2822 3125 2822 3475 
Q 2822 3834 2567 4026 
Q 2313 4219 1838 4219 
Q 1578 4219 1281 4162 
Q 984 4106 628 3988 
L 628 4550 
Q 988 4650 1302 4700 
Q 1616 4750 1894 4750 
Q 2613 4750 3031 4423 
Q 3450 4097 3450 3541 
Q 3450 3153 3228 2886 
Q 3006 2619 2597 2516 
z
" id="DejaVuSans-33" transform="scale(0.015625)"/>
      </defs>
      <use xlink:href="#DejaVuSans-30"/>
      <use x="63.623047" xlink:href="#DejaVuSans-2e"/>
      <use x="95.410156" xlink:href="#DejaVuSans-30"/>
      <use x="159.033203" xlink:href="#DejaVuSans-33"/>
      <use x="222.65625" xlink:href="#DejaVuSans-31"/>
     </g>
    </g>
    <g id="line2d_32">
     <path d="M 151.2 189.739688 
L 187.2 189.739688 
" style="fill:none;stroke:#9467bd;stroke-linecap:square;stroke-width:1.5;"/>
    </g>
    <g id="line2d_33"/>
    <g id="text_19">
     <!-- 0.041 -->
     <g transform="translate(201.6 196.039688)scale(0.18 -0.18)">
      <use xlink:href="#DejaVuSans-30"/>
      <use x="63.623047" xlink:href="#DejaVuSans-2e"/>
      <use x="95.410156" xlink:href="#DejaVuSans-30"/>
      <use x="159.033203" xlink:href="#DejaVuSans-34"/>
      <use x="222.65625" xlink:href="#DejaVuSans-31"/>
     </g>
    </g>
    <g id="line2d_34">
     <path d="M 151.2 216.160312 
L 187.2 216.160312 
" style="fill:none;stroke:#8c564b;stroke-linecap:square;stroke-width:1.5;"/>
    </g>
    <g id="line2d_35"/>
    <g id="text_20">
     <!-- 0.051 -->
     <g transform="translate(201.6 222.460312)scale(0.18 -0.18)">
      <defs>
       <path d="M 691 4666 
L 3169 4666 
L 3169 4134 
L 1269 4134 
L 1269 2991 
Q 1406 3038 1543 3061 
Q 1681 3084 1819 3084 
Q 2600 3084 3056 2656 
Q 3513 2228 3513 1497 
Q 3513 744 3044 326 
Q 2575 -91 1722 -91 
Q 1428 -91 1123 -41 
Q 819 9 494 109 
L 494 744 
Q 775 591 1075 516 
Q 1375 441 1709 441 
Q 2250 441 2565 725 
Q 2881 1009 2881 1497 
Q 2881 1984 2565 2268 
Q 2250 2553 1709 2553 
Q 1456 2553 1204 2497 
Q 953 2441 691 2322 
L 691 4666 
z
" id="DejaVuSans-35" transform="scale(0.015625)"/>
      </defs>
      <use xlink:href="#DejaVuSans-30"/>
      <use x="63.623047" xlink:href="#DejaVuSans-2e"/>
      <use x="95.410156" xlink:href="#DejaVuSans-30"/>
      <use x="159.033203" xlink:href="#DejaVuSans-35"/>
      <use x="222.65625" xlink:href="#DejaVuSans-31"/>
     </g>
    </g>
    <g id="line2d_36">
     <path d="M 151.2 242.580937 
L 187.2 242.580937 
" style="fill:none;stroke:#e377c2;stroke-linecap:square;stroke-width:1.5;"/>
    </g>
    <g id="line2d_37"/>
    <g id="text_21">
     <!-- 0.061 -->
     <g transform="translate(201.6 248.880937)scale(0.18 -0.18)">
      <use xlink:href="#DejaVuSans-30"/>
      <use x="63.623047" xlink:href="#DejaVuSans-2e"/>
      <use x="95.410156" xlink:href="#DejaVuSans-30"/>
      <use x="159.033203" xlink:href="#DejaVuSans-36"/>
      <use x="222.65625" xlink:href="#DejaVuSans-31"/>
     </g>
    </g>
    <g id="line2d_38">
     <path d="M 151.2 269.001562 
L 187.2 269.001562 
" style="fill:none;stroke:#7f7f7f;stroke-linecap:square;stroke-width:1.5;"/>
    </g>
    <g id="line2d_39"/>
    <g id="text_22">
     <!-- 0.071 -->
     <g transform="translate(201.6 275.301562)scale(0.18 -0.18)">
      <defs>
       <path d="M 525 4666 
L 3525 4666 
L 3525 4397 
L 1831 0 
L 1172 0 
L 2766 4134 
L 525 4134 
L 525 4666 
z
" id="DejaVuSans-37" transform="scale(0.015625)"/>
      </defs>
      <use xlink:href="#DejaVuSans-30"/>
      <use x="63.623047" xlink:href="#DejaVuSans-2e"/>
      <use x="95.410156" xlink:href="#DejaVuSans-30"/>
      <use x="159.033203" xlink:href="#DejaVuSans-37"/>
      <use x="222.65625" xlink:href="#DejaVuSans-31"/>
     </g>
    </g>
    <g id="line2d_40">
     <path d="M 151.2 295.422188 
L 187.2 295.422188 
" style="fill:none;stroke:#bcbd22;stroke-linecap:square;stroke-width:1.5;"/>
    </g>
    <g id="line2d_41"/>
    <g id="text_23">
     <!-- 0.081 -->
     <g transform="translate(201.6 301.722188)scale(0.18 -0.18)">
      <use xlink:href="#DejaVuSans-30"/>
      <use x="63.623047" xlink:href="#DejaVuSans-2e"/>
      <use x="95.410156" xlink:href="#DejaVuSans-30"/>
      <use x="159.033203" xlink:href="#DejaVuSans-38"/>
      <use x="222.65625" xlink:href="#DejaVuSans-31"/>
     </g>
    </g>
    <g id="line2d_42">
     <path d="M 151.2 321.842812 
L 187.2 321.842812 
" style="fill:none;stroke:#17becf;stroke-linecap:square;stroke-width:1.5;"/>
    </g>
    <g id="line2d_43"/>
    <g id="text_24">
     <!-- 0.091 -->
     <g transform="translate(201.6 328.142812)scale(0.18 -0.18)">
      <defs>
       <path d="M 703 97 
L 703 672 
Q 941 559 1184 500 
Q 1428 441 1663 441 
Q 2288 441 2617 861 
Q 2947 1281 2994 2138 
Q 2813 1869 2534 1725 
Q 2256 1581 1919 1581 
Q 1219 1581 811 2004 
Q 403 2428 403 3163 
Q 403 3881 828 4315 
Q 1253 4750 1959 4750 
Q 2769 4750 3195 4129 
Q 3622 3509 3622 2328 
Q 3622 1225 3098 567 
Q 2575 -91 1691 -91 
Q 1453 -91 1209 -44 
Q 966 3 703 97 
z
M 1959 2075 
Q 2384 2075 2632 2365 
Q 2881 2656 2881 3163 
Q 2881 3666 2632 3958 
Q 2384 4250 1959 4250 
Q 1534 4250 1286 3958 
Q 1038 3666 1038 3163 
Q 1038 2656 1286 2365 
Q 1534 2075 1959 2075 
z
" id="DejaVuSans-39" transform="scale(0.015625)"/>
      </defs>
      <use xlink:href="#DejaVuSans-30"/>
      <use x="63.623047" xlink:href="#DejaVuSans-2e"/>
      <use x="95.410156" xlink:href="#DejaVuSans-30"/>
      <use x="159.033203" xlink:href="#DejaVuSans-39"/>
      <use x="222.65625" xlink:href="#DejaVuSans-31"/>
     </g>
    </g>
   </g>
  </g>
 </g>
 <defs>
  <clipPath id="p9f6b182e52">
   <rect height="388.08" width="837" x="135" y="60.48"/>
  </clipPath>
 </defs>
</svg>
