<?xml version="1.0" encoding="utf-8" standalone="no"?>
<!DOCTYPE svg PUBLIC "-//W3C//DTD SVG 1.1//EN"
  "http://www.w3.org/Graphics/SVG/1.1/DTD/svg11.dtd">
<svg height="504pt" version="1.1" viewBox="0 0 1080 504" width="1080pt" xmlns="http://www.w3.org/2000/svg" xmlns:xlink="http://www.w3.org/1999/xlink">
 <metadata>
  <rdf:RDF xmlns:cc="http://creativecommons.org/ns#" xmlns:dc="http://purl.org/dc/elements/1.1/" xmlns:rdf="http://www.w3.org/1999/02/22-rdf-syntax-ns#">
   <cc:Work>
    <dc:type rdf:resource="http://purl.org/dc/dcmitype/StillImage"/>
    <dc:date>2022-01-07T13:24:52.549450</dc:date>
    <dc:format>image/svg+xml</dc:format>
    <dc:creator>
     <cc:Agent>
      <dc:title>Matplotlib v3.4.3, https://matplotlib.org/</dc:title>
     </cc:Agent>
    </dc:creator>
   </cc:Work>
  </rdf:RDF>
 </metadata>
 <defs>
  <style type="text/css">*{stroke-linecap:butt;stroke-linejoin:round;}</style>
 </defs>
 <g id="figure_1">
  <g id="patch_1">
   <path d="M 0 504 
L 1080 504 
L 1080 0 
L 0 0 
z
" style="fill:#ffffff;"/>
  </g>
  <g id="axes_1">
   <g id="patch_2">
    <path d="M 135 448.56 
L 972 448.56 
L 972 60.48 
L 135 60.48 
z
" style="fill:#ffffff;"/>
   </g>
   <g id="matplotlib.axis_1">
    <g id="xtick_1">
     <g id="line2d_1">
      <defs>
       <path d="M 0 0 
L 0 3.5 
" id="m75d3d3094d" style="stroke:#000000;stroke-width:0.8;"/>
      </defs>
      <g>
       <use style="stroke:#000000;stroke-width:0.8;" x="135" xlink:href="#m75d3d3094d" y="448.56"/>
      </g>
     </g>
     <g id="text_1">
      <!-- 0.0 -->
      <g transform="translate(120.687187 469.237188)scale(0.18 -0.18)">
       <defs>
        <path d="M 2034 4250 
Q 1547 4250 1301 3770 
Q 1056 3291 1056 2328 
Q 1056 1369 1301 889 
Q 1547 409 2034 409 
Q 2525 409 2770 889 
Q 3016 1369 3016 2328 
Q 3016 3291 2770 3770 
Q 2525 4250 2034 4250 
z
M 2034 4750 
Q 2819 4750 3233 4129 
Q 3647 3509 3647 2328 
Q 3647 1150 3233 529 
Q 2819 -91 2034 -91 
Q 1250 -91 836 529 
Q 422 1150 422 2328 
Q 422 3509 836 4129 
Q 1250 4750 2034 4750 
z
" id="DejaVuSans-30" transform="scale(0.015625)"/>
        <path d="M 684 794 
L 1344 794 
L 1344 0 
L 684 0 
L 684 794 
z
" id="DejaVuSans-2e" transform="scale(0.015625)"/>
       </defs>
       <use xlink:href="#DejaVuSans-30"/>
       <use x="63.623047" xlink:href="#DejaVuSans-2e"/>
       <use x="95.410156" xlink:href="#DejaVuSans-30"/>
      </g>
     </g>
    </g>
    <g id="xtick_2">
     <g id="line2d_2">
      <g>
       <use style="stroke:#000000;stroke-width:0.8;" x="302.4" xlink:href="#m75d3d3094d" y="448.56"/>
      </g>
     </g>
     <g id="text_2">
      <!-- 0.2 -->
      <g transform="translate(288.087187 469.237188)scale(0.18 -0.18)">
       <defs>
        <path d="M 1228 531 
L 3431 531 
L 3431 0 
L 469 0 
L 469 531 
Q 828 903 1448 1529 
Q 2069 2156 2228 2338 
Q 2531 2678 2651 2914 
Q 2772 3150 2772 3378 
Q 2772 3750 2511 3984 
Q 2250 4219 1831 4219 
Q 1534 4219 1204 4116 
Q 875 4013 500 3803 
L 500 4441 
Q 881 4594 1212 4672 
Q 1544 4750 1819 4750 
Q 2544 4750 2975 4387 
Q 3406 4025 3406 3419 
Q 3406 3131 3298 2873 
Q 3191 2616 2906 2266 
Q 2828 2175 2409 1742 
Q 1991 1309 1228 531 
z
" id="DejaVuSans-32" transform="scale(0.015625)"/>
       </defs>
       <use xlink:href="#DejaVuSans-30"/>
       <use x="63.623047" xlink:href="#DejaVuSans-2e"/>
       <use x="95.410156" xlink:href="#DejaVuSans-32"/>
      </g>
     </g>
    </g>
    <g id="xtick_3">
     <g id="line2d_3">
      <g>
       <use style="stroke:#000000;stroke-width:0.8;" x="469.8" xlink:href="#m75d3d3094d" y="448.56"/>
      </g>
     </g>
     <g id="text_3">
      <!-- 0.4 -->
      <g transform="translate(455.487188 469.237188)scale(0.18 -0.18)">
       <defs>
        <path d="M 2419 4116 
L 825 1625 
L 2419 1625 
L 2419 4116 
z
M 2253 4666 
L 3047 4666 
L 3047 1625 
L 3713 1625 
L 3713 1100 
L 3047 1100 
L 3047 0 
L 2419 0 
L 2419 1100 
L 313 1100 
L 313 1709 
L 2253 4666 
z
" id="DejaVuSans-34" transform="scale(0.015625)"/>
       </defs>
       <use xlink:href="#DejaVuSans-30"/>
       <use x="63.623047" xlink:href="#DejaVuSans-2e"/>
       <use x="95.410156" xlink:href="#DejaVuSans-34"/>
      </g>
     </g>
    </g>
    <g id="xtick_4">
     <g id="line2d_4">
      <g>
       <use style="stroke:#000000;stroke-width:0.8;" x="637.2" xlink:href="#m75d3d3094d" y="448.56"/>
      </g>
     </g>
     <g id="text_4">
      <!-- 0.6 -->
      <g transform="translate(622.887188 469.237188)scale(0.18 -0.18)">
       <defs>
        <path d="M 2113 2584 
Q 1688 2584 1439 2293 
Q 1191 2003 1191 1497 
Q 1191 994 1439 701 
Q 1688 409 2113 409 
Q 2538 409 2786 701 
Q 3034 994 3034 1497 
Q 3034 2003 2786 2293 
Q 2538 2584 2113 2584 
z
M 3366 4563 
L 3366 3988 
Q 3128 4100 2886 4159 
Q 2644 4219 2406 4219 
Q 1781 4219 1451 3797 
Q 1122 3375 1075 2522 
Q 1259 2794 1537 2939 
Q 1816 3084 2150 3084 
Q 2853 3084 3261 2657 
Q 3669 2231 3669 1497 
Q 3669 778 3244 343 
Q 2819 -91 2113 -91 
Q 1303 -91 875 529 
Q 447 1150 447 2328 
Q 447 3434 972 4092 
Q 1497 4750 2381 4750 
Q 2619 4750 2861 4703 
Q 3103 4656 3366 4563 
z
" id="DejaVuSans-36" transform="scale(0.015625)"/>
       </defs>
       <use xlink:href="#DejaVuSans-30"/>
       <use x="63.623047" xlink:href="#DejaVuSans-2e"/>
       <use x="95.410156" xlink:href="#DejaVuSans-36"/>
      </g>
     </g>
    </g>
    <g id="xtick_5">
     <g id="line2d_5">
      <g>
       <use style="stroke:#000000;stroke-width:0.8;" x="804.6" xlink:href="#m75d3d3094d" y="448.56"/>
      </g>
     </g>
     <g id="text_5">
      <!-- 0.8 -->
      <g transform="translate(790.287188 469.237188)scale(0.18 -0.18)">
       <defs>
        <path d="M 2034 2216 
Q 1584 2216 1326 1975 
Q 1069 1734 1069 1313 
Q 1069 891 1326 650 
Q 1584 409 2034 409 
Q 2484 409 2743 651 
Q 3003 894 3003 1313 
Q 3003 1734 2745 1975 
Q 2488 2216 2034 2216 
z
M 1403 2484 
Q 997 2584 770 2862 
Q 544 3141 544 3541 
Q 544 4100 942 4425 
Q 1341 4750 2034 4750 
Q 2731 4750 3128 4425 
Q 3525 4100 3525 3541 
Q 3525 3141 3298 2862 
Q 3072 2584 2669 2484 
Q 3125 2378 3379 2068 
Q 3634 1759 3634 1313 
Q 3634 634 3220 271 
Q 2806 -91 2034 -91 
Q 1263 -91 848 271 
Q 434 634 434 1313 
Q 434 1759 690 2068 
Q 947 2378 1403 2484 
z
M 1172 3481 
Q 1172 3119 1398 2916 
Q 1625 2713 2034 2713 
Q 2441 2713 2670 2916 
Q 2900 3119 2900 3481 
Q 2900 3844 2670 4047 
Q 2441 4250 2034 4250 
Q 1625 4250 1398 4047 
Q 1172 3844 1172 3481 
z
" id="DejaVuSans-38" transform="scale(0.015625)"/>
       </defs>
       <use xlink:href="#DejaVuSans-30"/>
       <use x="63.623047" xlink:href="#DejaVuSans-2e"/>
       <use x="95.410156" xlink:href="#DejaVuSans-38"/>
      </g>
     </g>
    </g>
    <g id="xtick_6">
     <g id="line2d_6">
      <g>
       <use style="stroke:#000000;stroke-width:0.8;" x="972" xlink:href="#m75d3d3094d" y="448.56"/>
      </g>
     </g>
     <g id="text_6">
      <!-- 1.0 -->
      <g transform="translate(957.687188 469.237188)scale(0.18 -0.18)">
       <defs>
        <path d="M 794 531 
L 1825 531 
L 1825 4091 
L 703 3866 
L 703 4441 
L 1819 4666 
L 2450 4666 
L 2450 531 
L 3481 531 
L 3481 0 
L 794 0 
L 794 531 
z
" id="DejaVuSans-31" transform="scale(0.015625)"/>
       </defs>
       <use xlink:href="#DejaVuSans-31"/>
       <use x="63.623047" xlink:href="#DejaVuSans-2e"/>
       <use x="95.410156" xlink:href="#DejaVuSans-30"/>
      </g>
     </g>
    </g>
    <g id="text_7">
     <!-- $FPR_{Fair}$ -->
     <g transform="translate(518.08 493.697187)scale(0.22 -0.22)">
      <defs>
       <path d="M 1081 4666 
L 3756 4666 
L 3653 4134 
L 1606 4134 
L 1338 2759 
L 3188 2759 
L 3084 2228 
L 1234 2228 
L 800 0 
L 172 0 
L 1081 4666 
z
" id="DejaVuSans-Oblique-46" transform="scale(0.015625)"/>
       <path d="M 1081 4666 
L 2541 4666 
Q 3178 4666 3512 4369 
Q 3847 4072 3847 3500 
Q 3847 2731 3353 2303 
Q 2859 1875 1966 1875 
L 1172 1875 
L 806 0 
L 172 0 
L 1081 4666 
z
M 1613 4147 
L 1275 2394 
L 2069 2394 
Q 2606 2394 2893 2669 
Q 3181 2944 3181 3456 
Q 3181 3784 2986 3965 
Q 2791 4147 2438 4147 
L 1613 4147 
z
" id="DejaVuSans-Oblique-50" transform="scale(0.015625)"/>
       <path d="M 1613 4147 
L 1294 2491 
L 2106 2491 
Q 2584 2491 2879 2755 
Q 3175 3019 3175 3444 
Q 3175 3784 2976 3965 
Q 2778 4147 2406 4147 
L 1613 4147 
z
M 2772 2241 
Q 2972 2194 3105 2009 
Q 3238 1825 3413 1275 
L 3809 0 
L 3144 0 
L 2778 1197 
Q 2638 1659 2453 1815 
Q 2269 1972 1888 1972 
L 1191 1972 
L 806 0 
L 172 0 
L 1081 4666 
L 2503 4666 
Q 3150 4666 3495 4373 
Q 3841 4081 3841 3531 
Q 3841 3044 3547 2687 
Q 3253 2331 2772 2241 
z
" id="DejaVuSans-Oblique-52" transform="scale(0.015625)"/>
       <path d="M 3438 1997 
L 3047 0 
L 2472 0 
L 2578 531 
Q 2325 219 2001 64 
Q 1678 -91 1281 -91 
Q 834 -91 548 182 
Q 263 456 263 884 
Q 263 1497 752 1853 
Q 1241 2209 2100 2209 
L 2900 2209 
L 2931 2363 
Q 2938 2388 2941 2417 
Q 2944 2447 2944 2509 
Q 2944 2788 2717 2942 
Q 2491 3097 2081 3097 
Q 1800 3097 1504 3025 
Q 1209 2953 897 2809 
L 997 3341 
Q 1322 3463 1633 3523 
Q 1944 3584 2234 3584 
Q 2853 3584 3176 3315 
Q 3500 3047 3500 2534 
Q 3500 2431 3484 2292 
Q 3469 2153 3438 1997 
z
M 2816 1759 
L 2241 1759 
Q 1534 1759 1195 1570 
Q 856 1381 856 984 
Q 856 709 1029 553 
Q 1203 397 1509 397 
Q 1978 397 2328 733 
Q 2678 1069 2791 1631 
L 2816 1759 
z
" id="DejaVuSans-Oblique-61" transform="scale(0.015625)"/>
       <path d="M 1172 4863 
L 1747 4863 
L 1606 4134 
L 1031 4134 
L 1172 4863 
z
M 909 3500 
L 1484 3500 
L 800 0 
L 225 0 
L 909 3500 
z
" id="DejaVuSans-Oblique-69" transform="scale(0.015625)"/>
       <path d="M 2853 2969 
Q 2766 3016 2653 3041 
Q 2541 3066 2413 3066 
Q 1953 3066 1609 2717 
Q 1266 2369 1153 1784 
L 800 0 
L 225 0 
L 909 3500 
L 1484 3500 
L 1375 2956 
Q 1603 3259 1920 3421 
Q 2238 3584 2597 3584 
Q 2691 3584 2781 3573 
Q 2872 3563 2963 3538 
L 2853 2969 
z
" id="DejaVuSans-Oblique-72" transform="scale(0.015625)"/>
      </defs>
      <use transform="translate(0 0.09375)" xlink:href="#DejaVuSans-Oblique-46"/>
      <use transform="translate(57.519531 0.09375)" xlink:href="#DejaVuSans-Oblique-50"/>
      <use transform="translate(117.822266 0.09375)" xlink:href="#DejaVuSans-Oblique-52"/>
      <use transform="translate(187.304688 -16.3125)scale(0.7)" xlink:href="#DejaVuSans-Oblique-46"/>
      <use transform="translate(227.568359 -16.3125)scale(0.7)" xlink:href="#DejaVuSans-Oblique-61"/>
      <use transform="translate(270.463867 -16.3125)scale(0.7)" xlink:href="#DejaVuSans-Oblique-69"/>
      <use transform="translate(289.912109 -16.3125)scale(0.7)" xlink:href="#DejaVuSans-Oblique-72"/>
     </g>
    </g>
   </g>
   <g id="matplotlib.axis_2">
    <g id="ytick_1">
     <g id="line2d_7">
      <defs>
       <path d="M 0 0 
L -3.5 0 
" id="m593aca7a6c" style="stroke:#000000;stroke-width:0.8;"/>
      </defs>
      <g>
       <use style="stroke:#000000;stroke-width:0.8;" x="135" xlink:href="#m593aca7a6c" y="448.56"/>
      </g>
     </g>
     <g id="text_8">
      <!-- 0.0 -->
      <g transform="translate(99.374375 455.398594)scale(0.18 -0.18)">
       <use xlink:href="#DejaVuSans-30"/>
       <use x="63.623047" xlink:href="#DejaVuSans-2e"/>
       <use x="95.410156" xlink:href="#DejaVuSans-30"/>
      </g>
     </g>
    </g>
    <g id="ytick_2">
     <g id="line2d_8">
      <g>
       <use style="stroke:#000000;stroke-width:0.8;" x="135" xlink:href="#m593aca7a6c" y="370.944"/>
      </g>
     </g>
     <g id="text_9">
      <!-- 0.2 -->
      <g transform="translate(99.374375 377.782594)scale(0.18 -0.18)">
       <use xlink:href="#DejaVuSans-30"/>
       <use x="63.623047" xlink:href="#DejaVuSans-2e"/>
       <use x="95.410156" xlink:href="#DejaVuSans-32"/>
      </g>
     </g>
    </g>
    <g id="ytick_3">
     <g id="line2d_9">
      <g>
       <use style="stroke:#000000;stroke-width:0.8;" x="135" xlink:href="#m593aca7a6c" y="293.328"/>
      </g>
     </g>
     <g id="text_10">
      <!-- 0.4 -->
      <g transform="translate(99.374375 300.166594)scale(0.18 -0.18)">
       <use xlink:href="#DejaVuSans-30"/>
       <use x="63.623047" xlink:href="#DejaVuSans-2e"/>
       <use x="95.410156" xlink:href="#DejaVuSans-34"/>
      </g>
     </g>
    </g>
    <g id="ytick_4">
     <g id="line2d_10">
      <g>
       <use style="stroke:#000000;stroke-width:0.8;" x="135" xlink:href="#m593aca7a6c" y="215.712"/>
      </g>
     </g>
     <g id="text_11">
      <!-- 0.6 -->
      <g transform="translate(99.374375 222.550594)scale(0.18 -0.18)">
       <use xlink:href="#DejaVuSans-30"/>
       <use x="63.623047" xlink:href="#DejaVuSans-2e"/>
       <use x="95.410156" xlink:href="#DejaVuSans-36"/>
      </g>
     </g>
    </g>
    <g id="ytick_5">
     <g id="line2d_11">
      <g>
       <use style="stroke:#000000;stroke-width:0.8;" x="135" xlink:href="#m593aca7a6c" y="138.096"/>
      </g>
     </g>
     <g id="text_12">
      <!-- 0.8 -->
      <g transform="translate(99.374375 144.934594)scale(0.18 -0.18)">
       <use xlink:href="#DejaVuSans-30"/>
       <use x="63.623047" xlink:href="#DejaVuSans-2e"/>
       <use x="95.410156" xlink:href="#DejaVuSans-38"/>
      </g>
     </g>
    </g>
    <g id="ytick_6">
     <g id="line2d_12">
      <g>
       <use style="stroke:#000000;stroke-width:0.8;" x="135" xlink:href="#m593aca7a6c" y="60.48"/>
      </g>
     </g>
     <g id="text_13">
      <!-- 1.0 -->
      <g transform="translate(99.374375 67.318594)scale(0.18 -0.18)">
       <use xlink:href="#DejaVuSans-31"/>
       <use x="63.623047" xlink:href="#DejaVuSans-2e"/>
       <use x="95.410156" xlink:href="#DejaVuSans-30"/>
      </g>
     </g>
    </g>
    <g id="text_14">
     <!-- $TPR_{Fair}$ -->
     <g transform="translate(90.799062 290.27)rotate(-90)scale(0.22 -0.22)">
      <defs>
       <path d="M 378 4666 
L 4325 4666 
L 4225 4134 
L 2559 4134 
L 1759 0 
L 1125 0 
L 1925 4134 
L 275 4134 
L 378 4666 
z
" id="DejaVuSans-Oblique-54" transform="scale(0.015625)"/>
      </defs>
      <use transform="translate(0 0.09375)" xlink:href="#DejaVuSans-Oblique-54"/>
      <use transform="translate(61.083984 0.09375)" xlink:href="#DejaVuSans-Oblique-50"/>
      <use transform="translate(121.386719 0.09375)" xlink:href="#DejaVuSans-Oblique-52"/>
      <use transform="translate(190.869141 -16.3125)scale(0.7)" xlink:href="#DejaVuSans-Oblique-46"/>
      <use transform="translate(231.132812 -16.3125)scale(0.7)" xlink:href="#DejaVuSans-Oblique-61"/>
      <use transform="translate(274.02832 -16.3125)scale(0.7)" xlink:href="#DejaVuSans-Oblique-69"/>
      <use transform="translate(293.476562 -16.3125)scale(0.7)" xlink:href="#DejaVuSans-Oblique-72"/>
     </g>
    </g>
   </g>
   <g id="line2d_13">
    <path clip-path="url(#p676c054513)" d="M 135 448.56 
L 972 60.48 
" style="fill:none;stroke:#ff0000;stroke-dasharray:5.55,2.4;stroke-dashoffset:0;stroke-width:1.5;"/>
   </g>
   <g id="line2d_14">
    <path clip-path="url(#p676c054513)" d="M 972 60.48 
L 886.89578 70.028988 
L 836.854682 78.846801 
L 797.377753 87.797446 
L 764.511977 96.368996 
L 736.636736 103.943817 
L 715.2381 110.607881 
L 697.522824 117.766899 
L 682.593476 124.5825 
L 670.596321 130.919486 
L 659.798312 136.557161 
L 649.817591 140.782284 
L 640.23997 144.924041 
L 630.844721 149.789013 
L 620.818256 154.148556 
L 612.323592 158.687913 
L 604.430016 163.215145 
L 597.489077 166.633583 
L 589.813239 170.305678 
L 582.709503 174.411172 
L 576.338212 178.594895 
L 570.95446 183.094107 
L 565.05222 186.134693 
L 559.669766 188.848193 
L 554.362351 192.229606 
L 549.64459 195.002441 
L 545.233044 197.760404 
L 540.670448 200.647838 
L 536.256422 203.535871 
L 532.192816 206.256932 
L 527.421708 209.08226 
L 522.51789 211.998389 
L 517.925895 214.68974 
L 513.790823 217.16013 
L 509.393382 219.953679 
L 505.019398 222.359392 
L 500.409587 224.835051 
L 496.240828 227.40972 
L 492.492369 229.906451 
L 488.783044 232.099374 
L 485.229929 233.619487 
L 481.722772 235.263573 
L 478.446198 236.909286 
L 475.045812 238.617708 
L 471.478073 240.281782 
L 467.988838 241.803872 
L 464.711908 243.147242 
L 461.227346 244.796139 
L 458.113975 246.658214 
L 455.233729 248.627957 
L 452.234418 250.350886 
L 449.344146 252.402144 
L 445.925191 254.239853 
L 442.666484 255.929328 
L 439.831172 257.54886 
L 437.301644 258.888427 
L 434.643988 260.276975 
L 431.791304 261.488768 
L 428.866423 262.848251 
L 426.445232 264.258509 
L 423.851418 265.79779 
L 421.109899 267.127807 
L 418.690784 268.701896 
L 415.711968 270.327216 
L 413.209488 271.981606 
L 410.627281 273.648918 
L 408.091748 274.995474 
L 405.446472 276.765577 
L 402.80001 277.914008 
L 400.526391 279.166288 
L 398.270674 280.307384 
L 395.748002 281.751794 
L 393.565423 283.031875 
L 391.053638 284.191867 
L 388.851906 285.343688 
L 386.375308 286.380917 
L 384.130104 287.436426 
L 382.018764 288.528863 
L 379.625262 289.68071 
L 377.321913 290.677814 
L 374.939136 291.652025 
L 372.635227 292.735421 
L 370.535523 293.718665 
L 368.321292 294.970574 
L 366.185373 296.209019 
L 364.169089 297.379718 
L 361.977213 298.563772 
L 359.441276 299.673061 
L 357.42259 300.890482 
L 355.394445 301.937177 
L 353.343158 303.102516 
L 351.417822 304.067073 
L 349.424735 304.799106 
L 347.212272 305.558825 
L 345.346782 306.21319 
L 343.053064 307.038068 
L 340.96704 307.822956 
L 338.787041 308.556017 
L 336.867086 309.344615 
L 334.907248 310.264356 
L 332.922109 311.214023 
" style="fill:none;stroke:#1f77b4;stroke-linecap:square;stroke-width:1.5;"/>
   </g>
   <g id="line2d_15">
    <path clip-path="url(#p676c054513)" d="M 972 60.48 
L 621.082095 121.946087 
L 508.084797 165.585 
L 443.825399 200.562353 
L 402.51458 227.823221 
L 371.972906 248.139904 
L 350.997887 263.793971 
L 335.327541 278.057832 
L 323.122966 290.750397 
L 313.066293 301.116725 
L 304.922872 309.679823 
L 297.418222 316.053512 
L 290.411141 321.906039 
L 284.035202 328.145782 
L 277.717463 333.736006 
L 272.405272 338.871024 
L 267.513802 344.069484 
L 263.564215 347.920552 
L 259.122101 351.859295 
L 255.370296 355.926953 
L 252.017782 359.860864 
L 249.204876 363.671352 
L 246.32475 366.090493 
L 243.589619 368.153754 
L 241.17947 370.560522 
L 238.855268 372.461463 
L 236.731079 374.380681 
L 234.588683 376.195723 
L 232.658058 378.028839 
L 230.716573 379.68479 
L 228.597255 381.33301 
L 226.385519 383.077519 
L 224.507196 384.732983 
L 222.850839 386.147597 
L 221.039589 387.857563 
L 219.296959 389.322497 
L 217.518944 390.828335 
L 216.050336 392.335654 
L 214.666739 393.75278 
L 213.341524 395.275236 
L 212.051972 396.278445 
L 210.720332 397.118764 
L 209.492971 397.831695 
L 208.429126 398.587597 
L 207.236665 399.375294 
L 206.042624 400.04319 
L 204.747669 400.647223 
L 203.405722 401.309913 
L 202.239523 402.060965 
L 201.281617 402.827191 
L 200.318632 403.518431 
L 199.415662 404.226023 
L 198.259922 404.944591 
L 197.320497 405.61248 
L 196.409969 406.184148 
L 195.446805 406.652381 
L 194.689196 407.183296 
L 193.950929 407.608383 
L 193.038557 408.018535 
L 192.461644 408.549354 
L 191.689142 409.075518 
L 190.815092 409.59468 
L 189.999283 410.169048 
L 189.148299 410.775199 
L 188.492295 411.337798 
L 187.70719 411.902679 
L 187.065123 412.383782 
L 186.410927 413.062928 
L 185.712637 413.545422 
L 185.08452 414.069595 
L 184.593804 414.52776 
L 184.018546 414.983289 
L 183.467232 415.365993 
L 182.73648 415.714055 
L 182.22451 416.039442 
L 181.674681 416.334451 
L 181.124003 416.735582 
L 180.673419 417.027274 
L 180.213499 417.391339 
L 179.717876 417.647381 
L 179.221008 417.963047 
L 178.691544 418.302915 
L 178.226512 418.572258 
L 177.564629 418.947319 
L 177.055938 419.255848 
L 176.590613 419.533298 
L 176.083953 419.816042 
L 175.624672 420.088218 
L 175.231975 420.431219 
L 174.779382 420.702242 
L 174.258424 421.028675 
L 173.808758 421.268589 
L 173.30339 421.441114 
L 172.889857 421.6482 
L 172.519588 421.826332 
L 172.074229 422.16387 
L 171.655548 422.372446 
L 171.237038 422.642471 
L 170.771375 422.823811 
L 170.398732 423.09747 
L 170.080482 423.417686 
" style="fill:none;stroke:#ff7f0e;stroke-linecap:square;stroke-width:1.5;"/>
   </g>
   <g id="line2d_16">
    <path clip-path="url(#p676c054513)" d="M 972 60.48 
L 886.946227 70.028988 
L 836.930071 78.846801 
L 797.470388 87.797446 
L 764.617355 96.368996 
L 736.751896 103.943817 
L 715.360173 110.607881 
L 697.641063 117.766899 
L 682.715664 124.5825 
L 670.712172 130.919486 
L 659.916682 136.557161 
L 649.938263 140.782284 
L 640.35264 144.924041 
L 630.9593 149.789013 
L 620.934822 154.148556 
L 612.441899 158.687913 
L 604.549902 163.215145 
L 597.610331 166.633583 
L 589.935899 170.305678 
L 582.822119 174.411172 
L 576.45194 178.594895 
L 571.069149 183.094107 
L 565.167994 186.134693 
L 559.786633 188.848193 
L 554.480204 192.229606 
L 549.763183 195.002441 
L 545.35242 197.760404 
L 540.790622 200.647838 
L 536.377536 203.535871 
L 532.314677 206.256932 
L 527.542931 209.08226 
L 522.639678 211.998389 
L 518.04827 214.68974 
L 513.913706 217.16013 
L 509.516935 219.953679 
L 505.143431 222.359392 
L 500.534195 224.835051 
L 496.365779 227.40972 
L 492.617683 229.906451 
L 488.895874 232.099374 
L 485.343043 233.619487 
L 481.836371 235.263573 
L 478.560207 236.909286 
L 475.160208 238.617708 
L 471.59286 240.281782 
L 468.104005 241.803872 
L 464.827461 243.147242 
L 461.343321 244.796139 
L 458.230456 246.658214 
L 455.3507 248.627957 
L 452.351798 250.350886 
L 449.46201 252.402144 
L 446.043593 254.239853 
L 442.785309 255.929328 
L 439.950435 257.54886 
L 437.421304 258.888427 
L 434.764113 260.276975 
L 431.911884 261.488768 
L 428.987333 262.848251 
L 426.56652 264.258509 
L 423.973106 265.79779 
L 421.232042 267.127807 
L 418.813349 268.701896 
L 415.834954 270.327216 
L 413.3329 271.981606 
L 410.751176 273.648918 
L 408.216039 274.995474 
L 405.571128 276.765577 
L 402.92518 277.914008 
L 400.651895 279.166288 
L 398.396621 280.307384 
L 395.874374 281.751794 
L 393.692122 283.031875 
L 391.180678 284.191867 
L 388.979329 285.343688 
L 386.503133 286.380917 
L 384.258297 287.436426 
L 382.147289 288.528863 
L 379.754044 289.68071 
L 377.451072 290.677814 
L 375.068595 291.652025 
L 372.764965 292.735421 
L 370.649946 293.718665 
L 368.436081 294.970574 
L 366.300394 296.209019 
L 364.284403 297.379718 
L 362.092856 298.563772 
L 359.557301 299.673061 
L 357.538873 300.890482 
L 355.510982 301.937177 
L 353.459834 303.102516 
L 351.534647 304.067073 
L 349.541773 304.799106 
L 347.329648 305.558825 
L 345.464299 306.21319 
L 343.170786 307.038068 
L 341.084964 307.822956 
L 338.905111 308.556017 
L 336.985299 309.344615 
L 335.025571 310.264356 
L 333.040653 311.214023 
" style="fill:none;stroke:#2ca02c;stroke-linecap:square;stroke-width:1.5;"/>
   </g>
   <g id="line2d_17">
    <path clip-path="url(#p676c054513)" d="M 972 60.48 
L 795.6 85.251064 
L 710.038168 106.728736 
L 649.760709 127.084479 
L 604.742755 145.347598 
L 568.833343 160.106081 
L 542.528263 172.434978 
L 521.838335 184.83299 
L 505.007582 196.13403 
L 491.037313 206.220044 
L 479.001249 214.628578 
L 467.846006 221.076945 
L 457.73161 227.318488 
L 447.848483 233.911665 
L 437.617822 240.49147 
L 429.071398 246.881475 
L 420.951555 253.242154 
L 413.976936 257.913934 
L 406.537503 262.978588 
L 399.929218 268.310233 
L 394.014987 273.737812 
L 388.941094 279.141151 
L 383.596702 282.609659 
L 378.455165 285.773114 
L 373.695594 289.408183 
L 369.511118 292.363308 
L 365.728442 295.171248 
L 361.665989 298.060542 
L 357.941221 301.039555 
L 354.391839 303.772429 
L 350.463885 306.456306 
L 346.601452 309.143906 
L 342.875354 311.808255 
L 339.560482 314.12169 
L 336.151881 316.666602 
L 332.764664 319.019257 
L 329.103142 321.334036 
L 326.119886 323.66793 
L 323.125976 326.00711 
L 320.276559 328.116274 
L 317.641266 329.595876 
L 315.031432 331.038027 
L 312.489732 332.379197 
L 309.994657 333.776446 
L 307.402348 335.194689 
L 304.925926 336.393813 
L 302.519342 337.536993 
L 299.935885 338.859154 
L 297.561879 340.336609 
L 295.457966 341.862813 
L 293.452172 343.178709 
L 291.329601 344.725001 
L 288.888005 346.082079 
L 286.68237 347.333024 
L 284.703073 348.518171 
L 282.819489 349.523737 
L 281.055181 350.54208 
L 279.167317 351.435136 
L 277.32784 352.362115 
L 275.78056 353.36706 
L 274.229753 354.445893 
L 272.431578 355.450049 
L 270.866646 356.586469 
L 269.042291 357.744217 
L 267.438365 358.898369 
L 265.696794 360.044699 
L 264.056297 360.90464 
L 262.590317 362.174958 
L 260.923462 363.061512 
L 259.523579 364.072007 
L 258.214732 364.891203 
L 256.616573 365.882006 
L 255.300141 366.737915 
L 253.931096 367.487611 
L 252.702409 368.207749 
L 251.274099 368.875691 
L 249.880122 369.580797 
L 248.670307 370.317053 
L 247.43688 371.06503 
L 245.969746 371.69058 
L 244.597 372.35827 
L 243.279546 373.02378 
L 242.091508 373.631082 
L 240.789595 374.461644 
L 239.666438 375.195477 
L 238.506635 375.905521 
L 237.254837 376.591439 
L 236.024035 377.304647 
L 234.921404 378.065101 
L 233.804643 378.688405 
L 232.624696 379.375593 
L 231.547821 379.932216 
L 230.442831 380.353477 
L 229.196349 380.815927 
L 228.207079 381.267644 
L 227.008974 381.799767 
L 225.870518 382.307509 
L 224.654354 382.765102 
L 223.68986 383.222345 
L 222.65786 383.872113 
L 221.576801 384.481455 
" style="fill:none;stroke:#d62728;stroke-linecap:square;stroke-width:1.5;"/>
   </g>
   <g id="line2d_18">
    <path clip-path="url(#p676c054513)" d="M 972 60.48 
L 920.849632 63.081996 
L 887.450027 65.280119 
L 858.373086 67.481443 
L 835.004543 69.75482 
L 812.812698 71.790024 
L 794.143271 73.314506 
L 780.565469 75.200143 
L 769.10625 77.47536 
L 762.806174 78.963675 
L 757.14909 80.897138 
L 750.54631 81.97974 
L 743.226675 82.819173 
L 736.069344 84.296481 
L 730.816432 85.628618 
L 725.742149 87.168127 
L 720.258197 89.181339 
L 714.028487 90.259103 
L 709.281899 91.49614 
L 704.861776 92.883262 
L 700.897268 94.20514 
L 698.076755 96.071111 
L 694.942124 97.069247 
L 691.681597 98.042651 
L 688.883912 99.336571 
L 685.949458 100.300735 
L 683.33483 101.460664 
L 680.810862 102.630859 
L 678.434642 103.753356 
L 676.221876 104.800662 
L 673.651557 105.727542 
L 670.695945 106.787543 
L 667.553312 107.823723 
L 664.773651 108.627566 
L 661.657494 109.425182 
L 658.02433 110.874679 
L 654.306569 111.936533 
L 651.40755 112.778557 
L 648.227455 113.734532 
L 645.422345 114.770555 
L 642.669528 115.4982 
L 639.451029 116.359529 
L 636.316623 117.101849 
L 633.879958 117.620358 
L 631.707644 118.419174 
L 629.380419 118.85264 
L 626.827174 119.42939 
L 624.041664 120.229612 
L 621.378478 121.075681 
L 619.165719 122.162974 
L 616.833119 122.820823 
L 614.458823 123.917764 
L 611.798058 125.062338 
L 609.124756 125.982617 
L 606.657778 126.686557 
L 604.362863 127.550393 
L 601.927039 128.394 
L 599.468805 129.181157 
L 596.988103 130.333564 
L 595.054066 131.392876 
L 592.545985 132.436326 
L 590.112544 133.411988 
L 587.832875 134.415895 
L 584.905433 135.393121 
L 582.576845 136.353413 
L 579.962676 137.612619 
L 577.557523 138.387633 
L 574.257802 139.255319 
L 571.406789 139.807811 
L 569.361886 140.538754 
L 567.349182 141.145021 
L 564.779721 141.580115 
L 562.406982 142.302579 
L 559.95328 142.947525 
L 557.328234 143.394106 
L 554.822224 143.93987 
L 552.238191 144.453969 
L 550.064359 145.318635 
L 547.045571 146.19221 
L 544.194216 146.752716 
L 541.72 147.430795 
L 539.393994 148.119119 
L 537.266358 148.835056 
L 534.854613 149.729134 
L 532.672372 150.380426 
L 530.557155 151.257962 
L 527.971168 151.939149 
L 525.080248 152.532458 
L 522.68916 153.039067 
L 519.949085 153.673323 
L 517.0621 154.440668 
L 514.291783 155.342119 
L 511.395226 155.987863 
L 508.636692 156.62156 
L 506.378753 157.023009 
L 503.536397 157.563703 
L 500.976256 158.264941 
L 498.106311 158.977894 
L 495.515264 159.723619 
L 492.436275 160.357292 
L 489.862463 161.107564 
" style="fill:none;stroke:#9467bd;stroke-linecap:square;stroke-width:1.5;"/>
   </g>
   <g id="line2d_19">
    <path clip-path="url(#p676c054513)" d="M 972 60.48 
L 861.477531 75.601488 
L 799.1524 88.903284 
L 751.18647 101.8035 
L 713.004702 114.033639 
L 681.459125 124.773851 
L 657.151679 133.844712 
L 637.651724 143.043297 
L 621.26897 151.792941 
L 607.654321 159.767839 
L 595.899625 166.763216 
L 584.760395 171.855192 
L 574.11552 177.118179 
L 563.750107 182.917333 
L 552.908921 188.332443 
L 543.651644 193.903066 
L 535.045918 199.546001 
L 527.598647 203.768925 
L 519.501053 208.356868 
L 512.299896 213.320287 
L 505.758062 218.428937 
L 500.063174 223.447019 
L 493.860425 227.01775 
L 488.059497 230.089192 
L 482.505107 233.731838 
L 477.683023 237.057925 
L 473.09503 240.060047 
L 468.419788 243.231666 
L 463.901452 246.38997 
L 459.797658 249.255961 
L 455.00502 252.235479 
L 450.099105 255.209603 
L 445.480651 257.981636 
L 441.253222 260.54 
L 436.879906 263.456508 
L 432.651811 266.002808 
L 428.168385 268.57528 
L 424.261826 271.304145 
L 420.613619 273.835947 
L 417.002158 276.151305 
L 413.592321 277.807443 
L 410.165661 279.440663 
L 406.886954 281.01455 
L 403.578817 282.714215 
L 400.332885 284.373954 
L 397.047479 285.876456 
L 393.980926 287.240719 
L 390.622415 288.920385 
L 387.574336 290.754127 
L 384.795715 292.69248 
L 382.017195 294.47453 
L 379.227821 296.519254 
L 376.112236 298.302405 
L 373.046553 299.893728 
L 370.346043 301.399557 
L 367.95042 302.63641 
L 365.514969 303.878735 
L 362.924934 305.012631 
L 360.344274 306.168569 
L 358.146341 307.455727 
L 355.843236 308.833636 
L 353.333053 310.083369 
L 351.236705 311.602766 
L 348.512522 313.112031 
L 346.298163 314.556624 
L 344.015543 316.013944 
L 341.731228 317.161253 
L 339.471893 318.765602 
L 337.149701 319.883873 
L 335.201866 321.050046 
L 333.173038 322.033872 
L 330.993566 323.2958 
L 329.040968 324.41873 
L 326.991538 325.388303 
L 325.024806 326.292982 
L 323.04763 327.23099 
L 321.070383 328.184846 
L 319.272526 329.158667 
L 317.313827 330.097236 
L 315.331068 330.962566 
L 313.332454 331.783767 
L 311.382597 332.740987 
L 309.573493 333.601743 
L 307.660404 334.664435 
L 305.901899 335.650531 
L 304.253765 336.619193 
L 302.32648 337.621965 
L 300.263135 338.619348 
L 298.687731 339.72866 
L 296.994104 340.642913 
L 295.319761 341.636107 
L 293.809204 342.482903 
L 292.18427 343.090645 
L 290.353217 343.71549 
L 288.844996 344.295965 
L 287.046505 344.986755 
L 285.428675 345.655174 
L 283.610433 346.280393 
L 282.077464 346.921837 
L 280.535109 347.699489 
L 278.925917 348.505135 
" style="fill:none;stroke:#8c564b;stroke-linecap:square;stroke-width:1.5;"/>
   </g>
   <g id="line2d_20">
    <path clip-path="url(#p676c054513)" d="M 972 60.48 
L 876.952491 72.259831 
L 821.421394 82.505555 
L 778.228076 92.937829 
L 743.824817 102.982391 
L 714.663697 111.866979 
L 692.10621 119.59544 
L 673.682901 127.663305 
L 658.251749 135.311186 
L 645.588025 142.376911 
L 634.229264 148.572286 
L 623.786258 153.133793 
L 613.567567 157.723221 
L 603.712696 162.911927 
L 593.190649 167.896894 
L 584.217502 172.756039 
L 576.002527 177.848253 
L 568.691725 181.59837 
L 560.819356 185.565332 
L 553.728268 190.15322 
L 547.367457 194.802789 
L 541.7753 199.674483 
L 535.72004 202.944128 
L 530.163465 205.795109 
L 524.744715 209.356251 
L 519.962822 212.187507 
L 515.516695 214.8697 
L 510.878653 217.766764 
L 506.469914 220.779534 
L 502.360048 223.599938 
L 497.549654 226.503035 
L 492.673141 229.318959 
L 488.133045 232.167882 
L 484.025639 234.65604 
L 479.654817 237.487575 
L 475.22726 239.928689 
L 470.756243 242.492408 
L 466.740022 245.074655 
L 462.882773 247.601655 
L 459.192863 249.766188 
L 455.652003 251.302555 
L 452.163324 252.96373 
L 448.932427 254.52 
L 445.52298 256.269445 
L 442.058038 257.975969 
L 438.672151 259.447534 
L 435.480278 260.765206 
L 432.048653 262.500786 
L 428.933879 264.361263 
L 426.113001 266.333979 
L 423.32918 268.054361 
L 420.436284 270.131253 
L 417.074884 271.963037 
L 413.908796 273.542357 
L 411.118333 275.116203 
L 408.613612 276.377832 
L 406.121633 277.6973 
L 403.335266 278.881184 
L 400.490838 280.203621 
L 398.12409 281.605454 
L 395.617297 283.095666 
L 393.004057 284.36349 
L 390.678323 285.909242 
L 387.831995 287.524617 
L 385.443453 289.121211 
L 382.984591 290.771885 
L 380.590045 292.035323 
L 378.143207 293.749627 
L 375.642982 294.871998 
L 373.447533 296.111029 
L 371.313957 297.195775 
L 368.930208 298.551324 
L 366.84849 299.795106 
L 364.572711 300.82591 
L 362.521989 301.917395 
L 360.323825 302.935353 
L 358.187112 303.935766 
L 356.23869 305.029062 
L 354.052573 306.028737 
L 351.903727 306.941015 
L 349.679449 307.827313 
L 347.48122 308.816857 
L 345.470605 309.743676 
L 343.418765 310.884932 
L 341.425767 312.015526 
L 339.489709 313.060026 
L 337.384161 314.153845 
L 335.090508 315.20381 
L 333.267545 316.365484 
L 331.40674 317.347603 
L 329.494355 318.471443 
L 327.732603 319.32 
L 325.92879 319.982814 
L 323.801616 320.717674 
L 322.083837 321.357352 
L 320.007155 322.117327 
L 318.165097 322.86529 
L 316.0771 323.574726 
L 314.330345 324.286561 
L 312.56531 325.207084 
L 310.680231 326.101393 
" style="fill:none;stroke:#e377c2;stroke-linecap:square;stroke-width:1.5;"/>
   </g>
   <g id="line2d_21">
    <path clip-path="url(#p676c054513)" d="M 972 60.48 
L 883.160148 70.303729 
L 831.286317 79.108289 
L 791.487035 88.34173 
L 758.943629 97.139816 
L 730.732287 104.892063 
L 708.762594 111.816526 
L 690.777499 119.269838 
L 676.532011 126.197692 
L 664.724831 132.683259 
L 653.549266 138.698057 
L 643.321874 142.948532 
L 633.573189 147.057677 
L 623.844957 151.815611 
L 613.49113 156.370123 
L 604.794348 160.922003 
L 596.848327 165.686945 
L 589.505208 169.187324 
L 581.785858 172.924169 
L 574.688702 177.176191 
L 568.40843 181.641826 
L 562.919614 186.380002 
L 556.955886 189.561774 
L 551.468886 192.262556 
L 546.086086 195.681921 
L 541.353427 198.362437 
L 536.970034 201.055636 
L 532.453136 203.734222 
L 528.168971 206.598753 
L 524.032433 209.320851 
L 519.200426 212.133912 
L 514.429668 214.9607 
L 509.892497 217.706667 
L 505.846982 220.101273 
L 501.436673 222.845063 
L 497.114605 225.273213 
L 492.622133 227.765366 
L 488.533766 230.334716 
L 484.731364 232.823268 
L 480.943477 234.963244 
L 477.38268 236.495412 
L 473.87491 238.161426 
L 470.571762 239.714372 
L 467.15393 241.413054 
L 463.653491 243.094344 
L 460.222114 244.545936 
L 456.961654 245.884534 
L 453.413555 247.607978 
L 450.27365 249.44536 
L 447.397221 251.411764 
L 444.527503 253.150172 
L 441.621412 255.238037 
L 438.244367 257.120972 
L 435.033364 258.776 
L 432.263396 260.384254 
L 429.784271 261.663541 
L 427.202763 263.041343 
L 424.380882 264.243537 
L 421.513352 265.609042 
L 419.096572 267.022905 
L 416.581299 268.563081 
L 413.890198 269.877494 
L 411.452019 271.450144 
L 408.533404 273.106139 
L 406.08827 274.810728 
L 403.500042 276.490593 
L 400.98344 277.765781 
L 398.393738 279.508296 
L 395.842684 280.649387 
L 393.562353 281.921351 
L 391.30566 283.011798 
L 388.858261 284.378195 
L 386.728796 285.653031 
L 384.369822 286.723888 
L 382.236564 287.837124 
L 379.918144 288.884985 
L 377.689439 289.9307 
L 375.680004 291.037486 
L 373.342215 292.081713 
L 371.070962 293.022477 
L 368.726637 293.97952 
L 366.478574 295.004104 
L 364.426066 295.947373 
L 362.306754 297.138605 
L 360.211852 298.328218 
L 358.17226 299.43637 
L 355.982241 300.5615 
L 353.585947 301.650343 
L 351.639913 302.846377 
L 349.677499 303.902284 
L 347.659556 305.076794 
L 345.757051 305.965921 
L 343.807465 306.687647 
L 341.549778 307.478092 
L 339.728033 308.148134 
L 337.516637 308.932761 
L 335.491656 309.694953 
L 333.277747 310.427487 
L 331.312761 311.206875 
L 329.426463 312.151033 
L 327.442588 313.0796 
" style="fill:none;stroke:#7f7f7f;stroke-linecap:square;stroke-width:1.5;"/>
   </g>
   <g id="line2d_22">
    <path clip-path="url(#p676c054513)" d="M 972 60.48 
L 889.694289 69.880301 
L 841.178906 78.512759 
L 802.529151 87.293427 
L 770.496027 95.753393 
L 743.342826 103.223661 
L 722.6037 109.849313 
L 705.141432 116.917039 
L 690.564402 123.628165 
L 678.529102 129.978793 
L 667.521732 135.681201 
L 657.62123 139.871544 
L 648.082942 144.049948 
L 638.523218 148.90384 
L 628.363561 153.282208 
L 619.79162 157.729817 
L 611.83117 162.232165 
L 604.842939 165.667662 
L 597.067654 169.358058 
L 589.955475 173.425237 
L 583.516821 177.614724 
L 578.101909 182.024928 
L 572.119626 185.07034 
L 566.699801 187.773655 
L 561.264445 191.110608 
L 556.521445 193.916905 
L 552.048527 196.577569 
L 547.397344 199.449525 
L 542.908056 202.335742 
L 538.769894 205.029435 
L 533.926817 207.854597 
L 528.949714 210.807113 
L 524.326701 213.520275 
L 520.071999 215.965313 
L 515.610349 218.759739 
L 511.204664 221.152322 
L 506.509437 223.62746 
L 502.27636 226.213292 
L 498.445916 228.709649 
L 494.685936 230.878387 
L 491.084349 232.389758 
L 487.521137 234.029955 
L 484.218955 235.662376 
L 480.787993 237.387766 
L 477.139105 239.029225 
L 473.579957 240.565585 
L 470.274995 241.930563 
L 466.705218 243.595354 
L 463.564406 245.465791 
L 460.643986 247.391929 
L 457.597702 249.122792 
L 454.658067 251.194778 
L 451.204458 253.025085 
L 447.917793 254.698353 
L 445.040372 256.326987 
L 442.490715 257.67232 
L 439.812336 259.066439 
L 436.901272 260.274646 
L 433.950755 261.640886 
L 431.502172 263.058487 
L 428.88522 264.598613 
L 426.09576 265.93508 
L 423.650479 267.511282 
L 420.624065 269.146374 
L 418.078214 270.805098 
L 415.460385 272.440104 
L 412.894174 273.795392 
L 410.221369 275.571881 
L 407.516768 276.725849 
L 405.215903 277.985011 
L 402.93015 279.131548 
L 400.377313 280.585769 
L 398.141037 281.854465 
L 395.623547 283.028901 
L 393.403869 284.182166 
L 390.903146 285.231476 
L 388.6377 286.2921 
L 386.49451 287.384229 
L 384.118674 288.512299 
L 381.812207 289.508857 
L 379.382451 290.494211 
L 377.045533 291.57264 
L 374.897893 292.561546 
L 372.65123 293.828558 
L 370.491869 295.076491 
L 368.444805 296.261798 
L 366.231331 297.454846 
L 363.69116 298.571466 
L 361.669241 299.796958 
L 359.648592 300.856844 
L 357.575901 302.01789 
L 355.643774 302.962581 
L 353.672528 303.703775 
L 351.417704 304.466418 
L 349.522553 305.127796 
L 347.201785 305.946362 
L 345.087914 306.730553 
L 342.88633 307.466688 
L 340.934601 308.249651 
L 338.956578 309.189724 
L 336.945607 310.14097 
" style="fill:none;stroke:#bcbd22;stroke-linecap:square;stroke-width:1.5;"/>
   </g>
   <g id="line2d_23">
    <path clip-path="url(#p676c054513)" d="M 972 60.48 
L 894.577828 68.44097 
L 849.225884 76.023285 
L 812.54592 84.093452 
L 782.296038 91.988495 
L 756.280636 98.775929 
L 736.08995 104.826435 
L 719.399034 111.405491 
L 705.476384 117.535694 
L 693.966286 123.458626 
L 683.42999 128.682382 
L 673.617458 132.381587 
L 664.653779 136.206899 
L 655.42623 140.375851 
L 645.742803 144.428308 
L 637.538084 148.663662 
L 629.680228 152.946142 
L 622.789813 156.201529 
L 615.206012 159.754451 
L 608.225571 163.660775 
L 602.062981 167.591558 
L 596.813937 171.815694 
L 590.994193 174.717336 
L 585.568082 177.367185 
L 580.237213 180.5171 
L 575.511864 183.229583 
L 571.180849 185.881087 
L 566.659519 188.626141 
L 562.347228 191.533242 
L 558.211919 194.189474 
L 553.477419 196.952116 
L 548.727691 199.714809 
L 544.238915 202.410733 
L 540.105491 204.764543 
L 535.878006 207.51918 
L 531.504196 209.903928 
L 526.867676 212.372654 
L 522.742931 214.859886 
L 518.960159 217.319989 
L 515.188017 219.415452 
L 511.500551 220.903288 
L 507.905139 222.595703 
L 504.526596 224.213062 
L 501.021967 225.960074 
L 497.426792 227.611827 
L 493.982376 229.082139 
L 490.711919 230.477328 
L 487.173547 232.186094 
L 484.027542 234.068311 
L 481.0401 236.054259 
L 477.982511 237.826963 
L 475.081553 239.957127 
L 471.666138 241.75755 
L 468.313391 243.437351 
L 465.411317 245.094922 
L 462.77592 246.422903 
L 460.124328 247.82564 
L 457.197381 249.068404 
L 454.278118 250.406416 
L 451.821303 251.813425 
L 449.168189 253.35903 
L 446.341845 254.732341 
L 443.897771 256.349828 
L 440.869937 258.0282 
L 438.255833 259.783543 
L 435.591399 261.47663 
L 432.981219 262.812831 
L 430.255803 264.613424 
L 427.49661 265.853953 
L 425.147244 267.15839 
L 422.839073 268.296787 
L 420.267218 269.760231 
L 417.974008 271.100545 
L 415.420991 272.313479 
L 413.209734 273.502494 
L 410.672098 274.600192 
L 408.321663 275.675094 
L 406.138394 276.836605 
L 403.593933 277.987194 
L 401.209481 279.008378 
L 398.736135 280.051009 
L 396.269402 281.139699 
L 394.008422 282.111103 
L 391.758983 283.370431 
L 389.47507 284.619504 
L 387.31493 285.823152 
L 385.016933 287.014602 
L 382.425747 288.162 
L 380.33957 289.445666 
L 378.203856 290.568493 
L 376.080128 291.763775 
L 374.046853 292.773738 
L 372.000854 293.545304 
L 369.668643 294.33821 
L 367.747852 295.040319 
L 365.307012 295.848586 
L 363.109488 296.680684 
L 360.809819 297.423932 
L 358.77278 298.25544 
L 356.664735 299.210049 
L 354.587991 300.182813 
" style="fill:none;stroke:#17becf;stroke-linecap:square;stroke-width:1.5;"/>
   </g>
   <g id="patch_3">
    <path d="M 135 448.56 
L 135 60.48 
" style="fill:none;stroke:#000000;stroke-linecap:square;stroke-linejoin:miter;stroke-width:0.8;"/>
   </g>
   <g id="patch_4">
    <path d="M 972 448.56 
L 972 60.48 
" style="fill:none;stroke:#000000;stroke-linecap:square;stroke-linejoin:miter;stroke-width:0.8;"/>
   </g>
   <g id="patch_5">
    <path d="M 135 448.56 
L 972 448.56 
" style="fill:none;stroke:#000000;stroke-linecap:square;stroke-linejoin:miter;stroke-width:0.8;"/>
   </g>
   <g id="patch_6">
    <path d="M 135 60.48 
L 972 60.48 
" style="fill:none;stroke:#000000;stroke-linecap:square;stroke-linejoin:miter;stroke-width:0.8;"/>
   </g>
   <g id="legend_1">
    <g id="patch_7">
     <path d="M 147.6 339.08625 
L 256.730625 339.08625 
Q 260.330625 339.08625 260.330625 335.48625 
L 260.330625 73.08 
Q 260.330625 69.48 256.730625 69.48 
L 147.6 69.48 
Q 144 69.48 144 73.08 
L 144 335.48625 
Q 144 339.08625 147.6 339.08625 
z
" style="fill:#ffffff;opacity:0.8;stroke:#cccccc;stroke-linejoin:miter;"/>
    </g>
    <g id="line2d_24">
     <path d="M 151.2 84.057188 
L 187.2 84.057188 
" style="fill:none;stroke:#1f77b4;stroke-linecap:square;stroke-width:1.5;"/>
    </g>
    <g id="line2d_25"/>
    <g id="text_15">
     <!-- 0.001 -->
     <g transform="translate(201.6 90.357188)scale(0.18 -0.18)">
      <use xlink:href="#DejaVuSans-30"/>
      <use x="63.623047" xlink:href="#DejaVuSans-2e"/>
      <use x="95.410156" xlink:href="#DejaVuSans-30"/>
      <use x="159.033203" xlink:href="#DejaVuSans-30"/>
      <use x="222.65625" xlink:href="#DejaVuSans-31"/>
     </g>
    </g>
    <g id="line2d_26">
     <path d="M 151.2 110.477812 
L 187.2 110.477812 
" style="fill:none;stroke:#ff7f0e;stroke-linecap:square;stroke-width:1.5;"/>
    </g>
    <g id="line2d_27"/>
    <g id="text_16">
     <!-- 0.011 -->
     <g transform="translate(201.6 116.777812)scale(0.18 -0.18)">
      <use xlink:href="#DejaVuSans-30"/>
      <use x="63.623047" xlink:href="#DejaVuSans-2e"/>
      <use x="95.410156" xlink:href="#DejaVuSans-30"/>
      <use x="159.033203" xlink:href="#DejaVuSans-31"/>
      <use x="222.65625" xlink:href="#DejaVuSans-31"/>
     </g>
    </g>
    <g id="line2d_28">
     <path d="M 151.2 136.898438 
L 187.2 136.898438 
" style="fill:none;stroke:#2ca02c;stroke-linecap:square;stroke-width:1.5;"/>
    </g>
    <g id="line2d_29"/>
    <g id="text_17">
     <!-- 0.021 -->
     <g transform="translate(201.6 143.198438)scale(0.18 -0.18)">
      <use xlink:href="#DejaVuSans-30"/>
      <use x="63.623047" xlink:href="#DejaVuSans-2e"/>
      <use x="95.410156" xlink:href="#DejaVuSans-30"/>
      <use x="159.033203" xlink:href="#DejaVuSans-32"/>
      <use x="222.65625" xlink:href="#DejaVuSans-31"/>
     </g>
    </g>
    <g id="line2d_30">
     <path d="M 151.2 163.319062 
L 187.2 163.319062 
" style="fill:none;stroke:#d62728;stroke-linecap:square;stroke-width:1.5;"/>
    </g>
    <g id="line2d_31"/>
    <g id="text_18">
     <!-- 0.031 -->
     <g transform="translate(201.6 169.619062)scale(0.18 -0.18)">
      <defs>
       <path d="M 2597 2516 
Q 3050 2419 3304 2112 
Q 3559 1806 3559 1356 
Q 3559 666 3084 287 
Q 2609 -91 1734 -91 
Q 1441 -91 1130 -33 
Q 819 25 488 141 
L 488 750 
Q 750 597 1062 519 
Q 1375 441 1716 441 
Q 2309 441 2620 675 
Q 2931 909 2931 1356 
Q 2931 1769 2642 2001 
Q 2353 2234 1838 2234 
L 1294 2234 
L 1294 2753 
L 1863 2753 
Q 2328 2753 2575 2939 
Q 2822 3125 2822 3475 
Q 2822 3834 2567 4026 
Q 2313 4219 1838 4219 
Q 1578 4219 1281 4162 
Q 984 4106 628 3988 
L 628 4550 
Q 988 4650 1302 4700 
Q 1616 4750 1894 4750 
Q 2613 4750 3031 4423 
Q 3450 4097 3450 3541 
Q 3450 3153 3228 2886 
Q 3006 2619 2597 2516 
z
" id="DejaVuSans-33" transform="scale(0.015625)"/>
      </defs>
      <use xlink:href="#DejaVuSans-30"/>
      <use x="63.623047" xlink:href="#DejaVuSans-2e"/>
      <use x="95.410156" xlink:href="#DejaVuSans-30"/>
      <use x="159.033203" xlink:href="#DejaVuSans-33"/>
      <use x="222.65625" xlink:href="#DejaVuSans-31"/>
     </g>
    </g>
    <g id="line2d_32">
     <path d="M 151.2 189.739688 
L 187.2 189.739688 
" style="fill:none;stroke:#9467bd;stroke-linecap:square;stroke-width:1.5;"/>
    </g>
    <g id="line2d_33"/>
    <g id="text_19">
     <!-- 0.041 -->
     <g transform="translate(201.6 196.039688)scale(0.18 -0.18)">
      <use xlink:href="#DejaVuSans-30"/>
      <use x="63.623047" xlink:href="#DejaVuSans-2e"/>
      <use x="95.410156" xlink:href="#DejaVuSans-30"/>
      <use x="159.033203" xlink:href="#DejaVuSans-34"/>
      <use x="222.65625" xlink:href="#DejaVuSans-31"/>
     </g>
    </g>
    <g id="line2d_34">
     <path d="M 151.2 216.160312 
L 187.2 216.160312 
" style="fill:none;stroke:#8c564b;stroke-linecap:square;stroke-width:1.5;"/>
    </g>
    <g id="line2d_35"/>
    <g id="text_20">
     <!-- 0.051 -->
     <g transform="translate(201.6 222.460312)scale(0.18 -0.18)">
      <defs>
       <path d="M 691 4666 
L 3169 4666 
L 3169 4134 
L 1269 4134 
L 1269 2991 
Q 1406 3038 1543 3061 
Q 1681 3084 1819 3084 
Q 2600 3084 3056 2656 
Q 3513 2228 3513 1497 
Q 3513 744 3044 326 
Q 2575 -91 1722 -91 
Q 1428 -91 1123 -41 
Q 819 9 494 109 
L 494 744 
Q 775 591 1075 516 
Q 1375 441 1709 441 
Q 2250 441 2565 725 
Q 2881 1009 2881 1497 
Q 2881 1984 2565 2268 
Q 2250 2553 1709 2553 
Q 1456 2553 1204 2497 
Q 953 2441 691 2322 
L 691 4666 
z
" id="DejaVuSans-35" transform="scale(0.015625)"/>
      </defs>
      <use xlink:href="#DejaVuSans-30"/>
      <use x="63.623047" xlink:href="#DejaVuSans-2e"/>
      <use x="95.410156" xlink:href="#DejaVuSans-30"/>
      <use x="159.033203" xlink:href="#DejaVuSans-35"/>
      <use x="222.65625" xlink:href="#DejaVuSans-31"/>
     </g>
    </g>
    <g id="line2d_36">
     <path d="M 151.2 242.580937 
L 187.2 242.580937 
" style="fill:none;stroke:#e377c2;stroke-linecap:square;stroke-width:1.5;"/>
    </g>
    <g id="line2d_37"/>
    <g id="text_21">
     <!-- 0.061 -->
     <g transform="translate(201.6 248.880937)scale(0.18 -0.18)">
      <use xlink:href="#DejaVuSans-30"/>
      <use x="63.623047" xlink:href="#DejaVuSans-2e"/>
      <use x="95.410156" xlink:href="#DejaVuSans-30"/>
      <use x="159.033203" xlink:href="#DejaVuSans-36"/>
      <use x="222.65625" xlink:href="#DejaVuSans-31"/>
     </g>
    </g>
    <g id="line2d_38">
     <path d="M 151.2 269.001562 
L 187.2 269.001562 
" style="fill:none;stroke:#7f7f7f;stroke-linecap:square;stroke-width:1.5;"/>
    </g>
    <g id="line2d_39"/>
    <g id="text_22">
     <!-- 0.071 -->
     <g transform="translate(201.6 275.301562)scale(0.18 -0.18)">
      <defs>
       <path d="M 525 4666 
L 3525 4666 
L 3525 4397 
L 1831 0 
L 1172 0 
L 2766 4134 
L 525 4134 
L 525 4666 
z
" id="DejaVuSans-37" transform="scale(0.015625)"/>
      </defs>
      <use xlink:href="#DejaVuSans-30"/>
      <use x="63.623047" xlink:href="#DejaVuSans-2e"/>
      <use x="95.410156" xlink:href="#DejaVuSans-30"/>
      <use x="159.033203" xlink:href="#DejaVuSans-37"/>
      <use x="222.65625" xlink:href="#DejaVuSans-31"/>
     </g>
    </g>
    <g id="line2d_40">
     <path d="M 151.2 295.422188 
L 187.2 295.422188 
" style="fill:none;stroke:#bcbd22;stroke-linecap:square;stroke-width:1.5;"/>
    </g>
    <g id="line2d_41"/>
    <g id="text_23">
     <!-- 0.081 -->
     <g transform="translate(201.6 301.722188)scale(0.18 -0.18)">
      <use xlink:href="#DejaVuSans-30"/>
      <use x="63.623047" xlink:href="#DejaVuSans-2e"/>
      <use x="95.410156" xlink:href="#DejaVuSans-30"/>
      <use x="159.033203" xlink:href="#DejaVuSans-38"/>
      <use x="222.65625" xlink:href="#DejaVuSans-31"/>
     </g>
    </g>
    <g id="line2d_42">
     <path d="M 151.2 321.842812 
L 187.2 321.842812 
" style="fill:none;stroke:#17becf;stroke-linecap:square;stroke-width:1.5;"/>
    </g>
    <g id="line2d_43"/>
    <g id="text_24">
     <!-- 0.091 -->
     <g transform="translate(201.6 328.142812)scale(0.18 -0.18)">
      <defs>
       <path d="M 703 97 
L 703 672 
Q 941 559 1184 500 
Q 1428 441 1663 441 
Q 2288 441 2617 861 
Q 2947 1281 2994 2138 
Q 2813 1869 2534 1725 
Q 2256 1581 1919 1581 
Q 1219 1581 811 2004 
Q 403 2428 403 3163 
Q 403 3881 828 4315 
Q 1253 4750 1959 4750 
Q 2769 4750 3195 4129 
Q 3622 3509 3622 2328 
Q 3622 1225 3098 567 
Q 2575 -91 1691 -91 
Q 1453 -91 1209 -44 
Q 966 3 703 97 
z
M 1959 2075 
Q 2384 2075 2632 2365 
Q 2881 2656 2881 3163 
Q 2881 3666 2632 3958 
Q 2384 4250 1959 4250 
Q 1534 4250 1286 3958 
Q 1038 3666 1038 3163 
Q 1038 2656 1286 2365 
Q 1534 2075 1959 2075 
z
" id="DejaVuSans-39" transform="scale(0.015625)"/>
      </defs>
      <use xlink:href="#DejaVuSans-30"/>
      <use x="63.623047" xlink:href="#DejaVuSans-2e"/>
      <use x="95.410156" xlink:href="#DejaVuSans-30"/>
      <use x="159.033203" xlink:href="#DejaVuSans-39"/>
      <use x="222.65625" xlink:href="#DejaVuSans-31"/>
     </g>
    </g>
   </g>
  </g>
 </g>
 <defs>
  <clipPath id="p676c054513">
   <rect height="388.08" width="837" x="135" y="60.48"/>
  </clipPath>
 </defs>
</svg>
