<?xml version="1.0" encoding="utf-8" standalone="no"?>
<!DOCTYPE svg PUBLIC "-//W3C//DTD SVG 1.1//EN"
  "http://www.w3.org/Graphics/SVG/1.1/DTD/svg11.dtd">
<svg height="504pt" version="1.1" viewBox="0 0 1080 504" width="1080pt" xmlns="http://www.w3.org/2000/svg" xmlns:xlink="http://www.w3.org/1999/xlink">
 <metadata>
  <rdf:RDF xmlns:cc="http://creativecommons.org/ns#" xmlns:dc="http://purl.org/dc/elements/1.1/" xmlns:rdf="http://www.w3.org/1999/02/22-rdf-syntax-ns#">
   <cc:Work>
    <dc:type rdf:resource="http://purl.org/dc/dcmitype/StillImage"/>
    <dc:date>2022-01-07T13:22:36.989533</dc:date>
    <dc:format>image/svg+xml</dc:format>
    <dc:creator>
     <cc:Agent>
      <dc:title>Matplotlib v3.4.3, https://matplotlib.org/</dc:title>
     </cc:Agent>
    </dc:creator>
   </cc:Work>
  </rdf:RDF>
 </metadata>
 <defs>
  <style type="text/css">*{stroke-linecap:butt;stroke-linejoin:round;}</style>
 </defs>
 <g id="figure_1">
  <g id="patch_1">
   <path d="M 0 504 
L 1080 504 
L 1080 0 
L 0 0 
z
" style="fill:#ffffff;"/>
  </g>
  <g id="axes_1">
   <g id="patch_2">
    <path d="M 135 448.56 
L 972 448.56 
L 972 60.48 
L 135 60.48 
z
" style="fill:#ffffff;"/>
   </g>
   <g id="matplotlib.axis_1">
    <g id="xtick_1">
     <g id="line2d_1">
      <defs>
       <path d="M 0 0 
L 0 3.5 
" id="m3403ec2ed7" style="stroke:#000000;stroke-width:0.8;"/>
      </defs>
      <g>
       <use style="stroke:#000000;stroke-width:0.8;" x="135" xlink:href="#m3403ec2ed7" y="448.56"/>
      </g>
     </g>
     <g id="text_1">
      <!-- 0.0 -->
      <g transform="translate(120.687187 469.237188)scale(0.18 -0.18)">
       <defs>
        <path d="M 2034 4250 
Q 1547 4250 1301 3770 
Q 1056 3291 1056 2328 
Q 1056 1369 1301 889 
Q 1547 409 2034 409 
Q 2525 409 2770 889 
Q 3016 1369 3016 2328 
Q 3016 3291 2770 3770 
Q 2525 4250 2034 4250 
z
M 2034 4750 
Q 2819 4750 3233 4129 
Q 3647 3509 3647 2328 
Q 3647 1150 3233 529 
Q 2819 -91 2034 -91 
Q 1250 -91 836 529 
Q 422 1150 422 2328 
Q 422 3509 836 4129 
Q 1250 4750 2034 4750 
z
" id="DejaVuSans-30" transform="scale(0.015625)"/>
        <path d="M 684 794 
L 1344 794 
L 1344 0 
L 684 0 
L 684 794 
z
" id="DejaVuSans-2e" transform="scale(0.015625)"/>
       </defs>
       <use xlink:href="#DejaVuSans-30"/>
       <use x="63.623047" xlink:href="#DejaVuSans-2e"/>
       <use x="95.410156" xlink:href="#DejaVuSans-30"/>
      </g>
     </g>
    </g>
    <g id="xtick_2">
     <g id="line2d_2">
      <g>
       <use style="stroke:#000000;stroke-width:0.8;" x="302.4" xlink:href="#m3403ec2ed7" y="448.56"/>
      </g>
     </g>
     <g id="text_2">
      <!-- 0.2 -->
      <g transform="translate(288.087187 469.237188)scale(0.18 -0.18)">
       <defs>
        <path d="M 1228 531 
L 3431 531 
L 3431 0 
L 469 0 
L 469 531 
Q 828 903 1448 1529 
Q 2069 2156 2228 2338 
Q 2531 2678 2651 2914 
Q 2772 3150 2772 3378 
Q 2772 3750 2511 3984 
Q 2250 4219 1831 4219 
Q 1534 4219 1204 4116 
Q 875 4013 500 3803 
L 500 4441 
Q 881 4594 1212 4672 
Q 1544 4750 1819 4750 
Q 2544 4750 2975 4387 
Q 3406 4025 3406 3419 
Q 3406 3131 3298 2873 
Q 3191 2616 2906 2266 
Q 2828 2175 2409 1742 
Q 1991 1309 1228 531 
z
" id="DejaVuSans-32" transform="scale(0.015625)"/>
       </defs>
       <use xlink:href="#DejaVuSans-30"/>
       <use x="63.623047" xlink:href="#DejaVuSans-2e"/>
       <use x="95.410156" xlink:href="#DejaVuSans-32"/>
      </g>
     </g>
    </g>
    <g id="xtick_3">
     <g id="line2d_3">
      <g>
       <use style="stroke:#000000;stroke-width:0.8;" x="469.8" xlink:href="#m3403ec2ed7" y="448.56"/>
      </g>
     </g>
     <g id="text_3">
      <!-- 0.4 -->
      <g transform="translate(455.487188 469.237188)scale(0.18 -0.18)">
       <defs>
        <path d="M 2419 4116 
L 825 1625 
L 2419 1625 
L 2419 4116 
z
M 2253 4666 
L 3047 4666 
L 3047 1625 
L 3713 1625 
L 3713 1100 
L 3047 1100 
L 3047 0 
L 2419 0 
L 2419 1100 
L 313 1100 
L 313 1709 
L 2253 4666 
z
" id="DejaVuSans-34" transform="scale(0.015625)"/>
       </defs>
       <use xlink:href="#DejaVuSans-30"/>
       <use x="63.623047" xlink:href="#DejaVuSans-2e"/>
       <use x="95.410156" xlink:href="#DejaVuSans-34"/>
      </g>
     </g>
    </g>
    <g id="xtick_4">
     <g id="line2d_4">
      <g>
       <use style="stroke:#000000;stroke-width:0.8;" x="637.2" xlink:href="#m3403ec2ed7" y="448.56"/>
      </g>
     </g>
     <g id="text_4">
      <!-- 0.6 -->
      <g transform="translate(622.887188 469.237188)scale(0.18 -0.18)">
       <defs>
        <path d="M 2113 2584 
Q 1688 2584 1439 2293 
Q 1191 2003 1191 1497 
Q 1191 994 1439 701 
Q 1688 409 2113 409 
Q 2538 409 2786 701 
Q 3034 994 3034 1497 
Q 3034 2003 2786 2293 
Q 2538 2584 2113 2584 
z
M 3366 4563 
L 3366 3988 
Q 3128 4100 2886 4159 
Q 2644 4219 2406 4219 
Q 1781 4219 1451 3797 
Q 1122 3375 1075 2522 
Q 1259 2794 1537 2939 
Q 1816 3084 2150 3084 
Q 2853 3084 3261 2657 
Q 3669 2231 3669 1497 
Q 3669 778 3244 343 
Q 2819 -91 2113 -91 
Q 1303 -91 875 529 
Q 447 1150 447 2328 
Q 447 3434 972 4092 
Q 1497 4750 2381 4750 
Q 2619 4750 2861 4703 
Q 3103 4656 3366 4563 
z
" id="DejaVuSans-36" transform="scale(0.015625)"/>
       </defs>
       <use xlink:href="#DejaVuSans-30"/>
       <use x="63.623047" xlink:href="#DejaVuSans-2e"/>
       <use x="95.410156" xlink:href="#DejaVuSans-36"/>
      </g>
     </g>
    </g>
    <g id="xtick_5">
     <g id="line2d_5">
      <g>
       <use style="stroke:#000000;stroke-width:0.8;" x="804.6" xlink:href="#m3403ec2ed7" y="448.56"/>
      </g>
     </g>
     <g id="text_5">
      <!-- 0.8 -->
      <g transform="translate(790.287188 469.237188)scale(0.18 -0.18)">
       <defs>
        <path d="M 2034 2216 
Q 1584 2216 1326 1975 
Q 1069 1734 1069 1313 
Q 1069 891 1326 650 
Q 1584 409 2034 409 
Q 2484 409 2743 651 
Q 3003 894 3003 1313 
Q 3003 1734 2745 1975 
Q 2488 2216 2034 2216 
z
M 1403 2484 
Q 997 2584 770 2862 
Q 544 3141 544 3541 
Q 544 4100 942 4425 
Q 1341 4750 2034 4750 
Q 2731 4750 3128 4425 
Q 3525 4100 3525 3541 
Q 3525 3141 3298 2862 
Q 3072 2584 2669 2484 
Q 3125 2378 3379 2068 
Q 3634 1759 3634 1313 
Q 3634 634 3220 271 
Q 2806 -91 2034 -91 
Q 1263 -91 848 271 
Q 434 634 434 1313 
Q 434 1759 690 2068 
Q 947 2378 1403 2484 
z
M 1172 3481 
Q 1172 3119 1398 2916 
Q 1625 2713 2034 2713 
Q 2441 2713 2670 2916 
Q 2900 3119 2900 3481 
Q 2900 3844 2670 4047 
Q 2441 4250 2034 4250 
Q 1625 4250 1398 4047 
Q 1172 3844 1172 3481 
z
" id="DejaVuSans-38" transform="scale(0.015625)"/>
       </defs>
       <use xlink:href="#DejaVuSans-30"/>
       <use x="63.623047" xlink:href="#DejaVuSans-2e"/>
       <use x="95.410156" xlink:href="#DejaVuSans-38"/>
      </g>
     </g>
    </g>
    <g id="xtick_6">
     <g id="line2d_6">
      <g>
       <use style="stroke:#000000;stroke-width:0.8;" x="972" xlink:href="#m3403ec2ed7" y="448.56"/>
      </g>
     </g>
     <g id="text_6">
      <!-- 1.0 -->
      <g transform="translate(957.687188 469.237188)scale(0.18 -0.18)">
       <defs>
        <path d="M 794 531 
L 1825 531 
L 1825 4091 
L 703 3866 
L 703 4441 
L 1819 4666 
L 2450 4666 
L 2450 531 
L 3481 531 
L 3481 0 
L 794 0 
L 794 531 
z
" id="DejaVuSans-31" transform="scale(0.015625)"/>
       </defs>
       <use xlink:href="#DejaVuSans-31"/>
       <use x="63.623047" xlink:href="#DejaVuSans-2e"/>
       <use x="95.410156" xlink:href="#DejaVuSans-30"/>
      </g>
     </g>
    </g>
    <g id="text_7">
     <!-- $FPR_{Fair}$ -->
     <g transform="translate(518.08 493.697187)scale(0.22 -0.22)">
      <defs>
       <path d="M 1081 4666 
L 3756 4666 
L 3653 4134 
L 1606 4134 
L 1338 2759 
L 3188 2759 
L 3084 2228 
L 1234 2228 
L 800 0 
L 172 0 
L 1081 4666 
z
" id="DejaVuSans-Oblique-46" transform="scale(0.015625)"/>
       <path d="M 1081 4666 
L 2541 4666 
Q 3178 4666 3512 4369 
Q 3847 4072 3847 3500 
Q 3847 2731 3353 2303 
Q 2859 1875 1966 1875 
L 1172 1875 
L 806 0 
L 172 0 
L 1081 4666 
z
M 1613 4147 
L 1275 2394 
L 2069 2394 
Q 2606 2394 2893 2669 
Q 3181 2944 3181 3456 
Q 3181 3784 2986 3965 
Q 2791 4147 2438 4147 
L 1613 4147 
z
" id="DejaVuSans-Oblique-50" transform="scale(0.015625)"/>
       <path d="M 1613 4147 
L 1294 2491 
L 2106 2491 
Q 2584 2491 2879 2755 
Q 3175 3019 3175 3444 
Q 3175 3784 2976 3965 
Q 2778 4147 2406 4147 
L 1613 4147 
z
M 2772 2241 
Q 2972 2194 3105 2009 
Q 3238 1825 3413 1275 
L 3809 0 
L 3144 0 
L 2778 1197 
Q 2638 1659 2453 1815 
Q 2269 1972 1888 1972 
L 1191 1972 
L 806 0 
L 172 0 
L 1081 4666 
L 2503 4666 
Q 3150 4666 3495 4373 
Q 3841 4081 3841 3531 
Q 3841 3044 3547 2687 
Q 3253 2331 2772 2241 
z
" id="DejaVuSans-Oblique-52" transform="scale(0.015625)"/>
       <path d="M 3438 1997 
L 3047 0 
L 2472 0 
L 2578 531 
Q 2325 219 2001 64 
Q 1678 -91 1281 -91 
Q 834 -91 548 182 
Q 263 456 263 884 
Q 263 1497 752 1853 
Q 1241 2209 2100 2209 
L 2900 2209 
L 2931 2363 
Q 2938 2388 2941 2417 
Q 2944 2447 2944 2509 
Q 2944 2788 2717 2942 
Q 2491 3097 2081 3097 
Q 1800 3097 1504 3025 
Q 1209 2953 897 2809 
L 997 3341 
Q 1322 3463 1633 3523 
Q 1944 3584 2234 3584 
Q 2853 3584 3176 3315 
Q 3500 3047 3500 2534 
Q 3500 2431 3484 2292 
Q 3469 2153 3438 1997 
z
M 2816 1759 
L 2241 1759 
Q 1534 1759 1195 1570 
Q 856 1381 856 984 
Q 856 709 1029 553 
Q 1203 397 1509 397 
Q 1978 397 2328 733 
Q 2678 1069 2791 1631 
L 2816 1759 
z
" id="DejaVuSans-Oblique-61" transform="scale(0.015625)"/>
       <path d="M 1172 4863 
L 1747 4863 
L 1606 4134 
L 1031 4134 
L 1172 4863 
z
M 909 3500 
L 1484 3500 
L 800 0 
L 225 0 
L 909 3500 
z
" id="DejaVuSans-Oblique-69" transform="scale(0.015625)"/>
       <path d="M 2853 2969 
Q 2766 3016 2653 3041 
Q 2541 3066 2413 3066 
Q 1953 3066 1609 2717 
Q 1266 2369 1153 1784 
L 800 0 
L 225 0 
L 909 3500 
L 1484 3500 
L 1375 2956 
Q 1603 3259 1920 3421 
Q 2238 3584 2597 3584 
Q 2691 3584 2781 3573 
Q 2872 3563 2963 3538 
L 2853 2969 
z
" id="DejaVuSans-Oblique-72" transform="scale(0.015625)"/>
      </defs>
      <use transform="translate(0 0.09375)" xlink:href="#DejaVuSans-Oblique-46"/>
      <use transform="translate(57.519531 0.09375)" xlink:href="#DejaVuSans-Oblique-50"/>
      <use transform="translate(117.822266 0.09375)" xlink:href="#DejaVuSans-Oblique-52"/>
      <use transform="translate(187.304688 -16.3125)scale(0.7)" xlink:href="#DejaVuSans-Oblique-46"/>
      <use transform="translate(227.568359 -16.3125)scale(0.7)" xlink:href="#DejaVuSans-Oblique-61"/>
      <use transform="translate(270.463867 -16.3125)scale(0.7)" xlink:href="#DejaVuSans-Oblique-69"/>
      <use transform="translate(289.912109 -16.3125)scale(0.7)" xlink:href="#DejaVuSans-Oblique-72"/>
     </g>
    </g>
   </g>
   <g id="matplotlib.axis_2">
    <g id="ytick_1">
     <g id="line2d_7">
      <defs>
       <path d="M 0 0 
L -3.5 0 
" id="mc0d6fb56b5" style="stroke:#000000;stroke-width:0.8;"/>
      </defs>
      <g>
       <use style="stroke:#000000;stroke-width:0.8;" x="135" xlink:href="#mc0d6fb56b5" y="448.56"/>
      </g>
     </g>
     <g id="text_8">
      <!-- 0.0 -->
      <g transform="translate(99.374375 455.398594)scale(0.18 -0.18)">
       <use xlink:href="#DejaVuSans-30"/>
       <use x="63.623047" xlink:href="#DejaVuSans-2e"/>
       <use x="95.410156" xlink:href="#DejaVuSans-30"/>
      </g>
     </g>
    </g>
    <g id="ytick_2">
     <g id="line2d_8">
      <g>
       <use style="stroke:#000000;stroke-width:0.8;" x="135" xlink:href="#mc0d6fb56b5" y="370.944"/>
      </g>
     </g>
     <g id="text_9">
      <!-- 0.2 -->
      <g transform="translate(99.374375 377.782594)scale(0.18 -0.18)">
       <use xlink:href="#DejaVuSans-30"/>
       <use x="63.623047" xlink:href="#DejaVuSans-2e"/>
       <use x="95.410156" xlink:href="#DejaVuSans-32"/>
      </g>
     </g>
    </g>
    <g id="ytick_3">
     <g id="line2d_9">
      <g>
       <use style="stroke:#000000;stroke-width:0.8;" x="135" xlink:href="#mc0d6fb56b5" y="293.328"/>
      </g>
     </g>
     <g id="text_10">
      <!-- 0.4 -->
      <g transform="translate(99.374375 300.166594)scale(0.18 -0.18)">
       <use xlink:href="#DejaVuSans-30"/>
       <use x="63.623047" xlink:href="#DejaVuSans-2e"/>
       <use x="95.410156" xlink:href="#DejaVuSans-34"/>
      </g>
     </g>
    </g>
    <g id="ytick_4">
     <g id="line2d_10">
      <g>
       <use style="stroke:#000000;stroke-width:0.8;" x="135" xlink:href="#mc0d6fb56b5" y="215.712"/>
      </g>
     </g>
     <g id="text_11">
      <!-- 0.6 -->
      <g transform="translate(99.374375 222.550594)scale(0.18 -0.18)">
       <use xlink:href="#DejaVuSans-30"/>
       <use x="63.623047" xlink:href="#DejaVuSans-2e"/>
       <use x="95.410156" xlink:href="#DejaVuSans-36"/>
      </g>
     </g>
    </g>
    <g id="ytick_5">
     <g id="line2d_11">
      <g>
       <use style="stroke:#000000;stroke-width:0.8;" x="135" xlink:href="#mc0d6fb56b5" y="138.096"/>
      </g>
     </g>
     <g id="text_12">
      <!-- 0.8 -->
      <g transform="translate(99.374375 144.934594)scale(0.18 -0.18)">
       <use xlink:href="#DejaVuSans-30"/>
       <use x="63.623047" xlink:href="#DejaVuSans-2e"/>
       <use x="95.410156" xlink:href="#DejaVuSans-38"/>
      </g>
     </g>
    </g>
    <g id="ytick_6">
     <g id="line2d_12">
      <g>
       <use style="stroke:#000000;stroke-width:0.8;" x="135" xlink:href="#mc0d6fb56b5" y="60.48"/>
      </g>
     </g>
     <g id="text_13">
      <!-- 1.0 -->
      <g transform="translate(99.374375 67.318594)scale(0.18 -0.18)">
       <use xlink:href="#DejaVuSans-31"/>
       <use x="63.623047" xlink:href="#DejaVuSans-2e"/>
       <use x="95.410156" xlink:href="#DejaVuSans-30"/>
      </g>
     </g>
    </g>
    <g id="text_14">
     <!-- $TPR_{Fair}$ -->
     <g transform="translate(90.799062 290.27)rotate(-90)scale(0.22 -0.22)">
      <defs>
       <path d="M 378 4666 
L 4325 4666 
L 4225 4134 
L 2559 4134 
L 1759 0 
L 1125 0 
L 1925 4134 
L 275 4134 
L 378 4666 
z
" id="DejaVuSans-Oblique-54" transform="scale(0.015625)"/>
      </defs>
      <use transform="translate(0 0.09375)" xlink:href="#DejaVuSans-Oblique-54"/>
      <use transform="translate(61.083984 0.09375)" xlink:href="#DejaVuSans-Oblique-50"/>
      <use transform="translate(121.386719 0.09375)" xlink:href="#DejaVuSans-Oblique-52"/>
      <use transform="translate(190.869141 -16.3125)scale(0.7)" xlink:href="#DejaVuSans-Oblique-46"/>
      <use transform="translate(231.132812 -16.3125)scale(0.7)" xlink:href="#DejaVuSans-Oblique-61"/>
      <use transform="translate(274.02832 -16.3125)scale(0.7)" xlink:href="#DejaVuSans-Oblique-69"/>
      <use transform="translate(293.476562 -16.3125)scale(0.7)" xlink:href="#DejaVuSans-Oblique-72"/>
     </g>
    </g>
   </g>
   <g id="line2d_13">
    <path clip-path="url(#p002cc38009)" d="M 135 448.56 
L 972 60.48 
" style="fill:none;stroke:#ff0000;stroke-dasharray:5.55,2.4;stroke-dashoffset:0;stroke-width:1.5;"/>
   </g>
   <g id="line2d_14">
    <path clip-path="url(#p002cc38009)" d="M 972 60.48 
L 563.110767 266.33113 
L 422.922313 329.245598 
L 352.816339 359.366851 
L 310.702729 377.118706 
L 282.907426 388.669845 
L 263.142664 396.897404 
L 248.304049 403.018836 
L 236.773132 407.758746 
L 227.485509 411.483106 
L 219.790384 414.51656 
L 213.46875 416.946105 
L 208.029937 418.952048 
L 203.291081 420.646086 
L 199.177597 422.131268 
L 195.526134 423.426479 
L 192.30355 424.610097 
L 189.414532 425.638073 
L 186.729736 426.540499 
L 184.289802 427.36453 
L 182.115359 428.133015 
L 180.075313 428.822767 
L 178.229845 429.471706 
L 176.507999 430.082663 
L 174.884677 430.657588 
L 173.369564 431.193556 
L 171.967746 431.711516 
L 170.599192 432.178756 
L 169.343491 432.626171 
L 168.168467 433.061122 
L 167.059581 433.475374 
L 166.024082 433.85398 
L 165.049077 434.229923 
L 164.112878 434.565868 
L 163.20861 434.902995 
L 162.356571 435.242963 
L 161.527433 435.562922 
L 160.751225 435.876058 
L 160.014814 436.180959 
L 159.329389 436.459984 
L 158.656025 436.727773 
L 157.996049 437.001264 
L 157.382707 437.268269 
L 156.790921 437.529732 
L 156.232662 437.774824 
L 155.703163 438.010512 
L 155.189389 438.243611 
L 154.700848 438.464433 
L 154.208401 438.684952 
L 153.745059 438.889488 
L 153.300582 439.092884 
L 152.870611 439.287948 
L 152.465915 439.476075 
L 152.059703 439.658532 
L 151.674974 439.842482 
L 151.30556 440.014546 
L 150.934562 440.182147 
L 150.593687 440.347769 
L 150.266297 440.492667 
L 149.957905 440.634466 
L 149.650751 440.771853 
L 149.347989 440.901372 
L 149.053059 441.031617 
L 148.75943 441.163012 
L 148.493613 441.288934 
L 148.239032 441.409977 
L 147.98065 441.535488 
L 147.729999 441.65231 
L 147.489256 441.762981 
L 147.248205 441.87319 
L 147.022414 441.981416 
L 146.788986 442.085878 
L 146.577787 442.189641 
L 146.365754 442.290333 
L 146.16111 442.390724 
L 145.963102 442.494933 
L 145.76799 442.593242 
L 145.571645 442.693676 
L 145.387548 442.782601 
L 145.204248 442.88457 
L 145.031324 442.972579 
L 144.860577 443.062169 
L 144.680524 443.146367 
L 144.517841 443.238905 
L 144.356454 443.322886 
L 144.195953 443.401485 
L 144.032493 443.488711 
L 143.864257 443.568822 
L 143.708574 443.646551 
L 143.556031 443.726689 
L 143.408932 443.816073 
L 143.259082 443.901014 
L 143.111685 443.983071 
L 142.982021 444.063466 
L 142.847083 444.151397 
L 142.717435 444.235159 
L 142.594891 444.320313 
L 142.463507 444.401197 
L 142.348441 444.493137 
L 142.229449 444.576312 
L 142.101216 444.665755 
" style="fill:none;stroke:#1f77b4;stroke-linecap:square;stroke-width:1.5;"/>
   </g>
   <g id="line2d_15">
    <path clip-path="url(#p002cc38009)" d="M 972 60.48 
L 951.721776 70.109723 
L 932.426752 79.002369 
L 913.954872 87.376721 
L 895.984026 94.833662 
L 878.877615 101.704877 
L 862.067014 108.292806 
L 845.475564 114.160874 
L 829.926819 119.786371 
L 815.159929 124.969225 
L 800.761208 130.158678 
L 786.933198 134.898948 
L 773.590896 139.509308 
L 760.867578 143.970885 
L 748.432387 148.287605 
L 736.416156 152.183233 
L 724.906111 156.067028 
L 713.640025 159.666315 
L 702.522121 162.96394 
L 691.915763 166.162997 
L 681.662504 169.194699 
L 671.536901 172.172919 
L 661.653646 175.148046 
L 652.175748 178.12418 
L 642.736838 181.090021 
L 633.591577 184.01689 
L 624.549675 186.933162 
L 615.941659 189.647645 
L 607.405261 192.251137 
L 599.221881 194.844617 
L 591.239811 197.323685 
L 583.428415 199.820447 
L 575.800514 202.279761 
L 568.245043 204.645022 
L 560.907058 206.912144 
L 553.723643 209.148036 
L 546.597183 211.520092 
L 539.660256 213.937055 
L 532.971812 216.310344 
L 526.426776 218.525241 
L 519.917674 220.837958 
L 513.48565 223.173106 
L 507.266088 225.486038 
L 501.16569 227.801047 
L 495.211963 229.940961 
L 489.426858 232.000254 
L 483.717764 234.085509 
L 478.160822 236.157953 
L 472.616346 238.201075 
L 467.179425 240.269924 
L 461.946715 242.261465 
L 456.744551 244.102703 
L 451.733182 246.05808 
L 446.732728 248.017361 
L 441.845188 249.974533 
L 437.079713 251.984927 
L 432.442625 253.929967 
L 427.877052 255.756087 
L 423.358812 257.538668 
L 418.965342 259.218307 
L 414.669203 260.887997 
L 410.40815 262.48904 
L 406.205429 264.029981 
L 402.137369 265.519896 
L 398.070606 266.963443 
L 394.077433 268.293145 
L 390.24416 269.640724 
L 386.426573 270.965304 
L 382.660474 272.320694 
L 378.971776 273.709616 
L 375.300785 275.035646 
L 371.732071 276.303264 
L 368.164917 277.570027 
L 364.702084 278.853241 
L 361.314225 280.133873 
L 357.975961 281.335507 
L 354.694321 282.646862 
L 351.46405 283.920757 
L 348.288174 285.188281 
L 345.093479 286.530039 
L 342.030514 287.861955 
L 339.053614 289.162911 
L 336.010617 290.413909 
L 333.048164 291.665811 
L 330.119371 292.835721 
L 327.299646 293.94437 
L 324.437847 295.133136 
L 321.569609 296.28653 
L 318.788968 297.408218 
L 316.105009 298.57719 
L 313.425987 299.721669 
L 310.764543 300.853925 
L 308.185526 301.960769 
L 305.632366 303.052423 
L 303.050857 304.261767 
L 300.490194 305.502253 
L 297.985081 306.741285 
L 295.524625 308.081806 
L 293.104865 309.376051 
L 290.780592 310.658577 
L 288.399718 311.88362 
" style="fill:none;stroke:#ff7f0e;stroke-linecap:square;stroke-width:1.5;"/>
   </g>
   <g id="line2d_16">
    <path clip-path="url(#p002cc38009)" d="M 972 60.48 
L 938.567612 79.048055 
L 907.887824 95.835831 
L 880.033319 110.861878 
L 854.483557 124.556249 
L 831.261432 137.029985 
L 810.019384 148.476383 
L 790.423429 159.043838 
L 772.451402 168.629743 
L 755.628819 177.401239 
L 739.763352 185.514504 
L 725.112542 192.727177 
L 711.306257 199.18671 
L 698.125628 205.03904 
L 685.606824 210.542301 
L 673.644267 215.675703 
L 662.288383 220.616301 
L 651.312432 225.173448 
L 640.679981 229.352577 
L 630.49008 233.325981 
L 620.701621 237.121956 
L 611.211504 240.73483 
L 602.005495 244.247798 
L 593.21528 247.606131 
L 584.466586 250.889252 
L 575.998897 254.069216 
L 567.739113 257.17539 
L 559.62949 260.104222 
L 551.741633 262.966957 
L 544.138358 265.837309 
L 536.726651 268.612022 
L 529.587096 271.196958 
L 522.653708 273.81497 
L 515.795207 276.304908 
L 509.197694 278.801037 
L 502.65236 281.274143 
L 496.225979 283.727901 
L 489.961862 286.202929 
L 483.908405 288.607403 
L 478.087312 290.911475 
L 472.271624 293.166985 
L 466.578764 295.45531 
L 461.073753 297.745551 
L 455.658599 299.98466 
L 450.412246 302.163145 
L 445.226308 304.274764 
L 440.157563 306.370385 
L 435.21118 308.389121 
L 430.400698 310.354145 
L 425.673197 312.27418 
L 421.103411 314.15838 
L 416.575773 316.01886 
L 412.215932 317.832562 
L 407.867564 319.626549 
L 403.588218 321.404785 
L 399.397832 323.162311 
L 395.304061 324.852539 
L 391.284405 326.481531 
L 387.309136 328.043805 
L 383.448458 329.526876 
L 379.693968 330.992466 
L 375.98321 332.415172 
L 372.308153 333.82835 
L 368.705355 335.256891 
L 365.188798 336.653347 
L 361.752647 338.037296 
L 358.397194 339.385001 
L 355.063795 340.706674 
L 351.771234 342.004517 
L 348.574752 343.294719 
L 345.412007 344.55627 
L 342.288252 345.809395 
L 339.190502 347.046025 
L 336.155993 348.270979 
L 333.23134 349.442963 
L 330.333721 350.609179 
L 327.470909 351.764685 
L 324.673523 352.906475 
L 321.949583 354.043782 
L 319.223898 355.191113 
L 316.548195 356.32723 
L 313.959654 357.432162 
L 311.369863 358.513617 
L 308.852683 359.581223 
L 306.34984 360.608714 
L 303.901456 361.61949 
L 301.484301 362.64717 
L 299.077455 363.652458 
L 296.750638 364.640758 
L 294.454847 365.648646 
L 292.19313 366.632323 
L 289.943599 367.6355 
L 287.765303 368.634639 
L 285.609687 369.592299 
L 283.440979 370.587262 
L 281.307462 371.575009 
L 279.194059 372.557275 
L 277.106996 373.5773 
L 275.056328 374.567989 
L 273.049295 375.575321 
L 271.046716 376.577851 
" style="fill:none;stroke:#2ca02c;stroke-linecap:square;stroke-width:1.5;"/>
   </g>
   <g id="line2d_17">
    <path clip-path="url(#p002cc38009)" d="M 972 60.48 
L 971.962019 60.485783 
L 971.947883 60.491611 
L 971.920327 60.496319 
L 971.884333 60.49872 
L 971.830099 60.499959 
L 971.758101 60.507096 
L 971.653027 60.511909 
L 971.564309 60.514378 
L 971.448862 60.520417 
L 971.297132 60.528865 
L 971.162438 60.537344 
L 971.082579 60.543469 
L 971.02678 60.547223 
L 970.971849 60.55099 
L 970.904122 60.563217 
L 970.845997 60.575488 
L 970.817185 60.582973 
L 970.767421 60.589237 
L 970.73953 60.594338 
L 970.704833 60.597031 
L 970.683531 60.605808 
L 970.652105 60.61709 
L 970.620615 60.618603 
L 970.583452 60.625066 
L 970.550959 60.636481 
L 970.517471 60.641783 
L 970.495973 60.643366 
L 970.465825 60.648695 
L 970.453135 60.660268 
L 970.437808 60.670622 
L 970.416264 60.672276 
L 970.392814 60.678978 
L 970.375863 60.681888 
L 970.341659 60.686089 
L 970.306012 60.691597 
L 970.259222 60.699657 
L 970.213798 60.710306 
L 970.185649 60.718491 
L 970.162753 60.729244 
L 970.1436 60.731147 
L 970.117 60.738165 
L 970.092059 60.742653 
L 970.051068 60.753616 
L 970.01303 60.755631 
L 969.967676 60.758923 
L 969.931869 60.762178 
L 969.916498 60.766728 
L 969.894117 60.772645 
L 969.872505 60.782415 
L 969.847811 60.794881 
L 969.823667 60.798231 
L 969.790728 60.802942 
L 969.740774 60.810346 
L 969.714711 60.813849 
L 969.693026 60.821337 
L 969.663304 60.828864 
L 969.64724 60.832478 
L 969.628818 60.837397 
L 969.59948 60.840986 
L 969.579593 60.844652 
L 969.556399 60.852376 
L 969.537013 60.857499 
L 969.516188 60.872231 
L 969.46275 60.884301 
L 969.417079 60.891035 
L 969.383524 60.896446 
L 969.354131 60.904573 
L 969.331806 60.91133 
L 969.301056 60.916774 
L 969.277969 60.936054 
L 969.244007 60.947129 
L 969.20264 60.949945 
L 969.175488 60.955568 
L 969.150428 60.966756 
L 969.110188 60.969586 
L 969.068679 60.978083 
L 969.038939 60.985245 
L 968.995502 60.993996 
L 968.963693 61.002766 
L 968.934053 61.010254 
L 968.872829 61.021955 
L 968.81561 61.030967 
L 968.789213 61.038647 
L 968.758122 61.043459 
L 968.713758 61.052503 
L 968.658872 61.063185 
L 968.620357 61.075521 
L 968.569358 61.077695 
L 968.506525 61.093283 
L 968.452778 61.113416 
L 968.419126 61.13395 
L 968.385748 61.142776 
L 968.349105 61.16344 
L 968.303098 61.174044 
L 968.254587 61.196741 
L 968.210087 61.207695 
L 968.164473 61.226601 
L 968.129344 61.241199 
L 968.081645 61.253166 
L 968.04219 61.268252 
" style="fill:none;stroke:#d62728;stroke-linecap:square;stroke-width:1.5;"/>
   </g>
   <g id="line2d_18">
    <path clip-path="url(#p002cc38009)" d="M 972 60.48 
L 959.35254 67.689529 
L 947.234418 74.622179 
L 935.788676 81.206174 
L 924.916493 87.443189 
L 914.743994 93.402711 
L 905.0808 99.163881 
L 895.87356 104.67107 
L 887.267536 109.919735 
L 879.069779 114.851424 
L 871.050005 119.595184 
L 863.448266 123.948554 
L 856.242668 127.903676 
L 849.19024 131.5869 
L 842.275521 135.111901 
L 835.513627 138.47226 
L 828.980799 141.760367 
L 822.511723 144.88524 
L 816.085277 147.827653 
L 809.772493 150.637644 
L 803.658719 153.419274 
L 797.619062 156.112049 
L 791.645504 158.764007 
L 785.878451 161.316866 
L 780.007606 163.889965 
L 774.161916 166.423292 
L 768.331513 168.934261 
L 762.523605 171.317753 
L 756.713879 173.636865 
L 751.103696 176.02563 
L 745.498 178.355472 
L 740.052929 180.564167 
L 734.666837 182.802073 
L 729.237066 184.925243 
L 723.916637 187.120299 
L 718.564857 189.276488 
L 713.222942 191.463842 
L 707.92709 193.682316 
L 702.7266 195.867515 
L 697.646666 197.971236 
L 692.501725 200.061761 
L 687.398266 202.236632 
L 682.37798 204.43211 
L 677.383516 206.609596 
L 672.402007 208.75498 
L 667.473467 210.84349 
L 662.573665 212.937367 
L 657.715987 215.013372 
L 652.920255 217.045139 
L 648.132885 219.073698 
L 643.476505 221.053978 
L 638.812712 223.027366 
L 634.296037 224.991813 
L 629.691142 226.954484 
L 625.111242 228.92708 
L 620.593488 230.923662 
L 616.15174 232.840154 
L 611.677745 234.689464 
L 607.236913 236.478059 
L 602.828368 238.150228 
L 598.525994 239.807977 
L 594.212362 241.429825 
L 589.927307 243.067354 
L 585.623916 244.724104 
L 581.392518 246.357737 
L 577.213974 247.980622 
L 573.114667 249.60164 
L 568.943135 251.203525 
L 564.801523 252.826777 
L 560.739405 254.444478 
L 556.727251 256.007052 
L 552.695402 257.596719 
L 548.636212 259.170441 
L 544.622847 260.745554 
L 540.710673 262.274738 
L 536.769989 263.796134 
L 532.869765 265.34685 
L 529.031007 266.873176 
L 525.242151 268.379042 
L 521.41686 269.92284 
L 517.65486 271.455002 
L 513.930492 272.981177 
L 510.222158 274.440636 
L 506.586893 275.916739 
L 502.974302 277.337951 
L 499.391396 278.759307 
L 495.809192 280.204229 
L 492.246566 281.6154 
L 488.746316 283.010259 
L 485.263451 284.444956 
L 481.802164 285.855234 
L 478.358709 287.306806 
L 474.982766 288.744828 
L 471.603015 290.169665 
L 468.176912 291.650655 
L 464.792184 293.10765 
L 461.409894 294.583711 
L 458.041789 296.100936 
L 454.725105 297.602522 
L 451.426139 299.093143 
L 448.140539 300.577208 
" style="fill:none;stroke:#9467bd;stroke-linecap:square;stroke-width:1.5;"/>
   </g>
   <g id="line2d_19">
    <path clip-path="url(#p002cc38009)" d="M 972 60.48 
L 971.977258 60.484223 
L 971.969373 60.487065 
L 971.95268 60.4878 
L 971.930273 60.489962 
L 971.897435 60.491422 
L 971.854011 60.497905 
L 971.78953 60.498677 
L 971.735719 60.500895 
L 971.665261 60.503843 
L 971.571732 60.509699 
L 971.490727 60.514851 
L 971.441533 60.517842 
L 971.407269 60.519388 
L 971.37216 60.520942 
L 971.329465 60.528363 
L 971.295702 60.535085 
L 971.278254 60.541103 
L 971.248263 60.544179 
L 971.232897 60.548013 
L 971.209861 60.549641 
L 971.198132 60.555719 
L 971.178148 60.562569 
L 971.158602 60.564232 
L 971.135075 60.56815 
L 971.117032 60.575078 
L 971.09519 60.578291 
L 971.081383 60.58 
L 971.064352 60.581718 
L 971.056561 60.589497 
L 971.047141 60.595786 
L 971.033318 60.596028 
L 971.01943 60.600863 
L 971.010634 60.602636 
L 970.992163 60.604426 
L 970.967875 60.607772 
L 970.942204 60.611129 
L 970.914656 60.616053 
L 970.898345 60.620238 
L 970.885895 60.625973 
L 970.873606 60.626336 
L 970.857259 60.629793 
L 970.840259 60.630162 
L 970.817877 60.635997 
L 970.795472 60.637168 
L 970.768041 60.63992 
L 970.747284 60.641093 
L 970.73851 60.64383 
L 970.72842 60.6466 
L 970.716352 60.650145 
L 970.701285 60.659263 
L 970.687778 60.662067 
L 970.66712 60.662482 
L 970.636963 60.666921 
L 970.621712 60.671392 
L 970.606166 60.675091 
L 970.588756 60.681194 
L 970.575484 60.684129 
L 970.561264 60.686244 
L 970.545163 60.687551 
L 970.53201 60.691322 
L 970.517465 60.695934 
L 970.50449 60.697296 
L 970.489966 60.706932 
L 970.4584 60.714969 
L 970.431782 60.718993 
L 970.413453 60.719731 
L 970.398092 60.724613 
L 970.385929 60.728676 
L 970.366476 60.731934 
L 970.352794 60.743541 
L 970.333326 60.751034 
L 970.310014 60.751879 
L 970.294145 60.754411 
L 970.280366 60.76032 
L 970.256472 60.761157 
L 970.234551 60.767123 
L 970.215894 60.770552 
L 970.19008 60.774027 
L 970.172104 60.779222 
L 970.155703 60.784508 
L 970.116399 60.789777 
L 970.083736 60.793372 
L 970.067134 60.796145 
L 970.047819 60.798941 
L 970.02141 60.804358 
L 969.990878 60.808986 
L 969.969757 60.816355 
L 969.939423 60.817606 
L 969.901363 60.823311 
L 969.870767 60.836232 
L 969.848159 60.844869 
L 969.828597 60.850006 
L 969.809446 60.859637 
L 969.783197 60.864914 
L 969.754624 60.87479 
L 969.728736 60.881084 
L 969.701409 60.890306 
L 969.679674 60.898706 
L 969.65178 60.904495 
L 969.626524 60.913188 
" style="fill:none;stroke:#8c564b;stroke-linecap:square;stroke-width:1.5;"/>
   </g>
   <g id="line2d_20">
    <path clip-path="url(#p002cc38009)" d="M 972 60.48 
L 966.119654 63.573952 
L 960.37852 66.601956 
L 954.998735 69.520532 
L 949.877577 72.452148 
L 945.174435 75.328909 
L 940.793382 78.194943 
L 936.628697 81.056061 
L 932.802687 83.811499 
L 929.134597 86.477899 
L 925.62854 89.011077 
L 922.348528 91.381688 
L 919.262983 93.495362 
L 916.237333 95.484665 
L 913.264596 97.40431 
L 910.338281 99.237982 
L 907.558958 101.053862 
L 904.772166 102.763014 
L 901.993423 104.411232 
L 899.265358 106.018352 
L 896.557185 107.633003 
L 893.907656 109.232138 
L 891.307587 110.80229 
L 888.783242 112.297997 
L 886.197182 113.788527 
L 883.618304 115.248508 
L 880.999142 116.733137 
L 878.317597 118.161987 
L 875.609816 119.602098 
L 872.936741 121.09602 
L 870.265735 122.560923 
L 867.706887 123.912444 
L 865.160513 125.342387 
L 862.530844 126.731357 
L 859.935259 128.168482 
L 857.335996 129.627983 
L 854.670911 131.074443 
L 851.994003 132.553337 
L 849.328548 134.022056 
L 846.760472 135.457423 
L 844.116293 136.862356 
L 841.471942 138.353819 
L 838.839578 139.902672 
L 836.215335 141.409372 
L 833.573539 142.933829 
L 830.879342 144.431077 
L 828.211074 145.965218 
L 825.518509 147.480349 
L 822.847609 148.981107 
L 820.203816 150.475538 
L 817.58951 151.97364 
L 814.982334 153.495197 
L 812.419015 154.98283 
L 809.767381 156.452947 
L 807.083031 157.958078 
L 804.429991 159.459789 
L 801.748498 160.943893 
L 799.014854 162.367898 
L 796.269882 163.765927 
L 793.570753 165.096549 
L 790.881458 166.425406 
L 788.197592 167.760575 
L 785.510519 169.125376 
L 782.793491 170.539028 
L 780.099251 171.936188 
L 777.408855 173.366869 
L 774.716821 174.798543 
L 771.988569 176.248745 
L 769.225208 177.684371 
L 766.488802 179.125789 
L 763.763845 180.581897 
L 760.971017 182.064675 
L 758.114314 183.554577 
L 755.266857 185.037744 
L 752.459523 186.522763 
L 749.620081 188.003312 
L 746.767616 189.47033 
L 743.960548 190.966305 
L 741.163404 192.427672 
L 738.285241 193.943642 
L 735.413443 195.461533 
L 732.557875 196.956297 
L 729.740041 198.425575 
L 726.948009 199.908107 
L 724.204559 201.34023 
L 721.445286 202.786195 
L 718.654159 204.262319 
L 715.8322 205.716137 
L 713.064826 207.147877 
L 710.262404 208.627712 
L 707.453177 210.114034 
L 704.649685 211.63106 
L 701.873037 213.148883 
L 699.105348 214.643663 
L 696.271441 216.174139 
L 693.432636 217.720206 
L 690.547101 219.280089 
L 687.637184 220.891177 
L 684.7274 222.496767 
L 681.809967 224.112382 
L 678.886714 225.771441 
" style="fill:none;stroke:#e377c2;stroke-linecap:square;stroke-width:1.5;"/>
   </g>
   <g id="line2d_21">
    <path clip-path="url(#p002cc38009)" d="M 972 60.48 
L 971.983494 60.481015 
L 971.979012 60.482038 
L 971.967342 60.482556 
L 971.952133 60.482564 
L 971.928188 60.482572 
L 971.896754 60.485675 
L 971.849041 60.485692 
L 971.809586 60.486227 
L 971.75782 60.488324 
L 971.689342 60.491996 
L 971.629792 60.495684 
L 971.594521 60.497814 
L 971.569596 60.498903 
L 971.545488 60.499996 
L 971.514701 60.505312 
L 971.490165 60.510123 
L 971.478081 60.512839 
L 971.456347 60.515027 
L 971.445062 60.517226 
L 971.429619 60.51837 
L 971.42144 60.522181 
L 971.408305 60.526007 
L 971.395479 60.526635 
L 971.379386 60.529415 
L 971.366591 60.534358 
L 971.351349 60.536091 
L 971.342076 60.536742 
L 971.330385 60.53794 
L 971.325993 60.542946 
L 971.319595 60.546878 
L 971.311115 60.54701 
L 971.301814 60.549341 
L 971.295926 60.549479 
L 971.282475 60.55072 
L 971.266742 60.552518 
L 971.248806 60.55488 
L 971.228642 60.557808 
L 971.216846 60.560753 
L 971.208262 60.564262 
L 971.200238 60.564458 
L 971.189246 60.566881 
L 971.17865 60.567091 
L 971.16286 60.571213 
L 971.146538 60.571434 
L 971.127001 60.572222 
L 971.112424 60.573 
L 971.10713 60.574343 
L 971.100402 60.5757 
L 971.092695 60.577617 
L 971.083682 60.582382 
L 971.074102 60.583187 
L 971.060914 60.583418 
L 971.040818 60.585943 
L 971.031311 60.587346 
L 971.023006 60.58933 
L 971.011951 60.591886 
L 971.005755 60.59331 
L 970.998026 60.594738 
L 970.987534 60.59558 
L 970.979696 60.597025 
L 970.97174 60.599054 
L 970.963624 60.599926 
L 970.954912 60.606109 
L 970.933204 60.610561 
L 970.914674 60.613292 
L 970.903229 60.613675 
L 970.892528 60.615836 
L 970.884614 60.618003 
L 970.872832 60.619583 
L 970.86485 60.627151 
L 970.851153 60.631171 
L 970.836121 60.631621 
L 970.826099 60.63328 
L 970.817123 60.636757 
L 970.801798 60.637214 
L 970.786337 60.640734 
L 970.773754 60.643043 
L 970.756041 60.64537 
L 970.745106 60.648935 
L 970.734781 60.651299 
L 970.709255 60.653646 
L 970.687122 60.656013 
L 970.676743 60.657794 
L 970.664539 60.658966 
L 970.647113 60.662027 
L 970.625454 60.665118 
L 970.610895 60.670144 
L 970.590559 60.6708 
L 970.565251 60.67465 
L 970.545346 60.682995 
L 970.531964 60.68889 
L 970.520255 60.6923 
L 970.507761 60.698283 
L 970.490606 60.70179 
L 970.471647 60.707922 
L 970.454306 60.712158 
L 970.437174 60.71778 
L 970.423407 60.722807 
L 970.404595 60.726604 
L 970.390313 60.731781 
" style="fill:none;stroke:#7f7f7f;stroke-linecap:square;stroke-width:1.5;"/>
   </g>
   <g id="line2d_22">
    <path clip-path="url(#p002cc38009)" d="M 972 60.48 
L 968.721368 61.72097 
L 965.490555 62.942097 
L 962.495462 64.164083 
L 959.742769 65.403535 
L 957.238628 66.652533 
L 954.999351 67.94489 
L 952.945472 69.272361 
L 951.099541 70.550213 
L 949.401097 71.86533 
L 947.828116 73.147864 
L 946.393341 74.353523 
L 945.115381 75.429864 
L 943.91276 76.422568 
L 942.743995 77.394309 
L 941.628137 78.325857 
L 940.566319 79.237367 
L 939.515677 80.090239 
L 938.500282 80.899221 
L 937.516782 81.694212 
L 936.578119 82.474162 
L 935.67951 83.268413 
L 934.791655 84.044496 
L 933.952565 84.786675 
L 933.095834 85.507272 
L 932.211744 86.234383 
L 931.312383 86.975695 
L 930.378613 87.684126 
L 929.42635 88.392096 
L 928.496258 89.142634 
L 927.565399 89.894389 
L 926.707052 90.600591 
L 925.860272 91.336982 
L 925.007838 92.047637 
L 924.171419 92.787359 
L 923.294122 93.548091 
L 922.36778 94.301855 
L 921.463493 95.079946 
L 920.560872 95.848461 
L 919.697226 96.613889 
L 918.847001 97.371255 
L 917.997952 98.185097 
L 917.134122 99.045934 
L 916.265014 99.899372 
L 915.358746 100.782576 
L 914.440924 101.639292 
L 913.539855 102.525946 
L 912.644301 103.393799 
L 911.760748 104.283329 
L 910.906864 105.182503 
L 910.072099 106.102851 
L 909.226893 107.020004 
L 908.413581 107.944148 
L 907.547514 108.883488 
L 906.667335 109.835578 
L 905.77802 110.79616 
L 904.867041 111.77284 
L 903.937596 112.712661 
L 903.009002 113.623696 
L 902.096827 114.470536 
L 901.197884 115.320513 
L 900.317533 116.193225 
L 899.445025 117.101669 
L 898.563082 118.042533 
L 897.680044 118.949218 
L 896.794713 119.880911 
L 895.926212 120.825565 
L 895.024886 121.771641 
L 894.104744 122.721388 
L 893.178824 123.696907 
L 892.212452 124.674908 
L 891.220106 125.667573 
L 890.225242 126.668586 
L 889.201799 127.683585 
L 888.20438 128.721444 
L 887.190425 129.778221 
L 886.18684 130.83691 
L 885.187373 131.922662 
L 884.189838 133.012123 
L 883.195614 134.158939 
L 882.193492 135.316717 
L 881.177777 136.475063 
L 880.1912 137.634265 
L 879.215643 138.8018 
L 878.287676 139.961262 
L 877.33229 141.139651 
L 876.395121 142.332923 
L 875.465447 143.505557 
L 874.514472 144.680054 
L 873.567101 145.896979 
L 872.619769 147.129619 
L 871.678357 148.39457 
L 870.754941 149.66169 
L 869.821919 150.935364 
L 868.847078 152.223505 
L 867.871387 153.564557 
L 866.883735 154.931864 
L 865.866114 156.34932 
L 864.840053 157.752639 
L 863.802487 159.176937 
L 862.77311 160.65601 
" style="fill:none;stroke:#bcbd22;stroke-linecap:square;stroke-width:1.5;"/>
   </g>
   <g id="line2d_23">
    <path clip-path="url(#p002cc38009)" d="M 972 60.48 
L 965.814486 64.311012 
L 959.778361 68.055886 
L 953.981829 71.63002 
L 948.508727 75.086748 
L 943.283311 78.386854 
L 938.327025 81.616287 
L 933.603967 84.779211 
L 929.137209 87.80563 
L 924.80775 90.721282 
L 920.646522 93.530469 
L 916.643192 96.165282 
L 912.799289 98.610016 
L 909.07253 100.912839 
L 905.398609 103.161562 
L 901.753928 105.284117 
L 898.237942 107.377205 
L 894.747461 109.356344 
L 891.262989 111.233401 
L 887.812676 113.043221 
L 884.411785 114.812358 
L 881.007128 116.567694 
L 877.627316 118.274331 
L 874.362498 119.959537 
L 870.959753 121.644385 
L 867.572866 123.307869 
L 864.204688 124.976492 
L 860.779139 126.56667 
L 857.375449 128.142397 
L 853.994036 129.755522 
L 850.631911 131.363837 
L 847.337971 132.869472 
L 844.043602 134.421497 
L 840.729247 135.928763 
L 837.430954 137.476307 
L 834.091239 139.035328 
L 830.727223 140.614499 
L 827.370165 142.234628 
L 824.034604 143.838724 
L 820.765717 145.389849 
L 817.450665 146.928828 
L 814.124884 148.529655 
L 810.797078 150.168216 
L 807.469721 151.806134 
L 804.145484 153.411687 
L 800.780559 154.999666 
L 797.43481 156.595953 
L 794.075138 158.18702 
L 790.782544 159.757292 
L 787.457961 161.335873 
L 784.217967 162.919296 
L 780.915719 164.509895 
L 777.685497 166.083821 
L 774.390505 167.651013 
L 771.053149 169.215123 
L 767.737815 170.783887 
L 764.418855 172.326909 
L 761.094527 173.815746 
L 757.757073 175.2789 
L 754.436287 176.688342 
L 751.138119 178.077651 
L 747.829599 179.433508 
L 744.515187 180.794925 
L 741.206874 182.176123 
L 737.895148 183.541882 
L 734.618779 184.902189 
L 731.356793 186.260124 
L 728.019776 187.597166 
L 724.694733 188.954294 
L 721.358738 190.319856 
L 718.059892 191.65526 
L 714.729618 193.010656 
L 711.343767 194.36772 
L 707.987044 195.714393 
L 704.656981 197.037286 
L 701.291579 198.357961 
L 697.920358 199.706431 
L 694.585329 201.047694 
L 691.280269 202.381392 
L 687.914844 203.73901 
L 684.550471 205.093343 
L 681.220486 206.445773 
L 677.918276 207.75933 
L 674.635192 209.080343 
L 671.359652 210.359463 
L 668.069986 211.646425 
L 664.792767 212.958104 
L 661.505766 214.230371 
L 658.245884 215.482227 
L 654.978606 216.759966 
L 651.708534 218.028062 
L 648.428292 219.322714 
L 645.208314 220.605771 
L 641.95602 221.877598 
L 638.65634 223.192925 
L 635.355225 224.511501 
L 632.033956 225.834142 
L 628.718601 227.190609 
L 625.400428 228.539604 
L 622.09957 229.875261 
L 618.792779 231.231683 
" style="fill:none;stroke:#17becf;stroke-linecap:square;stroke-width:1.5;"/>
   </g>
   <g id="patch_3">
    <path d="M 135 448.56 
L 135 60.48 
" style="fill:none;stroke:#000000;stroke-linecap:square;stroke-linejoin:miter;stroke-width:0.8;"/>
   </g>
   <g id="patch_4">
    <path d="M 972 448.56 
L 972 60.48 
" style="fill:none;stroke:#000000;stroke-linecap:square;stroke-linejoin:miter;stroke-width:0.8;"/>
   </g>
   <g id="patch_5">
    <path d="M 135 448.56 
L 972 448.56 
" style="fill:none;stroke:#000000;stroke-linecap:square;stroke-linejoin:miter;stroke-width:0.8;"/>
   </g>
   <g id="patch_6">
    <path d="M 135 60.48 
L 972 60.48 
" style="fill:none;stroke:#000000;stroke-linecap:square;stroke-linejoin:miter;stroke-width:0.8;"/>
   </g>
   <g id="legend_1">
    <g id="patch_7">
     <path d="M 147.6 339.08625 
L 256.730625 339.08625 
Q 260.330625 339.08625 260.330625 335.48625 
L 260.330625 73.08 
Q 260.330625 69.48 256.730625 69.48 
L 147.6 69.48 
Q 144 69.48 144 73.08 
L 144 335.48625 
Q 144 339.08625 147.6 339.08625 
z
" style="fill:#ffffff;opacity:0.8;stroke:#cccccc;stroke-linejoin:miter;"/>
    </g>
    <g id="line2d_24">
     <path d="M 151.2 84.057188 
L 187.2 84.057188 
" style="fill:none;stroke:#1f77b4;stroke-linecap:square;stroke-width:1.5;"/>
    </g>
    <g id="line2d_25"/>
    <g id="text_15">
     <!-- 0.001 -->
     <g transform="translate(201.6 90.357188)scale(0.18 -0.18)">
      <use xlink:href="#DejaVuSans-30"/>
      <use x="63.623047" xlink:href="#DejaVuSans-2e"/>
      <use x="95.410156" xlink:href="#DejaVuSans-30"/>
      <use x="159.033203" xlink:href="#DejaVuSans-30"/>
      <use x="222.65625" xlink:href="#DejaVuSans-31"/>
     </g>
    </g>
    <g id="line2d_26">
     <path d="M 151.2 110.477812 
L 187.2 110.477812 
" style="fill:none;stroke:#ff7f0e;stroke-linecap:square;stroke-width:1.5;"/>
    </g>
    <g id="line2d_27"/>
    <g id="text_16">
     <!-- 0.011 -->
     <g transform="translate(201.6 116.777812)scale(0.18 -0.18)">
      <use xlink:href="#DejaVuSans-30"/>
      <use x="63.623047" xlink:href="#DejaVuSans-2e"/>
      <use x="95.410156" xlink:href="#DejaVuSans-30"/>
      <use x="159.033203" xlink:href="#DejaVuSans-31"/>
      <use x="222.65625" xlink:href="#DejaVuSans-31"/>
     </g>
    </g>
    <g id="line2d_28">
     <path d="M 151.2 136.898438 
L 187.2 136.898438 
" style="fill:none;stroke:#2ca02c;stroke-linecap:square;stroke-width:1.5;"/>
    </g>
    <g id="line2d_29"/>
    <g id="text_17">
     <!-- 0.021 -->
     <g transform="translate(201.6 143.198438)scale(0.18 -0.18)">
      <use xlink:href="#DejaVuSans-30"/>
      <use x="63.623047" xlink:href="#DejaVuSans-2e"/>
      <use x="95.410156" xlink:href="#DejaVuSans-30"/>
      <use x="159.033203" xlink:href="#DejaVuSans-32"/>
      <use x="222.65625" xlink:href="#DejaVuSans-31"/>
     </g>
    </g>
    <g id="line2d_30">
     <path d="M 151.2 163.319062 
L 187.2 163.319062 
" style="fill:none;stroke:#d62728;stroke-linecap:square;stroke-width:1.5;"/>
    </g>
    <g id="line2d_31"/>
    <g id="text_18">
     <!-- 0.031 -->
     <g transform="translate(201.6 169.619062)scale(0.18 -0.18)">
      <defs>
       <path d="M 2597 2516 
Q 3050 2419 3304 2112 
Q 3559 1806 3559 1356 
Q 3559 666 3084 287 
Q 2609 -91 1734 -91 
Q 1441 -91 1130 -33 
Q 819 25 488 141 
L 488 750 
Q 750 597 1062 519 
Q 1375 441 1716 441 
Q 2309 441 2620 675 
Q 2931 909 2931 1356 
Q 2931 1769 2642 2001 
Q 2353 2234 1838 2234 
L 1294 2234 
L 1294 2753 
L 1863 2753 
Q 2328 2753 2575 2939 
Q 2822 3125 2822 3475 
Q 2822 3834 2567 4026 
Q 2313 4219 1838 4219 
Q 1578 4219 1281 4162 
Q 984 4106 628 3988 
L 628 4550 
Q 988 4650 1302 4700 
Q 1616 4750 1894 4750 
Q 2613 4750 3031 4423 
Q 3450 4097 3450 3541 
Q 3450 3153 3228 2886 
Q 3006 2619 2597 2516 
z
" id="DejaVuSans-33" transform="scale(0.015625)"/>
      </defs>
      <use xlink:href="#DejaVuSans-30"/>
      <use x="63.623047" xlink:href="#DejaVuSans-2e"/>
      <use x="95.410156" xlink:href="#DejaVuSans-30"/>
      <use x="159.033203" xlink:href="#DejaVuSans-33"/>
      <use x="222.65625" xlink:href="#DejaVuSans-31"/>
     </g>
    </g>
    <g id="line2d_32">
     <path d="M 151.2 189.739688 
L 187.2 189.739688 
" style="fill:none;stroke:#9467bd;stroke-linecap:square;stroke-width:1.5;"/>
    </g>
    <g id="line2d_33"/>
    <g id="text_19">
     <!-- 0.041 -->
     <g transform="translate(201.6 196.039688)scale(0.18 -0.18)">
      <use xlink:href="#DejaVuSans-30"/>
      <use x="63.623047" xlink:href="#DejaVuSans-2e"/>
      <use x="95.410156" xlink:href="#DejaVuSans-30"/>
      <use x="159.033203" xlink:href="#DejaVuSans-34"/>
      <use x="222.65625" xlink:href="#DejaVuSans-31"/>
     </g>
    </g>
    <g id="line2d_34">
     <path d="M 151.2 216.160312 
L 187.2 216.160312 
" style="fill:none;stroke:#8c564b;stroke-linecap:square;stroke-width:1.5;"/>
    </g>
    <g id="line2d_35"/>
    <g id="text_20">
     <!-- 0.051 -->
     <g transform="translate(201.6 222.460312)scale(0.18 -0.18)">
      <defs>
       <path d="M 691 4666 
L 3169 4666 
L 3169 4134 
L 1269 4134 
L 1269 2991 
Q 1406 3038 1543 3061 
Q 1681 3084 1819 3084 
Q 2600 3084 3056 2656 
Q 3513 2228 3513 1497 
Q 3513 744 3044 326 
Q 2575 -91 1722 -91 
Q 1428 -91 1123 -41 
Q 819 9 494 109 
L 494 744 
Q 775 591 1075 516 
Q 1375 441 1709 441 
Q 2250 441 2565 725 
Q 2881 1009 2881 1497 
Q 2881 1984 2565 2268 
Q 2250 2553 1709 2553 
Q 1456 2553 1204 2497 
Q 953 2441 691 2322 
L 691 4666 
z
" id="DejaVuSans-35" transform="scale(0.015625)"/>
      </defs>
      <use xlink:href="#DejaVuSans-30"/>
      <use x="63.623047" xlink:href="#DejaVuSans-2e"/>
      <use x="95.410156" xlink:href="#DejaVuSans-30"/>
      <use x="159.033203" xlink:href="#DejaVuSans-35"/>
      <use x="222.65625" xlink:href="#DejaVuSans-31"/>
     </g>
    </g>
    <g id="line2d_36">
     <path d="M 151.2 242.580937 
L 187.2 242.580937 
" style="fill:none;stroke:#e377c2;stroke-linecap:square;stroke-width:1.5;"/>
    </g>
    <g id="line2d_37"/>
    <g id="text_21">
     <!-- 0.061 -->
     <g transform="translate(201.6 248.880937)scale(0.18 -0.18)">
      <use xlink:href="#DejaVuSans-30"/>
      <use x="63.623047" xlink:href="#DejaVuSans-2e"/>
      <use x="95.410156" xlink:href="#DejaVuSans-30"/>
      <use x="159.033203" xlink:href="#DejaVuSans-36"/>
      <use x="222.65625" xlink:href="#DejaVuSans-31"/>
     </g>
    </g>
    <g id="line2d_38">
     <path d="M 151.2 269.001562 
L 187.2 269.001562 
" style="fill:none;stroke:#7f7f7f;stroke-linecap:square;stroke-width:1.5;"/>
    </g>
    <g id="line2d_39"/>
    <g id="text_22">
     <!-- 0.071 -->
     <g transform="translate(201.6 275.301562)scale(0.18 -0.18)">
      <defs>
       <path d="M 525 4666 
L 3525 4666 
L 3525 4397 
L 1831 0 
L 1172 0 
L 2766 4134 
L 525 4134 
L 525 4666 
z
" id="DejaVuSans-37" transform="scale(0.015625)"/>
      </defs>
      <use xlink:href="#DejaVuSans-30"/>
      <use x="63.623047" xlink:href="#DejaVuSans-2e"/>
      <use x="95.410156" xlink:href="#DejaVuSans-30"/>
      <use x="159.033203" xlink:href="#DejaVuSans-37"/>
      <use x="222.65625" xlink:href="#DejaVuSans-31"/>
     </g>
    </g>
    <g id="line2d_40">
     <path d="M 151.2 295.422188 
L 187.2 295.422188 
" style="fill:none;stroke:#bcbd22;stroke-linecap:square;stroke-width:1.5;"/>
    </g>
    <g id="line2d_41"/>
    <g id="text_23">
     <!-- 0.081 -->
     <g transform="translate(201.6 301.722188)scale(0.18 -0.18)">
      <use xlink:href="#DejaVuSans-30"/>
      <use x="63.623047" xlink:href="#DejaVuSans-2e"/>
      <use x="95.410156" xlink:href="#DejaVuSans-30"/>
      <use x="159.033203" xlink:href="#DejaVuSans-38"/>
      <use x="222.65625" xlink:href="#DejaVuSans-31"/>
     </g>
    </g>
    <g id="line2d_42">
     <path d="M 151.2 321.842812 
L 187.2 321.842812 
" style="fill:none;stroke:#17becf;stroke-linecap:square;stroke-width:1.5;"/>
    </g>
    <g id="line2d_43"/>
    <g id="text_24">
     <!-- 0.091 -->
     <g transform="translate(201.6 328.142812)scale(0.18 -0.18)">
      <defs>
       <path d="M 703 97 
L 703 672 
Q 941 559 1184 500 
Q 1428 441 1663 441 
Q 2288 441 2617 861 
Q 2947 1281 2994 2138 
Q 2813 1869 2534 1725 
Q 2256 1581 1919 1581 
Q 1219 1581 811 2004 
Q 403 2428 403 3163 
Q 403 3881 828 4315 
Q 1253 4750 1959 4750 
Q 2769 4750 3195 4129 
Q 3622 3509 3622 2328 
Q 3622 1225 3098 567 
Q 2575 -91 1691 -91 
Q 1453 -91 1209 -44 
Q 966 3 703 97 
z
M 1959 2075 
Q 2384 2075 2632 2365 
Q 2881 2656 2881 3163 
Q 2881 3666 2632 3958 
Q 2384 4250 1959 4250 
Q 1534 4250 1286 3958 
Q 1038 3666 1038 3163 
Q 1038 2656 1286 2365 
Q 1534 2075 1959 2075 
z
" id="DejaVuSans-39" transform="scale(0.015625)"/>
      </defs>
      <use xlink:href="#DejaVuSans-30"/>
      <use x="63.623047" xlink:href="#DejaVuSans-2e"/>
      <use x="95.410156" xlink:href="#DejaVuSans-30"/>
      <use x="159.033203" xlink:href="#DejaVuSans-39"/>
      <use x="222.65625" xlink:href="#DejaVuSans-31"/>
     </g>
    </g>
   </g>
  </g>
 </g>
 <defs>
  <clipPath id="p002cc38009">
   <rect height="388.08" width="837" x="135" y="60.48"/>
  </clipPath>
 </defs>
</svg>
