<?xml version="1.0" encoding="utf-8" standalone="no"?>
<!DOCTYPE svg PUBLIC "-//W3C//DTD SVG 1.1//EN"
  "http://www.w3.org/Graphics/SVG/1.1/DTD/svg11.dtd">
<svg height="504pt" version="1.1" viewBox="0 0 1080 504" width="1080pt" xmlns="http://www.w3.org/2000/svg" xmlns:xlink="http://www.w3.org/1999/xlink">
 <metadata>
  <rdf:RDF xmlns:cc="http://creativecommons.org/ns#" xmlns:dc="http://purl.org/dc/elements/1.1/" xmlns:rdf="http://www.w3.org/1999/02/22-rdf-syntax-ns#">
   <cc:Work>
    <dc:type rdf:resource="http://purl.org/dc/dcmitype/StillImage"/>
    <dc:date>2022-01-07T13:24:43.797642</dc:date>
    <dc:format>image/svg+xml</dc:format>
    <dc:creator>
     <cc:Agent>
      <dc:title>Matplotlib v3.4.3, https://matplotlib.org/</dc:title>
     </cc:Agent>
    </dc:creator>
   </cc:Work>
  </rdf:RDF>
 </metadata>
 <defs>
  <style type="text/css">*{stroke-linecap:butt;stroke-linejoin:round;}</style>
 </defs>
 <g id="figure_1">
  <g id="patch_1">
   <path d="M 0 504 
L 1080 504 
L 1080 0 
L 0 0 
z
" style="fill:#ffffff;"/>
  </g>
  <g id="axes_1">
   <g id="patch_2">
    <path d="M 135 448.56 
L 972 448.56 
L 972 60.48 
L 135 60.48 
z
" style="fill:#ffffff;"/>
   </g>
   <g id="matplotlib.axis_1">
    <g id="xtick_1">
     <g id="line2d_1">
      <defs>
       <path d="M 0 0 
L 0 3.5 
" id="m597f71176b" style="stroke:#000000;stroke-width:0.8;"/>
      </defs>
      <g>
       <use style="stroke:#000000;stroke-width:0.8;" x="135" xlink:href="#m597f71176b" y="448.56"/>
      </g>
     </g>
     <g id="text_1">
      <!-- 0.0 -->
      <g transform="translate(120.687187 469.237188)scale(0.18 -0.18)">
       <defs>
        <path d="M 2034 4250 
Q 1547 4250 1301 3770 
Q 1056 3291 1056 2328 
Q 1056 1369 1301 889 
Q 1547 409 2034 409 
Q 2525 409 2770 889 
Q 3016 1369 3016 2328 
Q 3016 3291 2770 3770 
Q 2525 4250 2034 4250 
z
M 2034 4750 
Q 2819 4750 3233 4129 
Q 3647 3509 3647 2328 
Q 3647 1150 3233 529 
Q 2819 -91 2034 -91 
Q 1250 -91 836 529 
Q 422 1150 422 2328 
Q 422 3509 836 4129 
Q 1250 4750 2034 4750 
z
" id="DejaVuSans-30" transform="scale(0.015625)"/>
        <path d="M 684 794 
L 1344 794 
L 1344 0 
L 684 0 
L 684 794 
z
" id="DejaVuSans-2e" transform="scale(0.015625)"/>
       </defs>
       <use xlink:href="#DejaVuSans-30"/>
       <use x="63.623047" xlink:href="#DejaVuSans-2e"/>
       <use x="95.410156" xlink:href="#DejaVuSans-30"/>
      </g>
     </g>
    </g>
    <g id="xtick_2">
     <g id="line2d_2">
      <g>
       <use style="stroke:#000000;stroke-width:0.8;" x="302.4" xlink:href="#m597f71176b" y="448.56"/>
      </g>
     </g>
     <g id="text_2">
      <!-- 0.2 -->
      <g transform="translate(288.087187 469.237188)scale(0.18 -0.18)">
       <defs>
        <path d="M 1228 531 
L 3431 531 
L 3431 0 
L 469 0 
L 469 531 
Q 828 903 1448 1529 
Q 2069 2156 2228 2338 
Q 2531 2678 2651 2914 
Q 2772 3150 2772 3378 
Q 2772 3750 2511 3984 
Q 2250 4219 1831 4219 
Q 1534 4219 1204 4116 
Q 875 4013 500 3803 
L 500 4441 
Q 881 4594 1212 4672 
Q 1544 4750 1819 4750 
Q 2544 4750 2975 4387 
Q 3406 4025 3406 3419 
Q 3406 3131 3298 2873 
Q 3191 2616 2906 2266 
Q 2828 2175 2409 1742 
Q 1991 1309 1228 531 
z
" id="DejaVuSans-32" transform="scale(0.015625)"/>
       </defs>
       <use xlink:href="#DejaVuSans-30"/>
       <use x="63.623047" xlink:href="#DejaVuSans-2e"/>
       <use x="95.410156" xlink:href="#DejaVuSans-32"/>
      </g>
     </g>
    </g>
    <g id="xtick_3">
     <g id="line2d_3">
      <g>
       <use style="stroke:#000000;stroke-width:0.8;" x="469.8" xlink:href="#m597f71176b" y="448.56"/>
      </g>
     </g>
     <g id="text_3">
      <!-- 0.4 -->
      <g transform="translate(455.487188 469.237188)scale(0.18 -0.18)">
       <defs>
        <path d="M 2419 4116 
L 825 1625 
L 2419 1625 
L 2419 4116 
z
M 2253 4666 
L 3047 4666 
L 3047 1625 
L 3713 1625 
L 3713 1100 
L 3047 1100 
L 3047 0 
L 2419 0 
L 2419 1100 
L 313 1100 
L 313 1709 
L 2253 4666 
z
" id="DejaVuSans-34" transform="scale(0.015625)"/>
       </defs>
       <use xlink:href="#DejaVuSans-30"/>
       <use x="63.623047" xlink:href="#DejaVuSans-2e"/>
       <use x="95.410156" xlink:href="#DejaVuSans-34"/>
      </g>
     </g>
    </g>
    <g id="xtick_4">
     <g id="line2d_4">
      <g>
       <use style="stroke:#000000;stroke-width:0.8;" x="637.2" xlink:href="#m597f71176b" y="448.56"/>
      </g>
     </g>
     <g id="text_4">
      <!-- 0.6 -->
      <g transform="translate(622.887188 469.237188)scale(0.18 -0.18)">
       <defs>
        <path d="M 2113 2584 
Q 1688 2584 1439 2293 
Q 1191 2003 1191 1497 
Q 1191 994 1439 701 
Q 1688 409 2113 409 
Q 2538 409 2786 701 
Q 3034 994 3034 1497 
Q 3034 2003 2786 2293 
Q 2538 2584 2113 2584 
z
M 3366 4563 
L 3366 3988 
Q 3128 4100 2886 4159 
Q 2644 4219 2406 4219 
Q 1781 4219 1451 3797 
Q 1122 3375 1075 2522 
Q 1259 2794 1537 2939 
Q 1816 3084 2150 3084 
Q 2853 3084 3261 2657 
Q 3669 2231 3669 1497 
Q 3669 778 3244 343 
Q 2819 -91 2113 -91 
Q 1303 -91 875 529 
Q 447 1150 447 2328 
Q 447 3434 972 4092 
Q 1497 4750 2381 4750 
Q 2619 4750 2861 4703 
Q 3103 4656 3366 4563 
z
" id="DejaVuSans-36" transform="scale(0.015625)"/>
       </defs>
       <use xlink:href="#DejaVuSans-30"/>
       <use x="63.623047" xlink:href="#DejaVuSans-2e"/>
       <use x="95.410156" xlink:href="#DejaVuSans-36"/>
      </g>
     </g>
    </g>
    <g id="xtick_5">
     <g id="line2d_5">
      <g>
       <use style="stroke:#000000;stroke-width:0.8;" x="804.6" xlink:href="#m597f71176b" y="448.56"/>
      </g>
     </g>
     <g id="text_5">
      <!-- 0.8 -->
      <g transform="translate(790.287188 469.237188)scale(0.18 -0.18)">
       <defs>
        <path d="M 2034 2216 
Q 1584 2216 1326 1975 
Q 1069 1734 1069 1313 
Q 1069 891 1326 650 
Q 1584 409 2034 409 
Q 2484 409 2743 651 
Q 3003 894 3003 1313 
Q 3003 1734 2745 1975 
Q 2488 2216 2034 2216 
z
M 1403 2484 
Q 997 2584 770 2862 
Q 544 3141 544 3541 
Q 544 4100 942 4425 
Q 1341 4750 2034 4750 
Q 2731 4750 3128 4425 
Q 3525 4100 3525 3541 
Q 3525 3141 3298 2862 
Q 3072 2584 2669 2484 
Q 3125 2378 3379 2068 
Q 3634 1759 3634 1313 
Q 3634 634 3220 271 
Q 2806 -91 2034 -91 
Q 1263 -91 848 271 
Q 434 634 434 1313 
Q 434 1759 690 2068 
Q 947 2378 1403 2484 
z
M 1172 3481 
Q 1172 3119 1398 2916 
Q 1625 2713 2034 2713 
Q 2441 2713 2670 2916 
Q 2900 3119 2900 3481 
Q 2900 3844 2670 4047 
Q 2441 4250 2034 4250 
Q 1625 4250 1398 4047 
Q 1172 3844 1172 3481 
z
" id="DejaVuSans-38" transform="scale(0.015625)"/>
       </defs>
       <use xlink:href="#DejaVuSans-30"/>
       <use x="63.623047" xlink:href="#DejaVuSans-2e"/>
       <use x="95.410156" xlink:href="#DejaVuSans-38"/>
      </g>
     </g>
    </g>
    <g id="xtick_6">
     <g id="line2d_6">
      <g>
       <use style="stroke:#000000;stroke-width:0.8;" x="972" xlink:href="#m597f71176b" y="448.56"/>
      </g>
     </g>
     <g id="text_6">
      <!-- 1.0 -->
      <g transform="translate(957.687188 469.237188)scale(0.18 -0.18)">
       <defs>
        <path d="M 794 531 
L 1825 531 
L 1825 4091 
L 703 3866 
L 703 4441 
L 1819 4666 
L 2450 4666 
L 2450 531 
L 3481 531 
L 3481 0 
L 794 0 
L 794 531 
z
" id="DejaVuSans-31" transform="scale(0.015625)"/>
       </defs>
       <use xlink:href="#DejaVuSans-31"/>
       <use x="63.623047" xlink:href="#DejaVuSans-2e"/>
       <use x="95.410156" xlink:href="#DejaVuSans-30"/>
      </g>
     </g>
    </g>
    <g id="text_7">
     <!-- $FPR_{Fair}$ -->
     <g transform="translate(518.08 493.697187)scale(0.22 -0.22)">
      <defs>
       <path d="M 1081 4666 
L 3756 4666 
L 3653 4134 
L 1606 4134 
L 1338 2759 
L 3188 2759 
L 3084 2228 
L 1234 2228 
L 800 0 
L 172 0 
L 1081 4666 
z
" id="DejaVuSans-Oblique-46" transform="scale(0.015625)"/>
       <path d="M 1081 4666 
L 2541 4666 
Q 3178 4666 3512 4369 
Q 3847 4072 3847 3500 
Q 3847 2731 3353 2303 
Q 2859 1875 1966 1875 
L 1172 1875 
L 806 0 
L 172 0 
L 1081 4666 
z
M 1613 4147 
L 1275 2394 
L 2069 2394 
Q 2606 2394 2893 2669 
Q 3181 2944 3181 3456 
Q 3181 3784 2986 3965 
Q 2791 4147 2438 4147 
L 1613 4147 
z
" id="DejaVuSans-Oblique-50" transform="scale(0.015625)"/>
       <path d="M 1613 4147 
L 1294 2491 
L 2106 2491 
Q 2584 2491 2879 2755 
Q 3175 3019 3175 3444 
Q 3175 3784 2976 3965 
Q 2778 4147 2406 4147 
L 1613 4147 
z
M 2772 2241 
Q 2972 2194 3105 2009 
Q 3238 1825 3413 1275 
L 3809 0 
L 3144 0 
L 2778 1197 
Q 2638 1659 2453 1815 
Q 2269 1972 1888 1972 
L 1191 1972 
L 806 0 
L 172 0 
L 1081 4666 
L 2503 4666 
Q 3150 4666 3495 4373 
Q 3841 4081 3841 3531 
Q 3841 3044 3547 2687 
Q 3253 2331 2772 2241 
z
" id="DejaVuSans-Oblique-52" transform="scale(0.015625)"/>
       <path d="M 3438 1997 
L 3047 0 
L 2472 0 
L 2578 531 
Q 2325 219 2001 64 
Q 1678 -91 1281 -91 
Q 834 -91 548 182 
Q 263 456 263 884 
Q 263 1497 752 1853 
Q 1241 2209 2100 2209 
L 2900 2209 
L 2931 2363 
Q 2938 2388 2941 2417 
Q 2944 2447 2944 2509 
Q 2944 2788 2717 2942 
Q 2491 3097 2081 3097 
Q 1800 3097 1504 3025 
Q 1209 2953 897 2809 
L 997 3341 
Q 1322 3463 1633 3523 
Q 1944 3584 2234 3584 
Q 2853 3584 3176 3315 
Q 3500 3047 3500 2534 
Q 3500 2431 3484 2292 
Q 3469 2153 3438 1997 
z
M 2816 1759 
L 2241 1759 
Q 1534 1759 1195 1570 
Q 856 1381 856 984 
Q 856 709 1029 553 
Q 1203 397 1509 397 
Q 1978 397 2328 733 
Q 2678 1069 2791 1631 
L 2816 1759 
z
" id="DejaVuSans-Oblique-61" transform="scale(0.015625)"/>
       <path d="M 1172 4863 
L 1747 4863 
L 1606 4134 
L 1031 4134 
L 1172 4863 
z
M 909 3500 
L 1484 3500 
L 800 0 
L 225 0 
L 909 3500 
z
" id="DejaVuSans-Oblique-69" transform="scale(0.015625)"/>
       <path d="M 2853 2969 
Q 2766 3016 2653 3041 
Q 2541 3066 2413 3066 
Q 1953 3066 1609 2717 
Q 1266 2369 1153 1784 
L 800 0 
L 225 0 
L 909 3500 
L 1484 3500 
L 1375 2956 
Q 1603 3259 1920 3421 
Q 2238 3584 2597 3584 
Q 2691 3584 2781 3573 
Q 2872 3563 2963 3538 
L 2853 2969 
z
" id="DejaVuSans-Oblique-72" transform="scale(0.015625)"/>
      </defs>
      <use transform="translate(0 0.09375)" xlink:href="#DejaVuSans-Oblique-46"/>
      <use transform="translate(57.519531 0.09375)" xlink:href="#DejaVuSans-Oblique-50"/>
      <use transform="translate(117.822266 0.09375)" xlink:href="#DejaVuSans-Oblique-52"/>
      <use transform="translate(187.304688 -16.3125)scale(0.7)" xlink:href="#DejaVuSans-Oblique-46"/>
      <use transform="translate(227.568359 -16.3125)scale(0.7)" xlink:href="#DejaVuSans-Oblique-61"/>
      <use transform="translate(270.463867 -16.3125)scale(0.7)" xlink:href="#DejaVuSans-Oblique-69"/>
      <use transform="translate(289.912109 -16.3125)scale(0.7)" xlink:href="#DejaVuSans-Oblique-72"/>
     </g>
    </g>
   </g>
   <g id="matplotlib.axis_2">
    <g id="ytick_1">
     <g id="line2d_7">
      <defs>
       <path d="M 0 0 
L -3.5 0 
" id="m3ce6befb9e" style="stroke:#000000;stroke-width:0.8;"/>
      </defs>
      <g>
       <use style="stroke:#000000;stroke-width:0.8;" x="135" xlink:href="#m3ce6befb9e" y="448.56"/>
      </g>
     </g>
     <g id="text_8">
      <!-- 0.0 -->
      <g transform="translate(99.374375 455.398594)scale(0.18 -0.18)">
       <use xlink:href="#DejaVuSans-30"/>
       <use x="63.623047" xlink:href="#DejaVuSans-2e"/>
       <use x="95.410156" xlink:href="#DejaVuSans-30"/>
      </g>
     </g>
    </g>
    <g id="ytick_2">
     <g id="line2d_8">
      <g>
       <use style="stroke:#000000;stroke-width:0.8;" x="135" xlink:href="#m3ce6befb9e" y="370.944"/>
      </g>
     </g>
     <g id="text_9">
      <!-- 0.2 -->
      <g transform="translate(99.374375 377.782594)scale(0.18 -0.18)">
       <use xlink:href="#DejaVuSans-30"/>
       <use x="63.623047" xlink:href="#DejaVuSans-2e"/>
       <use x="95.410156" xlink:href="#DejaVuSans-32"/>
      </g>
     </g>
    </g>
    <g id="ytick_3">
     <g id="line2d_9">
      <g>
       <use style="stroke:#000000;stroke-width:0.8;" x="135" xlink:href="#m3ce6befb9e" y="293.328"/>
      </g>
     </g>
     <g id="text_10">
      <!-- 0.4 -->
      <g transform="translate(99.374375 300.166594)scale(0.18 -0.18)">
       <use xlink:href="#DejaVuSans-30"/>
       <use x="63.623047" xlink:href="#DejaVuSans-2e"/>
       <use x="95.410156" xlink:href="#DejaVuSans-34"/>
      </g>
     </g>
    </g>
    <g id="ytick_4">
     <g id="line2d_10">
      <g>
       <use style="stroke:#000000;stroke-width:0.8;" x="135" xlink:href="#m3ce6befb9e" y="215.712"/>
      </g>
     </g>
     <g id="text_11">
      <!-- 0.6 -->
      <g transform="translate(99.374375 222.550594)scale(0.18 -0.18)">
       <use xlink:href="#DejaVuSans-30"/>
       <use x="63.623047" xlink:href="#DejaVuSans-2e"/>
       <use x="95.410156" xlink:href="#DejaVuSans-36"/>
      </g>
     </g>
    </g>
    <g id="ytick_5">
     <g id="line2d_11">
      <g>
       <use style="stroke:#000000;stroke-width:0.8;" x="135" xlink:href="#m3ce6befb9e" y="138.096"/>
      </g>
     </g>
     <g id="text_12">
      <!-- 0.8 -->
      <g transform="translate(99.374375 144.934594)scale(0.18 -0.18)">
       <use xlink:href="#DejaVuSans-30"/>
       <use x="63.623047" xlink:href="#DejaVuSans-2e"/>
       <use x="95.410156" xlink:href="#DejaVuSans-38"/>
      </g>
     </g>
    </g>
    <g id="ytick_6">
     <g id="line2d_12">
      <g>
       <use style="stroke:#000000;stroke-width:0.8;" x="135" xlink:href="#m3ce6befb9e" y="60.48"/>
      </g>
     </g>
     <g id="text_13">
      <!-- 1.0 -->
      <g transform="translate(99.374375 67.318594)scale(0.18 -0.18)">
       <use xlink:href="#DejaVuSans-31"/>
       <use x="63.623047" xlink:href="#DejaVuSans-2e"/>
       <use x="95.410156" xlink:href="#DejaVuSans-30"/>
      </g>
     </g>
    </g>
    <g id="text_14">
     <!-- $TPR_{Fair}$ -->
     <g transform="translate(90.799062 290.27)rotate(-90)scale(0.22 -0.22)">
      <defs>
       <path d="M 378 4666 
L 4325 4666 
L 4225 4134 
L 2559 4134 
L 1759 0 
L 1125 0 
L 1925 4134 
L 275 4134 
L 378 4666 
z
" id="DejaVuSans-Oblique-54" transform="scale(0.015625)"/>
      </defs>
      <use transform="translate(0 0.09375)" xlink:href="#DejaVuSans-Oblique-54"/>
      <use transform="translate(61.083984 0.09375)" xlink:href="#DejaVuSans-Oblique-50"/>
      <use transform="translate(121.386719 0.09375)" xlink:href="#DejaVuSans-Oblique-52"/>
      <use transform="translate(190.869141 -16.3125)scale(0.7)" xlink:href="#DejaVuSans-Oblique-46"/>
      <use transform="translate(231.132812 -16.3125)scale(0.7)" xlink:href="#DejaVuSans-Oblique-61"/>
      <use transform="translate(274.02832 -16.3125)scale(0.7)" xlink:href="#DejaVuSans-Oblique-69"/>
      <use transform="translate(293.476562 -16.3125)scale(0.7)" xlink:href="#DejaVuSans-Oblique-72"/>
     </g>
    </g>
   </g>
   <g id="line2d_13">
    <path clip-path="url(#pe401b4ef02)" d="M 135 448.56 
L 972 60.48 
" style="fill:none;stroke:#ff0000;stroke-dasharray:5.55,2.4;stroke-dashoffset:0;stroke-width:1.5;"/>
   </g>
   <g id="line2d_14">
    <path clip-path="url(#pe401b4ef02)" d="M 972 60.48 
L 970.702766 77.904 
L 969.888037 93.708398 
L 969.004386 111.977516 
L 968.25513 127.062353 
L 967.29874 140.202335 
L 966.491359 151.415846 
L 965.326671 163.556608 
L 964.215038 173.720835 
L 963.023492 183.201553 
L 961.532048 192.349814 
L 960.117125 200.832038 
L 958.46334 209.59692 
L 956.823116 216.965426 
L 955.296884 224.025319 
L 953.740135 231.264441 
L 951.901924 236.545863 
L 950.086957 242.224483 
L 948.535912 247.70704 
L 946.779332 253.88877 
L 945.404962 258.725712 
L 943.646671 263.1467 
L 942.133699 267.741878 
L 940.723862 271.911299 
L 939.070539 275.507686 
L 937.094985 279.493947 
L 935.507174 282.655241 
L 933.759694 285.823894 
L 931.234987 288.975701 
L 929.011872 292.385816 
L 926.721793 295.383494 
L 924.955332 297.926434 
L 922.812929 300.618281 
L 920.6713 303.064138 
L 918.584351 305.102354 
L 916.210506 307.269389 
L 913.805976 309.40067 
L 911.677882 311.156208 
L 909.861731 313.189333 
L 907.686707 315.074477 
L 905.238572 317.190109 
L 903.543551 319.2 
L 901.204118 321.009231 
L 898.955668 323.024993 
L 895.958824 325.142332 
L 893.453189 326.839777 
L 891.169983 328.478121 
L 888.52921 330.185511 
L 886.11905 331.680863 
L 883.677321 333.416712 
L 881.535055 335.097205 
L 878.775063 336.648281 
L 876.513003 338.504798 
L 873.700921 340.070238 
L 871.678274 341.73393 
L 868.806753 343.102209 
L 866.779001 344.669142 
L 864.740163 346.096252 
L 862.705234 347.666087 
L 860.377427 348.763118 
L 857.863636 350.195841 
L 855.463043 351.427317 
L 852.815153 352.464534 
L 849.974776 353.687324 
L 847.181031 355.03272 
L 844.641063 355.860282 
L 841.87971 357.298802 
L 839.182635 358.62504 
L 836.287426 359.641964 
L 834.171429 360.460604 
L 831.309173 361.526563 
L 827.445176 362.841876 
L 824.716738 364.044564 
L 821.242737 365.075215 
L 818.663785 366.255926 
L 815.632805 367.301183 
L 811.848943 368.348147 
L 808.811321 369.438895 
L 805.204956 370.421713 
L 801.735464 371.402965 
L 798.218617 372.687496 
L 793.992056 373.760913 
L 790.010092 374.64238 
L 785.287023 375.559274 
L 779.998287 376.534482 
L 775.364218 377.688103 
L 770.706586 378.456169 
L 766.949136 379.469084 
L 762.369007 380.72761 
L 758.027493 381.756606 
L 753.234668 382.86814 
L 747.447704 384.083939 
L 742.104481 385.405912 
L 736.243469 386.650567 
L 731.927349 387.734998 
L 727.419631 388.711847 
L 721.820202 389.816013 
L 716.660548 391.265606 
L 711.275683 392.606138 
L 706.028017 394.03236 
L 701.00827 395.031724 
" style="fill:none;stroke:#1f77b4;stroke-linecap:square;stroke-width:1.5;"/>
   </g>
   <g id="line2d_15">
    <path clip-path="url(#pe401b4ef02)" d="M 972 60.48 
L 613.812422 156.378288 
L 466.462632 214.852744 
L 386.009586 253.742813 
L 335.41533 281.943972 
L 300.826057 303.289703 
L 275.668737 319.829509 
L 256.506788 332.986597 
L 241.447459 343.921933 
L 229.296139 352.8453 
L 219.336125 360.357068 
L 211.058462 366.968793 
L 204.023232 372.668131 
L 197.982569 377.59577 
L 192.754975 381.99494 
L 188.19653 385.842752 
L 184.174021 389.310176 
L 180.632366 392.496212 
L 177.486405 395.354725 
L 174.626422 397.926105 
L 172.060229 400.296666 
L 169.783076 402.427526 
L 167.706337 404.381201 
L 165.808164 406.203335 
L 164.075758 407.89932 
L 162.493752 409.50131 
L 161.052799 410.946661 
L 159.719665 412.229341 
L 158.50997 413.469417 
L 157.394525 414.675409 
L 156.343848 415.753092 
L 155.379458 416.768701 
L 154.473345 417.744396 
L 153.648217 418.639637 
L 152.869195 419.488268 
L 152.143833 420.303789 
L 151.470283 421.068901 
L 150.827688 421.754119 
L 150.230208 422.428373 
L 149.674015 423.092886 
L 149.154096 423.722288 
L 148.659352 424.318007 
L 148.198465 424.888897 
L 147.762881 425.432557 
L 147.345323 425.953793 
L 146.946169 426.453722 
L 146.574187 426.957031 
L 146.22108 427.42041 
L 145.878925 427.864368 
L 145.563517 428.303103 
L 145.262034 428.723021 
L 144.966126 429.136413 
L 144.688776 429.565551 
L 144.42085 429.938904 
L 144.17089 430.305179 
L 143.918366 430.661732 
L 143.68846 431.007229 
L 143.467062 431.331969 
L 143.251546 431.667765 
L 143.043239 431.991793 
L 142.843135 432.299228 
L 142.651106 432.598187 
L 142.4526 432.887663 
L 142.269111 433.160544 
L 142.091082 433.438466 
L 141.913816 433.70758 
L 141.743915 433.983915 
L 141.580452 434.246888 
L 141.419633 434.503965 
L 141.270562 434.763059 
L 141.125417 435.000382 
L 140.983349 435.236396 
L 140.843792 435.479926 
L 140.705818 435.702732 
L 140.569068 435.92242 
L 140.437349 436.139055 
L 140.310686 436.354126 
L 140.187036 436.555234 
L 140.064914 436.776802 
L 139.949509 436.987978 
L 139.835779 437.188942 
L 139.725759 437.389418 
L 139.613509 437.573113 
L 139.504952 437.762853 
L 139.401053 437.949902 
L 139.299315 438.127712 
L 139.1996 438.316475 
L 139.104249 438.490386 
L 139.014743 438.67322 
L 138.919089 438.857805 
L 138.827737 439.032523 
L 138.742808 439.198564 
L 138.658862 439.377954 
L 138.568081 439.555692 
L 138.4812 439.713305 
L 138.394081 439.879297 
L 138.310766 440.045335 
L 138.233097 440.214657 
L 138.155224 440.397936 
L 138.07095 440.580053 
L 137.991457 440.738312 
" style="fill:none;stroke:#ff7f0e;stroke-linecap:square;stroke-width:1.5;"/>
   </g>
   <g id="line2d_16">
    <path clip-path="url(#pe401b4ef02)" d="M 972 60.48 
L 777.288173 125.27976 
L 652.483727 172.251046 
L 565.661792 207.182232 
L 501.863529 234.674685 
L 453.282503 256.588756 
L 414.769133 274.745049 
L 383.707382 289.501859 
L 358.001636 302.406304 
L 336.418493 313.181167 
L 318.163965 322.693169 
L 302.518713 331.048935 
L 288.917648 338.48798 
L 277.017081 344.989391 
L 266.542283 350.92441 
L 257.202263 356.170419 
L 248.879442 360.949938 
L 241.432641 365.285605 
L 234.750146 369.276468 
L 228.642789 372.92643 
L 223.072935 376.26819 
L 218.05544 379.340323 
L 213.482662 382.131599 
L 209.265912 384.789373 
L 205.397876 387.269453 
L 201.831293 389.607795 
L 198.547208 391.732937 
L 195.517779 393.706114 
L 192.748855 395.563773 
L 190.150493 397.336023 
L 187.712614 398.97581 
L 185.479165 400.537136 
L 183.369833 402.028628 
L 181.418339 403.400309 
L 179.59642 404.68649 
L 177.88121 405.924705 
L 176.278304 407.104865 
L 174.777738 408.209985 
L 173.356045 409.27396 
L 172.029554 410.311514 
L 170.77362 411.289464 
L 169.577153 412.230636 
L 168.453895 413.136976 
L 167.397514 413.995469 
L 166.387408 414.82435 
L 165.415889 415.620036 
L 164.513136 416.414142 
L 163.63939 417.149159 
L 162.798007 417.876561 
L 162.018134 418.560734 
L 161.26551 419.221061 
L 160.536066 419.872012 
L 159.836578 420.511727 
L 159.165103 421.099981 
L 158.538281 421.68932 
L 157.90785 422.236761 
L 157.319824 422.783421 
L 156.74965 423.301152 
L 156.190839 423.813681 
L 155.654986 424.323478 
L 155.135729 424.809293 
L 154.64659 425.283848 
L 154.154027 425.736972 
L 153.683686 426.16761 
L 153.228917 426.595823 
L 152.769791 427.019933 
L 152.34162 427.434201 
L 151.918836 427.837217 
L 151.511879 428.221564 
L 151.133002 428.602001 
L 150.760409 428.970788 
L 150.389095 429.33804 
L 150.027251 429.709515 
L 149.672537 430.052126 
L 149.326195 430.388115 
L 148.977673 430.721954 
L 148.652952 431.042433 
L 148.331924 431.356894 
L 148.021748 431.687147 
L 147.721456 431.992932 
L 147.426562 432.300244 
L 147.14148 432.600548 
L 146.853713 432.877566 
L 146.573599 433.156827 
L 146.311472 433.433923 
L 146.053685 433.704048 
L 145.80159 433.982523 
L 145.546414 434.249501 
L 145.305824 434.516524 
L 145.067325 434.769275 
L 144.832441 435.030359 
L 144.610489 435.277209 
L 144.38019 435.531935 
L 144.150566 435.786539 
L 143.930829 436.029541 
L 143.715584 436.265518 
L 143.498043 436.506192 
L 143.293275 436.748883 
L 143.091088 436.994561 
L 142.875583 437.245934 
L 142.67798 437.47503 
" style="fill:none;stroke:#2ca02c;stroke-linecap:square;stroke-width:1.5;"/>
   </g>
   <g id="line2d_17">
    <path clip-path="url(#pe401b4ef02)" d="M 972 60.48 
L 950.422827 64.534676 
L 929.033189 68.428324 
L 908.037427 72.462845 
L 887.429267 76.480044 
L 867.354175 80.53096 
L 847.616962 84.248745 
L 828.384928 87.501584 
L 809.677737 91.092076 
L 791.187433 94.416075 
L 773.174109 97.991746 
L 755.587945 101.552426 
L 738.421085 105.109422 
L 721.66731 108.496862 
L 705.364057 111.823752 
L 689.468283 115.243201 
L 674.127308 118.319762 
L 659.24255 121.668054 
L 644.797331 124.820138 
L 630.580414 127.998086 
L 616.751068 131.077989 
L 603.372682 134.026431 
L 590.521469 136.812924 
L 578.059214 139.681578 
L 566.056154 142.532279 
L 554.304997 145.490744 
L 542.889202 148.098741 
L 532.006929 150.726014 
L 521.475783 153.251373 
L 511.423468 155.901733 
L 501.552856 158.358885 
L 492.124972 160.705205 
L 482.956251 163.203846 
L 474.135499 165.499829 
L 465.664416 167.755305 
L 457.440413 169.96379 
L 449.53722 172.250444 
L 441.8246 174.327234 
L 434.340075 176.345103 
L 427.271173 178.413607 
L 420.351435 180.436519 
L 413.589015 182.602119 
L 407.12301 184.692956 
L 400.978731 186.625666 
L 394.996765 188.716925 
L 389.105223 190.624156 
L 383.56564 192.674267 
L 377.998636 194.560363 
L 372.68023 196.54223 
L 367.544849 198.5266 
L 362.483787 200.47278 
L 357.602072 202.284929 
L 352.912659 204.139998 
L 348.270232 206.033714 
L 343.78897 207.901988 
L 339.376526 209.760862 
L 335.24092 211.700351 
L 331.06062 213.528038 
L 326.954088 215.309337 
L 323.05428 217.09321 
L 319.225177 218.921997 
L 315.548362 220.764786 
L 311.786225 222.555854 
L 308.209167 224.3559 
L 304.665157 226.253968 
L 301.119091 228.040825 
L 297.719232 229.854585 
L 294.375036 231.714097 
L 291.135714 233.547655 
L 288.022767 235.409973 
L 284.929697 237.25825 
L 281.85345 239.138431 
L 278.894623 240.981076 
L 275.932144 242.809625 
L 273.029641 244.698291 
L 270.200597 246.550108 
L 267.401253 248.390919 
L 264.700017 250.306112 
L 262.084194 252.294563 
L 259.446819 254.168105 
L 256.843172 256.181496 
L 254.256626 258.136709 
L 251.729383 260.111523 
L 249.221268 262.084496 
L 246.886827 264.006823 
L 244.51996 265.886898 
L 242.199669 267.920368 
L 239.893869 269.940153 
L 237.689808 271.944214 
L 235.448684 273.883997 
L 233.23825 275.976472 
L 231.111762 277.951436 
L 228.934469 280.120269 
L 226.781111 282.342492 
L 224.697382 284.401039 
L 222.618027 286.404296 
L 220.551075 288.483718 
L 218.591567 290.551014 
L 216.631499 292.694843 
L 214.585234 294.968856 
L 212.671411 297.033161 
" style="fill:none;stroke:#d62728;stroke-linecap:square;stroke-width:1.5;"/>
   </g>
   <g id="line2d_18">
    <path clip-path="url(#pe401b4ef02)" d="M 972 60.48 
L 867.328191 79.553722 
L 783.705163 96.952456 
L 715.214119 113.001726 
L 658.276978 127.960642 
L 610.274373 141.565593 
L 569.055373 154.119976 
L 533.511162 165.680222 
L 502.551096 176.713143 
L 475.209331 186.723303 
L 451.179105 196.062469 
L 429.748047 205.017767 
L 410.476672 213.350491 
L 393.147101 221.081036 
L 377.549244 228.479162 
L 363.263991 235.304873 
L 350.332599 241.936998 
L 338.451194 248.120957 
L 327.622307 254.081663 
L 317.639227 259.701956 
L 308.401635 265.069596 
L 299.90788 270.101536 
L 292.039423 274.862479 
L 284.717329 279.454183 
L 277.881909 283.855655 
L 271.532429 288.054231 
L 265.604868 292.007426 
L 260.053155 295.737412 
L 254.888714 299.342272 
L 250.027307 302.876087 
L 245.416256 306.213532 
L 241.137621 309.409086 
L 237.03641 312.490208 
L 233.233646 315.363396 
L 229.608467 318.144519 
L 226.170062 320.813699 
L 222.953912 323.415744 
L 219.879245 325.850793 
L 216.966479 328.202517 
L 214.227725 330.577534 
L 211.591711 332.822236 
L 209.063502 335.005933 
L 206.668752 337.115501 
L 204.392507 339.14167 
L 202.207026 341.140189 
L 200.105846 343.065539 
L 198.126402 344.954167 
L 196.204673 346.758701 
L 194.371339 348.561539 
L 192.61596 350.250107 
L 190.894673 351.895624 
L 189.255664 353.561471 
L 187.687412 355.163494 
L 186.160232 356.710747 
L 184.70957 358.269766 
L 183.29984 359.761927 
L 181.957439 361.232135 
L 180.632282 362.666275 
L 179.338886 364.043502 
L 178.130556 365.398929 
L 176.938976 366.748827 
L 175.796966 368.091282 
L 174.663833 369.393433 
L 173.585802 370.626751 
L 172.534949 371.928404 
L 171.502537 373.146934 
L 170.507604 374.380127 
L 169.542076 375.609512 
L 168.61814 376.785615 
L 167.72311 377.965636 
L 166.852011 379.131465 
L 166.005781 380.294488 
L 165.191535 381.442031 
L 164.384637 382.555115 
L 163.591003 383.621071 
L 162.831353 384.686342 
L 162.088086 385.759267 
L 161.380019 386.784106 
L 160.694026 387.87049 
L 160.018695 388.924072 
L 159.356976 389.972632 
L 158.709157 391.000148 
L 158.081921 392.00716 
L 157.469609 393.007638 
L 156.887191 393.986489 
L 156.30529 394.948473 
L 155.741263 395.913839 
L 155.189826 396.84519 
L 154.656896 397.789906 
L 154.129281 398.677851 
L 153.618896 399.631701 
L 153.120688 400.506004 
L 152.616142 401.407116 
L 152.125471 402.324984 
L 151.653661 403.18726 
L 151.185687 404.047382 
L 150.732721 404.921056 
L 150.292968 405.779937 
L 149.866536 406.655251 
L 149.432574 407.549091 
L 149.014884 408.391084 
" style="fill:none;stroke:#9467bd;stroke-linecap:square;stroke-width:1.5;"/>
   </g>
   <g id="line2d_19">
    <path clip-path="url(#pe401b4ef02)" d="M 972 60.48 
L 898.182929 74.801231 
L 834.472378 88.240378 
L 778.878886 100.795891 
L 730.072967 112.751791 
L 687.103172 123.981612 
L 648.590686 134.484171 
L 614.259915 144.29807 
L 583.430175 153.816858 
L 555.449385 162.648161 
L 530.216024 170.964146 
L 507.181129 179.057345 
L 486.118747 186.747043 
L 466.806061 193.938985 
L 449.114597 200.900619 
L 432.720192 207.411517 
L 417.587441 213.774753 
L 403.551647 219.810079 
L 390.566312 225.598292 
L 378.505475 231.130125 
L 367.221828 236.482802 
L 356.765241 241.53434 
L 346.982396 246.344125 
L 337.781975 251.008296 
L 329.141203 255.496353 
L 321.040138 259.804685 
L 313.436994 263.915311 
L 306.251265 267.830816 
L 299.538388 271.632849 
L 293.20169 275.40605 
L 287.166192 278.938624 
L 281.514794 282.348765 
L 276.086089 285.66574 
L 271.015683 288.796823 
L 266.1635 291.837107 
L 261.567881 294.742117 
L 257.231219 297.60967 
L 253.050577 300.293547 
L 249.09089 302.902087 
L 245.348845 305.529954 
L 241.730771 308.055972 
L 238.264447 310.512548 
L 234.975689 312.891405 
L 231.819857 315.172271 
L 228.795068 317.450248 
L 225.898547 319.641482 
L 223.158797 321.788711 
L 220.486134 323.876343 
L 217.924097 325.951489 
L 215.467953 327.886499 
L 213.068362 329.807008 
L 210.766497 331.700649 
L 208.564591 333.538625 
L 206.438976 335.342467 
L 204.407846 337.11866 
L 202.427686 338.860836 
L 200.524298 340.583738 
L 198.667579 342.269968 
L 196.845481 343.881405 
L 195.13 345.465845 
L 193.446327 347.056715 
L 191.835136 348.622186 
L 190.234003 350.160181 
L 188.706834 351.639875 
L 187.225456 353.149496 
L 185.766267 354.585319 
L 184.364248 356.049523 
L 183.010041 357.49707 
L 181.705947 358.896983 
L 180.430913 360.288437 
L 179.199248 361.673052 
L 178.004892 363.06922 
L 176.86449 364.447939 
L 175.720684 365.790748 
L 174.619 367.0706 
L 173.547301 368.357502 
L 172.505327 369.635294 
L 171.499743 370.88071 
L 170.524113 372.202848 
L 169.57312 373.50606 
L 168.635687 374.776875 
L 167.734709 376.008693 
L 166.849557 377.235519 
L 165.991147 378.466603 
L 165.169552 379.660437 
L 164.348567 380.842367 
L 163.55357 382.030133 
L 162.788902 383.177779 
L 162.037838 384.346086 
L 161.304158 385.448153 
L 160.589267 386.608837 
L 159.883058 387.69205 
L 159.176835 388.832084 
L 158.492251 389.961036 
L 157.830836 391.037049 
L 157.174871 392.113837 
L 156.545004 393.214369 
L 155.9324 394.277385 
L 155.331116 395.378174 
L 154.721346 396.50032 
L 154.138055 397.556326 
" style="fill:none;stroke:#8c564b;stroke-linecap:square;stroke-width:1.5;"/>
   </g>
   <g id="line2d_20">
    <path clip-path="url(#pe401b4ef02)" d="M 972 60.48 
L 971.94786 60.724118 
L 971.902832 60.968668 
L 971.847785 61.281293 
L 971.800084 61.560405 
L 971.744056 61.822275 
L 971.692679 62.073398 
L 971.631099 62.35834 
L 971.574929 62.624253 
L 971.49855 62.882489 
L 971.417784 63.154418 
L 971.343045 63.420505 
L 971.267097 63.718348 
L 971.195087 63.99271 
L 971.128201 64.269139 
L 971.056857 64.566203 
L 970.980195 64.798407 
L 970.904171 65.045598 
L 970.824166 65.307163 
L 970.734192 65.623514 
L 970.650462 65.894517 
L 970.566105 66.158814 
L 970.475534 66.443361 
L 970.381435 66.69975 
L 970.293378 66.957416 
L 970.180071 67.225738 
L 970.078186 67.46734 
L 969.983577 67.712431 
L 969.878411 67.969958 
L 969.755818 68.244198 
L 969.642007 68.509428 
L 969.533221 68.729203 
L 969.423182 68.974886 
L 969.299198 69.212644 
L 969.192643 69.428969 
L 969.070986 69.656333 
L 968.951724 69.885218 
L 968.827524 70.082393 
L 968.708463 70.318868 
L 968.556447 70.544422 
L 968.428876 70.798693 
L 968.290175 71.027731 
L 968.141411 71.266973 
L 967.99686 71.508542 
L 967.853849 71.735642 
L 967.705644 71.968842 
L 967.547117 72.199898 
L 967.387034 72.441111 
L 967.210856 72.691383 
L 967.03435 72.914327 
L 966.871768 73.166918 
L 966.706756 73.415567 
L 966.543222 73.636628 
L 966.349116 73.902114 
L 966.166697 74.193168 
L 965.965653 74.425506 
L 965.790041 74.685695 
L 965.587617 74.94079 
L 965.397315 75.223162 
L 965.202779 75.506569 
L 964.99926 75.796941 
L 964.78391 76.042637 
L 964.56228 76.309834 
L 964.338514 76.569801 
L 964.108804 76.875453 
L 963.849725 77.134818 
L 963.609477 77.4229 
L 963.36968 77.751509 
L 963.132491 78.0417 
L 962.864179 78.325794 
L 962.575543 78.632327 
L 962.248881 78.987572 
L 961.977251 79.300167 
L 961.679794 79.632398 
L 961.377268 79.987788 
L 961.0552 80.360662 
L 960.73374 80.716683 
L 960.390111 81.093341 
L 960.041763 81.495532 
L 959.681808 81.857644 
L 959.327157 82.281331 
L 958.98925 82.718702 
L 958.635065 83.119992 
L 958.247136 83.564568 
L 957.842721 84.012802 
L 957.44521 84.466343 
L 956.980561 84.914998 
L 956.555807 85.400432 
L 956.086991 85.941341 
L 955.649633 86.411784 
L 955.18703 86.939349 
L 954.684214 87.503035 
L 954.151928 88.099479 
L 953.587915 88.720719 
L 953.016046 89.413678 
L 952.433946 89.997782 
L 951.844357 90.700876 
L 951.268802 91.390597 
L 950.673051 92.128287 
L 950.005719 92.950846 
L 949.302172 93.694 
" style="fill:none;stroke:#e377c2;stroke-linecap:square;stroke-width:1.5;"/>
   </g>
   <g id="line2d_21">
    <path clip-path="url(#pe401b4ef02)" d="M 972 60.48 
L 919.407113 87.221354 
L 871.642421 110.750948 
L 827.972494 131.35735 
L 787.804212 149.756141 
L 750.833062 166.36013 
L 716.970192 181.549821 
L 685.585566 194.998647 
L 656.525526 207.647324 
L 629.715899 218.95992 
L 604.682504 229.373378 
L 581.45101 239.010473 
L 559.802216 247.897185 
L 539.56467 256.080593 
L 520.702463 263.866353 
L 503.014339 270.942337 
L 486.41973 277.650993 
L 470.707775 283.934061 
L 456.127259 289.860015 
L 442.34544 295.359853 
L 429.401719 300.593564 
L 417.174027 305.5243 
L 405.56359 310.175523 
L 394.603229 314.623742 
L 384.263492 318.839515 
L 374.549519 322.827474 
L 365.353495 326.633001 
L 356.585529 330.177854 
L 348.340598 333.591863 
L 340.501036 336.860672 
L 333.007283 339.948391 
L 325.943568 342.964704 
L 319.152644 345.832538 
L 312.730028 348.582706 
L 306.609824 351.195229 
L 300.802974 353.684149 
L 295.317039 356.061183 
L 290.004169 358.357438 
L 284.960866 360.564358 
L 280.145652 362.699281 
L 275.523052 364.744304 
L 271.08857 366.714089 
L 266.860156 368.63896 
L 262.826605 370.482863 
L 258.95549 372.248266 
L 255.207134 373.981323 
L 251.677422 375.648521 
L 248.225913 377.233828 
L 244.929707 378.817682 
L 241.76719 380.323254 
L 238.674677 381.800325 
L 235.705242 383.217667 
L 232.849709 384.609736 
L 230.082731 385.933327 
L 227.425728 387.242548 
L 224.876611 388.502142 
L 222.396979 389.722534 
L 219.985787 390.9205 
L 217.616931 392.096235 
L 215.362222 393.228705 
L 213.1651 394.344704 
L 211.055023 395.423615 
L 208.975843 396.477408 
L 206.99993 397.485013 
L 205.080495 398.485848 
L 203.176712 399.456108 
L 201.3604 400.40827 
L 199.603796 401.336432 
L 197.893623 402.23745 
L 196.224134 403.110138 
L 194.615033 403.989794 
L 193.057433 404.864839 
L 191.560098 405.732055 
L 190.063291 406.571335 
L 188.611881 407.385052 
L 187.205867 408.188007 
L 185.835745 408.968498 
L 184.50075 409.733007 
L 183.209392 410.521035 
L 181.949886 411.287752 
L 180.721767 412.036829 
L 179.535103 412.756985 
L 178.369041 413.459996 
L 177.236947 414.160912 
L 176.149471 414.845645 
L 175.060524 415.53051 
L 174.005218 416.207913 
L 172.993977 416.861825 
L 171.993018 417.522844 
L 171.008521 418.146183 
L 170.050693 418.798229 
L 169.115317 419.406325 
L 168.179206 420.040818 
L 167.271237 420.649212 
L 166.389401 421.259377 
L 165.518076 421.845852 
L 164.67515 422.448795 
L 163.850458 423.031371 
L 163.033659 423.624934 
L 162.208861 424.228486 
L 161.423884 424.805794 
" style="fill:none;stroke:#7f7f7f;stroke-linecap:square;stroke-width:1.5;"/>
   </g>
   <g id="line2d_22">
    <path clip-path="url(#pe401b4ef02)" d="M 972 60.48 
L 971.957204 60.675089 
L 971.921639 60.86459 
L 971.887912 61.105439 
L 971.852392 61.325993 
L 971.812725 61.536432 
L 971.765954 61.729277 
L 971.713347 61.961751 
L 971.668574 62.158964 
L 971.613647 62.362877 
L 971.562691 62.56978 
L 971.505446 62.785362 
L 971.46288 63.013712 
L 971.403877 63.221651 
L 971.346539 63.448198 
L 971.296165 63.679338 
L 971.23761 63.862722 
L 971.170331 64.052957 
L 971.105179 64.266426 
L 971.043961 64.510142 
L 970.978729 64.724191 
L 970.913604 64.929187 
L 970.8475 65.154893 
L 970.776181 65.358698 
L 970.711188 65.563138 
L 970.636112 65.779308 
L 970.559035 65.968283 
L 970.488593 66.16105 
L 970.404526 66.371526 
L 970.319429 66.59888 
L 970.233756 66.805935 
L 970.148833 66.982145 
L 970.046246 67.17827 
L 969.948564 67.352149 
L 969.856677 67.523865 
L 969.747713 67.709322 
L 969.651434 67.889706 
L 969.55867 68.052554 
L 969.462595 68.255478 
L 969.354152 68.432889 
L 969.249293 68.632941 
L 969.139112 68.827395 
L 969.039103 69.028586 
L 968.933141 69.21632 
L 968.818983 69.403345 
L 968.704603 69.589041 
L 968.583641 69.77632 
L 968.46516 69.974771 
L 968.33687 70.167851 
L 968.202814 70.346423 
L 968.0686 70.542674 
L 967.929826 70.737378 
L 967.805127 70.916382 
L 967.663756 71.122827 
L 967.526629 71.357625 
L 967.396615 71.550948 
L 967.254403 71.766428 
L 967.096981 71.981808 
L 966.939655 72.208676 
L 966.774667 72.437919 
L 966.610968 72.672696 
L 966.443775 72.882198 
L 966.264126 73.098348 
L 966.086199 73.311263 
L 965.896376 73.55853 
L 965.713294 73.760735 
L 965.518502 73.998849 
L 965.315957 74.259536 
L 965.115237 74.499152 
L 964.928919 74.726184 
L 964.737097 74.975427 
L 964.523365 75.254135 
L 964.32638 75.515115 
L 964.10897 75.773656 
L 963.873902 76.059873 
L 963.659904 76.355813 
L 963.409113 76.63857 
L 963.154353 76.972722 
L 962.883674 77.290047 
L 962.635132 77.573598 
L 962.379124 77.914797 
L 962.120019 78.273381 
L 961.844524 78.600318 
L 961.569463 78.972225 
L 961.249509 79.333875 
L 960.962286 79.701156 
L 960.654679 80.070673 
L 960.332691 80.465992 
L 959.996968 80.909992 
L 959.646488 81.307202 
L 959.302717 81.74255 
L 958.929007 82.200483 
L 958.519418 82.687669 
L 958.124207 83.206588 
L 957.700718 83.775233 
L 957.271746 84.259045 
L 956.83433 84.853822 
L 956.370856 85.416816 
L 955.902665 86.040702 
L 955.40148 86.706231 
L 954.893021 87.334091 
" style="fill:none;stroke:#bcbd22;stroke-linecap:square;stroke-width:1.5;"/>
   </g>
   <g id="line2d_23">
    <path clip-path="url(#pe401b4ef02)" d="M 972 60.48 
L 914.65882 83.981425 
L 863.189184 105.090971 
L 816.519828 123.893551 
L 774.067516 140.808885 
L 735.378148 156.313195 
L 699.888695 170.574467 
L 667.356326 183.353804 
L 637.468416 195.588057 
L 609.949709 206.533968 
L 584.415421 216.673238 
L 560.780631 226.214662 
L 538.864845 235.034832 
L 518.47493 243.179974 
L 499.52754 251.016521 
L 481.811755 258.123619 
L 465.265798 264.925482 
L 449.712138 271.305075 
L 435.252289 277.331212 
L 421.672708 282.95626 
L 408.936286 288.356101 
L 396.96505 293.417237 
L 385.670089 298.225617 
L 374.992469 302.823553 
L 364.95355 307.174937 
L 355.535638 311.324441 
L 346.628359 315.302996 
L 338.191857 318.999518 
L 330.230381 322.60507 
L 322.700436 326.038966 
L 315.555124 329.304727 
L 308.819648 332.455339 
L 302.37343 335.47874 
L 296.292948 338.357748 
L 290.499517 341.114198 
L 285.017774 343.751038 
L 279.827807 346.302735 
L 274.841664 348.739087 
L 270.118897 351.067386 
L 265.630897 353.346109 
L 261.316213 355.518054 
L 257.207405 357.634603 
L 253.28581 359.68997 
L 249.550764 361.655619 
L 245.966522 363.565131 
L 242.530274 365.417058 
L 239.268505 367.208569 
L 236.097454 368.916632 
L 233.062438 370.615506 
L 230.168559 372.237583 
L 227.34558 373.816192 
L 224.647042 375.333951 
L 222.066836 376.828539 
L 219.564022 378.266055 
L 217.154238 379.68478 
L 214.859248 381.044798 
L 212.630923 382.37556 
L 210.462202 383.675821 
L 208.349931 384.946048 
L 206.334052 386.17337 
L 204.365325 387.383188 
L 202.476989 388.555942 
L 200.635288 389.699282 
L 198.878479 390.79258 
L 197.175151 391.877179 
L 195.502314 392.929767 
L 193.900175 393.972995 
L 192.343225 394.986286 
L 190.829814 395.975737 
L 189.368173 396.927746 
L 187.956639 397.886282 
L 186.588953 398.841137 
L 185.279716 399.784216 
L 183.972095 400.705993 
L 182.692667 401.593024 
L 181.467982 402.475341 
L 180.277835 403.332913 
L 179.126634 404.177642 
L 178.003313 405.038209 
L 176.902937 405.881258 
L 175.84161 406.713036 
L 174.806314 407.511507 
L 173.796967 408.28718 
L 172.81267 409.071756 
L 171.861112 409.835633 
L 170.906969 410.592174 
L 169.991655 411.350235 
L 169.104227 412.08279 
L 168.226763 412.817773 
L 167.361301 413.518106 
L 166.51367 414.244504 
L 165.693583 414.930555 
L 164.869205 415.638945 
L 164.06709 416.330922 
L 163.280099 417.016907 
L 162.505361 417.676113 
L 161.749975 418.35454 
L 161.008157 419.017525 
L 160.277901 419.691664 
L 159.540738 420.375895 
L 158.83198 421.034734 
" style="fill:none;stroke:#17becf;stroke-linecap:square;stroke-width:1.5;"/>
   </g>
   <g id="patch_3">
    <path d="M 135 448.56 
L 135 60.48 
" style="fill:none;stroke:#000000;stroke-linecap:square;stroke-linejoin:miter;stroke-width:0.8;"/>
   </g>
   <g id="patch_4">
    <path d="M 972 448.56 
L 972 60.48 
" style="fill:none;stroke:#000000;stroke-linecap:square;stroke-linejoin:miter;stroke-width:0.8;"/>
   </g>
   <g id="patch_5">
    <path d="M 135 448.56 
L 972 448.56 
" style="fill:none;stroke:#000000;stroke-linecap:square;stroke-linejoin:miter;stroke-width:0.8;"/>
   </g>
   <g id="patch_6">
    <path d="M 135 60.48 
L 972 60.48 
" style="fill:none;stroke:#000000;stroke-linecap:square;stroke-linejoin:miter;stroke-width:0.8;"/>
   </g>
   <g id="legend_1">
    <g id="patch_7">
     <path d="M 498.934687 439.56 
L 608.065313 439.56 
Q 611.665313 439.56 611.665313 435.96 
L 611.665313 173.55375 
Q 611.665313 169.95375 608.065313 169.95375 
L 498.934687 169.95375 
Q 495.334687 169.95375 495.334687 173.55375 
L 495.334687 435.96 
Q 495.334687 439.56 498.934687 439.56 
z
" style="fill:#ffffff;opacity:0.8;stroke:#cccccc;stroke-linejoin:miter;"/>
    </g>
    <g id="line2d_24">
     <path d="M 502.534687 184.530938 
L 538.534688 184.530938 
" style="fill:none;stroke:#1f77b4;stroke-linecap:square;stroke-width:1.5;"/>
    </g>
    <g id="line2d_25"/>
    <g id="text_15">
     <!-- 0.001 -->
     <g transform="translate(552.934687 190.830938)scale(0.18 -0.18)">
      <use xlink:href="#DejaVuSans-30"/>
      <use x="63.623047" xlink:href="#DejaVuSans-2e"/>
      <use x="95.410156" xlink:href="#DejaVuSans-30"/>
      <use x="159.033203" xlink:href="#DejaVuSans-30"/>
      <use x="222.65625" xlink:href="#DejaVuSans-31"/>
     </g>
    </g>
    <g id="line2d_26">
     <path d="M 502.534687 210.951563 
L 538.534688 210.951563 
" style="fill:none;stroke:#ff7f0e;stroke-linecap:square;stroke-width:1.5;"/>
    </g>
    <g id="line2d_27"/>
    <g id="text_16">
     <!-- 0.011 -->
     <g transform="translate(552.934687 217.251563)scale(0.18 -0.18)">
      <use xlink:href="#DejaVuSans-30"/>
      <use x="63.623047" xlink:href="#DejaVuSans-2e"/>
      <use x="95.410156" xlink:href="#DejaVuSans-30"/>
      <use x="159.033203" xlink:href="#DejaVuSans-31"/>
      <use x="222.65625" xlink:href="#DejaVuSans-31"/>
     </g>
    </g>
    <g id="line2d_28">
     <path d="M 502.534687 237.372188 
L 538.534688 237.372188 
" style="fill:none;stroke:#2ca02c;stroke-linecap:square;stroke-width:1.5;"/>
    </g>
    <g id="line2d_29"/>
    <g id="text_17">
     <!-- 0.021 -->
     <g transform="translate(552.934687 243.672188)scale(0.18 -0.18)">
      <use xlink:href="#DejaVuSans-30"/>
      <use x="63.623047" xlink:href="#DejaVuSans-2e"/>
      <use x="95.410156" xlink:href="#DejaVuSans-30"/>
      <use x="159.033203" xlink:href="#DejaVuSans-32"/>
      <use x="222.65625" xlink:href="#DejaVuSans-31"/>
     </g>
    </g>
    <g id="line2d_30">
     <path d="M 502.534687 263.792813 
L 538.534688 263.792813 
" style="fill:none;stroke:#d62728;stroke-linecap:square;stroke-width:1.5;"/>
    </g>
    <g id="line2d_31"/>
    <g id="text_18">
     <!-- 0.031 -->
     <g transform="translate(552.934687 270.092813)scale(0.18 -0.18)">
      <defs>
       <path d="M 2597 2516 
Q 3050 2419 3304 2112 
Q 3559 1806 3559 1356 
Q 3559 666 3084 287 
Q 2609 -91 1734 -91 
Q 1441 -91 1130 -33 
Q 819 25 488 141 
L 488 750 
Q 750 597 1062 519 
Q 1375 441 1716 441 
Q 2309 441 2620 675 
Q 2931 909 2931 1356 
Q 2931 1769 2642 2001 
Q 2353 2234 1838 2234 
L 1294 2234 
L 1294 2753 
L 1863 2753 
Q 2328 2753 2575 2939 
Q 2822 3125 2822 3475 
Q 2822 3834 2567 4026 
Q 2313 4219 1838 4219 
Q 1578 4219 1281 4162 
Q 984 4106 628 3988 
L 628 4550 
Q 988 4650 1302 4700 
Q 1616 4750 1894 4750 
Q 2613 4750 3031 4423 
Q 3450 4097 3450 3541 
Q 3450 3153 3228 2886 
Q 3006 2619 2597 2516 
z
" id="DejaVuSans-33" transform="scale(0.015625)"/>
      </defs>
      <use xlink:href="#DejaVuSans-30"/>
      <use x="63.623047" xlink:href="#DejaVuSans-2e"/>
      <use x="95.410156" xlink:href="#DejaVuSans-30"/>
      <use x="159.033203" xlink:href="#DejaVuSans-33"/>
      <use x="222.65625" xlink:href="#DejaVuSans-31"/>
     </g>
    </g>
    <g id="line2d_32">
     <path d="M 502.534687 290.213438 
L 538.534688 290.213438 
" style="fill:none;stroke:#9467bd;stroke-linecap:square;stroke-width:1.5;"/>
    </g>
    <g id="line2d_33"/>
    <g id="text_19">
     <!-- 0.041 -->
     <g transform="translate(552.934687 296.513438)scale(0.18 -0.18)">
      <use xlink:href="#DejaVuSans-30"/>
      <use x="63.623047" xlink:href="#DejaVuSans-2e"/>
      <use x="95.410156" xlink:href="#DejaVuSans-30"/>
      <use x="159.033203" xlink:href="#DejaVuSans-34"/>
      <use x="222.65625" xlink:href="#DejaVuSans-31"/>
     </g>
    </g>
    <g id="line2d_34">
     <path d="M 502.534687 316.634063 
L 538.534688 316.634063 
" style="fill:none;stroke:#8c564b;stroke-linecap:square;stroke-width:1.5;"/>
    </g>
    <g id="line2d_35"/>
    <g id="text_20">
     <!-- 0.051 -->
     <g transform="translate(552.934687 322.934063)scale(0.18 -0.18)">
      <defs>
       <path d="M 691 4666 
L 3169 4666 
L 3169 4134 
L 1269 4134 
L 1269 2991 
Q 1406 3038 1543 3061 
Q 1681 3084 1819 3084 
Q 2600 3084 3056 2656 
Q 3513 2228 3513 1497 
Q 3513 744 3044 326 
Q 2575 -91 1722 -91 
Q 1428 -91 1123 -41 
Q 819 9 494 109 
L 494 744 
Q 775 591 1075 516 
Q 1375 441 1709 441 
Q 2250 441 2565 725 
Q 2881 1009 2881 1497 
Q 2881 1984 2565 2268 
Q 2250 2553 1709 2553 
Q 1456 2553 1204 2497 
Q 953 2441 691 2322 
L 691 4666 
z
" id="DejaVuSans-35" transform="scale(0.015625)"/>
      </defs>
      <use xlink:href="#DejaVuSans-30"/>
      <use x="63.623047" xlink:href="#DejaVuSans-2e"/>
      <use x="95.410156" xlink:href="#DejaVuSans-30"/>
      <use x="159.033203" xlink:href="#DejaVuSans-35"/>
      <use x="222.65625" xlink:href="#DejaVuSans-31"/>
     </g>
    </g>
    <g id="line2d_36">
     <path d="M 502.534687 343.054688 
L 538.534688 343.054688 
" style="fill:none;stroke:#e377c2;stroke-linecap:square;stroke-width:1.5;"/>
    </g>
    <g id="line2d_37"/>
    <g id="text_21">
     <!-- 0.061 -->
     <g transform="translate(552.934687 349.354688)scale(0.18 -0.18)">
      <use xlink:href="#DejaVuSans-30"/>
      <use x="63.623047" xlink:href="#DejaVuSans-2e"/>
      <use x="95.410156" xlink:href="#DejaVuSans-30"/>
      <use x="159.033203" xlink:href="#DejaVuSans-36"/>
      <use x="222.65625" xlink:href="#DejaVuSans-31"/>
     </g>
    </g>
    <g id="line2d_38">
     <path d="M 502.534687 369.475313 
L 538.534688 369.475313 
" style="fill:none;stroke:#7f7f7f;stroke-linecap:square;stroke-width:1.5;"/>
    </g>
    <g id="line2d_39"/>
    <g id="text_22">
     <!-- 0.071 -->
     <g transform="translate(552.934687 375.775313)scale(0.18 -0.18)">
      <defs>
       <path d="M 525 4666 
L 3525 4666 
L 3525 4397 
L 1831 0 
L 1172 0 
L 2766 4134 
L 525 4134 
L 525 4666 
z
" id="DejaVuSans-37" transform="scale(0.015625)"/>
      </defs>
      <use xlink:href="#DejaVuSans-30"/>
      <use x="63.623047" xlink:href="#DejaVuSans-2e"/>
      <use x="95.410156" xlink:href="#DejaVuSans-30"/>
      <use x="159.033203" xlink:href="#DejaVuSans-37"/>
      <use x="222.65625" xlink:href="#DejaVuSans-31"/>
     </g>
    </g>
    <g id="line2d_40">
     <path d="M 502.534687 395.895938 
L 538.534688 395.895938 
" style="fill:none;stroke:#bcbd22;stroke-linecap:square;stroke-width:1.5;"/>
    </g>
    <g id="line2d_41"/>
    <g id="text_23">
     <!-- 0.081 -->
     <g transform="translate(552.934687 402.195938)scale(0.18 -0.18)">
      <use xlink:href="#DejaVuSans-30"/>
      <use x="63.623047" xlink:href="#DejaVuSans-2e"/>
      <use x="95.410156" xlink:href="#DejaVuSans-30"/>
      <use x="159.033203" xlink:href="#DejaVuSans-38"/>
      <use x="222.65625" xlink:href="#DejaVuSans-31"/>
     </g>
    </g>
    <g id="line2d_42">
     <path d="M 502.534687 422.316563 
L 538.534688 422.316563 
" style="fill:none;stroke:#17becf;stroke-linecap:square;stroke-width:1.5;"/>
    </g>
    <g id="line2d_43"/>
    <g id="text_24">
     <!-- 0.091 -->
     <g transform="translate(552.934687 428.616563)scale(0.18 -0.18)">
      <defs>
       <path d="M 703 97 
L 703 672 
Q 941 559 1184 500 
Q 1428 441 1663 441 
Q 2288 441 2617 861 
Q 2947 1281 2994 2138 
Q 2813 1869 2534 1725 
Q 2256 1581 1919 1581 
Q 1219 1581 811 2004 
Q 403 2428 403 3163 
Q 403 3881 828 4315 
Q 1253 4750 1959 4750 
Q 2769 4750 3195 4129 
Q 3622 3509 3622 2328 
Q 3622 1225 3098 567 
Q 2575 -91 1691 -91 
Q 1453 -91 1209 -44 
Q 966 3 703 97 
z
M 1959 2075 
Q 2384 2075 2632 2365 
Q 2881 2656 2881 3163 
Q 2881 3666 2632 3958 
Q 2384 4250 1959 4250 
Q 1534 4250 1286 3958 
Q 1038 3666 1038 3163 
Q 1038 2656 1286 2365 
Q 1534 2075 1959 2075 
z
" id="DejaVuSans-39" transform="scale(0.015625)"/>
      </defs>
      <use xlink:href="#DejaVuSans-30"/>
      <use x="63.623047" xlink:href="#DejaVuSans-2e"/>
      <use x="95.410156" xlink:href="#DejaVuSans-30"/>
      <use x="159.033203" xlink:href="#DejaVuSans-39"/>
      <use x="222.65625" xlink:href="#DejaVuSans-31"/>
     </g>
    </g>
   </g>
  </g>
 </g>
 <defs>
  <clipPath id="pe401b4ef02">
   <rect height="388.08" width="837" x="135" y="60.48"/>
  </clipPath>
 </defs>
</svg>
