<?xml version="1.0" encoding="utf-8" standalone="no"?>
<!DOCTYPE svg PUBLIC "-//W3C//DTD SVG 1.1//EN"
  "http://www.w3.org/Graphics/SVG/1.1/DTD/svg11.dtd">
<svg height="504pt" version="1.1" viewBox="0 0 1080 504" width="1080pt" xmlns="http://www.w3.org/2000/svg" xmlns:xlink="http://www.w3.org/1999/xlink">
 <metadata>
  <rdf:RDF xmlns:cc="http://creativecommons.org/ns#" xmlns:dc="http://purl.org/dc/elements/1.1/" xmlns:rdf="http://www.w3.org/1999/02/22-rdf-syntax-ns#">
   <cc:Work>
    <dc:type rdf:resource="http://purl.org/dc/dcmitype/StillImage"/>
    <dc:date>2022-01-07T13:22:36.533631</dc:date>
    <dc:format>image/svg+xml</dc:format>
    <dc:creator>
     <cc:Agent>
      <dc:title>Matplotlib v3.4.3, https://matplotlib.org/</dc:title>
     </cc:Agent>
    </dc:creator>
   </cc:Work>
  </rdf:RDF>
 </metadata>
 <defs>
  <style type="text/css">*{stroke-linecap:butt;stroke-linejoin:round;}</style>
 </defs>
 <g id="figure_1">
  <g id="patch_1">
   <path d="M 0 504 
L 1080 504 
L 1080 0 
L 0 0 
z
" style="fill:#ffffff;"/>
  </g>
  <g id="axes_1">
   <g id="patch_2">
    <path d="M 135 448.56 
L 972 448.56 
L 972 60.48 
L 135 60.48 
z
" style="fill:#ffffff;"/>
   </g>
   <g id="matplotlib.axis_1">
    <g id="xtick_1">
     <g id="line2d_1">
      <defs>
       <path d="M 0 0 
L 0 3.5 
" id="m3195e9aef9" style="stroke:#000000;stroke-width:0.8;"/>
      </defs>
      <g>
       <use style="stroke:#000000;stroke-width:0.8;" x="135" xlink:href="#m3195e9aef9" y="448.56"/>
      </g>
     </g>
     <g id="text_1">
      <!-- 0.0 -->
      <g transform="translate(120.687187 469.237188)scale(0.18 -0.18)">
       <defs>
        <path d="M 2034 4250 
Q 1547 4250 1301 3770 
Q 1056 3291 1056 2328 
Q 1056 1369 1301 889 
Q 1547 409 2034 409 
Q 2525 409 2770 889 
Q 3016 1369 3016 2328 
Q 3016 3291 2770 3770 
Q 2525 4250 2034 4250 
z
M 2034 4750 
Q 2819 4750 3233 4129 
Q 3647 3509 3647 2328 
Q 3647 1150 3233 529 
Q 2819 -91 2034 -91 
Q 1250 -91 836 529 
Q 422 1150 422 2328 
Q 422 3509 836 4129 
Q 1250 4750 2034 4750 
z
" id="DejaVuSans-30" transform="scale(0.015625)"/>
        <path d="M 684 794 
L 1344 794 
L 1344 0 
L 684 0 
L 684 794 
z
" id="DejaVuSans-2e" transform="scale(0.015625)"/>
       </defs>
       <use xlink:href="#DejaVuSans-30"/>
       <use x="63.623047" xlink:href="#DejaVuSans-2e"/>
       <use x="95.410156" xlink:href="#DejaVuSans-30"/>
      </g>
     </g>
    </g>
    <g id="xtick_2">
     <g id="line2d_2">
      <g>
       <use style="stroke:#000000;stroke-width:0.8;" x="302.4" xlink:href="#m3195e9aef9" y="448.56"/>
      </g>
     </g>
     <g id="text_2">
      <!-- 0.2 -->
      <g transform="translate(288.087187 469.237188)scale(0.18 -0.18)">
       <defs>
        <path d="M 1228 531 
L 3431 531 
L 3431 0 
L 469 0 
L 469 531 
Q 828 903 1448 1529 
Q 2069 2156 2228 2338 
Q 2531 2678 2651 2914 
Q 2772 3150 2772 3378 
Q 2772 3750 2511 3984 
Q 2250 4219 1831 4219 
Q 1534 4219 1204 4116 
Q 875 4013 500 3803 
L 500 4441 
Q 881 4594 1212 4672 
Q 1544 4750 1819 4750 
Q 2544 4750 2975 4387 
Q 3406 4025 3406 3419 
Q 3406 3131 3298 2873 
Q 3191 2616 2906 2266 
Q 2828 2175 2409 1742 
Q 1991 1309 1228 531 
z
" id="DejaVuSans-32" transform="scale(0.015625)"/>
       </defs>
       <use xlink:href="#DejaVuSans-30"/>
       <use x="63.623047" xlink:href="#DejaVuSans-2e"/>
       <use x="95.410156" xlink:href="#DejaVuSans-32"/>
      </g>
     </g>
    </g>
    <g id="xtick_3">
     <g id="line2d_3">
      <g>
       <use style="stroke:#000000;stroke-width:0.8;" x="469.8" xlink:href="#m3195e9aef9" y="448.56"/>
      </g>
     </g>
     <g id="text_3">
      <!-- 0.4 -->
      <g transform="translate(455.487188 469.237188)scale(0.18 -0.18)">
       <defs>
        <path d="M 2419 4116 
L 825 1625 
L 2419 1625 
L 2419 4116 
z
M 2253 4666 
L 3047 4666 
L 3047 1625 
L 3713 1625 
L 3713 1100 
L 3047 1100 
L 3047 0 
L 2419 0 
L 2419 1100 
L 313 1100 
L 313 1709 
L 2253 4666 
z
" id="DejaVuSans-34" transform="scale(0.015625)"/>
       </defs>
       <use xlink:href="#DejaVuSans-30"/>
       <use x="63.623047" xlink:href="#DejaVuSans-2e"/>
       <use x="95.410156" xlink:href="#DejaVuSans-34"/>
      </g>
     </g>
    </g>
    <g id="xtick_4">
     <g id="line2d_4">
      <g>
       <use style="stroke:#000000;stroke-width:0.8;" x="637.2" xlink:href="#m3195e9aef9" y="448.56"/>
      </g>
     </g>
     <g id="text_4">
      <!-- 0.6 -->
      <g transform="translate(622.887188 469.237188)scale(0.18 -0.18)">
       <defs>
        <path d="M 2113 2584 
Q 1688 2584 1439 2293 
Q 1191 2003 1191 1497 
Q 1191 994 1439 701 
Q 1688 409 2113 409 
Q 2538 409 2786 701 
Q 3034 994 3034 1497 
Q 3034 2003 2786 2293 
Q 2538 2584 2113 2584 
z
M 3366 4563 
L 3366 3988 
Q 3128 4100 2886 4159 
Q 2644 4219 2406 4219 
Q 1781 4219 1451 3797 
Q 1122 3375 1075 2522 
Q 1259 2794 1537 2939 
Q 1816 3084 2150 3084 
Q 2853 3084 3261 2657 
Q 3669 2231 3669 1497 
Q 3669 778 3244 343 
Q 2819 -91 2113 -91 
Q 1303 -91 875 529 
Q 447 1150 447 2328 
Q 447 3434 972 4092 
Q 1497 4750 2381 4750 
Q 2619 4750 2861 4703 
Q 3103 4656 3366 4563 
z
" id="DejaVuSans-36" transform="scale(0.015625)"/>
       </defs>
       <use xlink:href="#DejaVuSans-30"/>
       <use x="63.623047" xlink:href="#DejaVuSans-2e"/>
       <use x="95.410156" xlink:href="#DejaVuSans-36"/>
      </g>
     </g>
    </g>
    <g id="xtick_5">
     <g id="line2d_5">
      <g>
       <use style="stroke:#000000;stroke-width:0.8;" x="804.6" xlink:href="#m3195e9aef9" y="448.56"/>
      </g>
     </g>
     <g id="text_5">
      <!-- 0.8 -->
      <g transform="translate(790.287188 469.237188)scale(0.18 -0.18)">
       <defs>
        <path d="M 2034 2216 
Q 1584 2216 1326 1975 
Q 1069 1734 1069 1313 
Q 1069 891 1326 650 
Q 1584 409 2034 409 
Q 2484 409 2743 651 
Q 3003 894 3003 1313 
Q 3003 1734 2745 1975 
Q 2488 2216 2034 2216 
z
M 1403 2484 
Q 997 2584 770 2862 
Q 544 3141 544 3541 
Q 544 4100 942 4425 
Q 1341 4750 2034 4750 
Q 2731 4750 3128 4425 
Q 3525 4100 3525 3541 
Q 3525 3141 3298 2862 
Q 3072 2584 2669 2484 
Q 3125 2378 3379 2068 
Q 3634 1759 3634 1313 
Q 3634 634 3220 271 
Q 2806 -91 2034 -91 
Q 1263 -91 848 271 
Q 434 634 434 1313 
Q 434 1759 690 2068 
Q 947 2378 1403 2484 
z
M 1172 3481 
Q 1172 3119 1398 2916 
Q 1625 2713 2034 2713 
Q 2441 2713 2670 2916 
Q 2900 3119 2900 3481 
Q 2900 3844 2670 4047 
Q 2441 4250 2034 4250 
Q 1625 4250 1398 4047 
Q 1172 3844 1172 3481 
z
" id="DejaVuSans-38" transform="scale(0.015625)"/>
       </defs>
       <use xlink:href="#DejaVuSans-30"/>
       <use x="63.623047" xlink:href="#DejaVuSans-2e"/>
       <use x="95.410156" xlink:href="#DejaVuSans-38"/>
      </g>
     </g>
    </g>
    <g id="xtick_6">
     <g id="line2d_6">
      <g>
       <use style="stroke:#000000;stroke-width:0.8;" x="972" xlink:href="#m3195e9aef9" y="448.56"/>
      </g>
     </g>
     <g id="text_6">
      <!-- 1.0 -->
      <g transform="translate(957.687188 469.237188)scale(0.18 -0.18)">
       <defs>
        <path d="M 794 531 
L 1825 531 
L 1825 4091 
L 703 3866 
L 703 4441 
L 1819 4666 
L 2450 4666 
L 2450 531 
L 3481 531 
L 3481 0 
L 794 0 
L 794 531 
z
" id="DejaVuSans-31" transform="scale(0.015625)"/>
       </defs>
       <use xlink:href="#DejaVuSans-31"/>
       <use x="63.623047" xlink:href="#DejaVuSans-2e"/>
       <use x="95.410156" xlink:href="#DejaVuSans-30"/>
      </g>
     </g>
    </g>
    <g id="text_7">
     <!-- $FPR_{Fair}$ -->
     <g transform="translate(518.08 493.697187)scale(0.22 -0.22)">
      <defs>
       <path d="M 1081 4666 
L 3756 4666 
L 3653 4134 
L 1606 4134 
L 1338 2759 
L 3188 2759 
L 3084 2228 
L 1234 2228 
L 800 0 
L 172 0 
L 1081 4666 
z
" id="DejaVuSans-Oblique-46" transform="scale(0.015625)"/>
       <path d="M 1081 4666 
L 2541 4666 
Q 3178 4666 3512 4369 
Q 3847 4072 3847 3500 
Q 3847 2731 3353 2303 
Q 2859 1875 1966 1875 
L 1172 1875 
L 806 0 
L 172 0 
L 1081 4666 
z
M 1613 4147 
L 1275 2394 
L 2069 2394 
Q 2606 2394 2893 2669 
Q 3181 2944 3181 3456 
Q 3181 3784 2986 3965 
Q 2791 4147 2438 4147 
L 1613 4147 
z
" id="DejaVuSans-Oblique-50" transform="scale(0.015625)"/>
       <path d="M 1613 4147 
L 1294 2491 
L 2106 2491 
Q 2584 2491 2879 2755 
Q 3175 3019 3175 3444 
Q 3175 3784 2976 3965 
Q 2778 4147 2406 4147 
L 1613 4147 
z
M 2772 2241 
Q 2972 2194 3105 2009 
Q 3238 1825 3413 1275 
L 3809 0 
L 3144 0 
L 2778 1197 
Q 2638 1659 2453 1815 
Q 2269 1972 1888 1972 
L 1191 1972 
L 806 0 
L 172 0 
L 1081 4666 
L 2503 4666 
Q 3150 4666 3495 4373 
Q 3841 4081 3841 3531 
Q 3841 3044 3547 2687 
Q 3253 2331 2772 2241 
z
" id="DejaVuSans-Oblique-52" transform="scale(0.015625)"/>
       <path d="M 3438 1997 
L 3047 0 
L 2472 0 
L 2578 531 
Q 2325 219 2001 64 
Q 1678 -91 1281 -91 
Q 834 -91 548 182 
Q 263 456 263 884 
Q 263 1497 752 1853 
Q 1241 2209 2100 2209 
L 2900 2209 
L 2931 2363 
Q 2938 2388 2941 2417 
Q 2944 2447 2944 2509 
Q 2944 2788 2717 2942 
Q 2491 3097 2081 3097 
Q 1800 3097 1504 3025 
Q 1209 2953 897 2809 
L 997 3341 
Q 1322 3463 1633 3523 
Q 1944 3584 2234 3584 
Q 2853 3584 3176 3315 
Q 3500 3047 3500 2534 
Q 3500 2431 3484 2292 
Q 3469 2153 3438 1997 
z
M 2816 1759 
L 2241 1759 
Q 1534 1759 1195 1570 
Q 856 1381 856 984 
Q 856 709 1029 553 
Q 1203 397 1509 397 
Q 1978 397 2328 733 
Q 2678 1069 2791 1631 
L 2816 1759 
z
" id="DejaVuSans-Oblique-61" transform="scale(0.015625)"/>
       <path d="M 1172 4863 
L 1747 4863 
L 1606 4134 
L 1031 4134 
L 1172 4863 
z
M 909 3500 
L 1484 3500 
L 800 0 
L 225 0 
L 909 3500 
z
" id="DejaVuSans-Oblique-69" transform="scale(0.015625)"/>
       <path d="M 2853 2969 
Q 2766 3016 2653 3041 
Q 2541 3066 2413 3066 
Q 1953 3066 1609 2717 
Q 1266 2369 1153 1784 
L 800 0 
L 225 0 
L 909 3500 
L 1484 3500 
L 1375 2956 
Q 1603 3259 1920 3421 
Q 2238 3584 2597 3584 
Q 2691 3584 2781 3573 
Q 2872 3563 2963 3538 
L 2853 2969 
z
" id="DejaVuSans-Oblique-72" transform="scale(0.015625)"/>
      </defs>
      <use transform="translate(0 0.09375)" xlink:href="#DejaVuSans-Oblique-46"/>
      <use transform="translate(57.519531 0.09375)" xlink:href="#DejaVuSans-Oblique-50"/>
      <use transform="translate(117.822266 0.09375)" xlink:href="#DejaVuSans-Oblique-52"/>
      <use transform="translate(187.304688 -16.3125)scale(0.7)" xlink:href="#DejaVuSans-Oblique-46"/>
      <use transform="translate(227.568359 -16.3125)scale(0.7)" xlink:href="#DejaVuSans-Oblique-61"/>
      <use transform="translate(270.463867 -16.3125)scale(0.7)" xlink:href="#DejaVuSans-Oblique-69"/>
      <use transform="translate(289.912109 -16.3125)scale(0.7)" xlink:href="#DejaVuSans-Oblique-72"/>
     </g>
    </g>
   </g>
   <g id="matplotlib.axis_2">
    <g id="ytick_1">
     <g id="line2d_7">
      <defs>
       <path d="M 0 0 
L -3.5 0 
" id="m94375addf7" style="stroke:#000000;stroke-width:0.8;"/>
      </defs>
      <g>
       <use style="stroke:#000000;stroke-width:0.8;" x="135" xlink:href="#m94375addf7" y="448.56"/>
      </g>
     </g>
     <g id="text_8">
      <!-- 0.0 -->
      <g transform="translate(99.374375 455.398594)scale(0.18 -0.18)">
       <use xlink:href="#DejaVuSans-30"/>
       <use x="63.623047" xlink:href="#DejaVuSans-2e"/>
       <use x="95.410156" xlink:href="#DejaVuSans-30"/>
      </g>
     </g>
    </g>
    <g id="ytick_2">
     <g id="line2d_8">
      <g>
       <use style="stroke:#000000;stroke-width:0.8;" x="135" xlink:href="#m94375addf7" y="370.944"/>
      </g>
     </g>
     <g id="text_9">
      <!-- 0.2 -->
      <g transform="translate(99.374375 377.782594)scale(0.18 -0.18)">
       <use xlink:href="#DejaVuSans-30"/>
       <use x="63.623047" xlink:href="#DejaVuSans-2e"/>
       <use x="95.410156" xlink:href="#DejaVuSans-32"/>
      </g>
     </g>
    </g>
    <g id="ytick_3">
     <g id="line2d_9">
      <g>
       <use style="stroke:#000000;stroke-width:0.8;" x="135" xlink:href="#m94375addf7" y="293.328"/>
      </g>
     </g>
     <g id="text_10">
      <!-- 0.4 -->
      <g transform="translate(99.374375 300.166594)scale(0.18 -0.18)">
       <use xlink:href="#DejaVuSans-30"/>
       <use x="63.623047" xlink:href="#DejaVuSans-2e"/>
       <use x="95.410156" xlink:href="#DejaVuSans-34"/>
      </g>
     </g>
    </g>
    <g id="ytick_4">
     <g id="line2d_10">
      <g>
       <use style="stroke:#000000;stroke-width:0.8;" x="135" xlink:href="#m94375addf7" y="215.712"/>
      </g>
     </g>
     <g id="text_11">
      <!-- 0.6 -->
      <g transform="translate(99.374375 222.550594)scale(0.18 -0.18)">
       <use xlink:href="#DejaVuSans-30"/>
       <use x="63.623047" xlink:href="#DejaVuSans-2e"/>
       <use x="95.410156" xlink:href="#DejaVuSans-36"/>
      </g>
     </g>
    </g>
    <g id="ytick_5">
     <g id="line2d_11">
      <g>
       <use style="stroke:#000000;stroke-width:0.8;" x="135" xlink:href="#m94375addf7" y="138.096"/>
      </g>
     </g>
     <g id="text_12">
      <!-- 0.8 -->
      <g transform="translate(99.374375 144.934594)scale(0.18 -0.18)">
       <use xlink:href="#DejaVuSans-30"/>
       <use x="63.623047" xlink:href="#DejaVuSans-2e"/>
       <use x="95.410156" xlink:href="#DejaVuSans-38"/>
      </g>
     </g>
    </g>
    <g id="ytick_6">
     <g id="line2d_12">
      <g>
       <use style="stroke:#000000;stroke-width:0.8;" x="135" xlink:href="#m94375addf7" y="60.48"/>
      </g>
     </g>
     <g id="text_13">
      <!-- 1.0 -->
      <g transform="translate(99.374375 67.318594)scale(0.18 -0.18)">
       <use xlink:href="#DejaVuSans-31"/>
       <use x="63.623047" xlink:href="#DejaVuSans-2e"/>
       <use x="95.410156" xlink:href="#DejaVuSans-30"/>
      </g>
     </g>
    </g>
    <g id="text_14">
     <!-- $TPR_{Fair}$ -->
     <g transform="translate(90.799062 290.27)rotate(-90)scale(0.22 -0.22)">
      <defs>
       <path d="M 378 4666 
L 4325 4666 
L 4225 4134 
L 2559 4134 
L 1759 0 
L 1125 0 
L 1925 4134 
L 275 4134 
L 378 4666 
z
" id="DejaVuSans-Oblique-54" transform="scale(0.015625)"/>
      </defs>
      <use transform="translate(0 0.09375)" xlink:href="#DejaVuSans-Oblique-54"/>
      <use transform="translate(61.083984 0.09375)" xlink:href="#DejaVuSans-Oblique-50"/>
      <use transform="translate(121.386719 0.09375)" xlink:href="#DejaVuSans-Oblique-52"/>
      <use transform="translate(190.869141 -16.3125)scale(0.7)" xlink:href="#DejaVuSans-Oblique-46"/>
      <use transform="translate(231.132812 -16.3125)scale(0.7)" xlink:href="#DejaVuSans-Oblique-61"/>
      <use transform="translate(274.02832 -16.3125)scale(0.7)" xlink:href="#DejaVuSans-Oblique-69"/>
      <use transform="translate(293.476562 -16.3125)scale(0.7)" xlink:href="#DejaVuSans-Oblique-72"/>
     </g>
    </g>
   </g>
   <g id="line2d_13">
    <path clip-path="url(#pc66443a816)" d="M 135 448.56 
L 972 60.48 
" style="fill:none;stroke:#ff0000;stroke-dasharray:5.55,2.4;stroke-dashoffset:0;stroke-width:1.5;"/>
   </g>
   <g id="line2d_14">
    <path clip-path="url(#pc66443a816)" d="M 972 60.48 
L 536.485974 279.142781 
L 399.395691 339.792846 
L 333.134407 368.06041 
L 293.890512 384.451252 
L 268.269249 395.003512 
L 250.161336 402.470053 
L 236.63265 408.019436 
L 226.191404 412.30296 
L 217.784044 415.669998 
L 210.851512 418.406036 
L 205.160553 420.586702 
L 200.263721 422.366193 
L 196.012618 423.885857 
L 192.316662 425.207324 
L 189.04177 426.352599 
L 186.147307 427.40811 
L 183.553042 428.320732 
L 181.144462 429.123969 
L 178.95776 429.854849 
L 177.007343 430.532631 
L 175.182295 431.14307 
L 173.52825 431.714958 
L 171.986542 432.257939 
L 170.52832 432.768133 
L 169.173445 433.237402 
L 167.922321 433.691797 
L 166.702377 434.103967 
L 165.577944 434.501198 
L 164.527099 434.887564 
L 163.535141 435.254982 
L 162.609113 435.588538 
L 161.739325 435.919357 
L 160.905536 436.217579 
L 160.098488 436.514939 
L 159.3426 436.815381 
L 158.602247 437.097376 
L 157.911726 437.376148 
L 157.256262 437.648016 
L 156.644716 437.894578 
L 156.044782 438.130383 
L 155.457254 438.37119 
L 154.910944 438.607934 
L 154.384186 438.838811 
L 153.886376 439.055059 
L 153.413575 439.262595 
L 152.956358 439.466764 
L 152.519662 439.660757 
L 152.08078 439.855031 
L 151.669007 440.036562 
L 151.273697 440.217209 
L 150.891249 440.38882 
L 150.531227 440.556116 
L 150.168549 440.717411 
L 149.827075 440.879745 
L 149.497787 441.032151 
L 149.168029 441.179988 
L 148.864992 441.325348 
L 148.573955 441.454097 
L 148.299457 441.578675 
L 148.027074 441.700196 
L 147.758201 441.815211 
L 147.496131 441.931018 
L 147.234932 442.047739 
L 146.998204 442.159574 
L 146.772183 442.266733 
L 146.541878 442.377995 
L 146.318167 442.481216 
L 146.104832 442.5792 
L 145.890411 442.676507 
L 145.689951 442.772072 
L 145.482087 442.864759 
L 145.294321 442.956442 
L 145.105826 443.044929 
L 144.924084 443.133594 
L 144.748313 443.225778 
L 144.575004 443.312247 
L 144.400467 443.401206 
L 144.236536 443.480136 
L 144.07382 443.570349 
L 143.920299 443.648477 
L 143.768574 443.72782 
L 143.608622 443.802678 
L 143.46401 443.884331 
L 143.320625 443.958479 
L 143.178054 444.028225 
L 143.03295 444.105347 
L 142.882916 444.176176 
L 142.744561 444.244875 
L 142.6091 444.315715 
L 142.477953 444.394636 
L 142.345112 444.469323 
L 142.21424 444.541299 
L 142.099038 444.61217 
L 141.979172 444.689466 
L 141.863819 444.763482 
L 141.754757 444.838203 
L 141.638203 444.909793 
L 141.535896 444.99065 
L 141.43021 445.06391 
L 141.315942 445.142657 
" style="fill:none;stroke:#1f77b4;stroke-linecap:square;stroke-width:1.5;"/>
   </g>
   <g id="line2d_15">
    <path clip-path="url(#pc66443a816)" d="M 972 60.48 
L 917.778057 90.749682 
L 870.041074 116.878406 
L 828.692582 139.157061 
L 792.585006 158.436154 
L 760.792492 175.157953 
L 732.748098 189.913025 
L 707.655572 203.186388 
L 685.353827 214.733082 
L 664.809681 224.983905 
L 645.924782 234.272429 
L 628.879702 242.280145 
L 613.163346 249.279146 
L 598.371981 255.587464 
L 584.614776 261.381602 
L 571.618492 266.674245 
L 559.422175 271.703625 
L 547.817197 276.322008 
L 536.70007 280.458561 
L 526.187247 284.367659 
L 516.189016 288.098564 
L 506.659298 291.658499 
L 497.436832 295.005851 
L 488.811061 298.220712 
L 480.226597 301.40233 
L 472.070869 304.394447 
L 464.228157 307.271605 
L 456.55548 309.951755 
L 449.149945 312.601045 
L 442.060361 315.219331 
L 435.262764 317.766943 
L 428.697437 320.107148 
L 422.422582 322.439925 
L 416.216132 324.648507 
L 410.313787 326.876833 
L 404.551936 329.056792 
L 398.890347 331.186479 
L 393.435193 333.323495 
L 388.17435 335.423364 
L 383.211257 337.403002 
L 378.216933 339.311082 
L 373.324552 341.247319 
L 368.668159 343.179288 
L 364.10901 345.067248 
L 359.696232 346.882045 
L 355.354906 348.638553 
L 351.152216 350.335353 
L 347.052561 351.973591 
L 343.104287 353.571872 
L 339.230782 355.153289 
L 335.498077 356.680102 
L 331.820942 358.186662 
L 328.29687 359.638792 
L 324.810328 361.050267 
L 321.42776 362.443655 
L 318.110963 363.810602 
L 314.847793 365.120988 
L 311.678474 366.405581 
L 308.540561 367.624275 
L 305.524757 368.774821 
L 302.594415 369.919981 
L 299.711968 371.040254 
L 296.886155 372.129264 
L 294.142157 373.248244 
L 291.444161 374.336492 
L 288.805331 375.407987 
L 286.260825 376.447573 
L 283.749409 377.4635 
L 281.263309 378.456176 
L 278.85695 379.438162 
L 276.45184 380.410195 
L 274.108687 381.355154 
L 271.791799 382.292793 
L 269.543266 383.208192 
L 267.354545 384.109719 
L 265.213718 384.989703 
L 263.104997 385.875533 
L 261.036689 386.751108 
L 259.037155 387.622745 
L 257.019187 388.501375 
L 255.048964 389.378499 
L 253.15945 390.224567 
L 251.274292 391.053845 
L 249.433238 391.876509 
L 247.62387 392.652981 
L 245.86198 393.401291 
L 244.098268 394.175544 
L 242.326303 394.929911 
L 240.638781 395.668667 
L 239.004892 396.42228 
L 237.36364 397.159437 
L 235.747919 397.903811 
L 234.194826 398.634351 
L 232.662417 399.338151 
L 231.120663 400.066758 
L 229.594106 400.799294 
L 228.07863 401.536228 
L 226.596104 402.307883 
L 225.150881 403.059857 
L 223.75879 403.815668 
L 222.342766 404.564687 
" style="fill:none;stroke:#ff7f0e;stroke-linecap:square;stroke-width:1.5;"/>
   </g>
   <g id="line2d_16">
    <path clip-path="url(#pc66443a816)" d="M 972 60.48 
L 950.597683 72.24538 
L 930.213601 83.25818 
L 911.040342 93.359915 
L 892.611079 102.822851 
L 875.344592 111.504662 
L 858.915586 119.568579 
L 843.174106 127.167014 
L 828.402482 134.300718 
L 814.116691 140.83501 
L 800.586622 146.907583 
L 787.621136 152.502843 
L 775.192199 157.687367 
L 763.235731 162.552236 
L 751.761007 167.150804 
L 740.600224 171.474626 
L 729.939291 175.721656 
L 719.551225 179.623324 
L 709.346971 183.290173 
L 699.503979 186.773171 
L 689.975242 190.200012 
L 680.679334 193.433709 
L 671.556363 196.528767 
L 662.756966 199.592979 
L 653.888888 202.587816 
L 645.374974 205.51796 
L 637.027846 208.414484 
L 628.780484 211.11376 
L 620.730968 213.77126 
L 612.901407 216.488587 
L 605.238939 219.12803 
L 597.756507 221.599192 
L 590.504228 224.087824 
L 583.32527 226.542631 
L 576.345619 228.999647 
L 569.402267 231.445285 
L 562.561715 233.935368 
L 555.856027 236.453175 
L 549.301003 238.934638 
L 543.034171 241.279693 
L 536.694986 243.612877 
L 530.512542 245.978222 
L 524.504833 248.349033 
L 518.565291 250.701601 
L 512.850358 252.932425 
L 507.120997 255.124345 
L 501.526742 257.279647 
L 496.045314 259.396074 
L 490.738478 261.441645 
L 485.439131 263.481344 
L 480.314801 265.525226 
L 475.244095 267.521651 
L 470.318631 269.508614 
L 465.406445 271.413109 
L 460.557021 273.333541 
L 455.821228 275.228374 
L 451.173502 277.066436 
L 446.588402 278.862468 
L 442.045406 280.604377 
L 437.647438 282.284167 
L 433.326477 283.949635 
L 429.028668 285.561062 
L 424.765686 287.134486 
L 420.622924 288.767352 
L 416.538153 290.391711 
L 412.519755 291.977042 
L 408.591873 293.510357 
L 404.706224 294.984696 
L 400.880053 296.471557 
L 397.152033 297.947815 
L 393.465257 299.393211 
L 389.81191 300.838945 
L 386.178593 302.243955 
L 382.644394 303.644372 
L 379.214302 304.998545 
L 375.798441 306.317057 
L 372.42936 307.646359 
L 369.121436 308.969818 
L 365.920247 310.271849 
L 362.677795 311.594479 
L 359.520434 312.898949 
L 356.44441 314.161097 
L 353.383635 315.426398 
L 350.378868 316.647677 
L 347.383746 317.839223 
L 344.437138 319.012322 
L 341.534474 320.225682 
L 338.647703 321.390155 
L 335.843592 322.536528 
L 333.081511 323.721868 
L 330.347118 324.850146 
L 327.626472 326.013541 
L 324.994301 327.148235 
L 322.370046 328.237979 
L 319.735829 329.402811 
L 317.152198 330.553906 
L 314.581253 331.696727 
L 312.053743 332.891596 
L 309.567027 334.051556 
L 307.119609 335.229119 
L 304.674251 336.415516 
" style="fill:none;stroke:#2ca02c;stroke-linecap:square;stroke-width:1.5;"/>
   </g>
   <g id="line2d_17">
    <path clip-path="url(#pc66443a816)" d="M 972 60.48 
L 946.580269 74.886222 
L 922.770357 88.143432 
L 900.805191 100.393745 
L 880.424596 111.64808 
L 861.683339 122.007229 
L 844.313208 131.631947 
L 828.077305 140.611117 
L 813.084527 148.944199 
L 798.896866 156.68548 
L 785.431481 163.906185 
L 772.843154 170.410781 
L 760.890067 176.25682 
L 749.407935 181.650337 
L 738.409208 186.721335 
L 727.771677 191.455141 
L 717.569715 196.049297 
L 707.675449 200.340476 
L 698.005955 204.274332 
L 688.650517 208.014807 
L 679.623672 211.628798 
L 670.821386 215.109147 
L 662.240427 218.445609 
L 653.998444 221.71812 
L 645.737251 224.909825 
L 637.726118 227.998544 
L 629.8351 231.043701 
L 622.050198 233.907973 
L 614.420028 236.706923 
L 607.033446 239.538319 
L 599.810058 242.30074 
L 592.800398 244.879379 
L 585.981317 247.500008 
L 579.196139 250.007158 
L 572.631044 252.522175 
L 566.098458 255.021137 
L 559.652788 257.510572 
L 553.338177 260.02201 
L 547.169119 262.478606 
L 541.231941 264.825897 
L 535.266627 267.141131 
L 529.41978 269.491932 
L 523.73068 271.860436 
L 518.13688 274.181599 
L 512.659399 276.436197 
L 507.219079 278.630712 
L 501.913305 280.795783 
L 496.693263 282.909254 
L 491.605866 284.984527 
L 486.572673 287.029675 
L 481.7145 289.034912 
L 476.883335 291.016271 
L 472.215595 292.950714 
L 467.535798 294.853632 
L 462.935844 296.751825 
L 458.40618 298.628666 
L 453.98076 300.442321 
L 449.605095 302.179992 
L 445.253225 303.871191 
L 441.020038 305.479913 
L 436.886395 307.062552 
L 432.801978 308.604855 
L 428.745019 310.136674 
L 424.758666 311.695066 
L 420.833356 313.221804 
L 417.000858 314.729341 
L 413.246905 316.216735 
L 409.491453 317.663276 
L 405.79705 319.101322 
L 402.18871 320.529905 
L 398.637515 321.92072 
L 395.100001 323.312495 
L 391.576025 324.68513 
L 388.142064 326.034119 
L 384.78829 327.351765 
L 381.458349 328.648887 
L 378.174294 329.956738 
L 374.956859 331.248586 
L 371.825554 332.526205 
L 368.670296 333.80784 
L 365.589611 335.077055 
L 362.576826 336.316139 
L 359.574886 337.524644 
L 356.650766 338.725791 
L 353.747639 339.887417 
L 350.896056 341.033881 
L 348.071537 342.186324 
L 345.279381 343.318477 
L 342.549154 344.423827 
L 339.85716 345.553378 
L 337.20064 346.661003 
L 334.554661 347.797769 
L 331.989654 348.91632 
L 329.434477 350.006314 
L 326.857161 351.123592 
L 324.338355 352.235622 
L 321.825351 353.344904 
L 319.337768 354.487461 
L 316.889567 355.609624 
L 314.477917 356.737635 
L 312.079243 357.858383 
" style="fill:none;stroke:#d62728;stroke-linecap:square;stroke-width:1.5;"/>
   </g>
   <g id="line2d_18">
    <path clip-path="url(#pc66443a816)" d="M 972 60.48 
L 960.068291 67.555107 
L 948.510436 74.343149 
L 937.448404 80.728045 
L 926.800643 86.876995 
L 916.747059 92.702172 
L 907.111418 98.202509 
L 897.963752 103.418826 
L 889.228785 108.362201 
L 880.676735 113.100213 
L 872.413035 117.660959 
L 864.52776 121.816642 
L 856.850531 125.661033 
L 849.361812 129.254049 
L 842.071352 132.674433 
L 834.846531 135.976466 
L 827.879523 139.213906 
L 821.076156 142.262787 
L 814.242413 145.125461 
L 807.608681 147.861156 
L 801.017601 150.566698 
L 794.486212 153.179485 
L 788.102934 155.73682 
L 781.863834 158.259907 
L 775.503172 160.756684 
L 769.295855 163.205889 
L 763.11846 165.622901 
L 756.9558 167.903732 
L 750.852598 170.143658 
L 744.838558 172.472999 
L 738.863532 174.75345 
L 732.999518 176.920133 
L 727.256244 179.111022 
L 721.461542 181.243999 
L 715.785805 183.400291 
L 710.139635 185.604003 
L 704.498831 187.761459 
L 698.90405 190.017977 
L 693.353001 192.233313 
L 687.964811 194.346439 
L 682.495515 196.463328 
L 677.122724 198.642338 
L 671.804502 200.807072 
L 666.547565 202.944029 
L 661.348678 205.050337 
L 656.132882 207.142973 
L 651.010171 209.213011 
L 645.913765 211.273347 
L 640.938428 213.276091 
L 635.930685 215.289022 
L 631.069115 217.28495 
L 626.168137 219.285602 
L 621.394398 221.24194 
L 616.582488 223.171968 
L 611.818419 225.078665 
L 607.09878 226.970529 
L 602.464977 228.828303 
L 597.817409 230.635338 
L 593.156407 232.405781 
L 588.590342 234.102513 
L 584.073966 235.766136 
L 579.593974 237.392953 
L 575.136589 239.028805 
L 570.704807 240.703064 
L 566.318594 242.344196 
L 562.030466 244.008961 
L 557.758094 245.633726 
L 553.461015 247.22335 
L 549.213919 248.825402 
L 545.039626 250.423669 
L 540.918695 251.972282 
L 536.770811 253.54456 
L 532.618597 255.096761 
L 528.554347 256.621469 
L 524.543448 258.12332 
L 520.547969 259.605263 
L 516.540754 261.103879 
L 512.620913 262.600698 
L 508.773429 264.066212 
L 504.855257 265.528416 
L 501.018814 267.00016 
L 497.251688 268.451069 
L 493.502882 269.869919 
L 489.811982 271.276581 
L 486.146237 272.662717 
L 482.486389 274.045542 
L 478.868353 275.422454 
L 475.264124 276.786189 
L 471.713412 278.117938 
L 468.173355 279.469418 
L 464.690564 280.804676 
L 461.201915 282.168021 
L 457.81197 283.526004 
L 454.390434 284.84887 
L 450.937419 286.20092 
L 447.531092 287.547869 
L 444.128661 288.890655 
L 440.789322 290.258869 
L 437.455088 291.599262 
L 434.161139 292.959981 
L 430.869209 294.331214 
" style="fill:none;stroke:#9467bd;stroke-linecap:square;stroke-width:1.5;"/>
   </g>
   <g id="line2d_19">
    <path clip-path="url(#pc66443a816)" d="M 972 60.48 
L 963.571772 64.957672 
L 955.385969 69.444014 
L 947.711017 73.770617 
L 940.498786 78.004839 
L 933.731313 82.197925 
L 927.499945 86.260821 
L 921.638327 90.319042 
L 916.18223 94.145218 
L 910.978727 97.83353 
L 905.925 101.35649 
L 901.22736 104.627264 
L 896.768442 107.504433 
L 892.422481 110.21194 
L 888.167981 112.812638 
L 884.009256 115.346179 
L 880.010238 117.802799 
L 876.05326 120.142188 
L 872.12509 122.325799 
L 868.2602 124.448057 
L 864.455457 126.567689 
L 860.727705 128.674622 
L 857.06785 130.715917 
L 853.485155 132.702766 
L 849.810701 134.671614 
L 846.134648 136.588355 
L 842.466854 138.477226 
L 838.744235 140.286206 
L 834.985635 142.103135 
L 831.299501 143.995082 
L 827.616142 145.868679 
L 824.023757 147.591714 
L 820.469107 149.382692 
L 816.87101 151.113018 
L 813.361078 152.945381 
L 809.774233 154.766522 
L 806.16139 156.585203 
L 802.511976 158.456527 
L 798.879404 160.309288 
L 795.424763 162.128189 
L 791.911205 163.887151 
L 788.371825 165.754023 
L 784.839962 167.674271 
L 781.318683 169.552592 
L 777.79 171.440453 
L 774.224207 173.298016 
L 770.690976 175.153081 
L 767.171085 177.002222 
L 763.720593 178.824021 
L 760.232281 180.66345 
L 756.838507 182.477745 
L 753.417388 184.330513 
L 750.045455 186.127043 
L 746.606711 187.885573 
L 743.180788 189.65181 
L 739.725359 191.42703 
L 736.247836 193.154608 
L 732.752296 194.861651 
L 729.257931 196.523047 
L 725.794776 198.085163 
L 722.349909 199.654971 
L 718.944976 201.205597 
L 715.493266 202.787045 
L 712.041439 204.42448 
L 708.652299 206.058682 
L 705.281597 207.726089 
L 701.91195 209.366035 
L 698.498594 210.980747 
L 695.077456 212.609757 
L 691.686837 214.230615 
L 688.312222 215.849182 
L 684.87644 217.479937 
L 681.420798 219.114771 
L 677.970598 220.734989 
L 674.571922 222.321249 
L 671.163653 223.92663 
L 667.737513 225.540918 
L 664.368381 227.140578 
L 661.037691 228.734675 
L 657.601103 230.332998 
L 654.19959 231.940138 
L 650.803694 233.532598 
L 647.475108 235.107995 
L 644.178447 236.678314 
L 640.915597 238.213221 
L 637.613989 239.760624 
L 634.342547 241.320421 
L 631.038616 242.858989 
L 627.812669 244.374305 
L 624.553584 245.940602 
L 621.3041 247.474109 
L 618.035787 249.059299 
L 614.833965 250.642813 
L 611.637841 252.1936 
L 608.396501 253.785334 
L 605.172343 255.386534 
L 601.892326 256.982419 
L 598.601414 258.632234 
L 595.317377 260.271116 
L 592.049948 261.922115 
L 588.765787 263.600539 
" style="fill:none;stroke:#8c564b;stroke-linecap:square;stroke-width:1.5;"/>
   </g>
   <g id="line2d_20">
    <path clip-path="url(#pc66443a816)" d="M 972 60.48 
L 970.171822 61.234945 
L 968.396788 61.968801 
L 966.740325 62.748322 
L 965.217503 63.545039 
L 963.828637 64.361096 
L 962.597202 65.223658 
L 961.488293 66.047458 
L 960.450862 66.851547 
L 959.481046 67.669489 
L 958.54884 68.481711 
L 957.709628 69.227732 
L 956.954143 69.888928 
L 956.246005 70.505693 
L 955.561154 71.090615 
L 954.915471 71.700941 
L 954.309111 72.274406 
L 953.736044 72.81764 
L 953.16748 73.333735 
L 952.633253 73.862192 
L 952.122914 74.376511 
L 951.644511 74.884847 
L 951.154193 75.379133 
L 950.674334 75.885717 
L 950.17802 76.394086 
L 949.667754 76.886962 
L 949.156697 77.338153 
L 948.621793 77.796071 
L 948.09321 78.256101 
L 947.587403 78.764481 
L 947.066445 79.287157 
L 946.569671 79.768998 
L 946.089822 80.224752 
L 945.614814 80.676232 
L 945.137239 81.154313 
L 944.637656 81.653163 
L 944.111983 82.140729 
L 943.604338 82.673814 
L 943.120876 83.187334 
L 942.666651 83.705693 
L 942.224442 84.229159 
L 941.767921 84.808968 
L 941.288814 85.379305 
L 940.804131 85.960433 
L 940.28771 86.587575 
L 939.756446 87.161273 
L 939.25104 87.740923 
L 938.724508 88.368521 
L 938.233673 88.951715 
L 937.74657 89.579781 
L 937.274411 90.211363 
L 936.784447 90.856485 
L 936.317485 91.511513 
L 935.818946 92.154588 
L 935.345143 92.789816 
L 934.846012 93.454967 
L 934.33919 94.11394 
L 933.820464 94.779682 
L 933.288248 95.425426 
L 932.744896 96.018342 
L 932.221099 96.599995 
L 931.702299 97.208241 
L 931.199913 97.850274 
L 930.684937 98.507593 
L 930.15144 99.161723 
L 929.637211 99.820294 
L 929.115907 100.475048 
L 928.579732 101.131306 
L 928.035531 101.794093 
L 927.497923 102.509696 
L 926.936104 103.184766 
L 926.388248 103.924963 
L 925.81287 104.653897 
L 925.236814 105.374588 
L 924.678834 106.121331 
L 924.081861 106.897192 
L 923.474181 107.700288 
L 922.889313 108.508083 
L 922.305061 109.312285 
L 921.713002 110.117267 
L 921.115781 110.939154 
L 920.516444 111.78943 
L 919.942937 112.624707 
L 919.394089 113.478438 
L 918.855498 114.359878 
L 918.299539 115.247131 
L 917.758358 116.110458 
L 917.216387 116.975745 
L 916.658699 117.865968 
L 916.107886 118.793531 
L 915.557555 119.716779 
L 915.01098 120.707142 
L 914.477057 121.668055 
L 913.91655 122.640079 
L 913.347538 123.644168 
L 912.785669 124.675953 
L 912.200454 125.785007 
L 911.612689 126.901826 
L 911.020352 127.995371 
L 910.415648 129.113073 
L 909.826022 130.271735 
" style="fill:none;stroke:#e377c2;stroke-linecap:square;stroke-width:1.5;"/>
   </g>
   <g id="line2d_21">
    <path clip-path="url(#pc66443a816)" d="M 972 60.48 
L 971.9744 60.490154 
L 971.964456 60.496811 
L 971.940129 60.504533 
L 971.914186 60.515893 
L 971.882152 60.527318 
L 971.834957 60.540356 
L 971.76543 60.548288 
L 971.706047 60.556784 
L 971.632055 60.567907 
L 971.544308 60.584813 
L 971.465322 60.600731 
L 971.419649 60.610421 
L 971.385631 60.615954 
L 971.349467 60.625711 
L 971.305087 60.646049 
L 971.270459 60.664893 
L 971.250336 60.671129 
L 971.220119 60.679991 
L 971.201729 60.689437 
L 971.179863 60.699456 
L 971.167413 60.71428 
L 971.14585 60.728093 
L 971.126418 60.732874 
L 971.102849 60.740896 
L 971.084036 60.757014 
L 971.062707 60.762446 
L 971.046888 60.767322 
L 971.025882 60.770607 
L 971.015969 60.78694 
L 971.003598 60.802217 
L 970.990236 60.806117 
L 970.974057 60.812831 
L 970.960789 60.81786 
L 970.941517 60.822942 
L 970.920241 60.828608 
L 970.89549 60.839819 
L 970.867625 60.852203 
L 970.846008 60.859137 
L 970.834489 60.869959 
L 970.820943 60.876413 
L 970.805211 60.88678 
L 970.791124 60.891107 
L 970.769274 60.903805 
L 970.748124 60.908748 
L 970.723259 60.914297 
L 970.70417 60.920932 
L 970.696014 60.928706 
L 970.684629 60.935993 
L 970.670893 60.943811 
L 970.655386 60.956755 
L 970.638788 60.963534 
L 970.622513 60.967466 
L 970.596156 60.976571 
L 970.581224 60.985213 
L 970.567861 60.994465 
L 970.552634 61.004267 
L 970.542191 61.012442 
L 970.530131 61.021221 
L 970.513919 61.032302 
L 970.501679 61.042937 
L 970.488319 61.050676 
L 970.475175 61.061386 
L 970.459938 61.077559 
L 970.431173 61.089707 
L 970.405534 61.101444 
L 970.388358 61.107354 
L 970.371811 61.113876 
L 970.357472 61.121002 
L 970.340261 61.132312 
L 970.327261 61.152035 
L 970.306938 61.165923 
L 970.285627 61.176358 
L 970.27133 61.195275 
L 970.256051 61.211255 
L 970.233295 61.22246 
L 970.208783 61.245337 
L 970.187524 61.259169 
L 970.162738 61.276766 
L 970.146024 61.288324 
L 970.127289 61.300611 
L 970.091097 61.314058 
L 970.05975 61.327606 
L 970.044399 61.338864 
L 970.026593 61.345234 
L 969.999047 61.355413 
L 969.969304 61.372583 
L 969.946599 61.393755 
L 969.918604 61.406336 
L 969.884908 61.42416 
L 969.858222 61.457384 
L 969.837899 61.480244 
L 969.818041 61.494499 
L 969.796097 61.51386 
L 969.770372 61.530443 
L 969.743425 61.549751 
L 969.716827 61.562112 
L 969.690233 61.582589 
L 969.669271 61.605269 
L 969.641362 61.620471 
L 969.61777 61.641178 
" style="fill:none;stroke:#7f7f7f;stroke-linecap:square;stroke-width:1.5;"/>
   </g>
   <g id="line2d_22">
    <path clip-path="url(#pc66443a816)" d="M 972 60.48 
L 963.72924 65.530969 
L 955.642661 70.390944 
L 947.96033 75.071385 
L 940.679618 79.540693 
L 933.779414 83.829828 
L 927.223947 87.968577 
L 920.996524 91.964621 
L 915.124059 95.789765 
L 909.473958 99.47102 
L 904.00831 103.02179 
L 898.77795 106.32103 
L 893.744675 109.372288 
L 888.872747 112.246865 
L 884.11974 115.002481 
L 879.391928 117.614255 
L 874.775234 120.189933 
L 870.236384 122.62267 
L 865.71487 124.906159 
L 861.268339 127.106815 
L 856.88355 129.265242 
L 852.535194 131.39289 
L 848.221225 133.463695 
L 844.012954 135.510293 
L 839.691827 137.545982 
L 835.418387 139.540406 
L 831.146343 141.528474 
L 826.825835 143.426945 
L 822.513973 145.304033 
L 818.262408 147.222185 
L 814.037225 149.135094 
L 809.901182 150.938771 
L 805.796246 152.775776 
L 801.649512 154.578011 
L 797.552273 156.397148 
L 793.433264 158.23154 
L 789.281132 160.081045 
L 785.150876 161.97169 
L 781.047199 163.83874 
L 777.039652 165.634214 
L 772.980749 167.426325 
L 768.926288 169.281077 
L 764.902103 171.171875 
L 760.886211 173.056523 
L 756.861394 174.90072 
L 752.811472 176.709526 
L 748.800821 178.539155 
L 744.780684 180.347771 
L 740.835641 182.138557 
L 736.886654 183.940494 
L 733.016153 185.730326 
L 729.10258 187.512235 
L 725.286001 189.277502 
L 721.384954 191.025568 
L 717.481373 192.779283 
L 713.603916 194.536107 
L 709.748143 196.257813 
L 705.88463 197.905111 
L 702.000314 199.528088 
L 698.147589 201.086902 
L 694.360045 202.620267 
L 690.575849 204.128765 
L 686.765036 205.63191 
L 682.985096 207.158583 
L 679.208152 208.670898 
L 675.478489 210.165795 
L 671.77804 211.654155 
L 668.003769 213.116686 
L 664.246079 214.594687 
L 660.503751 216.076215 
L 656.813746 217.529246 
L 653.06858 218.999372 
L 649.299782 220.458622 
L 645.574291 221.904934 
L 641.885149 223.336042 
L 638.186065 224.759463 
L 634.465027 226.2078 
L 630.80495 227.65051 
L 627.178177 229.076159 
L 623.493984 230.528119 
L 619.849171 231.969647 
L 616.235405 233.404284 
L 612.643762 234.798862 
L 609.082776 236.18923 
L 605.54455 237.544608 
L 602.018752 238.909362 
L 598.498437 240.281018 
L 594.974309 241.620837 
L 591.481517 242.937964 
L 588.006529 244.28248 
L 584.538803 245.608862 
L 581.069893 246.964524 
L 577.657857 248.305998 
L 574.224935 249.640412 
L 570.756264 251.002667 
L 567.302122 252.379328 
L 563.831117 253.750999 
L 560.384558 255.16623 
L 556.932044 256.557437 
L 553.504108 257.946575 
L 550.075884 259.350928 
" style="fill:none;stroke:#bcbd22;stroke-linecap:square;stroke-width:1.5;"/>
   </g>
   <g id="line2d_23">
    <path clip-path="url(#pc66443a816)" d="M 972 60.48 
L 969.958165 61.146632 
L 967.972709 61.827875 
L 966.125979 62.522028 
L 964.453989 63.204069 
L 962.90883 63.9083 
L 961.564502 64.63563 
L 960.309551 65.388759 
L 959.17056 66.117953 
L 958.119997 66.861503 
L 957.137732 67.572109 
L 956.242801 68.257608 
L 955.472563 68.862359 
L 954.731722 69.414886 
L 954.017242 69.965944 
L 953.340428 70.490772 
L 952.678282 71.001081 
L 952.040609 71.474872 
L 951.416748 71.935626 
L 950.818453 72.390738 
L 950.243026 72.822508 
L 949.706773 73.282873 
L 949.156665 73.700511 
L 948.651414 74.12739 
L 948.120033 74.541838 
L 947.576601 74.963951 
L 947.019686 75.358598 
L 946.43181 75.753467 
L 945.834323 76.137722 
L 945.279415 76.562594 
L 944.712627 77.006919 
L 944.190593 77.403035 
L 943.692425 77.816642 
L 943.174285 78.229629 
L 942.658627 78.640633 
L 942.105265 79.075725 
L 941.530987 79.509025 
L 940.963665 79.948262 
L 940.414471 80.391765 
L 939.903051 80.843766 
L 939.405074 81.257808 
L 938.900119 81.728633 
L 938.374504 82.229279 
L 937.839902 82.733515 
L 937.271357 83.261055 
L 936.691289 83.741097 
L 936.119746 84.268031 
L 935.55028 84.787993 
L 934.990355 85.309932 
L 934.454038 85.839481 
L 933.92125 86.395491 
L 933.390311 86.939433 
L 932.880844 87.485444 
L 932.340983 88.062868 
L 931.806657 88.640708 
L 931.27224 89.220207 
L 930.724416 89.799501 
L 930.16955 90.372672 
L 929.602204 90.926739 
L 929.032424 91.435786 
L 928.485171 91.956959 
L 927.963006 92.494993 
L 927.427748 93.041772 
L 926.889314 93.611878 
L 926.344657 94.172665 
L 925.796022 94.73261 
L 925.265653 95.313593 
L 924.712024 95.894476 
L 924.140082 96.48962 
L 923.575533 97.090213 
L 922.974632 97.705628 
L 922.357178 98.321734 
L 921.74259 98.976521 
L 921.114589 99.609708 
L 920.519337 100.250957 
L 919.897222 100.928467 
L 919.280284 101.608758 
L 918.665857 102.292195 
L 918.043412 103.002809 
L 917.435252 103.737016 
L 916.803487 104.487082 
L 916.181119 105.264016 
L 915.569973 106.017286 
L 914.983031 106.788394 
L 914.41632 107.558511 
L 913.837273 108.331279 
L 913.268441 109.105093 
L 912.697775 109.883184 
L 912.114209 110.675549 
L 911.534755 111.49715 
L 910.940142 112.315853 
L 910.35953 113.169359 
L 909.795172 114.032431 
L 909.224836 114.899295 
L 908.631846 115.778488 
L 908.028983 116.688177 
L 907.404226 117.631613 
L 906.773605 118.625936 
L 906.134437 119.603225 
L 905.484009 120.60628 
L 904.843008 121.645281 
" style="fill:none;stroke:#17becf;stroke-linecap:square;stroke-width:1.5;"/>
   </g>
   <g id="patch_3">
    <path d="M 135 448.56 
L 135 60.48 
" style="fill:none;stroke:#000000;stroke-linecap:square;stroke-linejoin:miter;stroke-width:0.8;"/>
   </g>
   <g id="patch_4">
    <path d="M 972 448.56 
L 972 60.48 
" style="fill:none;stroke:#000000;stroke-linecap:square;stroke-linejoin:miter;stroke-width:0.8;"/>
   </g>
   <g id="patch_5">
    <path d="M 135 448.56 
L 972 448.56 
" style="fill:none;stroke:#000000;stroke-linecap:square;stroke-linejoin:miter;stroke-width:0.8;"/>
   </g>
   <g id="patch_6">
    <path d="M 135 60.48 
L 972 60.48 
" style="fill:none;stroke:#000000;stroke-linecap:square;stroke-linejoin:miter;stroke-width:0.8;"/>
   </g>
   <g id="legend_1">
    <g id="patch_7">
     <path d="M 147.6 339.08625 
L 256.730625 339.08625 
Q 260.330625 339.08625 260.330625 335.48625 
L 260.330625 73.08 
Q 260.330625 69.48 256.730625 69.48 
L 147.6 69.48 
Q 144 69.48 144 73.08 
L 144 335.48625 
Q 144 339.08625 147.6 339.08625 
z
" style="fill:#ffffff;opacity:0.8;stroke:#cccccc;stroke-linejoin:miter;"/>
    </g>
    <g id="line2d_24">
     <path d="M 151.2 84.057188 
L 187.2 84.057188 
" style="fill:none;stroke:#1f77b4;stroke-linecap:square;stroke-width:1.5;"/>
    </g>
    <g id="line2d_25"/>
    <g id="text_15">
     <!-- 0.001 -->
     <g transform="translate(201.6 90.357188)scale(0.18 -0.18)">
      <use xlink:href="#DejaVuSans-30"/>
      <use x="63.623047" xlink:href="#DejaVuSans-2e"/>
      <use x="95.410156" xlink:href="#DejaVuSans-30"/>
      <use x="159.033203" xlink:href="#DejaVuSans-30"/>
      <use x="222.65625" xlink:href="#DejaVuSans-31"/>
     </g>
    </g>
    <g id="line2d_26">
     <path d="M 151.2 110.477812 
L 187.2 110.477812 
" style="fill:none;stroke:#ff7f0e;stroke-linecap:square;stroke-width:1.5;"/>
    </g>
    <g id="line2d_27"/>
    <g id="text_16">
     <!-- 0.011 -->
     <g transform="translate(201.6 116.777812)scale(0.18 -0.18)">
      <use xlink:href="#DejaVuSans-30"/>
      <use x="63.623047" xlink:href="#DejaVuSans-2e"/>
      <use x="95.410156" xlink:href="#DejaVuSans-30"/>
      <use x="159.033203" xlink:href="#DejaVuSans-31"/>
      <use x="222.65625" xlink:href="#DejaVuSans-31"/>
     </g>
    </g>
    <g id="line2d_28">
     <path d="M 151.2 136.898438 
L 187.2 136.898438 
" style="fill:none;stroke:#2ca02c;stroke-linecap:square;stroke-width:1.5;"/>
    </g>
    <g id="line2d_29"/>
    <g id="text_17">
     <!-- 0.021 -->
     <g transform="translate(201.6 143.198438)scale(0.18 -0.18)">
      <use xlink:href="#DejaVuSans-30"/>
      <use x="63.623047" xlink:href="#DejaVuSans-2e"/>
      <use x="95.410156" xlink:href="#DejaVuSans-30"/>
      <use x="159.033203" xlink:href="#DejaVuSans-32"/>
      <use x="222.65625" xlink:href="#DejaVuSans-31"/>
     </g>
    </g>
    <g id="line2d_30">
     <path d="M 151.2 163.319062 
L 187.2 163.319062 
" style="fill:none;stroke:#d62728;stroke-linecap:square;stroke-width:1.5;"/>
    </g>
    <g id="line2d_31"/>
    <g id="text_18">
     <!-- 0.031 -->
     <g transform="translate(201.6 169.619062)scale(0.18 -0.18)">
      <defs>
       <path d="M 2597 2516 
Q 3050 2419 3304 2112 
Q 3559 1806 3559 1356 
Q 3559 666 3084 287 
Q 2609 -91 1734 -91 
Q 1441 -91 1130 -33 
Q 819 25 488 141 
L 488 750 
Q 750 597 1062 519 
Q 1375 441 1716 441 
Q 2309 441 2620 675 
Q 2931 909 2931 1356 
Q 2931 1769 2642 2001 
Q 2353 2234 1838 2234 
L 1294 2234 
L 1294 2753 
L 1863 2753 
Q 2328 2753 2575 2939 
Q 2822 3125 2822 3475 
Q 2822 3834 2567 4026 
Q 2313 4219 1838 4219 
Q 1578 4219 1281 4162 
Q 984 4106 628 3988 
L 628 4550 
Q 988 4650 1302 4700 
Q 1616 4750 1894 4750 
Q 2613 4750 3031 4423 
Q 3450 4097 3450 3541 
Q 3450 3153 3228 2886 
Q 3006 2619 2597 2516 
z
" id="DejaVuSans-33" transform="scale(0.015625)"/>
      </defs>
      <use xlink:href="#DejaVuSans-30"/>
      <use x="63.623047" xlink:href="#DejaVuSans-2e"/>
      <use x="95.410156" xlink:href="#DejaVuSans-30"/>
      <use x="159.033203" xlink:href="#DejaVuSans-33"/>
      <use x="222.65625" xlink:href="#DejaVuSans-31"/>
     </g>
    </g>
    <g id="line2d_32">
     <path d="M 151.2 189.739688 
L 187.2 189.739688 
" style="fill:none;stroke:#9467bd;stroke-linecap:square;stroke-width:1.5;"/>
    </g>
    <g id="line2d_33"/>
    <g id="text_19">
     <!-- 0.041 -->
     <g transform="translate(201.6 196.039688)scale(0.18 -0.18)">
      <use xlink:href="#DejaVuSans-30"/>
      <use x="63.623047" xlink:href="#DejaVuSans-2e"/>
      <use x="95.410156" xlink:href="#DejaVuSans-30"/>
      <use x="159.033203" xlink:href="#DejaVuSans-34"/>
      <use x="222.65625" xlink:href="#DejaVuSans-31"/>
     </g>
    </g>
    <g id="line2d_34">
     <path d="M 151.2 216.160312 
L 187.2 216.160312 
" style="fill:none;stroke:#8c564b;stroke-linecap:square;stroke-width:1.5;"/>
    </g>
    <g id="line2d_35"/>
    <g id="text_20">
     <!-- 0.051 -->
     <g transform="translate(201.6 222.460312)scale(0.18 -0.18)">
      <defs>
       <path d="M 691 4666 
L 3169 4666 
L 3169 4134 
L 1269 4134 
L 1269 2991 
Q 1406 3038 1543 3061 
Q 1681 3084 1819 3084 
Q 2600 3084 3056 2656 
Q 3513 2228 3513 1497 
Q 3513 744 3044 326 
Q 2575 -91 1722 -91 
Q 1428 -91 1123 -41 
Q 819 9 494 109 
L 494 744 
Q 775 591 1075 516 
Q 1375 441 1709 441 
Q 2250 441 2565 725 
Q 2881 1009 2881 1497 
Q 2881 1984 2565 2268 
Q 2250 2553 1709 2553 
Q 1456 2553 1204 2497 
Q 953 2441 691 2322 
L 691 4666 
z
" id="DejaVuSans-35" transform="scale(0.015625)"/>
      </defs>
      <use xlink:href="#DejaVuSans-30"/>
      <use x="63.623047" xlink:href="#DejaVuSans-2e"/>
      <use x="95.410156" xlink:href="#DejaVuSans-30"/>
      <use x="159.033203" xlink:href="#DejaVuSans-35"/>
      <use x="222.65625" xlink:href="#DejaVuSans-31"/>
     </g>
    </g>
    <g id="line2d_36">
     <path d="M 151.2 242.580937 
L 187.2 242.580937 
" style="fill:none;stroke:#e377c2;stroke-linecap:square;stroke-width:1.5;"/>
    </g>
    <g id="line2d_37"/>
    <g id="text_21">
     <!-- 0.061 -->
     <g transform="translate(201.6 248.880937)scale(0.18 -0.18)">
      <use xlink:href="#DejaVuSans-30"/>
      <use x="63.623047" xlink:href="#DejaVuSans-2e"/>
      <use x="95.410156" xlink:href="#DejaVuSans-30"/>
      <use x="159.033203" xlink:href="#DejaVuSans-36"/>
      <use x="222.65625" xlink:href="#DejaVuSans-31"/>
     </g>
    </g>
    <g id="line2d_38">
     <path d="M 151.2 269.001562 
L 187.2 269.001562 
" style="fill:none;stroke:#7f7f7f;stroke-linecap:square;stroke-width:1.5;"/>
    </g>
    <g id="line2d_39"/>
    <g id="text_22">
     <!-- 0.071 -->
     <g transform="translate(201.6 275.301562)scale(0.18 -0.18)">
      <defs>
       <path d="M 525 4666 
L 3525 4666 
L 3525 4397 
L 1831 0 
L 1172 0 
L 2766 4134 
L 525 4134 
L 525 4666 
z
" id="DejaVuSans-37" transform="scale(0.015625)"/>
      </defs>
      <use xlink:href="#DejaVuSans-30"/>
      <use x="63.623047" xlink:href="#DejaVuSans-2e"/>
      <use x="95.410156" xlink:href="#DejaVuSans-30"/>
      <use x="159.033203" xlink:href="#DejaVuSans-37"/>
      <use x="222.65625" xlink:href="#DejaVuSans-31"/>
     </g>
    </g>
    <g id="line2d_40">
     <path d="M 151.2 295.422188 
L 187.2 295.422188 
" style="fill:none;stroke:#bcbd22;stroke-linecap:square;stroke-width:1.5;"/>
    </g>
    <g id="line2d_41"/>
    <g id="text_23">
     <!-- 0.081 -->
     <g transform="translate(201.6 301.722188)scale(0.18 -0.18)">
      <use xlink:href="#DejaVuSans-30"/>
      <use x="63.623047" xlink:href="#DejaVuSans-2e"/>
      <use x="95.410156" xlink:href="#DejaVuSans-30"/>
      <use x="159.033203" xlink:href="#DejaVuSans-38"/>
      <use x="222.65625" xlink:href="#DejaVuSans-31"/>
     </g>
    </g>
    <g id="line2d_42">
     <path d="M 151.2 321.842812 
L 187.2 321.842812 
" style="fill:none;stroke:#17becf;stroke-linecap:square;stroke-width:1.5;"/>
    </g>
    <g id="line2d_43"/>
    <g id="text_24">
     <!-- 0.091 -->
     <g transform="translate(201.6 328.142812)scale(0.18 -0.18)">
      <defs>
       <path d="M 703 97 
L 703 672 
Q 941 559 1184 500 
Q 1428 441 1663 441 
Q 2288 441 2617 861 
Q 2947 1281 2994 2138 
Q 2813 1869 2534 1725 
Q 2256 1581 1919 1581 
Q 1219 1581 811 2004 
Q 403 2428 403 3163 
Q 403 3881 828 4315 
Q 1253 4750 1959 4750 
Q 2769 4750 3195 4129 
Q 3622 3509 3622 2328 
Q 3622 1225 3098 567 
Q 2575 -91 1691 -91 
Q 1453 -91 1209 -44 
Q 966 3 703 97 
z
M 1959 2075 
Q 2384 2075 2632 2365 
Q 2881 2656 2881 3163 
Q 2881 3666 2632 3958 
Q 2384 4250 1959 4250 
Q 1534 4250 1286 3958 
Q 1038 3666 1038 3163 
Q 1038 2656 1286 2365 
Q 1534 2075 1959 2075 
z
" id="DejaVuSans-39" transform="scale(0.015625)"/>
      </defs>
      <use xlink:href="#DejaVuSans-30"/>
      <use x="63.623047" xlink:href="#DejaVuSans-2e"/>
      <use x="95.410156" xlink:href="#DejaVuSans-30"/>
      <use x="159.033203" xlink:href="#DejaVuSans-39"/>
      <use x="222.65625" xlink:href="#DejaVuSans-31"/>
     </g>
    </g>
   </g>
  </g>
 </g>
 <defs>
  <clipPath id="pc66443a816">
   <rect height="388.08" width="837" x="135" y="60.48"/>
  </clipPath>
 </defs>
</svg>
