<?xml version="1.0" encoding="utf-8" standalone="no"?>
<!DOCTYPE svg PUBLIC "-//W3C//DTD SVG 1.1//EN"
  "http://www.w3.org/Graphics/SVG/1.1/DTD/svg11.dtd">
<svg height="504pt" version="1.1" viewBox="0 0 1080 504" width="1080pt" xmlns="http://www.w3.org/2000/svg" xmlns:xlink="http://www.w3.org/1999/xlink">
 <metadata>
  <rdf:RDF xmlns:cc="http://creativecommons.org/ns#" xmlns:dc="http://purl.org/dc/elements/1.1/" xmlns:rdf="http://www.w3.org/1999/02/22-rdf-syntax-ns#">
   <cc:Work>
    <dc:type rdf:resource="http://purl.org/dc/dcmitype/StillImage"/>
    <dc:date>2022-01-07T13:24:42.996895</dc:date>
    <dc:format>image/svg+xml</dc:format>
    <dc:creator>
     <cc:Agent>
      <dc:title>Matplotlib v3.4.3, https://matplotlib.org/</dc:title>
     </cc:Agent>
    </dc:creator>
   </cc:Work>
  </rdf:RDF>
 </metadata>
 <defs>
  <style type="text/css">*{stroke-linecap:butt;stroke-linejoin:round;}</style>
 </defs>
 <g id="figure_1">
  <g id="patch_1">
   <path d="M 0 504 
L 1080 504 
L 1080 0 
L 0 0 
z
" style="fill:#ffffff;"/>
  </g>
  <g id="axes_1">
   <g id="patch_2">
    <path d="M 135 448.56 
L 972 448.56 
L 972 60.48 
L 135 60.48 
z
" style="fill:#ffffff;"/>
   </g>
   <g id="matplotlib.axis_1">
    <g id="xtick_1">
     <g id="line2d_1">
      <defs>
       <path d="M 0 0 
L 0 3.5 
" id="m6a78456b84" style="stroke:#000000;stroke-width:0.8;"/>
      </defs>
      <g>
       <use style="stroke:#000000;stroke-width:0.8;" x="135" xlink:href="#m6a78456b84" y="448.56"/>
      </g>
     </g>
     <g id="text_1">
      <!-- 0.0 -->
      <g transform="translate(120.687187 469.237188)scale(0.18 -0.18)">
       <defs>
        <path d="M 2034 4250 
Q 1547 4250 1301 3770 
Q 1056 3291 1056 2328 
Q 1056 1369 1301 889 
Q 1547 409 2034 409 
Q 2525 409 2770 889 
Q 3016 1369 3016 2328 
Q 3016 3291 2770 3770 
Q 2525 4250 2034 4250 
z
M 2034 4750 
Q 2819 4750 3233 4129 
Q 3647 3509 3647 2328 
Q 3647 1150 3233 529 
Q 2819 -91 2034 -91 
Q 1250 -91 836 529 
Q 422 1150 422 2328 
Q 422 3509 836 4129 
Q 1250 4750 2034 4750 
z
" id="DejaVuSans-30" transform="scale(0.015625)"/>
        <path d="M 684 794 
L 1344 794 
L 1344 0 
L 684 0 
L 684 794 
z
" id="DejaVuSans-2e" transform="scale(0.015625)"/>
       </defs>
       <use xlink:href="#DejaVuSans-30"/>
       <use x="63.623047" xlink:href="#DejaVuSans-2e"/>
       <use x="95.410156" xlink:href="#DejaVuSans-30"/>
      </g>
     </g>
    </g>
    <g id="xtick_2">
     <g id="line2d_2">
      <g>
       <use style="stroke:#000000;stroke-width:0.8;" x="302.4" xlink:href="#m6a78456b84" y="448.56"/>
      </g>
     </g>
     <g id="text_2">
      <!-- 0.2 -->
      <g transform="translate(288.087187 469.237188)scale(0.18 -0.18)">
       <defs>
        <path d="M 1228 531 
L 3431 531 
L 3431 0 
L 469 0 
L 469 531 
Q 828 903 1448 1529 
Q 2069 2156 2228 2338 
Q 2531 2678 2651 2914 
Q 2772 3150 2772 3378 
Q 2772 3750 2511 3984 
Q 2250 4219 1831 4219 
Q 1534 4219 1204 4116 
Q 875 4013 500 3803 
L 500 4441 
Q 881 4594 1212 4672 
Q 1544 4750 1819 4750 
Q 2544 4750 2975 4387 
Q 3406 4025 3406 3419 
Q 3406 3131 3298 2873 
Q 3191 2616 2906 2266 
Q 2828 2175 2409 1742 
Q 1991 1309 1228 531 
z
" id="DejaVuSans-32" transform="scale(0.015625)"/>
       </defs>
       <use xlink:href="#DejaVuSans-30"/>
       <use x="63.623047" xlink:href="#DejaVuSans-2e"/>
       <use x="95.410156" xlink:href="#DejaVuSans-32"/>
      </g>
     </g>
    </g>
    <g id="xtick_3">
     <g id="line2d_3">
      <g>
       <use style="stroke:#000000;stroke-width:0.8;" x="469.8" xlink:href="#m6a78456b84" y="448.56"/>
      </g>
     </g>
     <g id="text_3">
      <!-- 0.4 -->
      <g transform="translate(455.487188 469.237188)scale(0.18 -0.18)">
       <defs>
        <path d="M 2419 4116 
L 825 1625 
L 2419 1625 
L 2419 4116 
z
M 2253 4666 
L 3047 4666 
L 3047 1625 
L 3713 1625 
L 3713 1100 
L 3047 1100 
L 3047 0 
L 2419 0 
L 2419 1100 
L 313 1100 
L 313 1709 
L 2253 4666 
z
" id="DejaVuSans-34" transform="scale(0.015625)"/>
       </defs>
       <use xlink:href="#DejaVuSans-30"/>
       <use x="63.623047" xlink:href="#DejaVuSans-2e"/>
       <use x="95.410156" xlink:href="#DejaVuSans-34"/>
      </g>
     </g>
    </g>
    <g id="xtick_4">
     <g id="line2d_4">
      <g>
       <use style="stroke:#000000;stroke-width:0.8;" x="637.2" xlink:href="#m6a78456b84" y="448.56"/>
      </g>
     </g>
     <g id="text_4">
      <!-- 0.6 -->
      <g transform="translate(622.887188 469.237188)scale(0.18 -0.18)">
       <defs>
        <path d="M 2113 2584 
Q 1688 2584 1439 2293 
Q 1191 2003 1191 1497 
Q 1191 994 1439 701 
Q 1688 409 2113 409 
Q 2538 409 2786 701 
Q 3034 994 3034 1497 
Q 3034 2003 2786 2293 
Q 2538 2584 2113 2584 
z
M 3366 4563 
L 3366 3988 
Q 3128 4100 2886 4159 
Q 2644 4219 2406 4219 
Q 1781 4219 1451 3797 
Q 1122 3375 1075 2522 
Q 1259 2794 1537 2939 
Q 1816 3084 2150 3084 
Q 2853 3084 3261 2657 
Q 3669 2231 3669 1497 
Q 3669 778 3244 343 
Q 2819 -91 2113 -91 
Q 1303 -91 875 529 
Q 447 1150 447 2328 
Q 447 3434 972 4092 
Q 1497 4750 2381 4750 
Q 2619 4750 2861 4703 
Q 3103 4656 3366 4563 
z
" id="DejaVuSans-36" transform="scale(0.015625)"/>
       </defs>
       <use xlink:href="#DejaVuSans-30"/>
       <use x="63.623047" xlink:href="#DejaVuSans-2e"/>
       <use x="95.410156" xlink:href="#DejaVuSans-36"/>
      </g>
     </g>
    </g>
    <g id="xtick_5">
     <g id="line2d_5">
      <g>
       <use style="stroke:#000000;stroke-width:0.8;" x="804.6" xlink:href="#m6a78456b84" y="448.56"/>
      </g>
     </g>
     <g id="text_5">
      <!-- 0.8 -->
      <g transform="translate(790.287188 469.237188)scale(0.18 -0.18)">
       <defs>
        <path d="M 2034 2216 
Q 1584 2216 1326 1975 
Q 1069 1734 1069 1313 
Q 1069 891 1326 650 
Q 1584 409 2034 409 
Q 2484 409 2743 651 
Q 3003 894 3003 1313 
Q 3003 1734 2745 1975 
Q 2488 2216 2034 2216 
z
M 1403 2484 
Q 997 2584 770 2862 
Q 544 3141 544 3541 
Q 544 4100 942 4425 
Q 1341 4750 2034 4750 
Q 2731 4750 3128 4425 
Q 3525 4100 3525 3541 
Q 3525 3141 3298 2862 
Q 3072 2584 2669 2484 
Q 3125 2378 3379 2068 
Q 3634 1759 3634 1313 
Q 3634 634 3220 271 
Q 2806 -91 2034 -91 
Q 1263 -91 848 271 
Q 434 634 434 1313 
Q 434 1759 690 2068 
Q 947 2378 1403 2484 
z
M 1172 3481 
Q 1172 3119 1398 2916 
Q 1625 2713 2034 2713 
Q 2441 2713 2670 2916 
Q 2900 3119 2900 3481 
Q 2900 3844 2670 4047 
Q 2441 4250 2034 4250 
Q 1625 4250 1398 4047 
Q 1172 3844 1172 3481 
z
" id="DejaVuSans-38" transform="scale(0.015625)"/>
       </defs>
       <use xlink:href="#DejaVuSans-30"/>
       <use x="63.623047" xlink:href="#DejaVuSans-2e"/>
       <use x="95.410156" xlink:href="#DejaVuSans-38"/>
      </g>
     </g>
    </g>
    <g id="xtick_6">
     <g id="line2d_6">
      <g>
       <use style="stroke:#000000;stroke-width:0.8;" x="972" xlink:href="#m6a78456b84" y="448.56"/>
      </g>
     </g>
     <g id="text_6">
      <!-- 1.0 -->
      <g transform="translate(957.687188 469.237188)scale(0.18 -0.18)">
       <defs>
        <path d="M 794 531 
L 1825 531 
L 1825 4091 
L 703 3866 
L 703 4441 
L 1819 4666 
L 2450 4666 
L 2450 531 
L 3481 531 
L 3481 0 
L 794 0 
L 794 531 
z
" id="DejaVuSans-31" transform="scale(0.015625)"/>
       </defs>
       <use xlink:href="#DejaVuSans-31"/>
       <use x="63.623047" xlink:href="#DejaVuSans-2e"/>
       <use x="95.410156" xlink:href="#DejaVuSans-30"/>
      </g>
     </g>
    </g>
    <g id="text_7">
     <!-- $FPR_{Fair}$ -->
     <g transform="translate(518.08 493.697187)scale(0.22 -0.22)">
      <defs>
       <path d="M 1081 4666 
L 3756 4666 
L 3653 4134 
L 1606 4134 
L 1338 2759 
L 3188 2759 
L 3084 2228 
L 1234 2228 
L 800 0 
L 172 0 
L 1081 4666 
z
" id="DejaVuSans-Oblique-46" transform="scale(0.015625)"/>
       <path d="M 1081 4666 
L 2541 4666 
Q 3178 4666 3512 4369 
Q 3847 4072 3847 3500 
Q 3847 2731 3353 2303 
Q 2859 1875 1966 1875 
L 1172 1875 
L 806 0 
L 172 0 
L 1081 4666 
z
M 1613 4147 
L 1275 2394 
L 2069 2394 
Q 2606 2394 2893 2669 
Q 3181 2944 3181 3456 
Q 3181 3784 2986 3965 
Q 2791 4147 2438 4147 
L 1613 4147 
z
" id="DejaVuSans-Oblique-50" transform="scale(0.015625)"/>
       <path d="M 1613 4147 
L 1294 2491 
L 2106 2491 
Q 2584 2491 2879 2755 
Q 3175 3019 3175 3444 
Q 3175 3784 2976 3965 
Q 2778 4147 2406 4147 
L 1613 4147 
z
M 2772 2241 
Q 2972 2194 3105 2009 
Q 3238 1825 3413 1275 
L 3809 0 
L 3144 0 
L 2778 1197 
Q 2638 1659 2453 1815 
Q 2269 1972 1888 1972 
L 1191 1972 
L 806 0 
L 172 0 
L 1081 4666 
L 2503 4666 
Q 3150 4666 3495 4373 
Q 3841 4081 3841 3531 
Q 3841 3044 3547 2687 
Q 3253 2331 2772 2241 
z
" id="DejaVuSans-Oblique-52" transform="scale(0.015625)"/>
       <path d="M 3438 1997 
L 3047 0 
L 2472 0 
L 2578 531 
Q 2325 219 2001 64 
Q 1678 -91 1281 -91 
Q 834 -91 548 182 
Q 263 456 263 884 
Q 263 1497 752 1853 
Q 1241 2209 2100 2209 
L 2900 2209 
L 2931 2363 
Q 2938 2388 2941 2417 
Q 2944 2447 2944 2509 
Q 2944 2788 2717 2942 
Q 2491 3097 2081 3097 
Q 1800 3097 1504 3025 
Q 1209 2953 897 2809 
L 997 3341 
Q 1322 3463 1633 3523 
Q 1944 3584 2234 3584 
Q 2853 3584 3176 3315 
Q 3500 3047 3500 2534 
Q 3500 2431 3484 2292 
Q 3469 2153 3438 1997 
z
M 2816 1759 
L 2241 1759 
Q 1534 1759 1195 1570 
Q 856 1381 856 984 
Q 856 709 1029 553 
Q 1203 397 1509 397 
Q 1978 397 2328 733 
Q 2678 1069 2791 1631 
L 2816 1759 
z
" id="DejaVuSans-Oblique-61" transform="scale(0.015625)"/>
       <path d="M 1172 4863 
L 1747 4863 
L 1606 4134 
L 1031 4134 
L 1172 4863 
z
M 909 3500 
L 1484 3500 
L 800 0 
L 225 0 
L 909 3500 
z
" id="DejaVuSans-Oblique-69" transform="scale(0.015625)"/>
       <path d="M 2853 2969 
Q 2766 3016 2653 3041 
Q 2541 3066 2413 3066 
Q 1953 3066 1609 2717 
Q 1266 2369 1153 1784 
L 800 0 
L 225 0 
L 909 3500 
L 1484 3500 
L 1375 2956 
Q 1603 3259 1920 3421 
Q 2238 3584 2597 3584 
Q 2691 3584 2781 3573 
Q 2872 3563 2963 3538 
L 2853 2969 
z
" id="DejaVuSans-Oblique-72" transform="scale(0.015625)"/>
      </defs>
      <use transform="translate(0 0.09375)" xlink:href="#DejaVuSans-Oblique-46"/>
      <use transform="translate(57.519531 0.09375)" xlink:href="#DejaVuSans-Oblique-50"/>
      <use transform="translate(117.822266 0.09375)" xlink:href="#DejaVuSans-Oblique-52"/>
      <use transform="translate(187.304688 -16.3125)scale(0.7)" xlink:href="#DejaVuSans-Oblique-46"/>
      <use transform="translate(227.568359 -16.3125)scale(0.7)" xlink:href="#DejaVuSans-Oblique-61"/>
      <use transform="translate(270.463867 -16.3125)scale(0.7)" xlink:href="#DejaVuSans-Oblique-69"/>
      <use transform="translate(289.912109 -16.3125)scale(0.7)" xlink:href="#DejaVuSans-Oblique-72"/>
     </g>
    </g>
   </g>
   <g id="matplotlib.axis_2">
    <g id="ytick_1">
     <g id="line2d_7">
      <defs>
       <path d="M 0 0 
L -3.5 0 
" id="m3cd2978010" style="stroke:#000000;stroke-width:0.8;"/>
      </defs>
      <g>
       <use style="stroke:#000000;stroke-width:0.8;" x="135" xlink:href="#m3cd2978010" y="448.56"/>
      </g>
     </g>
     <g id="text_8">
      <!-- 0.0 -->
      <g transform="translate(99.374375 455.398594)scale(0.18 -0.18)">
       <use xlink:href="#DejaVuSans-30"/>
       <use x="63.623047" xlink:href="#DejaVuSans-2e"/>
       <use x="95.410156" xlink:href="#DejaVuSans-30"/>
      </g>
     </g>
    </g>
    <g id="ytick_2">
     <g id="line2d_8">
      <g>
       <use style="stroke:#000000;stroke-width:0.8;" x="135" xlink:href="#m3cd2978010" y="370.944"/>
      </g>
     </g>
     <g id="text_9">
      <!-- 0.2 -->
      <g transform="translate(99.374375 377.782594)scale(0.18 -0.18)">
       <use xlink:href="#DejaVuSans-30"/>
       <use x="63.623047" xlink:href="#DejaVuSans-2e"/>
       <use x="95.410156" xlink:href="#DejaVuSans-32"/>
      </g>
     </g>
    </g>
    <g id="ytick_3">
     <g id="line2d_9">
      <g>
       <use style="stroke:#000000;stroke-width:0.8;" x="135" xlink:href="#m3cd2978010" y="293.328"/>
      </g>
     </g>
     <g id="text_10">
      <!-- 0.4 -->
      <g transform="translate(99.374375 300.166594)scale(0.18 -0.18)">
       <use xlink:href="#DejaVuSans-30"/>
       <use x="63.623047" xlink:href="#DejaVuSans-2e"/>
       <use x="95.410156" xlink:href="#DejaVuSans-34"/>
      </g>
     </g>
    </g>
    <g id="ytick_4">
     <g id="line2d_10">
      <g>
       <use style="stroke:#000000;stroke-width:0.8;" x="135" xlink:href="#m3cd2978010" y="215.712"/>
      </g>
     </g>
     <g id="text_11">
      <!-- 0.6 -->
      <g transform="translate(99.374375 222.550594)scale(0.18 -0.18)">
       <use xlink:href="#DejaVuSans-30"/>
       <use x="63.623047" xlink:href="#DejaVuSans-2e"/>
       <use x="95.410156" xlink:href="#DejaVuSans-36"/>
      </g>
     </g>
    </g>
    <g id="ytick_5">
     <g id="line2d_11">
      <g>
       <use style="stroke:#000000;stroke-width:0.8;" x="135" xlink:href="#m3cd2978010" y="138.096"/>
      </g>
     </g>
     <g id="text_12">
      <!-- 0.8 -->
      <g transform="translate(99.374375 144.934594)scale(0.18 -0.18)">
       <use xlink:href="#DejaVuSans-30"/>
       <use x="63.623047" xlink:href="#DejaVuSans-2e"/>
       <use x="95.410156" xlink:href="#DejaVuSans-38"/>
      </g>
     </g>
    </g>
    <g id="ytick_6">
     <g id="line2d_12">
      <g>
       <use style="stroke:#000000;stroke-width:0.8;" x="135" xlink:href="#m3cd2978010" y="60.48"/>
      </g>
     </g>
     <g id="text_13">
      <!-- 1.0 -->
      <g transform="translate(99.374375 67.318594)scale(0.18 -0.18)">
       <use xlink:href="#DejaVuSans-31"/>
       <use x="63.623047" xlink:href="#DejaVuSans-2e"/>
       <use x="95.410156" xlink:href="#DejaVuSans-30"/>
      </g>
     </g>
    </g>
    <g id="text_14">
     <!-- $TPR_{Fair}$ -->
     <g transform="translate(90.799062 290.27)rotate(-90)scale(0.22 -0.22)">
      <defs>
       <path d="M 378 4666 
L 4325 4666 
L 4225 4134 
L 2559 4134 
L 1759 0 
L 1125 0 
L 1925 4134 
L 275 4134 
L 378 4666 
z
" id="DejaVuSans-Oblique-54" transform="scale(0.015625)"/>
      </defs>
      <use transform="translate(0 0.09375)" xlink:href="#DejaVuSans-Oblique-54"/>
      <use transform="translate(61.083984 0.09375)" xlink:href="#DejaVuSans-Oblique-50"/>
      <use transform="translate(121.386719 0.09375)" xlink:href="#DejaVuSans-Oblique-52"/>
      <use transform="translate(190.869141 -16.3125)scale(0.7)" xlink:href="#DejaVuSans-Oblique-46"/>
      <use transform="translate(231.132812 -16.3125)scale(0.7)" xlink:href="#DejaVuSans-Oblique-61"/>
      <use transform="translate(274.02832 -16.3125)scale(0.7)" xlink:href="#DejaVuSans-Oblique-69"/>
      <use transform="translate(293.476562 -16.3125)scale(0.7)" xlink:href="#DejaVuSans-Oblique-72"/>
     </g>
    </g>
   </g>
   <g id="line2d_13">
    <path clip-path="url(#p061fa2f8f1)" d="M 135 448.56 
L 972 60.48 
" style="fill:none;stroke:#ff0000;stroke-dasharray:5.55,2.4;stroke-dashoffset:0;stroke-width:1.5;"/>
   </g>
   <g id="line2d_14">
    <path clip-path="url(#p061fa2f8f1)" d="M 972 60.48 
L 968.688386 182.399408 
L 965.550697 245.98809 
L 961.68005 285.379532 
L 957.854638 312.665925 
L 954.068448 332.169254 
L 949.838362 346.942834 
L 945.668768 358.101065 
L 941.532861 366.940805 
L 937.300011 374.17232 
L 932.757288 380.649558 
L 928.165605 386.178719 
L 923.564824 390.971407 
L 917.863387 394.928147 
L 913.299548 398.179657 
L 908.453705 401.205243 
L 903.007087 403.854706 
L 897.696561 406.460118 
L 892.675026 408.516076 
L 887.335611 410.54076 
L 881.44121 412.244346 
L 875.765217 413.719082 
L 869.101678 415.163498 
L 863.207796 416.573628 
L 857.940121 417.709512 
L 851.889648 418.870372 
L 846.03113 419.894624 
L 840.483026 420.857446 
L 833.384511 421.770872 
L 827.401145 422.612543 
L 820.818372 423.374657 
L 814.224748 424.128814 
L 807.852539 424.878354 
L 800.907943 425.56562 
L 793.858838 426.168058 
L 787.441978 426.733157 
L 781.167038 427.241622 
L 774.201666 427.722939 
L 767.972019 428.202597 
L 761.47322 428.662271 
L 754.851751 429.121445 
L 748.342623 429.56777 
L 742.141219 429.926645 
L 735.725768 430.364969 
L 729.104725 430.804466 
L 723.212401 431.164091 
L 716.625 431.523517 
L 710.531961 431.857488 
L 704.16 432.165683 
L 697.62022 432.517949 
L 691.947364 432.869709 
L 685.21696 433.164064 
L 679.335013 433.539585 
L 672.94802 433.827151 
L 667.255873 434.116985 
L 660.953239 434.403229 
L 655.165889 434.705944 
L 649.153714 434.956646 
L 643.614964 435.221036 
L 637.216161 435.403704 
L 630.158752 435.638703 
L 624.247883 435.861116 
L 617.04274 436.053312 
L 610.488106 436.289715 
L 603.805417 436.512766 
L 597.760468 436.6859 
L 591.507979 436.935138 
L 584.942245 437.134208 
L 578.176098 437.309779 
L 572.337894 437.456704 
L 566.282428 437.635828 
L 559.435287 437.838278 
L 553.624913 438.051481 
L 545.912134 438.216453 
L 540.567883 438.4034 
L 533.933008 438.559051 
L 526.671467 438.739861 
L 520.264453 438.90493 
L 513.854396 439.06247 
L 506.655176 439.237548 
L 499.413305 439.430898 
L 491.250754 439.591597 
L 483.448477 439.739586 
L 474.786455 439.88933 
L 466.996772 440.048953 
L 459.002725 440.219869 
L 452.447869 440.359453 
L 446.001207 440.51974 
L 438.397743 440.69852 
L 431.674208 440.862638 
L 425.36021 441.035882 
L 417.572956 441.206263 
L 411.35838 441.390365 
L 404.195698 441.562689 
L 398.560931 441.707311 
L 392.836809 441.867185 
L 386.768112 442.021643 
L 381.057221 442.218873 
L 375.312525 442.401573 
L 369.701322 442.591419 
L 363.809822 442.740777 
" style="fill:none;stroke:#1f77b4;stroke-linecap:square;stroke-width:1.5;"/>
   </g>
   <g id="line2d_15">
    <path clip-path="url(#p061fa2f8f1)" d="M 972 60.48 
L 555.553897 207.523857 
L 412.502414 274.056395 
L 340.005679 311.953848 
L 296.18734 336.608606 
L 266.94956 353.84026 
L 246.10143 366.532125 
L 230.407285 376.093751 
L 218.212224 383.943756 
L 208.454127 390.182748 
L 200.493182 395.366692 
L 193.914801 399.80548 
L 188.352233 403.529157 
L 183.58803 406.731028 
L 179.482707 409.564581 
L 175.917884 412.020249 
L 172.780474 414.200274 
L 170.021813 416.204557 
L 167.581037 417.984963 
L 165.3598 419.564369 
L 163.37034 421.008836 
L 161.607959 422.306091 
L 160.002113 423.496223 
L 158.53549 424.601506 
L 157.201897 425.625338 
L 155.984507 426.585645 
L 154.875116 427.451522 
L 153.849861 428.212965 
L 152.920199 428.945758 
L 152.063657 429.657996 
L 151.258017 430.295628 
L 150.51871 430.901884 
L 149.823316 431.474647 
L 149.191658 432.003278 
L 148.595606 432.504352 
L 148.040709 432.982345 
L 147.526443 433.428215 
L 147.036085 433.836669 
L 146.579876 434.233158 
L 146.154895 434.618969 
L 145.757194 434.983114 
L 145.379406 435.332869 
L 145.027817 435.669378 
L 144.695574 435.989411 
L 144.377199 436.290538 
L 144.073256 436.580993 
L 143.790083 436.870272 
L 143.520652 437.132863 
L 143.2599 437.388533 
L 143.019368 437.64018 
L 142.789834 437.881554 
L 142.5644 438.119032 
L 142.352958 438.362476 
L 142.149007 438.57354 
L 141.958886 438.782827 
L 141.76702 438.984684 
L 141.592196 439.17947 
L 141.423968 439.363202 
L 141.259998 439.551958 
L 141.101482 439.733792 
L 140.9495 439.905937 
L 140.803791 440.073751 
L 140.652928 440.234922 
L 140.51383 440.387804 
L 140.378629 440.542348 
L 140.244036 440.692245 
L 140.114818 440.845532 
L 139.990571 440.989804 
L 139.868393 441.132353 
L 139.755334 441.274383 
L 139.645157 441.40578 
L 139.537179 441.536237 
L 139.431113 441.669307 
L 139.326411 441.791878 
L 139.2225 441.913199 
L 139.122522 442.032645 
L 139.026307 442.149748 
L 138.932322 442.260601 
L 138.839642 442.381669 
L 138.752001 442.495867 
L 138.665682 442.605371 
L 138.582287 442.71353 
L 138.497327 442.812425 
L 138.414882 442.91515 
L 138.336106 443.016425 
L 138.258828 443.112271 
L 138.18304 443.214092 
L 138.11053 443.307902 
L 138.042573 443.406851 
L 137.969964 443.505445 
L 137.900591 443.600123 
L 137.836248 443.688358 
L 137.772493 443.784707 
L 137.70354 443.879792 
L 137.637595 443.964993 
L 137.571397 444.053064 
L 137.508103 444.14196 
L 137.449095 444.23159 
L 137.389889 444.329119 
L 137.326007 444.42572 
L 137.265605 444.510667 
" style="fill:none;stroke:#ff7f0e;stroke-linecap:square;stroke-width:1.5;"/>
   </g>
   <g id="line2d_16">
    <path clip-path="url(#p061fa2f8f1)" d="M 972 60.48 
L 971.623406 68.421065 
L 971.23736 76.032204 
L 970.834184 83.412667 
L 970.40492 90.750845 
L 969.931123 97.757615 
L 969.491176 104.613086 
L 969.038648 111.14649 
L 968.572858 117.171848 
L 968.125452 123.016166 
L 967.611319 129.054781 
L 967.072632 134.896977 
L 966.527594 140.567577 
L 965.880973 145.99231 
L 965.303389 150.999772 
L 964.721965 155.976126 
L 964.029141 160.724995 
L 963.383265 165.453463 
L 962.747231 169.917678 
L 962.09976 174.405383 
L 961.40154 178.607049 
L 960.666248 182.43223 
L 959.866235 186.363437 
L 959.096976 190.225663 
L 958.364534 193.850543 
L 957.560946 197.482313 
L 956.723335 201.016239 
L 955.925365 204.282752 
L 955.015899 207.613589 
L 954.07811 210.782503 
L 953.193945 213.742106 
L 952.271072 216.681829 
L 951.33356 219.69382 
L 950.31997 222.447555 
L 949.334798 225.117944 
L 948.346571 227.709924 
L 947.367511 230.156598 
L 946.382637 232.405427 
L 945.401727 234.768958 
L 944.394562 237.096144 
L 943.310522 239.435063 
L 942.293215 241.589293 
L 941.238223 243.72902 
L 940.14183 245.846153 
L 939.067627 247.898426 
L 938.031143 249.834352 
L 936.961675 251.963593 
L 935.859683 253.861836 
L 934.650435 255.828706 
L 933.475294 257.593108 
L 932.348698 259.530375 
L 931.11256 261.333186 
L 929.958816 263.113053 
L 928.719275 264.874927 
L 927.507822 266.815525 
L 926.290163 268.515036 
L 924.984434 270.336513 
L 923.658885 271.945032 
L 922.387069 273.623428 
L 921.030358 275.323185 
L 919.596787 277.029415 
L 918.281287 278.684111 
L 916.609359 280.299965 
L 915.076102 281.990667 
L 913.453867 283.612147 
L 911.803507 285.198015 
L 910.148203 286.798099 
L 908.422811 288.431473 
L 906.630144 290.012019 
L 904.977065 291.568573 
L 903.147507 293.167093 
L 901.167358 294.839482 
L 899.415814 296.526029 
L 897.343509 298.124307 
L 895.427208 299.703075 
L 893.295829 301.332856 
L 891.260838 303.004787 
L 889.02894 304.608657 
L 886.898703 306.33083 
L 884.662559 307.967389 
L 882.314031 309.632324 
L 879.914579 311.345669 
L 877.424189 313.012387 
L 874.82007 314.704116 
L 872.42834 316.395268 
L 869.823435 318.046878 
L 867.096605 319.822489 
L 864.338014 321.583635 
L 861.588753 323.395795 
L 858.673114 325.129573 
L 856.046819 326.911603 
L 853.052121 328.686231 
L 850.041277 330.568222 
L 847.013789 332.447816 
L 843.882252 334.360259 
L 840.765236 336.211993 
L 837.674959 338.135063 
L 834.365094 340.044117 
L 830.931702 342.040165 
L 827.363777 344.039297 
L 823.623713 345.914411 
" style="fill:none;stroke:#2ca02c;stroke-linecap:square;stroke-width:1.5;"/>
   </g>
   <g id="line2d_17">
    <path clip-path="url(#p061fa2f8f1)" d="M 972 60.48 
L 971.863829 65.390023 
L 971.740863 70.183061 
L 971.593324 74.888098 
L 971.454176 79.64852 
L 971.315293 84.239746 
L 971.15027 88.795927 
L 970.97715 93.182728 
L 970.815679 97.307123 
L 970.651533 101.33625 
L 970.464403 105.560747 
L 970.28998 109.715808 
L 970.103002 113.78455 
L 969.87465 117.725052 
L 969.687874 121.39752 
L 969.484692 125.10708 
L 969.248532 128.677128 
L 969.0302 132.279048 
L 968.814567 135.697335 
L 968.579864 139.153366 
L 968.322926 142.464855 
L 968.077668 145.477879 
L 967.776714 148.643651 
L 967.51654 151.762528 
L 967.272 154.677341 
L 966.989907 157.633869 
L 966.695511 160.550597 
L 966.431077 163.285777 
L 966.087209 166.088309 
L 965.763642 168.759515 
L 965.443064 171.267416 
L 965.1011 173.829867 
L 964.768083 176.431675 
L 964.400361 178.87188 
L 964.020234 181.246579 
L 963.675661 183.552879 
L 963.307956 185.733954 
L 962.915893 187.796241 
L 962.547401 189.954456 
L 962.154599 192.064335 
L 961.746155 194.202508 
L 961.368204 196.187338 
L 960.940245 198.174023 
L 960.519932 200.151906 
L 960.063864 202.073303 
L 959.647134 203.90125 
L 959.211951 205.895199 
L 958.789094 207.726169 
L 958.332429 209.61162 
L 957.836019 211.312811 
L 957.379699 213.182078 
L 956.877667 214.940617 
L 956.400372 216.656548 
L 955.880223 218.402971 
L 955.384258 220.314497 
L 954.838683 222.026156 
L 954.283561 223.870114 
L 953.700417 225.527222 
L 953.165275 227.197266 
L 952.575557 228.889736 
L 951.913241 230.635348 
L 951.302885 232.339972 
L 950.540136 234.02249 
L 949.864336 235.77258 
L 949.108973 237.560955 
L 948.334317 239.210202 
L 947.547393 240.901537 
L 946.730935 242.632951 
L 945.881851 244.298739 
L 945.080429 245.999322 
L 944.202546 247.783684 
L 943.216658 249.636251 
L 942.359616 251.447996 
L 941.307635 253.261811 
L 940.359604 255.063548 
L 939.26642 256.853826 
L 938.215643 258.753902 
L 937.101688 260.535801 
L 936.023273 262.493738 
L 934.78908 264.400036 
L 933.553202 266.318251 
L 932.197175 268.283644 
L 930.802575 270.283404 
L 929.305753 272.279117 
L 927.968261 274.264351 
L 926.469739 276.227049 
L 924.919624 278.3045 
L 923.352682 280.375466 
L 921.799522 282.502735 
L 920.093406 284.572775 
L 918.548609 286.760356 
L 916.783533 288.851233 
L 915.010209 291.140306 
L 913.255986 293.43878 
L 911.364902 295.736672 
L 909.448135 297.952211 
L 907.651701 300.329741 
L 905.638992 302.615249 
L 903.556149 305.048463 
L 901.440501 307.496491 
L 899.179493 309.84048 
" style="fill:none;stroke:#d62728;stroke-linecap:square;stroke-width:1.5;"/>
   </g>
   <g id="line2d_18">
    <path clip-path="url(#p061fa2f8f1)" d="M 972 60.48 
L 802.989786 118.385077 
L 687.906966 161.566361 
L 604.311707 194.75912 
L 540.950277 221.347228 
L 491.36295 243.128314 
L 451.475604 261.3194 
L 418.746037 276.374871 
L 391.444006 289.65847 
L 368.318566 300.859017 
L 348.536418 310.675076 
L 331.40743 319.395734 
L 316.411595 327.124159 
L 303.217375 333.970521 
L 291.571023 340.246484 
L 281.114914 345.811362 
L 271.787549 350.921139 
L 263.330817 355.599775 
L 255.745879 359.926012 
L 248.81401 363.836961 
L 242.492294 367.481137 
L 236.718506 370.831438 
L 231.413939 373.932308 
L 226.53018 376.853279 
L 222.010922 379.582637 
L 217.844007 382.135044 
L 213.984994 384.500756 
L 210.396528 386.691865 
L 207.077158 388.769755 
L 203.969652 390.740681 
L 201.03958 392.584702 
L 198.325395 394.355657 
L 195.73613 396.023112 
L 193.347865 397.590224 
L 191.084691 399.070157 
L 188.942587 400.474001 
L 186.950671 401.813603 
L 185.049224 403.077851 
L 183.256057 404.294132 
L 181.574955 405.464881 
L 179.959935 406.576843 
L 178.414669 407.653812 
L 176.958953 408.683994 
L 175.575744 409.670829 
L 174.253965 410.614137 
L 172.986953 411.527005 
L 171.797074 412.412278 
L 170.639349 413.240407 
L 169.53913 414.071693 
L 168.488845 414.848952 
L 167.45975 415.603722 
L 166.481695 416.340423 
L 165.546912 417.054039 
L 164.638601 417.731703 
L 163.777674 418.407711 
L 162.943954 419.04808 
L 162.149098 419.671657 
L 161.365613 420.277272 
L 160.602394 420.864781 
L 159.889805 421.437627 
L 159.188606 421.999844 
L 158.516939 422.549833 
L 157.85103 423.077831 
L 157.217501 423.577194 
L 156.601383 424.091406 
L 155.995916 424.573084 
L 155.414398 425.053414 
L 154.850008 425.528236 
L 154.310668 425.980563 
L 153.78846 426.425474 
L 153.280218 426.86753 
L 152.786813 427.305003 
L 152.313095 427.735072 
L 151.843235 428.150944 
L 151.38197 428.552706 
L 150.940116 428.946748 
L 150.508218 429.333918 
L 150.097462 429.709011 
L 149.699894 430.100023 
L 149.308257 430.474662 
L 148.924432 430.84707 
L 148.5491 431.205681 
L 148.185819 431.556545 
L 147.831317 431.900812 
L 147.494436 432.236538 
L 147.158279 432.569697 
L 146.832121 432.900033 
L 146.513571 433.21736 
L 146.205683 433.537578 
L 145.901759 433.837985 
L 145.60762 434.158871 
L 145.321181 434.450567 
L 145.030846 434.755137 
L 144.748576 435.055744 
L 144.477069 435.343158 
L 144.207846 435.622426 
L 143.947667 435.909534 
L 143.69535 436.190345 
L 143.450653 436.475146 
L 143.201748 436.765974 
L 142.962308 437.038733 
" style="fill:none;stroke:#9467bd;stroke-linecap:square;stroke-width:1.5;"/>
   </g>
   <g id="line2d_19">
    <path clip-path="url(#p061fa2f8f1)" d="M 972 60.48 
L 910.646183 73.188881 
L 856.074718 85.256154 
L 807.023507 96.640252 
L 762.983571 107.530035 
L 723.31451 117.831154 
L 687.114257 127.551838 
L 654.369821 136.590476 
L 624.553912 145.467204 
L 597.065755 153.636879 
L 571.836069 161.55398 
L 548.664052 169.196392 
L 527.111714 176.497496 
L 507.221007 183.411118 
L 488.816382 190.028975 
L 471.64814 196.298834 
L 455.696103 202.426208 
L 440.783893 208.312189 
L 426.929756 213.921505 
L 413.93824 219.280054 
L 401.754148 224.496692 
L 390.352769 229.410469 
L 379.676867 234.151666 
L 369.619835 238.735473 
L 360.097229 243.169086 
L 351.133281 247.456469 
L 342.675579 251.574915 
L 334.695265 255.441075 
L 327.174006 259.241692 
L 320.044682 262.937066 
L 313.245729 266.453895 
L 306.870611 269.85894 
L 300.729498 273.191335 
L 294.974602 276.348904 
L 289.454663 279.41563 
L 284.220513 282.326636 
L 279.249353 285.215288 
L 274.45993 287.913109 
L 269.920905 290.57797 
L 265.628632 293.215739 
L 261.461344 295.803491 
L 257.4597 298.273034 
L 253.652841 300.69193 
L 250.007049 303.041369 
L 246.50072 305.370797 
L 243.148111 307.60205 
L 239.962596 309.811003 
L 236.848475 311.931963 
L 233.870552 314.05329 
L 231.007296 316.021167 
L 228.206315 318.015659 
L 225.518059 319.965614 
L 222.940614 321.876314 
L 220.450984 323.761733 
L 218.068225 325.621763 
L 215.745117 327.434234 
L 213.512245 329.239086 
L 211.329307 330.999157 
L 209.185505 332.723062 
L 207.164674 334.386424 
L 205.180341 336.069767 
L 203.276444 337.73024 
L 201.388256 339.349738 
L 199.584604 340.935007 
L 197.829163 342.556347 
L 196.101777 344.076849 
L 194.442141 345.637154 
L 192.836937 347.189796 
L 191.288123 348.684094 
L 189.771957 350.159513 
L 188.308579 351.657891 
L 186.889782 353.186935 
L 185.532605 354.674192 
L 184.171566 356.13622 
L 182.859078 357.51704 
L 181.578407 358.919267 
L 180.33591 360.325418 
L 179.13511 361.683427 
L 177.967665 363.119323 
L 176.828744 364.548827 
L 175.708407 365.93723 
L 174.627342 367.284935 
L 173.566312 368.638603 
L 172.53632 369.98784 
L 171.551629 371.307973 
L 170.565827 372.609695 
L 169.609891 373.94217 
L 168.690583 375.219159 
L 167.786941 376.513151 
L 166.903827 377.746107 
L 166.043492 379.043626 
L 165.192952 380.262297 
L 164.342299 381.543177 
L 163.516666 382.803855 
L 162.718364 384.022761 
L 161.925954 385.237796 
L 161.166096 386.487693 
L 160.42634 387.692489 
L 159.700448 388.947503 
L 158.963565 390.215031 
L 158.259171 391.42836 
" style="fill:none;stroke:#8c564b;stroke-linecap:square;stroke-width:1.5;"/>
   </g>
   <g id="line2d_20">
    <path clip-path="url(#p061fa2f8f1)" d="M 972 60.48 
L 925.421498 70.170924 
L 882.454948 79.421601 
L 842.554229 88.295243 
L 805.600666 97.013021 
L 771.343862 105.266364 
L 739.32721 113.305701 
L 709.625738 120.802375 
L 681.952189 128.270479 
L 655.958245 135.198803 
L 631.808368 142.03775 
L 609.210778 148.706258 
L 587.912975 155.055095 
L 567.921549 161.154866 
L 549.156706 167.068721 
L 531.373233 172.693133 
L 514.69204 178.342265 
L 498.863071 183.687668 
L 484.013383 188.939513 
L 470.01485 194.023711 
L 456.714204 198.894022 
L 444.165076 203.566408 
L 432.2691 208.067414 
L 420.9631 212.484816 
L 410.205156 216.750819 
L 400.028748 220.907255 
L 390.37161 224.88741 
L 381.130461 228.698076 
L 372.414133 232.48196 
L 364.130995 236.212734 
L 356.137937 239.730636 
L 348.639996 243.198166 
L 341.40616 246.6034 
L 334.567675 249.810592 
L 327.973481 252.957954 
L 321.701146 255.982259 
L 315.759612 258.940205 
L 310.012986 261.780683 
L 304.532794 264.525625 
L 299.301774 267.322749 
L 294.239117 270.014735 
L 289.38471 272.619935 
L 284.73134 275.164509 
L 280.298914 277.641249 
L 276.005842 280.084092 
L 271.86649 282.483847 
L 267.932186 284.871501 
L 264.108421 287.18728 
L 260.444821 289.484641 
L 256.900364 291.645879 
L 253.438297 293.795388 
L 250.108068 295.942868 
L 246.899102 298.019897 
L 243.789538 300.045708 
L 240.801431 302.096686 
L 237.915768 304.102108 
L 235.120275 306.075694 
L 232.396564 308.023971 
L 229.712933 309.897407 
L 227.164461 311.737396 
L 224.670669 313.603871 
L 222.268035 315.422037 
L 219.896214 317.227888 
L 217.637919 318.998058 
L 215.432749 320.790568 
L 213.265967 322.505199 
L 211.191808 324.240711 
L 209.175161 325.979817 
L 207.228668 327.668229 
L 205.318221 329.33475 
L 203.474462 331.010932 
L 201.686992 332.714066 
L 199.962515 334.407637 
L 198.2516 336.062456 
L 196.587349 337.662164 
L 194.967551 339.277482 
L 193.394583 340.897111 
L 191.860858 342.440709 
L 190.376811 344.089197 
L 188.932786 345.707399 
L 187.520626 347.310244 
L 186.152775 348.886082 
L 184.80914 350.460712 
L 183.499804 352.034072 
L 182.241394 353.593614 
L 180.978255 355.133317 
L 179.761248 356.680319 
L 178.59077 358.180174 
L 177.441928 359.725491 
L 176.308821 361.179659 
L 175.205636 362.719636 
L 174.117086 364.156186 
L 173.031957 365.660442 
L 171.979071 367.137538 
L 170.956808 368.603058 
L 169.947731 370.059242 
L 168.977969 371.554346 
L 168.02551 372.99756 
L 167.088124 374.478402 
L 166.137687 375.990198 
L 165.229631 377.445481 
" style="fill:none;stroke:#e377c2;stroke-linecap:square;stroke-width:1.5;"/>
   </g>
   <g id="line2d_21">
    <path clip-path="url(#p061fa2f8f1)" d="M 972 60.48 
L 878.8046 95.316487 
L 802.119325 124.653646 
L 737.743937 149.524829 
L 683.018688 171.076148 
L 636.025429 189.999025 
L 595.194766 206.725176 
L 559.449117 221.254872 
L 527.96224 234.668834 
L 500.025384 246.411068 
L 475.058786 257.047905 
L 452.693344 266.78702 
L 432.504465 275.63759 
L 414.2168 283.664933 
L 397.634415 291.204094 
L 382.448247 297.980284 
L 368.569007 304.368356 
L 355.751177 310.27711 
L 344.057438 315.804234 
L 333.239642 320.88173 
L 323.232735 325.684494 
L 313.957951 330.162969 
L 305.326025 334.354824 
L 297.27191 338.340616 
L 289.774799 342.09287 
L 282.807977 345.623685 
L 276.286473 348.970227 
L 270.152776 352.067314 
L 264.438506 355.048481 
L 259.06361 357.883013 
L 253.972011 360.544807 
L 249.232667 363.117376 
L 244.711667 365.564643 
L 240.470064 367.887565 
L 236.454237 370.092354 
L 232.669657 372.1859 
L 229.111023 374.189795 
L 225.696648 376.100969 
L 222.473902 377.929769 
L 219.420878 379.714155 
L 216.501629 381.412036 
L 213.718556 383.042429 
L 211.07241 384.622458 
L 208.565796 386.133251 
L 206.171492 387.587404 
L 203.867004 389.006629 
L 201.696764 390.370159 
L 199.59083 391.665641 
L 197.586073 392.952942 
L 195.666101 394.170427 
L 193.797828 395.363488 
L 192.013309 396.514688 
L 190.301924 397.640031 
L 188.649789 398.71111 
L 187.068126 399.768787 
L 185.552623 400.787634 
L 184.086137 401.776358 
L 182.663598 402.745222 
L 181.270361 403.691487 
L 179.948339 404.599249 
L 178.663845 405.493175 
L 177.431668 406.361244 
L 176.222328 407.207062 
L 175.076209 408.015673 
L 173.963928 408.821832 
L 172.86458 409.600592 
L 171.816801 410.365963 
L 170.805853 411.110146 
L 169.823424 411.833249 
L 168.866057 412.532255 
L 167.946523 413.23773 
L 167.057471 413.94047 
L 166.204361 414.636762 
L 165.353401 415.308073 
L 164.529367 415.955646 
L 163.732942 416.596984 
L 162.958934 417.22248 
L 162.205008 417.832965 
L 161.475724 418.461994 
L 160.766155 419.07593 
L 160.076398 419.674347 
L 159.409758 420.250419 
L 158.755744 420.811721 
L 158.122086 421.372317 
L 157.51406 421.919872 
L 156.905047 422.464388 
L 156.31673 423.004691 
L 155.753301 423.525522 
L 155.196495 424.051507 
L 154.648152 424.54708 
L 154.115955 425.066097 
L 153.595823 425.549394 
L 153.076649 426.052242 
L 152.573834 426.537159 
L 152.085673 427.020906 
L 151.604159 427.487875 
L 151.1386 427.965479 
L 150.683024 428.426934 
L 150.232818 428.897448 
L 149.778101 429.375568 
L 149.346058 429.832195 
" style="fill:none;stroke:#7f7f7f;stroke-linecap:square;stroke-width:1.5;"/>
   </g>
   <g id="line2d_22">
    <path clip-path="url(#p061fa2f8f1)" d="M 972 60.48 
L 971.92715 62.240158 
L 971.856267 63.9805 
L 971.775861 65.727696 
L 971.693002 67.522644 
L 971.606889 69.290113 
L 971.513038 71.077497 
L 971.421777 72.829364 
L 971.325799 74.49671 
L 971.226491 76.162717 
L 971.120417 77.92799 
L 971.020771 79.699118 
L 970.917018 81.473122 
L 970.795759 83.213011 
L 970.685577 84.871943 
L 970.5687 86.560925 
L 970.435501 88.221467 
L 970.314327 89.907401 
L 970.182986 91.53078 
L 970.049241 93.192565 
L 969.907736 94.818038 
L 969.766773 96.334156 
L 969.607047 97.945502 
L 969.451662 99.551804 
L 969.306744 101.074687 
L 969.1553 102.610951 
L 969.005779 104.187895 
L 968.85586 105.687654 
L 968.666101 107.233783 
L 968.487888 108.735216 
L 968.298024 110.171694 
L 968.106208 111.644808 
L 967.90626 113.157822 
L 967.703662 114.612118 
L 967.491202 116.039164 
L 967.290036 117.450011 
L 967.080242 118.791839 
L 966.85623 120.079021 
L 966.631932 121.441768 
L 966.396514 122.786315 
L 966.154804 124.160653 
L 965.930536 125.452844 
L 965.681268 126.749043 
L 965.442666 128.055221 
L 965.173233 129.349591 
L 964.930873 130.618484 
L 964.672946 131.95562 
L 964.398073 133.221981 
L 964.125339 134.556665 
L 963.82431 135.756862 
L 963.531147 137.104612 
L 963.239965 138.353199 
L 962.945785 139.59447 
L 962.627299 140.878638 
L 962.320659 142.274573 
L 961.985183 143.568141 
L 961.64494 144.935787 
L 961.277352 146.225876 
L 960.934168 147.530228 
L 960.55854 148.823926 
L 960.163107 150.178978 
L 959.772761 151.514464 
L 959.326607 152.836896 
L 958.914691 154.256093 
L 958.479278 155.615379 
L 958.023722 156.939148 
L 957.570128 158.30367 
L 957.095075 159.681977 
L 956.566465 161.068978 
L 956.08176 162.431672 
L 955.548998 163.894029 
L 954.980824 165.457371 
L 954.456684 167.009101 
L 953.852308 168.56032 
L 953.269559 170.086304 
L 952.628127 171.666112 
L 952.002394 173.337675 
L 951.338116 174.949336 
L 950.673615 176.67216 
L 949.963392 178.425104 
L 949.22862 180.165608 
L 948.469344 181.959721 
L 947.671286 183.813352 
L 946.824187 185.704453 
L 946.021999 187.604937 
L 945.129764 189.508186 
L 944.240347 191.525558 
L 943.357579 193.539634 
L 942.43611 195.666004 
L 941.424141 197.734286 
L 940.500657 199.900205 
L 939.430041 202.060165 
L 938.374206 204.425631 
L 937.315131 206.753153 
L 936.147841 209.216969 
L 935.016976 211.642604 
L 933.859475 214.217609 
L 932.608525 216.745928 
L 931.315204 219.442331 
L 929.994189 222.197436 
L 928.574614 224.931903 
" style="fill:none;stroke:#bcbd22;stroke-linecap:square;stroke-width:1.5;"/>
   </g>
   <g id="line2d_23">
    <path clip-path="url(#p061fa2f8f1)" d="M 972 60.48 
L 971.517164 66.262055 
L 971.036045 71.989894 
L 970.532962 77.523552 
L 970.031596 83.01909 
L 969.49041 88.233613 
L 968.932778 93.480197 
L 968.379809 98.580122 
L 967.816932 103.567704 
L 967.240826 108.360385 
L 966.654369 113.240669 
L 966.045388 118.02169 
L 965.435164 122.638191 
L 964.789429 127.154994 
L 964.143803 131.655156 
L 963.504024 135.980331 
L 962.814578 140.24386 
L 962.123683 144.5086 
L 961.410514 148.700888 
L 960.646513 152.811038 
L 959.865522 156.758744 
L 959.074185 160.62674 
L 958.247798 164.536905 
L 957.393258 168.345894 
L 956.553377 172.100698 
L 955.676073 175.815712 
L 954.773989 179.480599 
L 953.876478 182.98656 
L 952.911863 186.539892 
L 951.961223 189.979536 
L 950.99551 193.377091 
L 950.007738 196.740708 
L 949.009339 200.055804 
L 947.949369 203.300761 
L 946.91938 206.544465 
L 945.872113 209.663062 
L 944.817828 212.696297 
L 943.719266 215.69715 
L 942.642117 218.639876 
L 941.534352 221.497719 
L 940.400404 224.367846 
L 939.269006 227.210424 
L 938.110529 229.99563 
L 936.954677 232.815558 
L 935.767636 235.511648 
L 934.549146 238.182049 
L 933.314668 240.803724 
L 932.089071 243.39174 
L 930.825695 246.007644 
L 929.561624 248.527473 
L 928.239554 251.089746 
L 926.841825 253.579567 
L 925.493479 256.031126 
L 924.046611 258.467348 
L 922.60601 260.920881 
L 921.137361 263.283001 
L 919.620086 265.627875 
L 918.0554 267.965768 
L 916.440441 270.285689 
L 914.769767 272.497505 
L 913.041588 274.739166 
L 911.349188 276.942154 
L 909.549839 279.128428 
L 907.760274 281.274075 
L 905.887607 283.40618 
L 903.980409 285.479178 
L 902.025975 287.5582 
L 900.050783 289.609219 
L 898.00583 291.640383 
L 895.958775 293.606158 
L 893.843389 295.626348 
L 891.632241 297.671477 
L 889.452881 299.706203 
L 887.147718 301.703038 
L 884.839402 303.67828 
L 882.430419 305.681969 
L 880.013781 307.640082 
L 877.471877 309.5986 
L 874.857551 311.606304 
L 872.17035 313.588805 
L 869.491115 315.578242 
L 866.6554 317.516015 
L 863.800358 319.423181 
L 860.8356 321.357921 
L 857.928745 323.276958 
L 854.779987 325.190407 
L 851.611988 327.126112 
L 848.375492 329.017554 
L 845.091895 330.934765 
L 841.743364 332.787551 
L 838.326623 334.708064 
L 834.810589 336.561425 
L 831.088848 338.493272 
L 827.372775 340.398204 
L 823.561321 342.317287 
L 819.683201 344.15505 
L 815.759308 346.093038 
L 811.639844 347.977913 
L 807.423047 349.916069 
L 803.003486 351.884727 
L 798.491985 353.828293 
" style="fill:none;stroke:#17becf;stroke-linecap:square;stroke-width:1.5;"/>
   </g>
   <g id="patch_3">
    <path d="M 135 448.56 
L 135 60.48 
" style="fill:none;stroke:#000000;stroke-linecap:square;stroke-linejoin:miter;stroke-width:0.8;"/>
   </g>
   <g id="patch_4">
    <path d="M 972 448.56 
L 972 60.48 
" style="fill:none;stroke:#000000;stroke-linecap:square;stroke-linejoin:miter;stroke-width:0.8;"/>
   </g>
   <g id="patch_5">
    <path d="M 135 448.56 
L 972 448.56 
" style="fill:none;stroke:#000000;stroke-linecap:square;stroke-linejoin:miter;stroke-width:0.8;"/>
   </g>
   <g id="patch_6">
    <path d="M 135 60.48 
L 972 60.48 
" style="fill:none;stroke:#000000;stroke-linecap:square;stroke-linejoin:miter;stroke-width:0.8;"/>
   </g>
   <g id="legend_1">
    <g id="patch_7">
     <path d="M 498.934687 339.08625 
L 608.065313 339.08625 
Q 611.665313 339.08625 611.665313 335.48625 
L 611.665313 73.08 
Q 611.665313 69.48 608.065313 69.48 
L 498.934687 69.48 
Q 495.334687 69.48 495.334687 73.08 
L 495.334687 335.48625 
Q 495.334687 339.08625 498.934687 339.08625 
z
" style="fill:#ffffff;opacity:0.8;stroke:#cccccc;stroke-linejoin:miter;"/>
    </g>
    <g id="line2d_24">
     <path d="M 502.534687 84.057188 
L 538.534688 84.057188 
" style="fill:none;stroke:#1f77b4;stroke-linecap:square;stroke-width:1.5;"/>
    </g>
    <g id="line2d_25"/>
    <g id="text_15">
     <!-- 0.001 -->
     <g transform="translate(552.934687 90.357188)scale(0.18 -0.18)">
      <use xlink:href="#DejaVuSans-30"/>
      <use x="63.623047" xlink:href="#DejaVuSans-2e"/>
      <use x="95.410156" xlink:href="#DejaVuSans-30"/>
      <use x="159.033203" xlink:href="#DejaVuSans-30"/>
      <use x="222.65625" xlink:href="#DejaVuSans-31"/>
     </g>
    </g>
    <g id="line2d_26">
     <path d="M 502.534687 110.477812 
L 538.534688 110.477812 
" style="fill:none;stroke:#ff7f0e;stroke-linecap:square;stroke-width:1.5;"/>
    </g>
    <g id="line2d_27"/>
    <g id="text_16">
     <!-- 0.011 -->
     <g transform="translate(552.934687 116.777812)scale(0.18 -0.18)">
      <use xlink:href="#DejaVuSans-30"/>
      <use x="63.623047" xlink:href="#DejaVuSans-2e"/>
      <use x="95.410156" xlink:href="#DejaVuSans-30"/>
      <use x="159.033203" xlink:href="#DejaVuSans-31"/>
      <use x="222.65625" xlink:href="#DejaVuSans-31"/>
     </g>
    </g>
    <g id="line2d_28">
     <path d="M 502.534687 136.898438 
L 538.534688 136.898438 
" style="fill:none;stroke:#2ca02c;stroke-linecap:square;stroke-width:1.5;"/>
    </g>
    <g id="line2d_29"/>
    <g id="text_17">
     <!-- 0.021 -->
     <g transform="translate(552.934687 143.198438)scale(0.18 -0.18)">
      <use xlink:href="#DejaVuSans-30"/>
      <use x="63.623047" xlink:href="#DejaVuSans-2e"/>
      <use x="95.410156" xlink:href="#DejaVuSans-30"/>
      <use x="159.033203" xlink:href="#DejaVuSans-32"/>
      <use x="222.65625" xlink:href="#DejaVuSans-31"/>
     </g>
    </g>
    <g id="line2d_30">
     <path d="M 502.534687 163.319062 
L 538.534688 163.319062 
" style="fill:none;stroke:#d62728;stroke-linecap:square;stroke-width:1.5;"/>
    </g>
    <g id="line2d_31"/>
    <g id="text_18">
     <!-- 0.031 -->
     <g transform="translate(552.934687 169.619062)scale(0.18 -0.18)">
      <defs>
       <path d="M 2597 2516 
Q 3050 2419 3304 2112 
Q 3559 1806 3559 1356 
Q 3559 666 3084 287 
Q 2609 -91 1734 -91 
Q 1441 -91 1130 -33 
Q 819 25 488 141 
L 488 750 
Q 750 597 1062 519 
Q 1375 441 1716 441 
Q 2309 441 2620 675 
Q 2931 909 2931 1356 
Q 2931 1769 2642 2001 
Q 2353 2234 1838 2234 
L 1294 2234 
L 1294 2753 
L 1863 2753 
Q 2328 2753 2575 2939 
Q 2822 3125 2822 3475 
Q 2822 3834 2567 4026 
Q 2313 4219 1838 4219 
Q 1578 4219 1281 4162 
Q 984 4106 628 3988 
L 628 4550 
Q 988 4650 1302 4700 
Q 1616 4750 1894 4750 
Q 2613 4750 3031 4423 
Q 3450 4097 3450 3541 
Q 3450 3153 3228 2886 
Q 3006 2619 2597 2516 
z
" id="DejaVuSans-33" transform="scale(0.015625)"/>
      </defs>
      <use xlink:href="#DejaVuSans-30"/>
      <use x="63.623047" xlink:href="#DejaVuSans-2e"/>
      <use x="95.410156" xlink:href="#DejaVuSans-30"/>
      <use x="159.033203" xlink:href="#DejaVuSans-33"/>
      <use x="222.65625" xlink:href="#DejaVuSans-31"/>
     </g>
    </g>
    <g id="line2d_32">
     <path d="M 502.534687 189.739688 
L 538.534688 189.739688 
" style="fill:none;stroke:#9467bd;stroke-linecap:square;stroke-width:1.5;"/>
    </g>
    <g id="line2d_33"/>
    <g id="text_19">
     <!-- 0.041 -->
     <g transform="translate(552.934687 196.039688)scale(0.18 -0.18)">
      <use xlink:href="#DejaVuSans-30"/>
      <use x="63.623047" xlink:href="#DejaVuSans-2e"/>
      <use x="95.410156" xlink:href="#DejaVuSans-30"/>
      <use x="159.033203" xlink:href="#DejaVuSans-34"/>
      <use x="222.65625" xlink:href="#DejaVuSans-31"/>
     </g>
    </g>
    <g id="line2d_34">
     <path d="M 502.534687 216.160312 
L 538.534688 216.160312 
" style="fill:none;stroke:#8c564b;stroke-linecap:square;stroke-width:1.5;"/>
    </g>
    <g id="line2d_35"/>
    <g id="text_20">
     <!-- 0.051 -->
     <g transform="translate(552.934687 222.460312)scale(0.18 -0.18)">
      <defs>
       <path d="M 691 4666 
L 3169 4666 
L 3169 4134 
L 1269 4134 
L 1269 2991 
Q 1406 3038 1543 3061 
Q 1681 3084 1819 3084 
Q 2600 3084 3056 2656 
Q 3513 2228 3513 1497 
Q 3513 744 3044 326 
Q 2575 -91 1722 -91 
Q 1428 -91 1123 -41 
Q 819 9 494 109 
L 494 744 
Q 775 591 1075 516 
Q 1375 441 1709 441 
Q 2250 441 2565 725 
Q 2881 1009 2881 1497 
Q 2881 1984 2565 2268 
Q 2250 2553 1709 2553 
Q 1456 2553 1204 2497 
Q 953 2441 691 2322 
L 691 4666 
z
" id="DejaVuSans-35" transform="scale(0.015625)"/>
      </defs>
      <use xlink:href="#DejaVuSans-30"/>
      <use x="63.623047" xlink:href="#DejaVuSans-2e"/>
      <use x="95.410156" xlink:href="#DejaVuSans-30"/>
      <use x="159.033203" xlink:href="#DejaVuSans-35"/>
      <use x="222.65625" xlink:href="#DejaVuSans-31"/>
     </g>
    </g>
    <g id="line2d_36">
     <path d="M 502.534687 242.580937 
L 538.534688 242.580937 
" style="fill:none;stroke:#e377c2;stroke-linecap:square;stroke-width:1.5;"/>
    </g>
    <g id="line2d_37"/>
    <g id="text_21">
     <!-- 0.061 -->
     <g transform="translate(552.934687 248.880937)scale(0.18 -0.18)">
      <use xlink:href="#DejaVuSans-30"/>
      <use x="63.623047" xlink:href="#DejaVuSans-2e"/>
      <use x="95.410156" xlink:href="#DejaVuSans-30"/>
      <use x="159.033203" xlink:href="#DejaVuSans-36"/>
      <use x="222.65625" xlink:href="#DejaVuSans-31"/>
     </g>
    </g>
    <g id="line2d_38">
     <path d="M 502.534687 269.001562 
L 538.534688 269.001562 
" style="fill:none;stroke:#7f7f7f;stroke-linecap:square;stroke-width:1.5;"/>
    </g>
    <g id="line2d_39"/>
    <g id="text_22">
     <!-- 0.071 -->
     <g transform="translate(552.934687 275.301562)scale(0.18 -0.18)">
      <defs>
       <path d="M 525 4666 
L 3525 4666 
L 3525 4397 
L 1831 0 
L 1172 0 
L 2766 4134 
L 525 4134 
L 525 4666 
z
" id="DejaVuSans-37" transform="scale(0.015625)"/>
      </defs>
      <use xlink:href="#DejaVuSans-30"/>
      <use x="63.623047" xlink:href="#DejaVuSans-2e"/>
      <use x="95.410156" xlink:href="#DejaVuSans-30"/>
      <use x="159.033203" xlink:href="#DejaVuSans-37"/>
      <use x="222.65625" xlink:href="#DejaVuSans-31"/>
     </g>
    </g>
    <g id="line2d_40">
     <path d="M 502.534687 295.422188 
L 538.534688 295.422188 
" style="fill:none;stroke:#bcbd22;stroke-linecap:square;stroke-width:1.5;"/>
    </g>
    <g id="line2d_41"/>
    <g id="text_23">
     <!-- 0.081 -->
     <g transform="translate(552.934687 301.722188)scale(0.18 -0.18)">
      <use xlink:href="#DejaVuSans-30"/>
      <use x="63.623047" xlink:href="#DejaVuSans-2e"/>
      <use x="95.410156" xlink:href="#DejaVuSans-30"/>
      <use x="159.033203" xlink:href="#DejaVuSans-38"/>
      <use x="222.65625" xlink:href="#DejaVuSans-31"/>
     </g>
    </g>
    <g id="line2d_42">
     <path d="M 502.534687 321.842812 
L 538.534688 321.842812 
" style="fill:none;stroke:#17becf;stroke-linecap:square;stroke-width:1.5;"/>
    </g>
    <g id="line2d_43"/>
    <g id="text_24">
     <!-- 0.091 -->
     <g transform="translate(552.934687 328.142812)scale(0.18 -0.18)">
      <defs>
       <path d="M 703 97 
L 703 672 
Q 941 559 1184 500 
Q 1428 441 1663 441 
Q 2288 441 2617 861 
Q 2947 1281 2994 2138 
Q 2813 1869 2534 1725 
Q 2256 1581 1919 1581 
Q 1219 1581 811 2004 
Q 403 2428 403 3163 
Q 403 3881 828 4315 
Q 1253 4750 1959 4750 
Q 2769 4750 3195 4129 
Q 3622 3509 3622 2328 
Q 3622 1225 3098 567 
Q 2575 -91 1691 -91 
Q 1453 -91 1209 -44 
Q 966 3 703 97 
z
M 1959 2075 
Q 2384 2075 2632 2365 
Q 2881 2656 2881 3163 
Q 2881 3666 2632 3958 
Q 2384 4250 1959 4250 
Q 1534 4250 1286 3958 
Q 1038 3666 1038 3163 
Q 1038 2656 1286 2365 
Q 1534 2075 1959 2075 
z
" id="DejaVuSans-39" transform="scale(0.015625)"/>
      </defs>
      <use xlink:href="#DejaVuSans-30"/>
      <use x="63.623047" xlink:href="#DejaVuSans-2e"/>
      <use x="95.410156" xlink:href="#DejaVuSans-30"/>
      <use x="159.033203" xlink:href="#DejaVuSans-39"/>
      <use x="222.65625" xlink:href="#DejaVuSans-31"/>
     </g>
    </g>
   </g>
  </g>
 </g>
 <defs>
  <clipPath id="p061fa2f8f1">
   <rect height="388.08" width="837" x="135" y="60.48"/>
  </clipPath>
 </defs>
</svg>
