<?xml version="1.0" encoding="utf-8" standalone="no"?>
<!DOCTYPE svg PUBLIC "-//W3C//DTD SVG 1.1//EN"
  "http://www.w3.org/Graphics/SVG/1.1/DTD/svg11.dtd">
<svg height="504pt" version="1.1" viewBox="0 0 1080 504" width="1080pt" xmlns="http://www.w3.org/2000/svg" xmlns:xlink="http://www.w3.org/1999/xlink">
 <metadata>
  <rdf:RDF xmlns:cc="http://creativecommons.org/ns#" xmlns:dc="http://purl.org/dc/elements/1.1/" xmlns:rdf="http://www.w3.org/1999/02/22-rdf-syntax-ns#">
   <cc:Work>
    <dc:type rdf:resource="http://purl.org/dc/dcmitype/StillImage"/>
    <dc:date>2022-01-07T13:24:53.617289</dc:date>
    <dc:format>image/svg+xml</dc:format>
    <dc:creator>
     <cc:Agent>
      <dc:title>Matplotlib v3.4.3, https://matplotlib.org/</dc:title>
     </cc:Agent>
    </dc:creator>
   </cc:Work>
  </rdf:RDF>
 </metadata>
 <defs>
  <style type="text/css">*{stroke-linecap:butt;stroke-linejoin:round;}</style>
 </defs>
 <g id="figure_1">
  <g id="patch_1">
   <path d="M 0 504 
L 1080 504 
L 1080 0 
L 0 0 
z
" style="fill:#ffffff;"/>
  </g>
  <g id="axes_1">
   <g id="patch_2">
    <path d="M 135 448.56 
L 972 448.56 
L 972 60.48 
L 135 60.48 
z
" style="fill:#ffffff;"/>
   </g>
   <g id="matplotlib.axis_1">
    <g id="xtick_1">
     <g id="line2d_1">
      <defs>
       <path d="M 0 0 
L 0 3.5 
" id="ma56ced3925" style="stroke:#000000;stroke-width:0.8;"/>
      </defs>
      <g>
       <use style="stroke:#000000;stroke-width:0.8;" x="135" xlink:href="#ma56ced3925" y="448.56"/>
      </g>
     </g>
     <g id="text_1">
      <!-- 0.0 -->
      <g transform="translate(120.687187 469.237188)scale(0.18 -0.18)">
       <defs>
        <path d="M 2034 4250 
Q 1547 4250 1301 3770 
Q 1056 3291 1056 2328 
Q 1056 1369 1301 889 
Q 1547 409 2034 409 
Q 2525 409 2770 889 
Q 3016 1369 3016 2328 
Q 3016 3291 2770 3770 
Q 2525 4250 2034 4250 
z
M 2034 4750 
Q 2819 4750 3233 4129 
Q 3647 3509 3647 2328 
Q 3647 1150 3233 529 
Q 2819 -91 2034 -91 
Q 1250 -91 836 529 
Q 422 1150 422 2328 
Q 422 3509 836 4129 
Q 1250 4750 2034 4750 
z
" id="DejaVuSans-30" transform="scale(0.015625)"/>
        <path d="M 684 794 
L 1344 794 
L 1344 0 
L 684 0 
L 684 794 
z
" id="DejaVuSans-2e" transform="scale(0.015625)"/>
       </defs>
       <use xlink:href="#DejaVuSans-30"/>
       <use x="63.623047" xlink:href="#DejaVuSans-2e"/>
       <use x="95.410156" xlink:href="#DejaVuSans-30"/>
      </g>
     </g>
    </g>
    <g id="xtick_2">
     <g id="line2d_2">
      <g>
       <use style="stroke:#000000;stroke-width:0.8;" x="302.4" xlink:href="#ma56ced3925" y="448.56"/>
      </g>
     </g>
     <g id="text_2">
      <!-- 0.2 -->
      <g transform="translate(288.087187 469.237188)scale(0.18 -0.18)">
       <defs>
        <path d="M 1228 531 
L 3431 531 
L 3431 0 
L 469 0 
L 469 531 
Q 828 903 1448 1529 
Q 2069 2156 2228 2338 
Q 2531 2678 2651 2914 
Q 2772 3150 2772 3378 
Q 2772 3750 2511 3984 
Q 2250 4219 1831 4219 
Q 1534 4219 1204 4116 
Q 875 4013 500 3803 
L 500 4441 
Q 881 4594 1212 4672 
Q 1544 4750 1819 4750 
Q 2544 4750 2975 4387 
Q 3406 4025 3406 3419 
Q 3406 3131 3298 2873 
Q 3191 2616 2906 2266 
Q 2828 2175 2409 1742 
Q 1991 1309 1228 531 
z
" id="DejaVuSans-32" transform="scale(0.015625)"/>
       </defs>
       <use xlink:href="#DejaVuSans-30"/>
       <use x="63.623047" xlink:href="#DejaVuSans-2e"/>
       <use x="95.410156" xlink:href="#DejaVuSans-32"/>
      </g>
     </g>
    </g>
    <g id="xtick_3">
     <g id="line2d_3">
      <g>
       <use style="stroke:#000000;stroke-width:0.8;" x="469.8" xlink:href="#ma56ced3925" y="448.56"/>
      </g>
     </g>
     <g id="text_3">
      <!-- 0.4 -->
      <g transform="translate(455.487188 469.237188)scale(0.18 -0.18)">
       <defs>
        <path d="M 2419 4116 
L 825 1625 
L 2419 1625 
L 2419 4116 
z
M 2253 4666 
L 3047 4666 
L 3047 1625 
L 3713 1625 
L 3713 1100 
L 3047 1100 
L 3047 0 
L 2419 0 
L 2419 1100 
L 313 1100 
L 313 1709 
L 2253 4666 
z
" id="DejaVuSans-34" transform="scale(0.015625)"/>
       </defs>
       <use xlink:href="#DejaVuSans-30"/>
       <use x="63.623047" xlink:href="#DejaVuSans-2e"/>
       <use x="95.410156" xlink:href="#DejaVuSans-34"/>
      </g>
     </g>
    </g>
    <g id="xtick_4">
     <g id="line2d_4">
      <g>
       <use style="stroke:#000000;stroke-width:0.8;" x="637.2" xlink:href="#ma56ced3925" y="448.56"/>
      </g>
     </g>
     <g id="text_4">
      <!-- 0.6 -->
      <g transform="translate(622.887188 469.237188)scale(0.18 -0.18)">
       <defs>
        <path d="M 2113 2584 
Q 1688 2584 1439 2293 
Q 1191 2003 1191 1497 
Q 1191 994 1439 701 
Q 1688 409 2113 409 
Q 2538 409 2786 701 
Q 3034 994 3034 1497 
Q 3034 2003 2786 2293 
Q 2538 2584 2113 2584 
z
M 3366 4563 
L 3366 3988 
Q 3128 4100 2886 4159 
Q 2644 4219 2406 4219 
Q 1781 4219 1451 3797 
Q 1122 3375 1075 2522 
Q 1259 2794 1537 2939 
Q 1816 3084 2150 3084 
Q 2853 3084 3261 2657 
Q 3669 2231 3669 1497 
Q 3669 778 3244 343 
Q 2819 -91 2113 -91 
Q 1303 -91 875 529 
Q 447 1150 447 2328 
Q 447 3434 972 4092 
Q 1497 4750 2381 4750 
Q 2619 4750 2861 4703 
Q 3103 4656 3366 4563 
z
" id="DejaVuSans-36" transform="scale(0.015625)"/>
       </defs>
       <use xlink:href="#DejaVuSans-30"/>
       <use x="63.623047" xlink:href="#DejaVuSans-2e"/>
       <use x="95.410156" xlink:href="#DejaVuSans-36"/>
      </g>
     </g>
    </g>
    <g id="xtick_5">
     <g id="line2d_5">
      <g>
       <use style="stroke:#000000;stroke-width:0.8;" x="804.6" xlink:href="#ma56ced3925" y="448.56"/>
      </g>
     </g>
     <g id="text_5">
      <!-- 0.8 -->
      <g transform="translate(790.287188 469.237188)scale(0.18 -0.18)">
       <defs>
        <path d="M 2034 2216 
Q 1584 2216 1326 1975 
Q 1069 1734 1069 1313 
Q 1069 891 1326 650 
Q 1584 409 2034 409 
Q 2484 409 2743 651 
Q 3003 894 3003 1313 
Q 3003 1734 2745 1975 
Q 2488 2216 2034 2216 
z
M 1403 2484 
Q 997 2584 770 2862 
Q 544 3141 544 3541 
Q 544 4100 942 4425 
Q 1341 4750 2034 4750 
Q 2731 4750 3128 4425 
Q 3525 4100 3525 3541 
Q 3525 3141 3298 2862 
Q 3072 2584 2669 2484 
Q 3125 2378 3379 2068 
Q 3634 1759 3634 1313 
Q 3634 634 3220 271 
Q 2806 -91 2034 -91 
Q 1263 -91 848 271 
Q 434 634 434 1313 
Q 434 1759 690 2068 
Q 947 2378 1403 2484 
z
M 1172 3481 
Q 1172 3119 1398 2916 
Q 1625 2713 2034 2713 
Q 2441 2713 2670 2916 
Q 2900 3119 2900 3481 
Q 2900 3844 2670 4047 
Q 2441 4250 2034 4250 
Q 1625 4250 1398 4047 
Q 1172 3844 1172 3481 
z
" id="DejaVuSans-38" transform="scale(0.015625)"/>
       </defs>
       <use xlink:href="#DejaVuSans-30"/>
       <use x="63.623047" xlink:href="#DejaVuSans-2e"/>
       <use x="95.410156" xlink:href="#DejaVuSans-38"/>
      </g>
     </g>
    </g>
    <g id="xtick_6">
     <g id="line2d_6">
      <g>
       <use style="stroke:#000000;stroke-width:0.8;" x="972" xlink:href="#ma56ced3925" y="448.56"/>
      </g>
     </g>
     <g id="text_6">
      <!-- 1.0 -->
      <g transform="translate(957.687188 469.237188)scale(0.18 -0.18)">
       <defs>
        <path d="M 794 531 
L 1825 531 
L 1825 4091 
L 703 3866 
L 703 4441 
L 1819 4666 
L 2450 4666 
L 2450 531 
L 3481 531 
L 3481 0 
L 794 0 
L 794 531 
z
" id="DejaVuSans-31" transform="scale(0.015625)"/>
       </defs>
       <use xlink:href="#DejaVuSans-31"/>
       <use x="63.623047" xlink:href="#DejaVuSans-2e"/>
       <use x="95.410156" xlink:href="#DejaVuSans-30"/>
      </g>
     </g>
    </g>
    <g id="text_7">
     <!-- $FPR_{Fair}$ -->
     <g transform="translate(518.08 493.697187)scale(0.22 -0.22)">
      <defs>
       <path d="M 1081 4666 
L 3756 4666 
L 3653 4134 
L 1606 4134 
L 1338 2759 
L 3188 2759 
L 3084 2228 
L 1234 2228 
L 800 0 
L 172 0 
L 1081 4666 
z
" id="DejaVuSans-Oblique-46" transform="scale(0.015625)"/>
       <path d="M 1081 4666 
L 2541 4666 
Q 3178 4666 3512 4369 
Q 3847 4072 3847 3500 
Q 3847 2731 3353 2303 
Q 2859 1875 1966 1875 
L 1172 1875 
L 806 0 
L 172 0 
L 1081 4666 
z
M 1613 4147 
L 1275 2394 
L 2069 2394 
Q 2606 2394 2893 2669 
Q 3181 2944 3181 3456 
Q 3181 3784 2986 3965 
Q 2791 4147 2438 4147 
L 1613 4147 
z
" id="DejaVuSans-Oblique-50" transform="scale(0.015625)"/>
       <path d="M 1613 4147 
L 1294 2491 
L 2106 2491 
Q 2584 2491 2879 2755 
Q 3175 3019 3175 3444 
Q 3175 3784 2976 3965 
Q 2778 4147 2406 4147 
L 1613 4147 
z
M 2772 2241 
Q 2972 2194 3105 2009 
Q 3238 1825 3413 1275 
L 3809 0 
L 3144 0 
L 2778 1197 
Q 2638 1659 2453 1815 
Q 2269 1972 1888 1972 
L 1191 1972 
L 806 0 
L 172 0 
L 1081 4666 
L 2503 4666 
Q 3150 4666 3495 4373 
Q 3841 4081 3841 3531 
Q 3841 3044 3547 2687 
Q 3253 2331 2772 2241 
z
" id="DejaVuSans-Oblique-52" transform="scale(0.015625)"/>
       <path d="M 3438 1997 
L 3047 0 
L 2472 0 
L 2578 531 
Q 2325 219 2001 64 
Q 1678 -91 1281 -91 
Q 834 -91 548 182 
Q 263 456 263 884 
Q 263 1497 752 1853 
Q 1241 2209 2100 2209 
L 2900 2209 
L 2931 2363 
Q 2938 2388 2941 2417 
Q 2944 2447 2944 2509 
Q 2944 2788 2717 2942 
Q 2491 3097 2081 3097 
Q 1800 3097 1504 3025 
Q 1209 2953 897 2809 
L 997 3341 
Q 1322 3463 1633 3523 
Q 1944 3584 2234 3584 
Q 2853 3584 3176 3315 
Q 3500 3047 3500 2534 
Q 3500 2431 3484 2292 
Q 3469 2153 3438 1997 
z
M 2816 1759 
L 2241 1759 
Q 1534 1759 1195 1570 
Q 856 1381 856 984 
Q 856 709 1029 553 
Q 1203 397 1509 397 
Q 1978 397 2328 733 
Q 2678 1069 2791 1631 
L 2816 1759 
z
" id="DejaVuSans-Oblique-61" transform="scale(0.015625)"/>
       <path d="M 1172 4863 
L 1747 4863 
L 1606 4134 
L 1031 4134 
L 1172 4863 
z
M 909 3500 
L 1484 3500 
L 800 0 
L 225 0 
L 909 3500 
z
" id="DejaVuSans-Oblique-69" transform="scale(0.015625)"/>
       <path d="M 2853 2969 
Q 2766 3016 2653 3041 
Q 2541 3066 2413 3066 
Q 1953 3066 1609 2717 
Q 1266 2369 1153 1784 
L 800 0 
L 225 0 
L 909 3500 
L 1484 3500 
L 1375 2956 
Q 1603 3259 1920 3421 
Q 2238 3584 2597 3584 
Q 2691 3584 2781 3573 
Q 2872 3563 2963 3538 
L 2853 2969 
z
" id="DejaVuSans-Oblique-72" transform="scale(0.015625)"/>
      </defs>
      <use transform="translate(0 0.09375)" xlink:href="#DejaVuSans-Oblique-46"/>
      <use transform="translate(57.519531 0.09375)" xlink:href="#DejaVuSans-Oblique-50"/>
      <use transform="translate(117.822266 0.09375)" xlink:href="#DejaVuSans-Oblique-52"/>
      <use transform="translate(187.304688 -16.3125)scale(0.7)" xlink:href="#DejaVuSans-Oblique-46"/>
      <use transform="translate(227.568359 -16.3125)scale(0.7)" xlink:href="#DejaVuSans-Oblique-61"/>
      <use transform="translate(270.463867 -16.3125)scale(0.7)" xlink:href="#DejaVuSans-Oblique-69"/>
      <use transform="translate(289.912109 -16.3125)scale(0.7)" xlink:href="#DejaVuSans-Oblique-72"/>
     </g>
    </g>
   </g>
   <g id="matplotlib.axis_2">
    <g id="ytick_1">
     <g id="line2d_7">
      <defs>
       <path d="M 0 0 
L -3.5 0 
" id="m10cbd976df" style="stroke:#000000;stroke-width:0.8;"/>
      </defs>
      <g>
       <use style="stroke:#000000;stroke-width:0.8;" x="135" xlink:href="#m10cbd976df" y="448.56"/>
      </g>
     </g>
     <g id="text_8">
      <!-- 0.0 -->
      <g transform="translate(99.374375 455.398594)scale(0.18 -0.18)">
       <use xlink:href="#DejaVuSans-30"/>
       <use x="63.623047" xlink:href="#DejaVuSans-2e"/>
       <use x="95.410156" xlink:href="#DejaVuSans-30"/>
      </g>
     </g>
    </g>
    <g id="ytick_2">
     <g id="line2d_8">
      <g>
       <use style="stroke:#000000;stroke-width:0.8;" x="135" xlink:href="#m10cbd976df" y="370.944"/>
      </g>
     </g>
     <g id="text_9">
      <!-- 0.2 -->
      <g transform="translate(99.374375 377.782594)scale(0.18 -0.18)">
       <use xlink:href="#DejaVuSans-30"/>
       <use x="63.623047" xlink:href="#DejaVuSans-2e"/>
       <use x="95.410156" xlink:href="#DejaVuSans-32"/>
      </g>
     </g>
    </g>
    <g id="ytick_3">
     <g id="line2d_9">
      <g>
       <use style="stroke:#000000;stroke-width:0.8;" x="135" xlink:href="#m10cbd976df" y="293.328"/>
      </g>
     </g>
     <g id="text_10">
      <!-- 0.4 -->
      <g transform="translate(99.374375 300.166594)scale(0.18 -0.18)">
       <use xlink:href="#DejaVuSans-30"/>
       <use x="63.623047" xlink:href="#DejaVuSans-2e"/>
       <use x="95.410156" xlink:href="#DejaVuSans-34"/>
      </g>
     </g>
    </g>
    <g id="ytick_4">
     <g id="line2d_10">
      <g>
       <use style="stroke:#000000;stroke-width:0.8;" x="135" xlink:href="#m10cbd976df" y="215.712"/>
      </g>
     </g>
     <g id="text_11">
      <!-- 0.6 -->
      <g transform="translate(99.374375 222.550594)scale(0.18 -0.18)">
       <use xlink:href="#DejaVuSans-30"/>
       <use x="63.623047" xlink:href="#DejaVuSans-2e"/>
       <use x="95.410156" xlink:href="#DejaVuSans-36"/>
      </g>
     </g>
    </g>
    <g id="ytick_5">
     <g id="line2d_11">
      <g>
       <use style="stroke:#000000;stroke-width:0.8;" x="135" xlink:href="#m10cbd976df" y="138.096"/>
      </g>
     </g>
     <g id="text_12">
      <!-- 0.8 -->
      <g transform="translate(99.374375 144.934594)scale(0.18 -0.18)">
       <use xlink:href="#DejaVuSans-30"/>
       <use x="63.623047" xlink:href="#DejaVuSans-2e"/>
       <use x="95.410156" xlink:href="#DejaVuSans-38"/>
      </g>
     </g>
    </g>
    <g id="ytick_6">
     <g id="line2d_12">
      <g>
       <use style="stroke:#000000;stroke-width:0.8;" x="135" xlink:href="#m10cbd976df" y="60.48"/>
      </g>
     </g>
     <g id="text_13">
      <!-- 1.0 -->
      <g transform="translate(99.374375 67.318594)scale(0.18 -0.18)">
       <use xlink:href="#DejaVuSans-31"/>
       <use x="63.623047" xlink:href="#DejaVuSans-2e"/>
       <use x="95.410156" xlink:href="#DejaVuSans-30"/>
      </g>
     </g>
    </g>
    <g id="text_14">
     <!-- $TPR_{Fair}$ -->
     <g transform="translate(90.799062 290.27)rotate(-90)scale(0.22 -0.22)">
      <defs>
       <path d="M 378 4666 
L 4325 4666 
L 4225 4134 
L 2559 4134 
L 1759 0 
L 1125 0 
L 1925 4134 
L 275 4134 
L 378 4666 
z
" id="DejaVuSans-Oblique-54" transform="scale(0.015625)"/>
      </defs>
      <use transform="translate(0 0.09375)" xlink:href="#DejaVuSans-Oblique-54"/>
      <use transform="translate(61.083984 0.09375)" xlink:href="#DejaVuSans-Oblique-50"/>
      <use transform="translate(121.386719 0.09375)" xlink:href="#DejaVuSans-Oblique-52"/>
      <use transform="translate(190.869141 -16.3125)scale(0.7)" xlink:href="#DejaVuSans-Oblique-46"/>
      <use transform="translate(231.132812 -16.3125)scale(0.7)" xlink:href="#DejaVuSans-Oblique-61"/>
      <use transform="translate(274.02832 -16.3125)scale(0.7)" xlink:href="#DejaVuSans-Oblique-69"/>
      <use transform="translate(293.476562 -16.3125)scale(0.7)" xlink:href="#DejaVuSans-Oblique-72"/>
     </g>
    </g>
   </g>
   <g id="line2d_13">
    <path clip-path="url(#p662b0d4ba7)" d="M 135 448.56 
L 972 60.48 
" style="fill:none;stroke:#ff0000;stroke-dasharray:5.55,2.4;stroke-dashoffset:0;stroke-width:1.5;"/>
   </g>
   <g id="line2d_14">
    <path clip-path="url(#p662b0d4ba7)" d="M 972 60.48 
L 220.578554 330.423882 
L 186.326327 379.235727 
L 173.008696 399.960222 
L 165.374558 410.949547 
L 160.750975 417.544771 
L 157.787957 421.921756 
L 155.765846 425.244428 
L 154.038694 428.051707 
L 152.856353 430.193291 
L 151.876771 431.736482 
L 151.076615 432.842595 
L 150.271218 433.750154 
L 149.516984 434.736378 
L 148.731622 435.594273 
L 148.08523 436.436552 
L 147.456084 437.10625 
L 147.086471 437.621543 
L 146.608431 438.092645 
L 146.184359 438.656155 
L 145.86223 439.149818 
L 145.544346 439.727733 
L 145.29745 440.040706 
L 144.963317 440.305939 
L 144.719126 440.61067 
L 144.388232 440.863124 
L 144.192308 441.137122 
L 143.92316 441.405685 
L 143.635005 441.638673 
L 143.470101 441.920749 
L 143.284632 442.160747 
L 142.964686 442.428659 
L 142.731619 442.790796 
L 142.585377 443.013942 
L 142.436695 443.349455 
L 142.257418 443.626195 
L 142.014058 443.826905 
L 141.849004 444.087506 
L 141.761059 444.370334 
L 141.643607 444.69517 
L 141.530317 444.991521 
L 141.392832 445.132007 
L 141.262604 445.176029 
L 141.161263 445.253448 
L 141.058976 445.297566 
L 140.933462 445.337088 
L 140.816539 445.371103 
L 140.726176 445.414965 
L 140.616876 445.462408 
L 140.486299 445.51108 
L 140.381015 445.55398 
L 140.281108 445.603562 
L 140.120782 445.674647 
L 140.07124 445.738655 
L 140.030113 445.773865 
L 139.940746 445.801809 
L 139.904245 445.831173 
L 139.865203 445.857282 
L 139.796487 445.909966 
L 139.765002 445.963237 
L 139.704716 446.017618 
L 139.643729 446.0433 
L 139.613888 446.074146 
L 139.527195 446.130224 
L 139.446515 446.16272 
L 139.392522 446.194219 
L 139.338972 446.218745 
L 139.308342 446.252267 
L 139.230484 446.274174 
L 139.157164 446.296566 
L 139.13399 446.316133 
L 139.107769 446.362223 
L 139.083975 446.384927 
L 139.033506 446.404939 
L 138.940656 446.424702 
L 138.916914 446.442294 
L 138.871437 446.459041 
L 138.828062 446.477062 
L 138.779926 446.515129 
L 138.735891 446.530902 
L 138.689733 446.585089 
L 138.644741 446.601698 
L 138.623961 446.636383 
L 138.605731 446.673662 
L 138.586729 446.691638 
L 138.525564 446.728174 
L 138.441721 446.763246 
L 138.356864 446.797279 
L 138.341012 446.814234 
L 138.325051 446.829308 
L 138.285744 446.84364 
L 138.269699 446.874351 
L 138.253811 446.901924 
L 138.17457 446.929035 
L 138.117279 446.954963 
L 138.078601 446.982223 
L 138.063091 446.991537 
L 138.004936 447.017287 
L 137.990101 447.026087 
L 137.954385 447.053666 
L 137.940377 447.065005 
" style="fill:none;stroke:#1f77b4;stroke-linecap:square;stroke-width:1.5;"/>
   </g>
   <g id="line2d_15">
    <path clip-path="url(#p662b0d4ba7)" d="M 972 60.48 
L 894.637426 68.486169 
L 849.358759 76.045194 
L 812.232888 84.093452 
L 781.809149 91.968121 
L 755.972308 98.736476 
L 735.837945 104.788091 
L 719.103976 111.368386 
L 705.175584 117.535694 
L 693.623855 123.441172 
L 683.13129 128.665403 
L 673.359522 132.364887 
L 664.433843 136.190514 
L 655.212264 140.3598 
L 645.534967 144.412553 
L 637.320692 148.648229 
L 629.482027 152.931026 
L 622.595685 156.156889 
L 615.016336 159.710582 
L 608.040091 163.632101 
L 601.893835 167.563387 
L 596.621701 171.760538 
L 590.805136 174.663042 
L 585.39428 177.327054 
L 580.090572 180.47767 
L 575.367403 183.177872 
L 571.061992 185.817472 
L 566.565688 188.563585 
L 562.25447 191.484119 
L 558.120305 194.129059 
L 553.387118 196.880913 
L 548.627571 199.644866 
L 544.140145 202.342011 
L 540.018782 204.696856 
L 535.792339 207.452701 
L 531.419714 209.827537 
L 526.805212 212.308254 
L 522.681349 214.796518 
L 518.899345 217.257621 
L 515.137959 219.353837 
L 511.451128 220.832018 
L 507.856232 222.515271 
L 504.487869 224.133577 
L 500.974114 225.881618 
L 497.379478 227.534305 
L 493.926231 229.005386 
L 490.656336 230.401317 
L 487.146067 232.111026 
L 484.000312 233.994285 
L 481.013106 235.981358 
L 477.955775 237.754997 
L 475.05504 239.886342 
L 471.639895 241.687728 
L 468.304736 243.368463 
L 465.402741 245.026976 
L 462.758899 246.347262 
L 460.115882 247.742469 
L 457.189012 248.994305 
L 454.269833 250.341266 
L 451.813081 251.749021 
L 449.151886 253.287498 
L 446.325687 254.661612 
L 443.881738 256.272337 
L 440.854067 257.959432 
L 438.240093 259.700792 
L 435.567982 261.402487 
L 432.957999 262.73224 
L 430.240471 264.526922 
L 427.481412 265.754094 
L 425.13217 267.052583 
L 422.824112 268.191991 
L 420.24497 269.656811 
L 417.951944 270.991582 
L 415.399132 272.199068 
L 413.195276 273.389404 
L 410.657771 274.494814 
L 408.314558 275.570715 
L 406.131346 276.726849 
L 403.593933 277.878618 
L 401.209481 278.894483 
L 398.736135 279.938164 
L 396.27618 281.02804 
L 394.015135 282.000461 
L 391.765639 283.261118 
L 389.481665 284.505548 
L 387.32147 285.710552 
L 385.023417 286.903365 
L 382.425747 288.051984 
L 380.33957 289.336958 
L 378.203856 290.449732 
L 376.092627 291.646237 
L 374.059236 292.657422 
L 372.013126 293.429851 
L 369.680798 294.22358 
L 367.771944 294.926436 
L 365.330834 295.735546 
L 363.127178 296.56325 
L 360.827306 297.307331 
L 358.790095 298.139817 
L 356.681867 299.095477 
L 354.604961 300.069359 
" style="fill:none;stroke:#ff7f0e;stroke-linecap:square;stroke-width:1.5;"/>
   </g>
   <g id="line2d_16">
    <path clip-path="url(#p662b0d4ba7)" d="M 972 60.48 
L 739.661803 97.193653 
L 638.020356 127.371722 
L 572.122265 154.144636 
L 525.504715 176.538826 
L 489.509523 194.674143 
L 464.259071 209.072388 
L 444.30966 223.16 
L 428.228808 235.831122 
L 415.206186 246.713647 
L 404.389618 255.743455 
L 394.195788 262.776515 
L 385.007488 269.360801 
L 376.283206 276.428827 
L 367.364535 282.980943 
L 360.046132 289.282591 
L 353.120567 295.703664 
L 347.074417 300.250964 
L 340.781869 305.054723 
L 335.163873 309.929985 
L 330.275313 314.872708 
L 326.009386 319.971219 
L 321.516772 323.170491 
L 317.400604 325.947801 
L 313.621567 329.258549 
L 310.141799 331.87095 
L 306.945882 334.31215 
L 303.598782 336.690413 
L 300.618947 339.30832 
L 297.775275 341.593831 
L 294.54809 343.946064 
L 291.329349 346.284687 
L 288.221559 348.564108 
L 285.657605 350.467432 
L 282.927168 352.659793 
L 280.13587 354.647301 
L 277.329987 356.61472 
L 274.83923 358.528962 
L 272.430211 360.537658 
L 270.087226 362.415537 
L 268.116614 363.706667 
L 265.931702 364.887016 
L 263.876964 365.960302 
L 261.988972 367.065785 
L 259.92779 368.210213 
L 257.991362 369.214014 
L 256.042177 370.113479 
L 254.107476 371.148109 
L 252.261884 372.346254 
L 250.765867 373.523751 
L 249.258871 374.535955 
L 247.702808 375.72394 
L 245.927711 376.840663 
L 244.338525 377.850508 
L 242.809239 378.67077 
L 241.316862 379.4427 
L 239.953527 380.253049 
L 238.579745 380.952037 
L 237.14011 381.646595 
L 236.013847 382.44674 
L 234.846793 383.262894 
L 233.381775 384.027679 
L 232.191398 384.8821 
L 230.897463 385.795739 
L 229.692266 386.692477 
L 228.390021 387.569787 
L 227.223547 388.245832 
L 226.113942 389.258161 
L 224.781111 389.971243 
L 223.726921 390.830249 
L 222.855948 391.464863 
L 221.724797 392.216913 
L 220.738191 392.874542 
L 219.682864 393.418823 
L 218.761893 393.924115 
L 217.736829 394.41152 
L 216.74059 394.963758 
L 215.951804 395.512552 
L 215.061653 396.102109 
L 214.032931 396.562292 
L 213.08935 397.050999 
L 212.16722 397.562425 
L 211.24373 398.040602 
L 210.192845 398.60285 
L 209.4 399.114274 
L 208.504001 399.632652 
L 207.605284 400.107262 
L 206.740376 400.589947 
L 205.968876 401.153633 
L 205.14352 401.601373 
L 204.175329 402.101163 
L 203.390747 402.476031 
L 202.57259 402.789234 
L 201.699832 403.10828 
L 200.950204 403.452337 
L 200.16301 403.889281 
L 199.383 404.232647 
L 198.509532 404.584648 
L 197.785416 404.872031 
L 196.967718 405.332822 
L 196.175805 405.781191 
" style="fill:none;stroke:#2ca02c;stroke-linecap:square;stroke-width:1.5;"/>
   </g>
   <g id="line2d_17">
    <path clip-path="url(#p662b0d4ba7)" d="M 972 60.48 
L 894.637426 68.486169 
L 849.358759 76.045194 
L 812.232888 84.093452 
L 781.809149 91.968121 
L 755.972308 98.736476 
L 735.837945 104.788091 
L 719.103976 111.368386 
L 705.175584 117.535694 
L 693.623855 123.441172 
L 683.13129 128.665403 
L 673.359522 132.364887 
L 664.433843 136.190514 
L 655.212264 140.3598 
L 645.534967 144.412553 
L 637.320692 148.648229 
L 629.482027 152.931026 
L 622.595685 156.156889 
L 615.016336 159.710582 
L 608.040091 163.632101 
L 601.893835 167.563387 
L 596.621701 171.760538 
L 590.805136 174.663042 
L 585.39428 177.327054 
L 580.090572 180.47767 
L 575.367403 183.177872 
L 571.061992 185.817472 
L 566.565688 188.563585 
L 562.25447 191.484119 
L 558.120305 194.129059 
L 553.387118 196.880913 
L 548.627571 199.644866 
L 544.140145 202.342011 
L 540.018782 204.696856 
L 535.792339 207.452701 
L 531.419714 209.827537 
L 526.805212 212.308254 
L 522.681349 214.796518 
L 518.899345 217.257621 
L 515.137959 219.353837 
L 511.451128 220.832018 
L 507.856232 222.515271 
L 504.487869 224.133577 
L 500.974114 225.881618 
L 497.379478 227.534305 
L 493.926231 229.005386 
L 490.656336 230.401317 
L 487.146067 232.111026 
L 484.000312 233.994285 
L 481.013106 235.981358 
L 477.955775 237.754997 
L 475.05504 239.886342 
L 471.639895 241.687728 
L 468.304736 243.368463 
L 465.402741 245.026976 
L 462.758899 246.347262 
L 460.115882 247.742469 
L 457.189012 248.994305 
L 454.269833 250.341266 
L 451.813081 251.749021 
L 449.151886 253.287498 
L 446.325687 254.661612 
L 443.881738 256.272337 
L 440.854067 257.959432 
L 438.240093 259.700792 
L 435.567982 261.402487 
L 432.957999 262.73224 
L 430.240471 264.526922 
L 427.481412 265.754094 
L 425.13217 267.052583 
L 422.824112 268.191991 
L 420.24497 269.656811 
L 417.951944 270.991582 
L 415.399132 272.199068 
L 413.195276 273.389404 
L 410.657771 274.494814 
L 408.314558 275.570715 
L 406.131346 276.726849 
L 403.593933 277.878618 
L 401.209481 278.894483 
L 398.736135 279.938164 
L 396.27618 281.02804 
L 394.015135 282.000461 
L 391.765639 283.261118 
L 389.481665 284.505548 
L 387.32147 285.710552 
L 385.023417 286.903365 
L 382.425747 288.051984 
L 380.33957 289.336958 
L 378.203856 290.449732 
L 376.092627 291.646237 
L 374.059236 292.657422 
L 372.013126 293.429851 
L 369.680798 294.22358 
L 367.771944 294.926436 
L 365.330834 295.735546 
L 363.127178 296.56325 
L 360.827306 297.307331 
L 358.790095 298.139817 
L 356.681867 299.095477 
L 354.604961 300.069359 
" style="fill:none;stroke:#d62728;stroke-linecap:square;stroke-width:1.5;"/>
   </g>
   <g id="line2d_18">
    <path clip-path="url(#p662b0d4ba7)" d="M 972 60.48 
L 830.022514 79.83791 
L 754.022487 96.922146 
L 698.758879 113.502682 
L 656.338363 128.666172 
L 621.691853 141.584892 
L 596.311233 152.356379 
L 575.463004 163.466471 
L 558.268482 173.73138 
L 544.343252 182.959892 
L 532.171857 190.817331 
L 520.884836 196.928525 
L 510.475673 202.813349 
L 500.272468 209.233753 
L 489.716328 215.330282 
L 480.820916 221.346226 
L 472.505661 227.501772 
L 465.173604 232.000206 
L 457.423642 236.858284 
L 450.409449 241.950132 
L 444.216534 247.20291 
L 438.801328 252.722678 
L 433.040404 256.306586 
L 427.595711 259.367202 
L 422.427893 263.156392 
L 417.888302 266.262513 
L 413.648495 269.162778 
L 409.269589 272.110028 
L 405.12311 275.277287 
L 401.332113 278.129963 
L 396.897328 281.072577 
L 392.477404 283.938047 
L 388.283337 286.75378 
L 384.557292 289.14054 
L 380.606074 291.880101 
L 376.694849 294.310301 
L 372.67318 296.742428 
L 369.240735 299.210887 
L 365.839183 301.70088 
L 362.622478 303.840593 
L 359.63914 305.375152 
L 356.604549 306.89323 
L 353.713823 308.323778 
L 350.852854 309.885607 
L 347.881073 311.417294 
L 345.021956 312.753827 
L 342.316631 313.970923 
L 339.403795 315.436409 
L 336.67609 317.083652 
L 334.303203 318.785204 
L 331.826429 320.307964 
L 329.400784 322.053529 
L 326.692506 323.66422 
L 324.041193 325.053241 
L 321.749742 326.360197 
L 319.605944 327.442549 
L 317.494069 328.572953 
L 315.233746 329.594353 
L 312.96017 330.6593 
L 311.143437 331.789465 
L 309.105411 333.030336 
L 306.972489 334.117293 
L 305.084311 335.362861 
L 302.977547 336.712193 
L 301.01154 338.024497 
L 298.953707 339.360963 
L 297.061083 340.383942 
L 295.171353 341.857129 
L 293.18894 342.831916 
L 291.555886 343.934294 
L 289.915499 344.871497 
L 288.032054 345.983945 
L 286.377169 346.981303 
L 284.649223 347.840289 
L 283.052171 348.666138 
L 281.365939 349.44853 
L 279.648388 350.27598 
L 278.239637 351.116892 
L 276.565236 351.964855 
L 274.822428 352.701891 
L 273.114862 353.414986 
L 271.484441 354.214569 
L 270.037644 354.973233 
L 268.396875 355.876043 
L 267.009111 356.747311 
L 265.619315 357.597644 
L 263.989128 358.419446 
L 262.363417 359.254165 
L 261.039442 360.190091 
L 259.620866 360.963848 
L 258.177791 361.76945 
L 256.961565 362.422874 
L 255.590207 362.925857 
L 254.069246 363.470028 
L 252.837049 364.001142 
L 251.366584 364.632424 
L 250.013147 365.246 
L 248.553981 365.778194 
L 247.31654 366.318286 
L 246.02739 367.04402 
L 244.728146 367.769943 
" style="fill:none;stroke:#9467bd;stroke-linecap:square;stroke-width:1.5;"/>
   </g>
   <g id="line2d_19">
    <path clip-path="url(#p662b0d4ba7)" d="M 972 60.48 
L 894.637426 68.486169 
L 849.358759 76.045194 
L 812.232888 84.093452 
L 781.809149 91.968121 
L 755.972308 98.736476 
L 735.837945 104.788091 
L 719.103976 111.368386 
L 705.175584 117.535694 
L 693.623855 123.441172 
L 683.13129 128.665403 
L 673.359522 132.364887 
L 664.433843 136.190514 
L 655.212264 140.3598 
L 645.534967 144.412553 
L 637.320692 148.648229 
L 629.482027 152.931026 
L 622.595685 156.156889 
L 615.016336 159.710582 
L 608.040091 163.632101 
L 601.893835 167.563387 
L 596.621701 171.760538 
L 590.805136 174.663042 
L 585.39428 177.327054 
L 580.090572 180.47767 
L 575.367403 183.177872 
L 571.061992 185.817472 
L 566.565688 188.563585 
L 562.25447 191.484119 
L 558.120305 194.129059 
L 553.387118 196.880913 
L 548.627571 199.644866 
L 544.140145 202.342011 
L 540.018782 204.696856 
L 535.792339 207.452701 
L 531.419714 209.827537 
L 526.805212 212.308254 
L 522.681349 214.796518 
L 518.899345 217.257621 
L 515.137959 219.353837 
L 511.451128 220.832018 
L 507.856232 222.515271 
L 504.487869 224.133577 
L 500.974114 225.881618 
L 497.379478 227.534305 
L 493.926231 229.005386 
L 490.656336 230.401317 
L 487.146067 232.111026 
L 484.000312 233.994285 
L 481.013106 235.981358 
L 477.955775 237.754997 
L 475.05504 239.886342 
L 471.639895 241.687728 
L 468.304736 243.368463 
L 465.402741 245.026976 
L 462.758899 246.347262 
L 460.115882 247.742469 
L 457.189012 248.994305 
L 454.269833 250.341266 
L 451.813081 251.749021 
L 449.151886 253.287498 
L 446.325687 254.661612 
L 443.881738 256.272337 
L 440.854067 257.959432 
L 438.240093 259.700792 
L 435.567982 261.402487 
L 432.957999 262.73224 
L 430.240471 264.526922 
L 427.481412 265.754094 
L 425.13217 267.052583 
L 422.824112 268.191991 
L 420.24497 269.656811 
L 417.951944 270.991582 
L 415.399132 272.199068 
L 413.195276 273.389404 
L 410.657771 274.494814 
L 408.314558 275.570715 
L 406.131346 276.726849 
L 403.593933 277.878618 
L 401.209481 278.894483 
L 398.736135 279.938164 
L 396.27618 281.02804 
L 394.015135 282.000461 
L 391.765639 283.261118 
L 389.481665 284.505548 
L 387.32147 285.710552 
L 385.023417 286.903365 
L 382.425747 288.051984 
L 380.33957 289.336958 
L 378.203856 290.449732 
L 376.092627 291.646237 
L 374.059236 292.657422 
L 372.013126 293.429851 
L 369.680798 294.22358 
L 367.771944 294.926436 
L 365.330834 295.735546 
L 363.127178 296.56325 
L 360.827306 297.307331 
L 358.790095 298.139817 
L 356.681867 299.095477 
L 354.604961 300.069359 
" style="fill:none;stroke:#8c564b;stroke-linecap:square;stroke-width:1.5;"/>
   </g>
   <g id="line2d_20">
    <path clip-path="url(#p662b0d4ba7)" d="M 972 60.48 
L 867.65252 73.461664 
L 807.38651 85.300552 
L 761.408048 97.204953 
L 724.61578 108.445963 
L 693.730277 118.218228 
L 670.529314 126.611911 
L 651.065105 135.430709 
L 634.887586 143.721151 
L 621.794904 151.39679 
L 610.052425 158.020393 
L 599.218737 163.047019 
L 589.130714 168.011751 
L 579.074199 173.53152 
L 568.580314 178.704397 
L 559.658331 183.950835 
L 551.391967 189.33352 
L 544.057261 193.306617 
L 536.12697 197.590505 
L 528.899721 202.211881 
L 522.528098 206.972345 
L 516.968482 212.166572 
L 510.922231 215.604128 
L 505.386513 218.532369 
L 499.957684 222.231762 
L 495.180315 225.306984 
L 490.726917 228.198974 
L 486.090178 231.164575 
L 481.669326 234.374495 
L 477.609348 237.232342 
L 472.821986 240.263823 
L 468.030202 243.205558 
L 463.485911 246.075165 
L 459.458649 248.542889 
L 455.128857 251.377356 
L 450.845379 253.867155 
L 446.379313 256.370742 
L 442.456122 258.926291 
L 438.747101 261.467361 
L 435.095762 263.665039 
L 431.627882 265.236451 
L 428.127381 266.881776 
L 424.904821 268.438732 
L 421.520026 270.142365 
L 418.098472 271.788632 
L 414.838327 273.257309 
L 411.771528 274.568413 
L 408.4615 276.24233 
L 405.432793 278.107979 
L 402.721996 280.018937 
L 399.920543 281.729429 
L 397.160431 283.74306 
L 394.000027 285.577879 
L 390.952902 287.167825 
L 388.266953 288.676444 
L 385.795123 289.906489 
L 383.33317 291.203415 
L 380.67901 292.375326 
L 377.972294 293.631816 
L 375.741871 294.966098 
L 373.335181 296.403264 
L 370.789216 297.627316 
L 368.562601 299.091806 
L 365.885736 300.659805 
L 363.610195 302.211945 
L 361.2651 303.76726 
L 359.027668 304.994791 
L 356.687684 306.696283 
L 354.279303 307.830447 
L 352.220056 309.036079 
L 350.175409 310.104203 
L 347.894854 311.433906 
L 345.906507 312.636406 
L 343.726641 313.682301 
L 341.757684 314.720932 
L 339.620502 315.681202 
L 337.598003 316.650246 
L 335.773995 317.660821 
L 333.677184 318.671935 
L 331.622892 319.578476 
L 329.508413 320.430155 
L 327.475463 321.403136 
L 325.589798 322.33248 
L 323.66821 323.407332 
L 321.823795 324.483242 
L 320.040371 325.518813 
L 318.022274 326.530383 
L 315.853017 327.545644 
L 314.16964 328.703366 
L 312.438671 329.650818 
L 310.637286 330.7399 
L 308.996011 331.573136 
L 307.322273 332.211264 
L 305.35811 332.89221 
L 303.746392 333.496165 
L 301.800564 334.232109 
L 300.087669 334.940063 
L 298.178693 335.605594 
L 296.565231 336.258408 
L 294.922345 337.112939 
L 293.180687 337.985867 
" style="fill:none;stroke:#e377c2;stroke-linecap:square;stroke-width:1.5;"/>
   </g>
   <g id="line2d_21">
    <path clip-path="url(#p662b0d4ba7)" d="M 972 60.48 
L 927.24597 62.375128 
L 899.477229 63.841031 
L 875.635387 65.655816 
L 857.03109 67.577079 
L 838.481468 69.314515 
L 824.152884 70.722815 
L 813.633578 72.67337 
L 805.65055 74.639603 
L 800.535492 76.025676 
L 795.161206 77.766057 
L 789.225552 78.727096 
L 783.14734 79.588877 
L 776.923043 80.552171 
L 771.020025 81.660853 
L 766.411369 83.004694 
L 761.498108 84.67506 
L 756.212374 85.754291 
L 751.045828 86.797529 
L 746.347064 88.01973 
L 742.568902 89.237007 
L 739.522558 91.052264 
L 736.311405 91.95582 
L 732.523041 92.690837 
L 729.073203 93.695581 
L 726.06446 94.523593 
L 723.396113 95.636481 
L 720.881288 96.741216 
L 718.199758 97.594034 
L 715.74784 98.369888 
L 712.643634 99.157084 
L 709.151437 100.222446 
L 705.911163 101.177314 
L 703.37467 101.992609 
L 700.515752 102.685671 
L 697.508446 103.868004 
L 694.281462 104.76048 
L 691.459415 105.520363 
L 688.881159 106.391896 
L 686.326409 107.158886 
L 683.739233 107.799012 
L 680.688506 108.509126 
L 677.861977 109.113917 
L 675.136281 109.606637 
L 673.009713 110.242837 
L 670.574375 110.586013 
L 668.038923 111.127182 
L 664.940073 111.822808 
L 662.325928 112.478897 
L 660.169414 113.301019 
L 658.034676 113.881176 
L 655.791038 114.840712 
L 653.179533 115.827178 
L 650.800486 116.553069 
L 648.592261 117.208026 
L 646.65053 118.019328 
L 644.322352 118.791159 
L 641.960386 119.48545 
L 639.750335 120.239286 
L 637.808758 120.932291 
L 635.5014 121.88994 
L 632.865258 122.763712 
L 630.647035 123.613057 
L 627.68652 124.616138 
L 625.551162 125.520844 
L 623.11843 126.652235 
L 620.843843 127.40772 
L 618.01016 128.112815 
L 615.361094 128.655413 
L 613.106512 129.15198 
L 610.982922 129.595853 
L 608.479668 129.929353 
L 606.203565 130.409175 
L 603.779695 130.914874 
L 601.315992 131.214236 
L 598.851306 131.644987 
L 596.498093 132.134313 
L 594.301083 132.82066 
L 591.468526 133.545558 
L 588.924433 134.094865 
L 586.389029 134.716939 
L 584.183401 135.244111 
L 582.127918 135.906491 
L 579.94088 136.665819 
L 577.70586 137.274603 
L 575.468684 137.993293 
L 572.924631 138.561527 
L 570.057864 139.076948 
L 567.754464 139.70415 
L 565.410887 140.311865 
L 562.815449 141.07772 
L 560.019125 141.71808 
L 557.453379 142.249976 
L 554.526879 142.901642 
L 552.027149 143.317218 
L 549.047872 143.78417 
L 546.428283 144.337097 
L 543.010453 144.865193 
L 539.939244 145.541988 
L 537.167258 146.198263 
L 534.5396 146.784863 
" style="fill:none;stroke:#7f7f7f;stroke-linecap:square;stroke-width:1.5;"/>
   </g>
   <g id="line2d_22">
    <path clip-path="url(#p662b0d4ba7)" d="M 972 60.48 
L 896.587804 69.01063 
L 850.99492 76.447468 
L 814.304348 84.28615 
L 784.309091 91.856577 
L 758.544236 98.729837 
L 738.47703 104.844969 
L 721.872045 111.335927 
L 707.908686 117.464253 
L 696.25823 123.253925 
L 685.79445 128.54865 
L 676.134446 132.294711 
L 666.751413 136.095472 
L 657.539375 140.482469 
L 647.650177 144.60799 
L 639.283115 148.728087 
L 631.552113 153.020806 
L 624.631963 156.224138 
L 617.142022 159.595206 
L 610.279083 163.542171 
L 604.150568 167.484666 
L 598.775236 171.680462 
L 592.930434 174.608675 
L 587.652431 177.155712 
L 582.407675 180.364385 
L 577.773778 182.942563 
L 573.423807 185.365457 
L 568.923343 188.064268 
L 564.631114 190.885872 
L 560.516603 193.502799 
L 555.740086 196.211815 
L 550.811299 198.900364 
L 546.278331 201.581826 
L 542.136121 203.942361 
L 537.777605 206.652059 
L 533.308514 208.953723 
L 528.738994 211.428228 
L 524.499376 213.920084 
L 520.62071 216.32711 
L 516.853025 218.347302 
L 513.180202 219.783672 
L 509.641104 221.411787 
L 506.305811 222.94629 
L 502.809802 224.696159 
L 499.21607 226.403325 
L 495.692169 227.873032 
L 492.424462 229.207986 
L 488.895166 230.959534 
L 485.672205 232.780308 
L 482.676556 234.758463 
L 479.670902 236.493723 
L 476.695915 238.577017 
L 473.219149 240.416432 
L 469.89053 242.043609 
L 467.00333 243.675503 
L 464.430584 244.962351 
L 461.763198 246.325909 
L 458.813183 247.548343 
L 455.765897 248.926869 
L 453.272308 250.346433 
L 450.567538 251.849886 
L 447.759278 253.155123 
L 445.23543 254.76366 
L 442.187187 256.450617 
L 439.564884 258.141529 
L 436.888766 259.873417 
L 434.243278 261.209274 
L 431.51388 263.002854 
L 428.705106 264.162996 
L 426.319914 265.436219 
L 423.969109 266.574254 
L 421.382256 268.015827 
L 419.084717 269.326265 
L 416.477882 270.440342 
L 414.190671 271.617989 
L 411.631957 272.728121 
L 409.255832 273.776376 
L 407.038708 274.938848 
L 404.551255 276.024224 
L 402.189005 277.00546 
L 399.626575 277.98635 
L 397.148343 279.060612 
L 394.934789 280.024866 
L 392.622603 281.289626 
L 390.351904 282.527406 
L 388.194104 283.699718 
L 385.943027 284.89025 
L 383.287314 286.03264 
L 381.162473 287.293554 
L 379.037753 288.362834 
L 376.88663 289.553926 
L 374.851966 290.486436 
L 372.732025 291.222795 
L 370.346885 292.030617 
L 368.393774 292.737101 
L 365.956235 293.563237 
L 363.753143 294.372872 
L 361.409399 295.124892 
L 359.341253 295.938648 
L 357.250635 296.917581 
L 355.127718 297.885314 
" style="fill:none;stroke:#bcbd22;stroke-linecap:square;stroke-width:1.5;"/>
   </g>
   <g id="line2d_23">
    <path clip-path="url(#p662b0d4ba7)" d="M 972 60.48 
L 894.637426 68.486169 
L 849.358759 76.045194 
L 812.232888 84.093452 
L 781.809149 91.968121 
L 755.972308 98.736476 
L 735.837945 104.788091 
L 719.122408 111.368386 
L 705.193269 117.535694 
L 693.640967 123.441172 
L 683.147876 128.665403 
L 673.375636 132.364887 
L 664.449546 136.190514 
L 655.227541 140.3598 
L 645.549807 144.412553 
L 637.335179 148.648229 
L 629.496179 152.931026 
L 622.609546 156.156889 
L 615.029879 159.710582 
L 608.053334 163.632101 
L 601.906842 167.563387 
L 596.634512 171.760538 
L 590.817735 174.663042 
L 585.40669 177.327054 
L 580.102789 180.47767 
L 575.379438 183.177872 
L 571.073875 185.817472 
L 566.577414 188.563585 
L 562.266063 191.484119 
L 558.131755 194.129059 
L 553.398403 196.880913 
L 548.638693 199.644866 
L 544.151117 202.342011 
L 540.029619 204.696856 
L 535.803045 207.452701 
L 531.430272 209.827537 
L 526.815622 212.308254 
L 522.691611 214.796518 
L 518.90948 217.257621 
L 515.14797 219.353837 
L 511.461011 220.832018 
L 507.866013 222.515271 
L 504.49755 224.133577 
L 500.983683 225.881618 
L 497.38894 227.534305 
L 493.935587 229.005386 
L 490.665599 230.401317 
L 487.155227 232.111026 
L 484.009388 233.994285 
L 481.022103 235.981358 
L 477.964687 237.754997 
L 475.063877 239.886342 
L 471.648642 241.687728 
L 468.313391 243.368463 
L 465.411317 245.026976 
L 462.767409 246.347262 
L 460.124328 247.742469 
L 457.197381 248.994305 
L 454.278118 250.341266 
L 451.821303 251.749021 
L 449.160037 253.287498 
L 446.333766 254.661612 
L 443.889754 256.272337 
L 440.862002 257.959432 
L 438.247963 259.700792 
L 435.575787 261.402487 
L 432.965738 262.73224 
L 430.248137 264.526922 
L 427.489011 265.754094 
L 425.139706 267.052583 
L 422.831592 268.191991 
L 420.252385 269.656811 
L 417.959298 270.991582 
L 415.406418 272.199068 
L 413.202505 273.389404 
L 410.664934 274.494814 
L 408.321663 275.570715 
L 406.138394 276.726849 
L 403.600909 277.878618 
L 401.216395 278.894483 
L 398.742979 279.938164 
L 396.282957 281.02804 
L 394.021847 282.000461 
L 391.772296 283.261118 
L 389.48826 284.505548 
L 387.328011 285.710552 
L 385.029901 286.903365 
L 382.432167 288.051984 
L 380.345937 289.336958 
L 378.216476 290.449732 
L 376.105128 291.646237 
L 374.071621 292.657422 
L 372.025398 293.429851 
L 369.692953 294.22358 
L 367.783992 294.926436 
L 365.342746 295.735546 
L 363.138972 296.56325 
L 360.838965 297.307331 
L 358.801641 298.139817 
L 356.693291 299.095477 
L 354.616276 300.069359 
" style="fill:none;stroke:#17becf;stroke-linecap:square;stroke-width:1.5;"/>
   </g>
   <g id="patch_3">
    <path d="M 135 448.56 
L 135 60.48 
" style="fill:none;stroke:#000000;stroke-linecap:square;stroke-linejoin:miter;stroke-width:0.8;"/>
   </g>
   <g id="patch_4">
    <path d="M 972 448.56 
L 972 60.48 
" style="fill:none;stroke:#000000;stroke-linecap:square;stroke-linejoin:miter;stroke-width:0.8;"/>
   </g>
   <g id="patch_5">
    <path d="M 135 448.56 
L 972 448.56 
" style="fill:none;stroke:#000000;stroke-linecap:square;stroke-linejoin:miter;stroke-width:0.8;"/>
   </g>
   <g id="patch_6">
    <path d="M 135 60.48 
L 972 60.48 
" style="fill:none;stroke:#000000;stroke-linecap:square;stroke-linejoin:miter;stroke-width:0.8;"/>
   </g>
   <g id="legend_1">
    <g id="patch_7">
     <path d="M 850.269375 439.56 
L 959.4 439.56 
Q 963 439.56 963 435.96 
L 963 173.55375 
Q 963 169.95375 959.4 169.95375 
L 850.269375 169.95375 
Q 846.669375 169.95375 846.669375 173.55375 
L 846.669375 435.96 
Q 846.669375 439.56 850.269375 439.56 
z
" style="fill:#ffffff;opacity:0.8;stroke:#cccccc;stroke-linejoin:miter;"/>
    </g>
    <g id="line2d_24">
     <path d="M 853.869375 184.530938 
L 889.869375 184.530938 
" style="fill:none;stroke:#1f77b4;stroke-linecap:square;stroke-width:1.5;"/>
    </g>
    <g id="line2d_25"/>
    <g id="text_15">
     <!-- 0.001 -->
     <g transform="translate(904.269375 190.830938)scale(0.18 -0.18)">
      <use xlink:href="#DejaVuSans-30"/>
      <use x="63.623047" xlink:href="#DejaVuSans-2e"/>
      <use x="95.410156" xlink:href="#DejaVuSans-30"/>
      <use x="159.033203" xlink:href="#DejaVuSans-30"/>
      <use x="222.65625" xlink:href="#DejaVuSans-31"/>
     </g>
    </g>
    <g id="line2d_26">
     <path d="M 853.869375 210.951563 
L 889.869375 210.951563 
" style="fill:none;stroke:#ff7f0e;stroke-linecap:square;stroke-width:1.5;"/>
    </g>
    <g id="line2d_27"/>
    <g id="text_16">
     <!-- 0.011 -->
     <g transform="translate(904.269375 217.251563)scale(0.18 -0.18)">
      <use xlink:href="#DejaVuSans-30"/>
      <use x="63.623047" xlink:href="#DejaVuSans-2e"/>
      <use x="95.410156" xlink:href="#DejaVuSans-30"/>
      <use x="159.033203" xlink:href="#DejaVuSans-31"/>
      <use x="222.65625" xlink:href="#DejaVuSans-31"/>
     </g>
    </g>
    <g id="line2d_28">
     <path d="M 853.869375 237.372188 
L 889.869375 237.372188 
" style="fill:none;stroke:#2ca02c;stroke-linecap:square;stroke-width:1.5;"/>
    </g>
    <g id="line2d_29"/>
    <g id="text_17">
     <!-- 0.021 -->
     <g transform="translate(904.269375 243.672188)scale(0.18 -0.18)">
      <use xlink:href="#DejaVuSans-30"/>
      <use x="63.623047" xlink:href="#DejaVuSans-2e"/>
      <use x="95.410156" xlink:href="#DejaVuSans-30"/>
      <use x="159.033203" xlink:href="#DejaVuSans-32"/>
      <use x="222.65625" xlink:href="#DejaVuSans-31"/>
     </g>
    </g>
    <g id="line2d_30">
     <path d="M 853.869375 263.792813 
L 889.869375 263.792813 
" style="fill:none;stroke:#d62728;stroke-linecap:square;stroke-width:1.5;"/>
    </g>
    <g id="line2d_31"/>
    <g id="text_18">
     <!-- 0.031 -->
     <g transform="translate(904.269375 270.092813)scale(0.18 -0.18)">
      <defs>
       <path d="M 2597 2516 
Q 3050 2419 3304 2112 
Q 3559 1806 3559 1356 
Q 3559 666 3084 287 
Q 2609 -91 1734 -91 
Q 1441 -91 1130 -33 
Q 819 25 488 141 
L 488 750 
Q 750 597 1062 519 
Q 1375 441 1716 441 
Q 2309 441 2620 675 
Q 2931 909 2931 1356 
Q 2931 1769 2642 2001 
Q 2353 2234 1838 2234 
L 1294 2234 
L 1294 2753 
L 1863 2753 
Q 2328 2753 2575 2939 
Q 2822 3125 2822 3475 
Q 2822 3834 2567 4026 
Q 2313 4219 1838 4219 
Q 1578 4219 1281 4162 
Q 984 4106 628 3988 
L 628 4550 
Q 988 4650 1302 4700 
Q 1616 4750 1894 4750 
Q 2613 4750 3031 4423 
Q 3450 4097 3450 3541 
Q 3450 3153 3228 2886 
Q 3006 2619 2597 2516 
z
" id="DejaVuSans-33" transform="scale(0.015625)"/>
      </defs>
      <use xlink:href="#DejaVuSans-30"/>
      <use x="63.623047" xlink:href="#DejaVuSans-2e"/>
      <use x="95.410156" xlink:href="#DejaVuSans-30"/>
      <use x="159.033203" xlink:href="#DejaVuSans-33"/>
      <use x="222.65625" xlink:href="#DejaVuSans-31"/>
     </g>
    </g>
    <g id="line2d_32">
     <path d="M 853.869375 290.213438 
L 889.869375 290.213438 
" style="fill:none;stroke:#9467bd;stroke-linecap:square;stroke-width:1.5;"/>
    </g>
    <g id="line2d_33"/>
    <g id="text_19">
     <!-- 0.041 -->
     <g transform="translate(904.269375 296.513438)scale(0.18 -0.18)">
      <use xlink:href="#DejaVuSans-30"/>
      <use x="63.623047" xlink:href="#DejaVuSans-2e"/>
      <use x="95.410156" xlink:href="#DejaVuSans-30"/>
      <use x="159.033203" xlink:href="#DejaVuSans-34"/>
      <use x="222.65625" xlink:href="#DejaVuSans-31"/>
     </g>
    </g>
    <g id="line2d_34">
     <path d="M 853.869375 316.634063 
L 889.869375 316.634063 
" style="fill:none;stroke:#8c564b;stroke-linecap:square;stroke-width:1.5;"/>
    </g>
    <g id="line2d_35"/>
    <g id="text_20">
     <!-- 0.051 -->
     <g transform="translate(904.269375 322.934063)scale(0.18 -0.18)">
      <defs>
       <path d="M 691 4666 
L 3169 4666 
L 3169 4134 
L 1269 4134 
L 1269 2991 
Q 1406 3038 1543 3061 
Q 1681 3084 1819 3084 
Q 2600 3084 3056 2656 
Q 3513 2228 3513 1497 
Q 3513 744 3044 326 
Q 2575 -91 1722 -91 
Q 1428 -91 1123 -41 
Q 819 9 494 109 
L 494 744 
Q 775 591 1075 516 
Q 1375 441 1709 441 
Q 2250 441 2565 725 
Q 2881 1009 2881 1497 
Q 2881 1984 2565 2268 
Q 2250 2553 1709 2553 
Q 1456 2553 1204 2497 
Q 953 2441 691 2322 
L 691 4666 
z
" id="DejaVuSans-35" transform="scale(0.015625)"/>
      </defs>
      <use xlink:href="#DejaVuSans-30"/>
      <use x="63.623047" xlink:href="#DejaVuSans-2e"/>
      <use x="95.410156" xlink:href="#DejaVuSans-30"/>
      <use x="159.033203" xlink:href="#DejaVuSans-35"/>
      <use x="222.65625" xlink:href="#DejaVuSans-31"/>
     </g>
    </g>
    <g id="line2d_36">
     <path d="M 853.869375 343.054688 
L 889.869375 343.054688 
" style="fill:none;stroke:#e377c2;stroke-linecap:square;stroke-width:1.5;"/>
    </g>
    <g id="line2d_37"/>
    <g id="text_21">
     <!-- 0.061 -->
     <g transform="translate(904.269375 349.354688)scale(0.18 -0.18)">
      <use xlink:href="#DejaVuSans-30"/>
      <use x="63.623047" xlink:href="#DejaVuSans-2e"/>
      <use x="95.410156" xlink:href="#DejaVuSans-30"/>
      <use x="159.033203" xlink:href="#DejaVuSans-36"/>
      <use x="222.65625" xlink:href="#DejaVuSans-31"/>
     </g>
    </g>
    <g id="line2d_38">
     <path d="M 853.869375 369.475313 
L 889.869375 369.475313 
" style="fill:none;stroke:#7f7f7f;stroke-linecap:square;stroke-width:1.5;"/>
    </g>
    <g id="line2d_39"/>
    <g id="text_22">
     <!-- 0.071 -->
     <g transform="translate(904.269375 375.775313)scale(0.18 -0.18)">
      <defs>
       <path d="M 525 4666 
L 3525 4666 
L 3525 4397 
L 1831 0 
L 1172 0 
L 2766 4134 
L 525 4134 
L 525 4666 
z
" id="DejaVuSans-37" transform="scale(0.015625)"/>
      </defs>
      <use xlink:href="#DejaVuSans-30"/>
      <use x="63.623047" xlink:href="#DejaVuSans-2e"/>
      <use x="95.410156" xlink:href="#DejaVuSans-30"/>
      <use x="159.033203" xlink:href="#DejaVuSans-37"/>
      <use x="222.65625" xlink:href="#DejaVuSans-31"/>
     </g>
    </g>
    <g id="line2d_40">
     <path d="M 853.869375 395.895938 
L 889.869375 395.895938 
" style="fill:none;stroke:#bcbd22;stroke-linecap:square;stroke-width:1.5;"/>
    </g>
    <g id="line2d_41"/>
    <g id="text_23">
     <!-- 0.081 -->
     <g transform="translate(904.269375 402.195938)scale(0.18 -0.18)">
      <use xlink:href="#DejaVuSans-30"/>
      <use x="63.623047" xlink:href="#DejaVuSans-2e"/>
      <use x="95.410156" xlink:href="#DejaVuSans-30"/>
      <use x="159.033203" xlink:href="#DejaVuSans-38"/>
      <use x="222.65625" xlink:href="#DejaVuSans-31"/>
     </g>
    </g>
    <g id="line2d_42">
     <path d="M 853.869375 422.316563 
L 889.869375 422.316563 
" style="fill:none;stroke:#17becf;stroke-linecap:square;stroke-width:1.5;"/>
    </g>
    <g id="line2d_43"/>
    <g id="text_24">
     <!-- 0.091 -->
     <g transform="translate(904.269375 428.616563)scale(0.18 -0.18)">
      <defs>
       <path d="M 703 97 
L 703 672 
Q 941 559 1184 500 
Q 1428 441 1663 441 
Q 2288 441 2617 861 
Q 2947 1281 2994 2138 
Q 2813 1869 2534 1725 
Q 2256 1581 1919 1581 
Q 1219 1581 811 2004 
Q 403 2428 403 3163 
Q 403 3881 828 4315 
Q 1253 4750 1959 4750 
Q 2769 4750 3195 4129 
Q 3622 3509 3622 2328 
Q 3622 1225 3098 567 
Q 2575 -91 1691 -91 
Q 1453 -91 1209 -44 
Q 966 3 703 97 
z
M 1959 2075 
Q 2384 2075 2632 2365 
Q 2881 2656 2881 3163 
Q 2881 3666 2632 3958 
Q 2384 4250 1959 4250 
Q 1534 4250 1286 3958 
Q 1038 3666 1038 3163 
Q 1038 2656 1286 2365 
Q 1534 2075 1959 2075 
z
" id="DejaVuSans-39" transform="scale(0.015625)"/>
      </defs>
      <use xlink:href="#DejaVuSans-30"/>
      <use x="63.623047" xlink:href="#DejaVuSans-2e"/>
      <use x="95.410156" xlink:href="#DejaVuSans-30"/>
      <use x="159.033203" xlink:href="#DejaVuSans-39"/>
      <use x="222.65625" xlink:href="#DejaVuSans-31"/>
     </g>
    </g>
   </g>
  </g>
 </g>
 <defs>
  <clipPath id="p662b0d4ba7">
   <rect height="388.08" width="837" x="135" y="60.48"/>
  </clipPath>
 </defs>
</svg>
