<?xml version="1.0" encoding="utf-8" standalone="no"?>
<!DOCTYPE svg PUBLIC "-//W3C//DTD SVG 1.1//EN"
  "http://www.w3.org/Graphics/SVG/1.1/DTD/svg11.dtd">
<svg height="504pt" version="1.1" viewBox="0 0 1080 504" width="1080pt" xmlns="http://www.w3.org/2000/svg" xmlns:xlink="http://www.w3.org/1999/xlink">
 <metadata>
  <rdf:RDF xmlns:cc="http://creativecommons.org/ns#" xmlns:dc="http://purl.org/dc/elements/1.1/" xmlns:rdf="http://www.w3.org/1999/02/22-rdf-syntax-ns#">
   <cc:Work>
    <dc:type rdf:resource="http://purl.org/dc/dcmitype/StillImage"/>
    <dc:date>2022-01-07T13:22:37.725827</dc:date>
    <dc:format>image/svg+xml</dc:format>
    <dc:creator>
     <cc:Agent>
      <dc:title>Matplotlib v3.4.3, https://matplotlib.org/</dc:title>
     </cc:Agent>
    </dc:creator>
   </cc:Work>
  </rdf:RDF>
 </metadata>
 <defs>
  <style type="text/css">*{stroke-linecap:butt;stroke-linejoin:round;}</style>
 </defs>
 <g id="figure_1">
  <g id="patch_1">
   <path d="M 0 504 
L 1080 504 
L 1080 0 
L 0 0 
z
" style="fill:#ffffff;"/>
  </g>
  <g id="axes_1">
   <g id="patch_2">
    <path d="M 135 448.56 
L 972 448.56 
L 972 60.48 
L 135 60.48 
z
" style="fill:#ffffff;"/>
   </g>
   <g id="matplotlib.axis_1">
    <g id="xtick_1">
     <g id="line2d_1">
      <defs>
       <path d="M 0 0 
L 0 3.5 
" id="m395fdb662a" style="stroke:#000000;stroke-width:0.8;"/>
      </defs>
      <g>
       <use style="stroke:#000000;stroke-width:0.8;" x="135" xlink:href="#m395fdb662a" y="448.56"/>
      </g>
     </g>
     <g id="text_1">
      <!-- 0.0 -->
      <g transform="translate(120.687187 469.237188)scale(0.18 -0.18)">
       <defs>
        <path d="M 2034 4250 
Q 1547 4250 1301 3770 
Q 1056 3291 1056 2328 
Q 1056 1369 1301 889 
Q 1547 409 2034 409 
Q 2525 409 2770 889 
Q 3016 1369 3016 2328 
Q 3016 3291 2770 3770 
Q 2525 4250 2034 4250 
z
M 2034 4750 
Q 2819 4750 3233 4129 
Q 3647 3509 3647 2328 
Q 3647 1150 3233 529 
Q 2819 -91 2034 -91 
Q 1250 -91 836 529 
Q 422 1150 422 2328 
Q 422 3509 836 4129 
Q 1250 4750 2034 4750 
z
" id="DejaVuSans-30" transform="scale(0.015625)"/>
        <path d="M 684 794 
L 1344 794 
L 1344 0 
L 684 0 
L 684 794 
z
" id="DejaVuSans-2e" transform="scale(0.015625)"/>
       </defs>
       <use xlink:href="#DejaVuSans-30"/>
       <use x="63.623047" xlink:href="#DejaVuSans-2e"/>
       <use x="95.410156" xlink:href="#DejaVuSans-30"/>
      </g>
     </g>
    </g>
    <g id="xtick_2">
     <g id="line2d_2">
      <g>
       <use style="stroke:#000000;stroke-width:0.8;" x="302.4" xlink:href="#m395fdb662a" y="448.56"/>
      </g>
     </g>
     <g id="text_2">
      <!-- 0.2 -->
      <g transform="translate(288.087187 469.237188)scale(0.18 -0.18)">
       <defs>
        <path d="M 1228 531 
L 3431 531 
L 3431 0 
L 469 0 
L 469 531 
Q 828 903 1448 1529 
Q 2069 2156 2228 2338 
Q 2531 2678 2651 2914 
Q 2772 3150 2772 3378 
Q 2772 3750 2511 3984 
Q 2250 4219 1831 4219 
Q 1534 4219 1204 4116 
Q 875 4013 500 3803 
L 500 4441 
Q 881 4594 1212 4672 
Q 1544 4750 1819 4750 
Q 2544 4750 2975 4387 
Q 3406 4025 3406 3419 
Q 3406 3131 3298 2873 
Q 3191 2616 2906 2266 
Q 2828 2175 2409 1742 
Q 1991 1309 1228 531 
z
" id="DejaVuSans-32" transform="scale(0.015625)"/>
       </defs>
       <use xlink:href="#DejaVuSans-30"/>
       <use x="63.623047" xlink:href="#DejaVuSans-2e"/>
       <use x="95.410156" xlink:href="#DejaVuSans-32"/>
      </g>
     </g>
    </g>
    <g id="xtick_3">
     <g id="line2d_3">
      <g>
       <use style="stroke:#000000;stroke-width:0.8;" x="469.8" xlink:href="#m395fdb662a" y="448.56"/>
      </g>
     </g>
     <g id="text_3">
      <!-- 0.4 -->
      <g transform="translate(455.487188 469.237188)scale(0.18 -0.18)">
       <defs>
        <path d="M 2419 4116 
L 825 1625 
L 2419 1625 
L 2419 4116 
z
M 2253 4666 
L 3047 4666 
L 3047 1625 
L 3713 1625 
L 3713 1100 
L 3047 1100 
L 3047 0 
L 2419 0 
L 2419 1100 
L 313 1100 
L 313 1709 
L 2253 4666 
z
" id="DejaVuSans-34" transform="scale(0.015625)"/>
       </defs>
       <use xlink:href="#DejaVuSans-30"/>
       <use x="63.623047" xlink:href="#DejaVuSans-2e"/>
       <use x="95.410156" xlink:href="#DejaVuSans-34"/>
      </g>
     </g>
    </g>
    <g id="xtick_4">
     <g id="line2d_4">
      <g>
       <use style="stroke:#000000;stroke-width:0.8;" x="637.2" xlink:href="#m395fdb662a" y="448.56"/>
      </g>
     </g>
     <g id="text_4">
      <!-- 0.6 -->
      <g transform="translate(622.887188 469.237188)scale(0.18 -0.18)">
       <defs>
        <path d="M 2113 2584 
Q 1688 2584 1439 2293 
Q 1191 2003 1191 1497 
Q 1191 994 1439 701 
Q 1688 409 2113 409 
Q 2538 409 2786 701 
Q 3034 994 3034 1497 
Q 3034 2003 2786 2293 
Q 2538 2584 2113 2584 
z
M 3366 4563 
L 3366 3988 
Q 3128 4100 2886 4159 
Q 2644 4219 2406 4219 
Q 1781 4219 1451 3797 
Q 1122 3375 1075 2522 
Q 1259 2794 1537 2939 
Q 1816 3084 2150 3084 
Q 2853 3084 3261 2657 
Q 3669 2231 3669 1497 
Q 3669 778 3244 343 
Q 2819 -91 2113 -91 
Q 1303 -91 875 529 
Q 447 1150 447 2328 
Q 447 3434 972 4092 
Q 1497 4750 2381 4750 
Q 2619 4750 2861 4703 
Q 3103 4656 3366 4563 
z
" id="DejaVuSans-36" transform="scale(0.015625)"/>
       </defs>
       <use xlink:href="#DejaVuSans-30"/>
       <use x="63.623047" xlink:href="#DejaVuSans-2e"/>
       <use x="95.410156" xlink:href="#DejaVuSans-36"/>
      </g>
     </g>
    </g>
    <g id="xtick_5">
     <g id="line2d_5">
      <g>
       <use style="stroke:#000000;stroke-width:0.8;" x="804.6" xlink:href="#m395fdb662a" y="448.56"/>
      </g>
     </g>
     <g id="text_5">
      <!-- 0.8 -->
      <g transform="translate(790.287188 469.237188)scale(0.18 -0.18)">
       <defs>
        <path d="M 2034 2216 
Q 1584 2216 1326 1975 
Q 1069 1734 1069 1313 
Q 1069 891 1326 650 
Q 1584 409 2034 409 
Q 2484 409 2743 651 
Q 3003 894 3003 1313 
Q 3003 1734 2745 1975 
Q 2488 2216 2034 2216 
z
M 1403 2484 
Q 997 2584 770 2862 
Q 544 3141 544 3541 
Q 544 4100 942 4425 
Q 1341 4750 2034 4750 
Q 2731 4750 3128 4425 
Q 3525 4100 3525 3541 
Q 3525 3141 3298 2862 
Q 3072 2584 2669 2484 
Q 3125 2378 3379 2068 
Q 3634 1759 3634 1313 
Q 3634 634 3220 271 
Q 2806 -91 2034 -91 
Q 1263 -91 848 271 
Q 434 634 434 1313 
Q 434 1759 690 2068 
Q 947 2378 1403 2484 
z
M 1172 3481 
Q 1172 3119 1398 2916 
Q 1625 2713 2034 2713 
Q 2441 2713 2670 2916 
Q 2900 3119 2900 3481 
Q 2900 3844 2670 4047 
Q 2441 4250 2034 4250 
Q 1625 4250 1398 4047 
Q 1172 3844 1172 3481 
z
" id="DejaVuSans-38" transform="scale(0.015625)"/>
       </defs>
       <use xlink:href="#DejaVuSans-30"/>
       <use x="63.623047" xlink:href="#DejaVuSans-2e"/>
       <use x="95.410156" xlink:href="#DejaVuSans-38"/>
      </g>
     </g>
    </g>
    <g id="xtick_6">
     <g id="line2d_6">
      <g>
       <use style="stroke:#000000;stroke-width:0.8;" x="972" xlink:href="#m395fdb662a" y="448.56"/>
      </g>
     </g>
     <g id="text_6">
      <!-- 1.0 -->
      <g transform="translate(957.687188 469.237188)scale(0.18 -0.18)">
       <defs>
        <path d="M 794 531 
L 1825 531 
L 1825 4091 
L 703 3866 
L 703 4441 
L 1819 4666 
L 2450 4666 
L 2450 531 
L 3481 531 
L 3481 0 
L 794 0 
L 794 531 
z
" id="DejaVuSans-31" transform="scale(0.015625)"/>
       </defs>
       <use xlink:href="#DejaVuSans-31"/>
       <use x="63.623047" xlink:href="#DejaVuSans-2e"/>
       <use x="95.410156" xlink:href="#DejaVuSans-30"/>
      </g>
     </g>
    </g>
    <g id="text_7">
     <!-- $FPR_{Fair}$ -->
     <g transform="translate(518.08 493.697187)scale(0.22 -0.22)">
      <defs>
       <path d="M 1081 4666 
L 3756 4666 
L 3653 4134 
L 1606 4134 
L 1338 2759 
L 3188 2759 
L 3084 2228 
L 1234 2228 
L 800 0 
L 172 0 
L 1081 4666 
z
" id="DejaVuSans-Oblique-46" transform="scale(0.015625)"/>
       <path d="M 1081 4666 
L 2541 4666 
Q 3178 4666 3512 4369 
Q 3847 4072 3847 3500 
Q 3847 2731 3353 2303 
Q 2859 1875 1966 1875 
L 1172 1875 
L 806 0 
L 172 0 
L 1081 4666 
z
M 1613 4147 
L 1275 2394 
L 2069 2394 
Q 2606 2394 2893 2669 
Q 3181 2944 3181 3456 
Q 3181 3784 2986 3965 
Q 2791 4147 2438 4147 
L 1613 4147 
z
" id="DejaVuSans-Oblique-50" transform="scale(0.015625)"/>
       <path d="M 1613 4147 
L 1294 2491 
L 2106 2491 
Q 2584 2491 2879 2755 
Q 3175 3019 3175 3444 
Q 3175 3784 2976 3965 
Q 2778 4147 2406 4147 
L 1613 4147 
z
M 2772 2241 
Q 2972 2194 3105 2009 
Q 3238 1825 3413 1275 
L 3809 0 
L 3144 0 
L 2778 1197 
Q 2638 1659 2453 1815 
Q 2269 1972 1888 1972 
L 1191 1972 
L 806 0 
L 172 0 
L 1081 4666 
L 2503 4666 
Q 3150 4666 3495 4373 
Q 3841 4081 3841 3531 
Q 3841 3044 3547 2687 
Q 3253 2331 2772 2241 
z
" id="DejaVuSans-Oblique-52" transform="scale(0.015625)"/>
       <path d="M 3438 1997 
L 3047 0 
L 2472 0 
L 2578 531 
Q 2325 219 2001 64 
Q 1678 -91 1281 -91 
Q 834 -91 548 182 
Q 263 456 263 884 
Q 263 1497 752 1853 
Q 1241 2209 2100 2209 
L 2900 2209 
L 2931 2363 
Q 2938 2388 2941 2417 
Q 2944 2447 2944 2509 
Q 2944 2788 2717 2942 
Q 2491 3097 2081 3097 
Q 1800 3097 1504 3025 
Q 1209 2953 897 2809 
L 997 3341 
Q 1322 3463 1633 3523 
Q 1944 3584 2234 3584 
Q 2853 3584 3176 3315 
Q 3500 3047 3500 2534 
Q 3500 2431 3484 2292 
Q 3469 2153 3438 1997 
z
M 2816 1759 
L 2241 1759 
Q 1534 1759 1195 1570 
Q 856 1381 856 984 
Q 856 709 1029 553 
Q 1203 397 1509 397 
Q 1978 397 2328 733 
Q 2678 1069 2791 1631 
L 2816 1759 
z
" id="DejaVuSans-Oblique-61" transform="scale(0.015625)"/>
       <path d="M 1172 4863 
L 1747 4863 
L 1606 4134 
L 1031 4134 
L 1172 4863 
z
M 909 3500 
L 1484 3500 
L 800 0 
L 225 0 
L 909 3500 
z
" id="DejaVuSans-Oblique-69" transform="scale(0.015625)"/>
       <path d="M 2853 2969 
Q 2766 3016 2653 3041 
Q 2541 3066 2413 3066 
Q 1953 3066 1609 2717 
Q 1266 2369 1153 1784 
L 800 0 
L 225 0 
L 909 3500 
L 1484 3500 
L 1375 2956 
Q 1603 3259 1920 3421 
Q 2238 3584 2597 3584 
Q 2691 3584 2781 3573 
Q 2872 3563 2963 3538 
L 2853 2969 
z
" id="DejaVuSans-Oblique-72" transform="scale(0.015625)"/>
      </defs>
      <use transform="translate(0 0.09375)" xlink:href="#DejaVuSans-Oblique-46"/>
      <use transform="translate(57.519531 0.09375)" xlink:href="#DejaVuSans-Oblique-50"/>
      <use transform="translate(117.822266 0.09375)" xlink:href="#DejaVuSans-Oblique-52"/>
      <use transform="translate(187.304688 -16.3125)scale(0.7)" xlink:href="#DejaVuSans-Oblique-46"/>
      <use transform="translate(227.568359 -16.3125)scale(0.7)" xlink:href="#DejaVuSans-Oblique-61"/>
      <use transform="translate(270.463867 -16.3125)scale(0.7)" xlink:href="#DejaVuSans-Oblique-69"/>
      <use transform="translate(289.912109 -16.3125)scale(0.7)" xlink:href="#DejaVuSans-Oblique-72"/>
     </g>
    </g>
   </g>
   <g id="matplotlib.axis_2">
    <g id="ytick_1">
     <g id="line2d_7">
      <defs>
       <path d="M 0 0 
L -3.5 0 
" id="med05660873" style="stroke:#000000;stroke-width:0.8;"/>
      </defs>
      <g>
       <use style="stroke:#000000;stroke-width:0.8;" x="135" xlink:href="#med05660873" y="448.56"/>
      </g>
     </g>
     <g id="text_8">
      <!-- 0.0 -->
      <g transform="translate(99.374375 455.398594)scale(0.18 -0.18)">
       <use xlink:href="#DejaVuSans-30"/>
       <use x="63.623047" xlink:href="#DejaVuSans-2e"/>
       <use x="95.410156" xlink:href="#DejaVuSans-30"/>
      </g>
     </g>
    </g>
    <g id="ytick_2">
     <g id="line2d_8">
      <g>
       <use style="stroke:#000000;stroke-width:0.8;" x="135" xlink:href="#med05660873" y="370.944"/>
      </g>
     </g>
     <g id="text_9">
      <!-- 0.2 -->
      <g transform="translate(99.374375 377.782594)scale(0.18 -0.18)">
       <use xlink:href="#DejaVuSans-30"/>
       <use x="63.623047" xlink:href="#DejaVuSans-2e"/>
       <use x="95.410156" xlink:href="#DejaVuSans-32"/>
      </g>
     </g>
    </g>
    <g id="ytick_3">
     <g id="line2d_9">
      <g>
       <use style="stroke:#000000;stroke-width:0.8;" x="135" xlink:href="#med05660873" y="293.328"/>
      </g>
     </g>
     <g id="text_10">
      <!-- 0.4 -->
      <g transform="translate(99.374375 300.166594)scale(0.18 -0.18)">
       <use xlink:href="#DejaVuSans-30"/>
       <use x="63.623047" xlink:href="#DejaVuSans-2e"/>
       <use x="95.410156" xlink:href="#DejaVuSans-34"/>
      </g>
     </g>
    </g>
    <g id="ytick_4">
     <g id="line2d_10">
      <g>
       <use style="stroke:#000000;stroke-width:0.8;" x="135" xlink:href="#med05660873" y="215.712"/>
      </g>
     </g>
     <g id="text_11">
      <!-- 0.6 -->
      <g transform="translate(99.374375 222.550594)scale(0.18 -0.18)">
       <use xlink:href="#DejaVuSans-30"/>
       <use x="63.623047" xlink:href="#DejaVuSans-2e"/>
       <use x="95.410156" xlink:href="#DejaVuSans-36"/>
      </g>
     </g>
    </g>
    <g id="ytick_5">
     <g id="line2d_11">
      <g>
       <use style="stroke:#000000;stroke-width:0.8;" x="135" xlink:href="#med05660873" y="138.096"/>
      </g>
     </g>
     <g id="text_12">
      <!-- 0.8 -->
      <g transform="translate(99.374375 144.934594)scale(0.18 -0.18)">
       <use xlink:href="#DejaVuSans-30"/>
       <use x="63.623047" xlink:href="#DejaVuSans-2e"/>
       <use x="95.410156" xlink:href="#DejaVuSans-38"/>
      </g>
     </g>
    </g>
    <g id="ytick_6">
     <g id="line2d_12">
      <g>
       <use style="stroke:#000000;stroke-width:0.8;" x="135" xlink:href="#med05660873" y="60.48"/>
      </g>
     </g>
     <g id="text_13">
      <!-- 1.0 -->
      <g transform="translate(99.374375 67.318594)scale(0.18 -0.18)">
       <use xlink:href="#DejaVuSans-31"/>
       <use x="63.623047" xlink:href="#DejaVuSans-2e"/>
       <use x="95.410156" xlink:href="#DejaVuSans-30"/>
      </g>
     </g>
    </g>
    <g id="text_14">
     <!-- $TPR_{Fair}$ -->
     <g transform="translate(90.799062 290.27)rotate(-90)scale(0.22 -0.22)">
      <defs>
       <path d="M 378 4666 
L 4325 4666 
L 4225 4134 
L 2559 4134 
L 1759 0 
L 1125 0 
L 1925 4134 
L 275 4134 
L 378 4666 
z
" id="DejaVuSans-Oblique-54" transform="scale(0.015625)"/>
      </defs>
      <use transform="translate(0 0.09375)" xlink:href="#DejaVuSans-Oblique-54"/>
      <use transform="translate(61.083984 0.09375)" xlink:href="#DejaVuSans-Oblique-50"/>
      <use transform="translate(121.386719 0.09375)" xlink:href="#DejaVuSans-Oblique-52"/>
      <use transform="translate(190.869141 -16.3125)scale(0.7)" xlink:href="#DejaVuSans-Oblique-46"/>
      <use transform="translate(231.132812 -16.3125)scale(0.7)" xlink:href="#DejaVuSans-Oblique-61"/>
      <use transform="translate(274.02832 -16.3125)scale(0.7)" xlink:href="#DejaVuSans-Oblique-69"/>
      <use transform="translate(293.476562 -16.3125)scale(0.7)" xlink:href="#DejaVuSans-Oblique-72"/>
     </g>
    </g>
   </g>
   <g id="line2d_13">
    <path clip-path="url(#p5e7323860b)" d="M 135 448.56 
L 972 60.48 
" style="fill:none;stroke:#ff0000;stroke-dasharray:5.55,2.4;stroke-dashoffset:0;stroke-width:1.5;"/>
   </g>
   <g id="line2d_14">
    <path clip-path="url(#p5e7323860b)" d="M 972 60.48 
L 963.361641 60.561128 
L 955.417966 60.631121 
L 947.81339 60.739415 
L 940.716544 60.840537 
L 934.865614 60.91677 
L 928.864307 61.008141 
L 923.780776 61.103842 
L 919.540292 61.194083 
L 915.434092 61.293426 
L 910.981213 61.37431 
L 907.582525 61.460391 
L 904.280101 61.534792 
L 901.28026 61.626229 
L 898.773209 61.688177 
L 896.340074 61.746342 
L 893.866827 61.805717 
L 891.828987 61.873418 
L 889.93864 61.935988 
L 887.761896 62.017861 
L 886.063352 62.078094 
L 884.370117 62.140191 
L 882.769029 62.198604 
L 880.924522 62.259273 
L 879.313475 62.321251 
L 877.574629 62.374144 
L 875.801691 62.430765 
L 873.686274 62.485128 
L 872.101925 62.536837 
L 870.305719 62.607167 
L 868.369312 62.653109 
L 866.684185 62.726413 
L 864.830392 62.790551 
L 862.955645 62.85039 
L 860.986138 62.913615 
L 859.068028 62.968999 
L 857.02225 63.050437 
L 855.103729 63.122982 
L 853.313418 63.203927 
L 851.655122 63.267838 
L 849.734105 63.325098 
L 847.866207 63.418976 
L 845.944392 63.490732 
L 843.551339 63.567397 
L 841.517728 63.660266 
L 839.57007 63.731686 
L 837.606411 63.795801 
L 835.344072 63.886276 
L 833.405005 63.966754 
L 831.179736 64.042996 
L 829.167962 64.140307 
L 827.188504 64.234209 
L 825.209308 64.329133 
L 823.018257 64.414679 
L 821.153301 64.502524 
L 819.216197 64.611709 
L 817.252579 64.695174 
L 815.223182 64.796184 
L 813.214174 64.88623 
L 811.161265 64.962154 
L 809.40284 65.03991 
L 807.68309 65.127234 
L 805.980009 65.203578 
L 804.218848 65.284638 
L 802.262385 65.381104 
L 800.681736 65.489607 
L 798.90772 65.568394 
L 797.053587 65.662309 
L 795.352549 65.756061 
L 793.221586 65.853551 
L 791.14948 65.958446 
L 789.258897 66.051254 
L 787.112196 66.147332 
L 785.24471 66.247257 
L 783.52946 66.373209 
L 781.485159 66.483141 
L 779.43145 66.596657 
L 777.686717 66.721962 
L 776.106383 66.838143 
L 774.282232 66.94431 
L 772.585895 67.062126 
L 770.92665 67.17408 
L 768.97815 67.325251 
L 767.299345 67.447155 
L 765.77567 67.565649 
L 764.192919 67.70595 
L 762.374086 67.829622 
L 760.4277 67.940926 
L 758.402917 68.077267 
L 756.6834 68.217921 
L 754.967522 68.351817 
L 753.269953 68.501195 
L 751.380956 68.639725 
L 749.801895 68.777785 
L 748.108234 68.932538 
L 746.437689 69.084536 
L 744.927979 69.240737 
L 743.149439 69.413355 
L 741.698907 69.591508 
L 739.940555 69.757113 
L 738.029423 69.936758 
" style="fill:none;stroke:#1f77b4;stroke-linecap:square;stroke-width:1.5;"/>
   </g>
   <g id="line2d_15">
    <path clip-path="url(#p5e7323860b)" d="M 972 60.48 
L 901.066345 99.311714 
L 841.311855 130.808768 
L 791.079792 156.806212 
L 748.11326 178.548838 
L 711.345084 196.899679 
L 679.399428 212.746246 
L 651.253932 226.576815 
L 626.566021 238.604531 
L 604.288428 249.157458 
L 584.118492 258.527095 
L 566.090686 266.616985 
L 549.546844 273.625343 
L 534.28606 279.904096 
L 520.104048 285.62615 
L 506.948763 290.847509 
L 494.684085 295.759838 
L 483.124411 300.241144 
L 472.150233 304.22856 
L 461.831417 307.972392 
L 452.114559 311.523069 
L 442.896583 314.855521 
L 434.108311 317.995173 
L 425.87904 321.031119 
L 417.805719 323.940079 
L 410.157957 326.719948 
L 402.833632 329.411282 
L 395.738531 331.88539 
L 388.946497 334.27932 
L 382.507129 336.669737 
L 376.314516 338.949611 
L 370.412348 341.060948 
L 364.770004 343.169248 
L 359.231261 345.158202 
L 353.978627 347.128556 
L 348.847577 349.078055 
L 343.861943 350.986638 
L 339.064798 352.882011 
L 334.471479 354.718839 
L 330.111127 356.4431 
L 325.784466 358.123668 
L 321.586175 359.81818 
L 317.566502 361.51098 
L 313.664477 363.157274 
L 309.893955 364.724687 
L 306.220798 366.234698 
L 302.66237 367.709135 
L 299.207219 369.132678 
L 295.85165 370.525342 
L 292.600294 371.888969 
L 289.478237 373.212314 
L 286.416398 374.500278 
L 283.489571 375.755799 
L 280.599722 376.977562 
L 277.794338 378.183216 
L 275.051861 379.371946 
L 272.378039 380.50264 
L 269.774543 381.602811 
L 267.211654 382.64771 
L 264.750123 383.623059 
L 262.359676 384.595739 
L 260.017675 385.536284 
L 257.727001 386.447894 
L 255.512019 387.379004 
L 253.333216 388.281356 
L 251.206074 389.158976 
L 249.168722 390.017041 
L 247.157151 390.859636 
L 245.16398 391.678982 
L 243.23624 392.496867 
L 241.320443 393.302884 
L 239.460489 394.085574 
L 237.623283 394.857599 
L 235.841325 395.613289 
L 234.115893 396.357582 
L 232.426191 397.081076 
L 230.768699 397.812099 
L 229.141839 398.534806 
L 227.564759 399.249291 
L 225.978824 399.971717 
L 224.442771 400.690951 
L 222.971573 401.384756 
L 221.49257 402.059475 
L 220.059728 402.731843 
L 218.64564 403.366235 
L 217.281131 403.981216 
L 215.916943 404.612626 
L 214.544469 405.225771 
L 213.237337 405.828824 
L 211.9687 406.441764 
L 210.700733 407.044674 
L 209.451889 407.647127 
L 208.249535 408.242557 
L 207.068108 408.815806 
L 205.876665 409.409799 
L 204.702018 410.01235 
L 203.541318 410.613576 
L 202.405306 411.241156 
L 201.295141 411.854315 
L 200.230105 412.470734 
L 199.148758 413.077457 
" style="fill:none;stroke:#ff7f0e;stroke-linecap:square;stroke-width:1.5;"/>
   </g>
   <g id="line2d_16">
    <path clip-path="url(#p5e7323860b)" d="M 972 60.48 
L 934.861928 81.219387 
L 900.993555 99.677971 
L 870.457369 116.263526 
L 842.696168 131.076485 
L 817.681337 144.422137 
L 794.806966 156.552834 
L 773.834038 167.658155 
L 754.73005 177.739942 
L 736.905359 186.917067 
L 720.262749 195.352049 
L 704.884709 202.846371 
L 690.451828 209.512382 
L 676.761973 215.596346 
L 663.730731 221.222985 
L 651.337678 226.452661 
L 639.576034 231.488696 
L 628.272711 236.144143 
L 617.355437 240.364604 
L 606.891553 244.366543 
L 596.87743 248.200336 
L 587.188461 251.852505 
L 577.816891 255.344504 
L 568.903879 258.740558 
L 560.031003 262.03436 
L 551.517001 265.213932 
L 543.219173 268.3238 
L 535.0903 271.216022 
L 527.192165 274.033072 
L 519.601785 276.879778 
L 512.239945 279.626275 
L 505.128513 282.188907 
L 498.260234 284.764742 
L 491.471713 287.211895 
L 484.964119 289.65653 
L 478.527663 292.086339 
L 472.217681 294.496898 
L 466.075009 296.918015 
L 460.11446 299.264395 
L 454.407619 301.513156 
L 448.716826 303.713229 
L 443.173056 305.924682 
L 437.814025 308.150327 
L 432.54992 310.320647 
L 427.452508 312.414019 
L 422.409151 314.444529 
L 417.501637 316.451883 
L 412.710695 318.383621 
L 408.0553 320.283251 
L 403.483962 322.137283 
L 399.075784 323.959528 
L 394.720859 325.744713 
L 390.522995 327.48982 
L 386.338546 329.198006 
L 382.255191 330.900326 
L 378.249535 332.580114 
L 374.348147 334.197578 
L 370.505954 335.746362 
L 366.706029 337.242981 
L 363.040092 338.657747 
L 359.458714 340.05697 
L 355.932906 341.417113 
L 352.446975 342.759092 
L 349.044649 344.116552 
L 345.704663 345.446576 
L 342.450682 346.752093 
L 339.277372 348.028349 
L 336.130608 349.27927 
L 333.024693 350.508179 
L 330.008567 351.726655 
L 327.037998 352.91939 
L 324.099569 354.107297 
L 321.178478 355.275066 
L 318.335905 356.423744 
L 315.587779 357.541775 
L 312.87455 358.635609 
L 310.191335 359.732137 
L 307.576209 360.812872 
L 305.03363 361.879996 
L 302.483413 362.955493 
L 299.990361 364.023716 
L 297.580792 365.055991 
L 295.171017 366.06813 
L 292.822741 367.063259 
L 290.491174 368.025412 
L 288.213747 368.973976 
L 285.970864 369.934344 
L 283.733607 370.872953 
L 281.571057 371.792533 
L 279.4499 372.73313 
L 277.350403 373.65244 
L 275.271142 374.582451 
L 273.253023 375.508385 
L 271.254903 376.402302 
L 269.246588 377.322378 
L 267.273636 378.241512 
L 265.323312 379.149616 
L 263.394843 380.097197 
L 261.50322 381.017548 
L 259.653746 381.952668 
L 257.808598 382.884422 
" style="fill:none;stroke:#2ca02c;stroke-linecap:square;stroke-width:1.5;"/>
   </g>
   <g id="line2d_17">
    <path clip-path="url(#p5e7323860b)" d="M 972 60.48 
L 956.441801 69.922704 
L 941.620272 78.809198 
L 927.410471 87.063575 
L 913.774699 94.820086 
L 900.860341 102.017066 
L 888.476865 108.752734 
L 876.632138 115.154007 
L 865.412301 121.159904 
L 854.471136 126.894679 
L 843.874576 132.411003 
L 833.760742 137.395332 
L 823.982668 142.036788 
L 814.417758 146.394731 
L 805.153276 150.563842 
L 796.039178 154.515219 
L 787.243029 158.348026 
L 778.662667 161.96432 
L 770.127678 165.287791 
L 761.785111 168.453481 
L 753.700082 171.515282 
L 745.665256 174.481112 
L 737.816774 177.403113 
L 730.226919 180.245518 
L 722.567108 183.027059 
L 715.039821 185.840965 
L 707.632546 188.606273 
L 700.303854 191.21347 
L 693.093411 193.766011 
L 686.057377 196.327694 
L 679.159348 198.849005 
L 672.386175 201.239922 
L 665.737885 203.670856 
L 659.083764 205.999997 
L 652.59885 208.393993 
L 646.084607 210.778553 
L 639.701225 213.178132 
L 633.365166 215.61756 
L 627.167693 217.989635 
L 621.153357 220.26703 
L 615.057946 222.499935 
L 609.070223 224.776664 
L 603.207691 227.043295 
L 597.391403 229.332177 
L 591.710616 231.563396 
L 586.07449 233.742767 
L 580.524217 235.916119 
L 575.06966 238.020067 
L 569.728694 240.133844 
L 564.377927 242.179849 
L 559.198124 244.201747 
L 554.024867 246.247634 
L 549.001206 248.230066 
L 543.975091 250.166004 
L 539.004166 252.107995 
L 534.110932 254.048877 
L 529.298838 255.929661 
L 524.536131 257.712924 
L 519.781534 259.459612 
L 515.130871 261.144214 
L 510.560877 262.814625 
L 506.028612 264.444681 
L 501.521437 266.056961 
L 497.042286 267.696054 
L 492.651111 269.317983 
L 488.342334 270.91344 
L 484.115275 272.474308 
L 479.882208 274.031034 
L 475.708749 275.583128 
L 471.615094 277.11611 
L 467.573498 278.629829 
L 463.558836 280.144809 
L 459.547594 281.644657 
L 455.604515 283.124377 
L 451.75596 284.547931 
L 447.920216 285.950704 
L 444.134958 287.397882 
L 440.408799 288.811924 
L 436.768841 290.220323 
L 433.094508 291.641689 
L 429.481144 293.052867 
L 425.946278 294.457825 
L 422.41616 295.817969 
L 418.982629 297.16765 
L 415.546723 298.452254 
L 412.170854 299.730811 
L 408.808692 301.028618 
L 405.480881 302.295896 
L 402.236689 303.533448 
L 399.004117 304.791704 
L 395.827827 306.039346 
L 392.628839 307.299897 
L 389.528804 308.557703 
L 386.452475 309.768057 
L 383.329622 311.026944 
L 380.271142 312.275912 
L 377.209707 313.535102 
L 374.177882 314.811317 
L 371.199739 316.101538 
L 368.254079 317.398828 
L 365.331057 318.674674 
" style="fill:none;stroke:#d62728;stroke-linecap:square;stroke-width:1.5;"/>
   </g>
   <g id="line2d_18">
    <path clip-path="url(#p5e7323860b)" d="M 972 60.48 
L 971.994976 60.482627 
L 971.991023 60.483516 
L 971.987031 60.483529 
L 971.98243 60.483542 
L 971.974935 60.484442 
L 971.967365 60.484457 
L 971.952239 60.487152 
L 971.945056 60.488967 
L 971.934894 60.49079 
L 971.915863 60.490818 
L 971.902524 60.491748 
L 971.891986 60.494494 
L 971.883124 60.495435 
L 971.87595 60.496381 
L 971.865731 60.49642 
L 971.858426 60.496458 
L 971.85587 60.496497 
L 971.850865 60.497449 
L 971.848246 60.498408 
L 971.841295 60.498448 
L 971.837369 60.500333 
L 971.835243 60.5013 
L 971.828749 60.504128 
L 971.825286 60.504181 
L 971.822437 60.505166 
L 971.816388 60.505223 
L 971.812178 60.505276 
L 971.804086 60.508145 
L 971.801065 60.510089 
L 971.797368 60.511095 
L 971.794928 60.512104 
L 971.791154 60.514071 
L 971.78797 60.51414 
L 971.782131 60.514213 
L 971.773523 60.515246 
L 971.768163 60.515327 
L 971.761405 60.517327 
L 971.756616 60.517418 
L 971.754531 60.518469 
L 971.750981 60.518565 
L 971.745308 60.51866 
L 971.739609 60.518755 
L 971.733838 60.518854 
L 971.728749 60.518955 
L 971.720031 60.519055 
L 971.714775 60.519148 
L 971.71233 60.51924 
L 971.708388 60.519338 
L 971.703671 60.520412 
L 971.698898 60.520506 
L 971.694042 60.520602 
L 971.688438 60.52169 
L 971.678265 60.522793 
L 971.674729 60.5239 
L 971.671888 60.526014 
L 971.664493 60.528136 
L 971.65852 60.529267 
L 971.655552 60.529388 
L 971.650264 60.529508 
L 971.647236 60.529638 
L 971.64339 60.529768 
L 971.639456 60.53092 
L 971.632262 60.532094 
L 971.624979 60.533275 
L 971.612775 60.533445 
L 971.606105 60.534648 
L 971.600164 60.534822 
L 971.596573 60.536028 
L 971.590562 60.537241 
L 971.586088 60.540547 
L 971.579888 60.540729 
L 971.571852 60.540919 
L 971.566335 60.54216 
L 971.560776 60.542347 
L 971.554236 60.542533 
L 971.545901 60.543781 
L 971.541816 60.54717 
L 971.532447 60.548454 
L 971.525567 60.548671 
L 971.521331 60.549977 
L 971.512567 60.550202 
L 971.503579 60.554773 
L 971.49727 60.559373 
L 971.49083 60.561825 
L 971.481508 60.563186 
L 971.472056 60.564576 
L 971.46713 60.565989 
L 971.459392 60.568521 
L 971.446715 60.572187 
L 971.437725 60.572541 
L 971.432466 60.572929 
L 971.427196 60.575577 
L 971.420795 60.575973 
L 971.413152 60.577542 
L 971.403568 60.577967 
L 971.394757 60.579556 
L 971.388853 60.580035 
L 971.381916 60.580525 
L 971.373794 60.581048 
L 971.367571 60.583913 
" style="fill:none;stroke:#9467bd;stroke-linecap:square;stroke-width:1.5;"/>
   </g>
   <g id="line2d_19">
    <path clip-path="url(#p5e7323860b)" d="M 972 60.48 
L 963.455637 66.046545 
L 955.165496 71.375525 
L 947.101247 76.405256 
L 939.29734 81.223441 
L 931.771611 85.772078 
L 924.46561 90.099629 
L 917.40056 94.283584 
L 910.645128 98.25451 
L 903.990249 102.097193 
L 897.493308 105.847089 
L 891.202303 109.288984 
L 885.062181 112.518802 
L 879.017239 115.571985 
L 873.090978 118.524408 
L 867.202148 121.346132 
L 861.439565 124.108957 
L 855.799015 126.740778 
L 850.102772 129.167747 
L 844.483277 131.512001 
L 838.974864 133.78422 
L 833.454363 136.00357 
L 828.014005 138.210268 
L 822.692871 140.365271 
L 817.255229 142.486981 
L 811.849384 144.656323 
L 806.493733 146.796403 
L 801.15519 148.825384 
L 795.816615 150.830235 
L 790.586315 152.846718 
L 785.402756 154.850904 
L 780.278916 156.76075 
L 775.196121 158.720278 
L 770.08304 160.615413 
L 765.043786 162.563893 
L 759.938321 164.513268 
L 754.888924 166.492122 
L 749.821449 168.524227 
L 744.83693 170.504776 
L 739.954261 172.411295 
L 734.963071 174.290752 
L 730.01463 176.230568 
L 725.123919 178.184832 
L 720.240787 180.155562 
L 715.405321 182.080216 
L 710.59733 183.974513 
L 705.814285 185.885657 
L 701.087925 187.751985 
L 696.422137 189.625794 
L 691.709216 191.464063 
L 687.114218 193.288577 
L 682.497288 195.144429 
L 677.95945 196.946539 
L 673.403687 198.705696 
L 668.871748 200.485243 
L 664.357176 202.278687 
L 659.888974 204.016348 
L 655.431109 205.667613 
L 650.964456 207.288304 
L 646.549363 208.864591 
L 642.200263 210.424152 
L 637.84488 211.948798 
L 633.485951 213.462791 
L 629.12757 215.001133 
L 624.835966 216.527507 
L 620.596116 218.046006 
L 616.410718 219.54442 
L 612.170851 221.04649 
L 607.967676 222.557029 
L 603.788686 224.053935 
L 599.67625 225.536055 
L 595.537973 227.028831 
L 591.377242 228.509094 
L 587.27146 229.979991 
L 583.230059 231.408159 
L 579.183709 232.82535 
L 575.157774 234.283274 
L 571.165169 235.714468 
L 567.250761 237.131035 
L 563.272719 238.567647 
L 559.334975 239.996973 
L 555.454504 241.433753 
L 551.590911 242.824333 
L 547.786538 244.203856 
L 543.983068 245.522332 
L 540.205946 246.856118 
L 536.42486 248.207455 
L 532.662508 249.527089 
L 528.966109 250.822052 
L 525.255033 252.125257 
L 521.594888 253.426298 
L 517.904092 254.740541 
L 514.295296 256.061311 
L 510.694486 257.342398 
L 507.038881 258.670104 
L 503.430203 259.997517 
L 499.811284 261.324172 
L 496.21914 262.670798 
L 492.654111 264.030768 
L 489.117529 265.388337 
L 485.595485 266.74127 
" style="fill:none;stroke:#8c564b;stroke-linecap:square;stroke-width:1.5;"/>
   </g>
   <g id="line2d_20">
    <path clip-path="url(#p5e7323860b)" d="M 972 60.48 
L 962.086607 66.357776 
L 952.460468 72.043125 
L 943.270261 77.481724 
L 934.532014 82.701251 
L 926.212269 87.646033 
L 918.334183 92.419175 
L 910.837604 97.035276 
L 903.726199 101.410388 
L 896.883308 105.613876 
L 890.259183 109.642838 
L 883.915314 113.375637 
L 877.78266 116.819841 
L 871.803183 120.055059 
L 865.974961 123.154886 
L 860.229068 126.118565 
L 854.622034 129.000757 
L 849.116036 131.724815 
L 843.620161 134.29136 
L 838.224011 136.769587 
L 832.93905 139.193084 
L 827.658054 141.568793 
L 822.452568 143.887751 
L 817.382067 146.167491 
L 812.214945 148.410661 
L 807.072225 150.639238 
L 801.952595 152.858202 
L 796.803897 154.9604 
L 791.678782 157.046532 
L 786.656906 159.168589 
L 781.663457 161.274267 
L 776.767062 163.242752 
L 771.909394 165.263515 
L 767.014409 167.213315 
L 762.200034 169.214178 
L 757.33453 171.22441 
L 752.501653 173.258197 
L 747.663127 175.310506 
L 742.89211 177.341005 
L 738.229439 179.319771 
L 733.518156 181.254664 
L 728.822297 183.270214 
L 724.167914 185.32629 
L 719.538692 187.363016 
L 714.932076 189.351202 
L 710.333212 191.316166 
L 705.754034 193.287137 
L 701.203549 195.24167 
L 696.744473 197.166369 
L 692.255353 199.092653 
L 687.867504 200.984942 
L 683.470391 202.892971 
L 679.15942 204.758517 
L 674.812534 206.614911 
L 670.476214 208.455601 
L 666.152103 210.307992 
L 661.870234 212.110174 
L 657.575219 213.852073 
L 653.273276 215.560073 
L 649.020324 217.194188 
L 644.854537 218.800253 
L 640.685072 220.369222 
L 636.500957 221.936944 
L 632.355713 223.544913 
L 628.248885 225.128528 
L 624.187466 226.695826 
L 620.173122 228.270075 
L 616.086333 229.804228 
L 612.036048 231.354525 
L 608.012667 232.898134 
L 604.048127 234.417964 
L 600.044955 235.948616 
L 596.02378 237.466249 
L 592.052477 238.986905 
L 588.147485 240.46542 
L 584.226454 241.939553 
L 580.322405 243.441292 
L 576.456036 244.927833 
L 572.65985 246.399583 
L 568.804101 247.89288 
L 564.997179 249.375151 
L 561.223564 250.841723 
L 557.47975 252.255774 
L 553.786036 253.681836 
L 550.101021 255.06001 
L 546.446478 256.454879 
L 542.790158 257.857241 
L 539.155884 259.229424 
L 535.56957 260.576413 
L 531.983853 261.958189 
L 528.429428 263.315009 
L 524.86562 264.711217 
L 521.377747 266.092173 
L 517.88698 267.452861 
L 514.338259 268.85316 
L 510.823176 270.260311 
L 507.314582 271.663584 
L 503.824609 273.096578 
L 500.338442 274.517081 
L 496.889628 275.927621 
L 493.446508 277.3557 
" style="fill:none;stroke:#e377c2;stroke-linecap:square;stroke-width:1.5;"/>
   </g>
   <g id="line2d_21">
    <path clip-path="url(#p5e7323860b)" d="M 972 60.48 
L 963.612899 65.534344 
L 955.425115 70.416552 
L 947.625403 75.057142 
L 940.210539 79.542616 
L 933.16469 83.808708 
L 926.482334 87.956252 
L 920.136791 91.969911 
L 914.113121 95.812141 
L 908.270282 99.513458 
L 902.622398 103.066501 
L 897.210686 106.385663 
L 892.003625 109.441385 
L 886.925985 112.302439 
L 881.985014 115.066871 
L 877.084462 117.707538 
L 872.288591 120.297239 
L 867.591931 122.753404 
L 862.876059 125.075795 
L 858.259264 127.301287 
L 853.700964 129.475915 
L 849.159826 131.611864 
L 844.665351 133.702085 
L 840.287087 135.759163 
L 835.810512 137.806683 
L 831.339076 139.83274 
L 826.893594 141.845968 
L 822.413845 143.762617 
L 817.942506 145.661179 
L 813.516634 147.607773 
L 809.143748 149.529667 
L 804.849648 151.3342 
L 800.579147 153.198723 
L 796.270537 155.006895 
L 792.029967 156.85313 
L 787.734551 158.703009 
L 783.443343 160.573414 
L 779.158929 162.485927 
L 774.900251 164.35866 
L 770.743983 166.163413 
L 766.508627 167.970031 
L 762.303658 169.85131 
L 758.10544 171.755786 
L 753.926379 173.648374 
L 749.775513 175.509799 
L 745.594511 177.336642 
L 741.441518 179.179107 
L 737.296372 181.013861 
L 733.249678 182.832169 
L 729.149638 184.639332 
L 725.157869 186.432762 
L 721.124244 188.232373 
L 717.180442 190.001195 
L 713.166805 191.765636 
L 709.14457 193.523698 
L 705.15463 195.293091 
L 701.19058 197.019133 
L 697.206574 198.677249 
L 693.212549 200.305455 
L 689.270914 201.877107 
L 685.38582 203.409287 
L 681.495836 204.918604 
L 677.586998 206.426547 
L 673.700845 207.96124 
L 669.823087 209.477573 
L 666.001525 210.983536 
L 662.210062 212.483321 
L 658.337377 213.966737 
L 654.494023 215.464171 
L 650.657059 216.954796 
L 646.882184 218.425865 
L 643.076359 219.911861 
L 639.233133 221.390266 
L 635.424395 222.861457 
L 631.646344 224.296438 
L 627.855585 225.734069 
L 624.079532 227.196816 
L 620.33781 228.648104 
L 616.649522 230.085323 
L 612.910423 231.553098 
L 609.19314 232.999035 
L 605.52181 234.447626 
L 601.874854 235.844847 
L 598.27416 237.25085 
L 594.683927 238.611369 
L 591.103288 239.986411 
L 587.521113 241.37371 
L 583.952454 242.733131 
L 580.41789 244.061149 
L 576.885828 245.421975 
L 573.370074 246.760016 
L 569.840353 248.134529 
L 566.388635 249.49626 
L 562.914946 250.84393 
L 559.388438 252.22765 
L 555.882015 253.622158 
L 552.368884 255.013189 
L 548.874171 256.443312 
L 545.387066 257.855674 
L 541.919909 259.268612 
L 538.461835 260.688385 
" style="fill:none;stroke:#7f7f7f;stroke-linecap:square;stroke-width:1.5;"/>
   </g>
   <g id="line2d_22">
    <path clip-path="url(#p5e7323860b)" d="M 972 60.48 
L 971.997596 60.481339 
L 971.99698 60.481791 
L 971.994841 60.481797 
L 971.99329 60.482253 
L 971.989578 60.48226 
L 971.985214 60.482267 
L 971.976163 60.483182 
L 971.972312 60.483191 
L 971.967796 60.484113 
L 971.958522 60.48504 
L 971.951688 60.485511 
L 971.947007 60.485523 
L 971.94355 60.485995 
L 971.940698 60.486932 
L 971.936537 60.486947 
L 971.932985 60.486962 
L 971.93167 60.486977 
L 971.928705 60.487456 
L 971.927352 60.487938 
L 971.924666 60.487954 
L 971.923281 60.487969 
L 971.921545 60.487985 
L 971.919797 60.488 
L 971.918359 60.488016 
L 971.917249 60.488032 
L 971.913397 60.488522 
L 971.910876 60.488538 
L 971.907981 60.489031 
L 971.905754 60.489526 
L 971.904199 60.490022 
L 971.902973 60.490519 
L 971.900683 60.490542 
L 971.899775 60.490562 
L 971.897444 60.490584 
L 971.893998 60.490606 
L 971.890873 60.490629 
L 971.888437 60.490652 
L 971.885612 60.491161 
L 971.88423 60.491186 
L 971.883174 60.491212 
L 971.880257 60.491238 
L 971.877319 60.491755 
L 971.87472 60.492764 
L 971.871349 60.493286 
L 971.867927 60.493319 
L 971.864473 60.493844 
L 971.862901 60.493875 
L 971.86208 60.495398 
L 971.860846 60.49593 
L 971.859226 60.495965 
L 971.857584 60.497502 
L 971.853951 60.498041 
L 971.849868 60.498081 
L 971.848947 60.498124 
L 971.847605 60.498167 
L 971.845858 60.499219 
L 971.844081 60.499771 
L 971.842264 60.501342 
L 971.840033 60.501389 
L 971.837362 60.50144 
L 971.836324 60.501489 
L 971.83484 60.503078 
L 971.832487 60.503651 
L 971.827982 60.504228 
L 971.821711 60.504294 
L 971.820128 60.504362 
L 971.818065 60.50443 
L 971.815104 60.504497 
L 971.812569 60.504565 
L 971.810444 60.505681 
L 971.806482 60.505753 
L 971.801104 60.506356 
L 971.799292 60.506433 
L 971.796569 60.506511 
L 971.793798 60.50712 
L 971.791003 60.507202 
L 971.787694 60.508353 
L 971.783925 60.508437 
L 971.781468 60.50906 
L 971.779479 60.510227 
L 971.775548 60.511395 
L 971.772036 60.511486 
L 971.769459 60.511582 
L 971.766354 60.51277 
L 971.762702 60.513417 
L 971.757001 60.513522 
L 971.754224 60.513633 
L 971.750933 60.514298 
L 971.746553 60.514972 
L 971.742633 60.515654 
L 971.739655 60.515789 
L 971.73718 60.517053 
L 971.735183 60.517196 
L 971.732049 60.517916 
L 971.728375 60.518639 
L 971.725199 60.518802 
L 971.721955 60.518974 
L 971.719734 60.519723 
L 971.715844 60.519909 
L 971.711885 60.520679 
" style="fill:none;stroke:#bcbd22;stroke-linecap:square;stroke-width:1.5;"/>
   </g>
   <g id="line2d_23">
    <path clip-path="url(#p5e7323860b)" d="M 972 60.48 
L 969.497237 61.297336 
L 967.036882 62.131435 
L 964.78389 62.980531 
L 962.723936 63.823203 
L 960.844343 64.679649 
L 959.191835 65.584332 
L 957.705051 66.502221 
L 956.324382 67.391427 
L 955.070261 68.291411 
L 953.886996 69.150184 
L 952.818857 69.981674 
L 951.871568 70.710232 
L 950.971363 71.374541 
L 950.100649 72.042875 
L 949.299004 72.672214 
L 948.512785 73.280135 
L 947.753571 73.844923 
L 947.017664 74.395523 
L 946.314587 74.941977 
L 945.641153 75.468007 
L 945.012818 76.007881 
L 944.390262 76.519868 
L 943.788353 77.032515 
L 943.169693 77.543972 
L 942.524661 78.048596 
L 941.864625 78.530148 
L 941.169003 79.000007 
L 940.462401 79.462202 
L 939.78427 79.976389 
L 939.111926 80.511521 
L 938.476266 80.978885 
L 937.865788 81.461368 
L 937.24168 81.94487 
L 936.633502 82.426415 
L 935.984602 82.944474 
L 935.30886 83.461637 
L 934.642099 83.983972 
L 933.997532 84.514392 
L 933.390877 85.03858 
L 932.806414 85.544192 
L 932.204149 86.10704 
L 931.576781 86.711668 
L 930.951275 87.314905 
L 930.290695 87.937229 
L 929.6221 88.51524 
L 928.958141 89.126463 
L 928.289887 89.758241 
L 927.641796 90.37076 
L 927.013964 91.00212 
L 926.395125 91.664759 
L 925.7678 92.325995 
L 925.173016 92.992284 
L 924.546055 93.685245 
L 923.90312 94.357388 
L 923.260239 95.060325 
L 922.596848 95.752311 
L 921.910561 96.452082 
L 921.213661 97.114701 
L 920.530953 97.727166 
L 919.867541 98.328031 
L 919.220128 98.950082 
L 918.567884 99.606022 
L 917.911182 100.277373 
L 917.255129 100.94718 
L 916.606123 101.622776 
L 915.969377 102.307687 
L 915.299285 102.990812 
L 914.604485 103.690342 
L 913.915806 104.411345 
L 913.190726 105.115932 
L 912.4668 105.839139 
L 911.722591 106.597498 
L 910.968124 107.354643 
L 910.241121 108.091927 
L 909.48817 108.875886 
L 908.733577 109.670354 
L 907.994862 110.470242 
L 907.262872 111.296973 
L 906.526006 112.154426 
L 905.771765 113.031693 
L 905.024669 113.930598 
L 904.303893 114.799877 
L 903.600692 115.694675 
L 902.917719 116.605263 
L 902.232899 117.516682 
L 901.559212 118.430164 
L 900.879184 119.324675 
L 900.183632 120.235809 
L 899.502979 121.197909 
L 898.810534 122.130636 
L 898.11373 123.116712 
L 897.452655 124.107227 
L 896.765196 125.099117 
L 896.058777 126.127042 
L 895.343868 127.165992 
L 894.612714 128.253772 
L 893.87459 129.391936 
L 893.12525 130.50812 
L 892.360301 131.646044 
L 891.612051 132.816638 
" style="fill:none;stroke:#17becf;stroke-linecap:square;stroke-width:1.5;"/>
   </g>
   <g id="patch_3">
    <path d="M 135 448.56 
L 135 60.48 
" style="fill:none;stroke:#000000;stroke-linecap:square;stroke-linejoin:miter;stroke-width:0.8;"/>
   </g>
   <g id="patch_4">
    <path d="M 972 448.56 
L 972 60.48 
" style="fill:none;stroke:#000000;stroke-linecap:square;stroke-linejoin:miter;stroke-width:0.8;"/>
   </g>
   <g id="patch_5">
    <path d="M 135 448.56 
L 972 448.56 
" style="fill:none;stroke:#000000;stroke-linecap:square;stroke-linejoin:miter;stroke-width:0.8;"/>
   </g>
   <g id="patch_6">
    <path d="M 135 60.48 
L 972 60.48 
" style="fill:none;stroke:#000000;stroke-linecap:square;stroke-linejoin:miter;stroke-width:0.8;"/>
   </g>
   <g id="legend_1">
    <g id="patch_7">
     <path d="M 147.6 339.08625 
L 256.730625 339.08625 
Q 260.330625 339.08625 260.330625 335.48625 
L 260.330625 73.08 
Q 260.330625 69.48 256.730625 69.48 
L 147.6 69.48 
Q 144 69.48 144 73.08 
L 144 335.48625 
Q 144 339.08625 147.6 339.08625 
z
" style="fill:#ffffff;opacity:0.8;stroke:#cccccc;stroke-linejoin:miter;"/>
    </g>
    <g id="line2d_24">
     <path d="M 151.2 84.057188 
L 187.2 84.057188 
" style="fill:none;stroke:#1f77b4;stroke-linecap:square;stroke-width:1.5;"/>
    </g>
    <g id="line2d_25"/>
    <g id="text_15">
     <!-- 0.001 -->
     <g transform="translate(201.6 90.357188)scale(0.18 -0.18)">
      <use xlink:href="#DejaVuSans-30"/>
      <use x="63.623047" xlink:href="#DejaVuSans-2e"/>
      <use x="95.410156" xlink:href="#DejaVuSans-30"/>
      <use x="159.033203" xlink:href="#DejaVuSans-30"/>
      <use x="222.65625" xlink:href="#DejaVuSans-31"/>
     </g>
    </g>
    <g id="line2d_26">
     <path d="M 151.2 110.477812 
L 187.2 110.477812 
" style="fill:none;stroke:#ff7f0e;stroke-linecap:square;stroke-width:1.5;"/>
    </g>
    <g id="line2d_27"/>
    <g id="text_16">
     <!-- 0.011 -->
     <g transform="translate(201.6 116.777812)scale(0.18 -0.18)">
      <use xlink:href="#DejaVuSans-30"/>
      <use x="63.623047" xlink:href="#DejaVuSans-2e"/>
      <use x="95.410156" xlink:href="#DejaVuSans-30"/>
      <use x="159.033203" xlink:href="#DejaVuSans-31"/>
      <use x="222.65625" xlink:href="#DejaVuSans-31"/>
     </g>
    </g>
    <g id="line2d_28">
     <path d="M 151.2 136.898438 
L 187.2 136.898438 
" style="fill:none;stroke:#2ca02c;stroke-linecap:square;stroke-width:1.5;"/>
    </g>
    <g id="line2d_29"/>
    <g id="text_17">
     <!-- 0.021 -->
     <g transform="translate(201.6 143.198438)scale(0.18 -0.18)">
      <use xlink:href="#DejaVuSans-30"/>
      <use x="63.623047" xlink:href="#DejaVuSans-2e"/>
      <use x="95.410156" xlink:href="#DejaVuSans-30"/>
      <use x="159.033203" xlink:href="#DejaVuSans-32"/>
      <use x="222.65625" xlink:href="#DejaVuSans-31"/>
     </g>
    </g>
    <g id="line2d_30">
     <path d="M 151.2 163.319062 
L 187.2 163.319062 
" style="fill:none;stroke:#d62728;stroke-linecap:square;stroke-width:1.5;"/>
    </g>
    <g id="line2d_31"/>
    <g id="text_18">
     <!-- 0.031 -->
     <g transform="translate(201.6 169.619062)scale(0.18 -0.18)">
      <defs>
       <path d="M 2597 2516 
Q 3050 2419 3304 2112 
Q 3559 1806 3559 1356 
Q 3559 666 3084 287 
Q 2609 -91 1734 -91 
Q 1441 -91 1130 -33 
Q 819 25 488 141 
L 488 750 
Q 750 597 1062 519 
Q 1375 441 1716 441 
Q 2309 441 2620 675 
Q 2931 909 2931 1356 
Q 2931 1769 2642 2001 
Q 2353 2234 1838 2234 
L 1294 2234 
L 1294 2753 
L 1863 2753 
Q 2328 2753 2575 2939 
Q 2822 3125 2822 3475 
Q 2822 3834 2567 4026 
Q 2313 4219 1838 4219 
Q 1578 4219 1281 4162 
Q 984 4106 628 3988 
L 628 4550 
Q 988 4650 1302 4700 
Q 1616 4750 1894 4750 
Q 2613 4750 3031 4423 
Q 3450 4097 3450 3541 
Q 3450 3153 3228 2886 
Q 3006 2619 2597 2516 
z
" id="DejaVuSans-33" transform="scale(0.015625)"/>
      </defs>
      <use xlink:href="#DejaVuSans-30"/>
      <use x="63.623047" xlink:href="#DejaVuSans-2e"/>
      <use x="95.410156" xlink:href="#DejaVuSans-30"/>
      <use x="159.033203" xlink:href="#DejaVuSans-33"/>
      <use x="222.65625" xlink:href="#DejaVuSans-31"/>
     </g>
    </g>
    <g id="line2d_32">
     <path d="M 151.2 189.739688 
L 187.2 189.739688 
" style="fill:none;stroke:#9467bd;stroke-linecap:square;stroke-width:1.5;"/>
    </g>
    <g id="line2d_33"/>
    <g id="text_19">
     <!-- 0.041 -->
     <g transform="translate(201.6 196.039688)scale(0.18 -0.18)">
      <use xlink:href="#DejaVuSans-30"/>
      <use x="63.623047" xlink:href="#DejaVuSans-2e"/>
      <use x="95.410156" xlink:href="#DejaVuSans-30"/>
      <use x="159.033203" xlink:href="#DejaVuSans-34"/>
      <use x="222.65625" xlink:href="#DejaVuSans-31"/>
     </g>
    </g>
    <g id="line2d_34">
     <path d="M 151.2 216.160312 
L 187.2 216.160312 
" style="fill:none;stroke:#8c564b;stroke-linecap:square;stroke-width:1.5;"/>
    </g>
    <g id="line2d_35"/>
    <g id="text_20">
     <!-- 0.051 -->
     <g transform="translate(201.6 222.460312)scale(0.18 -0.18)">
      <defs>
       <path d="M 691 4666 
L 3169 4666 
L 3169 4134 
L 1269 4134 
L 1269 2991 
Q 1406 3038 1543 3061 
Q 1681 3084 1819 3084 
Q 2600 3084 3056 2656 
Q 3513 2228 3513 1497 
Q 3513 744 3044 326 
Q 2575 -91 1722 -91 
Q 1428 -91 1123 -41 
Q 819 9 494 109 
L 494 744 
Q 775 591 1075 516 
Q 1375 441 1709 441 
Q 2250 441 2565 725 
Q 2881 1009 2881 1497 
Q 2881 1984 2565 2268 
Q 2250 2553 1709 2553 
Q 1456 2553 1204 2497 
Q 953 2441 691 2322 
L 691 4666 
z
" id="DejaVuSans-35" transform="scale(0.015625)"/>
      </defs>
      <use xlink:href="#DejaVuSans-30"/>
      <use x="63.623047" xlink:href="#DejaVuSans-2e"/>
      <use x="95.410156" xlink:href="#DejaVuSans-30"/>
      <use x="159.033203" xlink:href="#DejaVuSans-35"/>
      <use x="222.65625" xlink:href="#DejaVuSans-31"/>
     </g>
    </g>
    <g id="line2d_36">
     <path d="M 151.2 242.580937 
L 187.2 242.580937 
" style="fill:none;stroke:#e377c2;stroke-linecap:square;stroke-width:1.5;"/>
    </g>
    <g id="line2d_37"/>
    <g id="text_21">
     <!-- 0.061 -->
     <g transform="translate(201.6 248.880937)scale(0.18 -0.18)">
      <use xlink:href="#DejaVuSans-30"/>
      <use x="63.623047" xlink:href="#DejaVuSans-2e"/>
      <use x="95.410156" xlink:href="#DejaVuSans-30"/>
      <use x="159.033203" xlink:href="#DejaVuSans-36"/>
      <use x="222.65625" xlink:href="#DejaVuSans-31"/>
     </g>
    </g>
    <g id="line2d_38">
     <path d="M 151.2 269.001562 
L 187.2 269.001562 
" style="fill:none;stroke:#7f7f7f;stroke-linecap:square;stroke-width:1.5;"/>
    </g>
    <g id="line2d_39"/>
    <g id="text_22">
     <!-- 0.071 -->
     <g transform="translate(201.6 275.301562)scale(0.18 -0.18)">
      <defs>
       <path d="M 525 4666 
L 3525 4666 
L 3525 4397 
L 1831 0 
L 1172 0 
L 2766 4134 
L 525 4134 
L 525 4666 
z
" id="DejaVuSans-37" transform="scale(0.015625)"/>
      </defs>
      <use xlink:href="#DejaVuSans-30"/>
      <use x="63.623047" xlink:href="#DejaVuSans-2e"/>
      <use x="95.410156" xlink:href="#DejaVuSans-30"/>
      <use x="159.033203" xlink:href="#DejaVuSans-37"/>
      <use x="222.65625" xlink:href="#DejaVuSans-31"/>
     </g>
    </g>
    <g id="line2d_40">
     <path d="M 151.2 295.422188 
L 187.2 295.422188 
" style="fill:none;stroke:#bcbd22;stroke-linecap:square;stroke-width:1.5;"/>
    </g>
    <g id="line2d_41"/>
    <g id="text_23">
     <!-- 0.081 -->
     <g transform="translate(201.6 301.722188)scale(0.18 -0.18)">
      <use xlink:href="#DejaVuSans-30"/>
      <use x="63.623047" xlink:href="#DejaVuSans-2e"/>
      <use x="95.410156" xlink:href="#DejaVuSans-30"/>
      <use x="159.033203" xlink:href="#DejaVuSans-38"/>
      <use x="222.65625" xlink:href="#DejaVuSans-31"/>
     </g>
    </g>
    <g id="line2d_42">
     <path d="M 151.2 321.842812 
L 187.2 321.842812 
" style="fill:none;stroke:#17becf;stroke-linecap:square;stroke-width:1.5;"/>
    </g>
    <g id="line2d_43"/>
    <g id="text_24">
     <!-- 0.091 -->
     <g transform="translate(201.6 328.142812)scale(0.18 -0.18)">
      <defs>
       <path d="M 703 97 
L 703 672 
Q 941 559 1184 500 
Q 1428 441 1663 441 
Q 2288 441 2617 861 
Q 2947 1281 2994 2138 
Q 2813 1869 2534 1725 
Q 2256 1581 1919 1581 
Q 1219 1581 811 2004 
Q 403 2428 403 3163 
Q 403 3881 828 4315 
Q 1253 4750 1959 4750 
Q 2769 4750 3195 4129 
Q 3622 3509 3622 2328 
Q 3622 1225 3098 567 
Q 2575 -91 1691 -91 
Q 1453 -91 1209 -44 
Q 966 3 703 97 
z
M 1959 2075 
Q 2384 2075 2632 2365 
Q 2881 2656 2881 3163 
Q 2881 3666 2632 3958 
Q 2384 4250 1959 4250 
Q 1534 4250 1286 3958 
Q 1038 3666 1038 3163 
Q 1038 2656 1286 2365 
Q 1534 2075 1959 2075 
z
" id="DejaVuSans-39" transform="scale(0.015625)"/>
      </defs>
      <use xlink:href="#DejaVuSans-30"/>
      <use x="63.623047" xlink:href="#DejaVuSans-2e"/>
      <use x="95.410156" xlink:href="#DejaVuSans-30"/>
      <use x="159.033203" xlink:href="#DejaVuSans-39"/>
      <use x="222.65625" xlink:href="#DejaVuSans-31"/>
     </g>
    </g>
   </g>
  </g>
 </g>
 <defs>
  <clipPath id="p5e7323860b">
   <rect height="388.08" width="837" x="135" y="60.48"/>
  </clipPath>
 </defs>
</svg>
