<?xml version="1.0" encoding="utf-8" standalone="no"?>
<!DOCTYPE svg PUBLIC "-//W3C//DTD SVG 1.1//EN"
  "http://www.w3.org/Graphics/SVG/1.1/DTD/svg11.dtd">
<svg height="504pt" version="1.1" viewBox="0 0 1080 504" width="1080pt" xmlns="http://www.w3.org/2000/svg" xmlns:xlink="http://www.w3.org/1999/xlink">
 <metadata>
  <rdf:RDF xmlns:cc="http://creativecommons.org/ns#" xmlns:dc="http://purl.org/dc/elements/1.1/" xmlns:rdf="http://www.w3.org/1999/02/22-rdf-syntax-ns#">
   <cc:Work>
    <dc:type rdf:resource="http://purl.org/dc/dcmitype/StillImage"/>
    <dc:date>2022-01-07T13:25:02.246532</dc:date>
    <dc:format>image/svg+xml</dc:format>
    <dc:creator>
     <cc:Agent>
      <dc:title>Matplotlib v3.4.3, https://matplotlib.org/</dc:title>
     </cc:Agent>
    </dc:creator>
   </cc:Work>
  </rdf:RDF>
 </metadata>
 <defs>
  <style type="text/css">*{stroke-linecap:butt;stroke-linejoin:round;}</style>
 </defs>
 <g id="figure_1">
  <g id="patch_1">
   <path d="M 0 504 
L 1080 504 
L 1080 0 
L 0 0 
z
" style="fill:#ffffff;"/>
  </g>
  <g id="axes_1">
   <g id="patch_2">
    <path d="M 135 448.56 
L 972 448.56 
L 972 60.48 
L 135 60.48 
z
" style="fill:#ffffff;"/>
   </g>
   <g id="matplotlib.axis_1">
    <g id="xtick_1">
     <g id="line2d_1">
      <defs>
       <path d="M 0 0 
L 0 3.5 
" id="m8d21e8ca89" style="stroke:#000000;stroke-width:0.8;"/>
      </defs>
      <g>
       <use style="stroke:#000000;stroke-width:0.8;" x="135" xlink:href="#m8d21e8ca89" y="448.56"/>
      </g>
     </g>
     <g id="text_1">
      <!-- 0.0 -->
      <g transform="translate(120.687187 469.237188)scale(0.18 -0.18)">
       <defs>
        <path d="M 2034 4250 
Q 1547 4250 1301 3770 
Q 1056 3291 1056 2328 
Q 1056 1369 1301 889 
Q 1547 409 2034 409 
Q 2525 409 2770 889 
Q 3016 1369 3016 2328 
Q 3016 3291 2770 3770 
Q 2525 4250 2034 4250 
z
M 2034 4750 
Q 2819 4750 3233 4129 
Q 3647 3509 3647 2328 
Q 3647 1150 3233 529 
Q 2819 -91 2034 -91 
Q 1250 -91 836 529 
Q 422 1150 422 2328 
Q 422 3509 836 4129 
Q 1250 4750 2034 4750 
z
" id="DejaVuSans-30" transform="scale(0.015625)"/>
        <path d="M 684 794 
L 1344 794 
L 1344 0 
L 684 0 
L 684 794 
z
" id="DejaVuSans-2e" transform="scale(0.015625)"/>
       </defs>
       <use xlink:href="#DejaVuSans-30"/>
       <use x="63.623047" xlink:href="#DejaVuSans-2e"/>
       <use x="95.410156" xlink:href="#DejaVuSans-30"/>
      </g>
     </g>
    </g>
    <g id="xtick_2">
     <g id="line2d_2">
      <g>
       <use style="stroke:#000000;stroke-width:0.8;" x="302.4" xlink:href="#m8d21e8ca89" y="448.56"/>
      </g>
     </g>
     <g id="text_2">
      <!-- 0.2 -->
      <g transform="translate(288.087187 469.237188)scale(0.18 -0.18)">
       <defs>
        <path d="M 1228 531 
L 3431 531 
L 3431 0 
L 469 0 
L 469 531 
Q 828 903 1448 1529 
Q 2069 2156 2228 2338 
Q 2531 2678 2651 2914 
Q 2772 3150 2772 3378 
Q 2772 3750 2511 3984 
Q 2250 4219 1831 4219 
Q 1534 4219 1204 4116 
Q 875 4013 500 3803 
L 500 4441 
Q 881 4594 1212 4672 
Q 1544 4750 1819 4750 
Q 2544 4750 2975 4387 
Q 3406 4025 3406 3419 
Q 3406 3131 3298 2873 
Q 3191 2616 2906 2266 
Q 2828 2175 2409 1742 
Q 1991 1309 1228 531 
z
" id="DejaVuSans-32" transform="scale(0.015625)"/>
       </defs>
       <use xlink:href="#DejaVuSans-30"/>
       <use x="63.623047" xlink:href="#DejaVuSans-2e"/>
       <use x="95.410156" xlink:href="#DejaVuSans-32"/>
      </g>
     </g>
    </g>
    <g id="xtick_3">
     <g id="line2d_3">
      <g>
       <use style="stroke:#000000;stroke-width:0.8;" x="469.8" xlink:href="#m8d21e8ca89" y="448.56"/>
      </g>
     </g>
     <g id="text_3">
      <!-- 0.4 -->
      <g transform="translate(455.487188 469.237188)scale(0.18 -0.18)">
       <defs>
        <path d="M 2419 4116 
L 825 1625 
L 2419 1625 
L 2419 4116 
z
M 2253 4666 
L 3047 4666 
L 3047 1625 
L 3713 1625 
L 3713 1100 
L 3047 1100 
L 3047 0 
L 2419 0 
L 2419 1100 
L 313 1100 
L 313 1709 
L 2253 4666 
z
" id="DejaVuSans-34" transform="scale(0.015625)"/>
       </defs>
       <use xlink:href="#DejaVuSans-30"/>
       <use x="63.623047" xlink:href="#DejaVuSans-2e"/>
       <use x="95.410156" xlink:href="#DejaVuSans-34"/>
      </g>
     </g>
    </g>
    <g id="xtick_4">
     <g id="line2d_4">
      <g>
       <use style="stroke:#000000;stroke-width:0.8;" x="637.2" xlink:href="#m8d21e8ca89" y="448.56"/>
      </g>
     </g>
     <g id="text_4">
      <!-- 0.6 -->
      <g transform="translate(622.887188 469.237188)scale(0.18 -0.18)">
       <defs>
        <path d="M 2113 2584 
Q 1688 2584 1439 2293 
Q 1191 2003 1191 1497 
Q 1191 994 1439 701 
Q 1688 409 2113 409 
Q 2538 409 2786 701 
Q 3034 994 3034 1497 
Q 3034 2003 2786 2293 
Q 2538 2584 2113 2584 
z
M 3366 4563 
L 3366 3988 
Q 3128 4100 2886 4159 
Q 2644 4219 2406 4219 
Q 1781 4219 1451 3797 
Q 1122 3375 1075 2522 
Q 1259 2794 1537 2939 
Q 1816 3084 2150 3084 
Q 2853 3084 3261 2657 
Q 3669 2231 3669 1497 
Q 3669 778 3244 343 
Q 2819 -91 2113 -91 
Q 1303 -91 875 529 
Q 447 1150 447 2328 
Q 447 3434 972 4092 
Q 1497 4750 2381 4750 
Q 2619 4750 2861 4703 
Q 3103 4656 3366 4563 
z
" id="DejaVuSans-36" transform="scale(0.015625)"/>
       </defs>
       <use xlink:href="#DejaVuSans-30"/>
       <use x="63.623047" xlink:href="#DejaVuSans-2e"/>
       <use x="95.410156" xlink:href="#DejaVuSans-36"/>
      </g>
     </g>
    </g>
    <g id="xtick_5">
     <g id="line2d_5">
      <g>
       <use style="stroke:#000000;stroke-width:0.8;" x="804.6" xlink:href="#m8d21e8ca89" y="448.56"/>
      </g>
     </g>
     <g id="text_5">
      <!-- 0.8 -->
      <g transform="translate(790.287188 469.237188)scale(0.18 -0.18)">
       <defs>
        <path d="M 2034 2216 
Q 1584 2216 1326 1975 
Q 1069 1734 1069 1313 
Q 1069 891 1326 650 
Q 1584 409 2034 409 
Q 2484 409 2743 651 
Q 3003 894 3003 1313 
Q 3003 1734 2745 1975 
Q 2488 2216 2034 2216 
z
M 1403 2484 
Q 997 2584 770 2862 
Q 544 3141 544 3541 
Q 544 4100 942 4425 
Q 1341 4750 2034 4750 
Q 2731 4750 3128 4425 
Q 3525 4100 3525 3541 
Q 3525 3141 3298 2862 
Q 3072 2584 2669 2484 
Q 3125 2378 3379 2068 
Q 3634 1759 3634 1313 
Q 3634 634 3220 271 
Q 2806 -91 2034 -91 
Q 1263 -91 848 271 
Q 434 634 434 1313 
Q 434 1759 690 2068 
Q 947 2378 1403 2484 
z
M 1172 3481 
Q 1172 3119 1398 2916 
Q 1625 2713 2034 2713 
Q 2441 2713 2670 2916 
Q 2900 3119 2900 3481 
Q 2900 3844 2670 4047 
Q 2441 4250 2034 4250 
Q 1625 4250 1398 4047 
Q 1172 3844 1172 3481 
z
" id="DejaVuSans-38" transform="scale(0.015625)"/>
       </defs>
       <use xlink:href="#DejaVuSans-30"/>
       <use x="63.623047" xlink:href="#DejaVuSans-2e"/>
       <use x="95.410156" xlink:href="#DejaVuSans-38"/>
      </g>
     </g>
    </g>
    <g id="xtick_6">
     <g id="line2d_6">
      <g>
       <use style="stroke:#000000;stroke-width:0.8;" x="972" xlink:href="#m8d21e8ca89" y="448.56"/>
      </g>
     </g>
     <g id="text_6">
      <!-- 1.0 -->
      <g transform="translate(957.687188 469.237188)scale(0.18 -0.18)">
       <defs>
        <path d="M 794 531 
L 1825 531 
L 1825 4091 
L 703 3866 
L 703 4441 
L 1819 4666 
L 2450 4666 
L 2450 531 
L 3481 531 
L 3481 0 
L 794 0 
L 794 531 
z
" id="DejaVuSans-31" transform="scale(0.015625)"/>
       </defs>
       <use xlink:href="#DejaVuSans-31"/>
       <use x="63.623047" xlink:href="#DejaVuSans-2e"/>
       <use x="95.410156" xlink:href="#DejaVuSans-30"/>
      </g>
     </g>
    </g>
    <g id="text_7">
     <!-- $FPR_{Fair}$ -->
     <g transform="translate(518.08 493.697187)scale(0.22 -0.22)">
      <defs>
       <path d="M 1081 4666 
L 3756 4666 
L 3653 4134 
L 1606 4134 
L 1338 2759 
L 3188 2759 
L 3084 2228 
L 1234 2228 
L 800 0 
L 172 0 
L 1081 4666 
z
" id="DejaVuSans-Oblique-46" transform="scale(0.015625)"/>
       <path d="M 1081 4666 
L 2541 4666 
Q 3178 4666 3512 4369 
Q 3847 4072 3847 3500 
Q 3847 2731 3353 2303 
Q 2859 1875 1966 1875 
L 1172 1875 
L 806 0 
L 172 0 
L 1081 4666 
z
M 1613 4147 
L 1275 2394 
L 2069 2394 
Q 2606 2394 2893 2669 
Q 3181 2944 3181 3456 
Q 3181 3784 2986 3965 
Q 2791 4147 2438 4147 
L 1613 4147 
z
" id="DejaVuSans-Oblique-50" transform="scale(0.015625)"/>
       <path d="M 1613 4147 
L 1294 2491 
L 2106 2491 
Q 2584 2491 2879 2755 
Q 3175 3019 3175 3444 
Q 3175 3784 2976 3965 
Q 2778 4147 2406 4147 
L 1613 4147 
z
M 2772 2241 
Q 2972 2194 3105 2009 
Q 3238 1825 3413 1275 
L 3809 0 
L 3144 0 
L 2778 1197 
Q 2638 1659 2453 1815 
Q 2269 1972 1888 1972 
L 1191 1972 
L 806 0 
L 172 0 
L 1081 4666 
L 2503 4666 
Q 3150 4666 3495 4373 
Q 3841 4081 3841 3531 
Q 3841 3044 3547 2687 
Q 3253 2331 2772 2241 
z
" id="DejaVuSans-Oblique-52" transform="scale(0.015625)"/>
       <path d="M 3438 1997 
L 3047 0 
L 2472 0 
L 2578 531 
Q 2325 219 2001 64 
Q 1678 -91 1281 -91 
Q 834 -91 548 182 
Q 263 456 263 884 
Q 263 1497 752 1853 
Q 1241 2209 2100 2209 
L 2900 2209 
L 2931 2363 
Q 2938 2388 2941 2417 
Q 2944 2447 2944 2509 
Q 2944 2788 2717 2942 
Q 2491 3097 2081 3097 
Q 1800 3097 1504 3025 
Q 1209 2953 897 2809 
L 997 3341 
Q 1322 3463 1633 3523 
Q 1944 3584 2234 3584 
Q 2853 3584 3176 3315 
Q 3500 3047 3500 2534 
Q 3500 2431 3484 2292 
Q 3469 2153 3438 1997 
z
M 2816 1759 
L 2241 1759 
Q 1534 1759 1195 1570 
Q 856 1381 856 984 
Q 856 709 1029 553 
Q 1203 397 1509 397 
Q 1978 397 2328 733 
Q 2678 1069 2791 1631 
L 2816 1759 
z
" id="DejaVuSans-Oblique-61" transform="scale(0.015625)"/>
       <path d="M 1172 4863 
L 1747 4863 
L 1606 4134 
L 1031 4134 
L 1172 4863 
z
M 909 3500 
L 1484 3500 
L 800 0 
L 225 0 
L 909 3500 
z
" id="DejaVuSans-Oblique-69" transform="scale(0.015625)"/>
       <path d="M 2853 2969 
Q 2766 3016 2653 3041 
Q 2541 3066 2413 3066 
Q 1953 3066 1609 2717 
Q 1266 2369 1153 1784 
L 800 0 
L 225 0 
L 909 3500 
L 1484 3500 
L 1375 2956 
Q 1603 3259 1920 3421 
Q 2238 3584 2597 3584 
Q 2691 3584 2781 3573 
Q 2872 3563 2963 3538 
L 2853 2969 
z
" id="DejaVuSans-Oblique-72" transform="scale(0.015625)"/>
      </defs>
      <use transform="translate(0 0.09375)" xlink:href="#DejaVuSans-Oblique-46"/>
      <use transform="translate(57.519531 0.09375)" xlink:href="#DejaVuSans-Oblique-50"/>
      <use transform="translate(117.822266 0.09375)" xlink:href="#DejaVuSans-Oblique-52"/>
      <use transform="translate(187.304688 -16.3125)scale(0.7)" xlink:href="#DejaVuSans-Oblique-46"/>
      <use transform="translate(227.568359 -16.3125)scale(0.7)" xlink:href="#DejaVuSans-Oblique-61"/>
      <use transform="translate(270.463867 -16.3125)scale(0.7)" xlink:href="#DejaVuSans-Oblique-69"/>
      <use transform="translate(289.912109 -16.3125)scale(0.7)" xlink:href="#DejaVuSans-Oblique-72"/>
     </g>
    </g>
   </g>
   <g id="matplotlib.axis_2">
    <g id="ytick_1">
     <g id="line2d_7">
      <defs>
       <path d="M 0 0 
L -3.5 0 
" id="mc3fbb4d8e7" style="stroke:#000000;stroke-width:0.8;"/>
      </defs>
      <g>
       <use style="stroke:#000000;stroke-width:0.8;" x="135" xlink:href="#mc3fbb4d8e7" y="448.56"/>
      </g>
     </g>
     <g id="text_8">
      <!-- 0.0 -->
      <g transform="translate(99.374375 455.398594)scale(0.18 -0.18)">
       <use xlink:href="#DejaVuSans-30"/>
       <use x="63.623047" xlink:href="#DejaVuSans-2e"/>
       <use x="95.410156" xlink:href="#DejaVuSans-30"/>
      </g>
     </g>
    </g>
    <g id="ytick_2">
     <g id="line2d_8">
      <g>
       <use style="stroke:#000000;stroke-width:0.8;" x="135" xlink:href="#mc3fbb4d8e7" y="370.944"/>
      </g>
     </g>
     <g id="text_9">
      <!-- 0.2 -->
      <g transform="translate(99.374375 377.782594)scale(0.18 -0.18)">
       <use xlink:href="#DejaVuSans-30"/>
       <use x="63.623047" xlink:href="#DejaVuSans-2e"/>
       <use x="95.410156" xlink:href="#DejaVuSans-32"/>
      </g>
     </g>
    </g>
    <g id="ytick_3">
     <g id="line2d_9">
      <g>
       <use style="stroke:#000000;stroke-width:0.8;" x="135" xlink:href="#mc3fbb4d8e7" y="293.328"/>
      </g>
     </g>
     <g id="text_10">
      <!-- 0.4 -->
      <g transform="translate(99.374375 300.166594)scale(0.18 -0.18)">
       <use xlink:href="#DejaVuSans-30"/>
       <use x="63.623047" xlink:href="#DejaVuSans-2e"/>
       <use x="95.410156" xlink:href="#DejaVuSans-34"/>
      </g>
     </g>
    </g>
    <g id="ytick_4">
     <g id="line2d_10">
      <g>
       <use style="stroke:#000000;stroke-width:0.8;" x="135" xlink:href="#mc3fbb4d8e7" y="215.712"/>
      </g>
     </g>
     <g id="text_11">
      <!-- 0.6 -->
      <g transform="translate(99.374375 222.550594)scale(0.18 -0.18)">
       <use xlink:href="#DejaVuSans-30"/>
       <use x="63.623047" xlink:href="#DejaVuSans-2e"/>
       <use x="95.410156" xlink:href="#DejaVuSans-36"/>
      </g>
     </g>
    </g>
    <g id="ytick_5">
     <g id="line2d_11">
      <g>
       <use style="stroke:#000000;stroke-width:0.8;" x="135" xlink:href="#mc3fbb4d8e7" y="138.096"/>
      </g>
     </g>
     <g id="text_12">
      <!-- 0.8 -->
      <g transform="translate(99.374375 144.934594)scale(0.18 -0.18)">
       <use xlink:href="#DejaVuSans-30"/>
       <use x="63.623047" xlink:href="#DejaVuSans-2e"/>
       <use x="95.410156" xlink:href="#DejaVuSans-38"/>
      </g>
     </g>
    </g>
    <g id="ytick_6">
     <g id="line2d_12">
      <g>
       <use style="stroke:#000000;stroke-width:0.8;" x="135" xlink:href="#mc3fbb4d8e7" y="60.48"/>
      </g>
     </g>
     <g id="text_13">
      <!-- 1.0 -->
      <g transform="translate(99.374375 67.318594)scale(0.18 -0.18)">
       <use xlink:href="#DejaVuSans-31"/>
       <use x="63.623047" xlink:href="#DejaVuSans-2e"/>
       <use x="95.410156" xlink:href="#DejaVuSans-30"/>
      </g>
     </g>
    </g>
    <g id="text_14">
     <!-- $TPR_{Fair}$ -->
     <g transform="translate(90.799062 290.27)rotate(-90)scale(0.22 -0.22)">
      <defs>
       <path d="M 378 4666 
L 4325 4666 
L 4225 4134 
L 2559 4134 
L 1759 0 
L 1125 0 
L 1925 4134 
L 275 4134 
L 378 4666 
z
" id="DejaVuSans-Oblique-54" transform="scale(0.015625)"/>
      </defs>
      <use transform="translate(0 0.09375)" xlink:href="#DejaVuSans-Oblique-54"/>
      <use transform="translate(61.083984 0.09375)" xlink:href="#DejaVuSans-Oblique-50"/>
      <use transform="translate(121.386719 0.09375)" xlink:href="#DejaVuSans-Oblique-52"/>
      <use transform="translate(190.869141 -16.3125)scale(0.7)" xlink:href="#DejaVuSans-Oblique-46"/>
      <use transform="translate(231.132812 -16.3125)scale(0.7)" xlink:href="#DejaVuSans-Oblique-61"/>
      <use transform="translate(274.02832 -16.3125)scale(0.7)" xlink:href="#DejaVuSans-Oblique-69"/>
      <use transform="translate(293.476562 -16.3125)scale(0.7)" xlink:href="#DejaVuSans-Oblique-72"/>
     </g>
    </g>
   </g>
   <g id="line2d_13">
    <path clip-path="url(#p3315e9da5b)" d="M 135 448.56 
L 972 60.48 
" style="fill:none;stroke:#ff0000;stroke-dasharray:5.55,2.4;stroke-dashoffset:0;stroke-width:1.5;"/>
   </g>
   <g id="line2d_14">
    <path clip-path="url(#p3315e9da5b)" d="M 972 60.48 
L 306.986301 325.510244 
L 234.642857 380.383784 
L 203.983516 399.098824 
L 189.350649 408.52 
L 177.151079 417.984 
L 170.295181 423.707586 
L 165.357513 426.1376 
L 161.571429 430.717241 
L 159.012295 433.088372 
L 156.984991 434.658627 
L 155.065068 436.304842 
L 153.839228 437.17379 
L 152.308715 438.98852 
L 151.297636 439.553924 
L 150.357798 440.189647 
L 148.383764 440.712794 
L 147.550173 441.199862 
L 146.930921 441.740703 
L 145.561514 442.062466 
L 145.074223 442.30981 
L 144.565714 442.572791 
L 144.147541 442.759891 
L 143.726325 442.98705 
L 143.356073 443.135756 
L 142.301348 443.328529 
L 142.033613 443.490071 
L 141.82 444.09931 
L 141.618979 444.26708 
L 140.828691 444.378103 
L 140.072727 444.474947 
L 139.965722 444.981393 
L 139.84749 445.081195 
L 139.740717 445.152468 
L 139.66151 445.2525 
L 139.055724 445.331978 
L 138.976247 445.438713 
L 138.883991 445.514908 
L 138.806708 445.574769 
L 138.74916 445.946667 
L 138.679121 446.00894 
L 138.619459 446.06029 
L 138.559809 446.121163 
L 138.069146 446.142056 
L 138.013889 446.206217 
L 137.547945 446.244832 
L 137.517293 446.565463 
L 137.062592 446.607045 
L 136.620523 446.637452 
L 136.593527 446.937366 
L 136.575529 446.962963 
L 136.555039 446.989885 
L 136.530165 447.005607 
L 136.509468 447.028105 
L 136.489987 447.055814 
L 136.472296 447.324863 
L 136.453125 447.350274 
L 136.44062 447.605314 
L 136.426502 447.618058 
L 136.409091 447.62991 
L 136.389788 447.644177 
L 136.032484 447.654329 
L 136.022394 447.668886 
L 136.0125 447.68 
L 136.0044 447.691326 
L 135.662184 447.700941 
L 135.655442 447.707545 
L 135.323166 447.716806 
L 135.319832 447.933053 
L 135.315373 447.940394 
L 135.312547 447.944976 
L 135.31 447.949811 
L 135.306369 447.953941 
L 135.303261 447.959876 
L 135.300108 447.96721 
L 135.296809 447.969914 
L 135.294097 448.170752 
L 135.291536 448.175191 
L 135.289419 448.179716 
L 135.287431 448.18249 
L 135.285568 448.187025 
L 135.283921 448.190224 
L 135.281723 448.194232 
L 135.279186 448.197816 
L 135.278073 448.2005 
L 135.275873 448.203473 
L 135.274246 448.208478 
L 135 448.211946 
L 135 448.214733 
L 135 448.217476 
L 135 448.220175 
L 135 448.222098 
L 135 448.224291 
L 135 448.226455 
L 135 448.23014 
L 135 448.233058 
L 135 448.234839 
L 135 448.237272 
L 135 448.240066 
L 135 448.242422 
L 135 448.244872 
" style="fill:none;stroke:#1f77b4;stroke-linecap:square;stroke-width:1.5;"/>
   </g>
   <g id="line2d_15">
    <path clip-path="url(#p3315e9da5b)" d="M 972 60.48 
L 827.333333 105.415579 
L 746.653846 141.406635 
L 680.691176 172.07382 
L 641.807339 195.464348 
L 581.4 217.393213 
L 537.647727 238.510099 
L 497.895105 247.786751 
L 465.970588 265.736185 
L 439.363636 278.514194 
L 422.869942 290.199899 
L 401.111413 302.802254 
L 385.664062 308.64 
L 369.768293 318.651864 
L 360.421546 324.534433 
L 352.771493 330.149764 
L 340.2 338.409474 
L 329.086957 344.050126 
L 318.974257 350.210959 
L 307.893822 355.039082 
L 303.343985 357.283584 
L 293.637184 361.317209 
L 285.306338 363.630638 
L 280.003431 366.01418 
L 272.167224 369.141597 
L 263.457189 372.690633 
L 258.126761 375.428006 
L 255.125 378.236779 
L 249.657534 381.198964 
L 244.281899 383.225013 
L 240.84157 384.766027 
L 237.219828 386.410269 
L 234.305085 387.965864 
L 231.756267 389.445488 
L 229.148148 390.854574 
L 227.240816 392.441646 
L 225.364372 394.624886 
L 223.806366 395.883181 
L 221.435294 396.762044 
L 218.052835 397.801854 
L 217.100637 398.776 
L 214.361568 400.38721 
L 211.941615 401.371284 
L 209.034398 402.155063 
L 206.018182 403.20475 
L 201.556627 404.321038 
L 200.921241 405.597804 
L 197.182783 407.65427 
L 194.437718 408.342675 
L 192.990762 409.277906 
L 191.309008 410.050778 
L 190.424242 410.602766 
L 188.820399 412.065491 
L 186.338445 413.162985 
L 185.147059 413.97233 
L 183.862703 414.78672 
L 182.597639 415.734261 
L 182.34365 416.750164 
L 181.942857 417.345522 
L 180.814737 417.953384 
L 180.290323 418.437739 
L 178.188854 419.063607 
L 177.151079 419.411134 
L 176.037794 420.11582 
L 175.74645 421.419582 
L 174.616314 421.805373 
L 173.463536 421.994185 
L 170.81194 422.254088 
L 170.599407 422.670021 
L 170.216243 423.238846 
L 170.078947 423.642295 
L 169.030978 423.861611 
L 167.161383 424.027707 
L 166.764706 424.694118 
L 165.621951 425.671252 
L 165.141274 425.761901 
L 164.206612 426.463822 
L 163.993619 426.749302 
L 163.862069 427.220563 
L 162.97561 427.589371 
L 162.824798 427.826625 
L 162.650893 428.274549 
L 161.665487 428.750258 
L 160.765172 429.144161 
L 159.897638 430.192136 
L 159.6817 430.324916 
L 159.532759 431.394477 
L 158.749785 431.747039 
L 157.911891 432.332862 
L 155.746154 432.673684 
L 153.520851 433.018781 
L 152.748092 433.297166 
L 152.718036 433.608097 
L 151.980558 433.873486 
L 151.218197 434.448 
L 150.47395 434.778129 
L 149.708787 435.275556 
L 149.610973 435.386444 
L 149.538462 435.688358 
L 148.823287 435.808193 
L 148.777778 435.925817 
" style="fill:none;stroke:#ff7f0e;stroke-linecap:square;stroke-width:1.5;"/>
   </g>
   <g id="line2d_16">
    <path clip-path="url(#p3315e9da5b)" d="M 972 60.48 
L 972 61.735922 
L 968.541322 61.74 
L 965.082645 61.744104 
L 964.936709 63.016471 
L 964.721739 63.024787 
L 964.625551 63.041584 
L 964.459459 63.050066 
L 964.25 63.075853 
L 964.140845 66.926512 
L 960.099526 68.215814 
L 959.985646 69.565485 
L 959.869565 70.898255 
L 959.75122 71.04 
L 959.75122 73.770411 
L 959.75122 73.908374 
L 959.691176 76.763077 
L 959.38191 76.935689 
L 959.188776 78.370213 
L 958.853403 78.627626 
L 958.853403 78.693141 
L 958.353261 78.96 
L 958.05 79.165333 
L 957.893258 79.234796 
L 952.868571 79.517887 
L 952.305882 79.735878 
L 952.071429 79.884 
L 951.831325 80.034419 
L 951.460123 84.546977 
L 951.204969 86.150661 
L 950.538462 89.170739 
L 950.117647 89.395765 
L 949.827815 89.395765 
L 949.22449 90.917647 
L 949.068493 92.439529 
L 948.910345 93.961412 
L 948.422535 97.148976 
L 947.913669 97.148976 
L 947.382353 97.148976 
L 946.827068 100.048941 
L 946.636364 105.431351 
L 946.046512 105.958125 
L 945.84375 106.497391 
L 938.785714 106.68 
L 937.97561 109.565217 
L 936.831933 111.09913 
L 936.831933 111.70656 
L 935.289474 115.471093 
L 934.297297 115.694634 
L 933.954545 119.088 
L 933.605505 121.755789 
L 933.25 123.582439 
L 932.88785 126.229091 
L 932.142857 128.112199 
L 931.759615 128.964706 
L 930.970588 133.856471 
L 930.564356 136.796987 
L 930.15 137.767119 
L 929.727273 138.427692 
L 928.85567 138.762232 
L 928.85567 142.8 
L 927.947368 143.518952 
L 927 144.250573 
L 926.51087 145.753184 
L 926.010989 148.68 
L 924.977528 149.08274 
L 923.896552 149.08274 
L 922.178571 149.08274 
L 922.178571 152.626849 
L 922.178571 154.829725 
L 922.178571 155.703333 
L 921.578313 155.703333 
L 920.333333 155.703333 
L 920.333333 157.5 
L 919.025316 159.365769 
L 916.2 159.365769 
L 914.671233 162.209709 
L 913.875 162.209709 
L 913.875 164.224158 
L 910.455882 165.788141 
L 909.537313 167.4 
L 895.909091 169.061969 
L 894.738462 171.64875 
L 892.285714 173.413333 
L 889.672131 175.855135 
L 889.672131 175.855135 
L 886.881356 179.06 
L 870.982759 179.722458 
L 867.375 183.148966 
L 857.117647 186.831628 
L 849.9375 189.074556 
L 847.340426 192.938443 
L 847.340426 195.361463 
L 841.8 196.188957 
L 835.744186 202.695652 
L 832.5 204.484528 
L 829.097561 207.253846 
L 821.769231 209.741538 
L 821.769231 212.668235 
L 817.815789 214.683974 
L 817.815789 214.683974 
" style="fill:none;stroke:#2ca02c;stroke-linecap:square;stroke-width:1.5;"/>
   </g>
   <g id="line2d_17">
    <path clip-path="url(#p3315e9da5b)" d="M 972 60.48 
L 972 60.48 
L 969.713115 60.48 
L 967.42623 60.48 
L 965.063536 60.48 
L 964.926761 60.48 
L 964.846154 60.48 
L 964.721739 60.48 
L 964.526786 60.48 
L 964.413897 63.016471 
L 961.792683 63.050066 
L 961.698462 63.093333 
L 961.5375 63.102162 
L 961.405063 63.165675 
L 961.33758 63.18439 
L 961.33758 63.203368 
L 961.234727 63.23234 
L 960.950495 63.252 
L 960.84 63.312701 
L 960.650847 63.354667 
L 960.650847 63.354667 
L 960.293706 63.408906 
L 960.12766 63.431179 
L 959.956835 63.442443 
L 956.726277 63.465231 
L 956.325843 63.500078 
L 953.049057 63.547826 
L 952.832061 63.572271 
L 949.465385 68.210677 
L 949.023529 69.756813 
L 948.564 72.849084 
L 948.085714 72.948434 
L 947.789256 72.948434 
L 947.173729 72.948434 
L 947.068085 74.620567 
L 946.526087 76.191741 
L 946.075221 77.904 
L 945.488688 77.904 
L 945 78.047407 
L 944.621495 81.156393 
L 944.363208 87.082258 
L 943.831731 87.408 
L 943.419512 89.226667 
L 942.557789 89.226667 
L 942.107143 92.420741 
L 937.125 94.017778 
L 936.382979 94.722353 
L 930.836066 98.301356 
L 929.916201 98.462298 
L 929.679775 101.941538 
L 929.198864 105.258462 
L 928.954286 107.116223 
L 928.456647 109.625502 
L 927.947368 113.245263 
L 927.160714 114.1875 
L 926.620482 117.908879 
L 926.345455 122.85 
L 926.067073 123.984 
L 925.785276 124.566606 
L 924.322785 124.861935 
L 924.019108 128.753333 
L 923.4 130.041509 
L 922.764706 130.371185 
L 917.294118 131.04 
L 916.569536 132.769412 
L 915.825503 133.125517 
L 914.671233 133.125517 
L 913.056338 133.125517 
L 912.214286 135.406337 
L 910.905109 136.535879 
L 910.455882 137.30802 
L 910 137.30802 
L 901.717557 137.30802 
L 900.627907 138.496082 
L 899.503937 138.900311 
L 895.275 139.30875 
L 892.62931 141.416471 
L 891.93913 143.185574 
L 889.794643 145.033743 
L 885.953271 145.989153 
L 885.141509 147.463448 
L 882.61165 148.474884 
L 879.93 149.510118 
L 877.082474 150.57 
L 875.084211 152.208 
L 873 153.333497 
L 870.824176 156.271899 
L 867.375 158.125935 
L 864.94186 160.712583 
L 856.9125 163.44 
L 852.428571 165.585 
L 850.855263 167.065352 
L 850.855263 169.365755 
L 847.581081 170.154783 
L 842.323944 171.767647 
L 840.471429 173.428657 
L 836.602941 175.14 
L 832.5 176.015267 
L 828.140625 179.654173 
L 825.857143 182.537419 
L 823.5 182.537419 
" style="fill:none;stroke:#d62728;stroke-linecap:square;stroke-width:1.5;"/>
   </g>
   <g id="line2d_18">
    <path clip-path="url(#p3315e9da5b)" d="M 972 60.48 
L 972 61.276879 
L 970.230444 61.280165 
L 968.438298 61.285145 
L 968.4 62.093638 
L 968.33698 62.103766 
L 968.288248 62.124407 
L 968.238202 62.127898 
L 968.16055 62.152759 
L 968.097902 64.652903 
L 966.06383 65.52 
L 966.00716 66.424333 
L 965.920097 67.288421 
L 965.845588 67.394566 
L 965.815271 68.346486 
L 965.769231 68.454247 
L 965.7225 70.338845 
L 965.578005 70.500845 
L 965.477922 71.568 
L 965.37467 71.728696 
L 965.339523 71.838439 
L 965.158038 71.978667 
L 965.082645 72.064478 
L 964.966387 72.093367 
L 962.515581 72.210378 
L 962.295652 72.329771 
L 962.181818 72.45162 
L 962.094675 72.513488 
L 961.976048 77.439794 
L 961.761468 78.483711 
L 961.5375 80.484124 
L 961.33758 80.64 
L 961.2 80.6925 
L 960.986842 81.758538 
L 960.877076 82.888819 
L 960.689189 83.907402 
L 960.494845 86.078945 
L 960.252632 87.032842 
L 960.042857 87.173333 
L 959.825455 90.096632 
L 959.691176 94.752 
L 959.507463 95.111811 
L 956.207547 95.66592 
L 952.684615 95.76 
L 952.459144 97.935442 
L 951.992032 99.079355 
L 951.585366 99.712131 
L 950.987448 102.40554 
L 950.538462 102.522 
L 950.165217 104.801114 
L 949.876652 108.044123 
L 949.68 109.397647 
L 949.378378 111.4848 
L 948.963303 113.196069 
L 948.53271 113.969032 
L 948.311321 117.550588 
L 947.971292 119.833412 
L 947.73913 120.719284 
L 947.502439 121.081081 
L 946.89 121.447251 
L 946.636364 124.177021 
L 946.377551 124.960985 
L 945.979275 125.360248 
L 945.568421 126.380377 
L 945.144385 128.455796 
L 940.32973 128.672971 
L 939.268156 128.891538 
L 938.132948 128.891538 
L 937.331361 131.836645 
L 936.490909 133.798046 
L 936.27439 134.27882 
L 935.608696 134.521579 
L 934.2 134.521579 
L 933.705882 135.759732 
L 933.198675 137.04 
L 931.3125 137.301297 
L 929.848921 139.707405 
L 928.919118 141.102254 
L 927.613636 142.254 
L 925.866142 143.139639 
L 925.128 144.969742 
L 923.97541 145.915522 
L 922.764706 148.34717 
L 921.491379 149.693793 
L 919.216216 151.43625 
L 918.247706 152.514783 
L 917.242991 154.750445 
L 908.228571 156.302222 
L 898.864078 159.564255 
L 894.340206 162.518276 
L 891 164.765815 
L 890.119565 167.895 
L 890.119565 169.848 
L 888.3 170.347397 
L 885.413793 174.936774 
L 882.321429 177.086197 
L 879 178.752 
L 876.64557 181.174737 
L 874.168831 184.132941 
L 872.881579 185.978507 
L 870.202703 185.978507 
" style="fill:none;stroke:#9467bd;stroke-linecap:square;stroke-width:1.5;"/>
   </g>
   <g id="line2d_19">
    <path clip-path="url(#p3315e9da5b)" d="M 972 60.48 
L 917.78673 78.8256 
L 868.31194 96.250852 
L 827.935989 106.68 
L 789.795918 117.475248 
L 756.990826 131.432623 
L 728.316456 143.725556 
L 696.402439 150.444 
L 669.255319 162.515805 
L 646.606651 175.751287 
L 626.526846 184.278058 
L 605.64247 197.419015 
L 589.041401 205.570712 
L 570.757732 215.614124 
L 555.594595 222.140025 
L 539.292919 231.085217 
L 521.730084 238.005957 
L 504.107045 245.28 
L 491.778777 254.52 
L 480.910619 259.915996 
L 468.790698 264.688035 
L 453.186712 269.734737 
L 440.734644 273.364867 
L 428.719424 277.9665 
L 417.471229 280.459026 
L 404.262519 284.052135 
L 394.203991 287.772823 
L 386.88905 290.93863 
L 379.075391 294.842459 
L 370.132075 297.223784 
L 359.925773 299.839161 
L 353.670532 302.893095 
L 347.197183 305.772456 
L 340.51092 308.183077 
L 336.165029 311.136911 
L 331.366818 313.68064 
L 325.932268 318.076108 
L 320.004408 321.086038 
L 313.726257 323.362303 
L 308.385943 325.478561 
L 304.538321 327.923289 
L 299.374699 330.050228 
L 295.022037 333.167961 
L 290.273852 334.126154 
L 286.605708 337.11295 
L 281.825159 338.806125 
L 278.253005 341.430607 
L 272.517339 344.952222 
L 268.373311 346.651969 
L 264.27 348.684317 
L 261.678591 350.448252 
L 259.320457 352.762639 
L 256.434713 354.845867 
L 252.981383 356.759204 
L 249.597156 358.915789 
L 247.413326 361.073757 
L 244.848173 363.027389 
L 243.206949 364.829468 
L 241.427052 366.355862 
L 238.151408 367.743899 
L 236.038748 369.442101 
L 234.2 370.997308 
L 232.335132 372 
L 230.308029 373.625854 
L 228.675872 375.386667 
L 225.715318 376.232465 
L 222.662841 376.92239 
L 218.303318 377.976835 
L 215.860038 379.314353 
L 212.833178 380.608249 
L 211.725 381.666934 
L 209.690892 382.509133 
L 205.802469 382.9725 
L 204.496824 384.414545 
L 202.457452 386.2031 
L 199.5 386.681582 
L 196.889532 388.353196 
L 195.023904 390.095375 
L 193.283825 391.447241 
L 191.167105 392.306202 
L 190.070588 394.266569 
L 188.788971 395.3309 
L 186.702376 396.457748 
L 184.932618 397.961053 
L 182.756757 399.210125 
L 181.658298 400.193947 
L 180.377382 401.944473 
L 179.08976 403.105074 
L 177.464151 404.781293 
L 174.940561 405.893895 
L 173.330558 407.149714 
L 172.46208 408.102038 
L 172.2 409.120976 
L 170.690037 409.550225 
L 169.205149 410.552165 
L 167.910012 411.810839 
L 166.05 412.577611 
L 164.880866 413.200136 
L 164.04627 414.491075 
L 163.277027 415.730824 
L 162.524168 416.38197 
" style="fill:none;stroke:#8c564b;stroke-linecap:square;stroke-width:1.5;"/>
   </g>
   <g id="line2d_20">
    <path clip-path="url(#p3315e9da5b)" d="M 972 60.48 
L 972 60.48 
L 970.839112 60.48 
L 969.655462 60.48 
L 969.628895 60.48 
L 969.584416 60.48 
L 969.559767 60.48 
L 969.51632 60.48 
L 969.471299 60.48 
L 969.432515 61.851307 
L 968.106977 61.866 
L 968.064263 61.878486 
L 968.001592 61.883544 
L 967.943457 61.906765 
L 967.903752 61.92 
L 967.876847 61.944453 
L 967.842715 61.961221 
L 967.765599 61.984186 
L 967.685567 62.007874 
L 967.633043 62.03232 
L 967.602452 62.04169 
L 967.50805 62.064 
L 967.451087 62.083636 
L 967.384191 62.093638 
L 965.788497 62.10717 
L 965.634981 62.936203 
L 965.549133 62.957106 
L 965.473684 62.973019 
L 965.409449 65.476738 
L 965.277108 66.322065 
L 965.125257 67.991226 
L 965.010438 68.04 
L 964.876596 68.089412 
L 964.753247 68.122713 
L 964.657895 69.009231 
L 964.56 69.862154 
L 964.459459 69.9664 
L 964.285714 70.05148 
L 964.140845 70.094595 
L 963.990431 71.842703 
L 963.873786 75.239195 
L 963.712871 75.37246 
L 963.545455 75.576934 
L 963.371134 75.646345 
L 963.235602 76.612656 
L 963.048128 76.801121 
L 962.902174 77.072494 
L 962.621849 79.27322 
L 962.434286 79.457017 
L 962.210526 81.405882 
L 962.094675 83.477333 
L 962.00597 84.674514 
L 961.915663 86.024506 
L 961.761468 87.347077 
L 961.570093 87.766875 
L 961.471698 89.941571 
L 961.33758 92.056063 
L 961.269231 92.475957 
L 961.165049 92.733298 
L 960.950495 93.171522 
L 960.84 95.663077 
L 960.689189 96.054 
L 960.573379 96.153092 
L 960.455172 96.759433 
L 960.293706 97.28069 
L 960 97.49341 
L 959.691176 97.600696 
L 959.269962 97.708605 
L 959.023256 98.257699 
L 958.554217 98.708776 
L 958.390244 99.054217 
L 958.165289 99.288 
L 957.379913 99.288 
L 957.251101 99.885046 
L 956.918919 100.50075 
L 956.35514 100.626207 
L 955.903846 101.526923 
L 955.425743 102.331765 
L 955.005076 102.886093 
L 954.5625 103.1688 
L 954.378947 104.188669 
L 954.096257 104.640828 
L 953.604396 105.258462 
L 953.191011 106.218 
L 952.534884 107.219562 
L 952.071429 107.912 
L 951.585366 109.360305 
L 951.075 110.11814 
L 950.4 111.50247 
L 949.378378 112.328745 
L 948.422535 113.4 
L 948.085714 114.516456 
L 947.913669 115.44412 
L 947.2 115.681034 
L 946.246154 116.649474 
L 945.428571 117.908879 
L 944.1 118.957808 
L 942.886957 119.496774 
L 942.371681 120.888679 
L 941.563636 122.648155 
L 940.71028 123.257647 
" style="fill:none;stroke:#e377c2;stroke-linecap:square;stroke-width:1.5;"/>
   </g>
   <g id="line2d_21">
    <path clip-path="url(#p3315e9da5b)" d="M 972 60.48 
L 931.5 71.794286 
L 894.895671 83.08125 
L 863.533477 90.875077 
L 834.844538 100.188049 
L 808.914433 112.086383 
L 782.078313 124.322176 
L 757.807087 130.680459 
L 735.280888 140.048604 
L 717.711429 149.781151 
L 697.407993 157.031304 
L 676.098553 169.740841 
L 660.176471 177.12576 
L 641.279373 185.92 
L 624.552632 192.127028 
L 608.538462 199.985882 
L 592.65 206.634592 
L 575.317536 212.748929 
L 560.979021 220.15875 
L 549.66055 226.401151 
L 538.162304 230.289624 
L 523.102715 234.998873 
L 510 239.027784 
L 496.058824 244.427635 
L 484.516484 247.907147 
L 469.8 252.276763 
L 459.178453 255.446648 
L 450.849057 258.554858 
L 441.703395 262.846343 
L 431.812263 265.807645 
L 421.837079 268.024615 
L 415.037175 271.841876 
L 406.140845 275.506596 
L 399.129013 277.599648 
L 394.011439 281.324831 
L 387.294293 284.000755 
L 381.668824 287.793413 
L 374.28238 290.851587 
L 367.526801 293.456716 
L 361.83705 295.997838 
L 356.237663 298.648452 
L 350.847973 301.0896 
L 344.717076 303.993264 
L 339.259567 305.405687 
L 333.478094 308.621495 
L 327.382353 310.455385 
L 323.517596 313.169231 
L 317.19181 316.798886 
L 310.975454 319.001443 
L 305.942857 320.972055 
L 302.575933 323.495728 
L 299.870245 326.343761 
L 296.292395 328.72875 
L 292.257128 330.724276 
L 288.295156 333.053176 
L 284.778947 335.57109 
L 281.630769 337.880144 
L 279.111001 339.986686 
L 276.412831 341.5608 
L 272.806217 343.621405 
L 269.948177 346.218228 
L 267.262732 348.016927 
L 264.530999 349.669091 
L 262.139241 352.137659 
L 259.767757 353.983662 
L 255.627615 354.958049 
L 251.862691 355.661551 
L 246.727982 356.987647 
L 243.627049 358.465377 
L 239.719855 360.055053 
L 237.697079 361.177748 
L 235.46988 362.234614 
L 230.316726 362.688063 
L 228.655507 364.183733 
L 226.129427 366.393225 
L 222.088811 367.123523 
L 219.171651 369.339535 
L 216.500215 371.292948 
L 214.253213 372.728276 
L 212.129693 374.005191 
L 211.026316 376.1184 
L 209.643702 377.03924 
L 207.568182 378.666499 
L 204.983278 380.676414 
L 202.883779 382.094605 
L 200.987552 383.273246 
L 199.331405 385.451664 
L 197.318799 386.727043 
L 194.932488 388.56 
L 192.394286 389.774483 
L 189.757009 391.552551 
L 188.519223 392.779459 
L 187.838359 394.171799 
L 185.991583 394.738686 
L 184.156612 396.597539 
L 182.458763 398.447568 
L 180.25217 399.671698 
L 178.463415 400.253214 
L 177.292597 401.667 
L 176.180008 403.214947 
L 174.515021 403.913628 
" style="fill:none;stroke:#7f7f7f;stroke-linecap:square;stroke-width:1.5;"/>
   </g>
   <g id="line2d_22">
    <path clip-path="url(#p3315e9da5b)" d="M 972 60.48 
L 947.932907 66.65634 
L 920.719626 76.608 
L 898.398773 82.012181 
L 875.358434 90.86 
L 853.972195 96.512522 
L 837.026549 105.516444 
L 816.487354 111.058027 
L 796.720461 119.535652 
L 779.029412 128.451408 
L 762.358879 134.725352 
L 748.079336 145.733272 
L 733.294333 150.914932 
L 716.145176 158.151141 
L 704.18984 162.991698 
L 688.370306 170.080615 
L 675.023196 175.592061 
L 658.923664 182.016933 
L 644.936975 190.388136 
L 630.97438 194.484393 
L 621.088091 197.064531 
L 606.065217 202.667975 
L 591.967512 205.60575 
L 575.21921 209.123478 
L 560.808656 212.354768 
L 545.023256 216.663371 
L 534.547884 220.439878 
L 523.235939 223.387447 
L 511.469871 227.688818 
L 499.586477 230.771821 
L 488.478814 234.064552 
L 480.999296 237.909572 
L 471.90566 242.055302 
L 463.883576 243.760612 
L 457.991701 248.307797 
L 451.314815 251.45146 
L 445.021146 255.949392 
L 437.139361 258.610669 
L 429.813765 261.211034 
L 423.736913 263.260541 
L 416.419613 266.238224 
L 410.665339 269.077282 
L 403.700725 272.407796 
L 397.146422 273.890018 
L 389.456662 277.348235 
L 382.639535 279.319585 
L 378.295177 282.048166 
L 370.6238 286.107907 
L 362.647059 289.075068 
L 356.450784 291.346315 
L 352.328144 293.985763 
L 349.695167 296.53203 
L 345.40466 299.021585 
L 341.187805 301.357241 
L 337.385176 303.681141 
L 332.716535 306.350384 
L 328.852835 309.158844 
L 325.524324 311.10168 
L 322.5 313.146207 
L 318.404394 315.177349 
L 314.883735 317.934866 
L 311.004673 319.515512 
L 307.552265 321.28477 
L 304.421507 324.187373 
L 301.63167 326.547648 
L 296.922503 327.865263 
L 292.356 328.55752 
L 286.488902 330.355253 
L 282.37246 332.074692 
L 276.69685 333.788707 
L 274.110987 335.243077 
L 271.331302 336.549459 
L 265.230897 337.161061 
L 262.990099 338.806125 
L 259.72762 341.263738 
L 254.831791 341.565981 
L 251.136585 344.529231 
L 247.655676 346.734056 
L 244.763087 348.545556 
L 241.65 350.118736 
L 239.959979 352.885424 
L 237.844149 354.435011 
L 234.907162 357.003836 
L 231.18661 359.207234 
L 228.588608 360.909992 
L 226.293131 362.352691 
L 224.210031 365.211997 
L 221.616225 366.751688 
L 218.352697 368.841535 
L 214.714286 370.186486 
L 211.404848 372.397483 
L 209.839671 373.794963 
L 208.878061 375.64976 
L 206.523906 376.392771 
L 203.759635 378.734454 
L 201.067873 380.905104 
L 198.256757 382.442667 
L 195.948628 383.307611 
L 194.072565 385.066354 
L 192.20951 386.865231 
L 190.136701 388.072658 
" style="fill:none;stroke:#bcbd22;stroke-linecap:square;stroke-width:1.5;"/>
   </g>
   <g id="line2d_23">
    <path clip-path="url(#p3315e9da5b)" d="M 972 60.48 
L 940.70278 68.815847 
L 911.212291 79.906589 
L 888.376719 89.718904 
L 868.320976 99.762848 
L 847.722719 108.511807 
L 826.242744 119.418353 
L 804.454939 126.449528 
L 784.014518 136.006957 
L 765.037847 146.546129 
L 746.866337 153.634661 
L 731.303006 165.194043 
L 716.119067 171.781197 
L 694.974057 179.805533 
L 682.369362 186.1508 
L 668.218989 192.900382 
L 653.412162 200.716422 
L 638.067358 207.929921 
L 623.504748 216.112771 
L 608.920544 221.13322 
L 599.342756 224.314112 
L 584.661795 229.717895 
L 571.895604 233.638212 
L 556.604181 238.5216 
L 543.806089 242.627226 
L 528.111546 247.424738 
L 517.120412 251.308936 
L 507 254.973718 
L 496.479375 259.303729 
L 484.613243 263.212756 
L 474.213366 266.310878 
L 466.940207 269.755733 
L 458.167976 273.188571 
L 450.56553 275.580781 
L 444.630072 279.517324 
L 438.239362 282.590393 
L 432.348796 286.658295 
L 424.599065 289.217662 
L 417.730814 291.48 
L 411.413673 293.589333 
L 404.501443 296.366715 
L 399.265212 299.219644 
L 392.685291 302.522042 
L 386.33711 303.66329 
L 378.96861 306.963243 
L 372.470062 309.109258 
L 368.613928 311.502956 
L 361.629568 315.080255 
L 354.225205 317.887533 
L 348.228137 320.093819 
L 344.475728 322.585121 
L 341.44504 324.796539 
L 337.571809 326.790611 
L 333.632664 328.894054 
L 330.255924 331.06789 
L 325.586569 333.363504 
L 321.486402 336.01213 
L 317.69765 338.045612 
L 314.667879 339.962434 
L 311.051163 341.694053 
L 307.877301 344.262067 
L 304.099492 345.953655 
L 301.047956 347.812806 
L 297.877939 350.2464 
L 294.965569 352.099516 
L 290.478586 353.542706 
L 286.38999 354.473292 
L 281.050914 356.002589 
L 277.372059 357.415008 
L 272.052632 359.424244 
L 269.228198 360.528377 
L 266.499759 361.789737 
L 261.134328 362.272062 
L 258.570473 363.997821 
L 255.251778 366.044651 
L 250.557447 366.622492 
L 247.362223 368.855486 
L 244.002821 370.816552 
L 241.148426 372.337541 
L 238.449438 373.515741 
L 236.997209 375.781854 
L 235.160482 377.335414 
L 231.830171 379.20809 
L 228.256906 380.878848 
L 225.986642 382.605008 
L 223.5694 383.708435 
L 221.678376 385.821422 
L 219.384196 387.059874 
L 216.159039 388.71494 
L 212.675419 389.772244 
L 209.786101 391.365023 
L 208.077408 392.430233 
L 207.245528 393.750978 
L 205.122995 394.320866 
L 202.643872 396.165216 
L 200.263877 397.94087 
L 197.149824 399.232833 
L 194.733363 399.926941 
L 193.064136 401.276239 
L 191.406522 402.569682 
L 189.539531 403.429895 
" style="fill:none;stroke:#17becf;stroke-linecap:square;stroke-width:1.5;"/>
   </g>
   <g id="patch_3">
    <path d="M 135 448.56 
L 135 60.48 
" style="fill:none;stroke:#000000;stroke-linecap:square;stroke-linejoin:miter;stroke-width:0.8;"/>
   </g>
   <g id="patch_4">
    <path d="M 972 448.56 
L 972 60.48 
" style="fill:none;stroke:#000000;stroke-linecap:square;stroke-linejoin:miter;stroke-width:0.8;"/>
   </g>
   <g id="patch_5">
    <path d="M 135 448.56 
L 972 448.56 
" style="fill:none;stroke:#000000;stroke-linecap:square;stroke-linejoin:miter;stroke-width:0.8;"/>
   </g>
   <g id="patch_6">
    <path d="M 135 60.48 
L 972 60.48 
" style="fill:none;stroke:#000000;stroke-linecap:square;stroke-linejoin:miter;stroke-width:0.8;"/>
   </g>
   <g id="legend_1">
    <g id="patch_7">
     <path d="M 147.6 339.08625 
L 256.730625 339.08625 
Q 260.330625 339.08625 260.330625 335.48625 
L 260.330625 73.08 
Q 260.330625 69.48 256.730625 69.48 
L 147.6 69.48 
Q 144 69.48 144 73.08 
L 144 335.48625 
Q 144 339.08625 147.6 339.08625 
z
" style="fill:#ffffff;opacity:0.8;stroke:#cccccc;stroke-linejoin:miter;"/>
    </g>
    <g id="line2d_24">
     <path d="M 151.2 84.057188 
L 187.2 84.057188 
" style="fill:none;stroke:#1f77b4;stroke-linecap:square;stroke-width:1.5;"/>
    </g>
    <g id="line2d_25"/>
    <g id="text_15">
     <!-- 0.001 -->
     <g transform="translate(201.6 90.357188)scale(0.18 -0.18)">
      <use xlink:href="#DejaVuSans-30"/>
      <use x="63.623047" xlink:href="#DejaVuSans-2e"/>
      <use x="95.410156" xlink:href="#DejaVuSans-30"/>
      <use x="159.033203" xlink:href="#DejaVuSans-30"/>
      <use x="222.65625" xlink:href="#DejaVuSans-31"/>
     </g>
    </g>
    <g id="line2d_26">
     <path d="M 151.2 110.477812 
L 187.2 110.477812 
" style="fill:none;stroke:#ff7f0e;stroke-linecap:square;stroke-width:1.5;"/>
    </g>
    <g id="line2d_27"/>
    <g id="text_16">
     <!-- 0.011 -->
     <g transform="translate(201.6 116.777812)scale(0.18 -0.18)">
      <use xlink:href="#DejaVuSans-30"/>
      <use x="63.623047" xlink:href="#DejaVuSans-2e"/>
      <use x="95.410156" xlink:href="#DejaVuSans-30"/>
      <use x="159.033203" xlink:href="#DejaVuSans-31"/>
      <use x="222.65625" xlink:href="#DejaVuSans-31"/>
     </g>
    </g>
    <g id="line2d_28">
     <path d="M 151.2 136.898438 
L 187.2 136.898438 
" style="fill:none;stroke:#2ca02c;stroke-linecap:square;stroke-width:1.5;"/>
    </g>
    <g id="line2d_29"/>
    <g id="text_17">
     <!-- 0.021 -->
     <g transform="translate(201.6 143.198438)scale(0.18 -0.18)">
      <use xlink:href="#DejaVuSans-30"/>
      <use x="63.623047" xlink:href="#DejaVuSans-2e"/>
      <use x="95.410156" xlink:href="#DejaVuSans-30"/>
      <use x="159.033203" xlink:href="#DejaVuSans-32"/>
      <use x="222.65625" xlink:href="#DejaVuSans-31"/>
     </g>
    </g>
    <g id="line2d_30">
     <path d="M 151.2 163.319062 
L 187.2 163.319062 
" style="fill:none;stroke:#d62728;stroke-linecap:square;stroke-width:1.5;"/>
    </g>
    <g id="line2d_31"/>
    <g id="text_18">
     <!-- 0.031 -->
     <g transform="translate(201.6 169.619062)scale(0.18 -0.18)">
      <defs>
       <path d="M 2597 2516 
Q 3050 2419 3304 2112 
Q 3559 1806 3559 1356 
Q 3559 666 3084 287 
Q 2609 -91 1734 -91 
Q 1441 -91 1130 -33 
Q 819 25 488 141 
L 488 750 
Q 750 597 1062 519 
Q 1375 441 1716 441 
Q 2309 441 2620 675 
Q 2931 909 2931 1356 
Q 2931 1769 2642 2001 
Q 2353 2234 1838 2234 
L 1294 2234 
L 1294 2753 
L 1863 2753 
Q 2328 2753 2575 2939 
Q 2822 3125 2822 3475 
Q 2822 3834 2567 4026 
Q 2313 4219 1838 4219 
Q 1578 4219 1281 4162 
Q 984 4106 628 3988 
L 628 4550 
Q 988 4650 1302 4700 
Q 1616 4750 1894 4750 
Q 2613 4750 3031 4423 
Q 3450 4097 3450 3541 
Q 3450 3153 3228 2886 
Q 3006 2619 2597 2516 
z
" id="DejaVuSans-33" transform="scale(0.015625)"/>
      </defs>
      <use xlink:href="#DejaVuSans-30"/>
      <use x="63.623047" xlink:href="#DejaVuSans-2e"/>
      <use x="95.410156" xlink:href="#DejaVuSans-30"/>
      <use x="159.033203" xlink:href="#DejaVuSans-33"/>
      <use x="222.65625" xlink:href="#DejaVuSans-31"/>
     </g>
    </g>
    <g id="line2d_32">
     <path d="M 151.2 189.739688 
L 187.2 189.739688 
" style="fill:none;stroke:#9467bd;stroke-linecap:square;stroke-width:1.5;"/>
    </g>
    <g id="line2d_33"/>
    <g id="text_19">
     <!-- 0.041 -->
     <g transform="translate(201.6 196.039688)scale(0.18 -0.18)">
      <use xlink:href="#DejaVuSans-30"/>
      <use x="63.623047" xlink:href="#DejaVuSans-2e"/>
      <use x="95.410156" xlink:href="#DejaVuSans-30"/>
      <use x="159.033203" xlink:href="#DejaVuSans-34"/>
      <use x="222.65625" xlink:href="#DejaVuSans-31"/>
     </g>
    </g>
    <g id="line2d_34">
     <path d="M 151.2 216.160312 
L 187.2 216.160312 
" style="fill:none;stroke:#8c564b;stroke-linecap:square;stroke-width:1.5;"/>
    </g>
    <g id="line2d_35"/>
    <g id="text_20">
     <!-- 0.051 -->
     <g transform="translate(201.6 222.460312)scale(0.18 -0.18)">
      <defs>
       <path d="M 691 4666 
L 3169 4666 
L 3169 4134 
L 1269 4134 
L 1269 2991 
Q 1406 3038 1543 3061 
Q 1681 3084 1819 3084 
Q 2600 3084 3056 2656 
Q 3513 2228 3513 1497 
Q 3513 744 3044 326 
Q 2575 -91 1722 -91 
Q 1428 -91 1123 -41 
Q 819 9 494 109 
L 494 744 
Q 775 591 1075 516 
Q 1375 441 1709 441 
Q 2250 441 2565 725 
Q 2881 1009 2881 1497 
Q 2881 1984 2565 2268 
Q 2250 2553 1709 2553 
Q 1456 2553 1204 2497 
Q 953 2441 691 2322 
L 691 4666 
z
" id="DejaVuSans-35" transform="scale(0.015625)"/>
      </defs>
      <use xlink:href="#DejaVuSans-30"/>
      <use x="63.623047" xlink:href="#DejaVuSans-2e"/>
      <use x="95.410156" xlink:href="#DejaVuSans-30"/>
      <use x="159.033203" xlink:href="#DejaVuSans-35"/>
      <use x="222.65625" xlink:href="#DejaVuSans-31"/>
     </g>
    </g>
    <g id="line2d_36">
     <path d="M 151.2 242.580937 
L 187.2 242.580937 
" style="fill:none;stroke:#e377c2;stroke-linecap:square;stroke-width:1.5;"/>
    </g>
    <g id="line2d_37"/>
    <g id="text_21">
     <!-- 0.061 -->
     <g transform="translate(201.6 248.880937)scale(0.18 -0.18)">
      <use xlink:href="#DejaVuSans-30"/>
      <use x="63.623047" xlink:href="#DejaVuSans-2e"/>
      <use x="95.410156" xlink:href="#DejaVuSans-30"/>
      <use x="159.033203" xlink:href="#DejaVuSans-36"/>
      <use x="222.65625" xlink:href="#DejaVuSans-31"/>
     </g>
    </g>
    <g id="line2d_38">
     <path d="M 151.2 269.001562 
L 187.2 269.001562 
" style="fill:none;stroke:#7f7f7f;stroke-linecap:square;stroke-width:1.5;"/>
    </g>
    <g id="line2d_39"/>
    <g id="text_22">
     <!-- 0.071 -->
     <g transform="translate(201.6 275.301562)scale(0.18 -0.18)">
      <defs>
       <path d="M 525 4666 
L 3525 4666 
L 3525 4397 
L 1831 0 
L 1172 0 
L 2766 4134 
L 525 4134 
L 525 4666 
z
" id="DejaVuSans-37" transform="scale(0.015625)"/>
      </defs>
      <use xlink:href="#DejaVuSans-30"/>
      <use x="63.623047" xlink:href="#DejaVuSans-2e"/>
      <use x="95.410156" xlink:href="#DejaVuSans-30"/>
      <use x="159.033203" xlink:href="#DejaVuSans-37"/>
      <use x="222.65625" xlink:href="#DejaVuSans-31"/>
     </g>
    </g>
    <g id="line2d_40">
     <path d="M 151.2 295.422188 
L 187.2 295.422188 
" style="fill:none;stroke:#bcbd22;stroke-linecap:square;stroke-width:1.5;"/>
    </g>
    <g id="line2d_41"/>
    <g id="text_23">
     <!-- 0.081 -->
     <g transform="translate(201.6 301.722188)scale(0.18 -0.18)">
      <use xlink:href="#DejaVuSans-30"/>
      <use x="63.623047" xlink:href="#DejaVuSans-2e"/>
      <use x="95.410156" xlink:href="#DejaVuSans-30"/>
      <use x="159.033203" xlink:href="#DejaVuSans-38"/>
      <use x="222.65625" xlink:href="#DejaVuSans-31"/>
     </g>
    </g>
    <g id="line2d_42">
     <path d="M 151.2 321.842812 
L 187.2 321.842812 
" style="fill:none;stroke:#17becf;stroke-linecap:square;stroke-width:1.5;"/>
    </g>
    <g id="line2d_43"/>
    <g id="text_24">
     <!-- 0.091 -->
     <g transform="translate(201.6 328.142812)scale(0.18 -0.18)">
      <defs>
       <path d="M 703 97 
L 703 672 
Q 941 559 1184 500 
Q 1428 441 1663 441 
Q 2288 441 2617 861 
Q 2947 1281 2994 2138 
Q 2813 1869 2534 1725 
Q 2256 1581 1919 1581 
Q 1219 1581 811 2004 
Q 403 2428 403 3163 
Q 403 3881 828 4315 
Q 1253 4750 1959 4750 
Q 2769 4750 3195 4129 
Q 3622 3509 3622 2328 
Q 3622 1225 3098 567 
Q 2575 -91 1691 -91 
Q 1453 -91 1209 -44 
Q 966 3 703 97 
z
M 1959 2075 
Q 2384 2075 2632 2365 
Q 2881 2656 2881 3163 
Q 2881 3666 2632 3958 
Q 2384 4250 1959 4250 
Q 1534 4250 1286 3958 
Q 1038 3666 1038 3163 
Q 1038 2656 1286 2365 
Q 1534 2075 1959 2075 
z
" id="DejaVuSans-39" transform="scale(0.015625)"/>
      </defs>
      <use xlink:href="#DejaVuSans-30"/>
      <use x="63.623047" xlink:href="#DejaVuSans-2e"/>
      <use x="95.410156" xlink:href="#DejaVuSans-30"/>
      <use x="159.033203" xlink:href="#DejaVuSans-39"/>
      <use x="222.65625" xlink:href="#DejaVuSans-31"/>
     </g>
    </g>
   </g>
  </g>
 </g>
 <defs>
  <clipPath id="p3315e9da5b">
   <rect height="388.08" width="837" x="135" y="60.48"/>
  </clipPath>
 </defs>
</svg>
