<?xml version="1.0" encoding="utf-8" standalone="no"?>
<!DOCTYPE svg PUBLIC "-//W3C//DTD SVG 1.1//EN"
  "http://www.w3.org/Graphics/SVG/1.1/DTD/svg11.dtd">
<svg height="504pt" version="1.1" viewBox="0 0 1080 504" width="1080pt" xmlns="http://www.w3.org/2000/svg" xmlns:xlink="http://www.w3.org/1999/xlink">
 <metadata>
  <rdf:RDF xmlns:cc="http://creativecommons.org/ns#" xmlns:dc="http://purl.org/dc/elements/1.1/" xmlns:rdf="http://www.w3.org/1999/02/22-rdf-syntax-ns#">
   <cc:Work>
    <dc:type rdf:resource="http://purl.org/dc/dcmitype/StillImage"/>
    <dc:date>2022-01-07T13:24:42.758042</dc:date>
    <dc:format>image/svg+xml</dc:format>
    <dc:creator>
     <cc:Agent>
      <dc:title>Matplotlib v3.4.3, https://matplotlib.org/</dc:title>
     </cc:Agent>
    </dc:creator>
   </cc:Work>
  </rdf:RDF>
 </metadata>
 <defs>
  <style type="text/css">*{stroke-linecap:butt;stroke-linejoin:round;}</style>
 </defs>
 <g id="figure_1">
  <g id="patch_1">
   <path d="M 0 504 
L 1080 504 
L 1080 0 
L 0 0 
z
" style="fill:#ffffff;"/>
  </g>
  <g id="axes_1">
   <g id="patch_2">
    <path d="M 135 448.56 
L 972 448.56 
L 972 60.48 
L 135 60.48 
z
" style="fill:#ffffff;"/>
   </g>
   <g id="matplotlib.axis_1">
    <g id="xtick_1">
     <g id="line2d_1">
      <defs>
       <path d="M 0 0 
L 0 3.5 
" id="m793f25024c" style="stroke:#000000;stroke-width:0.8;"/>
      </defs>
      <g>
       <use style="stroke:#000000;stroke-width:0.8;" x="135" xlink:href="#m793f25024c" y="448.56"/>
      </g>
     </g>
     <g id="text_1">
      <!-- 0.0 -->
      <g transform="translate(120.687187 469.237188)scale(0.18 -0.18)">
       <defs>
        <path d="M 2034 4250 
Q 1547 4250 1301 3770 
Q 1056 3291 1056 2328 
Q 1056 1369 1301 889 
Q 1547 409 2034 409 
Q 2525 409 2770 889 
Q 3016 1369 3016 2328 
Q 3016 3291 2770 3770 
Q 2525 4250 2034 4250 
z
M 2034 4750 
Q 2819 4750 3233 4129 
Q 3647 3509 3647 2328 
Q 3647 1150 3233 529 
Q 2819 -91 2034 -91 
Q 1250 -91 836 529 
Q 422 1150 422 2328 
Q 422 3509 836 4129 
Q 1250 4750 2034 4750 
z
" id="DejaVuSans-30" transform="scale(0.015625)"/>
        <path d="M 684 794 
L 1344 794 
L 1344 0 
L 684 0 
L 684 794 
z
" id="DejaVuSans-2e" transform="scale(0.015625)"/>
       </defs>
       <use xlink:href="#DejaVuSans-30"/>
       <use x="63.623047" xlink:href="#DejaVuSans-2e"/>
       <use x="95.410156" xlink:href="#DejaVuSans-30"/>
      </g>
     </g>
    </g>
    <g id="xtick_2">
     <g id="line2d_2">
      <g>
       <use style="stroke:#000000;stroke-width:0.8;" x="302.4" xlink:href="#m793f25024c" y="448.56"/>
      </g>
     </g>
     <g id="text_2">
      <!-- 0.2 -->
      <g transform="translate(288.087187 469.237188)scale(0.18 -0.18)">
       <defs>
        <path d="M 1228 531 
L 3431 531 
L 3431 0 
L 469 0 
L 469 531 
Q 828 903 1448 1529 
Q 2069 2156 2228 2338 
Q 2531 2678 2651 2914 
Q 2772 3150 2772 3378 
Q 2772 3750 2511 3984 
Q 2250 4219 1831 4219 
Q 1534 4219 1204 4116 
Q 875 4013 500 3803 
L 500 4441 
Q 881 4594 1212 4672 
Q 1544 4750 1819 4750 
Q 2544 4750 2975 4387 
Q 3406 4025 3406 3419 
Q 3406 3131 3298 2873 
Q 3191 2616 2906 2266 
Q 2828 2175 2409 1742 
Q 1991 1309 1228 531 
z
" id="DejaVuSans-32" transform="scale(0.015625)"/>
       </defs>
       <use xlink:href="#DejaVuSans-30"/>
       <use x="63.623047" xlink:href="#DejaVuSans-2e"/>
       <use x="95.410156" xlink:href="#DejaVuSans-32"/>
      </g>
     </g>
    </g>
    <g id="xtick_3">
     <g id="line2d_3">
      <g>
       <use style="stroke:#000000;stroke-width:0.8;" x="469.8" xlink:href="#m793f25024c" y="448.56"/>
      </g>
     </g>
     <g id="text_3">
      <!-- 0.4 -->
      <g transform="translate(455.487188 469.237188)scale(0.18 -0.18)">
       <defs>
        <path d="M 2419 4116 
L 825 1625 
L 2419 1625 
L 2419 4116 
z
M 2253 4666 
L 3047 4666 
L 3047 1625 
L 3713 1625 
L 3713 1100 
L 3047 1100 
L 3047 0 
L 2419 0 
L 2419 1100 
L 313 1100 
L 313 1709 
L 2253 4666 
z
" id="DejaVuSans-34" transform="scale(0.015625)"/>
       </defs>
       <use xlink:href="#DejaVuSans-30"/>
       <use x="63.623047" xlink:href="#DejaVuSans-2e"/>
       <use x="95.410156" xlink:href="#DejaVuSans-34"/>
      </g>
     </g>
    </g>
    <g id="xtick_4">
     <g id="line2d_4">
      <g>
       <use style="stroke:#000000;stroke-width:0.8;" x="637.2" xlink:href="#m793f25024c" y="448.56"/>
      </g>
     </g>
     <g id="text_4">
      <!-- 0.6 -->
      <g transform="translate(622.887188 469.237188)scale(0.18 -0.18)">
       <defs>
        <path d="M 2113 2584 
Q 1688 2584 1439 2293 
Q 1191 2003 1191 1497 
Q 1191 994 1439 701 
Q 1688 409 2113 409 
Q 2538 409 2786 701 
Q 3034 994 3034 1497 
Q 3034 2003 2786 2293 
Q 2538 2584 2113 2584 
z
M 3366 4563 
L 3366 3988 
Q 3128 4100 2886 4159 
Q 2644 4219 2406 4219 
Q 1781 4219 1451 3797 
Q 1122 3375 1075 2522 
Q 1259 2794 1537 2939 
Q 1816 3084 2150 3084 
Q 2853 3084 3261 2657 
Q 3669 2231 3669 1497 
Q 3669 778 3244 343 
Q 2819 -91 2113 -91 
Q 1303 -91 875 529 
Q 447 1150 447 2328 
Q 447 3434 972 4092 
Q 1497 4750 2381 4750 
Q 2619 4750 2861 4703 
Q 3103 4656 3366 4563 
z
" id="DejaVuSans-36" transform="scale(0.015625)"/>
       </defs>
       <use xlink:href="#DejaVuSans-30"/>
       <use x="63.623047" xlink:href="#DejaVuSans-2e"/>
       <use x="95.410156" xlink:href="#DejaVuSans-36"/>
      </g>
     </g>
    </g>
    <g id="xtick_5">
     <g id="line2d_5">
      <g>
       <use style="stroke:#000000;stroke-width:0.8;" x="804.6" xlink:href="#m793f25024c" y="448.56"/>
      </g>
     </g>
     <g id="text_5">
      <!-- 0.8 -->
      <g transform="translate(790.287188 469.237188)scale(0.18 -0.18)">
       <defs>
        <path d="M 2034 2216 
Q 1584 2216 1326 1975 
Q 1069 1734 1069 1313 
Q 1069 891 1326 650 
Q 1584 409 2034 409 
Q 2484 409 2743 651 
Q 3003 894 3003 1313 
Q 3003 1734 2745 1975 
Q 2488 2216 2034 2216 
z
M 1403 2484 
Q 997 2584 770 2862 
Q 544 3141 544 3541 
Q 544 4100 942 4425 
Q 1341 4750 2034 4750 
Q 2731 4750 3128 4425 
Q 3525 4100 3525 3541 
Q 3525 3141 3298 2862 
Q 3072 2584 2669 2484 
Q 3125 2378 3379 2068 
Q 3634 1759 3634 1313 
Q 3634 634 3220 271 
Q 2806 -91 2034 -91 
Q 1263 -91 848 271 
Q 434 634 434 1313 
Q 434 1759 690 2068 
Q 947 2378 1403 2484 
z
M 1172 3481 
Q 1172 3119 1398 2916 
Q 1625 2713 2034 2713 
Q 2441 2713 2670 2916 
Q 2900 3119 2900 3481 
Q 2900 3844 2670 4047 
Q 2441 4250 2034 4250 
Q 1625 4250 1398 4047 
Q 1172 3844 1172 3481 
z
" id="DejaVuSans-38" transform="scale(0.015625)"/>
       </defs>
       <use xlink:href="#DejaVuSans-30"/>
       <use x="63.623047" xlink:href="#DejaVuSans-2e"/>
       <use x="95.410156" xlink:href="#DejaVuSans-38"/>
      </g>
     </g>
    </g>
    <g id="xtick_6">
     <g id="line2d_6">
      <g>
       <use style="stroke:#000000;stroke-width:0.8;" x="972" xlink:href="#m793f25024c" y="448.56"/>
      </g>
     </g>
     <g id="text_6">
      <!-- 1.0 -->
      <g transform="translate(957.687188 469.237188)scale(0.18 -0.18)">
       <defs>
        <path d="M 794 531 
L 1825 531 
L 1825 4091 
L 703 3866 
L 703 4441 
L 1819 4666 
L 2450 4666 
L 2450 531 
L 3481 531 
L 3481 0 
L 794 0 
L 794 531 
z
" id="DejaVuSans-31" transform="scale(0.015625)"/>
       </defs>
       <use xlink:href="#DejaVuSans-31"/>
       <use x="63.623047" xlink:href="#DejaVuSans-2e"/>
       <use x="95.410156" xlink:href="#DejaVuSans-30"/>
      </g>
     </g>
    </g>
    <g id="text_7">
     <!-- $FPR_{Fair}$ -->
     <g transform="translate(518.08 493.697187)scale(0.22 -0.22)">
      <defs>
       <path d="M 1081 4666 
L 3756 4666 
L 3653 4134 
L 1606 4134 
L 1338 2759 
L 3188 2759 
L 3084 2228 
L 1234 2228 
L 800 0 
L 172 0 
L 1081 4666 
z
" id="DejaVuSans-Oblique-46" transform="scale(0.015625)"/>
       <path d="M 1081 4666 
L 2541 4666 
Q 3178 4666 3512 4369 
Q 3847 4072 3847 3500 
Q 3847 2731 3353 2303 
Q 2859 1875 1966 1875 
L 1172 1875 
L 806 0 
L 172 0 
L 1081 4666 
z
M 1613 4147 
L 1275 2394 
L 2069 2394 
Q 2606 2394 2893 2669 
Q 3181 2944 3181 3456 
Q 3181 3784 2986 3965 
Q 2791 4147 2438 4147 
L 1613 4147 
z
" id="DejaVuSans-Oblique-50" transform="scale(0.015625)"/>
       <path d="M 1613 4147 
L 1294 2491 
L 2106 2491 
Q 2584 2491 2879 2755 
Q 3175 3019 3175 3444 
Q 3175 3784 2976 3965 
Q 2778 4147 2406 4147 
L 1613 4147 
z
M 2772 2241 
Q 2972 2194 3105 2009 
Q 3238 1825 3413 1275 
L 3809 0 
L 3144 0 
L 2778 1197 
Q 2638 1659 2453 1815 
Q 2269 1972 1888 1972 
L 1191 1972 
L 806 0 
L 172 0 
L 1081 4666 
L 2503 4666 
Q 3150 4666 3495 4373 
Q 3841 4081 3841 3531 
Q 3841 3044 3547 2687 
Q 3253 2331 2772 2241 
z
" id="DejaVuSans-Oblique-52" transform="scale(0.015625)"/>
       <path d="M 3438 1997 
L 3047 0 
L 2472 0 
L 2578 531 
Q 2325 219 2001 64 
Q 1678 -91 1281 -91 
Q 834 -91 548 182 
Q 263 456 263 884 
Q 263 1497 752 1853 
Q 1241 2209 2100 2209 
L 2900 2209 
L 2931 2363 
Q 2938 2388 2941 2417 
Q 2944 2447 2944 2509 
Q 2944 2788 2717 2942 
Q 2491 3097 2081 3097 
Q 1800 3097 1504 3025 
Q 1209 2953 897 2809 
L 997 3341 
Q 1322 3463 1633 3523 
Q 1944 3584 2234 3584 
Q 2853 3584 3176 3315 
Q 3500 3047 3500 2534 
Q 3500 2431 3484 2292 
Q 3469 2153 3438 1997 
z
M 2816 1759 
L 2241 1759 
Q 1534 1759 1195 1570 
Q 856 1381 856 984 
Q 856 709 1029 553 
Q 1203 397 1509 397 
Q 1978 397 2328 733 
Q 2678 1069 2791 1631 
L 2816 1759 
z
" id="DejaVuSans-Oblique-61" transform="scale(0.015625)"/>
       <path d="M 1172 4863 
L 1747 4863 
L 1606 4134 
L 1031 4134 
L 1172 4863 
z
M 909 3500 
L 1484 3500 
L 800 0 
L 225 0 
L 909 3500 
z
" id="DejaVuSans-Oblique-69" transform="scale(0.015625)"/>
       <path d="M 2853 2969 
Q 2766 3016 2653 3041 
Q 2541 3066 2413 3066 
Q 1953 3066 1609 2717 
Q 1266 2369 1153 1784 
L 800 0 
L 225 0 
L 909 3500 
L 1484 3500 
L 1375 2956 
Q 1603 3259 1920 3421 
Q 2238 3584 2597 3584 
Q 2691 3584 2781 3573 
Q 2872 3563 2963 3538 
L 2853 2969 
z
" id="DejaVuSans-Oblique-72" transform="scale(0.015625)"/>
      </defs>
      <use transform="translate(0 0.09375)" xlink:href="#DejaVuSans-Oblique-46"/>
      <use transform="translate(57.519531 0.09375)" xlink:href="#DejaVuSans-Oblique-50"/>
      <use transform="translate(117.822266 0.09375)" xlink:href="#DejaVuSans-Oblique-52"/>
      <use transform="translate(187.304688 -16.3125)scale(0.7)" xlink:href="#DejaVuSans-Oblique-46"/>
      <use transform="translate(227.568359 -16.3125)scale(0.7)" xlink:href="#DejaVuSans-Oblique-61"/>
      <use transform="translate(270.463867 -16.3125)scale(0.7)" xlink:href="#DejaVuSans-Oblique-69"/>
      <use transform="translate(289.912109 -16.3125)scale(0.7)" xlink:href="#DejaVuSans-Oblique-72"/>
     </g>
    </g>
   </g>
   <g id="matplotlib.axis_2">
    <g id="ytick_1">
     <g id="line2d_7">
      <defs>
       <path d="M 0 0 
L -3.5 0 
" id="mf840dc7b39" style="stroke:#000000;stroke-width:0.8;"/>
      </defs>
      <g>
       <use style="stroke:#000000;stroke-width:0.8;" x="135" xlink:href="#mf840dc7b39" y="448.56"/>
      </g>
     </g>
     <g id="text_8">
      <!-- 0.0 -->
      <g transform="translate(99.374375 455.398594)scale(0.18 -0.18)">
       <use xlink:href="#DejaVuSans-30"/>
       <use x="63.623047" xlink:href="#DejaVuSans-2e"/>
       <use x="95.410156" xlink:href="#DejaVuSans-30"/>
      </g>
     </g>
    </g>
    <g id="ytick_2">
     <g id="line2d_8">
      <g>
       <use style="stroke:#000000;stroke-width:0.8;" x="135" xlink:href="#mf840dc7b39" y="370.944"/>
      </g>
     </g>
     <g id="text_9">
      <!-- 0.2 -->
      <g transform="translate(99.374375 377.782594)scale(0.18 -0.18)">
       <use xlink:href="#DejaVuSans-30"/>
       <use x="63.623047" xlink:href="#DejaVuSans-2e"/>
       <use x="95.410156" xlink:href="#DejaVuSans-32"/>
      </g>
     </g>
    </g>
    <g id="ytick_3">
     <g id="line2d_9">
      <g>
       <use style="stroke:#000000;stroke-width:0.8;" x="135" xlink:href="#mf840dc7b39" y="293.328"/>
      </g>
     </g>
     <g id="text_10">
      <!-- 0.4 -->
      <g transform="translate(99.374375 300.166594)scale(0.18 -0.18)">
       <use xlink:href="#DejaVuSans-30"/>
       <use x="63.623047" xlink:href="#DejaVuSans-2e"/>
       <use x="95.410156" xlink:href="#DejaVuSans-34"/>
      </g>
     </g>
    </g>
    <g id="ytick_4">
     <g id="line2d_10">
      <g>
       <use style="stroke:#000000;stroke-width:0.8;" x="135" xlink:href="#mf840dc7b39" y="215.712"/>
      </g>
     </g>
     <g id="text_11">
      <!-- 0.6 -->
      <g transform="translate(99.374375 222.550594)scale(0.18 -0.18)">
       <use xlink:href="#DejaVuSans-30"/>
       <use x="63.623047" xlink:href="#DejaVuSans-2e"/>
       <use x="95.410156" xlink:href="#DejaVuSans-36"/>
      </g>
     </g>
    </g>
    <g id="ytick_5">
     <g id="line2d_11">
      <g>
       <use style="stroke:#000000;stroke-width:0.8;" x="135" xlink:href="#mf840dc7b39" y="138.096"/>
      </g>
     </g>
     <g id="text_12">
      <!-- 0.8 -->
      <g transform="translate(99.374375 144.934594)scale(0.18 -0.18)">
       <use xlink:href="#DejaVuSans-30"/>
       <use x="63.623047" xlink:href="#DejaVuSans-2e"/>
       <use x="95.410156" xlink:href="#DejaVuSans-38"/>
      </g>
     </g>
    </g>
    <g id="ytick_6">
     <g id="line2d_12">
      <g>
       <use style="stroke:#000000;stroke-width:0.8;" x="135" xlink:href="#mf840dc7b39" y="60.48"/>
      </g>
     </g>
     <g id="text_13">
      <!-- 1.0 -->
      <g transform="translate(99.374375 67.318594)scale(0.18 -0.18)">
       <use xlink:href="#DejaVuSans-31"/>
       <use x="63.623047" xlink:href="#DejaVuSans-2e"/>
       <use x="95.410156" xlink:href="#DejaVuSans-30"/>
      </g>
     </g>
    </g>
    <g id="text_14">
     <!-- $TPR_{Fair}$ -->
     <g transform="translate(90.799062 290.27)rotate(-90)scale(0.22 -0.22)">
      <defs>
       <path d="M 378 4666 
L 4325 4666 
L 4225 4134 
L 2559 4134 
L 1759 0 
L 1125 0 
L 1925 4134 
L 275 4134 
L 378 4666 
z
" id="DejaVuSans-Oblique-54" transform="scale(0.015625)"/>
      </defs>
      <use transform="translate(0 0.09375)" xlink:href="#DejaVuSans-Oblique-54"/>
      <use transform="translate(61.083984 0.09375)" xlink:href="#DejaVuSans-Oblique-50"/>
      <use transform="translate(121.386719 0.09375)" xlink:href="#DejaVuSans-Oblique-52"/>
      <use transform="translate(190.869141 -16.3125)scale(0.7)" xlink:href="#DejaVuSans-Oblique-46"/>
      <use transform="translate(231.132812 -16.3125)scale(0.7)" xlink:href="#DejaVuSans-Oblique-61"/>
      <use transform="translate(274.02832 -16.3125)scale(0.7)" xlink:href="#DejaVuSans-Oblique-69"/>
      <use transform="translate(293.476562 -16.3125)scale(0.7)" xlink:href="#DejaVuSans-Oblique-72"/>
     </g>
    </g>
   </g>
   <g id="line2d_13">
    <path clip-path="url(#p7fe3fb16f7)" d="M 135 448.56 
L 972 60.48 
" style="fill:none;stroke:#ff0000;stroke-dasharray:5.55,2.4;stroke-dashoffset:0;stroke-width:1.5;"/>
   </g>
   <g id="line2d_14">
    <path clip-path="url(#p7fe3fb16f7)" d="M 972 60.48 
L 238.997829 118.750055 
L 189.283444 162.356843 
L 171.311607 195.698452 
L 162.011168 222.407413 
L 156.333868 244.188096 
L 152.532066 262.551573 
L 149.786465 277.705434 
L 147.735845 291.037198 
L 146.144765 302.369759 
L 144.859207 312.318253 
L 143.796042 321.126848 
L 142.918927 328.99517 
L 142.171033 335.846346 
L 141.545689 342.212668 
L 141.008128 347.798944 
L 140.537442 352.99516 
L 140.118319 357.70181 
L 139.746503 361.99737 
L 139.423128 365.953636 
L 139.129613 369.565075 
L 138.867646 372.934002 
L 138.631797 376.034736 
L 138.419948 378.951251 
L 138.231385 381.673762 
L 138.056598 384.235361 
L 137.897635 386.619638 
L 137.74836 388.835709 
L 137.610264 390.923121 
L 137.488275 392.914094 
L 137.36741 394.762053 
L 137.261923 396.530536 
L 137.162207 398.236645 
L 137.06568 399.822442 
L 136.978343 401.315746 
L 136.896239 402.731459 
L 136.819959 404.088778 
L 136.747691 405.367252 
L 136.683263 406.57071 
L 136.621872 407.741365 
L 136.564612 408.830308 
L 136.506499 409.891796 
L 136.457378 410.920835 
L 136.408059 411.90569 
L 136.362358 412.848856 
L 136.31909 413.766841 
L 136.274938 414.631804 
L 136.235187 415.460407 
L 136.197317 416.279838 
L 136.161184 417.070952 
L 136.128877 417.838628 
L 136.094271 418.574726 
L 136.063476 419.291676 
L 136.033514 419.974297 
L 136.006121 420.636768 
L 135.978599 421.273983 
L 135.954235 421.888585 
L 135.930555 422.493889 
L 135.907478 423.076747 
L 135.883224 423.626261 
L 135.859641 424.177416 
L 135.83849 424.697726 
L 135.817034 425.20542 
L 135.796767 425.693337 
L 135.77752 426.175329 
L 135.760281 426.647146 
L 135.742759 427.106235 
L 135.725052 427.554756 
L 135.707556 427.982066 
L 135.691866 428.391464 
L 135.677555 428.800484 
L 135.662462 429.214463 
L 135.647135 429.617086 
L 135.630422 430.011733 
L 135.618017 430.390327 
L 135.604234 430.753336 
L 135.587915 431.127871 
L 135.574941 431.477824 
L 135.561534 431.832064 
L 135.547488 432.182904 
L 135.533261 432.521689 
L 135.517762 432.852879 
L 135.503672 433.172672 
L 135.488198 433.494246 
L 135.473523 433.810908 
L 135.459602 434.10983 
L 135.449087 434.404906 
L 135.438461 434.700531 
L 135.425343 435.004148 
L 135.414837 435.286441 
L 135.403285 435.578092 
L 135.390551 435.849174 
L 135.380757 436.127776 
L 135.368502 436.396546 
L 135.359957 436.66477 
L 135.350912 436.925119 
L 135.340254 437.187051 
L 135.331621 437.452328 
L 135.322857 437.717687 
L 135.313822 437.988922 
L 135.305094 438.245344 
" style="fill:none;stroke:#1f77b4;stroke-linecap:square;stroke-width:1.5;"/>
   </g>
   <g id="line2d_15">
    <path clip-path="url(#p7fe3fb16f7)" d="M 972 60.48 
L 594.382449 218.055509 
L 448.137707 285.062353 
L 370.196846 321.994054 
L 321.896586 345.495245 
L 289.073288 361.825994 
L 265.343436 373.824235 
L 247.35263 382.789789 
L 233.287578 390.103295 
L 221.977682 395.852333 
L 212.697345 400.612978 
L 204.994014 404.673102 
L 198.479374 408.092263 
L 192.880839 411.010233 
L 188.049039 413.621472 
L 183.84802 415.848048 
L 180.136985 417.842634 
L 176.874131 419.649031 
L 173.981877 421.258774 
L 171.349682 422.685274 
L 168.990954 423.996253 
L 166.898989 425.173947 
L 164.988369 426.257259 
L 163.241849 427.261099 
L 161.652285 428.18797 
L 160.200753 429.056096 
L 158.877903 429.841267 
L 157.656313 430.533082 
L 156.545755 431.205506 
L 155.523391 431.850255 
L 154.559849 432.43047 
L 153.676767 432.979593 
L 152.844014 433.499184 
L 152.088009 433.976307 
L 151.374165 434.432763 
L 150.708547 434.866829 
L 150.092029 435.274561 
L 149.504097 435.646548 
L 148.956421 436.008574 
L 148.44631 436.357416 
L 147.969492 436.687957 
L 147.515917 437.005955 
L 147.093617 437.31111 
L 146.694235 437.602335 
L 146.310815 437.875644 
L 145.945308 438.137213 
L 145.60383 438.397625 
L 145.279835 438.636344 
L 144.965246 438.868046 
L 144.675874 439.095955 
L 144.399606 439.312988 
L 144.127781 439.525329 
L 143.872807 439.742691 
L 143.627067 439.931488 
L 143.397794 440.118059 
L 143.166288 440.296912 
L 142.955369 440.470611 
L 142.752251 440.632313 
L 142.554309 440.801051 
L 142.363217 440.962031 
L 142.179661 441.113812 
L 142.003957 441.262436 
L 141.82195 441.404517 
L 141.654267 441.539659 
L 141.490971 441.674067 
L 141.328561 441.805594 
L 141.172756 441.939555 
L 141.022765 442.066283 
L 140.875309 442.189686 
L 140.738647 442.313826 
L 140.605525 442.426909 
L 140.475122 442.539679 
L 140.347145 442.654749 
L 140.220474 442.762018 
L 140.095151 442.866996 
L 139.974504 442.970467 
L 139.85832 443.070578 
L 139.744919 443.166152 
L 139.633088 443.270216 
L 139.527229 443.368373 
L 139.423038 443.462572 
L 139.322371 443.555219 
L 139.219934 443.639965 
L 139.120362 443.727302 
L 139.025281 443.814 
L 138.931899 443.896394 
L 138.840519 443.983176 
L 138.753031 444.062484 
L 138.671131 444.147057 
L 138.583495 444.231307 
L 138.49973 444.312346 
L 138.422097 444.387148 
L 138.345165 444.46975 
L 138.262001 444.550553 
L 138.182535 444.623652 
L 138.102686 444.698973 
L 138.026342 444.775142 
L 137.955092 444.852385 
L 137.883644 444.936266 
L 137.80658 445.019381 
L 137.733768 445.092382 
" style="fill:none;stroke:#ff7f0e;stroke-linecap:square;stroke-width:1.5;"/>
   </g>
   <g id="line2d_16">
    <path clip-path="url(#p7fe3fb16f7)" d="M 972 60.48 
L 966.863599 74.819126 
L 961.911013 88.218924 
L 956.628085 100.652969 
L 951.292656 112.491693 
L 945.86794 123.699676 
L 940.241402 134.288973 
L 934.482955 144.01618 
L 928.529125 153.321681 
L 922.463627 162.002621 
L 916.424025 170.480474 
L 910.302061 178.495109 
L 904.17539 186.097264 
L 897.728424 193.185237 
L 891.277703 199.951636 
L 884.649611 206.428391 
L 878.242156 212.54752 
L 871.62381 218.531827 
L 864.883536 224.165737 
L 857.793538 229.572546 
L 850.696973 234.70827 
L 843.780496 239.586932 
L 836.961897 244.285284 
L 829.8541 248.74027 
L 822.800694 253.168821 
L 815.727129 257.521556 
L 808.674383 261.623173 
L 801.711645 265.508344 
L 794.49651 269.312827 
L 787.450631 273.002356 
L 780.254375 276.53899 
L 773.368667 279.8891 
L 766.367301 283.284138 
L 759.371631 286.438582 
L 752.587578 289.567128 
L 745.712902 292.446403 
L 739.048795 295.267448 
L 732.33402 297.961563 
L 725.865896 300.603432 
L 719.335726 303.180055 
L 713.03451 305.661783 
L 706.65333 308.132687 
L 700.35663 310.51954 
L 694.232932 312.923504 
L 688.133031 315.193888 
L 682.054293 317.350248 
L 676.187535 319.561186 
L 670.104741 321.671721 
L 664.156611 323.708653 
L 658.445843 325.702909 
L 652.602189 327.71833 
L 646.769143 329.671979 
L 641.101139 331.516477 
L 635.351129 333.364039 
L 629.88594 335.229757 
L 624.143812 336.937337 
L 618.731378 338.658751 
L 613.16764 340.376696 
L 607.654484 342.055478 
L 602.134442 343.688597 
L 596.608887 345.321114 
L 591.341539 346.843724 
L 585.763216 348.345856 
L 580.388719 349.877162 
L 574.953636 351.355112 
L 569.3751 352.775109 
L 563.961009 354.195656 
L 558.567682 355.603093 
L 553.247928 356.970809 
L 548.158572 358.260723 
L 543.157383 359.59166 
L 537.836668 360.920642 
L 532.704545 362.277395 
L 527.374714 363.547904 
L 522.296536 364.822884 
L 516.87387 366.103521 
L 511.776729 367.354825 
L 506.591413 368.599621 
L 501.49552 369.879509 
L 496.407804 371.099421 
L 491.321739 372.334054 
L 486.238281 373.567375 
L 481.013766 374.720789 
L 475.903772 375.915141 
L 471.063023 377.10475 
L 466.113369 378.24634 
L 461.251286 379.44695 
L 456.186545 380.602074 
L 451.318668 381.792276 
L 446.545059 382.928871 
L 441.731553 384.115416 
L 437.086996 385.226771 
L 432.198338 386.397501 
L 427.300526 387.5727 
L 422.466523 388.728409 
L 417.647081 389.838419 
L 412.773064 390.9839 
L 408.102652 392.128343 
L 403.408885 393.298111 
L 398.333722 394.483375 
L 393.561567 395.600683 
" style="fill:none;stroke:#2ca02c;stroke-linecap:square;stroke-width:1.5;"/>
   </g>
   <g id="line2d_17">
    <path clip-path="url(#p7fe3fb16f7)" d="M 972 60.48 
L 893.114758 113.272652 
L 825.895412 153.632588 
L 767.847695 185.342666 
L 717.220047 210.962642 
L 672.70433 232.370981 
L 633.244667 250.498446 
L 598.359498 265.564657 
L 567.131647 279.002581 
L 538.936219 290.48151 
L 513.524686 300.606553 
L 490.488384 309.685517 
L 469.574064 317.797319 
L 450.462946 324.990422 
L 432.992513 331.616459 
L 416.820092 337.511784 
L 401.96361 342.915356 
L 388.274771 347.892283 
L 375.720655 352.460695 
L 363.934671 356.590624 
L 352.957017 360.518801 
L 342.81062 364.077004 
L 333.395375 367.401622 
L 324.580145 370.549451 
L 316.358267 373.486716 
L 308.621903 376.273833 
L 301.379727 378.847298 
L 294.63805 381.223938 
L 288.331602 383.480953 
L 282.358705 385.614632 
L 276.710051 387.612389 
L 271.446862 389.522474 
L 266.406535 391.362015 
L 261.705139 393.063615 
L 257.276448 394.68564 
L 253.043844 396.222959 
L 249.057052 397.68629 
L 245.245808 399.078137 
L 241.64463 400.415206 
L 238.244813 401.697741 
L 235.019501 402.922495 
L 231.880134 404.096445 
L 228.937513 405.231129 
L 226.158262 406.319854 
L 223.495069 407.361927 
L 220.88824 408.355238 
L 218.462258 409.336415 
L 216.08442 410.246111 
L 213.810145 411.149197 
L 211.65369 412.001194 
L 209.541364 412.83034 
L 207.508508 413.632618 
L 205.587914 414.416981 
L 203.696067 415.16438 
L 201.920825 415.899038 
L 200.15697 416.590805 
L 198.520003 417.27069 
L 196.891152 417.922767 
L 195.298092 418.563946 
L 193.790425 419.193085 
L 192.315875 419.807943 
L 190.912483 420.39952 
L 189.494116 420.97269 
L 188.153623 421.509566 
L 186.838887 422.070898 
L 185.534054 422.5977 
L 184.28785 423.112724 
L 183.071634 423.620707 
L 181.90468 424.098048 
L 180.781059 424.575529 
L 179.688173 425.053224 
L 178.604047 425.520577 
L 177.564878 425.981956 
L 176.534687 426.427033 
L 175.525918 426.864779 
L 174.552997 427.285131 
L 173.59304 427.698233 
L 172.678856 428.095122 
L 171.794768 428.513689 
L 170.911984 428.910466 
L 170.053332 429.30526 
L 169.198166 429.687049 
L 168.36862 430.05246 
L 167.547833 430.415484 
L 166.791183 430.769912 
L 166.02923 431.117547 
L 165.281504 431.46944 
L 164.548092 431.811196 
L 163.846085 432.147894 
L 163.140846 432.468821 
L 162.447292 432.813849 
L 161.78464 433.124094 
L 161.111343 433.451788 
L 160.449054 433.77678 
L 159.811161 434.084088 
L 159.175201 434.377186 
L 158.550287 434.685619 
L 157.95699 434.982756 
L 157.367402 435.28976 
L 156.755437 435.601745 
L 156.182925 435.891268 
" style="fill:none;stroke:#d62728;stroke-linecap:square;stroke-width:1.5;"/>
   </g>
   <g id="line2d_18">
    <path clip-path="url(#p7fe3fb16f7)" d="M 972 60.48 
L 971.869658 65.302381 
L 971.740516 69.993227 
L 971.591946 74.597221 
L 971.440717 79.203197 
L 971.278274 83.893214 
L 971.103059 88.382653 
L 970.92386 92.652957 
L 970.754614 96.82795 
L 970.577509 100.934025 
L 970.398637 105.098914 
L 970.215964 109.259395 
L 970.019688 113.324309 
L 969.800252 117.172455 
L 969.611138 120.935929 
L 969.398645 124.698663 
L 969.16193 128.351735 
L 968.930968 131.988867 
L 968.698135 135.407121 
L 968.45556 138.819255 
L 968.191955 142.14004 
L 967.938072 145.288415 
L 967.654362 148.425077 
L 967.373807 151.529458 
L 967.109928 154.571018 
L 966.804038 157.630284 
L 966.506009 160.53076 
L 966.232221 163.385149 
L 965.905992 166.187551 
L 965.585531 168.936676 
L 965.263566 171.604353 
L 964.906036 174.238136 
L 964.549274 176.946431 
L 964.163491 179.482825 
L 963.773306 181.986048 
L 963.408272 184.385045 
L 963.026703 186.68545 
L 962.648412 188.936021 
L 962.277721 191.195707 
L 961.866856 193.431091 
L 961.441718 195.684763 
L 961.029825 197.895175 
L 960.609426 200.013908 
L 960.153622 202.131021 
L 959.675573 204.212051 
L 959.223594 206.240587 
L 958.744403 208.345012 
L 958.309355 210.395667 
L 957.819281 212.446085 
L 957.298891 214.37155 
L 956.797177 216.39872 
L 956.266229 218.313172 
L 955.753803 220.153869 
L 955.176417 222.062729 
L 954.650996 224.070774 
L 954.062917 225.924195 
L 953.466647 227.866441 
L 952.800424 229.727364 
L 952.204575 231.571905 
L 951.525878 233.419598 
L 950.81086 235.303584 
L 950.100027 237.155391 
L 949.279033 238.977688 
L 948.503145 240.843273 
L 947.649756 242.748739 
L 946.794123 244.55369 
L 945.910252 246.428129 
L 944.986343 248.298195 
L 944.016291 250.145397 
L 943.068721 252.000841 
L 942.076966 253.881336 
L 940.978767 255.806793 
L 939.955815 257.713139 
L 938.782451 259.609276 
L 937.675962 261.461932 
L 936.402193 263.406055 
L 935.195972 265.381047 
L 933.902625 267.284634 
L 932.641835 269.341315 
L 931.239349 271.390163 
L 929.859747 273.426874 
L 928.304216 275.456633 
L 926.767819 277.558361 
L 925.129476 279.613969 
L 923.581624 281.678274 
L 921.872826 283.754586 
L 920.106265 285.904646 
L 918.226356 287.991343 
L 916.444188 290.184421 
L 914.503309 292.272104 
L 912.705732 294.566169 
L 910.651461 296.705697 
L 908.508504 299.019667 
L 906.415777 301.354105 
L 904.205714 303.656458 
L 901.942485 305.947715 
L 899.765734 308.358757 
L 897.37571 310.718353 
L 894.934706 313.169714 
L 892.465407 315.670987 
L 889.676485 318.096009 
" style="fill:none;stroke:#9467bd;stroke-linecap:square;stroke-width:1.5;"/>
   </g>
   <g id="line2d_19">
    <path clip-path="url(#p7fe3fb16f7)" d="M 972 60.48 
L 845.735768 105.288637 
L 750.180056 141.114545 
L 674.989915 170.196739 
L 614.467052 194.451644 
L 564.81558 215.049351 
L 523.264283 232.845875 
L 488.138929 247.918144 
L 458.02906 261.516755 
L 431.946454 273.222187 
L 409.175799 283.677445 
L 389.129369 293.078997 
L 371.317969 301.511816 
L 355.436936 309.079999 
L 341.244373 316.09609 
L 328.388717 322.360971 
L 316.777406 328.181965 
L 306.180606 333.548092 
L 296.585991 338.523467 
L 287.757159 343.064848 
L 279.660133 347.315875 
L 272.224175 351.254316 
L 265.358971 354.914617 
L 258.995635 358.378167 
L 253.076384 361.62718 
L 247.603507 364.670678 
L 242.501906 367.526743 
L 237.73855 370.169721 
L 233.311939 372.687899 
L 229.164561 375.097129 
L 225.24627 377.349567 
L 221.601609 379.518675 
L 218.12139 381.572991 
L 214.890008 383.50366 
L 211.821687 385.342485 
L 208.929731 387.081553 
L 206.215377 388.739884 
L 203.609143 390.317946 
L 201.15915 391.841922 
L 198.848981 393.305044 
L 196.628482 394.706334 
L 194.506947 396.053074 
L 192.505064 397.356802 
L 190.588493 398.599827 
L 188.763103 399.79208 
L 187.019016 400.951563 
L 185.376986 402.063268 
L 183.774035 403.118392 
L 182.248487 404.169158 
L 180.789144 405.154077 
L 179.364593 406.120216 
L 178.002148 407.050843 
L 176.702469 407.958815 
L 175.450529 408.828271 
L 174.257679 409.682823 
L 173.1 410.502363 
L 171.987 411.297035 
L 170.904167 412.074537 
L 169.845852 412.832981 
L 168.848639 413.56373 
L 167.872044 414.286359 
L 166.93912 414.985756 
L 166.013117 415.666364 
L 165.13102 416.31355 
L 164.276916 416.964789 
L 163.436303 417.582155 
L 162.631214 418.198514 
L 161.854762 418.804102 
L 161.107843 419.386259 
L 160.378485 419.951817 
L 159.67518 420.520295 
L 158.993341 421.085827 
L 158.343402 421.644679 
L 157.692017 422.182697 
L 157.065294 422.70093 
L 156.455659 423.210494 
L 155.863623 423.70994 
L 155.293511 424.195999 
L 154.740546 424.702963 
L 154.201397 425.197775 
L 153.67132 425.67941 
L 153.161969 426.138688 
L 152.66174 426.593208 
L 152.177128 427.041884 
L 151.71412 427.47822 
L 151.25237 427.912885 
L 150.804131 428.3464 
L 150.373646 428.761057 
L 149.950608 429.180943 
L 149.538707 429.57394 
L 149.137864 429.986897 
L 148.742473 430.369969 
L 148.346963 430.774652 
L 147.963525 431.162514 
L 147.593292 431.538372 
L 147.22622 431.906347 
L 146.874469 432.285974 
L 146.532679 432.651062 
L 146.197114 433.025886 
L 145.857351 433.406583 
L 145.532718 433.764928 
" style="fill:none;stroke:#8c564b;stroke-linecap:square;stroke-width:1.5;"/>
   </g>
   <g id="line2d_20">
    <path clip-path="url(#p7fe3fb16f7)" d="M 972 60.48 
L 864.870783 94.087628 
L 779.77662 122.557042 
L 710.428807 146.936014 
L 652.713081 168.074794 
L 604.17085 186.689061 
L 562.762461 203.161114 
L 527.065291 217.508839 
L 496.01543 230.808067 
L 468.74831 242.522357 
L 444.652841 253.115126 
L 423.23724 262.826729 
L 404.071079 271.699761 
L 386.820882 279.752947 
L 371.29606 287.305003 
L 357.14139 294.109236 
L 344.289079 300.528179 
L 332.483026 306.469588 
L 321.75867 312.023318 
L 311.856911 317.116404 
L 302.729036 321.972993 
L 294.304397 326.494065 
L 286.479484 330.721444 
L 279.210665 334.738499 
L 272.451489 338.532346 
L 266.181094 342.096019 
L 260.32978 345.47869 
L 254.836733 348.593 
L 249.726026 351.594545 
L 244.928213 354.468494 
L 240.376758 357.153714 
L 236.1508 359.764884 
L 232.125211 362.247937 
L 228.359979 364.601587 
L 224.788494 366.825142 
L 221.423984 368.949651 
L 218.260584 370.993887 
L 215.232649 372.936317 
L 212.3709 374.798145 
L 209.666556 376.623026 
L 207.067034 378.347595 
L 204.594482 380.006773 
L 202.245966 381.615296 
L 200.020543 383.154653 
L 197.891577 384.648443 
L 195.848937 386.103069 
L 193.920076 387.511987 
L 192.050784 388.839421 
L 190.273666 390.161175 
L 188.563634 391.40351 
L 186.900987 392.618485 
L 185.310359 393.796738 
L 183.786988 394.950977 
L 182.320117 396.056816 
L 180.918082 397.148037 
L 179.570624 398.195068 
L 178.265939 399.213947 
L 177.001508 400.208741 
L 175.763508 401.181711 
L 174.59125 402.122898 
L 173.449937 403.050491 
L 172.353115 403.946898 
L 171.273421 404.821418 
L 170.249096 405.660595 
L 169.252693 406.499183 
L 168.275353 407.301632 
L 167.345742 408.09905 
L 166.444468 408.879772 
L 165.575778 409.636506 
L 164.726146 410.365055 
L 163.906699 411.102058 
L 163.116553 411.83741 
L 162.356254 412.565928 
L 161.602234 413.266367 
L 160.871771 413.946032 
L 160.160944 414.614571 
L 159.472806 415.271777 
L 158.804138 415.903073 
L 158.159289 416.566228 
L 157.530765 417.20696 
L 156.917742 417.837382 
L 156.326291 418.442874 
L 155.746306 419.036569 
L 155.180816 419.625091 
L 154.63919 420.201987 
L 154.097127 420.776091 
L 153.574152 421.347247 
L 153.072842 421.894458 
L 152.580879 422.451289 
L 152.097925 422.972964 
L 151.628307 423.523382 
L 151.166545 424.03058 
L 150.706031 424.562731 
L 150.26002 425.07365 
L 149.827252 425.580673 
L 149.400887 426.072619 
L 148.991219 426.575429 
L 148.590406 427.063301 
L 148.195939 427.559817 
L 147.796834 428.067598 
L 147.415969 428.547019 
" style="fill:none;stroke:#e377c2;stroke-linecap:square;stroke-width:1.5;"/>
   </g>
   <g id="line2d_21">
    <path clip-path="url(#p7fe3fb16f7)" d="M 972 60.48 
L 915.572925 87.382145 
L 864.637177 111.009094 
L 818.652977 131.760427 
L 776.695286 150.230738 
L 738.39827 166.914299 
L 703.391223 182.117835 
L 671.154496 195.582334 
L 641.558301 208.223297 
L 614.356345 219.507071 
L 589.085476 229.891526 
L 565.764828 239.479686 
L 544.124846 248.325381 
L 523.933126 256.473044 
L 505.190278 264.224583 
L 487.695896 271.269645 
L 471.292825 277.984292 
L 455.838707 284.243638 
L 441.506814 290.160609 
L 428.028842 295.647728 
L 415.352565 300.897752 
L 403.446341 305.782812 
L 392.194372 310.38913 
L 381.559043 314.798971 
L 371.530373 318.971513 
L 362.123977 322.945375 
L 353.221684 326.743666 
L 344.770429 330.259738 
L 336.832102 333.647265 
L 329.295814 336.890728 
L 322.097152 339.954509 
L 315.331207 342.943012 
L 308.825045 345.775733 
L 302.671172 348.493605 
L 296.822665 351.08256 
L 291.26527 353.549908 
L 286.021745 355.910967 
L 280.961952 358.179816 
L 276.162925 360.348539 
L 271.585042 362.469314 
L 267.193847 364.500305 
L 262.980783 366.461493 
L 258.967644 368.365105 
L 255.132789 370.182927 
L 251.466338 371.933555 
L 247.913051 373.646032 
L 244.565069 375.300341 
L 241.302847 376.874845 
L 238.182335 378.441271 
L 235.185563 379.928182 
L 232.260762 381.387792 
L 229.455693 382.795346 
L 226.755929 384.176159 
L 224.142401 385.486583 
L 221.63613 386.789739 
L 219.229275 388.043266 
L 216.891605 389.263953 
L 214.617317 390.462115 
L 212.384389 391.631869 
L 210.255252 392.753009 
L 208.183494 393.864816 
L 206.197282 394.940366 
L 204.236985 395.991418 
L 202.375779 396.998327 
L 200.565645 398.00088 
L 198.773879 398.969793 
L 197.063314 399.921009 
L 195.410124 400.849629 
L 193.802707 401.750292 
L 192.232936 402.623991 
L 190.722729 403.502705 
L 189.258545 404.379583 
L 187.851055 405.246128 
L 186.446321 406.085607 
L 185.081955 406.899845 
L 183.762461 407.705262 
L 182.476476 408.48911 
L 181.225483 409.255604 
L 180.013196 410.048826 
L 178.832389 410.817566 
L 177.681743 411.572805 
L 176.56956 412.299743 
L 175.477423 413.006168 
L 174.416775 413.713164 
L 173.39812 414.405983 
L 172.378511 415.093906 
L 171.390408 415.777588 
L 170.443915 416.438356 
L 169.507791 417.106774 
L 168.586097 417.736227 
L 167.689798 418.39537 
L 166.814208 419.009484 
L 165.938082 419.651284 
L 165.089452 420.26887 
L 164.264493 420.886023 
L 163.450057 421.480082 
L 162.662469 422.09024 
L 161.891329 422.679906 
L 161.12805 423.282408 
L 160.357184 423.893496 
L 159.623617 424.478772 
" style="fill:none;stroke:#7f7f7f;stroke-linecap:square;stroke-width:1.5;"/>
   </g>
   <g id="line2d_22">
    <path clip-path="url(#p7fe3fb16f7)" d="M 972 60.48 
L 906.497577 85.737137 
L 848.903021 108.233025 
L 797.586893 128.085797 
L 751.693471 145.813148 
L 710.464243 162.066479 
L 673.148477 176.851212 
L 639.351109 190.062959 
L 608.653033 202.610477 
L 580.657945 213.771649 
L 554.959695 224.12185 
L 531.372784 233.75105 
L 509.662212 242.677199 
L 489.614737 250.866098 
L 471.122177 258.669123 
L 453.934217 265.775714 
L 437.984059 272.535089 
L 423.062981 278.852719 
L 409.273843 284.80164 
L 396.39174 290.3252 
L 384.341159 295.625556 
L 373.068349 300.605399 
L 362.468351 305.305542 
L 352.485302 309.807724 
L 343.127528 314.025362 
L 334.374036 318.059198 
L 326.127713 321.901149 
L 318.332078 325.473478 
L 310.999703 328.936546 
L 304.083094 332.248339 
L 297.5136 335.396924 
L 291.359374 338.441672 
L 285.454925 341.351085 
L 279.900202 344.128133 
L 274.618508 346.749602 
L 269.627759 349.272997 
L 264.913265 351.704594 
L 260.382399 354.016914 
L 256.096098 356.232754 
L 252.032648 358.411466 
L 248.121103 360.487889 
L 244.389264 362.490511 
L 240.838826 364.434994 
L 237.460345 366.298738 
L 234.22213 368.112238 
L 231.115077 369.882155 
L 228.174806 371.58998 
L 225.314992 373.210538 
L 222.578699 374.825524 
L 219.968677 376.355394 
L 217.42509 377.848669 
L 214.994296 379.293737 
L 212.662627 380.714908 
L 210.407255 382.081597 
L 208.237425 383.426919 
L 206.164909 384.716564 
L 204.157755 385.974709 
L 202.203164 387.203055 
L 200.291831 388.404931 
L 198.474543 389.572075 
L 196.701907 390.72217 
L 195.003753 391.833508 
L 193.341718 392.914332 
L 191.764407 393.949836 
L 190.230048 394.981252 
L 188.716237 395.977766 
L 187.276985 396.96798 
L 185.879718 397.927677 
L 184.519405 398.866294 
L 183.196385 399.769504 
L 181.923646 400.6814 
L 180.692515 401.594996 
L 179.513117 402.499918 
L 178.333368 403.376403 
L 177.189418 404.220945 
L 176.087578 405.056177 
L 175.00997 405.874268 
L 173.964845 406.675812 
L 172.956181 407.498394 
L 171.969524 408.306214 
L 171.016083 409.091559 
L 170.084427 409.854737 
L 169.175015 410.593155 
L 168.288566 411.336256 
L 167.436676 412.061071 
L 166.582609 412.782565 
L 165.75938 413.501966 
L 164.967245 414.196075 
L 164.185218 414.89469 
L 163.41077 415.557426 
L 162.658183 416.247189 
L 161.924735 416.891683 
L 161.191837 417.565381 
L 160.481241 418.219327 
L 159.787227 418.868111 
L 159.104203 419.495645 
L 158.43628 420.138044 
L 157.783719 420.763216 
L 157.140687 421.401861 
L 156.491844 422.052855 
L 155.871654 422.672316 
" style="fill:none;stroke:#bcbd22;stroke-linecap:square;stroke-width:1.5;"/>
   </g>
   <g id="line2d_23">
    <path clip-path="url(#p7fe3fb16f7)" d="M 972 60.48 
L 971.916584 62.717952 
L 971.825879 64.927403 
L 971.735504 67.128215 
L 971.641257 69.36911 
L 971.542782 71.681335 
L 971.439987 73.937333 
L 971.331566 76.112862 
L 971.227672 78.269424 
L 971.10941 80.428805 
L 970.994108 82.640398 
L 970.872683 84.883778 
L 970.749014 87.119819 
L 970.611876 89.25577 
L 970.485218 91.378409 
L 970.341069 93.523669 
L 970.184298 95.643122 
L 970.034181 97.776833 
L 969.882351 99.780075 
L 969.725394 101.81751 
L 969.558921 103.830834 
L 969.384615 105.761182 
L 969.199789 107.707591 
L 969.02618 109.66072 
L 968.853524 111.572798 
L 968.659633 113.520827 
L 968.462609 115.422319 
L 968.281328 117.301488 
L 968.07468 119.180937 
L 967.864925 121.020155 
L 967.645173 122.824495 
L 967.402661 124.623327 
L 967.166169 126.497861 
L 966.898926 128.291124 
L 966.63209 130.056623 
L 966.377647 131.772235 
L 966.128123 133.433015 
L 965.862803 135.079147 
L 965.602377 136.719741 
L 965.323205 138.377582 
L 965.033205 140.058014 
L 964.752371 141.707541 
L 964.468704 143.316064 
L 964.167013 144.921831 
L 963.842569 146.519499 
L 963.538772 148.098063 
L 963.227071 149.727359 
L 962.905177 151.345204 
L 962.587098 152.955011 
L 962.233938 154.507478 
L 961.89326 156.149021 
L 961.536162 157.681424 
L 961.183026 159.185601 
L 960.794583 160.771116 
L 960.437465 162.418448 
L 960.046321 163.971335 
L 959.640294 165.592757 
L 959.217923 167.185655 
L 958.81139 168.773753 
L 958.348523 170.35317 
L 957.871102 171.980442 
L 957.402731 173.549944 
L 956.883418 175.132275 
L 956.382974 176.77938 
L 955.84371 178.394872 
L 955.298088 179.998242 
L 954.741754 181.646427 
L 954.161675 183.265216 
L 953.544268 184.917231 
L 952.94008 186.528806 
L 952.326807 188.213566 
L 951.649563 189.963582 
L 951.007057 191.710923 
L 950.291451 193.462543 
L 949.578914 195.176126 
L 948.81184 197.008286 
L 948.067903 198.863928 
L 947.283003 200.688599 
L 946.502385 202.619569 
L 945.640452 204.593238 
L 944.804334 206.553717 
L 943.892967 208.50777 
L 942.970154 210.526265 
L 942.000761 212.562561 
L 941.056162 214.622539 
L 940.023292 216.701568 
L 938.974365 218.889659 
L 937.876078 221.053314 
L 936.802775 223.312035 
L 935.64047 225.513002 
L 934.534191 227.869109 
L 933.304414 230.17542 
L 932.023378 232.649949 
L 930.756558 235.144681 
L 929.402056 237.690879 
L 928.030781 240.223887 
L 926.677969 242.924867 
L 925.20281 245.586513 
L 923.672314 248.37274 
L 922.096498 251.227423 
L 920.387673 254.090533 
" style="fill:none;stroke:#17becf;stroke-linecap:square;stroke-width:1.5;"/>
   </g>
   <g id="patch_3">
    <path d="M 135 448.56 
L 135 60.48 
" style="fill:none;stroke:#000000;stroke-linecap:square;stroke-linejoin:miter;stroke-width:0.8;"/>
   </g>
   <g id="patch_4">
    <path d="M 972 448.56 
L 972 60.48 
" style="fill:none;stroke:#000000;stroke-linecap:square;stroke-linejoin:miter;stroke-width:0.8;"/>
   </g>
   <g id="patch_5">
    <path d="M 135 448.56 
L 972 448.56 
" style="fill:none;stroke:#000000;stroke-linecap:square;stroke-linejoin:miter;stroke-width:0.8;"/>
   </g>
   <g id="patch_6">
    <path d="M 135 60.48 
L 972 60.48 
" style="fill:none;stroke:#000000;stroke-linecap:square;stroke-linejoin:miter;stroke-width:0.8;"/>
   </g>
   <g id="legend_1">
    <g id="patch_7">
     <path d="M 147.6 339.08625 
L 256.730625 339.08625 
Q 260.330625 339.08625 260.330625 335.48625 
L 260.330625 73.08 
Q 260.330625 69.48 256.730625 69.48 
L 147.6 69.48 
Q 144 69.48 144 73.08 
L 144 335.48625 
Q 144 339.08625 147.6 339.08625 
z
" style="fill:#ffffff;opacity:0.8;stroke:#cccccc;stroke-linejoin:miter;"/>
    </g>
    <g id="line2d_24">
     <path d="M 151.2 84.057188 
L 187.2 84.057188 
" style="fill:none;stroke:#1f77b4;stroke-linecap:square;stroke-width:1.5;"/>
    </g>
    <g id="line2d_25"/>
    <g id="text_15">
     <!-- 0.001 -->
     <g transform="translate(201.6 90.357188)scale(0.18 -0.18)">
      <use xlink:href="#DejaVuSans-30"/>
      <use x="63.623047" xlink:href="#DejaVuSans-2e"/>
      <use x="95.410156" xlink:href="#DejaVuSans-30"/>
      <use x="159.033203" xlink:href="#DejaVuSans-30"/>
      <use x="222.65625" xlink:href="#DejaVuSans-31"/>
     </g>
    </g>
    <g id="line2d_26">
     <path d="M 151.2 110.477812 
L 187.2 110.477812 
" style="fill:none;stroke:#ff7f0e;stroke-linecap:square;stroke-width:1.5;"/>
    </g>
    <g id="line2d_27"/>
    <g id="text_16">
     <!-- 0.011 -->
     <g transform="translate(201.6 116.777812)scale(0.18 -0.18)">
      <use xlink:href="#DejaVuSans-30"/>
      <use x="63.623047" xlink:href="#DejaVuSans-2e"/>
      <use x="95.410156" xlink:href="#DejaVuSans-30"/>
      <use x="159.033203" xlink:href="#DejaVuSans-31"/>
      <use x="222.65625" xlink:href="#DejaVuSans-31"/>
     </g>
    </g>
    <g id="line2d_28">
     <path d="M 151.2 136.898438 
L 187.2 136.898438 
" style="fill:none;stroke:#2ca02c;stroke-linecap:square;stroke-width:1.5;"/>
    </g>
    <g id="line2d_29"/>
    <g id="text_17">
     <!-- 0.021 -->
     <g transform="translate(201.6 143.198438)scale(0.18 -0.18)">
      <use xlink:href="#DejaVuSans-30"/>
      <use x="63.623047" xlink:href="#DejaVuSans-2e"/>
      <use x="95.410156" xlink:href="#DejaVuSans-30"/>
      <use x="159.033203" xlink:href="#DejaVuSans-32"/>
      <use x="222.65625" xlink:href="#DejaVuSans-31"/>
     </g>
    </g>
    <g id="line2d_30">
     <path d="M 151.2 163.319062 
L 187.2 163.319062 
" style="fill:none;stroke:#d62728;stroke-linecap:square;stroke-width:1.5;"/>
    </g>
    <g id="line2d_31"/>
    <g id="text_18">
     <!-- 0.031 -->
     <g transform="translate(201.6 169.619062)scale(0.18 -0.18)">
      <defs>
       <path d="M 2597 2516 
Q 3050 2419 3304 2112 
Q 3559 1806 3559 1356 
Q 3559 666 3084 287 
Q 2609 -91 1734 -91 
Q 1441 -91 1130 -33 
Q 819 25 488 141 
L 488 750 
Q 750 597 1062 519 
Q 1375 441 1716 441 
Q 2309 441 2620 675 
Q 2931 909 2931 1356 
Q 2931 1769 2642 2001 
Q 2353 2234 1838 2234 
L 1294 2234 
L 1294 2753 
L 1863 2753 
Q 2328 2753 2575 2939 
Q 2822 3125 2822 3475 
Q 2822 3834 2567 4026 
Q 2313 4219 1838 4219 
Q 1578 4219 1281 4162 
Q 984 4106 628 3988 
L 628 4550 
Q 988 4650 1302 4700 
Q 1616 4750 1894 4750 
Q 2613 4750 3031 4423 
Q 3450 4097 3450 3541 
Q 3450 3153 3228 2886 
Q 3006 2619 2597 2516 
z
" id="DejaVuSans-33" transform="scale(0.015625)"/>
      </defs>
      <use xlink:href="#DejaVuSans-30"/>
      <use x="63.623047" xlink:href="#DejaVuSans-2e"/>
      <use x="95.410156" xlink:href="#DejaVuSans-30"/>
      <use x="159.033203" xlink:href="#DejaVuSans-33"/>
      <use x="222.65625" xlink:href="#DejaVuSans-31"/>
     </g>
    </g>
    <g id="line2d_32">
     <path d="M 151.2 189.739688 
L 187.2 189.739688 
" style="fill:none;stroke:#9467bd;stroke-linecap:square;stroke-width:1.5;"/>
    </g>
    <g id="line2d_33"/>
    <g id="text_19">
     <!-- 0.041 -->
     <g transform="translate(201.6 196.039688)scale(0.18 -0.18)">
      <use xlink:href="#DejaVuSans-30"/>
      <use x="63.623047" xlink:href="#DejaVuSans-2e"/>
      <use x="95.410156" xlink:href="#DejaVuSans-30"/>
      <use x="159.033203" xlink:href="#DejaVuSans-34"/>
      <use x="222.65625" xlink:href="#DejaVuSans-31"/>
     </g>
    </g>
    <g id="line2d_34">
     <path d="M 151.2 216.160312 
L 187.2 216.160312 
" style="fill:none;stroke:#8c564b;stroke-linecap:square;stroke-width:1.5;"/>
    </g>
    <g id="line2d_35"/>
    <g id="text_20">
     <!-- 0.051 -->
     <g transform="translate(201.6 222.460312)scale(0.18 -0.18)">
      <defs>
       <path d="M 691 4666 
L 3169 4666 
L 3169 4134 
L 1269 4134 
L 1269 2991 
Q 1406 3038 1543 3061 
Q 1681 3084 1819 3084 
Q 2600 3084 3056 2656 
Q 3513 2228 3513 1497 
Q 3513 744 3044 326 
Q 2575 -91 1722 -91 
Q 1428 -91 1123 -41 
Q 819 9 494 109 
L 494 744 
Q 775 591 1075 516 
Q 1375 441 1709 441 
Q 2250 441 2565 725 
Q 2881 1009 2881 1497 
Q 2881 1984 2565 2268 
Q 2250 2553 1709 2553 
Q 1456 2553 1204 2497 
Q 953 2441 691 2322 
L 691 4666 
z
" id="DejaVuSans-35" transform="scale(0.015625)"/>
      </defs>
      <use xlink:href="#DejaVuSans-30"/>
      <use x="63.623047" xlink:href="#DejaVuSans-2e"/>
      <use x="95.410156" xlink:href="#DejaVuSans-30"/>
      <use x="159.033203" xlink:href="#DejaVuSans-35"/>
      <use x="222.65625" xlink:href="#DejaVuSans-31"/>
     </g>
    </g>
    <g id="line2d_36">
     <path d="M 151.2 242.580937 
L 187.2 242.580937 
" style="fill:none;stroke:#e377c2;stroke-linecap:square;stroke-width:1.5;"/>
    </g>
    <g id="line2d_37"/>
    <g id="text_21">
     <!-- 0.061 -->
     <g transform="translate(201.6 248.880937)scale(0.18 -0.18)">
      <use xlink:href="#DejaVuSans-30"/>
      <use x="63.623047" xlink:href="#DejaVuSans-2e"/>
      <use x="95.410156" xlink:href="#DejaVuSans-30"/>
      <use x="159.033203" xlink:href="#DejaVuSans-36"/>
      <use x="222.65625" xlink:href="#DejaVuSans-31"/>
     </g>
    </g>
    <g id="line2d_38">
     <path d="M 151.2 269.001562 
L 187.2 269.001562 
" style="fill:none;stroke:#7f7f7f;stroke-linecap:square;stroke-width:1.5;"/>
    </g>
    <g id="line2d_39"/>
    <g id="text_22">
     <!-- 0.071 -->
     <g transform="translate(201.6 275.301562)scale(0.18 -0.18)">
      <defs>
       <path d="M 525 4666 
L 3525 4666 
L 3525 4397 
L 1831 0 
L 1172 0 
L 2766 4134 
L 525 4134 
L 525 4666 
z
" id="DejaVuSans-37" transform="scale(0.015625)"/>
      </defs>
      <use xlink:href="#DejaVuSans-30"/>
      <use x="63.623047" xlink:href="#DejaVuSans-2e"/>
      <use x="95.410156" xlink:href="#DejaVuSans-30"/>
      <use x="159.033203" xlink:href="#DejaVuSans-37"/>
      <use x="222.65625" xlink:href="#DejaVuSans-31"/>
     </g>
    </g>
    <g id="line2d_40">
     <path d="M 151.2 295.422188 
L 187.2 295.422188 
" style="fill:none;stroke:#bcbd22;stroke-linecap:square;stroke-width:1.5;"/>
    </g>
    <g id="line2d_41"/>
    <g id="text_23">
     <!-- 0.081 -->
     <g transform="translate(201.6 301.722188)scale(0.18 -0.18)">
      <use xlink:href="#DejaVuSans-30"/>
      <use x="63.623047" xlink:href="#DejaVuSans-2e"/>
      <use x="95.410156" xlink:href="#DejaVuSans-30"/>
      <use x="159.033203" xlink:href="#DejaVuSans-38"/>
      <use x="222.65625" xlink:href="#DejaVuSans-31"/>
     </g>
    </g>
    <g id="line2d_42">
     <path d="M 151.2 321.842812 
L 187.2 321.842812 
" style="fill:none;stroke:#17becf;stroke-linecap:square;stroke-width:1.5;"/>
    </g>
    <g id="line2d_43"/>
    <g id="text_24">
     <!-- 0.091 -->
     <g transform="translate(201.6 328.142812)scale(0.18 -0.18)">
      <defs>
       <path d="M 703 97 
L 703 672 
Q 941 559 1184 500 
Q 1428 441 1663 441 
Q 2288 441 2617 861 
Q 2947 1281 2994 2138 
Q 2813 1869 2534 1725 
Q 2256 1581 1919 1581 
Q 1219 1581 811 2004 
Q 403 2428 403 3163 
Q 403 3881 828 4315 
Q 1253 4750 1959 4750 
Q 2769 4750 3195 4129 
Q 3622 3509 3622 2328 
Q 3622 1225 3098 567 
Q 2575 -91 1691 -91 
Q 1453 -91 1209 -44 
Q 966 3 703 97 
z
M 1959 2075 
Q 2384 2075 2632 2365 
Q 2881 2656 2881 3163 
Q 2881 3666 2632 3958 
Q 2384 4250 1959 4250 
Q 1534 4250 1286 3958 
Q 1038 3666 1038 3163 
Q 1038 2656 1286 2365 
Q 1534 2075 1959 2075 
z
" id="DejaVuSans-39" transform="scale(0.015625)"/>
      </defs>
      <use xlink:href="#DejaVuSans-30"/>
      <use x="63.623047" xlink:href="#DejaVuSans-2e"/>
      <use x="95.410156" xlink:href="#DejaVuSans-30"/>
      <use x="159.033203" xlink:href="#DejaVuSans-39"/>
      <use x="222.65625" xlink:href="#DejaVuSans-31"/>
     </g>
    </g>
   </g>
  </g>
 </g>
 <defs>
  <clipPath id="p7fe3fb16f7">
   <rect height="388.08" width="837" x="135" y="60.48"/>
  </clipPath>
 </defs>
</svg>
