<?xml version="1.0" encoding="utf-8" standalone="no"?>
<!DOCTYPE svg PUBLIC "-//W3C//DTD SVG 1.1//EN"
  "http://www.w3.org/Graphics/SVG/1.1/DTD/svg11.dtd">
<svg height="504pt" version="1.1" viewBox="0 0 1080 504" width="1080pt" xmlns="http://www.w3.org/2000/svg" xmlns:xlink="http://www.w3.org/1999/xlink">
 <metadata>
  <rdf:RDF xmlns:cc="http://creativecommons.org/ns#" xmlns:dc="http://purl.org/dc/elements/1.1/" xmlns:rdf="http://www.w3.org/1999/02/22-rdf-syntax-ns#">
   <cc:Work>
    <dc:type rdf:resource="http://purl.org/dc/dcmitype/StillImage"/>
    <dc:date>2022-01-07T13:24:42.376623</dc:date>
    <dc:format>image/svg+xml</dc:format>
    <dc:creator>
     <cc:Agent>
      <dc:title>Matplotlib v3.4.3, https://matplotlib.org/</dc:title>
     </cc:Agent>
    </dc:creator>
   </cc:Work>
  </rdf:RDF>
 </metadata>
 <defs>
  <style type="text/css">*{stroke-linecap:butt;stroke-linejoin:round;}</style>
 </defs>
 <g id="figure_1">
  <g id="patch_1">
   <path d="M 0 504 
L 1080 504 
L 1080 0 
L 0 0 
z
" style="fill:#ffffff;"/>
  </g>
  <g id="axes_1">
   <g id="patch_2">
    <path d="M 135 448.56 
L 972 448.56 
L 972 60.48 
L 135 60.48 
z
" style="fill:#ffffff;"/>
   </g>
   <g id="matplotlib.axis_1">
    <g id="xtick_1">
     <g id="line2d_1">
      <defs>
       <path d="M 0 0 
L 0 3.5 
" id="m0e7e71b647" style="stroke:#000000;stroke-width:0.8;"/>
      </defs>
      <g>
       <use style="stroke:#000000;stroke-width:0.8;" x="135" xlink:href="#m0e7e71b647" y="448.56"/>
      </g>
     </g>
     <g id="text_1">
      <!-- 0.0 -->
      <g transform="translate(120.687187 469.237188)scale(0.18 -0.18)">
       <defs>
        <path d="M 2034 4250 
Q 1547 4250 1301 3770 
Q 1056 3291 1056 2328 
Q 1056 1369 1301 889 
Q 1547 409 2034 409 
Q 2525 409 2770 889 
Q 3016 1369 3016 2328 
Q 3016 3291 2770 3770 
Q 2525 4250 2034 4250 
z
M 2034 4750 
Q 2819 4750 3233 4129 
Q 3647 3509 3647 2328 
Q 3647 1150 3233 529 
Q 2819 -91 2034 -91 
Q 1250 -91 836 529 
Q 422 1150 422 2328 
Q 422 3509 836 4129 
Q 1250 4750 2034 4750 
z
" id="DejaVuSans-30" transform="scale(0.015625)"/>
        <path d="M 684 794 
L 1344 794 
L 1344 0 
L 684 0 
L 684 794 
z
" id="DejaVuSans-2e" transform="scale(0.015625)"/>
       </defs>
       <use xlink:href="#DejaVuSans-30"/>
       <use x="63.623047" xlink:href="#DejaVuSans-2e"/>
       <use x="95.410156" xlink:href="#DejaVuSans-30"/>
      </g>
     </g>
    </g>
    <g id="xtick_2">
     <g id="line2d_2">
      <g>
       <use style="stroke:#000000;stroke-width:0.8;" x="302.4" xlink:href="#m0e7e71b647" y="448.56"/>
      </g>
     </g>
     <g id="text_2">
      <!-- 0.2 -->
      <g transform="translate(288.087187 469.237188)scale(0.18 -0.18)">
       <defs>
        <path d="M 1228 531 
L 3431 531 
L 3431 0 
L 469 0 
L 469 531 
Q 828 903 1448 1529 
Q 2069 2156 2228 2338 
Q 2531 2678 2651 2914 
Q 2772 3150 2772 3378 
Q 2772 3750 2511 3984 
Q 2250 4219 1831 4219 
Q 1534 4219 1204 4116 
Q 875 4013 500 3803 
L 500 4441 
Q 881 4594 1212 4672 
Q 1544 4750 1819 4750 
Q 2544 4750 2975 4387 
Q 3406 4025 3406 3419 
Q 3406 3131 3298 2873 
Q 3191 2616 2906 2266 
Q 2828 2175 2409 1742 
Q 1991 1309 1228 531 
z
" id="DejaVuSans-32" transform="scale(0.015625)"/>
       </defs>
       <use xlink:href="#DejaVuSans-30"/>
       <use x="63.623047" xlink:href="#DejaVuSans-2e"/>
       <use x="95.410156" xlink:href="#DejaVuSans-32"/>
      </g>
     </g>
    </g>
    <g id="xtick_3">
     <g id="line2d_3">
      <g>
       <use style="stroke:#000000;stroke-width:0.8;" x="469.8" xlink:href="#m0e7e71b647" y="448.56"/>
      </g>
     </g>
     <g id="text_3">
      <!-- 0.4 -->
      <g transform="translate(455.487188 469.237188)scale(0.18 -0.18)">
       <defs>
        <path d="M 2419 4116 
L 825 1625 
L 2419 1625 
L 2419 4116 
z
M 2253 4666 
L 3047 4666 
L 3047 1625 
L 3713 1625 
L 3713 1100 
L 3047 1100 
L 3047 0 
L 2419 0 
L 2419 1100 
L 313 1100 
L 313 1709 
L 2253 4666 
z
" id="DejaVuSans-34" transform="scale(0.015625)"/>
       </defs>
       <use xlink:href="#DejaVuSans-30"/>
       <use x="63.623047" xlink:href="#DejaVuSans-2e"/>
       <use x="95.410156" xlink:href="#DejaVuSans-34"/>
      </g>
     </g>
    </g>
    <g id="xtick_4">
     <g id="line2d_4">
      <g>
       <use style="stroke:#000000;stroke-width:0.8;" x="637.2" xlink:href="#m0e7e71b647" y="448.56"/>
      </g>
     </g>
     <g id="text_4">
      <!-- 0.6 -->
      <g transform="translate(622.887188 469.237188)scale(0.18 -0.18)">
       <defs>
        <path d="M 2113 2584 
Q 1688 2584 1439 2293 
Q 1191 2003 1191 1497 
Q 1191 994 1439 701 
Q 1688 409 2113 409 
Q 2538 409 2786 701 
Q 3034 994 3034 1497 
Q 3034 2003 2786 2293 
Q 2538 2584 2113 2584 
z
M 3366 4563 
L 3366 3988 
Q 3128 4100 2886 4159 
Q 2644 4219 2406 4219 
Q 1781 4219 1451 3797 
Q 1122 3375 1075 2522 
Q 1259 2794 1537 2939 
Q 1816 3084 2150 3084 
Q 2853 3084 3261 2657 
Q 3669 2231 3669 1497 
Q 3669 778 3244 343 
Q 2819 -91 2113 -91 
Q 1303 -91 875 529 
Q 447 1150 447 2328 
Q 447 3434 972 4092 
Q 1497 4750 2381 4750 
Q 2619 4750 2861 4703 
Q 3103 4656 3366 4563 
z
" id="DejaVuSans-36" transform="scale(0.015625)"/>
       </defs>
       <use xlink:href="#DejaVuSans-30"/>
       <use x="63.623047" xlink:href="#DejaVuSans-2e"/>
       <use x="95.410156" xlink:href="#DejaVuSans-36"/>
      </g>
     </g>
    </g>
    <g id="xtick_5">
     <g id="line2d_5">
      <g>
       <use style="stroke:#000000;stroke-width:0.8;" x="804.6" xlink:href="#m0e7e71b647" y="448.56"/>
      </g>
     </g>
     <g id="text_5">
      <!-- 0.8 -->
      <g transform="translate(790.287188 469.237188)scale(0.18 -0.18)">
       <defs>
        <path d="M 2034 2216 
Q 1584 2216 1326 1975 
Q 1069 1734 1069 1313 
Q 1069 891 1326 650 
Q 1584 409 2034 409 
Q 2484 409 2743 651 
Q 3003 894 3003 1313 
Q 3003 1734 2745 1975 
Q 2488 2216 2034 2216 
z
M 1403 2484 
Q 997 2584 770 2862 
Q 544 3141 544 3541 
Q 544 4100 942 4425 
Q 1341 4750 2034 4750 
Q 2731 4750 3128 4425 
Q 3525 4100 3525 3541 
Q 3525 3141 3298 2862 
Q 3072 2584 2669 2484 
Q 3125 2378 3379 2068 
Q 3634 1759 3634 1313 
Q 3634 634 3220 271 
Q 2806 -91 2034 -91 
Q 1263 -91 848 271 
Q 434 634 434 1313 
Q 434 1759 690 2068 
Q 947 2378 1403 2484 
z
M 1172 3481 
Q 1172 3119 1398 2916 
Q 1625 2713 2034 2713 
Q 2441 2713 2670 2916 
Q 2900 3119 2900 3481 
Q 2900 3844 2670 4047 
Q 2441 4250 2034 4250 
Q 1625 4250 1398 4047 
Q 1172 3844 1172 3481 
z
" id="DejaVuSans-38" transform="scale(0.015625)"/>
       </defs>
       <use xlink:href="#DejaVuSans-30"/>
       <use x="63.623047" xlink:href="#DejaVuSans-2e"/>
       <use x="95.410156" xlink:href="#DejaVuSans-38"/>
      </g>
     </g>
    </g>
    <g id="xtick_6">
     <g id="line2d_6">
      <g>
       <use style="stroke:#000000;stroke-width:0.8;" x="972" xlink:href="#m0e7e71b647" y="448.56"/>
      </g>
     </g>
     <g id="text_6">
      <!-- 1.0 -->
      <g transform="translate(957.687188 469.237188)scale(0.18 -0.18)">
       <defs>
        <path d="M 794 531 
L 1825 531 
L 1825 4091 
L 703 3866 
L 703 4441 
L 1819 4666 
L 2450 4666 
L 2450 531 
L 3481 531 
L 3481 0 
L 794 0 
L 794 531 
z
" id="DejaVuSans-31" transform="scale(0.015625)"/>
       </defs>
       <use xlink:href="#DejaVuSans-31"/>
       <use x="63.623047" xlink:href="#DejaVuSans-2e"/>
       <use x="95.410156" xlink:href="#DejaVuSans-30"/>
      </g>
     </g>
    </g>
    <g id="text_7">
     <!-- $FPR_{Fair}$ -->
     <g transform="translate(518.08 493.697187)scale(0.22 -0.22)">
      <defs>
       <path d="M 1081 4666 
L 3756 4666 
L 3653 4134 
L 1606 4134 
L 1338 2759 
L 3188 2759 
L 3084 2228 
L 1234 2228 
L 800 0 
L 172 0 
L 1081 4666 
z
" id="DejaVuSans-Oblique-46" transform="scale(0.015625)"/>
       <path d="M 1081 4666 
L 2541 4666 
Q 3178 4666 3512 4369 
Q 3847 4072 3847 3500 
Q 3847 2731 3353 2303 
Q 2859 1875 1966 1875 
L 1172 1875 
L 806 0 
L 172 0 
L 1081 4666 
z
M 1613 4147 
L 1275 2394 
L 2069 2394 
Q 2606 2394 2893 2669 
Q 3181 2944 3181 3456 
Q 3181 3784 2986 3965 
Q 2791 4147 2438 4147 
L 1613 4147 
z
" id="DejaVuSans-Oblique-50" transform="scale(0.015625)"/>
       <path d="M 1613 4147 
L 1294 2491 
L 2106 2491 
Q 2584 2491 2879 2755 
Q 3175 3019 3175 3444 
Q 3175 3784 2976 3965 
Q 2778 4147 2406 4147 
L 1613 4147 
z
M 2772 2241 
Q 2972 2194 3105 2009 
Q 3238 1825 3413 1275 
L 3809 0 
L 3144 0 
L 2778 1197 
Q 2638 1659 2453 1815 
Q 2269 1972 1888 1972 
L 1191 1972 
L 806 0 
L 172 0 
L 1081 4666 
L 2503 4666 
Q 3150 4666 3495 4373 
Q 3841 4081 3841 3531 
Q 3841 3044 3547 2687 
Q 3253 2331 2772 2241 
z
" id="DejaVuSans-Oblique-52" transform="scale(0.015625)"/>
       <path d="M 3438 1997 
L 3047 0 
L 2472 0 
L 2578 531 
Q 2325 219 2001 64 
Q 1678 -91 1281 -91 
Q 834 -91 548 182 
Q 263 456 263 884 
Q 263 1497 752 1853 
Q 1241 2209 2100 2209 
L 2900 2209 
L 2931 2363 
Q 2938 2388 2941 2417 
Q 2944 2447 2944 2509 
Q 2944 2788 2717 2942 
Q 2491 3097 2081 3097 
Q 1800 3097 1504 3025 
Q 1209 2953 897 2809 
L 997 3341 
Q 1322 3463 1633 3523 
Q 1944 3584 2234 3584 
Q 2853 3584 3176 3315 
Q 3500 3047 3500 2534 
Q 3500 2431 3484 2292 
Q 3469 2153 3438 1997 
z
M 2816 1759 
L 2241 1759 
Q 1534 1759 1195 1570 
Q 856 1381 856 984 
Q 856 709 1029 553 
Q 1203 397 1509 397 
Q 1978 397 2328 733 
Q 2678 1069 2791 1631 
L 2816 1759 
z
" id="DejaVuSans-Oblique-61" transform="scale(0.015625)"/>
       <path d="M 1172 4863 
L 1747 4863 
L 1606 4134 
L 1031 4134 
L 1172 4863 
z
M 909 3500 
L 1484 3500 
L 800 0 
L 225 0 
L 909 3500 
z
" id="DejaVuSans-Oblique-69" transform="scale(0.015625)"/>
       <path d="M 2853 2969 
Q 2766 3016 2653 3041 
Q 2541 3066 2413 3066 
Q 1953 3066 1609 2717 
Q 1266 2369 1153 1784 
L 800 0 
L 225 0 
L 909 3500 
L 1484 3500 
L 1375 2956 
Q 1603 3259 1920 3421 
Q 2238 3584 2597 3584 
Q 2691 3584 2781 3573 
Q 2872 3563 2963 3538 
L 2853 2969 
z
" id="DejaVuSans-Oblique-72" transform="scale(0.015625)"/>
      </defs>
      <use transform="translate(0 0.09375)" xlink:href="#DejaVuSans-Oblique-46"/>
      <use transform="translate(57.519531 0.09375)" xlink:href="#DejaVuSans-Oblique-50"/>
      <use transform="translate(117.822266 0.09375)" xlink:href="#DejaVuSans-Oblique-52"/>
      <use transform="translate(187.304688 -16.3125)scale(0.7)" xlink:href="#DejaVuSans-Oblique-46"/>
      <use transform="translate(227.568359 -16.3125)scale(0.7)" xlink:href="#DejaVuSans-Oblique-61"/>
      <use transform="translate(270.463867 -16.3125)scale(0.7)" xlink:href="#DejaVuSans-Oblique-69"/>
      <use transform="translate(289.912109 -16.3125)scale(0.7)" xlink:href="#DejaVuSans-Oblique-72"/>
     </g>
    </g>
   </g>
   <g id="matplotlib.axis_2">
    <g id="ytick_1">
     <g id="line2d_7">
      <defs>
       <path d="M 0 0 
L -3.5 0 
" id="ma0eaa9819d" style="stroke:#000000;stroke-width:0.8;"/>
      </defs>
      <g>
       <use style="stroke:#000000;stroke-width:0.8;" x="135" xlink:href="#ma0eaa9819d" y="448.56"/>
      </g>
     </g>
     <g id="text_8">
      <!-- 0.0 -->
      <g transform="translate(99.374375 455.398594)scale(0.18 -0.18)">
       <use xlink:href="#DejaVuSans-30"/>
       <use x="63.623047" xlink:href="#DejaVuSans-2e"/>
       <use x="95.410156" xlink:href="#DejaVuSans-30"/>
      </g>
     </g>
    </g>
    <g id="ytick_2">
     <g id="line2d_8">
      <g>
       <use style="stroke:#000000;stroke-width:0.8;" x="135" xlink:href="#ma0eaa9819d" y="370.944"/>
      </g>
     </g>
     <g id="text_9">
      <!-- 0.2 -->
      <g transform="translate(99.374375 377.782594)scale(0.18 -0.18)">
       <use xlink:href="#DejaVuSans-30"/>
       <use x="63.623047" xlink:href="#DejaVuSans-2e"/>
       <use x="95.410156" xlink:href="#DejaVuSans-32"/>
      </g>
     </g>
    </g>
    <g id="ytick_3">
     <g id="line2d_9">
      <g>
       <use style="stroke:#000000;stroke-width:0.8;" x="135" xlink:href="#ma0eaa9819d" y="293.328"/>
      </g>
     </g>
     <g id="text_10">
      <!-- 0.4 -->
      <g transform="translate(99.374375 300.166594)scale(0.18 -0.18)">
       <use xlink:href="#DejaVuSans-30"/>
       <use x="63.623047" xlink:href="#DejaVuSans-2e"/>
       <use x="95.410156" xlink:href="#DejaVuSans-34"/>
      </g>
     </g>
    </g>
    <g id="ytick_4">
     <g id="line2d_10">
      <g>
       <use style="stroke:#000000;stroke-width:0.8;" x="135" xlink:href="#ma0eaa9819d" y="215.712"/>
      </g>
     </g>
     <g id="text_11">
      <!-- 0.6 -->
      <g transform="translate(99.374375 222.550594)scale(0.18 -0.18)">
       <use xlink:href="#DejaVuSans-30"/>
       <use x="63.623047" xlink:href="#DejaVuSans-2e"/>
       <use x="95.410156" xlink:href="#DejaVuSans-36"/>
      </g>
     </g>
    </g>
    <g id="ytick_5">
     <g id="line2d_11">
      <g>
       <use style="stroke:#000000;stroke-width:0.8;" x="135" xlink:href="#ma0eaa9819d" y="138.096"/>
      </g>
     </g>
     <g id="text_12">
      <!-- 0.8 -->
      <g transform="translate(99.374375 144.934594)scale(0.18 -0.18)">
       <use xlink:href="#DejaVuSans-30"/>
       <use x="63.623047" xlink:href="#DejaVuSans-2e"/>
       <use x="95.410156" xlink:href="#DejaVuSans-38"/>
      </g>
     </g>
    </g>
    <g id="ytick_6">
     <g id="line2d_12">
      <g>
       <use style="stroke:#000000;stroke-width:0.8;" x="135" xlink:href="#ma0eaa9819d" y="60.48"/>
      </g>
     </g>
     <g id="text_13">
      <!-- 1.0 -->
      <g transform="translate(99.374375 67.318594)scale(0.18 -0.18)">
       <use xlink:href="#DejaVuSans-31"/>
       <use x="63.623047" xlink:href="#DejaVuSans-2e"/>
       <use x="95.410156" xlink:href="#DejaVuSans-30"/>
      </g>
     </g>
    </g>
    <g id="text_14">
     <!-- $TPR_{Fair}$ -->
     <g transform="translate(90.799062 290.27)rotate(-90)scale(0.22 -0.22)">
      <defs>
       <path d="M 378 4666 
L 4325 4666 
L 4225 4134 
L 2559 4134 
L 1759 0 
L 1125 0 
L 1925 4134 
L 275 4134 
L 378 4666 
z
" id="DejaVuSans-Oblique-54" transform="scale(0.015625)"/>
      </defs>
      <use transform="translate(0 0.09375)" xlink:href="#DejaVuSans-Oblique-54"/>
      <use transform="translate(61.083984 0.09375)" xlink:href="#DejaVuSans-Oblique-50"/>
      <use transform="translate(121.386719 0.09375)" xlink:href="#DejaVuSans-Oblique-52"/>
      <use transform="translate(190.869141 -16.3125)scale(0.7)" xlink:href="#DejaVuSans-Oblique-46"/>
      <use transform="translate(231.132812 -16.3125)scale(0.7)" xlink:href="#DejaVuSans-Oblique-61"/>
      <use transform="translate(274.02832 -16.3125)scale(0.7)" xlink:href="#DejaVuSans-Oblique-69"/>
      <use transform="translate(293.476562 -16.3125)scale(0.7)" xlink:href="#DejaVuSans-Oblique-72"/>
     </g>
    </g>
   </g>
   <g id="line2d_13">
    <path clip-path="url(#pcd460dfc46)" d="M 135 448.56 
L 972 60.48 
" style="fill:none;stroke:#ff0000;stroke-dasharray:5.55,2.4;stroke-dashoffset:0;stroke-width:1.5;"/>
   </g>
   <g id="line2d_14">
    <path clip-path="url(#pcd460dfc46)" d="M 972 60.48 
L 210.760388 411.489007 
L 173.897972 429.163022 
L 160.867589 435.428236 
L 154.178924 438.665723 
L 150.109694 440.650567 
L 147.400097 441.983657 
L 145.44525 442.910929 
L 143.988847 443.647621 
L 142.862951 444.200552 
L 141.952478 444.650631 
L 141.201457 445.023654 
L 140.582097 445.337595 
L 140.053863 445.592967 
L 139.612682 445.813457 
L 139.233412 446.00482 
L 138.90099 446.174556 
L 138.605215 446.33461 
L 138.343543 446.465427 
L 138.115547 446.585514 
L 137.908582 446.689918 
L 137.724312 446.785141 
L 137.557432 446.871014 
L 137.408126 446.954307 
L 137.275385 447.024961 
L 137.152801 447.094465 
L 137.040715 447.154052 
L 136.935793 447.210945 
L 136.838884 447.263423 
L 136.752828 447.312808 
L 136.667782 447.358514 
L 136.593546 447.402675 
L 136.523245 447.444591 
L 136.45535 447.4839 
L 136.393856 447.518695 
L 136.336114 447.551381 
L 136.282443 447.58193 
L 136.23163 447.611561 
L 136.18621 447.639176 
L 136.143022 447.666036 
L 136.102664 447.691553 
L 136.061773 447.717436 
L 136.027308 447.739329 
L 135.992572 447.763773 
L 135.960443 447.78801 
L 135.929815 447.808816 
L 135.898803 447.828339 
L 135.870585 447.846963 
L 135.843878 447.86395 
L 135.818371 447.883713 
L 135.795681 447.901741 
L 135.771234 447.918055 
L 135.749591 447.937897 
L 135.728538 447.953004 
L 135.709203 447.967243 
L 135.689904 447.981957 
L 135.672797 447.996521 
L 135.656159 448.009621 
L 135.639944 448.022994 
L 135.622901 448.032859 
L 135.60632 448.044534 
L 135.591436 448.055607 
L 135.57633 448.065432 
L 135.562068 448.076089 
L 135.548529 448.086764 
L 135.536394 448.095493 
L 135.524067 448.107321 
L 135.511623 448.116644 
L 135.499313 448.124927 
L 135.488186 448.132091 
L 135.478024 448.140264 
L 135.467307 448.148967 
L 135.456531 448.158279 
L 135.444762 448.165551 
L 135.436032 448.173693 
L 135.426327 448.180645 
L 135.414829 448.187935 
L 135.405694 448.194835 
L 135.396266 448.201373 
L 135.386374 448.208461 
L 135.376347 448.216307 
L 135.365342 448.222628 
L 135.355418 448.228139 
L 135.344522 448.233822 
L 135.3341 448.239608 
L 135.324217 448.246149 
L 135.316803 448.251257 
L 135.309317 448.257115 
L 135.299988 448.263509 
L 135.292588 448.269359 
L 135.284365 448.275724 
L 135.275314 448.281734 
L 135.268415 448.288114 
L 135.259781 448.294119 
L 135.253755 448.298824 
L 135.247376 448.304202 
L 135.239865 448.309325 
L 135.233781 448.316275 
L 135.227602 448.322544 
L 135.221239 448.329276 
L 135.215087 448.334367 
" style="fill:none;stroke:#1f77b4;stroke-linecap:square;stroke-width:1.5;"/>
   </g>
   <g id="line2d_15">
    <path clip-path="url(#pcd460dfc46)" d="M 972 60.48 
L 656.022762 200.468448 
L 509.379478 266.37991 
L 424.82551 304.566928 
L 369.563011 329.83712 
L 330.728413 347.765419 
L 302.229261 361.088116 
L 280.196306 371.228594 
L 262.724746 379.43952 
L 248.55338 386.044398 
L 236.831512 391.54358 
L 227.041138 396.26582 
L 218.711715 400.228569 
L 211.49779 403.631447 
L 205.259161 406.671769 
L 199.811035 409.318051 
L 194.980738 411.656516 
L 190.719362 413.787339 
L 186.926906 415.683651 
L 183.462868 417.369844 
L 180.359956 418.902303 
L 177.598473 420.304432 
L 175.069653 421.580262 
L 172.759835 422.773404 
L 170.648849 423.872749 
L 168.723231 424.90567 
L 166.96751 425.832394 
L 165.340244 426.65989 
L 163.866166 427.457085 
L 162.505517 428.226476 
L 161.221685 428.915567 
L 160.041198 429.57469 
L 158.929587 430.190989 
L 157.920225 430.76883 
L 156.966063 431.313127 
L 156.078176 431.835279 
L 155.256992 432.31682 
L 154.470931 432.766485 
L 153.739345 433.201992 
L 153.055916 433.617403 
L 152.418252 434.011679 
L 151.810824 434.390282 
L 151.246415 434.757817 
L 150.711589 435.109142 
L 150.199105 435.433211 
L 149.709213 435.749139 
L 149.253754 436.062135 
L 148.8193 436.34902 
L 148.398672 436.628218 
L 148.011905 436.903756 
L 147.641836 437.167129 
L 147.277737 437.425681 
L 146.936059 437.688117 
L 146.606507 437.915872 
L 146.29923 438.143001 
L 145.989801 438.360684 
L 145.707342 438.570339 
L 145.435036 438.767069 
L 145.169857 438.972277 
L 144.912997 439.168055 
L 144.666602 439.354687 
L 144.431077 439.535196 
L 144.186603 439.70849 
L 143.961455 439.873776 
L 143.742605 440.038068 
L 143.52446 440.199154 
L 143.315055 440.3627 
L 143.113819 440.517979 
L 142.915898 440.668826 
L 142.732578 440.820716 
L 142.553645 440.959452 
L 142.378395 441.098288 
L 142.206255 441.240785 
L 142.036223 441.371844 
L 141.867639 441.502748 
L 141.705313 441.63116 
L 141.548871 441.755389 
L 141.396357 441.873865 
L 141.246108 442.003311 
L 141.103671 442.125733 
L 140.963229 442.24299 
L 140.82761 442.358067 
L 140.689494 442.464163 
L 140.555583 442.572734 
L 140.427549 442.680531 
L 140.302006 442.783472 
L 140.178663 442.891383 
L 140.060815 442.991073 
L 139.95028 443.095875 
L 139.832327 443.201213 
L 139.719589 443.302157 
L 139.615088 443.396328 
L 139.511316 443.499829 
L 139.399249 443.601061 
L 139.292062 443.692389 
L 139.184453 443.786524 
L 139.08155 443.882145 
L 138.985663 443.978696 
L 138.889431 444.083714 
L 138.785515 444.187068 
L 138.687354 444.278704 
" style="fill:none;stroke:#ff7f0e;stroke-linecap:square;stroke-width:1.5;"/>
   </g>
   <g id="line2d_16">
    <path clip-path="url(#pcd460dfc46)" d="M 972 60.48 
L 769.394396 129.22098 
L 642.176792 177.893843 
L 554.785595 213.770607 
L 491.095832 241.805346 
L 442.939696 263.7294 
L 405.065567 281.625767 
L 374.671203 296.274611 
L 349.509877 308.85837 
L 328.496769 319.365718 
L 310.765294 328.567627 
L 295.588511 336.719285 
L 282.424239 343.803384 
L 270.910787 350.019801 
L 260.784972 355.656367 
L 251.790089 360.686017 
L 243.784539 365.251111 
L 236.632871 369.396115 
L 230.212193 373.23216 
L 224.352213 376.70927 
L 219.002767 379.854995 
L 214.202836 382.767604 
L 209.827056 385.435535 
L 205.788706 387.953407 
L 202.079931 390.300828 
L 198.669362 392.52898 
L 195.525943 394.555409 
L 192.629368 396.419226 
L 189.985487 398.192326 
L 187.503787 399.87336 
L 185.17441 401.434793 
L 183.039794 402.896611 
L 181.022993 404.298548 
L 179.16469 405.58065 
L 177.427381 406.807682 
L 175.79218 407.966644 
L 174.259404 409.0711 
L 172.826468 410.106193 
L 171.471512 411.083163 
L 170.208089 412.044635 
L 169.011797 412.949815 
L 167.871728 413.822498 
L 166.801935 414.657972 
L 165.796101 415.464118 
L 164.83417 416.229584 
L 163.908839 416.958903 
L 163.04903 417.68826 
L 162.215784 418.36567 
L 161.416274 419.032903 
L 160.673206 419.668937 
L 159.959425 420.28885 
L 159.264914 420.895557 
L 158.600065 421.486363 
L 157.961762 422.035035 
L 157.365415 422.583233 
L 156.76742 423.095545 
L 156.209438 423.599351 
L 155.669201 424.082492 
L 155.138253 424.561214 
L 154.627621 425.028084 
L 154.133895 425.482722 
L 153.668736 425.919334 
L 153.199873 426.343642 
L 152.752973 426.746259 
L 152.321718 427.15075 
L 151.885816 427.546993 
L 151.479135 427.933659 
L 151.07851 428.315766 
L 150.692598 428.681071 
L 150.333099 429.040804 
L 149.979959 429.390681 
L 149.627638 429.737415 
L 149.284458 430.089752 
L 148.947468 430.417103 
L 148.618358 430.741119 
L 148.287808 431.061606 
L 147.979824 431.371564 
L 147.675193 431.675107 
L 147.380705 431.994222 
L 147.095018 432.289719 
L 146.814492 432.588579 
L 146.543624 432.883268 
L 146.270123 433.155099 
L 146.004238 433.431149 
L 145.755638 433.702848 
L 145.51069 433.967611 
L 145.271562 434.240329 
L 145.029075 434.503363 
L 144.800265 434.766879 
L 144.573994 435.016901 
L 144.35101 435.275393 
L 144.140442 435.517872 
L 143.92184 435.768499 
L 143.703722 436.020093 
L 143.495211 436.260814 
L 143.290998 436.49542 
L 143.084324 436.733431 
L 142.889838 436.972281 
L 142.697704 437.215891 
L 142.493175 437.4627 
L 142.305536 437.690219 
" style="fill:none;stroke:#2ca02c;stroke-linecap:square;stroke-width:1.5;"/>
   </g>
   <g id="line2d_17">
    <path clip-path="url(#pcd460dfc46)" d="M 972 60.48 
L 968.335252 71.725774 
L 964.577957 82.319237 
L 960.633476 92.334623 
L 956.596945 102.110792 
L 952.439238 111.593536 
L 948.300659 120.37252 
L 943.922559 128.79015 
L 939.415468 136.682329 
L 934.960551 144.293186 
L 930.328983 151.691087 
L 925.797796 159.054088 
L 921.141083 165.924091 
L 916.24615 172.416924 
L 911.198558 178.598 
L 906.07416 184.610327 
L 901.035084 190.407586 
L 895.899807 196.029444 
L 890.694454 201.351913 
L 885.426203 206.46371 
L 879.958928 211.319599 
L 874.53096 215.893319 
L 869.108617 220.395186 
L 863.597945 224.716274 
L 858.086876 228.776189 
L 852.44157 232.849136 
L 846.848807 236.702341 
L 841.334851 240.400992 
L 835.747609 243.971568 
L 830.192657 247.546498 
L 824.571189 250.814511 
L 818.987433 254.056946 
L 813.353036 257.336527 
L 807.94724 260.384333 
L 802.514134 263.308131 
L 796.983512 266.14665 
L 791.438737 268.787808 
L 785.910496 271.37635 
L 780.454723 273.877445 
L 775.150826 276.376508 
L 769.861903 278.833112 
L 764.39222 281.167925 
L 759.14223 283.419427 
L 754.050311 285.646231 
L 748.776749 287.808103 
L 743.51634 289.88635 
L 738.434818 292.022509 
L 733.331582 294.09001 
L 728.28881 296.126064 
L 723.316018 298.061871 
L 718.333713 300.014716 
L 713.219039 301.895661 
L 708.297102 303.734329 
L 703.239459 305.568786 
L 698.481091 307.423681 
L 693.61147 309.1878 
L 688.847839 310.961993 
L 683.893788 312.636177 
L 679.048133 314.316994 
L 674.171432 315.972642 
L 669.370685 317.672752 
L 664.772419 319.298521 
L 659.843525 320.922223 
L 655.03161 322.491118 
L 650.205946 324.162058 
L 645.277321 325.729319 
L 640.408207 327.294607 
L 635.592305 328.885095 
L 630.713751 330.411375 
L 625.910394 331.964094 
L 621.108218 333.52729 
L 616.162914 335.087133 
L 611.290649 336.632037 
L 606.29033 338.171435 
L 601.249507 339.694721 
L 596.179902 341.229862 
L 591.082114 342.760266 
L 586.123549 344.240279 
L 581.275196 345.849691 
L 576.250677 347.388386 
L 571.193463 348.919452 
L 566.03214 350.452134 
L 560.963842 351.969258 
L 555.755871 353.477672 
L 550.859461 354.958073 
L 545.759888 356.44726 
L 540.634424 357.96095 
L 535.379116 359.449843 
L 530.388912 360.951941 
L 525.22449 362.41915 
L 520.007658 364.007852 
L 514.932211 365.459103 
L 509.61297 367.027508 
L 504.242656 368.599831 
L 498.984092 370.130725 
L 493.659279 371.625339 
L 488.29017 373.19507 
L 483.100019 374.709729 
L 477.835025 376.292786 
L 472.268388 377.874891 
L 466.86539 379.381983 
" style="fill:none;stroke:#d62728;stroke-linecap:square;stroke-width:1.5;"/>
   </g>
   <g id="line2d_18">
    <path clip-path="url(#pcd460dfc46)" d="M 972 60.48 
L 898.831101 77.959379 
L 835.721579 93.760933 
L 780.539526 108.515487 
L 732.083083 122.419593 
L 689.366051 135.401425 
L 650.972895 147.327244 
L 616.774364 158.233858 
L 586.090673 168.634002 
L 558.134296 178.190434 
L 532.823166 187.28988 
L 509.811645 196.079061 
L 488.627975 204.207478 
L 469.283856 211.817024 
L 451.523225 219.046288 
L 435.047994 225.867449 
L 419.917203 232.391772 
L 405.877749 238.576557 
L 392.932227 244.459315 
L 380.821971 249.977269 
L 369.511954 255.214022 
L 359.014289 260.178424 
L 349.220427 264.984519 
L 340.03881 269.576519 
L 331.435995 273.982492 
L 323.355589 278.188365 
L 315.747827 282.175547 
L 308.596206 285.946668 
L 301.899493 289.569446 
L 295.553022 293.134911 
L 289.514037 296.484291 
L 283.881146 299.70698 
L 278.463989 302.870178 
L 273.42228 305.821082 
L 268.58762 308.659061 
L 263.993914 311.361269 
L 259.662376 314.002446 
L 255.52218 316.479299 
L 251.584436 318.875181 
L 247.874703 321.303671 
L 244.283784 323.605129 
L 240.836488 325.867343 
L 237.561111 328.032692 
L 234.443604 330.108454 
L 231.43879 332.154379 
L 228.557126 334.132868 
L 225.829812 336.085814 
L 223.170916 337.924066 
L 220.627044 339.795264 
L 218.188629 341.537267 
L 215.796457 343.248367 
L 213.518132 344.954389 
L 211.32718 346.606909 
L 209.197162 348.20559 
L 207.166965 349.84344 
L 205.19332 351.405678 
L 203.310012 352.945674 
L 201.444792 354.437052 
L 199.625872 355.885867 
L 197.921847 357.30161 
L 196.240463 358.711461 
L 194.628379 360.12019 
L 193.024831 361.479066 
L 191.496564 362.791836 
L 190.001546 364.1703 
L 188.532018 365.459051 
L 187.114182 366.760438 
L 185.736504 368.07691 
L 184.413596 369.329502 
L 183.131532 370.586277 
L 181.883103 371.839834 
L 180.669065 373.099609 
L 179.499966 374.327485 
L 178.338764 375.528989 
L 177.197047 376.686202 
L 176.100904 377.852012 
L 175.028487 379.025013 
L 174.00435 380.153704 
L 173.010784 381.349924 
L 172.03012 382.508541 
L 171.069515 383.657997 
L 170.128573 384.78618 
L 169.217566 385.907778 
L 168.326605 387.017855 
L 167.479692 388.098405 
L 166.629666 389.174871 
L 165.806865 390.257019 
L 165.000087 391.298698 
L 164.22147 392.35837 
L 163.449163 393.360356 
L 162.702072 394.440734 
L 161.972127 395.423456 
L 161.23181 396.456228 
L 160.510885 397.498503 
L 159.816405 398.49692 
L 159.128048 399.484641 
L 158.460623 400.492135 
L 157.812201 401.475803 
L 157.18383 402.485429 
L 156.543467 403.510954 
L 155.92648 404.484758 
" style="fill:none;stroke:#9467bd;stroke-linecap:square;stroke-width:1.5;"/>
   </g>
   <g id="line2d_19">
    <path clip-path="url(#pcd460dfc46)" d="M 972 60.48 
L 930.017893 82.712227 
L 891.007092 102.565094 
L 854.643399 120.420805 
L 820.383476 136.89119 
L 788.277733 151.779118 
L 758.276997 165.467109 
L 729.939531 177.859164 
L 703.254885 189.64405 
L 678.363866 200.342698 
L 654.852718 210.316179 
L 632.724011 219.628103 
L 611.787442 228.295569 
L 591.994192 236.348381 
L 573.4056 244.03021 
L 555.753298 251.0789 
L 539.081415 257.777054 
L 523.09704 264.096145 
L 508.220847 270.072422 
L 493.901232 275.667411 
L 480.389324 281.00647 
L 467.570248 286.039271 
L 455.31844 290.858151 
L 443.682421 295.448652 
L 432.640884 299.794042 
L 422.165647 303.948055 
L 412.203602 307.914364 
L 402.697984 311.598539 
L 393.677572 315.195334 
L 385.04431 318.652547 
L 376.780695 321.904661 
L 368.939242 325.103597 
L 361.301486 328.182966 
L 354.152709 331.106258 
L 347.258469 333.892008 
L 340.633839 336.575721 
L 334.372536 339.118146 
L 328.290159 341.600126 
L 322.495684 344.025913 
L 316.947113 346.364796 
L 311.5555 348.609297 
L 306.365988 350.772648 
L 301.43352 352.89735 
L 296.657093 354.930021 
L 292.053977 356.903451 
L 287.625315 358.818768 
L 283.428043 360.677463 
L 279.27839 362.438279 
L 275.305148 364.204003 
L 271.471809 365.86137 
L 267.709594 367.50994 
L 264.089274 369.092601 
L 260.594974 370.641343 
L 257.216993 372.128892 
L 253.982386 373.603948 
L 250.833436 375.018906 
L 247.775033 376.406965 
L 244.783355 377.756362 
L 241.841575 379.101453 
L 239.053561 380.397491 
L 236.319876 381.679643 
L 233.694796 382.925678 
L 231.067381 384.144137 
L 228.555776 385.299979 
L 226.111698 386.477192 
L 223.690143 387.599421 
L 221.3658 388.722599 
L 219.111472 389.826363 
L 216.93467 390.892606 
L 214.80288 391.922971 
L 212.739885 392.97438 
L 210.729875 394.025736 
L 208.811927 395.059482 
L 206.87449 396.067815 
L 205.007329 397.028828 
L 203.183166 397.985498 
L 201.407781 398.920311 
L 199.692117 399.835837 
L 198.025769 400.794893 
L 196.392872 401.736145 
L 194.784052 402.651666 
L 193.23514 403.521757 
L 191.708295 404.390581 
L 190.221893 405.248825 
L 188.802644 406.078879 
L 187.380206 406.915169 
L 185.994212 407.752429 
L 184.661533 408.557865 
L 183.347509 409.376349 
L 182.068775 410.146679 
L 180.820409 410.958896 
L 179.589095 411.713566 
L 178.352285 412.515885 
L 177.14898 413.278509 
L 175.984839 414.030865 
L 174.825329 414.765769 
L 173.713863 415.523026 
L 172.631823 416.256666 
L 171.566976 417.006335 
L 170.489187 417.770445 
L 169.45766 418.493085 
" style="fill:none;stroke:#8c564b;stroke-linecap:square;stroke-width:1.5;"/>
   </g>
   <g id="line2d_20">
    <path clip-path="url(#pcd460dfc46)" d="M 972 60.48 
L 859.114997 100.59391 
L 770.697523 133.40129 
L 699.376539 160.640681 
L 640.692252 183.761138 
L 591.674993 203.667289 
L 550.111233 221.050406 
L 514.483309 235.948288 
L 483.652326 249.527801 
L 456.702702 261.301297 
L 432.957035 271.874041 
L 411.940874 281.476231 
L 393.172823 290.132141 
L 376.329857 297.9322 
L 361.197725 305.209091 
L 347.440579 311.71835 
L 334.966589 317.808421 
L 323.523493 323.427649 
L 313.145112 328.653818 
L 303.585424 333.440663 
L 294.782828 337.952899 
L 286.669218 342.134545 
L 279.141999 346.045047 
L 272.15543 349.746568 
L 265.666876 353.219766 
L 259.645432 356.484589 
L 254.03552 359.564762 
L 248.773008 362.405969 
L 243.878106 365.137677 
L 239.290612 367.729969 
L 234.940586 370.156665 
L 230.902763 372.505273 
L 227.057729 374.733104 
L 223.465765 376.838463 
L 220.059436 378.836095 
L 216.852283 380.729731 
L 213.838973 382.542272 
L 210.952743 384.273295 
L 208.229175 385.926473 
L 205.655449 387.535666 
L 203.183586 389.060319 
L 200.832588 390.526301 
L 198.5997 391.944803 
L 196.48529 393.306723 
L 194.463321 394.613231 
L 192.523583 395.887848 
L 190.692714 397.114689 
L 188.918508 398.275915 
L 187.231195 399.430906 
L 185.60921 400.517069 
L 184.03253 401.578299 
L 182.524543 402.605342 
L 181.080251 403.607141 
L 179.689405 404.565622 
L 178.360735 405.507197 
L 177.084754 406.415864 
L 175.848939 407.292609 
L 174.651661 408.151597 
L 173.479603 408.989895 
L 172.3694 409.798707 
L 171.288664 410.596362 
L 170.250407 411.365977 
L 169.228577 412.116475 
L 168.259382 412.834515 
L 167.316614 413.552554 
L 166.392303 414.239638 
L 165.512972 414.919311 
L 164.660391 415.585319 
L 163.838795 416.229374 
L 163.035483 416.849119 
L 162.260958 417.47464 
L 161.514149 418.097324 
L 160.795221 418.714552 
L 160.082525 419.307933 
L 159.392125 419.883881 
L 158.720575 420.450981 
L 158.07034 421.004954 
L 157.438545 421.538594 
L 156.829447 422.097405 
L 156.235656 422.638432 
L 155.656757 423.169682 
L 155.098105 423.679617 
L 154.550439 424.178676 
L 154.016501 424.673864 
L 153.505192 425.158485 
L 152.99347 425.639092 
L 152.499749 426.118166 
L 152.026488 426.577319 
L 151.562064 427.042944 
L 151.106295 427.479997 
L 150.663206 427.940027 
L 150.227517 428.364068 
L 149.793003 428.809106 
L 149.372293 429.2352 
L 148.963997 429.658448 
L 148.561817 430.068217 
L 148.175384 430.487998 
L 147.797372 430.894806 
L 147.425465 431.306923 
L 147.04911 431.729012 
L 146.689999 432.129495 
" style="fill:none;stroke:#e377c2;stroke-linecap:square;stroke-width:1.5;"/>
   </g>
   <g id="line2d_21">
    <path clip-path="url(#pcd460dfc46)" d="M 972 60.48 
L 918.241823 75.931764 
L 869.531606 90.307696 
L 825.025928 103.728549 
L 784.340064 116.352888 
L 747.175029 128.300817 
L 712.833639 139.407391 
L 681.211258 149.725813 
L 652.075576 159.760484 
L 625.041163 168.964852 
L 599.892278 177.735803 
L 576.606757 186.214357 
L 554.876216 194.218724 
L 534.572699 201.686423 
L 515.693637 208.932547 
L 497.919987 215.674037 
L 481.372673 222.225432 
L 465.752638 228.383366 
L 451.166596 234.342681 
L 437.444721 239.952701 
L 424.531382 245.367484 
L 412.383816 250.496049 
L 400.913562 255.390513 
L 390.077376 260.181052 
L 379.848847 264.754313 
L 370.211418 269.121266 
L 361.063892 273.346042 
L 352.39432 277.318523 
L 344.222283 281.199904 
L 336.450832 284.940601 
L 329.034151 288.503224 
L 322.081401 291.936878 
L 315.389283 295.317131 
L 309.058146 298.505141 
L 303.020046 301.604039 
L 297.293513 304.561884 
L 291.852223 307.44669 
L 286.61197 310.191403 
L 281.645054 312.841664 
L 276.9147 315.497341 
L 272.351648 318.042942 
L 267.979914 320.473012 
L 263.804689 322.855338 
L 259.837334 325.165139 
L 256.029999 327.410102 
L 252.353111 329.625373 
L 248.866982 331.774221 
L 245.477111 333.832506 
L 242.243007 335.906714 
L 239.127764 337.859615 
L 236.094342 339.804791 
L 233.188761 341.700577 
L 230.384313 343.549772 
L 227.670764 345.331574 
L 225.071834 347.105402 
L 222.570271 348.834001 
L 220.142672 350.533007 
L 217.782759 352.185492 
L 215.465779 353.805222 
L 213.263306 355.374889 
L 211.119948 356.923689 
L 209.056143 358.452104 
L 207.027328 359.946975 
L 205.102182 361.385914 
L 203.228606 362.836727 
L 201.37514 364.240262 
L 199.602295 365.62838 
L 197.892408 366.987781 
L 196.22536 368.314794 
L 194.5971 369.595155 
L 193.03284 370.909731 
L 191.517769 372.236031 
L 190.06037 373.539781 
L 188.606386 374.818189 
L 187.196583 376.033743 
L 185.828087 377.266944 
L 184.499776 378.470261 
L 183.204599 379.648127 
L 181.94845 380.868019 
L 180.723656 382.077973 
L 179.533106 383.250455 
L 178.378834 384.386678 
L 177.246795 385.509431 
L 176.14885 386.641909 
L 175.093012 387.747131 
L 174.034235 388.848699 
L 173.010871 389.949412 
L 172.029056 391.013936 
L 171.058165 392.094076 
L 170.100087 393.114463 
L 169.169746 394.196311 
L 168.259833 395.201106 
L 167.351254 396.252552 
L 166.469632 397.281911 
L 165.612056 398.305039 
L 164.76757 399.30614 
L 163.949551 400.333864 
L 163.147659 401.32513 
L 162.353493 402.347883 
L 161.551015 403.384218 
L 160.787882 404.378519 
" style="fill:none;stroke:#7f7f7f;stroke-linecap:square;stroke-width:1.5;"/>
   </g>
   <g id="line2d_22">
    <path clip-path="url(#pcd460dfc46)" d="M 972 60.48 
L 887.674264 92.367256 
L 816.705617 119.69344 
L 755.995922 143.159213 
L 703.506712 163.725388 
L 657.820569 181.914101 
L 617.654373 198.182268 
L 582.1479 212.428569 
L 550.572309 225.665924 
L 522.323221 237.336238 
L 496.895022 247.963859 
L 473.954859 257.751484 
L 453.1189 266.679762 
L 434.14105 274.81589 
L 416.862055 282.492297 
L 400.962437 289.410197 
L 386.376758 295.947928 
L 372.865308 302.02378 
L 360.481314 307.713334 
L 349.000758 312.950895 
L 338.346349 317.922239 
L 328.451286 322.565122 
L 319.216771 326.922101 
L 310.587009 331.074608 
L 302.536582 334.984927 
L 295.045688 338.671635 
L 288.022695 342.177532 
L 281.420076 345.430693 
L 275.245861 348.557803 
L 269.439704 351.532175 
L 263.95259 354.335773 
L 258.82723 357.04614 
L 253.932648 359.629621 
L 249.338697 362.082504 
L 244.989617 364.407899 
L 240.900177 366.624808 
L 237.044899 368.747237 
L 233.34653 370.771186 
L 229.858094 372.708505 
L 226.560268 374.600693 
L 223.391712 376.403455 
L 220.377516 378.136679 
L 217.516429 379.81851 
L 214.800681 381.425751 
L 212.206807 382.97784 
L 209.718401 384.490051 
L 207.371447 385.944449 
L 205.088796 387.326687 
L 202.913678 388.699606 
L 200.837124 390.001405 
L 198.817111 391.272033 
L 196.891044 392.501495 
L 195.045777 393.705332 
L 193.262575 394.856123 
L 191.548741 395.989893 
L 189.914294 397.080582 
L 188.33398 398.137635 
L 186.796854 399.173055 
L 185.295878 400.1835 
L 183.868646 401.157521 
L 182.479714 402.118133 
L 181.149091 403.048046 
L 179.848972 403.953555 
L 178.615517 404.816627 
L 177.41754 405.677346 
L 176.236249 406.508224 
L 175.113606 407.325767 
L 174.025681 408.123622 
L 172.967054 408.899489 
L 171.93822 409.645198 
L 170.949907 410.40075 
L 169.993941 411.155888 
L 169.07852 411.901477 
L 168.165031 412.620667 
L 167.278625 413.316615 
L 166.425165 414.003023 
L 165.591343 414.675511 
L 164.782698 415.331177 
L 164.003001 416.002992 
L 163.241077 416.661458 
L 162.505047 417.303437 
L 161.78584 417.925153 
L 161.083814 418.527261 
L 160.400575 419.134325 
L 159.744092 419.724676 
L 159.086637 420.308891 
L 158.452522 420.892133 
L 157.84287 421.455893 
L 157.240699 422.020381 
L 156.645438 422.55567 
L 156.067357 423.112929 
L 155.504045 423.633844 
L 154.941348 424.17668 
L 154.395695 424.701544 
L 153.86289 425.221686 
L 153.339132 425.725292 
L 152.827289 426.24092 
L 152.327588 426.740907 
L 151.83534 427.251339 
L 151.338539 427.770067 
L 150.863491 428.265366 
" style="fill:none;stroke:#bcbd22;stroke-linecap:square;stroke-width:1.5;"/>
   </g>
   <g id="line2d_23">
    <path clip-path="url(#pcd460dfc46)" d="M 972 60.48 
L 929.915325 76.170035 
L 890.666424 90.645782 
L 853.979729 104.047327 
L 819.461435 116.609295 
L 786.960886 128.463558 
L 756.492331 139.726272 
L 727.824014 150.101219 
L 700.772173 160.15079 
L 675.382906 169.571082 
L 651.319329 178.36071 
L 628.706989 186.79928 
L 607.309523 194.809955 
L 587.091277 202.315606 
L 568.022273 209.618646 
L 549.854505 216.462322 
L 532.700381 223.045939 
L 516.348365 229.329005 
L 500.962641 235.318811 
L 486.338863 240.987626 
L 472.452649 246.500047 
L 459.268996 251.724738 
L 446.710924 256.703605 
L 434.742466 261.532545 
L 423.384729 266.13613 
L 412.667059 270.535331 
L 402.444531 274.809658 
L 392.680488 278.887743 
L 383.440978 282.839189 
L 374.625897 286.634002 
L 366.210736 290.236219 
L 358.203529 293.785571 
L 350.505842 297.21349 
L 343.2182 300.534195 
L 336.248889 303.688622 
L 329.623145 306.716391 
L 323.326706 309.655088 
L 317.232224 312.480686 
L 311.446073 315.224594 
L 305.921251 317.911004 
L 300.589234 320.494612 
L 295.484583 322.995041 
L 290.607783 325.44313 
L 285.943065 327.791295 
L 281.464098 330.077623 
L 277.144311 332.344236 
L 273.042693 334.542635 
L 269.037504 336.639571 
L 265.199172 338.743511 
L 261.523586 340.761429 
L 257.933959 342.71803 
L 254.490495 344.632879 
L 251.192093 346.508637 
L 247.982584 348.310557 
L 244.885904 350.104377 
L 241.935752 351.851387 
L 239.057208 353.558965 
L 236.255774 355.214104 
L 233.524558 356.838904 
L 230.903252 358.431357 
L 228.342219 360.008198 
L 225.87975 361.529941 
L 223.47592 363.024359 
L 221.177625 364.444126 
L 218.948446 365.864959 
L 216.751915 367.256634 
L 214.646747 368.637694 
L 212.601333 369.980587 
L 210.605918 371.297406 
L 208.676657 372.564999 
L 206.813539 373.856496 
L 205.001808 375.146936 
L 203.267964 376.423067 
L 201.535822 377.671363 
L 199.836185 378.8827 
L 198.209042 380.087833 
L 196.621685 381.267287 
L 195.085894 382.424366 
L 193.587683 383.609983 
L 192.120938 384.777487 
L 190.70011 385.932915 
L 189.315331 387.049886 
L 187.962928 388.138006 
L 186.643225 389.240171 
L 185.366235 390.308092 
L 184.085524 391.376092 
L 182.852285 392.455565 
L 181.656952 393.503083 
L 180.471347 394.559457 
L 179.304949 395.567381 
L 178.161461 396.617379 
L 177.055505 397.61677 
L 175.941943 398.649366 
L 174.856904 399.657682 
L 173.790905 400.65644 
L 172.741279 401.625887 
L 171.717912 402.626854 
L 170.711735 403.601322 
L 169.72113 404.600369 
L 168.719291 405.613745 
L 167.755007 406.58934 
" style="fill:none;stroke:#17becf;stroke-linecap:square;stroke-width:1.5;"/>
   </g>
   <g id="patch_3">
    <path d="M 135 448.56 
L 135 60.48 
" style="fill:none;stroke:#000000;stroke-linecap:square;stroke-linejoin:miter;stroke-width:0.8;"/>
   </g>
   <g id="patch_4">
    <path d="M 972 448.56 
L 972 60.48 
" style="fill:none;stroke:#000000;stroke-linecap:square;stroke-linejoin:miter;stroke-width:0.8;"/>
   </g>
   <g id="patch_5">
    <path d="M 135 448.56 
L 972 448.56 
" style="fill:none;stroke:#000000;stroke-linecap:square;stroke-linejoin:miter;stroke-width:0.8;"/>
   </g>
   <g id="patch_6">
    <path d="M 135 60.48 
L 972 60.48 
" style="fill:none;stroke:#000000;stroke-linecap:square;stroke-linejoin:miter;stroke-width:0.8;"/>
   </g>
   <g id="legend_1">
    <g id="patch_7">
     <path d="M 850.269375 439.56 
L 959.4 439.56 
Q 963 439.56 963 435.96 
L 963 173.55375 
Q 963 169.95375 959.4 169.95375 
L 850.269375 169.95375 
Q 846.669375 169.95375 846.669375 173.55375 
L 846.669375 435.96 
Q 846.669375 439.56 850.269375 439.56 
z
" style="fill:#ffffff;opacity:0.8;stroke:#cccccc;stroke-linejoin:miter;"/>
    </g>
    <g id="line2d_24">
     <path d="M 853.869375 184.530938 
L 889.869375 184.530938 
" style="fill:none;stroke:#1f77b4;stroke-linecap:square;stroke-width:1.5;"/>
    </g>
    <g id="line2d_25"/>
    <g id="text_15">
     <!-- 0.001 -->
     <g transform="translate(904.269375 190.830938)scale(0.18 -0.18)">
      <use xlink:href="#DejaVuSans-30"/>
      <use x="63.623047" xlink:href="#DejaVuSans-2e"/>
      <use x="95.410156" xlink:href="#DejaVuSans-30"/>
      <use x="159.033203" xlink:href="#DejaVuSans-30"/>
      <use x="222.65625" xlink:href="#DejaVuSans-31"/>
     </g>
    </g>
    <g id="line2d_26">
     <path d="M 853.869375 210.951563 
L 889.869375 210.951563 
" style="fill:none;stroke:#ff7f0e;stroke-linecap:square;stroke-width:1.5;"/>
    </g>
    <g id="line2d_27"/>
    <g id="text_16">
     <!-- 0.011 -->
     <g transform="translate(904.269375 217.251563)scale(0.18 -0.18)">
      <use xlink:href="#DejaVuSans-30"/>
      <use x="63.623047" xlink:href="#DejaVuSans-2e"/>
      <use x="95.410156" xlink:href="#DejaVuSans-30"/>
      <use x="159.033203" xlink:href="#DejaVuSans-31"/>
      <use x="222.65625" xlink:href="#DejaVuSans-31"/>
     </g>
    </g>
    <g id="line2d_28">
     <path d="M 853.869375 237.372188 
L 889.869375 237.372188 
" style="fill:none;stroke:#2ca02c;stroke-linecap:square;stroke-width:1.5;"/>
    </g>
    <g id="line2d_29"/>
    <g id="text_17">
     <!-- 0.021 -->
     <g transform="translate(904.269375 243.672188)scale(0.18 -0.18)">
      <use xlink:href="#DejaVuSans-30"/>
      <use x="63.623047" xlink:href="#DejaVuSans-2e"/>
      <use x="95.410156" xlink:href="#DejaVuSans-30"/>
      <use x="159.033203" xlink:href="#DejaVuSans-32"/>
      <use x="222.65625" xlink:href="#DejaVuSans-31"/>
     </g>
    </g>
    <g id="line2d_30">
     <path d="M 853.869375 263.792813 
L 889.869375 263.792813 
" style="fill:none;stroke:#d62728;stroke-linecap:square;stroke-width:1.5;"/>
    </g>
    <g id="line2d_31"/>
    <g id="text_18">
     <!-- 0.031 -->
     <g transform="translate(904.269375 270.092813)scale(0.18 -0.18)">
      <defs>
       <path d="M 2597 2516 
Q 3050 2419 3304 2112 
Q 3559 1806 3559 1356 
Q 3559 666 3084 287 
Q 2609 -91 1734 -91 
Q 1441 -91 1130 -33 
Q 819 25 488 141 
L 488 750 
Q 750 597 1062 519 
Q 1375 441 1716 441 
Q 2309 441 2620 675 
Q 2931 909 2931 1356 
Q 2931 1769 2642 2001 
Q 2353 2234 1838 2234 
L 1294 2234 
L 1294 2753 
L 1863 2753 
Q 2328 2753 2575 2939 
Q 2822 3125 2822 3475 
Q 2822 3834 2567 4026 
Q 2313 4219 1838 4219 
Q 1578 4219 1281 4162 
Q 984 4106 628 3988 
L 628 4550 
Q 988 4650 1302 4700 
Q 1616 4750 1894 4750 
Q 2613 4750 3031 4423 
Q 3450 4097 3450 3541 
Q 3450 3153 3228 2886 
Q 3006 2619 2597 2516 
z
" id="DejaVuSans-33" transform="scale(0.015625)"/>
      </defs>
      <use xlink:href="#DejaVuSans-30"/>
      <use x="63.623047" xlink:href="#DejaVuSans-2e"/>
      <use x="95.410156" xlink:href="#DejaVuSans-30"/>
      <use x="159.033203" xlink:href="#DejaVuSans-33"/>
      <use x="222.65625" xlink:href="#DejaVuSans-31"/>
     </g>
    </g>
    <g id="line2d_32">
     <path d="M 853.869375 290.213438 
L 889.869375 290.213438 
" style="fill:none;stroke:#9467bd;stroke-linecap:square;stroke-width:1.5;"/>
    </g>
    <g id="line2d_33"/>
    <g id="text_19">
     <!-- 0.041 -->
     <g transform="translate(904.269375 296.513438)scale(0.18 -0.18)">
      <use xlink:href="#DejaVuSans-30"/>
      <use x="63.623047" xlink:href="#DejaVuSans-2e"/>
      <use x="95.410156" xlink:href="#DejaVuSans-30"/>
      <use x="159.033203" xlink:href="#DejaVuSans-34"/>
      <use x="222.65625" xlink:href="#DejaVuSans-31"/>
     </g>
    </g>
    <g id="line2d_34">
     <path d="M 853.869375 316.634063 
L 889.869375 316.634063 
" style="fill:none;stroke:#8c564b;stroke-linecap:square;stroke-width:1.5;"/>
    </g>
    <g id="line2d_35"/>
    <g id="text_20">
     <!-- 0.051 -->
     <g transform="translate(904.269375 322.934063)scale(0.18 -0.18)">
      <defs>
       <path d="M 691 4666 
L 3169 4666 
L 3169 4134 
L 1269 4134 
L 1269 2991 
Q 1406 3038 1543 3061 
Q 1681 3084 1819 3084 
Q 2600 3084 3056 2656 
Q 3513 2228 3513 1497 
Q 3513 744 3044 326 
Q 2575 -91 1722 -91 
Q 1428 -91 1123 -41 
Q 819 9 494 109 
L 494 744 
Q 775 591 1075 516 
Q 1375 441 1709 441 
Q 2250 441 2565 725 
Q 2881 1009 2881 1497 
Q 2881 1984 2565 2268 
Q 2250 2553 1709 2553 
Q 1456 2553 1204 2497 
Q 953 2441 691 2322 
L 691 4666 
z
" id="DejaVuSans-35" transform="scale(0.015625)"/>
      </defs>
      <use xlink:href="#DejaVuSans-30"/>
      <use x="63.623047" xlink:href="#DejaVuSans-2e"/>
      <use x="95.410156" xlink:href="#DejaVuSans-30"/>
      <use x="159.033203" xlink:href="#DejaVuSans-35"/>
      <use x="222.65625" xlink:href="#DejaVuSans-31"/>
     </g>
    </g>
    <g id="line2d_36">
     <path d="M 853.869375 343.054688 
L 889.869375 343.054688 
" style="fill:none;stroke:#e377c2;stroke-linecap:square;stroke-width:1.5;"/>
    </g>
    <g id="line2d_37"/>
    <g id="text_21">
     <!-- 0.061 -->
     <g transform="translate(904.269375 349.354688)scale(0.18 -0.18)">
      <use xlink:href="#DejaVuSans-30"/>
      <use x="63.623047" xlink:href="#DejaVuSans-2e"/>
      <use x="95.410156" xlink:href="#DejaVuSans-30"/>
      <use x="159.033203" xlink:href="#DejaVuSans-36"/>
      <use x="222.65625" xlink:href="#DejaVuSans-31"/>
     </g>
    </g>
    <g id="line2d_38">
     <path d="M 853.869375 369.475313 
L 889.869375 369.475313 
" style="fill:none;stroke:#7f7f7f;stroke-linecap:square;stroke-width:1.5;"/>
    </g>
    <g id="line2d_39"/>
    <g id="text_22">
     <!-- 0.071 -->
     <g transform="translate(904.269375 375.775313)scale(0.18 -0.18)">
      <defs>
       <path d="M 525 4666 
L 3525 4666 
L 3525 4397 
L 1831 0 
L 1172 0 
L 2766 4134 
L 525 4134 
L 525 4666 
z
" id="DejaVuSans-37" transform="scale(0.015625)"/>
      </defs>
      <use xlink:href="#DejaVuSans-30"/>
      <use x="63.623047" xlink:href="#DejaVuSans-2e"/>
      <use x="95.410156" xlink:href="#DejaVuSans-30"/>
      <use x="159.033203" xlink:href="#DejaVuSans-37"/>
      <use x="222.65625" xlink:href="#DejaVuSans-31"/>
     </g>
    </g>
    <g id="line2d_40">
     <path d="M 853.869375 395.895938 
L 889.869375 395.895938 
" style="fill:none;stroke:#bcbd22;stroke-linecap:square;stroke-width:1.5;"/>
    </g>
    <g id="line2d_41"/>
    <g id="text_23">
     <!-- 0.081 -->
     <g transform="translate(904.269375 402.195938)scale(0.18 -0.18)">
      <use xlink:href="#DejaVuSans-30"/>
      <use x="63.623047" xlink:href="#DejaVuSans-2e"/>
      <use x="95.410156" xlink:href="#DejaVuSans-30"/>
      <use x="159.033203" xlink:href="#DejaVuSans-38"/>
      <use x="222.65625" xlink:href="#DejaVuSans-31"/>
     </g>
    </g>
    <g id="line2d_42">
     <path d="M 853.869375 422.316563 
L 889.869375 422.316563 
" style="fill:none;stroke:#17becf;stroke-linecap:square;stroke-width:1.5;"/>
    </g>
    <g id="line2d_43"/>
    <g id="text_24">
     <!-- 0.091 -->
     <g transform="translate(904.269375 428.616563)scale(0.18 -0.18)">
      <defs>
       <path d="M 703 97 
L 703 672 
Q 941 559 1184 500 
Q 1428 441 1663 441 
Q 2288 441 2617 861 
Q 2947 1281 2994 2138 
Q 2813 1869 2534 1725 
Q 2256 1581 1919 1581 
Q 1219 1581 811 2004 
Q 403 2428 403 3163 
Q 403 3881 828 4315 
Q 1253 4750 1959 4750 
Q 2769 4750 3195 4129 
Q 3622 3509 3622 2328 
Q 3622 1225 3098 567 
Q 2575 -91 1691 -91 
Q 1453 -91 1209 -44 
Q 966 3 703 97 
z
M 1959 2075 
Q 2384 2075 2632 2365 
Q 2881 2656 2881 3163 
Q 2881 3666 2632 3958 
Q 2384 4250 1959 4250 
Q 1534 4250 1286 3958 
Q 1038 3666 1038 3163 
Q 1038 2656 1286 2365 
Q 1534 2075 1959 2075 
z
" id="DejaVuSans-39" transform="scale(0.015625)"/>
      </defs>
      <use xlink:href="#DejaVuSans-30"/>
      <use x="63.623047" xlink:href="#DejaVuSans-2e"/>
      <use x="95.410156" xlink:href="#DejaVuSans-30"/>
      <use x="159.033203" xlink:href="#DejaVuSans-39"/>
      <use x="222.65625" xlink:href="#DejaVuSans-31"/>
     </g>
    </g>
   </g>
  </g>
 </g>
 <defs>
  <clipPath id="pcd460dfc46">
   <rect height="388.08" width="837" x="135" y="60.48"/>
  </clipPath>
 </defs>
</svg>
