<?xml version="1.0" encoding="utf-8" standalone="no"?>
<!DOCTYPE svg PUBLIC "-//W3C//DTD SVG 1.1//EN"
  "http://www.w3.org/Graphics/SVG/1.1/DTD/svg11.dtd">
<svg height="504pt" version="1.1" viewBox="0 0 1080 504" width="1080pt" xmlns="http://www.w3.org/2000/svg" xmlns:xlink="http://www.w3.org/1999/xlink">
 <metadata>
  <rdf:RDF xmlns:cc="http://creativecommons.org/ns#" xmlns:dc="http://purl.org/dc/elements/1.1/" xmlns:rdf="http://www.w3.org/1999/02/22-rdf-syntax-ns#">
   <cc:Work>
    <dc:type rdf:resource="http://purl.org/dc/dcmitype/StillImage"/>
    <dc:date>2022-01-07T13:22:37.860959</dc:date>
    <dc:format>image/svg+xml</dc:format>
    <dc:creator>
     <cc:Agent>
      <dc:title>Matplotlib v3.4.3, https://matplotlib.org/</dc:title>
     </cc:Agent>
    </dc:creator>
   </cc:Work>
  </rdf:RDF>
 </metadata>
 <defs>
  <style type="text/css">*{stroke-linecap:butt;stroke-linejoin:round;}</style>
 </defs>
 <g id="figure_1">
  <g id="patch_1">
   <path d="M 0 504 
L 1080 504 
L 1080 0 
L 0 0 
z
" style="fill:#ffffff;"/>
  </g>
  <g id="axes_1">
   <g id="patch_2">
    <path d="M 135 448.56 
L 972 448.56 
L 972 60.48 
L 135 60.48 
z
" style="fill:#ffffff;"/>
   </g>
   <g id="matplotlib.axis_1">
    <g id="xtick_1">
     <g id="line2d_1">
      <defs>
       <path d="M 0 0 
L 0 3.5 
" id="m58b20c2ea4" style="stroke:#000000;stroke-width:0.8;"/>
      </defs>
      <g>
       <use style="stroke:#000000;stroke-width:0.8;" x="135" xlink:href="#m58b20c2ea4" y="448.56"/>
      </g>
     </g>
     <g id="text_1">
      <!-- 0.0 -->
      <g transform="translate(120.687187 469.237188)scale(0.18 -0.18)">
       <defs>
        <path d="M 2034 4250 
Q 1547 4250 1301 3770 
Q 1056 3291 1056 2328 
Q 1056 1369 1301 889 
Q 1547 409 2034 409 
Q 2525 409 2770 889 
Q 3016 1369 3016 2328 
Q 3016 3291 2770 3770 
Q 2525 4250 2034 4250 
z
M 2034 4750 
Q 2819 4750 3233 4129 
Q 3647 3509 3647 2328 
Q 3647 1150 3233 529 
Q 2819 -91 2034 -91 
Q 1250 -91 836 529 
Q 422 1150 422 2328 
Q 422 3509 836 4129 
Q 1250 4750 2034 4750 
z
" id="DejaVuSans-30" transform="scale(0.015625)"/>
        <path d="M 684 794 
L 1344 794 
L 1344 0 
L 684 0 
L 684 794 
z
" id="DejaVuSans-2e" transform="scale(0.015625)"/>
       </defs>
       <use xlink:href="#DejaVuSans-30"/>
       <use x="63.623047" xlink:href="#DejaVuSans-2e"/>
       <use x="95.410156" xlink:href="#DejaVuSans-30"/>
      </g>
     </g>
    </g>
    <g id="xtick_2">
     <g id="line2d_2">
      <g>
       <use style="stroke:#000000;stroke-width:0.8;" x="302.4" xlink:href="#m58b20c2ea4" y="448.56"/>
      </g>
     </g>
     <g id="text_2">
      <!-- 0.2 -->
      <g transform="translate(288.087187 469.237188)scale(0.18 -0.18)">
       <defs>
        <path d="M 1228 531 
L 3431 531 
L 3431 0 
L 469 0 
L 469 531 
Q 828 903 1448 1529 
Q 2069 2156 2228 2338 
Q 2531 2678 2651 2914 
Q 2772 3150 2772 3378 
Q 2772 3750 2511 3984 
Q 2250 4219 1831 4219 
Q 1534 4219 1204 4116 
Q 875 4013 500 3803 
L 500 4441 
Q 881 4594 1212 4672 
Q 1544 4750 1819 4750 
Q 2544 4750 2975 4387 
Q 3406 4025 3406 3419 
Q 3406 3131 3298 2873 
Q 3191 2616 2906 2266 
Q 2828 2175 2409 1742 
Q 1991 1309 1228 531 
z
" id="DejaVuSans-32" transform="scale(0.015625)"/>
       </defs>
       <use xlink:href="#DejaVuSans-30"/>
       <use x="63.623047" xlink:href="#DejaVuSans-2e"/>
       <use x="95.410156" xlink:href="#DejaVuSans-32"/>
      </g>
     </g>
    </g>
    <g id="xtick_3">
     <g id="line2d_3">
      <g>
       <use style="stroke:#000000;stroke-width:0.8;" x="469.8" xlink:href="#m58b20c2ea4" y="448.56"/>
      </g>
     </g>
     <g id="text_3">
      <!-- 0.4 -->
      <g transform="translate(455.487188 469.237188)scale(0.18 -0.18)">
       <defs>
        <path d="M 2419 4116 
L 825 1625 
L 2419 1625 
L 2419 4116 
z
M 2253 4666 
L 3047 4666 
L 3047 1625 
L 3713 1625 
L 3713 1100 
L 3047 1100 
L 3047 0 
L 2419 0 
L 2419 1100 
L 313 1100 
L 313 1709 
L 2253 4666 
z
" id="DejaVuSans-34" transform="scale(0.015625)"/>
       </defs>
       <use xlink:href="#DejaVuSans-30"/>
       <use x="63.623047" xlink:href="#DejaVuSans-2e"/>
       <use x="95.410156" xlink:href="#DejaVuSans-34"/>
      </g>
     </g>
    </g>
    <g id="xtick_4">
     <g id="line2d_4">
      <g>
       <use style="stroke:#000000;stroke-width:0.8;" x="637.2" xlink:href="#m58b20c2ea4" y="448.56"/>
      </g>
     </g>
     <g id="text_4">
      <!-- 0.6 -->
      <g transform="translate(622.887188 469.237188)scale(0.18 -0.18)">
       <defs>
        <path d="M 2113 2584 
Q 1688 2584 1439 2293 
Q 1191 2003 1191 1497 
Q 1191 994 1439 701 
Q 1688 409 2113 409 
Q 2538 409 2786 701 
Q 3034 994 3034 1497 
Q 3034 2003 2786 2293 
Q 2538 2584 2113 2584 
z
M 3366 4563 
L 3366 3988 
Q 3128 4100 2886 4159 
Q 2644 4219 2406 4219 
Q 1781 4219 1451 3797 
Q 1122 3375 1075 2522 
Q 1259 2794 1537 2939 
Q 1816 3084 2150 3084 
Q 2853 3084 3261 2657 
Q 3669 2231 3669 1497 
Q 3669 778 3244 343 
Q 2819 -91 2113 -91 
Q 1303 -91 875 529 
Q 447 1150 447 2328 
Q 447 3434 972 4092 
Q 1497 4750 2381 4750 
Q 2619 4750 2861 4703 
Q 3103 4656 3366 4563 
z
" id="DejaVuSans-36" transform="scale(0.015625)"/>
       </defs>
       <use xlink:href="#DejaVuSans-30"/>
       <use x="63.623047" xlink:href="#DejaVuSans-2e"/>
       <use x="95.410156" xlink:href="#DejaVuSans-36"/>
      </g>
     </g>
    </g>
    <g id="xtick_5">
     <g id="line2d_5">
      <g>
       <use style="stroke:#000000;stroke-width:0.8;" x="804.6" xlink:href="#m58b20c2ea4" y="448.56"/>
      </g>
     </g>
     <g id="text_5">
      <!-- 0.8 -->
      <g transform="translate(790.287188 469.237188)scale(0.18 -0.18)">
       <defs>
        <path d="M 2034 2216 
Q 1584 2216 1326 1975 
Q 1069 1734 1069 1313 
Q 1069 891 1326 650 
Q 1584 409 2034 409 
Q 2484 409 2743 651 
Q 3003 894 3003 1313 
Q 3003 1734 2745 1975 
Q 2488 2216 2034 2216 
z
M 1403 2484 
Q 997 2584 770 2862 
Q 544 3141 544 3541 
Q 544 4100 942 4425 
Q 1341 4750 2034 4750 
Q 2731 4750 3128 4425 
Q 3525 4100 3525 3541 
Q 3525 3141 3298 2862 
Q 3072 2584 2669 2484 
Q 3125 2378 3379 2068 
Q 3634 1759 3634 1313 
Q 3634 634 3220 271 
Q 2806 -91 2034 -91 
Q 1263 -91 848 271 
Q 434 634 434 1313 
Q 434 1759 690 2068 
Q 947 2378 1403 2484 
z
M 1172 3481 
Q 1172 3119 1398 2916 
Q 1625 2713 2034 2713 
Q 2441 2713 2670 2916 
Q 2900 3119 2900 3481 
Q 2900 3844 2670 4047 
Q 2441 4250 2034 4250 
Q 1625 4250 1398 4047 
Q 1172 3844 1172 3481 
z
" id="DejaVuSans-38" transform="scale(0.015625)"/>
       </defs>
       <use xlink:href="#DejaVuSans-30"/>
       <use x="63.623047" xlink:href="#DejaVuSans-2e"/>
       <use x="95.410156" xlink:href="#DejaVuSans-38"/>
      </g>
     </g>
    </g>
    <g id="xtick_6">
     <g id="line2d_6">
      <g>
       <use style="stroke:#000000;stroke-width:0.8;" x="972" xlink:href="#m58b20c2ea4" y="448.56"/>
      </g>
     </g>
     <g id="text_6">
      <!-- 1.0 -->
      <g transform="translate(957.687188 469.237188)scale(0.18 -0.18)">
       <defs>
        <path d="M 794 531 
L 1825 531 
L 1825 4091 
L 703 3866 
L 703 4441 
L 1819 4666 
L 2450 4666 
L 2450 531 
L 3481 531 
L 3481 0 
L 794 0 
L 794 531 
z
" id="DejaVuSans-31" transform="scale(0.015625)"/>
       </defs>
       <use xlink:href="#DejaVuSans-31"/>
       <use x="63.623047" xlink:href="#DejaVuSans-2e"/>
       <use x="95.410156" xlink:href="#DejaVuSans-30"/>
      </g>
     </g>
    </g>
    <g id="text_7">
     <!-- $FPR_{Fair}$ -->
     <g transform="translate(518.08 493.697187)scale(0.22 -0.22)">
      <defs>
       <path d="M 1081 4666 
L 3756 4666 
L 3653 4134 
L 1606 4134 
L 1338 2759 
L 3188 2759 
L 3084 2228 
L 1234 2228 
L 800 0 
L 172 0 
L 1081 4666 
z
" id="DejaVuSans-Oblique-46" transform="scale(0.015625)"/>
       <path d="M 1081 4666 
L 2541 4666 
Q 3178 4666 3512 4369 
Q 3847 4072 3847 3500 
Q 3847 2731 3353 2303 
Q 2859 1875 1966 1875 
L 1172 1875 
L 806 0 
L 172 0 
L 1081 4666 
z
M 1613 4147 
L 1275 2394 
L 2069 2394 
Q 2606 2394 2893 2669 
Q 3181 2944 3181 3456 
Q 3181 3784 2986 3965 
Q 2791 4147 2438 4147 
L 1613 4147 
z
" id="DejaVuSans-Oblique-50" transform="scale(0.015625)"/>
       <path d="M 1613 4147 
L 1294 2491 
L 2106 2491 
Q 2584 2491 2879 2755 
Q 3175 3019 3175 3444 
Q 3175 3784 2976 3965 
Q 2778 4147 2406 4147 
L 1613 4147 
z
M 2772 2241 
Q 2972 2194 3105 2009 
Q 3238 1825 3413 1275 
L 3809 0 
L 3144 0 
L 2778 1197 
Q 2638 1659 2453 1815 
Q 2269 1972 1888 1972 
L 1191 1972 
L 806 0 
L 172 0 
L 1081 4666 
L 2503 4666 
Q 3150 4666 3495 4373 
Q 3841 4081 3841 3531 
Q 3841 3044 3547 2687 
Q 3253 2331 2772 2241 
z
" id="DejaVuSans-Oblique-52" transform="scale(0.015625)"/>
       <path d="M 3438 1997 
L 3047 0 
L 2472 0 
L 2578 531 
Q 2325 219 2001 64 
Q 1678 -91 1281 -91 
Q 834 -91 548 182 
Q 263 456 263 884 
Q 263 1497 752 1853 
Q 1241 2209 2100 2209 
L 2900 2209 
L 2931 2363 
Q 2938 2388 2941 2417 
Q 2944 2447 2944 2509 
Q 2944 2788 2717 2942 
Q 2491 3097 2081 3097 
Q 1800 3097 1504 3025 
Q 1209 2953 897 2809 
L 997 3341 
Q 1322 3463 1633 3523 
Q 1944 3584 2234 3584 
Q 2853 3584 3176 3315 
Q 3500 3047 3500 2534 
Q 3500 2431 3484 2292 
Q 3469 2153 3438 1997 
z
M 2816 1759 
L 2241 1759 
Q 1534 1759 1195 1570 
Q 856 1381 856 984 
Q 856 709 1029 553 
Q 1203 397 1509 397 
Q 1978 397 2328 733 
Q 2678 1069 2791 1631 
L 2816 1759 
z
" id="DejaVuSans-Oblique-61" transform="scale(0.015625)"/>
       <path d="M 1172 4863 
L 1747 4863 
L 1606 4134 
L 1031 4134 
L 1172 4863 
z
M 909 3500 
L 1484 3500 
L 800 0 
L 225 0 
L 909 3500 
z
" id="DejaVuSans-Oblique-69" transform="scale(0.015625)"/>
       <path d="M 2853 2969 
Q 2766 3016 2653 3041 
Q 2541 3066 2413 3066 
Q 1953 3066 1609 2717 
Q 1266 2369 1153 1784 
L 800 0 
L 225 0 
L 909 3500 
L 1484 3500 
L 1375 2956 
Q 1603 3259 1920 3421 
Q 2238 3584 2597 3584 
Q 2691 3584 2781 3573 
Q 2872 3563 2963 3538 
L 2853 2969 
z
" id="DejaVuSans-Oblique-72" transform="scale(0.015625)"/>
      </defs>
      <use transform="translate(0 0.09375)" xlink:href="#DejaVuSans-Oblique-46"/>
      <use transform="translate(57.519531 0.09375)" xlink:href="#DejaVuSans-Oblique-50"/>
      <use transform="translate(117.822266 0.09375)" xlink:href="#DejaVuSans-Oblique-52"/>
      <use transform="translate(187.304688 -16.3125)scale(0.7)" xlink:href="#DejaVuSans-Oblique-46"/>
      <use transform="translate(227.568359 -16.3125)scale(0.7)" xlink:href="#DejaVuSans-Oblique-61"/>
      <use transform="translate(270.463867 -16.3125)scale(0.7)" xlink:href="#DejaVuSans-Oblique-69"/>
      <use transform="translate(289.912109 -16.3125)scale(0.7)" xlink:href="#DejaVuSans-Oblique-72"/>
     </g>
    </g>
   </g>
   <g id="matplotlib.axis_2">
    <g id="ytick_1">
     <g id="line2d_7">
      <defs>
       <path d="M 0 0 
L -3.5 0 
" id="m37e17bf10b" style="stroke:#000000;stroke-width:0.8;"/>
      </defs>
      <g>
       <use style="stroke:#000000;stroke-width:0.8;" x="135" xlink:href="#m37e17bf10b" y="448.56"/>
      </g>
     </g>
     <g id="text_8">
      <!-- 0.0 -->
      <g transform="translate(99.374375 455.398594)scale(0.18 -0.18)">
       <use xlink:href="#DejaVuSans-30"/>
       <use x="63.623047" xlink:href="#DejaVuSans-2e"/>
       <use x="95.410156" xlink:href="#DejaVuSans-30"/>
      </g>
     </g>
    </g>
    <g id="ytick_2">
     <g id="line2d_8">
      <g>
       <use style="stroke:#000000;stroke-width:0.8;" x="135" xlink:href="#m37e17bf10b" y="370.944"/>
      </g>
     </g>
     <g id="text_9">
      <!-- 0.2 -->
      <g transform="translate(99.374375 377.782594)scale(0.18 -0.18)">
       <use xlink:href="#DejaVuSans-30"/>
       <use x="63.623047" xlink:href="#DejaVuSans-2e"/>
       <use x="95.410156" xlink:href="#DejaVuSans-32"/>
      </g>
     </g>
    </g>
    <g id="ytick_3">
     <g id="line2d_9">
      <g>
       <use style="stroke:#000000;stroke-width:0.8;" x="135" xlink:href="#m37e17bf10b" y="293.328"/>
      </g>
     </g>
     <g id="text_10">
      <!-- 0.4 -->
      <g transform="translate(99.374375 300.166594)scale(0.18 -0.18)">
       <use xlink:href="#DejaVuSans-30"/>
       <use x="63.623047" xlink:href="#DejaVuSans-2e"/>
       <use x="95.410156" xlink:href="#DejaVuSans-34"/>
      </g>
     </g>
    </g>
    <g id="ytick_4">
     <g id="line2d_10">
      <g>
       <use style="stroke:#000000;stroke-width:0.8;" x="135" xlink:href="#m37e17bf10b" y="215.712"/>
      </g>
     </g>
     <g id="text_11">
      <!-- 0.6 -->
      <g transform="translate(99.374375 222.550594)scale(0.18 -0.18)">
       <use xlink:href="#DejaVuSans-30"/>
       <use x="63.623047" xlink:href="#DejaVuSans-2e"/>
       <use x="95.410156" xlink:href="#DejaVuSans-36"/>
      </g>
     </g>
    </g>
    <g id="ytick_5">
     <g id="line2d_11">
      <g>
       <use style="stroke:#000000;stroke-width:0.8;" x="135" xlink:href="#m37e17bf10b" y="138.096"/>
      </g>
     </g>
     <g id="text_12">
      <!-- 0.8 -->
      <g transform="translate(99.374375 144.934594)scale(0.18 -0.18)">
       <use xlink:href="#DejaVuSans-30"/>
       <use x="63.623047" xlink:href="#DejaVuSans-2e"/>
       <use x="95.410156" xlink:href="#DejaVuSans-38"/>
      </g>
     </g>
    </g>
    <g id="ytick_6">
     <g id="line2d_12">
      <g>
       <use style="stroke:#000000;stroke-width:0.8;" x="135" xlink:href="#m37e17bf10b" y="60.48"/>
      </g>
     </g>
     <g id="text_13">
      <!-- 1.0 -->
      <g transform="translate(99.374375 67.318594)scale(0.18 -0.18)">
       <use xlink:href="#DejaVuSans-31"/>
       <use x="63.623047" xlink:href="#DejaVuSans-2e"/>
       <use x="95.410156" xlink:href="#DejaVuSans-30"/>
      </g>
     </g>
    </g>
    <g id="text_14">
     <!-- $TPR_{Fair}$ -->
     <g transform="translate(90.799062 290.27)rotate(-90)scale(0.22 -0.22)">
      <defs>
       <path d="M 378 4666 
L 4325 4666 
L 4225 4134 
L 2559 4134 
L 1759 0 
L 1125 0 
L 1925 4134 
L 275 4134 
L 378 4666 
z
" id="DejaVuSans-Oblique-54" transform="scale(0.015625)"/>
      </defs>
      <use transform="translate(0 0.09375)" xlink:href="#DejaVuSans-Oblique-54"/>
      <use transform="translate(61.083984 0.09375)" xlink:href="#DejaVuSans-Oblique-50"/>
      <use transform="translate(121.386719 0.09375)" xlink:href="#DejaVuSans-Oblique-52"/>
      <use transform="translate(190.869141 -16.3125)scale(0.7)" xlink:href="#DejaVuSans-Oblique-46"/>
      <use transform="translate(231.132812 -16.3125)scale(0.7)" xlink:href="#DejaVuSans-Oblique-61"/>
      <use transform="translate(274.02832 -16.3125)scale(0.7)" xlink:href="#DejaVuSans-Oblique-69"/>
      <use transform="translate(293.476562 -16.3125)scale(0.7)" xlink:href="#DejaVuSans-Oblique-72"/>
     </g>
    </g>
   </g>
   <g id="line2d_13">
    <path clip-path="url(#p68d835389f)" d="M 135 448.56 
L 972 60.48 
" style="fill:none;stroke:#ff0000;stroke-dasharray:5.55,2.4;stroke-dashoffset:0;stroke-width:1.5;"/>
   </g>
   <g id="line2d_14">
    <path clip-path="url(#p68d835389f)" d="M 972 60.48 
L 591.85162 252.997517 
L 449.776812 317.572729 
L 376.188004 349.328698 
L 330.974793 368.53534 
L 300.752391 381.12022 
L 279.1117 390.193279 
L 262.806239 397.026341 
L 250.062664 402.305267 
L 239.749954 406.47234 
L 231.163661 409.887365 
L 224.073479 412.615258 
L 217.985677 414.869076 
L 212.668094 416.776474 
L 208.03464 418.449229 
L 203.925838 419.916651 
L 200.307726 421.256874 
L 197.053967 422.4162 
L 194.011611 423.446583 
L 191.250587 424.376778 
L 188.793351 425.24661 
L 186.478912 426.026281 
L 184.387789 426.765335 
L 182.441352 427.453184 
L 180.598261 428.101799 
L 178.871621 428.711012 
L 177.279565 429.301686 
L 175.722596 429.835249 
L 174.294312 430.34434 
L 172.956739 430.840116 
L 171.697231 431.309727 
L 170.519967 431.737553 
L 169.407089 432.164204 
L 168.34076 432.543453 
L 167.31045 432.92862 
L 166.338113 433.31505 
L 165.394386 433.680463 
L 164.508878 434.037978 
L 163.670728 434.386569 
L 162.889085 434.703559 
L 162.121018 435.008218 
L 161.36794 435.32058 
L 160.668308 435.623958 
L 159.989096 435.921555 
L 159.352292 436.201931 
L 158.748837 436.47204 
L 158.160194 436.738239 
L 157.601205 436.99104 
L 157.039533 437.242749 
L 156.508203 437.476943 
L 156.000792 437.708967 
L 155.507895 437.932722 
L 155.045688 438.14836 
L 154.581381 438.357386 
L 154.141588 438.566247 
L 153.719245 438.764216 
L 153.293766 438.954904 
L 152.903488 439.144282 
L 152.528367 439.309673 
L 152.174319 439.4709 
L 151.822277 439.627609 
L 151.4758 439.774816 
L 151.138346 439.923965 
L 150.799763 440.074277 
L 150.495552 440.218866 
L 150.203683 440.357537 
L 149.907705 440.500821 
L 149.620275 440.633867 
L 149.344923 440.760998 
L 149.068421 440.88636 
L 148.809896 441.010061 
L 148.54286 441.1297 
L 148.300849 441.247852 
L 148.056743 441.362919 
L 147.822474 441.47659 
L 147.595276 441.59577 
L 147.371813 441.708268 
L 147.146717 441.822731 
L 146.935253 441.924145 
L 146.725363 442.041111 
L 146.52657 442.142258 
L 146.330798 442.245443 
L 146.124126 442.341706 
L 145.938131 442.447876 
L 145.752953 442.543955 
L 145.569158 442.633833 
L 145.381637 442.734573 
L 145.188222 442.82621 
L 145.00997 442.915455 
L 144.834822 443.007907 
L 144.6661 443.110582 
L 144.493961 443.207564 
L 144.324853 443.301453 
L 144.176373 443.393478 
L 144.021237 443.494577 
L 143.872114 443.590574 
L 143.730958 443.688117 
L 143.580054 443.780789 
L 143.448043 443.886532 
L 143.31143 443.981948 
L 143.164069 444.084353 
" style="fill:none;stroke:#1f77b4;stroke-linecap:square;stroke-width:1.5;"/>
   </g>
   <g id="line2d_15">
    <path clip-path="url(#p68d835389f)" d="M 972 60.48 
L 900.962427 99.311714 
L 841.105192 130.920414 
L 790.8955 157.002657 
L 747.880559 178.770393 
L 711.186598 197.176171 
L 679.285528 213.078006 
L 651.187681 226.863064 
L 626.549288 238.919973 
L 604.29776 249.459612 
L 584.152251 258.791091 
L 566.140143 266.852987 
L 549.629298 273.854397 
L 534.348173 280.110569 
L 520.165375 285.828357 
L 506.983784 291.007702 
L 494.728397 295.886291 
L 483.152359 300.330131 
L 472.211258 304.317289 
L 461.891802 308.049135 
L 452.161704 311.588439 
L 442.955036 314.931461 
L 434.180046 318.06895 
L 425.938689 321.09868 
L 417.883953 323.999014 
L 410.242185 326.764373 
L 402.913163 329.445953 
L 395.813429 331.93839 
L 389.01124 334.326327 
L 382.568356 336.721075 
L 376.3689 339.010284 
L 370.456645 341.126256 
L 364.799932 343.244233 
L 359.255247 345.238132 
L 353.997636 347.217359 
L 348.875413 349.168409 
L 343.890348 351.082174 
L 339.086475 352.979134 
L 334.493023 354.826872 
L 330.129678 356.562939 
L 325.810318 358.243003 
L 321.607018 359.938901 
L 317.589868 361.629485 
L 313.682072 363.284767 
L 309.90323 364.848907 
L 306.226253 366.359608 
L 302.664791 367.833923 
L 299.203966 369.253411 
L 295.854792 370.644457 
L 292.6039 372.00399 
L 289.480073 373.327501 
L 286.411161 374.612125 
L 283.482526 375.8609 
L 280.590658 377.077161 
L 277.785401 378.280626 
L 275.039541 379.464218 
L 272.362401 380.593463 
L 269.760632 381.692047 
L 267.20158 382.734993 
L 264.742693 383.712391 
L 262.356205 384.68071 
L 260.018452 385.619237 
L 257.728698 386.53127 
L 255.515375 387.461231 
L 253.339318 388.364336 
L 251.211944 389.240081 
L 249.175602 390.098378 
L 247.162587 390.938825 
L 245.168787 391.756001 
L 243.240913 392.572921 
L 241.324938 393.377192 
L 239.466461 394.155829 
L 237.629326 394.924349 
L 235.84803 395.679136 
L 234.121838 396.423562 
L 232.430323 397.145956 
L 230.774076 397.874621 
L 229.145384 398.595388 
L 227.569899 399.3086 
L 225.981912 400.030517 
L 224.446007 400.749546 
L 222.974283 401.440331 
L 221.496548 402.114437 
L 220.063993 402.784556 
L 218.650004 403.417383 
L 217.284381 404.030183 
L 215.919753 404.660169 
L 214.548451 405.271633 
L 213.240009 405.872398 
L 211.972338 406.484574 
L 210.704252 407.085058 
L 209.455005 407.687043 
L 208.25283 408.282054 
L 207.070665 408.853196 
L 205.878945 409.446385 
L 204.703981 410.046514 
L 203.543795 410.64571 
L 202.40887 411.272763 
L 201.299131 411.884477 
L 200.234595 412.499377 
L 199.152886 413.103172 
" style="fill:none;stroke:#ff7f0e;stroke-linecap:square;stroke-width:1.5;"/>
   </g>
   <g id="line2d_16">
    <path clip-path="url(#p68d835389f)" d="M 972 60.48 
L 942.732065 76.766115 
L 915.594914 91.739665 
L 890.780516 105.230387 
L 867.824906 117.665571 
L 846.768626 128.96656 
L 827.398851 139.434869 
L 809.477641 149.244919 
L 792.888698 158.212005 
L 777.251864 166.478844 
L 762.421941 174.1458 
L 748.637607 181.000502 
L 735.624302 187.190455 
L 723.148745 192.825441 
L 711.23068 198.122782 
L 699.794191 203.117191 
L 688.909503 207.898494 
L 678.39427 212.350811 
L 668.108986 216.438219 
L 658.202382 220.309455 
L 648.700472 224.059946 
L 639.429461 227.628987 
L 630.438492 231.079781 
L 621.849018 234.389553 
L 613.24769 237.628667 
L 604.863365 240.822119 
L 596.683941 243.959888 
L 588.641288 246.900377 
L 580.803321 249.741761 
L 573.221253 252.610387 
L 565.858514 255.382667 
L 558.717024 257.975101 
L 551.757247 260.618619 
L 544.852321 263.106385 
L 538.228638 265.644346 
L 531.594155 268.155069 
L 525.105179 270.665257 
L 518.748543 273.18427 
L 512.576472 275.634989 
L 506.643757 277.977719 
L 500.694862 280.271848 
L 494.873339 282.612343 
L 489.227238 284.943046 
L 483.643849 287.249648 
L 478.240709 289.492607 
L 472.903816 291.678733 
L 467.660467 293.829668 
L 462.54507 295.923346 
L 457.563394 297.96187 
L 452.634653 299.952572 
L 447.887198 301.89917 
L 443.163483 303.842888 
L 438.6145 305.730946 
L 434.080712 307.590553 
L 429.610332 309.434289 
L 425.236008 311.270241 
L 420.940565 313.033485 
L 416.707519 314.739381 
L 412.513689 316.369616 
L 408.450892 317.929034 
L 404.474048 319.468979 
L 400.551799 320.951712 
L 396.670212 322.43559 
L 392.843487 323.937659 
L 389.112779 325.415837 
L 385.460323 326.875976 
L 381.897485 328.297152 
L 378.352346 329.689271 
L 374.849492 331.068655 
L 371.437503 332.436386 
L 368.060921 333.774559 
L 364.732026 335.108817 
L 361.420299 336.422479 
L 358.161899 337.724148 
L 355.023674 338.966002 
L 351.912359 340.200938 
L 348.83862 341.443546 
L 345.830298 342.658086 
L 342.902371 343.866228 
L 339.965378 345.090626 
L 337.077787 346.305997 
L 334.285555 347.493781 
L 331.486609 348.647565 
L 328.772381 349.79242 
L 326.060788 350.892372 
L 323.414657 351.976287 
L 320.796507 353.091372 
L 318.189315 354.169819 
L 315.66849 355.232302 
L 313.176327 356.323026 
L 310.722972 357.38583 
L 308.270745 358.464049 
L 305.896795 359.544184 
L 303.549055 360.577926 
L 301.176405 361.655186 
L 298.846436 362.722173 
L 296.537497 363.788133 
L 294.250348 364.89007 
L 292.013202 365.972701 
L 289.81311 367.066948 
L 287.625289 368.156486 
" style="fill:none;stroke:#2ca02c;stroke-linecap:square;stroke-width:1.5;"/>
   </g>
   <g id="line2d_17">
    <path clip-path="url(#p68d835389f)" d="M 972 60.48 
L 967.069079 63.093581 
L 962.222668 65.692774 
L 957.785095 68.3212 
L 953.661773 70.935059 
L 949.947916 73.543708 
L 946.683486 76.176304 
L 943.758617 78.85561 
L 941.029996 81.412016 
L 938.614063 83.934335 
L 936.345105 86.258627 
L 934.297006 88.528591 
L 932.470158 90.553909 
L 930.787215 92.390049 
L 929.160146 94.188084 
L 927.674883 95.870481 
L 926.254059 97.588672 
L 924.82351 99.201671 
L 923.472725 100.742131 
L 922.187662 102.219312 
L 920.934409 103.687941 
L 919.793996 105.172261 
L 918.653469 106.549905 
L 917.56629 107.964027 
L 916.438454 109.314029 
L 915.25898 110.6413 
L 914.064066 112.034202 
L 912.765991 113.350489 
L 911.48335 114.623493 
L 910.221656 116.03668 
L 908.962455 117.420137 
L 907.78996 118.650937 
L 906.645329 120.004648 
L 905.482901 121.356352 
L 904.3858 122.649791 
L 903.233334 124.009632 
L 902.030785 125.402911 
L 900.876766 126.757033 
L 899.694617 128.119757 
L 898.576255 129.487631 
L 897.508647 130.836526 
L 896.415337 132.312837 
L 895.329401 133.863319 
L 894.209611 135.357208 
L 893.066831 136.884897 
L 891.888885 138.352087 
L 890.70641 139.824173 
L 889.516885 141.342469 
L 888.342965 142.784173 
L 887.241621 144.288047 
L 886.169087 145.8012 
L 885.050092 147.320664 
L 884.002241 148.819279 
L 882.900385 150.296377 
L 881.732031 151.838345 
L 880.583808 153.384937 
L 879.39798 154.88702 
L 878.171379 156.404006 
L 876.923788 157.833643 
L 875.687868 159.23754 
L 874.492292 160.595164 
L 873.336637 161.952944 
L 872.162988 163.349946 
L 871.015502 164.804498 
L 869.834849 166.273008 
L 868.668243 167.777776 
L 867.521627 169.293988 
L 866.327551 170.77423 
L 865.054819 172.26008 
L 863.808854 173.779156 
L 862.502901 175.300496 
L 861.203975 176.814649 
L 859.874716 178.368283 
L 858.534814 179.927614 
L 857.23888 181.505754 
L 855.884461 183.091736 
L 854.551854 184.673689 
L 853.26672 186.284568 
L 851.970464 187.884451 
L 850.670475 189.526522 
L 849.383019 191.194925 
L 848.073762 192.802188 
L 846.805481 194.413466 
L 845.579808 196.049495 
L 844.377682 197.707117 
L 843.172113 199.33201 
L 841.997542 200.97475 
L 840.818497 202.605226 
L 839.611121 204.243864 
L 838.446565 205.955758 
L 837.256938 207.615793 
L 836.052581 209.405153 
L 834.926945 211.174883 
L 833.742555 212.94026 
L 832.518786 214.769556 
L 831.307031 216.615411 
L 830.05523 218.474682 
L 828.77812 220.432972 
L 827.519207 222.37135 
L 826.223665 224.303087 
L 824.954257 226.311624 
" style="fill:none;stroke:#d62728;stroke-linecap:square;stroke-width:1.5;"/>
   </g>
   <g id="line2d_18">
    <path clip-path="url(#p68d835389f)" d="M 972 60.48 
L 957.952983 68.561748 
L 944.49203 76.295865 
L 931.735209 83.551379 
L 919.634757 90.495585 
L 908.237349 97.001084 
L 897.483004 103.21381 
L 887.312403 109.224616 
L 877.715005 114.876732 
L 868.44721 120.222553 
L 859.501096 125.329893 
L 851.002572 129.99792 
L 842.878736 134.289044 
L 834.936746 138.276251 
L 827.231132 142.071872 
L 819.678435 145.704579 
L 812.375736 149.242337 
L 805.236064 152.576463 
L 798.113678 155.702557 
L 791.153233 158.685372 
L 784.383595 161.601878 
L 777.657422 164.43243 
L 771.080958 167.191303 
L 764.698233 169.869517 
L 758.199797 172.50269 
L 751.766139 175.132564 
L 745.392968 177.738514 
L 739.052011 180.22005 
L 732.755065 182.635325 
L 726.615709 185.102857 
L 720.55032 187.511924 
L 714.611996 189.778897 
L 708.765993 192.115464 
L 702.899482 194.348759 
L 697.176956 196.635654 
L 691.37406 198.914908 
L 685.656323 201.218155 
L 679.965968 203.545585 
L 674.385409 205.824476 
L 668.960503 208.020524 
L 663.46657 210.188822 
L 658.03673 212.429994 
L 652.687077 214.68161 
L 647.367036 216.931014 
L 642.125627 219.131498 
L 636.916784 221.299762 
L 631.761802 223.459129 
L 626.676548 225.580446 
L 621.687859 227.662815 
L 616.678211 229.724522 
L 611.817937 231.750835 
L 606.952401 233.795307 
L 602.214284 235.780894 
L 597.458877 237.744714 
L 592.722111 239.707901 
L 588.040745 241.676158 
L 583.419102 243.571042 
L 578.81366 245.406384 
L 574.213545 247.185637 
L 569.691781 248.896858 
L 565.249539 250.583731 
L 560.835007 252.219074 
L 556.431768 253.861081 
L 552.04316 255.535858 
L 547.736602 257.18914 
L 543.493783 258.836625 
L 539.324061 260.464153 
L 535.106965 262.06488 
L 530.92478 263.679201 
L 526.811215 265.273962 
L 522.745374 266.83731 
L 518.681223 268.404941 
L 514.601947 269.959842 
L 510.587884 271.504587 
L 506.660137 272.996811 
L 502.729358 274.486655 
L 498.837833 275.998236 
L 495.001157 277.483048 
L 491.240975 278.951504 
L 487.445224 280.446784 
L 483.70684 281.930127 
L 480.02622 283.402529 
L 476.368074 284.823461 
L 472.788258 286.247851 
L 469.21962 287.62291 
L 465.6855 288.995241 
L 462.168916 290.394921 
L 458.674675 291.756925 
L 455.258145 293.096122 
L 451.836901 294.463714 
L 448.46686 295.806522 
L 445.084789 297.184875 
L 441.795993 298.556327 
L 438.510683 299.894398 
L 435.175026 301.28166 
L 431.901279 302.651475 
L 428.615229 304.029473 
L 425.368144 305.433591 
L 422.163358 306.829651 
L 418.976093 308.218458 
L 415.815126 309.610956 
" style="fill:none;stroke:#9467bd;stroke-linecap:square;stroke-width:1.5;"/>
   </g>
   <g id="line2d_19">
    <path clip-path="url(#p68d835389f)" d="M 972 60.48 
L 971.996361 60.481408 
L 971.994514 60.482826 
L 971.99173 60.482836 
L 971.98984 60.482846 
L 971.986075 60.482856 
L 971.982273 60.483581 
L 971.977025 60.485029 
L 971.972197 60.485764 
L 971.966371 60.487226 
L 971.955724 60.487969 
L 971.946412 60.488713 
L 971.94181 60.489461 
L 971.936192 60.489483 
L 971.932459 60.490237 
L 971.925766 60.491726 
L 971.921466 60.493957 
L 971.919084 60.493989 
L 971.915192 60.495494 
L 971.911759 60.497006 
L 971.907787 60.499265 
L 971.905284 60.499304 
L 971.902748 60.499344 
L 971.90122 60.499385 
L 971.89863 60.499427 
L 971.897051 60.499469 
L 971.893903 60.499513 
L 971.891758 60.500305 
L 971.887503 60.500348 
L 971.885303 60.500394 
L 971.883084 60.500438 
L 971.880834 60.500481 
L 971.878569 60.50053 
L 971.876264 60.501334 
L 971.873951 60.502144 
L 971.869413 60.502195 
L 971.866462 60.503012 
L 971.863485 60.503836 
L 971.861022 60.505436 
L 971.860221 60.505496 
L 971.857139 60.507883 
L 971.854587 60.50795 
L 971.85145 60.508797 
L 971.847127 60.50887 
L 971.843359 60.510506 
L 971.839525 60.510584 
L 971.836232 60.510658 
L 971.833483 60.512305 
L 971.831872 60.512384 
L 971.83023 60.512459 
L 971.828582 60.513328 
L 971.825711 60.514201 
L 971.822231 60.515076 
L 971.81626 60.515162 
L 971.813884 60.51525 
L 971.812079 60.516947 
L 971.807185 60.517036 
L 971.80472 60.517131 
L 971.802201 60.518031 
L 971.798416 60.518933 
L 971.795849 60.519844 
L 971.794532 60.519946 
L 971.790606 60.520047 
L 971.787263 60.521802 
L 971.781925 60.522743 
L 971.777191 60.523701 
L 971.775705 60.523835 
L 971.771531 60.52563 
L 971.767978 60.5266 
L 971.764414 60.528411 
L 971.760117 60.528552 
L 971.757103 60.530376 
L 971.751964 60.531375 
L 971.749547 60.533224 
L 971.746434 60.533385 
L 971.742556 60.533545 
L 971.740064 60.533708 
L 971.736119 60.533871 
L 971.731438 60.534038 
L 971.728072 60.535924 
L 971.725439 60.536107 
L 971.721295 60.537147 
L 971.716334 60.537331 
L 971.712826 60.538391 
L 971.707737 60.539459 
L 971.703316 60.539653 
L 971.699595 60.540738 
L 971.692758 60.541842 
L 971.685865 60.542959 
L 971.680369 60.543194 
L 971.674049 60.544332 
L 971.670755 60.544598 
L 971.666653 60.547573 
L 971.663275 60.548752 
L 971.658979 60.550868 
L 971.653883 60.551177 
L 971.651142 60.551488 
L 971.64585 60.552742 
L 971.639678 60.553085 
L 971.63425 60.554377 
L 971.62869 60.55756 
" style="fill:none;stroke:#8c564b;stroke-linecap:square;stroke-width:1.5;"/>
   </g>
   <g id="line2d_20">
    <path clip-path="url(#p68d835389f)" d="M 972 60.48 
L 967.473324 63.776337 
L 962.968847 66.953009 
L 958.477501 70.01274 
L 954.016762 72.890074 
L 949.52716 75.582591 
L 945.003643 78.118519 
L 940.50934 80.539933 
L 936.064022 82.906969 
L 931.687412 85.152003 
L 927.34419 87.402835 
L 923.014477 89.500876 
L 918.685393 91.564305 
L 914.436641 93.563941 
L 910.249157 95.506493 
L 906.010557 97.338414 
L 901.776238 99.165949 
L 897.615235 100.918276 
L 893.420307 102.541893 
L 889.220232 104.095107 
L 885.088974 105.621641 
L 880.888108 107.112446 
L 876.68868 108.583356 
L 872.523777 110.0964 
L 868.27748 111.586566 
L 864.075083 113.088533 
L 859.883952 114.596732 
L 855.69829 116.032121 
L 851.50247 117.439638 
L 847.349824 118.851355 
L 843.195462 120.259534 
L 839.033676 121.636946 
L 834.877596 123.048895 
L 830.694256 124.436763 
L 826.558189 125.81621 
L 822.372785 127.198935 
L 818.197646 128.635775 
L 814.022491 130.110693 
L 809.871123 131.56593 
L 805.732469 132.97264 
L 801.530456 134.425496 
L 797.340698 135.880166 
L 793.186166 137.353462 
L 789.029607 138.838454 
L 784.878758 140.251455 
L 780.722954 141.665348 
L 776.585594 143.094735 
L 772.453896 144.492156 
L 768.379926 145.899952 
L 764.237005 147.326649 
L 760.19722 148.729813 
L 756.085968 150.112194 
L 752.054736 151.497915 
L 747.976186 152.884766 
L 743.904528 154.274951 
L 739.837016 155.683174 
L 735.826748 157.054989 
L 731.823755 158.35614 
L 727.76297 159.66452 
L 723.735403 160.957506 
L 719.77666 162.230275 
L 715.782938 163.455078 
L 711.742763 164.638871 
L 707.754496 165.830349 
L 703.746727 167.020959 
L 699.78577 168.167521 
L 695.876262 169.310838 
L 691.857952 170.403541 
L 687.889428 171.534846 
L 683.919998 172.666558 
L 680.009577 173.74625 
L 676.032774 174.826789 
L 672.060427 175.888309 
L 668.142537 176.958299 
L 664.242641 178.002619 
L 660.342998 179.032673 
L 656.429224 180.108778 
L 652.539346 181.162058 
L 648.707024 182.207599 
L 644.806533 183.265665 
L 640.966845 184.321014 
L 637.142073 185.371027 
L 633.303369 186.392546 
L 629.476059 187.388683 
L 625.635244 188.372585 
L 621.804496 189.355318 
L 617.979566 190.369756 
L 614.180007 191.347667 
L 610.380844 192.304289 
L 606.608339 193.266387 
L 602.840638 194.20285 
L 599.052782 195.161761 
L 595.324648 196.11302 
L 591.559715 197.063673 
L 587.747222 198.057483 
L 583.975981 199.057786 
L 580.201098 200.020715 
L 576.462375 201.018604 
L 572.709864 201.998983 
L 568.989586 202.965207 
L 565.25014 203.921812 
" style="fill:none;stroke:#e377c2;stroke-linecap:square;stroke-width:1.5;"/>
   </g>
   <g id="line2d_21">
    <path clip-path="url(#p68d835389f)" d="M 972 60.48 
L 971.997642 60.481015 
L 971.996615 60.482037 
L 971.994897 60.482044 
L 971.993846 60.482051 
L 971.991066 60.482057 
L 971.988259 60.482579 
L 971.984382 60.483621 
L 971.980817 60.484151 
L 971.976514 60.485202 
L 971.968644 60.485737 
L 971.962118 60.486273 
L 971.958726 60.48681 
L 971.95494 60.486825 
L 971.952194 60.487366 
L 971.947258 60.488436 
L 971.944092 60.49004 
L 971.942346 60.490063 
L 971.939849 60.491144 
L 971.937694 60.491699 
L 971.934779 60.493322 
L 971.93295 60.493347 
L 971.931474 60.493373 
L 971.930368 60.4934 
L 971.928859 60.493427 
L 971.92772 60.493454 
L 971.925419 60.493483 
L 971.923861 60.49405 
L 971.9219 60.494078 
L 971.920701 60.494108 
L 971.919096 60.494137 
L 971.917469 60.494165 
L 971.915831 60.494196 
L 971.914962 60.494771 
L 971.913695 60.49535 
L 971.910389 60.495383 
L 971.908257 60.495967 
L 971.906101 60.496555 
L 971.904741 60.497699 
L 971.904196 60.49774 
L 971.902384 60.499448 
L 971.900554 60.499493 
L 971.898716 60.500098 
L 971.89559 60.500146 
L 971.893283 60.501316 
L 971.890944 60.501369 
L 971.888584 60.501419 
L 971.887487 60.502033 
L 971.886369 60.502086 
L 971.885234 60.502135 
L 971.884097 60.502753 
L 971.882503 60.503375 
L 971.880453 60.503999 
L 971.876135 60.504053 
L 971.874471 60.504111 
L 971.873234 60.50532 
L 971.87017 60.505378 
L 971.868438 60.505439 
L 971.867136 60.506079 
L 971.86444 60.506138 
L 971.86311 60.506784 
L 971.86223 60.506848 
L 971.859439 60.506913 
L 971.857085 60.508157 
L 971.853747 60.508821 
L 971.850859 60.509493 
L 971.849885 60.509578 
L 971.846931 60.510848 
L 971.844919 60.511531 
L 971.842908 60.512812 
L 971.840367 60.512904 
L 971.838281 60.514199 
L 971.835135 60.514902 
L 971.833493 60.516213 
L 971.832363 60.51632 
L 971.829663 60.516426 
L 971.827976 60.516537 
L 971.825737 60.516645 
L 971.822455 60.516756 
L 971.820134 60.518094 
L 971.818347 60.518211 
L 971.815455 60.518939 
L 971.811976 60.519053 
L 971.810097 60.519794 
L 971.80654 60.520541 
L 971.804026 60.520668 
L 971.80202 60.521426 
L 971.79832 60.522194 
L 971.793445 60.522972 
L 971.79019 60.523125 
L 971.785745 60.52392 
L 971.783533 60.52409 
L 971.780724 60.526193 
L 971.778456 60.527019 
L 971.775511 60.528511 
L 971.77196 60.528717 
L 971.770175 60.528925 
L 971.767738 60.5298 
L 971.763425 60.530027 
L 971.759673 60.530926 
L 971.755841 60.533166 
" style="fill:none;stroke:#7f7f7f;stroke-linecap:square;stroke-width:1.5;"/>
   </g>
   <g id="line2d_22">
    <path clip-path="url(#p68d835389f)" d="M 972 60.48 
L 969.095926 62.982921 
L 966.178005 65.403335 
L 963.246304 67.742413 
L 960.361766 69.949634 
L 957.422737 72.021696 
L 954.436761 73.978758 
L 951.472084 75.853853 
L 948.526792 77.69158 
L 945.610167 79.439296 
L 942.722824 81.19728 
L 939.813999 82.840551 
L 936.890072 84.459704 
L 934.040981 86.031023 
L 931.236629 87.561138 
L 928.377715 89.007684 
L 925.496534 90.453413 
L 922.648859 91.84323 
L 919.779331 93.134434 
L 916.905187 94.37031 
L 914.060852 95.588601 
L 911.158377 96.779593 
L 908.234062 97.957613 
L 905.352521 99.173048 
L 902.366337 100.368953 
L 899.412361 101.576817 
L 896.477501 102.790122 
L 893.507939 103.950423 
L 890.543937 105.089334 
L 887.589776 106.233425 
L 884.628305 107.375489 
L 881.661033 108.494217 
L 878.669332 109.64262 
L 875.664621 110.774757 
L 872.672709 111.903138 
L 869.645194 113.034298 
L 866.612954 114.211964 
L 863.557113 115.420383 
L 860.502327 116.615223 
L 857.463148 117.776716 
L 854.3742 118.976417 
L 851.265059 120.181021 
L 848.185602 121.402973 
L 845.075226 122.635602 
L 841.970095 123.811376 
L 838.855586 124.991022 
L 835.716761 126.185717 
L 832.563598 127.357687 
L 829.452876 128.538491 
L 826.301579 129.738546 
L 823.200786 130.919568 
L 820.019697 132.088391 
L 816.90741 133.257979 
L 813.723532 134.426795 
L 810.541139 135.606403 
L 807.347417 136.800511 
L 804.189133 137.963708 
L 801.031701 139.068859 
L 797.82361 140.182683 
L 794.62142 141.287288 
L 791.457581 142.37269 
L 788.2599 143.415989 
L 785.007432 144.429492 
L 781.793036 145.443863 
L 778.546113 146.460266 
L 775.324414 147.437805 
L 772.129653 148.416036 
L 768.831684 149.354466 
L 765.55988 150.327461 
L 762.272531 151.29921 
L 759.028455 152.230594 
L 755.728621 153.167985 
L 752.407889 154.088068 
L 749.124851 155.016609 
L 745.832839 155.928425 
L 742.543956 156.830977 
L 739.205386 157.77638 
L 735.898961 158.701717 
L 732.606889 159.61638 
L 729.253776 160.546919 
L 725.933681 161.468934 
L 722.61329 162.387327 
L 719.276318 163.280775 
L 715.933916 164.156902 
L 712.566696 165.018978 
L 709.205181 165.882976 
L 705.842144 166.771308 
L 702.477398 167.631717 
L 699.093314 168.466628 
L 695.737607 169.311539 
L 692.369094 170.137595 
L 688.966287 170.978717 
L 685.614408 171.816445 
L 682.211157 172.6594 
L 678.763075 173.541253 
L 675.318388 174.422394 
L 671.848231 175.282881 
L 668.415259 176.172973 
L 664.956582 177.043297 
L 661.51521 177.908813 
L 658.045422 178.7595 
" style="fill:none;stroke:#bcbd22;stroke-linecap:square;stroke-width:1.5;"/>
   </g>
   <g id="line2d_23">
    <path clip-path="url(#p68d835389f)" d="M 972 60.48 
L 965.851801 64.27618 
L 959.820369 67.97734 
L 954.069032 71.528062 
L 948.616889 74.957589 
L 943.422243 78.245617 
L 938.472656 81.454262 
L 933.785158 84.568773 
L 929.344443 87.571321 
L 925.033444 90.467895 
L 920.890801 93.273566 
L 916.890659 95.884825 
L 913.053992 98.333514 
L 909.325325 100.610239 
L 905.680576 102.835709 
L 902.07288 104.95381 
L 898.558234 107.04284 
L 895.105354 109.016548 
L 891.643159 110.870841 
L 888.202903 112.676963 
L 884.828834 114.435597 
L 881.441187 116.170531 
L 878.075897 117.887205 
L 874.828689 119.5608 
L 871.455581 121.23308 
L 868.095958 122.901439 
L 864.745002 124.570768 
L 861.343444 126.15948 
L 857.954051 127.723311 
L 854.582152 129.330882 
L 851.24336 130.930384 
L 847.949655 132.436465 
L 844.674977 133.981987 
L 841.376749 135.497917 
L 838.077528 137.04302 
L 834.742771 138.595326 
L 831.39242 140.171785 
L 828.059963 141.796151 
L 824.720125 143.391809 
L 821.473382 144.924952 
L 818.163204 146.44806 
L 814.846619 148.035883 
L 811.548175 149.669596 
L 808.232117 151.302061 
L 804.918556 152.891974 
L 801.566114 154.468853 
L 798.238384 156.062163 
L 794.902336 157.653348 
L 791.62536 159.227164 
L 788.315141 160.80742 
L 785.070693 162.379035 
L 781.775557 163.96097 
L 778.570762 165.521207 
L 775.279059 167.075243 
L 771.966413 168.628275 
L 768.666231 170.210614 
L 765.370689 171.76012 
L 762.053841 173.235987 
L 758.716571 174.687944 
L 755.411323 176.093656 
L 752.135886 177.48633 
L 748.857816 178.845902 
L 745.553956 180.201605 
L 742.24493 181.586119 
L 738.945666 182.956654 
L 735.679454 184.311354 
L 732.417895 185.668704 
L 729.081962 187.003214 
L 725.764667 188.35947 
L 722.433761 189.719705 
L 719.139478 191.057198 
L 715.809189 192.404543 
L 712.440608 193.744001 
L 709.090502 195.080972 
L 705.764247 196.395281 
L 702.413522 197.710512 
L 699.04741 199.057334 
L 695.717568 200.394871 
L 692.402601 201.710029 
L 689.043223 203.061328 
L 685.690948 204.411242 
L 682.36038 205.770863 
L 679.046481 207.07593 
L 675.762983 208.391591 
L 672.483007 209.670282 
L 669.208819 210.956207 
L 665.940855 212.263769 
L 662.654217 213.532989 
L 659.396435 214.785883 
L 656.126072 216.067468 
L 652.865413 217.334356 
L 649.584447 218.624594 
L 646.377722 219.910901 
L 643.120378 221.17954 
L 639.820962 222.489165 
L 636.529635 223.811765 
L 633.20629 225.134204 
L 629.902134 226.491631 
L 626.586081 227.839958 
L 623.2932 229.170343 
L 619.980443 230.526339 
" style="fill:none;stroke:#17becf;stroke-linecap:square;stroke-width:1.5;"/>
   </g>
   <g id="patch_3">
    <path d="M 135 448.56 
L 135 60.48 
" style="fill:none;stroke:#000000;stroke-linecap:square;stroke-linejoin:miter;stroke-width:0.8;"/>
   </g>
   <g id="patch_4">
    <path d="M 972 448.56 
L 972 60.48 
" style="fill:none;stroke:#000000;stroke-linecap:square;stroke-linejoin:miter;stroke-width:0.8;"/>
   </g>
   <g id="patch_5">
    <path d="M 135 448.56 
L 972 448.56 
" style="fill:none;stroke:#000000;stroke-linecap:square;stroke-linejoin:miter;stroke-width:0.8;"/>
   </g>
   <g id="patch_6">
    <path d="M 135 60.48 
L 972 60.48 
" style="fill:none;stroke:#000000;stroke-linecap:square;stroke-linejoin:miter;stroke-width:0.8;"/>
   </g>
   <g id="legend_1">
    <g id="patch_7">
     <path d="M 147.6 339.08625 
L 256.730625 339.08625 
Q 260.330625 339.08625 260.330625 335.48625 
L 260.330625 73.08 
Q 260.330625 69.48 256.730625 69.48 
L 147.6 69.48 
Q 144 69.48 144 73.08 
L 144 335.48625 
Q 144 339.08625 147.6 339.08625 
z
" style="fill:#ffffff;opacity:0.8;stroke:#cccccc;stroke-linejoin:miter;"/>
    </g>
    <g id="line2d_24">
     <path d="M 151.2 84.057188 
L 187.2 84.057188 
" style="fill:none;stroke:#1f77b4;stroke-linecap:square;stroke-width:1.5;"/>
    </g>
    <g id="line2d_25"/>
    <g id="text_15">
     <!-- 0.001 -->
     <g transform="translate(201.6 90.357188)scale(0.18 -0.18)">
      <use xlink:href="#DejaVuSans-30"/>
      <use x="63.623047" xlink:href="#DejaVuSans-2e"/>
      <use x="95.410156" xlink:href="#DejaVuSans-30"/>
      <use x="159.033203" xlink:href="#DejaVuSans-30"/>
      <use x="222.65625" xlink:href="#DejaVuSans-31"/>
     </g>
    </g>
    <g id="line2d_26">
     <path d="M 151.2 110.477812 
L 187.2 110.477812 
" style="fill:none;stroke:#ff7f0e;stroke-linecap:square;stroke-width:1.5;"/>
    </g>
    <g id="line2d_27"/>
    <g id="text_16">
     <!-- 0.011 -->
     <g transform="translate(201.6 116.777812)scale(0.18 -0.18)">
      <use xlink:href="#DejaVuSans-30"/>
      <use x="63.623047" xlink:href="#DejaVuSans-2e"/>
      <use x="95.410156" xlink:href="#DejaVuSans-30"/>
      <use x="159.033203" xlink:href="#DejaVuSans-31"/>
      <use x="222.65625" xlink:href="#DejaVuSans-31"/>
     </g>
    </g>
    <g id="line2d_28">
     <path d="M 151.2 136.898438 
L 187.2 136.898438 
" style="fill:none;stroke:#2ca02c;stroke-linecap:square;stroke-width:1.5;"/>
    </g>
    <g id="line2d_29"/>
    <g id="text_17">
     <!-- 0.021 -->
     <g transform="translate(201.6 143.198438)scale(0.18 -0.18)">
      <use xlink:href="#DejaVuSans-30"/>
      <use x="63.623047" xlink:href="#DejaVuSans-2e"/>
      <use x="95.410156" xlink:href="#DejaVuSans-30"/>
      <use x="159.033203" xlink:href="#DejaVuSans-32"/>
      <use x="222.65625" xlink:href="#DejaVuSans-31"/>
     </g>
    </g>
    <g id="line2d_30">
     <path d="M 151.2 163.319062 
L 187.2 163.319062 
" style="fill:none;stroke:#d62728;stroke-linecap:square;stroke-width:1.5;"/>
    </g>
    <g id="line2d_31"/>
    <g id="text_18">
     <!-- 0.031 -->
     <g transform="translate(201.6 169.619062)scale(0.18 -0.18)">
      <defs>
       <path d="M 2597 2516 
Q 3050 2419 3304 2112 
Q 3559 1806 3559 1356 
Q 3559 666 3084 287 
Q 2609 -91 1734 -91 
Q 1441 -91 1130 -33 
Q 819 25 488 141 
L 488 750 
Q 750 597 1062 519 
Q 1375 441 1716 441 
Q 2309 441 2620 675 
Q 2931 909 2931 1356 
Q 2931 1769 2642 2001 
Q 2353 2234 1838 2234 
L 1294 2234 
L 1294 2753 
L 1863 2753 
Q 2328 2753 2575 2939 
Q 2822 3125 2822 3475 
Q 2822 3834 2567 4026 
Q 2313 4219 1838 4219 
Q 1578 4219 1281 4162 
Q 984 4106 628 3988 
L 628 4550 
Q 988 4650 1302 4700 
Q 1616 4750 1894 4750 
Q 2613 4750 3031 4423 
Q 3450 4097 3450 3541 
Q 3450 3153 3228 2886 
Q 3006 2619 2597 2516 
z
" id="DejaVuSans-33" transform="scale(0.015625)"/>
      </defs>
      <use xlink:href="#DejaVuSans-30"/>
      <use x="63.623047" xlink:href="#DejaVuSans-2e"/>
      <use x="95.410156" xlink:href="#DejaVuSans-30"/>
      <use x="159.033203" xlink:href="#DejaVuSans-33"/>
      <use x="222.65625" xlink:href="#DejaVuSans-31"/>
     </g>
    </g>
    <g id="line2d_32">
     <path d="M 151.2 189.739688 
L 187.2 189.739688 
" style="fill:none;stroke:#9467bd;stroke-linecap:square;stroke-width:1.5;"/>
    </g>
    <g id="line2d_33"/>
    <g id="text_19">
     <!-- 0.041 -->
     <g transform="translate(201.6 196.039688)scale(0.18 -0.18)">
      <use xlink:href="#DejaVuSans-30"/>
      <use x="63.623047" xlink:href="#DejaVuSans-2e"/>
      <use x="95.410156" xlink:href="#DejaVuSans-30"/>
      <use x="159.033203" xlink:href="#DejaVuSans-34"/>
      <use x="222.65625" xlink:href="#DejaVuSans-31"/>
     </g>
    </g>
    <g id="line2d_34">
     <path d="M 151.2 216.160312 
L 187.2 216.160312 
" style="fill:none;stroke:#8c564b;stroke-linecap:square;stroke-width:1.5;"/>
    </g>
    <g id="line2d_35"/>
    <g id="text_20">
     <!-- 0.051 -->
     <g transform="translate(201.6 222.460312)scale(0.18 -0.18)">
      <defs>
       <path d="M 691 4666 
L 3169 4666 
L 3169 4134 
L 1269 4134 
L 1269 2991 
Q 1406 3038 1543 3061 
Q 1681 3084 1819 3084 
Q 2600 3084 3056 2656 
Q 3513 2228 3513 1497 
Q 3513 744 3044 326 
Q 2575 -91 1722 -91 
Q 1428 -91 1123 -41 
Q 819 9 494 109 
L 494 744 
Q 775 591 1075 516 
Q 1375 441 1709 441 
Q 2250 441 2565 725 
Q 2881 1009 2881 1497 
Q 2881 1984 2565 2268 
Q 2250 2553 1709 2553 
Q 1456 2553 1204 2497 
Q 953 2441 691 2322 
L 691 4666 
z
" id="DejaVuSans-35" transform="scale(0.015625)"/>
      </defs>
      <use xlink:href="#DejaVuSans-30"/>
      <use x="63.623047" xlink:href="#DejaVuSans-2e"/>
      <use x="95.410156" xlink:href="#DejaVuSans-30"/>
      <use x="159.033203" xlink:href="#DejaVuSans-35"/>
      <use x="222.65625" xlink:href="#DejaVuSans-31"/>
     </g>
    </g>
    <g id="line2d_36">
     <path d="M 151.2 242.580937 
L 187.2 242.580937 
" style="fill:none;stroke:#e377c2;stroke-linecap:square;stroke-width:1.5;"/>
    </g>
    <g id="line2d_37"/>
    <g id="text_21">
     <!-- 0.061 -->
     <g transform="translate(201.6 248.880937)scale(0.18 -0.18)">
      <use xlink:href="#DejaVuSans-30"/>
      <use x="63.623047" xlink:href="#DejaVuSans-2e"/>
      <use x="95.410156" xlink:href="#DejaVuSans-30"/>
      <use x="159.033203" xlink:href="#DejaVuSans-36"/>
      <use x="222.65625" xlink:href="#DejaVuSans-31"/>
     </g>
    </g>
    <g id="line2d_38">
     <path d="M 151.2 269.001562 
L 187.2 269.001562 
" style="fill:none;stroke:#7f7f7f;stroke-linecap:square;stroke-width:1.5;"/>
    </g>
    <g id="line2d_39"/>
    <g id="text_22">
     <!-- 0.071 -->
     <g transform="translate(201.6 275.301562)scale(0.18 -0.18)">
      <defs>
       <path d="M 525 4666 
L 3525 4666 
L 3525 4397 
L 1831 0 
L 1172 0 
L 2766 4134 
L 525 4134 
L 525 4666 
z
" id="DejaVuSans-37" transform="scale(0.015625)"/>
      </defs>
      <use xlink:href="#DejaVuSans-30"/>
      <use x="63.623047" xlink:href="#DejaVuSans-2e"/>
      <use x="95.410156" xlink:href="#DejaVuSans-30"/>
      <use x="159.033203" xlink:href="#DejaVuSans-37"/>
      <use x="222.65625" xlink:href="#DejaVuSans-31"/>
     </g>
    </g>
    <g id="line2d_40">
     <path d="M 151.2 295.422188 
L 187.2 295.422188 
" style="fill:none;stroke:#bcbd22;stroke-linecap:square;stroke-width:1.5;"/>
    </g>
    <g id="line2d_41"/>
    <g id="text_23">
     <!-- 0.081 -->
     <g transform="translate(201.6 301.722188)scale(0.18 -0.18)">
      <use xlink:href="#DejaVuSans-30"/>
      <use x="63.623047" xlink:href="#DejaVuSans-2e"/>
      <use x="95.410156" xlink:href="#DejaVuSans-30"/>
      <use x="159.033203" xlink:href="#DejaVuSans-38"/>
      <use x="222.65625" xlink:href="#DejaVuSans-31"/>
     </g>
    </g>
    <g id="line2d_42">
     <path d="M 151.2 321.842812 
L 187.2 321.842812 
" style="fill:none;stroke:#17becf;stroke-linecap:square;stroke-width:1.5;"/>
    </g>
    <g id="line2d_43"/>
    <g id="text_24">
     <!-- 0.091 -->
     <g transform="translate(201.6 328.142812)scale(0.18 -0.18)">
      <defs>
       <path d="M 703 97 
L 703 672 
Q 941 559 1184 500 
Q 1428 441 1663 441 
Q 2288 441 2617 861 
Q 2947 1281 2994 2138 
Q 2813 1869 2534 1725 
Q 2256 1581 1919 1581 
Q 1219 1581 811 2004 
Q 403 2428 403 3163 
Q 403 3881 828 4315 
Q 1253 4750 1959 4750 
Q 2769 4750 3195 4129 
Q 3622 3509 3622 2328 
Q 3622 1225 3098 567 
Q 2575 -91 1691 -91 
Q 1453 -91 1209 -44 
Q 966 3 703 97 
z
M 1959 2075 
Q 2384 2075 2632 2365 
Q 2881 2656 2881 3163 
Q 2881 3666 2632 3958 
Q 2384 4250 1959 4250 
Q 1534 4250 1286 3958 
Q 1038 3666 1038 3163 
Q 1038 2656 1286 2365 
Q 1534 2075 1959 2075 
z
" id="DejaVuSans-39" transform="scale(0.015625)"/>
      </defs>
      <use xlink:href="#DejaVuSans-30"/>
      <use x="63.623047" xlink:href="#DejaVuSans-2e"/>
      <use x="95.410156" xlink:href="#DejaVuSans-30"/>
      <use x="159.033203" xlink:href="#DejaVuSans-39"/>
      <use x="222.65625" xlink:href="#DejaVuSans-31"/>
     </g>
    </g>
   </g>
  </g>
 </g>
 <defs>
  <clipPath id="p68d835389f">
   <rect height="388.08" width="837" x="135" y="60.48"/>
  </clipPath>
 </defs>
</svg>
