<?xml version="1.0" encoding="utf-8" standalone="no"?>
<!DOCTYPE svg PUBLIC "-//W3C//DTD SVG 1.1//EN"
  "http://www.w3.org/Graphics/SVG/1.1/DTD/svg11.dtd">
<svg height="504pt" version="1.1" viewBox="0 0 1080 504" width="1080pt" xmlns="http://www.w3.org/2000/svg" xmlns:xlink="http://www.w3.org/1999/xlink">
 <metadata>
  <rdf:RDF xmlns:cc="http://creativecommons.org/ns#" xmlns:dc="http://purl.org/dc/elements/1.1/" xmlns:rdf="http://www.w3.org/1999/02/22-rdf-syntax-ns#">
   <cc:Work>
    <dc:type rdf:resource="http://purl.org/dc/dcmitype/StillImage"/>
    <dc:date>2022-01-07T13:25:01.726357</dc:date>
    <dc:format>image/svg+xml</dc:format>
    <dc:creator>
     <cc:Agent>
      <dc:title>Matplotlib v3.4.3, https://matplotlib.org/</dc:title>
     </cc:Agent>
    </dc:creator>
   </cc:Work>
  </rdf:RDF>
 </metadata>
 <defs>
  <style type="text/css">*{stroke-linecap:butt;stroke-linejoin:round;}</style>
 </defs>
 <g id="figure_1">
  <g id="patch_1">
   <path d="M 0 504 
L 1080 504 
L 1080 0 
L 0 0 
z
" style="fill:#ffffff;"/>
  </g>
  <g id="axes_1">
   <g id="patch_2">
    <path d="M 135 448.56 
L 972 448.56 
L 972 60.48 
L 135 60.48 
z
" style="fill:#ffffff;"/>
   </g>
   <g id="matplotlib.axis_1">
    <g id="xtick_1">
     <g id="line2d_1">
      <defs>
       <path d="M 0 0 
L 0 3.5 
" id="m2f4052b48f" style="stroke:#000000;stroke-width:0.8;"/>
      </defs>
      <g>
       <use style="stroke:#000000;stroke-width:0.8;" x="135" xlink:href="#m2f4052b48f" y="448.56"/>
      </g>
     </g>
     <g id="text_1">
      <!-- 0.0 -->
      <g transform="translate(120.687187 469.237188)scale(0.18 -0.18)">
       <defs>
        <path d="M 2034 4250 
Q 1547 4250 1301 3770 
Q 1056 3291 1056 2328 
Q 1056 1369 1301 889 
Q 1547 409 2034 409 
Q 2525 409 2770 889 
Q 3016 1369 3016 2328 
Q 3016 3291 2770 3770 
Q 2525 4250 2034 4250 
z
M 2034 4750 
Q 2819 4750 3233 4129 
Q 3647 3509 3647 2328 
Q 3647 1150 3233 529 
Q 2819 -91 2034 -91 
Q 1250 -91 836 529 
Q 422 1150 422 2328 
Q 422 3509 836 4129 
Q 1250 4750 2034 4750 
z
" id="DejaVuSans-30" transform="scale(0.015625)"/>
        <path d="M 684 794 
L 1344 794 
L 1344 0 
L 684 0 
L 684 794 
z
" id="DejaVuSans-2e" transform="scale(0.015625)"/>
       </defs>
       <use xlink:href="#DejaVuSans-30"/>
       <use x="63.623047" xlink:href="#DejaVuSans-2e"/>
       <use x="95.410156" xlink:href="#DejaVuSans-30"/>
      </g>
     </g>
    </g>
    <g id="xtick_2">
     <g id="line2d_2">
      <g>
       <use style="stroke:#000000;stroke-width:0.8;" x="302.4" xlink:href="#m2f4052b48f" y="448.56"/>
      </g>
     </g>
     <g id="text_2">
      <!-- 0.2 -->
      <g transform="translate(288.087187 469.237188)scale(0.18 -0.18)">
       <defs>
        <path d="M 1228 531 
L 3431 531 
L 3431 0 
L 469 0 
L 469 531 
Q 828 903 1448 1529 
Q 2069 2156 2228 2338 
Q 2531 2678 2651 2914 
Q 2772 3150 2772 3378 
Q 2772 3750 2511 3984 
Q 2250 4219 1831 4219 
Q 1534 4219 1204 4116 
Q 875 4013 500 3803 
L 500 4441 
Q 881 4594 1212 4672 
Q 1544 4750 1819 4750 
Q 2544 4750 2975 4387 
Q 3406 4025 3406 3419 
Q 3406 3131 3298 2873 
Q 3191 2616 2906 2266 
Q 2828 2175 2409 1742 
Q 1991 1309 1228 531 
z
" id="DejaVuSans-32" transform="scale(0.015625)"/>
       </defs>
       <use xlink:href="#DejaVuSans-30"/>
       <use x="63.623047" xlink:href="#DejaVuSans-2e"/>
       <use x="95.410156" xlink:href="#DejaVuSans-32"/>
      </g>
     </g>
    </g>
    <g id="xtick_3">
     <g id="line2d_3">
      <g>
       <use style="stroke:#000000;stroke-width:0.8;" x="469.8" xlink:href="#m2f4052b48f" y="448.56"/>
      </g>
     </g>
     <g id="text_3">
      <!-- 0.4 -->
      <g transform="translate(455.487188 469.237188)scale(0.18 -0.18)">
       <defs>
        <path d="M 2419 4116 
L 825 1625 
L 2419 1625 
L 2419 4116 
z
M 2253 4666 
L 3047 4666 
L 3047 1625 
L 3713 1625 
L 3713 1100 
L 3047 1100 
L 3047 0 
L 2419 0 
L 2419 1100 
L 313 1100 
L 313 1709 
L 2253 4666 
z
" id="DejaVuSans-34" transform="scale(0.015625)"/>
       </defs>
       <use xlink:href="#DejaVuSans-30"/>
       <use x="63.623047" xlink:href="#DejaVuSans-2e"/>
       <use x="95.410156" xlink:href="#DejaVuSans-34"/>
      </g>
     </g>
    </g>
    <g id="xtick_4">
     <g id="line2d_4">
      <g>
       <use style="stroke:#000000;stroke-width:0.8;" x="637.2" xlink:href="#m2f4052b48f" y="448.56"/>
      </g>
     </g>
     <g id="text_4">
      <!-- 0.6 -->
      <g transform="translate(622.887188 469.237188)scale(0.18 -0.18)">
       <defs>
        <path d="M 2113 2584 
Q 1688 2584 1439 2293 
Q 1191 2003 1191 1497 
Q 1191 994 1439 701 
Q 1688 409 2113 409 
Q 2538 409 2786 701 
Q 3034 994 3034 1497 
Q 3034 2003 2786 2293 
Q 2538 2584 2113 2584 
z
M 3366 4563 
L 3366 3988 
Q 3128 4100 2886 4159 
Q 2644 4219 2406 4219 
Q 1781 4219 1451 3797 
Q 1122 3375 1075 2522 
Q 1259 2794 1537 2939 
Q 1816 3084 2150 3084 
Q 2853 3084 3261 2657 
Q 3669 2231 3669 1497 
Q 3669 778 3244 343 
Q 2819 -91 2113 -91 
Q 1303 -91 875 529 
Q 447 1150 447 2328 
Q 447 3434 972 4092 
Q 1497 4750 2381 4750 
Q 2619 4750 2861 4703 
Q 3103 4656 3366 4563 
z
" id="DejaVuSans-36" transform="scale(0.015625)"/>
       </defs>
       <use xlink:href="#DejaVuSans-30"/>
       <use x="63.623047" xlink:href="#DejaVuSans-2e"/>
       <use x="95.410156" xlink:href="#DejaVuSans-36"/>
      </g>
     </g>
    </g>
    <g id="xtick_5">
     <g id="line2d_5">
      <g>
       <use style="stroke:#000000;stroke-width:0.8;" x="804.6" xlink:href="#m2f4052b48f" y="448.56"/>
      </g>
     </g>
     <g id="text_5">
      <!-- 0.8 -->
      <g transform="translate(790.287188 469.237188)scale(0.18 -0.18)">
       <defs>
        <path d="M 2034 2216 
Q 1584 2216 1326 1975 
Q 1069 1734 1069 1313 
Q 1069 891 1326 650 
Q 1584 409 2034 409 
Q 2484 409 2743 651 
Q 3003 894 3003 1313 
Q 3003 1734 2745 1975 
Q 2488 2216 2034 2216 
z
M 1403 2484 
Q 997 2584 770 2862 
Q 544 3141 544 3541 
Q 544 4100 942 4425 
Q 1341 4750 2034 4750 
Q 2731 4750 3128 4425 
Q 3525 4100 3525 3541 
Q 3525 3141 3298 2862 
Q 3072 2584 2669 2484 
Q 3125 2378 3379 2068 
Q 3634 1759 3634 1313 
Q 3634 634 3220 271 
Q 2806 -91 2034 -91 
Q 1263 -91 848 271 
Q 434 634 434 1313 
Q 434 1759 690 2068 
Q 947 2378 1403 2484 
z
M 1172 3481 
Q 1172 3119 1398 2916 
Q 1625 2713 2034 2713 
Q 2441 2713 2670 2916 
Q 2900 3119 2900 3481 
Q 2900 3844 2670 4047 
Q 2441 4250 2034 4250 
Q 1625 4250 1398 4047 
Q 1172 3844 1172 3481 
z
" id="DejaVuSans-38" transform="scale(0.015625)"/>
       </defs>
       <use xlink:href="#DejaVuSans-30"/>
       <use x="63.623047" xlink:href="#DejaVuSans-2e"/>
       <use x="95.410156" xlink:href="#DejaVuSans-38"/>
      </g>
     </g>
    </g>
    <g id="xtick_6">
     <g id="line2d_6">
      <g>
       <use style="stroke:#000000;stroke-width:0.8;" x="972" xlink:href="#m2f4052b48f" y="448.56"/>
      </g>
     </g>
     <g id="text_6">
      <!-- 1.0 -->
      <g transform="translate(957.687188 469.237188)scale(0.18 -0.18)">
       <defs>
        <path d="M 794 531 
L 1825 531 
L 1825 4091 
L 703 3866 
L 703 4441 
L 1819 4666 
L 2450 4666 
L 2450 531 
L 3481 531 
L 3481 0 
L 794 0 
L 794 531 
z
" id="DejaVuSans-31" transform="scale(0.015625)"/>
       </defs>
       <use xlink:href="#DejaVuSans-31"/>
       <use x="63.623047" xlink:href="#DejaVuSans-2e"/>
       <use x="95.410156" xlink:href="#DejaVuSans-30"/>
      </g>
     </g>
    </g>
    <g id="text_7">
     <!-- $FPR_{Fair}$ -->
     <g transform="translate(518.08 493.697187)scale(0.22 -0.22)">
      <defs>
       <path d="M 1081 4666 
L 3756 4666 
L 3653 4134 
L 1606 4134 
L 1338 2759 
L 3188 2759 
L 3084 2228 
L 1234 2228 
L 800 0 
L 172 0 
L 1081 4666 
z
" id="DejaVuSans-Oblique-46" transform="scale(0.015625)"/>
       <path d="M 1081 4666 
L 2541 4666 
Q 3178 4666 3512 4369 
Q 3847 4072 3847 3500 
Q 3847 2731 3353 2303 
Q 2859 1875 1966 1875 
L 1172 1875 
L 806 0 
L 172 0 
L 1081 4666 
z
M 1613 4147 
L 1275 2394 
L 2069 2394 
Q 2606 2394 2893 2669 
Q 3181 2944 3181 3456 
Q 3181 3784 2986 3965 
Q 2791 4147 2438 4147 
L 1613 4147 
z
" id="DejaVuSans-Oblique-50" transform="scale(0.015625)"/>
       <path d="M 1613 4147 
L 1294 2491 
L 2106 2491 
Q 2584 2491 2879 2755 
Q 3175 3019 3175 3444 
Q 3175 3784 2976 3965 
Q 2778 4147 2406 4147 
L 1613 4147 
z
M 2772 2241 
Q 2972 2194 3105 2009 
Q 3238 1825 3413 1275 
L 3809 0 
L 3144 0 
L 2778 1197 
Q 2638 1659 2453 1815 
Q 2269 1972 1888 1972 
L 1191 1972 
L 806 0 
L 172 0 
L 1081 4666 
L 2503 4666 
Q 3150 4666 3495 4373 
Q 3841 4081 3841 3531 
Q 3841 3044 3547 2687 
Q 3253 2331 2772 2241 
z
" id="DejaVuSans-Oblique-52" transform="scale(0.015625)"/>
       <path d="M 3438 1997 
L 3047 0 
L 2472 0 
L 2578 531 
Q 2325 219 2001 64 
Q 1678 -91 1281 -91 
Q 834 -91 548 182 
Q 263 456 263 884 
Q 263 1497 752 1853 
Q 1241 2209 2100 2209 
L 2900 2209 
L 2931 2363 
Q 2938 2388 2941 2417 
Q 2944 2447 2944 2509 
Q 2944 2788 2717 2942 
Q 2491 3097 2081 3097 
Q 1800 3097 1504 3025 
Q 1209 2953 897 2809 
L 997 3341 
Q 1322 3463 1633 3523 
Q 1944 3584 2234 3584 
Q 2853 3584 3176 3315 
Q 3500 3047 3500 2534 
Q 3500 2431 3484 2292 
Q 3469 2153 3438 1997 
z
M 2816 1759 
L 2241 1759 
Q 1534 1759 1195 1570 
Q 856 1381 856 984 
Q 856 709 1029 553 
Q 1203 397 1509 397 
Q 1978 397 2328 733 
Q 2678 1069 2791 1631 
L 2816 1759 
z
" id="DejaVuSans-Oblique-61" transform="scale(0.015625)"/>
       <path d="M 1172 4863 
L 1747 4863 
L 1606 4134 
L 1031 4134 
L 1172 4863 
z
M 909 3500 
L 1484 3500 
L 800 0 
L 225 0 
L 909 3500 
z
" id="DejaVuSans-Oblique-69" transform="scale(0.015625)"/>
       <path d="M 2853 2969 
Q 2766 3016 2653 3041 
Q 2541 3066 2413 3066 
Q 1953 3066 1609 2717 
Q 1266 2369 1153 1784 
L 800 0 
L 225 0 
L 909 3500 
L 1484 3500 
L 1375 2956 
Q 1603 3259 1920 3421 
Q 2238 3584 2597 3584 
Q 2691 3584 2781 3573 
Q 2872 3563 2963 3538 
L 2853 2969 
z
" id="DejaVuSans-Oblique-72" transform="scale(0.015625)"/>
      </defs>
      <use transform="translate(0 0.09375)" xlink:href="#DejaVuSans-Oblique-46"/>
      <use transform="translate(57.519531 0.09375)" xlink:href="#DejaVuSans-Oblique-50"/>
      <use transform="translate(117.822266 0.09375)" xlink:href="#DejaVuSans-Oblique-52"/>
      <use transform="translate(187.304688 -16.3125)scale(0.7)" xlink:href="#DejaVuSans-Oblique-46"/>
      <use transform="translate(227.568359 -16.3125)scale(0.7)" xlink:href="#DejaVuSans-Oblique-61"/>
      <use transform="translate(270.463867 -16.3125)scale(0.7)" xlink:href="#DejaVuSans-Oblique-69"/>
      <use transform="translate(289.912109 -16.3125)scale(0.7)" xlink:href="#DejaVuSans-Oblique-72"/>
     </g>
    </g>
   </g>
   <g id="matplotlib.axis_2">
    <g id="ytick_1">
     <g id="line2d_7">
      <defs>
       <path d="M 0 0 
L -3.5 0 
" id="m3844f064a8" style="stroke:#000000;stroke-width:0.8;"/>
      </defs>
      <g>
       <use style="stroke:#000000;stroke-width:0.8;" x="135" xlink:href="#m3844f064a8" y="448.56"/>
      </g>
     </g>
     <g id="text_8">
      <!-- 0.0 -->
      <g transform="translate(99.374375 455.398594)scale(0.18 -0.18)">
       <use xlink:href="#DejaVuSans-30"/>
       <use x="63.623047" xlink:href="#DejaVuSans-2e"/>
       <use x="95.410156" xlink:href="#DejaVuSans-30"/>
      </g>
     </g>
    </g>
    <g id="ytick_2">
     <g id="line2d_8">
      <g>
       <use style="stroke:#000000;stroke-width:0.8;" x="135" xlink:href="#m3844f064a8" y="370.944"/>
      </g>
     </g>
     <g id="text_9">
      <!-- 0.2 -->
      <g transform="translate(99.374375 377.782594)scale(0.18 -0.18)">
       <use xlink:href="#DejaVuSans-30"/>
       <use x="63.623047" xlink:href="#DejaVuSans-2e"/>
       <use x="95.410156" xlink:href="#DejaVuSans-32"/>
      </g>
     </g>
    </g>
    <g id="ytick_3">
     <g id="line2d_9">
      <g>
       <use style="stroke:#000000;stroke-width:0.8;" x="135" xlink:href="#m3844f064a8" y="293.328"/>
      </g>
     </g>
     <g id="text_10">
      <!-- 0.4 -->
      <g transform="translate(99.374375 300.166594)scale(0.18 -0.18)">
       <use xlink:href="#DejaVuSans-30"/>
       <use x="63.623047" xlink:href="#DejaVuSans-2e"/>
       <use x="95.410156" xlink:href="#DejaVuSans-34"/>
      </g>
     </g>
    </g>
    <g id="ytick_4">
     <g id="line2d_10">
      <g>
       <use style="stroke:#000000;stroke-width:0.8;" x="135" xlink:href="#m3844f064a8" y="215.712"/>
      </g>
     </g>
     <g id="text_11">
      <!-- 0.6 -->
      <g transform="translate(99.374375 222.550594)scale(0.18 -0.18)">
       <use xlink:href="#DejaVuSans-30"/>
       <use x="63.623047" xlink:href="#DejaVuSans-2e"/>
       <use x="95.410156" xlink:href="#DejaVuSans-36"/>
      </g>
     </g>
    </g>
    <g id="ytick_5">
     <g id="line2d_11">
      <g>
       <use style="stroke:#000000;stroke-width:0.8;" x="135" xlink:href="#m3844f064a8" y="138.096"/>
      </g>
     </g>
     <g id="text_12">
      <!-- 0.8 -->
      <g transform="translate(99.374375 144.934594)scale(0.18 -0.18)">
       <use xlink:href="#DejaVuSans-30"/>
       <use x="63.623047" xlink:href="#DejaVuSans-2e"/>
       <use x="95.410156" xlink:href="#DejaVuSans-38"/>
      </g>
     </g>
    </g>
    <g id="ytick_6">
     <g id="line2d_12">
      <g>
       <use style="stroke:#000000;stroke-width:0.8;" x="135" xlink:href="#m3844f064a8" y="60.48"/>
      </g>
     </g>
     <g id="text_13">
      <!-- 1.0 -->
      <g transform="translate(99.374375 67.318594)scale(0.18 -0.18)">
       <use xlink:href="#DejaVuSans-31"/>
       <use x="63.623047" xlink:href="#DejaVuSans-2e"/>
       <use x="95.410156" xlink:href="#DejaVuSans-30"/>
      </g>
     </g>
    </g>
    <g id="text_14">
     <!-- $TPR_{Fair}$ -->
     <g transform="translate(90.799062 290.27)rotate(-90)scale(0.22 -0.22)">
      <defs>
       <path d="M 378 4666 
L 4325 4666 
L 4225 4134 
L 2559 4134 
L 1759 0 
L 1125 0 
L 1925 4134 
L 275 4134 
L 378 4666 
z
" id="DejaVuSans-Oblique-54" transform="scale(0.015625)"/>
      </defs>
      <use transform="translate(0 0.09375)" xlink:href="#DejaVuSans-Oblique-54"/>
      <use transform="translate(61.083984 0.09375)" xlink:href="#DejaVuSans-Oblique-50"/>
      <use transform="translate(121.386719 0.09375)" xlink:href="#DejaVuSans-Oblique-52"/>
      <use transform="translate(190.869141 -16.3125)scale(0.7)" xlink:href="#DejaVuSans-Oblique-46"/>
      <use transform="translate(231.132812 -16.3125)scale(0.7)" xlink:href="#DejaVuSans-Oblique-61"/>
      <use transform="translate(274.02832 -16.3125)scale(0.7)" xlink:href="#DejaVuSans-Oblique-69"/>
      <use transform="translate(293.476562 -16.3125)scale(0.7)" xlink:href="#DejaVuSans-Oblique-72"/>
     </g>
    </g>
   </g>
   <g id="line2d_13">
    <path clip-path="url(#p4a22d68a1c)" d="M 135 448.56 
L 972 60.48 
" style="fill:none;stroke:#ff0000;stroke-dasharray:5.55,2.4;stroke-dashoffset:0;stroke-width:1.5;"/>
   </g>
   <g id="line2d_14">
    <path clip-path="url(#p4a22d68a1c)" d="M 972 60.48 
L 311.830986 300.176471 
L 246.106195 367.188387 
L 213.46875 391.23 
L 197.462687 406.518 
L 182.634146 414.24 
L 175.406897 420.84 
L 169.464706 423.829412 
L 165.357513 428.992941 
L 162.125 431.375646 
L 159.878981 433.241053 
L 158.066929 435.177931 
L 156.540441 436.14144 
L 154.694118 438.198641 
L 153.629571 438.9019 
L 152.594595 439.572884 
L 150.5 440.270913 
L 149.605369 440.840506 
L 148.825921 441.349054 
L 147.101205 441.718846 
L 146.67907 441.931304 
L 146.086093 442.2075 
L 145.617336 442.408876 
L 145.054054 442.647424 
L 144.62069 442.837641 
L 143.415905 443.037516 
L 143.09051 443.210526 
L 142.80916 443.833082 
L 142.528209 443.994353 
L 141.621835 444.129863 
L 140.781274 444.238396 
L 140.655405 444.7718 
L 140.502557 444.891176 
L 140.380714 444.97036 
L 140.301196 445.081195 
L 139.627505 445.165714 
L 139.552005 445.264981 
L 139.464 445.328992 
L 139.379333 445.379016 
L 139.303342 445.778065 
L 139.232617 445.836632 
L 139.179775 445.89049 
L 139.102941 445.955436 
L 138.535908 445.985672 
L 138.454599 446.050186 
L 137.916376 446.090119 
L 137.884549 446.42434 
L 137.365743 446.476748 
L 136.855876 446.512856 
L 136.827511 446.830074 
L 136.803879 446.859138 
L 136.786553 446.887241 
L 136.763033 446.905075 
L 136.74103 446.929412 
L 136.724884 446.94971 
L 136.703817 447.238202 
L 136.68665 447.2664 
L 136.671493 447.538065 
L 136.656606 447.548717 
L 136.640372 447.561723 
L 136.619739 447.576897 
L 136.201435 447.587977 
L 136.189484 447.601186 
L 136.175012 447.615766 
L 136.166822 447.625993 
L 135.771429 447.637099 
L 135.762642 447.644177 
L 135.377027 447.652211 
L 135.372829 447.884687 
L 135.367912 447.893196 
L 135.364706 447.898124 
L 135.361243 447.90409 
L 135.357082 447.90813 
L 135.353612 447.912481 
L 135.350063 447.92136 
L 135.346011 447.924151 
L 135.343173 448.141359 
L 135.340382 448.145606 
L 135.338319 448.149767 
L 135.335875 448.152781 
L 135.333466 448.157427 
L 135.331485 448.162173 
L 135.329009 448.166809 
L 135.325935 448.170557 
L 135.32467 448.173851 
L 135.322171 448.1769 
L 135.320321 448.181939 
L 135 448.185043 
L 135 448.187919 
L 135 448.190048 
L 135 448.193541 
L 135 448.195263 
L 135 448.198154 
L 135 448.199666 
L 135 448.203636 
L 135 448.2072 
L 135 448.209905 
L 135 448.212725 
L 135 448.215346 
L 135 448.217778 
L 135 448.220472 
" style="fill:none;stroke:#1f77b4;stroke-linecap:square;stroke-width:1.5;"/>
   </g>
   <g id="line2d_15">
    <path clip-path="url(#p4a22d68a1c)" d="M 972 60.48 
L 790.894737 80.808 
L 667.636364 103.986726 
L 583.875 113.245263 
L 524.028169 131.628 
L 476.197452 150.271059 
L 440.456897 167.238067 
L 404.579221 178.29 
L 380.817961 189.392388 
L 364.315068 204.587883 
L 347.826923 216.437383 
L 332.040241 229.11 
L 320.820463 238.9968 
L 309.375 246.457396 
L 299.538462 253.994146 
L 289.750804 262.119478 
L 282.25 270.36 
L 271.653061 276.404211 
L 264.75838 285.305192 
L 256.353659 290.588612 
L 251.31039 295.46422 
L 244.445828 299.298462 
L 237 303.6768 
L 231.393387 307.44 
L 225.536424 310.854194 
L 218.965153 315.387284 
L 215.695385 318.3915 
L 212.453731 321.595556 
L 208.064985 324.937742 
L 204.290687 327.429662 
L 201.199091 330.085479 
L 198.352627 333.765344 
L 196.084275 336.125607 
L 193.973684 337.577712 
L 192.530595 340.177297 
L 190.616899 342.969329 
L 188.86967 346.680622 
L 187.435395 348.410323 
L 185.707822 349.752362 
L 183.714286 352.178289 
L 182.634146 354.347653 
L 180.721049 357.247059 
L 179.336435 359.422875 
L 177.559322 360.57913 
L 175.715775 362.451064 
L 173.097931 363.685792 
L 172.63079 365.233514 
L 170.4375 368.880355 
L 168.67876 370.040175 
L 167.631579 371.391354 
L 166.737147 372.703003 
L 166.45414 374.408033 
L 165.493719 377.412 
L 164.113043 378.877127 
L 163.225015 380.699016 
L 162.376136 382.492761 
L 161.547576 384.135652 
L 161.280213 385.490642 
L 160.942105 387.072 
L 160.100346 388.280565 
L 159.743604 389.27 
L 158.590755 390.055477 
L 157.912291 391.475303 
L 157.221239 393.188192 
L 157.038398 395.163243 
L 156.310401 395.424352 
L 155.655579 395.8752 
L 154.032787 396.318462 
L 153.784447 396.970922 
L 153.542504 398.202 
L 153.334692 399.076364 
L 152.754545 399.481967 
L 151.723277 399.824372 
L 151.582467 401.003376 
L 151.009318 402.825172 
L 150.823073 402.929589 
L 150.298701 404.069557 
L 150.131304 404.519461 
L 150.016997 405.199106 
L 149.512184 406.3024 
L 149.431034 407.529515 
L 149.350788 408.428515 
L 148.866544 409.115803 
L 148.340164 409.836182 
L 147.923706 411.559957 
L 147.807381 411.798924 
L 147.721502 413.843578 
L 147.24878 414.510698 
L 146.768014 415.776051 
L 145.608829 416.288084 
L 144.453519 417.26978 
L 144.050606 417.804964 
L 143.988402 418.676629 
L 143.569966 419.293636 
L 143.160661 420.32877 
L 142.723993 420.980711 
L 142.314607 421.822979 
L 142.266226 421.984532 
L 142.221446 422.584615 
L 141.846626 422.713718 
L 141.815961 422.89232 
" style="fill:none;stroke:#ff7f0e;stroke-linecap:square;stroke-width:1.5;"/>
   </g>
   <g id="line2d_16">
    <path clip-path="url(#p4a22d68a1c)" d="M 972 60.48 
L 968.555556 60.48 
L 965.082645 60.48 
L 961.623967 60.48 
L 957.932773 67.633548 
L 957.506494 69.380917 
L 957.315789 69.421935 
L 953.316964 69.463333 
L 952.802752 69.589859 
L 952.534884 73.174206 
L 948.53271 74.987664 
L 944.492958 76.877746 
L 936.633803 76.955094 
L 925.065421 77.191579 
L 921.390698 79.048421 
L 917.75 79.227826 
L 917.497674 79.227826 
L 912.49763 81.102609 
L 911.639423 81.303805 
L 902.590244 81.613069 
L 902.590244 81.613069 
L 900.136364 83.881809 
L 898.654639 85.96 
L 897.890625 86.08934 
L 892.285714 88.2 
L 890.119565 90.332308 
L 885.098361 90.641658 
L 884.138122 90.957487 
L 882.657303 97.052984 
L 873.252809 100.905 
L 870.398844 106.727876 
L 868.605882 107.212147 
L 863.04142 107.212147 
L 860.4 110.74943 
L 859.719512 114.491134 
L 859.030675 116.491546 
L 852.428571 120.803316 
L 850.158228 120.803316 
L 847.8 120.803316 
L 845.348684 124.493196 
L 844.509934 134.2152 
L 841.925676 136.535879 
L 841.040816 141.571343 
L 838.3125 141.571343 
L 835.468085 146.507586 
L 831.481752 146.507586 
L 831.481752 147.798 
L 826.159091 156.539406 
L 822.767442 157.017313 
L 821.601562 161.3808 
L 815.0625 164.224158 
L 813.826772 166.145347 
L 812.571429 169.987723 
L 810 173.830099 
L 808.682927 174.9636 
L 805.983471 178.8444 
L 804.6 184.742069 
L 803.193277 186.606 
L 801.762712 187.88 
L 798.827586 192.4272 
L 798.827586 198.2484 
L 795.789474 199.64 
L 792.642857 200.346396 
L 785.169643 204.286294 
L 777.696429 207.266736 
L 774.163636 210.510928 
L 770.5 212.94 
L 758.801887 212.94 
L 758.801887 214.511753 
L 758.801887 216.512165 
L 758.801887 218.1375 
L 756.771429 218.1375 
L 752.592233 218.1375 
L 752.592233 220.64 
L 748.247525 223.882105 
L 739.020619 223.882105 
L 734.115789 227.684681 
L 731.585106 228.853333 
L 731.585106 233.655484 
L 720.9 235.537826 
L 718.078652 237.646957 
L 699.269663 239.593846 
L 696.170455 240.583425 
L 689.755814 242.595754 
L 683.035714 244.653559 
L 676.588235 244.653559 
L 669.46988 248.911908 
L 662 250.007442 
L 654.151899 253.371834 
L 632.675676 256.857831 
L 618.338028 259.252683 
L 613.285714 261.706667 
L 613.285714 264.222 
L 602.735294 265.503396 
L 584.731343 268.115159 
L 578.863636 271.713418 
L 572.815385 274.421538 
L 560.142857 275.801806 
L 560.142857 280.051579 
L 553.5 282.9792 
L 553.5 282.9792 
" style="fill:none;stroke:#2ca02c;stroke-linecap:square;stroke-width:1.5;"/>
   </g>
   <g id="line2d_17">
    <path clip-path="url(#p4a22d68a1c)" d="M 972 60.48 
L 863.426887 89.226667 
L 793.415948 116.946667 
L 731.219178 137.317895 
L 689.396679 162.653487 
L 642.972414 185.426866 
L 607.084279 206.106826 
L 570.036474 217.047648 
L 536.615274 233.038258 
L 512.10989 246.891077 
L 489.494118 257.700984 
L 467.52104 270.513966 
L 451.37799 279.278813 
L 432.09215 290.57566 
L 417.339499 297.463279 
L 405 304.430551 
L 391.446108 312.220728 
L 376.101156 318.732996 
L 364.187789 325.960976 
L 354.627592 331.568504 
L 347.908217 335.140763 
L 334.690355 340.095558 
L 326.039409 343.488548 
L 317.158856 347.355587 
L 308.997682 349.915034 
L 299.758828 353.314187 
L 293.12035 356.3175 
L 287.615385 358.836769 
L 282.363257 362.16391 
L 276.400545 364.493156 
L 270.323353 366.628254 
L 265.712598 368.894514 
L 261.818182 370.879535 
L 256.77446 372.39772 
L 254.347092 374.787604 
L 250.216667 376.366154 
L 246.566038 378.919877 
L 242.256287 380.178434 
L 238.515901 381.520119 
L 235.790576 382.788555 
L 233.442341 384.019698 
L 230.210526 385.493542 
L 227.326462 387.455731 
L 223.78674 388.132318 
L 221.114861 389.807902 
L 218.157667 390.893494 
L 215.73955 392.52982 
L 212.343601 394.249198 
L 209.732143 395.274404 
L 208.177962 396.567231 
L 206.571429 397.716608 
L 205.279211 398.99215 
L 203.634 400.500557 
L 201.92695 401.714559 
L 199.95022 403.1664 
L 198.451956 404.354245 
L 197.325537 405.617657 
L 196.311437 406.874816 
L 195.289055 407.709474 
L 192.84462 408.398491 
L 191.745763 409.554783 
L 190.445554 410.730353 
L 189.267447 411.467271 
L 188.290739 412.257112 
L 187.196816 413.548435 
L 185.893701 414.11503 
L 184.299264 414.372493 
L 182.296233 414.769393 
L 181.086404 415.406415 
L 179.569811 416.320748 
L 178.851143 416.904533 
L 178.179942 417.212025 
L 176.113385 417.387331 
L 175.099878 418.195336 
L 174.086957 418.782063 
L 171.507803 419.122102 
L 169.972145 420.266483 
L 169.365574 421.206344 
L 168.203849 422.16 
L 166.43662 422.700493 
L 165.91563 423.516597 
L 164.788781 424.063256 
L 163.651154 424.602187 
L 162.495034 425.210037 
L 161.784 425.88 
L 160.919184 426.353299 
L 160.172932 427.395234 
L 159.084081 428.078981 
L 158.275862 428.91038 
L 156.350462 429.705911 
L 155.287183 430.360625 
L 154.870343 430.762921 
L 154.747731 431.365494 
L 154.036462 431.612528 
L 153.025844 432.128852 
L 152.592804 432.58617 
L 151.870226 432.989922 
L 151.1981 433.256374 
L 150.510839 433.996657 
L 150.149321 434.570687 
L 149.811589 434.682507 
" style="fill:none;stroke:#d62728;stroke-linecap:square;stroke-width:1.5;"/>
   </g>
   <g id="line2d_18">
    <path clip-path="url(#p4a22d68a1c)" d="M 972 60.48 
L 972 60.48 
L 970.230444 60.48 
L 968.438298 60.48 
L 968.4 65.997725 
L 968.33698 66.932637 
L 966.44469 67.010192 
L 962.658482 67.943077 
L 962.46697 68.070807 
L 962.3125 69.968509 
L 958.278689 70.994483 
L 958.148936 72.064478 
L 954.02148 72.1224 
L 953.804348 72.329771 
L 953.716019 73.416 
L 953.581907 74.55544 
L 953.445813 74.702827 
L 953.025189 76.863325 
L 952.734015 77.171613 
L 948.209302 78.407609 
L 948.085714 78.554959 
L 947.448 79.830249 
L 947.183288 82.992928 
L 946.775342 84.064972 
L 944.177285 86.209061 
L 943.546742 87.43 
L 940.911429 87.732809 
L 940.642651 87.88678 
L 940.276968 91.175593 
L 934.85503 93.275493 
L 934.069486 97.44 
L 933.369231 97.75322 
L 930.409938 98.849492 
L 929.620253 100.927775 
L 929.214058 103.234576 
L 928.519481 104.330847 
L 925.194079 106.785 
L 924.251678 106.785 
L 923.43686 107.0496 
L 922.59375 109.128205 
L 922.073684 114.832941 
L 921.362989 116.232338 
L 920.631769 119.846346 
L 919.494465 120.774915 
L 918.906716 124.063729 
L 917.69084 124.243853 
L 916.634241 125.346398 
L 915.084 131.141965 
L 913.922449 132.263584 
L 912.958506 134.721391 
L 908.962343 137.193488 
L 908.43038 138.548571 
L 907.615385 141.759292 
L 906.495652 144.795 
L 905.336283 146.06864 
L 904.741071 149.585982 
L 903.828054 153.712432 
L 903.205479 155.133659 
L 902.571429 155.714356 
L 900.933962 158.983486 
L 900.257143 162.543853 
L 899.567308 163.807802 
L 898.507317 164.128696 
L 897.415842 167.202 
L 892.485 168.896 
L 891.274112 171.009114 
L 888.73822 173.975094 
L 882 173.975094 
L 880.021978 175.420892 
L 877.955056 177.401538 
L 877.423729 178.155871 
L 875.793103 179.407742 
L 872.357143 179.407742 
L 871.156627 180.962353 
L 869.926829 183.902164 
L 865.375796 184.308158 
L 861.868421 188.983311 
L 859.651007 191.146667 
L 856.551724 193.8 
L 852.428571 194.713151 
L 850.695652 198.403902 
L 848 199.371789 
L 845.181818 200.849362 
L 842.232558 202.869065 
L 837 205.476923 
L 834.786885 207.088 
L 832.5 210.42 
L 828.923077 212.726769 
L 825.157895 216.93913 
L 817 219.45253 
L 811.038462 222.710164 
L 809.475728 224.729627 
L 809.475728 226.8 
L 806.257426 227.501772 
L 801.183673 230.574638 
L 795.789474 235.365837 
L 790.043478 236.88 
L 786 238.420611 
L 781.772727 242.3925 
L 779.586207 244.8619 
L 775.058824 244.8619 
" style="fill:none;stroke:#9467bd;stroke-linecap:square;stroke-width:1.5;"/>
   </g>
   <g id="line2d_19">
    <path clip-path="url(#p4a22d68a1c)" d="M 972 60.48 
L 972 60.48 
L 970.576531 60.48 
L 969.133562 60.48 
L 969.098787 63.459501 
L 969.057996 64.218728 
L 969.021352 64.255097 
L 967.459313 64.269844 
L 967.375691 64.33 
L 967.315299 65.87 
L 965.671078 66.701723 
L 965.59847 67.536 
L 963.889535 67.564625 
L 963.794118 67.681485 
L 963.745562 68.531452 
L 963.67992 68.667342 
L 963.596386 68.754627 
L 963.406571 69.72 
L 963.263048 69.862154 
L 959.639241 70.00875 
L 959.534043 70.072989 
L 959.235294 71.04 
L 959.066225 72.051193 
L 958.863229 72.077793 
L 956.850679 73.056667 
L 956.5 74.017674 
L 956.318501 74.144789 
L 956.170213 74.209245 
L 955.980861 76.955094 
L 951.684466 78.78566 
L 951.127182 81.481976 
L 950.70229 81.63128 
L 950.427835 81.732 
L 950.031496 83.58 
L 949.798408 85.487542 
L 949.5 86.413747 
L 946.980978 88.399424 
L 946.566298 88.669831 
L 946.064789 88.807007 
L 945.466859 90.695474 
L 945.235465 95.929615 
L 944.679525 97.038261 
L 944.268072 100.13781 
L 943.757669 100.234537 
L 943.406832 103.074146 
L 942.771429 103.388108 
L 942.3 104.139 
L 941.31 109.48 
L 940.683673 109.728731 
L 940.141869 111.829008 
L 937.003484 114.076726 
L 936.757895 115.49134 
L 936.382979 118.236031 
L 935.740072 120.734526 
L 935.073529 121.53792 
L 934.8 123.946166 
L 934.382022 127.927059 
L 934.098113 128.840976 
L 933.809886 129.401311 
L 932.918288 132.582295 
L 932.611765 135.763279 
L 932.142857 136.595138 
L 931.662651 136.805983 
L 931.170732 139.613631 
L 927.405738 140.734504 
L 926.281513 142.700339 
L 925.099138 144.655099 
L 919.6875 144.892881 
L 918.493151 145.8576 
L 916.985915 147.463448 
L 916.726415 148.219826 
L 915.663462 148.731429 
L 913.115578 148.731429 
L 912.517766 150.036923 
L 911.284974 153.155821 
L 909 153.433293 
L 906.9 155.736 
L 905.420455 157.5 
L 903.872093 159.615701 
L 901.832335 160.237241 
L 900.981818 163.389393 
L 899.666667 164.38529 
L 897.363057 165.743529 
L 895.411765 167.492093 
L 892.285714 169.29973 
L 891.186207 170.413925 
L 889.478873 173.104615 
L 887.697842 174.702128 
L 885.2 177.6096 
L 880.453125 179.33845 
L 877.5 181.572632 
L 875.95082 183.421374 
L 875.95082 185.327442 
L 872.694915 185.81323 
L 869.210526 187.293543 
L 866.432432 191.901514 
L 861.45283 193.49129 
L 858.23301 194.572683 
L 855.980198 197.354689 
L 853.636364 200.254576 
L 851.195876 201.449231 
" style="fill:none;stroke:#8c564b;stroke-linecap:square;stroke-width:1.5;"/>
   </g>
   <g id="line2d_20">
    <path clip-path="url(#p4a22d68a1c)" d="M 972 60.48 
L 972 60.48 
L 970.8375 60.48 
L 968.483193 60.48 
L 968.443343 64.413243 
L 968.376623 65.092156 
L 967.126638 65.131644 
L 964.581979 65.805283 
L 963.202703 65.88878 
L 961.808219 67.252775 
L 959.142857 67.995634 
L 959.003106 68.737021 
L 954.918367 68.766406 
L 952.103011 68.901266 
L 951.912 69.669508 
L 951.782609 70.522736 
L 951.618506 70.635364 
L 951.247934 72.217769 
L 950.863636 72.398004 
L 947.842105 73.315331 
L 946.290102 73.390685 
L 945.752613 74.312554 
L 944.001761 76.714422 
L 943.601786 77.55552 
L 941.837838 79.182651 
L 941.114391 80.822903 
L 937.709497 81.733874 
L 937.322034 82.610835 
L 936.992395 85.772383 
L 931.682081 87.353157 
L 930.809055 90.39286 
L 930.15 90.576 
L 927.768293 91.431166 
L 925.404124 93.744 
L 924.820459 96.12 
L 924.221987 96.912 
L 920.245203 98.730185 
L 919.117647 99.046957 
L 918.179601 99.207318 
L 917.207675 100.820956 
L 916.455378 105.197037 
L 915.41958 106.278261 
L 914.344418 108.99 
L 913.227603 109.901461 
L 912.361179 112.332025 
L 911.165414 112.878987 
L 910.236641 113.664411 
L 908.458115 118.44 
L 907.272 119.664314 
L 905.861035 121.48821 
L 903.016484 123.596308 
L 902.443213 125.016585 
L 901.860335 127.480359 
L 900.866856 129.842715 
L 899.636888 130.797248 
L 896.791304 133.63531 
L 895.909091 137.02789 
L 895.460177 137.915916 
L 894.776786 138.458692 
L 893.372727 141.557746 
L 892.651376 144.885106 
L 891.668731 145.690883 
L 890.915625 146.617088 
L 890.148265 149.31759 
L 886.700637 151.126423 
L 884.7557 153.014891 
L 882.72 155.385763 
L 877.407534 155.616117 
L 875.759582 156.784865 
L 872.643885 158.460594 
L 871.56 159.193616 
L 870.077491 160.4106 
L 864.94186 160.4106 
L 864.105469 161.675544 
L 861.956175 164.43 
L 858.333333 164.695857 
L 855.455696 168.781395 
L 849.336207 170.486929 
L 846.634361 172.386667 
L 843.810811 172.981915 
L 842.645455 175.855135 
L 840.857143 176.798256 
L 837.764151 178.08 
L 835.182692 180.056471 
L 831.118812 182.8575 
L 828.272727 184.264138 
L 825.309278 187.176706 
L 822.221053 188.685 
L 818.172973 191.412766 
L 812.123596 193.024246 
L 806.546512 195.09525 
L 804.6 197.232 
L 803.609467 198.990868 
L 799.527273 199.437677 
L 794.1375 202.86 
L 789.576923 206.805246 
L 782.28 208.749767 
L 775.737931 209.741538 
L 772.993007 212.28 
L 768.728571 215.4425 
L 764.277372 216.526154 
" style="fill:none;stroke:#e377c2;stroke-linecap:square;stroke-width:1.5;"/>
   </g>
   <g id="line2d_21">
    <path clip-path="url(#p4a22d68a1c)" d="M 972 60.48 
L 957.071344 63.945 
L 950.078571 67.3792 
L 940.038186 73.017093 
L 935.783654 82.194663 
L 929.285541 87.606847 
L 918.09842 93.00375 
L 908.559902 98.088876 
L 898.056442 102.626911 
L 887.579336 108.584624 
L 880.259852 114.693112 
L 872.013547 121.167407 
L 863.365884 126.300896 
L 847.013464 133.179623 
L 838.284146 138.303529 
L 833.180488 143.491765 
L 824.533414 151.883053 
L 818.977914 159.015938 
L 808.507371 163.8 
L 797.241758 170.002577 
L 792.35122 174.33 
L 784.060123 178.827141 
L 780.036991 182.798886 
L 773.899628 187.894737 
L 770.325843 192.889429 
L 761.958386 197.954834 
L 752.735516 201.686154 
L 745.641509 205.775652 
L 740.264223 211.554 
L 731.641677 215.712 
L 724.875481 218.51958 
L 718.2 220.940488 
L 710.02987 223.670323 
L 704.291123 227.305724 
L 698.85059 230.813756 
L 694.102767 233.395556 
L 688.945839 237.430635 
L 681.84 240.321951 
L 677.979812 241.412093 
L 670.408907 243.858462 
L 666.392371 246.943601 
L 662.298487 249.275676 
L 654.79668 253.270815 
L 647.924791 254.727529 
L 641.882517 258.01807 
L 635.303116 261.267439 
L 631 263.975339 
L 622.948052 268.277333 
L 617.131579 269.730763 
L 610.820324 272.456471 
L 605.349558 275.223013 
L 600.273529 277.431724 
L 596.580882 280.09431 
L 591.208272 283.049343 
L 587.129464 285.477372 
L 579.65625 288.3361 
L 575.986567 291.659693 
L 572.29491 294.434542 
L 567.282934 295.859817 
L 562.968326 298.297317 
L 559.180995 301.411365 
L 553.5 303.274753 
L 549.068079 304.538335 
L 545.269289 307.545946 
L 540.779635 309.488288 
L 531.743119 311.771406 
L 525.083333 313.094513 
L 516.766458 314.253882 
L 511.848341 315.89611 
L 501.685714 318.568359 
L 499.435407 319.831024 
L 495.822115 321.586252 
L 485.117647 322.321622 
L 480.126623 324.314523 
L 474.434853 327.168277 
L 463.477833 328.005906 
L 457.564784 330.869712 
L 451.854271 332.993429 
L 446.934233 334.921263 
L 441.427119 336.29931 
L 438.589831 339.168322 
L 434.842105 341.0064 
L 428.734242 343.055361 
L 422.628866 345.4416 
L 416.417678 347.946667 
L 410.615251 349.514915 
L 406.222997 352.0944 
L 400.318739 353.843419 
L 392.878521 356.335665 
L 385.206406 357.811255 
L 377.368705 360.141392 
L 373.711191 361.825788 
L 372.200361 363.597935 
L 365.478261 364.210867 
L 358.30127 366.430582 
L 353.414234 369.020248 
L 345.788603 370.944 
L 338.845018 372.12 
L 334.580407 373.886787 
L 330.662338 375.956239 
L 323.949627 377.032968 
" style="fill:none;stroke:#7f7f7f;stroke-linecap:square;stroke-width:1.5;"/>
   </g>
   <g id="line2d_22">
    <path clip-path="url(#p4a22d68a1c)" d="M 972 60.48 
L 971.082237 60.48 
L 969.228477 60.48 
L 965.475501 60.48 
L 965.394589 63.648 
L 964.321101 64.20642 
L 962.290023 64.242548 
L 959.183746 64.786019 
L 955.040524 64.8589 
L 953.804348 65.976884 
L 951.610231 66.587124 
L 949.406135 67.2 
L 945.033457 67.239013 
L 942.631579 67.328471 
L 941.352273 68.51716 
L 939.072335 69.207436 
L 937.793103 69.313384 
L 937.215584 70.59865 
L 936.61823 70.724348 
L 933.043883 72.037241 
L 930.65287 72.128531 
L 928.843962 72.878722 
L 927.160714 74.807191 
L 926.536212 75.526721 
L 924.84507 76.86 
L 923.688312 78.235294 
L 919.534985 78.411089 
L 918.915929 78.530233 
L 918.28209 80.59786 
L 913.486322 81.967651 
L 912.214286 84.531859 
L 911.175355 84.653333 
L 908.855538 85.348533 
L 906.673171 87.311838 
L 905.70297 89.323784 
L 904.928214 90.029239 
L 901.426644 91.60587 
L 899.969019 91.873735 
L 898.835664 91.982176 
L 896.447788 93.322694 
L 895.086486 97.02863 
L 893.961609 97.949793 
L 892.656134 100.23125 
L 891.153409 101.045854 
L 890.067179 103.148482 
L 888.13556 103.524085 
L 887.135189 104.217102 
L 885.0611 108.114368 
L 883.253638 109.255082 
L 881.752643 110.852358 
L 879.198294 112.652818 
L 877.008565 113.76 
L 876.187905 115.815985 
L 874.929978 117.701626 
L 873.638581 118.358088 
L 870.202703 120.930923 
L 868.808219 124.539271 
L 867.616628 125.16 
L 866.643357 125.792877 
L 863.426887 128.336817 
L 862.653207 131.179723 
L 861.072289 131.744192 
L 859.719512 132.66288 
L 857.117647 135.744 
L 853.908416 136.667485 
L 849.098734 138.414098 
L 846.55814 140.472 
L 841.01061 141.761643 
L 838.892183 142.604813 
L 834.825 144.103933 
L 833.672269 144.632084 
L 832.104816 145.989153 
L 826.755882 145.989153 
L 825.462908 147.090129 
L 823.256024 149.713145 
L 818.636646 149.90713 
L 815.228571 153.653392 
L 809.475728 154.90125 
L 806.257426 156.625946 
L 802.909091 157.721002 
L 801.762712 160.426357 
L 799.42268 161.126916 
L 795.789474 162.80038 
L 789 164.530435 
L 784.978022 166.751296 
L 782.197026 167.800889 
L 779.332075 169.963526 
L 773.172414 171.077863 
L 767.692913 173.376 
L 761.04878 174.56126 
L 754.870293 176.696471 
L 752.110169 178.27122 
L 751.174468 180.218182 
L 746.373913 180.881551 
L 740.330357 184.00969 
L 735.041096 187.992 
L 725.593458 189.84 
L 719.698565 190.594286 
L 714.77561 192.519053 
L 709.656716 194.905301 
L 702.964286 196.131064 
" style="fill:none;stroke:#bcbd22;stroke-linecap:square;stroke-width:1.5;"/>
   </g>
   <g id="line2d_23">
    <path clip-path="url(#p4a22d68a1c)" d="M 972 60.48 
L 963.745562 62.832 
L 962.035714 65.178305 
L 956.112887 67.997288 
L 954.245455 73.926022 
L 949.748466 78.0779 
L 945.250515 81.319618 
L 938.067568 84.849953 
L 934.154574 86.971689 
L 927.714286 90.189474 
L 922.242038 94.790538 
L 919.240385 99.334255 
L 914.213592 103.24237 
L 901.724435 107.031164 
L 895.991351 110.599336 
L 891.93913 114.072 
L 889.672131 118.692 
L 885.987845 122.461788 
L 880.555184 125.082539 
L 871.448276 129.564731 
L 867.491639 132.637902 
L 862.662162 135.217895 
L 859.510251 137.631234 
L 855.321429 140.788421 
L 853.262791 142.743665 
L 849.028436 145.894737 
L 841.467857 147.704712 
L 835.837321 150.036923 
L 833.51087 153.656471 
L 826.523868 157.962 
L 821.423077 161.059314 
L 818.479899 163.234043 
L 811.160556 165.822515 
L 806.732484 168.960842 
L 803.737113 171.424691 
L 800.474708 173.425285 
L 795.215124 177.219512 
L 788.699208 178.532308 
L 785.129679 179.436923 
L 777.978437 182.512092 
L 773.913817 186.139771 
L 771.721992 188.501793 
L 768.02521 192.364822 
L 761.567797 194.285361 
L 756.771429 197.657651 
L 750.90566 200.436041 
L 748.065789 202.612629 
L 743.161961 206.849273 
L 739.359517 208.943163 
L 733.403963 211.299954 
L 727.928244 213.72878 
L 722.816794 216.252251 
L 720.9 218.51958 
L 716.75387 220.971028 
L 714.360937 223.090986 
L 707.059843 226.018237 
L 701.871224 230.038318 
L 695.682692 232.707541 
L 690.757235 234.431153 
L 688.017857 236.962914 
L 685.729642 240.578375 
L 679.323529 242.378182 
L 675.133005 243.969362 
L 671.397035 246.666 
L 667.509967 248.245653 
L 660.590909 250.815179 
L 656.33959 252.67639 
L 648.845217 254.056897 
L 644.542105 255.450647 
L 634.523979 258.717981 
L 631.5 259.663229 
L 627.530686 261.533494 
L 618.359779 262.430504 
L 613.95 265.052931 
L 608.154851 268.58087 
L 597.011342 269.48212 
L 591.982759 272.84339 
L 585.192233 275.975213 
L 579.862205 278.7456 
L 573.428571 280.486423 
L 570.972167 284.006471 
L 566.02994 286.384412 
L 556.875 288.931034 
L 550.069672 291.697009 
L 543.968944 295.15539 
L 537.80625 296.891017 
L 534.157563 299.6343 
L 528.673729 301.5747 
L 520.2 304.555472 
L 510.459519 306.329169 
L 502.463415 309.224071 
L 498.261745 311.156041 
L 497.199552 313.252414 
L 490.205418 314.415 
L 480.428571 317.87493 
L 474.01373 321.197838 
L 463.960465 323.712558 
L 455.260563 325.193514 
L 449.617021 327.410674 
L 443.892857 329.656741 
L 436.079137 331.3275 
" style="fill:none;stroke:#17becf;stroke-linecap:square;stroke-width:1.5;"/>
   </g>
   <g id="patch_3">
    <path d="M 135 448.56 
L 135 60.48 
" style="fill:none;stroke:#000000;stroke-linecap:square;stroke-linejoin:miter;stroke-width:0.8;"/>
   </g>
   <g id="patch_4">
    <path d="M 972 448.56 
L 972 60.48 
" style="fill:none;stroke:#000000;stroke-linecap:square;stroke-linejoin:miter;stroke-width:0.8;"/>
   </g>
   <g id="patch_5">
    <path d="M 135 448.56 
L 972 448.56 
" style="fill:none;stroke:#000000;stroke-linecap:square;stroke-linejoin:miter;stroke-width:0.8;"/>
   </g>
   <g id="patch_6">
    <path d="M 135 60.48 
L 972 60.48 
" style="fill:none;stroke:#000000;stroke-linecap:square;stroke-linejoin:miter;stroke-width:0.8;"/>
   </g>
   <g id="legend_1">
    <g id="patch_7">
     <path d="M 147.6 339.08625 
L 256.730625 339.08625 
Q 260.330625 339.08625 260.330625 335.48625 
L 260.330625 73.08 
Q 260.330625 69.48 256.730625 69.48 
L 147.6 69.48 
Q 144 69.48 144 73.08 
L 144 335.48625 
Q 144 339.08625 147.6 339.08625 
z
" style="fill:#ffffff;opacity:0.8;stroke:#cccccc;stroke-linejoin:miter;"/>
    </g>
    <g id="line2d_24">
     <path d="M 151.2 84.057188 
L 187.2 84.057188 
" style="fill:none;stroke:#1f77b4;stroke-linecap:square;stroke-width:1.5;"/>
    </g>
    <g id="line2d_25"/>
    <g id="text_15">
     <!-- 0.001 -->
     <g transform="translate(201.6 90.357188)scale(0.18 -0.18)">
      <use xlink:href="#DejaVuSans-30"/>
      <use x="63.623047" xlink:href="#DejaVuSans-2e"/>
      <use x="95.410156" xlink:href="#DejaVuSans-30"/>
      <use x="159.033203" xlink:href="#DejaVuSans-30"/>
      <use x="222.65625" xlink:href="#DejaVuSans-31"/>
     </g>
    </g>
    <g id="line2d_26">
     <path d="M 151.2 110.477812 
L 187.2 110.477812 
" style="fill:none;stroke:#ff7f0e;stroke-linecap:square;stroke-width:1.5;"/>
    </g>
    <g id="line2d_27"/>
    <g id="text_16">
     <!-- 0.011 -->
     <g transform="translate(201.6 116.777812)scale(0.18 -0.18)">
      <use xlink:href="#DejaVuSans-30"/>
      <use x="63.623047" xlink:href="#DejaVuSans-2e"/>
      <use x="95.410156" xlink:href="#DejaVuSans-30"/>
      <use x="159.033203" xlink:href="#DejaVuSans-31"/>
      <use x="222.65625" xlink:href="#DejaVuSans-31"/>
     </g>
    </g>
    <g id="line2d_28">
     <path d="M 151.2 136.898438 
L 187.2 136.898438 
" style="fill:none;stroke:#2ca02c;stroke-linecap:square;stroke-width:1.5;"/>
    </g>
    <g id="line2d_29"/>
    <g id="text_17">
     <!-- 0.021 -->
     <g transform="translate(201.6 143.198438)scale(0.18 -0.18)">
      <use xlink:href="#DejaVuSans-30"/>
      <use x="63.623047" xlink:href="#DejaVuSans-2e"/>
      <use x="95.410156" xlink:href="#DejaVuSans-30"/>
      <use x="159.033203" xlink:href="#DejaVuSans-32"/>
      <use x="222.65625" xlink:href="#DejaVuSans-31"/>
     </g>
    </g>
    <g id="line2d_30">
     <path d="M 151.2 163.319062 
L 187.2 163.319062 
" style="fill:none;stroke:#d62728;stroke-linecap:square;stroke-width:1.5;"/>
    </g>
    <g id="line2d_31"/>
    <g id="text_18">
     <!-- 0.031 -->
     <g transform="translate(201.6 169.619062)scale(0.18 -0.18)">
      <defs>
       <path d="M 2597 2516 
Q 3050 2419 3304 2112 
Q 3559 1806 3559 1356 
Q 3559 666 3084 287 
Q 2609 -91 1734 -91 
Q 1441 -91 1130 -33 
Q 819 25 488 141 
L 488 750 
Q 750 597 1062 519 
Q 1375 441 1716 441 
Q 2309 441 2620 675 
Q 2931 909 2931 1356 
Q 2931 1769 2642 2001 
Q 2353 2234 1838 2234 
L 1294 2234 
L 1294 2753 
L 1863 2753 
Q 2328 2753 2575 2939 
Q 2822 3125 2822 3475 
Q 2822 3834 2567 4026 
Q 2313 4219 1838 4219 
Q 1578 4219 1281 4162 
Q 984 4106 628 3988 
L 628 4550 
Q 988 4650 1302 4700 
Q 1616 4750 1894 4750 
Q 2613 4750 3031 4423 
Q 3450 4097 3450 3541 
Q 3450 3153 3228 2886 
Q 3006 2619 2597 2516 
z
" id="DejaVuSans-33" transform="scale(0.015625)"/>
      </defs>
      <use xlink:href="#DejaVuSans-30"/>
      <use x="63.623047" xlink:href="#DejaVuSans-2e"/>
      <use x="95.410156" xlink:href="#DejaVuSans-30"/>
      <use x="159.033203" xlink:href="#DejaVuSans-33"/>
      <use x="222.65625" xlink:href="#DejaVuSans-31"/>
     </g>
    </g>
    <g id="line2d_32">
     <path d="M 151.2 189.739688 
L 187.2 189.739688 
" style="fill:none;stroke:#9467bd;stroke-linecap:square;stroke-width:1.5;"/>
    </g>
    <g id="line2d_33"/>
    <g id="text_19">
     <!-- 0.041 -->
     <g transform="translate(201.6 196.039688)scale(0.18 -0.18)">
      <use xlink:href="#DejaVuSans-30"/>
      <use x="63.623047" xlink:href="#DejaVuSans-2e"/>
      <use x="95.410156" xlink:href="#DejaVuSans-30"/>
      <use x="159.033203" xlink:href="#DejaVuSans-34"/>
      <use x="222.65625" xlink:href="#DejaVuSans-31"/>
     </g>
    </g>
    <g id="line2d_34">
     <path d="M 151.2 216.160312 
L 187.2 216.160312 
" style="fill:none;stroke:#8c564b;stroke-linecap:square;stroke-width:1.5;"/>
    </g>
    <g id="line2d_35"/>
    <g id="text_20">
     <!-- 0.051 -->
     <g transform="translate(201.6 222.460312)scale(0.18 -0.18)">
      <defs>
       <path d="M 691 4666 
L 3169 4666 
L 3169 4134 
L 1269 4134 
L 1269 2991 
Q 1406 3038 1543 3061 
Q 1681 3084 1819 3084 
Q 2600 3084 3056 2656 
Q 3513 2228 3513 1497 
Q 3513 744 3044 326 
Q 2575 -91 1722 -91 
Q 1428 -91 1123 -41 
Q 819 9 494 109 
L 494 744 
Q 775 591 1075 516 
Q 1375 441 1709 441 
Q 2250 441 2565 725 
Q 2881 1009 2881 1497 
Q 2881 1984 2565 2268 
Q 2250 2553 1709 2553 
Q 1456 2553 1204 2497 
Q 953 2441 691 2322 
L 691 4666 
z
" id="DejaVuSans-35" transform="scale(0.015625)"/>
      </defs>
      <use xlink:href="#DejaVuSans-30"/>
      <use x="63.623047" xlink:href="#DejaVuSans-2e"/>
      <use x="95.410156" xlink:href="#DejaVuSans-30"/>
      <use x="159.033203" xlink:href="#DejaVuSans-35"/>
      <use x="222.65625" xlink:href="#DejaVuSans-31"/>
     </g>
    </g>
    <g id="line2d_36">
     <path d="M 151.2 242.580937 
L 187.2 242.580937 
" style="fill:none;stroke:#e377c2;stroke-linecap:square;stroke-width:1.5;"/>
    </g>
    <g id="line2d_37"/>
    <g id="text_21">
     <!-- 0.061 -->
     <g transform="translate(201.6 248.880937)scale(0.18 -0.18)">
      <use xlink:href="#DejaVuSans-30"/>
      <use x="63.623047" xlink:href="#DejaVuSans-2e"/>
      <use x="95.410156" xlink:href="#DejaVuSans-30"/>
      <use x="159.033203" xlink:href="#DejaVuSans-36"/>
      <use x="222.65625" xlink:href="#DejaVuSans-31"/>
     </g>
    </g>
    <g id="line2d_38">
     <path d="M 151.2 269.001562 
L 187.2 269.001562 
" style="fill:none;stroke:#7f7f7f;stroke-linecap:square;stroke-width:1.5;"/>
    </g>
    <g id="line2d_39"/>
    <g id="text_22">
     <!-- 0.071 -->
     <g transform="translate(201.6 275.301562)scale(0.18 -0.18)">
      <defs>
       <path d="M 525 4666 
L 3525 4666 
L 3525 4397 
L 1831 0 
L 1172 0 
L 2766 4134 
L 525 4134 
L 525 4666 
z
" id="DejaVuSans-37" transform="scale(0.015625)"/>
      </defs>
      <use xlink:href="#DejaVuSans-30"/>
      <use x="63.623047" xlink:href="#DejaVuSans-2e"/>
      <use x="95.410156" xlink:href="#DejaVuSans-30"/>
      <use x="159.033203" xlink:href="#DejaVuSans-37"/>
      <use x="222.65625" xlink:href="#DejaVuSans-31"/>
     </g>
    </g>
    <g id="line2d_40">
     <path d="M 151.2 295.422188 
L 187.2 295.422188 
" style="fill:none;stroke:#bcbd22;stroke-linecap:square;stroke-width:1.5;"/>
    </g>
    <g id="line2d_41"/>
    <g id="text_23">
     <!-- 0.081 -->
     <g transform="translate(201.6 301.722188)scale(0.18 -0.18)">
      <use xlink:href="#DejaVuSans-30"/>
      <use x="63.623047" xlink:href="#DejaVuSans-2e"/>
      <use x="95.410156" xlink:href="#DejaVuSans-30"/>
      <use x="159.033203" xlink:href="#DejaVuSans-38"/>
      <use x="222.65625" xlink:href="#DejaVuSans-31"/>
     </g>
    </g>
    <g id="line2d_42">
     <path d="M 151.2 321.842812 
L 187.2 321.842812 
" style="fill:none;stroke:#17becf;stroke-linecap:square;stroke-width:1.5;"/>
    </g>
    <g id="line2d_43"/>
    <g id="text_24">
     <!-- 0.091 -->
     <g transform="translate(201.6 328.142812)scale(0.18 -0.18)">
      <defs>
       <path d="M 703 97 
L 703 672 
Q 941 559 1184 500 
Q 1428 441 1663 441 
Q 2288 441 2617 861 
Q 2947 1281 2994 2138 
Q 2813 1869 2534 1725 
Q 2256 1581 1919 1581 
Q 1219 1581 811 2004 
Q 403 2428 403 3163 
Q 403 3881 828 4315 
Q 1253 4750 1959 4750 
Q 2769 4750 3195 4129 
Q 3622 3509 3622 2328 
Q 3622 1225 3098 567 
Q 2575 -91 1691 -91 
Q 1453 -91 1209 -44 
Q 966 3 703 97 
z
M 1959 2075 
Q 2384 2075 2632 2365 
Q 2881 2656 2881 3163 
Q 2881 3666 2632 3958 
Q 2384 4250 1959 4250 
Q 1534 4250 1286 3958 
Q 1038 3666 1038 3163 
Q 1038 2656 1286 2365 
Q 1534 2075 1959 2075 
z
" id="DejaVuSans-39" transform="scale(0.015625)"/>
      </defs>
      <use xlink:href="#DejaVuSans-30"/>
      <use x="63.623047" xlink:href="#DejaVuSans-2e"/>
      <use x="95.410156" xlink:href="#DejaVuSans-30"/>
      <use x="159.033203" xlink:href="#DejaVuSans-39"/>
      <use x="222.65625" xlink:href="#DejaVuSans-31"/>
     </g>
    </g>
   </g>
  </g>
 </g>
 <defs>
  <clipPath id="p4a22d68a1c">
   <rect height="388.08" width="837" x="135" y="60.48"/>
  </clipPath>
 </defs>
</svg>
