<?xml version="1.0" encoding="utf-8" standalone="no"?>
<!DOCTYPE svg PUBLIC "-//W3C//DTD SVG 1.1//EN"
  "http://www.w3.org/Graphics/SVG/1.1/DTD/svg11.dtd">
<svg height="504pt" version="1.1" viewBox="0 0 1080 504" width="1080pt" xmlns="http://www.w3.org/2000/svg" xmlns:xlink="http://www.w3.org/1999/xlink">
 <metadata>
  <rdf:RDF xmlns:cc="http://creativecommons.org/ns#" xmlns:dc="http://purl.org/dc/elements/1.1/" xmlns:rdf="http://www.w3.org/1999/02/22-rdf-syntax-ns#">
   <cc:Work>
    <dc:type rdf:resource="http://purl.org/dc/dcmitype/StillImage"/>
    <dc:date>2022-01-07T13:22:37.504838</dc:date>
    <dc:format>image/svg+xml</dc:format>
    <dc:creator>
     <cc:Agent>
      <dc:title>Matplotlib v3.4.3, https://matplotlib.org/</dc:title>
     </cc:Agent>
    </dc:creator>
   </cc:Work>
  </rdf:RDF>
 </metadata>
 <defs>
  <style type="text/css">*{stroke-linecap:butt;stroke-linejoin:round;}</style>
 </defs>
 <g id="figure_1">
  <g id="patch_1">
   <path d="M 0 504 
L 1080 504 
L 1080 0 
L 0 0 
z
" style="fill:#ffffff;"/>
  </g>
  <g id="axes_1">
   <g id="patch_2">
    <path d="M 135 448.56 
L 972 448.56 
L 972 60.48 
L 135 60.48 
z
" style="fill:#ffffff;"/>
   </g>
   <g id="matplotlib.axis_1">
    <g id="xtick_1">
     <g id="line2d_1">
      <defs>
       <path d="M 0 0 
L 0 3.5 
" id="m3f5690fadb" style="stroke:#000000;stroke-width:0.8;"/>
      </defs>
      <g>
       <use style="stroke:#000000;stroke-width:0.8;" x="135" xlink:href="#m3f5690fadb" y="448.56"/>
      </g>
     </g>
     <g id="text_1">
      <!-- 0.0 -->
      <g transform="translate(120.687187 469.237188)scale(0.18 -0.18)">
       <defs>
        <path d="M 2034 4250 
Q 1547 4250 1301 3770 
Q 1056 3291 1056 2328 
Q 1056 1369 1301 889 
Q 1547 409 2034 409 
Q 2525 409 2770 889 
Q 3016 1369 3016 2328 
Q 3016 3291 2770 3770 
Q 2525 4250 2034 4250 
z
M 2034 4750 
Q 2819 4750 3233 4129 
Q 3647 3509 3647 2328 
Q 3647 1150 3233 529 
Q 2819 -91 2034 -91 
Q 1250 -91 836 529 
Q 422 1150 422 2328 
Q 422 3509 836 4129 
Q 1250 4750 2034 4750 
z
" id="DejaVuSans-30" transform="scale(0.015625)"/>
        <path d="M 684 794 
L 1344 794 
L 1344 0 
L 684 0 
L 684 794 
z
" id="DejaVuSans-2e" transform="scale(0.015625)"/>
       </defs>
       <use xlink:href="#DejaVuSans-30"/>
       <use x="63.623047" xlink:href="#DejaVuSans-2e"/>
       <use x="95.410156" xlink:href="#DejaVuSans-30"/>
      </g>
     </g>
    </g>
    <g id="xtick_2">
     <g id="line2d_2">
      <g>
       <use style="stroke:#000000;stroke-width:0.8;" x="302.4" xlink:href="#m3f5690fadb" y="448.56"/>
      </g>
     </g>
     <g id="text_2">
      <!-- 0.2 -->
      <g transform="translate(288.087187 469.237188)scale(0.18 -0.18)">
       <defs>
        <path d="M 1228 531 
L 3431 531 
L 3431 0 
L 469 0 
L 469 531 
Q 828 903 1448 1529 
Q 2069 2156 2228 2338 
Q 2531 2678 2651 2914 
Q 2772 3150 2772 3378 
Q 2772 3750 2511 3984 
Q 2250 4219 1831 4219 
Q 1534 4219 1204 4116 
Q 875 4013 500 3803 
L 500 4441 
Q 881 4594 1212 4672 
Q 1544 4750 1819 4750 
Q 2544 4750 2975 4387 
Q 3406 4025 3406 3419 
Q 3406 3131 3298 2873 
Q 3191 2616 2906 2266 
Q 2828 2175 2409 1742 
Q 1991 1309 1228 531 
z
" id="DejaVuSans-32" transform="scale(0.015625)"/>
       </defs>
       <use xlink:href="#DejaVuSans-30"/>
       <use x="63.623047" xlink:href="#DejaVuSans-2e"/>
       <use x="95.410156" xlink:href="#DejaVuSans-32"/>
      </g>
     </g>
    </g>
    <g id="xtick_3">
     <g id="line2d_3">
      <g>
       <use style="stroke:#000000;stroke-width:0.8;" x="469.8" xlink:href="#m3f5690fadb" y="448.56"/>
      </g>
     </g>
     <g id="text_3">
      <!-- 0.4 -->
      <g transform="translate(455.487188 469.237188)scale(0.18 -0.18)">
       <defs>
        <path d="M 2419 4116 
L 825 1625 
L 2419 1625 
L 2419 4116 
z
M 2253 4666 
L 3047 4666 
L 3047 1625 
L 3713 1625 
L 3713 1100 
L 3047 1100 
L 3047 0 
L 2419 0 
L 2419 1100 
L 313 1100 
L 313 1709 
L 2253 4666 
z
" id="DejaVuSans-34" transform="scale(0.015625)"/>
       </defs>
       <use xlink:href="#DejaVuSans-30"/>
       <use x="63.623047" xlink:href="#DejaVuSans-2e"/>
       <use x="95.410156" xlink:href="#DejaVuSans-34"/>
      </g>
     </g>
    </g>
    <g id="xtick_4">
     <g id="line2d_4">
      <g>
       <use style="stroke:#000000;stroke-width:0.8;" x="637.2" xlink:href="#m3f5690fadb" y="448.56"/>
      </g>
     </g>
     <g id="text_4">
      <!-- 0.6 -->
      <g transform="translate(622.887188 469.237188)scale(0.18 -0.18)">
       <defs>
        <path d="M 2113 2584 
Q 1688 2584 1439 2293 
Q 1191 2003 1191 1497 
Q 1191 994 1439 701 
Q 1688 409 2113 409 
Q 2538 409 2786 701 
Q 3034 994 3034 1497 
Q 3034 2003 2786 2293 
Q 2538 2584 2113 2584 
z
M 3366 4563 
L 3366 3988 
Q 3128 4100 2886 4159 
Q 2644 4219 2406 4219 
Q 1781 4219 1451 3797 
Q 1122 3375 1075 2522 
Q 1259 2794 1537 2939 
Q 1816 3084 2150 3084 
Q 2853 3084 3261 2657 
Q 3669 2231 3669 1497 
Q 3669 778 3244 343 
Q 2819 -91 2113 -91 
Q 1303 -91 875 529 
Q 447 1150 447 2328 
Q 447 3434 972 4092 
Q 1497 4750 2381 4750 
Q 2619 4750 2861 4703 
Q 3103 4656 3366 4563 
z
" id="DejaVuSans-36" transform="scale(0.015625)"/>
       </defs>
       <use xlink:href="#DejaVuSans-30"/>
       <use x="63.623047" xlink:href="#DejaVuSans-2e"/>
       <use x="95.410156" xlink:href="#DejaVuSans-36"/>
      </g>
     </g>
    </g>
    <g id="xtick_5">
     <g id="line2d_5">
      <g>
       <use style="stroke:#000000;stroke-width:0.8;" x="804.6" xlink:href="#m3f5690fadb" y="448.56"/>
      </g>
     </g>
     <g id="text_5">
      <!-- 0.8 -->
      <g transform="translate(790.287188 469.237188)scale(0.18 -0.18)">
       <defs>
        <path d="M 2034 2216 
Q 1584 2216 1326 1975 
Q 1069 1734 1069 1313 
Q 1069 891 1326 650 
Q 1584 409 2034 409 
Q 2484 409 2743 651 
Q 3003 894 3003 1313 
Q 3003 1734 2745 1975 
Q 2488 2216 2034 2216 
z
M 1403 2484 
Q 997 2584 770 2862 
Q 544 3141 544 3541 
Q 544 4100 942 4425 
Q 1341 4750 2034 4750 
Q 2731 4750 3128 4425 
Q 3525 4100 3525 3541 
Q 3525 3141 3298 2862 
Q 3072 2584 2669 2484 
Q 3125 2378 3379 2068 
Q 3634 1759 3634 1313 
Q 3634 634 3220 271 
Q 2806 -91 2034 -91 
Q 1263 -91 848 271 
Q 434 634 434 1313 
Q 434 1759 690 2068 
Q 947 2378 1403 2484 
z
M 1172 3481 
Q 1172 3119 1398 2916 
Q 1625 2713 2034 2713 
Q 2441 2713 2670 2916 
Q 2900 3119 2900 3481 
Q 2900 3844 2670 4047 
Q 2441 4250 2034 4250 
Q 1625 4250 1398 4047 
Q 1172 3844 1172 3481 
z
" id="DejaVuSans-38" transform="scale(0.015625)"/>
       </defs>
       <use xlink:href="#DejaVuSans-30"/>
       <use x="63.623047" xlink:href="#DejaVuSans-2e"/>
       <use x="95.410156" xlink:href="#DejaVuSans-38"/>
      </g>
     </g>
    </g>
    <g id="xtick_6">
     <g id="line2d_6">
      <g>
       <use style="stroke:#000000;stroke-width:0.8;" x="972" xlink:href="#m3f5690fadb" y="448.56"/>
      </g>
     </g>
     <g id="text_6">
      <!-- 1.0 -->
      <g transform="translate(957.687188 469.237188)scale(0.18 -0.18)">
       <defs>
        <path d="M 794 531 
L 1825 531 
L 1825 4091 
L 703 3866 
L 703 4441 
L 1819 4666 
L 2450 4666 
L 2450 531 
L 3481 531 
L 3481 0 
L 794 0 
L 794 531 
z
" id="DejaVuSans-31" transform="scale(0.015625)"/>
       </defs>
       <use xlink:href="#DejaVuSans-31"/>
       <use x="63.623047" xlink:href="#DejaVuSans-2e"/>
       <use x="95.410156" xlink:href="#DejaVuSans-30"/>
      </g>
     </g>
    </g>
    <g id="text_7">
     <!-- $FPR_{Fair}$ -->
     <g transform="translate(518.08 493.697187)scale(0.22 -0.22)">
      <defs>
       <path d="M 1081 4666 
L 3756 4666 
L 3653 4134 
L 1606 4134 
L 1338 2759 
L 3188 2759 
L 3084 2228 
L 1234 2228 
L 800 0 
L 172 0 
L 1081 4666 
z
" id="DejaVuSans-Oblique-46" transform="scale(0.015625)"/>
       <path d="M 1081 4666 
L 2541 4666 
Q 3178 4666 3512 4369 
Q 3847 4072 3847 3500 
Q 3847 2731 3353 2303 
Q 2859 1875 1966 1875 
L 1172 1875 
L 806 0 
L 172 0 
L 1081 4666 
z
M 1613 4147 
L 1275 2394 
L 2069 2394 
Q 2606 2394 2893 2669 
Q 3181 2944 3181 3456 
Q 3181 3784 2986 3965 
Q 2791 4147 2438 4147 
L 1613 4147 
z
" id="DejaVuSans-Oblique-50" transform="scale(0.015625)"/>
       <path d="M 1613 4147 
L 1294 2491 
L 2106 2491 
Q 2584 2491 2879 2755 
Q 3175 3019 3175 3444 
Q 3175 3784 2976 3965 
Q 2778 4147 2406 4147 
L 1613 4147 
z
M 2772 2241 
Q 2972 2194 3105 2009 
Q 3238 1825 3413 1275 
L 3809 0 
L 3144 0 
L 2778 1197 
Q 2638 1659 2453 1815 
Q 2269 1972 1888 1972 
L 1191 1972 
L 806 0 
L 172 0 
L 1081 4666 
L 2503 4666 
Q 3150 4666 3495 4373 
Q 3841 4081 3841 3531 
Q 3841 3044 3547 2687 
Q 3253 2331 2772 2241 
z
" id="DejaVuSans-Oblique-52" transform="scale(0.015625)"/>
       <path d="M 3438 1997 
L 3047 0 
L 2472 0 
L 2578 531 
Q 2325 219 2001 64 
Q 1678 -91 1281 -91 
Q 834 -91 548 182 
Q 263 456 263 884 
Q 263 1497 752 1853 
Q 1241 2209 2100 2209 
L 2900 2209 
L 2931 2363 
Q 2938 2388 2941 2417 
Q 2944 2447 2944 2509 
Q 2944 2788 2717 2942 
Q 2491 3097 2081 3097 
Q 1800 3097 1504 3025 
Q 1209 2953 897 2809 
L 997 3341 
Q 1322 3463 1633 3523 
Q 1944 3584 2234 3584 
Q 2853 3584 3176 3315 
Q 3500 3047 3500 2534 
Q 3500 2431 3484 2292 
Q 3469 2153 3438 1997 
z
M 2816 1759 
L 2241 1759 
Q 1534 1759 1195 1570 
Q 856 1381 856 984 
Q 856 709 1029 553 
Q 1203 397 1509 397 
Q 1978 397 2328 733 
Q 2678 1069 2791 1631 
L 2816 1759 
z
" id="DejaVuSans-Oblique-61" transform="scale(0.015625)"/>
       <path d="M 1172 4863 
L 1747 4863 
L 1606 4134 
L 1031 4134 
L 1172 4863 
z
M 909 3500 
L 1484 3500 
L 800 0 
L 225 0 
L 909 3500 
z
" id="DejaVuSans-Oblique-69" transform="scale(0.015625)"/>
       <path d="M 2853 2969 
Q 2766 3016 2653 3041 
Q 2541 3066 2413 3066 
Q 1953 3066 1609 2717 
Q 1266 2369 1153 1784 
L 800 0 
L 225 0 
L 909 3500 
L 1484 3500 
L 1375 2956 
Q 1603 3259 1920 3421 
Q 2238 3584 2597 3584 
Q 2691 3584 2781 3573 
Q 2872 3563 2963 3538 
L 2853 2969 
z
" id="DejaVuSans-Oblique-72" transform="scale(0.015625)"/>
      </defs>
      <use transform="translate(0 0.09375)" xlink:href="#DejaVuSans-Oblique-46"/>
      <use transform="translate(57.519531 0.09375)" xlink:href="#DejaVuSans-Oblique-50"/>
      <use transform="translate(117.822266 0.09375)" xlink:href="#DejaVuSans-Oblique-52"/>
      <use transform="translate(187.304688 -16.3125)scale(0.7)" xlink:href="#DejaVuSans-Oblique-46"/>
      <use transform="translate(227.568359 -16.3125)scale(0.7)" xlink:href="#DejaVuSans-Oblique-61"/>
      <use transform="translate(270.463867 -16.3125)scale(0.7)" xlink:href="#DejaVuSans-Oblique-69"/>
      <use transform="translate(289.912109 -16.3125)scale(0.7)" xlink:href="#DejaVuSans-Oblique-72"/>
     </g>
    </g>
   </g>
   <g id="matplotlib.axis_2">
    <g id="ytick_1">
     <g id="line2d_7">
      <defs>
       <path d="M 0 0 
L -3.5 0 
" id="m3d128826ce" style="stroke:#000000;stroke-width:0.8;"/>
      </defs>
      <g>
       <use style="stroke:#000000;stroke-width:0.8;" x="135" xlink:href="#m3d128826ce" y="448.56"/>
      </g>
     </g>
     <g id="text_8">
      <!-- 0.0 -->
      <g transform="translate(99.374375 455.398594)scale(0.18 -0.18)">
       <use xlink:href="#DejaVuSans-30"/>
       <use x="63.623047" xlink:href="#DejaVuSans-2e"/>
       <use x="95.410156" xlink:href="#DejaVuSans-30"/>
      </g>
     </g>
    </g>
    <g id="ytick_2">
     <g id="line2d_8">
      <g>
       <use style="stroke:#000000;stroke-width:0.8;" x="135" xlink:href="#m3d128826ce" y="370.944"/>
      </g>
     </g>
     <g id="text_9">
      <!-- 0.2 -->
      <g transform="translate(99.374375 377.782594)scale(0.18 -0.18)">
       <use xlink:href="#DejaVuSans-30"/>
       <use x="63.623047" xlink:href="#DejaVuSans-2e"/>
       <use x="95.410156" xlink:href="#DejaVuSans-32"/>
      </g>
     </g>
    </g>
    <g id="ytick_3">
     <g id="line2d_9">
      <g>
       <use style="stroke:#000000;stroke-width:0.8;" x="135" xlink:href="#m3d128826ce" y="293.328"/>
      </g>
     </g>
     <g id="text_10">
      <!-- 0.4 -->
      <g transform="translate(99.374375 300.166594)scale(0.18 -0.18)">
       <use xlink:href="#DejaVuSans-30"/>
       <use x="63.623047" xlink:href="#DejaVuSans-2e"/>
       <use x="95.410156" xlink:href="#DejaVuSans-34"/>
      </g>
     </g>
    </g>
    <g id="ytick_4">
     <g id="line2d_10">
      <g>
       <use style="stroke:#000000;stroke-width:0.8;" x="135" xlink:href="#m3d128826ce" y="215.712"/>
      </g>
     </g>
     <g id="text_11">
      <!-- 0.6 -->
      <g transform="translate(99.374375 222.550594)scale(0.18 -0.18)">
       <use xlink:href="#DejaVuSans-30"/>
       <use x="63.623047" xlink:href="#DejaVuSans-2e"/>
       <use x="95.410156" xlink:href="#DejaVuSans-36"/>
      </g>
     </g>
    </g>
    <g id="ytick_5">
     <g id="line2d_11">
      <g>
       <use style="stroke:#000000;stroke-width:0.8;" x="135" xlink:href="#m3d128826ce" y="138.096"/>
      </g>
     </g>
     <g id="text_12">
      <!-- 0.8 -->
      <g transform="translate(99.374375 144.934594)scale(0.18 -0.18)">
       <use xlink:href="#DejaVuSans-30"/>
       <use x="63.623047" xlink:href="#DejaVuSans-2e"/>
       <use x="95.410156" xlink:href="#DejaVuSans-38"/>
      </g>
     </g>
    </g>
    <g id="ytick_6">
     <g id="line2d_12">
      <g>
       <use style="stroke:#000000;stroke-width:0.8;" x="135" xlink:href="#m3d128826ce" y="60.48"/>
      </g>
     </g>
     <g id="text_13">
      <!-- 1.0 -->
      <g transform="translate(99.374375 67.318594)scale(0.18 -0.18)">
       <use xlink:href="#DejaVuSans-31"/>
       <use x="63.623047" xlink:href="#DejaVuSans-2e"/>
       <use x="95.410156" xlink:href="#DejaVuSans-30"/>
      </g>
     </g>
    </g>
    <g id="text_14">
     <!-- $TPR_{Fair}$ -->
     <g transform="translate(90.799062 290.27)rotate(-90)scale(0.22 -0.22)">
      <defs>
       <path d="M 378 4666 
L 4325 4666 
L 4225 4134 
L 2559 4134 
L 1759 0 
L 1125 0 
L 1925 4134 
L 275 4134 
L 378 4666 
z
" id="DejaVuSans-Oblique-54" transform="scale(0.015625)"/>
      </defs>
      <use transform="translate(0 0.09375)" xlink:href="#DejaVuSans-Oblique-54"/>
      <use transform="translate(61.083984 0.09375)" xlink:href="#DejaVuSans-Oblique-50"/>
      <use transform="translate(121.386719 0.09375)" xlink:href="#DejaVuSans-Oblique-52"/>
      <use transform="translate(190.869141 -16.3125)scale(0.7)" xlink:href="#DejaVuSans-Oblique-46"/>
      <use transform="translate(231.132812 -16.3125)scale(0.7)" xlink:href="#DejaVuSans-Oblique-61"/>
      <use transform="translate(274.02832 -16.3125)scale(0.7)" xlink:href="#DejaVuSans-Oblique-69"/>
      <use transform="translate(293.476562 -16.3125)scale(0.7)" xlink:href="#DejaVuSans-Oblique-72"/>
     </g>
    </g>
   </g>
   <g id="line2d_13">
    <path clip-path="url(#p72ccd74bba)" d="M 135 448.56 
L 972 60.48 
" style="fill:none;stroke:#ff0000;stroke-dasharray:5.55,2.4;stroke-dashoffset:0;stroke-width:1.5;"/>
   </g>
   <g id="line2d_14">
    <path clip-path="url(#p72ccd74bba)" d="M 972 60.48 
L 971.664798 60.801524 
L 971.550978 60.909134 
L 971.368744 61.052706 
L 971.004003 61.268125 
L 970.546086 61.376176 
L 970.016426 61.412971 
L 969.232718 61.521199 
L 968.556595 61.66602 
L 967.578252 61.774799 
L 965.791452 61.88387 
L 964.480304 61.992281 
L 963.638594 62.101053 
L 963.043389 62.174987 
L 962.632607 62.285023 
L 961.960984 62.39475 
L 961.381167 62.613897 
L 961.104955 62.687262 
L 960.627459 62.726378 
L 960.42747 62.837716 
L 959.977379 62.877574 
L 959.798623 62.987963 
L 959.462306 63.027651 
L 959.280227 63.031959 
L 959.00394 63.108328 
L 958.770388 63.292703 
L 958.373616 63.297477 
L 958.17389 63.301467 
L 957.787403 63.306805 
L 957.666009 63.34813 
L 957.442385 63.39014 
L 957.367663 63.395397 
L 957.117065 63.400953 
L 957.040351 63.403738 
L 956.745398 63.407927 
L 956.409178 63.415215 
L 955.981234 63.42 
L 955.480778 63.425084 
L 955.181812 63.431889 
L 955.09011 63.473578 
L 954.914577 63.515095 
L 954.645933 63.521556 
L 954.333162 63.527749 
L 953.96109 63.535154 
L 953.512212 63.578896 
L 952.907847 63.623115 
L 952.558479 63.668763 
L 952.452171 63.714 
L 952.292167 63.724497 
L 952.036194 63.732174 
L 951.77243 63.81824 
L 951.507463 63.864978 
L 951.217859 63.874736 
L 950.632343 63.88455 
L 950.445487 63.896471 
L 950.313512 63.944305 
L 950.018182 63.95511 
L 949.833252 63.9688 
L 949.710663 63.97657 
L 949.509718 64.064216 
L 949.320385 64.11356 
L 949.151465 64.122828 
L 948.951955 64.134013 
L 948.766029 64.264397 
L 948.461665 64.355207 
L 947.920069 64.405665 
L 947.708264 64.421123 
L 947.533034 64.433825 
L 947.363067 64.444128 
L 947.113414 64.615844 
L 946.877676 64.829943 
L 946.614192 64.842282 
L 946.169429 64.855612 
L 945.952282 64.868561 
L 945.765913 65.005954 
L 945.457485 65.067527 
L 944.889232 65.084198 
L 944.677181 65.146126 
L 944.158486 65.242743 
L 943.921246 65.392937 
L 943.631092 65.409471 
L 943.200652 65.471111 
L 942.823234 65.489675 
L 942.610619 65.517228 
L 942.388098 65.540049 
L 942.087382 65.55913 
L 941.695368 65.630738 
L 941.369481 65.741365 
L 940.933164 65.766836 
L 940.387524 65.8822 
L 939.909855 66.099218 
L 939.511303 66.138572 
L 939.239419 66.265545 
L 938.8842 66.39489 
L 938.531834 66.491801 
L 938.183323 66.677161 
L 937.888755 66.732632 
L 937.540628 66.78379 
L 937.140839 66.948787 
L 936.707125 67.01237 
L 936.172694 67.231734 
" style="fill:none;stroke:#1f77b4;stroke-linecap:square;stroke-width:1.5;"/>
   </g>
   <g id="line2d_15">
    <path clip-path="url(#p72ccd74bba)" d="M 972 60.48 
L 900.962427 99.311714 
L 841.105192 130.920414 
L 790.892976 157.002657 
L 747.877236 178.770393 
L 711.183646 197.176171 
L 679.281997 213.078006 
L 651.182892 226.863064 
L 626.544196 238.919973 
L 604.293094 249.459612 
L 584.146113 258.791091 
L 566.134458 266.852987 
L 549.622426 273.854397 
L 534.341763 280.110569 
L 520.159379 285.828357 
L 506.978163 291.007702 
L 494.722705 295.886291 
L 483.146616 300.330131 
L 472.205841 304.317289 
L 461.886684 308.049135 
L 452.156537 311.588439 
L 442.950138 314.931461 
L 434.175398 318.06895 
L 425.934269 321.09868 
L 417.879489 323.999014 
L 410.237935 326.764373 
L 402.909114 329.445953 
L 395.809569 331.93839 
L 389.007558 334.326327 
L 382.564838 336.721075 
L 376.365537 339.010284 
L 370.453426 341.126256 
L 364.796848 343.244233 
L 359.252292 345.238132 
L 353.994801 347.217359 
L 348.872693 349.168409 
L 343.887738 351.082174 
L 339.083968 352.979134 
L 334.490472 354.826872 
L 330.127222 356.562939 
L 325.807956 358.243003 
L 321.604491 359.938901 
L 317.587434 361.629485 
L 313.679725 363.284767 
L 309.900968 364.848907 
L 306.224071 366.359608 
L 302.662686 367.833923 
L 299.201933 369.253411 
L 295.852828 370.644457 
L 292.602002 372.00399 
L 289.478237 373.327501 
L 286.409386 374.612125 
L 283.480807 375.8609 
L 280.588995 377.077161 
L 277.783791 378.280626 
L 275.037982 379.464218 
L 272.36089 380.593463 
L 269.759168 381.692047 
L 267.200161 382.734993 
L 264.741317 383.712391 
L 262.354871 384.68071 
L 260.017156 385.619237 
L 257.727441 386.53127 
L 255.514154 387.461231 
L 253.338074 388.364336 
L 251.210736 389.240081 
L 249.174428 390.098378 
L 247.161445 390.938825 
L 245.167678 391.756001 
L 243.239784 392.572921 
L 241.323839 393.377192 
L 239.465393 394.155829 
L 237.628287 394.924349 
L 235.84702 395.679136 
L 234.120854 396.423562 
L 232.429366 397.145956 
L 230.773144 397.874621 
L 229.144477 398.595388 
L 227.569016 399.3086 
L 225.981052 400.030517 
L 224.44517 400.749546 
L 222.973466 401.440331 
L 221.495716 402.114437 
L 220.063182 402.784556 
L 218.649213 403.417383 
L 217.283577 404.030183 
L 215.918937 404.660169 
L 214.547655 405.271633 
L 213.239232 405.872398 
L 211.97158 406.484574 
L 210.703513 407.085108 
L 209.454283 407.687091 
L 208.252126 408.282101 
L 207.069978 408.853242 
L 205.878275 409.44643 
L 204.703326 410.046558 
L 203.543157 410.645753 
L 202.408247 411.272805 
L 201.298523 411.884518 
L 200.233977 412.499416 
L 199.15226 413.103249 
" style="fill:none;stroke:#ff7f0e;stroke-linecap:square;stroke-width:1.5;"/>
   </g>
   <g id="line2d_16">
    <path clip-path="url(#p72ccd74bba)" d="M 972 60.48 
L 971.97856 60.486839 
L 971.973063 60.490303 
L 971.959927 60.495522 
L 971.935765 60.502516 
L 971.909169 60.507816 
L 971.879007 60.51141 
L 971.837482 60.511507 
L 971.802207 60.515118 
L 971.759866 60.522259 
L 971.676667 60.522376 
L 971.607337 60.527792 
L 971.562167 60.533233 
L 971.530233 60.535147 
L 971.508238 60.535287 
L 971.47233 60.537211 
L 971.439546 60.54631 
L 971.423817 60.551858 
L 971.395082 60.553809 
L 971.378969 60.557593 
L 971.353146 60.565014 
L 971.343733 60.570644 
L 971.324648 60.57085 
L 971.312668 60.571055 
L 971.296703 60.574933 
L 971.284258 60.582482 
L 971.26079 60.584569 
L 971.244351 60.586645 
L 971.222733 60.590587 
L 971.214582 60.59454 
L 971.201411 60.60405 
L 971.193002 60.608063 
L 971.175691 60.610237 
L 971.166963 60.612387 
L 971.152004 60.614561 
L 971.134089 60.616771 
L 971.109484 60.6171 
L 971.084615 60.619337 
L 971.063487 60.623496 
L 971.055333 60.627665 
L 971.04167 60.628058 
L 971.026395 60.628445 
L 971.004399 60.628845 
L 970.984574 60.633076 
L 970.962184 60.635412 
L 970.925714 60.635828 
L 970.905158 60.638153 
L 970.892764 60.638536 
L 970.878683 60.640886 
L 970.863212 60.6432 
L 970.84887 60.649445 
L 970.832887 60.649845 
L 970.809596 60.654209 
L 970.777302 60.654683 
L 970.762051 60.655173 
L 970.749404 60.661581 
L 970.733672 60.668044 
L 970.723696 60.670599 
L 970.701715 60.671133 
L 970.688714 60.671649 
L 970.673897 60.674226 
L 970.657241 60.678819 
L 970.644946 60.679429 
L 970.629488 60.690172 
L 970.601417 60.696925 
L 970.569828 60.701701 
L 970.553525 60.710558 
L 970.537316 60.715402 
L 970.522256 60.724303 
L 970.504049 60.729177 
L 970.483555 60.736168 
L 970.461418 60.739045 
L 970.432277 60.739879 
L 970.41426 60.740741 
L 970.398099 60.74782 
L 970.378345 60.750761 
L 970.339741 60.753699 
L 970.320907 60.756663 
L 970.283249 60.759732 
L 970.265462 60.767098 
L 970.247433 60.76817 
L 970.217513 60.773443 
L 970.195142 60.776687 
L 970.176301 60.779921 
L 970.158471 60.785333 
L 970.129911 60.788555 
L 970.099134 60.79193 
L 970.078424 60.797554 
L 970.050602 60.798852 
L 970.016922 60.806895 
L 969.984455 60.8172 
L 969.958827 60.820986 
L 969.938808 60.829363 
L 969.910867 60.837671 
L 969.883858 60.843991 
L 969.856512 60.854935 
L 969.830781 60.856894 
L 969.798407 60.861412 
L 969.773808 60.868246 
L 969.745017 60.870752 
L 969.721336 60.884977 
" style="fill:none;stroke:#2ca02c;stroke-linecap:square;stroke-width:1.5;"/>
   </g>
   <g id="line2d_17">
    <path clip-path="url(#p72ccd74bba)" d="M 972 60.48 
L 951.484735 72.082472 
L 932.125508 82.935767 
L 914.086205 93.031106 
L 897.164457 102.497259 
L 881.521924 111.267328 
L 867.001879 119.552489 
L 853.407465 127.418621 
L 840.690652 134.708203 
L 828.601064 141.586973 
L 817.034046 148.050615 
L 806.163592 153.899742 
L 795.830184 159.208524 
L 785.854 164.083056 
L 776.235487 168.706988 
L 766.900546 173.063263 
L 757.932194 177.308554 
L 749.195289 181.302738 
L 740.583611 184.979069 
L 732.218015 188.489058 
L 724.142392 191.877839 
L 716.201089 195.162386 
L 708.451738 198.324552 
L 700.992937 201.395934 
L 693.46252 204.401161 
L 686.04662 207.379889 
L 678.750139 210.334567 
L 671.497055 213.11527 
L 664.379554 215.813267 
L 657.44213 218.563777 
L 650.656227 221.235065 
L 644.042357 223.727844 
L 637.564448 226.29902 
L 631.087876 228.748177 
L 624.808301 231.231509 
L 618.490567 233.705419 
L 612.283371 236.192223 
L 606.153229 238.692674 
L 600.147907 241.127655 
L 594.345362 243.4622 
L 588.500938 245.754889 
L 582.75589 248.117812 
L 577.133412 250.492755 
L 571.557315 252.84529 
L 566.10168 255.154631 
L 560.686489 257.402309 
L 555.353181 259.625228 
L 550.113621 261.795508 
L 544.995338 263.928963 
L 539.895627 266.02436 
L 534.965901 268.082987 
L 530.034703 270.146903 
L 525.270994 272.1512 
L 520.496721 274.117595 
L 515.75788 276.09044 
L 511.10102 278.052532 
L 506.514181 279.943638 
L 501.96951 281.772801 
L 497.436121 283.531532 
L 493.005782 285.226612 
L 488.66148 286.892298 
L 484.368395 288.508717 
L 480.101395 290.127839 
L 475.868333 291.772294 
L 471.716653 293.390044 
L 467.645504 294.998063 
L 463.656139 296.583114 
L 459.657204 298.137142 
L 455.700034 299.681657 
L 451.826862 301.211428 
L 447.989989 302.715002 
L 444.186632 304.217601 
L 440.386098 305.701993 
L 436.649969 307.164168 
L 433.010463 308.585694 
L 429.377965 309.992185 
L 425.798578 311.417981 
L 422.285004 312.822644 
L 418.850594 314.208372 
L 415.390455 315.610287 
L 411.988991 317.003289 
L 408.658658 318.371745 
L 405.342226 319.698501 
L 402.120492 321.026152 
L 398.904405 322.305397 
L 395.743761 323.566018 
L 392.603589 324.850355 
L 389.496042 326.106161 
L 386.461388 327.338504 
L 383.445406 328.600073 
L 380.47837 329.835123 
L 377.492024 331.10193 
L 374.604814 332.362057 
L 371.734434 333.581508 
L 368.820683 334.841062 
L 365.968009 336.093111 
L 363.111425 337.346919 
L 360.279113 338.630153 
L 357.49829 339.904684 
L 354.745297 341.178438 
L 352.017034 342.444836 
" style="fill:none;stroke:#d62728;stroke-linecap:square;stroke-width:1.5;"/>
   </g>
   <g id="line2d_18">
    <path clip-path="url(#p72ccd74bba)" d="M 972 60.48 
L 971.99051 60.480876 
L 971.988218 60.480879 
L 971.981956 60.481765 
L 971.970528 60.483542 
L 971.957276 60.486219 
L 971.943319 60.48624 
L 971.921742 60.487153 
L 971.90573 60.488967 
L 971.882583 60.489892 
L 971.839919 60.489917 
L 971.803894 60.489941 
L 971.781048 60.491777 
L 971.762721 60.491804 
L 971.750146 60.491832 
L 971.731502 60.492772 
L 971.716895 60.496459 
L 971.708154 60.498331 
L 971.693261 60.499287 
L 971.685533 60.500249 
L 971.673424 60.502138 
L 971.667998 60.504955 
L 971.65874 60.505932 
L 971.651316 60.506913 
L 971.642474 60.506973 
L 971.636103 60.508896 
L 971.624596 60.508961 
L 971.617412 60.509022 
L 971.607616 60.509085 
L 971.602863 60.511031 
L 971.596774 60.512981 
L 971.593865 60.51305 
L 971.584373 60.51502 
L 971.58132 60.516987 
L 971.573659 60.517066 
L 971.560509 60.517153 
L 971.548531 60.517239 
L 971.535092 60.519243 
L 971.526269 60.519339 
L 971.52081 60.520395 
L 971.517221 60.520496 
L 971.510814 60.521562 
L 971.50163 60.521664 
L 971.490227 60.52177 
L 971.478781 60.523826 
L 971.462189 60.523939 
L 971.448969 60.526001 
L 971.444198 60.52611 
L 971.436439 60.526225 
L 971.427858 60.527315 
L 971.421364 60.5294 
L 971.411071 60.530508 
L 971.401491 60.530626 
L 971.385035 60.532747 
L 971.378149 60.53388 
L 971.37416 60.53602 
L 971.367912 60.537164 
L 971.361565 60.538319 
L 971.357453 60.539469 
L 971.351041 60.541635 
L 971.345315 60.543822 
L 971.337956 60.543989 
L 971.328854 60.54518 
L 971.321951 60.549461 
L 971.310978 60.552742 
L 971.29263 60.55503 
L 971.286228 60.557333 
L 971.278116 60.558614 
L 971.270654 60.559892 
L 971.259983 60.561179 
L 971.254911 60.564558 
L 971.244763 60.568999 
L 971.227615 60.569277 
L 971.220566 60.569552 
L 971.211773 60.57299 
L 971.199333 60.573267 
L 971.183313 60.574607 
L 971.174049 60.575956 
L 971.158593 60.57947 
L 971.148165 60.581931 
L 971.141271 60.584424 
L 971.129838 60.58584 
L 971.118066 60.589447 
L 971.110811 60.590902 
L 971.102462 60.59128 
L 971.093047 60.592738 
L 971.082572 60.594231 
L 971.072834 60.597956 
L 971.057447 60.599501 
L 971.03793 60.601064 
L 971.021058 60.605987 
L 971.01069 60.607634 
L 971.001257 60.611556 
L 970.988616 60.617745 
L 970.975515 60.619502 
L 970.961519 60.623526 
L 970.948164 60.624178 
L 970.934606 60.626022 
L 970.921997 60.629046 
L 970.909112 60.629822 
L 970.898011 60.632941 
" style="fill:none;stroke:#9467bd;stroke-linecap:square;stroke-width:1.5;"/>
   </g>
   <g id="line2d_19">
    <path clip-path="url(#p72ccd74bba)" d="M 972 60.48 
L 959.153702 67.924551 
L 946.787145 75.039904 
L 935.060243 81.764741 
L 923.951808 88.210622 
L 913.523254 94.291331 
L 903.667514 100.094559 
L 894.307445 105.693722 
L 885.47399 111.01175 
L 877.052049 116.089476 
L 868.903328 120.933084 
L 861.191872 125.383486 
L 853.779885 129.445887 
L 846.572983 133.23066 
L 839.538256 136.83682 
L 832.633341 140.251816 
L 825.944361 143.628206 
L 819.385575 146.809842 
L 812.861701 149.771315 
L 806.483649 152.626265 
L 800.256225 155.395598 
L 794.086157 158.107815 
L 788.014806 160.738944 
L 782.110335 163.322699 
L 776.098764 165.854641 
L 770.15919 168.367367 
L 764.248547 170.869191 
L 758.327944 173.237289 
L 752.46346 175.565106 
L 746.715592 177.946019 
L 741.045671 180.29379 
L 735.490425 182.490256 
L 730.01297 184.739041 
L 724.503319 186.924761 
L 719.108995 189.138816 
L 713.652234 191.350811 
L 708.241021 193.589738 
L 702.86649 195.860797 
L 697.564373 198.08193 
L 692.401754 200.219996 
L 687.184858 202.340131 
L 682.00168 204.519866 
L 676.892268 206.752315 
L 671.830051 208.956816 
L 666.802656 211.124022 
L 661.780874 213.247114 
L 656.821364 215.352404 
L 651.907657 217.437029 
L 647.110628 219.488576 
L 642.285171 221.523369 
L 637.599781 223.537307 
L 632.890706 225.545161 
L 628.305527 227.521383 
L 623.681259 229.460852 
L 619.070523 231.414293 
L 614.502779 233.357512 
L 610.001058 235.251305 
L 605.501229 237.068934 
L 600.995303 238.843157 
L 596.557433 240.546772 
L 592.194245 242.224092 
L 587.862394 243.864285 
L 583.521781 245.506389 
L 579.213144 247.166823 
L 574.974985 248.804613 
L 570.788979 250.429872 
L 566.677533 252.049479 
L 562.498935 253.641734 
L 558.353462 255.233248 
L 554.261626 256.825759 
L 550.237252 258.39201 
L 546.170437 259.964864 
L 542.095553 261.525329 
L 538.087814 263.068749 
L 534.151795 264.580387 
L 530.221575 266.082412 
L 526.314846 267.606656 
L 522.453384 269.112568 
L 518.658307 270.598893 
L 514.825454 272.106031 
L 511.042589 273.607401 
L 507.320117 275.090159 
L 503.62698 276.529953 
L 499.990283 277.959819 
L 496.37858 279.356888 
L 492.794122 280.75359 
L 489.225346 282.162653 
L 485.67674 283.5398 
L 482.186123 284.898074 
L 478.693116 286.278045 
L 475.252799 287.635727 
L 471.798943 289.029778 
L 468.422629 290.420006 
L 465.045961 291.778701 
L 461.643544 293.173183 
L 458.287857 294.569165 
L 454.919588 295.95541 
L 451.584061 297.382835 
L 448.270245 298.793842 
L 444.991031 300.206191 
L 441.722515 301.622709 
" style="fill:none;stroke:#8c564b;stroke-linecap:square;stroke-width:1.5;"/>
   </g>
   <g id="line2d_20">
    <path clip-path="url(#p72ccd74bba)" d="M 972 60.48 
L 971.993057 60.480589 
L 971.991472 60.481182 
L 971.987143 60.482373 
L 971.978854 60.482976 
L 971.969302 60.482985 
L 971.958863 60.482995 
L 971.943548 60.483004 
L 971.932079 60.484217 
L 971.916073 60.485437 
L 971.886185 60.487874 
L 971.86169 60.489106 
L 971.847132 60.490952 
L 971.836518 60.490977 
L 971.829086 60.491613 
L 971.816638 60.492864 
L 971.806982 60.496577 
L 971.800134 60.49723 
L 971.789849 60.497265 
L 971.785796 60.497302 
L 971.777884 60.497957 
L 971.774158 60.501095 
L 971.767809 60.501137 
L 971.764443 60.501803 
L 971.759255 60.501849 
L 971.754034 60.503771 
L 971.747002 60.504451 
L 971.742526 60.505128 
L 971.735354 60.50518 
L 971.732571 60.506497 
L 971.728416 60.507184 
L 971.725553 60.507874 
L 971.720866 60.507937 
L 971.717473 60.50863 
L 971.713612 60.508691 
L 971.705975 60.508754 
L 971.697318 60.509459 
L 971.688568 60.509529 
L 971.682537 60.5096 
L 971.680246 60.509669 
L 971.676902 60.510387 
L 971.671139 60.512403 
L 971.66439 60.513133 
L 971.657545 60.513864 
L 971.649704 60.513948 
L 971.637827 60.514034 
L 971.630253 60.514114 
L 971.627531 60.514194 
L 971.622269 60.516253 
L 971.618427 60.516337 
L 971.614585 60.517743 
L 971.610168 60.518494 
L 971.603195 60.518582 
L 971.591983 60.520007 
L 971.586854 60.520773 
L 971.581119 60.523554 
L 971.576928 60.525 
L 971.572149 60.525111 
L 971.56834 60.525222 
L 971.563989 60.525327 
L 971.561189 60.526797 
L 971.555124 60.526913 
L 971.551638 60.527029 
L 971.547015 60.529893 
L 971.539592 60.531402 
L 971.528235 60.532244 
L 971.522328 60.533088 
L 971.517991 60.533245 
L 971.513596 60.534094 
L 971.506396 60.534951 
L 971.501351 60.537901 
L 971.495063 60.538071 
L 971.484568 60.538248 
L 971.479827 60.538428 
L 971.474518 60.541426 
L 971.467315 60.541609 
L 971.455259 60.543216 
L 971.449064 60.544121 
L 971.438654 60.545033 
L 971.433442 60.546665 
L 971.428243 60.547594 
L 971.419249 60.54924 
L 971.410086 60.550177 
L 971.405255 60.551125 
L 971.400316 60.551352 
L 971.392729 60.551581 
L 971.385002 60.553287 
L 971.377828 60.556482 
L 971.367361 60.556758 
L 971.356689 60.558522 
L 971.347196 60.561048 
L 971.34084 60.561376 
L 971.33313 60.563214 
L 971.327295 60.565055 
L 971.321233 60.566177 
L 971.313175 60.568831 
L 971.304295 60.569217 
L 971.29661 60.569626 
L 971.289533 60.571583 
L 971.28238 60.573572 
L 971.274311 60.576368 
" style="fill:none;stroke:#e377c2;stroke-linecap:square;stroke-width:1.5;"/>
   </g>
   <g id="line2d_21">
    <path clip-path="url(#p72ccd74bba)" d="M 972 60.48 
L 963.651858 65.526925 
L 955.492448 70.4388 
L 947.688261 75.111582 
L 940.290291 79.587586 
L 933.249381 83.861412 
L 926.577149 88.012818 
L 920.225676 92.037175 
L 914.193828 95.89358 
L 908.37712 99.60813 
L 902.744814 103.149575 
L 897.344607 106.468962 
L 892.150069 109.532981 
L 887.078424 112.396632 
L 882.107869 115.151565 
L 877.193534 117.795673 
L 872.382421 120.386835 
L 867.685882 122.83328 
L 862.980104 125.14474 
L 858.360322 127.36032 
L 853.783227 129.543637 
L 849.237948 131.689491 
L 844.748823 133.77532 
L 840.374504 135.837856 
L 835.888793 137.873834 
L 831.418616 139.895408 
L 826.954765 141.913676 
L 822.489863 143.833614 
L 818.012539 145.7255 
L 813.603769 147.672384 
L 809.216028 149.586806 
L 804.914607 151.406418 
L 800.646882 153.250907 
L 796.350427 155.057293 
L 792.112719 156.90176 
L 787.833072 158.757256 
L 783.537492 160.624353 
L 779.243222 162.530608 
L 774.985826 164.411165 
L 770.840325 166.219187 
L 766.604493 168.013314 
L 762.417523 169.89957 
L 758.240724 171.796973 
L 754.052123 173.693026 
L 749.903276 175.557009 
L 745.719932 177.389655 
L 741.566197 179.243742 
L 737.433041 181.072933 
L 733.384452 182.88182 
L 729.293289 184.695768 
L 725.310724 186.49219 
L 721.277025 188.29779 
L 717.329512 190.067646 
L 713.313457 191.828574 
L 709.306608 193.576756 
L 705.317524 195.348482 
L 701.337819 197.06905 
L 697.362595 198.730703 
L 693.370425 200.362371 
L 689.413697 201.930382 
L 685.527303 203.471322 
L 681.633815 204.971285 
L 677.714941 206.476653 
L 673.827594 208.014001 
L 669.945902 209.534274 
L 666.120856 211.034601 
L 662.330971 212.538922 
L 658.457883 214.01443 
L 654.617548 215.514823 
L 650.770156 217.008979 
L 646.988958 218.476567 
L 643.158932 219.9556 
L 639.314658 221.430683 
L 635.507796 222.897389 
L 631.742413 224.336466 
L 627.965171 225.775502 
L 624.179839 227.235057 
L 620.445373 228.690468 
L 616.767169 230.121049 
L 613.039191 231.58557 
L 609.332467 233.031934 
L 605.651274 234.472652 
L 601.994958 235.865895 
L 598.383386 237.269656 
L 594.786927 238.630722 
L 591.206908 239.999787 
L 587.63186 241.396612 
L 584.055791 242.7489 
L 580.521637 244.078699 
L 576.984087 245.445958 
L 573.473809 246.78945 
L 569.946016 248.163846 
L 566.488922 249.532219 
L 563.00654 250.881716 
L 559.48656 252.269204 
L 555.984265 253.661168 
L 552.473515 255.050836 
L 548.984556 256.484584 
L 545.496178 257.897799 
L 542.026007 259.306065 
L 538.57306 260.731062 
" style="fill:none;stroke:#7f7f7f;stroke-linecap:square;stroke-width:1.5;"/>
   </g>
   <g id="line2d_22">
    <path clip-path="url(#p72ccd74bba)" d="M 972 60.48 
L 964.852093 64.840474 
L 957.841921 69.060293 
L 951.161897 73.126718 
L 944.815298 77.02556 
L 938.755263 80.796972 
L 933.00804 84.440555 
L 927.545889 87.962066 
L 922.362469 91.34319 
L 917.36537 94.617145 
L 912.548143 97.78448 
L 907.904625 100.735027 
L 903.435562 103.475801 
L 899.108485 106.054979 
L 894.860067 108.533061 
L 890.641887 110.906944 
L 886.533074 113.238161 
L 882.482653 115.436476 
L 878.435275 117.510055 
L 874.43809 119.507932 
L 870.514145 121.462422 
L 866.593043 123.391325 
L 862.720363 125.272443 
L 858.940521 127.125104 
L 855.052596 128.969138 
L 851.17083 130.80271 
L 847.289226 132.630154 
L 843.380604 134.371576 
L 839.468276 136.092507 
L 835.591336 137.847941 
L 831.749552 139.612496 
L 827.990724 141.266178 
L 824.233699 142.961317 
L 820.447925 144.614601 
L 816.713769 146.302934 
L 812.925462 148.007108 
L 809.126719 149.725318 
L 805.31776 151.480562 
L 801.531042 153.215059 
L 797.843417 154.886742 
L 794.100455 156.543714 
L 790.354711 158.280519 
L 786.6157 160.041219 
L 782.887248 161.820912 
L 779.163003 163.559356 
L 775.402349 165.274562 
L 771.662855 167.004723 
L 767.931022 168.72299 
L 764.258779 170.412666 
L 760.568321 172.12057 
L 756.958644 173.803262 
L 753.294263 175.497713 
L 749.713689 177.167597 
L 746.055464 178.813123 
L 742.390723 180.474583 
L 738.747066 182.137981 
L 735.11368 183.77588 
L 731.457223 185.354254 
L 727.794005 186.896968 
L 724.157103 188.38307 
L 720.566133 189.840454 
L 716.976765 191.278494 
L 713.345439 192.713327 
L 709.736258 194.174777 
L 706.153145 195.618595 
L 702.603466 197.05019 
L 699.072035 198.477401 
L 695.453105 199.88865 
L 691.851084 201.311887 
L 688.25843 202.73272 
L 684.699974 204.140039 
L 681.113685 205.558709 
L 677.48538 206.96745 
L 673.892054 208.365352 
L 670.340967 209.743723 
L 666.769415 211.134363 
L 663.170406 212.545684 
L 659.624998 213.952595 
L 656.093213 215.332254 
L 652.526761 216.745593 
L 648.98692 218.149009 
L 645.467745 219.557164 
L 641.972573 220.920973 
L 638.509768 222.276278 
L 635.05052 223.599488 
L 631.60854 224.937509 
L 628.163034 226.289589 
L 624.712891 227.608598 
L 621.289351 228.903108 
L 617.872419 230.230112 
L 614.460498 231.540378 
L 611.032011 232.880143 
L 607.675082 234.209848 
L 604.287625 235.529927 
L 600.863662 236.879607 
L 597.447245 238.23866 
L 594.00351 239.607912 
L 590.583363 241.019572 
L 587.151337 242.406284 
L 583.739352 243.793082 
L 580.332402 245.190545 
" style="fill:none;stroke:#bcbd22;stroke-linecap:square;stroke-width:1.5;"/>
   </g>
   <g id="line2d_23">
    <path clip-path="url(#p72ccd74bba)" d="M 972 60.48 
L 966.619786 63.824361 
L 961.359263 67.079076 
L 956.315298 70.192985 
L 951.552914 73.217983 
L 946.967108 76.112565 
L 942.615288 78.944855 
L 938.500321 81.730529 
L 934.593118 84.390124 
L 930.77257 86.966861 
L 927.093941 89.466102 
L 923.542338 91.802488 
L 920.152761 93.988417 
L 916.842881 96.033715 
L 913.590665 98.021422 
L 910.361553 99.932831 
L 907.22895 101.807866 
L 904.141135 103.580664 
L 901.037473 105.257569 
L 897.977873 106.887702 
L 894.953705 108.484288 
L 891.904926 110.06064 
L 888.895587 111.609812 
L 885.984239 113.120317 
L 882.949988 114.632738 
L 879.911603 116.158528 
L 876.888573 117.680212 
L 873.815289 119.131498 
L 870.752772 120.560814 
L 867.716353 122.031639 
L 864.694129 123.490128 
L 861.719953 124.858675 
L 858.7468 126.277435 
L 855.74623 127.65531 
L 852.772067 129.074104 
L 849.730531 130.50521 
L 846.6831 131.961102 
L 843.635066 133.451035 
L 840.610001 134.917371 
L 837.64162 136.336171 
L 834.627562 137.739623 
L 831.591418 139.214946 
L 828.562597 140.716384 
L 825.508197 142.229374 
L 822.4632 143.718829 
L 819.38111 145.190469 
L 816.310758 146.680577 
L 813.239923 148.165347 
L 810.226354 149.634949 
L 807.169717 151.108159 
L 804.174126 152.576606 
L 801.131693 154.066725 
L 798.153187 155.532214 
L 795.109791 156.990475 
L 792.032356 158.4502 
L 788.963928 159.933571 
L 785.895302 161.380312 
L 782.809589 162.780109 
L 779.70917 164.142923 
L 776.629642 165.473103 
L 773.559569 166.775272 
L 770.479119 168.053501 
L 767.382671 169.337541 
L 764.272295 170.643296 
L 761.178211 171.942641 
L 758.106274 173.230976 
L 755.046931 174.517575 
L 751.908745 175.787145 
L 748.785525 177.077281 
L 745.636093 178.368752 
L 742.531939 179.644481 
L 739.392286 180.929864 
L 736.206303 182.208103 
L 733.031371 183.489971 
L 729.887511 184.737225 
L 726.70697 185.992858 
L 723.511033 187.28051 
L 720.34738 188.557898 
L 717.201414 189.819463 
L 714.008818 191.121729 
L 710.808091 192.419926 
L 707.624829 193.724301 
L 704.463685 194.979815 
L 701.337148 196.246718 
L 698.203325 197.475563 
L 695.068874 198.717219 
L 691.929579 199.987709 
L 688.777967 201.216749 
L 685.653783 202.427332 
L 682.51121 203.668513 
L 679.375001 204.888718 
L 676.199248 206.144252 
L 673.088937 207.390933 
L 669.948569 208.623421 
L 666.755154 209.898898 
L 663.558623 211.181408 
L 660.33275 212.474471 
L 657.119011 213.794575 
L 653.900688 215.114698 
L 650.693749 216.419022 
L 647.479424 217.742045 
" style="fill:none;stroke:#17becf;stroke-linecap:square;stroke-width:1.5;"/>
   </g>
   <g id="patch_3">
    <path d="M 135 448.56 
L 135 60.48 
" style="fill:none;stroke:#000000;stroke-linecap:square;stroke-linejoin:miter;stroke-width:0.8;"/>
   </g>
   <g id="patch_4">
    <path d="M 972 448.56 
L 972 60.48 
" style="fill:none;stroke:#000000;stroke-linecap:square;stroke-linejoin:miter;stroke-width:0.8;"/>
   </g>
   <g id="patch_5">
    <path d="M 135 448.56 
L 972 448.56 
" style="fill:none;stroke:#000000;stroke-linecap:square;stroke-linejoin:miter;stroke-width:0.8;"/>
   </g>
   <g id="patch_6">
    <path d="M 135 60.48 
L 972 60.48 
" style="fill:none;stroke:#000000;stroke-linecap:square;stroke-linejoin:miter;stroke-width:0.8;"/>
   </g>
   <g id="legend_1">
    <g id="patch_7">
     <path d="M 147.6 339.08625 
L 256.730625 339.08625 
Q 260.330625 339.08625 260.330625 335.48625 
L 260.330625 73.08 
Q 260.330625 69.48 256.730625 69.48 
L 147.6 69.48 
Q 144 69.48 144 73.08 
L 144 335.48625 
Q 144 339.08625 147.6 339.08625 
z
" style="fill:#ffffff;opacity:0.8;stroke:#cccccc;stroke-linejoin:miter;"/>
    </g>
    <g id="line2d_24">
     <path d="M 151.2 84.057188 
L 187.2 84.057188 
" style="fill:none;stroke:#1f77b4;stroke-linecap:square;stroke-width:1.5;"/>
    </g>
    <g id="line2d_25"/>
    <g id="text_15">
     <!-- 0.001 -->
     <g transform="translate(201.6 90.357188)scale(0.18 -0.18)">
      <use xlink:href="#DejaVuSans-30"/>
      <use x="63.623047" xlink:href="#DejaVuSans-2e"/>
      <use x="95.410156" xlink:href="#DejaVuSans-30"/>
      <use x="159.033203" xlink:href="#DejaVuSans-30"/>
      <use x="222.65625" xlink:href="#DejaVuSans-31"/>
     </g>
    </g>
    <g id="line2d_26">
     <path d="M 151.2 110.477812 
L 187.2 110.477812 
" style="fill:none;stroke:#ff7f0e;stroke-linecap:square;stroke-width:1.5;"/>
    </g>
    <g id="line2d_27"/>
    <g id="text_16">
     <!-- 0.011 -->
     <g transform="translate(201.6 116.777812)scale(0.18 -0.18)">
      <use xlink:href="#DejaVuSans-30"/>
      <use x="63.623047" xlink:href="#DejaVuSans-2e"/>
      <use x="95.410156" xlink:href="#DejaVuSans-30"/>
      <use x="159.033203" xlink:href="#DejaVuSans-31"/>
      <use x="222.65625" xlink:href="#DejaVuSans-31"/>
     </g>
    </g>
    <g id="line2d_28">
     <path d="M 151.2 136.898438 
L 187.2 136.898438 
" style="fill:none;stroke:#2ca02c;stroke-linecap:square;stroke-width:1.5;"/>
    </g>
    <g id="line2d_29"/>
    <g id="text_17">
     <!-- 0.021 -->
     <g transform="translate(201.6 143.198438)scale(0.18 -0.18)">
      <use xlink:href="#DejaVuSans-30"/>
      <use x="63.623047" xlink:href="#DejaVuSans-2e"/>
      <use x="95.410156" xlink:href="#DejaVuSans-30"/>
      <use x="159.033203" xlink:href="#DejaVuSans-32"/>
      <use x="222.65625" xlink:href="#DejaVuSans-31"/>
     </g>
    </g>
    <g id="line2d_30">
     <path d="M 151.2 163.319062 
L 187.2 163.319062 
" style="fill:none;stroke:#d62728;stroke-linecap:square;stroke-width:1.5;"/>
    </g>
    <g id="line2d_31"/>
    <g id="text_18">
     <!-- 0.031 -->
     <g transform="translate(201.6 169.619062)scale(0.18 -0.18)">
      <defs>
       <path d="M 2597 2516 
Q 3050 2419 3304 2112 
Q 3559 1806 3559 1356 
Q 3559 666 3084 287 
Q 2609 -91 1734 -91 
Q 1441 -91 1130 -33 
Q 819 25 488 141 
L 488 750 
Q 750 597 1062 519 
Q 1375 441 1716 441 
Q 2309 441 2620 675 
Q 2931 909 2931 1356 
Q 2931 1769 2642 2001 
Q 2353 2234 1838 2234 
L 1294 2234 
L 1294 2753 
L 1863 2753 
Q 2328 2753 2575 2939 
Q 2822 3125 2822 3475 
Q 2822 3834 2567 4026 
Q 2313 4219 1838 4219 
Q 1578 4219 1281 4162 
Q 984 4106 628 3988 
L 628 4550 
Q 988 4650 1302 4700 
Q 1616 4750 1894 4750 
Q 2613 4750 3031 4423 
Q 3450 4097 3450 3541 
Q 3450 3153 3228 2886 
Q 3006 2619 2597 2516 
z
" id="DejaVuSans-33" transform="scale(0.015625)"/>
      </defs>
      <use xlink:href="#DejaVuSans-30"/>
      <use x="63.623047" xlink:href="#DejaVuSans-2e"/>
      <use x="95.410156" xlink:href="#DejaVuSans-30"/>
      <use x="159.033203" xlink:href="#DejaVuSans-33"/>
      <use x="222.65625" xlink:href="#DejaVuSans-31"/>
     </g>
    </g>
    <g id="line2d_32">
     <path d="M 151.2 189.739688 
L 187.2 189.739688 
" style="fill:none;stroke:#9467bd;stroke-linecap:square;stroke-width:1.5;"/>
    </g>
    <g id="line2d_33"/>
    <g id="text_19">
     <!-- 0.041 -->
     <g transform="translate(201.6 196.039688)scale(0.18 -0.18)">
      <use xlink:href="#DejaVuSans-30"/>
      <use x="63.623047" xlink:href="#DejaVuSans-2e"/>
      <use x="95.410156" xlink:href="#DejaVuSans-30"/>
      <use x="159.033203" xlink:href="#DejaVuSans-34"/>
      <use x="222.65625" xlink:href="#DejaVuSans-31"/>
     </g>
    </g>
    <g id="line2d_34">
     <path d="M 151.2 216.160312 
L 187.2 216.160312 
" style="fill:none;stroke:#8c564b;stroke-linecap:square;stroke-width:1.5;"/>
    </g>
    <g id="line2d_35"/>
    <g id="text_20">
     <!-- 0.051 -->
     <g transform="translate(201.6 222.460312)scale(0.18 -0.18)">
      <defs>
       <path d="M 691 4666 
L 3169 4666 
L 3169 4134 
L 1269 4134 
L 1269 2991 
Q 1406 3038 1543 3061 
Q 1681 3084 1819 3084 
Q 2600 3084 3056 2656 
Q 3513 2228 3513 1497 
Q 3513 744 3044 326 
Q 2575 -91 1722 -91 
Q 1428 -91 1123 -41 
Q 819 9 494 109 
L 494 744 
Q 775 591 1075 516 
Q 1375 441 1709 441 
Q 2250 441 2565 725 
Q 2881 1009 2881 1497 
Q 2881 1984 2565 2268 
Q 2250 2553 1709 2553 
Q 1456 2553 1204 2497 
Q 953 2441 691 2322 
L 691 4666 
z
" id="DejaVuSans-35" transform="scale(0.015625)"/>
      </defs>
      <use xlink:href="#DejaVuSans-30"/>
      <use x="63.623047" xlink:href="#DejaVuSans-2e"/>
      <use x="95.410156" xlink:href="#DejaVuSans-30"/>
      <use x="159.033203" xlink:href="#DejaVuSans-35"/>
      <use x="222.65625" xlink:href="#DejaVuSans-31"/>
     </g>
    </g>
    <g id="line2d_36">
     <path d="M 151.2 242.580937 
L 187.2 242.580937 
" style="fill:none;stroke:#e377c2;stroke-linecap:square;stroke-width:1.5;"/>
    </g>
    <g id="line2d_37"/>
    <g id="text_21">
     <!-- 0.061 -->
     <g transform="translate(201.6 248.880937)scale(0.18 -0.18)">
      <use xlink:href="#DejaVuSans-30"/>
      <use x="63.623047" xlink:href="#DejaVuSans-2e"/>
      <use x="95.410156" xlink:href="#DejaVuSans-30"/>
      <use x="159.033203" xlink:href="#DejaVuSans-36"/>
      <use x="222.65625" xlink:href="#DejaVuSans-31"/>
     </g>
    </g>
    <g id="line2d_38">
     <path d="M 151.2 269.001562 
L 187.2 269.001562 
" style="fill:none;stroke:#7f7f7f;stroke-linecap:square;stroke-width:1.5;"/>
    </g>
    <g id="line2d_39"/>
    <g id="text_22">
     <!-- 0.071 -->
     <g transform="translate(201.6 275.301562)scale(0.18 -0.18)">
      <defs>
       <path d="M 525 4666 
L 3525 4666 
L 3525 4397 
L 1831 0 
L 1172 0 
L 2766 4134 
L 525 4134 
L 525 4666 
z
" id="DejaVuSans-37" transform="scale(0.015625)"/>
      </defs>
      <use xlink:href="#DejaVuSans-30"/>
      <use x="63.623047" xlink:href="#DejaVuSans-2e"/>
      <use x="95.410156" xlink:href="#DejaVuSans-30"/>
      <use x="159.033203" xlink:href="#DejaVuSans-37"/>
      <use x="222.65625" xlink:href="#DejaVuSans-31"/>
     </g>
    </g>
    <g id="line2d_40">
     <path d="M 151.2 295.422188 
L 187.2 295.422188 
" style="fill:none;stroke:#bcbd22;stroke-linecap:square;stroke-width:1.5;"/>
    </g>
    <g id="line2d_41"/>
    <g id="text_23">
     <!-- 0.081 -->
     <g transform="translate(201.6 301.722188)scale(0.18 -0.18)">
      <use xlink:href="#DejaVuSans-30"/>
      <use x="63.623047" xlink:href="#DejaVuSans-2e"/>
      <use x="95.410156" xlink:href="#DejaVuSans-30"/>
      <use x="159.033203" xlink:href="#DejaVuSans-38"/>
      <use x="222.65625" xlink:href="#DejaVuSans-31"/>
     </g>
    </g>
    <g id="line2d_42">
     <path d="M 151.2 321.842812 
L 187.2 321.842812 
" style="fill:none;stroke:#17becf;stroke-linecap:square;stroke-width:1.5;"/>
    </g>
    <g id="line2d_43"/>
    <g id="text_24">
     <!-- 0.091 -->
     <g transform="translate(201.6 328.142812)scale(0.18 -0.18)">
      <defs>
       <path d="M 703 97 
L 703 672 
Q 941 559 1184 500 
Q 1428 441 1663 441 
Q 2288 441 2617 861 
Q 2947 1281 2994 2138 
Q 2813 1869 2534 1725 
Q 2256 1581 1919 1581 
Q 1219 1581 811 2004 
Q 403 2428 403 3163 
Q 403 3881 828 4315 
Q 1253 4750 1959 4750 
Q 2769 4750 3195 4129 
Q 3622 3509 3622 2328 
Q 3622 1225 3098 567 
Q 2575 -91 1691 -91 
Q 1453 -91 1209 -44 
Q 966 3 703 97 
z
M 1959 2075 
Q 2384 2075 2632 2365 
Q 2881 2656 2881 3163 
Q 2881 3666 2632 3958 
Q 2384 4250 1959 4250 
Q 1534 4250 1286 3958 
Q 1038 3666 1038 3163 
Q 1038 2656 1286 2365 
Q 1534 2075 1959 2075 
z
" id="DejaVuSans-39" transform="scale(0.015625)"/>
      </defs>
      <use xlink:href="#DejaVuSans-30"/>
      <use x="63.623047" xlink:href="#DejaVuSans-2e"/>
      <use x="95.410156" xlink:href="#DejaVuSans-30"/>
      <use x="159.033203" xlink:href="#DejaVuSans-39"/>
      <use x="222.65625" xlink:href="#DejaVuSans-31"/>
     </g>
    </g>
   </g>
  </g>
 </g>
 <defs>
  <clipPath id="p72ccd74bba">
   <rect height="388.08" width="837" x="135" y="60.48"/>
  </clipPath>
 </defs>
</svg>
