<?xml version="1.0" encoding="utf-8" standalone="no"?>
<!DOCTYPE svg PUBLIC "-//W3C//DTD SVG 1.1//EN"
  "http://www.w3.org/Graphics/SVG/1.1/DTD/svg11.dtd">
<svg height="504pt" version="1.1" viewBox="0 0 1080 504" width="1080pt" xmlns="http://www.w3.org/2000/svg" xmlns:xlink="http://www.w3.org/1999/xlink">
 <metadata>
  <rdf:RDF xmlns:cc="http://creativecommons.org/ns#" xmlns:dc="http://purl.org/dc/elements/1.1/" xmlns:rdf="http://www.w3.org/1999/02/22-rdf-syntax-ns#">
   <cc:Work>
    <dc:type rdf:resource="http://purl.org/dc/dcmitype/StillImage"/>
    <dc:date>2022-01-07T13:24:43.428696</dc:date>
    <dc:format>image/svg+xml</dc:format>
    <dc:creator>
     <cc:Agent>
      <dc:title>Matplotlib v3.4.3, https://matplotlib.org/</dc:title>
     </cc:Agent>
    </dc:creator>
   </cc:Work>
  </rdf:RDF>
 </metadata>
 <defs>
  <style type="text/css">*{stroke-linecap:butt;stroke-linejoin:round;}</style>
 </defs>
 <g id="figure_1">
  <g id="patch_1">
   <path d="M 0 504 
L 1080 504 
L 1080 0 
L 0 0 
z
" style="fill:#ffffff;"/>
  </g>
  <g id="axes_1">
   <g id="patch_2">
    <path d="M 135 448.56 
L 972 448.56 
L 972 60.48 
L 135 60.48 
z
" style="fill:#ffffff;"/>
   </g>
   <g id="matplotlib.axis_1">
    <g id="xtick_1">
     <g id="line2d_1">
      <defs>
       <path d="M 0 0 
L 0 3.5 
" id="m094f95129d" style="stroke:#000000;stroke-width:0.8;"/>
      </defs>
      <g>
       <use style="stroke:#000000;stroke-width:0.8;" x="135" xlink:href="#m094f95129d" y="448.56"/>
      </g>
     </g>
     <g id="text_1">
      <!-- 0.0 -->
      <g transform="translate(120.687187 469.237188)scale(0.18 -0.18)">
       <defs>
        <path d="M 2034 4250 
Q 1547 4250 1301 3770 
Q 1056 3291 1056 2328 
Q 1056 1369 1301 889 
Q 1547 409 2034 409 
Q 2525 409 2770 889 
Q 3016 1369 3016 2328 
Q 3016 3291 2770 3770 
Q 2525 4250 2034 4250 
z
M 2034 4750 
Q 2819 4750 3233 4129 
Q 3647 3509 3647 2328 
Q 3647 1150 3233 529 
Q 2819 -91 2034 -91 
Q 1250 -91 836 529 
Q 422 1150 422 2328 
Q 422 3509 836 4129 
Q 1250 4750 2034 4750 
z
" id="DejaVuSans-30" transform="scale(0.015625)"/>
        <path d="M 684 794 
L 1344 794 
L 1344 0 
L 684 0 
L 684 794 
z
" id="DejaVuSans-2e" transform="scale(0.015625)"/>
       </defs>
       <use xlink:href="#DejaVuSans-30"/>
       <use x="63.623047" xlink:href="#DejaVuSans-2e"/>
       <use x="95.410156" xlink:href="#DejaVuSans-30"/>
      </g>
     </g>
    </g>
    <g id="xtick_2">
     <g id="line2d_2">
      <g>
       <use style="stroke:#000000;stroke-width:0.8;" x="302.4" xlink:href="#m094f95129d" y="448.56"/>
      </g>
     </g>
     <g id="text_2">
      <!-- 0.2 -->
      <g transform="translate(288.087187 469.237188)scale(0.18 -0.18)">
       <defs>
        <path d="M 1228 531 
L 3431 531 
L 3431 0 
L 469 0 
L 469 531 
Q 828 903 1448 1529 
Q 2069 2156 2228 2338 
Q 2531 2678 2651 2914 
Q 2772 3150 2772 3378 
Q 2772 3750 2511 3984 
Q 2250 4219 1831 4219 
Q 1534 4219 1204 4116 
Q 875 4013 500 3803 
L 500 4441 
Q 881 4594 1212 4672 
Q 1544 4750 1819 4750 
Q 2544 4750 2975 4387 
Q 3406 4025 3406 3419 
Q 3406 3131 3298 2873 
Q 3191 2616 2906 2266 
Q 2828 2175 2409 1742 
Q 1991 1309 1228 531 
z
" id="DejaVuSans-32" transform="scale(0.015625)"/>
       </defs>
       <use xlink:href="#DejaVuSans-30"/>
       <use x="63.623047" xlink:href="#DejaVuSans-2e"/>
       <use x="95.410156" xlink:href="#DejaVuSans-32"/>
      </g>
     </g>
    </g>
    <g id="xtick_3">
     <g id="line2d_3">
      <g>
       <use style="stroke:#000000;stroke-width:0.8;" x="469.8" xlink:href="#m094f95129d" y="448.56"/>
      </g>
     </g>
     <g id="text_3">
      <!-- 0.4 -->
      <g transform="translate(455.487188 469.237188)scale(0.18 -0.18)">
       <defs>
        <path d="M 2419 4116 
L 825 1625 
L 2419 1625 
L 2419 4116 
z
M 2253 4666 
L 3047 4666 
L 3047 1625 
L 3713 1625 
L 3713 1100 
L 3047 1100 
L 3047 0 
L 2419 0 
L 2419 1100 
L 313 1100 
L 313 1709 
L 2253 4666 
z
" id="DejaVuSans-34" transform="scale(0.015625)"/>
       </defs>
       <use xlink:href="#DejaVuSans-30"/>
       <use x="63.623047" xlink:href="#DejaVuSans-2e"/>
       <use x="95.410156" xlink:href="#DejaVuSans-34"/>
      </g>
     </g>
    </g>
    <g id="xtick_4">
     <g id="line2d_4">
      <g>
       <use style="stroke:#000000;stroke-width:0.8;" x="637.2" xlink:href="#m094f95129d" y="448.56"/>
      </g>
     </g>
     <g id="text_4">
      <!-- 0.6 -->
      <g transform="translate(622.887188 469.237188)scale(0.18 -0.18)">
       <defs>
        <path d="M 2113 2584 
Q 1688 2584 1439 2293 
Q 1191 2003 1191 1497 
Q 1191 994 1439 701 
Q 1688 409 2113 409 
Q 2538 409 2786 701 
Q 3034 994 3034 1497 
Q 3034 2003 2786 2293 
Q 2538 2584 2113 2584 
z
M 3366 4563 
L 3366 3988 
Q 3128 4100 2886 4159 
Q 2644 4219 2406 4219 
Q 1781 4219 1451 3797 
Q 1122 3375 1075 2522 
Q 1259 2794 1537 2939 
Q 1816 3084 2150 3084 
Q 2853 3084 3261 2657 
Q 3669 2231 3669 1497 
Q 3669 778 3244 343 
Q 2819 -91 2113 -91 
Q 1303 -91 875 529 
Q 447 1150 447 2328 
Q 447 3434 972 4092 
Q 1497 4750 2381 4750 
Q 2619 4750 2861 4703 
Q 3103 4656 3366 4563 
z
" id="DejaVuSans-36" transform="scale(0.015625)"/>
       </defs>
       <use xlink:href="#DejaVuSans-30"/>
       <use x="63.623047" xlink:href="#DejaVuSans-2e"/>
       <use x="95.410156" xlink:href="#DejaVuSans-36"/>
      </g>
     </g>
    </g>
    <g id="xtick_5">
     <g id="line2d_5">
      <g>
       <use style="stroke:#000000;stroke-width:0.8;" x="804.6" xlink:href="#m094f95129d" y="448.56"/>
      </g>
     </g>
     <g id="text_5">
      <!-- 0.8 -->
      <g transform="translate(790.287188 469.237188)scale(0.18 -0.18)">
       <defs>
        <path d="M 2034 2216 
Q 1584 2216 1326 1975 
Q 1069 1734 1069 1313 
Q 1069 891 1326 650 
Q 1584 409 2034 409 
Q 2484 409 2743 651 
Q 3003 894 3003 1313 
Q 3003 1734 2745 1975 
Q 2488 2216 2034 2216 
z
M 1403 2484 
Q 997 2584 770 2862 
Q 544 3141 544 3541 
Q 544 4100 942 4425 
Q 1341 4750 2034 4750 
Q 2731 4750 3128 4425 
Q 3525 4100 3525 3541 
Q 3525 3141 3298 2862 
Q 3072 2584 2669 2484 
Q 3125 2378 3379 2068 
Q 3634 1759 3634 1313 
Q 3634 634 3220 271 
Q 2806 -91 2034 -91 
Q 1263 -91 848 271 
Q 434 634 434 1313 
Q 434 1759 690 2068 
Q 947 2378 1403 2484 
z
M 1172 3481 
Q 1172 3119 1398 2916 
Q 1625 2713 2034 2713 
Q 2441 2713 2670 2916 
Q 2900 3119 2900 3481 
Q 2900 3844 2670 4047 
Q 2441 4250 2034 4250 
Q 1625 4250 1398 4047 
Q 1172 3844 1172 3481 
z
" id="DejaVuSans-38" transform="scale(0.015625)"/>
       </defs>
       <use xlink:href="#DejaVuSans-30"/>
       <use x="63.623047" xlink:href="#DejaVuSans-2e"/>
       <use x="95.410156" xlink:href="#DejaVuSans-38"/>
      </g>
     </g>
    </g>
    <g id="xtick_6">
     <g id="line2d_6">
      <g>
       <use style="stroke:#000000;stroke-width:0.8;" x="972" xlink:href="#m094f95129d" y="448.56"/>
      </g>
     </g>
     <g id="text_6">
      <!-- 1.0 -->
      <g transform="translate(957.687188 469.237188)scale(0.18 -0.18)">
       <defs>
        <path d="M 794 531 
L 1825 531 
L 1825 4091 
L 703 3866 
L 703 4441 
L 1819 4666 
L 2450 4666 
L 2450 531 
L 3481 531 
L 3481 0 
L 794 0 
L 794 531 
z
" id="DejaVuSans-31" transform="scale(0.015625)"/>
       </defs>
       <use xlink:href="#DejaVuSans-31"/>
       <use x="63.623047" xlink:href="#DejaVuSans-2e"/>
       <use x="95.410156" xlink:href="#DejaVuSans-30"/>
      </g>
     </g>
    </g>
    <g id="text_7">
     <!-- $FPR_{Fair}$ -->
     <g transform="translate(518.08 493.697187)scale(0.22 -0.22)">
      <defs>
       <path d="M 1081 4666 
L 3756 4666 
L 3653 4134 
L 1606 4134 
L 1338 2759 
L 3188 2759 
L 3084 2228 
L 1234 2228 
L 800 0 
L 172 0 
L 1081 4666 
z
" id="DejaVuSans-Oblique-46" transform="scale(0.015625)"/>
       <path d="M 1081 4666 
L 2541 4666 
Q 3178 4666 3512 4369 
Q 3847 4072 3847 3500 
Q 3847 2731 3353 2303 
Q 2859 1875 1966 1875 
L 1172 1875 
L 806 0 
L 172 0 
L 1081 4666 
z
M 1613 4147 
L 1275 2394 
L 2069 2394 
Q 2606 2394 2893 2669 
Q 3181 2944 3181 3456 
Q 3181 3784 2986 3965 
Q 2791 4147 2438 4147 
L 1613 4147 
z
" id="DejaVuSans-Oblique-50" transform="scale(0.015625)"/>
       <path d="M 1613 4147 
L 1294 2491 
L 2106 2491 
Q 2584 2491 2879 2755 
Q 3175 3019 3175 3444 
Q 3175 3784 2976 3965 
Q 2778 4147 2406 4147 
L 1613 4147 
z
M 2772 2241 
Q 2972 2194 3105 2009 
Q 3238 1825 3413 1275 
L 3809 0 
L 3144 0 
L 2778 1197 
Q 2638 1659 2453 1815 
Q 2269 1972 1888 1972 
L 1191 1972 
L 806 0 
L 172 0 
L 1081 4666 
L 2503 4666 
Q 3150 4666 3495 4373 
Q 3841 4081 3841 3531 
Q 3841 3044 3547 2687 
Q 3253 2331 2772 2241 
z
" id="DejaVuSans-Oblique-52" transform="scale(0.015625)"/>
       <path d="M 3438 1997 
L 3047 0 
L 2472 0 
L 2578 531 
Q 2325 219 2001 64 
Q 1678 -91 1281 -91 
Q 834 -91 548 182 
Q 263 456 263 884 
Q 263 1497 752 1853 
Q 1241 2209 2100 2209 
L 2900 2209 
L 2931 2363 
Q 2938 2388 2941 2417 
Q 2944 2447 2944 2509 
Q 2944 2788 2717 2942 
Q 2491 3097 2081 3097 
Q 1800 3097 1504 3025 
Q 1209 2953 897 2809 
L 997 3341 
Q 1322 3463 1633 3523 
Q 1944 3584 2234 3584 
Q 2853 3584 3176 3315 
Q 3500 3047 3500 2534 
Q 3500 2431 3484 2292 
Q 3469 2153 3438 1997 
z
M 2816 1759 
L 2241 1759 
Q 1534 1759 1195 1570 
Q 856 1381 856 984 
Q 856 709 1029 553 
Q 1203 397 1509 397 
Q 1978 397 2328 733 
Q 2678 1069 2791 1631 
L 2816 1759 
z
" id="DejaVuSans-Oblique-61" transform="scale(0.015625)"/>
       <path d="M 1172 4863 
L 1747 4863 
L 1606 4134 
L 1031 4134 
L 1172 4863 
z
M 909 3500 
L 1484 3500 
L 800 0 
L 225 0 
L 909 3500 
z
" id="DejaVuSans-Oblique-69" transform="scale(0.015625)"/>
       <path d="M 2853 2969 
Q 2766 3016 2653 3041 
Q 2541 3066 2413 3066 
Q 1953 3066 1609 2717 
Q 1266 2369 1153 1784 
L 800 0 
L 225 0 
L 909 3500 
L 1484 3500 
L 1375 2956 
Q 1603 3259 1920 3421 
Q 2238 3584 2597 3584 
Q 2691 3584 2781 3573 
Q 2872 3563 2963 3538 
L 2853 2969 
z
" id="DejaVuSans-Oblique-72" transform="scale(0.015625)"/>
      </defs>
      <use transform="translate(0 0.09375)" xlink:href="#DejaVuSans-Oblique-46"/>
      <use transform="translate(57.519531 0.09375)" xlink:href="#DejaVuSans-Oblique-50"/>
      <use transform="translate(117.822266 0.09375)" xlink:href="#DejaVuSans-Oblique-52"/>
      <use transform="translate(187.304688 -16.3125)scale(0.7)" xlink:href="#DejaVuSans-Oblique-46"/>
      <use transform="translate(227.568359 -16.3125)scale(0.7)" xlink:href="#DejaVuSans-Oblique-61"/>
      <use transform="translate(270.463867 -16.3125)scale(0.7)" xlink:href="#DejaVuSans-Oblique-69"/>
      <use transform="translate(289.912109 -16.3125)scale(0.7)" xlink:href="#DejaVuSans-Oblique-72"/>
     </g>
    </g>
   </g>
   <g id="matplotlib.axis_2">
    <g id="ytick_1">
     <g id="line2d_7">
      <defs>
       <path d="M 0 0 
L -3.5 0 
" id="m10ecb06d61" style="stroke:#000000;stroke-width:0.8;"/>
      </defs>
      <g>
       <use style="stroke:#000000;stroke-width:0.8;" x="135" xlink:href="#m10ecb06d61" y="448.56"/>
      </g>
     </g>
     <g id="text_8">
      <!-- 0.0 -->
      <g transform="translate(99.374375 455.398594)scale(0.18 -0.18)">
       <use xlink:href="#DejaVuSans-30"/>
       <use x="63.623047" xlink:href="#DejaVuSans-2e"/>
       <use x="95.410156" xlink:href="#DejaVuSans-30"/>
      </g>
     </g>
    </g>
    <g id="ytick_2">
     <g id="line2d_8">
      <g>
       <use style="stroke:#000000;stroke-width:0.8;" x="135" xlink:href="#m10ecb06d61" y="370.944"/>
      </g>
     </g>
     <g id="text_9">
      <!-- 0.2 -->
      <g transform="translate(99.374375 377.782594)scale(0.18 -0.18)">
       <use xlink:href="#DejaVuSans-30"/>
       <use x="63.623047" xlink:href="#DejaVuSans-2e"/>
       <use x="95.410156" xlink:href="#DejaVuSans-32"/>
      </g>
     </g>
    </g>
    <g id="ytick_3">
     <g id="line2d_9">
      <g>
       <use style="stroke:#000000;stroke-width:0.8;" x="135" xlink:href="#m10ecb06d61" y="293.328"/>
      </g>
     </g>
     <g id="text_10">
      <!-- 0.4 -->
      <g transform="translate(99.374375 300.166594)scale(0.18 -0.18)">
       <use xlink:href="#DejaVuSans-30"/>
       <use x="63.623047" xlink:href="#DejaVuSans-2e"/>
       <use x="95.410156" xlink:href="#DejaVuSans-34"/>
      </g>
     </g>
    </g>
    <g id="ytick_4">
     <g id="line2d_10">
      <g>
       <use style="stroke:#000000;stroke-width:0.8;" x="135" xlink:href="#m10ecb06d61" y="215.712"/>
      </g>
     </g>
     <g id="text_11">
      <!-- 0.6 -->
      <g transform="translate(99.374375 222.550594)scale(0.18 -0.18)">
       <use xlink:href="#DejaVuSans-30"/>
       <use x="63.623047" xlink:href="#DejaVuSans-2e"/>
       <use x="95.410156" xlink:href="#DejaVuSans-36"/>
      </g>
     </g>
    </g>
    <g id="ytick_5">
     <g id="line2d_11">
      <g>
       <use style="stroke:#000000;stroke-width:0.8;" x="135" xlink:href="#m10ecb06d61" y="138.096"/>
      </g>
     </g>
     <g id="text_12">
      <!-- 0.8 -->
      <g transform="translate(99.374375 144.934594)scale(0.18 -0.18)">
       <use xlink:href="#DejaVuSans-30"/>
       <use x="63.623047" xlink:href="#DejaVuSans-2e"/>
       <use x="95.410156" xlink:href="#DejaVuSans-38"/>
      </g>
     </g>
    </g>
    <g id="ytick_6">
     <g id="line2d_12">
      <g>
       <use style="stroke:#000000;stroke-width:0.8;" x="135" xlink:href="#m10ecb06d61" y="60.48"/>
      </g>
     </g>
     <g id="text_13">
      <!-- 1.0 -->
      <g transform="translate(99.374375 67.318594)scale(0.18 -0.18)">
       <use xlink:href="#DejaVuSans-31"/>
       <use x="63.623047" xlink:href="#DejaVuSans-2e"/>
       <use x="95.410156" xlink:href="#DejaVuSans-30"/>
      </g>
     </g>
    </g>
    <g id="text_14">
     <!-- $TPR_{Fair}$ -->
     <g transform="translate(90.799062 290.27)rotate(-90)scale(0.22 -0.22)">
      <defs>
       <path d="M 378 4666 
L 4325 4666 
L 4225 4134 
L 2559 4134 
L 1759 0 
L 1125 0 
L 1925 4134 
L 275 4134 
L 378 4666 
z
" id="DejaVuSans-Oblique-54" transform="scale(0.015625)"/>
      </defs>
      <use transform="translate(0 0.09375)" xlink:href="#DejaVuSans-Oblique-54"/>
      <use transform="translate(61.083984 0.09375)" xlink:href="#DejaVuSans-Oblique-50"/>
      <use transform="translate(121.386719 0.09375)" xlink:href="#DejaVuSans-Oblique-52"/>
      <use transform="translate(190.869141 -16.3125)scale(0.7)" xlink:href="#DejaVuSans-Oblique-46"/>
      <use transform="translate(231.132812 -16.3125)scale(0.7)" xlink:href="#DejaVuSans-Oblique-61"/>
      <use transform="translate(274.02832 -16.3125)scale(0.7)" xlink:href="#DejaVuSans-Oblique-69"/>
      <use transform="translate(293.476562 -16.3125)scale(0.7)" xlink:href="#DejaVuSans-Oblique-72"/>
     </g>
    </g>
   </g>
   <g id="line2d_13">
    <path clip-path="url(#p6e2b298585)" d="M 135 448.56 
L 972 60.48 
" style="fill:none;stroke:#ff0000;stroke-dasharray:5.55,2.4;stroke-dashoffset:0;stroke-width:1.5;"/>
   </g>
   <g id="line2d_14">
    <path clip-path="url(#p6e2b298585)" d="M 972 60.48 
L 208.352616 411.321282 
L 172.615997 429.077537 
L 160.009329 435.373075 
L 153.540164 438.620015 
L 149.604622 440.616224 
L 146.985624 441.952669 
L 145.09508 442.882702 
L 143.686113 443.622021 
L 142.596867 444.176416 
L 141.716389 444.628561 
L 140.990562 445.003625 
L 140.391856 445.319292 
L 139.881171 445.575764 
L 139.454407 445.797475 
L 139.088006 445.990354 
L 138.767136 446.161012 
L 138.481225 446.321987 
L 138.228179 446.453605 
L 138.007676 446.574035 
L 137.807883 446.679324 
L 137.629587 446.775355 
L 137.468519 446.861651 
L 137.324543 446.945373 
L 137.196163 447.016409 
L 137.077483 447.086322 
L 136.969378 447.14639 
L 136.867935 447.203589 
L 136.774182 447.256287 
L 136.691153 447.306096 
L 136.609091 447.35197 
L 136.53731 447.396331 
L 136.469369 447.438577 
L 136.403704 447.478091 
L 136.344385 447.513175 
L 136.288504 447.546052 
L 136.236621 447.576814 
L 136.187483 447.606608 
L 136.143684 447.634295 
L 136.101932 447.661316 
L 136.063031 447.686954 
L 136.023503 447.712963 
L 135.990185 447.734574 
L 135.956632 447.759152 
L 135.925582 447.783554 
L 135.896231 447.804488 
L 135.86626 447.824118 
L 135.839216 447.842846 
L 135.813491 447.859951 
L 135.788946 447.87981 
L 135.767007 447.897945 
L 135.743492 447.914362 
L 135.722571 447.934354 
L 135.702233 447.94952 
L 135.683647 447.963829 
L 135.664994 447.9786 
L 135.648469 447.993258 
L 135.632384 448.006444 
L 135.616726 448.019884 
L 135.600266 448.029788 
L 135.584257 448.041508 
L 135.569888 448.052655 
L 135.555311 448.062535 
L 135.541545 448.073258 
L 135.528472 448.083988 
L 135.516767 448.092759 
L 135.504867 448.104364 
L 135.492851 448.113746 
L 135.480966 448.122061 
L 135.470319 448.129269 
L 135.460594 448.13747 
L 135.450336 448.146217 
L 135.439934 448.155559 
L 135.428571 448.162875 
L 135.420149 448.17106 
L 135.410781 448.177784 
L 135.399687 448.185105 
L 135.390872 448.192058 
L 135.381774 448.198635 
L 135.372224 448.205766 
L 135.362552 448.213668 
L 135.352012 448.220022 
L 135.342436 448.225573 
L 135.331915 448.231301 
L 135.321936 448.237123 
L 135.312479 448.243711 
L 135.305323 448.24885 
L 135.298096 448.254741 
L 135.289171 448.261169 
L 135.282027 448.267044 
L 135.27417 448.273446 
L 135.265512 448.279482 
L 135.258854 448.285894 
L 135.25052 448.291942 
L 135.244705 448.296668 
L 135.23855 448.302084 
L 135.231298 448.307225 
L 135.225424 448.314214 
L 135.219459 448.320514 
L 135.213315 448.327282 
L 135.207378 448.332396 
" style="fill:none;stroke:#1f77b4;stroke-linecap:square;stroke-width:1.5;"/>
   </g>
   <g id="line2d_15">
    <path clip-path="url(#p6e2b298585)" d="M 972 60.48 
L 542.934846 239.946156 
L 401.367524 306.283483 
L 330.70153 340.637083 
L 288.40358 361.846285 
L 260.317631 376.20924 
L 240.342096 386.61243 
L 225.358434 394.332542 
L 213.739317 400.527445 
L 204.459637 405.386235 
L 196.897854 409.401398 
L 190.651677 412.788247 
L 185.382486 415.630514 
L 180.86827 418.057488 
L 176.986674 420.206348 
L 173.613899 422.047161 
L 170.645462 423.687303 
L 168.038742 425.172195 
L 165.732126 426.499748 
L 163.633494 427.671724 
L 161.753679 428.738365 
L 160.090501 429.704445 
L 158.573987 430.586367 
L 157.190143 431.406292 
L 155.930911 432.161994 
L 154.781386 432.867125 
L 153.734165 433.501551 
L 152.76734 434.064767 
L 151.890405 434.60857 
L 151.082619 435.129868 
L 150.32235 435.598615 
L 149.625656 436.043891 
L 148.969508 436.463392 
L 148.374183 436.849797 
L 147.812111 437.217641 
L 147.288795 437.567766 
L 146.803898 437.895554 
L 146.341344 438.194879 
L 145.91118 438.486455 
L 145.510433 438.76765 
L 145.135925 439.034751 
L 144.779818 439.289947 
L 144.448549 439.536066 
L 144.13538 439.770501 
L 143.835264 439.98913 
L 143.548629 440.200206 
L 143.281454 440.410375 
L 143.027604 440.602029 
L 142.781622 440.788849 
L 142.554998 440.972054 
L 142.338645 441.147178 
L 142.126091 441.319118 
L 141.926677 441.494468 
L 141.734426 441.647266 
L 141.555071 441.797838 
L 141.374018 441.942552 
L 141.20911 442.082118 
L 141.050364 442.213066 
L 140.895744 442.349313 
L 140.746281 442.479327 
L 140.602842 442.602178 
L 140.465493 442.722027 
L 140.323226 442.836772 
L 140.192108 442.945657 
L 140.064553 443.054515 
L 139.93767 443.160742 
L 139.815818 443.268442 
L 139.698684 443.370859 
L 139.583464 443.470424 
L 139.476715 443.570169 
L 139.372788 443.66185 
L 139.270948 443.753156 
L 139.170981 443.846338 
L 139.072175 443.932403 
L 138.97424 444.017332 
L 138.879935 444.10072 
L 138.789229 444.181807 
L 138.700631 444.258855 
L 138.613312 444.342794 
L 138.530667 444.422002 
L 138.449299 444.497921 
L 138.370682 444.572439 
L 138.290634 444.640762 
L 138.212896 444.711064 
L 138.138678 444.780708 
L 138.065779 444.847121 
L 137.99437 444.916868 
L 137.926037 444.980982 
L 137.862036 445.048873 
L 137.793637 445.116509 
L 137.728281 445.181472 
L 137.667695 445.241763 
L 137.607648 445.308035 
L 137.542715 445.372883 
L 137.480638 445.431207 
L 137.418312 445.491345 
L 137.358719 445.552414 
L 137.303142 445.614046 
L 137.247391 445.680971 
L 137.187247 445.747155 
L 137.130394 445.805569 
" style="fill:none;stroke:#ff7f0e;stroke-linecap:square;stroke-width:1.5;"/>
   </g>
   <g id="line2d_16">
    <path clip-path="url(#p6e2b298585)" d="M 972 60.48 
L 968.886709 91.162276 
L 965.737393 117.900463 
L 962.473563 140.91663 
L 959.203106 161.261495 
L 955.725917 178.639754 
L 952.180076 194.604987 
L 948.724694 208.656164 
L 945.22631 221.428439 
L 941.638868 232.609253 
L 937.946169 243.20144 
L 934.177727 252.810363 
L 930.500549 261.51154 
L 926.645085 269.508816 
L 922.709043 277.093267 
L 919.001847 283.987642 
L 914.946006 290.42153 
L 910.990478 296.474432 
L 907.002753 302.183012 
L 902.662293 307.50602 
L 898.273257 312.394129 
L 893.917829 317.004115 
L 889.540423 321.401057 
L 885.000794 325.584262 
L 880.591029 329.525317 
L 875.948917 333.349049 
L 871.327594 336.89167 
L 866.849904 340.15962 
L 862.209567 343.374006 
L 857.655528 346.408926 
L 852.947764 349.270266 
L 848.297474 352.016706 
L 843.722295 354.642883 
L 839.000966 357.095446 
L 834.483835 359.487009 
L 829.868554 361.726252 
L 825.378087 363.858843 
L 820.815769 365.906457 
L 816.456573 367.865626 
L 812.061854 369.745979 
L 807.76247 371.556677 
L 803.40565 373.331517 
L 799.060869 375.058716 
L 794.878201 376.758759 
L 790.524436 378.31249 
L 786.250092 379.823591 
L 781.991338 381.322706 
L 777.758786 382.725055 
L 773.420116 384.122763 
L 769.349295 385.461385 
L 765.141654 386.77788 
L 760.673671 388.063971 
L 756.415127 389.313199 
L 751.940817 390.489475 
L 747.661406 391.652774 
L 743.179371 392.742618 
L 738.719412 393.812103 
L 734.259769 394.851816 
L 729.676257 395.892872 
L 725.008977 396.893219 
L 720.298913 397.867552 
L 715.829217 398.804482 
L 711.015707 399.713843 
L 706.087194 400.581987 
L 701.279734 401.444072 
L 696.269716 402.288599 
L 691.345438 403.110721 
L 686.378759 403.92553 
L 681.374919 404.705589 
L 676.602066 405.465792 
L 671.625955 406.212315 
L 666.515216 406.958801 
L 661.377645 407.719697 
L 656.12598 408.425545 
L 651.040557 409.130375 
L 645.519829 409.825056 
L 640.312255 410.486563 
L 634.852457 411.152106 
L 629.302571 411.842327 
L 623.839634 412.480117 
L 618.415419 413.130277 
L 612.838085 413.770835 
L 607.211803 414.352751 
L 601.4535 414.946074 
L 595.984001 415.53863 
L 590.379996 416.115705 
L 584.796823 416.707273 
L 578.852149 417.273555 
L 573.299005 417.846893 
L 567.718284 418.390009 
L 562.040398 418.952679 
L 556.536222 419.480614 
L 550.669585 420.032461 
L 544.802367 420.578985 
L 539.037297 421.109857 
L 533.318788 421.61742 
L 527.496703 422.139719 
L 521.792585 422.665496 
L 516.004252 423.201022 
L 509.808649 423.744948 
L 503.928951 424.252003 
" style="fill:none;stroke:#2ca02c;stroke-linecap:square;stroke-width:1.5;"/>
   </g>
   <g id="line2d_17">
    <path clip-path="url(#p6e2b298585)" d="M 972 60.48 
L 971.938298 63.00294 
L 971.885913 65.562364 
L 971.826591 68.178313 
L 971.759985 70.834116 
L 971.69622 73.281324 
L 971.612433 75.788269 
L 971.53087 78.286841 
L 971.449806 80.483421 
L 971.36926 82.633152 
L 971.27625 85.071864 
L 971.185699 87.397422 
L 971.099678 89.713188 
L 970.990082 92.077646 
L 970.909813 94.296994 
L 970.807037 96.52351 
L 970.689755 98.709683 
L 970.583626 100.847032 
L 970.483378 102.897125 
L 970.353226 105.066498 
L 970.211338 107.114668 
L 970.096167 108.863496 
L 969.941043 110.904688 
L 969.810015 112.947388 
L 969.694383 114.741707 
L 969.557486 116.662247 
L 969.400063 118.512665 
L 969.265278 120.275531 
L 969.097126 122.051785 
L 968.933768 123.866287 
L 968.770435 125.555756 
L 968.609109 127.259684 
L 968.431995 129.043113 
L 968.24292 130.687469 
L 968.070321 132.251411 
L 967.897629 133.893436 
L 967.730539 135.402933 
L 967.558419 136.751974 
L 967.369138 138.238989 
L 967.182598 139.726352 
L 966.988251 141.224425 
L 966.806343 142.619527 
L 966.611872 144.164656 
L 966.417891 145.57485 
L 966.169737 146.965591 
L 965.963063 148.313835 
L 965.74311 149.782121 
L 965.508267 151.136123 
L 965.28297 152.493443 
L 965.035252 153.714514 
L 964.797873 155.065386 
L 964.549335 156.419318 
L 964.336494 157.68639 
L 964.057801 159.08949 
L 963.812548 160.506032 
L 963.532853 161.860043 
L 963.259299 163.246967 
L 962.953166 164.49609 
L 962.69694 165.895654 
L 962.444367 167.23966 
L 962.095228 168.636927 
L 961.77168 170.012412 
L 961.397123 171.31552 
L 961.034186 172.727185 
L 960.632315 174.167759 
L 960.280405 175.503631 
L 959.875134 176.848373 
L 959.473325 178.263262 
L 959.087851 179.684139 
L 958.705908 181.08085 
L 958.267263 182.573042 
L 957.76113 184.163266 
L 957.324071 185.708894 
L 956.745701 187.266956 
L 956.328776 188.871935 
L 955.745998 190.350985 
L 955.236184 191.983675 
L 954.663606 193.570361 
L 954.065414 195.375938 
L 953.452105 197.101858 
L 952.77248 198.874139 
L 952.106079 200.730374 
L 951.436767 202.517873 
L 950.747736 204.279302 
L 950.038643 206.10577 
L 949.300788 207.943892 
L 948.491107 209.899434 
L 947.740672 211.831293 
L 946.974336 213.852962 
L 946.193252 215.834256 
L 945.400994 218.014973 
L 944.523242 220.041712 
L 943.63402 222.329657 
L 942.747192 224.544857 
L 941.845575 226.854186 
L 940.937136 229.054898 
L 940.051855 231.472583 
L 939.010067 233.833488 
L 937.910629 236.342665 
L 936.859542 238.840308 
L 935.75803 241.329899 
" style="fill:none;stroke:#d62728;stroke-linecap:square;stroke-width:1.5;"/>
   </g>
   <g id="line2d_18">
    <path clip-path="url(#p6e2b298585)" d="M 972 60.48 
L 810.045154 103.209173 
L 697.738337 138.017706 
L 615.104352 166.526233 
L 551.931829 190.687906 
L 502.188472 211.154554 
L 461.915432 228.719126 
L 428.68591 243.667418 
L 400.930854 257.211449 
L 377.30184 268.876899 
L 357.008737 279.325562 
L 339.420959 288.771426 
L 323.995498 297.213218 
L 310.408763 304.806287 
L 298.387415 311.817879 
L 287.588261 318.121276 
L 277.940538 323.968335 
L 269.185847 329.366605 
L 261.315454 334.38714 
L 254.114189 338.997163 
L 247.543469 343.295324 
L 241.546048 347.293129 
L 236.027949 351.00148 
L 230.942246 354.498672 
L 226.228557 357.792261 
L 221.882992 360.891718 
L 217.855961 363.776311 
L 214.110052 366.44908 
L 210.641357 368.993912 
L 207.392604 371.434099 
L 204.328528 373.718952 
L 201.48753 375.936976 
L 198.778824 378.00096 
L 196.278331 379.951055 
L 193.906684 381.787039 
L 191.664201 383.547852 
L 189.575325 385.239491 
L 187.583534 386.828968 
L 185.704491 388.367422 
L 183.941102 389.859509 
L 182.247088 391.272024 
L 180.626905 392.641208 
L 179.099691 393.952461 
L 177.648934 395.20069 
L 176.261285 396.408667 
L 174.930923 397.579651 
L 173.680949 398.720895 
L 172.465192 399.786287 
L 171.309343 400.859584 
L 170.205835 401.862946 
L 169.125279 402.835829 
L 168.098501 403.789981 
L 167.116122 404.722009 
L 166.16235 405.60472 
L 165.25707 406.491088 
L 164.380783 407.331895 
L 163.545041 408.151826 
L 162.721358 408.953434 
L 161.919419 409.729657 
L 161.170382 410.488272 
L 160.43329 411.232123 
L 159.727197 411.965773 
L 159.027213 412.671001 
L 158.361275 413.34124 
L 157.713715 414.038073 
L 157.077094 414.685546 
L 156.465655 415.3379 
L 155.871947 415.981102 
L 155.304478 416.600106 
L 154.755097 417.212304 
L 154.220646 417.81894 
L 153.701715 418.421114 
L 153.203453 419.010562 
L 152.709354 419.584022 
L 152.223988 420.135974 
L 151.75932 420.67635 
L 151.30511 421.214336 
L 150.873051 421.732322 
L 150.455007 422.275886 
L 150.043265 422.79569 
L 149.639631 423.312541 
L 149.245044 423.809343 
L 148.863046 424.300911 
L 148.490189 424.782135 
L 148.135935 425.249427 
L 147.782505 425.716819 
L 147.439584 426.178817 
L 147.104681 426.623097 
L 146.780979 427.072429 
L 146.461375 427.493436 
L 146.152164 427.945898 
L 145.850954 428.356183 
L 145.545598 428.784227 
L 145.248725 429.207717 
L 144.963203 429.613232 
L 144.680131 430.007838 
L 144.406545 430.41196 
L 144.141157 430.807388 
L 143.883868 431.209266 
L 143.622282 431.62074 
L 143.370536 432.00448 
" style="fill:none;stroke:#9467bd;stroke-linecap:square;stroke-width:1.5;"/>
   </g>
   <g id="line2d_19">
    <path clip-path="url(#p6e2b298585)" d="M 972 60.48 
L 852.505934 93.050248 
L 760.31189 120.64821 
L 686.937524 144.437307 
L 627.220363 165.311317 
L 577.884104 183.638751 
L 536.315355 199.980458 
L 500.931236 214.140515 
L 470.549728 227.382021 
L 444.060822 238.968149 
L 420.845221 249.528268 
L 400.344344 259.254352 
L 382.097169 268.110798 
L 365.785456 276.192534 
L 351.1775 283.79099 
L 337.911752 290.626221 
L 325.907184 297.026298 
L 314.90983 302.99225 
L 304.955873 308.577845 
L 295.792988 313.751159 
L 287.380239 318.660301 
L 279.639805 323.209758 
L 272.477314 327.471727 
L 265.822923 331.534848 
L 259.632543 335.363135 
L 253.902264 338.96031 
L 248.562749 342.377717 
L 243.568652 345.540892 
L 238.931215 348.574757 
L 234.58092 351.496125 
L 230.470589 354.221394 
L 226.641109 356.868799 
L 222.983095 359.383017 
L 219.584476 361.754812 
L 216.354997 364.025967 
L 213.307552 366.171813 
L 210.446658 368.252824 
L 207.702022 370.209922 
L 205.116839 372.11029 
L 202.678901 373.955371 
L 200.336217 375.719826 
L 198.098759 377.415762 
L 195.987837 379.059394 
L 193.964358 380.623639 
L 192.034554 382.14203 
L 190.191349 383.61204 
L 188.453845 385.039318 
L 186.76001 386.39707 
L 185.145026 387.742295 
L 183.601432 389.007537 
L 182.094573 390.250888 
L 180.651923 391.444765 
L 179.276858 392.615786 
L 177.951545 393.7334 
L 176.68823 394.842779 
L 175.461062 395.912023 
L 174.280992 396.954088 
L 173.132914 397.963657 
L 172.01107 398.955457 
L 170.954122 399.909898 
L 169.918953 400.861543 
L 168.929903 401.780911 
L 167.94837 402.68214 
L 167.012428 403.536495 
L 166.107057 404.401998 
L 165.215245 405.225747 
L 164.361043 406.046848 
L 163.536425 406.855506 
L 162.744503 407.636242 
L 161.970506 408.395897 
L 161.22345 409.160426 
L 160.500008 409.922178 
L 159.810713 410.67124 
L 159.11908 411.400546 
L 158.454211 412.098116 
L 157.807055 412.783402 
L 157.178201 413.459241 
L 156.572822 414.115122 
L 155.986223 414.80017 
L 155.413911 415.473047 
L 154.851587 416.12619 
L 154.310905 416.752995 
L 153.779294 417.374801 
L 153.264573 417.990487 
L 152.772716 418.586375 
L 152.282503 419.181629 
L 151.806408 419.775922 
L 151.349438 420.346039 
L 150.900329 420.924176 
L 150.462433 421.464059 
L 150.036665 422.036297 
L 149.616489 422.565273 
L 149.196376 423.125933 
L 148.789015 423.662121 
L 148.395527 424.184774 
L 148.005524 424.696603 
L 147.631553 425.223823 
L 147.268333 425.732835 
L 146.911736 426.25387 
L 146.550409 426.784933 
L 146.20528 427.283095 
" style="fill:none;stroke:#8c564b;stroke-linecap:square;stroke-width:1.5;"/>
   </g>
   <g id="line2d_20">
    <path clip-path="url(#p6e2b298585)" d="M 972 60.48 
L 971.933646 61.617002 
L 971.859435 62.786545 
L 971.789596 63.993535 
L 971.710175 65.227428 
L 971.635069 66.364078 
L 971.543949 67.540977 
L 971.448701 68.724763 
L 971.353007 69.77312 
L 971.262189 70.812541 
L 971.154558 72.000055 
L 971.051194 73.143854 
L 970.950501 74.295369 
L 970.831717 75.482679 
L 970.732676 76.606984 
L 970.614722 77.729461 
L 970.495974 78.8426 
L 970.37527 79.940121 
L 970.258587 80.998113 
L 970.128565 82.129821 
L 969.998358 83.208516 
L 969.866033 84.137165 
L 969.715553 85.236518 
L 969.583923 86.346675 
L 969.449659 87.318885 
L 969.298479 88.360485 
L 969.14651 89.394919 
L 968.998702 90.383998 
L 968.817194 91.398582 
L 968.631958 92.422484 
L 968.458601 93.38908 
L 968.278095 94.373561 
L 968.086938 95.40497 
L 967.907411 96.384821 
L 967.722576 97.315975 
L 967.542494 98.302696 
L 967.332505 99.224495 
L 967.127505 100.050677 
L 966.919734 100.962507 
L 966.708096 101.883087 
L 966.489161 102.808558 
L 966.2861 103.683282 
L 966.065168 104.639717 
L 965.826605 105.531975 
L 965.5564 106.411258 
L 965.310135 107.300373 
L 965.078227 108.237174 
L 964.814626 109.12803 
L 964.573496 110.031721 
L 964.303941 110.838559 
L 964.031655 111.750464 
L 963.748298 112.648825 
L 963.466575 113.497606 
L 963.15628 114.437785 
L 962.860938 115.391682 
L 962.583323 116.336154 
L 962.263818 117.276789 
L 961.929133 118.165527 
L 961.606763 119.161801 
L 961.289036 120.082714 
L 960.911601 121.056013 
L 960.551204 122.017564 
L 960.16365 122.93636 
L 959.758906 123.965924 
L 959.351271 124.962308 
L 958.953494 125.908562 
L 958.525441 126.876886 
L 958.099139 127.901866 
L 957.665747 128.953502 
L 957.203923 129.951206 
L 956.735545 131.023435 
L 956.200874 132.192763 
L 955.714626 133.344318 
L 955.166154 134.506942 
L 954.67628 135.690076 
L 954.106463 136.833908 
L 953.576048 138.087506 
L 952.976319 139.310876 
L 952.362059 140.686993 
L 951.727472 142.051609 
L 951.082158 143.431839 
L 950.414765 144.869911 
L 949.725244 146.303986 
L 949.044646 147.714853 
L 948.335119 149.194702 
L 947.585812 150.705468 
L 946.796147 152.310028 
L 946.003679 153.881645 
L 945.206026 155.588775 
L 944.377395 157.231341 
L 943.523379 159.028529 
L 942.602007 160.753045 
L 941.676606 162.699661 
L 940.714445 164.538966 
L 939.745335 166.567933 
L 938.773728 168.54404 
L 937.768596 170.679321 
L 936.669521 172.784702 
L 935.56153 175.012352 
L 934.425172 177.28104 
L 933.222569 179.602616 
" style="fill:none;stroke:#e377c2;stroke-linecap:square;stroke-width:1.5;"/>
   </g>
   <g id="line2d_21">
    <path clip-path="url(#p6e2b298585)" d="M 972 60.48 
L 880.671142 88.016219 
L 805.141769 112.231167 
L 741.510652 133.328905 
L 687.15981 152.19525 
L 640.413065 169.075735 
L 599.669622 184.244939 
L 563.969726 197.738926 
L 532.480698 210.45956 
L 504.474557 221.682334 
L 479.430127 232.052022 
L 456.972502 241.72285 
L 436.667003 250.541563 
L 418.248885 258.642837 
L 401.523862 266.30736 
L 386.210515 273.322821 
L 372.203844 279.944217 
L 359.262395 286.154117 
L 347.438067 292.013411 
L 336.501166 297.449887 
L 326.376068 302.59101 
L 316.984825 307.428734 
L 308.234795 311.968644 
L 300.077003 316.299107 
L 292.473268 320.393814 
L 285.407604 324.259462 
L 278.793609 327.955494 
L 272.566844 331.372515 
L 266.770058 334.679045 
L 261.313379 337.857744 
L 256.145805 340.835443 
L 251.329822 343.739719 
L 246.735401 346.493625 
L 242.423698 349.122474 
L 238.342634 351.610579 
L 234.498932 353.987195 
L 230.883699 356.258467 
L 227.412379 358.431517 
L 224.135352 360.512688 
L 221.032453 362.569354 
L 218.062 364.518736 
L 215.229566 366.394329 
L 212.538783 368.201566 
L 209.988006 369.945725 
L 207.552454 371.634558 
L 205.206555 373.298688 
L 202.997722 374.886539 
L 200.854019 376.411293 
L 198.814169 377.920732 
L 196.859239 379.350624 
L 194.956706 380.760074 
L 193.13957 382.130627 
L 191.396017 383.466439 
L 189.713767 384.735959 
L 188.10305 386.004041 
L 186.558934 387.232156 
L 185.064288 388.421969 
L 183.615189 389.587795 
L 182.196465 390.726443 
L 180.848857 391.820737 
L 179.539248 392.908414 
L 178.283546 393.961698 
L 177.050559 394.991362 
L 175.882531 395.979409 
L 174.749028 396.967714 
L 173.627984 397.920764 
L 172.560243 398.865179 
L 171.530168 399.780643 
L 170.528752 400.675745 
L 169.553343 401.543754 
L 168.616193 402.420024 
L 167.710136 403.294316 
L 166.840234 404.163103 
L 165.972997 404.997116 
L 165.13295 405.80887 
L 164.321058 406.613044 
L 163.532126 407.401223 
L 162.763815 408.169411 
L 162.020241 408.964316 
L 161.297135 409.74293 
L 160.593922 410.503739 
L 159.914278 411.238627 
L 159.247356 411.954668 
L 158.601335 412.671413 
L 157.981206 413.369599 
L 157.360095 414.065251 
L 156.759968 414.755462 
L 156.18551 415.421285 
L 155.617569 416.094251 
L 155.058235 416.730196 
L 154.515475 417.396615 
L 153.985124 418.017619 
L 153.455531 418.663056 
L 152.942529 419.288947 
L 152.444412 419.913482 
L 151.953475 420.517802 
L 151.478677 421.137616 
L 151.013958 421.734235 
L 150.554669 422.343689 
L 150.090701 422.963618 
L 149.649594 423.556621 
" style="fill:none;stroke:#7f7f7f;stroke-linecap:square;stroke-width:1.5;"/>
   </g>
   <g id="line2d_22">
    <path clip-path="url(#p6e2b298585)" d="M 972 60.48 
L 971.980114 61.370881 
L 971.963642 62.284689 
L 971.944435 63.229611 
L 971.923432 64.197728 
L 971.903251 65.101968 
L 971.876139 66.040579 
L 971.849671 66.984987 
L 971.823914 67.824569 
L 971.798289 68.655591 
L 971.768661 69.605398 
L 971.739742 70.521858 
L 971.712154 71.446546 
L 971.675752 72.398488 
L 971.649789 73.302947 
L 971.61531 74.212903 
L 971.577369 75.124742 
L 971.542773 76.019429 
L 971.509957 76.880181 
L 971.467004 77.801038 
L 971.420752 78.680167 
L 971.382814 79.447422 
L 971.330072 80.346749 
L 971.285457 81.256561 
L 971.246519 82.06115 
L 971.200664 82.916296 
L 971.147069 83.769643 
L 971.1001 84.590014 
L 971.041865 85.421476 
L 970.984303 86.274891 
L 970.928163 87.08356 
L 970.872472 87.903774 
L 970.807306 88.766753 
L 970.741166 89.583368 
L 970.679819 90.362433 
L 970.616672 91.184861 
L 970.557054 91.948403 
L 970.492724 92.638841 
L 970.422297 93.400902 
L 970.353423 94.174647 
L 970.281669 94.957098 
L 970.213694 95.694229 
L 970.139046 96.505003 
L 970.064898 97.252959 
L 969.972074 98.001712 
L 969.893781 98.753597 
L 969.810481 99.538569 
L 969.720704 100.285797 
L 969.631137 101.047773 
L 969.535146 101.734923 
L 969.44066 102.505 
L 969.343859 103.266841 
L 969.25925 103.990315 
L 969.150262 104.797124 
L 969.050685 105.612698 
L 968.941254 106.414735 
L 968.831297 107.222405 
L 968.710518 107.98015 
L 968.606565 108.829029 
L 968.502684 109.623691 
L 968.356544 110.45986 
L 968.222657 111.287406 
L 968.073964 112.079323 
L 967.926563 112.956724 
L 967.764275 113.802642 
L 967.617955 114.623496 
L 967.455583 115.455863 
L 967.29418 116.320459 
L 967.135744 117.220954 
L 966.97606 118.069236 
L 966.79544 118.993493 
L 966.58985 120.011825 
L 966.409016 121.010714 
L 966.171969 122.016179 
L 965.995891 123.038165 
L 965.752859 124.027031 
L 965.542715 125.107437 
L 965.303919 126.183525 
L 965.053856 127.368949 
L 964.799897 128.560504 
L 964.52058 129.758696 
L 964.247636 131.017159 
L 963.968013 132.252275 
L 963.679229 133.500703 
L 963.378312 134.801511 
L 963.063895 136.129927 
L 962.723204 137.537667 
L 962.408946 138.937095 
L 962.078172 140.432955 
L 961.738886 141.897249 
L 961.399311 143.486103 
L 961.014965 145.033591 
L 960.629986 146.771809 
L 960.24847 148.42783 
L 959.853149 150.24507 
L 959.456871 152.024782 
L 959.068617 153.950621 
L 958.604152 155.865009 
L 958.114312 157.907691 
L 957.649693 159.968962 
L 957.151487 162.101976 
" style="fill:none;stroke:#bcbd22;stroke-linecap:square;stroke-width:1.5;"/>
   </g>
   <g id="line2d_23">
    <path clip-path="url(#p6e2b298585)" d="M 972 60.48 
L 900.091008 88.524699 
L 837.654401 113.020323 
L 782.802791 134.477389 
L 734.243665 153.543715 
L 691.142011 170.65209 
L 652.575278 186.142226 
L 617.938864 199.85019 
L 586.711386 212.702396 
L 558.402347 224.133732 
L 532.624752 234.618022 
L 509.117252 244.370743 
L 487.565259 253.321529 
L 467.760179 261.532591 
L 449.582176 269.32234 
L 432.740997 276.377927 
L 417.194511 283.068632 
L 402.703547 289.320478 
L 389.346078 295.192931 
L 376.892493 300.621693 
L 365.293269 305.800313 
L 354.474041 310.635462 
L 344.331266 315.201233 
L 334.817676 319.550582 
L 325.910828 323.658809 
L 317.598627 327.55098 
L 309.774481 331.267878 
L 302.400472 334.725277 
L 295.48742 338.056957 
L 288.967746 341.236767 
L 282.811031 344.239525 
L 277.024354 347.138078 
L 271.509042 349.90598 
L 266.321365 352.54824 
L 261.401951 355.058673 
L 256.766943 357.451144 
L 252.386962 359.751968 
L 248.187805 361.946472 
L 244.221793 364.047078 
L 240.464106 366.096591 
L 236.857627 368.052447 
L 233.431076 369.940794 
L 230.17091 371.775948 
L 227.07193 373.526107 
L 224.109016 375.221819 
L 221.269868 376.87374 
L 218.582217 378.464662 
L 215.970117 379.978697 
L 213.479071 381.481186 
L 211.102805 382.913069 
L 208.789093 384.308418 
L 206.58306 385.655708 
L 204.476099 386.975838 
L 202.434204 388.244148 
L 200.470701 389.496089 
L 198.602451 390.69577 
L 196.792449 391.862957 
L 195.032359 393.008202 
L 193.321317 394.126552 
L 191.687255 395.205863 
L 190.095603 396.271413 
L 188.568226 397.29878 
L 187.081515 398.300074 
L 185.664426 399.257379 
L 184.292174 400.208573 
L 182.945175 401.130732 
L 181.654856 402.041474 
L 180.403739 402.927279 
L 179.187904 403.791135 
L 178.014947 404.619936 
L 176.88386 405.45895 
L 175.787358 406.294321 
L 174.738333 407.116265 
L 173.692898 407.916078 
L 172.669763 408.687901 
L 171.690469 409.45479 
L 170.739876 410.203544 
L 169.820752 410.935857 
L 168.924614 411.683936 
L 168.047389 412.416429 
L 167.201465 413.136147 
L 166.376609 413.827584 
L 165.572373 414.500048 
L 164.789152 415.177994 
L 164.032251 415.838373 
L 163.274035 416.492271 
L 162.546105 417.147721 
L 161.841116 417.783804 
L 161.14379 418.417586 
L 160.456949 419.021455 
L 159.784897 419.646759 
L 159.134554 420.239207 
L 158.48109 420.848672 
L 157.845409 421.443878 
L 157.221696 422.03186 
L 156.608133 422.598325 
L 156.010358 423.181254 
L 155.423993 423.748976 
L 154.846814 424.326081 
L 154.264179 424.910915 
L 153.703761 425.475599 
" style="fill:none;stroke:#17becf;stroke-linecap:square;stroke-width:1.5;"/>
   </g>
   <g id="patch_3">
    <path d="M 135 448.56 
L 135 60.48 
" style="fill:none;stroke:#000000;stroke-linecap:square;stroke-linejoin:miter;stroke-width:0.8;"/>
   </g>
   <g id="patch_4">
    <path d="M 972 448.56 
L 972 60.48 
" style="fill:none;stroke:#000000;stroke-linecap:square;stroke-linejoin:miter;stroke-width:0.8;"/>
   </g>
   <g id="patch_5">
    <path d="M 135 448.56 
L 972 448.56 
" style="fill:none;stroke:#000000;stroke-linecap:square;stroke-linejoin:miter;stroke-width:0.8;"/>
   </g>
   <g id="patch_6">
    <path d="M 135 60.48 
L 972 60.48 
" style="fill:none;stroke:#000000;stroke-linecap:square;stroke-linejoin:miter;stroke-width:0.8;"/>
   </g>
   <g id="legend_1">
    <g id="patch_7">
     <path d="M 147.6 339.08625 
L 256.730625 339.08625 
Q 260.330625 339.08625 260.330625 335.48625 
L 260.330625 73.08 
Q 260.330625 69.48 256.730625 69.48 
L 147.6 69.48 
Q 144 69.48 144 73.08 
L 144 335.48625 
Q 144 339.08625 147.6 339.08625 
z
" style="fill:#ffffff;opacity:0.8;stroke:#cccccc;stroke-linejoin:miter;"/>
    </g>
    <g id="line2d_24">
     <path d="M 151.2 84.057188 
L 187.2 84.057188 
" style="fill:none;stroke:#1f77b4;stroke-linecap:square;stroke-width:1.5;"/>
    </g>
    <g id="line2d_25"/>
    <g id="text_15">
     <!-- 0.001 -->
     <g transform="translate(201.6 90.357188)scale(0.18 -0.18)">
      <use xlink:href="#DejaVuSans-30"/>
      <use x="63.623047" xlink:href="#DejaVuSans-2e"/>
      <use x="95.410156" xlink:href="#DejaVuSans-30"/>
      <use x="159.033203" xlink:href="#DejaVuSans-30"/>
      <use x="222.65625" xlink:href="#DejaVuSans-31"/>
     </g>
    </g>
    <g id="line2d_26">
     <path d="M 151.2 110.477812 
L 187.2 110.477812 
" style="fill:none;stroke:#ff7f0e;stroke-linecap:square;stroke-width:1.5;"/>
    </g>
    <g id="line2d_27"/>
    <g id="text_16">
     <!-- 0.011 -->
     <g transform="translate(201.6 116.777812)scale(0.18 -0.18)">
      <use xlink:href="#DejaVuSans-30"/>
      <use x="63.623047" xlink:href="#DejaVuSans-2e"/>
      <use x="95.410156" xlink:href="#DejaVuSans-30"/>
      <use x="159.033203" xlink:href="#DejaVuSans-31"/>
      <use x="222.65625" xlink:href="#DejaVuSans-31"/>
     </g>
    </g>
    <g id="line2d_28">
     <path d="M 151.2 136.898438 
L 187.2 136.898438 
" style="fill:none;stroke:#2ca02c;stroke-linecap:square;stroke-width:1.5;"/>
    </g>
    <g id="line2d_29"/>
    <g id="text_17">
     <!-- 0.021 -->
     <g transform="translate(201.6 143.198438)scale(0.18 -0.18)">
      <use xlink:href="#DejaVuSans-30"/>
      <use x="63.623047" xlink:href="#DejaVuSans-2e"/>
      <use x="95.410156" xlink:href="#DejaVuSans-30"/>
      <use x="159.033203" xlink:href="#DejaVuSans-32"/>
      <use x="222.65625" xlink:href="#DejaVuSans-31"/>
     </g>
    </g>
    <g id="line2d_30">
     <path d="M 151.2 163.319062 
L 187.2 163.319062 
" style="fill:none;stroke:#d62728;stroke-linecap:square;stroke-width:1.5;"/>
    </g>
    <g id="line2d_31"/>
    <g id="text_18">
     <!-- 0.031 -->
     <g transform="translate(201.6 169.619062)scale(0.18 -0.18)">
      <defs>
       <path d="M 2597 2516 
Q 3050 2419 3304 2112 
Q 3559 1806 3559 1356 
Q 3559 666 3084 287 
Q 2609 -91 1734 -91 
Q 1441 -91 1130 -33 
Q 819 25 488 141 
L 488 750 
Q 750 597 1062 519 
Q 1375 441 1716 441 
Q 2309 441 2620 675 
Q 2931 909 2931 1356 
Q 2931 1769 2642 2001 
Q 2353 2234 1838 2234 
L 1294 2234 
L 1294 2753 
L 1863 2753 
Q 2328 2753 2575 2939 
Q 2822 3125 2822 3475 
Q 2822 3834 2567 4026 
Q 2313 4219 1838 4219 
Q 1578 4219 1281 4162 
Q 984 4106 628 3988 
L 628 4550 
Q 988 4650 1302 4700 
Q 1616 4750 1894 4750 
Q 2613 4750 3031 4423 
Q 3450 4097 3450 3541 
Q 3450 3153 3228 2886 
Q 3006 2619 2597 2516 
z
" id="DejaVuSans-33" transform="scale(0.015625)"/>
      </defs>
      <use xlink:href="#DejaVuSans-30"/>
      <use x="63.623047" xlink:href="#DejaVuSans-2e"/>
      <use x="95.410156" xlink:href="#DejaVuSans-30"/>
      <use x="159.033203" xlink:href="#DejaVuSans-33"/>
      <use x="222.65625" xlink:href="#DejaVuSans-31"/>
     </g>
    </g>
    <g id="line2d_32">
     <path d="M 151.2 189.739688 
L 187.2 189.739688 
" style="fill:none;stroke:#9467bd;stroke-linecap:square;stroke-width:1.5;"/>
    </g>
    <g id="line2d_33"/>
    <g id="text_19">
     <!-- 0.041 -->
     <g transform="translate(201.6 196.039688)scale(0.18 -0.18)">
      <use xlink:href="#DejaVuSans-30"/>
      <use x="63.623047" xlink:href="#DejaVuSans-2e"/>
      <use x="95.410156" xlink:href="#DejaVuSans-30"/>
      <use x="159.033203" xlink:href="#DejaVuSans-34"/>
      <use x="222.65625" xlink:href="#DejaVuSans-31"/>
     </g>
    </g>
    <g id="line2d_34">
     <path d="M 151.2 216.160312 
L 187.2 216.160312 
" style="fill:none;stroke:#8c564b;stroke-linecap:square;stroke-width:1.5;"/>
    </g>
    <g id="line2d_35"/>
    <g id="text_20">
     <!-- 0.051 -->
     <g transform="translate(201.6 222.460312)scale(0.18 -0.18)">
      <defs>
       <path d="M 691 4666 
L 3169 4666 
L 3169 4134 
L 1269 4134 
L 1269 2991 
Q 1406 3038 1543 3061 
Q 1681 3084 1819 3084 
Q 2600 3084 3056 2656 
Q 3513 2228 3513 1497 
Q 3513 744 3044 326 
Q 2575 -91 1722 -91 
Q 1428 -91 1123 -41 
Q 819 9 494 109 
L 494 744 
Q 775 591 1075 516 
Q 1375 441 1709 441 
Q 2250 441 2565 725 
Q 2881 1009 2881 1497 
Q 2881 1984 2565 2268 
Q 2250 2553 1709 2553 
Q 1456 2553 1204 2497 
Q 953 2441 691 2322 
L 691 4666 
z
" id="DejaVuSans-35" transform="scale(0.015625)"/>
      </defs>
      <use xlink:href="#DejaVuSans-30"/>
      <use x="63.623047" xlink:href="#DejaVuSans-2e"/>
      <use x="95.410156" xlink:href="#DejaVuSans-30"/>
      <use x="159.033203" xlink:href="#DejaVuSans-35"/>
      <use x="222.65625" xlink:href="#DejaVuSans-31"/>
     </g>
    </g>
    <g id="line2d_36">
     <path d="M 151.2 242.580937 
L 187.2 242.580937 
" style="fill:none;stroke:#e377c2;stroke-linecap:square;stroke-width:1.5;"/>
    </g>
    <g id="line2d_37"/>
    <g id="text_21">
     <!-- 0.061 -->
     <g transform="translate(201.6 248.880937)scale(0.18 -0.18)">
      <use xlink:href="#DejaVuSans-30"/>
      <use x="63.623047" xlink:href="#DejaVuSans-2e"/>
      <use x="95.410156" xlink:href="#DejaVuSans-30"/>
      <use x="159.033203" xlink:href="#DejaVuSans-36"/>
      <use x="222.65625" xlink:href="#DejaVuSans-31"/>
     </g>
    </g>
    <g id="line2d_38">
     <path d="M 151.2 269.001562 
L 187.2 269.001562 
" style="fill:none;stroke:#7f7f7f;stroke-linecap:square;stroke-width:1.5;"/>
    </g>
    <g id="line2d_39"/>
    <g id="text_22">
     <!-- 0.071 -->
     <g transform="translate(201.6 275.301562)scale(0.18 -0.18)">
      <defs>
       <path d="M 525 4666 
L 3525 4666 
L 3525 4397 
L 1831 0 
L 1172 0 
L 2766 4134 
L 525 4134 
L 525 4666 
z
" id="DejaVuSans-37" transform="scale(0.015625)"/>
      </defs>
      <use xlink:href="#DejaVuSans-30"/>
      <use x="63.623047" xlink:href="#DejaVuSans-2e"/>
      <use x="95.410156" xlink:href="#DejaVuSans-30"/>
      <use x="159.033203" xlink:href="#DejaVuSans-37"/>
      <use x="222.65625" xlink:href="#DejaVuSans-31"/>
     </g>
    </g>
    <g id="line2d_40">
     <path d="M 151.2 295.422188 
L 187.2 295.422188 
" style="fill:none;stroke:#bcbd22;stroke-linecap:square;stroke-width:1.5;"/>
    </g>
    <g id="line2d_41"/>
    <g id="text_23">
     <!-- 0.081 -->
     <g transform="translate(201.6 301.722188)scale(0.18 -0.18)">
      <use xlink:href="#DejaVuSans-30"/>
      <use x="63.623047" xlink:href="#DejaVuSans-2e"/>
      <use x="95.410156" xlink:href="#DejaVuSans-30"/>
      <use x="159.033203" xlink:href="#DejaVuSans-38"/>
      <use x="222.65625" xlink:href="#DejaVuSans-31"/>
     </g>
    </g>
    <g id="line2d_42">
     <path d="M 151.2 321.842812 
L 187.2 321.842812 
" style="fill:none;stroke:#17becf;stroke-linecap:square;stroke-width:1.5;"/>
    </g>
    <g id="line2d_43"/>
    <g id="text_24">
     <!-- 0.091 -->
     <g transform="translate(201.6 328.142812)scale(0.18 -0.18)">
      <defs>
       <path d="M 703 97 
L 703 672 
Q 941 559 1184 500 
Q 1428 441 1663 441 
Q 2288 441 2617 861 
Q 2947 1281 2994 2138 
Q 2813 1869 2534 1725 
Q 2256 1581 1919 1581 
Q 1219 1581 811 2004 
Q 403 2428 403 3163 
Q 403 3881 828 4315 
Q 1253 4750 1959 4750 
Q 2769 4750 3195 4129 
Q 3622 3509 3622 2328 
Q 3622 1225 3098 567 
Q 2575 -91 1691 -91 
Q 1453 -91 1209 -44 
Q 966 3 703 97 
z
M 1959 2075 
Q 2384 2075 2632 2365 
Q 2881 2656 2881 3163 
Q 2881 3666 2632 3958 
Q 2384 4250 1959 4250 
Q 1534 4250 1286 3958 
Q 1038 3666 1038 3163 
Q 1038 2656 1286 2365 
Q 1534 2075 1959 2075 
z
" id="DejaVuSans-39" transform="scale(0.015625)"/>
      </defs>
      <use xlink:href="#DejaVuSans-30"/>
      <use x="63.623047" xlink:href="#DejaVuSans-2e"/>
      <use x="95.410156" xlink:href="#DejaVuSans-30"/>
      <use x="159.033203" xlink:href="#DejaVuSans-39"/>
      <use x="222.65625" xlink:href="#DejaVuSans-31"/>
     </g>
    </g>
   </g>
  </g>
 </g>
 <defs>
  <clipPath id="p6e2b298585">
   <rect height="388.08" width="837" x="135" y="60.48"/>
  </clipPath>
 </defs>
</svg>
