<?xml version="1.0" encoding="utf-8" standalone="no"?>
<!DOCTYPE svg PUBLIC "-//W3C//DTD SVG 1.1//EN"
  "http://www.w3.org/Graphics/SVG/1.1/DTD/svg11.dtd">
<svg height="504pt" version="1.1" viewBox="0 0 1080 504" width="1080pt" xmlns="http://www.w3.org/2000/svg" xmlns:xlink="http://www.w3.org/1999/xlink">
 <metadata>
  <rdf:RDF xmlns:cc="http://creativecommons.org/ns#" xmlns:dc="http://purl.org/dc/elements/1.1/" xmlns:rdf="http://www.w3.org/1999/02/22-rdf-syntax-ns#">
   <cc:Work>
    <dc:type rdf:resource="http://purl.org/dc/dcmitype/StillImage"/>
    <dc:date>2022-01-07T13:24:42.878117</dc:date>
    <dc:format>image/svg+xml</dc:format>
    <dc:creator>
     <cc:Agent>
      <dc:title>Matplotlib v3.4.3, https://matplotlib.org/</dc:title>
     </cc:Agent>
    </dc:creator>
   </cc:Work>
  </rdf:RDF>
 </metadata>
 <defs>
  <style type="text/css">*{stroke-linecap:butt;stroke-linejoin:round;}</style>
 </defs>
 <g id="figure_1">
  <g id="patch_1">
   <path d="M 0 504 
L 1080 504 
L 1080 0 
L 0 0 
z
" style="fill:#ffffff;"/>
  </g>
  <g id="axes_1">
   <g id="patch_2">
    <path d="M 135 448.56 
L 972 448.56 
L 972 60.48 
L 135 60.48 
z
" style="fill:#ffffff;"/>
   </g>
   <g id="matplotlib.axis_1">
    <g id="xtick_1">
     <g id="line2d_1">
      <defs>
       <path d="M 0 0 
L 0 3.5 
" id="m9614bec0df" style="stroke:#000000;stroke-width:0.8;"/>
      </defs>
      <g>
       <use style="stroke:#000000;stroke-width:0.8;" x="135" xlink:href="#m9614bec0df" y="448.56"/>
      </g>
     </g>
     <g id="text_1">
      <!-- 0.0 -->
      <g transform="translate(120.687187 469.237188)scale(0.18 -0.18)">
       <defs>
        <path d="M 2034 4250 
Q 1547 4250 1301 3770 
Q 1056 3291 1056 2328 
Q 1056 1369 1301 889 
Q 1547 409 2034 409 
Q 2525 409 2770 889 
Q 3016 1369 3016 2328 
Q 3016 3291 2770 3770 
Q 2525 4250 2034 4250 
z
M 2034 4750 
Q 2819 4750 3233 4129 
Q 3647 3509 3647 2328 
Q 3647 1150 3233 529 
Q 2819 -91 2034 -91 
Q 1250 -91 836 529 
Q 422 1150 422 2328 
Q 422 3509 836 4129 
Q 1250 4750 2034 4750 
z
" id="DejaVuSans-30" transform="scale(0.015625)"/>
        <path d="M 684 794 
L 1344 794 
L 1344 0 
L 684 0 
L 684 794 
z
" id="DejaVuSans-2e" transform="scale(0.015625)"/>
       </defs>
       <use xlink:href="#DejaVuSans-30"/>
       <use x="63.623047" xlink:href="#DejaVuSans-2e"/>
       <use x="95.410156" xlink:href="#DejaVuSans-30"/>
      </g>
     </g>
    </g>
    <g id="xtick_2">
     <g id="line2d_2">
      <g>
       <use style="stroke:#000000;stroke-width:0.8;" x="302.4" xlink:href="#m9614bec0df" y="448.56"/>
      </g>
     </g>
     <g id="text_2">
      <!-- 0.2 -->
      <g transform="translate(288.087187 469.237188)scale(0.18 -0.18)">
       <defs>
        <path d="M 1228 531 
L 3431 531 
L 3431 0 
L 469 0 
L 469 531 
Q 828 903 1448 1529 
Q 2069 2156 2228 2338 
Q 2531 2678 2651 2914 
Q 2772 3150 2772 3378 
Q 2772 3750 2511 3984 
Q 2250 4219 1831 4219 
Q 1534 4219 1204 4116 
Q 875 4013 500 3803 
L 500 4441 
Q 881 4594 1212 4672 
Q 1544 4750 1819 4750 
Q 2544 4750 2975 4387 
Q 3406 4025 3406 3419 
Q 3406 3131 3298 2873 
Q 3191 2616 2906 2266 
Q 2828 2175 2409 1742 
Q 1991 1309 1228 531 
z
" id="DejaVuSans-32" transform="scale(0.015625)"/>
       </defs>
       <use xlink:href="#DejaVuSans-30"/>
       <use x="63.623047" xlink:href="#DejaVuSans-2e"/>
       <use x="95.410156" xlink:href="#DejaVuSans-32"/>
      </g>
     </g>
    </g>
    <g id="xtick_3">
     <g id="line2d_3">
      <g>
       <use style="stroke:#000000;stroke-width:0.8;" x="469.8" xlink:href="#m9614bec0df" y="448.56"/>
      </g>
     </g>
     <g id="text_3">
      <!-- 0.4 -->
      <g transform="translate(455.487188 469.237188)scale(0.18 -0.18)">
       <defs>
        <path d="M 2419 4116 
L 825 1625 
L 2419 1625 
L 2419 4116 
z
M 2253 4666 
L 3047 4666 
L 3047 1625 
L 3713 1625 
L 3713 1100 
L 3047 1100 
L 3047 0 
L 2419 0 
L 2419 1100 
L 313 1100 
L 313 1709 
L 2253 4666 
z
" id="DejaVuSans-34" transform="scale(0.015625)"/>
       </defs>
       <use xlink:href="#DejaVuSans-30"/>
       <use x="63.623047" xlink:href="#DejaVuSans-2e"/>
       <use x="95.410156" xlink:href="#DejaVuSans-34"/>
      </g>
     </g>
    </g>
    <g id="xtick_4">
     <g id="line2d_4">
      <g>
       <use style="stroke:#000000;stroke-width:0.8;" x="637.2" xlink:href="#m9614bec0df" y="448.56"/>
      </g>
     </g>
     <g id="text_4">
      <!-- 0.6 -->
      <g transform="translate(622.887188 469.237188)scale(0.18 -0.18)">
       <defs>
        <path d="M 2113 2584 
Q 1688 2584 1439 2293 
Q 1191 2003 1191 1497 
Q 1191 994 1439 701 
Q 1688 409 2113 409 
Q 2538 409 2786 701 
Q 3034 994 3034 1497 
Q 3034 2003 2786 2293 
Q 2538 2584 2113 2584 
z
M 3366 4563 
L 3366 3988 
Q 3128 4100 2886 4159 
Q 2644 4219 2406 4219 
Q 1781 4219 1451 3797 
Q 1122 3375 1075 2522 
Q 1259 2794 1537 2939 
Q 1816 3084 2150 3084 
Q 2853 3084 3261 2657 
Q 3669 2231 3669 1497 
Q 3669 778 3244 343 
Q 2819 -91 2113 -91 
Q 1303 -91 875 529 
Q 447 1150 447 2328 
Q 447 3434 972 4092 
Q 1497 4750 2381 4750 
Q 2619 4750 2861 4703 
Q 3103 4656 3366 4563 
z
" id="DejaVuSans-36" transform="scale(0.015625)"/>
       </defs>
       <use xlink:href="#DejaVuSans-30"/>
       <use x="63.623047" xlink:href="#DejaVuSans-2e"/>
       <use x="95.410156" xlink:href="#DejaVuSans-36"/>
      </g>
     </g>
    </g>
    <g id="xtick_5">
     <g id="line2d_5">
      <g>
       <use style="stroke:#000000;stroke-width:0.8;" x="804.6" xlink:href="#m9614bec0df" y="448.56"/>
      </g>
     </g>
     <g id="text_5">
      <!-- 0.8 -->
      <g transform="translate(790.287188 469.237188)scale(0.18 -0.18)">
       <defs>
        <path d="M 2034 2216 
Q 1584 2216 1326 1975 
Q 1069 1734 1069 1313 
Q 1069 891 1326 650 
Q 1584 409 2034 409 
Q 2484 409 2743 651 
Q 3003 894 3003 1313 
Q 3003 1734 2745 1975 
Q 2488 2216 2034 2216 
z
M 1403 2484 
Q 997 2584 770 2862 
Q 544 3141 544 3541 
Q 544 4100 942 4425 
Q 1341 4750 2034 4750 
Q 2731 4750 3128 4425 
Q 3525 4100 3525 3541 
Q 3525 3141 3298 2862 
Q 3072 2584 2669 2484 
Q 3125 2378 3379 2068 
Q 3634 1759 3634 1313 
Q 3634 634 3220 271 
Q 2806 -91 2034 -91 
Q 1263 -91 848 271 
Q 434 634 434 1313 
Q 434 1759 690 2068 
Q 947 2378 1403 2484 
z
M 1172 3481 
Q 1172 3119 1398 2916 
Q 1625 2713 2034 2713 
Q 2441 2713 2670 2916 
Q 2900 3119 2900 3481 
Q 2900 3844 2670 4047 
Q 2441 4250 2034 4250 
Q 1625 4250 1398 4047 
Q 1172 3844 1172 3481 
z
" id="DejaVuSans-38" transform="scale(0.015625)"/>
       </defs>
       <use xlink:href="#DejaVuSans-30"/>
       <use x="63.623047" xlink:href="#DejaVuSans-2e"/>
       <use x="95.410156" xlink:href="#DejaVuSans-38"/>
      </g>
     </g>
    </g>
    <g id="xtick_6">
     <g id="line2d_6">
      <g>
       <use style="stroke:#000000;stroke-width:0.8;" x="972" xlink:href="#m9614bec0df" y="448.56"/>
      </g>
     </g>
     <g id="text_6">
      <!-- 1.0 -->
      <g transform="translate(957.687188 469.237188)scale(0.18 -0.18)">
       <defs>
        <path d="M 794 531 
L 1825 531 
L 1825 4091 
L 703 3866 
L 703 4441 
L 1819 4666 
L 2450 4666 
L 2450 531 
L 3481 531 
L 3481 0 
L 794 0 
L 794 531 
z
" id="DejaVuSans-31" transform="scale(0.015625)"/>
       </defs>
       <use xlink:href="#DejaVuSans-31"/>
       <use x="63.623047" xlink:href="#DejaVuSans-2e"/>
       <use x="95.410156" xlink:href="#DejaVuSans-30"/>
      </g>
     </g>
    </g>
    <g id="text_7">
     <!-- $FPR_{Fair}$ -->
     <g transform="translate(518.08 493.697187)scale(0.22 -0.22)">
      <defs>
       <path d="M 1081 4666 
L 3756 4666 
L 3653 4134 
L 1606 4134 
L 1338 2759 
L 3188 2759 
L 3084 2228 
L 1234 2228 
L 800 0 
L 172 0 
L 1081 4666 
z
" id="DejaVuSans-Oblique-46" transform="scale(0.015625)"/>
       <path d="M 1081 4666 
L 2541 4666 
Q 3178 4666 3512 4369 
Q 3847 4072 3847 3500 
Q 3847 2731 3353 2303 
Q 2859 1875 1966 1875 
L 1172 1875 
L 806 0 
L 172 0 
L 1081 4666 
z
M 1613 4147 
L 1275 2394 
L 2069 2394 
Q 2606 2394 2893 2669 
Q 3181 2944 3181 3456 
Q 3181 3784 2986 3965 
Q 2791 4147 2438 4147 
L 1613 4147 
z
" id="DejaVuSans-Oblique-50" transform="scale(0.015625)"/>
       <path d="M 1613 4147 
L 1294 2491 
L 2106 2491 
Q 2584 2491 2879 2755 
Q 3175 3019 3175 3444 
Q 3175 3784 2976 3965 
Q 2778 4147 2406 4147 
L 1613 4147 
z
M 2772 2241 
Q 2972 2194 3105 2009 
Q 3238 1825 3413 1275 
L 3809 0 
L 3144 0 
L 2778 1197 
Q 2638 1659 2453 1815 
Q 2269 1972 1888 1972 
L 1191 1972 
L 806 0 
L 172 0 
L 1081 4666 
L 2503 4666 
Q 3150 4666 3495 4373 
Q 3841 4081 3841 3531 
Q 3841 3044 3547 2687 
Q 3253 2331 2772 2241 
z
" id="DejaVuSans-Oblique-52" transform="scale(0.015625)"/>
       <path d="M 3438 1997 
L 3047 0 
L 2472 0 
L 2578 531 
Q 2325 219 2001 64 
Q 1678 -91 1281 -91 
Q 834 -91 548 182 
Q 263 456 263 884 
Q 263 1497 752 1853 
Q 1241 2209 2100 2209 
L 2900 2209 
L 2931 2363 
Q 2938 2388 2941 2417 
Q 2944 2447 2944 2509 
Q 2944 2788 2717 2942 
Q 2491 3097 2081 3097 
Q 1800 3097 1504 3025 
Q 1209 2953 897 2809 
L 997 3341 
Q 1322 3463 1633 3523 
Q 1944 3584 2234 3584 
Q 2853 3584 3176 3315 
Q 3500 3047 3500 2534 
Q 3500 2431 3484 2292 
Q 3469 2153 3438 1997 
z
M 2816 1759 
L 2241 1759 
Q 1534 1759 1195 1570 
Q 856 1381 856 984 
Q 856 709 1029 553 
Q 1203 397 1509 397 
Q 1978 397 2328 733 
Q 2678 1069 2791 1631 
L 2816 1759 
z
" id="DejaVuSans-Oblique-61" transform="scale(0.015625)"/>
       <path d="M 1172 4863 
L 1747 4863 
L 1606 4134 
L 1031 4134 
L 1172 4863 
z
M 909 3500 
L 1484 3500 
L 800 0 
L 225 0 
L 909 3500 
z
" id="DejaVuSans-Oblique-69" transform="scale(0.015625)"/>
       <path d="M 2853 2969 
Q 2766 3016 2653 3041 
Q 2541 3066 2413 3066 
Q 1953 3066 1609 2717 
Q 1266 2369 1153 1784 
L 800 0 
L 225 0 
L 909 3500 
L 1484 3500 
L 1375 2956 
Q 1603 3259 1920 3421 
Q 2238 3584 2597 3584 
Q 2691 3584 2781 3573 
Q 2872 3563 2963 3538 
L 2853 2969 
z
" id="DejaVuSans-Oblique-72" transform="scale(0.015625)"/>
      </defs>
      <use transform="translate(0 0.09375)" xlink:href="#DejaVuSans-Oblique-46"/>
      <use transform="translate(57.519531 0.09375)" xlink:href="#DejaVuSans-Oblique-50"/>
      <use transform="translate(117.822266 0.09375)" xlink:href="#DejaVuSans-Oblique-52"/>
      <use transform="translate(187.304688 -16.3125)scale(0.7)" xlink:href="#DejaVuSans-Oblique-46"/>
      <use transform="translate(227.568359 -16.3125)scale(0.7)" xlink:href="#DejaVuSans-Oblique-61"/>
      <use transform="translate(270.463867 -16.3125)scale(0.7)" xlink:href="#DejaVuSans-Oblique-69"/>
      <use transform="translate(289.912109 -16.3125)scale(0.7)" xlink:href="#DejaVuSans-Oblique-72"/>
     </g>
    </g>
   </g>
   <g id="matplotlib.axis_2">
    <g id="ytick_1">
     <g id="line2d_7">
      <defs>
       <path d="M 0 0 
L -3.5 0 
" id="m31a5ad52d4" style="stroke:#000000;stroke-width:0.8;"/>
      </defs>
      <g>
       <use style="stroke:#000000;stroke-width:0.8;" x="135" xlink:href="#m31a5ad52d4" y="448.56"/>
      </g>
     </g>
     <g id="text_8">
      <!-- 0.0 -->
      <g transform="translate(99.374375 455.398594)scale(0.18 -0.18)">
       <use xlink:href="#DejaVuSans-30"/>
       <use x="63.623047" xlink:href="#DejaVuSans-2e"/>
       <use x="95.410156" xlink:href="#DejaVuSans-30"/>
      </g>
     </g>
    </g>
    <g id="ytick_2">
     <g id="line2d_8">
      <g>
       <use style="stroke:#000000;stroke-width:0.8;" x="135" xlink:href="#m31a5ad52d4" y="370.944"/>
      </g>
     </g>
     <g id="text_9">
      <!-- 0.2 -->
      <g transform="translate(99.374375 377.782594)scale(0.18 -0.18)">
       <use xlink:href="#DejaVuSans-30"/>
       <use x="63.623047" xlink:href="#DejaVuSans-2e"/>
       <use x="95.410156" xlink:href="#DejaVuSans-32"/>
      </g>
     </g>
    </g>
    <g id="ytick_3">
     <g id="line2d_9">
      <g>
       <use style="stroke:#000000;stroke-width:0.8;" x="135" xlink:href="#m31a5ad52d4" y="293.328"/>
      </g>
     </g>
     <g id="text_10">
      <!-- 0.4 -->
      <g transform="translate(99.374375 300.166594)scale(0.18 -0.18)">
       <use xlink:href="#DejaVuSans-30"/>
       <use x="63.623047" xlink:href="#DejaVuSans-2e"/>
       <use x="95.410156" xlink:href="#DejaVuSans-34"/>
      </g>
     </g>
    </g>
    <g id="ytick_4">
     <g id="line2d_10">
      <g>
       <use style="stroke:#000000;stroke-width:0.8;" x="135" xlink:href="#m31a5ad52d4" y="215.712"/>
      </g>
     </g>
     <g id="text_11">
      <!-- 0.6 -->
      <g transform="translate(99.374375 222.550594)scale(0.18 -0.18)">
       <use xlink:href="#DejaVuSans-30"/>
       <use x="63.623047" xlink:href="#DejaVuSans-2e"/>
       <use x="95.410156" xlink:href="#DejaVuSans-36"/>
      </g>
     </g>
    </g>
    <g id="ytick_5">
     <g id="line2d_11">
      <g>
       <use style="stroke:#000000;stroke-width:0.8;" x="135" xlink:href="#m31a5ad52d4" y="138.096"/>
      </g>
     </g>
     <g id="text_12">
      <!-- 0.8 -->
      <g transform="translate(99.374375 144.934594)scale(0.18 -0.18)">
       <use xlink:href="#DejaVuSans-30"/>
       <use x="63.623047" xlink:href="#DejaVuSans-2e"/>
       <use x="95.410156" xlink:href="#DejaVuSans-38"/>
      </g>
     </g>
    </g>
    <g id="ytick_6">
     <g id="line2d_12">
      <g>
       <use style="stroke:#000000;stroke-width:0.8;" x="135" xlink:href="#m31a5ad52d4" y="60.48"/>
      </g>
     </g>
     <g id="text_13">
      <!-- 1.0 -->
      <g transform="translate(99.374375 67.318594)scale(0.18 -0.18)">
       <use xlink:href="#DejaVuSans-31"/>
       <use x="63.623047" xlink:href="#DejaVuSans-2e"/>
       <use x="95.410156" xlink:href="#DejaVuSans-30"/>
      </g>
     </g>
    </g>
    <g id="text_14">
     <!-- $TPR_{Fair}$ -->
     <g transform="translate(90.799062 290.27)rotate(-90)scale(0.22 -0.22)">
      <defs>
       <path d="M 378 4666 
L 4325 4666 
L 4225 4134 
L 2559 4134 
L 1759 0 
L 1125 0 
L 1925 4134 
L 275 4134 
L 378 4666 
z
" id="DejaVuSans-Oblique-54" transform="scale(0.015625)"/>
      </defs>
      <use transform="translate(0 0.09375)" xlink:href="#DejaVuSans-Oblique-54"/>
      <use transform="translate(61.083984 0.09375)" xlink:href="#DejaVuSans-Oblique-50"/>
      <use transform="translate(121.386719 0.09375)" xlink:href="#DejaVuSans-Oblique-52"/>
      <use transform="translate(190.869141 -16.3125)scale(0.7)" xlink:href="#DejaVuSans-Oblique-46"/>
      <use transform="translate(231.132812 -16.3125)scale(0.7)" xlink:href="#DejaVuSans-Oblique-61"/>
      <use transform="translate(274.02832 -16.3125)scale(0.7)" xlink:href="#DejaVuSans-Oblique-69"/>
      <use transform="translate(293.476562 -16.3125)scale(0.7)" xlink:href="#DejaVuSans-Oblique-72"/>
     </g>
    </g>
   </g>
   <g id="line2d_13">
    <path clip-path="url(#p8be1345aa2)" d="M 135 448.56 
L 972 60.48 
" style="fill:none;stroke:#ff0000;stroke-dasharray:5.55,2.4;stroke-dashoffset:0;stroke-width:1.5;"/>
   </g>
   <g id="line2d_14">
    <path clip-path="url(#p8be1345aa2)" d="M 972 60.48 
L 960.436593 75.89415 
L 950.638343 90.690672 
L 938.743952 104.711104 
L 927.826884 117.57066 
L 915.926889 129.446964 
L 903.367457 140.897034 
L 892.409035 151.301116 
L 880.658562 161.221708 
L 869.53958 170.310355 
L 858.336585 179.398087 
L 846.96967 187.96948 
L 835.734869 196.153279 
L 823.453772 203.73905 
L 813.368271 211.012096 
L 802.369692 217.861439 
L 790.9544 224.348212 
L 780.369967 230.653239 
L 769.48809 236.510616 
L 757.392922 242.159426 
L 746.977972 247.479812 
L 736.117332 252.557236 
L 724.841031 257.451149 
L 713.481521 262.115366 
L 703.353117 266.442039 
L 692.669487 270.837073 
L 682.031012 275.037078 
L 671.825329 279.02222 
L 660.591228 282.873081 
L 650.938744 286.612303 
L 639.765153 290.150839 
L 630.446932 293.528705 
L 620.680764 297.00683 
L 610.672131 300.30071 
L 601.472995 303.462421 
L 592.626884 306.386545 
L 583.765109 309.232772 
L 575.286899 311.94191 
L 567.640133 314.595849 
L 559.709057 317.144967 
L 551.846608 319.650869 
L 544.181855 322.069706 
L 537.178596 324.412766 
L 529.873838 326.759067 
L 522.799599 329.044979 
L 515.978317 331.287494 
L 508.542351 333.485854 
L 502.23351 335.524844 
L 495.547929 337.609858 
L 489.017401 339.633277 
L 483.185466 341.711586 
L 476.672868 343.619718 
L 471.108263 345.439847 
L 464.955905 347.267609 
L 459.669691 349.08055 
L 453.809122 350.86007 
L 448.497509 352.569266 
L 443.116649 354.297503 
L 438.008051 356.024121 
L 432.234046 357.580618 
L 426.603076 359.170729 
L 421.474915 360.618519 
L 415.645644 362.048692 
L 410.368216 363.594654 
L 405.117358 365.019574 
L 400.277659 366.327496 
L 395.253954 367.686231 
L 390.236051 369.012095 
L 385.016626 370.311409 
L 380.379748 371.49865 
L 376.057855 372.784193 
L 371.194141 374.104872 
L 366.711604 375.406166 
L 361.232343 376.653671 
L 357.525541 377.877961 
L 352.850563 379.092765 
L 347.704921 380.362575 
L 343.209405 381.543542 
L 338.694491 382.722396 
L 333.751608 383.955785 
L 328.917219 385.149365 
L 323.408455 386.354469 
L 318.512183 387.492319 
L 313.154675 388.649802 
L 308.099511 389.835283 
L 303.092895 390.958407 
L 299.17154 392.066867 
L 295.15381 393.174713 
L 290.591163 394.331339 
L 286.665364 395.45275 
L 282.637738 396.596369 
L 277.974329 397.680979 
L 274.351166 398.787213 
L 270.061556 399.894505 
L 266.826973 400.970725 
L 263.594554 402.02221 
L 259.912222 403.066445 
L 256.683935 404.18338 
L 253.401024 405.234902 
L 250.125316 406.335593 
L 246.875216 407.370802 
" style="fill:none;stroke:#1f77b4;stroke-linecap:square;stroke-width:1.5;"/>
   </g>
   <g id="line2d_15">
    <path clip-path="url(#p8be1345aa2)" d="M 972 60.48 
L 971.545257 77.493972 
L 971.142703 93.133588 
L 970.638372 107.780285 
L 970.173383 121.371923 
L 969.662064 134.247634 
L 969.064939 146.150949 
L 968.475265 156.893193 
L 967.920118 166.70958 
L 967.329611 176.011873 
L 966.694508 185.118352 
L 966.072638 193.696582 
L 965.413524 201.957131 
L 964.586266 209.518377 
L 963.933354 216.541603 
L 963.187818 223.190754 
L 962.342743 229.484141 
L 961.543818 235.716254 
L 960.727461 241.267885 
L 959.832728 246.65612 
L 958.916884 251.691277 
L 957.972402 256.268174 
L 956.894941 260.77474 
L 955.855402 265.164167 
L 954.897606 269.205808 
L 953.810669 273.287971 
L 952.809327 277.05603 
L 951.831508 280.526108 
L 950.539454 283.949081 
L 949.388838 287.320851 
L 948.208948 290.337239 
L 946.952331 293.237142 
L 945.669113 296.240487 
L 944.363369 298.954999 
L 942.95009 301.609593 
L 941.689298 304.157039 
L 940.374973 306.483453 
L 939.017912 308.622826 
L 937.737831 310.891338 
L 936.304876 313.071953 
L 934.868726 315.257443 
L 933.599149 317.284489 
L 932.227681 319.198164 
L 930.769985 321.13262 
L 929.187871 322.964616 
L 927.761412 324.70354 
L 926.25184 326.556286 
L 924.828303 328.251772 
L 923.276023 329.93119 
L 921.680827 331.565485 
L 920.271038 333.279335 
L 918.640001 334.854283 
L 917.094443 336.422821 
L 915.395761 337.91407 
L 913.90201 339.482055 
L 912.097906 340.897975 
L 910.420535 342.409532 
L 908.664194 343.74268 
L 907.097209 345.144906 
L 905.251651 346.537078 
L 903.298756 347.913834 
L 901.430676 349.208778 
L 899.129647 350.458098 
L 897.03817 351.745345 
L 894.730909 353.002777 
L 892.443649 354.224 
L 890.228372 355.500141 
L 887.892651 356.718515 
L 885.389187 357.941989 
L 883.175203 359.147885 
L 880.699242 360.305983 
L 878.01926 361.526338 
L 875.610947 362.755079 
L 872.705982 363.865303 
L 870.098305 364.977703 
L 867.077904 366.151315 
L 864.27029 367.313642 
L 861.199021 368.41634 
L 858.127102 369.633363 
L 854.869209 370.804203 
L 851.653258 371.927973 
L 848.180589 373.088822 
L 844.688503 374.201478 
L 840.966005 375.343515 
L 837.464919 376.466215 
L 833.690647 377.537066 
L 829.956014 378.706634 
L 826.09401 379.801803 
L 822.528035 381.020417 
L 818.396747 382.209289 
L 814.797464 383.355312 
L 810.781011 384.435952 
L 806.792329 385.676858 
L 802.630047 386.882288 
L 798.292223 388.035014 
L 793.885126 389.200832 
L 789.862054 390.395862 
L 785.41709 391.589406 
L 780.893453 392.903127 
L 776.076791 394.192506 
L 771.02745 395.343463 
" style="fill:none;stroke:#ff7f0e;stroke-linecap:square;stroke-width:1.5;"/>
   </g>
   <g id="line2d_16">
    <path clip-path="url(#p8be1345aa2)" d="M 972 60.48 
L 971.688706 70.238604 
L 971.385531 79.658098 
L 971.034951 88.745695 
L 970.704662 97.257021 
L 970.317205 105.691597 
L 969.901922 113.788001 
L 969.513861 121.215698 
L 969.092611 128.316913 
L 968.668662 135.176027 
L 968.237202 141.995879 
L 967.798911 148.645848 
L 967.343008 155.270206 
L 966.757273 161.366588 
L 966.310215 167.221952 
L 965.77361 172.876933 
L 965.212765 178.307633 
L 964.683614 183.696944 
L 964.10292 188.682786 
L 963.457478 193.601859 
L 962.84358 198.270395 
L 962.190145 202.513408 
L 961.481421 206.751807 
L 960.777567 210.942747 
L 960.108572 214.886001 
L 959.389086 218.936604 
L 958.686309 222.655594 
L 958.002867 226.244616 
L 957.149717 229.728292 
L 956.365877 233.155244 
L 955.592779 236.340552 
L 954.768676 239.426257 
L 953.906833 242.634653 
L 953.041721 245.498825 
L 952.148545 248.364224 
L 951.325899 251.084055 
L 950.423672 253.650405 
L 949.566267 256.109968 
L 948.692892 258.619169 
L 947.814231 261.089227 
L 946.891176 263.548606 
L 946.044994 265.919509 
L 945.148614 268.154954 
L 944.250106 270.404822 
L 943.242573 272.613462 
L 942.326527 274.698676 
L 941.364297 276.879311 
L 940.440797 278.905015 
L 939.444036 280.974329 
L 938.409746 282.935982 
L 937.474418 284.97169 
L 936.389778 286.897954 
L 935.375244 288.751185 
L 934.267826 290.603712 
L 933.273244 292.553617 
L 932.110794 294.279563 
L 930.93363 296.114608 
L 929.762036 297.833341 
L 928.681117 299.592129 
L 927.429801 301.374206 
L 926.095547 303.124079 
L 924.815683 304.770916 
L 923.302093 306.370848 
L 921.914208 308.046891 
L 920.39577 309.673371 
L 918.812948 311.252172 
L 917.311124 312.817594 
L 915.691552 314.391038 
L 913.964676 315.926235 
L 912.43956 317.414526 
L 910.769667 318.909552 
L 908.860029 320.476333 
L 907.18696 322.039212 
L 905.124972 323.493261 
L 903.374633 324.954485 
L 901.229539 326.450936 
L 899.268481 327.951367 
L 897.052186 329.424252 
L 894.893605 330.981153 
L 892.588572 332.460866 
L 890.30976 333.979914 
L 887.876693 335.501811 
L 885.399566 336.993085 
L 882.786224 338.487621 
L 880.331965 339.98601 
L 877.667178 341.440249 
L 875.007831 343.014379 
L 872.095762 344.528603 
L 869.404084 346.120004 
L 866.522804 347.642376 
L 863.850673 349.214837 
L 860.857474 350.73228 
L 857.631435 352.386813 
L 854.535749 354.013563 
L 851.295084 355.663573 
L 848.055612 357.239245 
L 844.886594 358.870427 
L 841.450221 360.509433 
L 837.964438 362.199249 
L 834.333306 363.904893 
L 830.599567 365.500364 
" style="fill:none;stroke:#2ca02c;stroke-linecap:square;stroke-width:1.5;"/>
   </g>
   <g id="line2d_17">
    <path clip-path="url(#p8be1345aa2)" d="M 972 60.48 
L 971.839347 66.209921 
L 971.692689 71.790118 
L 971.51219 77.302377 
L 971.347471 82.685696 
L 971.162951 88.05417 
L 970.952454 93.271165 
L 970.746589 98.181787 
L 970.547441 102.9031 
L 970.342273 107.524295 
L 970.122197 112.251062 
L 969.9098 116.864121 
L 969.67157 121.50087 
L 969.387955 125.903448 
L 969.170877 130.136062 
L 968.910831 134.291771 
L 968.62221 138.350118 
L 968.35389 142.417996 
L 968.073444 146.222482 
L 967.777894 150.010887 
L 967.474275 153.678493 
L 967.164617 157.062362 
L 966.809374 160.484709 
L 966.480693 163.886808 
L 966.165196 167.092241 
L 965.817772 170.381529 
L 965.479315 173.518775 
L 965.156695 176.547868 
L 964.72644 179.541242 
L 964.329859 182.44466 
L 963.945103 185.181616 
L 963.520457 187.916579 
L 963.095462 190.758136 
L 962.654923 193.364357 
L 962.191478 195.929072 
L 961.775848 198.386001 
L 961.335598 200.719001 
L 960.88539 202.981347 
L 960.444229 205.316 
L 959.971278 207.595834 
L 959.467292 209.896248 
L 959.020724 212.066725 
L 958.545114 214.158423 
L 958.041546 216.290478 
L 957.485528 218.383655 
L 956.974429 220.358817 
L 956.450158 222.467217 
L 955.945102 224.457328 
L 955.389273 226.456124 
L 954.816144 228.344874 
L 954.279369 230.350575 
L 953.679143 232.202847 
L 953.119035 234.004068 
L 952.479695 235.883156 
L 951.902136 237.853373 
L 951.24383 239.637558 
L 950.604235 241.566057 
L 949.905365 243.341762 
L 949.281722 245.105512 
L 948.558187 246.936784 
L 947.777296 248.814835 
L 947.041696 250.57158 
L 946.142179 252.310341 
L 945.318694 254.095541 
L 944.391281 255.942583 
L 943.466988 257.672176 
L 942.566101 259.423347 
L 941.606283 261.174704 
L 940.596086 262.892135 
L 939.662869 264.623951 
L 938.633622 266.414399 
L 937.491369 268.264814 
L 936.491597 270.080948 
L 935.264304 271.862561 
L 934.16337 273.653848 
L 932.88785 275.451011 
L 931.652749 277.32292 
L 930.335611 279.092142 
L 929.031215 281.014668 
L 927.576283 282.896807 
L 926.128011 284.807599 
L 924.540187 286.719099 
L 922.967627 288.671698 
L 921.260795 290.60663 
L 919.6875 292.52517 
L 917.951244 294.401212 
L 916.204105 296.420934 
L 914.34967 298.406116 
L 912.58836 300.442107 
L 910.64402 302.424331 
L 908.888844 304.547128 
L 906.87242 306.519536 
L 904.807935 308.705368 
L 902.768693 310.90949 
L 900.625618 313.092851 
L 898.444569 315.186329 
L 896.360511 317.438277 
L 894.025123 319.614203 
L 891.622813 321.883286 
L 889.127439 324.191964 
L 886.504452 326.381568 
" style="fill:none;stroke:#d62728;stroke-linecap:square;stroke-width:1.5;"/>
   </g>
   <g id="line2d_18">
    <path clip-path="url(#p8be1345aa2)" d="M 972 60.48 
L 971.888548 64.543791 
L 971.786875 68.538122 
L 971.665552 72.519418 
L 971.554209 76.435999 
L 971.425866 80.376555 
L 971.281032 84.24532 
L 971.139508 87.917351 
L 971.002991 91.470718 
L 970.858593 94.977411 
L 970.709539 98.587694 
L 970.567047 102.140823 
L 970.407024 105.735154 
L 970.214 109.180635 
L 970.067634 112.507881 
L 969.892407 115.79259 
L 969.698444 119.03588 
L 969.519315 122.290894 
L 969.329228 125.365096 
L 969.13118 128.459596 
L 968.926168 131.458296 
L 968.7167 134.258205 
L 968.473882 137.106704 
L 968.249009 139.956768 
L 968.032706 142.664176 
L 967.792955 145.422044 
L 967.563231 148.09316 
L 967.342098 150.690928 
L 967.047687 153.257221 
L 966.786142 155.781923 
L 966.525476 158.182829 
L 966.236186 160.590312 
L 965.946976 163.082031 
L 965.639571 165.403004 
L 965.314359 167.700381 
L 965.027254 169.907813 
L 964.718668 172.016359 
L 964.398594 174.054437 
L 964.091991 176.194925 
L 963.75729 178.278385 
L 963.40215 180.3923 
L 963.083816 182.424027 
L 962.744839 184.36304 
L 962.384548 186.339011 
L 961.982723 188.299436 
L 961.620085 190.189282 
L 961.233385 192.159588 
L 960.861131 194.039317 
L 960.447957 195.976962 
L 960.022179 197.775379 
L 959.619994 199.705365 
L 959.16767 201.490859 
L 958.718423 203.222129 
L 958.241816 205.037193 
L 957.800811 206.969427 
L 957.308382 208.72885 
L 956.803165 210.615131 
L 956.263701 212.387129 
L 955.771269 214.146867 
L 955.214267 215.942813 
L 954.605951 217.799878 
L 954.024447 219.58404 
L 953.317712 221.31925 
L 952.672198 223.131504 
L 951.934792 224.976303 
L 951.207344 226.707906 
L 950.495452 228.497754 
L 949.741439 230.309392 
L 948.939632 232.098625 
L 948.181357 233.87215 
L 947.340436 235.698323 
L 946.433115 237.62019 
L 945.627416 239.504166 
L 944.636196 241.351868 
L 943.724695 243.180918 
L 942.687414 245.0864 
L 941.681305 247.060343 
L 940.612076 248.946804 
L 939.533815 250.976749 
L 938.333558 252.993524 
L 937.139165 255.040823 
L 935.827554 257.08282 
L 934.536577 259.207259 
L 933.144261 261.30467 
L 931.803219 263.39359 
L 930.352406 265.466937 
L 928.88288 267.664349 
L 927.318969 269.801609 
L 925.815691 272.064099 
L 924.17925 274.224755 
L 922.691792 276.554354 
L 920.942987 278.747777 
L 919.149702 281.161107 
L 917.393263 283.576311 
L 915.528965 286.003379 
L 913.6461 288.381843 
L 911.842282 290.89249 
L 909.7659 293.365709 
L 907.672637 295.915467 
L 905.536744 298.529484 
L 903.232843 301.052102 
" style="fill:none;stroke:#9467bd;stroke-linecap:square;stroke-width:1.5;"/>
   </g>
   <g id="line2d_19">
    <path clip-path="url(#p8be1345aa2)" d="M 972 60.48 
L 851.392539 104.530904 
L 758.942082 139.881546 
L 685.472258 168.605583 
L 625.766773 192.770976 
L 576.309604 213.252607 
L 534.799246 231.002708 
L 499.453938 246.186894 
L 469.081059 259.797251 
L 442.664456 271.532907 
L 419.488476 281.987761 
L 399.060013 291.423643 
L 380.860855 299.899263 
L 364.594493 307.491859 
L 350.057743 314.543776 
L 336.849141 320.842759 
L 324.894662 326.697389 
L 313.941166 332.083354 
L 304.026237 337.083446 
L 294.902468 341.665003 
L 286.522254 345.949941 
L 278.828567 349.914789 
L 271.706839 353.630386 
L 265.099241 357.14019 
L 258.941994 360.423739 
L 253.247575 363.497558 
L 247.945127 366.396568 
L 242.979414 369.070335 
L 238.36798 371.629475 
L 234.038197 374.06967 
L 229.948098 376.355796 
L 226.137608 378.557215 
L 222.500476 380.638118 
L 219.126419 382.609493 
L 215.914604 384.481382 
L 212.887832 386.249501 
L 210.046215 387.940046 
L 207.320022 389.549484 
L 204.756628 391.097858 
L 202.33684 392.591837 
L 200.010119 394.014056 
L 197.78584 395.37817 
L 195.686134 396.695537 
L 193.673378 397.961373 
L 191.753475 399.172292 
L 189.919315 400.349983 
L 188.193929 401.480585 
L 186.509861 402.555749 
L 184.904359 403.624352 
L 183.369995 404.624559 
L 181.870918 405.607754 
L 180.435213 406.556516 
L 179.066227 407.475388 
L 177.747628 408.359752 
L 176.491567 409.23 
L 175.271085 410.05991 
L 174.097103 410.869047 
L 172.955935 411.657482 
L 171.839012 412.427686 
L 170.786581 413.170144 
L 169.755225 413.90424 
L 168.770052 414.612782 
L 167.792454 415.302514 
L 166.860743 415.959143 
L 165.959199 416.618942 
L 165.071628 417.245018 
L 164.220754 417.87049 
L 163.40006 418.484579 
L 162.61095 419.073024 
L 161.840086 419.645695 
L 161.096578 420.222388 
L 160.376076 420.796405 
L 159.689188 421.361008 
L 159.00075 421.906815 
L 158.337996 422.432135 
L 157.693529 422.94762 
L 157.0677 423.452296 
L 156.464974 423.943461 
L 155.880707 424.455997 
L 155.311072 424.956974 
L 154.750915 425.44249 
L 154.212349 425.907375 
L 153.683483 426.365803 
L 153.171252 426.819325 
L 152.681751 427.259751 
L 152.193803 427.698685 
L 151.71994 428.135454 
L 151.26488 428.553737 
L 150.817867 428.976938 
L 150.38265 429.374677 
L 149.959083 429.792318 
L 149.541281 430.179321 
L 149.123072 430.588417 
L 148.717425 430.97981 
L 148.326037 431.359647 
L 147.937773 431.731607 
L 147.56562 432.115598 
L 147.20432 432.484928 
L 146.849455 432.863338 
L 146.490175 433.24796 
L 146.146663 433.610182 
" style="fill:none;stroke:#8c564b;stroke-linecap:square;stroke-width:1.5;"/>
   </g>
   <g id="line2d_20">
    <path clip-path="url(#p8be1345aa2)" d="M 972 60.48 
L 901.298967 75.13927 
L 839.885098 88.881083 
L 785.686633 101.812062 
L 737.822461 113.871032 
L 695.356447 125.473869 
L 657.185421 136.26226 
L 623.010715 146.166201 
L 592.205252 155.784495 
L 564.24148 164.796111 
L 538.728145 173.23894 
L 515.546666 181.469713 
L 494.21432 189.245139 
L 474.685143 196.548305 
L 456.702011 203.552493 
L 439.996127 210.168787 
L 424.61158 216.592144 
L 410.282586 222.673581 
L 397.024873 228.472462 
L 384.689826 234.027346 
L 373.178081 239.360997 
L 362.413254 244.421508 
L 352.339986 249.204373 
L 342.879848 253.908296 
L 333.985952 258.382732 
L 325.653621 262.716081 
L 317.831052 266.870451 
L 310.428733 270.750746 
L 303.496691 274.541147 
L 296.958674 278.284104 
L 290.713473 281.802371 
L 284.868342 285.24713 
L 279.285296 288.56083 
L 274.03571 291.710521 
L 269.02618 294.748577 
L 264.27771 297.676411 
L 259.800875 300.543975 
L 255.494318 303.243908 
L 251.408213 305.818333 
L 247.538793 308.44574 
L 243.807608 310.942413 
L 240.239779 313.360364 
L 236.838044 315.673051 
L 233.612037 317.935188 
L 230.509285 320.16128 
L 227.522671 322.349439 
L 224.69511 324.494263 
L 221.953654 326.541185 
L 219.335562 328.582472 
L 216.814261 330.504913 
L 214.360786 332.411852 
L 212.00446 334.266887 
L 209.746043 336.118158 
L 207.567045 337.909052 
L 205.475524 339.686019 
L 203.461827 341.420387 
L 201.510357 343.120138 
L 199.617182 344.785518 
L 197.762845 346.405552 
L 196.005225 347.996398 
L 194.286946 349.585658 
L 192.634679 351.113932 
L 191.007576 352.634986 
L 189.462007 354.101992 
L 187.953866 355.600338 
L 186.47602 357.026504 
L 185.068169 358.454958 
L 183.700104 359.859836 
L 182.380817 361.245228 
L 181.090314 362.586085 
L 179.843838 363.949103 
L 178.640826 365.321866 
L 177.479396 366.680691 
L 176.32924 368.003057 
L 175.213412 369.284751 
L 174.127846 370.561935 
L 173.075891 371.836446 
L 172.052842 373.060395 
L 171.064248 374.361868 
L 170.101415 375.630985 
L 169.16084 376.883524 
L 168.25125 378.097793 
L 167.359657 379.303423 
L 166.490824 380.506739 
L 165.657264 381.684215 
L 164.822838 382.854946 
L 164.01734 384.033887 
L 163.244671 385.170809 
L 162.485839 386.329161 
L 161.739102 387.421248 
L 161.013821 388.575796 
L 160.299243 389.642271 
L 159.58654 390.769308 
L 158.896702 391.872012 
L 158.22647 392.958669 
L 157.566595 394.025702 
L 156.931984 395.114088 
L 156.310844 396.178191 
L 155.699179 397.260072 
L 155.079558 398.373242 
L 154.487681 399.426121 
" style="fill:none;stroke:#e377c2;stroke-linecap:square;stroke-width:1.5;"/>
   </g>
   <g id="line2d_21">
    <path clip-path="url(#p8be1345aa2)" d="M 972 60.48 
L 880.879826 94.94791 
L 805.653513 124.009555 
L 742.211756 148.705691 
L 687.974669 170.158805 
L 641.275043 189.002479 
L 600.622717 205.701128 
L 564.94389 220.19172 
L 533.443822 233.593534 
L 505.460858 245.323378 
L 480.402546 255.964036 
L 457.925586 265.713283 
L 437.603032 274.566344 
L 419.165503 282.608584 
L 402.425993 290.172802 
L 387.105246 296.96378 
L 373.067627 303.375206 
L 360.09494 309.305948 
L 348.246921 314.851406 
L 337.285083 319.943446 
L 327.134108 324.770294 
L 317.717811 329.26023 
L 308.946681 333.474696 
L 300.758741 337.480459 
L 293.135992 341.246605 
L 286.049696 344.796961 
L 279.416631 348.159428 
L 273.171956 351.274866 
L 267.353356 354.273878 
L 261.87614 357.124642 
L 256.688332 359.809618 
L 251.856037 362.404235 
L 247.246974 364.86553 
L 242.917182 367.205547 
L 238.819013 369.429246 
L 234.957662 371.538716 
L 231.325876 373.554769 
L 227.839692 375.481438 
L 224.549865 377.325856 
L 221.432104 379.124185 
L 218.450451 380.833711 
L 215.606549 382.479183 
L 212.904993 384.071457 
L 210.342747 385.5959 
L 207.894995 387.061855 
L 205.539321 388.494559 
L 203.322188 389.870413 
L 201.168385 391.177607 
L 199.117812 392.476111 
L 197.155106 393.705075 
L 195.245374 394.909127 
L 193.420881 396.070539 
L 191.669975 397.207342 
L 189.979612 398.288741 
L 188.361529 399.355784 
L 186.810615 400.384216 
L 185.309875 401.381213 
L 183.853934 402.358271 
L 182.427629 403.312302 
L 181.073971 404.228168 
L 179.75909 405.129295 
L 178.497094 406.004094 
L 177.259042 406.857496 
L 176.084909 407.673289 
L 174.945674 408.486446 
L 173.81949 409.270846 
L 172.746157 410.043048 
L 171.710844 410.793585 
L 170.70368 411.522727 
L 169.722978 412.227689 
L 168.781006 412.938981 
L 167.870195 413.647887 
L 166.996263 414.349303 
L 166.123834 415.026146 
L 165.279357 415.678965 
L 164.463413 416.325077 
L 163.67 416.956171 
L 162.897508 417.571252 
L 162.150041 418.205048 
L 161.422802 418.824287 
L 160.715504 419.428215 
L 160.032041 420.009293 
L 159.361655 420.575594 
L 158.712112 421.140257 
L 158.088754 421.692485 
L 157.464417 422.241149 
L 156.861262 422.786002 
L 156.283618 423.310989 
L 155.712621 423.841451 
L 155.150397 424.341106 
L 154.604626 424.864637 
L 154.071513 425.351924 
L 153.53917 425.859116 
L 153.023619 426.34765 
L 152.523087 426.835082 
L 152.029347 427.305815 
L 151.552035 427.787378 
L 151.084929 428.25239 
L 150.623233 428.727044 
L 150.156949 429.208811 
L 149.713905 429.669294 
" style="fill:none;stroke:#7f7f7f;stroke-linecap:square;stroke-width:1.5;"/>
   </g>
   <g id="line2d_22">
    <path clip-path="url(#p8be1345aa2)" d="M 972 60.48 
L 902.214282 89.616318 
L 841.241513 114.953759 
L 787.428804 136.845774 
L 739.741391 156.263748 
L 697.256435 173.652136 
L 659.102955 189.316356 
L 624.769139 203.170831 
L 593.746651 216.091034 
L 565.6239 227.629187 
L 539.935081 238.159166 
L 516.505635 247.923605 
L 494.974483 256.876176 
L 475.147185 265.087332 
L 456.903674 272.877781 
L 440.02152 279.89222 
L 424.397577 286.551199 
L 409.825001 292.753508 
L 396.385394 298.564351 
L 383.848752 303.964133 
L 372.114822 309.093702 
L 361.172061 313.901206 
L 350.907265 318.422704 
L 341.265895 322.726962 
L 332.238797 326.789974 
L 323.806033 330.633715 
L 315.862469 334.300979 
L 308.377494 337.702883 
L 301.357956 340.994477 
L 294.724582 344.128446 
L 288.443159 347.08522 
L 282.565294 349.939267 
L 276.934903 352.666353 
L 271.62849 355.265184 
L 266.596542 357.73683 
L 261.852763 360.083214 
L 257.367186 362.339967 
L 253.056284 364.491543 
L 248.986782 366.556954 
L 245.134636 368.567474 
L 241.427915 370.487401 
L 237.892874 372.341805 
L 234.531315 374.134744 
L 231.338149 375.854789 
L 228.278709 377.518474 
L 225.342228 379.138589 
L 222.564572 380.702015 
L 219.86305 382.18637 
L 217.285378 383.663737 
L 214.821666 385.061182 
L 212.422077 386.43365 
L 210.128633 387.754581 
L 207.929672 389.051441 
L 205.802831 390.292848 
L 203.756515 391.515394 
L 201.803364 392.692419 
L 199.913101 393.829936 
L 198.070222 394.94445 
L 196.271433 396.035932 
L 194.55871 397.088045 
L 192.890932 398.12776 
L 191.291003 399.130965 
L 189.727491 400.108704 
L 188.241252 401.041426 
L 186.797367 401.971872 
L 185.372407 402.870637 
L 184.016614 403.753151 
L 182.701662 404.617505 
L 181.422102 405.455308 
L 180.178056 406.261718 
L 178.98092 407.077359 
L 177.823191 407.893509 
L 176.712787 408.6992 
L 175.604984 409.478201 
L 174.529486 410.23048 
L 173.493233 410.97487 
L 172.48034 411.702958 
L 171.498451 412.415787 
L 170.551032 413.14268 
L 169.62477 413.855779 
L 168.728685 414.548957 
L 167.852834 415.222497 
L 166.99786 415.876456 
L 166.165025 416.535663 
L 165.364566 417.175872 
L 164.561988 417.809003 
L 163.788254 418.442658 
L 163.043854 419.05457 
L 162.308297 419.66797 
L 161.580912 420.249323 
L 160.874849 420.854503 
L 160.186415 421.422395 
L 159.498455 422.013047 
L 158.831273 422.584746 
L 158.179863 423.150638 
L 157.538881 423.69835 
L 156.912612 424.260493 
L 156.300712 424.805461 
L 155.698106 425.36228 
L 155.089698 425.926642 
L 154.5076 426.465961 
" style="fill:none;stroke:#bcbd22;stroke-linecap:square;stroke-width:1.5;"/>
   </g>
   <g id="line2d_23">
    <path clip-path="url(#p8be1345aa2)" d="M 972 60.48 
L 971.928834 62.36259 
L 971.854992 64.236474 
L 971.774586 66.129313 
L 971.69883 68.023828 
L 971.614686 69.952887 
L 971.52129 71.870649 
L 971.426707 73.716377 
L 971.329416 75.523892 
L 971.230204 77.328633 
L 971.13308 79.214964 
L 971.032734 81.093468 
L 970.929341 83.021574 
L 970.800043 84.887876 
L 970.696756 86.71504 
L 970.571591 88.543707 
L 970.437012 90.371505 
L 970.316287 92.229234 
L 970.187211 93.979414 
L 970.044143 95.759351 
L 969.902765 97.519665 
L 969.759865 99.182651 
L 969.584048 100.895034 
L 969.422641 102.625301 
L 969.26546 104.267152 
L 969.102995 105.958159 
L 968.938666 107.639731 
L 968.772676 109.279069 
L 968.583269 110.934669 
L 968.392837 112.557521 
L 968.195496 114.116954 
L 967.981092 115.687923 
L 967.792157 117.337174 
L 967.582067 118.907855 
L 967.360095 120.464172 
L 967.158496 121.972564 
L 966.942733 123.429847 
L 966.720235 124.863147 
L 966.500911 126.344692 
L 966.262904 127.821693 
L 965.999196 129.32106 
L 965.758822 130.769101 
L 965.511401 132.170141 
L 965.23798 133.60056 
L 964.969397 135.029875 
L 964.715547 136.430857 
L 964.443042 137.879719 
L 964.171577 139.290691 
L 963.8834 140.735518 
L 963.580188 142.113579 
L 963.289108 143.596906 
L 962.970975 144.951805 
L 962.675969 146.294754 
L 962.364189 147.717722 
L 962.040851 149.220003 
L 961.701512 150.617289 
L 961.363235 152.105092 
L 961.00971 153.536194 
L 960.662609 154.976028 
L 960.290511 156.424167 
L 959.89017 157.936696 
L 959.494589 159.366875 
L 959.035982 160.782428 
L 958.603652 162.292721 
L 958.129428 163.765726 
L 957.659963 165.214116 
L 957.181196 166.69655 
L 956.688091 168.171271 
L 956.160142 169.680975 
L 955.657012 171.137109 
L 955.117202 172.677868 
L 954.543609 174.317826 
L 954.013186 175.94057 
L 953.416916 177.551929 
L 952.846296 179.14342 
L 952.19938 180.830287 
L 951.570258 182.572794 
L 950.898142 184.265152 
L 950.209527 186.050443 
L 949.473647 187.873583 
L 948.733959 189.7217 
L 947.954646 191.562565 
L 947.189866 193.470984 
L 946.36791 195.42177 
L 945.569213 197.374362 
L 944.68697 199.320861 
L 943.767852 201.41403 
L 942.84698 203.489066 
L 941.92882 205.674126 
L 940.924153 207.805721 
L 940.006034 210.055444 
L 938.950972 212.273816 
L 937.874912 214.692431 
L 936.816595 217.112943 
L 935.675162 219.626522 
L 934.504407 222.093962 
L 933.373285 224.725683 
L 932.105472 227.335877 
L 930.777772 230.060001 
L 929.417968 232.858128 
L 927.975573 235.649245 
" style="fill:none;stroke:#17becf;stroke-linecap:square;stroke-width:1.5;"/>
   </g>
   <g id="patch_3">
    <path d="M 135 448.56 
L 135 60.48 
" style="fill:none;stroke:#000000;stroke-linecap:square;stroke-linejoin:miter;stroke-width:0.8;"/>
   </g>
   <g id="patch_4">
    <path d="M 972 448.56 
L 972 60.48 
" style="fill:none;stroke:#000000;stroke-linecap:square;stroke-linejoin:miter;stroke-width:0.8;"/>
   </g>
   <g id="patch_5">
    <path d="M 135 448.56 
L 972 448.56 
" style="fill:none;stroke:#000000;stroke-linecap:square;stroke-linejoin:miter;stroke-width:0.8;"/>
   </g>
   <g id="patch_6">
    <path d="M 135 60.48 
L 972 60.48 
" style="fill:none;stroke:#000000;stroke-linecap:square;stroke-linejoin:miter;stroke-width:0.8;"/>
   </g>
   <g id="legend_1">
    <g id="patch_7">
     <path d="M 147.6 339.08625 
L 256.730625 339.08625 
Q 260.330625 339.08625 260.330625 335.48625 
L 260.330625 73.08 
Q 260.330625 69.48 256.730625 69.48 
L 147.6 69.48 
Q 144 69.48 144 73.08 
L 144 335.48625 
Q 144 339.08625 147.6 339.08625 
z
" style="fill:#ffffff;opacity:0.8;stroke:#cccccc;stroke-linejoin:miter;"/>
    </g>
    <g id="line2d_24">
     <path d="M 151.2 84.057188 
L 187.2 84.057188 
" style="fill:none;stroke:#1f77b4;stroke-linecap:square;stroke-width:1.5;"/>
    </g>
    <g id="line2d_25"/>
    <g id="text_15">
     <!-- 0.001 -->
     <g transform="translate(201.6 90.357188)scale(0.18 -0.18)">
      <use xlink:href="#DejaVuSans-30"/>
      <use x="63.623047" xlink:href="#DejaVuSans-2e"/>
      <use x="95.410156" xlink:href="#DejaVuSans-30"/>
      <use x="159.033203" xlink:href="#DejaVuSans-30"/>
      <use x="222.65625" xlink:href="#DejaVuSans-31"/>
     </g>
    </g>
    <g id="line2d_26">
     <path d="M 151.2 110.477812 
L 187.2 110.477812 
" style="fill:none;stroke:#ff7f0e;stroke-linecap:square;stroke-width:1.5;"/>
    </g>
    <g id="line2d_27"/>
    <g id="text_16">
     <!-- 0.011 -->
     <g transform="translate(201.6 116.777812)scale(0.18 -0.18)">
      <use xlink:href="#DejaVuSans-30"/>
      <use x="63.623047" xlink:href="#DejaVuSans-2e"/>
      <use x="95.410156" xlink:href="#DejaVuSans-30"/>
      <use x="159.033203" xlink:href="#DejaVuSans-31"/>
      <use x="222.65625" xlink:href="#DejaVuSans-31"/>
     </g>
    </g>
    <g id="line2d_28">
     <path d="M 151.2 136.898438 
L 187.2 136.898438 
" style="fill:none;stroke:#2ca02c;stroke-linecap:square;stroke-width:1.5;"/>
    </g>
    <g id="line2d_29"/>
    <g id="text_17">
     <!-- 0.021 -->
     <g transform="translate(201.6 143.198438)scale(0.18 -0.18)">
      <use xlink:href="#DejaVuSans-30"/>
      <use x="63.623047" xlink:href="#DejaVuSans-2e"/>
      <use x="95.410156" xlink:href="#DejaVuSans-30"/>
      <use x="159.033203" xlink:href="#DejaVuSans-32"/>
      <use x="222.65625" xlink:href="#DejaVuSans-31"/>
     </g>
    </g>
    <g id="line2d_30">
     <path d="M 151.2 163.319062 
L 187.2 163.319062 
" style="fill:none;stroke:#d62728;stroke-linecap:square;stroke-width:1.5;"/>
    </g>
    <g id="line2d_31"/>
    <g id="text_18">
     <!-- 0.031 -->
     <g transform="translate(201.6 169.619062)scale(0.18 -0.18)">
      <defs>
       <path d="M 2597 2516 
Q 3050 2419 3304 2112 
Q 3559 1806 3559 1356 
Q 3559 666 3084 287 
Q 2609 -91 1734 -91 
Q 1441 -91 1130 -33 
Q 819 25 488 141 
L 488 750 
Q 750 597 1062 519 
Q 1375 441 1716 441 
Q 2309 441 2620 675 
Q 2931 909 2931 1356 
Q 2931 1769 2642 2001 
Q 2353 2234 1838 2234 
L 1294 2234 
L 1294 2753 
L 1863 2753 
Q 2328 2753 2575 2939 
Q 2822 3125 2822 3475 
Q 2822 3834 2567 4026 
Q 2313 4219 1838 4219 
Q 1578 4219 1281 4162 
Q 984 4106 628 3988 
L 628 4550 
Q 988 4650 1302 4700 
Q 1616 4750 1894 4750 
Q 2613 4750 3031 4423 
Q 3450 4097 3450 3541 
Q 3450 3153 3228 2886 
Q 3006 2619 2597 2516 
z
" id="DejaVuSans-33" transform="scale(0.015625)"/>
      </defs>
      <use xlink:href="#DejaVuSans-30"/>
      <use x="63.623047" xlink:href="#DejaVuSans-2e"/>
      <use x="95.410156" xlink:href="#DejaVuSans-30"/>
      <use x="159.033203" xlink:href="#DejaVuSans-33"/>
      <use x="222.65625" xlink:href="#DejaVuSans-31"/>
     </g>
    </g>
    <g id="line2d_32">
     <path d="M 151.2 189.739688 
L 187.2 189.739688 
" style="fill:none;stroke:#9467bd;stroke-linecap:square;stroke-width:1.5;"/>
    </g>
    <g id="line2d_33"/>
    <g id="text_19">
     <!-- 0.041 -->
     <g transform="translate(201.6 196.039688)scale(0.18 -0.18)">
      <use xlink:href="#DejaVuSans-30"/>
      <use x="63.623047" xlink:href="#DejaVuSans-2e"/>
      <use x="95.410156" xlink:href="#DejaVuSans-30"/>
      <use x="159.033203" xlink:href="#DejaVuSans-34"/>
      <use x="222.65625" xlink:href="#DejaVuSans-31"/>
     </g>
    </g>
    <g id="line2d_34">
     <path d="M 151.2 216.160312 
L 187.2 216.160312 
" style="fill:none;stroke:#8c564b;stroke-linecap:square;stroke-width:1.5;"/>
    </g>
    <g id="line2d_35"/>
    <g id="text_20">
     <!-- 0.051 -->
     <g transform="translate(201.6 222.460312)scale(0.18 -0.18)">
      <defs>
       <path d="M 691 4666 
L 3169 4666 
L 3169 4134 
L 1269 4134 
L 1269 2991 
Q 1406 3038 1543 3061 
Q 1681 3084 1819 3084 
Q 2600 3084 3056 2656 
Q 3513 2228 3513 1497 
Q 3513 744 3044 326 
Q 2575 -91 1722 -91 
Q 1428 -91 1123 -41 
Q 819 9 494 109 
L 494 744 
Q 775 591 1075 516 
Q 1375 441 1709 441 
Q 2250 441 2565 725 
Q 2881 1009 2881 1497 
Q 2881 1984 2565 2268 
Q 2250 2553 1709 2553 
Q 1456 2553 1204 2497 
Q 953 2441 691 2322 
L 691 4666 
z
" id="DejaVuSans-35" transform="scale(0.015625)"/>
      </defs>
      <use xlink:href="#DejaVuSans-30"/>
      <use x="63.623047" xlink:href="#DejaVuSans-2e"/>
      <use x="95.410156" xlink:href="#DejaVuSans-30"/>
      <use x="159.033203" xlink:href="#DejaVuSans-35"/>
      <use x="222.65625" xlink:href="#DejaVuSans-31"/>
     </g>
    </g>
    <g id="line2d_36">
     <path d="M 151.2 242.580937 
L 187.2 242.580937 
" style="fill:none;stroke:#e377c2;stroke-linecap:square;stroke-width:1.5;"/>
    </g>
    <g id="line2d_37"/>
    <g id="text_21">
     <!-- 0.061 -->
     <g transform="translate(201.6 248.880937)scale(0.18 -0.18)">
      <use xlink:href="#DejaVuSans-30"/>
      <use x="63.623047" xlink:href="#DejaVuSans-2e"/>
      <use x="95.410156" xlink:href="#DejaVuSans-30"/>
      <use x="159.033203" xlink:href="#DejaVuSans-36"/>
      <use x="222.65625" xlink:href="#DejaVuSans-31"/>
     </g>
    </g>
    <g id="line2d_38">
     <path d="M 151.2 269.001562 
L 187.2 269.001562 
" style="fill:none;stroke:#7f7f7f;stroke-linecap:square;stroke-width:1.5;"/>
    </g>
    <g id="line2d_39"/>
    <g id="text_22">
     <!-- 0.071 -->
     <g transform="translate(201.6 275.301562)scale(0.18 -0.18)">
      <defs>
       <path d="M 525 4666 
L 3525 4666 
L 3525 4397 
L 1831 0 
L 1172 0 
L 2766 4134 
L 525 4134 
L 525 4666 
z
" id="DejaVuSans-37" transform="scale(0.015625)"/>
      </defs>
      <use xlink:href="#DejaVuSans-30"/>
      <use x="63.623047" xlink:href="#DejaVuSans-2e"/>
      <use x="95.410156" xlink:href="#DejaVuSans-30"/>
      <use x="159.033203" xlink:href="#DejaVuSans-37"/>
      <use x="222.65625" xlink:href="#DejaVuSans-31"/>
     </g>
    </g>
    <g id="line2d_40">
     <path d="M 151.2 295.422188 
L 187.2 295.422188 
" style="fill:none;stroke:#bcbd22;stroke-linecap:square;stroke-width:1.5;"/>
    </g>
    <g id="line2d_41"/>
    <g id="text_23">
     <!-- 0.081 -->
     <g transform="translate(201.6 301.722188)scale(0.18 -0.18)">
      <use xlink:href="#DejaVuSans-30"/>
      <use x="63.623047" xlink:href="#DejaVuSans-2e"/>
      <use x="95.410156" xlink:href="#DejaVuSans-30"/>
      <use x="159.033203" xlink:href="#DejaVuSans-38"/>
      <use x="222.65625" xlink:href="#DejaVuSans-31"/>
     </g>
    </g>
    <g id="line2d_42">
     <path d="M 151.2 321.842812 
L 187.2 321.842812 
" style="fill:none;stroke:#17becf;stroke-linecap:square;stroke-width:1.5;"/>
    </g>
    <g id="line2d_43"/>
    <g id="text_24">
     <!-- 0.091 -->
     <g transform="translate(201.6 328.142812)scale(0.18 -0.18)">
      <defs>
       <path d="M 703 97 
L 703 672 
Q 941 559 1184 500 
Q 1428 441 1663 441 
Q 2288 441 2617 861 
Q 2947 1281 2994 2138 
Q 2813 1869 2534 1725 
Q 2256 1581 1919 1581 
Q 1219 1581 811 2004 
Q 403 2428 403 3163 
Q 403 3881 828 4315 
Q 1253 4750 1959 4750 
Q 2769 4750 3195 4129 
Q 3622 3509 3622 2328 
Q 3622 1225 3098 567 
Q 2575 -91 1691 -91 
Q 1453 -91 1209 -44 
Q 966 3 703 97 
z
M 1959 2075 
Q 2384 2075 2632 2365 
Q 2881 2656 2881 3163 
Q 2881 3666 2632 3958 
Q 2384 4250 1959 4250 
Q 1534 4250 1286 3958 
Q 1038 3666 1038 3163 
Q 1038 2656 1286 2365 
Q 1534 2075 1959 2075 
z
" id="DejaVuSans-39" transform="scale(0.015625)"/>
      </defs>
      <use xlink:href="#DejaVuSans-30"/>
      <use x="63.623047" xlink:href="#DejaVuSans-2e"/>
      <use x="95.410156" xlink:href="#DejaVuSans-30"/>
      <use x="159.033203" xlink:href="#DejaVuSans-39"/>
      <use x="222.65625" xlink:href="#DejaVuSans-31"/>
     </g>
    </g>
   </g>
  </g>
 </g>
 <defs>
  <clipPath id="p8be1345aa2">
   <rect height="388.08" width="837" x="135" y="60.48"/>
  </clipPath>
 </defs>
</svg>
