<?xml version="1.0" encoding="utf-8" standalone="no"?>
<!DOCTYPE svg PUBLIC "-//W3C//DTD SVG 1.1//EN"
  "http://www.w3.org/Graphics/SVG/1.1/DTD/svg11.dtd">
<svg height="504pt" version="1.1" viewBox="0 0 1080 504" width="1080pt" xmlns="http://www.w3.org/2000/svg" xmlns:xlink="http://www.w3.org/1999/xlink">
 <metadata>
  <rdf:RDF xmlns:cc="http://creativecommons.org/ns#" xmlns:dc="http://purl.org/dc/elements/1.1/" xmlns:rdf="http://www.w3.org/1999/02/22-rdf-syntax-ns#">
   <cc:Work>
    <dc:type rdf:resource="http://purl.org/dc/dcmitype/StillImage"/>
    <dc:date>2022-01-07T13:25:01.844997</dc:date>
    <dc:format>image/svg+xml</dc:format>
    <dc:creator>
     <cc:Agent>
      <dc:title>Matplotlib v3.4.3, https://matplotlib.org/</dc:title>
     </cc:Agent>
    </dc:creator>
   </cc:Work>
  </rdf:RDF>
 </metadata>
 <defs>
  <style type="text/css">*{stroke-linecap:butt;stroke-linejoin:round;}</style>
 </defs>
 <g id="figure_1">
  <g id="patch_1">
   <path d="M 0 504 
L 1080 504 
L 1080 0 
L 0 0 
z
" style="fill:#ffffff;"/>
  </g>
  <g id="axes_1">
   <g id="patch_2">
    <path d="M 135 448.56 
L 972 448.56 
L 972 60.48 
L 135 60.48 
z
" style="fill:#ffffff;"/>
   </g>
   <g id="matplotlib.axis_1">
    <g id="xtick_1">
     <g id="line2d_1">
      <defs>
       <path d="M 0 0 
L 0 3.5 
" id="madce43ce63" style="stroke:#000000;stroke-width:0.8;"/>
      </defs>
      <g>
       <use style="stroke:#000000;stroke-width:0.8;" x="135" xlink:href="#madce43ce63" y="448.56"/>
      </g>
     </g>
     <g id="text_1">
      <!-- 0.0 -->
      <g transform="translate(120.687187 469.237188)scale(0.18 -0.18)">
       <defs>
        <path d="M 2034 4250 
Q 1547 4250 1301 3770 
Q 1056 3291 1056 2328 
Q 1056 1369 1301 889 
Q 1547 409 2034 409 
Q 2525 409 2770 889 
Q 3016 1369 3016 2328 
Q 3016 3291 2770 3770 
Q 2525 4250 2034 4250 
z
M 2034 4750 
Q 2819 4750 3233 4129 
Q 3647 3509 3647 2328 
Q 3647 1150 3233 529 
Q 2819 -91 2034 -91 
Q 1250 -91 836 529 
Q 422 1150 422 2328 
Q 422 3509 836 4129 
Q 1250 4750 2034 4750 
z
" id="DejaVuSans-30" transform="scale(0.015625)"/>
        <path d="M 684 794 
L 1344 794 
L 1344 0 
L 684 0 
L 684 794 
z
" id="DejaVuSans-2e" transform="scale(0.015625)"/>
       </defs>
       <use xlink:href="#DejaVuSans-30"/>
       <use x="63.623047" xlink:href="#DejaVuSans-2e"/>
       <use x="95.410156" xlink:href="#DejaVuSans-30"/>
      </g>
     </g>
    </g>
    <g id="xtick_2">
     <g id="line2d_2">
      <g>
       <use style="stroke:#000000;stroke-width:0.8;" x="302.4" xlink:href="#madce43ce63" y="448.56"/>
      </g>
     </g>
     <g id="text_2">
      <!-- 0.2 -->
      <g transform="translate(288.087187 469.237188)scale(0.18 -0.18)">
       <defs>
        <path d="M 1228 531 
L 3431 531 
L 3431 0 
L 469 0 
L 469 531 
Q 828 903 1448 1529 
Q 2069 2156 2228 2338 
Q 2531 2678 2651 2914 
Q 2772 3150 2772 3378 
Q 2772 3750 2511 3984 
Q 2250 4219 1831 4219 
Q 1534 4219 1204 4116 
Q 875 4013 500 3803 
L 500 4441 
Q 881 4594 1212 4672 
Q 1544 4750 1819 4750 
Q 2544 4750 2975 4387 
Q 3406 4025 3406 3419 
Q 3406 3131 3298 2873 
Q 3191 2616 2906 2266 
Q 2828 2175 2409 1742 
Q 1991 1309 1228 531 
z
" id="DejaVuSans-32" transform="scale(0.015625)"/>
       </defs>
       <use xlink:href="#DejaVuSans-30"/>
       <use x="63.623047" xlink:href="#DejaVuSans-2e"/>
       <use x="95.410156" xlink:href="#DejaVuSans-32"/>
      </g>
     </g>
    </g>
    <g id="xtick_3">
     <g id="line2d_3">
      <g>
       <use style="stroke:#000000;stroke-width:0.8;" x="469.8" xlink:href="#madce43ce63" y="448.56"/>
      </g>
     </g>
     <g id="text_3">
      <!-- 0.4 -->
      <g transform="translate(455.487188 469.237188)scale(0.18 -0.18)">
       <defs>
        <path d="M 2419 4116 
L 825 1625 
L 2419 1625 
L 2419 4116 
z
M 2253 4666 
L 3047 4666 
L 3047 1625 
L 3713 1625 
L 3713 1100 
L 3047 1100 
L 3047 0 
L 2419 0 
L 2419 1100 
L 313 1100 
L 313 1709 
L 2253 4666 
z
" id="DejaVuSans-34" transform="scale(0.015625)"/>
       </defs>
       <use xlink:href="#DejaVuSans-30"/>
       <use x="63.623047" xlink:href="#DejaVuSans-2e"/>
       <use x="95.410156" xlink:href="#DejaVuSans-34"/>
      </g>
     </g>
    </g>
    <g id="xtick_4">
     <g id="line2d_4">
      <g>
       <use style="stroke:#000000;stroke-width:0.8;" x="637.2" xlink:href="#madce43ce63" y="448.56"/>
      </g>
     </g>
     <g id="text_4">
      <!-- 0.6 -->
      <g transform="translate(622.887188 469.237188)scale(0.18 -0.18)">
       <defs>
        <path d="M 2113 2584 
Q 1688 2584 1439 2293 
Q 1191 2003 1191 1497 
Q 1191 994 1439 701 
Q 1688 409 2113 409 
Q 2538 409 2786 701 
Q 3034 994 3034 1497 
Q 3034 2003 2786 2293 
Q 2538 2584 2113 2584 
z
M 3366 4563 
L 3366 3988 
Q 3128 4100 2886 4159 
Q 2644 4219 2406 4219 
Q 1781 4219 1451 3797 
Q 1122 3375 1075 2522 
Q 1259 2794 1537 2939 
Q 1816 3084 2150 3084 
Q 2853 3084 3261 2657 
Q 3669 2231 3669 1497 
Q 3669 778 3244 343 
Q 2819 -91 2113 -91 
Q 1303 -91 875 529 
Q 447 1150 447 2328 
Q 447 3434 972 4092 
Q 1497 4750 2381 4750 
Q 2619 4750 2861 4703 
Q 3103 4656 3366 4563 
z
" id="DejaVuSans-36" transform="scale(0.015625)"/>
       </defs>
       <use xlink:href="#DejaVuSans-30"/>
       <use x="63.623047" xlink:href="#DejaVuSans-2e"/>
       <use x="95.410156" xlink:href="#DejaVuSans-36"/>
      </g>
     </g>
    </g>
    <g id="xtick_5">
     <g id="line2d_5">
      <g>
       <use style="stroke:#000000;stroke-width:0.8;" x="804.6" xlink:href="#madce43ce63" y="448.56"/>
      </g>
     </g>
     <g id="text_5">
      <!-- 0.8 -->
      <g transform="translate(790.287188 469.237188)scale(0.18 -0.18)">
       <defs>
        <path d="M 2034 2216 
Q 1584 2216 1326 1975 
Q 1069 1734 1069 1313 
Q 1069 891 1326 650 
Q 1584 409 2034 409 
Q 2484 409 2743 651 
Q 3003 894 3003 1313 
Q 3003 1734 2745 1975 
Q 2488 2216 2034 2216 
z
M 1403 2484 
Q 997 2584 770 2862 
Q 544 3141 544 3541 
Q 544 4100 942 4425 
Q 1341 4750 2034 4750 
Q 2731 4750 3128 4425 
Q 3525 4100 3525 3541 
Q 3525 3141 3298 2862 
Q 3072 2584 2669 2484 
Q 3125 2378 3379 2068 
Q 3634 1759 3634 1313 
Q 3634 634 3220 271 
Q 2806 -91 2034 -91 
Q 1263 -91 848 271 
Q 434 634 434 1313 
Q 434 1759 690 2068 
Q 947 2378 1403 2484 
z
M 1172 3481 
Q 1172 3119 1398 2916 
Q 1625 2713 2034 2713 
Q 2441 2713 2670 2916 
Q 2900 3119 2900 3481 
Q 2900 3844 2670 4047 
Q 2441 4250 2034 4250 
Q 1625 4250 1398 4047 
Q 1172 3844 1172 3481 
z
" id="DejaVuSans-38" transform="scale(0.015625)"/>
       </defs>
       <use xlink:href="#DejaVuSans-30"/>
       <use x="63.623047" xlink:href="#DejaVuSans-2e"/>
       <use x="95.410156" xlink:href="#DejaVuSans-38"/>
      </g>
     </g>
    </g>
    <g id="xtick_6">
     <g id="line2d_6">
      <g>
       <use style="stroke:#000000;stroke-width:0.8;" x="972" xlink:href="#madce43ce63" y="448.56"/>
      </g>
     </g>
     <g id="text_6">
      <!-- 1.0 -->
      <g transform="translate(957.687188 469.237188)scale(0.18 -0.18)">
       <defs>
        <path d="M 794 531 
L 1825 531 
L 1825 4091 
L 703 3866 
L 703 4441 
L 1819 4666 
L 2450 4666 
L 2450 531 
L 3481 531 
L 3481 0 
L 794 0 
L 794 531 
z
" id="DejaVuSans-31" transform="scale(0.015625)"/>
       </defs>
       <use xlink:href="#DejaVuSans-31"/>
       <use x="63.623047" xlink:href="#DejaVuSans-2e"/>
       <use x="95.410156" xlink:href="#DejaVuSans-30"/>
      </g>
     </g>
    </g>
    <g id="text_7">
     <!-- $FPR_{Fair}$ -->
     <g transform="translate(518.08 493.697187)scale(0.22 -0.22)">
      <defs>
       <path d="M 1081 4666 
L 3756 4666 
L 3653 4134 
L 1606 4134 
L 1338 2759 
L 3188 2759 
L 3084 2228 
L 1234 2228 
L 800 0 
L 172 0 
L 1081 4666 
z
" id="DejaVuSans-Oblique-46" transform="scale(0.015625)"/>
       <path d="M 1081 4666 
L 2541 4666 
Q 3178 4666 3512 4369 
Q 3847 4072 3847 3500 
Q 3847 2731 3353 2303 
Q 2859 1875 1966 1875 
L 1172 1875 
L 806 0 
L 172 0 
L 1081 4666 
z
M 1613 4147 
L 1275 2394 
L 2069 2394 
Q 2606 2394 2893 2669 
Q 3181 2944 3181 3456 
Q 3181 3784 2986 3965 
Q 2791 4147 2438 4147 
L 1613 4147 
z
" id="DejaVuSans-Oblique-50" transform="scale(0.015625)"/>
       <path d="M 1613 4147 
L 1294 2491 
L 2106 2491 
Q 2584 2491 2879 2755 
Q 3175 3019 3175 3444 
Q 3175 3784 2976 3965 
Q 2778 4147 2406 4147 
L 1613 4147 
z
M 2772 2241 
Q 2972 2194 3105 2009 
Q 3238 1825 3413 1275 
L 3809 0 
L 3144 0 
L 2778 1197 
Q 2638 1659 2453 1815 
Q 2269 1972 1888 1972 
L 1191 1972 
L 806 0 
L 172 0 
L 1081 4666 
L 2503 4666 
Q 3150 4666 3495 4373 
Q 3841 4081 3841 3531 
Q 3841 3044 3547 2687 
Q 3253 2331 2772 2241 
z
" id="DejaVuSans-Oblique-52" transform="scale(0.015625)"/>
       <path d="M 3438 1997 
L 3047 0 
L 2472 0 
L 2578 531 
Q 2325 219 2001 64 
Q 1678 -91 1281 -91 
Q 834 -91 548 182 
Q 263 456 263 884 
Q 263 1497 752 1853 
Q 1241 2209 2100 2209 
L 2900 2209 
L 2931 2363 
Q 2938 2388 2941 2417 
Q 2944 2447 2944 2509 
Q 2944 2788 2717 2942 
Q 2491 3097 2081 3097 
Q 1800 3097 1504 3025 
Q 1209 2953 897 2809 
L 997 3341 
Q 1322 3463 1633 3523 
Q 1944 3584 2234 3584 
Q 2853 3584 3176 3315 
Q 3500 3047 3500 2534 
Q 3500 2431 3484 2292 
Q 3469 2153 3438 1997 
z
M 2816 1759 
L 2241 1759 
Q 1534 1759 1195 1570 
Q 856 1381 856 984 
Q 856 709 1029 553 
Q 1203 397 1509 397 
Q 1978 397 2328 733 
Q 2678 1069 2791 1631 
L 2816 1759 
z
" id="DejaVuSans-Oblique-61" transform="scale(0.015625)"/>
       <path d="M 1172 4863 
L 1747 4863 
L 1606 4134 
L 1031 4134 
L 1172 4863 
z
M 909 3500 
L 1484 3500 
L 800 0 
L 225 0 
L 909 3500 
z
" id="DejaVuSans-Oblique-69" transform="scale(0.015625)"/>
       <path d="M 2853 2969 
Q 2766 3016 2653 3041 
Q 2541 3066 2413 3066 
Q 1953 3066 1609 2717 
Q 1266 2369 1153 1784 
L 800 0 
L 225 0 
L 909 3500 
L 1484 3500 
L 1375 2956 
Q 1603 3259 1920 3421 
Q 2238 3584 2597 3584 
Q 2691 3584 2781 3573 
Q 2872 3563 2963 3538 
L 2853 2969 
z
" id="DejaVuSans-Oblique-72" transform="scale(0.015625)"/>
      </defs>
      <use transform="translate(0 0.09375)" xlink:href="#DejaVuSans-Oblique-46"/>
      <use transform="translate(57.519531 0.09375)" xlink:href="#DejaVuSans-Oblique-50"/>
      <use transform="translate(117.822266 0.09375)" xlink:href="#DejaVuSans-Oblique-52"/>
      <use transform="translate(187.304688 -16.3125)scale(0.7)" xlink:href="#DejaVuSans-Oblique-46"/>
      <use transform="translate(227.568359 -16.3125)scale(0.7)" xlink:href="#DejaVuSans-Oblique-61"/>
      <use transform="translate(270.463867 -16.3125)scale(0.7)" xlink:href="#DejaVuSans-Oblique-69"/>
      <use transform="translate(289.912109 -16.3125)scale(0.7)" xlink:href="#DejaVuSans-Oblique-72"/>
     </g>
    </g>
   </g>
   <g id="matplotlib.axis_2">
    <g id="ytick_1">
     <g id="line2d_7">
      <defs>
       <path d="M 0 0 
L -3.5 0 
" id="m189011b14b" style="stroke:#000000;stroke-width:0.8;"/>
      </defs>
      <g>
       <use style="stroke:#000000;stroke-width:0.8;" x="135" xlink:href="#m189011b14b" y="448.56"/>
      </g>
     </g>
     <g id="text_8">
      <!-- 0.0 -->
      <g transform="translate(99.374375 455.398594)scale(0.18 -0.18)">
       <use xlink:href="#DejaVuSans-30"/>
       <use x="63.623047" xlink:href="#DejaVuSans-2e"/>
       <use x="95.410156" xlink:href="#DejaVuSans-30"/>
      </g>
     </g>
    </g>
    <g id="ytick_2">
     <g id="line2d_8">
      <g>
       <use style="stroke:#000000;stroke-width:0.8;" x="135" xlink:href="#m189011b14b" y="370.944"/>
      </g>
     </g>
     <g id="text_9">
      <!-- 0.2 -->
      <g transform="translate(99.374375 377.782594)scale(0.18 -0.18)">
       <use xlink:href="#DejaVuSans-30"/>
       <use x="63.623047" xlink:href="#DejaVuSans-2e"/>
       <use x="95.410156" xlink:href="#DejaVuSans-32"/>
      </g>
     </g>
    </g>
    <g id="ytick_3">
     <g id="line2d_9">
      <g>
       <use style="stroke:#000000;stroke-width:0.8;" x="135" xlink:href="#m189011b14b" y="293.328"/>
      </g>
     </g>
     <g id="text_10">
      <!-- 0.4 -->
      <g transform="translate(99.374375 300.166594)scale(0.18 -0.18)">
       <use xlink:href="#DejaVuSans-30"/>
       <use x="63.623047" xlink:href="#DejaVuSans-2e"/>
       <use x="95.410156" xlink:href="#DejaVuSans-34"/>
      </g>
     </g>
    </g>
    <g id="ytick_4">
     <g id="line2d_10">
      <g>
       <use style="stroke:#000000;stroke-width:0.8;" x="135" xlink:href="#m189011b14b" y="215.712"/>
      </g>
     </g>
     <g id="text_11">
      <!-- 0.6 -->
      <g transform="translate(99.374375 222.550594)scale(0.18 -0.18)">
       <use xlink:href="#DejaVuSans-30"/>
       <use x="63.623047" xlink:href="#DejaVuSans-2e"/>
       <use x="95.410156" xlink:href="#DejaVuSans-36"/>
      </g>
     </g>
    </g>
    <g id="ytick_5">
     <g id="line2d_11">
      <g>
       <use style="stroke:#000000;stroke-width:0.8;" x="135" xlink:href="#m189011b14b" y="138.096"/>
      </g>
     </g>
     <g id="text_12">
      <!-- 0.8 -->
      <g transform="translate(99.374375 144.934594)scale(0.18 -0.18)">
       <use xlink:href="#DejaVuSans-30"/>
       <use x="63.623047" xlink:href="#DejaVuSans-2e"/>
       <use x="95.410156" xlink:href="#DejaVuSans-38"/>
      </g>
     </g>
    </g>
    <g id="ytick_6">
     <g id="line2d_12">
      <g>
       <use style="stroke:#000000;stroke-width:0.8;" x="135" xlink:href="#m189011b14b" y="60.48"/>
      </g>
     </g>
     <g id="text_13">
      <!-- 1.0 -->
      <g transform="translate(99.374375 67.318594)scale(0.18 -0.18)">
       <use xlink:href="#DejaVuSans-31"/>
       <use x="63.623047" xlink:href="#DejaVuSans-2e"/>
       <use x="95.410156" xlink:href="#DejaVuSans-30"/>
      </g>
     </g>
    </g>
    <g id="text_14">
     <!-- $TPR_{Fair}$ -->
     <g transform="translate(90.799062 290.27)rotate(-90)scale(0.22 -0.22)">
      <defs>
       <path d="M 378 4666 
L 4325 4666 
L 4225 4134 
L 2559 4134 
L 1759 0 
L 1125 0 
L 1925 4134 
L 275 4134 
L 378 4666 
z
" id="DejaVuSans-Oblique-54" transform="scale(0.015625)"/>
      </defs>
      <use transform="translate(0 0.09375)" xlink:href="#DejaVuSans-Oblique-54"/>
      <use transform="translate(61.083984 0.09375)" xlink:href="#DejaVuSans-Oblique-50"/>
      <use transform="translate(121.386719 0.09375)" xlink:href="#DejaVuSans-Oblique-52"/>
      <use transform="translate(190.869141 -16.3125)scale(0.7)" xlink:href="#DejaVuSans-Oblique-46"/>
      <use transform="translate(231.132812 -16.3125)scale(0.7)" xlink:href="#DejaVuSans-Oblique-61"/>
      <use transform="translate(274.02832 -16.3125)scale(0.7)" xlink:href="#DejaVuSans-Oblique-69"/>
      <use transform="translate(293.476562 -16.3125)scale(0.7)" xlink:href="#DejaVuSans-Oblique-72"/>
     </g>
    </g>
   </g>
   <g id="line2d_13">
    <path clip-path="url(#p9ff166c209)" d="M 135 448.56 
L 972 60.48 
" style="fill:none;stroke:#ff0000;stroke-dasharray:5.55,2.4;stroke-dashoffset:0;stroke-width:1.5;"/>
   </g>
   <g id="line2d_14">
    <path clip-path="url(#p9ff166c209)" d="M 972 60.48 
L 284.464286 328.44 
L 227.316176 383.88 
L 198.730964 403.109189 
L 185.625 414.471892 
L 173.045455 421.866667 
L 166.929155 426.814138 
L 162.125 429.081081 
L 158.914286 433.0368 
L 156.619926 435.022326 
L 154.827411 436.464 
L 153.22395 438 
L 151.982609 438.73519 
L 150.582447 440.318919 
L 149.629213 440.868324 
L 148.818396 441.421405 
L 147.076582 441.920995 
L 146.358038 442.346201 
L 145.741362 442.759891 
L 144.484419 443.065946 
L 144.089593 443.263623 
L 143.621459 443.490071 
L 143.266667 443.653241 
L 142.896226 443.853407 
L 142.574661 443.984566 
L 141.633285 444.14087 
L 141.376039 444.265352 
L 141.183345 444.766452 
L 140.986346 444.895411 
L 140.270781 445.006154 
L 139.60171 445.088801 
L 139.508079 445.514908 
L 139.39242 445.602574 
L 139.299658 445.668675 
L 139.229646 445.747826 
L 138.683168 445.811991 
L 138.615551 445.893802 
L 138.535375 445.951546 
L 138.460465 445.997476 
L 138.402439 446.32 
L 138.346327 446.364356 
L 138.290418 446.405496 
L 138.234783 446.456585 
L 137.787345 446.480536 
L 137.732743 446.532149 
L 137.308966 446.56473 
L 137.282727 446.837387 
L 136.873321 446.872696 
L 136.472296 446.900525 
L 136.449351 447.157301 
L 136.433219 447.181385 
L 136.415046 447.205445 
L 136.393838 447.220253 
L 136.374949 447.239251 
L 136.359318 447.260625 
L 136.34296 447.493846 
L 136.327518 447.515089 
L 136.315521 447.734737 
L 136.302217 447.744706 
L 136.288188 447.754437 
L 136.27252 447.767191 
L 135.944695 447.776791 
L 135.935196 447.788852 
L 135.925203 447.799059 
L 135.918435 447.807907 
L 135.605644 447.816195 
L 135.598927 447.822205 
L 135.29576 447.82984 
L 135.292453 448.016471 
L 135.28882 448.022741 
L 135.286546 448.026679 
L 135.284018 448.03176 
L 135.280872 448.035331 
L 135.278166 448.040018 
L 135.27542 448.046893 
L 135.272372 448.049592 
L 135.27 448.223709 
L 135.267669 448.22774 
L 135.265799 448.231397 
L 135.263788 448.234019 
L 135.26189 448.237942 
L 135.260342 448.240986 
L 135.258333 448.244488 
L 135.255963 448.247913 
L 135.25495 448.25065 
L 135.252794 448.252975 
L 135.251351 448.257049 
L 135 448.259861 
L 135 448.262621 
L 135 448.264994 
L 135 448.267661 
L 135 448.269303 
L 135 448.271357 
L 135 448.272959 
L 135 448.276316 
L 135 448.278783 
L 135 448.280504 
L 135 448.282602 
L 135 448.284864 
L 135 448.286897 
L 135 448.289089 
" style="fill:none;stroke:#1f77b4;stroke-linecap:square;stroke-width:1.5;"/>
   </g>
   <g id="line2d_15">
    <path clip-path="url(#p9ff166c209)" d="M 972 60.48 
L 963.655035 62.832 
L 961.925777 65.178305 
L 955.936364 67.997288 
L 954.064286 73.926022 
L 949.518595 78.0779 
L 945 81.319618 
L 937.747114 84.849953 
L 933.83351 86.971689 
L 927.336179 90.189474 
L 921.815846 94.790538 
L 918.78556 99.334255 
L 913.710555 103.24237 
L 901.114007 107.031164 
L 895.328244 110.599336 
L 891.236842 114.072 
L 888.945976 118.692 
L 885.220736 122.461788 
L 879.835955 125.082539 
L 870.659193 129.564731 
L 866.669663 132.637902 
L 860.4 135.217895 
L 857.211429 137.631234 
L 852.981503 140.788421 
L 850.893816 142.743665 
L 846.599287 145.894737 
L 839 147.704712 
L 833.337335 150.036923 
L 830.978182 153.656471 
L 824.112883 157.962 
L 818.966418 161.059314 
L 816.181132 163.234043 
L 808.837975 165.822515 
L 804.38648 168.960842 
L 801.36 171.424691 
L 798.077922 173.425285 
L 792.798956 177.219512 
L 786.245707 178.532308 
L 782.638554 179.436923 
L 775.45749 182.512092 
L 771.349315 186.139771 
L 769.126039 188.501793 
L 765.391304 192.364822 
L 758.902405 194.285361 
L 754.06867 197.657651 
L 748.476052 200.436041 
L 745.618421 202.612629 
L 741.017804 206.849273 
L 737.18552 208.943163 
L 731.219178 211.299954 
L 725.748476 213.72878 
L 720.644817 216.252251 
L 718.714286 218.51958 
L 714.561051 220.971028 
L 712.151326 223.090986 
L 704.84434 226.018237 
L 699.642857 230.038318 
L 693.4464 232.707541 
L 688.521669 234.431153 
L 685.764992 236.962914 
L 683.473171 240.578375 
L 677.070147 242.378182 
L 672.87541 243.969362 
L 669.138158 246.666 
L 665.238806 248.245653 
L 658.30084 250.815179 
L 654.025554 252.67639 
L 646.5 254.056897 
L 642.183888 255.450647 
L 632.154255 258.717981 
L 629.11449 259.663229 
L 625.135135 261.533494 
L 615.928177 262.430504 
L 611.51756 265.052931 
L 605.715084 268.58087 
L 594.560377 269.48212 
L 589.508604 272.84339 
L 582.697674 275.975213 
L 577.343811 278.7456 
L 570.90297 280.486423 
L 568.446429 284.006471 
L 563.464286 286.384412 
L 554.338677 288.931034 
L 547.533605 291.697009 
L 541.444444 295.15539 
L 535.304348 296.891017 
L 531.65762 299.6343 
L 526.187368 301.5747 
L 517.730769 304.555472 
L 508.01087 306.329169 
L 500.035242 309.224071 
L 495.84 311.156041 
L 494.77951 313.252414 
L 487.816143 314.415 
L 478.094595 317.87493 
L 471.702273 321.197838 
L 461.681293 323.712558 
L 453.020979 325.193514 
L 447.401408 327.410674 
L 441.702128 329.656741 
L 433.928571 331.3275 
" style="fill:none;stroke:#ff7f0e;stroke-linecap:square;stroke-width:1.5;"/>
   </g>
   <g id="line2d_16">
    <path clip-path="url(#p9ff166c209)" d="M 972 60.48 
L 794.785016 109.186397 
L 696.117318 149.501935 
L 615.872596 178.92 
L 560.778261 206.861053 
L 513.484064 232.73483 
L 474.652174 254.52 
L 438.481788 266.5936 
L 408.437117 282.125691 
L 386.819484 295.5456 
L 370.264865 306.056471 
L 353.809645 319.2 
L 340.472924 326.230435 
L 325.184477 335.086316 
L 315.249467 340.548923 
L 306.474645 347.030438 
L 297.078035 352.151728 
L 286.2 357.137308 
L 277.704064 362.615342 
L 269.492308 366.746225 
L 264.298274 369.283765 
L 255.140365 373.122412 
L 248.698388 375.671878 
L 242.860825 378.277795 
L 237.014968 380.449527 
L 230.492784 383.091959 
L 226.451033 385.185468 
L 222.933852 387.357419 
L 218.964038 389.975497 
L 215.520221 391.703305 
L 211.090909 393.398127 
L 208.360588 395.163243 
L 205.712069 396.568421 
L 202.583851 397.504839 
L 201.17706 399.01156 
L 199.41976 400.268186 
L 197.1 402.251772 
L 194.659451 403.246934 
L 192.304979 404.012789 
L 190.144535 404.961553 
L 188.783133 405.821074 
L 186.820208 406.970717 
L 185.554311 408.124404 
L 183.644092 408.543969 
L 181.609722 409.653503 
L 179.525432 410.2371 
L 179.032303 411.36 
L 176.582954 412.657285 
L 174.767817 413.385882 
L 173.801325 414.473448 
L 173.012227 415.030613 
L 172.208028 415.792763 
L 171.313909 416.47813 
L 170.168067 417.277339 
L 169.425841 418.126585 
L 168.369914 418.985921 
L 167.663415 419.751479 
L 167.075434 420.677722 
L 166.446043 421.380095 
L 165.484561 421.865597 
L 165.103206 422.807778 
L 164.175058 423.45243 
L 163.274856 423.988101 
L 162.656286 424.654426 
L 162.152773 425.608004 
L 161.263728 426.021435 
L 160.382396 426.206893 
L 159.167763 426.442414 
L 158.87974 426.9384 
L 158.556466 427.335446 
L 158.340275 427.809006 
L 157.859244 427.992301 
L 157.04158 428.134737 
L 156.822298 428.799963 
L 156.067347 429.217544 
L 154.76054 429.313472 
L 154.048193 430.013971 
L 153.612346 430.243035 
L 153.471344 431.066678 
L 152.277523 431.510813 
L 151.887081 431.868387 
L 151.257689 432.327887 
L 150.873674 432.663142 
L 150.208479 433.134226 
L 149.632867 433.57186 
L 149.503781 433.683067 
L 148.90627 434.468152 
L 148.293989 434.750441 
L 147.677898 435.306967 
L 146.342162 435.846233 
L 145.500918 436.254649 
L 145.191781 436.609649 
L 145.133172 436.975522 
L 144.577236 437.181579 
L 144.024259 437.600681 
L 143.69804 437.833797 
L 143.392215 438.183529 
L 142.859155 438.393895 
L 142.811024 438.898257 
L 142.531785 439.250735 
L 142.501301 439.323436 
" style="fill:none;stroke:#2ca02c;stroke-linecap:square;stroke-width:1.5;"/>
   </g>
   <g id="line2d_17">
    <path clip-path="url(#p9ff166c209)" d="M 972 60.48 
L 963.745562 62.832 
L 962.035714 65.178305 
L 956.112887 67.997288 
L 954.245455 73.926022 
L 949.748466 78.0779 
L 945.250515 81.319618 
L 938.067568 84.849953 
L 934.154574 86.971689 
L 927.714286 90.189474 
L 922.242038 94.790538 
L 919.240385 99.334255 
L 914.213592 103.24237 
L 901.724435 107.031164 
L 895.991351 110.599336 
L 891.93913 114.072 
L 889.672131 118.692 
L 885.987845 122.461788 
L 880.555184 125.082539 
L 871.448276 129.564731 
L 867.491639 132.637902 
L 862.662162 135.217895 
L 859.510251 137.631234 
L 855.321429 140.788421 
L 853.262791 142.743665 
L 849.028436 145.894737 
L 841.467857 147.704712 
L 835.837321 150.036923 
L 833.51087 153.656471 
L 826.523868 157.962 
L 821.423077 161.059314 
L 818.479899 163.234043 
L 811.160556 165.822515 
L 806.732484 168.960842 
L 803.737113 171.424691 
L 800.474708 173.425285 
L 795.215124 177.219512 
L 788.699208 178.532308 
L 785.129679 179.436923 
L 777.978437 182.512092 
L 773.913817 186.139771 
L 771.721992 188.501793 
L 768.02521 192.364822 
L 761.567797 194.285361 
L 756.771429 197.657651 
L 750.90566 200.436041 
L 748.065789 202.612629 
L 743.161961 206.849273 
L 739.359517 208.943163 
L 733.403963 211.299954 
L 727.928244 213.72878 
L 722.816794 216.252251 
L 720.9 218.51958 
L 716.75387 220.971028 
L 714.360937 223.090986 
L 707.059843 226.018237 
L 701.871224 230.038318 
L 695.682692 232.707541 
L 690.757235 234.431153 
L 688.017857 236.962914 
L 685.729642 240.578375 
L 679.323529 242.378182 
L 675.133005 243.969362 
L 671.397035 246.666 
L 667.509967 248.245653 
L 660.590909 250.815179 
L 656.33959 252.67639 
L 648.845217 254.056897 
L 644.542105 255.450647 
L 634.523979 258.717981 
L 631.5 259.663229 
L 627.530686 261.533494 
L 618.359779 262.430504 
L 613.95 265.052931 
L 608.154851 268.58087 
L 597.011342 269.48212 
L 591.982759 272.84339 
L 585.192233 275.975213 
L 579.862205 278.7456 
L 573.428571 280.486423 
L 570.972167 284.006471 
L 566.02994 286.384412 
L 556.875 288.931034 
L 550.069672 291.697009 
L 543.968944 295.15539 
L 537.80625 296.891017 
L 534.157563 299.6343 
L 528.673729 301.5747 
L 520.2 304.555472 
L 510.459519 306.329169 
L 502.463415 309.224071 
L 498.261745 311.156041 
L 497.199552 313.252414 
L 490.205418 314.415 
L 480.428571 317.87493 
L 474.01373 321.197838 
L 463.960465 323.712558 
L 455.260563 325.193514 
L 449.617021 327.410674 
L 443.892857 329.656741 
L 436.079137 331.3275 
" style="fill:none;stroke:#d62728;stroke-linecap:square;stroke-width:1.5;"/>
   </g>
   <g id="line2d_18">
    <path clip-path="url(#p9ff166c209)" d="M 972 60.48 
L 875.721707 84.6272 
L 813.804124 110.399004 
L 752.84858 130.624126 
L 707.423929 151.792941 
L 661.742739 172.027952 
L 622.435798 190.050684 
L 584.989078 201.159 
L 554.466513 216.291224 
L 530.352876 230.469972 
L 509.376997 242.245599 
L 489.213632 256.733384 
L 472.102161 264.482934 
L 451.808411 274.813255 
L 437.521076 282.113857 
L 424.369058 290.09045 
L 410.529851 297.753833 
L 395.848193 304.812 
L 383.048099 312.579213 
L 372.160512 318.458682 
L 363.661797 322.343327 
L 351.22995 327.107956 
L 342.66368 330.508903 
L 333.06016 334.418824 
L 324.683766 337.209372 
L 314.620516 340.849312 
L 307.308491 343.870122 
L 301.800716 346.743158 
L 295.867793 350.105463 
L 288.870803 352.646692 
L 282.431438 354.875516 
L 277.879956 357.448041 
L 273.294816 359.816258 
L 268.777304 361.651944 
L 265.836316 364.136519 
L 261.699844 366.000976 
L 257.937052 368.729343 
L 253.546875 370.236562 
L 249.646154 371.692707 
L 246.244237 373.059011 
L 243.575024 374.375342 
L 240.625239 376.048433 
L 237.699387 378.362831 
L 234.298459 379.077413 
L 231.458678 381.067826 
L 228.211364 382.192696 
L 225.690745 383.99171 
L 222.140751 386.087509 
L 219.068722 387.18111 
L 216.551979 388.474362 
L 214.765847 389.869545 
L 213.167591 391.113258 
L 211.122947 392.613018 
L 208.935 394.096265 
L 206.940496 395.667956 
L 205.491415 396.937465 
L 203.81774 398.209108 
L 202.619373 399.60586 
L 201.333333 400.465451 
L 199.206406 401.308743 
L 197.848651 402.464741 
L 196.591789 403.562466 
L 195.130234 404.379161 
L 193.647372 405.522447 
L 192.385227 406.749767 
L 190.883721 407.344737 
L 188.617877 407.814316 
L 186.232301 408.22836 
L 184.559211 409.127503 
L 182.828571 410.017203 
L 182.167624 410.57845 
L 180.936565 411.076981 
L 178.818889 411.327871 
L 177.847826 412.231304 
L 176.879083 413.125127 
L 174.568323 413.449615 
L 172.901887 414.57987 
L 171.775545 415.677523 
L 170.466102 416.592676 
L 168.88664 417.125191 
L 168.109621 418.330611 
L 167.127837 418.894737 
L 166.092537 419.634783 
L 165.020731 420.486806 
L 163.615385 421.418209 
L 162.845401 422.035411 
L 162.166504 423.199387 
L 161.198451 423.984192 
L 160.217308 425.166754 
L 158.532268 425.904019 
L 157.32 426.804232 
L 156.928977 427.33926 
L 156.805085 427.902904 
L 156.166719 428.158598 
L 155.275155 428.811904 
L 154.345146 429.527724 
L 153.451929 429.917957 
L 152.846482 430.332 
L 152.242048 431.152718 
L 151.906542 431.686957 
L 151.357486 431.831171 
" style="fill:none;stroke:#9467bd;stroke-linecap:square;stroke-width:1.5;"/>
   </g>
   <g id="line2d_19">
    <path clip-path="url(#p9ff166c209)" d="M 972 60.48 
L 963.745562 62.832 
L 962.035714 65.178305 
L 956.112887 67.997288 
L 954.245455 73.926022 
L 949.748466 78.0779 
L 945.250515 81.319618 
L 938.067568 84.849953 
L 934.154574 86.971689 
L 927.714286 90.189474 
L 922.242038 94.790538 
L 919.240385 99.334255 
L 914.213592 103.24237 
L 901.724435 107.031164 
L 895.991351 110.599336 
L 891.93913 114.072 
L 889.672131 118.692 
L 885.987845 122.461788 
L 880.555184 125.082539 
L 871.448276 129.564731 
L 867.491639 132.637902 
L 862.662162 135.217895 
L 859.510251 137.631234 
L 855.321429 140.788421 
L 853.262791 142.743665 
L 849.028436 145.894737 
L 841.467857 147.704712 
L 835.837321 150.036923 
L 833.51087 153.656471 
L 826.523868 157.962 
L 821.423077 161.059314 
L 818.479899 163.234043 
L 811.160556 165.822515 
L 806.732484 168.960842 
L 803.737113 171.424691 
L 800.474708 173.425285 
L 795.215124 177.219512 
L 788.699208 178.532308 
L 785.129679 179.436923 
L 777.978437 182.512092 
L 773.913817 186.139771 
L 771.721992 188.501793 
L 768.02521 192.364822 
L 761.567797 194.285361 
L 756.771429 197.657651 
L 750.90566 200.436041 
L 748.065789 202.612629 
L 743.161961 206.849273 
L 739.359517 208.943163 
L 733.403963 211.299954 
L 727.928244 213.72878 
L 722.816794 216.252251 
L 720.9 218.51958 
L 716.75387 220.971028 
L 714.360937 223.090986 
L 707.059843 226.018237 
L 701.871224 230.038318 
L 695.682692 232.707541 
L 690.757235 234.431153 
L 688.017857 236.962914 
L 685.729642 240.578375 
L 679.323529 242.378182 
L 675.133005 243.969362 
L 671.397035 246.666 
L 667.509967 248.245653 
L 660.590909 250.815179 
L 656.33959 252.67639 
L 648.845217 254.056897 
L 644.542105 255.450647 
L 634.523979 258.717981 
L 631.5 259.663229 
L 627.530686 261.533494 
L 618.359779 262.430504 
L 613.95 265.052931 
L 608.154851 268.58087 
L 597.011342 269.48212 
L 591.982759 272.84339 
L 585.192233 275.975213 
L 579.862205 278.7456 
L 573.428571 280.486423 
L 570.972167 284.006471 
L 566.02994 286.384412 
L 556.875 288.931034 
L 550.069672 291.697009 
L 543.968944 295.15539 
L 537.80625 296.891017 
L 534.157563 299.6343 
L 528.673729 301.5747 
L 520.2 304.555472 
L 510.459519 306.329169 
L 502.463415 309.224071 
L 498.261745 311.156041 
L 497.199552 313.252414 
L 490.205418 314.415 
L 480.428571 317.87493 
L 474.01373 321.197838 
L 463.960465 323.712558 
L 455.260563 325.193514 
L 449.617021 327.410674 
L 443.892857 329.656741 
L 436.079137 331.3275 
" style="fill:none;stroke:#8c564b;stroke-linecap:square;stroke-width:1.5;"/>
   </g>
   <g id="line2d_20">
    <path clip-path="url(#p9ff166c209)" d="M 972 60.48 
L 916.056555 76.754323 
L 871.600979 95.162034 
L 828.597902 110.071204 
L 793.914894 125.067994 
L 758.009709 141.681522 
L 724.959752 156.61455 
L 694.389442 165.738707 
L 665.87873 178.051034 
L 642.201681 191.514071 
L 622.299728 202.363462 
L 601.717678 216.468819 
L 584.473322 223.645353 
L 564.66 233.445984 
L 549.087591 240.340901 
L 534.073171 248.444384 
L 517.24696 256.364487 
L 501.34273 263.536729 
L 486.176087 271.682383 
L 474.067989 277.722303 
L 462.873103 281.709243 
L 448.80445 286.887665 
L 437.510204 290.233893 
L 425.453496 294.488372 
L 415.046904 297.657687 
L 402.062347 301.820177 
L 392.5 305.145821 
L 384.433841 308.730397 
L 376.469948 312.894562 
L 367.160584 316.009507 
L 358.354144 318.628874 
L 352.491794 321.725466 
L 345.605832 324.792459 
L 339.669514 327.149497 
L 335.171429 330.275342 
L 329.732394 332.684062 
L 324.932955 336.106455 
L 318.627551 338.654531 
L 313.03125 340.566015 
L 308.085914 342.3616 
L 303.72332 344.328645 
L 298.956905 346.4463 
L 294.196507 349.234223 
L 289.523077 350.365424 
L 284.874941 352.922708 
L 280.531015 354.798774 
L 277.301728 356.832 
L 272.04128 359.733302 
L 267.601648 361.44914 
L 263.360254 363.058356 
L 260.870329 365.024136 
L 258.406236 366.858947 
L 255.675165 368.603819 
L 252.697431 370.427421 
L 249.712062 372.436615 
L 247.459564 374.107696 
L 245.038168 375.963528 
L 243.5 377.607377 
L 241.546327 378.852353 
L 238.757463 380.266026 
L 236.621001 382.10657 
L 234.432059 383.348201 
L 232.616223 384.372237 
L 230.791116 385.997985 
L 229.03745 387.406823 
L 226.050237 388.337372 
L 223.139882 388.914207 
L 219.482853 389.685424 
L 217.115875 390.829091 
L 213.629218 392.023502 
L 212.134044 392.827089 
L 210.371169 393.569656 
L 206.066038 393.934521 
L 204.776075 395.107472 
L 202.70538 396.440693 
L 199.788058 396.767709 
L 197.590909 398.316696 
L 195.417791 399.759521 
L 193.635572 400.86995 
L 191.827736 401.525338 
L 190.840029 403.068206 
L 189.723473 403.915166 
L 187.963384 404.980666 
L 186.371429 406.276912 
L 184.582511 407.485217 
L 183.07986 408.361154 
L 181.727146 410.004547 
L 180.306037 410.939147 
L 178.596758 412.219175 
L 176.4613 413.084084 
L 174.51625 414.089656 
L 173.731541 414.957148 
L 173.238579 415.755266 
L 171.943059 416.097654 
L 170.389933 417.0285 
L 169.003996 417.989851 
L 167.181637 418.744684 
L 165.682629 419.234858 
L 164.95174 420.183235 
L 164.01308 421.234872 
L 163.127569 421.7472 
" style="fill:none;stroke:#e377c2;stroke-linecap:square;stroke-width:1.5;"/>
   </g>
   <g id="line2d_21">
    <path clip-path="url(#p9ff166c209)" d="M 972 60.48 
L 929.668966 70.139385 
L 896.586207 83.59966 
L 865.901408 95.321436 
L 839.283298 109.890716 
L 813.813084 119.952 
L 789.304569 132.51 
L 763.373386 141.250345 
L 739.952335 151.627119 
L 717.156993 162.390809 
L 697.931163 172.058557 
L 681.035584 185.128212 
L 663.947935 192.351845 
L 642.162162 201.450982 
L 627.9 208.071047 
L 612.09 216.422625 
L 597.12215 224.875 
L 581.668269 232.457143 
L 566.681102 240.528501 
L 551.891622 246.729412 
L 542.120846 250.40671 
L 527.130467 255.753678 
L 514.901961 259.244148 
L 500.150142 263.66144 
L 488.4 267.637717 
L 473.907975 272.464927 
L 463.521098 276.337104 
L 453.543307 280.055859 
L 443.481959 284.569028 
L 432.753329 288.170373 
L 423.095925 291.221899 
L 416.257001 294.60839 
L 407.643473 298.171525 
L 400.738574 300.550847 
L 395.580254 304.266387 
L 389.717287 306.97099 
L 384.308561 310.726638 
L 377.107438 313.235274 
L 371.064365 315.235296 
L 365.393728 317.193004 
L 359.678571 319.648544 
L 354.808486 322.041126 
L 348.894707 325.08 
L 343.067797 326.435094 
L 336.79343 329.408117 
L 331.012209 331.548387 
L 327.371271 333.847742 
L 320.795604 337.208941 
L 314.324633 339.15313 
L 309.074353 341.022758 
L 305.533155 343.146412 
L 302.933121 345.17 
L 299.936942 347.077202 
L 296.28094 349.170695 
L 293.080645 351.177534 
L 289.343492 353.275706 
L 286.596203 355.486776 
L 284.037245 357.32962 
L 281.358338 358.752518 
L 278.015625 360.391556 
L 275.265337 362.498498 
L 272.430267 363.917037 
L 269.561947 365.02911 
L 266.900778 367.130497 
L 264.550218 368.66774 
L 260.529753 369.793478 
L 256.642926 370.504249 
L 251.762704 371.511496 
L 248.484776 372.858296 
L 244.122343 374.361873 
L 242.176829 375.337358 
L 239.966434 376.344119 
L 234.800652 376.78011 
L 233.152355 378.038621 
L 230.470912 379.975987 
L 226.218878 380.372408 
L 223.225352 382.379061 
L 220.632413 383.984155 
L 218.511061 385.292829 
L 216.254831 386.285739 
L 214.963393 388.192 
L 213.492 389.309591 
L 211.326693 390.782343 
L 208.647162 392.40112 
L 206.437747 393.835909 
L 204.506119 394.85963 
L 202.805749 396.776319 
L 200.639948 397.880854 
L 198.217523 399.311269 
L 195.506024 400.246397 
L 192.786021 401.810444 
L 191.515385 402.857574 
L 190.823704 403.968771 
L 188.840034 404.34099 
L 186.827717 405.782562 
L 184.996241 407.254455 
L 182.659601 408.354376 
L 180.749068 408.991059 
L 179.506595 410.093086 
L 178.293103 411.302807 
L 176.523985 411.948679 
" style="fill:none;stroke:#7f7f7f;stroke-linecap:square;stroke-width:1.5;"/>
   </g>
   <g id="line2d_22">
    <path clip-path="url(#p9ff166c209)" d="M 972 60.48 
L 935.112277 69.183641 
L 904.664969 81.40344 
L 876.319085 91.72166 
L 852.195716 104.805055 
L 828.353787 113.80043 
L 805.229323 125.912093 
L 781.105263 134.127 
L 759.332123 143.577848 
L 737.64 154.00855 
L 719.513514 162.999529 
L 703.271404 175.540909 
L 687.108953 182.369362 
L 665.444444 191.124608 
L 651.691748 197.672344 
L 636.272943 205.497406 
L 621.522446 213.890028 
L 605.8125 221.225314 
L 590.916604 229.544554 
L 576.271324 235.408696 
L 566.218524 238.989974 
L 551.118777 244.41375 
L 538.281818 247.828966 
L 523.464115 252.21 
L 511.369128 256.150588 
L 496.721377 260.945166 
L 485.841591 264.84973 
L 475.265685 268.6263 
L 465.062264 273.228239 
L 453.757934 276.791887 
L 443.585697 279.829565 
L 436.422699 283.299633 
L 427.721311 286.981305 
L 420.546931 289.406835 
L 415.003597 293.214609 
L 409.026738 296.010194 
L 403.136283 299.998125 
L 395.672727 302.620056 
L 389.315483 304.686439 
L 383.537262 306.710069 
L 377.302125 309.188432 
L 372.365352 311.713486 
L 366.33882 314.979867 
L 360.182741 316.458596 
L 353.671484 319.537314 
L 347.615641 321.711845 
L 343.903368 323.972505 
L 337.129528 327.347352 
L 330.497012 329.608276 
L 325.104413 331.644759 
L 321.447115 333.988643 
L 318.829178 336.055511 
L 315.425868 338.059963 
L 311.670846 340.185957 
L 308.412806 342.220345 
L 304.047126 344.487233 
L 300.674227 346.986715 
L 297.761929 348.873978 
L 295.058644 350.501736 
L 291.619168 352.171118 
L 288.708981 354.445473 
L 285.134529 355.846963 
L 282.096535 357.207449 
L 279.282076 359.466835 
L 276.885198 361.20866 
L 272.527548 362.467167 
L 268.546557 363.221888 
L 263.458494 364.574165 
L 260.068966 365.943529 
L 254.97 367.484791 
L 252.931915 368.49025 
L 250.638158 369.657547 
L 245.421127 370.134168 
L 243.377271 371.539737 
L 240.591959 373.522745 
L 236.25621 373.937338 
L 233.199817 376.11 
L 230.252742 377.715024 
L 227.787865 379.20809 
L 225.167727 380.392184 
L 223.761282 382.468675 
L 221.936601 383.641077 
L 219.375 385.441007 
L 216.276615 387.059874 
L 214.039644 388.528875 
L 212.033628 389.583112 
L 210.285714 391.548247 
L 208.053947 392.693975 
L 205.237762 394.284467 
L 202.164413 395.270812 
L 199.384615 396.842319 
L 198.074058 397.906592 
L 197.33362 399.189458 
L 195.298456 399.731339 
L 192.89667 401.366352 
L 190.68178 402.869218 
L 188.282884 403.997644 
L 186.323814 404.648218 
L 184.729707 405.781038 
L 183.16764 407.014188 
L 181.38375 407.829681 
" style="fill:none;stroke:#bcbd22;stroke-linecap:square;stroke-width:1.5;"/>
   </g>
   <g id="line2d_23">
    <path clip-path="url(#p9ff166c209)" d="M 972 60.48 
L 929.279773 72.850909 
L 893.55505 85.818557 
L 862.375221 96.943893 
L 836.602941 109.932959 
L 809.702794 121.755789 
L 784.539669 134.85211 
L 758.025 142.811713 
L 733.422047 152.553882 
L 712.575173 163.2288 
L 693.420181 172.342612 
L 674.741912 184.595676 
L 658.807832 192.229235 
L 637.672548 201.083855 
L 621.802905 208.257725 
L 606.485443 215.969007 
L 590.491425 223.65 
L 574.899029 230.901766 
L 560.151303 238.689231 
L 547.245953 245.054634 
L 535.637195 249.117833 
L 521 254.08784 
L 508.968254 258.21871 
L 495.576125 263.053843 
L 483.789385 266.552416 
L 470.172414 270.996379 
L 459.103222 274.611703 
L 450.169446 278.44274 
L 441.014286 282.801134 
L 430.489017 286.581022 
L 420.773244 289.46499 
L 414 292.726714 
L 406.493909 296.178999 
L 399.846811 298.774737 
L 394.5998 302.042443 
L 388.623826 304.800438 
L 383.10632 308.497554 
L 376.121168 311.306588 
L 369.472999 313.288998 
L 363.491379 315.382083 
L 357.402857 317.72413 
L 352.556711 320.3 
L 346.799438 323.478161 
L 341.618537 324.893281 
L 335.6639 327.857115 
L 329.928342 329.833293 
L 326.303376 332.19924 
L 320.620408 335.282595 
L 314.813933 337.709822 
L 309.85657 339.483648 
L 306.692308 341.637906 
L 303.868421 343.772308 
L 300.221258 345.504778 
L 296.501074 347.409346 
L 293.254802 349.539588 
L 289.315208 351.738405 
L 285.766173 354.135689 
L 282.560523 356.067275 
L 279.939623 357.782185 
L 276.823064 359.372719 
L 274.270181 361.662165 
L 271.247853 363.163423 
L 268.60723 364.86383 
L 266.128876 366.908117 
L 263.69169 368.530105 
L 259.680911 369.875214 
L 256.28027 370.724228 
L 251.598658 372.037183 
L 248.630282 373.160562 
L 244.343701 374.889963 
L 241.967954 375.704833 
L 239.745489 376.826174 
L 235.337419 377.319982 
L 233.264818 378.872707 
L 230.702264 380.6681 
L 226.881203 381.152 
L 224.342697 383.033174 
L 221.543113 384.751698 
L 219.073661 386.072542 
L 216.900667 387.184398 
L 215.711815 389.145982 
L 214.130084 390.339463 
L 211.45232 391.858898 
L 208.682794 393.337128 
L 206.803708 394.828438 
L 204.850795 395.731478 
L 203.369557 397.470566 
L 201.528464 398.501149 
L 198.833927 399.96764 
L 196.062278 400.869426 
L 193.705632 402.212347 
L 192.316625 403.104786 
L 191.700948 404.212641 
L 190.01958 404.684456 
L 188.022624 406.262014 
L 186.209471 407.667273 
L 183.74328 408.711786 
L 181.851305 409.290946 
L 180.498462 410.3856 
L 179.217791 411.457152 
L 177.733152 412.1824 
" style="fill:none;stroke:#17becf;stroke-linecap:square;stroke-width:1.5;"/>
   </g>
   <g id="patch_3">
    <path d="M 135 448.56 
L 135 60.48 
" style="fill:none;stroke:#000000;stroke-linecap:square;stroke-linejoin:miter;stroke-width:0.8;"/>
   </g>
   <g id="patch_4">
    <path d="M 972 448.56 
L 972 60.48 
" style="fill:none;stroke:#000000;stroke-linecap:square;stroke-linejoin:miter;stroke-width:0.8;"/>
   </g>
   <g id="patch_5">
    <path d="M 135 448.56 
L 972 448.56 
" style="fill:none;stroke:#000000;stroke-linecap:square;stroke-linejoin:miter;stroke-width:0.8;"/>
   </g>
   <g id="patch_6">
    <path d="M 135 60.48 
L 972 60.48 
" style="fill:none;stroke:#000000;stroke-linecap:square;stroke-linejoin:miter;stroke-width:0.8;"/>
   </g>
   <g id="legend_1">
    <g id="patch_7">
     <path d="M 147.6 339.08625 
L 256.730625 339.08625 
Q 260.330625 339.08625 260.330625 335.48625 
L 260.330625 73.08 
Q 260.330625 69.48 256.730625 69.48 
L 147.6 69.48 
Q 144 69.48 144 73.08 
L 144 335.48625 
Q 144 339.08625 147.6 339.08625 
z
" style="fill:#ffffff;opacity:0.8;stroke:#cccccc;stroke-linejoin:miter;"/>
    </g>
    <g id="line2d_24">
     <path d="M 151.2 84.057188 
L 187.2 84.057188 
" style="fill:none;stroke:#1f77b4;stroke-linecap:square;stroke-width:1.5;"/>
    </g>
    <g id="line2d_25"/>
    <g id="text_15">
     <!-- 0.001 -->
     <g transform="translate(201.6 90.357188)scale(0.18 -0.18)">
      <use xlink:href="#DejaVuSans-30"/>
      <use x="63.623047" xlink:href="#DejaVuSans-2e"/>
      <use x="95.410156" xlink:href="#DejaVuSans-30"/>
      <use x="159.033203" xlink:href="#DejaVuSans-30"/>
      <use x="222.65625" xlink:href="#DejaVuSans-31"/>
     </g>
    </g>
    <g id="line2d_26">
     <path d="M 151.2 110.477812 
L 187.2 110.477812 
" style="fill:none;stroke:#ff7f0e;stroke-linecap:square;stroke-width:1.5;"/>
    </g>
    <g id="line2d_27"/>
    <g id="text_16">
     <!-- 0.011 -->
     <g transform="translate(201.6 116.777812)scale(0.18 -0.18)">
      <use xlink:href="#DejaVuSans-30"/>
      <use x="63.623047" xlink:href="#DejaVuSans-2e"/>
      <use x="95.410156" xlink:href="#DejaVuSans-30"/>
      <use x="159.033203" xlink:href="#DejaVuSans-31"/>
      <use x="222.65625" xlink:href="#DejaVuSans-31"/>
     </g>
    </g>
    <g id="line2d_28">
     <path d="M 151.2 136.898438 
L 187.2 136.898438 
" style="fill:none;stroke:#2ca02c;stroke-linecap:square;stroke-width:1.5;"/>
    </g>
    <g id="line2d_29"/>
    <g id="text_17">
     <!-- 0.021 -->
     <g transform="translate(201.6 143.198438)scale(0.18 -0.18)">
      <use xlink:href="#DejaVuSans-30"/>
      <use x="63.623047" xlink:href="#DejaVuSans-2e"/>
      <use x="95.410156" xlink:href="#DejaVuSans-30"/>
      <use x="159.033203" xlink:href="#DejaVuSans-32"/>
      <use x="222.65625" xlink:href="#DejaVuSans-31"/>
     </g>
    </g>
    <g id="line2d_30">
     <path d="M 151.2 163.319062 
L 187.2 163.319062 
" style="fill:none;stroke:#d62728;stroke-linecap:square;stroke-width:1.5;"/>
    </g>
    <g id="line2d_31"/>
    <g id="text_18">
     <!-- 0.031 -->
     <g transform="translate(201.6 169.619062)scale(0.18 -0.18)">
      <defs>
       <path d="M 2597 2516 
Q 3050 2419 3304 2112 
Q 3559 1806 3559 1356 
Q 3559 666 3084 287 
Q 2609 -91 1734 -91 
Q 1441 -91 1130 -33 
Q 819 25 488 141 
L 488 750 
Q 750 597 1062 519 
Q 1375 441 1716 441 
Q 2309 441 2620 675 
Q 2931 909 2931 1356 
Q 2931 1769 2642 2001 
Q 2353 2234 1838 2234 
L 1294 2234 
L 1294 2753 
L 1863 2753 
Q 2328 2753 2575 2939 
Q 2822 3125 2822 3475 
Q 2822 3834 2567 4026 
Q 2313 4219 1838 4219 
Q 1578 4219 1281 4162 
Q 984 4106 628 3988 
L 628 4550 
Q 988 4650 1302 4700 
Q 1616 4750 1894 4750 
Q 2613 4750 3031 4423 
Q 3450 4097 3450 3541 
Q 3450 3153 3228 2886 
Q 3006 2619 2597 2516 
z
" id="DejaVuSans-33" transform="scale(0.015625)"/>
      </defs>
      <use xlink:href="#DejaVuSans-30"/>
      <use x="63.623047" xlink:href="#DejaVuSans-2e"/>
      <use x="95.410156" xlink:href="#DejaVuSans-30"/>
      <use x="159.033203" xlink:href="#DejaVuSans-33"/>
      <use x="222.65625" xlink:href="#DejaVuSans-31"/>
     </g>
    </g>
    <g id="line2d_32">
     <path d="M 151.2 189.739688 
L 187.2 189.739688 
" style="fill:none;stroke:#9467bd;stroke-linecap:square;stroke-width:1.5;"/>
    </g>
    <g id="line2d_33"/>
    <g id="text_19">
     <!-- 0.041 -->
     <g transform="translate(201.6 196.039688)scale(0.18 -0.18)">
      <use xlink:href="#DejaVuSans-30"/>
      <use x="63.623047" xlink:href="#DejaVuSans-2e"/>
      <use x="95.410156" xlink:href="#DejaVuSans-30"/>
      <use x="159.033203" xlink:href="#DejaVuSans-34"/>
      <use x="222.65625" xlink:href="#DejaVuSans-31"/>
     </g>
    </g>
    <g id="line2d_34">
     <path d="M 151.2 216.160312 
L 187.2 216.160312 
" style="fill:none;stroke:#8c564b;stroke-linecap:square;stroke-width:1.5;"/>
    </g>
    <g id="line2d_35"/>
    <g id="text_20">
     <!-- 0.051 -->
     <g transform="translate(201.6 222.460312)scale(0.18 -0.18)">
      <defs>
       <path d="M 691 4666 
L 3169 4666 
L 3169 4134 
L 1269 4134 
L 1269 2991 
Q 1406 3038 1543 3061 
Q 1681 3084 1819 3084 
Q 2600 3084 3056 2656 
Q 3513 2228 3513 1497 
Q 3513 744 3044 326 
Q 2575 -91 1722 -91 
Q 1428 -91 1123 -41 
Q 819 9 494 109 
L 494 744 
Q 775 591 1075 516 
Q 1375 441 1709 441 
Q 2250 441 2565 725 
Q 2881 1009 2881 1497 
Q 2881 1984 2565 2268 
Q 2250 2553 1709 2553 
Q 1456 2553 1204 2497 
Q 953 2441 691 2322 
L 691 4666 
z
" id="DejaVuSans-35" transform="scale(0.015625)"/>
      </defs>
      <use xlink:href="#DejaVuSans-30"/>
      <use x="63.623047" xlink:href="#DejaVuSans-2e"/>
      <use x="95.410156" xlink:href="#DejaVuSans-30"/>
      <use x="159.033203" xlink:href="#DejaVuSans-35"/>
      <use x="222.65625" xlink:href="#DejaVuSans-31"/>
     </g>
    </g>
    <g id="line2d_36">
     <path d="M 151.2 242.580937 
L 187.2 242.580937 
" style="fill:none;stroke:#e377c2;stroke-linecap:square;stroke-width:1.5;"/>
    </g>
    <g id="line2d_37"/>
    <g id="text_21">
     <!-- 0.061 -->
     <g transform="translate(201.6 248.880937)scale(0.18 -0.18)">
      <use xlink:href="#DejaVuSans-30"/>
      <use x="63.623047" xlink:href="#DejaVuSans-2e"/>
      <use x="95.410156" xlink:href="#DejaVuSans-30"/>
      <use x="159.033203" xlink:href="#DejaVuSans-36"/>
      <use x="222.65625" xlink:href="#DejaVuSans-31"/>
     </g>
    </g>
    <g id="line2d_38">
     <path d="M 151.2 269.001562 
L 187.2 269.001562 
" style="fill:none;stroke:#7f7f7f;stroke-linecap:square;stroke-width:1.5;"/>
    </g>
    <g id="line2d_39"/>
    <g id="text_22">
     <!-- 0.071 -->
     <g transform="translate(201.6 275.301562)scale(0.18 -0.18)">
      <defs>
       <path d="M 525 4666 
L 3525 4666 
L 3525 4397 
L 1831 0 
L 1172 0 
L 2766 4134 
L 525 4134 
L 525 4666 
z
" id="DejaVuSans-37" transform="scale(0.015625)"/>
      </defs>
      <use xlink:href="#DejaVuSans-30"/>
      <use x="63.623047" xlink:href="#DejaVuSans-2e"/>
      <use x="95.410156" xlink:href="#DejaVuSans-30"/>
      <use x="159.033203" xlink:href="#DejaVuSans-37"/>
      <use x="222.65625" xlink:href="#DejaVuSans-31"/>
     </g>
    </g>
    <g id="line2d_40">
     <path d="M 151.2 295.422188 
L 187.2 295.422188 
" style="fill:none;stroke:#bcbd22;stroke-linecap:square;stroke-width:1.5;"/>
    </g>
    <g id="line2d_41"/>
    <g id="text_23">
     <!-- 0.081 -->
     <g transform="translate(201.6 301.722188)scale(0.18 -0.18)">
      <use xlink:href="#DejaVuSans-30"/>
      <use x="63.623047" xlink:href="#DejaVuSans-2e"/>
      <use x="95.410156" xlink:href="#DejaVuSans-30"/>
      <use x="159.033203" xlink:href="#DejaVuSans-38"/>
      <use x="222.65625" xlink:href="#DejaVuSans-31"/>
     </g>
    </g>
    <g id="line2d_42">
     <path d="M 151.2 321.842812 
L 187.2 321.842812 
" style="fill:none;stroke:#17becf;stroke-linecap:square;stroke-width:1.5;"/>
    </g>
    <g id="line2d_43"/>
    <g id="text_24">
     <!-- 0.091 -->
     <g transform="translate(201.6 328.142812)scale(0.18 -0.18)">
      <defs>
       <path d="M 703 97 
L 703 672 
Q 941 559 1184 500 
Q 1428 441 1663 441 
Q 2288 441 2617 861 
Q 2947 1281 2994 2138 
Q 2813 1869 2534 1725 
Q 2256 1581 1919 1581 
Q 1219 1581 811 2004 
Q 403 2428 403 3163 
Q 403 3881 828 4315 
Q 1253 4750 1959 4750 
Q 2769 4750 3195 4129 
Q 3622 3509 3622 2328 
Q 3622 1225 3098 567 
Q 2575 -91 1691 -91 
Q 1453 -91 1209 -44 
Q 966 3 703 97 
z
M 1959 2075 
Q 2384 2075 2632 2365 
Q 2881 2656 2881 3163 
Q 2881 3666 2632 3958 
Q 2384 4250 1959 4250 
Q 1534 4250 1286 3958 
Q 1038 3666 1038 3163 
Q 1038 2656 1286 2365 
Q 1534 2075 1959 2075 
z
" id="DejaVuSans-39" transform="scale(0.015625)"/>
      </defs>
      <use xlink:href="#DejaVuSans-30"/>
      <use x="63.623047" xlink:href="#DejaVuSans-2e"/>
      <use x="95.410156" xlink:href="#DejaVuSans-30"/>
      <use x="159.033203" xlink:href="#DejaVuSans-39"/>
      <use x="222.65625" xlink:href="#DejaVuSans-31"/>
     </g>
    </g>
   </g>
  </g>
 </g>
 <defs>
  <clipPath id="p9ff166c209">
   <rect height="388.08" width="837" x="135" y="60.48"/>
  </clipPath>
 </defs>
</svg>
