<?xml version="1.0" encoding="utf-8" standalone="no"?>
<!DOCTYPE svg PUBLIC "-//W3C//DTD SVG 1.1//EN"
  "http://www.w3.org/Graphics/SVG/1.1/DTD/svg11.dtd">
<svg height="504pt" version="1.1" viewBox="0 0 1080 504" width="1080pt" xmlns="http://www.w3.org/2000/svg" xmlns:xlink="http://www.w3.org/1999/xlink">
 <metadata>
  <rdf:RDF xmlns:cc="http://creativecommons.org/ns#" xmlns:dc="http://purl.org/dc/elements/1.1/" xmlns:rdf="http://www.w3.org/1999/02/22-rdf-syntax-ns#">
   <cc:Work>
    <dc:type rdf:resource="http://purl.org/dc/dcmitype/StillImage"/>
    <dc:date>2022-01-07T13:24:43.309488</dc:date>
    <dc:format>image/svg+xml</dc:format>
    <dc:creator>
     <cc:Agent>
      <dc:title>Matplotlib v3.4.3, https://matplotlib.org/</dc:title>
     </cc:Agent>
    </dc:creator>
   </cc:Work>
  </rdf:RDF>
 </metadata>
 <defs>
  <style type="text/css">*{stroke-linecap:butt;stroke-linejoin:round;}</style>
 </defs>
 <g id="figure_1">
  <g id="patch_1">
   <path d="M 0 504 
L 1080 504 
L 1080 0 
L 0 0 
z
" style="fill:#ffffff;"/>
  </g>
  <g id="axes_1">
   <g id="patch_2">
    <path d="M 135 448.56 
L 972 448.56 
L 972 60.48 
L 135 60.48 
z
" style="fill:#ffffff;"/>
   </g>
   <g id="matplotlib.axis_1">
    <g id="xtick_1">
     <g id="line2d_1">
      <defs>
       <path d="M 0 0 
L 0 3.5 
" id="m02ad64597a" style="stroke:#000000;stroke-width:0.8;"/>
      </defs>
      <g>
       <use style="stroke:#000000;stroke-width:0.8;" x="135" xlink:href="#m02ad64597a" y="448.56"/>
      </g>
     </g>
     <g id="text_1">
      <!-- 0.0 -->
      <g transform="translate(120.687187 469.237188)scale(0.18 -0.18)">
       <defs>
        <path d="M 2034 4250 
Q 1547 4250 1301 3770 
Q 1056 3291 1056 2328 
Q 1056 1369 1301 889 
Q 1547 409 2034 409 
Q 2525 409 2770 889 
Q 3016 1369 3016 2328 
Q 3016 3291 2770 3770 
Q 2525 4250 2034 4250 
z
M 2034 4750 
Q 2819 4750 3233 4129 
Q 3647 3509 3647 2328 
Q 3647 1150 3233 529 
Q 2819 -91 2034 -91 
Q 1250 -91 836 529 
Q 422 1150 422 2328 
Q 422 3509 836 4129 
Q 1250 4750 2034 4750 
z
" id="DejaVuSans-30" transform="scale(0.015625)"/>
        <path d="M 684 794 
L 1344 794 
L 1344 0 
L 684 0 
L 684 794 
z
" id="DejaVuSans-2e" transform="scale(0.015625)"/>
       </defs>
       <use xlink:href="#DejaVuSans-30"/>
       <use x="63.623047" xlink:href="#DejaVuSans-2e"/>
       <use x="95.410156" xlink:href="#DejaVuSans-30"/>
      </g>
     </g>
    </g>
    <g id="xtick_2">
     <g id="line2d_2">
      <g>
       <use style="stroke:#000000;stroke-width:0.8;" x="302.4" xlink:href="#m02ad64597a" y="448.56"/>
      </g>
     </g>
     <g id="text_2">
      <!-- 0.2 -->
      <g transform="translate(288.087187 469.237188)scale(0.18 -0.18)">
       <defs>
        <path d="M 1228 531 
L 3431 531 
L 3431 0 
L 469 0 
L 469 531 
Q 828 903 1448 1529 
Q 2069 2156 2228 2338 
Q 2531 2678 2651 2914 
Q 2772 3150 2772 3378 
Q 2772 3750 2511 3984 
Q 2250 4219 1831 4219 
Q 1534 4219 1204 4116 
Q 875 4013 500 3803 
L 500 4441 
Q 881 4594 1212 4672 
Q 1544 4750 1819 4750 
Q 2544 4750 2975 4387 
Q 3406 4025 3406 3419 
Q 3406 3131 3298 2873 
Q 3191 2616 2906 2266 
Q 2828 2175 2409 1742 
Q 1991 1309 1228 531 
z
" id="DejaVuSans-32" transform="scale(0.015625)"/>
       </defs>
       <use xlink:href="#DejaVuSans-30"/>
       <use x="63.623047" xlink:href="#DejaVuSans-2e"/>
       <use x="95.410156" xlink:href="#DejaVuSans-32"/>
      </g>
     </g>
    </g>
    <g id="xtick_3">
     <g id="line2d_3">
      <g>
       <use style="stroke:#000000;stroke-width:0.8;" x="469.8" xlink:href="#m02ad64597a" y="448.56"/>
      </g>
     </g>
     <g id="text_3">
      <!-- 0.4 -->
      <g transform="translate(455.487188 469.237188)scale(0.18 -0.18)">
       <defs>
        <path d="M 2419 4116 
L 825 1625 
L 2419 1625 
L 2419 4116 
z
M 2253 4666 
L 3047 4666 
L 3047 1625 
L 3713 1625 
L 3713 1100 
L 3047 1100 
L 3047 0 
L 2419 0 
L 2419 1100 
L 313 1100 
L 313 1709 
L 2253 4666 
z
" id="DejaVuSans-34" transform="scale(0.015625)"/>
       </defs>
       <use xlink:href="#DejaVuSans-30"/>
       <use x="63.623047" xlink:href="#DejaVuSans-2e"/>
       <use x="95.410156" xlink:href="#DejaVuSans-34"/>
      </g>
     </g>
    </g>
    <g id="xtick_4">
     <g id="line2d_4">
      <g>
       <use style="stroke:#000000;stroke-width:0.8;" x="637.2" xlink:href="#m02ad64597a" y="448.56"/>
      </g>
     </g>
     <g id="text_4">
      <!-- 0.6 -->
      <g transform="translate(622.887188 469.237188)scale(0.18 -0.18)">
       <defs>
        <path d="M 2113 2584 
Q 1688 2584 1439 2293 
Q 1191 2003 1191 1497 
Q 1191 994 1439 701 
Q 1688 409 2113 409 
Q 2538 409 2786 701 
Q 3034 994 3034 1497 
Q 3034 2003 2786 2293 
Q 2538 2584 2113 2584 
z
M 3366 4563 
L 3366 3988 
Q 3128 4100 2886 4159 
Q 2644 4219 2406 4219 
Q 1781 4219 1451 3797 
Q 1122 3375 1075 2522 
Q 1259 2794 1537 2939 
Q 1816 3084 2150 3084 
Q 2853 3084 3261 2657 
Q 3669 2231 3669 1497 
Q 3669 778 3244 343 
Q 2819 -91 2113 -91 
Q 1303 -91 875 529 
Q 447 1150 447 2328 
Q 447 3434 972 4092 
Q 1497 4750 2381 4750 
Q 2619 4750 2861 4703 
Q 3103 4656 3366 4563 
z
" id="DejaVuSans-36" transform="scale(0.015625)"/>
       </defs>
       <use xlink:href="#DejaVuSans-30"/>
       <use x="63.623047" xlink:href="#DejaVuSans-2e"/>
       <use x="95.410156" xlink:href="#DejaVuSans-36"/>
      </g>
     </g>
    </g>
    <g id="xtick_5">
     <g id="line2d_5">
      <g>
       <use style="stroke:#000000;stroke-width:0.8;" x="804.6" xlink:href="#m02ad64597a" y="448.56"/>
      </g>
     </g>
     <g id="text_5">
      <!-- 0.8 -->
      <g transform="translate(790.287188 469.237188)scale(0.18 -0.18)">
       <defs>
        <path d="M 2034 2216 
Q 1584 2216 1326 1975 
Q 1069 1734 1069 1313 
Q 1069 891 1326 650 
Q 1584 409 2034 409 
Q 2484 409 2743 651 
Q 3003 894 3003 1313 
Q 3003 1734 2745 1975 
Q 2488 2216 2034 2216 
z
M 1403 2484 
Q 997 2584 770 2862 
Q 544 3141 544 3541 
Q 544 4100 942 4425 
Q 1341 4750 2034 4750 
Q 2731 4750 3128 4425 
Q 3525 4100 3525 3541 
Q 3525 3141 3298 2862 
Q 3072 2584 2669 2484 
Q 3125 2378 3379 2068 
Q 3634 1759 3634 1313 
Q 3634 634 3220 271 
Q 2806 -91 2034 -91 
Q 1263 -91 848 271 
Q 434 634 434 1313 
Q 434 1759 690 2068 
Q 947 2378 1403 2484 
z
M 1172 3481 
Q 1172 3119 1398 2916 
Q 1625 2713 2034 2713 
Q 2441 2713 2670 2916 
Q 2900 3119 2900 3481 
Q 2900 3844 2670 4047 
Q 2441 4250 2034 4250 
Q 1625 4250 1398 4047 
Q 1172 3844 1172 3481 
z
" id="DejaVuSans-38" transform="scale(0.015625)"/>
       </defs>
       <use xlink:href="#DejaVuSans-30"/>
       <use x="63.623047" xlink:href="#DejaVuSans-2e"/>
       <use x="95.410156" xlink:href="#DejaVuSans-38"/>
      </g>
     </g>
    </g>
    <g id="xtick_6">
     <g id="line2d_6">
      <g>
       <use style="stroke:#000000;stroke-width:0.8;" x="972" xlink:href="#m02ad64597a" y="448.56"/>
      </g>
     </g>
     <g id="text_6">
      <!-- 1.0 -->
      <g transform="translate(957.687188 469.237188)scale(0.18 -0.18)">
       <defs>
        <path d="M 794 531 
L 1825 531 
L 1825 4091 
L 703 3866 
L 703 4441 
L 1819 4666 
L 2450 4666 
L 2450 531 
L 3481 531 
L 3481 0 
L 794 0 
L 794 531 
z
" id="DejaVuSans-31" transform="scale(0.015625)"/>
       </defs>
       <use xlink:href="#DejaVuSans-31"/>
       <use x="63.623047" xlink:href="#DejaVuSans-2e"/>
       <use x="95.410156" xlink:href="#DejaVuSans-30"/>
      </g>
     </g>
    </g>
    <g id="text_7">
     <!-- $FPR_{Fair}$ -->
     <g transform="translate(518.08 493.697187)scale(0.22 -0.22)">
      <defs>
       <path d="M 1081 4666 
L 3756 4666 
L 3653 4134 
L 1606 4134 
L 1338 2759 
L 3188 2759 
L 3084 2228 
L 1234 2228 
L 800 0 
L 172 0 
L 1081 4666 
z
" id="DejaVuSans-Oblique-46" transform="scale(0.015625)"/>
       <path d="M 1081 4666 
L 2541 4666 
Q 3178 4666 3512 4369 
Q 3847 4072 3847 3500 
Q 3847 2731 3353 2303 
Q 2859 1875 1966 1875 
L 1172 1875 
L 806 0 
L 172 0 
L 1081 4666 
z
M 1613 4147 
L 1275 2394 
L 2069 2394 
Q 2606 2394 2893 2669 
Q 3181 2944 3181 3456 
Q 3181 3784 2986 3965 
Q 2791 4147 2438 4147 
L 1613 4147 
z
" id="DejaVuSans-Oblique-50" transform="scale(0.015625)"/>
       <path d="M 1613 4147 
L 1294 2491 
L 2106 2491 
Q 2584 2491 2879 2755 
Q 3175 3019 3175 3444 
Q 3175 3784 2976 3965 
Q 2778 4147 2406 4147 
L 1613 4147 
z
M 2772 2241 
Q 2972 2194 3105 2009 
Q 3238 1825 3413 1275 
L 3809 0 
L 3144 0 
L 2778 1197 
Q 2638 1659 2453 1815 
Q 2269 1972 1888 1972 
L 1191 1972 
L 806 0 
L 172 0 
L 1081 4666 
L 2503 4666 
Q 3150 4666 3495 4373 
Q 3841 4081 3841 3531 
Q 3841 3044 3547 2687 
Q 3253 2331 2772 2241 
z
" id="DejaVuSans-Oblique-52" transform="scale(0.015625)"/>
       <path d="M 3438 1997 
L 3047 0 
L 2472 0 
L 2578 531 
Q 2325 219 2001 64 
Q 1678 -91 1281 -91 
Q 834 -91 548 182 
Q 263 456 263 884 
Q 263 1497 752 1853 
Q 1241 2209 2100 2209 
L 2900 2209 
L 2931 2363 
Q 2938 2388 2941 2417 
Q 2944 2447 2944 2509 
Q 2944 2788 2717 2942 
Q 2491 3097 2081 3097 
Q 1800 3097 1504 3025 
Q 1209 2953 897 2809 
L 997 3341 
Q 1322 3463 1633 3523 
Q 1944 3584 2234 3584 
Q 2853 3584 3176 3315 
Q 3500 3047 3500 2534 
Q 3500 2431 3484 2292 
Q 3469 2153 3438 1997 
z
M 2816 1759 
L 2241 1759 
Q 1534 1759 1195 1570 
Q 856 1381 856 984 
Q 856 709 1029 553 
Q 1203 397 1509 397 
Q 1978 397 2328 733 
Q 2678 1069 2791 1631 
L 2816 1759 
z
" id="DejaVuSans-Oblique-61" transform="scale(0.015625)"/>
       <path d="M 1172 4863 
L 1747 4863 
L 1606 4134 
L 1031 4134 
L 1172 4863 
z
M 909 3500 
L 1484 3500 
L 800 0 
L 225 0 
L 909 3500 
z
" id="DejaVuSans-Oblique-69" transform="scale(0.015625)"/>
       <path d="M 2853 2969 
Q 2766 3016 2653 3041 
Q 2541 3066 2413 3066 
Q 1953 3066 1609 2717 
Q 1266 2369 1153 1784 
L 800 0 
L 225 0 
L 909 3500 
L 1484 3500 
L 1375 2956 
Q 1603 3259 1920 3421 
Q 2238 3584 2597 3584 
Q 2691 3584 2781 3573 
Q 2872 3563 2963 3538 
L 2853 2969 
z
" id="DejaVuSans-Oblique-72" transform="scale(0.015625)"/>
      </defs>
      <use transform="translate(0 0.09375)" xlink:href="#DejaVuSans-Oblique-46"/>
      <use transform="translate(57.519531 0.09375)" xlink:href="#DejaVuSans-Oblique-50"/>
      <use transform="translate(117.822266 0.09375)" xlink:href="#DejaVuSans-Oblique-52"/>
      <use transform="translate(187.304688 -16.3125)scale(0.7)" xlink:href="#DejaVuSans-Oblique-46"/>
      <use transform="translate(227.568359 -16.3125)scale(0.7)" xlink:href="#DejaVuSans-Oblique-61"/>
      <use transform="translate(270.463867 -16.3125)scale(0.7)" xlink:href="#DejaVuSans-Oblique-69"/>
      <use transform="translate(289.912109 -16.3125)scale(0.7)" xlink:href="#DejaVuSans-Oblique-72"/>
     </g>
    </g>
   </g>
   <g id="matplotlib.axis_2">
    <g id="ytick_1">
     <g id="line2d_7">
      <defs>
       <path d="M 0 0 
L -3.5 0 
" id="ma4254ed972" style="stroke:#000000;stroke-width:0.8;"/>
      </defs>
      <g>
       <use style="stroke:#000000;stroke-width:0.8;" x="135" xlink:href="#ma4254ed972" y="448.56"/>
      </g>
     </g>
     <g id="text_8">
      <!-- 0.0 -->
      <g transform="translate(99.374375 455.398594)scale(0.18 -0.18)">
       <use xlink:href="#DejaVuSans-30"/>
       <use x="63.623047" xlink:href="#DejaVuSans-2e"/>
       <use x="95.410156" xlink:href="#DejaVuSans-30"/>
      </g>
     </g>
    </g>
    <g id="ytick_2">
     <g id="line2d_8">
      <g>
       <use style="stroke:#000000;stroke-width:0.8;" x="135" xlink:href="#ma4254ed972" y="370.944"/>
      </g>
     </g>
     <g id="text_9">
      <!-- 0.2 -->
      <g transform="translate(99.374375 377.782594)scale(0.18 -0.18)">
       <use xlink:href="#DejaVuSans-30"/>
       <use x="63.623047" xlink:href="#DejaVuSans-2e"/>
       <use x="95.410156" xlink:href="#DejaVuSans-32"/>
      </g>
     </g>
    </g>
    <g id="ytick_3">
     <g id="line2d_9">
      <g>
       <use style="stroke:#000000;stroke-width:0.8;" x="135" xlink:href="#ma4254ed972" y="293.328"/>
      </g>
     </g>
     <g id="text_10">
      <!-- 0.4 -->
      <g transform="translate(99.374375 300.166594)scale(0.18 -0.18)">
       <use xlink:href="#DejaVuSans-30"/>
       <use x="63.623047" xlink:href="#DejaVuSans-2e"/>
       <use x="95.410156" xlink:href="#DejaVuSans-34"/>
      </g>
     </g>
    </g>
    <g id="ytick_4">
     <g id="line2d_10">
      <g>
       <use style="stroke:#000000;stroke-width:0.8;" x="135" xlink:href="#ma4254ed972" y="215.712"/>
      </g>
     </g>
     <g id="text_11">
      <!-- 0.6 -->
      <g transform="translate(99.374375 222.550594)scale(0.18 -0.18)">
       <use xlink:href="#DejaVuSans-30"/>
       <use x="63.623047" xlink:href="#DejaVuSans-2e"/>
       <use x="95.410156" xlink:href="#DejaVuSans-36"/>
      </g>
     </g>
    </g>
    <g id="ytick_5">
     <g id="line2d_11">
      <g>
       <use style="stroke:#000000;stroke-width:0.8;" x="135" xlink:href="#ma4254ed972" y="138.096"/>
      </g>
     </g>
     <g id="text_12">
      <!-- 0.8 -->
      <g transform="translate(99.374375 144.934594)scale(0.18 -0.18)">
       <use xlink:href="#DejaVuSans-30"/>
       <use x="63.623047" xlink:href="#DejaVuSans-2e"/>
       <use x="95.410156" xlink:href="#DejaVuSans-38"/>
      </g>
     </g>
    </g>
    <g id="ytick_6">
     <g id="line2d_12">
      <g>
       <use style="stroke:#000000;stroke-width:0.8;" x="135" xlink:href="#ma4254ed972" y="60.48"/>
      </g>
     </g>
     <g id="text_13">
      <!-- 1.0 -->
      <g transform="translate(99.374375 67.318594)scale(0.18 -0.18)">
       <use xlink:href="#DejaVuSans-31"/>
       <use x="63.623047" xlink:href="#DejaVuSans-2e"/>
       <use x="95.410156" xlink:href="#DejaVuSans-30"/>
      </g>
     </g>
    </g>
    <g id="text_14">
     <!-- $TPR_{Fair}$ -->
     <g transform="translate(90.799062 290.27)rotate(-90)scale(0.22 -0.22)">
      <defs>
       <path d="M 378 4666 
L 4325 4666 
L 4225 4134 
L 2559 4134 
L 1759 0 
L 1125 0 
L 1925 4134 
L 275 4134 
L 378 4666 
z
" id="DejaVuSans-Oblique-54" transform="scale(0.015625)"/>
      </defs>
      <use transform="translate(0 0.09375)" xlink:href="#DejaVuSans-Oblique-54"/>
      <use transform="translate(61.083984 0.09375)" xlink:href="#DejaVuSans-Oblique-50"/>
      <use transform="translate(121.386719 0.09375)" xlink:href="#DejaVuSans-Oblique-52"/>
      <use transform="translate(190.869141 -16.3125)scale(0.7)" xlink:href="#DejaVuSans-Oblique-46"/>
      <use transform="translate(231.132812 -16.3125)scale(0.7)" xlink:href="#DejaVuSans-Oblique-61"/>
      <use transform="translate(274.02832 -16.3125)scale(0.7)" xlink:href="#DejaVuSans-Oblique-69"/>
      <use transform="translate(293.476562 -16.3125)scale(0.7)" xlink:href="#DejaVuSans-Oblique-72"/>
     </g>
    </g>
   </g>
   <g id="line2d_13">
    <path clip-path="url(#p84456fcdcd)" d="M 135 448.56 
L 972 60.48 
" style="fill:none;stroke:#ff0000;stroke-dasharray:5.55,2.4;stroke-dashoffset:0;stroke-width:1.5;"/>
   </g>
   <g id="line2d_14">
    <path clip-path="url(#p84456fcdcd)" d="M 972 60.48 
L 208.345494 411.279686 
L 172.61887 429.067684 
L 160.009997 435.372349 
L 153.542256 438.624052 
L 149.60553 440.618421 
L 146.985346 441.956744 
L 145.094816 442.884657 
L 143.686265 443.624658 
L 142.597023 444.179517 
L 141.715703 444.630954 
L 140.989696 445.006989 
L 140.390786 445.322811 
L 139.880017 445.579363 
L 139.453506 445.800977 
L 139.086804 445.993498 
L 138.766126 446.163845 
L 138.480278 446.324751 
L 138.227204 446.456288 
L 138.006757 446.57655 
L 137.807006 446.681557 
L 137.628818 446.777248 
L 137.467824 446.863468 
L 137.323824 446.947331 
L 137.195458 447.018527 
L 137.076821 447.088304 
L 136.968713 447.14817 
L 136.867264 447.205328 
L 136.773541 447.257966 
L 136.690512 447.307543 
L 136.608464 447.353353 
L 136.536728 447.397649 
L 136.468785 447.439842 
L 136.403155 447.479309 
L 136.343841 447.51427 
L 136.28803 447.547093 
L 136.236183 447.577813 
L 136.187083 447.607581 
L 136.143297 447.635237 
L 136.10156 447.662217 
L 136.062654 447.687821 
L 136.02315 447.713811 
L 135.989835 447.735402 
L 135.956294 447.75994 
L 135.925242 447.784344 
L 135.895896 447.805246 
L 135.865943 447.824836 
L 135.838907 447.843526 
L 135.813189 447.860592 
L 135.788651 447.880454 
L 135.76671 447.898563 
L 135.743199 447.914917 
L 135.722287 447.934895 
L 135.701959 447.950057 
L 135.683374 447.964356 
L 135.664729 447.979106 
L 135.648205 447.993763 
L 135.632124 448.006917 
L 135.616464 448.020332 
L 135.60001 448.030242 
L 135.58401 448.04196 
L 135.569642 448.053085 
L 135.555073 448.062957 
L 135.541306 448.073669 
L 135.528242 448.084384 
L 135.516539 448.093153 
L 135.504645 448.104751 
L 135.492636 448.114128 
L 135.480757 448.122432 
L 135.470108 448.129625 
L 135.460386 448.137826 
L 135.450134 448.146572 
L 135.439735 448.155926 
L 135.428373 448.163225 
L 135.419956 448.1714 
L 135.410593 448.178122 
L 135.399506 448.18545 
L 135.390694 448.192382 
L 135.381599 448.198953 
L 135.372055 448.206075 
L 135.362384 448.213965 
L 135.351853 448.22031 
L 135.342282 448.225857 
L 135.33177 448.231573 
L 135.3218 448.237391 
L 135.312347 448.243964 
L 135.305194 448.249107 
L 135.297972 448.254992 
L 135.289054 448.26142 
L 135.281916 448.26729 
L 135.274062 448.273685 
L 135.26541 448.279726 
L 135.258755 448.286141 
L 135.250427 448.292182 
L 135.244615 448.296905 
L 135.238465 448.302318 
L 135.231219 448.307458 
L 135.225348 448.314447 
L 135.219386 448.320747 
L 135.213246 448.327517 
L 135.207314 448.332632 
" style="fill:none;stroke:#1f77b4;stroke-linecap:square;stroke-width:1.5;"/>
   </g>
   <g id="line2d_15">
    <path clip-path="url(#p84456fcdcd)" d="M 972 60.48 
L 573.556223 225.866 
L 428.42941 292.619283 
L 353.2988 328.687956 
L 307.431724 351.446359 
L 276.566955 367.039483 
L 254.44224 378.438701 
L 237.723621 386.978247 
L 224.693131 393.858707 
L 214.252013 399.302238 
L 205.727482 403.808308 
L 198.666229 407.629644 
L 192.686576 410.835986 
L 187.55375 413.578655 
L 183.139357 416.007764 
L 179.298341 418.09415 
L 175.913351 419.96148 
L 172.940511 421.646023 
L 170.305675 423.158973 
L 167.906286 424.486536 
L 165.758135 425.702584 
L 163.854117 426.805205 
L 162.118361 427.812411 
L 160.535396 428.753976 
L 159.093071 429.624171 
L 157.776286 430.436082 
L 156.574589 431.166895 
L 155.465812 431.814739 
L 154.460728 432.437347 
L 153.533246 433.036906 
L 152.660641 433.576487 
L 151.860605 434.087776 
L 151.106531 434.568916 
L 150.422383 435.012666 
L 149.776235 435.435581 
L 149.174753 435.839556 
L 148.617582 436.217103 
L 148.08607 436.563067 
L 147.591527 436.901083 
L 147.131206 437.227803 
L 146.700152 437.537227 
L 146.290684 437.832047 
L 145.909709 438.116703 
L 145.549374 438.386703 
L 145.204288 438.638855 
L 144.874769 438.883081 
L 144.567593 439.126011 
L 144.27528 439.34725 
L 143.992618 439.563474 
L 143.731594 439.775192 
L 143.482542 439.977585 
L 143.237869 440.176349 
L 143.008063 440.379 
L 142.786712 440.555185 
L 142.580313 440.729712 
L 142.371817 440.897679 
L 142.181742 441.059623 
L 141.998906 441.21154 
L 141.820788 441.369407 
L 141.648652 441.520162 
L 141.483445 441.662424 
L 141.325179 441.801673 
L 141.161074 441.934559 
L 141.00996 442.061015 
L 140.862889 442.18733 
L 140.716596 442.310446 
L 140.576021 442.435367 
L 140.440994 442.554197 
L 140.308063 442.669584 
L 140.184893 442.785409 
L 140.065106 442.892336 
L 139.947586 442.998589 
L 139.832139 443.106813 
L 139.718105 443.206772 
L 139.605048 443.305339 
L 139.496124 443.402307 
L 139.391327 443.496437 
L 139.288977 443.58609 
L 139.188034 443.683703 
L 139.092478 443.775527 
L 138.998324 443.86353 
L 138.907374 443.949883 
L 138.814769 444.029092 
L 138.724865 444.110824 
L 138.639004 444.191732 
L 138.554752 444.26866 
L 138.472075 444.349858 
L 138.393018 444.424146 
L 138.31893 444.502875 
L 138.239722 444.581328 
L 138.164061 444.656904 
L 138.09391 444.726755 
L 138.024356 444.803518 
L 137.949154 444.878608 
L 137.877215 444.946312 
L 137.80504 445.016103 
L 137.736054 445.086765 
L 137.671699 445.158264 
L 137.607129 445.23601 
L 137.537424 445.313033 
L 137.471529 445.380877 
" style="fill:none;stroke:#ff7f0e;stroke-linecap:square;stroke-width:1.5;"/>
   </g>
   <g id="line2d_16">
    <path clip-path="url(#p84456fcdcd)" d="M 972 60.48 
L 971.682479 65.997791 
L 971.362748 71.386519 
L 970.995146 76.706057 
L 970.660074 82.14739 
L 970.326181 87.15712 
L 969.901726 92.172417 
L 969.490193 97.060022 
L 969.086814 101.460665 
L 968.666966 105.69358 
L 968.198843 110.348463 
L 967.755177 114.695844 
L 967.296636 119.007453 
L 966.776867 123.262247 
L 966.265027 127.27811 
L 965.774386 131.26829 
L 965.224894 135.08131 
L 964.663734 138.904411 
L 964.11532 142.496189 
L 963.534824 146.195092 
L 962.917172 149.673925 
L 962.303906 152.759221 
L 961.588134 156.170311 
L 960.919014 159.542108 
L 960.293514 162.497499 
L 959.587435 165.6375 
L 958.999971 168.680894 
L 958.369442 171.54309 
L 957.634035 174.390284 
L 956.894794 177.172383 
L 956.128849 179.772586 
L 955.351911 182.398034 
L 954.524409 185.082676 
L 953.685612 187.580633 
L 952.860521 189.974586 
L 952.099096 192.403852 
L 951.314057 194.604234 
L 950.546898 196.663909 
L 949.721571 198.868506 
L 948.850933 201.0687 
L 947.940643 203.318781 
L 947.129534 205.342717 
L 946.277653 207.411596 
L 945.419488 209.444246 
L 944.513336 211.42934 
L 943.663791 213.330535 
L 942.69454 215.362852 
L 941.791589 217.261919 
L 940.776745 219.123965 
L 939.809357 220.797703 
L 938.876234 222.650242 
L 937.898984 224.503905 
L 936.938335 226.278152 
L 935.918553 228.072163 
L 934.936085 230.004682 
L 933.831969 231.723264 
L 932.744828 233.495854 
L 931.685009 235.089987 
L 930.581825 236.814469 
L 929.46211 238.499563 
L 928.281487 240.218031 
L 927.024509 241.884837 
L 925.686247 243.466488 
L 924.361604 245.212157 
L 922.95755 246.883729 
L 921.688568 248.498665 
L 920.303178 250.081929 
L 918.915917 251.79028 
L 917.481069 253.4171 
L 916.15945 254.978305 
L 914.636342 256.648424 
L 913.061736 258.391931 
L 911.594106 260.139469 
L 909.832157 261.792623 
L 908.257811 263.43966 
L 906.434009 265.121225 
L 904.691517 266.879971 
L 902.952656 268.55103 
L 901.189896 270.3733 
L 899.334087 272.13405 
L 897.352674 273.944849 
L 895.361721 275.807303 
L 893.279891 277.603943 
L 891.212003 279.441968 
L 889.260712 281.269091 
L 887.102759 283.094615 
L 884.897417 285.048601 
L 882.692671 286.945598 
L 880.561487 288.942307 
L 878.302151 290.88251 
L 876.058401 292.881931 
L 873.720868 294.871713 
L 871.227267 297.004026 
L 868.630301 299.08428 
L 866.140585 301.230573 
L 863.569314 303.278794 
L 860.972729 305.473968 
L 858.251114 307.652198 
L 855.427392 309.938806 
L 852.393044 312.196796 
L 849.266996 314.372914 
" style="fill:none;stroke:#2ca02c;stroke-linecap:square;stroke-width:1.5;"/>
   </g>
   <g id="line2d_17">
    <path clip-path="url(#p84456fcdcd)" d="M 972 60.48 
L 971.915745 63.839412 
L 971.836665 67.150567 
L 971.737938 70.446627 
L 971.632234 73.822019 
L 971.540141 76.997242 
L 971.421775 80.218523 
L 971.302495 83.381872 
L 971.191431 86.250598 
L 971.09094 89.036504 
L 970.952486 92.124299 
L 970.828467 95.052591 
L 970.701751 97.976106 
L 970.547971 100.880086 
L 970.42603 103.643263 
L 970.27353 106.425662 
L 970.111271 109.123686 
L 969.958467 111.840154 
L 969.81243 114.407587 
L 969.643615 117.047498 
L 969.447757 119.598763 
L 969.274649 121.842103 
L 969.059924 124.379713 
L 968.881864 126.90922 
L 968.71985 129.123195 
L 968.52771 131.4652 
L 968.318518 133.785103 
L 968.130756 135.971055 
L 967.903002 138.154598 
L 967.686185 140.300537 
L 967.461942 142.308334 
L 967.238337 144.37905 
L 967.002402 146.506478 
L 966.753664 148.524113 
L 966.516851 150.461744 
L 966.280603 152.437086 
L 966.051916 154.249867 
L 965.793842 155.958282 
L 965.559274 157.790176 
L 965.286727 159.603764 
L 964.987221 161.478937 
L 964.751266 163.172822 
L 964.477947 164.931156 
L 964.182407 166.667678 
L 963.843994 168.368105 
L 963.550419 169.994679 
L 963.233064 171.738134 
L 962.930515 173.391759 
L 962.59675 175.004004 
L 962.243573 176.46478 
L 961.920254 178.083469 
L 961.574993 179.70114 
L 961.264714 181.241839 
L 960.888979 182.862715 
L 960.541896 184.558088 
L 960.138072 186.141171 
L 959.744802 187.762538 
L 959.318112 189.249116 
L 958.950256 190.809549 
L 958.547546 192.341239 
L 958.072642 193.935936 
L 957.637025 195.504666 
L 957.108005 197.02984 
L 956.61416 198.668239 
L 956.082683 200.319808 
L 955.573032 201.842104 
L 955.003058 203.361965 
L 954.463681 204.997791 
L 953.900748 206.555888 
L 953.330855 208.098219 
L 952.711641 209.805109 
L 952.023425 211.563262 
L 951.41868 213.288635 
L 950.619228 215.001602 
L 949.976672 216.712156 
L 949.20456 218.398221 
L 948.470774 220.213183 
L 947.679192 221.92647 
L 946.885449 223.825637 
L 945.999074 225.695627 
L 945.087157 227.621867 
L 944.116542 229.577335 
L 943.120234 231.553367 
L 942.119961 233.545374 
L 941.206212 235.50564 
L 940.194062 237.486577 
L 939.063508 239.597873 
L 938.016748 241.657515 
L 936.937887 243.81684 
L 935.803456 245.935261 
L 934.720885 248.197975 
L 933.501194 250.37043 
L 932.285363 252.755527 
L 931.033441 255.101646 
L 929.78662 257.501794 
L 928.469743 259.769059 
L 927.243387 262.293838 
L 925.830099 264.72804 
L 924.380302 267.307169 
L 922.876523 269.899918 
L 921.237862 272.431142 
" style="fill:none;stroke:#d62728;stroke-linecap:square;stroke-width:1.5;"/>
   </g>
   <g id="line2d_18">
    <path clip-path="url(#p84456fcdcd)" d="M 972 60.48 
L 801.724862 119.653335 
L 686.219803 163.420559 
L 602.532 196.922033 
L 539.143173 223.652706 
L 489.558051 245.428908 
L 449.755517 263.612185 
L 417.100158 278.64093 
L 389.88585 291.854554 
L 366.84006 302.990335 
L 347.133795 312.757132 
L 330.088495 321.434468 
L 315.186282 329.087883 
L 302.073284 335.877608 
L 290.492842 342.086199 
L 280.106463 347.588478 
L 270.834215 352.644491 
L 262.426417 357.263034 
L 254.887849 361.53628 
L 247.994588 365.404255 
L 241.717868 369.001235 
L 235.980802 372.314386 
L 230.710444 375.377106 
L 225.856131 378.253436 
L 221.365902 380.948091 
L 217.22988 383.453562 
L 213.397234 385.787883 
L 209.834919 387.938967 
L 206.536556 389.982229 
L 203.448532 391.925584 
L 200.540043 393.741705 
L 197.844947 395.483571 
L 195.275187 397.123675 
L 192.903859 398.665778 
L 190.654307 400.121477 
L 188.528663 401.499821 
L 186.55132 402.81577 
L 184.663223 404.060807 
L 182.883188 405.257739 
L 181.213809 406.407547 
L 179.610113 407.498169 
L 178.076831 408.555642 
L 176.632096 409.571589 
L 175.259755 410.539572 
L 173.946819 411.466632 
L 172.688806 412.365615 
L 171.507406 413.234199 
L 170.358518 414.047321 
L 169.266566 414.861756 
L 168.223814 415.623833 
L 167.202811 416.364557 
L 166.232811 417.086454 
L 165.305254 417.786958 
L 164.403894 418.450065 
L 163.548974 419.113224 
L 162.721663 419.740839 
L 161.932735 420.351898 
L 161.155318 420.944581 
L 160.39793 421.518816 
L 159.690872 422.079032 
L 158.99486 422.628164 
L 158.328404 423.167005 
L 157.667421 423.683747 
L 157.038565 424.172285 
L 156.42712 424.676443 
L 155.826596 425.147746 
L 155.249444 425.618345 
L 154.689057 426.083323 
L 154.153742 426.525593 
L 153.635665 426.960858 
L 153.131306 427.393706 
L 152.64168 427.821652 
L 152.171542 428.242413 
L 151.705248 428.648841 
L 151.247465 429.041438 
L 150.809154 429.426091 
L 150.380652 429.804566 
L 149.972946 430.170525 
L 149.578514 430.553085 
L 149.189914 430.919539 
L 148.809092 431.283777 
L 148.436704 431.633992 
L 148.076319 431.976574 
L 147.724511 432.313361 
L 147.390283 432.641129 
L 147.056661 432.966291 
L 146.732924 433.289032 
L 146.416819 433.598915 
L 146.111365 433.912034 
L 145.809739 434.205101 
L 145.517925 434.518751 
L 145.23373 434.804157 
L 144.945645 435.101377 
L 144.665579 435.394856 
L 144.396184 435.67585 
L 144.129159 435.948715 
L 143.871058 436.228923 
L 143.620682 436.502604 
L 143.377915 436.78066 
L 143.131031 437.064559 
L 142.89357 437.330817 
" style="fill:none;stroke:#9467bd;stroke-linecap:square;stroke-width:1.5;"/>
   </g>
   <g id="line2d_19">
    <path clip-path="url(#p84456fcdcd)" d="M 972 60.48 
L 909.916021 72.801498 
L 854.681733 84.401225 
L 805.290037 95.482608 
L 761.081361 106.093127 
L 721.263555 116.081036 
L 684.907431 125.50295 
L 651.889102 134.41164 
L 621.995069 143.02176 
L 594.404257 151.059541 
L 569.171918 158.852216 
L 545.993867 166.350277 
L 524.487555 173.553851 
L 504.650735 180.330905 
L 486.282484 186.796967 
L 469.147941 193.027079 
L 453.256335 199.074907 
L 438.373605 204.866232 
L 424.571392 210.465869 
L 411.641648 215.80689 
L 399.505798 220.966113 
L 388.178981 225.877546 
L 377.563354 230.611436 
L 367.55693 235.271051 
L 358.096623 239.684527 
L 349.207196 243.942679 
L 340.807422 248.0554 
L 332.881862 251.93563 
L 325.405517 255.741754 
L 318.337683 259.439264 
L 311.575334 262.962311 
L 305.249443 266.386995 
L 299.160729 269.744165 
L 293.445975 272.924588 
L 287.963899 276.035073 
L 282.761648 278.979033 
L 277.828393 281.921527 
L 273.079358 284.651633 
L 268.578643 287.329046 
L 264.317108 290.023076 
L 260.178907 292.647551 
L 256.211063 295.160118 
L 252.444574 297.618055 
L 248.835948 300.003721 
L 245.358263 302.352482 
L 242.036412 304.642708 
L 238.873981 306.877103 
L 235.788653 309.031205 
L 232.838038 311.18123 
L 230.002811 313.174604 
L 227.227408 315.185122 
L 224.566455 317.194533 
L 222.016093 319.127874 
L 219.553524 321.03675 
L 217.195468 322.925261 
L 214.894596 324.769878 
L 212.679055 326.613182 
L 210.518237 328.424154 
L 208.399303 330.190171 
L 206.400806 331.901552 
L 204.438003 333.603185 
L 202.553486 335.277633 
L 200.681042 336.926464 
L 198.895833 338.531627 
L 197.161459 340.182993 
L 195.451947 341.741171 
L 193.809296 343.322209 
L 192.219384 344.905687 
L 190.687356 346.415804 
L 189.187824 347.911148 
L 187.741439 349.435545 
L 186.336591 350.99023 
L 184.994428 352.510682 
L 183.646648 353.987234 
L 182.348844 355.403516 
L 181.083507 356.817039 
L 179.85429 358.240264 
L 178.666299 359.624601 
L 177.511031 361.073155 
L 176.383292 362.529389 
L 175.274812 363.936914 
L 174.205968 365.310129 
L 173.155474 366.686139 
L 172.137563 368.060917 
L 171.163391 369.403144 
L 170.189066 370.727356 
L 169.244417 372.080653 
L 168.33493 373.377698 
L 167.440909 374.697775 
L 166.566115 375.951854 
L 165.715324 377.27475 
L 164.874256 378.509723 
L 164.032943 379.809688 
L 163.215443 381.092689 
L 162.426764 382.322528 
L 161.643916 383.551214 
L 160.892037 384.823828 
L 160.160767 386.054305 
L 159.442688 387.324384 
L 158.713638 388.616344 
L 158.016292 389.839646 
" style="fill:none;stroke:#8c564b;stroke-linecap:square;stroke-width:1.5;"/>
   </g>
   <g id="line2d_20">
    <path clip-path="url(#p84456fcdcd)" d="M 972 60.48 
L 971.968132 61.998525 
L 971.936514 63.514008 
L 971.897448 65.038943 
L 971.857721 66.61303 
L 971.822337 68.113347 
L 971.774561 69.654861 
L 971.727274 71.183129 
L 971.681315 72.582077 
L 971.6414 73.956243 
L 971.588868 75.494002 
L 971.541783 76.966376 
L 971.492059 78.454112 
L 971.431169 79.945651 
L 971.384428 81.377461 
L 971.326107 82.827591 
L 971.259315 84.254615 
L 971.199035 85.697538 
L 971.142635 87.066254 
L 971.076275 88.496572 
L 971.002456 89.890747 
L 970.933173 91.134041 
L 970.843983 92.555162 
L 970.770946 93.981488 
L 970.703683 95.239029 
L 970.62684 96.560807 
L 970.544054 97.907873 
L 970.467025 99.186734 
L 970.37179 100.478932 
L 970.281553 101.758577 
L 970.190793 102.969867 
L 970.095686 104.231522 
L 969.99626 105.529005 
L 969.890455 106.784729 
L 969.787164 107.999405 
L 969.685847 109.241869 
L 969.590079 110.394109 
L 969.480631 111.493671 
L 969.37658 112.676228 
L 969.258367 113.864368 
L 969.130777 115.0909 
L 969.024769 116.213417 
L 968.900422 117.374653 
L 968.76984 118.535451 
L 968.617241 119.679999 
L 968.483407 120.818929 
L 968.335687 121.998422 
L 968.197047 123.144879 
L 968.042702 124.287455 
L 967.877971 125.311145 
L 967.725981 126.469043 
L 967.562343 127.611152 
L 967.411026 128.705569 
L 967.231399 129.877212 
L 967.063477 131.093263 
L 966.87888 132.26947 
L 966.685459 133.453046 
L 966.487249 134.574993 
L 966.307896 135.757102 
L 966.106455 136.894497 
L 965.875347 138.091374 
L 965.653523 139.275682 
L 965.390406 140.430165 
L 965.141409 141.715253 
L 964.875532 142.949824 
L 964.618208 144.124776 
L 964.333579 145.317827 
L 964.062703 146.58145 
L 963.774344 147.830921 
L 963.482175 149.020692 
L 963.159701 150.350319 
L 962.811614 151.763256 
L 962.499946 153.164336 
L 962.090137 154.553171 
L 961.757521 155.929595 
L 961.351431 157.344906 
L 960.967153 158.853231 
L 960.548012 160.288873 
L 960.124111 161.871669 
L 959.654807 163.482413 
L 959.168912 165.118942 
L 958.665874 166.775571 
L 958.135619 168.492521 
L 957.608091 170.227259 
L 957.106802 171.975009 
L 956.546587 173.764571 
L 955.928059 175.649205 
L 955.359272 177.490783 
L 954.760511 179.482603 
L 954.133371 181.415511 
L 953.537022 183.480606 
L 952.85083 185.515126 
L 952.161955 187.759516 
L 951.457955 189.90825 
L 950.745247 192.227897 
L 950.001413 194.470837 
L 949.3085 196.921974 
L 948.494398 199.324812 
L 947.653892 201.869187 
L 946.802105 204.468932 
L 945.843049 207.077204 
" style="fill:none;stroke:#e377c2;stroke-linecap:square;stroke-width:1.5;"/>
   </g>
   <g id="line2d_21">
    <path clip-path="url(#p84456fcdcd)" d="M 972 60.48 
L 905.285922 74.347594 
L 846.75805 87.272289 
L 794.675628 99.349742 
L 748.151101 110.918015 
L 706.701788 121.8748 
L 669.191292 132.203307 
L 635.440423 141.804433 
L 604.791517 151.131949 
L 576.799207 159.725491 
L 551.255735 167.973312 
L 527.875253 175.953092 
L 506.354546 183.570361 
L 486.485043 190.759896 
L 468.161189 197.701397 
L 451.141474 204.200983 
L 435.377624 210.528172 
L 420.651036 216.54553 
L 407.023828 222.302774 
L 394.304834 227.848576 
L 382.416766 233.191009 
L 371.30882 238.234368 
L 360.878776 243.084053 
L 351.070794 247.817859 
L 341.850639 252.369721 
L 333.2177 256.693817 
L 325.091005 260.902797 
L 317.395726 264.87052 
L 310.191907 268.712887 
L 303.371803 272.487726 
L 296.874835 276.049398 
L 290.808987 279.561401 
L 284.991385 282.930307 
L 279.518119 286.175718 
L 274.295755 289.283239 
L 269.368739 292.27016 
L 264.707963 295.18689 
L 260.221476 297.930302 
L 255.975041 300.595004 
L 251.94471 303.288599 
L 248.073546 305.850466 
L 244.374622 308.312645 
L 240.845355 310.716481 
L 237.494971 313.026248 
L 234.288363 315.31392 
L 231.18975 317.536275 
L 228.264608 319.725731 
L 225.422043 321.82524 
L 222.709233 323.922803 
L 220.101605 325.913186 
L 217.562401 327.889754 
L 215.133416 329.83336 
L 212.797861 331.755954 
L 210.541727 333.596085 
L 208.37709 335.429946 
L 206.297187 337.232884 
L 204.282879 338.990565 
L 202.326327 340.726309 
L 200.407438 342.409596 
L 198.582329 344.052544 
L 196.806948 345.68938 
L 195.101587 347.288219 
L 193.42685 348.875229 
L 191.837021 350.397529 
L 190.291693 351.940415 
L 188.761845 353.431717 
L 187.302491 354.903149 
L 185.892615 356.361994 
L 184.522006 357.786992 
L 183.18363 359.176592 
L 181.899243 360.59177 
L 180.655342 362.018795 
L 179.460199 363.431632 
L 178.268647 364.797431 
L 177.112757 366.122438 
L 175.994757 367.447798 
L 174.907224 368.77512 
L 173.846919 370.063482 
L 172.819626 371.405409 
L 171.82103 372.725338 
L 170.848458 374.019977 
L 169.907726 375.28282 
L 168.983567 376.523327 
L 168.088814 377.773871 
L 167.228954 378.993965 
L 166.36834 380.21241 
L 165.535151 381.424387 
L 164.737296 382.612154 
L 163.948322 383.8177 
L 163.16989 384.959714 
L 162.415237 386.161956 
L 161.675907 387.286395 
L 160.938587 388.450484 
L 160.224351 389.593802 
L 159.530122 390.727959 
L 158.845552 391.842258 
L 158.182833 392.983221 
L 157.533817 394.086878 
L 156.892171 395.218215 
L 156.243967 396.371703 
L 155.627601 397.472127 
" style="fill:none;stroke:#7f7f7f;stroke-linecap:square;stroke-width:1.5;"/>
   </g>
   <g id="line2d_22">
    <path clip-path="url(#p84456fcdcd)" d="M 972 60.48 
L 890.167737 91.409302 
L 820.837693 118.078118 
L 761.230404 141.046173 
L 709.511609 161.259288 
L 664.284253 179.194754 
L 624.363866 195.289981 
L 588.990888 209.400809 
L 557.463809 222.548196 
L 529.18449 234.171296 
L 503.670173 244.77681 
L 480.609026 254.556137 
L 459.63002 263.484847 
L 440.491225 271.626001 
L 423.050493 279.326359 
L 406.974528 286.272216 
L 392.213493 292.855976 
L 378.52063 298.990968 
L 365.950402 304.727297 
L 354.296829 310.01407 
L 343.477339 315.039297 
L 333.417434 319.72621 
L 324.01892 324.140694 
L 315.228922 328.342213 
L 307.022242 332.299275 
L 299.379241 336.042667 
L 292.208768 339.601339 
L 285.467254 342.911233 
L 279.156992 346.091873 
L 273.224177 349.117372 
L 267.615084 351.970505 
L 262.372365 354.726798 
L 257.364451 357.359147 
L 252.661123 359.855653 
L 248.208943 362.222201 
L 244.019763 364.48084 
L 240.068737 366.646935 
L 236.276699 368.712994 
L 232.697482 370.689756 
L 229.3139 372.620839 
L 226.063492 374.462777 
L 222.969603 376.234913 
L 220.032148 377.953194 
L 217.243407 379.594773 
L 214.57855 381.181526 
L 212.022025 382.727625 
L 209.610404 384.213384 
L 207.265547 385.627599 
L 205.029734 387.031517 
L 202.894593 388.363298 
L 200.817804 389.662911 
L 198.83536 390.920737 
L 196.936232 392.15229 
L 195.101288 393.330574 
L 193.338129 394.491354 
L 191.655709 395.606344 
L 190.028938 396.688867 
L 188.445931 397.750097 
L 186.90004 398.785261 
L 185.430504 399.784505 
L 184.000005 400.769032 
L 182.629924 401.721497 
L 181.29059 402.650995 
L 180.01952 403.535176 
L 178.785031 404.417301 
L 177.567397 405.269889 
L 176.41029 406.108188 
L 175.28892 406.926144 
L 174.197264 407.722462 
L 173.137153 408.487702 
L 172.117959 409.262223 
L 171.132094 410.03767 
L 170.188051 410.803184 
L 169.246024 411.541606 
L 168.331652 412.256081 
L 167.451428 412.960456 
L 166.591743 413.650548 
L 165.757655 414.323614 
L 164.95322 415.012871 
L 164.167121 415.688842 
L 163.407775 416.347438 
L 162.665641 416.985418 
L 161.941513 417.604471 
L 161.236614 418.227017 
L 160.559109 418.833253 
L 159.880423 419.433663 
L 159.226085 420.033179 
L 158.596847 420.612857 
L 157.975266 421.193488 
L 157.360996 421.74426 
L 156.764288 422.317054 
L 156.182771 422.852364 
L 155.601901 423.410486 
L 155.03865 423.950388 
L 154.488675 424.48608 
L 153.947896 425.004432 
L 153.419465 425.534311 
L 152.90356 426.048693 
L 152.395289 426.574047 
L 151.882401 427.108025 
L 151.391959 427.617532 
" style="fill:none;stroke:#bcbd22;stroke-linecap:square;stroke-width:1.5;"/>
   </g>
   <g id="line2d_23">
    <path clip-path="url(#p84456fcdcd)" d="M 972 60.48 
L 913.856048 80.606745 
L 861.737621 98.7793 
L 814.536571 115.455767 
L 771.721738 130.656143 
L 732.71069 144.809183 
L 697.017061 157.931478 
L 664.308281 169.76968 
L 634.351508 181.303339 
L 606.728981 191.676849 
L 581.135001 201.391501 
L 557.516112 210.596302 
L 535.584561 219.256693 
L 515.20156 227.276022 
L 496.288426 234.991013 
L 478.594122 242.079772 
L 462.08726 248.868242 
L 446.586901 255.284221 
L 432.187628 261.338879 
L 418.67544 267.037619 
L 406.006607 272.575236 
L 394.083473 277.759738 
L 382.858698 282.683254 
L 372.258477 287.431986 
L 362.280237 291.927949 
L 352.928572 296.22087 
L 344.086413 300.365656 
L 335.711723 304.21382 
L 327.825844 307.975962 
L 320.363318 311.574012 
L 313.282789 314.999081 
L 306.607415 318.327668 
L 300.224347 321.529316 
L 294.200059 324.578052 
L 288.46116 327.494142 
L 283.032766 330.307733 
L 277.894979 333.034571 
L 272.959572 335.62237 
L 268.285552 338.119455 
L 263.845047 340.578458 
L 259.571585 342.915986 
L 255.512228 345.189707 
L 251.631111 347.40596 
L 247.942661 349.512969 
L 244.407443 351.586435 
L 241.01143 353.602498 
L 237.787179 355.555065 
L 234.652316 357.399178 
L 231.656589 359.249135 
L 228.797031 361.016894 
L 226.011679 362.743165 
L 223.349022 364.400257 
L 220.804017 366.035 
L 218.333708 367.606009 
L 215.956238 369.165822 
L 213.691113 370.669117 
L 211.492729 372.139516 
L 209.352033 373.577445 
L 207.269943 374.979365 
L 205.283331 376.344516 
L 203.343381 377.689827 
L 201.47973 378.99539 
L 199.665288 380.270312 
L 197.933531 381.489006 
L 196.254797 382.701195 
L 194.605131 383.881873 
L 193.02509 385.049968 
L 191.490992 386.191851 
L 189.998088 387.306375 
L 188.557596 388.377984 
L 187.16655 389.464156 
L 185.818149 390.548267 
L 184.528133 391.616561 
L 183.24128 392.662944 
L 181.981234 393.666706 
L 180.773807 394.665396 
L 179.601884 395.646428 
L 178.468258 396.602388 
L 177.361946 397.581921 
L 176.278144 398.542335 
L 175.233106 399.487295 
L 174.212181 400.399159 
L 173.217292 401.288891 
L 172.248129 402.187919 
L 171.310638 403.062884 
L 170.371132 403.93183 
L 169.469236 404.807333 
L 168.595336 405.653576 
L 167.730644 406.502477 
L 166.877971 407.310623 
L 166.042976 408.151683 
L 165.235303 408.946697 
L 164.423968 409.769479 
L 163.63333 410.572634 
L 162.857449 411.369093 
L 162.094312 412.136608 
L 161.350006 412.925106 
L 160.619979 413.699248 
L 159.900867 414.48729 
L 159.174405 415.285785 
L 158.476143 416.05274 
" style="fill:none;stroke:#17becf;stroke-linecap:square;stroke-width:1.5;"/>
   </g>
   <g id="patch_3">
    <path d="M 135 448.56 
L 135 60.48 
" style="fill:none;stroke:#000000;stroke-linecap:square;stroke-linejoin:miter;stroke-width:0.8;"/>
   </g>
   <g id="patch_4">
    <path d="M 972 448.56 
L 972 60.48 
" style="fill:none;stroke:#000000;stroke-linecap:square;stroke-linejoin:miter;stroke-width:0.8;"/>
   </g>
   <g id="patch_5">
    <path d="M 135 448.56 
L 972 448.56 
" style="fill:none;stroke:#000000;stroke-linecap:square;stroke-linejoin:miter;stroke-width:0.8;"/>
   </g>
   <g id="patch_6">
    <path d="M 135 60.48 
L 972 60.48 
" style="fill:none;stroke:#000000;stroke-linecap:square;stroke-linejoin:miter;stroke-width:0.8;"/>
   </g>
   <g id="legend_1">
    <g id="patch_7">
     <path d="M 498.934687 439.56 
L 608.065313 439.56 
Q 611.665313 439.56 611.665313 435.96 
L 611.665313 173.55375 
Q 611.665313 169.95375 608.065313 169.95375 
L 498.934687 169.95375 
Q 495.334687 169.95375 495.334687 173.55375 
L 495.334687 435.96 
Q 495.334687 439.56 498.934687 439.56 
z
" style="fill:#ffffff;opacity:0.8;stroke:#cccccc;stroke-linejoin:miter;"/>
    </g>
    <g id="line2d_24">
     <path d="M 502.534687 184.530938 
L 538.534688 184.530938 
" style="fill:none;stroke:#1f77b4;stroke-linecap:square;stroke-width:1.5;"/>
    </g>
    <g id="line2d_25"/>
    <g id="text_15">
     <!-- 0.001 -->
     <g transform="translate(552.934687 190.830938)scale(0.18 -0.18)">
      <use xlink:href="#DejaVuSans-30"/>
      <use x="63.623047" xlink:href="#DejaVuSans-2e"/>
      <use x="95.410156" xlink:href="#DejaVuSans-30"/>
      <use x="159.033203" xlink:href="#DejaVuSans-30"/>
      <use x="222.65625" xlink:href="#DejaVuSans-31"/>
     </g>
    </g>
    <g id="line2d_26">
     <path d="M 502.534687 210.951563 
L 538.534688 210.951563 
" style="fill:none;stroke:#ff7f0e;stroke-linecap:square;stroke-width:1.5;"/>
    </g>
    <g id="line2d_27"/>
    <g id="text_16">
     <!-- 0.011 -->
     <g transform="translate(552.934687 217.251563)scale(0.18 -0.18)">
      <use xlink:href="#DejaVuSans-30"/>
      <use x="63.623047" xlink:href="#DejaVuSans-2e"/>
      <use x="95.410156" xlink:href="#DejaVuSans-30"/>
      <use x="159.033203" xlink:href="#DejaVuSans-31"/>
      <use x="222.65625" xlink:href="#DejaVuSans-31"/>
     </g>
    </g>
    <g id="line2d_28">
     <path d="M 502.534687 237.372188 
L 538.534688 237.372188 
" style="fill:none;stroke:#2ca02c;stroke-linecap:square;stroke-width:1.5;"/>
    </g>
    <g id="line2d_29"/>
    <g id="text_17">
     <!-- 0.021 -->
     <g transform="translate(552.934687 243.672188)scale(0.18 -0.18)">
      <use xlink:href="#DejaVuSans-30"/>
      <use x="63.623047" xlink:href="#DejaVuSans-2e"/>
      <use x="95.410156" xlink:href="#DejaVuSans-30"/>
      <use x="159.033203" xlink:href="#DejaVuSans-32"/>
      <use x="222.65625" xlink:href="#DejaVuSans-31"/>
     </g>
    </g>
    <g id="line2d_30">
     <path d="M 502.534687 263.792813 
L 538.534688 263.792813 
" style="fill:none;stroke:#d62728;stroke-linecap:square;stroke-width:1.5;"/>
    </g>
    <g id="line2d_31"/>
    <g id="text_18">
     <!-- 0.031 -->
     <g transform="translate(552.934687 270.092813)scale(0.18 -0.18)">
      <defs>
       <path d="M 2597 2516 
Q 3050 2419 3304 2112 
Q 3559 1806 3559 1356 
Q 3559 666 3084 287 
Q 2609 -91 1734 -91 
Q 1441 -91 1130 -33 
Q 819 25 488 141 
L 488 750 
Q 750 597 1062 519 
Q 1375 441 1716 441 
Q 2309 441 2620 675 
Q 2931 909 2931 1356 
Q 2931 1769 2642 2001 
Q 2353 2234 1838 2234 
L 1294 2234 
L 1294 2753 
L 1863 2753 
Q 2328 2753 2575 2939 
Q 2822 3125 2822 3475 
Q 2822 3834 2567 4026 
Q 2313 4219 1838 4219 
Q 1578 4219 1281 4162 
Q 984 4106 628 3988 
L 628 4550 
Q 988 4650 1302 4700 
Q 1616 4750 1894 4750 
Q 2613 4750 3031 4423 
Q 3450 4097 3450 3541 
Q 3450 3153 3228 2886 
Q 3006 2619 2597 2516 
z
" id="DejaVuSans-33" transform="scale(0.015625)"/>
      </defs>
      <use xlink:href="#DejaVuSans-30"/>
      <use x="63.623047" xlink:href="#DejaVuSans-2e"/>
      <use x="95.410156" xlink:href="#DejaVuSans-30"/>
      <use x="159.033203" xlink:href="#DejaVuSans-33"/>
      <use x="222.65625" xlink:href="#DejaVuSans-31"/>
     </g>
    </g>
    <g id="line2d_32">
     <path d="M 502.534687 290.213438 
L 538.534688 290.213438 
" style="fill:none;stroke:#9467bd;stroke-linecap:square;stroke-width:1.5;"/>
    </g>
    <g id="line2d_33"/>
    <g id="text_19">
     <!-- 0.041 -->
     <g transform="translate(552.934687 296.513438)scale(0.18 -0.18)">
      <use xlink:href="#DejaVuSans-30"/>
      <use x="63.623047" xlink:href="#DejaVuSans-2e"/>
      <use x="95.410156" xlink:href="#DejaVuSans-30"/>
      <use x="159.033203" xlink:href="#DejaVuSans-34"/>
      <use x="222.65625" xlink:href="#DejaVuSans-31"/>
     </g>
    </g>
    <g id="line2d_34">
     <path d="M 502.534687 316.634063 
L 538.534688 316.634063 
" style="fill:none;stroke:#8c564b;stroke-linecap:square;stroke-width:1.5;"/>
    </g>
    <g id="line2d_35"/>
    <g id="text_20">
     <!-- 0.051 -->
     <g transform="translate(552.934687 322.934063)scale(0.18 -0.18)">
      <defs>
       <path d="M 691 4666 
L 3169 4666 
L 3169 4134 
L 1269 4134 
L 1269 2991 
Q 1406 3038 1543 3061 
Q 1681 3084 1819 3084 
Q 2600 3084 3056 2656 
Q 3513 2228 3513 1497 
Q 3513 744 3044 326 
Q 2575 -91 1722 -91 
Q 1428 -91 1123 -41 
Q 819 9 494 109 
L 494 744 
Q 775 591 1075 516 
Q 1375 441 1709 441 
Q 2250 441 2565 725 
Q 2881 1009 2881 1497 
Q 2881 1984 2565 2268 
Q 2250 2553 1709 2553 
Q 1456 2553 1204 2497 
Q 953 2441 691 2322 
L 691 4666 
z
" id="DejaVuSans-35" transform="scale(0.015625)"/>
      </defs>
      <use xlink:href="#DejaVuSans-30"/>
      <use x="63.623047" xlink:href="#DejaVuSans-2e"/>
      <use x="95.410156" xlink:href="#DejaVuSans-30"/>
      <use x="159.033203" xlink:href="#DejaVuSans-35"/>
      <use x="222.65625" xlink:href="#DejaVuSans-31"/>
     </g>
    </g>
    <g id="line2d_36">
     <path d="M 502.534687 343.054688 
L 538.534688 343.054688 
" style="fill:none;stroke:#e377c2;stroke-linecap:square;stroke-width:1.5;"/>
    </g>
    <g id="line2d_37"/>
    <g id="text_21">
     <!-- 0.061 -->
     <g transform="translate(552.934687 349.354688)scale(0.18 -0.18)">
      <use xlink:href="#DejaVuSans-30"/>
      <use x="63.623047" xlink:href="#DejaVuSans-2e"/>
      <use x="95.410156" xlink:href="#DejaVuSans-30"/>
      <use x="159.033203" xlink:href="#DejaVuSans-36"/>
      <use x="222.65625" xlink:href="#DejaVuSans-31"/>
     </g>
    </g>
    <g id="line2d_38">
     <path d="M 502.534687 369.475313 
L 538.534688 369.475313 
" style="fill:none;stroke:#7f7f7f;stroke-linecap:square;stroke-width:1.5;"/>
    </g>
    <g id="line2d_39"/>
    <g id="text_22">
     <!-- 0.071 -->
     <g transform="translate(552.934687 375.775313)scale(0.18 -0.18)">
      <defs>
       <path d="M 525 4666 
L 3525 4666 
L 3525 4397 
L 1831 0 
L 1172 0 
L 2766 4134 
L 525 4134 
L 525 4666 
z
" id="DejaVuSans-37" transform="scale(0.015625)"/>
      </defs>
      <use xlink:href="#DejaVuSans-30"/>
      <use x="63.623047" xlink:href="#DejaVuSans-2e"/>
      <use x="95.410156" xlink:href="#DejaVuSans-30"/>
      <use x="159.033203" xlink:href="#DejaVuSans-37"/>
      <use x="222.65625" xlink:href="#DejaVuSans-31"/>
     </g>
    </g>
    <g id="line2d_40">
     <path d="M 502.534687 395.895938 
L 538.534688 395.895938 
" style="fill:none;stroke:#bcbd22;stroke-linecap:square;stroke-width:1.5;"/>
    </g>
    <g id="line2d_41"/>
    <g id="text_23">
     <!-- 0.081 -->
     <g transform="translate(552.934687 402.195938)scale(0.18 -0.18)">
      <use xlink:href="#DejaVuSans-30"/>
      <use x="63.623047" xlink:href="#DejaVuSans-2e"/>
      <use x="95.410156" xlink:href="#DejaVuSans-30"/>
      <use x="159.033203" xlink:href="#DejaVuSans-38"/>
      <use x="222.65625" xlink:href="#DejaVuSans-31"/>
     </g>
    </g>
    <g id="line2d_42">
     <path d="M 502.534687 422.316563 
L 538.534688 422.316563 
" style="fill:none;stroke:#17becf;stroke-linecap:square;stroke-width:1.5;"/>
    </g>
    <g id="line2d_43"/>
    <g id="text_24">
     <!-- 0.091 -->
     <g transform="translate(552.934687 428.616563)scale(0.18 -0.18)">
      <defs>
       <path d="M 703 97 
L 703 672 
Q 941 559 1184 500 
Q 1428 441 1663 441 
Q 2288 441 2617 861 
Q 2947 1281 2994 2138 
Q 2813 1869 2534 1725 
Q 2256 1581 1919 1581 
Q 1219 1581 811 2004 
Q 403 2428 403 3163 
Q 403 3881 828 4315 
Q 1253 4750 1959 4750 
Q 2769 4750 3195 4129 
Q 3622 3509 3622 2328 
Q 3622 1225 3098 567 
Q 2575 -91 1691 -91 
Q 1453 -91 1209 -44 
Q 966 3 703 97 
z
M 1959 2075 
Q 2384 2075 2632 2365 
Q 2881 2656 2881 3163 
Q 2881 3666 2632 3958 
Q 2384 4250 1959 4250 
Q 1534 4250 1286 3958 
Q 1038 3666 1038 3163 
Q 1038 2656 1286 2365 
Q 1534 2075 1959 2075 
z
" id="DejaVuSans-39" transform="scale(0.015625)"/>
      </defs>
      <use xlink:href="#DejaVuSans-30"/>
      <use x="63.623047" xlink:href="#DejaVuSans-2e"/>
      <use x="95.410156" xlink:href="#DejaVuSans-30"/>
      <use x="159.033203" xlink:href="#DejaVuSans-39"/>
      <use x="222.65625" xlink:href="#DejaVuSans-31"/>
     </g>
    </g>
   </g>
  </g>
 </g>
 <defs>
  <clipPath id="p84456fcdcd">
   <rect height="388.08" width="837" x="135" y="60.48"/>
  </clipPath>
 </defs>
</svg>
