<?xml version="1.0" encoding="utf-8" standalone="no"?>
<!DOCTYPE svg PUBLIC "-//W3C//DTD SVG 1.1//EN"
  "http://www.w3.org/Graphics/SVG/1.1/DTD/svg11.dtd">
<svg height="504pt" version="1.1" viewBox="0 0 1080 504" width="1080pt" xmlns="http://www.w3.org/2000/svg" xmlns:xlink="http://www.w3.org/1999/xlink">
 <metadata>
  <rdf:RDF xmlns:cc="http://creativecommons.org/ns#" xmlns:dc="http://purl.org/dc/elements/1.1/" xmlns:rdf="http://www.w3.org/1999/02/22-rdf-syntax-ns#">
   <cc:Work>
    <dc:type rdf:resource="http://purl.org/dc/dcmitype/StillImage"/>
    <dc:date>2022-01-07T13:24:43.546954</dc:date>
    <dc:format>image/svg+xml</dc:format>
    <dc:creator>
     <cc:Agent>
      <dc:title>Matplotlib v3.4.3, https://matplotlib.org/</dc:title>
     </cc:Agent>
    </dc:creator>
   </cc:Work>
  </rdf:RDF>
 </metadata>
 <defs>
  <style type="text/css">*{stroke-linecap:butt;stroke-linejoin:round;}</style>
 </defs>
 <g id="figure_1">
  <g id="patch_1">
   <path d="M 0 504 
L 1080 504 
L 1080 0 
L 0 0 
z
" style="fill:#ffffff;"/>
  </g>
  <g id="axes_1">
   <g id="patch_2">
    <path d="M 135 448.56 
L 972 448.56 
L 972 60.48 
L 135 60.48 
z
" style="fill:#ffffff;"/>
   </g>
   <g id="matplotlib.axis_1">
    <g id="xtick_1">
     <g id="line2d_1">
      <defs>
       <path d="M 0 0 
L 0 3.5 
" id="m7e7b8e7bdc" style="stroke:#000000;stroke-width:0.8;"/>
      </defs>
      <g>
       <use style="stroke:#000000;stroke-width:0.8;" x="135" xlink:href="#m7e7b8e7bdc" y="448.56"/>
      </g>
     </g>
     <g id="text_1">
      <!-- 0.0 -->
      <g transform="translate(120.687187 469.237188)scale(0.18 -0.18)">
       <defs>
        <path d="M 2034 4250 
Q 1547 4250 1301 3770 
Q 1056 3291 1056 2328 
Q 1056 1369 1301 889 
Q 1547 409 2034 409 
Q 2525 409 2770 889 
Q 3016 1369 3016 2328 
Q 3016 3291 2770 3770 
Q 2525 4250 2034 4250 
z
M 2034 4750 
Q 2819 4750 3233 4129 
Q 3647 3509 3647 2328 
Q 3647 1150 3233 529 
Q 2819 -91 2034 -91 
Q 1250 -91 836 529 
Q 422 1150 422 2328 
Q 422 3509 836 4129 
Q 1250 4750 2034 4750 
z
" id="DejaVuSans-30" transform="scale(0.015625)"/>
        <path d="M 684 794 
L 1344 794 
L 1344 0 
L 684 0 
L 684 794 
z
" id="DejaVuSans-2e" transform="scale(0.015625)"/>
       </defs>
       <use xlink:href="#DejaVuSans-30"/>
       <use x="63.623047" xlink:href="#DejaVuSans-2e"/>
       <use x="95.410156" xlink:href="#DejaVuSans-30"/>
      </g>
     </g>
    </g>
    <g id="xtick_2">
     <g id="line2d_2">
      <g>
       <use style="stroke:#000000;stroke-width:0.8;" x="302.4" xlink:href="#m7e7b8e7bdc" y="448.56"/>
      </g>
     </g>
     <g id="text_2">
      <!-- 0.2 -->
      <g transform="translate(288.087187 469.237188)scale(0.18 -0.18)">
       <defs>
        <path d="M 1228 531 
L 3431 531 
L 3431 0 
L 469 0 
L 469 531 
Q 828 903 1448 1529 
Q 2069 2156 2228 2338 
Q 2531 2678 2651 2914 
Q 2772 3150 2772 3378 
Q 2772 3750 2511 3984 
Q 2250 4219 1831 4219 
Q 1534 4219 1204 4116 
Q 875 4013 500 3803 
L 500 4441 
Q 881 4594 1212 4672 
Q 1544 4750 1819 4750 
Q 2544 4750 2975 4387 
Q 3406 4025 3406 3419 
Q 3406 3131 3298 2873 
Q 3191 2616 2906 2266 
Q 2828 2175 2409 1742 
Q 1991 1309 1228 531 
z
" id="DejaVuSans-32" transform="scale(0.015625)"/>
       </defs>
       <use xlink:href="#DejaVuSans-30"/>
       <use x="63.623047" xlink:href="#DejaVuSans-2e"/>
       <use x="95.410156" xlink:href="#DejaVuSans-32"/>
      </g>
     </g>
    </g>
    <g id="xtick_3">
     <g id="line2d_3">
      <g>
       <use style="stroke:#000000;stroke-width:0.8;" x="469.8" xlink:href="#m7e7b8e7bdc" y="448.56"/>
      </g>
     </g>
     <g id="text_3">
      <!-- 0.4 -->
      <g transform="translate(455.487188 469.237188)scale(0.18 -0.18)">
       <defs>
        <path d="M 2419 4116 
L 825 1625 
L 2419 1625 
L 2419 4116 
z
M 2253 4666 
L 3047 4666 
L 3047 1625 
L 3713 1625 
L 3713 1100 
L 3047 1100 
L 3047 0 
L 2419 0 
L 2419 1100 
L 313 1100 
L 313 1709 
L 2253 4666 
z
" id="DejaVuSans-34" transform="scale(0.015625)"/>
       </defs>
       <use xlink:href="#DejaVuSans-30"/>
       <use x="63.623047" xlink:href="#DejaVuSans-2e"/>
       <use x="95.410156" xlink:href="#DejaVuSans-34"/>
      </g>
     </g>
    </g>
    <g id="xtick_4">
     <g id="line2d_4">
      <g>
       <use style="stroke:#000000;stroke-width:0.8;" x="637.2" xlink:href="#m7e7b8e7bdc" y="448.56"/>
      </g>
     </g>
     <g id="text_4">
      <!-- 0.6 -->
      <g transform="translate(622.887188 469.237188)scale(0.18 -0.18)">
       <defs>
        <path d="M 2113 2584 
Q 1688 2584 1439 2293 
Q 1191 2003 1191 1497 
Q 1191 994 1439 701 
Q 1688 409 2113 409 
Q 2538 409 2786 701 
Q 3034 994 3034 1497 
Q 3034 2003 2786 2293 
Q 2538 2584 2113 2584 
z
M 3366 4563 
L 3366 3988 
Q 3128 4100 2886 4159 
Q 2644 4219 2406 4219 
Q 1781 4219 1451 3797 
Q 1122 3375 1075 2522 
Q 1259 2794 1537 2939 
Q 1816 3084 2150 3084 
Q 2853 3084 3261 2657 
Q 3669 2231 3669 1497 
Q 3669 778 3244 343 
Q 2819 -91 2113 -91 
Q 1303 -91 875 529 
Q 447 1150 447 2328 
Q 447 3434 972 4092 
Q 1497 4750 2381 4750 
Q 2619 4750 2861 4703 
Q 3103 4656 3366 4563 
z
" id="DejaVuSans-36" transform="scale(0.015625)"/>
       </defs>
       <use xlink:href="#DejaVuSans-30"/>
       <use x="63.623047" xlink:href="#DejaVuSans-2e"/>
       <use x="95.410156" xlink:href="#DejaVuSans-36"/>
      </g>
     </g>
    </g>
    <g id="xtick_5">
     <g id="line2d_5">
      <g>
       <use style="stroke:#000000;stroke-width:0.8;" x="804.6" xlink:href="#m7e7b8e7bdc" y="448.56"/>
      </g>
     </g>
     <g id="text_5">
      <!-- 0.8 -->
      <g transform="translate(790.287188 469.237188)scale(0.18 -0.18)">
       <defs>
        <path d="M 2034 2216 
Q 1584 2216 1326 1975 
Q 1069 1734 1069 1313 
Q 1069 891 1326 650 
Q 1584 409 2034 409 
Q 2484 409 2743 651 
Q 3003 894 3003 1313 
Q 3003 1734 2745 1975 
Q 2488 2216 2034 2216 
z
M 1403 2484 
Q 997 2584 770 2862 
Q 544 3141 544 3541 
Q 544 4100 942 4425 
Q 1341 4750 2034 4750 
Q 2731 4750 3128 4425 
Q 3525 4100 3525 3541 
Q 3525 3141 3298 2862 
Q 3072 2584 2669 2484 
Q 3125 2378 3379 2068 
Q 3634 1759 3634 1313 
Q 3634 634 3220 271 
Q 2806 -91 2034 -91 
Q 1263 -91 848 271 
Q 434 634 434 1313 
Q 434 1759 690 2068 
Q 947 2378 1403 2484 
z
M 1172 3481 
Q 1172 3119 1398 2916 
Q 1625 2713 2034 2713 
Q 2441 2713 2670 2916 
Q 2900 3119 2900 3481 
Q 2900 3844 2670 4047 
Q 2441 4250 2034 4250 
Q 1625 4250 1398 4047 
Q 1172 3844 1172 3481 
z
" id="DejaVuSans-38" transform="scale(0.015625)"/>
       </defs>
       <use xlink:href="#DejaVuSans-30"/>
       <use x="63.623047" xlink:href="#DejaVuSans-2e"/>
       <use x="95.410156" xlink:href="#DejaVuSans-38"/>
      </g>
     </g>
    </g>
    <g id="xtick_6">
     <g id="line2d_6">
      <g>
       <use style="stroke:#000000;stroke-width:0.8;" x="972" xlink:href="#m7e7b8e7bdc" y="448.56"/>
      </g>
     </g>
     <g id="text_6">
      <!-- 1.0 -->
      <g transform="translate(957.687188 469.237188)scale(0.18 -0.18)">
       <defs>
        <path d="M 794 531 
L 1825 531 
L 1825 4091 
L 703 3866 
L 703 4441 
L 1819 4666 
L 2450 4666 
L 2450 531 
L 3481 531 
L 3481 0 
L 794 0 
L 794 531 
z
" id="DejaVuSans-31" transform="scale(0.015625)"/>
       </defs>
       <use xlink:href="#DejaVuSans-31"/>
       <use x="63.623047" xlink:href="#DejaVuSans-2e"/>
       <use x="95.410156" xlink:href="#DejaVuSans-30"/>
      </g>
     </g>
    </g>
    <g id="text_7">
     <!-- $FPR_{Fair}$ -->
     <g transform="translate(518.08 493.697187)scale(0.22 -0.22)">
      <defs>
       <path d="M 1081 4666 
L 3756 4666 
L 3653 4134 
L 1606 4134 
L 1338 2759 
L 3188 2759 
L 3084 2228 
L 1234 2228 
L 800 0 
L 172 0 
L 1081 4666 
z
" id="DejaVuSans-Oblique-46" transform="scale(0.015625)"/>
       <path d="M 1081 4666 
L 2541 4666 
Q 3178 4666 3512 4369 
Q 3847 4072 3847 3500 
Q 3847 2731 3353 2303 
Q 2859 1875 1966 1875 
L 1172 1875 
L 806 0 
L 172 0 
L 1081 4666 
z
M 1613 4147 
L 1275 2394 
L 2069 2394 
Q 2606 2394 2893 2669 
Q 3181 2944 3181 3456 
Q 3181 3784 2986 3965 
Q 2791 4147 2438 4147 
L 1613 4147 
z
" id="DejaVuSans-Oblique-50" transform="scale(0.015625)"/>
       <path d="M 1613 4147 
L 1294 2491 
L 2106 2491 
Q 2584 2491 2879 2755 
Q 3175 3019 3175 3444 
Q 3175 3784 2976 3965 
Q 2778 4147 2406 4147 
L 1613 4147 
z
M 2772 2241 
Q 2972 2194 3105 2009 
Q 3238 1825 3413 1275 
L 3809 0 
L 3144 0 
L 2778 1197 
Q 2638 1659 2453 1815 
Q 2269 1972 1888 1972 
L 1191 1972 
L 806 0 
L 172 0 
L 1081 4666 
L 2503 4666 
Q 3150 4666 3495 4373 
Q 3841 4081 3841 3531 
Q 3841 3044 3547 2687 
Q 3253 2331 2772 2241 
z
" id="DejaVuSans-Oblique-52" transform="scale(0.015625)"/>
       <path d="M 3438 1997 
L 3047 0 
L 2472 0 
L 2578 531 
Q 2325 219 2001 64 
Q 1678 -91 1281 -91 
Q 834 -91 548 182 
Q 263 456 263 884 
Q 263 1497 752 1853 
Q 1241 2209 2100 2209 
L 2900 2209 
L 2931 2363 
Q 2938 2388 2941 2417 
Q 2944 2447 2944 2509 
Q 2944 2788 2717 2942 
Q 2491 3097 2081 3097 
Q 1800 3097 1504 3025 
Q 1209 2953 897 2809 
L 997 3341 
Q 1322 3463 1633 3523 
Q 1944 3584 2234 3584 
Q 2853 3584 3176 3315 
Q 3500 3047 3500 2534 
Q 3500 2431 3484 2292 
Q 3469 2153 3438 1997 
z
M 2816 1759 
L 2241 1759 
Q 1534 1759 1195 1570 
Q 856 1381 856 984 
Q 856 709 1029 553 
Q 1203 397 1509 397 
Q 1978 397 2328 733 
Q 2678 1069 2791 1631 
L 2816 1759 
z
" id="DejaVuSans-Oblique-61" transform="scale(0.015625)"/>
       <path d="M 1172 4863 
L 1747 4863 
L 1606 4134 
L 1031 4134 
L 1172 4863 
z
M 909 3500 
L 1484 3500 
L 800 0 
L 225 0 
L 909 3500 
z
" id="DejaVuSans-Oblique-69" transform="scale(0.015625)"/>
       <path d="M 2853 2969 
Q 2766 3016 2653 3041 
Q 2541 3066 2413 3066 
Q 1953 3066 1609 2717 
Q 1266 2369 1153 1784 
L 800 0 
L 225 0 
L 909 3500 
L 1484 3500 
L 1375 2956 
Q 1603 3259 1920 3421 
Q 2238 3584 2597 3584 
Q 2691 3584 2781 3573 
Q 2872 3563 2963 3538 
L 2853 2969 
z
" id="DejaVuSans-Oblique-72" transform="scale(0.015625)"/>
      </defs>
      <use transform="translate(0 0.09375)" xlink:href="#DejaVuSans-Oblique-46"/>
      <use transform="translate(57.519531 0.09375)" xlink:href="#DejaVuSans-Oblique-50"/>
      <use transform="translate(117.822266 0.09375)" xlink:href="#DejaVuSans-Oblique-52"/>
      <use transform="translate(187.304688 -16.3125)scale(0.7)" xlink:href="#DejaVuSans-Oblique-46"/>
      <use transform="translate(227.568359 -16.3125)scale(0.7)" xlink:href="#DejaVuSans-Oblique-61"/>
      <use transform="translate(270.463867 -16.3125)scale(0.7)" xlink:href="#DejaVuSans-Oblique-69"/>
      <use transform="translate(289.912109 -16.3125)scale(0.7)" xlink:href="#DejaVuSans-Oblique-72"/>
     </g>
    </g>
   </g>
   <g id="matplotlib.axis_2">
    <g id="ytick_1">
     <g id="line2d_7">
      <defs>
       <path d="M 0 0 
L -3.5 0 
" id="mfe66dafbaa" style="stroke:#000000;stroke-width:0.8;"/>
      </defs>
      <g>
       <use style="stroke:#000000;stroke-width:0.8;" x="135" xlink:href="#mfe66dafbaa" y="448.56"/>
      </g>
     </g>
     <g id="text_8">
      <!-- 0.0 -->
      <g transform="translate(99.374375 455.398594)scale(0.18 -0.18)">
       <use xlink:href="#DejaVuSans-30"/>
       <use x="63.623047" xlink:href="#DejaVuSans-2e"/>
       <use x="95.410156" xlink:href="#DejaVuSans-30"/>
      </g>
     </g>
    </g>
    <g id="ytick_2">
     <g id="line2d_8">
      <g>
       <use style="stroke:#000000;stroke-width:0.8;" x="135" xlink:href="#mfe66dafbaa" y="370.944"/>
      </g>
     </g>
     <g id="text_9">
      <!-- 0.2 -->
      <g transform="translate(99.374375 377.782594)scale(0.18 -0.18)">
       <use xlink:href="#DejaVuSans-30"/>
       <use x="63.623047" xlink:href="#DejaVuSans-2e"/>
       <use x="95.410156" xlink:href="#DejaVuSans-32"/>
      </g>
     </g>
    </g>
    <g id="ytick_3">
     <g id="line2d_9">
      <g>
       <use style="stroke:#000000;stroke-width:0.8;" x="135" xlink:href="#mfe66dafbaa" y="293.328"/>
      </g>
     </g>
     <g id="text_10">
      <!-- 0.4 -->
      <g transform="translate(99.374375 300.166594)scale(0.18 -0.18)">
       <use xlink:href="#DejaVuSans-30"/>
       <use x="63.623047" xlink:href="#DejaVuSans-2e"/>
       <use x="95.410156" xlink:href="#DejaVuSans-34"/>
      </g>
     </g>
    </g>
    <g id="ytick_4">
     <g id="line2d_10">
      <g>
       <use style="stroke:#000000;stroke-width:0.8;" x="135" xlink:href="#mfe66dafbaa" y="215.712"/>
      </g>
     </g>
     <g id="text_11">
      <!-- 0.6 -->
      <g transform="translate(99.374375 222.550594)scale(0.18 -0.18)">
       <use xlink:href="#DejaVuSans-30"/>
       <use x="63.623047" xlink:href="#DejaVuSans-2e"/>
       <use x="95.410156" xlink:href="#DejaVuSans-36"/>
      </g>
     </g>
    </g>
    <g id="ytick_5">
     <g id="line2d_11">
      <g>
       <use style="stroke:#000000;stroke-width:0.8;" x="135" xlink:href="#mfe66dafbaa" y="138.096"/>
      </g>
     </g>
     <g id="text_12">
      <!-- 0.8 -->
      <g transform="translate(99.374375 144.934594)scale(0.18 -0.18)">
       <use xlink:href="#DejaVuSans-30"/>
       <use x="63.623047" xlink:href="#DejaVuSans-2e"/>
       <use x="95.410156" xlink:href="#DejaVuSans-38"/>
      </g>
     </g>
    </g>
    <g id="ytick_6">
     <g id="line2d_12">
      <g>
       <use style="stroke:#000000;stroke-width:0.8;" x="135" xlink:href="#mfe66dafbaa" y="60.48"/>
      </g>
     </g>
     <g id="text_13">
      <!-- 1.0 -->
      <g transform="translate(99.374375 67.318594)scale(0.18 -0.18)">
       <use xlink:href="#DejaVuSans-31"/>
       <use x="63.623047" xlink:href="#DejaVuSans-2e"/>
       <use x="95.410156" xlink:href="#DejaVuSans-30"/>
      </g>
     </g>
    </g>
    <g id="text_14">
     <!-- $TPR_{Fair}$ -->
     <g transform="translate(90.799062 290.27)rotate(-90)scale(0.22 -0.22)">
      <defs>
       <path d="M 378 4666 
L 4325 4666 
L 4225 4134 
L 2559 4134 
L 1759 0 
L 1125 0 
L 1925 4134 
L 275 4134 
L 378 4666 
z
" id="DejaVuSans-Oblique-54" transform="scale(0.015625)"/>
      </defs>
      <use transform="translate(0 0.09375)" xlink:href="#DejaVuSans-Oblique-54"/>
      <use transform="translate(61.083984 0.09375)" xlink:href="#DejaVuSans-Oblique-50"/>
      <use transform="translate(121.386719 0.09375)" xlink:href="#DejaVuSans-Oblique-52"/>
      <use transform="translate(190.869141 -16.3125)scale(0.7)" xlink:href="#DejaVuSans-Oblique-46"/>
      <use transform="translate(231.132812 -16.3125)scale(0.7)" xlink:href="#DejaVuSans-Oblique-61"/>
      <use transform="translate(274.02832 -16.3125)scale(0.7)" xlink:href="#DejaVuSans-Oblique-69"/>
      <use transform="translate(293.476562 -16.3125)scale(0.7)" xlink:href="#DejaVuSans-Oblique-72"/>
     </g>
    </g>
   </g>
   <g id="line2d_13">
    <path clip-path="url(#p4361f1ec04)" d="M 135 448.56 
L 972 60.48 
" style="fill:none;stroke:#ff0000;stroke-dasharray:5.55,2.4;stroke-dashoffset:0;stroke-width:1.5;"/>
   </g>
   <g id="line2d_14">
    <path clip-path="url(#p4361f1ec04)" d="M 972 60.48 
L 226.793976 402.252574 
L 182.676687 424.070759 
L 166.828979 431.93598 
L 158.654546 435.98286 
L 153.660438 438.498682 
L 150.32594 440.188761 
L 147.915944 441.35846 
L 146.119909 442.298672 
L 144.730516 443.001765 
L 143.604215 443.571167 
L 142.675099 444.047753 
L 141.909679 444.448366 
L 141.256698 444.773434 
L 140.71062 445.055967 
L 140.24206 445.300046 
L 139.831395 445.515939 
L 139.465418 445.719896 
L 139.141451 445.886417 
L 138.859386 446.039183 
L 138.603972 446.173459 
L 138.375831 446.294563 
L 138.169556 446.404146 
L 137.984931 446.5103 
L 137.82049 446.600159 
L 137.668494 446.688872 
L 137.530046 446.765175 
L 137.400139 446.837453 
L 137.279868 446.904607 
L 137.173503 446.967881 
L 137.068269 447.026308 
L 136.97628 447.082671 
L 136.889098 447.136307 
L 136.8049 447.186351 
L 136.728814 447.230901 
L 136.657046 447.272685 
L 136.590445 447.312034 
L 136.527401 447.349939 
L 136.471123 447.385149 
L 136.417484 447.41954 
L 136.367531 447.452091 
L 136.316754 447.485307 
L 136.273919 447.512769 
L 136.230784 447.544014 
L 136.190793 447.575176 
L 136.153055 447.601686 
L 136.114452 447.626605 
L 136.079678 447.650459 
L 136.046535 447.672185 
L 136.014981 447.697474 
L 135.986767 447.720433 
L 135.9565 447.741121 
L 135.929583 447.766455 
L 135.903417 447.785648 
L 135.87951 447.803809 
L 135.855511 447.822459 
L 135.834242 447.841112 
L 135.813538 447.857731 
L 135.793366 447.874717 
L 135.772194 447.887248 
L 135.75159 447.902048 
L 135.733107 447.916167 
L 135.714352 447.928661 
L 135.696647 447.942231 
L 135.679823 447.955752 
L 135.664757 447.966811 
L 135.649464 447.981512 
L 135.634002 447.993351 
L 135.618718 448.003858 
L 135.605014 448.012961 
L 135.592492 448.023262 
L 135.579298 448.03426 
L 135.565917 448.046042 
L 135.551281 448.055291 
L 135.540456 448.065602 
L 135.528418 448.074073 
L 135.514148 448.083278 
L 135.502815 448.092024 
L 135.491111 448.100288 
L 135.478825 448.109269 
L 135.466385 448.119245 
L 135.452836 448.127254 
L 135.440531 448.13422 
L 135.427002 448.141428 
L 135.414169 448.148773 
L 135.402002 448.157072 
L 135.39281 448.163529 
L 135.383521 448.170926 
L 135.372055 448.179058 
L 135.362868 448.186482 
L 135.35276 448.194582 
L 135.341626 448.202182 
L 135.333064 448.210298 
L 135.322349 448.217932 
L 135.314878 448.223919 
L 135.306964 448.230777 
L 135.29764 448.237275 
L 135.290083 448.246153 
L 135.28241 448.254152 
L 135.27451 448.262753 
L 135.266878 448.269226 
" style="fill:none;stroke:#1f77b4;stroke-linecap:square;stroke-width:1.5;"/>
   </g>
   <g id="line2d_15">
    <path clip-path="url(#p4361f1ec04)" d="M 972 60.48 
L 622.704646 151.4876 
L 475.025857 208.433622 
L 393.413506 247.204202 
L 341.912432 275.638532 
L 306.526139 297.30883 
L 280.681539 314.071925 
L 260.960035 327.449844 
L 245.443397 338.683436 
L 232.88456 347.912231 
L 222.584108 355.699222 
L 214.003745 362.586528 
L 206.725521 368.486555 
L 200.461373 373.613503 
L 195.049071 378.162964 
L 190.327262 382.151497 
L 186.153093 385.789551 
L 182.477179 389.126905 
L 179.212378 392.127376 
L 176.241238 394.824747 
L 173.574543 397.29091 
L 171.211547 399.526697 
L 169.05445 401.562736 
L 167.08117 403.493794 
L 165.279295 405.282235 
L 163.633659 406.957008 
L 162.133026 408.466591 
L 160.744348 409.818222 
L 159.485418 411.116978 
L 158.323852 412.389981 
L 157.229624 413.521127 
L 156.225773 414.595914 
L 155.282386 415.617754 
L 154.424294 416.557345 
L 153.613502 417.455279 
L 152.859189 418.312182 
L 152.158965 419.127032 
L 151.489891 419.843713 
L 150.867314 420.540794 
L 150.287989 421.240375 
L 149.746773 421.893786 
L 149.231705 422.524452 
L 148.751743 423.123537 
L 148.297975 423.693178 
L 147.86318 424.237111 
L 147.446837 424.755992 
L 147.059943 425.279847 
L 146.691706 425.76584 
L 146.335556 426.234486 
L 146.007314 426.695228 
L 145.693166 427.135193 
L 145.38493 427.576192 
L 145.095994 428.027755 
L 144.816946 428.422049 
L 144.556906 428.809006 
L 144.292901 429.189302 
L 144.053609 429.556078 
L 143.822787 429.897633 
L 143.59765 430.252737 
L 143.380421 430.592863 
L 143.171907 430.917272 
L 142.971989 431.233127 
L 142.765319 431.5395 
L 142.574824 431.829947 
L 142.389431 432.124519 
L 142.204976 432.412625 
L 142.02767 432.703776 
L 141.857285 432.984654 
L 141.689487 433.259226 
L 141.534003 433.53647 
L 141.382885 433.788767 
L 141.234412 434.040349 
L 141.088904 434.299069 
L 140.944958 434.535909 
L 140.802226 434.770852 
L 140.665006 435.000947 
L 140.532651 435.231307 
L 140.403498 435.447736 
L 140.276212 435.686125 
L 140.155909 435.911099 
L 140.036986 436.126746 
L 139.92235 436.340711 
L 139.805672 436.537832 
L 139.692421 436.74232 
L 139.584046 436.944823 
L 139.477823 437.136427 
L 139.373346 437.338636 
L 139.273841 437.528176 
L 139.180384 437.725872 
L 139.080451 437.925166 
L 138.985032 438.114793 
L 138.89658 438.293898 
L 138.808897 438.487018 
L 138.714127 438.679845 
L 138.623547 438.84934 
L 138.53276 439.02897 
L 138.44565 439.208645 
L 138.364676 439.390588 
L 138.283476 439.588556 
L 138.195802 439.785766 
L 138.112773 439.958467 
" style="fill:none;stroke:#ff7f0e;stroke-linecap:square;stroke-width:1.5;"/>
   </g>
   <g id="line2d_16">
    <path clip-path="url(#p4361f1ec04)" d="M 972 60.48 
L 659.852898 176.125417 
L 513.664078 239.06878 
L 428.751023 278.386669 
L 373.351082 305.63719 
L 334.432815 325.481427 
L 305.614536 340.676772 
L 283.41357 352.414648 
L 265.776687 362.172669 
L 251.458341 369.993869 
L 239.618288 376.604806 
L 229.707696 382.249664 
L 221.256385 387.099549 
L 213.981895 391.29935 
L 207.673872 395.055179 
L 202.125277 398.307322 
L 197.233452 401.237282 
L 192.888886 403.879842 
L 189.035428 406.282056 
L 185.533374 408.424111 
L 182.370511 410.38145 
L 179.538398 412.160443 
L 176.966261 413.779389 
L 174.608791 415.292203 
L 172.45633 416.701814 
L 170.49051 418.023407 
L 168.682569 419.220175 
L 167.024605 420.310955 
L 165.51318 421.349507 
L 164.097045 422.326465 
L 162.775144 423.229459 
L 161.5637 424.083972 
L 160.419459 424.891684 
L 159.36837 425.635628 
L 158.389646 426.336661 
L 157.468744 427.000079 
L 156.609096 427.62955 
L 155.807745 428.220749 
L 155.048604 428.78479 
L 154.341141 429.333839 
L 153.67362 429.849351 
L 153.0372 430.34354 
L 152.442138 430.820379 
L 151.881951 431.272453 
L 151.346236 431.703182 
L 150.83284 432.114105 
L 150.356046 432.522194 
L 149.893626 432.896878 
L 149.450234 433.266771 
L 149.039431 433.619651 
L 148.643929 433.958541 
L 148.259722 434.290963 
L 147.891721 434.615738 
L 147.539 434.916023 
L 147.210437 435.21602 
L 146.880817 435.494411 
L 146.572816 435.769159 
L 146.274779 436.030647 
L 145.982314 436.291568 
L 145.701605 436.549032 
L 145.429914 436.795211 
L 145.173958 437.033209 
L 144.916236 437.262995 
L 144.670449 437.479801 
L 144.433246 437.6968 
L 144.193402 437.908811 
L 143.970148 438.115305 
L 143.749829 438.318447 
L 143.538014 438.512691 
L 143.340752 438.70255 
L 143.146858 438.888591 
L 142.953408 439.072347 
L 142.765175 439.258824 
L 142.580301 439.431891 
L 142.400156 439.601807 
L 142.218933 439.770005 
L 142.05009 439.931131 
L 141.883509 440.088987 
L 141.722298 440.254547 
L 141.566075 440.407715 
L 141.412532 440.561938 
L 141.264393 440.713418 
L 141.114816 440.853111 
L 140.969306 440.99428 
L 140.833436 441.132921 
L 140.699794 441.268522 
L 140.568968 441.407993 
L 140.436519 441.542423 
L 140.311514 441.676505 
L 140.188167 441.803082 
L 140.066425 441.935076 
L 139.951651 442.058389 
L 139.83235 442.185743 
L 139.713341 442.312361 
L 139.599439 442.433979 
L 139.487833 442.55172 
L 139.375162 442.671475 
L 139.269127 442.792053 
L 139.164417 442.914333 
L 139.052948 443.03909 
L 138.950689 443.152817 
" style="fill:none;stroke:#2ca02c;stroke-linecap:square;stroke-width:1.5;"/>
   </g>
   <g id="line2d_17">
    <path clip-path="url(#p4361f1ec04)" d="M 972 60.48 
L 851.139514 83.149303 
L 758.21541 103.284881 
L 684.429162 121.678692 
L 624.497143 138.443789 
L 575.028074 153.659022 
L 533.358742 167.33565 
L 497.957073 179.783538 
L 467.51761 191.607032 
L 440.870603 202.126851 
L 417.596259 211.954648 
L 397.070077 221.140537 
L 378.806712 229.753882 
L 362.485552 237.626116 
L 347.864461 245.059252 
L 334.578897 251.954182 
L 322.590149 258.569015 
L 311.669187 264.764417 
L 301.78038 270.668929 
L 292.670216 276.154525 
L 284.279346 281.410056 
L 276.621084 286.251009 
L 269.589984 290.880478 
L 263.069511 295.316042 
L 257.01782 299.521345 
L 251.401047 303.56176 
L 246.156909 307.331497 
L 241.30322 310.863732 
L 236.796351 314.304077 
L 232.554818 317.603377 
L 228.567364 320.697522 
L 224.871564 323.627839 
L 221.345844 326.524165 
L 218.073723 329.177677 
L 214.999187 331.734746 
L 212.085583 334.190563 
L 209.343238 336.592049 
L 206.747041 338.816366 
L 204.294341 340.956429 
L 201.98914 343.104016 
L 199.797506 345.158016 
L 197.680107 347.125396 
L 195.691674 349.050622 
L 193.824587 350.86637 
L 192.025849 352.663157 
L 190.280765 354.371259 
L 188.661731 356.097092 
L 187.076024 357.716363 
L 185.560428 359.294614 
L 184.125728 360.782656 
L 182.728825 362.247818 
L 181.386572 363.724212 
L 180.119175 365.163016 
L 178.876234 366.556841 
L 177.708317 367.927667 
L 176.55069 369.24391 
L 175.478599 370.562729 
L 174.413482 371.84043 
L 173.372434 373.063144 
L 172.391518 374.267113 
L 171.430819 375.466636 
L 170.519067 376.642544 
L 169.600344 377.795429 
L 168.732753 378.869879 
L 167.882271 380.045579 
L 167.038928 381.128471 
L 166.232278 382.209909 
L 165.447487 383.29315 
L 164.694994 384.310668 
L 163.970548 385.346168 
L 163.269074 386.393704 
L 162.571143 387.418736 
L 161.903311 388.433787 
L 161.242272 389.41791 
L 160.594518 390.375165 
L 159.972366 391.30677 
L 159.357084 392.247307 
L 158.771925 393.148216 
L 158.20667 394.102076 
L 157.643341 395.011993 
L 157.09508 395.929643 
L 156.549875 396.827523 
L 156.020501 397.693114 
L 155.498257 398.567321 
L 155.016477 399.420379 
L 154.531061 400.243938 
L 154.056397 401.093335 
L 153.589859 401.916652 
L 153.144141 402.727588 
L 152.696256 403.51254 
L 152.256899 404.360036 
L 151.835415 405.119482 
L 151.408389 405.917808 
L 150.987409 406.732196 
L 150.58293 407.490823 
L 150.179323 408.232838 
L 149.782986 409.004852 
L 149.406211 409.75056 
L 149.032868 410.526811 
L 148.64462 411.314737 
L 148.2825 412.048504 
" style="fill:none;stroke:#d62728;stroke-linecap:square;stroke-width:1.5;"/>
   </g>
   <g id="line2d_18">
    <path clip-path="url(#p4361f1ec04)" d="M 972 60.48 
L 851.926895 104.594037 
L 759.860026 139.942124 
L 686.530658 168.835887 
L 627.080761 192.73843 
L 577.753919 213.281676 
L 536.281611 230.970411 
L 500.923383 245.956823 
L 470.511769 259.602643 
L 444.088596 271.274862 
L 420.856618 281.648643 
L 400.374639 291.109947 
L 382.157793 299.599738 
L 365.877565 307.182113 
L 351.290788 314.253628 
L 338.069164 320.552933 
L 326.118792 326.35538 
L 315.170528 331.73431 
L 305.268556 336.731299 
L 296.140022 341.289007 
L 287.773921 345.61036 
L 280.066174 349.582353 
L 272.928274 353.27765 
L 266.305475 356.77809 
L 260.158905 360.056344 
L 254.46855 363.138017 
L 249.173656 366.030157 
L 244.229411 368.685046 
L 239.626971 371.246549 
L 235.308115 373.684845 
L 231.227207 375.96655 
L 227.427937 378.162769 
L 223.792392 380.249136 
L 220.427758 382.206055 
L 217.230945 384.0687 
L 214.187542 385.840072 
L 211.357246 387.535623 
L 208.652367 389.13794 
L 206.091854 390.683644 
L 203.688425 392.168827 
L 201.374081 393.583002 
L 199.158197 394.957872 
L 197.063664 396.277821 
L 195.07123 397.542116 
L 193.160174 398.758553 
L 191.330893 399.931352 
L 189.60332 401.06698 
L 187.923716 402.131641 
L 186.322182 403.199595 
L 184.795393 404.207229 
L 183.296116 405.18025 
L 181.868763 406.123877 
L 180.502982 407.047099 
L 179.174302 407.921216 
L 177.914501 408.79694 
L 176.693782 409.621902 
L 175.527294 410.432337 
L 174.376624 411.210861 
L 173.254698 411.971076 
L 172.208195 412.712717 
L 171.175709 413.439645 
L 170.186821 414.155882 
L 169.205568 414.842212 
L 168.2708 415.490025 
L 167.359943 416.156192 
L 166.465037 416.781537 
L 165.605154 417.405853 
L 164.769406 418.021126 
L 163.970228 418.607724 
L 163.196912 419.187252 
L 162.441829 419.75912 
L 161.709575 420.325344 
L 161.006151 420.88292 
L 160.306805 421.426208 
L 159.621763 421.948975 
L 158.964457 422.461972 
L 158.322068 422.964051 
L 157.710393 423.451771 
L 157.118596 423.960257 
L 156.534143 424.449477 
L 155.961461 424.935616 
L 155.401528 425.402079 
L 154.859422 425.858651 
L 154.329764 426.308756 
L 153.826137 426.747711 
L 153.323323 427.183232 
L 152.835753 427.615848 
L 152.3596 428.029171 
L 151.899297 428.450636 
L 151.44426 428.845023 
L 151.003675 429.268679 
L 150.574661 429.650615 
L 150.139728 430.051976 
L 149.716996 430.447099 
L 149.310162 430.828069 
L 148.906486 431.196315 
L 148.516038 431.575097 
L 148.137147 431.946656 
L 147.769537 432.323824 
L 147.395846 432.709159 
L 147.036534 433.06974 
" style="fill:none;stroke:#9467bd;stroke-linecap:square;stroke-width:1.5;"/>
   </g>
   <g id="line2d_19">
    <path clip-path="url(#p4361f1ec04)" d="M 972 60.48 
L 906.939808 73.007235 
L 849.711072 84.74696 
L 798.816197 96.011815 
L 753.334109 106.745204 
L 712.568638 116.915259 
L 675.701327 126.445086 
L 642.410479 135.431332 
L 612.233867 144.25243 
L 584.496469 152.372898 
L 559.208487 160.170726 
L 535.99801 167.679989 
L 514.577981 174.9166 
L 494.829377 181.706183 
L 476.595297 188.247319 
L 459.614245 194.443383 
L 443.878053 200.537035 
L 429.187483 206.346346 
L 415.579063 211.963204 
L 402.847511 217.318653 
L 390.901643 222.52564 
L 379.794647 227.428955 
L 369.389116 232.199891 
L 359.572132 236.829558 
L 350.322577 241.277087 
L 341.632128 245.556381 
L 333.431057 249.676975 
L 325.68602 253.580557 
L 318.403905 257.414069 
L 311.525831 261.170232 
L 304.956722 264.727933 
L 298.816249 268.137525 
L 292.89504 271.521642 
L 287.339831 274.69005 
L 282.026947 277.777871 
L 276.983175 280.746482 
L 272.204676 283.681074 
L 267.608739 286.411588 
L 263.250864 289.095747 
L 259.130892 291.787451 
L 255.130465 294.396435 
L 251.298431 296.919732 
L 247.654953 299.380309 
L 244.163843 301.73133 
L 240.811947 304.073469 
L 237.604549 306.360991 
L 234.557932 308.597932 
L 231.582422 310.751787 
L 228.735756 312.891081 
L 225.998528 314.87955 
L 223.321946 316.885798 
L 220.756854 318.87286 
L 218.300542 320.813604 
L 215.925677 322.730306 
L 213.657355 324.608342 
L 211.442736 326.453461 
L 209.314771 328.284407 
L 207.238279 330.096475 
L 205.199821 331.850635 
L 203.279211 333.529868 
L 201.394432 335.227884 
L 199.586152 336.897319 
L 197.789791 338.543443 
L 196.076142 340.119996 
L 194.409096 341.765119 
L 192.768976 343.309456 
L 191.190915 344.885807 
L 189.666982 346.458946 
L 188.196854 347.965492 
L 186.758301 349.456518 
L 185.370878 350.976409 
L 184.024627 352.504221 
L 182.738287 354.018408 
L 181.447661 355.484775 
L 180.204033 356.878649 
L 178.991721 358.287319 
L 177.813643 359.694621 
L 176.67591 361.070517 
L 175.569679 362.50564 
L 174.492183 363.934198 
L 173.431801 365.332503 
L 172.409815 366.68281 
L 171.404314 368.032511 
L 170.430111 369.389331 
L 169.497129 370.715032 
L 168.56443 372.017207 
L 167.660527 373.345207 
L 166.79077 374.618398 
L 165.935481 375.908111 
L 165.099767 377.133982 
L 164.287061 378.439154 
L 163.482944 379.651106 
L 162.678678 380.931289 
L 161.898198 382.184736 
L 161.143873 383.389069 
L 160.395583 384.599492 
L 159.677414 385.836837 
L 158.978377 387.033278 
L 158.292559 388.275598 
L 157.596509 389.537374 
L 156.930711 390.737824 
" style="fill:none;stroke:#8c564b;stroke-linecap:square;stroke-width:1.5;"/>
   </g>
   <g id="line2d_20">
    <path clip-path="url(#p4361f1ec04)" d="M 972 60.48 
L 927.172242 71.210184 
L 885.713274 81.559473 
L 847.123465 91.268926 
L 811.072138 100.536889 
L 777.473441 109.456542 
L 746.188904 118.071584 
L 716.866506 126.134088 
L 689.437176 134.029908 
L 663.891439 141.499405 
L 639.71583 148.645605 
L 617.181621 155.621518 
L 595.937077 162.185562 
L 575.98257 168.430457 
L 557.172283 174.594713 
L 539.43778 180.365446 
L 522.756356 186.070411 
L 506.807102 191.577228 
L 491.941701 196.955835 
L 477.793625 202.125065 
L 464.433749 207.131184 
L 451.77551 211.886251 
L 439.686395 216.49804 
L 428.223746 220.929308 
L 417.327956 225.24813 
L 407.05681 229.420345 
L 397.285678 233.495114 
L 387.960584 237.268707 
L 379.134029 241.067374 
L 370.719173 244.758304 
L 362.633252 248.248096 
L 354.986933 251.756645 
L 347.606925 255.08948 
L 340.618833 258.366364 
L 333.930678 261.444283 
L 327.54066 264.435908 
L 321.48118 267.395237 
L 315.611929 270.209989 
L 310.018847 272.971778 
L 304.67759 275.700409 
L 299.506315 278.328752 
L 294.532703 280.868358 
L 289.780249 283.388873 
L 285.240786 285.821292 
L 280.860375 288.199393 
L 276.637004 290.587138 
L 272.617963 292.929103 
L 268.691267 295.171695 
L 264.941051 297.432387 
L 261.308012 299.587325 
L 257.757068 301.695001 
L 254.340534 303.769984 
L 251.045297 305.840398 
L 247.859521 307.839757 
L 244.79523 309.84234 
L 241.845066 311.801365 
L 238.960909 313.715917 
L 236.158464 315.597395 
L 233.404208 317.462552 
L 230.780404 319.286273 
L 228.215774 321.123944 
L 225.740058 322.900162 
L 223.293785 324.670783 
L 220.961801 326.371673 
L 218.686972 328.139444 
L 216.441926 329.796911 
L 214.303606 331.476544 
L 212.220333 333.136862 
L 210.209054 334.775414 
L 208.231014 336.369867 
L 206.320249 337.996193 
L 204.471642 339.622935 
L 202.687692 341.257974 
L 200.913099 342.849226 
L 199.187903 344.404515 
L 197.504326 345.91314 
L 195.866473 347.44903 
L 194.278159 348.913904 
L 192.742072 350.486978 
L 191.237576 352.02562 
L 189.763775 353.542968 
L 188.34329 355.018724 
L 186.945768 356.492915 
L 185.581025 357.970665 
L 184.26838 359.409653 
L 182.95634 360.860686 
L 181.684183 362.311906 
L 180.463051 363.72072 
L 179.261128 365.158712 
L 178.082435 366.528758 
L 176.93455 367.982655 
L 175.804509 369.323121 
L 174.674959 370.745922 
L 173.577191 372.119774 
L 172.510174 373.500262 
L 171.458027 374.840258 
L 170.445183 376.237594 
L 169.453476 377.57501 
L 168.476673 378.955703 
L 167.486609 380.371004 
L 166.540671 381.725716 
" style="fill:none;stroke:#e377c2;stroke-linecap:square;stroke-width:1.5;"/>
   </g>
   <g id="line2d_21">
    <path clip-path="url(#p4361f1ec04)" d="M 972 60.48 
L 971.954505 61.155684 
L 971.910284 61.863662 
L 971.868625 62.578813 
L 971.8279 63.320903 
L 971.785593 64.044152 
L 971.734777 64.747185 
L 971.678146 65.477427 
L 971.630522 66.151981 
L 971.573621 66.817343 
L 971.518004 67.542261 
L 971.461743 68.219372 
L 971.396856 68.936689 
L 971.326588 69.649141 
L 971.260265 70.343998 
L 971.198798 71.042225 
L 971.134908 71.720965 
L 971.062106 72.409875 
L 971.00479 73.084109 
L 970.930457 73.793461 
L 970.841431 74.465013 
L 970.774969 75.056673 
L 970.682417 75.744233 
L 970.597601 76.402461 
L 970.511483 77.009915 
L 970.419126 77.679961 
L 970.328076 78.324648 
L 970.237221 78.922642 
L 970.139985 79.546366 
L 970.045398 80.208944 
L 969.934375 80.817385 
L 969.824978 81.419093 
L 969.714735 82.064408 
L 969.604722 82.677208 
L 969.512336 83.264087 
L 969.39432 83.876739 
L 969.279194 84.475396 
L 969.159061 85.009303 
L 969.028407 85.606697 
L 968.905215 86.182627 
L 968.76733 86.783164 
L 968.631525 87.357089 
L 968.50108 87.955917 
L 968.374378 88.494484 
L 968.221637 89.048573 
L 968.082632 89.62608 
L 967.945025 90.252902 
L 967.805824 90.8329 
L 967.655733 91.410772 
L 967.493831 91.96182 
L 967.340576 92.575894 
L 967.16915 93.188272 
L 967.014063 93.780914 
L 966.836781 94.445357 
L 966.674359 95.072306 
L 966.499525 95.678251 
L 966.306244 96.320404 
L 966.118812 96.952566 
L 965.932114 97.616678 
L 965.735179 98.255562 
L 965.506547 98.943218 
L 965.303681 99.597472 
L 965.087239 100.266597 
L 964.860356 100.943351 
L 964.623473 101.632764 
L 964.392113 102.280073 
L 964.142002 102.939376 
L 963.903284 103.674553 
L 963.63885 104.407285 
L 963.390394 105.120446 
L 963.127379 105.868636 
L 962.825778 106.676388 
L 962.552745 107.473466 
L 962.238743 108.279131 
L 961.939447 109.095728 
L 961.608014 109.879628 
L 961.314917 110.71721 
L 960.979644 111.600414 
L 960.604028 112.575361 
L 960.242238 113.533688 
L 959.86118 114.501309 
L 959.473205 115.494005 
L 959.095158 116.482726 
L 958.681763 117.517273 
L 958.247971 118.582982 
L 957.806136 119.697233 
L 957.329514 120.835445 
L 956.886061 122.008586 
L 956.427303 123.260044 
L 955.937899 124.461017 
L 955.460244 125.817511 
L 954.94439 127.157283 
L 954.414819 128.592803 
L 953.844002 130.002018 
L 953.239104 131.55338 
L 952.653595 133.035594 
L 952.056382 134.663419 
L 951.442231 136.282826 
L 950.798302 137.98423 
L 950.146005 139.70228 
L 949.450714 141.530435 
" style="fill:none;stroke:#7f7f7f;stroke-linecap:square;stroke-width:1.5;"/>
   </g>
   <g id="line2d_22">
    <path clip-path="url(#p4361f1ec04)" d="M 972 60.48 
L 897.179566 88.819328 
L 832.828765 113.49869 
L 776.726753 135.062975 
L 727.24665 154.217086 
L 683.57959 171.418714 
L 644.617716 186.91095 
L 609.809867 200.642345 
L 578.513433 213.509073 
L 550.226382 224.943261 
L 524.582411 235.526838 
L 501.233319 245.247215 
L 479.883417 254.189099 
L 460.305133 262.399536 
L 442.383709 270.167509 
L 425.802686 277.232245 
L 410.507333 283.915531 
L 396.298645 290.155634 
L 383.207454 296.000301 
L 371.024784 301.411724 
L 359.659761 306.577079 
L 349.069658 311.399946 
L 339.15778 315.956541 
L 329.869691 320.322833 
L 321.197514 324.43236 
L 313.101447 328.320328 
L 305.491301 332.01259 
L 298.314502 335.454337 
L 291.599019 338.755321 
L 285.265921 341.920939 
L 279.268378 344.901709 
L 273.661992 347.79033 
L 268.300752 350.551205 
L 263.259808 353.169472 
L 258.475057 355.661713 
L 253.970436 358.039232 
L 249.719545 360.326002 
L 245.635632 362.504161 
L 241.777052 364.590495 
L 238.126932 366.64114 
L 234.614674 368.583669 
L 231.268916 370.449441 
L 228.090636 372.269947 
L 225.071208 374.003421 
L 222.186715 375.690883 
L 219.414319 377.33016 
L 216.797696 378.912395 
L 214.252607 380.417218 
L 211.823495 381.915182 
L 209.500836 383.329065 
L 207.240466 384.718024 
L 205.08604 386.059154 
L 203.017547 387.377371 
L 201.017174 388.635704 
L 199.096008 389.874918 
L 197.261801 391.071956 
L 195.487229 392.230304 
L 193.760958 393.36955 
L 192.074332 394.480781 
L 190.468865 395.553151 
L 188.906126 396.612581 
L 187.407895 397.63606 
L 185.943963 398.632321 
L 184.554986 399.584377 
L 183.205182 400.533814 
L 181.872889 401.453523 
L 180.606186 402.356563 
L 179.378956 403.239083 
L 178.184009 404.096216 
L 177.022801 404.922105 
L 175.907266 405.759994 
L 174.827492 406.596898 
L 173.793266 407.423204 
L 172.760759 408.22264 
L 171.758377 408.99591 
L 170.793163 409.759951 
L 169.850105 410.507901 
L 168.934637 411.237174 
L 168.051852 411.983969 
L 167.189113 412.716825 
L 166.355664 413.433222 
L 165.540719 414.124515 
L 164.744759 414.795242 
L 163.970135 415.471974 
L 163.225967 416.129984 
L 162.48004 416.781635 
L 161.760449 417.432892 
L 161.068344 418.062427 
L 160.384731 418.693154 
L 159.70874 419.291729 
L 159.05202 419.912972 
L 158.411876 420.495916 
L 157.772271 421.102561 
L 157.152129 421.688454 
L 156.546342 422.268532 
L 155.950673 422.831916 
L 155.368623 423.408739 
L 154.800153 423.967701 
L 154.239807 424.538925 
L 153.674057 425.120196 
L 153.132782 425.674771 
" style="fill:none;stroke:#bcbd22;stroke-linecap:square;stroke-width:1.5;"/>
   </g>
   <g id="line2d_23">
    <path clip-path="url(#p4361f1ec04)" d="M 972 60.48 
L 926.556356 70.541202 
L 884.520494 80.208881 
L 845.333155 89.560829 
L 808.649712 98.482238 
L 774.744188 107.272064 
L 742.902509 115.614232 
L 713.13512 123.378683 
L 685.324726 131.15418 
L 659.140469 138.460326 
L 634.681587 145.486922 
L 611.719494 152.386749 
L 590.059387 159.063689 
L 569.682334 165.389127 
L 550.523276 171.573523 
L 532.365315 177.409201 
L 515.236232 183.142243 
L 499.03566 188.66103 
L 483.812768 194.00371 
L 469.36055 199.215835 
L 455.708808 204.265502 
L 442.785753 209.079326 
L 430.514903 213.694988 
L 418.86666 218.256092 
L 407.826859 222.651125 
L 397.393698 226.894389 
L 387.470388 231.0024 
L 378.033701 234.940781 
L 369.101425 238.78884 
L 360.602967 242.636178 
L 352.476224 246.295975 
L 344.79121 249.839282 
L 337.436012 253.313287 
L 330.450403 256.634599 
L 323.770253 259.844528 
L 317.435288 262.957183 
L 311.405869 265.996474 
L 305.594917 268.896716 
L 300.070865 271.669035 
L 294.816413 274.545768 
L 289.748634 277.269986 
L 284.902101 279.914014 
L 280.264137 282.49204 
L 275.842883 284.959603 
L 271.600461 287.435999 
L 267.502777 289.873094 
L 263.61556 292.281771 
L 259.83064 294.5965 
L 256.20573 296.893953 
L 252.731409 299.086928 
L 249.342721 301.269543 
L 246.098772 303.408519 
L 242.994084 305.536446 
L 239.973701 307.614677 
L 237.058365 309.666958 
L 234.276443 311.670054 
L 231.57723 313.649301 
L 228.947083 315.619819 
L 226.383486 317.529676 
L 223.932022 319.396057 
L 221.534951 321.273809 
L 219.228241 323.091182 
L 216.980104 324.885001 
L 214.834311 326.621475 
L 212.751856 328.383258 
L 210.703664 330.081978 
L 208.740741 331.768181 
L 206.831039 333.445589 
L 204.972902 335.098623 
L 203.177323 336.700097 
L 201.443603 338.325086 
L 199.761474 339.974644 
L 198.147938 341.602553 
L 196.538796 343.196725 
L 194.960527 344.738384 
L 193.448901 346.28146 
L 191.979495 347.828356 
L 190.555318 349.34388 
L 189.164378 350.905839 
L 187.803788 352.450531 
L 186.487978 353.982282 
L 185.203091 355.479482 
L 183.948013 356.944034 
L 182.727656 358.43852 
L 181.544732 359.883292 
L 180.35954 361.325391 
L 179.219986 362.791722 
L 178.115164 364.228674 
L 177.021127 365.665318 
L 175.941013 367.043388 
L 174.884017 368.485908 
L 173.859355 369.865725 
L 172.828212 371.280637 
L 171.826084 372.685278 
L 170.840446 374.069445 
L 169.870564 375.430498 
L 168.924668 376.826768 
L 167.996347 378.189075 
L 167.081532 379.586233 
L 166.155855 381.013045 
L 165.264708 382.387461 
" style="fill:none;stroke:#17becf;stroke-linecap:square;stroke-width:1.5;"/>
   </g>
   <g id="patch_3">
    <path d="M 135 448.56 
L 135 60.48 
" style="fill:none;stroke:#000000;stroke-linecap:square;stroke-linejoin:miter;stroke-width:0.8;"/>
   </g>
   <g id="patch_4">
    <path d="M 972 448.56 
L 972 60.48 
" style="fill:none;stroke:#000000;stroke-linecap:square;stroke-linejoin:miter;stroke-width:0.8;"/>
   </g>
   <g id="patch_5">
    <path d="M 135 448.56 
L 972 448.56 
" style="fill:none;stroke:#000000;stroke-linecap:square;stroke-linejoin:miter;stroke-width:0.8;"/>
   </g>
   <g id="patch_6">
    <path d="M 135 60.48 
L 972 60.48 
" style="fill:none;stroke:#000000;stroke-linecap:square;stroke-linejoin:miter;stroke-width:0.8;"/>
   </g>
   <g id="legend_1">
    <g id="patch_7">
     <path d="M 850.269375 439.56 
L 959.4 439.56 
Q 963 439.56 963 435.96 
L 963 173.55375 
Q 963 169.95375 959.4 169.95375 
L 850.269375 169.95375 
Q 846.669375 169.95375 846.669375 173.55375 
L 846.669375 435.96 
Q 846.669375 439.56 850.269375 439.56 
z
" style="fill:#ffffff;opacity:0.8;stroke:#cccccc;stroke-linejoin:miter;"/>
    </g>
    <g id="line2d_24">
     <path d="M 853.869375 184.530938 
L 889.869375 184.530938 
" style="fill:none;stroke:#1f77b4;stroke-linecap:square;stroke-width:1.5;"/>
    </g>
    <g id="line2d_25"/>
    <g id="text_15">
     <!-- 0.001 -->
     <g transform="translate(904.269375 190.830938)scale(0.18 -0.18)">
      <use xlink:href="#DejaVuSans-30"/>
      <use x="63.623047" xlink:href="#DejaVuSans-2e"/>
      <use x="95.410156" xlink:href="#DejaVuSans-30"/>
      <use x="159.033203" xlink:href="#DejaVuSans-30"/>
      <use x="222.65625" xlink:href="#DejaVuSans-31"/>
     </g>
    </g>
    <g id="line2d_26">
     <path d="M 853.869375 210.951563 
L 889.869375 210.951563 
" style="fill:none;stroke:#ff7f0e;stroke-linecap:square;stroke-width:1.5;"/>
    </g>
    <g id="line2d_27"/>
    <g id="text_16">
     <!-- 0.011 -->
     <g transform="translate(904.269375 217.251563)scale(0.18 -0.18)">
      <use xlink:href="#DejaVuSans-30"/>
      <use x="63.623047" xlink:href="#DejaVuSans-2e"/>
      <use x="95.410156" xlink:href="#DejaVuSans-30"/>
      <use x="159.033203" xlink:href="#DejaVuSans-31"/>
      <use x="222.65625" xlink:href="#DejaVuSans-31"/>
     </g>
    </g>
    <g id="line2d_28">
     <path d="M 853.869375 237.372188 
L 889.869375 237.372188 
" style="fill:none;stroke:#2ca02c;stroke-linecap:square;stroke-width:1.5;"/>
    </g>
    <g id="line2d_29"/>
    <g id="text_17">
     <!-- 0.021 -->
     <g transform="translate(904.269375 243.672188)scale(0.18 -0.18)">
      <use xlink:href="#DejaVuSans-30"/>
      <use x="63.623047" xlink:href="#DejaVuSans-2e"/>
      <use x="95.410156" xlink:href="#DejaVuSans-30"/>
      <use x="159.033203" xlink:href="#DejaVuSans-32"/>
      <use x="222.65625" xlink:href="#DejaVuSans-31"/>
     </g>
    </g>
    <g id="line2d_30">
     <path d="M 853.869375 263.792813 
L 889.869375 263.792813 
" style="fill:none;stroke:#d62728;stroke-linecap:square;stroke-width:1.5;"/>
    </g>
    <g id="line2d_31"/>
    <g id="text_18">
     <!-- 0.031 -->
     <g transform="translate(904.269375 270.092813)scale(0.18 -0.18)">
      <defs>
       <path d="M 2597 2516 
Q 3050 2419 3304 2112 
Q 3559 1806 3559 1356 
Q 3559 666 3084 287 
Q 2609 -91 1734 -91 
Q 1441 -91 1130 -33 
Q 819 25 488 141 
L 488 750 
Q 750 597 1062 519 
Q 1375 441 1716 441 
Q 2309 441 2620 675 
Q 2931 909 2931 1356 
Q 2931 1769 2642 2001 
Q 2353 2234 1838 2234 
L 1294 2234 
L 1294 2753 
L 1863 2753 
Q 2328 2753 2575 2939 
Q 2822 3125 2822 3475 
Q 2822 3834 2567 4026 
Q 2313 4219 1838 4219 
Q 1578 4219 1281 4162 
Q 984 4106 628 3988 
L 628 4550 
Q 988 4650 1302 4700 
Q 1616 4750 1894 4750 
Q 2613 4750 3031 4423 
Q 3450 4097 3450 3541 
Q 3450 3153 3228 2886 
Q 3006 2619 2597 2516 
z
" id="DejaVuSans-33" transform="scale(0.015625)"/>
      </defs>
      <use xlink:href="#DejaVuSans-30"/>
      <use x="63.623047" xlink:href="#DejaVuSans-2e"/>
      <use x="95.410156" xlink:href="#DejaVuSans-30"/>
      <use x="159.033203" xlink:href="#DejaVuSans-33"/>
      <use x="222.65625" xlink:href="#DejaVuSans-31"/>
     </g>
    </g>
    <g id="line2d_32">
     <path d="M 853.869375 290.213438 
L 889.869375 290.213438 
" style="fill:none;stroke:#9467bd;stroke-linecap:square;stroke-width:1.5;"/>
    </g>
    <g id="line2d_33"/>
    <g id="text_19">
     <!-- 0.041 -->
     <g transform="translate(904.269375 296.513438)scale(0.18 -0.18)">
      <use xlink:href="#DejaVuSans-30"/>
      <use x="63.623047" xlink:href="#DejaVuSans-2e"/>
      <use x="95.410156" xlink:href="#DejaVuSans-30"/>
      <use x="159.033203" xlink:href="#DejaVuSans-34"/>
      <use x="222.65625" xlink:href="#DejaVuSans-31"/>
     </g>
    </g>
    <g id="line2d_34">
     <path d="M 853.869375 316.634063 
L 889.869375 316.634063 
" style="fill:none;stroke:#8c564b;stroke-linecap:square;stroke-width:1.5;"/>
    </g>
    <g id="line2d_35"/>
    <g id="text_20">
     <!-- 0.051 -->
     <g transform="translate(904.269375 322.934063)scale(0.18 -0.18)">
      <defs>
       <path d="M 691 4666 
L 3169 4666 
L 3169 4134 
L 1269 4134 
L 1269 2991 
Q 1406 3038 1543 3061 
Q 1681 3084 1819 3084 
Q 2600 3084 3056 2656 
Q 3513 2228 3513 1497 
Q 3513 744 3044 326 
Q 2575 -91 1722 -91 
Q 1428 -91 1123 -41 
Q 819 9 494 109 
L 494 744 
Q 775 591 1075 516 
Q 1375 441 1709 441 
Q 2250 441 2565 725 
Q 2881 1009 2881 1497 
Q 2881 1984 2565 2268 
Q 2250 2553 1709 2553 
Q 1456 2553 1204 2497 
Q 953 2441 691 2322 
L 691 4666 
z
" id="DejaVuSans-35" transform="scale(0.015625)"/>
      </defs>
      <use xlink:href="#DejaVuSans-30"/>
      <use x="63.623047" xlink:href="#DejaVuSans-2e"/>
      <use x="95.410156" xlink:href="#DejaVuSans-30"/>
      <use x="159.033203" xlink:href="#DejaVuSans-35"/>
      <use x="222.65625" xlink:href="#DejaVuSans-31"/>
     </g>
    </g>
    <g id="line2d_36">
     <path d="M 853.869375 343.054688 
L 889.869375 343.054688 
" style="fill:none;stroke:#e377c2;stroke-linecap:square;stroke-width:1.5;"/>
    </g>
    <g id="line2d_37"/>
    <g id="text_21">
     <!-- 0.061 -->
     <g transform="translate(904.269375 349.354688)scale(0.18 -0.18)">
      <use xlink:href="#DejaVuSans-30"/>
      <use x="63.623047" xlink:href="#DejaVuSans-2e"/>
      <use x="95.410156" xlink:href="#DejaVuSans-30"/>
      <use x="159.033203" xlink:href="#DejaVuSans-36"/>
      <use x="222.65625" xlink:href="#DejaVuSans-31"/>
     </g>
    </g>
    <g id="line2d_38">
     <path d="M 853.869375 369.475313 
L 889.869375 369.475313 
" style="fill:none;stroke:#7f7f7f;stroke-linecap:square;stroke-width:1.5;"/>
    </g>
    <g id="line2d_39"/>
    <g id="text_22">
     <!-- 0.071 -->
     <g transform="translate(904.269375 375.775313)scale(0.18 -0.18)">
      <defs>
       <path d="M 525 4666 
L 3525 4666 
L 3525 4397 
L 1831 0 
L 1172 0 
L 2766 4134 
L 525 4134 
L 525 4666 
z
" id="DejaVuSans-37" transform="scale(0.015625)"/>
      </defs>
      <use xlink:href="#DejaVuSans-30"/>
      <use x="63.623047" xlink:href="#DejaVuSans-2e"/>
      <use x="95.410156" xlink:href="#DejaVuSans-30"/>
      <use x="159.033203" xlink:href="#DejaVuSans-37"/>
      <use x="222.65625" xlink:href="#DejaVuSans-31"/>
     </g>
    </g>
    <g id="line2d_40">
     <path d="M 853.869375 395.895938 
L 889.869375 395.895938 
" style="fill:none;stroke:#bcbd22;stroke-linecap:square;stroke-width:1.5;"/>
    </g>
    <g id="line2d_41"/>
    <g id="text_23">
     <!-- 0.081 -->
     <g transform="translate(904.269375 402.195938)scale(0.18 -0.18)">
      <use xlink:href="#DejaVuSans-30"/>
      <use x="63.623047" xlink:href="#DejaVuSans-2e"/>
      <use x="95.410156" xlink:href="#DejaVuSans-30"/>
      <use x="159.033203" xlink:href="#DejaVuSans-38"/>
      <use x="222.65625" xlink:href="#DejaVuSans-31"/>
     </g>
    </g>
    <g id="line2d_42">
     <path d="M 853.869375 422.316563 
L 889.869375 422.316563 
" style="fill:none;stroke:#17becf;stroke-linecap:square;stroke-width:1.5;"/>
    </g>
    <g id="line2d_43"/>
    <g id="text_24">
     <!-- 0.091 -->
     <g transform="translate(904.269375 428.616563)scale(0.18 -0.18)">
      <defs>
       <path d="M 703 97 
L 703 672 
Q 941 559 1184 500 
Q 1428 441 1663 441 
Q 2288 441 2617 861 
Q 2947 1281 2994 2138 
Q 2813 1869 2534 1725 
Q 2256 1581 1919 1581 
Q 1219 1581 811 2004 
Q 403 2428 403 3163 
Q 403 3881 828 4315 
Q 1253 4750 1959 4750 
Q 2769 4750 3195 4129 
Q 3622 3509 3622 2328 
Q 3622 1225 3098 567 
Q 2575 -91 1691 -91 
Q 1453 -91 1209 -44 
Q 966 3 703 97 
z
M 1959 2075 
Q 2384 2075 2632 2365 
Q 2881 2656 2881 3163 
Q 2881 3666 2632 3958 
Q 2384 4250 1959 4250 
Q 1534 4250 1286 3958 
Q 1038 3666 1038 3163 
Q 1038 2656 1286 2365 
Q 1534 2075 1959 2075 
z
" id="DejaVuSans-39" transform="scale(0.015625)"/>
      </defs>
      <use xlink:href="#DejaVuSans-30"/>
      <use x="63.623047" xlink:href="#DejaVuSans-2e"/>
      <use x="95.410156" xlink:href="#DejaVuSans-30"/>
      <use x="159.033203" xlink:href="#DejaVuSans-39"/>
      <use x="222.65625" xlink:href="#DejaVuSans-31"/>
     </g>
    </g>
   </g>
  </g>
 </g>
 <defs>
  <clipPath id="p4361f1ec04">
   <rect height="388.08" width="837" x="135" y="60.48"/>
  </clipPath>
 </defs>
</svg>
