<?xml version="1.0" encoding="utf-8" standalone="no"?>
<!DOCTYPE svg PUBLIC "-//W3C//DTD SVG 1.1//EN"
  "http://www.w3.org/Graphics/SVG/1.1/DTD/svg11.dtd">
<svg height="504pt" version="1.1" viewBox="0 0 1080 504" width="1080pt" xmlns="http://www.w3.org/2000/svg" xmlns:xlink="http://www.w3.org/1999/xlink">
 <metadata>
  <rdf:RDF xmlns:cc="http://creativecommons.org/ns#" xmlns:dc="http://purl.org/dc/elements/1.1/" xmlns:rdf="http://www.w3.org/1999/02/22-rdf-syntax-ns#">
   <cc:Work>
    <dc:type rdf:resource="http://purl.org/dc/dcmitype/StillImage"/>
    <dc:date>2022-01-07T13:25:02.062678</dc:date>
    <dc:format>image/svg+xml</dc:format>
    <dc:creator>
     <cc:Agent>
      <dc:title>Matplotlib v3.4.3, https://matplotlib.org/</dc:title>
     </cc:Agent>
    </dc:creator>
   </cc:Work>
  </rdf:RDF>
 </metadata>
 <defs>
  <style type="text/css">*{stroke-linecap:butt;stroke-linejoin:round;}</style>
 </defs>
 <g id="figure_1">
  <g id="patch_1">
   <path d="M 0 504 
L 1080 504 
L 1080 0 
L 0 0 
z
" style="fill:#ffffff;"/>
  </g>
  <g id="axes_1">
   <g id="patch_2">
    <path d="M 135 448.56 
L 972 448.56 
L 972 60.48 
L 135 60.48 
z
" style="fill:#ffffff;"/>
   </g>
   <g id="matplotlib.axis_1">
    <g id="xtick_1">
     <g id="line2d_1">
      <defs>
       <path d="M 0 0 
L 0 3.5 
" id="m07c2304de8" style="stroke:#000000;stroke-width:0.8;"/>
      </defs>
      <g>
       <use style="stroke:#000000;stroke-width:0.8;" x="135" xlink:href="#m07c2304de8" y="448.56"/>
      </g>
     </g>
     <g id="text_1">
      <!-- 0.0 -->
      <g transform="translate(120.687187 469.237188)scale(0.18 -0.18)">
       <defs>
        <path d="M 2034 4250 
Q 1547 4250 1301 3770 
Q 1056 3291 1056 2328 
Q 1056 1369 1301 889 
Q 1547 409 2034 409 
Q 2525 409 2770 889 
Q 3016 1369 3016 2328 
Q 3016 3291 2770 3770 
Q 2525 4250 2034 4250 
z
M 2034 4750 
Q 2819 4750 3233 4129 
Q 3647 3509 3647 2328 
Q 3647 1150 3233 529 
Q 2819 -91 2034 -91 
Q 1250 -91 836 529 
Q 422 1150 422 2328 
Q 422 3509 836 4129 
Q 1250 4750 2034 4750 
z
" id="DejaVuSans-30" transform="scale(0.015625)"/>
        <path d="M 684 794 
L 1344 794 
L 1344 0 
L 684 0 
L 684 794 
z
" id="DejaVuSans-2e" transform="scale(0.015625)"/>
       </defs>
       <use xlink:href="#DejaVuSans-30"/>
       <use x="63.623047" xlink:href="#DejaVuSans-2e"/>
       <use x="95.410156" xlink:href="#DejaVuSans-30"/>
      </g>
     </g>
    </g>
    <g id="xtick_2">
     <g id="line2d_2">
      <g>
       <use style="stroke:#000000;stroke-width:0.8;" x="302.4" xlink:href="#m07c2304de8" y="448.56"/>
      </g>
     </g>
     <g id="text_2">
      <!-- 0.2 -->
      <g transform="translate(288.087187 469.237188)scale(0.18 -0.18)">
       <defs>
        <path d="M 1228 531 
L 3431 531 
L 3431 0 
L 469 0 
L 469 531 
Q 828 903 1448 1529 
Q 2069 2156 2228 2338 
Q 2531 2678 2651 2914 
Q 2772 3150 2772 3378 
Q 2772 3750 2511 3984 
Q 2250 4219 1831 4219 
Q 1534 4219 1204 4116 
Q 875 4013 500 3803 
L 500 4441 
Q 881 4594 1212 4672 
Q 1544 4750 1819 4750 
Q 2544 4750 2975 4387 
Q 3406 4025 3406 3419 
Q 3406 3131 3298 2873 
Q 3191 2616 2906 2266 
Q 2828 2175 2409 1742 
Q 1991 1309 1228 531 
z
" id="DejaVuSans-32" transform="scale(0.015625)"/>
       </defs>
       <use xlink:href="#DejaVuSans-30"/>
       <use x="63.623047" xlink:href="#DejaVuSans-2e"/>
       <use x="95.410156" xlink:href="#DejaVuSans-32"/>
      </g>
     </g>
    </g>
    <g id="xtick_3">
     <g id="line2d_3">
      <g>
       <use style="stroke:#000000;stroke-width:0.8;" x="469.8" xlink:href="#m07c2304de8" y="448.56"/>
      </g>
     </g>
     <g id="text_3">
      <!-- 0.4 -->
      <g transform="translate(455.487188 469.237188)scale(0.18 -0.18)">
       <defs>
        <path d="M 2419 4116 
L 825 1625 
L 2419 1625 
L 2419 4116 
z
M 2253 4666 
L 3047 4666 
L 3047 1625 
L 3713 1625 
L 3713 1100 
L 3047 1100 
L 3047 0 
L 2419 0 
L 2419 1100 
L 313 1100 
L 313 1709 
L 2253 4666 
z
" id="DejaVuSans-34" transform="scale(0.015625)"/>
       </defs>
       <use xlink:href="#DejaVuSans-30"/>
       <use x="63.623047" xlink:href="#DejaVuSans-2e"/>
       <use x="95.410156" xlink:href="#DejaVuSans-34"/>
      </g>
     </g>
    </g>
    <g id="xtick_4">
     <g id="line2d_4">
      <g>
       <use style="stroke:#000000;stroke-width:0.8;" x="637.2" xlink:href="#m07c2304de8" y="448.56"/>
      </g>
     </g>
     <g id="text_4">
      <!-- 0.6 -->
      <g transform="translate(622.887188 469.237188)scale(0.18 -0.18)">
       <defs>
        <path d="M 2113 2584 
Q 1688 2584 1439 2293 
Q 1191 2003 1191 1497 
Q 1191 994 1439 701 
Q 1688 409 2113 409 
Q 2538 409 2786 701 
Q 3034 994 3034 1497 
Q 3034 2003 2786 2293 
Q 2538 2584 2113 2584 
z
M 3366 4563 
L 3366 3988 
Q 3128 4100 2886 4159 
Q 2644 4219 2406 4219 
Q 1781 4219 1451 3797 
Q 1122 3375 1075 2522 
Q 1259 2794 1537 2939 
Q 1816 3084 2150 3084 
Q 2853 3084 3261 2657 
Q 3669 2231 3669 1497 
Q 3669 778 3244 343 
Q 2819 -91 2113 -91 
Q 1303 -91 875 529 
Q 447 1150 447 2328 
Q 447 3434 972 4092 
Q 1497 4750 2381 4750 
Q 2619 4750 2861 4703 
Q 3103 4656 3366 4563 
z
" id="DejaVuSans-36" transform="scale(0.015625)"/>
       </defs>
       <use xlink:href="#DejaVuSans-30"/>
       <use x="63.623047" xlink:href="#DejaVuSans-2e"/>
       <use x="95.410156" xlink:href="#DejaVuSans-36"/>
      </g>
     </g>
    </g>
    <g id="xtick_5">
     <g id="line2d_5">
      <g>
       <use style="stroke:#000000;stroke-width:0.8;" x="804.6" xlink:href="#m07c2304de8" y="448.56"/>
      </g>
     </g>
     <g id="text_5">
      <!-- 0.8 -->
      <g transform="translate(790.287188 469.237188)scale(0.18 -0.18)">
       <defs>
        <path d="M 2034 2216 
Q 1584 2216 1326 1975 
Q 1069 1734 1069 1313 
Q 1069 891 1326 650 
Q 1584 409 2034 409 
Q 2484 409 2743 651 
Q 3003 894 3003 1313 
Q 3003 1734 2745 1975 
Q 2488 2216 2034 2216 
z
M 1403 2484 
Q 997 2584 770 2862 
Q 544 3141 544 3541 
Q 544 4100 942 4425 
Q 1341 4750 2034 4750 
Q 2731 4750 3128 4425 
Q 3525 4100 3525 3541 
Q 3525 3141 3298 2862 
Q 3072 2584 2669 2484 
Q 3125 2378 3379 2068 
Q 3634 1759 3634 1313 
Q 3634 634 3220 271 
Q 2806 -91 2034 -91 
Q 1263 -91 848 271 
Q 434 634 434 1313 
Q 434 1759 690 2068 
Q 947 2378 1403 2484 
z
M 1172 3481 
Q 1172 3119 1398 2916 
Q 1625 2713 2034 2713 
Q 2441 2713 2670 2916 
Q 2900 3119 2900 3481 
Q 2900 3844 2670 4047 
Q 2441 4250 2034 4250 
Q 1625 4250 1398 4047 
Q 1172 3844 1172 3481 
z
" id="DejaVuSans-38" transform="scale(0.015625)"/>
       </defs>
       <use xlink:href="#DejaVuSans-30"/>
       <use x="63.623047" xlink:href="#DejaVuSans-2e"/>
       <use x="95.410156" xlink:href="#DejaVuSans-38"/>
      </g>
     </g>
    </g>
    <g id="xtick_6">
     <g id="line2d_6">
      <g>
       <use style="stroke:#000000;stroke-width:0.8;" x="972" xlink:href="#m07c2304de8" y="448.56"/>
      </g>
     </g>
     <g id="text_6">
      <!-- 1.0 -->
      <g transform="translate(957.687188 469.237188)scale(0.18 -0.18)">
       <defs>
        <path d="M 794 531 
L 1825 531 
L 1825 4091 
L 703 3866 
L 703 4441 
L 1819 4666 
L 2450 4666 
L 2450 531 
L 3481 531 
L 3481 0 
L 794 0 
L 794 531 
z
" id="DejaVuSans-31" transform="scale(0.015625)"/>
       </defs>
       <use xlink:href="#DejaVuSans-31"/>
       <use x="63.623047" xlink:href="#DejaVuSans-2e"/>
       <use x="95.410156" xlink:href="#DejaVuSans-30"/>
      </g>
     </g>
    </g>
    <g id="text_7">
     <!-- $FPR_{Fair}$ -->
     <g transform="translate(518.08 493.697187)scale(0.22 -0.22)">
      <defs>
       <path d="M 1081 4666 
L 3756 4666 
L 3653 4134 
L 1606 4134 
L 1338 2759 
L 3188 2759 
L 3084 2228 
L 1234 2228 
L 800 0 
L 172 0 
L 1081 4666 
z
" id="DejaVuSans-Oblique-46" transform="scale(0.015625)"/>
       <path d="M 1081 4666 
L 2541 4666 
Q 3178 4666 3512 4369 
Q 3847 4072 3847 3500 
Q 3847 2731 3353 2303 
Q 2859 1875 1966 1875 
L 1172 1875 
L 806 0 
L 172 0 
L 1081 4666 
z
M 1613 4147 
L 1275 2394 
L 2069 2394 
Q 2606 2394 2893 2669 
Q 3181 2944 3181 3456 
Q 3181 3784 2986 3965 
Q 2791 4147 2438 4147 
L 1613 4147 
z
" id="DejaVuSans-Oblique-50" transform="scale(0.015625)"/>
       <path d="M 1613 4147 
L 1294 2491 
L 2106 2491 
Q 2584 2491 2879 2755 
Q 3175 3019 3175 3444 
Q 3175 3784 2976 3965 
Q 2778 4147 2406 4147 
L 1613 4147 
z
M 2772 2241 
Q 2972 2194 3105 2009 
Q 3238 1825 3413 1275 
L 3809 0 
L 3144 0 
L 2778 1197 
Q 2638 1659 2453 1815 
Q 2269 1972 1888 1972 
L 1191 1972 
L 806 0 
L 172 0 
L 1081 4666 
L 2503 4666 
Q 3150 4666 3495 4373 
Q 3841 4081 3841 3531 
Q 3841 3044 3547 2687 
Q 3253 2331 2772 2241 
z
" id="DejaVuSans-Oblique-52" transform="scale(0.015625)"/>
       <path d="M 3438 1997 
L 3047 0 
L 2472 0 
L 2578 531 
Q 2325 219 2001 64 
Q 1678 -91 1281 -91 
Q 834 -91 548 182 
Q 263 456 263 884 
Q 263 1497 752 1853 
Q 1241 2209 2100 2209 
L 2900 2209 
L 2931 2363 
Q 2938 2388 2941 2417 
Q 2944 2447 2944 2509 
Q 2944 2788 2717 2942 
Q 2491 3097 2081 3097 
Q 1800 3097 1504 3025 
Q 1209 2953 897 2809 
L 997 3341 
Q 1322 3463 1633 3523 
Q 1944 3584 2234 3584 
Q 2853 3584 3176 3315 
Q 3500 3047 3500 2534 
Q 3500 2431 3484 2292 
Q 3469 2153 3438 1997 
z
M 2816 1759 
L 2241 1759 
Q 1534 1759 1195 1570 
Q 856 1381 856 984 
Q 856 709 1029 553 
Q 1203 397 1509 397 
Q 1978 397 2328 733 
Q 2678 1069 2791 1631 
L 2816 1759 
z
" id="DejaVuSans-Oblique-61" transform="scale(0.015625)"/>
       <path d="M 1172 4863 
L 1747 4863 
L 1606 4134 
L 1031 4134 
L 1172 4863 
z
M 909 3500 
L 1484 3500 
L 800 0 
L 225 0 
L 909 3500 
z
" id="DejaVuSans-Oblique-69" transform="scale(0.015625)"/>
       <path d="M 2853 2969 
Q 2766 3016 2653 3041 
Q 2541 3066 2413 3066 
Q 1953 3066 1609 2717 
Q 1266 2369 1153 1784 
L 800 0 
L 225 0 
L 909 3500 
L 1484 3500 
L 1375 2956 
Q 1603 3259 1920 3421 
Q 2238 3584 2597 3584 
Q 2691 3584 2781 3573 
Q 2872 3563 2963 3538 
L 2853 2969 
z
" id="DejaVuSans-Oblique-72" transform="scale(0.015625)"/>
      </defs>
      <use transform="translate(0 0.09375)" xlink:href="#DejaVuSans-Oblique-46"/>
      <use transform="translate(57.519531 0.09375)" xlink:href="#DejaVuSans-Oblique-50"/>
      <use transform="translate(117.822266 0.09375)" xlink:href="#DejaVuSans-Oblique-52"/>
      <use transform="translate(187.304688 -16.3125)scale(0.7)" xlink:href="#DejaVuSans-Oblique-46"/>
      <use transform="translate(227.568359 -16.3125)scale(0.7)" xlink:href="#DejaVuSans-Oblique-61"/>
      <use transform="translate(270.463867 -16.3125)scale(0.7)" xlink:href="#DejaVuSans-Oblique-69"/>
      <use transform="translate(289.912109 -16.3125)scale(0.7)" xlink:href="#DejaVuSans-Oblique-72"/>
     </g>
    </g>
   </g>
   <g id="matplotlib.axis_2">
    <g id="ytick_1">
     <g id="line2d_7">
      <defs>
       <path d="M 0 0 
L -3.5 0 
" id="m0eb1fe2525" style="stroke:#000000;stroke-width:0.8;"/>
      </defs>
      <g>
       <use style="stroke:#000000;stroke-width:0.8;" x="135" xlink:href="#m0eb1fe2525" y="448.56"/>
      </g>
     </g>
     <g id="text_8">
      <!-- 0.0 -->
      <g transform="translate(99.374375 455.398594)scale(0.18 -0.18)">
       <use xlink:href="#DejaVuSans-30"/>
       <use x="63.623047" xlink:href="#DejaVuSans-2e"/>
       <use x="95.410156" xlink:href="#DejaVuSans-30"/>
      </g>
     </g>
    </g>
    <g id="ytick_2">
     <g id="line2d_8">
      <g>
       <use style="stroke:#000000;stroke-width:0.8;" x="135" xlink:href="#m0eb1fe2525" y="370.944"/>
      </g>
     </g>
     <g id="text_9">
      <!-- 0.2 -->
      <g transform="translate(99.374375 377.782594)scale(0.18 -0.18)">
       <use xlink:href="#DejaVuSans-30"/>
       <use x="63.623047" xlink:href="#DejaVuSans-2e"/>
       <use x="95.410156" xlink:href="#DejaVuSans-32"/>
      </g>
     </g>
    </g>
    <g id="ytick_3">
     <g id="line2d_9">
      <g>
       <use style="stroke:#000000;stroke-width:0.8;" x="135" xlink:href="#m0eb1fe2525" y="293.328"/>
      </g>
     </g>
     <g id="text_10">
      <!-- 0.4 -->
      <g transform="translate(99.374375 300.166594)scale(0.18 -0.18)">
       <use xlink:href="#DejaVuSans-30"/>
       <use x="63.623047" xlink:href="#DejaVuSans-2e"/>
       <use x="95.410156" xlink:href="#DejaVuSans-34"/>
      </g>
     </g>
    </g>
    <g id="ytick_4">
     <g id="line2d_10">
      <g>
       <use style="stroke:#000000;stroke-width:0.8;" x="135" xlink:href="#m0eb1fe2525" y="215.712"/>
      </g>
     </g>
     <g id="text_11">
      <!-- 0.6 -->
      <g transform="translate(99.374375 222.550594)scale(0.18 -0.18)">
       <use xlink:href="#DejaVuSans-30"/>
       <use x="63.623047" xlink:href="#DejaVuSans-2e"/>
       <use x="95.410156" xlink:href="#DejaVuSans-36"/>
      </g>
     </g>
    </g>
    <g id="ytick_5">
     <g id="line2d_11">
      <g>
       <use style="stroke:#000000;stroke-width:0.8;" x="135" xlink:href="#m0eb1fe2525" y="138.096"/>
      </g>
     </g>
     <g id="text_12">
      <!-- 0.8 -->
      <g transform="translate(99.374375 144.934594)scale(0.18 -0.18)">
       <use xlink:href="#DejaVuSans-30"/>
       <use x="63.623047" xlink:href="#DejaVuSans-2e"/>
       <use x="95.410156" xlink:href="#DejaVuSans-38"/>
      </g>
     </g>
    </g>
    <g id="ytick_6">
     <g id="line2d_12">
      <g>
       <use style="stroke:#000000;stroke-width:0.8;" x="135" xlink:href="#m0eb1fe2525" y="60.48"/>
      </g>
     </g>
     <g id="text_13">
      <!-- 1.0 -->
      <g transform="translate(99.374375 67.318594)scale(0.18 -0.18)">
       <use xlink:href="#DejaVuSans-31"/>
       <use x="63.623047" xlink:href="#DejaVuSans-2e"/>
       <use x="95.410156" xlink:href="#DejaVuSans-30"/>
      </g>
     </g>
    </g>
    <g id="text_14">
     <!-- $TPR_{Fair}$ -->
     <g transform="translate(90.799062 290.27)rotate(-90)scale(0.22 -0.22)">
      <defs>
       <path d="M 378 4666 
L 4325 4666 
L 4225 4134 
L 2559 4134 
L 1759 0 
L 1125 0 
L 1925 4134 
L 275 4134 
L 378 4666 
z
" id="DejaVuSans-Oblique-54" transform="scale(0.015625)"/>
      </defs>
      <use transform="translate(0 0.09375)" xlink:href="#DejaVuSans-Oblique-54"/>
      <use transform="translate(61.083984 0.09375)" xlink:href="#DejaVuSans-Oblique-50"/>
      <use transform="translate(121.386719 0.09375)" xlink:href="#DejaVuSans-Oblique-52"/>
      <use transform="translate(190.869141 -16.3125)scale(0.7)" xlink:href="#DejaVuSans-Oblique-46"/>
      <use transform="translate(231.132812 -16.3125)scale(0.7)" xlink:href="#DejaVuSans-Oblique-61"/>
      <use transform="translate(274.02832 -16.3125)scale(0.7)" xlink:href="#DejaVuSans-Oblique-69"/>
      <use transform="translate(293.476562 -16.3125)scale(0.7)" xlink:href="#DejaVuSans-Oblique-72"/>
     </g>
    </g>
   </g>
   <g id="line2d_13">
    <path clip-path="url(#p56f6a7a336)" d="M 135 448.56 
L 972 60.48 
" style="fill:none;stroke:#ff0000;stroke-dasharray:5.55,2.4;stroke-dashoffset:0;stroke-width:1.5;"/>
   </g>
   <g id="line2d_14">
    <path clip-path="url(#p56f6a7a336)" d="M 972 60.48 
L 972 60.48 
L 922.764706 60.48 
L 879 60.48 
L 879 60.48 
L 873.529412 60.48 
L 873.529412 60.48 
L 873.529412 60.48 
L 873.529412 60.48 
L 873.529412 115.92 
L 832.5 138.096 
L 832.5 138.096 
L 832.5 138.096 
L 832.5 143.64 
L 832.5 143.64 
L 832.5 143.64 
L 824.294118 143.64 
L 824.294118 143.64 
L 824.294118 143.64 
L 815.0625 143.64 
L 815.0625 143.64 
L 739.5 143.64 
L 739.5 143.64 
L 739.5 143.64 
L 707.684211 143.64 
L 693 143.64 
L 693 143.64 
L 693 150.036923 
L 693 206.01 
L 676.588235 232.96 
L 658.125 254.52 
L 658.125 264.732632 
L 658.125 264.732632 
L 627.352941 264.732632 
L 627.352941 273.924 
L 605.8125 282.24 
L 605.8125 289.8 
L 605.8125 289.8 
L 605.8125 289.8 
L 605.8125 313.575652 
L 605.8125 333.573333 
L 605.8125 333.573333 
L 605.8125 333.573333 
L 581.4 333.573333 
L 581.4 337.68 
L 553.5 337.68 
L 553.5 347.946667 
L 521.307692 354.885517 
L 483.75 354.885517 
L 483.75 370.944 
L 483.75 375.795 
L 483.75 378 
L 483.75 380.075294 
L 483.75 382.032 
L 483.75 382.032 
L 483.75 394.66 
L 483.75 397.496842 
L 483.75 406.605405 
L 483.75 406.605405 
L 483.75 407.709474 
L 483.75 409.752 
L 439.363636 409.752 
L 439.363636 409.752 
L 386.1 409.752 
L 386.1 409.752 
L 321 409.752 
L 321 409.752 
L 239.625 409.752 
L 239.625 418.707692 
L 239.625 418.707692 
L 239.625 418.707692 
L 239.625 418.707692 
L 239.625 418.707692 
L 239.625 418.707692 
L 239.625 418.707692 
L 239.625 418.707692 
L 239.625 428.134737 
L 239.625 428.134737 
L 239.625 428.134737 
L 239.625 428.134737 
L 239.625 428.134737 
L 228 428.134737 
L 228 428.134737 
L 228 428.134737 
L 228 428.134737 
L 228 428.134737 
L 228 428.134737 
L 135 428.134737 
L 135 428.134737 
L 135 428.134737 
L 135 428.134737 
L 135 428.134737 
L 135 428.134737 
L 135 428.134737 
L 135 428.134737 
L 135 428.134737 
L 135 428.134737 
L 135 428.134737 
L 135 428.134737 
L 135 428.134737 
L 135 428.134737 
" style="fill:none;stroke:#1f77b4;stroke-linecap:square;stroke-width:1.5;"/>
   </g>
   <g id="line2d_15">
    <path clip-path="url(#p56f6a7a336)" d="M 972 60.48 
L 725.305263 134.793191 
L 596.912863 192.109474 
L 512.359322 219.797053 
L 463.821429 250.049032 
L 415.460733 272.01541 
L 382.206977 291.9168 
L 352.584906 302.536678 
L 330.138728 318.41122 
L 313.085106 331.923934 
L 299.905629 340.92458 
L 286.592879 352.869041 
L 275.929722 358.231034 
L 266.495902 365.51088 
L 259.521345 370.2048 
L 252.815177 375.232941 
L 245.8223 379.306667 
L 238.242291 382.730598 
L 232.591387 387.626707 
L 226.200611 391.108389 
L 222.459961 393.12 
L 216.829609 396.045792 
L 211.56861 398.073903 
L 207.377568 399.555 
L 202.678218 400.901053 
L 197.857708 402.764672 
L 194.967988 404.774252 
L 192.702743 406.739096 
L 189.272334 408.533812 
L 186.471698 410.006201 
L 184.301963 411.164711 
L 182.303856 412.544234 
L 180.624919 413.494904 
L 179.108571 414.08982 
L 177.923077 414.928919 
L 176.51684 416.0352 
L 175.288809 417.571253 
L 174.411418 418.246757 
L 173.045455 418.787583 
L 171.432448 419.598806 
L 170.745424 420.220825 
L 169.284544 421.309036 
L 168.246377 421.917618 
L 166.902594 422.201047 
L 165.436364 422.873684 
L 163.416667 423.23717 
L 163.041624 424.116392 
L 161.391892 425.138824 
L 160.114117 425.421645 
L 159.307841 425.936502 
L 158.662195 426.302471 
L 158.393179 426.72 
L 157.65329 427.447559 
L 156.590051 428.250297 
L 155.934516 428.859138 
L 155.322842 429.395556 
L 154.716 429.967773 
L 154.542291 430.660588 
L 154.320993 431.118202 
L 153.744186 431.565647 
L 153.505102 431.806546 
L 152.643339 432.183223 
L 152.117279 432.440881 
L 151.615385 432.862925 
L 151.492611 433.947111 
L 150.978473 434.098864 
L 150.481303 434.2128 
L 149.304849 434.367626 
L 149.158537 434.658627 
L 148.987952 435.035653 
L 148.853349 435.350704 
L 148.417557 435.473581 
L 147.643505 435.579239 
L 147.525253 435.890722 
L 147.098962 436.069565 
L 146.965909 436.11874 
L 146.570025 436.67559 
L 146.465753 436.838748 
L 146.4 437.164502 
L 146.02492 437.477974 
L 145.939244 437.619447 
L 145.885413 437.910839 
L 145.52095 438.027557 
L 145.136678 438.157856 
L 144.809721 438.619426 
L 144.742554 438.685191 
L 144.679592 439.203978 
L 144.328267 439.485493 
L 143.969859 439.748707 
L 143.093698 440.007796 
L 142.208347 440.274934 
L 141.89911 440.494538 
L 141.85616 440.73881 
L 141.543322 440.96874 
L 141.240194 441.244637 
L 140.9209 441.309556 
L 140.615655 441.7041 
L 140.578229 441.745287 
L 140.541299 441.976341 
L 140.255887 442.027261 
L 140.239437 442.080325 
" style="fill:none;stroke:#ff7f0e;stroke-linecap:square;stroke-width:1.5;"/>
   </g>
   <g id="line2d_16">
    <path clip-path="url(#p56f6a7a336)" d="M 972 60.48 
L 972 60.48 
L 968.526971 60.48 
L 965.053942 60.48 
L 964.90678 60.48 
L 964.689956 60.48 
L 964.59292 62.301972 
L 964.425339 62.310566 
L 964.213953 62.336842 
L 964.103774 66.024 
L 960.099526 67.872 
L 959.985646 67.943077 
L 959.869565 67.97913 
L 959.75122 68.089412 
L 959.75122 69.991765 
L 959.75122 71.950345 
L 959.691176 71.950345 
L 959.38191 73.862069 
L 959.188776 73.995224 
L 958.853403 76.081206 
L 958.853403 77.9436 
L 958.353261 78.3 
L 958.05 80.381538 
L 957.893258 84.24 
L 952.868571 86.352 
L 952.305882 86.620104 
L 952.071429 88.7775 
L 951.831325 89.075368 
L 951.460123 95.202947 
L 951.204969 100.905 
L 950.538462 104.9475 
L 950.117647 105.415579 
L 949.827815 105.415579 
L 949.22449 105.415579 
L 949.068493 107.458105 
L 948.910345 109.500632 
L 948.422535 112.086383 
L 947.913669 112.086383 
L 947.382353 112.086383 
L 946.827068 115.92 
L 946.636364 122.814093 
L 946.046512 123.466806 
L 945.84375 123.798316 
L 945.216 123.798316 
L 944.557377 125.840842 
L 943.627119 127.530471 
L 943.627119 128.600426 
L 942.371681 133.115294 
L 941.563636 135.190588 
L 941.284404 139.765161 
L 941 143.050213 
L 940.71028 145.114468 
L 940.415094 147.642353 
L 939.807692 150.197419 
L 939.495146 151.172609 
L 938.851485 155.39087 
L 938.52 159.073297 
L 938.181818 160.698462 
L 937.836735 161.812 
L 937.125 163.968 
L 937.125 170.436 
L 936.382979 171.671461 
L 935.608696 172.299661 
L 935.208791 173.5776 
L 934.8 176.223158 
L 933.954545 176.904 
L 933.069767 176.904 
L 931.662651 176.904 
L 931.662651 178.29 
L 931.662651 178.995449 
L 931.662651 180.432 
L 931.170732 180.432 
L 930.15 180.432 
L 930.15 184.284663 
L 929.076923 186.665521 
L 926.756757 189.84 
L 925.5 192.235556 
L 924.84507 192.235556 
L 924.84507 195.571139 
L 922.029851 197.303077 
L 921.272727 198.185806 
L 907.615385 199.985882 
L 906.609375 200.903684 
L 904.5 202.776 
L 902.25 204.698919 
L 902.25 204.698919 
L 899.844828 208.705 
L 897.267857 209.741538 
L 894.5 214.611064 
L 886.591837 217.961739 
L 881.021739 220.277647 
L 879 224.336 
L 879 226.8 
L 874.674419 228.06 
L 869.926829 230.638154 
L 867.375 231.957209 
L 864.692308 234.657638 
L 858.891892 237.713386 
L 858.891892 242.00129 
L 855.75 244.977049 
L 855.75 244.977049 
" style="fill:none;stroke:#2ca02c;stroke-linecap:square;stroke-width:1.5;"/>
   </g>
   <g id="line2d_17">
    <path clip-path="url(#p56f6a7a336)" d="M 972 60.48 
L 881.021739 82.977391 
L 809.403974 106.074098 
L 751.736842 123.466806 
L 707.348571 140.60597 
L 660.176471 160.220187 
L 627.852792 177.42375 
L 591.545455 184.767059 
L 561.831547 200.123849 
L 540.518464 213.078323 
L 519.11898 225.097428 
L 498.077027 238.498349 
L 483.015789 246.977809 
L 464.311475 258.493515 
L 450.27339 265.745455 
L 435.3125 274.232 
L 418.619205 279.567154 
L 402.947537 285.835656 
L 391.737824 294.685714 
L 382.025355 300.614851 
L 373.557297 304.508144 
L 358.72891 309.506812 
L 349.654982 312.784021 
L 339.583408 316.663529 
L 330.106586 319.533402 
L 319.74642 322.335 
L 312.545455 326.341581 
L 306.692308 329.113869 
L 301.087059 333.26087 
L 293.940276 336.039763 
L 286.897685 338.39243 
L 282.341716 341.67168 
L 277.532609 344.525206 
L 272.203293 346.008158 
L 269.486258 349.030862 
L 264.799026 351.334884 
L 260.894918 354.747273 
L 256.107505 357.016935 
L 251.868351 359.151301 
L 248.687008 360.843288 
L 245.771465 362.855908 
L 242.431034 364.928393 
L 239.164676 367.484791 
L 235.377264 368.156685 
L 232.170147 370.664554 
L 228.565006 371.70562 
L 226.088271 374.034903 
L 222.208383 376.303846 
L 218.946903 377.696124 
L 217.049304 379.472504 
L 215.194492 380.94 
L 213.809983 382.538091 
L 211.771812 384.361489 
L 209.913812 385.945946 
L 207.643559 387.961748 
L 206.031892 389.477308 
L 204.71276 391.066667 
L 203.715572 392.642443 
L 202.592029 393.976878 
L 199.819647 394.980686 
L 198.428571 396.425479 
L 196.96856 397.978787 
L 195.627767 398.865078 
L 194.6665 399.8363 
L 193.395349 401.571466 
L 191.919276 402.293237 
L 190.231441 402.592161 
L 187.913793 403.210708 
L 186.666667 404.012789 
L 184.929075 405.138462 
L 184.120633 405.949409 
L 183.347967 406.18499 
L 180.989011 406.504691 
L 179.852861 407.500341 
L 178.69577 408.233198 
L 175.875 408.576 
L 174.11215 410.012456 
L 173.448763 411.30432 
L 172.142794 412.459535 
L 170.164989 413.18679 
L 169.556714 414.22789 
L 168.32064 414.978582 
L 167.012462 415.718605 
L 165.643678 416.530365 
L 164.829444 417.335172 
L 163.862069 418.0064 
L 163.040201 419.478438 
L 161.85375 420.406604 
L 160.98303 421.479028 
L 158.835328 422.559603 
L 157.686653 423.453161 
L 157.206122 423.991936 
L 157.079951 424.838729 
L 156.29685 425.218615 
L 155.193004 425.883036 
L 154.674502 426.430588 
L 153.887173 426.948359 
L 153.131154 427.320642 
L 152.369225 428.352284 
L 151.942001 429.156 
L 151.558185 429.292009 
" style="fill:none;stroke:#d62728;stroke-linecap:square;stroke-width:1.5;"/>
   </g>
   <g id="line2d_18">
    <path clip-path="url(#p56f6a7a336)" d="M 972 60.48 
L 972 60.48 
L 970.230444 60.48 
L 968.438298 60.48 
L 968.4 60.48 
L 968.33698 60.48 
L 968.288248 61.426537 
L 968.238202 61.428851 
L 968.16055 61.445373 
L 968.097902 63.376119 
L 966.06383 64.370526 
L 966.00716 64.419898 
L 965.920097 64.44 
L 965.845588 64.512 
L 965.815271 65.559581 
L 965.769231 66.64 
L 965.7225 66.705882 
L 965.578005 67.822054 
L 965.477922 67.963636 
L 965.37467 69.128022 
L 965.339523 70.263529 
L 965.158038 70.4025 
L 965.082645 71.53641 
L 964.966387 73.71 
L 962.515581 74.853333 
L 962.295652 74.977241 
L 962.181818 76.228174 
L 962.094675 76.32 
L 961.976048 79.714286 
L 961.761468 82.977391 
L 961.5375 85.22713 
L 961.33758 85.444211 
L 961.2 85.517419 
L 960.986842 85.591059 
L 960.877076 86.887811 
L 960.689189 88.035976 
L 960.494845 89.441194 
L 960.252632 89.441194 
L 960.042857 89.615135 
L 959.825455 91.851737 
L 959.691176 96.073136 
L 959.507463 96.391881 
L 959.318182 96.936 
L 959.023256 96.936 
L 958.870588 98.341463 
L 958.554217 99.524634 
L 958.278689 100.252174 
L 957.873418 103.193208 
L 957.568966 104.413585 
L 957.315789 107.000631 
L 957.12 109.604051 
L 956.986547 110.992 
L 956.781818 113.058581 
L 956.5 115.014118 
L 956.207547 115.92 
L 956.057143 118.692 
L 955.826087 121.2792 
L 955.668293 122.309695 
L 955.507389 122.731741 
L 955.090909 124.273973 
L 954.918367 128.261096 
L 954.742268 129.2025 
L 954.471204 129.441951 
L 954.191489 130.416678 
L 953.902703 131.674532 
L 953.604396 131.931552 
L 952.977273 132.190435 
L 952.305882 132.190435 
L 951.831325 133.245 
L 951.333333 134.056506 
L 951.204969 134.60764 
L 950.810127 134.886316 
L 949.973684 134.886316 
L 949.68 137.210646 
L 949.378378 139.285517 
L 948.255319 141.947176 
L 947.382353 143.53214 
L 946.827068 145.18 
L 946.046512 146.546129 
L 945 147.245854 
L 944.557377 149.415 
L 943.865546 150.162353 
L 943.137931 151.307234 
L 942.371681 152.88 
L 941 154.924248 
L 940.415094 156.194798 
L 939.807692 158.84129 
L 938.851485 160.688451 
L 937.836735 165.467826 
L 935.608696 167.536552 
L 933.954545 170.24 
L 933.517241 173.34 
L 933.517241 175.094301 
L 932.611765 175.69125 
L 931.170732 177.52 
L 929.620253 180.050595 
L 927.947368 181.357377 
L 926.756757 184.153846 
L 925.5 187.647458 
L 924.84507 189.84 
L 923.478261 189.84 
" style="fill:none;stroke:#9467bd;stroke-linecap:square;stroke-width:1.5;"/>
   </g>
   <g id="line2d_19">
    <path clip-path="url(#p56f6a7a336)" d="M 972 60.48 
L 972 60.48 
L 970.576531 60.48 
L 969.133562 60.48 
L 969.098787 60.48 
L 969.057996 60.48 
L 969.021352 60.48 
L 968.967391 60.48 
L 968.911439 60.48 
L 968.871028 62.035431 
L 967.244318 62.836761 
L 967.189655 62.860859 
L 967.114786 62.870637 
L 967.057087 62.910564 
L 967.027723 62.931032 
L 966.988024 62.973019 
L 966.9375 63 
L 966.82268 63.044405 
L 966.735849 63.084564 
L 966.657447 63.126 
L 966.611588 63.144165 
L 966.481319 63.175 
L 966.407572 63.212958 
L 966.319005 63.219388 
L 964.356164 63.245416 
L 964.17757 63.265263 
L 964.085106 63.292174 
L 964.009547 63.305825 
L 963.913043 66.13165 
L 963.753695 68.015534 
L 963.524051 69.899417 
L 963.348837 69.968509 
L 963.235602 70.015135 
L 963.072 70.062222 
L 962.975741 71.072754 
L 962.852459 72.035732 
L 962.725762 73.0926 
L 962.569014 73.22 
L 962.37931 73.28467 
L 962.152941 75.254619 
L 962.065282 79.053098 
L 961.854545 79.194518 
L 961.698462 79.483918 
L 961.504702 79.533023 
L 961.371429 80.64 
L 961.12987 80.798325 
L 960.950495 81.1776 
L 960.573379 83.680435 
L 960.334495 83.807213 
L 960.12766 85.997589 
L 960 88.276364 
L 959.913357 89.586 
L 959.781022 91.175593 
L 959.553903 92.6352 
L 959.318182 93.101217 
L 959.221374 95.554286 
L 959.073359 97.926316 
L 958.972763 98.481899 
L 958.870588 98.823234 
L 958.554217 100.223133 
L 958.445344 102.688097 
L 958.278689 103.204404 
L 958.107884 103.33546 
L 957.932773 104.002991 
L 957.753191 104.691646 
L 957.379913 104.832 
L 956.986547 104.973248 
L 956.35514 105.115399 
L 955.980861 105.693204 
L 955.507389 106.136471 
L 955.425743 106.588515 
L 955.090909 106.894884 
L 954.285714 106.894884 
L 954.096257 107.678919 
L 953.704918 108.489897 
L 952.977273 108.655448 
L 952.305882 109.500632 
L 951.831325 110.554839 
L 951.333333 111.2832 
L 950.675159 111.655385 
L 950.4 113.002105 
L 949.973684 113.601217 
L 949.22449 114.421622 
L 948.587413 115.483465 
L 947.562044 116.587952 
L 947.2 117.272195 
L 946.636364 118.935565 
L 946.046512 119.930553 
L 945.216 121.755789 
L 943.627119 122.85 
L 942.631579 124.273973 
L 942.107143 125.460837 
L 942.107143 126.692701 
L 941 127.008 
L 939.807692 127.972174 
L 938.851485 129.642772 
L 937.125 130.685427 
L 936 131.398173 
L 935.208791 133.245 
L 934.382022 135.190588 
L 933.517241 135.99827 
" style="fill:none;stroke:#8c564b;stroke-linecap:square;stroke-width:1.5;"/>
   </g>
   <g id="line2d_20">
    <path clip-path="url(#p56f6a7a336)" d="M 972 60.48 
L 915.053915 76.754323 
L 870.700489 91.308785 
L 829.407235 102.354894 
L 798.372041 115.595315 
L 764.803708 131.782216 
L 733.608377 145.142439 
L 702.3 154.172137 
L 677.896654 166.591733 
L 656.818444 178.820444 
L 635.015843 188.751635 
L 613.07027 202.046582 
L 596.385159 210.34125 
L 574.924915 220.352087 
L 558.358209 227.036166 
L 542.734727 235.741935 
L 527.997656 243.291289 
L 510.821918 250.662346 
L 495.85108 258.656512 
L 483.699199 264.8688 
L 472.653409 269.390355 
L 457.950729 274.371097 
L 446.95723 278.399125 
L 433.889109 282.784987 
L 423.527706 285.77246 
L 410.481715 290.366071 
L 401.247684 293.726712 
L 393.672131 297.313333 
L 386.249553 301.710272 
L 376.658679 305.418305 
L 367.47326 308.085537 
L 361.409453 311.62623 
L 354.124719 314.533906 
L 347.851749 317.047262 
L 343.442975 320.161784 
L 337.991843 322.604211 
L 333.213132 325.993727 
L 326.747469 328.235837 
L 320.609038 330.47241 
L 315.572173 332.646985 
L 310.938176 334.885341 
L 306.078181 337.081861 
L 301.550254 339.969993 
L 297.081694 341.273333 
L 292.562749 344.047865 
L 288.236022 346.038866 
L 284.861289 348.306 
L 279.409091 351.416408 
L 274.769305 353.255 
L 270.296987 354.759825 
L 267.680589 356.836377 
L 265.130108 359.094592 
L 262.572491 360.974972 
L 259.413714 362.870803 
L 256.099498 365.049114 
L 253.868385 366.871127 
L 251.19794 368.942181 
L 249.5251 370.718372 
L 247.410832 372.062386 
L 244.332896 373.741373 
L 242.066551 375.74 
L 239.80446 377.186457 
L 237.933191 378.352408 
L 235.919899 380.024901 
L 234.132297 381.502841 
L 231.026283 382.364338 
L 228.077178 383.004526 
L 224.247839 383.671355 
L 221.952147 384.953958 
L 218.427583 386.186312 
L 216.74092 387.035122 
L 214.874098 387.865024 
L 210.360144 388.214576 
L 209.156138 389.508744 
L 207.007103 390.999814 
L 203.983516 391.524604 
L 201.64637 393.318 
L 199.384615 394.862159 
L 197.54007 396.100945 
L 195.708333 396.803077 
L 194.716916 398.460298 
L 193.484536 399.355974 
L 191.562642 400.454052 
L 189.854237 401.846667 
L 187.922845 403.114286 
L 186.31514 404.041626 
L 184.858526 405.854416 
L 183.36 406.900649 
L 181.534242 408.311931 
L 179.262945 409.274702 
L 177.217105 410.409144 
L 176.423581 411.374317 
L 175.88097 412.256913 
L 174.498199 412.640037 
L 172.867864 413.766621 
L 171.404278 414.798462 
L 169.442001 415.599781 
L 167.864167 416.13188 
L 167.090397 417.141493 
L 166.086896 418.29046 
L 165.143706 418.854682 
" style="fill:none;stroke:#e377c2;stroke-linecap:square;stroke-width:1.5;"/>
   </g>
   <g id="line2d_21">
    <path clip-path="url(#p56f6a7a336)" d="M 972 60.48 
L 943.610526 65.6544 
L 913.029545 74.581744 
L 886.249443 79.52 
L 859.974973 86.865042 
L 834.889722 93.681795 
L 812.697161 102.825746 
L 790.043478 107.198249 
L 769.582653 113.953506 
L 753.652174 122.22 
L 735.348214 127.568298 
L 716.588921 135.345827 
L 700.497121 141.706047 
L 681.211268 150.075 
L 665.536339 155.909508 
L 649.382749 162.964205 
L 633.669596 167.769863 
L 615.968076 172.666898 
L 602.777304 178.196005 
L 590.778151 182.352414 
L 577.551724 187.007299 
L 562.289176 190.938932 
L 547.884767 194.381695 
L 531 198.847059 
L 517.916479 201.473094 
L 501.921033 204.557605 
L 491.454942 207.571108 
L 481.757143 210.378199 
L 470.974737 214.342306 
L 460.177978 217.073684 
L 448.233129 220.118934 
L 440.805142 224.5824 
L 431.565975 228.239187 
L 423.984095 230.782222 
L 418.972277 234.446897 
L 411.996736 237.423965 
L 405.714655 241.584 
L 397.399232 243.951373 
L 390.015171 246.338854 
L 383.894605 249.331765 
L 377.563433 252.885979 
L 371.487353 255.333585 
L 365.418761 259.360915 
L 359.560976 260.558589 
L 352.801082 263.89295 
L 346.252392 265.699259 
L 342.257143 268.365667 
L 335.681306 272.742539 
L 328.645332 274.882222 
L 322.947644 277.488 
L 319.227036 279.812383 
L 316.206186 282.968736 
L 312.531109 285.715511 
L 308.220976 288.232 
L 304.170935 290.9025 
L 300.361926 293.639398 
L 296.896438 296.182664 
L 294.016331 298.41 
L 291.089189 300.829349 
L 287.304348 303.315914 
L 284.273885 306.440859 
L 281.486031 308.093971 
L 278.22292 309.826087 
L 275.584759 312.844162 
L 272.986047 314.970923 
L 268.609681 316.479235 
L 264.494877 317.601445 
L 258.889624 319.077732 
L 255.355701 321.032295 
L 250.795489 322.98317 
L 248.512668 324.315932 
L 246.076961 325.412203 
L 240.552709 325.759099 
L 238.858329 327.58107 
L 236.07323 330.464494 
L 231.63913 331.267164 
L 228.268012 334.163284 
L 225.292124 336.752565 
L 222.916825 338.502095 
L 220.440454 340.141721 
L 219.053496 343.208643 
L 217.526636 344.475871 
L 215.158996 346.546324 
L 212.249654 349.225761 
L 209.932164 351.272727 
L 207.782609 353.049003 
L 205.958067 356.562834 
L 203.674977 358.30067 
L 201.039225 360.679565 
L 198.226619 362.007253 
L 195.320949 364.546304 
L 193.959429 366.303913 
L 193.145575 367.98854 
L 191.095238 368.84627 
L 189.011853 371.36129 
L 187.039565 373.929231 
L 184.597318 375.59957 
L 182.64295 376.488 
L 181.3006 378.657391 
L 180.069231 380.54242 
L 178.262281 381.471702 
" style="fill:none;stroke:#7f7f7f;stroke-linecap:square;stroke-width:1.5;"/>
   </g>
   <g id="line2d_22">
    <path clip-path="url(#p56f6a7a336)" d="M 972 60.48 
L 972 60.48 
L 970.150276 60.48 
L 969.191275 60.48 
L 969.156285 60.48 
L 969.103806 60.48 
L 969.063158 60.48 
L 969.007151 60.48 
L 968.956364 60.48 
L 968.911439 62.6976 
L 967.840994 63.28 
L 967.799247 63.308571 
L 967.735032 63.325161 
L 967.674419 63.36321 
L 967.634941 63.389145 
L 967.600526 63.433425 
L 967.565563 63.469831 
L 967.487871 64.112574 
L 967.407407 64.764795 
L 967.356449 64.819553 
L 967.324022 65.471383 
L 967.237553 66.15922 
L 967.168831 66.215172 
L 967.098097 66.894545 
L 965.8 66.948 
L 965.639818 67.013333 
L 965.541667 67.08 
L 965.460938 68.427031 
L 965.378165 70.482062 
L 965.21718 72.503133 
L 965.059701 74.506988 
L 964.930743 74.579792 
L 964.796902 74.62875 
L 964.683566 75.354146 
L 964.566607 76.111944 
L 964.473022 76.820211 
L 964.363139 77.682128 
L 964.192164 78.498 
L 964.058824 78.562581 
L 963.936416 79.953548 
L 963.777996 82.616471 
L 963.646707 82.81554 
L 963.493902 83.100328 
L 963.317427 83.224615 
L 963.189474 84.064972 
L 962.961123 84.284164 
L 962.842451 84.689149 
L 962.595506 87.244138 
L 962.37931 87.555349 
L 962.199063 89.170739 
L 962.082938 90.917647 
L 962.011933 91.925217 
L 961.915663 93.144048 
L 961.767726 94.976 
L 961.615385 95.399264 
L 961.405063 98.01037 
L 961.241645 99.769091 
L 961.101562 100.179207 
L 960.986842 100.597975 
L 960.81016 101.765106 
L 960.719677 103.878194 
L 960.534247 104.254751 
L 960.375 104.44549 
L 960.277311 105.225366 
L 960.110795 106.59713 
L 959.763158 106.909436 
L 959.47006 107.785463 
L 959.043344 108.216492 
L 958.798107 108.766452 
L 958.323529 109.329231 
L 958.188119 109.673239 
L 958.003344 110.139526 
L 957.367133 110.139526 
L 957.212014 110.855769 
L 956.946043 111.717946 
L 956.384328 112.666797 
L 955.965517 113.841 
L 955.523622 114.653604 
L 955.125 115.349923 
L 954.706612 116.064375 
L 954.5625 117.3984 
L 954.266949 117.857419 
L 953.804348 118.957808 
L 953.233184 120.101229 
L 952.714286 121.1175 
L 952.352113 121.814483 
L 951.976077 123.257647 
L 951.485294 124.005 
L 950.756345 125.55439 
L 949.857143 126.357778 
L 949.005495 127.812492 
L 948.620112 128.891538 
L 948.488764 130.232941 
L 947.809249 130.691842 
L 946.94012 132.346667 
L 946.166667 135.162062 
L 945.173077 136.467692 
L 944.284768 137.002817 
L 943.530612 138.374194 
L 942.734266 140.086154 
L 941.673913 140.970667 
" style="fill:none;stroke:#bcbd22;stroke-linecap:square;stroke-width:1.5;"/>
   </g>
   <g id="line2d_23">
    <path clip-path="url(#p56f6a7a336)" d="M 972 60.48 
L 937.624642 70.619857 
L 904.051661 82.463723 
L 874.149281 92.16 
L 848.955106 102.075315 
L 823.698358 113.285702 
L 798.243038 124.615326 
L 774 131.440909 
L 749.386419 140.472 
L 729.535714 151.044846 
L 711.657854 159.677034 
L 691.519333 171.0975 
L 676.07191 178.450565 
L 657.204545 186.897325 
L 641.779698 193.198496 
L 626.79661 199.914053 
L 609.587629 207.822276 
L 593.289953 214.716923 
L 578.182903 223.09783 
L 566.595176 228.445375 
L 554.301213 232.538289 
L 540.118495 237.986045 
L 527.424429 241.522105 
L 513.473971 246.441351 
L 501.373665 249.838879 
L 487.009346 254.66869 
L 477.036311 258.353617 
L 467.897727 262.235019 
L 458.110056 266.862781 
L 446.968526 269.992099 
L 436.831424 273.026705 
L 429.71831 276.387561 
L 422.241139 279.829565 
L 415.334928 282.432634 
L 409.571429 286.218947 
L 403.347803 289.408 
L 397.647822 293.534015 
L 390.282844 296.636223 
L 383.110714 298.911523 
L 376.932049 300.850475 
L 370.762746 303.39843 
L 365.405405 306.174449 
L 359.307692 309.441546 
L 353.634795 310.768715 
L 347.105263 313.978128 
L 341.299951 315.97583 
L 337.676172 318.572039 
L 331.680923 321.859154 
L 325.335871 324.346329 
L 320.166509 326.459606 
L 316.905386 328.779384 
L 313.995816 330.973811 
L 310.096552 333.000422 
L 306.135246 335.09689 
L 302.551288 337.519769 
L 298.408907 339.906506 
L 294.321716 342.580079 
L 291.050847 344.649064 
L 288.227394 346.593882 
L 284.806069 348.242942 
L 281.893136 350.73374 
L 278.712683 352.394802 
L 276.055317 354.133552 
L 273.432398 356.441065 
L 270.777637 358.342913 
L 266.73038 359.6597 
L 263.14807 360.5952 
L 258.160067 362.137094 
L 255.016116 363.436744 
L 250.543139 365.341581 
L 247.988173 366.344835 
L 245.694523 367.498903 
L 240.936514 368.003695 
L 238.702085 369.655768 
L 235.919618 371.664892 
L 231.870392 372.141162 
L 229.063486 374.166397 
L 226.028269 376.165872 
L 223.415493 377.552965 
L 221.147368 378.784 
L 219.898955 380.982909 
L 218.28037 382.292959 
L 215.480769 384.008845 
L 212.488141 385.674886 
L 210.53805 387.243744 
L 208.460106 388.281302 
L 206.860439 390.214966 
L 204.881158 391.367276 
L 202.060277 392.985437 
L 199.167913 394.030169 
L 196.676963 395.521155 
L 195.184581 396.530053 
L 194.477541 397.771007 
L 192.724138 398.335702 
L 190.718361 400.11907 
L 188.774592 401.659336 
L 186.176918 402.827903 
L 184.199784 403.472625 
L 182.785637 404.77382 
L 181.433429 406.023246 
L 179.887379 406.838703 
" style="fill:none;stroke:#17becf;stroke-linecap:square;stroke-width:1.5;"/>
   </g>
   <g id="patch_3">
    <path d="M 135 448.56 
L 135 60.48 
" style="fill:none;stroke:#000000;stroke-linecap:square;stroke-linejoin:miter;stroke-width:0.8;"/>
   </g>
   <g id="patch_4">
    <path d="M 972 448.56 
L 972 60.48 
" style="fill:none;stroke:#000000;stroke-linecap:square;stroke-linejoin:miter;stroke-width:0.8;"/>
   </g>
   <g id="patch_5">
    <path d="M 135 448.56 
L 972 448.56 
" style="fill:none;stroke:#000000;stroke-linecap:square;stroke-linejoin:miter;stroke-width:0.8;"/>
   </g>
   <g id="patch_6">
    <path d="M 135 60.48 
L 972 60.48 
" style="fill:none;stroke:#000000;stroke-linecap:square;stroke-linejoin:miter;stroke-width:0.8;"/>
   </g>
   <g id="legend_1">
    <g id="patch_7">
     <path d="M 147.6 339.08625 
L 256.730625 339.08625 
Q 260.330625 339.08625 260.330625 335.48625 
L 260.330625 73.08 
Q 260.330625 69.48 256.730625 69.48 
L 147.6 69.48 
Q 144 69.48 144 73.08 
L 144 335.48625 
Q 144 339.08625 147.6 339.08625 
z
" style="fill:#ffffff;opacity:0.8;stroke:#cccccc;stroke-linejoin:miter;"/>
    </g>
    <g id="line2d_24">
     <path d="M 151.2 84.057188 
L 187.2 84.057188 
" style="fill:none;stroke:#1f77b4;stroke-linecap:square;stroke-width:1.5;"/>
    </g>
    <g id="line2d_25"/>
    <g id="text_15">
     <!-- 0.001 -->
     <g transform="translate(201.6 90.357188)scale(0.18 -0.18)">
      <use xlink:href="#DejaVuSans-30"/>
      <use x="63.623047" xlink:href="#DejaVuSans-2e"/>
      <use x="95.410156" xlink:href="#DejaVuSans-30"/>
      <use x="159.033203" xlink:href="#DejaVuSans-30"/>
      <use x="222.65625" xlink:href="#DejaVuSans-31"/>
     </g>
    </g>
    <g id="line2d_26">
     <path d="M 151.2 110.477812 
L 187.2 110.477812 
" style="fill:none;stroke:#ff7f0e;stroke-linecap:square;stroke-width:1.5;"/>
    </g>
    <g id="line2d_27"/>
    <g id="text_16">
     <!-- 0.011 -->
     <g transform="translate(201.6 116.777812)scale(0.18 -0.18)">
      <use xlink:href="#DejaVuSans-30"/>
      <use x="63.623047" xlink:href="#DejaVuSans-2e"/>
      <use x="95.410156" xlink:href="#DejaVuSans-30"/>
      <use x="159.033203" xlink:href="#DejaVuSans-31"/>
      <use x="222.65625" xlink:href="#DejaVuSans-31"/>
     </g>
    </g>
    <g id="line2d_28">
     <path d="M 151.2 136.898438 
L 187.2 136.898438 
" style="fill:none;stroke:#2ca02c;stroke-linecap:square;stroke-width:1.5;"/>
    </g>
    <g id="line2d_29"/>
    <g id="text_17">
     <!-- 0.021 -->
     <g transform="translate(201.6 143.198438)scale(0.18 -0.18)">
      <use xlink:href="#DejaVuSans-30"/>
      <use x="63.623047" xlink:href="#DejaVuSans-2e"/>
      <use x="95.410156" xlink:href="#DejaVuSans-30"/>
      <use x="159.033203" xlink:href="#DejaVuSans-32"/>
      <use x="222.65625" xlink:href="#DejaVuSans-31"/>
     </g>
    </g>
    <g id="line2d_30">
     <path d="M 151.2 163.319062 
L 187.2 163.319062 
" style="fill:none;stroke:#d62728;stroke-linecap:square;stroke-width:1.5;"/>
    </g>
    <g id="line2d_31"/>
    <g id="text_18">
     <!-- 0.031 -->
     <g transform="translate(201.6 169.619062)scale(0.18 -0.18)">
      <defs>
       <path d="M 2597 2516 
Q 3050 2419 3304 2112 
Q 3559 1806 3559 1356 
Q 3559 666 3084 287 
Q 2609 -91 1734 -91 
Q 1441 -91 1130 -33 
Q 819 25 488 141 
L 488 750 
Q 750 597 1062 519 
Q 1375 441 1716 441 
Q 2309 441 2620 675 
Q 2931 909 2931 1356 
Q 2931 1769 2642 2001 
Q 2353 2234 1838 2234 
L 1294 2234 
L 1294 2753 
L 1863 2753 
Q 2328 2753 2575 2939 
Q 2822 3125 2822 3475 
Q 2822 3834 2567 4026 
Q 2313 4219 1838 4219 
Q 1578 4219 1281 4162 
Q 984 4106 628 3988 
L 628 4550 
Q 988 4650 1302 4700 
Q 1616 4750 1894 4750 
Q 2613 4750 3031 4423 
Q 3450 4097 3450 3541 
Q 3450 3153 3228 2886 
Q 3006 2619 2597 2516 
z
" id="DejaVuSans-33" transform="scale(0.015625)"/>
      </defs>
      <use xlink:href="#DejaVuSans-30"/>
      <use x="63.623047" xlink:href="#DejaVuSans-2e"/>
      <use x="95.410156" xlink:href="#DejaVuSans-30"/>
      <use x="159.033203" xlink:href="#DejaVuSans-33"/>
      <use x="222.65625" xlink:href="#DejaVuSans-31"/>
     </g>
    </g>
    <g id="line2d_32">
     <path d="M 151.2 189.739688 
L 187.2 189.739688 
" style="fill:none;stroke:#9467bd;stroke-linecap:square;stroke-width:1.5;"/>
    </g>
    <g id="line2d_33"/>
    <g id="text_19">
     <!-- 0.041 -->
     <g transform="translate(201.6 196.039688)scale(0.18 -0.18)">
      <use xlink:href="#DejaVuSans-30"/>
      <use x="63.623047" xlink:href="#DejaVuSans-2e"/>
      <use x="95.410156" xlink:href="#DejaVuSans-30"/>
      <use x="159.033203" xlink:href="#DejaVuSans-34"/>
      <use x="222.65625" xlink:href="#DejaVuSans-31"/>
     </g>
    </g>
    <g id="line2d_34">
     <path d="M 151.2 216.160312 
L 187.2 216.160312 
" style="fill:none;stroke:#8c564b;stroke-linecap:square;stroke-width:1.5;"/>
    </g>
    <g id="line2d_35"/>
    <g id="text_20">
     <!-- 0.051 -->
     <g transform="translate(201.6 222.460312)scale(0.18 -0.18)">
      <defs>
       <path d="M 691 4666 
L 3169 4666 
L 3169 4134 
L 1269 4134 
L 1269 2991 
Q 1406 3038 1543 3061 
Q 1681 3084 1819 3084 
Q 2600 3084 3056 2656 
Q 3513 2228 3513 1497 
Q 3513 744 3044 326 
Q 2575 -91 1722 -91 
Q 1428 -91 1123 -41 
Q 819 9 494 109 
L 494 744 
Q 775 591 1075 516 
Q 1375 441 1709 441 
Q 2250 441 2565 725 
Q 2881 1009 2881 1497 
Q 2881 1984 2565 2268 
Q 2250 2553 1709 2553 
Q 1456 2553 1204 2497 
Q 953 2441 691 2322 
L 691 4666 
z
" id="DejaVuSans-35" transform="scale(0.015625)"/>
      </defs>
      <use xlink:href="#DejaVuSans-30"/>
      <use x="63.623047" xlink:href="#DejaVuSans-2e"/>
      <use x="95.410156" xlink:href="#DejaVuSans-30"/>
      <use x="159.033203" xlink:href="#DejaVuSans-35"/>
      <use x="222.65625" xlink:href="#DejaVuSans-31"/>
     </g>
    </g>
    <g id="line2d_36">
     <path d="M 151.2 242.580937 
L 187.2 242.580937 
" style="fill:none;stroke:#e377c2;stroke-linecap:square;stroke-width:1.5;"/>
    </g>
    <g id="line2d_37"/>
    <g id="text_21">
     <!-- 0.061 -->
     <g transform="translate(201.6 248.880937)scale(0.18 -0.18)">
      <use xlink:href="#DejaVuSans-30"/>
      <use x="63.623047" xlink:href="#DejaVuSans-2e"/>
      <use x="95.410156" xlink:href="#DejaVuSans-30"/>
      <use x="159.033203" xlink:href="#DejaVuSans-36"/>
      <use x="222.65625" xlink:href="#DejaVuSans-31"/>
     </g>
    </g>
    <g id="line2d_38">
     <path d="M 151.2 269.001562 
L 187.2 269.001562 
" style="fill:none;stroke:#7f7f7f;stroke-linecap:square;stroke-width:1.5;"/>
    </g>
    <g id="line2d_39"/>
    <g id="text_22">
     <!-- 0.071 -->
     <g transform="translate(201.6 275.301562)scale(0.18 -0.18)">
      <defs>
       <path d="M 525 4666 
L 3525 4666 
L 3525 4397 
L 1831 0 
L 1172 0 
L 2766 4134 
L 525 4134 
L 525 4666 
z
" id="DejaVuSans-37" transform="scale(0.015625)"/>
      </defs>
      <use xlink:href="#DejaVuSans-30"/>
      <use x="63.623047" xlink:href="#DejaVuSans-2e"/>
      <use x="95.410156" xlink:href="#DejaVuSans-30"/>
      <use x="159.033203" xlink:href="#DejaVuSans-37"/>
      <use x="222.65625" xlink:href="#DejaVuSans-31"/>
     </g>
    </g>
    <g id="line2d_40">
     <path d="M 151.2 295.422188 
L 187.2 295.422188 
" style="fill:none;stroke:#bcbd22;stroke-linecap:square;stroke-width:1.5;"/>
    </g>
    <g id="line2d_41"/>
    <g id="text_23">
     <!-- 0.081 -->
     <g transform="translate(201.6 301.722188)scale(0.18 -0.18)">
      <use xlink:href="#DejaVuSans-30"/>
      <use x="63.623047" xlink:href="#DejaVuSans-2e"/>
      <use x="95.410156" xlink:href="#DejaVuSans-30"/>
      <use x="159.033203" xlink:href="#DejaVuSans-38"/>
      <use x="222.65625" xlink:href="#DejaVuSans-31"/>
     </g>
    </g>
    <g id="line2d_42">
     <path d="M 151.2 321.842812 
L 187.2 321.842812 
" style="fill:none;stroke:#17becf;stroke-linecap:square;stroke-width:1.5;"/>
    </g>
    <g id="line2d_43"/>
    <g id="text_24">
     <!-- 0.091 -->
     <g transform="translate(201.6 328.142812)scale(0.18 -0.18)">
      <defs>
       <path d="M 703 97 
L 703 672 
Q 941 559 1184 500 
Q 1428 441 1663 441 
Q 2288 441 2617 861 
Q 2947 1281 2994 2138 
Q 2813 1869 2534 1725 
Q 2256 1581 1919 1581 
Q 1219 1581 811 2004 
Q 403 2428 403 3163 
Q 403 3881 828 4315 
Q 1253 4750 1959 4750 
Q 2769 4750 3195 4129 
Q 3622 3509 3622 2328 
Q 3622 1225 3098 567 
Q 2575 -91 1691 -91 
Q 1453 -91 1209 -44 
Q 966 3 703 97 
z
M 1959 2075 
Q 2384 2075 2632 2365 
Q 2881 2656 2881 3163 
Q 2881 3666 2632 3958 
Q 2384 4250 1959 4250 
Q 1534 4250 1286 3958 
Q 1038 3666 1038 3163 
Q 1038 2656 1286 2365 
Q 1534 2075 1959 2075 
z
" id="DejaVuSans-39" transform="scale(0.015625)"/>
      </defs>
      <use xlink:href="#DejaVuSans-30"/>
      <use x="63.623047" xlink:href="#DejaVuSans-2e"/>
      <use x="95.410156" xlink:href="#DejaVuSans-30"/>
      <use x="159.033203" xlink:href="#DejaVuSans-39"/>
      <use x="222.65625" xlink:href="#DejaVuSans-31"/>
     </g>
    </g>
   </g>
  </g>
 </g>
 <defs>
  <clipPath id="p56f6a7a336">
   <rect height="388.08" width="837" x="135" y="60.48"/>
  </clipPath>
 </defs>
</svg>
