<?xml version="1.0" encoding="utf-8" standalone="no"?>
<!DOCTYPE svg PUBLIC "-//W3C//DTD SVG 1.1//EN"
  "http://www.w3.org/Graphics/SVG/1.1/DTD/svg11.dtd">
<svg height="504pt" version="1.1" viewBox="0 0 1080 504" width="1080pt" xmlns="http://www.w3.org/2000/svg" xmlns:xlink="http://www.w3.org/1999/xlink">
 <metadata>
  <rdf:RDF xmlns:cc="http://creativecommons.org/ns#" xmlns:dc="http://purl.org/dc/elements/1.1/" xmlns:rdf="http://www.w3.org/1999/02/22-rdf-syntax-ns#">
   <cc:Work>
    <dc:type rdf:resource="http://purl.org/dc/dcmitype/StillImage"/>
    <dc:date>2022-01-07T13:25:01.953105</dc:date>
    <dc:format>image/svg+xml</dc:format>
    <dc:creator>
     <cc:Agent>
      <dc:title>Matplotlib v3.4.3, https://matplotlib.org/</dc:title>
     </cc:Agent>
    </dc:creator>
   </cc:Work>
  </rdf:RDF>
 </metadata>
 <defs>
  <style type="text/css">*{stroke-linecap:butt;stroke-linejoin:round;}</style>
 </defs>
 <g id="figure_1">
  <g id="patch_1">
   <path d="M 0 504 
L 1080 504 
L 1080 0 
L 0 0 
z
" style="fill:#ffffff;"/>
  </g>
  <g id="axes_1">
   <g id="patch_2">
    <path d="M 135 448.56 
L 972 448.56 
L 972 60.48 
L 135 60.48 
z
" style="fill:#ffffff;"/>
   </g>
   <g id="matplotlib.axis_1">
    <g id="xtick_1">
     <g id="line2d_1">
      <defs>
       <path d="M 0 0 
L 0 3.5 
" id="m3ca1e76aaf" style="stroke:#000000;stroke-width:0.8;"/>
      </defs>
      <g>
       <use style="stroke:#000000;stroke-width:0.8;" x="135" xlink:href="#m3ca1e76aaf" y="448.56"/>
      </g>
     </g>
     <g id="text_1">
      <!-- 0.0 -->
      <g transform="translate(120.687187 469.237188)scale(0.18 -0.18)">
       <defs>
        <path d="M 2034 4250 
Q 1547 4250 1301 3770 
Q 1056 3291 1056 2328 
Q 1056 1369 1301 889 
Q 1547 409 2034 409 
Q 2525 409 2770 889 
Q 3016 1369 3016 2328 
Q 3016 3291 2770 3770 
Q 2525 4250 2034 4250 
z
M 2034 4750 
Q 2819 4750 3233 4129 
Q 3647 3509 3647 2328 
Q 3647 1150 3233 529 
Q 2819 -91 2034 -91 
Q 1250 -91 836 529 
Q 422 1150 422 2328 
Q 422 3509 836 4129 
Q 1250 4750 2034 4750 
z
" id="DejaVuSans-30" transform="scale(0.015625)"/>
        <path d="M 684 794 
L 1344 794 
L 1344 0 
L 684 0 
L 684 794 
z
" id="DejaVuSans-2e" transform="scale(0.015625)"/>
       </defs>
       <use xlink:href="#DejaVuSans-30"/>
       <use x="63.623047" xlink:href="#DejaVuSans-2e"/>
       <use x="95.410156" xlink:href="#DejaVuSans-30"/>
      </g>
     </g>
    </g>
    <g id="xtick_2">
     <g id="line2d_2">
      <g>
       <use style="stroke:#000000;stroke-width:0.8;" x="302.4" xlink:href="#m3ca1e76aaf" y="448.56"/>
      </g>
     </g>
     <g id="text_2">
      <!-- 0.2 -->
      <g transform="translate(288.087187 469.237188)scale(0.18 -0.18)">
       <defs>
        <path d="M 1228 531 
L 3431 531 
L 3431 0 
L 469 0 
L 469 531 
Q 828 903 1448 1529 
Q 2069 2156 2228 2338 
Q 2531 2678 2651 2914 
Q 2772 3150 2772 3378 
Q 2772 3750 2511 3984 
Q 2250 4219 1831 4219 
Q 1534 4219 1204 4116 
Q 875 4013 500 3803 
L 500 4441 
Q 881 4594 1212 4672 
Q 1544 4750 1819 4750 
Q 2544 4750 2975 4387 
Q 3406 4025 3406 3419 
Q 3406 3131 3298 2873 
Q 3191 2616 2906 2266 
Q 2828 2175 2409 1742 
Q 1991 1309 1228 531 
z
" id="DejaVuSans-32" transform="scale(0.015625)"/>
       </defs>
       <use xlink:href="#DejaVuSans-30"/>
       <use x="63.623047" xlink:href="#DejaVuSans-2e"/>
       <use x="95.410156" xlink:href="#DejaVuSans-32"/>
      </g>
     </g>
    </g>
    <g id="xtick_3">
     <g id="line2d_3">
      <g>
       <use style="stroke:#000000;stroke-width:0.8;" x="469.8" xlink:href="#m3ca1e76aaf" y="448.56"/>
      </g>
     </g>
     <g id="text_3">
      <!-- 0.4 -->
      <g transform="translate(455.487188 469.237188)scale(0.18 -0.18)">
       <defs>
        <path d="M 2419 4116 
L 825 1625 
L 2419 1625 
L 2419 4116 
z
M 2253 4666 
L 3047 4666 
L 3047 1625 
L 3713 1625 
L 3713 1100 
L 3047 1100 
L 3047 0 
L 2419 0 
L 2419 1100 
L 313 1100 
L 313 1709 
L 2253 4666 
z
" id="DejaVuSans-34" transform="scale(0.015625)"/>
       </defs>
       <use xlink:href="#DejaVuSans-30"/>
       <use x="63.623047" xlink:href="#DejaVuSans-2e"/>
       <use x="95.410156" xlink:href="#DejaVuSans-34"/>
      </g>
     </g>
    </g>
    <g id="xtick_4">
     <g id="line2d_4">
      <g>
       <use style="stroke:#000000;stroke-width:0.8;" x="637.2" xlink:href="#m3ca1e76aaf" y="448.56"/>
      </g>
     </g>
     <g id="text_4">
      <!-- 0.6 -->
      <g transform="translate(622.887188 469.237188)scale(0.18 -0.18)">
       <defs>
        <path d="M 2113 2584 
Q 1688 2584 1439 2293 
Q 1191 2003 1191 1497 
Q 1191 994 1439 701 
Q 1688 409 2113 409 
Q 2538 409 2786 701 
Q 3034 994 3034 1497 
Q 3034 2003 2786 2293 
Q 2538 2584 2113 2584 
z
M 3366 4563 
L 3366 3988 
Q 3128 4100 2886 4159 
Q 2644 4219 2406 4219 
Q 1781 4219 1451 3797 
Q 1122 3375 1075 2522 
Q 1259 2794 1537 2939 
Q 1816 3084 2150 3084 
Q 2853 3084 3261 2657 
Q 3669 2231 3669 1497 
Q 3669 778 3244 343 
Q 2819 -91 2113 -91 
Q 1303 -91 875 529 
Q 447 1150 447 2328 
Q 447 3434 972 4092 
Q 1497 4750 2381 4750 
Q 2619 4750 2861 4703 
Q 3103 4656 3366 4563 
z
" id="DejaVuSans-36" transform="scale(0.015625)"/>
       </defs>
       <use xlink:href="#DejaVuSans-30"/>
       <use x="63.623047" xlink:href="#DejaVuSans-2e"/>
       <use x="95.410156" xlink:href="#DejaVuSans-36"/>
      </g>
     </g>
    </g>
    <g id="xtick_5">
     <g id="line2d_5">
      <g>
       <use style="stroke:#000000;stroke-width:0.8;" x="804.6" xlink:href="#m3ca1e76aaf" y="448.56"/>
      </g>
     </g>
     <g id="text_5">
      <!-- 0.8 -->
      <g transform="translate(790.287188 469.237188)scale(0.18 -0.18)">
       <defs>
        <path d="M 2034 2216 
Q 1584 2216 1326 1975 
Q 1069 1734 1069 1313 
Q 1069 891 1326 650 
Q 1584 409 2034 409 
Q 2484 409 2743 651 
Q 3003 894 3003 1313 
Q 3003 1734 2745 1975 
Q 2488 2216 2034 2216 
z
M 1403 2484 
Q 997 2584 770 2862 
Q 544 3141 544 3541 
Q 544 4100 942 4425 
Q 1341 4750 2034 4750 
Q 2731 4750 3128 4425 
Q 3525 4100 3525 3541 
Q 3525 3141 3298 2862 
Q 3072 2584 2669 2484 
Q 3125 2378 3379 2068 
Q 3634 1759 3634 1313 
Q 3634 634 3220 271 
Q 2806 -91 2034 -91 
Q 1263 -91 848 271 
Q 434 634 434 1313 
Q 434 1759 690 2068 
Q 947 2378 1403 2484 
z
M 1172 3481 
Q 1172 3119 1398 2916 
Q 1625 2713 2034 2713 
Q 2441 2713 2670 2916 
Q 2900 3119 2900 3481 
Q 2900 3844 2670 4047 
Q 2441 4250 2034 4250 
Q 1625 4250 1398 4047 
Q 1172 3844 1172 3481 
z
" id="DejaVuSans-38" transform="scale(0.015625)"/>
       </defs>
       <use xlink:href="#DejaVuSans-30"/>
       <use x="63.623047" xlink:href="#DejaVuSans-2e"/>
       <use x="95.410156" xlink:href="#DejaVuSans-38"/>
      </g>
     </g>
    </g>
    <g id="xtick_6">
     <g id="line2d_6">
      <g>
       <use style="stroke:#000000;stroke-width:0.8;" x="972" xlink:href="#m3ca1e76aaf" y="448.56"/>
      </g>
     </g>
     <g id="text_6">
      <!-- 1.0 -->
      <g transform="translate(957.687188 469.237188)scale(0.18 -0.18)">
       <defs>
        <path d="M 794 531 
L 1825 531 
L 1825 4091 
L 703 3866 
L 703 4441 
L 1819 4666 
L 2450 4666 
L 2450 531 
L 3481 531 
L 3481 0 
L 794 0 
L 794 531 
z
" id="DejaVuSans-31" transform="scale(0.015625)"/>
       </defs>
       <use xlink:href="#DejaVuSans-31"/>
       <use x="63.623047" xlink:href="#DejaVuSans-2e"/>
       <use x="95.410156" xlink:href="#DejaVuSans-30"/>
      </g>
     </g>
    </g>
    <g id="text_7">
     <!-- $FPR_{Fair}$ -->
     <g transform="translate(518.08 493.697187)scale(0.22 -0.22)">
      <defs>
       <path d="M 1081 4666 
L 3756 4666 
L 3653 4134 
L 1606 4134 
L 1338 2759 
L 3188 2759 
L 3084 2228 
L 1234 2228 
L 800 0 
L 172 0 
L 1081 4666 
z
" id="DejaVuSans-Oblique-46" transform="scale(0.015625)"/>
       <path d="M 1081 4666 
L 2541 4666 
Q 3178 4666 3512 4369 
Q 3847 4072 3847 3500 
Q 3847 2731 3353 2303 
Q 2859 1875 1966 1875 
L 1172 1875 
L 806 0 
L 172 0 
L 1081 4666 
z
M 1613 4147 
L 1275 2394 
L 2069 2394 
Q 2606 2394 2893 2669 
Q 3181 2944 3181 3456 
Q 3181 3784 2986 3965 
Q 2791 4147 2438 4147 
L 1613 4147 
z
" id="DejaVuSans-Oblique-50" transform="scale(0.015625)"/>
       <path d="M 1613 4147 
L 1294 2491 
L 2106 2491 
Q 2584 2491 2879 2755 
Q 3175 3019 3175 3444 
Q 3175 3784 2976 3965 
Q 2778 4147 2406 4147 
L 1613 4147 
z
M 2772 2241 
Q 2972 2194 3105 2009 
Q 3238 1825 3413 1275 
L 3809 0 
L 3144 0 
L 2778 1197 
Q 2638 1659 2453 1815 
Q 2269 1972 1888 1972 
L 1191 1972 
L 806 0 
L 172 0 
L 1081 4666 
L 2503 4666 
Q 3150 4666 3495 4373 
Q 3841 4081 3841 3531 
Q 3841 3044 3547 2687 
Q 3253 2331 2772 2241 
z
" id="DejaVuSans-Oblique-52" transform="scale(0.015625)"/>
       <path d="M 3438 1997 
L 3047 0 
L 2472 0 
L 2578 531 
Q 2325 219 2001 64 
Q 1678 -91 1281 -91 
Q 834 -91 548 182 
Q 263 456 263 884 
Q 263 1497 752 1853 
Q 1241 2209 2100 2209 
L 2900 2209 
L 2931 2363 
Q 2938 2388 2941 2417 
Q 2944 2447 2944 2509 
Q 2944 2788 2717 2942 
Q 2491 3097 2081 3097 
Q 1800 3097 1504 3025 
Q 1209 2953 897 2809 
L 997 3341 
Q 1322 3463 1633 3523 
Q 1944 3584 2234 3584 
Q 2853 3584 3176 3315 
Q 3500 3047 3500 2534 
Q 3500 2431 3484 2292 
Q 3469 2153 3438 1997 
z
M 2816 1759 
L 2241 1759 
Q 1534 1759 1195 1570 
Q 856 1381 856 984 
Q 856 709 1029 553 
Q 1203 397 1509 397 
Q 1978 397 2328 733 
Q 2678 1069 2791 1631 
L 2816 1759 
z
" id="DejaVuSans-Oblique-61" transform="scale(0.015625)"/>
       <path d="M 1172 4863 
L 1747 4863 
L 1606 4134 
L 1031 4134 
L 1172 4863 
z
M 909 3500 
L 1484 3500 
L 800 0 
L 225 0 
L 909 3500 
z
" id="DejaVuSans-Oblique-69" transform="scale(0.015625)"/>
       <path d="M 2853 2969 
Q 2766 3016 2653 3041 
Q 2541 3066 2413 3066 
Q 1953 3066 1609 2717 
Q 1266 2369 1153 1784 
L 800 0 
L 225 0 
L 909 3500 
L 1484 3500 
L 1375 2956 
Q 1603 3259 1920 3421 
Q 2238 3584 2597 3584 
Q 2691 3584 2781 3573 
Q 2872 3563 2963 3538 
L 2853 2969 
z
" id="DejaVuSans-Oblique-72" transform="scale(0.015625)"/>
      </defs>
      <use transform="translate(0 0.09375)" xlink:href="#DejaVuSans-Oblique-46"/>
      <use transform="translate(57.519531 0.09375)" xlink:href="#DejaVuSans-Oblique-50"/>
      <use transform="translate(117.822266 0.09375)" xlink:href="#DejaVuSans-Oblique-52"/>
      <use transform="translate(187.304688 -16.3125)scale(0.7)" xlink:href="#DejaVuSans-Oblique-46"/>
      <use transform="translate(227.568359 -16.3125)scale(0.7)" xlink:href="#DejaVuSans-Oblique-61"/>
      <use transform="translate(270.463867 -16.3125)scale(0.7)" xlink:href="#DejaVuSans-Oblique-69"/>
      <use transform="translate(289.912109 -16.3125)scale(0.7)" xlink:href="#DejaVuSans-Oblique-72"/>
     </g>
    </g>
   </g>
   <g id="matplotlib.axis_2">
    <g id="ytick_1">
     <g id="line2d_7">
      <defs>
       <path d="M 0 0 
L -3.5 0 
" id="m51bb75fd51" style="stroke:#000000;stroke-width:0.8;"/>
      </defs>
      <g>
       <use style="stroke:#000000;stroke-width:0.8;" x="135" xlink:href="#m51bb75fd51" y="448.56"/>
      </g>
     </g>
     <g id="text_8">
      <!-- 0.0 -->
      <g transform="translate(99.374375 455.398594)scale(0.18 -0.18)">
       <use xlink:href="#DejaVuSans-30"/>
       <use x="63.623047" xlink:href="#DejaVuSans-2e"/>
       <use x="95.410156" xlink:href="#DejaVuSans-30"/>
      </g>
     </g>
    </g>
    <g id="ytick_2">
     <g id="line2d_8">
      <g>
       <use style="stroke:#000000;stroke-width:0.8;" x="135" xlink:href="#m51bb75fd51" y="370.944"/>
      </g>
     </g>
     <g id="text_9">
      <!-- 0.2 -->
      <g transform="translate(99.374375 377.782594)scale(0.18 -0.18)">
       <use xlink:href="#DejaVuSans-30"/>
       <use x="63.623047" xlink:href="#DejaVuSans-2e"/>
       <use x="95.410156" xlink:href="#DejaVuSans-32"/>
      </g>
     </g>
    </g>
    <g id="ytick_3">
     <g id="line2d_9">
      <g>
       <use style="stroke:#000000;stroke-width:0.8;" x="135" xlink:href="#m51bb75fd51" y="293.328"/>
      </g>
     </g>
     <g id="text_10">
      <!-- 0.4 -->
      <g transform="translate(99.374375 300.166594)scale(0.18 -0.18)">
       <use xlink:href="#DejaVuSans-30"/>
       <use x="63.623047" xlink:href="#DejaVuSans-2e"/>
       <use x="95.410156" xlink:href="#DejaVuSans-34"/>
      </g>
     </g>
    </g>
    <g id="ytick_4">
     <g id="line2d_10">
      <g>
       <use style="stroke:#000000;stroke-width:0.8;" x="135" xlink:href="#m51bb75fd51" y="215.712"/>
      </g>
     </g>
     <g id="text_11">
      <!-- 0.6 -->
      <g transform="translate(99.374375 222.550594)scale(0.18 -0.18)">
       <use xlink:href="#DejaVuSans-30"/>
       <use x="63.623047" xlink:href="#DejaVuSans-2e"/>
       <use x="95.410156" xlink:href="#DejaVuSans-36"/>
      </g>
     </g>
    </g>
    <g id="ytick_5">
     <g id="line2d_11">
      <g>
       <use style="stroke:#000000;stroke-width:0.8;" x="135" xlink:href="#m51bb75fd51" y="138.096"/>
      </g>
     </g>
     <g id="text_12">
      <!-- 0.8 -->
      <g transform="translate(99.374375 144.934594)scale(0.18 -0.18)">
       <use xlink:href="#DejaVuSans-30"/>
       <use x="63.623047" xlink:href="#DejaVuSans-2e"/>
       <use x="95.410156" xlink:href="#DejaVuSans-38"/>
      </g>
     </g>
    </g>
    <g id="ytick_6">
     <g id="line2d_12">
      <g>
       <use style="stroke:#000000;stroke-width:0.8;" x="135" xlink:href="#m51bb75fd51" y="60.48"/>
      </g>
     </g>
     <g id="text_13">
      <!-- 1.0 -->
      <g transform="translate(99.374375 67.318594)scale(0.18 -0.18)">
       <use xlink:href="#DejaVuSans-31"/>
       <use x="63.623047" xlink:href="#DejaVuSans-2e"/>
       <use x="95.410156" xlink:href="#DejaVuSans-30"/>
      </g>
     </g>
    </g>
    <g id="text_14">
     <!-- $TPR_{Fair}$ -->
     <g transform="translate(90.799062 290.27)rotate(-90)scale(0.22 -0.22)">
      <defs>
       <path d="M 378 4666 
L 4325 4666 
L 4225 4134 
L 2559 4134 
L 1759 0 
L 1125 0 
L 1925 4134 
L 275 4134 
L 378 4666 
z
" id="DejaVuSans-Oblique-54" transform="scale(0.015625)"/>
      </defs>
      <use transform="translate(0 0.09375)" xlink:href="#DejaVuSans-Oblique-54"/>
      <use transform="translate(61.083984 0.09375)" xlink:href="#DejaVuSans-Oblique-50"/>
      <use transform="translate(121.386719 0.09375)" xlink:href="#DejaVuSans-Oblique-52"/>
      <use transform="translate(190.869141 -16.3125)scale(0.7)" xlink:href="#DejaVuSans-Oblique-46"/>
      <use transform="translate(231.132812 -16.3125)scale(0.7)" xlink:href="#DejaVuSans-Oblique-61"/>
      <use transform="translate(274.02832 -16.3125)scale(0.7)" xlink:href="#DejaVuSans-Oblique-69"/>
      <use transform="translate(293.476562 -16.3125)scale(0.7)" xlink:href="#DejaVuSans-Oblique-72"/>
     </g>
    </g>
   </g>
   <g id="line2d_13">
    <path clip-path="url(#p3aca0b834c)" d="M 135 448.56 
L 972 60.48 
" style="fill:none;stroke:#ff0000;stroke-dasharray:5.55,2.4;stroke-dashoffset:0;stroke-width:1.5;"/>
   </g>
   <g id="line2d_14">
    <path clip-path="url(#p3aca0b834c)" d="M 972 60.48 
L 295.961538 325.510244 
L 231.576923 380.383784 
L 202.5 400.512 
L 188.653846 412.264748 
L 175.268041 419.7312 
L 168.769452 424.762642 
L 163.791155 427.362353 
L 160.363636 431.563796 
L 157.797665 433.681534 
L 155.850534 435.33 
L 154.115824 437.004268 
L 152.781487 437.78 
L 151.320334 439.553924 
L 150.317647 440.140118 
L 149.466667 440.683838 
L 147.652326 441.21253 
L 146.891803 441.663586 
L 146.263975 442.130964 
L 144.964286 442.4703 
L 144.574833 442.67189 
L 144.073171 442.928232 
L 143.681072 443.108046 
L 143.287129 443.315676 
L 142.952494 443.459785 
L 141.959184 443.636263 
L 141.696 443.779619 
L 141.488372 444.341739 
L 141.280355 444.500586 
L 140.528402 444.616098 
L 139.822663 444.71 
L 139.719925 445.185391 
L 139.598901 445.280451 
L 139.505383 445.35567 
L 139.428571 445.449831 
L 138.861592 445.528125 
L 138.789474 445.617523 
L 138.701493 445.685333 
L 138.619459 445.734175 
L 138.559809 446.092083 
L 138.500261 446.142056 
L 138.440904 446.191854 
L 138.380111 446.246557 
L 137.914925 446.275497 
L 137.855263 446.334452 
L 137.412104 446.369005 
L 137.383484 446.665607 
L 136.954694 446.706958 
L 136.535076 446.736805 
L 136.511512 447.021018 
L 136.493976 447.049961 
L 136.47554 447.073103 
L 136.453756 447.09 
L 136.433219 447.11194 
L 136.417443 447.134109 
L 136.400251 447.391788 
L 136.383471 447.415221 
L 136.370446 447.655911 
L 136.356015 447.667349 
L 136.340809 447.679001 
L 136.324367 447.692782 
L 135.982779 447.703784 
L 135.973256 447.717264 
L 135.962807 447.728548 
L 135.955479 447.738232 
L 135.630034 447.747692 
L 135.623 447.754437 
L 135.307607 447.762712 
L 135.304253 447.966908 
L 135.300323 447.974366 
L 135.297971 447.979042 
L 135.295342 447.984214 
L 135.291943 447.988173 
L 135.289019 447.992908 
L 135.286056 448.000269 
L 135.28277 448.002947 
L 135.280308 448.1925 
L 135.277796 448.196969 
L 135.275873 448.200833 
L 135.273798 448.203636 
L 135.271753 448.208 
L 135.270174 448.211634 
L 135.268097 448.215499 
L 135.265546 448.218981 
L 135.264455 448.222098 
L 135.262218 448.224581 
L 135.260748 448.229438 
L 135 448.232368 
L 135 448.235111 
L 135 448.237541 
L 135 448.240329 
L 135 448.241902 
L 135 448.243845 
L 135 448.245638 
L 135 448.249412 
L 135 448.252 
L 135 448.254064 
L 135 448.256575 
L 135 448.259163 
L 135 448.261362 
L 135 448.263756 
" style="fill:none;stroke:#1f77b4;stroke-linecap:square;stroke-width:1.5;"/>
   </g>
   <g id="line2d_15">
    <path clip-path="url(#p3aca0b834c)" d="M 972 60.48 
L 744.554348 101.941538 
L 645.646789 140.465954 
L 558.273764 170.592664 
L 509.522034 197.950345 
L 456.72973 223.009231 
L 420.75 244.41375 
L 388.141463 255.475862 
L 360.06 271.758178 
L 339.979592 285.157895 
L 325.082061 297.300472 
L 310.186047 311.260939 
L 298.421053 317.406447 
L 286.821767 326.772293 
L 278.236607 332.987586 
L 271.145686 340.058343 
L 263.25 346.867649 
L 255.804124 352.718381 
L 249.84178 358.42529 
L 242.384892 363.172806 
L 238.776362 365.831569 
L 232.325581 369.590233 
L 225.920128 372.353598 
L 221.174312 374.782154 
L 215.973346 377.733305 
L 210.800763 380.890588 
L 207.514286 383.014047 
L 205.063906 385.247855 
L 201.078947 387.543516 
L 197.632653 389.311145 
L 195.380597 390.838092 
L 192.982885 392.559485 
L 190.977707 394.062182 
L 189.316654 395.407691 
L 187.917502 396.727397 
L 186.361364 397.969251 
L 185.044843 399.811034 
L 184.019034 400.829904 
L 182.434003 401.659336 
L 180.514831 402.654817 
L 179.849687 403.462018 
L 177.967146 404.919306 
L 176.681023 406.14062 
L 175.042525 406.797365 
L 173.269105 407.753305 
L 170.778497 408.57434 
L 170.502571 409.589623 
L 168.41635 411.218969 
L 166.890693 411.824909 
L 165.942699 412.573929 
L 165.020061 413.210642 
L 164.535287 413.986056 
L 163.640708 415.182131 
L 162.346558 416.014536 
L 161.609827 416.949474 
L 160.856979 417.858986 
L 160.091063 418.671486 
L 159.879978 419.494691 
L 159.631316 420.231312 
L 158.888035 420.758614 
L 158.53921 421.416832 
L 157.427653 421.933585 
L 156.769108 422.264348 
L 156.123028 423.019877 
L 155.957746 424.076812 
L 155.309241 424.358074 
L 154.63386 424.568069 
L 153.168097 424.83822 
L 153.004502 425.391045 
L 152.817327 425.852103 
L 152.69469 426.174683 
L 152.165039 426.372474 
L 151.228793 426.532755 
L 151.065259 427.088361 
L 150.5 427.906984 
L 150.31816 428.011135 
L 149.814159 428.613772 
L 149.711378 429.012267 
L 149.636908 429.402581 
L 149.166972 429.721165 
L 149.09604 430.453333 
L 149.000452 430.785344 
L 148.524237 430.994851 
L 148.037383 431.679065 
L 147.614362 432.502762 
L 147.498024 432.613961 
L 147.437937 433.469973 
L 146.988281 433.776 
L 146.544828 434.393943 
L 145.431027 434.675206 
L 144.292058 435.118508 
L 143.889125 435.503745 
L 143.84778 436.079894 
L 143.447435 436.304842 
L 143.054812 436.912536 
L 142.64701 437.175427 
L 142.263223 437.719777 
L 142.227385 437.798396 
L 142.191899 438.044708 
L 141.818737 438.128618 
L 141.793831 438.22412 
" style="fill:none;stroke:#ff7f0e;stroke-linecap:square;stroke-width:1.5;"/>
   </g>
   <g id="line2d_16">
    <path clip-path="url(#p3aca0b834c)" d="M 972 60.48 
L 972 60.48 
L 968.541322 60.48 
L 965.082645 60.48 
L 964.936709 60.48 
L 964.721739 60.48 
L 964.625551 60.48 
L 964.459459 60.48 
L 964.25 60.48 
L 964.140845 64.193684 
L 960.15566 66.050526 
L 960.042857 67.943077 
L 959.927885 67.97913 
L 959.81068 68.089412 
L 959.81068 69.991765 
L 955.826087 70.085941 
L 955.747573 70.085941 
L 955.343284 70.133731 
L 955.090909 70.230754 
L 954.65285 70.38 
L 954.65285 70.38 
L 954 70.58625 
L 953.604396 70.692632 
L 953.4 70.746667 
L 948.355932 70.856471 
L 947.668605 70.968649 
L 947.382353 71.083279 
L 947.089286 71.200442 
L 946.636364 77.632707 
L 946.325153 81.803077 
L 945.512658 86.067692 
L 945 86.352 
L 944.647059 86.352 
L 943.912752 88.353149 
L 943.722973 90.497238 
L 943.530612 92.641326 
L 942.9375 97.132 
L 942.319149 97.132 
L 941.673913 97.132 
L 941 101.21768 
L 940.768657 108.727784 
L 940.053435 109.255082 
L 939.807692 109.523077 
L 939.047244 109.523077 
L 938.25 111.655385 
L 937.125 111.655385 
L 937.125 112.513073 
L 935.608696 119.017207 
L 934.633929 119.346067 
L 934.297297 124.063729 
L 933.954545 127.689385 
L 933.605505 129.85743 
L 933.25 132.427416 
L 932.518868 135.026441 
L 932.142857 135.8784 
L 931.368932 140.3136 
L 930.970588 144.27 
L 930.564356 145.723006 
L 930.15 146.72 
L 929.295918 150.731163 
L 929.295918 157.5 
L 928.40625 158.641412 
L 927.478723 159.222249 
L 927 160.40479 
L 926.51087 162.856933 
L 925.5 163.488889 
L 924.443182 165.237791 
L 913.604651 165.237791 
L 913.604651 166.53913 
L 913.604651 167.202 
L 913.604651 168.552911 
L 912.917647 168.552911 
L 911.493976 168.552911 
L 911.493976 170.644645 
L 910 173.148387 
L 906.779221 173.148387 
L 905.04 175.372105 
L 904.135135 175.372105 
L 904.135135 178.477297 
L 900.257143 180.093699 
L 899.217391 180.918621 
L 885.838235 182.603077 
L 884.552239 183.463099 
L 881.861538 185.22 
L 879 187.027826 
L 879 187.027826 
L 875.95082 190.805373 
L 872.694915 191.785263 
L 867.375 194.815385 
L 857.117647 197.988661 
L 849.9375 200.1888 
L 847.340426 202.460488 
L 847.340426 204.807273 
L 841.8 206.01 
L 835.744186 208.47661 
L 832.5 209.741538 
L 829.097561 212.337391 
L 821.769231 213.669474 
L 821.769231 217.80973 
L 817.815789 220.696514 
L 817.815789 220.696514 
" style="fill:none;stroke:#2ca02c;stroke-linecap:square;stroke-width:1.5;"/>
   </g>
   <g id="line2d_17">
    <path clip-path="url(#p3aca0b834c)" d="M 972 60.48 
L 865.148936 89.226667 
L 785.010638 116.067056 
L 717.539197 134.96 
L 671.576786 153.804 
L 626.04 177.330462 
L 585.891641 197.071304 
L 550.46299 207.842386 
L 518.385144 223.223226 
L 494.811271 237.132903 
L 475.260979 248.518763 
L 455.234803 264.206377 
L 439.714286 271.941548 
L 419.780807 282.322746 
L 406.412134 289.647931 
L 394.98998 298.318358 
L 381.365292 305.958425 
L 366.725 312.34 
L 354.833185 320.300267 
L 344.610155 325.476639 
L 336.962687 328.738065 
L 324.890587 334.008889 
L 316.644028 337.497632 
L 307.954751 341.332795 
L 299.947253 343.936552 
L 290.417434 347.682936 
L 284.402481 351.249231 
L 279.193809 354.192891 
L 274.042022 357.811255 
L 267.976297 360.36 
L 262.278473 362.516715 
L 257.815043 364.978874 
L 253.920798 366.948063 
L 249.29517 368.347925 
L 247.124559 370.878722 
L 243.07817 372.735631 
L 239.625 375.443478 
L 235.458777 377.111755 
L 232.056875 378.603077 
L 229.213703 379.812699 
L 226.854925 381.257838 
L 224.061408 382.920356 
L 221.360604 384.917143 
L 217.922601 385.56 
L 215.260274 387.356436 
L 212.390955 388.480669 
L 210.142145 390.280858 
L 206.813609 392.17457 
L 204.072816 393.194616 
L 202.551576 394.559521 
L 201.183239 395.917431 
L 200.047753 397.200155 
L 198.432532 398.678252 
L 196.858577 399.895608 
L 195.055505 401.453434 
L 193.664732 402.733275 
L 192.596824 404.045638 
L 191.801664 405.38786 
L 190.872562 406.240911 
L 188.663081 406.971794 
L 187.623619 408.139731 
L 186.453474 409.3691 
L 185.366903 410.085593 
L 184.540977 410.918661 
L 183.546689 412.266321 
L 182.390224 412.847117 
L 180.955591 413.123807 
L 179.035074 413.49253 
L 177.923077 414.068702 
L 176.490632 414.96 
L 175.829268 415.558579 
L 175.147736 415.892637 
L 173.233727 416.13449 
L 172.298338 416.950751 
L 171.336826 417.577978 
L 168.966121 417.953691 
L 167.501849 419.150968 
L 166.909091 420.207123 
L 165.807945 421.2029 
L 164.187069 421.755676 
L 163.685065 422.598256 
L 162.659483 423.121538 
L 161.633178 423.700108 
L 160.56179 424.293243 
L 159.896601 424.960541 
L 159.115952 425.479942 
L 158.428971 426.600171 
L 157.417043 427.325434 
L 156.646552 428.153915 
L 154.866873 428.983802 
L 153.879699 429.65123 
L 153.486239 430.08 
L 153.367657 430.684367 
L 152.712798 430.968462 
L 151.790371 431.495739 
L 151.373674 431.975385 
L 150.714427 432.39 
L 150.083552 432.656499 
L 149.459257 433.442231 
L 149.121999 434.047549 
L 148.801164 434.186667 
" style="fill:none;stroke:#d62728;stroke-linecap:square;stroke-width:1.5;"/>
   </g>
   <g id="line2d_18">
    <path clip-path="url(#p3aca0b834c)" d="M 972 60.48 
L 972 61.397447 
L 968.468354 61.401805 
L 966.66879 61.408421 
L 966.611588 61.410647 
L 966.517467 62.345769 
L 966.44469 62.368467 
L 966.369955 62.373073 
L 966.254005 63.361782 
L 966.160465 66.229333 
L 964.103774 67.237612 
L 964.028571 70.182 
L 963.913043 71.178947 
L 963.814181 72.329771 
L 963.773956 75.33 
L 963.712871 76.483299 
L 963.650873 76.65 
L 963.459184 76.863325 
L 963.326425 77.171613 
L 963.189474 77.399019 
L 960.957784 78.554959 
L 960.658537 78.806 
L 960.534247 78.90838 
L 960.342618 78.96 
L 955.542135 79.064113 
L 955.163793 79.2225 
L 952.591304 79.437931 
L 952.421053 79.547514 
L 952.189349 82.91237 
L 951.770393 85.084496 
L 951.333333 87.321268 
L 950.943396 88.601739 
L 948.085714 89.726609 
L 947.621359 92.913199 
L 947.382353 94.226087 
L 946.973422 95.350957 
L 946.550676 98.836744 
L 946.024138 98.836744 
L 945.568421 101.093023 
L 945.096429 104.223121 
L 944.805054 110.0925 
L 944.406593 111.4848 
L 943.996283 115.123448 
L 943.357414 115.123448 
L 943.026923 117.517695 
L 939.176471 118.636081 
L 938.52 119.659355 
L 937.555556 125.540471 
L 936.831933 125.732389 
L 932.821277 130.106118 
L 928.892704 133.530353 
L 925.099138 135.813176 
L 924.484716 138.096 
L 923.64 141.135181 
L 922.764706 143.301951 
L 922.315068 145.928807 
L 918 148.302385 
L 917.497674 150.591455 
L 916.985915 152.076522 
L 915.663462 154.486957 
L 915.116505 158.102609 
L 914.558824 159.330566 
L 913.701493 160.550943 
L 912.818182 161.825732 
L 911.907692 163.465631 
L 906.948187 166.546881 
L 904.860963 167.794727 
L 898.417582 167.794727 
L 892.50838 169.192964 
L 886.397727 171.17823 
L 885.908571 171.908911 
L 884.406977 172.277881 
L 881.240964 173.189703 
L 880.134146 174.697525 
L 874.435583 177.685369 
L 870.057692 178.08 
L 866.682119 180.093699 
L 864.547297 183.1025 
L 861.5625 185.754947 
L 857.589928 186.640283 
L 855.919708 189.372996 
L 853.320896 192.175018 
L 845.181818 193.616934 
L 842.232558 195.589333 
L 837 198.138566 
L 834.786885 199.714809 
L 832.5 202.978125 
L 828.923077 205.24 
L 825.157895 209.376 
L 817 211.847303 
L 811.038462 215.054237 
L 809.475728 217.044464 
L 809.475728 219.086609 
L 806.257426 219.779214 
L 801.183673 221.893805 
L 795.789474 224.802162 
L 790.043478 226.296 
L 786 227.817248 
L 781.772727 231.745352 
L 779.586207 234.192 
L 775.058824 234.192 
" style="fill:none;stroke:#9467bd;stroke-linecap:square;stroke-width:1.5;"/>
   </g>
   <g id="line2d_19">
    <path clip-path="url(#p3aca0b834c)" d="M 972 60.48 
L 909.225 80.165217 
L 863.959941 99.288 
L 817.260504 113.5176 
L 783.618598 128.053035 
L 744.215661 144.020885 
L 710.823096 159.346647 
L 679.148936 167.880171 
L 650.370582 181.821818 
L 625.782178 195.442205 
L 606.486052 206.441474 
L 585.158549 219.9456 
L 567.901822 227.582682 
L 547.37561 238.405188 
L 532.51561 245.934159 
L 517.760331 253.045212 
L 499.846154 260.462091 
L 482.488372 268.494074 
L 467.833893 276.938964 
L 456.711111 283.105405 
L 445.0248 287.693983 
L 430.334895 292.673933 
L 418.664134 296.842957 
L 408.191822 301.549443 
L 398.039826 303.981176 
L 385.627119 307.779231 
L 375.702128 310.940604 
L 369.224545 314.275127 
L 362.114494 318.129139 
L 353.48961 321.403212 
L 344.383877 323.553462 
L 338.279011 326.443344 
L 332.494382 329.312508 
L 326.446979 331.810876 
L 322.304268 334.435949 
L 316.978378 336.82268 
L 312.334718 340.278125 
L 306.604556 342.770221 
L 301.144259 344.65383 
L 295.795883 346.34852 
L 292.114431 348.290526 
L 287.181818 350.162434 
L 282.868465 353.09232 
L 278.995085 354.044156 
L 275.025282 356.58 
L 270.850507 358.332023 
L 267.484383 360.585287 
L 262.111403 363.575392 
L 258.177847 365.070619 
L 254.756047 366.72 
L 252.496172 368.325055 
L 250.229955 370.14335 
L 247.544821 371.931242 
L 244.317398 373.69601 
L 241.259766 375.607424 
L 239.37216 377.083636 
L 237.219828 379.043061 
L 235.646863 380.796462 
L 234.050919 382.038314 
L 230.959289 383.332792 
L 228.988447 384.745284 
L 227.020156 386.063442 
L 225.208731 387.060984 
L 223.343708 388.449783 
L 221.780521 389.8553 
L 218.886414 390.690241 
L 216.035809 391.26513 
L 212.261538 392.011783 
L 209.829917 392.945386 
L 207.167678 394.099709 
L 206.188144 394.983289 
L 204.24435 395.766776 
L 200.6958 396.116757 
L 199.41169 397.289268 
L 197.608859 398.680766 
L 194.711323 399.026171 
L 192.390335 400.21987 
L 190.708299 401.689503 
L 189.044136 402.824734 
L 187.099675 403.496325 
L 186.065455 405.082942 
L 184.829445 405.878721 
L 182.895558 406.913301 
L 181.241256 408.158166 
L 179.245231 409.309744 
L 178.270324 410.063637 
L 177.080126 411.591328 
L 175.853182 412.556308 
L 174.330874 413.951844 
L 171.955074 414.876233 
L 170.466102 415.967692 
L 169.621218 416.753077 
L 169.410354 417.591464 
L 167.997726 417.908198 
L 166.596829 418.667351 
L 165.453488 419.710345 
L 163.743561 420.332851 
L 162.692565 420.815382 
L 161.900259 421.819505 
L 161.194772 422.767711 
L 160.51267 423.320402 
" style="fill:none;stroke:#8c564b;stroke-linecap:square;stroke-width:1.5;"/>
   </g>
   <g id="line2d_20">
    <path clip-path="url(#p3aca0b834c)" d="M 972 60.48 
L 972 60.48 
L 970.8375 60.48 
L 969.652174 60.48 
L 969.625532 60.48 
L 969.580925 60.48 
L 969.556204 60.48 
L 969.51263 60.48 
L 969.467474 60.48 
L 969.428571 61.851307 
L 968.100932 62.555294 
L 968.058085 63.26693 
L 967.995215 63.276973 
L 967.943457 63.323077 
L 967.903752 64.060074 
L 967.876847 64.120525 
L 967.842715 64.161973 
L 967.765599 64.218728 
L 967.685567 64.27726 
L 967.633043 64.337654 
L 967.602452 64.3608 
L 967.50805 64.415903 
L 967.451087 64.464394 
L 967.384191 64.489091 
L 965.788497 64.5225 
L 965.634981 65.361509 
L 965.549133 65.402791 
L 965.473684 65.434213 
L 965.409449 67.927164 
L 965.277108 69.58209 
L 965.125257 71.237015 
L 965.010438 71.306266 
L 964.876596 71.352931 
L 964.753247 72.2146 
L 964.657895 73.107332 
L 964.56 73.949154 
L 964.459459 75.732052 
L 964.285714 75.866432 
L 964.140845 75.934513 
L 963.990431 77.651681 
L 963.873786 80.950154 
L 963.712871 81.131707 
L 963.545455 81.410157 
L 963.371134 81.50465 
L 963.235602 82.48 
L 963.048128 82.732294 
L 962.902174 83.095385 
L 962.621849 86.229384 
L 962.434286 86.475789 
L 962.210526 88.399424 
L 962.094675 90.476522 
L 962.00597 91.715707 
L 961.915663 93.140198 
L 961.761468 94.522105 
L 961.570093 95.041832 
L 961.471698 97.203683 
L 961.33758 99.288 
L 961.269231 99.792 
L 961.165049 100.100733 
L 960.950495 102.462269 
L 960.84 105.893617 
L 960.689189 106.381935 
L 960.573379 106.50566 
L 960.455172 107.262247 
L 960.293706 107.912 
L 960 108.176983 
L 959.691176 109.261006 
L 956.147727 109.397647 
L 955.841699 110.0925 
L 955.26 110.662759 
L 955.05668 111.09913 
L 954.777778 111.394286 
L 953.804348 111.394286 
L 953.644737 112.147456 
L 953.233184 113.928144 
L 952.534884 114.088649 
L 951.976077 115.239755 
L 951.384236 116.2665 
L 950.863636 116.972658 
L 950.316062 117.332484 
L 950.089005 118.628795 
L 949.739362 119.202632 
L 949.131148 119.9856 
L 948.620112 121.2 
L 947.809249 122.465 
L 947.236686 123.338028 
L 946.636364 125.16 
L 946.006211 126.111176 
L 945.173077 127.84483 
L 943.912752 128.877241 
L 942.734266 130.213125 
L 942.319149 131.602231 
L 942.107143 132.754008 
L 941.227941 133.047805 
L 940.053435 134.247273 
L 939.047244 135.803544 
L 937.413223 137.096652 
L 935.922414 137.76 
L 935.289474 139.469735 
L 934.297297 141.624 
L 933.25 142.36844 
" style="fill:none;stroke:#e377c2;stroke-linecap:square;stroke-width:1.5;"/>
   </g>
   <g id="line2d_21">
    <path clip-path="url(#p3aca0b834c)" d="M 972 60.48 
L 923.326112 73.434775 
L 882.451965 86.169803 
L 847.378036 96.294545 
L 816.93654 108.537843 
L 787.392216 122.912432 
L 760.111542 134.492748 
L 731.954717 142.756765 
L 705.019248 153.413718 
L 685.222122 163.726488 
L 666.300263 173.945939 
L 644.75724 187.147952 
L 628.094561 194.544 
L 606.405997 203.264151 
L 591.244462 210.781475 
L 575.052267 218.991549 
L 557.551005 226.636299 
L 540.412364 234.124282 
L 524.92532 242.095593 
L 513.75419 248.04 
L 501.685714 252.395474 
L 486.952096 257.832453 
L 475.13329 262.267826 
L 461.530716 267.838123 
L 450.692308 271.523505 
L 437.419708 276.335148 
L 427.47585 280.488778 
L 419.727273 284.323529 
L 410.944669 288.908805 
L 401.642249 292.347845 
L 392.430252 295.616137 
L 386.1 298.72789 
L 378.683544 301.900165 
L 372.385411 304.292342 
L 367.55027 307.7497 
L 361.929947 310.439308 
L 356.754098 314.150461 
L 350.065548 316.933707 
L 344.033161 318.841165 
L 338.768875 321.059384 
L 333.595723 323.381333 
L 328.804853 325.586017 
L 323.377444 328.580092 
L 318.864204 329.95178 
L 313.796744 333.009492 
L 308.569533 334.91509 
L 305.015625 337.290575 
L 299.229237 340.3904 
L 293.623377 342.38717 
L 288.995234 344.104822 
L 285.992898 346.332881 
L 283.468325 348.761243 
L 280.649652 350.655319 
L 277.066697 352.537786 
L 273.609033 354.853445 
L 270.330163 356.894813 
L 267.612657 358.915789 
L 265.291258 360.667317 
L 262.885297 362.220588 
L 259.722198 363.92435 
L 257.221643 365.966356 
L 254.880932 367.40009 
L 252.416988 368.788 
L 250.30102 370.772568 
L 248.088945 372.390789 
L 244.296546 373.393254 
L 240.807451 374.130827 
L 236.233167 375.14508 
L 233.328524 376.378365 
L 229.599509 377.756043 
L 227.848842 378.672712 
L 225.897457 379.799243 
L 221.29561 380.266026 
L 219.869461 381.524329 
L 217.670766 383.445906 
L 214.068379 384.012813 
L 211.360204 385.864049 
L 209.007042 387.460559 
L 207.003503 388.584 
L 205.10159 389.606197 
L 204.050887 391.455135 
L 202.743383 392.347317 
L 200.860199 393.641207 
L 198.601824 395.222897 
L 196.693769 396.523733 
L 194.966063 397.46185 
L 193.505073 399.271007 
L 191.655572 400.378087 
L 189.451673 401.848397 
L 187.15727 402.816023 
L 184.744186 404.287389 
L 183.584129 405.254936 
L 182.976999 406.30117 
L 181.296943 406.724426 
L 179.595506 408.150169 
L 178.085313 409.570654 
L 176.085274 410.530695 
L 174.430407 411.067831 
L 173.356306 412.188698 
L 172.331681 413.377414 
L 170.812235 414.03646 
" style="fill:none;stroke:#7f7f7f;stroke-linecap:square;stroke-width:1.5;"/>
   </g>
   <g id="line2d_22">
    <path clip-path="url(#p3aca0b834c)" d="M 972 60.48 
L 972 60.48 
L 971.075138 60.48 
L 970.127517 60.48 
L 970.10419 60.48 
L 970.069204 60.48 
L 970.042105 60.48 
L 970.004768 60.48 
L 969.970909 60.48 
L 969.940959 61.591977 
L 968.880745 62.164863 
L 968.849435 62.746161 
L 968.801274 62.759471 
L 968.755814 62.79 
L 968.726206 63.389145 
L 968.700394 63.433425 
L 968.674172 63.469831 
L 968.615903 63.511875 
L 968.555556 63.550253 
L 968.517337 63.589615 
L 968.493017 63.614733 
L 968.423077 63.655777 
L 968.371387 63.687273 
L 968.318182 63.714 
L 967.032641 63.741176 
L 966.90411 63.774397 
L 966.825348 63.808302 
L 966.760563 63.831295 
L 966.694136 65.879374 
L 966.564935 67.252775 
L 966.438538 68.621538 
L 966.335025 68.664464 
L 966.227586 68.693333 
L 966.136602 69.409274 
L 966.042705 70.147473 
L 965.967568 70.856471 
L 965.879342 72.345755 
L 965.742056 72.45343 
L 965.634981 72.497049 
L 965.53668 73.91082 
L 965.409449 76.65 
L 965.304 76.797806 
L 965.181263 77.009333 
L 965.039501 77.101676 
L 964.936709 77.921798 
L 964.753247 78.086654 
L 964.657895 78.391385 
L 964.459459 80.905263 
L 964.285714 81.146982 
L 964.140845 82.765782 
L 964.047506 84.492934 
L 963.990431 85.467042 
L 963.913043 86.616 
L 963.794118 87.685608 
L 963.671642 88.026388 
L 963.502538 89.892379 
L 963.371134 91.657674 
L 963.258486 91.990769 
L 963.166227 92.331058 
L 963.024129 94.226087 
L 960.719677 97.075263 
L 960.534247 97.399115 
L 960.375 97.5632 
L 960.277311 98.234389 
L 960.110795 98.753945 
L 959.763158 99.019122 
L 959.47006 99.915381 
L 956.5 100.283077 
L 956.207547 100.752453 
L 955.641694 101.233031 
L 955.480263 101.526923 
L 955.26 101.925437 
L 954.501742 101.925437 
L 954.316901 102.537931 
L 954 104.139 
L 953.330855 104.248421 
L 952.832061 105.258462 
L 952.305882 105.958125 
L 951.831325 106.5581 
L 951.333333 107.174118 
L 951.161826 108.325479 
L 950.810127 108.721989 
L 950.25974 109.673239 
L 949.580357 110.662759 
L 948.963303 111.543158 
L 948.53271 112.147456 
L 948.085714 113.4 
L 947.502439 114.049325 
L 946.636364 115.396981 
L 945.568421 116.096561 
L 944.557377 117.364691 
L 944.1 118.30649 
L 943.944134 119.478649 
L 943.137931 119.88 
L 942.107143 121.32878 
L 941.190184 122.85 
L 940.012739 123.984 
L 938.960526 124.449231 
L 938.067568 125.642687 
L 937.125 127.134962 
L 935.870504 127.907027 
" style="fill:none;stroke:#bcbd22;stroke-linecap:square;stroke-width:1.5;"/>
   </g>
   <g id="line2d_23">
    <path clip-path="url(#p3aca0b834c)" d="M 972 60.48 
L 933.051282 71.51545 
L 899.818349 83.308235 
L 867.561497 92.966335 
L 841.49216 104.734737 
L 813.725724 116.15743 
L 788.319202 127.655474 
L 763.090244 134.683436 
L 739.130366 144.811268 
L 718.877631 154.548459 
L 700.661327 163.843615 
L 680.761338 175.493458 
L 665.345815 182.39737 
L 644.504292 190.883226 
L 628.976842 197.469507 
L 613.943604 205.085199 
L 597.508372 212.538603 
L 581.546649 219.609038 
L 566.46 227.344865 
L 554.826886 233.238194 
L 542.596154 237.189474 
L 528.283019 242.621321 
L 515.91018 246.673904 
L 501.924296 251.849725 
L 490.003448 255.546667 
L 476.439093 260.154818 
L 466.341709 263.964425 
L 457.454595 267.794934 
L 447.969156 272.463484 
L 437.287319 276.049527 
L 427.57377 279.265171 
L 420.740546 282.545034 
L 413.129485 285.876024 
L 406.529351 288.333941 
L 401.123077 291.997732 
L 395.183063 294.992281 
L 389.464824 298.800923 
L 382.257485 301.831843 
L 375.384083 303.971647 
L 369.327112 306.151931 
L 363.384352 308.70922 
L 358.254122 311.27199 
L 352.298077 314.618824 
L 347.15208 316.191628 
L 340.787234 319.276005 
L 335.074965 321.164579 
L 331.410773 323.57741 
L 325.634839 326.72093 
L 319.626673 329.168065 
L 314.575938 331.020828 
L 311.450704 333.417813 
L 308.588819 335.616244 
L 304.863961 337.617603 
L 300.995141 339.602416 
L 297.556335 341.956448 
L 293.558708 344.216727 
L 289.690672 346.678431 
L 286.522737 348.647805 
L 283.743976 350.44166 
L 280.456447 352.163255 
L 277.678481 354.536358 
L 274.616932 356.208863 
L 271.944629 357.987692 
L 269.37598 360.231375 
L 266.867956 361.940383 
L 262.95123 363.274277 
L 259.492665 364.194783 
L 254.668287 365.653795 
L 251.595343 366.848584 
L 247.223464 368.66695 
L 244.765055 369.615227 
L 242.510638 370.866306 
L 237.899057 371.406918 
L 235.792284 373.025065 
L 233.146672 375.077396 
L 229.182659 375.664149 
L 226.466641 377.689922 
L 223.525773 379.576377 
L 220.993151 380.913028 
L 218.795222 382.074687 
L 217.565512 384.190067 
L 215.93928 385.453047 
L 213.224299 387.071044 
L 210.326887 388.643966 
L 208.43197 390.164943 
L 206.398449 391.113947 
L 204.852574 392.990709 
L 202.964155 394.070547 
L 200.228696 395.656303 
L 197.394545 396.613689 
L 194.980456 398.049129 
L 193.535689 399.006535 
L 192.858524 400.182904 
L 191.138423 400.733861 
L 189.153573 402.418481 
L 187.294035 403.943048 
L 184.754836 405.032108 
L 182.820189 405.633103 
L 181.435101 406.881176 
L 180.125217 408.063197 
L 178.624044 408.879718 
" style="fill:none;stroke:#17becf;stroke-linecap:square;stroke-width:1.5;"/>
   </g>
   <g id="patch_3">
    <path d="M 135 448.56 
L 135 60.48 
" style="fill:none;stroke:#000000;stroke-linecap:square;stroke-linejoin:miter;stroke-width:0.8;"/>
   </g>
   <g id="patch_4">
    <path d="M 972 448.56 
L 972 60.48 
" style="fill:none;stroke:#000000;stroke-linecap:square;stroke-linejoin:miter;stroke-width:0.8;"/>
   </g>
   <g id="patch_5">
    <path d="M 135 448.56 
L 972 448.56 
" style="fill:none;stroke:#000000;stroke-linecap:square;stroke-linejoin:miter;stroke-width:0.8;"/>
   </g>
   <g id="patch_6">
    <path d="M 135 60.48 
L 972 60.48 
" style="fill:none;stroke:#000000;stroke-linecap:square;stroke-linejoin:miter;stroke-width:0.8;"/>
   </g>
   <g id="legend_1">
    <g id="patch_7">
     <path d="M 147.6 339.08625 
L 256.730625 339.08625 
Q 260.330625 339.08625 260.330625 335.48625 
L 260.330625 73.08 
Q 260.330625 69.48 256.730625 69.48 
L 147.6 69.48 
Q 144 69.48 144 73.08 
L 144 335.48625 
Q 144 339.08625 147.6 339.08625 
z
" style="fill:#ffffff;opacity:0.8;stroke:#cccccc;stroke-linejoin:miter;"/>
    </g>
    <g id="line2d_24">
     <path d="M 151.2 84.057188 
L 187.2 84.057188 
" style="fill:none;stroke:#1f77b4;stroke-linecap:square;stroke-width:1.5;"/>
    </g>
    <g id="line2d_25"/>
    <g id="text_15">
     <!-- 0.001 -->
     <g transform="translate(201.6 90.357188)scale(0.18 -0.18)">
      <use xlink:href="#DejaVuSans-30"/>
      <use x="63.623047" xlink:href="#DejaVuSans-2e"/>
      <use x="95.410156" xlink:href="#DejaVuSans-30"/>
      <use x="159.033203" xlink:href="#DejaVuSans-30"/>
      <use x="222.65625" xlink:href="#DejaVuSans-31"/>
     </g>
    </g>
    <g id="line2d_26">
     <path d="M 151.2 110.477812 
L 187.2 110.477812 
" style="fill:none;stroke:#ff7f0e;stroke-linecap:square;stroke-width:1.5;"/>
    </g>
    <g id="line2d_27"/>
    <g id="text_16">
     <!-- 0.011 -->
     <g transform="translate(201.6 116.777812)scale(0.18 -0.18)">
      <use xlink:href="#DejaVuSans-30"/>
      <use x="63.623047" xlink:href="#DejaVuSans-2e"/>
      <use x="95.410156" xlink:href="#DejaVuSans-30"/>
      <use x="159.033203" xlink:href="#DejaVuSans-31"/>
      <use x="222.65625" xlink:href="#DejaVuSans-31"/>
     </g>
    </g>
    <g id="line2d_28">
     <path d="M 151.2 136.898438 
L 187.2 136.898438 
" style="fill:none;stroke:#2ca02c;stroke-linecap:square;stroke-width:1.5;"/>
    </g>
    <g id="line2d_29"/>
    <g id="text_17">
     <!-- 0.021 -->
     <g transform="translate(201.6 143.198438)scale(0.18 -0.18)">
      <use xlink:href="#DejaVuSans-30"/>
      <use x="63.623047" xlink:href="#DejaVuSans-2e"/>
      <use x="95.410156" xlink:href="#DejaVuSans-30"/>
      <use x="159.033203" xlink:href="#DejaVuSans-32"/>
      <use x="222.65625" xlink:href="#DejaVuSans-31"/>
     </g>
    </g>
    <g id="line2d_30">
     <path d="M 151.2 163.319062 
L 187.2 163.319062 
" style="fill:none;stroke:#d62728;stroke-linecap:square;stroke-width:1.5;"/>
    </g>
    <g id="line2d_31"/>
    <g id="text_18">
     <!-- 0.031 -->
     <g transform="translate(201.6 169.619062)scale(0.18 -0.18)">
      <defs>
       <path d="M 2597 2516 
Q 3050 2419 3304 2112 
Q 3559 1806 3559 1356 
Q 3559 666 3084 287 
Q 2609 -91 1734 -91 
Q 1441 -91 1130 -33 
Q 819 25 488 141 
L 488 750 
Q 750 597 1062 519 
Q 1375 441 1716 441 
Q 2309 441 2620 675 
Q 2931 909 2931 1356 
Q 2931 1769 2642 2001 
Q 2353 2234 1838 2234 
L 1294 2234 
L 1294 2753 
L 1863 2753 
Q 2328 2753 2575 2939 
Q 2822 3125 2822 3475 
Q 2822 3834 2567 4026 
Q 2313 4219 1838 4219 
Q 1578 4219 1281 4162 
Q 984 4106 628 3988 
L 628 4550 
Q 988 4650 1302 4700 
Q 1616 4750 1894 4750 
Q 2613 4750 3031 4423 
Q 3450 4097 3450 3541 
Q 3450 3153 3228 2886 
Q 3006 2619 2597 2516 
z
" id="DejaVuSans-33" transform="scale(0.015625)"/>
      </defs>
      <use xlink:href="#DejaVuSans-30"/>
      <use x="63.623047" xlink:href="#DejaVuSans-2e"/>
      <use x="95.410156" xlink:href="#DejaVuSans-30"/>
      <use x="159.033203" xlink:href="#DejaVuSans-33"/>
      <use x="222.65625" xlink:href="#DejaVuSans-31"/>
     </g>
    </g>
    <g id="line2d_32">
     <path d="M 151.2 189.739688 
L 187.2 189.739688 
" style="fill:none;stroke:#9467bd;stroke-linecap:square;stroke-width:1.5;"/>
    </g>
    <g id="line2d_33"/>
    <g id="text_19">
     <!-- 0.041 -->
     <g transform="translate(201.6 196.039688)scale(0.18 -0.18)">
      <use xlink:href="#DejaVuSans-30"/>
      <use x="63.623047" xlink:href="#DejaVuSans-2e"/>
      <use x="95.410156" xlink:href="#DejaVuSans-30"/>
      <use x="159.033203" xlink:href="#DejaVuSans-34"/>
      <use x="222.65625" xlink:href="#DejaVuSans-31"/>
     </g>
    </g>
    <g id="line2d_34">
     <path d="M 151.2 216.160312 
L 187.2 216.160312 
" style="fill:none;stroke:#8c564b;stroke-linecap:square;stroke-width:1.5;"/>
    </g>
    <g id="line2d_35"/>
    <g id="text_20">
     <!-- 0.051 -->
     <g transform="translate(201.6 222.460312)scale(0.18 -0.18)">
      <defs>
       <path d="M 691 4666 
L 3169 4666 
L 3169 4134 
L 1269 4134 
L 1269 2991 
Q 1406 3038 1543 3061 
Q 1681 3084 1819 3084 
Q 2600 3084 3056 2656 
Q 3513 2228 3513 1497 
Q 3513 744 3044 326 
Q 2575 -91 1722 -91 
Q 1428 -91 1123 -41 
Q 819 9 494 109 
L 494 744 
Q 775 591 1075 516 
Q 1375 441 1709 441 
Q 2250 441 2565 725 
Q 2881 1009 2881 1497 
Q 2881 1984 2565 2268 
Q 2250 2553 1709 2553 
Q 1456 2553 1204 2497 
Q 953 2441 691 2322 
L 691 4666 
z
" id="DejaVuSans-35" transform="scale(0.015625)"/>
      </defs>
      <use xlink:href="#DejaVuSans-30"/>
      <use x="63.623047" xlink:href="#DejaVuSans-2e"/>
      <use x="95.410156" xlink:href="#DejaVuSans-30"/>
      <use x="159.033203" xlink:href="#DejaVuSans-35"/>
      <use x="222.65625" xlink:href="#DejaVuSans-31"/>
     </g>
    </g>
    <g id="line2d_36">
     <path d="M 151.2 242.580937 
L 187.2 242.580937 
" style="fill:none;stroke:#e377c2;stroke-linecap:square;stroke-width:1.5;"/>
    </g>
    <g id="line2d_37"/>
    <g id="text_21">
     <!-- 0.061 -->
     <g transform="translate(201.6 248.880937)scale(0.18 -0.18)">
      <use xlink:href="#DejaVuSans-30"/>
      <use x="63.623047" xlink:href="#DejaVuSans-2e"/>
      <use x="95.410156" xlink:href="#DejaVuSans-30"/>
      <use x="159.033203" xlink:href="#DejaVuSans-36"/>
      <use x="222.65625" xlink:href="#DejaVuSans-31"/>
     </g>
    </g>
    <g id="line2d_38">
     <path d="M 151.2 269.001562 
L 187.2 269.001562 
" style="fill:none;stroke:#7f7f7f;stroke-linecap:square;stroke-width:1.5;"/>
    </g>
    <g id="line2d_39"/>
    <g id="text_22">
     <!-- 0.071 -->
     <g transform="translate(201.6 275.301562)scale(0.18 -0.18)">
      <defs>
       <path d="M 525 4666 
L 3525 4666 
L 3525 4397 
L 1831 0 
L 1172 0 
L 2766 4134 
L 525 4134 
L 525 4666 
z
" id="DejaVuSans-37" transform="scale(0.015625)"/>
      </defs>
      <use xlink:href="#DejaVuSans-30"/>
      <use x="63.623047" xlink:href="#DejaVuSans-2e"/>
      <use x="95.410156" xlink:href="#DejaVuSans-30"/>
      <use x="159.033203" xlink:href="#DejaVuSans-37"/>
      <use x="222.65625" xlink:href="#DejaVuSans-31"/>
     </g>
    </g>
    <g id="line2d_40">
     <path d="M 151.2 295.422188 
L 187.2 295.422188 
" style="fill:none;stroke:#bcbd22;stroke-linecap:square;stroke-width:1.5;"/>
    </g>
    <g id="line2d_41"/>
    <g id="text_23">
     <!-- 0.081 -->
     <g transform="translate(201.6 301.722188)scale(0.18 -0.18)">
      <use xlink:href="#DejaVuSans-30"/>
      <use x="63.623047" xlink:href="#DejaVuSans-2e"/>
      <use x="95.410156" xlink:href="#DejaVuSans-30"/>
      <use x="159.033203" xlink:href="#DejaVuSans-38"/>
      <use x="222.65625" xlink:href="#DejaVuSans-31"/>
     </g>
    </g>
    <g id="line2d_42">
     <path d="M 151.2 321.842812 
L 187.2 321.842812 
" style="fill:none;stroke:#17becf;stroke-linecap:square;stroke-width:1.5;"/>
    </g>
    <g id="line2d_43"/>
    <g id="text_24">
     <!-- 0.091 -->
     <g transform="translate(201.6 328.142812)scale(0.18 -0.18)">
      <defs>
       <path d="M 703 97 
L 703 672 
Q 941 559 1184 500 
Q 1428 441 1663 441 
Q 2288 441 2617 861 
Q 2947 1281 2994 2138 
Q 2813 1869 2534 1725 
Q 2256 1581 1919 1581 
Q 1219 1581 811 2004 
Q 403 2428 403 3163 
Q 403 3881 828 4315 
Q 1253 4750 1959 4750 
Q 2769 4750 3195 4129 
Q 3622 3509 3622 2328 
Q 3622 1225 3098 567 
Q 2575 -91 1691 -91 
Q 1453 -91 1209 -44 
Q 966 3 703 97 
z
M 1959 2075 
Q 2384 2075 2632 2365 
Q 2881 2656 2881 3163 
Q 2881 3666 2632 3958 
Q 2384 4250 1959 4250 
Q 1534 4250 1286 3958 
Q 1038 3666 1038 3163 
Q 1038 2656 1286 2365 
Q 1534 2075 1959 2075 
z
" id="DejaVuSans-39" transform="scale(0.015625)"/>
      </defs>
      <use xlink:href="#DejaVuSans-30"/>
      <use x="63.623047" xlink:href="#DejaVuSans-2e"/>
      <use x="95.410156" xlink:href="#DejaVuSans-30"/>
      <use x="159.033203" xlink:href="#DejaVuSans-39"/>
      <use x="222.65625" xlink:href="#DejaVuSans-31"/>
     </g>
    </g>
   </g>
  </g>
 </g>
 <defs>
  <clipPath id="p3aca0b834c">
   <rect height="388.08" width="837" x="135" y="60.48"/>
  </clipPath>
 </defs>
</svg>
