<?xml version="1.0" encoding="utf-8" standalone="no"?>
<!DOCTYPE svg PUBLIC "-//W3C//DTD SVG 1.1//EN"
  "http://www.w3.org/Graphics/SVG/1.1/DTD/svg11.dtd">
<svg height="504pt" version="1.1" viewBox="0 0 1080 504" width="1080pt" xmlns="http://www.w3.org/2000/svg" xmlns:xlink="http://www.w3.org/1999/xlink">
 <metadata>
  <rdf:RDF xmlns:cc="http://creativecommons.org/ns#" xmlns:dc="http://purl.org/dc/elements/1.1/" xmlns:rdf="http://www.w3.org/1999/02/22-rdf-syntax-ns#">
   <cc:Work>
    <dc:type rdf:resource="http://purl.org/dc/dcmitype/StillImage"/>
    <dc:date>2022-01-07T13:24:43.116422</dc:date>
    <dc:format>image/svg+xml</dc:format>
    <dc:creator>
     <cc:Agent>
      <dc:title>Matplotlib v3.4.3, https://matplotlib.org/</dc:title>
     </cc:Agent>
    </dc:creator>
   </cc:Work>
  </rdf:RDF>
 </metadata>
 <defs>
  <style type="text/css">*{stroke-linecap:butt;stroke-linejoin:round;}</style>
 </defs>
 <g id="figure_1">
  <g id="patch_1">
   <path d="M 0 504 
L 1080 504 
L 1080 0 
L 0 0 
z
" style="fill:#ffffff;"/>
  </g>
  <g id="axes_1">
   <g id="patch_2">
    <path d="M 135 448.56 
L 972 448.56 
L 972 60.48 
L 135 60.48 
z
" style="fill:#ffffff;"/>
   </g>
   <g id="matplotlib.axis_1">
    <g id="xtick_1">
     <g id="line2d_1">
      <defs>
       <path d="M 0 0 
L 0 3.5 
" id="me93e617d6b" style="stroke:#000000;stroke-width:0.8;"/>
      </defs>
      <g>
       <use style="stroke:#000000;stroke-width:0.8;" x="135" xlink:href="#me93e617d6b" y="448.56"/>
      </g>
     </g>
     <g id="text_1">
      <!-- 0.0 -->
      <g transform="translate(120.687187 469.237188)scale(0.18 -0.18)">
       <defs>
        <path d="M 2034 4250 
Q 1547 4250 1301 3770 
Q 1056 3291 1056 2328 
Q 1056 1369 1301 889 
Q 1547 409 2034 409 
Q 2525 409 2770 889 
Q 3016 1369 3016 2328 
Q 3016 3291 2770 3770 
Q 2525 4250 2034 4250 
z
M 2034 4750 
Q 2819 4750 3233 4129 
Q 3647 3509 3647 2328 
Q 3647 1150 3233 529 
Q 2819 -91 2034 -91 
Q 1250 -91 836 529 
Q 422 1150 422 2328 
Q 422 3509 836 4129 
Q 1250 4750 2034 4750 
z
" id="DejaVuSans-30" transform="scale(0.015625)"/>
        <path d="M 684 794 
L 1344 794 
L 1344 0 
L 684 0 
L 684 794 
z
" id="DejaVuSans-2e" transform="scale(0.015625)"/>
       </defs>
       <use xlink:href="#DejaVuSans-30"/>
       <use x="63.623047" xlink:href="#DejaVuSans-2e"/>
       <use x="95.410156" xlink:href="#DejaVuSans-30"/>
      </g>
     </g>
    </g>
    <g id="xtick_2">
     <g id="line2d_2">
      <g>
       <use style="stroke:#000000;stroke-width:0.8;" x="302.4" xlink:href="#me93e617d6b" y="448.56"/>
      </g>
     </g>
     <g id="text_2">
      <!-- 0.2 -->
      <g transform="translate(288.087187 469.237188)scale(0.18 -0.18)">
       <defs>
        <path d="M 1228 531 
L 3431 531 
L 3431 0 
L 469 0 
L 469 531 
Q 828 903 1448 1529 
Q 2069 2156 2228 2338 
Q 2531 2678 2651 2914 
Q 2772 3150 2772 3378 
Q 2772 3750 2511 3984 
Q 2250 4219 1831 4219 
Q 1534 4219 1204 4116 
Q 875 4013 500 3803 
L 500 4441 
Q 881 4594 1212 4672 
Q 1544 4750 1819 4750 
Q 2544 4750 2975 4387 
Q 3406 4025 3406 3419 
Q 3406 3131 3298 2873 
Q 3191 2616 2906 2266 
Q 2828 2175 2409 1742 
Q 1991 1309 1228 531 
z
" id="DejaVuSans-32" transform="scale(0.015625)"/>
       </defs>
       <use xlink:href="#DejaVuSans-30"/>
       <use x="63.623047" xlink:href="#DejaVuSans-2e"/>
       <use x="95.410156" xlink:href="#DejaVuSans-32"/>
      </g>
     </g>
    </g>
    <g id="xtick_3">
     <g id="line2d_3">
      <g>
       <use style="stroke:#000000;stroke-width:0.8;" x="469.8" xlink:href="#me93e617d6b" y="448.56"/>
      </g>
     </g>
     <g id="text_3">
      <!-- 0.4 -->
      <g transform="translate(455.487188 469.237188)scale(0.18 -0.18)">
       <defs>
        <path d="M 2419 4116 
L 825 1625 
L 2419 1625 
L 2419 4116 
z
M 2253 4666 
L 3047 4666 
L 3047 1625 
L 3713 1625 
L 3713 1100 
L 3047 1100 
L 3047 0 
L 2419 0 
L 2419 1100 
L 313 1100 
L 313 1709 
L 2253 4666 
z
" id="DejaVuSans-34" transform="scale(0.015625)"/>
       </defs>
       <use xlink:href="#DejaVuSans-30"/>
       <use x="63.623047" xlink:href="#DejaVuSans-2e"/>
       <use x="95.410156" xlink:href="#DejaVuSans-34"/>
      </g>
     </g>
    </g>
    <g id="xtick_4">
     <g id="line2d_4">
      <g>
       <use style="stroke:#000000;stroke-width:0.8;" x="637.2" xlink:href="#me93e617d6b" y="448.56"/>
      </g>
     </g>
     <g id="text_4">
      <!-- 0.6 -->
      <g transform="translate(622.887188 469.237188)scale(0.18 -0.18)">
       <defs>
        <path d="M 2113 2584 
Q 1688 2584 1439 2293 
Q 1191 2003 1191 1497 
Q 1191 994 1439 701 
Q 1688 409 2113 409 
Q 2538 409 2786 701 
Q 3034 994 3034 1497 
Q 3034 2003 2786 2293 
Q 2538 2584 2113 2584 
z
M 3366 4563 
L 3366 3988 
Q 3128 4100 2886 4159 
Q 2644 4219 2406 4219 
Q 1781 4219 1451 3797 
Q 1122 3375 1075 2522 
Q 1259 2794 1537 2939 
Q 1816 3084 2150 3084 
Q 2853 3084 3261 2657 
Q 3669 2231 3669 1497 
Q 3669 778 3244 343 
Q 2819 -91 2113 -91 
Q 1303 -91 875 529 
Q 447 1150 447 2328 
Q 447 3434 972 4092 
Q 1497 4750 2381 4750 
Q 2619 4750 2861 4703 
Q 3103 4656 3366 4563 
z
" id="DejaVuSans-36" transform="scale(0.015625)"/>
       </defs>
       <use xlink:href="#DejaVuSans-30"/>
       <use x="63.623047" xlink:href="#DejaVuSans-2e"/>
       <use x="95.410156" xlink:href="#DejaVuSans-36"/>
      </g>
     </g>
    </g>
    <g id="xtick_5">
     <g id="line2d_5">
      <g>
       <use style="stroke:#000000;stroke-width:0.8;" x="804.6" xlink:href="#me93e617d6b" y="448.56"/>
      </g>
     </g>
     <g id="text_5">
      <!-- 0.8 -->
      <g transform="translate(790.287188 469.237188)scale(0.18 -0.18)">
       <defs>
        <path d="M 2034 2216 
Q 1584 2216 1326 1975 
Q 1069 1734 1069 1313 
Q 1069 891 1326 650 
Q 1584 409 2034 409 
Q 2484 409 2743 651 
Q 3003 894 3003 1313 
Q 3003 1734 2745 1975 
Q 2488 2216 2034 2216 
z
M 1403 2484 
Q 997 2584 770 2862 
Q 544 3141 544 3541 
Q 544 4100 942 4425 
Q 1341 4750 2034 4750 
Q 2731 4750 3128 4425 
Q 3525 4100 3525 3541 
Q 3525 3141 3298 2862 
Q 3072 2584 2669 2484 
Q 3125 2378 3379 2068 
Q 3634 1759 3634 1313 
Q 3634 634 3220 271 
Q 2806 -91 2034 -91 
Q 1263 -91 848 271 
Q 434 634 434 1313 
Q 434 1759 690 2068 
Q 947 2378 1403 2484 
z
M 1172 3481 
Q 1172 3119 1398 2916 
Q 1625 2713 2034 2713 
Q 2441 2713 2670 2916 
Q 2900 3119 2900 3481 
Q 2900 3844 2670 4047 
Q 2441 4250 2034 4250 
Q 1625 4250 1398 4047 
Q 1172 3844 1172 3481 
z
" id="DejaVuSans-38" transform="scale(0.015625)"/>
       </defs>
       <use xlink:href="#DejaVuSans-30"/>
       <use x="63.623047" xlink:href="#DejaVuSans-2e"/>
       <use x="95.410156" xlink:href="#DejaVuSans-38"/>
      </g>
     </g>
    </g>
    <g id="xtick_6">
     <g id="line2d_6">
      <g>
       <use style="stroke:#000000;stroke-width:0.8;" x="972" xlink:href="#me93e617d6b" y="448.56"/>
      </g>
     </g>
     <g id="text_6">
      <!-- 1.0 -->
      <g transform="translate(957.687188 469.237188)scale(0.18 -0.18)">
       <defs>
        <path d="M 794 531 
L 1825 531 
L 1825 4091 
L 703 3866 
L 703 4441 
L 1819 4666 
L 2450 4666 
L 2450 531 
L 3481 531 
L 3481 0 
L 794 0 
L 794 531 
z
" id="DejaVuSans-31" transform="scale(0.015625)"/>
       </defs>
       <use xlink:href="#DejaVuSans-31"/>
       <use x="63.623047" xlink:href="#DejaVuSans-2e"/>
       <use x="95.410156" xlink:href="#DejaVuSans-30"/>
      </g>
     </g>
    </g>
    <g id="text_7">
     <!-- $FPR_{Fair}$ -->
     <g transform="translate(518.08 493.697187)scale(0.22 -0.22)">
      <defs>
       <path d="M 1081 4666 
L 3756 4666 
L 3653 4134 
L 1606 4134 
L 1338 2759 
L 3188 2759 
L 3084 2228 
L 1234 2228 
L 800 0 
L 172 0 
L 1081 4666 
z
" id="DejaVuSans-Oblique-46" transform="scale(0.015625)"/>
       <path d="M 1081 4666 
L 2541 4666 
Q 3178 4666 3512 4369 
Q 3847 4072 3847 3500 
Q 3847 2731 3353 2303 
Q 2859 1875 1966 1875 
L 1172 1875 
L 806 0 
L 172 0 
L 1081 4666 
z
M 1613 4147 
L 1275 2394 
L 2069 2394 
Q 2606 2394 2893 2669 
Q 3181 2944 3181 3456 
Q 3181 3784 2986 3965 
Q 2791 4147 2438 4147 
L 1613 4147 
z
" id="DejaVuSans-Oblique-50" transform="scale(0.015625)"/>
       <path d="M 1613 4147 
L 1294 2491 
L 2106 2491 
Q 2584 2491 2879 2755 
Q 3175 3019 3175 3444 
Q 3175 3784 2976 3965 
Q 2778 4147 2406 4147 
L 1613 4147 
z
M 2772 2241 
Q 2972 2194 3105 2009 
Q 3238 1825 3413 1275 
L 3809 0 
L 3144 0 
L 2778 1197 
Q 2638 1659 2453 1815 
Q 2269 1972 1888 1972 
L 1191 1972 
L 806 0 
L 172 0 
L 1081 4666 
L 2503 4666 
Q 3150 4666 3495 4373 
Q 3841 4081 3841 3531 
Q 3841 3044 3547 2687 
Q 3253 2331 2772 2241 
z
" id="DejaVuSans-Oblique-52" transform="scale(0.015625)"/>
       <path d="M 3438 1997 
L 3047 0 
L 2472 0 
L 2578 531 
Q 2325 219 2001 64 
Q 1678 -91 1281 -91 
Q 834 -91 548 182 
Q 263 456 263 884 
Q 263 1497 752 1853 
Q 1241 2209 2100 2209 
L 2900 2209 
L 2931 2363 
Q 2938 2388 2941 2417 
Q 2944 2447 2944 2509 
Q 2944 2788 2717 2942 
Q 2491 3097 2081 3097 
Q 1800 3097 1504 3025 
Q 1209 2953 897 2809 
L 997 3341 
Q 1322 3463 1633 3523 
Q 1944 3584 2234 3584 
Q 2853 3584 3176 3315 
Q 3500 3047 3500 2534 
Q 3500 2431 3484 2292 
Q 3469 2153 3438 1997 
z
M 2816 1759 
L 2241 1759 
Q 1534 1759 1195 1570 
Q 856 1381 856 984 
Q 856 709 1029 553 
Q 1203 397 1509 397 
Q 1978 397 2328 733 
Q 2678 1069 2791 1631 
L 2816 1759 
z
" id="DejaVuSans-Oblique-61" transform="scale(0.015625)"/>
       <path d="M 1172 4863 
L 1747 4863 
L 1606 4134 
L 1031 4134 
L 1172 4863 
z
M 909 3500 
L 1484 3500 
L 800 0 
L 225 0 
L 909 3500 
z
" id="DejaVuSans-Oblique-69" transform="scale(0.015625)"/>
       <path d="M 2853 2969 
Q 2766 3016 2653 3041 
Q 2541 3066 2413 3066 
Q 1953 3066 1609 2717 
Q 1266 2369 1153 1784 
L 800 0 
L 225 0 
L 909 3500 
L 1484 3500 
L 1375 2956 
Q 1603 3259 1920 3421 
Q 2238 3584 2597 3584 
Q 2691 3584 2781 3573 
Q 2872 3563 2963 3538 
L 2853 2969 
z
" id="DejaVuSans-Oblique-72" transform="scale(0.015625)"/>
      </defs>
      <use transform="translate(0 0.09375)" xlink:href="#DejaVuSans-Oblique-46"/>
      <use transform="translate(57.519531 0.09375)" xlink:href="#DejaVuSans-Oblique-50"/>
      <use transform="translate(117.822266 0.09375)" xlink:href="#DejaVuSans-Oblique-52"/>
      <use transform="translate(187.304688 -16.3125)scale(0.7)" xlink:href="#DejaVuSans-Oblique-46"/>
      <use transform="translate(227.568359 -16.3125)scale(0.7)" xlink:href="#DejaVuSans-Oblique-61"/>
      <use transform="translate(270.463867 -16.3125)scale(0.7)" xlink:href="#DejaVuSans-Oblique-69"/>
      <use transform="translate(289.912109 -16.3125)scale(0.7)" xlink:href="#DejaVuSans-Oblique-72"/>
     </g>
    </g>
   </g>
   <g id="matplotlib.axis_2">
    <g id="ytick_1">
     <g id="line2d_7">
      <defs>
       <path d="M 0 0 
L -3.5 0 
" id="md686d29dc9" style="stroke:#000000;stroke-width:0.8;"/>
      </defs>
      <g>
       <use style="stroke:#000000;stroke-width:0.8;" x="135" xlink:href="#md686d29dc9" y="448.56"/>
      </g>
     </g>
     <g id="text_8">
      <!-- 0.0 -->
      <g transform="translate(99.374375 455.398594)scale(0.18 -0.18)">
       <use xlink:href="#DejaVuSans-30"/>
       <use x="63.623047" xlink:href="#DejaVuSans-2e"/>
       <use x="95.410156" xlink:href="#DejaVuSans-30"/>
      </g>
     </g>
    </g>
    <g id="ytick_2">
     <g id="line2d_8">
      <g>
       <use style="stroke:#000000;stroke-width:0.8;" x="135" xlink:href="#md686d29dc9" y="370.944"/>
      </g>
     </g>
     <g id="text_9">
      <!-- 0.2 -->
      <g transform="translate(99.374375 377.782594)scale(0.18 -0.18)">
       <use xlink:href="#DejaVuSans-30"/>
       <use x="63.623047" xlink:href="#DejaVuSans-2e"/>
       <use x="95.410156" xlink:href="#DejaVuSans-32"/>
      </g>
     </g>
    </g>
    <g id="ytick_3">
     <g id="line2d_9">
      <g>
       <use style="stroke:#000000;stroke-width:0.8;" x="135" xlink:href="#md686d29dc9" y="293.328"/>
      </g>
     </g>
     <g id="text_10">
      <!-- 0.4 -->
      <g transform="translate(99.374375 300.166594)scale(0.18 -0.18)">
       <use xlink:href="#DejaVuSans-30"/>
       <use x="63.623047" xlink:href="#DejaVuSans-2e"/>
       <use x="95.410156" xlink:href="#DejaVuSans-34"/>
      </g>
     </g>
    </g>
    <g id="ytick_4">
     <g id="line2d_10">
      <g>
       <use style="stroke:#000000;stroke-width:0.8;" x="135" xlink:href="#md686d29dc9" y="215.712"/>
      </g>
     </g>
     <g id="text_11">
      <!-- 0.6 -->
      <g transform="translate(99.374375 222.550594)scale(0.18 -0.18)">
       <use xlink:href="#DejaVuSans-30"/>
       <use x="63.623047" xlink:href="#DejaVuSans-2e"/>
       <use x="95.410156" xlink:href="#DejaVuSans-36"/>
      </g>
     </g>
    </g>
    <g id="ytick_5">
     <g id="line2d_11">
      <g>
       <use style="stroke:#000000;stroke-width:0.8;" x="135" xlink:href="#md686d29dc9" y="138.096"/>
      </g>
     </g>
     <g id="text_12">
      <!-- 0.8 -->
      <g transform="translate(99.374375 144.934594)scale(0.18 -0.18)">
       <use xlink:href="#DejaVuSans-30"/>
       <use x="63.623047" xlink:href="#DejaVuSans-2e"/>
       <use x="95.410156" xlink:href="#DejaVuSans-38"/>
      </g>
     </g>
    </g>
    <g id="ytick_6">
     <g id="line2d_12">
      <g>
       <use style="stroke:#000000;stroke-width:0.8;" x="135" xlink:href="#md686d29dc9" y="60.48"/>
      </g>
     </g>
     <g id="text_13">
      <!-- 1.0 -->
      <g transform="translate(99.374375 67.318594)scale(0.18 -0.18)">
       <use xlink:href="#DejaVuSans-31"/>
       <use x="63.623047" xlink:href="#DejaVuSans-2e"/>
       <use x="95.410156" xlink:href="#DejaVuSans-30"/>
      </g>
     </g>
    </g>
    <g id="text_14">
     <!-- $TPR_{Fair}$ -->
     <g transform="translate(90.799062 290.27)rotate(-90)scale(0.22 -0.22)">
      <defs>
       <path d="M 378 4666 
L 4325 4666 
L 4225 4134 
L 2559 4134 
L 1759 0 
L 1125 0 
L 1925 4134 
L 275 4134 
L 378 4666 
z
" id="DejaVuSans-Oblique-54" transform="scale(0.015625)"/>
      </defs>
      <use transform="translate(0 0.09375)" xlink:href="#DejaVuSans-Oblique-54"/>
      <use transform="translate(61.083984 0.09375)" xlink:href="#DejaVuSans-Oblique-50"/>
      <use transform="translate(121.386719 0.09375)" xlink:href="#DejaVuSans-Oblique-52"/>
      <use transform="translate(190.869141 -16.3125)scale(0.7)" xlink:href="#DejaVuSans-Oblique-46"/>
      <use transform="translate(231.132812 -16.3125)scale(0.7)" xlink:href="#DejaVuSans-Oblique-61"/>
      <use transform="translate(274.02832 -16.3125)scale(0.7)" xlink:href="#DejaVuSans-Oblique-69"/>
      <use transform="translate(293.476562 -16.3125)scale(0.7)" xlink:href="#DejaVuSans-Oblique-72"/>
     </g>
    </g>
   </g>
   <g id="line2d_13">
    <path clip-path="url(#p2798ea30af)" d="M 135 448.56 
L 972 60.48 
" style="fill:none;stroke:#ff0000;stroke-dasharray:5.55,2.4;stroke-dashoffset:0;stroke-width:1.5;"/>
   </g>
   <g id="line2d_14">
    <path clip-path="url(#p2798ea30af)" d="M 972 60.48 
L 969.478536 170.914699 
L 967.071933 232.650827 
L 963.858146 271.965011 
L 960.664057 300.231491 
L 957.793685 320.112098 
L 954.221711 335.714702 
L 950.643677 347.858855 
L 947.386537 357.119577 
L 943.952211 364.805 
L 939.992446 371.802598 
L 936.340474 377.831222 
L 932.598008 382.998572 
L 928.296214 387.416743 
L 924.782724 391.031798 
L 920.53762 394.377637 
L 915.739323 397.276324 
L 911.371899 400.177826 
L 907.168721 402.488623 
L 902.62713 404.739162 
L 897.634941 406.60439 
L 892.880303 408.198953 
L 886.931215 409.857028 
L 882.162528 411.471203 
L 877.605687 412.711738 
L 872.736365 414.014095 
L 867.740544 415.161319 
L 862.882199 416.236302 
L 856.556232 417.265824 
L 851.133813 418.224521 
L 845.171651 419.099159 
L 839.299084 419.956168 
L 833.542156 420.801944 
L 827.612799 421.591353 
L 821.368182 422.276766 
L 815.744779 422.938334 
L 810.496503 423.511077 
L 804.73165 424.059236 
L 799.587316 424.608262 
L 793.682933 425.132906 
L 787.850955 425.670871 
L 782.404158 426.189076 
L 776.733339 426.605428 
L 770.945981 427.110112 
L 764.531101 427.620275 
L 759.096272 428.041641 
L 752.837003 428.457543 
L 747.173976 428.853832 
L 741.064275 429.20187 
L 734.983584 429.604883 
L 729.797244 430.010911 
L 723.701361 430.359411 
L 718.185949 430.799421 
L 712.034868 431.136716 
L 706.642893 431.474656 
L 700.780876 431.807934 
L 695.177226 432.157609 
L 689.515739 432.445596 
L 684.536672 432.758261 
L 678.354178 432.966193 
L 671.895213 433.243197 
L 666.059016 433.503202 
L 659.06957 433.7223 
L 652.964126 434.000304 
L 646.330583 434.263323 
L 640.511288 434.467734 
L 634.418429 434.758831 
L 628.292078 434.991952 
L 621.702023 435.193814 
L 615.962005 435.363105 
L 609.925424 435.573864 
L 603.18828 435.815132 
L 597.278847 436.067273 
L 589.363516 436.263796 
L 584.119695 436.483838 
L 577.305777 436.663959 
L 570.072414 436.875738 
L 563.618607 437.06837 
L 557.383231 437.254491 
L 549.983193 437.464712 
L 542.313679 437.695423 
L 533.881339 437.886919 
L 525.763803 438.061933 
L 516.989123 438.240861 
L 509.181508 438.422973 
L 500.894851 438.629371 
L 494.041767 438.797722 
L 487.365723 438.987753 
L 479.365167 439.200201 
L 472.445882 439.400116 
L 465.739135 439.609432 
L 457.583698 439.815764 
L 450.97474 440.036487 
L 443.337811 440.243366 
L 437.389995 440.416539 
L 431.164755 440.606783 
L 424.685797 440.7922 
L 418.647833 441.028774 
L 412.535689 441.246437 
L 406.464749 441.470688 
L 399.939079 441.649522 
" style="fill:none;stroke:#1f77b4;stroke-linecap:square;stroke-width:1.5;"/>
   </g>
   <g id="line2d_15">
    <path clip-path="url(#p2798ea30af)" d="M 972 60.48 
L 844.435171 97.625058 
L 747.497778 128.815929 
L 670.99482 154.880787 
L 609.185472 177.293582 
L 558.335666 196.795856 
L 516.504787 214.039829 
L 480.773438 229.071653 
L 450.056941 242.259209 
L 423.520735 253.795775 
L 400.295132 264.198195 
L 379.925371 273.694609 
L 361.892667 282.261279 
L 345.844605 290.047926 
L 331.493267 297.077076 
L 318.583814 303.407538 
L 306.809281 309.236023 
L 296.202569 314.816427 
L 286.609108 319.953838 
L 277.736375 324.754354 
L 269.644825 329.169817 
L 262.352289 333.17071 
L 255.566848 336.954364 
L 249.296157 340.621889 
L 243.503888 343.99226 
L 238.188944 347.222081 
L 233.288084 350.313731 
L 228.714228 353.006328 
L 224.523511 355.628481 
L 220.610669 358.201132 
L 216.90339 360.482637 
L 213.450775 362.743347 
L 210.210957 364.890093 
L 207.250915 366.93186 
L 204.444993 368.844021 
L 201.790576 370.684978 
L 199.321577 372.384223 
L 196.963155 373.956071 
L 194.755951 375.486396 
L 192.696274 376.980249 
L 190.767227 378.470965 
L 188.917467 379.843658 
L 187.200394 381.167089 
L 185.55713 382.432043 
L 183.981932 383.623029 
L 182.469532 384.797854 
L 181.064805 385.98621 
L 179.722514 387.103727 
L 178.416637 388.15387 
L 177.218129 389.207287 
L 176.0628 390.250617 
L 174.927428 391.276658 
L 173.863676 392.34108 
L 172.837266 393.263256 
L 171.876374 394.214477 
L 170.899962 395.113867 
L 170.011842 396.012457 
L 169.157511 396.818243 
L 168.323452 397.677033 
L 167.51353 398.520181 
L 166.734086 399.322804 
L 165.987829 400.105929 
L 165.208073 400.849484 
L 164.486762 401.584255 
L 163.788891 402.303029 
L 163.094985 403.018463 
L 162.426874 403.746996 
L 161.784088 404.448208 
L 161.152201 405.148299 
L 160.56328 405.847901 
L 159.988025 406.504363 
L 159.426312 407.169834 
L 158.871795 407.841074 
L 158.32569 408.468064 
L 157.780929 409.100275 
L 157.255773 409.707763 
L 156.748014 410.318446 
L 156.253228 410.883992 
L 155.7647 411.519941 
L 155.302459 412.11571 
L 154.843273 412.695808 
L 154.40035 413.27306 
L 153.948132 413.812088 
L 153.51135 414.370747 
L 153.092134 414.924529 
L 152.68082 415.461319 
L 152.276069 416.028232 
L 151.890658 416.555832 
L 151.52866 417.11861 
L 151.141273 417.693277 
L 150.771117 418.231407 
L 150.427264 418.745443 
L 150.084241 419.311392 
L 149.713939 419.865502 
L 149.359027 420.368135 
L 149.003689 420.891312 
L 148.663242 421.415279 
L 148.34646 421.946035 
L 148.028671 422.532835 
L 147.685873 423.112018 
L 147.359568 423.6157 
" style="fill:none;stroke:#ff7f0e;stroke-linecap:square;stroke-width:1.5;"/>
   </g>
   <g id="line2d_16">
    <path clip-path="url(#p2798ea30af)" d="M 972 60.48 
L 737.707575 151.434982 
L 602.419292 208.396782 
L 514.238522 246.925777 
L 452.017591 275.137922 
L 405.99041 296.64652 
L 370.71733 313.7141 
L 342.710929 327.174106 
L 319.921329 338.57244 
L 301.111766 347.828847 
L 285.285072 355.771707 
L 271.855263 362.594203 
L 260.29237 368.505814 
L 250.233601 373.702377 
L 241.451464 378.345921 
L 233.673821 382.411896 
L 226.760589 386.081827 
L 220.58481 389.399181 
L 215.083145 392.44348 
L 210.056951 395.1945 
L 205.506554 397.685762 
L 201.411921 399.971691 
L 197.676919 402.057431 
L 194.244593 404.008998 
L 191.103587 405.833934 
L 188.233256 407.545572 
L 185.585778 409.104886 
L 183.147868 410.530054 
L 180.922165 411.894097 
L 178.836623 413.171053 
L 176.881178 414.355431 
L 175.087187 415.486524 
L 173.388352 416.545739 
L 171.828641 417.530131 
L 170.373124 418.454686 
L 169.005799 419.337936 
L 167.726945 420.170726 
L 166.532696 420.95629 
L 165.401828 421.71215 
L 164.343608 422.44741 
L 163.346259 423.139304 
L 162.393911 423.802532 
L 161.504134 424.442534 
L 160.662773 425.048128 
L 159.859101 425.626222 
L 159.08692 426.176816 
L 158.371257 426.727757 
L 157.674174 427.231738 
L 157.006903 427.730093 
L 156.389103 428.205231 
L 155.793452 428.661748 
L 155.214471 429.109054 
L 154.659609 429.547873 
L 154.126765 429.952747 
L 153.630586 430.359198 
L 153.133378 430.734471 
L 152.66797 431.105422 
L 152.217624 431.457184 
L 151.77518 431.810644 
L 151.350265 432.159455 
L 150.937745 432.493687 
L 150.549576 432.816648 
L 150.158508 433.127538 
L 149.785212 433.420982 
L 149.425812 433.715879 
L 149.060845 434.004575 
L 148.720842 434.284797 
L 148.385848 434.560968 
L 148.063987 434.82612 
L 147.763828 435.085284 
L 147.468749 435.339164 
L 147.173273 435.589084 
L 146.886745 435.844338 
L 146.604683 436.081935 
L 146.330052 436.314069 
L 146.053792 436.542513 
L 145.795983 436.762061 
L 145.541725 436.976734 
L 145.295632 437.202521 
L 145.057497 437.410977 
L 144.822732 437.621593 
L 144.596469 437.827957 
L 144.367962 438.01913 
L 144.145448 438.211254 
L 143.937373 438.400642 
L 143.733243 438.586538 
L 143.533031 438.777027 
L 143.330439 438.961091 
L 143.139127 439.144588 
L 142.950366 439.318717 
L 142.764481 439.499299 
L 142.588943 439.667927 
L 142.406486 439.842024 
L 142.224164 440.014423 
L 142.049527 440.181121 
L 141.878539 440.342194 
L 141.706181 440.506326 
L 141.543834 440.671109 
L 141.383343 440.838882 
L 141.212766 441.009778 
L 141.056169 441.166233 
" style="fill:none;stroke:#2ca02c;stroke-linecap:square;stroke-width:1.5;"/>
   </g>
   <g id="line2d_17">
    <path clip-path="url(#p2798ea30af)" d="M 972 60.48 
L 971.781532 64.75081 
L 971.568345 68.933127 
L 971.320734 73.037749 
L 971.088168 77.243661 
L 970.849117 81.199663 
L 970.562823 85.203827 
L 970.287308 89.14921 
L 970.004807 92.705305 
L 969.726114 96.212308 
L 969.405311 99.915812 
L 969.104008 103.582085 
L 968.763735 107.102695 
L 968.410895 110.650448 
L 968.105528 113.923389 
L 967.751622 117.206228 
L 967.355247 120.336053 
L 966.977523 123.534178 
L 966.615727 126.607928 
L 966.216716 129.712426 
L 965.79468 132.621112 
L 965.389161 135.231624 
L 964.916549 138.147663 
L 964.493141 140.997648 
L 964.044539 143.545804 
L 963.613545 146.192446 
L 963.188896 148.801156 
L 962.762348 151.249694 
L 962.232213 153.767732 
L 961.773078 156.216464 
L 961.254116 158.531475 
L 960.749343 160.853443 
L 960.180283 163.213695 
L 959.640846 165.460178 
L 959.100309 167.618421 
L 958.561614 169.796046 
L 957.99299 171.77964 
L 957.353415 173.677303 
L 956.773141 175.67839 
L 956.168687 177.613483 
L 955.570508 179.631213 
L 954.974097 181.486611 
L 954.337286 183.360131 
L 953.697897 185.218676 
L 952.980656 187.029839 
L 952.315928 188.759069 
L 951.68328 190.639364 
L 951.014944 192.410189 
L 950.33016 194.151671 
L 949.639988 195.720616 
L 948.922985 197.487667 
L 948.225084 199.166306 
L 947.502642 200.808935 
L 946.719284 202.489508 
L 945.986249 204.321258 
L 945.187203 205.967079 
L 944.439743 207.706683 
L 943.635583 209.271126 
L 942.848471 210.894944 
L 941.981122 212.498481 
L 941.075236 214.196645 
L 940.182278 215.853712 
L 939.163085 217.446349 
L 938.177802 219.141604 
L 937.133748 220.880743 
L 936.095424 222.502469 
L 935.046135 224.143437 
L 933.977383 225.83188 
L 932.848085 227.432772 
L 931.756388 229.068805 
L 930.600979 230.831483 
L 929.371755 232.677294 
L 928.189368 234.473852 
L 926.820818 236.28647 
L 925.548544 238.064187 
L 924.175161 239.805543 
L 922.823581 241.67062 
L 921.427073 243.42517 
L 920.099229 245.374194 
L 918.564803 247.30517 
L 916.984862 249.23955 
L 915.33913 251.227642 
L 913.636975 253.242 
L 911.824093 255.274849 
L 910.177175 257.274902 
L 908.305099 259.302343 
L 906.442305 261.425526 
L 904.556806 263.514655 
L 902.679844 265.685621 
L 900.680747 267.853279 
L 898.789029 270.130757 
L 896.6897 272.311191 
L 894.526362 274.682884 
L 892.37829 277.059116 
L 890.168964 279.444103 
L 887.820359 281.717693 
L 885.58918 284.201611 
L 883.177874 286.589162 
L 880.781682 289.12852 
L 878.202975 291.657386 
L 875.499454 294.12281 
" style="fill:none;stroke:#d62728;stroke-linecap:square;stroke-width:1.5;"/>
   </g>
   <g id="line2d_18">
    <path clip-path="url(#p2798ea30af)" d="M 972 60.48 
L 971.932093 63.472982 
L 971.862982 66.436623 
L 971.778809 69.356657 
L 971.694129 72.373223 
L 971.612445 75.213286 
L 971.517072 78.117159 
L 971.418167 80.997282 
L 971.323258 83.602748 
L 971.229767 86.191978 
L 971.116318 88.931985 
L 971.00805 91.670806 
L 970.903812 94.329989 
L 970.785014 97.00559 
L 970.678974 99.502028 
L 970.554298 102.013499 
L 970.413912 104.423264 
L 970.288926 106.893047 
L 970.163528 109.284797 
L 970.026641 111.70943 
L 969.875482 113.983458 
L 969.732589 116.049344 
L 969.547077 118.360632 
L 969.398255 120.646768 
L 969.257451 122.706781 
L 969.098847 124.824825 
L 968.931672 126.942406 
L 968.771514 128.938653 
L 968.572418 130.997918 
L 968.394512 133.007773 
L 968.199764 134.935039 
L 967.998838 136.879468 
L 967.794271 138.839579 
L 967.594769 140.733471 
L 967.362887 142.57379 
L 967.155917 144.423413 
L 966.967045 146.117822 
L 966.744925 147.732623 
L 966.527814 149.464387 
L 966.292953 151.140667 
L 966.039388 152.894963 
L 965.826298 154.537663 
L 965.575533 156.168201 
L 965.315182 157.782627 
L 965.021413 159.380505 
L 964.760537 160.955009 
L 964.481378 162.609867 
L 964.216286 164.179666 
L 963.923238 165.770856 
L 963.622987 167.185344 
L 963.333091 168.781464 
L 963.031752 170.317868 
L 962.731594 171.795142 
L 962.380414 173.324211 
L 962.06029 175.005933 
L 961.713797 176.525368 
L 961.354025 178.124621 
L 960.983086 179.589878 
L 960.630219 181.118743 
L 960.227957 182.602658 
L 959.801234 184.179881 
L 959.38514 185.74949 
L 958.897166 187.24657 
L 958.439804 188.874492 
L 957.932742 190.507256 
L 957.437808 192.028641 
L 956.915237 193.603711 
L 956.38679 195.233674 
L 955.833397 196.800908 
L 955.291801 198.377872 
L 954.681738 200.058934 
L 954.0277 201.854997 
L 953.448449 203.605401 
L 952.69586 205.370371 
L 952.056439 207.079245 
L 951.303437 208.81765 
L 950.579029 210.668377 
L 949.826064 212.428073 
L 949.091632 214.359863 
L 948.252098 216.312117 
L 947.366099 218.265003 
L 946.427338 220.250951 
L 945.467439 222.313752 
L 944.457486 224.375145 
L 943.532234 226.427705 
L 942.469744 228.528161 
L 941.38817 230.716114 
L 940.308902 232.852291 
L 939.186302 235.124573 
L 938.008482 237.359195 
L 936.923139 239.724288 
L 935.667617 242.020481 
L 934.361044 244.49955 
L 933.074114 246.983076 
L 931.731423 249.503493 
L 930.332314 251.971131 
L 929.035825 254.605285 
L 927.574055 257.193914 
L 926.091526 259.907549 
L 924.557125 262.636142 
L 922.859237 265.336236 
" style="fill:none;stroke:#9467bd;stroke-linecap:square;stroke-width:1.5;"/>
   </g>
   <g id="line2d_19">
    <path clip-path="url(#p2798ea30af)" d="M 972 60.48 
L 897.653403 84.503864 
L 833.174723 106.035615 
L 776.972772 125.02468 
L 727.6574 142.169129 
L 684.250521 157.996587 
L 645.679098 172.613018 
L 611.297831 185.620544 
L 580.439866 197.776558 
L 552.580185 208.749482 
L 527.305143 218.87237 
L 504.387636 228.293204 
L 483.414636 237.05754 
L 464.214039 245.112791 
L 446.603113 252.743167 
L 430.275826 259.759785 
L 415.237549 266.450796 
L 401.233644 272.684333 
L 388.341835 278.664716 
L 376.330079 284.258825 
L 365.155829 289.496768 
L 354.758263 294.454738 
L 345.033707 299.112867 
L 335.915097 303.593766 
L 327.303173 307.81864 
L 319.291304 311.814107 
L 311.775871 315.643867 
L 304.64666 319.244676 
L 297.998926 322.721381 
L 291.718581 326.045889 
L 285.726439 329.187098 
L 280.108564 332.249934 
L 274.725524 335.151201 
L 269.699397 337.953463 
L 264.893235 340.59864 
L 260.338091 343.121002 
L 256.04004 345.559686 
L 251.897802 347.870057 
L 247.988838 350.117508 
L 244.288052 352.316774 
L 240.719994 354.439311 
L 237.288055 356.487517 
L 234.038741 358.458662 
L 230.910398 360.37921 
L 227.908479 362.204626 
L 225.03647 364.00092 
L 222.332901 365.744116 
L 219.686397 367.420526 
L 217.15024 369.083409 
L 214.726907 370.643014 
L 212.352691 372.174378 
L 210.074212 373.673626 
L 207.89736 375.135643 
L 205.794891 376.535028 
L 203.783727 377.926027 
L 201.82417 379.263409 
L 199.939608 380.575764 
L 198.100936 381.843118 
L 196.301283 383.087404 
L 194.602691 384.299582 
L 192.931275 385.50825 
L 191.33567 386.672729 
L 189.747716 387.802858 
L 188.230065 388.88839 
L 186.762705 389.981267 
L 185.315649 391.022313 
L 183.925774 392.067328 
L 182.58191 393.092828 
L 181.289181 394.081166 
L 180.023788 395.044591 
L 178.800688 396.020704 
L 177.614621 396.990223 
L 176.482059 397.948843 
L 175.34702 398.877927 
L 174.252168 399.76753 
L 173.188093 400.642478 
L 172.150973 401.503184 
L 171.15101 402.344548 
L 170.181172 403.228125 
L 169.236854 404.095117 
L 168.304575 404.938233 
L 167.407602 405.750702 
L 166.5258 406.555567 
L 165.67241 407.352899 
L 164.855496 408.133406 
L 164.041235 408.912569 
L 163.249995 409.685768 
L 162.48985 410.42757 
L 161.743127 411.181854 
L 161.013821 411.894498 
L 160.304138 412.63756 
L 159.603398 413.329957 
L 158.902104 414.06133 
L 158.220946 414.772486 
L 157.563574 415.456137 
L 156.911166 416.129237 
L 156.286245 416.827689 
L 155.678389 417.499515 
L 155.081983 418.193673 
L 154.477085 418.895744 
L 153.899088 419.559677 
" style="fill:none;stroke:#8c564b;stroke-linecap:square;stroke-width:1.5;"/>
   </g>
   <g id="line2d_20">
    <path clip-path="url(#p2798ea30af)" d="M 972 60.48 
L 904.931463 76.160633 
L 846.255949 90.642682 
L 794.289541 104.109318 
L 747.944669 116.787311 
L 706.455361 128.728329 
L 669.118361 139.719007 
L 635.241183 149.918147 
L 604.61115 159.885823 
L 576.708292 169.026406 
L 551.188863 177.744715 
L 527.856362 186.171226 
L 506.349135 194.073844 
L 486.54243 201.506027 
L 468.302287 208.610285 
L 451.35295 215.382773 
L 435.695476 221.773105 
L 421.042402 227.983741 
L 407.5548 233.852369 
L 394.879942 239.430843 
L 383.035893 244.803232 
L 371.971267 249.831857 
L 361.550613 254.699866 
L 351.784476 259.450367 
L 342.631365 263.962545 
L 334.029538 268.302273 
L 325.927617 272.46876 
L 318.293422 276.329175 
L 311.110988 280.148629 
L 304.321476 283.791546 
L 297.846211 287.251087 
L 291.792588 290.627162 
L 285.976596 293.90608 
L 280.510879 297.020284 
L 275.309115 299.999065 
L 270.380779 302.889156 
L 265.725054 305.685952 
L 261.240168 308.376649 
L 256.979542 310.982478 
L 252.938048 313.574505 
L 249.033757 316.039868 
L 245.312169 318.408554 
L 241.759905 320.721989 
L 238.390712 322.958641 
L 235.161629 325.142352 
L 232.055692 327.307285 
L 229.106549 329.420556 
L 226.234846 331.420242 
L 223.503948 333.426484 
L 220.866512 335.324029 
L 218.296206 337.206293 
L 215.835808 339.045112 
L 213.470248 340.84905 
L 211.186703 342.585803 
L 209.001903 344.325573 
L 206.900673 346.01624 
L 204.858289 347.671317 
L 202.87623 349.292364 
L 200.933302 350.892714 
L 199.089883 352.451571 
L 197.294613 353.999636 
L 195.565073 355.51223 
L 193.860174 357.002274 
L 192.241182 358.447164 
L 190.663394 359.914266 
L 189.112701 361.306738 
L 187.637441 362.711795 
L 186.204329 364.084375 
L 184.822342 365.443318 
L 183.469651 366.750687 
L 182.163207 368.084525 
L 180.902567 369.429004 
L 179.688029 370.767197 
L 178.481308 372.059533 
L 177.311955 373.32636 
L 176.171499 374.578043 
L 175.068329 375.825843 
L 173.99507 377.03044 
L 172.959981 378.294155 
L 171.947 379.535808 
L 170.960129 380.749694 
L 170.007643 381.921625 
L 169.072692 383.088751 
L 168.1588 384.251266 
L 167.282905 385.389148 
L 166.405282 386.520112 
L 165.557903 387.665321 
L 164.745122 388.766334 
L 163.945415 389.885876 
L 163.161314 390.94435 
L 162.398489 392.071496 
L 161.648467 393.110497 
L 160.899073 394.210306 
L 160.173135 395.268385 
L 159.467746 396.320733 
L 158.772763 397.351233 
L 158.103816 398.406542 
L 157.449859 399.428976 
L 156.805461 400.47161 
L 156.153057 401.540326 
L 155.529889 402.561845 
" style="fill:none;stroke:#e377c2;stroke-linecap:square;stroke-width:1.5;"/>
   </g>
   <g id="line2d_21">
    <path clip-path="url(#p2798ea30af)" d="M 972 60.48 
L 909.042125 80.57918 
L 853.291379 98.944005 
L 803.32668 115.443428 
L 758.469023 130.514475 
L 718.176756 144.835624 
L 681.483179 157.996082 
L 648.19288 169.957667 
L 617.878404 181.3601 
L 590.115199 191.74749 
L 564.572416 201.403831 
L 541.130702 210.63305 
L 519.467556 219.253185 
L 499.471267 227.178165 
L 480.949684 234.808189 
L 463.716659 241.885448 
L 447.706283 248.681206 
L 432.726479 254.997261 
L 418.828714 261.02011 
L 405.84739 266.710089 
L 393.69697 272.137293 
L 382.31703 277.271743 
L 371.604997 282.129821 
L 361.508235 286.831351 
L 352.000633 291.280057 
L 343.092576 295.502159 
L 334.706373 299.576083 
L 326.752736 303.385779 
L 319.285067 307.111438 
L 312.225538 310.656318 
L 305.484403 314.04247 
L 299.181793 317.309685 
L 293.130332 320.437558 
L 287.421953 323.447387 
L 281.98617 326.296913 
L 276.836568 329.036578 
L 271.970566 331.714163 
L 267.286713 334.249678 
L 262.849041 336.692312 
L 258.626556 339.127361 
L 254.577764 341.443466 
L 250.698624 343.67647 
L 246.996823 345.836602 
L 243.476483 347.937675 
L 240.095325 349.965982 
L 236.838472 351.95733 
L 233.759401 353.898069 
L 230.770286 355.749918 
L 227.908097 357.593627 
L 225.165014 359.331161 
L 222.491672 361.039432 
L 219.928327 362.706933 
L 217.465158 364.348678 
L 215.085866 365.918146 
L 212.800048 367.471941 
L 210.604844 368.966206 
L 208.4763 370.438315 
L 206.407892 371.857129 
L 204.37775 373.261768 
L 202.44872 374.621251 
L 200.56942 375.963617 
L 198.765619 377.273406 
L 196.993094 378.546735 
L 195.31002 379.771948 
L 193.674204 380.999599 
L 192.055613 382.187838 
L 190.510929 383.363396 
L 189.017238 384.498568 
L 187.565062 385.609171 
L 186.148102 386.68936 
L 184.78511 387.777616 
L 183.467035 388.869226 
L 182.200234 389.954554 
L 180.934032 391.006717 
L 179.707532 392.018585 
L 178.521529 393.021127 
L 177.367806 394.002973 
L 176.243283 394.96995 
L 175.154222 395.968616 
L 174.094063 396.948563 
L 173.06217 397.901538 
L 172.064353 398.82548 
L 171.085373 399.725492 
L 170.135667 400.630992 
L 169.223346 401.518843 
L 168.308943 402.401722 
L 167.425878 403.281727 
L 166.579349 404.125172 
L 165.742783 404.985363 
L 164.916703 405.803587 
L 164.114804 406.653516 
L 163.330396 407.443189 
L 162.547505 408.269681 
L 161.789229 409.078398 
L 161.053078 409.880262 
L 160.326189 410.658768 
L 159.622894 411.458931 
L 158.933742 412.23195 
L 158.25279 413.026772 
L 157.564941 413.833121 
L 156.911248 414.605612 
" style="fill:none;stroke:#7f7f7f;stroke-linecap:square;stroke-width:1.5;"/>
   </g>
   <g id="line2d_22">
    <path clip-path="url(#p2798ea30af)" d="M 972 60.48 
L 890.058585 91.49202 
L 820.66371 118.159372 
L 761.005038 141.146995 
L 709.277204 161.394671 
L 664.03529 179.365679 
L 624.13519 195.4635 
L 588.735378 209.578728 
L 557.215541 222.749115 
L 528.941623 234.403017 
L 503.427596 245.01019 
L 480.372139 254.814386 
L 459.394958 263.748541 
L 440.268791 271.906809 
L 422.817963 279.623889 
L 406.748333 286.578177 
L 391.987693 293.156527 
L 378.30111 299.277951 
L 365.746518 305.005988 
L 354.098471 310.281394 
L 343.27844 315.30798 
L 333.223037 320.002591 
L 323.83398 324.411042 
L 315.045509 328.609605 
L 306.844659 332.557693 
L 299.209802 336.290852 
L 292.048512 339.842933 
L 285.308669 343.138302 
L 279.004822 346.3154 
L 273.074472 349.335324 
L 267.468757 352.181868 
L 262.230973 354.932825 
L 257.22597 357.555999 
L 252.52533 360.050883 
L 248.075646 362.418425 
L 243.887423 364.673828 
L 239.940474 366.836439 
L 236.151873 368.893829 
L 232.576375 370.864698 
L 229.19582 372.790257 
L 225.946685 374.626744 
L 222.85645 376.395334 
L 219.922347 378.109016 
L 217.136349 379.745104 
L 214.474693 381.330942 
L 211.921239 382.872856 
L 209.511458 384.35681 
L 207.167554 385.767179 
L 204.933545 387.165821 
L 202.801107 388.49421 
L 200.726147 389.791723 
L 198.74784 391.045632 
L 196.85203 392.275681 
L 195.01923 393.448423 
L 193.258001 394.607198 
L 191.577661 395.721093 
L 189.952923 396.802008 
L 188.372451 397.858832 
L 186.828745 398.891366 
L 185.360775 399.887455 
L 183.931979 400.868976 
L 182.563115 401.820123 
L 181.225618 402.746386 
L 179.956391 403.629154 
L 178.723033 404.510383 
L 177.507625 405.359876 
L 176.35234 406.195787 
L 175.232716 407.012085 
L 174.142764 407.805592 
L 173.083315 408.569568 
L 172.065795 409.342331 
L 171.081389 410.115512 
L 170.138632 410.878668 
L 169.197609 411.614311 
L 168.28476 412.327065 
L 167.40575 413.028863 
L 166.546805 413.716603 
L 165.713814 414.386745 
L 164.910666 415.074526 
L 164.125802 415.748899 
L 163.367419 416.406107 
L 162.626355 417.043543 
L 161.903078 417.660201 
L 161.199124 418.282217 
L 160.522832 418.887689 
L 159.845286 419.486229 
L 159.191882 420.084228 
L 158.563764 420.662182 
L 157.943178 421.240581 
L 157.329698 421.789193 
L 156.733908 422.360254 
L 156.1532 422.894518 
L 155.573227 423.451745 
L 155.010635 423.989757 
L 154.461336 424.524267 
L 153.921411 425.041314 
L 153.39364 425.570586 
L 152.878429 426.083818 
L 152.370863 426.607935 
L 151.858566 427.140862 
L 151.368728 427.649669 
" style="fill:none;stroke:#bcbd22;stroke-linecap:square;stroke-width:1.5;"/>
   </g>
   <g id="line2d_23">
    <path clip-path="url(#p2798ea30af)" d="M 972 60.48 
L 911.374786 82.218273 
L 857.192512 101.898768 
L 808.357912 119.545608 
L 764.303444 135.720585 
L 724.410653 150.539613 
L 688.024751 164.240328 
L 654.864579 176.58784 
L 624.5533 188.405832 
L 596.754533 199.111237 
L 571.07036 209.049299 
L 547.443143 218.451195 
L 525.548975 227.200937 
L 505.267609 235.262406 
L 486.497866 243.044786 
L 468.954683 250.142846 
L 452.626382 256.960004 
L 437.313865 263.359948 
L 423.121611 269.398071 
L 409.79248 275.068339 
L 397.332077 280.515594 
L 385.635033 285.648753 
L 374.61989 290.526138 
L 364.22723 295.176703 
L 354.46681 299.60662 
L 345.320242 303.824885 
L 336.679979 307.892137 
L 328.508525 311.683547 
L 320.826912 315.375571 
L 313.556327 318.883849 
L 306.668755 322.219234 
L 300.181754 325.442793 
L 293.988668 328.557237 
L 288.148434 331.516382 
L 282.580997 334.336303 
L 277.329493 337.054982 
L 272.354832 339.689342 
L 267.571524 342.19014 
L 263.055208 344.592575 
L 258.759837 346.962561 
L 254.627353 349.214824 
L 250.699666 351.394802 
L 246.950412 353.523112 
L 243.387658 355.547308 
L 239.976353 357.528286 
L 236.701704 359.449155 
L 233.594372 361.319107 
L 230.574612 363.085782 
L 227.693238 364.866052 
L 224.939829 366.559151 
L 222.257288 368.218558 
L 219.695307 369.808564 
L 217.243587 371.369649 
L 214.868639 372.8656 
L 212.580755 374.356005 
L 210.402051 375.791507 
L 208.288162 377.190844 
L 206.231566 378.561031 
L 204.228874 379.907692 
L 202.316566 381.20967 
L 200.453757 382.493555 
L 198.662645 383.737956 
L 196.918896 384.951441 
L 195.254258 386.111102 
L 193.642249 387.268664 
L 192.057567 388.391804 
L 190.54033 389.499985 
L 189.065868 390.584858 
L 187.633904 391.640977 
L 186.249341 392.653897 
L 184.915267 393.681848 
L 183.622021 394.704651 
L 182.383221 395.714203 
L 181.148157 396.703439 
L 179.938398 397.653134 
L 178.780066 398.59453 
L 177.65421 399.520405 
L 176.566406 400.425887 
L 175.505323 401.350335 
L 174.465627 402.255718 
L 173.463404 403.146074 
L 172.48534 404.004306 
L 171.531814 404.844181 
L 170.60266 405.690963 
L 169.703466 406.516923 
L 168.803042 407.332796 
L 167.938168 408.153225 
L 167.100184 408.947236 
L 166.271154 409.743728 
L 165.454313 410.504068 
L 164.654306 411.293905 
L 163.880601 412.038465 
L 163.102891 412.80682 
L 162.345657 413.555575 
L 161.602327 414.298009 
L 160.871951 415.014221 
L 160.159357 415.750809 
L 159.46037 416.470804 
L 158.772282 417.204221 
L 158.077243 417.947485 
L 157.408426 418.663453 
" style="fill:none;stroke:#17becf;stroke-linecap:square;stroke-width:1.5;"/>
   </g>
   <g id="patch_3">
    <path d="M 135 448.56 
L 135 60.48 
" style="fill:none;stroke:#000000;stroke-linecap:square;stroke-linejoin:miter;stroke-width:0.8;"/>
   </g>
   <g id="patch_4">
    <path d="M 972 448.56 
L 972 60.48 
" style="fill:none;stroke:#000000;stroke-linecap:square;stroke-linejoin:miter;stroke-width:0.8;"/>
   </g>
   <g id="patch_5">
    <path d="M 135 448.56 
L 972 448.56 
" style="fill:none;stroke:#000000;stroke-linecap:square;stroke-linejoin:miter;stroke-width:0.8;"/>
   </g>
   <g id="patch_6">
    <path d="M 135 60.48 
L 972 60.48 
" style="fill:none;stroke:#000000;stroke-linecap:square;stroke-linejoin:miter;stroke-width:0.8;"/>
   </g>
   <g id="legend_1">
    <g id="patch_7">
     <path d="M 147.6 339.08625 
L 256.730625 339.08625 
Q 260.330625 339.08625 260.330625 335.48625 
L 260.330625 73.08 
Q 260.330625 69.48 256.730625 69.48 
L 147.6 69.48 
Q 144 69.48 144 73.08 
L 144 335.48625 
Q 144 339.08625 147.6 339.08625 
z
" style="fill:#ffffff;opacity:0.8;stroke:#cccccc;stroke-linejoin:miter;"/>
    </g>
    <g id="line2d_24">
     <path d="M 151.2 84.057188 
L 187.2 84.057188 
" style="fill:none;stroke:#1f77b4;stroke-linecap:square;stroke-width:1.5;"/>
    </g>
    <g id="line2d_25"/>
    <g id="text_15">
     <!-- 0.001 -->
     <g transform="translate(201.6 90.357188)scale(0.18 -0.18)">
      <use xlink:href="#DejaVuSans-30"/>
      <use x="63.623047" xlink:href="#DejaVuSans-2e"/>
      <use x="95.410156" xlink:href="#DejaVuSans-30"/>
      <use x="159.033203" xlink:href="#DejaVuSans-30"/>
      <use x="222.65625" xlink:href="#DejaVuSans-31"/>
     </g>
    </g>
    <g id="line2d_26">
     <path d="M 151.2 110.477812 
L 187.2 110.477812 
" style="fill:none;stroke:#ff7f0e;stroke-linecap:square;stroke-width:1.5;"/>
    </g>
    <g id="line2d_27"/>
    <g id="text_16">
     <!-- 0.011 -->
     <g transform="translate(201.6 116.777812)scale(0.18 -0.18)">
      <use xlink:href="#DejaVuSans-30"/>
      <use x="63.623047" xlink:href="#DejaVuSans-2e"/>
      <use x="95.410156" xlink:href="#DejaVuSans-30"/>
      <use x="159.033203" xlink:href="#DejaVuSans-31"/>
      <use x="222.65625" xlink:href="#DejaVuSans-31"/>
     </g>
    </g>
    <g id="line2d_28">
     <path d="M 151.2 136.898438 
L 187.2 136.898438 
" style="fill:none;stroke:#2ca02c;stroke-linecap:square;stroke-width:1.5;"/>
    </g>
    <g id="line2d_29"/>
    <g id="text_17">
     <!-- 0.021 -->
     <g transform="translate(201.6 143.198438)scale(0.18 -0.18)">
      <use xlink:href="#DejaVuSans-30"/>
      <use x="63.623047" xlink:href="#DejaVuSans-2e"/>
      <use x="95.410156" xlink:href="#DejaVuSans-30"/>
      <use x="159.033203" xlink:href="#DejaVuSans-32"/>
      <use x="222.65625" xlink:href="#DejaVuSans-31"/>
     </g>
    </g>
    <g id="line2d_30">
     <path d="M 151.2 163.319062 
L 187.2 163.319062 
" style="fill:none;stroke:#d62728;stroke-linecap:square;stroke-width:1.5;"/>
    </g>
    <g id="line2d_31"/>
    <g id="text_18">
     <!-- 0.031 -->
     <g transform="translate(201.6 169.619062)scale(0.18 -0.18)">
      <defs>
       <path d="M 2597 2516 
Q 3050 2419 3304 2112 
Q 3559 1806 3559 1356 
Q 3559 666 3084 287 
Q 2609 -91 1734 -91 
Q 1441 -91 1130 -33 
Q 819 25 488 141 
L 488 750 
Q 750 597 1062 519 
Q 1375 441 1716 441 
Q 2309 441 2620 675 
Q 2931 909 2931 1356 
Q 2931 1769 2642 2001 
Q 2353 2234 1838 2234 
L 1294 2234 
L 1294 2753 
L 1863 2753 
Q 2328 2753 2575 2939 
Q 2822 3125 2822 3475 
Q 2822 3834 2567 4026 
Q 2313 4219 1838 4219 
Q 1578 4219 1281 4162 
Q 984 4106 628 3988 
L 628 4550 
Q 988 4650 1302 4700 
Q 1616 4750 1894 4750 
Q 2613 4750 3031 4423 
Q 3450 4097 3450 3541 
Q 3450 3153 3228 2886 
Q 3006 2619 2597 2516 
z
" id="DejaVuSans-33" transform="scale(0.015625)"/>
      </defs>
      <use xlink:href="#DejaVuSans-30"/>
      <use x="63.623047" xlink:href="#DejaVuSans-2e"/>
      <use x="95.410156" xlink:href="#DejaVuSans-30"/>
      <use x="159.033203" xlink:href="#DejaVuSans-33"/>
      <use x="222.65625" xlink:href="#DejaVuSans-31"/>
     </g>
    </g>
    <g id="line2d_32">
     <path d="M 151.2 189.739688 
L 187.2 189.739688 
" style="fill:none;stroke:#9467bd;stroke-linecap:square;stroke-width:1.5;"/>
    </g>
    <g id="line2d_33"/>
    <g id="text_19">
     <!-- 0.041 -->
     <g transform="translate(201.6 196.039688)scale(0.18 -0.18)">
      <use xlink:href="#DejaVuSans-30"/>
      <use x="63.623047" xlink:href="#DejaVuSans-2e"/>
      <use x="95.410156" xlink:href="#DejaVuSans-30"/>
      <use x="159.033203" xlink:href="#DejaVuSans-34"/>
      <use x="222.65625" xlink:href="#DejaVuSans-31"/>
     </g>
    </g>
    <g id="line2d_34">
     <path d="M 151.2 216.160312 
L 187.2 216.160312 
" style="fill:none;stroke:#8c564b;stroke-linecap:square;stroke-width:1.5;"/>
    </g>
    <g id="line2d_35"/>
    <g id="text_20">
     <!-- 0.051 -->
     <g transform="translate(201.6 222.460312)scale(0.18 -0.18)">
      <defs>
       <path d="M 691 4666 
L 3169 4666 
L 3169 4134 
L 1269 4134 
L 1269 2991 
Q 1406 3038 1543 3061 
Q 1681 3084 1819 3084 
Q 2600 3084 3056 2656 
Q 3513 2228 3513 1497 
Q 3513 744 3044 326 
Q 2575 -91 1722 -91 
Q 1428 -91 1123 -41 
Q 819 9 494 109 
L 494 744 
Q 775 591 1075 516 
Q 1375 441 1709 441 
Q 2250 441 2565 725 
Q 2881 1009 2881 1497 
Q 2881 1984 2565 2268 
Q 2250 2553 1709 2553 
Q 1456 2553 1204 2497 
Q 953 2441 691 2322 
L 691 4666 
z
" id="DejaVuSans-35" transform="scale(0.015625)"/>
      </defs>
      <use xlink:href="#DejaVuSans-30"/>
      <use x="63.623047" xlink:href="#DejaVuSans-2e"/>
      <use x="95.410156" xlink:href="#DejaVuSans-30"/>
      <use x="159.033203" xlink:href="#DejaVuSans-35"/>
      <use x="222.65625" xlink:href="#DejaVuSans-31"/>
     </g>
    </g>
    <g id="line2d_36">
     <path d="M 151.2 242.580937 
L 187.2 242.580937 
" style="fill:none;stroke:#e377c2;stroke-linecap:square;stroke-width:1.5;"/>
    </g>
    <g id="line2d_37"/>
    <g id="text_21">
     <!-- 0.061 -->
     <g transform="translate(201.6 248.880937)scale(0.18 -0.18)">
      <use xlink:href="#DejaVuSans-30"/>
      <use x="63.623047" xlink:href="#DejaVuSans-2e"/>
      <use x="95.410156" xlink:href="#DejaVuSans-30"/>
      <use x="159.033203" xlink:href="#DejaVuSans-36"/>
      <use x="222.65625" xlink:href="#DejaVuSans-31"/>
     </g>
    </g>
    <g id="line2d_38">
     <path d="M 151.2 269.001562 
L 187.2 269.001562 
" style="fill:none;stroke:#7f7f7f;stroke-linecap:square;stroke-width:1.5;"/>
    </g>
    <g id="line2d_39"/>
    <g id="text_22">
     <!-- 0.071 -->
     <g transform="translate(201.6 275.301562)scale(0.18 -0.18)">
      <defs>
       <path d="M 525 4666 
L 3525 4666 
L 3525 4397 
L 1831 0 
L 1172 0 
L 2766 4134 
L 525 4134 
L 525 4666 
z
" id="DejaVuSans-37" transform="scale(0.015625)"/>
      </defs>
      <use xlink:href="#DejaVuSans-30"/>
      <use x="63.623047" xlink:href="#DejaVuSans-2e"/>
      <use x="95.410156" xlink:href="#DejaVuSans-30"/>
      <use x="159.033203" xlink:href="#DejaVuSans-37"/>
      <use x="222.65625" xlink:href="#DejaVuSans-31"/>
     </g>
    </g>
    <g id="line2d_40">
     <path d="M 151.2 295.422188 
L 187.2 295.422188 
" style="fill:none;stroke:#bcbd22;stroke-linecap:square;stroke-width:1.5;"/>
    </g>
    <g id="line2d_41"/>
    <g id="text_23">
     <!-- 0.081 -->
     <g transform="translate(201.6 301.722188)scale(0.18 -0.18)">
      <use xlink:href="#DejaVuSans-30"/>
      <use x="63.623047" xlink:href="#DejaVuSans-2e"/>
      <use x="95.410156" xlink:href="#DejaVuSans-30"/>
      <use x="159.033203" xlink:href="#DejaVuSans-38"/>
      <use x="222.65625" xlink:href="#DejaVuSans-31"/>
     </g>
    </g>
    <g id="line2d_42">
     <path d="M 151.2 321.842812 
L 187.2 321.842812 
" style="fill:none;stroke:#17becf;stroke-linecap:square;stroke-width:1.5;"/>
    </g>
    <g id="line2d_43"/>
    <g id="text_24">
     <!-- 0.091 -->
     <g transform="translate(201.6 328.142812)scale(0.18 -0.18)">
      <defs>
       <path d="M 703 97 
L 703 672 
Q 941 559 1184 500 
Q 1428 441 1663 441 
Q 2288 441 2617 861 
Q 2947 1281 2994 2138 
Q 2813 1869 2534 1725 
Q 2256 1581 1919 1581 
Q 1219 1581 811 2004 
Q 403 2428 403 3163 
Q 403 3881 828 4315 
Q 1253 4750 1959 4750 
Q 2769 4750 3195 4129 
Q 3622 3509 3622 2328 
Q 3622 1225 3098 567 
Q 2575 -91 1691 -91 
Q 1453 -91 1209 -44 
Q 966 3 703 97 
z
M 1959 2075 
Q 2384 2075 2632 2365 
Q 2881 2656 2881 3163 
Q 2881 3666 2632 3958 
Q 2384 4250 1959 4250 
Q 1534 4250 1286 3958 
Q 1038 3666 1038 3163 
Q 1038 2656 1286 2365 
Q 1534 2075 1959 2075 
z
" id="DejaVuSans-39" transform="scale(0.015625)"/>
      </defs>
      <use xlink:href="#DejaVuSans-30"/>
      <use x="63.623047" xlink:href="#DejaVuSans-2e"/>
      <use x="95.410156" xlink:href="#DejaVuSans-30"/>
      <use x="159.033203" xlink:href="#DejaVuSans-39"/>
      <use x="222.65625" xlink:href="#DejaVuSans-31"/>
     </g>
    </g>
   </g>
  </g>
 </g>
 <defs>
  <clipPath id="p2798ea30af">
   <rect height="388.08" width="837" x="135" y="60.48"/>
  </clipPath>
 </defs>
</svg>
