<?xml version="1.0" encoding="utf-8" standalone="no"?>
<!DOCTYPE svg PUBLIC "-//W3C//DTD SVG 1.1//EN"
  "http://www.w3.org/Graphics/SVG/1.1/DTD/svg11.dtd">
<svg height="504pt" version="1.1" viewBox="0 0 1080 504" width="1080pt" xmlns="http://www.w3.org/2000/svg" xmlns:xlink="http://www.w3.org/1999/xlink">
 <metadata>
  <rdf:RDF xmlns:cc="http://creativecommons.org/ns#" xmlns:dc="http://purl.org/dc/elements/1.1/" xmlns:rdf="http://www.w3.org/1999/02/22-rdf-syntax-ns#">
   <cc:Work>
    <dc:type rdf:resource="http://purl.org/dc/dcmitype/StillImage"/>
    <dc:date>2022-01-07T13:22:37.095720</dc:date>
    <dc:format>image/svg+xml</dc:format>
    <dc:creator>
     <cc:Agent>
      <dc:title>Matplotlib v3.4.3, https://matplotlib.org/</dc:title>
     </cc:Agent>
    </dc:creator>
   </cc:Work>
  </rdf:RDF>
 </metadata>
 <defs>
  <style type="text/css">*{stroke-linecap:butt;stroke-linejoin:round;}</style>
 </defs>
 <g id="figure_1">
  <g id="patch_1">
   <path d="M 0 504 
L 1080 504 
L 1080 0 
L 0 0 
z
" style="fill:#ffffff;"/>
  </g>
  <g id="axes_1">
   <g id="patch_2">
    <path d="M 135 448.56 
L 972 448.56 
L 972 60.48 
L 135 60.48 
z
" style="fill:#ffffff;"/>
   </g>
   <g id="matplotlib.axis_1">
    <g id="xtick_1">
     <g id="line2d_1">
      <defs>
       <path d="M 0 0 
L 0 3.5 
" id="m44db1c05d3" style="stroke:#000000;stroke-width:0.8;"/>
      </defs>
      <g>
       <use style="stroke:#000000;stroke-width:0.8;" x="135" xlink:href="#m44db1c05d3" y="448.56"/>
      </g>
     </g>
     <g id="text_1">
      <!-- 0.0 -->
      <g transform="translate(120.687187 469.237188)scale(0.18 -0.18)">
       <defs>
        <path d="M 2034 4250 
Q 1547 4250 1301 3770 
Q 1056 3291 1056 2328 
Q 1056 1369 1301 889 
Q 1547 409 2034 409 
Q 2525 409 2770 889 
Q 3016 1369 3016 2328 
Q 3016 3291 2770 3770 
Q 2525 4250 2034 4250 
z
M 2034 4750 
Q 2819 4750 3233 4129 
Q 3647 3509 3647 2328 
Q 3647 1150 3233 529 
Q 2819 -91 2034 -91 
Q 1250 -91 836 529 
Q 422 1150 422 2328 
Q 422 3509 836 4129 
Q 1250 4750 2034 4750 
z
" id="DejaVuSans-30" transform="scale(0.015625)"/>
        <path d="M 684 794 
L 1344 794 
L 1344 0 
L 684 0 
L 684 794 
z
" id="DejaVuSans-2e" transform="scale(0.015625)"/>
       </defs>
       <use xlink:href="#DejaVuSans-30"/>
       <use x="63.623047" xlink:href="#DejaVuSans-2e"/>
       <use x="95.410156" xlink:href="#DejaVuSans-30"/>
      </g>
     </g>
    </g>
    <g id="xtick_2">
     <g id="line2d_2">
      <g>
       <use style="stroke:#000000;stroke-width:0.8;" x="302.4" xlink:href="#m44db1c05d3" y="448.56"/>
      </g>
     </g>
     <g id="text_2">
      <!-- 0.2 -->
      <g transform="translate(288.087187 469.237188)scale(0.18 -0.18)">
       <defs>
        <path d="M 1228 531 
L 3431 531 
L 3431 0 
L 469 0 
L 469 531 
Q 828 903 1448 1529 
Q 2069 2156 2228 2338 
Q 2531 2678 2651 2914 
Q 2772 3150 2772 3378 
Q 2772 3750 2511 3984 
Q 2250 4219 1831 4219 
Q 1534 4219 1204 4116 
Q 875 4013 500 3803 
L 500 4441 
Q 881 4594 1212 4672 
Q 1544 4750 1819 4750 
Q 2544 4750 2975 4387 
Q 3406 4025 3406 3419 
Q 3406 3131 3298 2873 
Q 3191 2616 2906 2266 
Q 2828 2175 2409 1742 
Q 1991 1309 1228 531 
z
" id="DejaVuSans-32" transform="scale(0.015625)"/>
       </defs>
       <use xlink:href="#DejaVuSans-30"/>
       <use x="63.623047" xlink:href="#DejaVuSans-2e"/>
       <use x="95.410156" xlink:href="#DejaVuSans-32"/>
      </g>
     </g>
    </g>
    <g id="xtick_3">
     <g id="line2d_3">
      <g>
       <use style="stroke:#000000;stroke-width:0.8;" x="469.8" xlink:href="#m44db1c05d3" y="448.56"/>
      </g>
     </g>
     <g id="text_3">
      <!-- 0.4 -->
      <g transform="translate(455.487188 469.237188)scale(0.18 -0.18)">
       <defs>
        <path d="M 2419 4116 
L 825 1625 
L 2419 1625 
L 2419 4116 
z
M 2253 4666 
L 3047 4666 
L 3047 1625 
L 3713 1625 
L 3713 1100 
L 3047 1100 
L 3047 0 
L 2419 0 
L 2419 1100 
L 313 1100 
L 313 1709 
L 2253 4666 
z
" id="DejaVuSans-34" transform="scale(0.015625)"/>
       </defs>
       <use xlink:href="#DejaVuSans-30"/>
       <use x="63.623047" xlink:href="#DejaVuSans-2e"/>
       <use x="95.410156" xlink:href="#DejaVuSans-34"/>
      </g>
     </g>
    </g>
    <g id="xtick_4">
     <g id="line2d_4">
      <g>
       <use style="stroke:#000000;stroke-width:0.8;" x="637.2" xlink:href="#m44db1c05d3" y="448.56"/>
      </g>
     </g>
     <g id="text_4">
      <!-- 0.6 -->
      <g transform="translate(622.887188 469.237188)scale(0.18 -0.18)">
       <defs>
        <path d="M 2113 2584 
Q 1688 2584 1439 2293 
Q 1191 2003 1191 1497 
Q 1191 994 1439 701 
Q 1688 409 2113 409 
Q 2538 409 2786 701 
Q 3034 994 3034 1497 
Q 3034 2003 2786 2293 
Q 2538 2584 2113 2584 
z
M 3366 4563 
L 3366 3988 
Q 3128 4100 2886 4159 
Q 2644 4219 2406 4219 
Q 1781 4219 1451 3797 
Q 1122 3375 1075 2522 
Q 1259 2794 1537 2939 
Q 1816 3084 2150 3084 
Q 2853 3084 3261 2657 
Q 3669 2231 3669 1497 
Q 3669 778 3244 343 
Q 2819 -91 2113 -91 
Q 1303 -91 875 529 
Q 447 1150 447 2328 
Q 447 3434 972 4092 
Q 1497 4750 2381 4750 
Q 2619 4750 2861 4703 
Q 3103 4656 3366 4563 
z
" id="DejaVuSans-36" transform="scale(0.015625)"/>
       </defs>
       <use xlink:href="#DejaVuSans-30"/>
       <use x="63.623047" xlink:href="#DejaVuSans-2e"/>
       <use x="95.410156" xlink:href="#DejaVuSans-36"/>
      </g>
     </g>
    </g>
    <g id="xtick_5">
     <g id="line2d_5">
      <g>
       <use style="stroke:#000000;stroke-width:0.8;" x="804.6" xlink:href="#m44db1c05d3" y="448.56"/>
      </g>
     </g>
     <g id="text_5">
      <!-- 0.8 -->
      <g transform="translate(790.287188 469.237188)scale(0.18 -0.18)">
       <defs>
        <path d="M 2034 2216 
Q 1584 2216 1326 1975 
Q 1069 1734 1069 1313 
Q 1069 891 1326 650 
Q 1584 409 2034 409 
Q 2484 409 2743 651 
Q 3003 894 3003 1313 
Q 3003 1734 2745 1975 
Q 2488 2216 2034 2216 
z
M 1403 2484 
Q 997 2584 770 2862 
Q 544 3141 544 3541 
Q 544 4100 942 4425 
Q 1341 4750 2034 4750 
Q 2731 4750 3128 4425 
Q 3525 4100 3525 3541 
Q 3525 3141 3298 2862 
Q 3072 2584 2669 2484 
Q 3125 2378 3379 2068 
Q 3634 1759 3634 1313 
Q 3634 634 3220 271 
Q 2806 -91 2034 -91 
Q 1263 -91 848 271 
Q 434 634 434 1313 
Q 434 1759 690 2068 
Q 947 2378 1403 2484 
z
M 1172 3481 
Q 1172 3119 1398 2916 
Q 1625 2713 2034 2713 
Q 2441 2713 2670 2916 
Q 2900 3119 2900 3481 
Q 2900 3844 2670 4047 
Q 2441 4250 2034 4250 
Q 1625 4250 1398 4047 
Q 1172 3844 1172 3481 
z
" id="DejaVuSans-38" transform="scale(0.015625)"/>
       </defs>
       <use xlink:href="#DejaVuSans-30"/>
       <use x="63.623047" xlink:href="#DejaVuSans-2e"/>
       <use x="95.410156" xlink:href="#DejaVuSans-38"/>
      </g>
     </g>
    </g>
    <g id="xtick_6">
     <g id="line2d_6">
      <g>
       <use style="stroke:#000000;stroke-width:0.8;" x="972" xlink:href="#m44db1c05d3" y="448.56"/>
      </g>
     </g>
     <g id="text_6">
      <!-- 1.0 -->
      <g transform="translate(957.687188 469.237188)scale(0.18 -0.18)">
       <defs>
        <path d="M 794 531 
L 1825 531 
L 1825 4091 
L 703 3866 
L 703 4441 
L 1819 4666 
L 2450 4666 
L 2450 531 
L 3481 531 
L 3481 0 
L 794 0 
L 794 531 
z
" id="DejaVuSans-31" transform="scale(0.015625)"/>
       </defs>
       <use xlink:href="#DejaVuSans-31"/>
       <use x="63.623047" xlink:href="#DejaVuSans-2e"/>
       <use x="95.410156" xlink:href="#DejaVuSans-30"/>
      </g>
     </g>
    </g>
    <g id="text_7">
     <!-- $FPR_{Fair}$ -->
     <g transform="translate(518.08 493.697187)scale(0.22 -0.22)">
      <defs>
       <path d="M 1081 4666 
L 3756 4666 
L 3653 4134 
L 1606 4134 
L 1338 2759 
L 3188 2759 
L 3084 2228 
L 1234 2228 
L 800 0 
L 172 0 
L 1081 4666 
z
" id="DejaVuSans-Oblique-46" transform="scale(0.015625)"/>
       <path d="M 1081 4666 
L 2541 4666 
Q 3178 4666 3512 4369 
Q 3847 4072 3847 3500 
Q 3847 2731 3353 2303 
Q 2859 1875 1966 1875 
L 1172 1875 
L 806 0 
L 172 0 
L 1081 4666 
z
M 1613 4147 
L 1275 2394 
L 2069 2394 
Q 2606 2394 2893 2669 
Q 3181 2944 3181 3456 
Q 3181 3784 2986 3965 
Q 2791 4147 2438 4147 
L 1613 4147 
z
" id="DejaVuSans-Oblique-50" transform="scale(0.015625)"/>
       <path d="M 1613 4147 
L 1294 2491 
L 2106 2491 
Q 2584 2491 2879 2755 
Q 3175 3019 3175 3444 
Q 3175 3784 2976 3965 
Q 2778 4147 2406 4147 
L 1613 4147 
z
M 2772 2241 
Q 2972 2194 3105 2009 
Q 3238 1825 3413 1275 
L 3809 0 
L 3144 0 
L 2778 1197 
Q 2638 1659 2453 1815 
Q 2269 1972 1888 1972 
L 1191 1972 
L 806 0 
L 172 0 
L 1081 4666 
L 2503 4666 
Q 3150 4666 3495 4373 
Q 3841 4081 3841 3531 
Q 3841 3044 3547 2687 
Q 3253 2331 2772 2241 
z
" id="DejaVuSans-Oblique-52" transform="scale(0.015625)"/>
       <path d="M 3438 1997 
L 3047 0 
L 2472 0 
L 2578 531 
Q 2325 219 2001 64 
Q 1678 -91 1281 -91 
Q 834 -91 548 182 
Q 263 456 263 884 
Q 263 1497 752 1853 
Q 1241 2209 2100 2209 
L 2900 2209 
L 2931 2363 
Q 2938 2388 2941 2417 
Q 2944 2447 2944 2509 
Q 2944 2788 2717 2942 
Q 2491 3097 2081 3097 
Q 1800 3097 1504 3025 
Q 1209 2953 897 2809 
L 997 3341 
Q 1322 3463 1633 3523 
Q 1944 3584 2234 3584 
Q 2853 3584 3176 3315 
Q 3500 3047 3500 2534 
Q 3500 2431 3484 2292 
Q 3469 2153 3438 1997 
z
M 2816 1759 
L 2241 1759 
Q 1534 1759 1195 1570 
Q 856 1381 856 984 
Q 856 709 1029 553 
Q 1203 397 1509 397 
Q 1978 397 2328 733 
Q 2678 1069 2791 1631 
L 2816 1759 
z
" id="DejaVuSans-Oblique-61" transform="scale(0.015625)"/>
       <path d="M 1172 4863 
L 1747 4863 
L 1606 4134 
L 1031 4134 
L 1172 4863 
z
M 909 3500 
L 1484 3500 
L 800 0 
L 225 0 
L 909 3500 
z
" id="DejaVuSans-Oblique-69" transform="scale(0.015625)"/>
       <path d="M 2853 2969 
Q 2766 3016 2653 3041 
Q 2541 3066 2413 3066 
Q 1953 3066 1609 2717 
Q 1266 2369 1153 1784 
L 800 0 
L 225 0 
L 909 3500 
L 1484 3500 
L 1375 2956 
Q 1603 3259 1920 3421 
Q 2238 3584 2597 3584 
Q 2691 3584 2781 3573 
Q 2872 3563 2963 3538 
L 2853 2969 
z
" id="DejaVuSans-Oblique-72" transform="scale(0.015625)"/>
      </defs>
      <use transform="translate(0 0.09375)" xlink:href="#DejaVuSans-Oblique-46"/>
      <use transform="translate(57.519531 0.09375)" xlink:href="#DejaVuSans-Oblique-50"/>
      <use transform="translate(117.822266 0.09375)" xlink:href="#DejaVuSans-Oblique-52"/>
      <use transform="translate(187.304688 -16.3125)scale(0.7)" xlink:href="#DejaVuSans-Oblique-46"/>
      <use transform="translate(227.568359 -16.3125)scale(0.7)" xlink:href="#DejaVuSans-Oblique-61"/>
      <use transform="translate(270.463867 -16.3125)scale(0.7)" xlink:href="#DejaVuSans-Oblique-69"/>
      <use transform="translate(289.912109 -16.3125)scale(0.7)" xlink:href="#DejaVuSans-Oblique-72"/>
     </g>
    </g>
   </g>
   <g id="matplotlib.axis_2">
    <g id="ytick_1">
     <g id="line2d_7">
      <defs>
       <path d="M 0 0 
L -3.5 0 
" id="mae2cc81494" style="stroke:#000000;stroke-width:0.8;"/>
      </defs>
      <g>
       <use style="stroke:#000000;stroke-width:0.8;" x="135" xlink:href="#mae2cc81494" y="448.56"/>
      </g>
     </g>
     <g id="text_8">
      <!-- 0.0 -->
      <g transform="translate(99.374375 455.398594)scale(0.18 -0.18)">
       <use xlink:href="#DejaVuSans-30"/>
       <use x="63.623047" xlink:href="#DejaVuSans-2e"/>
       <use x="95.410156" xlink:href="#DejaVuSans-30"/>
      </g>
     </g>
    </g>
    <g id="ytick_2">
     <g id="line2d_8">
      <g>
       <use style="stroke:#000000;stroke-width:0.8;" x="135" xlink:href="#mae2cc81494" y="370.944"/>
      </g>
     </g>
     <g id="text_9">
      <!-- 0.2 -->
      <g transform="translate(99.374375 377.782594)scale(0.18 -0.18)">
       <use xlink:href="#DejaVuSans-30"/>
       <use x="63.623047" xlink:href="#DejaVuSans-2e"/>
       <use x="95.410156" xlink:href="#DejaVuSans-32"/>
      </g>
     </g>
    </g>
    <g id="ytick_3">
     <g id="line2d_9">
      <g>
       <use style="stroke:#000000;stroke-width:0.8;" x="135" xlink:href="#mae2cc81494" y="293.328"/>
      </g>
     </g>
     <g id="text_10">
      <!-- 0.4 -->
      <g transform="translate(99.374375 300.166594)scale(0.18 -0.18)">
       <use xlink:href="#DejaVuSans-30"/>
       <use x="63.623047" xlink:href="#DejaVuSans-2e"/>
       <use x="95.410156" xlink:href="#DejaVuSans-34"/>
      </g>
     </g>
    </g>
    <g id="ytick_4">
     <g id="line2d_10">
      <g>
       <use style="stroke:#000000;stroke-width:0.8;" x="135" xlink:href="#mae2cc81494" y="215.712"/>
      </g>
     </g>
     <g id="text_11">
      <!-- 0.6 -->
      <g transform="translate(99.374375 222.550594)scale(0.18 -0.18)">
       <use xlink:href="#DejaVuSans-30"/>
       <use x="63.623047" xlink:href="#DejaVuSans-2e"/>
       <use x="95.410156" xlink:href="#DejaVuSans-36"/>
      </g>
     </g>
    </g>
    <g id="ytick_5">
     <g id="line2d_11">
      <g>
       <use style="stroke:#000000;stroke-width:0.8;" x="135" xlink:href="#mae2cc81494" y="138.096"/>
      </g>
     </g>
     <g id="text_12">
      <!-- 0.8 -->
      <g transform="translate(99.374375 144.934594)scale(0.18 -0.18)">
       <use xlink:href="#DejaVuSans-30"/>
       <use x="63.623047" xlink:href="#DejaVuSans-2e"/>
       <use x="95.410156" xlink:href="#DejaVuSans-38"/>
      </g>
     </g>
    </g>
    <g id="ytick_6">
     <g id="line2d_12">
      <g>
       <use style="stroke:#000000;stroke-width:0.8;" x="135" xlink:href="#mae2cc81494" y="60.48"/>
      </g>
     </g>
     <g id="text_13">
      <!-- 1.0 -->
      <g transform="translate(99.374375 67.318594)scale(0.18 -0.18)">
       <use xlink:href="#DejaVuSans-31"/>
       <use x="63.623047" xlink:href="#DejaVuSans-2e"/>
       <use x="95.410156" xlink:href="#DejaVuSans-30"/>
      </g>
     </g>
    </g>
    <g id="text_14">
     <!-- $TPR_{Fair}$ -->
     <g transform="translate(90.799062 290.27)rotate(-90)scale(0.22 -0.22)">
      <defs>
       <path d="M 378 4666 
L 4325 4666 
L 4225 4134 
L 2559 4134 
L 1759 0 
L 1125 0 
L 1925 4134 
L 275 4134 
L 378 4666 
z
" id="DejaVuSans-Oblique-54" transform="scale(0.015625)"/>
      </defs>
      <use transform="translate(0 0.09375)" xlink:href="#DejaVuSans-Oblique-54"/>
      <use transform="translate(61.083984 0.09375)" xlink:href="#DejaVuSans-Oblique-50"/>
      <use transform="translate(121.386719 0.09375)" xlink:href="#DejaVuSans-Oblique-52"/>
      <use transform="translate(190.869141 -16.3125)scale(0.7)" xlink:href="#DejaVuSans-Oblique-46"/>
      <use transform="translate(231.132812 -16.3125)scale(0.7)" xlink:href="#DejaVuSans-Oblique-61"/>
      <use transform="translate(274.02832 -16.3125)scale(0.7)" xlink:href="#DejaVuSans-Oblique-69"/>
      <use transform="translate(293.476562 -16.3125)scale(0.7)" xlink:href="#DejaVuSans-Oblique-72"/>
     </g>
    </g>
   </g>
   <g id="line2d_13">
    <path clip-path="url(#p701ebf4e3e)" d="M 135 448.56 
L 972 60.48 
" style="fill:none;stroke:#ff0000;stroke-dasharray:5.55,2.4;stroke-dashoffset:0;stroke-width:1.5;"/>
   </g>
   <g id="line2d_14">
    <path clip-path="url(#p701ebf4e3e)" d="M 972 60.48 
L 858.292527 75.90453 
L 773.167779 90.125457 
L 704.269901 104.099253 
L 648.785675 115.273349 
L 603.727099 125.428984 
L 565.010633 135.305801 
L 531.530034 143.909878 
L 503.205752 151.785507 
L 478.956654 158.989647 
L 457.199138 166.049106 
L 438.403764 172.262949 
L 421.594899 178.205786 
L 406.579787 183.669389 
L 393.021737 188.741065 
L 380.568527 193.618588 
L 369.508962 198.144837 
L 359.182612 202.296757 
L 349.380266 206.212443 
L 340.469247 209.996193 
L 332.53806 213.636917 
L 324.732876 217.143881 
L 317.629529 220.530401 
L 311.007401 223.818865 
L 304.609161 227.111169 
L 298.561645 230.495147 
L 293.024501 233.796138 
L 287.690693 236.811811 
L 282.716345 239.634086 
L 278.090503 242.631192 
L 273.687862 245.428892 
L 269.545187 248.226286 
L 265.567023 251.077514 
L 261.762513 253.571454 
L 258.073152 256.018699 
L 254.575701 258.462242 
L 251.172021 260.988525 
L 247.920346 263.492138 
L 244.918067 265.9468 
L 242.053438 268.242104 
L 239.203149 270.691256 
L 236.402862 273.294862 
L 233.80523 275.674211 
L 231.306434 277.9431 
L 228.89438 280.195971 
L 226.658672 282.336491 
L 224.473423 284.473748 
L 222.386661 286.663195 
L 220.25947 288.608451 
L 218.256978 290.603526 
L 216.337537 292.652481 
L 214.45404 294.5258 
L 212.688966 296.459072 
L 210.921845 298.378672 
L 209.244114 300.303645 
L 207.65994 302.191396 
L 206.075392 304.034859 
L 204.615839 305.699351 
L 203.212807 307.32404 
L 201.859522 308.808878 
L 200.550651 310.274362 
L 199.226943 311.666794 
L 197.932802 313.101061 
L 196.667466 314.397885 
L 195.468127 315.680472 
L 194.338995 316.824339 
L 193.205869 318.051647 
L 192.093393 319.213126 
L 191.039616 320.411812 
L 189.975978 321.680291 
L 188.96548 322.873287 
L 187.938331 323.983472 
L 187.005589 325.075658 
L 186.064473 326.204268 
L 185.155327 327.386211 
L 184.280558 328.435709 
L 183.42041 329.600898 
L 182.551419 330.741721 
L 181.728036 331.778921 
L 180.915218 332.839813 
L 180.159702 333.884502 
L 179.410539 334.904168 
L 178.599595 335.843306 
L 177.875969 336.793391 
L 177.148769 337.687146 
L 176.428195 338.557468 
L 175.687221 339.527528 
L 174.932797 340.400145 
L 174.223427 341.28457 
L 173.538083 342.166745 
L 172.869206 343.142843 
L 172.198595 344.128984 
L 171.535897 345.046264 
L 170.946278 345.984801 
L 170.330926 347.070138 
L 169.738915 348.096815 
L 169.183614 349.198237 
L 168.595873 350.268702 
L 168.071048 351.368322 
L 167.530555 352.373251 
L 166.95343 353.361722 
" style="fill:none;stroke:#1f77b4;stroke-linecap:square;stroke-width:1.5;"/>
   </g>
   <g id="line2d_15">
    <path clip-path="url(#p701ebf4e3e)" d="M 972 60.48 
L 971.914583 60.483253 
L 971.893706 60.483267 
L 971.835631 60.486562 
L 971.762487 60.486591 
L 971.645038 60.486615 
L 971.495112 60.49992 
L 971.25991 60.499984 
L 971.079247 60.50339 
L 970.831156 60.513512 
L 970.491355 60.533774 
L 970.188992 60.550762 
L 970.001279 60.561091 
L 969.88069 60.568086 
L 969.762857 60.575124 
L 969.616168 60.592393 
L 969.498237 60.609755 
L 969.440752 60.616938 
L 969.340597 60.624112 
L 969.28629 60.631377 
L 969.209006 60.638667 
L 969.169602 60.656387 
L 969.108824 60.670699 
L 969.054541 60.674647 
L 968.985426 60.692566 
L 968.924844 60.710543 
L 968.845582 60.718129 
L 968.801983 60.718719 
L 968.743902 60.726342 
L 968.720908 60.755202 
L 968.685491 60.773553 
L 968.644775 60.774306 
L 968.594131 60.785709 
L 968.566015 60.786408 
L 968.499715 60.790724 
L 968.422983 60.795131 
L 968.332683 60.803128 
L 968.243868 60.818337 
L 968.179738 60.822913 
L 968.142362 60.831017 
L 968.101318 60.831886 
L 968.048653 60.836464 
L 967.996031 60.837466 
L 967.911863 60.849495 
L 967.826793 60.850505 
L 967.72324 60.851527 
L 967.64628 60.852501 
L 967.618035 60.857114 
L 967.583504 60.865596 
L 967.544106 60.87781 
L 967.501196 60.890099 
L 967.45764 60.891169 
L 967.389821 60.892325 
L 967.283229 60.901013 
L 967.238582 60.905956 
L 967.198202 60.918568 
L 967.136963 60.931203 
L 967.103703 60.940374 
L 967.067109 60.949378 
L 967.008303 60.950627 
L 966.970985 60.95977 
L 966.930211 60.972805 
L 966.889379 60.978108 
L 966.848844 60.991391 
L 966.739572 61.004674 
L 966.636707 61.014084 
L 966.58179 61.015747 
L 966.538846 61.021436 
L 966.496191 61.023061 
L 966.445075 61.032725 
L 966.399426 61.054476 
L 966.328089 61.080073 
L 966.245954 61.082058 
L 966.200372 61.092069 
L 966.154732 61.102258 
L 966.077259 61.104389 
L 965.995972 61.12684 
L 965.937877 61.137412 
L 965.840796 61.148302 
L 965.789369 61.159413 
L 965.734688 61.174953 
L 965.622394 61.190399 
L 965.50832 61.201955 
L 965.454297 61.213776 
L 965.394989 61.221162 
L 965.302844 61.236696 
L 965.193008 61.252899 
L 965.109528 61.269238 
L 965.01448 61.273123 
L 964.870213 61.290134 
L 964.763782 61.33744 
L 964.687826 61.368015 
L 964.623207 61.390362 
L 964.558318 61.412611 
L 964.474988 61.431317 
L 964.374658 61.459485 
L 964.280115 61.488324 
L 964.195609 61.518344 
L 964.122181 61.544337 
L 964.027981 61.571164 
L 963.95057 61.602829 
" style="fill:none;stroke:#ff7f0e;stroke-linecap:square;stroke-width:1.5;"/>
   </g>
   <g id="line2d_16">
    <path clip-path="url(#p701ebf4e3e)" d="M 972 60.48 
L 971.953918 60.48171 
L 971.93968 60.485154 
L 971.909055 60.486902 
L 971.869403 60.486931 
L 971.806383 60.486957 
L 971.726247 60.493967 
L 971.60002 60.49401 
L 971.50251 60.497568 
L 971.371663 60.502902 
L 971.19126 60.513564 
L 971.030592 60.522503 
L 970.932636 60.527933 
L 970.869005 60.535173 
L 970.805773 60.538882 
L 970.728422 60.551544 
L 970.666505 60.564266 
L 970.634 60.568064 
L 970.581364 60.571848 
L 970.552797 60.577482 
L 970.511929 60.581335 
L 970.49091 60.59063 
L 970.457717 60.59815 
L 970.429195 60.600237 
L 970.39261 60.609666 
L 970.360591 60.619132 
L 970.318716 60.626813 
L 970.294566 60.627148 
L 970.263864 60.633031 
L 970.251503 60.648167 
L 970.232932 60.657798 
L 970.211399 60.658233 
L 970.184664 60.664251 
L 970.170044 60.664657 
L 970.135445 60.666953 
L 970.094846 60.669295 
L 970.047285 60.673506 
L 970.000537 60.681537 
L 969.966517 60.685868 
L 969.946672 60.690204 
L 969.925014 60.69266 
L 969.897544 60.69512 
L 969.870106 60.695698 
L 969.825631 60.702025 
L 969.781449 60.702632 
L 969.726875 60.703228 
L 969.686446 60.703798 
L 969.671968 60.706273 
L 969.654243 60.710737 
L 969.633882 60.717097 
L 969.611682 60.723528 
L 969.589118 60.724101 
L 969.553541 60.72475 
L 969.497296 60.729339 
L 969.473692 60.733974 
L 969.452473 60.744547 
L 969.420762 60.75125 
L 969.403474 60.756041 
L 969.384505 60.760793 
L 969.353975 60.761553 
L 969.33474 60.7664 
L 969.313483 60.773273 
L 969.288923 60.776186 
L 969.26727 60.783202 
L 969.209804 60.790253 
L 969.156164 60.795337 
L 969.126857 60.798378 
L 969.104096 60.80146 
L 969.082178 60.802407 
L 969.055679 60.807525 
L 969.032789 60.818897 
L 968.995549 60.832389 
L 968.952618 60.8356 
L 968.927153 60.843031 
L 968.903845 60.848336 
L 968.86353 60.849496 
L 968.820874 60.861152 
L 968.791091 60.866561 
L 968.740887 60.872126 
L 968.715268 60.877765 
L 968.687538 60.885649 
L 968.629247 60.893466 
L 968.570363 60.901454 
L 968.542924 60.907296 
L 968.512411 60.911007 
L 968.464152 60.919007 
L 968.40799 60.927248 
L 968.366538 60.935601 
L 968.318182 60.939659 
L 968.243469 60.948325 
L 968.189687 60.972546 
L 968.151599 60.98818 
L 968.119181 60.999608 
L 968.086353 61.010923 
L 968.044296 61.02263 
L 967.994005 61.03902 
L 967.946988 61.053346 
L 967.904575 61.068191 
L 967.868061 61.080836 
L 967.819336 61.094003 
L 967.780998 61.109666 
" style="fill:none;stroke:#2ca02c;stroke-linecap:square;stroke-width:1.5;"/>
   </g>
   <g id="line2d_17">
    <path clip-path="url(#p701ebf4e3e)" d="M 972 60.48 
L 956.413654 69.456195 
L 941.570493 77.939201 
L 927.33772 85.845133 
L 913.683527 93.28932 
L 900.744886 100.182679 
L 888.34087 106.727144 
L 876.463065 112.936455 
L 865.216355 118.754045 
L 854.23846 124.275743 
L 843.601484 129.593064 
L 833.458725 134.385345 
L 823.665036 138.846151 
L 814.097595 143.022244 
L 804.82665 146.998291 
L 795.704141 150.812174 
L 786.905178 154.520952 
L 778.324002 158.04409 
L 769.788902 161.29281 
L 761.448092 164.422551 
L 753.361187 167.458723 
L 745.329069 170.386872 
L 737.48445 173.2638 
L 729.897908 176.039339 
L 722.236628 178.795279 
L 714.708842 181.57577 
L 707.300837 184.300361 
L 699.970416 186.887629 
L 692.764743 189.420225 
L 685.733339 191.954667 
L 678.839108 194.431806 
L 672.069987 196.793098 
L 665.424282 199.201657 
L 658.77622 201.479979 
L 652.292868 203.8599 
L 645.780002 206.19868 
L 639.398269 208.555394 
L 633.064274 210.978803 
L 626.871905 213.321743 
L 620.862789 215.561117 
L 614.772312 217.774959 
L 608.787651 220.032548 
L 602.929832 222.279288 
L 597.117886 224.55091 
L 591.436998 226.765361 
L 585.802184 228.94278 
L 580.254542 231.112422 
L 574.805463 233.208369 
L 569.467986 235.308211 
L 564.120511 237.345663 
L 558.943344 239.352592 
L 553.770828 241.375425 
L 548.751186 243.343979 
L 543.726987 245.282531 
L 538.758687 247.226902 
L 533.866664 249.167428 
L 529.055575 251.042324 
L 524.295224 252.835546 
L 519.543224 254.589418 
L 514.894283 256.286144 
L 510.325953 257.969947 
L 505.795781 259.603322 
L 501.289539 261.22998 
L 496.811564 262.877538 
L 492.423069 264.502058 
L 488.11522 266.103952 
L 483.890005 267.672721 
L 479.658516 269.227511 
L 475.486804 270.782046 
L 471.396472 272.305869 
L 467.356196 273.812487 
L 463.345287 275.329711 
L 459.335097 276.810742 
L 455.394236 278.271105 
L 451.549438 279.681187 
L 447.716138 281.068839 
L 443.932695 282.497628 
L 440.209683 283.896641 
L 436.572041 285.277923 
L 432.901244 286.678837 
L 429.290616 288.067792 
L 425.757284 289.452997 
L 422.22896 290.787111 
L 418.797871 292.118872 
L 415.364518 293.38322 
L 411.990096 294.642483 
L 408.630969 295.937302 
L 405.306016 297.206359 
L 402.064212 298.444157 
L 398.833282 299.703688 
L 395.658229 300.957058 
L 392.461733 302.218475 
L 389.364814 303.485534 
L 386.290611 304.703218 
L 383.169682 305.968353 
L 380.113773 307.22192 
L 377.055335 308.483154 
L 374.025566 309.761863 
L 371.049233 311.046519 
L 368.105154 312.343755 
L 365.184416 313.610556 
" style="fill:none;stroke:#d62728;stroke-linecap:square;stroke-width:1.5;"/>
   </g>
   <g id="line2d_18">
    <path clip-path="url(#p701ebf4e3e)" d="M 972 60.48 
L 971.974323 60.482627 
L 971.968022 60.482637 
L 971.950382 60.484411 
L 971.928594 60.484427 
L 971.895765 60.484442 
L 971.851735 60.488914 
L 971.783683 60.48894 
L 971.73287 60.49076 
L 971.66296 60.494387 
L 971.568402 60.499833 
L 971.484114 60.504399 
L 971.430154 60.507175 
L 971.396406 60.509961 
L 971.361665 60.512761 
L 971.318322 60.517399 
L 971.285999 60.522058 
L 971.269576 60.526739 
L 971.239063 60.52867 
L 971.223458 60.530617 
L 971.200944 60.534416 
L 971.188718 60.539144 
L 971.171905 60.542968 
L 971.155055 60.544953 
L 971.133435 60.549746 
L 971.115465 60.554558 
L 971.090356 60.557528 
L 971.077037 60.557689 
L 971.061094 60.559735 
L 971.052034 60.568374 
L 971.041615 60.574212 
L 971.026481 60.575353 
L 971.010551 60.57936 
L 971.000245 60.579559 
L 970.98138 60.581672 
L 970.958824 60.583814 
L 970.929926 60.587873 
L 970.904135 60.592918 
L 970.885545 60.596071 
L 970.874362 60.598271 
L 970.860001 60.598565 
L 970.844758 60.601755 
L 970.828135 60.602055 
L 970.80361 60.605278 
L 970.775495 60.606576 
L 970.746216 60.608854 
L 970.724432 60.609159 
L 970.713849 60.610446 
L 970.704476 60.612736 
L 970.692087 60.61796 
L 970.676639 60.62223 
L 970.662362 60.623556 
L 970.6415 60.626869 
L 970.609101 60.631227 
L 970.594328 60.632612 
L 970.581559 60.637005 
L 970.564238 60.640407 
L 970.553507 60.642835 
L 970.543436 60.645248 
L 970.525675 60.645651 
L 970.514654 60.64811 
L 970.502728 60.65261 
L 970.488909 60.654091 
L 970.475567 60.657675 
L 970.442159 60.662304 
L 970.409927 60.666995 
L 970.391113 60.668627 
L 970.374498 60.670262 
L 970.360799 60.670844 
L 970.344882 60.674552 
L 970.330229 60.68349 
L 970.307065 60.694562 
L 970.282486 60.697331 
L 970.268907 60.700106 
L 970.254428 60.703933 
L 970.231842 60.704601 
L 970.208203 60.711639 
L 970.190324 60.714462 
L 970.161 60.717347 
L 970.140834 60.72346 
L 970.125085 60.727498 
L 970.092196 60.731532 
L 970.056651 60.735628 
L 970.039058 60.738662 
L 970.021966 60.740632 
L 969.991673 60.744765 
L 969.960026 60.75118 
L 969.936229 60.755478 
L 969.909629 60.757607 
L 969.867227 60.763095 
L 969.835804 60.775317 
L 969.811608 60.783264 
L 969.792163 60.792429 
L 969.77314 60.798233 
L 969.748306 60.804204 
L 969.718786 60.811303 
L 969.691502 60.818523 
L 969.667841 60.825894 
L 969.645142 60.833354 
L 969.617807 60.83983 
L 969.595027 60.848708 
" style="fill:none;stroke:#9467bd;stroke-linecap:square;stroke-width:1.5;"/>
   </g>
   <g id="line2d_19">
    <path clip-path="url(#p701ebf4e3e)" d="M 972 60.48 
L 961.087421 66.834985 
L 950.52705 72.965615 
L 940.489829 78.757306 
L 930.933513 84.336944 
L 921.855586 89.6162 
L 913.266446 94.696914 
L 905.104996 99.643456 
L 897.365649 104.30993 
L 889.895678 108.774692 
L 882.652876 113.072648 
L 875.73661 117.030016 
L 869.09236 120.682714 
L 862.599548 124.071467 
L 856.260266 127.318176 
L 850.038662 130.441613 
L 843.979791 133.492295 
L 838.053437 136.381727 
L 832.114523 139.094676 
L 826.282456 141.699763 
L 820.591444 144.251825 
L 814.938205 146.733927 
L 809.37296 149.160509 
L 803.9454 151.523486 
L 798.399814 153.858845 
L 792.878993 156.197372 
L 787.404823 158.517466 
L 781.929615 160.735809 
L 776.463922 162.90368 
L 771.118528 165.117505 
L 765.825716 167.289806 
L 760.633053 169.341574 
L 755.486725 171.454883 
L 750.315864 173.483896 
L 745.247912 175.569943 
L 740.094748 177.652591 
L 734.995768 179.769126 
L 729.894173 181.915683 
L 724.880302 184.016452 
L 719.985942 186.048025 
L 715.014417 188.05567 
L 710.07861 190.142871 
L 705.199382 192.248128 
L 700.339164 194.353648 
L 695.518094 196.421008 
L 690.723472 198.461012 
L 685.954691 200.497274 
L 681.240261 202.506852 
L 676.601956 204.48465 
L 671.933577 206.453645 
L 667.390544 208.386598 
L 662.825945 210.345013 
L 658.359824 212.259154 
L 653.869792 214.146102 
L 649.387294 216.037069 
L 644.932551 217.941105 
L 640.517846 219.779316 
L 636.106288 221.560499 
L 631.690714 223.291489 
L 627.332031 224.961396 
L 623.046537 226.602016 
L 618.771092 228.198947 
L 614.49587 229.804879 
L 610.225052 231.440926 
L 606.022559 233.057205 
L 601.873558 234.669679 
L 597.781801 236.264962 
L 593.63085 237.837954 
L 589.507601 239.430358 
L 585.415851 241.006699 
L 581.381104 242.557983 
L 577.325616 244.1183 
L 573.24725 245.666654 
L 569.222348 247.210266 
L 565.273368 248.703644 
L 561.310818 250.200332 
L 557.376425 251.726175 
L 553.485235 253.226419 
L 549.669073 254.707091 
L 545.799804 256.217987 
L 541.972932 257.720196 
L 538.194719 259.212514 
L 534.445516 260.650374 
L 530.760044 262.097892 
L 527.082725 263.496972 
L 523.428615 264.900308 
L 519.782485 266.329005 
L 516.157302 267.722698 
L 512.589927 269.093803 
L 509.016131 270.495636 
L 505.489853 271.876066 
L 501.938659 273.29086 
L 498.474598 274.700832 
L 495.010989 276.078212 
L 491.497341 277.505034 
L 488.029598 278.925561 
L 484.552281 280.346814 
L 481.100319 281.798881 
L 477.675489 283.245998 
L 474.274725 284.681019 
L 470.893308 286.125224 
" style="fill:none;stroke:#8c564b;stroke-linecap:square;stroke-width:1.5;"/>
   </g>
   <g id="line2d_20">
    <path clip-path="url(#p701ebf4e3e)" d="M 972 60.48 
L 962.098283 66.352633 
L 952.481178 72.03422 
L 943.301511 77.468162 
L 934.5749 82.681674 
L 926.262218 87.620206 
L 918.391706 92.389406 
L 910.89671 96.998792 
L 903.788562 101.371327 
L 896.946875 105.570459 
L 890.326243 109.599403 
L 883.979306 113.329882 
L 877.852672 116.770471 
L 871.877508 120.002166 
L 866.051321 123.098141 
L 860.305854 126.058071 
L 854.702633 128.937454 
L 849.201602 131.660393 
L 843.708471 134.22623 
L 838.317701 136.702151 
L 833.03507 139.124978 
L 827.758973 141.498098 
L 822.558299 143.816065 
L 817.490805 146.092945 
L 812.326036 148.336689 
L 807.188697 150.563625 
L 802.073215 152.77954 
L 796.927728 154.881256 
L 791.807925 156.966215 
L 786.789103 159.087509 
L 781.798098 161.191076 
L 776.906244 163.157101 
L 772.050911 165.176511 
L 767.158183 167.124987 
L 762.348337 169.124601 
L 757.486226 171.133637 
L 752.65389 173.166292 
L 747.816359 175.217522 
L 743.050033 177.247919 
L 738.389273 179.225339 
L 733.679606 181.159825 
L 728.987232 183.17476 
L 724.336713 185.229685 
L 719.710564 187.266487 
L 715.105514 189.255029 
L 710.508868 191.218615 
L 705.931601 193.187438 
L 701.384561 195.140459 
L 696.926654 197.064235 
L 692.439301 198.991028 
L 688.053193 200.883547 
L 683.657978 202.789706 
L 679.348868 204.654217 
L 675.00249 206.511171 
L 670.666626 208.351136 
L 666.344203 210.202856 
L 662.064791 212.004631 
L 657.770908 213.746096 
L 653.470451 215.454158 
L 649.220144 217.087826 
L 645.055385 218.693673 
L 640.887079 220.261714 
L 636.705054 221.827854 
L 632.561073 223.434995 
L 628.454705 225.018714 
L 624.394285 226.586323 
L 620.382413 228.160243 
L 616.296472 229.69472 
L 612.247743 231.244725 
L 608.223641 232.787631 
L 604.259502 234.305931 
L 600.257903 235.836593 
L 596.237702 237.354027 
L 592.268207 238.873693 
L 588.362719 240.352247 
L 584.441673 241.826038 
L 580.537741 243.327888 
L 576.672474 244.815138 
L 572.87768 246.286227 
L 569.022752 247.780277 
L 565.216276 249.261768 
L 561.443733 250.72873 
L 557.699694 252.143121 
L 554.006681 253.569362 
L 550.322019 254.947136 
L 546.668125 256.341836 
L 543.011946 257.745114 
L 539.377779 259.117294 
L 535.791701 260.463568 
L 532.206629 261.844356 
L 528.652085 263.201216 
L 525.088551 264.597336 
L 521.600242 265.979032 
L 518.110424 267.34013 
L 514.560739 268.740714 
L 511.045761 270.148492 
L 507.537089 271.550978 
L 504.04635 272.98434 
L 500.561259 274.404896 
L 497.11215 275.815641 
L 493.669906 277.243655 
" style="fill:none;stroke:#e377c2;stroke-linecap:square;stroke-width:1.5;"/>
   </g>
   <g id="line2d_21">
    <path clip-path="url(#p701ebf4e3e)" d="M 972 60.48 
L 964.658454 64.883834 
L 957.496658 69.172276 
L 950.628388 73.253585 
L 944.1118 77.217121 
L 937.872327 80.98978 
L 931.963082 84.666544 
L 926.361827 88.253187 
L 921.01959 91.669734 
L 915.825811 94.982257 
L 910.791639 98.174189 
L 905.954431 101.141911 
L 901.312341 103.9098 
L 896.772124 106.485271 
L 892.322532 108.969796 
L 887.924589 111.364598 
L 883.629239 113.718298 
L 879.428022 115.938744 
L 875.197455 118.040736 
L 871.034404 120.065764 
L 866.928629 122.052491 
L 862.828566 124.002529 
L 858.7747 125.919288 
L 854.823723 127.785793 
L 850.765454 129.645076 
L 846.692691 131.510138 
L 842.643579 133.366683 
L 838.574213 135.142667 
L 834.498827 136.886674 
L 830.468086 138.675589 
L 826.464479 140.444541 
L 822.544225 142.113296 
L 818.631413 143.835379 
L 814.681483 145.502011 
L 810.790992 147.218568 
L 806.819356 148.941268 
L 802.86483 150.689838 
L 798.905205 152.469839 
L 794.987833 154.219432 
L 791.151707 155.918577 
L 787.248547 157.599379 
L 783.348912 159.361085 
L 779.454014 161.142134 
L 775.558903 162.932866 
L 771.685313 164.694689 
L 767.798054 166.435012 
L 763.912946 168.184984 
L 760.049796 169.92292 
L 756.260538 171.639976 
L 752.423748 173.356852 
L 748.680317 175.053919 
L 744.887893 176.777284 
L 741.169365 178.463292 
L 737.40569 180.138532 
L 733.624737 181.814399 
L 729.854716 183.508653 
L 726.10178 185.155616 
L 722.332849 186.749039 
L 718.548504 188.299175 
L 714.800723 189.804362 
L 711.098808 191.280664 
L 707.390747 192.725046 
L 703.658648 194.179558 
L 699.925319 195.658723 
L 696.231338 197.124548 
L 692.570657 198.583213 
L 688.937902 200.035158 
L 685.223569 201.466875 
L 681.53563 202.921711 
L 677.832242 204.370642 
L 674.182714 205.801222 
L 670.503314 207.243644 
L 666.784198 208.674501 
L 663.095803 210.105178 
L 659.452568 211.495796 
L 655.786422 212.893483 
L 652.119881 214.326324 
L 648.486605 215.746157 
L 644.902124 217.144671 
L 641.263498 218.578519 
L 637.63474 220.002535 
L 634.045804 221.425868 
L 630.4756 222.79687 
L 626.953879 224.181967 
L 623.436131 225.518894 
L 619.924011 226.869456 
L 616.411142 228.246477 
L 612.896787 229.584247 
L 609.426411 230.90103 
L 605.945652 232.252176 
L 602.482725 233.582538 
L 598.984002 234.947923 
L 595.560499 236.309972 
L 592.121214 237.649385 
L 588.62074 239.036649 
L 585.135052 240.423279 
L 581.637099 241.818293 
L 578.162652 243.24259 
L 574.688379 244.662337 
L 571.227295 246.073693 
L 567.779113 247.496228 
" style="fill:none;stroke:#7f7f7f;stroke-linecap:square;stroke-width:1.5;"/>
   </g>
   <g id="line2d_22">
    <path clip-path="url(#p701ebf4e3e)" d="M 972 60.48 
L 964.881045 64.805993 
L 957.889792 69.005895 
L 951.227121 73.01568 
L 944.951524 76.917297 
L 938.927735 80.647113 
L 933.218679 84.263659 
L 927.784969 87.780622 
L 922.647262 91.153806 
L 917.671478 94.412842 
L 912.857713 97.568325 
L 908.22494 100.494669 
L 903.803019 103.221212 
L 899.493607 105.762628 
L 895.264813 108.211973 
L 891.07122 110.557689 
L 886.976061 112.876309 
L 882.955318 115.066555 
L 878.931583 117.133474 
L 874.954984 119.134465 
L 871.056047 121.107961 
L 867.132969 123.030806 
L 863.272546 124.918349 
L 859.517219 126.758828 
L 855.648409 128.601853 
L 851.777527 130.419541 
L 847.922016 132.250609 
L 844.017209 133.987994 
L 840.11033 135.702172 
L 836.258703 137.459343 
L 832.439804 139.209345 
L 828.702085 140.857245 
L 824.974473 142.55602 
L 821.219672 144.203451 
L 817.504058 145.891404 
L 813.726734 147.593269 
L 809.930342 149.308715 
L 806.159976 151.065943 
L 802.397963 152.783205 
L 798.712319 154.45852 
L 794.983927 156.109366 
L 791.245203 157.834159 
L 787.52615 159.584814 
L 783.793745 161.341918 
L 780.074651 163.080768 
L 776.333035 164.781567 
L 772.606324 166.51479 
L 768.884198 168.234034 
L 765.216646 169.926426 
L 761.528634 171.622727 
L 757.92467 173.302608 
L 754.251941 175.001334 
L 750.681256 176.669804 
L 747.029568 178.314413 
L 743.367546 179.969253 
L 739.733151 181.631038 
L 736.097266 183.25962 
L 732.459051 184.825845 
L 728.795261 186.363542 
L 725.160341 187.853359 
L 721.584058 189.322495 
L 718.012645 190.755843 
L 714.398501 192.199079 
L 710.797678 193.666863 
L 707.20421 195.109864 
L 703.663718 196.540806 
L 700.139105 197.970877 
L 696.537225 199.381716 
L 692.945757 200.799587 
L 689.355401 202.228261 
L 685.81772 203.64101 
L 682.236202 205.057646 
L 678.61374 206.45822 
L 675.028599 207.856245 
L 671.46922 209.233932 
L 667.896622 210.608825 
L 664.312387 212.010543 
L 660.772368 213.404941 
L 657.258159 214.784361 
L 653.69656 216.197692 
L 650.147329 217.601517 
L 646.639981 219.007991 
L 643.137333 220.357414 
L 639.681069 221.720135 
L 636.232235 223.040434 
L 632.788886 224.372431 
L 629.345265 225.730124 
L 625.885799 227.049799 
L 622.468475 228.338671 
L 619.046027 229.667537 
L 615.633907 230.981497 
L 612.214359 232.322749 
L 608.855397 233.648358 
L 605.470659 234.971825 
L 602.038994 236.323405 
L 598.622387 237.682796 
L 595.177799 239.049633 
L 591.756564 240.4494 
L 588.329236 241.841206 
L 584.924043 243.219686 
L 581.516494 244.620025 
" style="fill:none;stroke:#bcbd22;stroke-linecap:square;stroke-width:1.5;"/>
   </g>
   <g id="line2d_23">
    <path clip-path="url(#p701ebf4e3e)" d="M 972 60.48 
L 970.620199 60.947241 
L 969.222156 61.423859 
L 967.968521 61.901433 
L 966.783635 62.397933 
L 965.709938 62.887384 
L 964.764238 63.396241 
L 963.904496 63.918642 
L 963.084613 64.414023 
L 962.353819 64.917268 
L 961.650152 65.42088 
L 961.025746 65.889466 
L 960.456542 66.319972 
L 959.931745 66.714243 
L 959.429341 67.089376 
L 958.957303 67.455883 
L 958.50468 67.812352 
L 958.06032 68.138774 
L 957.63881 68.438984 
L 957.250124 68.742261 
L 956.863522 69.058427 
L 956.521404 69.371465 
L 956.174949 69.663653 
L 955.831711 69.964235 
L 955.490927 70.274973 
L 955.129707 70.567539 
L 954.754666 70.853334 
L 954.362616 71.135712 
L 953.972253 71.405026 
L 953.590816 71.721194 
L 953.199271 72.040176 
L 952.832511 72.309248 
L 952.470815 72.601281 
L 952.112959 72.875888 
L 951.759432 73.152991 
L 951.38419 73.45368 
L 950.996697 73.761836 
L 950.611928 74.079836 
L 950.235429 74.39271 
L 949.877163 74.700941 
L 949.536618 74.996037 
L 949.186944 75.33457 
L 948.829795 75.709214 
L 948.470003 76.064837 
L 948.083798 76.440967 
L 947.690601 76.787677 
L 947.313542 77.156869 
L 946.936358 77.548522 
L 946.567309 77.911297 
L 946.211113 78.311478 
L 945.854905 78.713385 
L 945.493664 79.120406 
L 945.148303 79.536064 
L 944.770007 79.952396 
L 944.390214 80.36521 
L 944.016763 80.793878 
L 943.624988 81.222735 
L 943.217546 81.662223 
L 942.80172 82.069848 
L 942.400888 82.46136 
L 942.003451 82.835615 
L 941.607072 83.225902 
L 941.212732 83.635307 
L 940.804977 84.04843 
L 940.400036 84.48429 
L 940.001384 84.911856 
L 939.619234 85.341835 
L 939.212072 85.759519 
L 938.786334 86.183099 
L 938.370678 86.641553 
L 937.933086 87.079597 
L 937.496409 87.531807 
L 937.045123 88.001684 
L 936.587381 88.470489 
L 936.14652 88.937382 
L 935.687384 89.41912 
L 935.21856 89.924349 
L 934.7695 90.431595 
L 934.324778 90.962215 
L 933.874115 91.501675 
L 933.421917 92.055173 
L 932.959747 92.636979 
L 932.520602 93.197235 
L 932.088548 93.766716 
L 931.667551 94.357737 
L 931.246195 94.948714 
L 930.831738 95.536962 
L 930.423829 96.105317 
L 929.994787 96.687543 
L 929.577434 97.307292 
L 929.157222 97.92055 
L 928.727843 98.561009 
L 928.323469 99.229635 
L 927.894367 99.87931 
L 927.460912 100.569452 
L 927.017151 101.2462 
L 926.568924 101.964259 
L 926.116527 102.714163 
L 925.663488 103.455304 
L 925.19463 104.185063 
L 924.742195 104.964223 
" style="fill:none;stroke:#17becf;stroke-linecap:square;stroke-width:1.5;"/>
   </g>
   <g id="patch_3">
    <path d="M 135 448.56 
L 135 60.48 
" style="fill:none;stroke:#000000;stroke-linecap:square;stroke-linejoin:miter;stroke-width:0.8;"/>
   </g>
   <g id="patch_4">
    <path d="M 972 448.56 
L 972 60.48 
" style="fill:none;stroke:#000000;stroke-linecap:square;stroke-linejoin:miter;stroke-width:0.8;"/>
   </g>
   <g id="patch_5">
    <path d="M 135 448.56 
L 972 448.56 
" style="fill:none;stroke:#000000;stroke-linecap:square;stroke-linejoin:miter;stroke-width:0.8;"/>
   </g>
   <g id="patch_6">
    <path d="M 135 60.48 
L 972 60.48 
" style="fill:none;stroke:#000000;stroke-linecap:square;stroke-linejoin:miter;stroke-width:0.8;"/>
   </g>
   <g id="legend_1">
    <g id="patch_7">
     <path d="M 850.269375 439.56 
L 959.4 439.56 
Q 963 439.56 963 435.96 
L 963 173.55375 
Q 963 169.95375 959.4 169.95375 
L 850.269375 169.95375 
Q 846.669375 169.95375 846.669375 173.55375 
L 846.669375 435.96 
Q 846.669375 439.56 850.269375 439.56 
z
" style="fill:#ffffff;opacity:0.8;stroke:#cccccc;stroke-linejoin:miter;"/>
    </g>
    <g id="line2d_24">
     <path d="M 853.869375 184.530938 
L 889.869375 184.530938 
" style="fill:none;stroke:#1f77b4;stroke-linecap:square;stroke-width:1.5;"/>
    </g>
    <g id="line2d_25"/>
    <g id="text_15">
     <!-- 0.001 -->
     <g transform="translate(904.269375 190.830938)scale(0.18 -0.18)">
      <use xlink:href="#DejaVuSans-30"/>
      <use x="63.623047" xlink:href="#DejaVuSans-2e"/>
      <use x="95.410156" xlink:href="#DejaVuSans-30"/>
      <use x="159.033203" xlink:href="#DejaVuSans-30"/>
      <use x="222.65625" xlink:href="#DejaVuSans-31"/>
     </g>
    </g>
    <g id="line2d_26">
     <path d="M 853.869375 210.951563 
L 889.869375 210.951563 
" style="fill:none;stroke:#ff7f0e;stroke-linecap:square;stroke-width:1.5;"/>
    </g>
    <g id="line2d_27"/>
    <g id="text_16">
     <!-- 0.011 -->
     <g transform="translate(904.269375 217.251563)scale(0.18 -0.18)">
      <use xlink:href="#DejaVuSans-30"/>
      <use x="63.623047" xlink:href="#DejaVuSans-2e"/>
      <use x="95.410156" xlink:href="#DejaVuSans-30"/>
      <use x="159.033203" xlink:href="#DejaVuSans-31"/>
      <use x="222.65625" xlink:href="#DejaVuSans-31"/>
     </g>
    </g>
    <g id="line2d_28">
     <path d="M 853.869375 237.372188 
L 889.869375 237.372188 
" style="fill:none;stroke:#2ca02c;stroke-linecap:square;stroke-width:1.5;"/>
    </g>
    <g id="line2d_29"/>
    <g id="text_17">
     <!-- 0.021 -->
     <g transform="translate(904.269375 243.672188)scale(0.18 -0.18)">
      <use xlink:href="#DejaVuSans-30"/>
      <use x="63.623047" xlink:href="#DejaVuSans-2e"/>
      <use x="95.410156" xlink:href="#DejaVuSans-30"/>
      <use x="159.033203" xlink:href="#DejaVuSans-32"/>
      <use x="222.65625" xlink:href="#DejaVuSans-31"/>
     </g>
    </g>
    <g id="line2d_30">
     <path d="M 853.869375 263.792813 
L 889.869375 263.792813 
" style="fill:none;stroke:#d62728;stroke-linecap:square;stroke-width:1.5;"/>
    </g>
    <g id="line2d_31"/>
    <g id="text_18">
     <!-- 0.031 -->
     <g transform="translate(904.269375 270.092813)scale(0.18 -0.18)">
      <defs>
       <path d="M 2597 2516 
Q 3050 2419 3304 2112 
Q 3559 1806 3559 1356 
Q 3559 666 3084 287 
Q 2609 -91 1734 -91 
Q 1441 -91 1130 -33 
Q 819 25 488 141 
L 488 750 
Q 750 597 1062 519 
Q 1375 441 1716 441 
Q 2309 441 2620 675 
Q 2931 909 2931 1356 
Q 2931 1769 2642 2001 
Q 2353 2234 1838 2234 
L 1294 2234 
L 1294 2753 
L 1863 2753 
Q 2328 2753 2575 2939 
Q 2822 3125 2822 3475 
Q 2822 3834 2567 4026 
Q 2313 4219 1838 4219 
Q 1578 4219 1281 4162 
Q 984 4106 628 3988 
L 628 4550 
Q 988 4650 1302 4700 
Q 1616 4750 1894 4750 
Q 2613 4750 3031 4423 
Q 3450 4097 3450 3541 
Q 3450 3153 3228 2886 
Q 3006 2619 2597 2516 
z
" id="DejaVuSans-33" transform="scale(0.015625)"/>
      </defs>
      <use xlink:href="#DejaVuSans-30"/>
      <use x="63.623047" xlink:href="#DejaVuSans-2e"/>
      <use x="95.410156" xlink:href="#DejaVuSans-30"/>
      <use x="159.033203" xlink:href="#DejaVuSans-33"/>
      <use x="222.65625" xlink:href="#DejaVuSans-31"/>
     </g>
    </g>
    <g id="line2d_32">
     <path d="M 853.869375 290.213438 
L 889.869375 290.213438 
" style="fill:none;stroke:#9467bd;stroke-linecap:square;stroke-width:1.5;"/>
    </g>
    <g id="line2d_33"/>
    <g id="text_19">
     <!-- 0.041 -->
     <g transform="translate(904.269375 296.513438)scale(0.18 -0.18)">
      <use xlink:href="#DejaVuSans-30"/>
      <use x="63.623047" xlink:href="#DejaVuSans-2e"/>
      <use x="95.410156" xlink:href="#DejaVuSans-30"/>
      <use x="159.033203" xlink:href="#DejaVuSans-34"/>
      <use x="222.65625" xlink:href="#DejaVuSans-31"/>
     </g>
    </g>
    <g id="line2d_34">
     <path d="M 853.869375 316.634063 
L 889.869375 316.634063 
" style="fill:none;stroke:#8c564b;stroke-linecap:square;stroke-width:1.5;"/>
    </g>
    <g id="line2d_35"/>
    <g id="text_20">
     <!-- 0.051 -->
     <g transform="translate(904.269375 322.934063)scale(0.18 -0.18)">
      <defs>
       <path d="M 691 4666 
L 3169 4666 
L 3169 4134 
L 1269 4134 
L 1269 2991 
Q 1406 3038 1543 3061 
Q 1681 3084 1819 3084 
Q 2600 3084 3056 2656 
Q 3513 2228 3513 1497 
Q 3513 744 3044 326 
Q 2575 -91 1722 -91 
Q 1428 -91 1123 -41 
Q 819 9 494 109 
L 494 744 
Q 775 591 1075 516 
Q 1375 441 1709 441 
Q 2250 441 2565 725 
Q 2881 1009 2881 1497 
Q 2881 1984 2565 2268 
Q 2250 2553 1709 2553 
Q 1456 2553 1204 2497 
Q 953 2441 691 2322 
L 691 4666 
z
" id="DejaVuSans-35" transform="scale(0.015625)"/>
      </defs>
      <use xlink:href="#DejaVuSans-30"/>
      <use x="63.623047" xlink:href="#DejaVuSans-2e"/>
      <use x="95.410156" xlink:href="#DejaVuSans-30"/>
      <use x="159.033203" xlink:href="#DejaVuSans-35"/>
      <use x="222.65625" xlink:href="#DejaVuSans-31"/>
     </g>
    </g>
    <g id="line2d_36">
     <path d="M 853.869375 343.054688 
L 889.869375 343.054688 
" style="fill:none;stroke:#e377c2;stroke-linecap:square;stroke-width:1.5;"/>
    </g>
    <g id="line2d_37"/>
    <g id="text_21">
     <!-- 0.061 -->
     <g transform="translate(904.269375 349.354688)scale(0.18 -0.18)">
      <use xlink:href="#DejaVuSans-30"/>
      <use x="63.623047" xlink:href="#DejaVuSans-2e"/>
      <use x="95.410156" xlink:href="#DejaVuSans-30"/>
      <use x="159.033203" xlink:href="#DejaVuSans-36"/>
      <use x="222.65625" xlink:href="#DejaVuSans-31"/>
     </g>
    </g>
    <g id="line2d_38">
     <path d="M 853.869375 369.475313 
L 889.869375 369.475313 
" style="fill:none;stroke:#7f7f7f;stroke-linecap:square;stroke-width:1.5;"/>
    </g>
    <g id="line2d_39"/>
    <g id="text_22">
     <!-- 0.071 -->
     <g transform="translate(904.269375 375.775313)scale(0.18 -0.18)">
      <defs>
       <path d="M 525 4666 
L 3525 4666 
L 3525 4397 
L 1831 0 
L 1172 0 
L 2766 4134 
L 525 4134 
L 525 4666 
z
" id="DejaVuSans-37" transform="scale(0.015625)"/>
      </defs>
      <use xlink:href="#DejaVuSans-30"/>
      <use x="63.623047" xlink:href="#DejaVuSans-2e"/>
      <use x="95.410156" xlink:href="#DejaVuSans-30"/>
      <use x="159.033203" xlink:href="#DejaVuSans-37"/>
      <use x="222.65625" xlink:href="#DejaVuSans-31"/>
     </g>
    </g>
    <g id="line2d_40">
     <path d="M 853.869375 395.895938 
L 889.869375 395.895938 
" style="fill:none;stroke:#bcbd22;stroke-linecap:square;stroke-width:1.5;"/>
    </g>
    <g id="line2d_41"/>
    <g id="text_23">
     <!-- 0.081 -->
     <g transform="translate(904.269375 402.195938)scale(0.18 -0.18)">
      <use xlink:href="#DejaVuSans-30"/>
      <use x="63.623047" xlink:href="#DejaVuSans-2e"/>
      <use x="95.410156" xlink:href="#DejaVuSans-30"/>
      <use x="159.033203" xlink:href="#DejaVuSans-38"/>
      <use x="222.65625" xlink:href="#DejaVuSans-31"/>
     </g>
    </g>
    <g id="line2d_42">
     <path d="M 853.869375 422.316563 
L 889.869375 422.316563 
" style="fill:none;stroke:#17becf;stroke-linecap:square;stroke-width:1.5;"/>
    </g>
    <g id="line2d_43"/>
    <g id="text_24">
     <!-- 0.091 -->
     <g transform="translate(904.269375 428.616563)scale(0.18 -0.18)">
      <defs>
       <path d="M 703 97 
L 703 672 
Q 941 559 1184 500 
Q 1428 441 1663 441 
Q 2288 441 2617 861 
Q 2947 1281 2994 2138 
Q 2813 1869 2534 1725 
Q 2256 1581 1919 1581 
Q 1219 1581 811 2004 
Q 403 2428 403 3163 
Q 403 3881 828 4315 
Q 1253 4750 1959 4750 
Q 2769 4750 3195 4129 
Q 3622 3509 3622 2328 
Q 3622 1225 3098 567 
Q 2575 -91 1691 -91 
Q 1453 -91 1209 -44 
Q 966 3 703 97 
z
M 1959 2075 
Q 2384 2075 2632 2365 
Q 2881 2656 2881 3163 
Q 2881 3666 2632 3958 
Q 2384 4250 1959 4250 
Q 1534 4250 1286 3958 
Q 1038 3666 1038 3163 
Q 1038 2656 1286 2365 
Q 1534 2075 1959 2075 
z
" id="DejaVuSans-39" transform="scale(0.015625)"/>
      </defs>
      <use xlink:href="#DejaVuSans-30"/>
      <use x="63.623047" xlink:href="#DejaVuSans-2e"/>
      <use x="95.410156" xlink:href="#DejaVuSans-30"/>
      <use x="159.033203" xlink:href="#DejaVuSans-39"/>
      <use x="222.65625" xlink:href="#DejaVuSans-31"/>
     </g>
    </g>
   </g>
  </g>
 </g>
 <defs>
  <clipPath id="p701ebf4e3e">
   <rect height="388.08" width="837" x="135" y="60.48"/>
  </clipPath>
 </defs>
</svg>
