<?xml version="1.0" encoding="utf-8" standalone="no"?>
<!DOCTYPE svg PUBLIC "-//W3C//DTD SVG 1.1//EN"
  "http://www.w3.org/Graphics/SVG/1.1/DTD/svg11.dtd">
<svg height="504pt" version="1.1" viewBox="0 0 1080 504" width="1080pt" xmlns="http://www.w3.org/2000/svg" xmlns:xlink="http://www.w3.org/1999/xlink">
 <metadata>
  <rdf:RDF xmlns:cc="http://creativecommons.org/ns#" xmlns:dc="http://purl.org/dc/elements/1.1/" xmlns:rdf="http://www.w3.org/1999/02/22-rdf-syntax-ns#">
   <cc:Work>
    <dc:type rdf:resource="http://purl.org/dc/dcmitype/StillImage"/>
    <dc:date>2022-01-07T13:25:01.607481</dc:date>
    <dc:format>image/svg+xml</dc:format>
    <dc:creator>
     <cc:Agent>
      <dc:title>Matplotlib v3.4.3, https://matplotlib.org/</dc:title>
     </cc:Agent>
    </dc:creator>
   </cc:Work>
  </rdf:RDF>
 </metadata>
 <defs>
  <style type="text/css">*{stroke-linecap:butt;stroke-linejoin:round;}</style>
 </defs>
 <g id="figure_1">
  <g id="patch_1">
   <path d="M 0 504 
L 1080 504 
L 1080 0 
L 0 0 
z
" style="fill:#ffffff;"/>
  </g>
  <g id="axes_1">
   <g id="patch_2">
    <path d="M 135 448.56 
L 972 448.56 
L 972 60.48 
L 135 60.48 
z
" style="fill:#ffffff;"/>
   </g>
   <g id="matplotlib.axis_1">
    <g id="xtick_1">
     <g id="line2d_1">
      <defs>
       <path d="M 0 0 
L 0 3.5 
" id="mdb123c872f" style="stroke:#000000;stroke-width:0.8;"/>
      </defs>
      <g>
       <use style="stroke:#000000;stroke-width:0.8;" x="135" xlink:href="#mdb123c872f" y="448.56"/>
      </g>
     </g>
     <g id="text_1">
      <!-- 0.0 -->
      <g transform="translate(120.687187 469.237188)scale(0.18 -0.18)">
       <defs>
        <path d="M 2034 4250 
Q 1547 4250 1301 3770 
Q 1056 3291 1056 2328 
Q 1056 1369 1301 889 
Q 1547 409 2034 409 
Q 2525 409 2770 889 
Q 3016 1369 3016 2328 
Q 3016 3291 2770 3770 
Q 2525 4250 2034 4250 
z
M 2034 4750 
Q 2819 4750 3233 4129 
Q 3647 3509 3647 2328 
Q 3647 1150 3233 529 
Q 2819 -91 2034 -91 
Q 1250 -91 836 529 
Q 422 1150 422 2328 
Q 422 3509 836 4129 
Q 1250 4750 2034 4750 
z
" id="DejaVuSans-30" transform="scale(0.015625)"/>
        <path d="M 684 794 
L 1344 794 
L 1344 0 
L 684 0 
L 684 794 
z
" id="DejaVuSans-2e" transform="scale(0.015625)"/>
       </defs>
       <use xlink:href="#DejaVuSans-30"/>
       <use x="63.623047" xlink:href="#DejaVuSans-2e"/>
       <use x="95.410156" xlink:href="#DejaVuSans-30"/>
      </g>
     </g>
    </g>
    <g id="xtick_2">
     <g id="line2d_2">
      <g>
       <use style="stroke:#000000;stroke-width:0.8;" x="302.4" xlink:href="#mdb123c872f" y="448.56"/>
      </g>
     </g>
     <g id="text_2">
      <!-- 0.2 -->
      <g transform="translate(288.087187 469.237188)scale(0.18 -0.18)">
       <defs>
        <path d="M 1228 531 
L 3431 531 
L 3431 0 
L 469 0 
L 469 531 
Q 828 903 1448 1529 
Q 2069 2156 2228 2338 
Q 2531 2678 2651 2914 
Q 2772 3150 2772 3378 
Q 2772 3750 2511 3984 
Q 2250 4219 1831 4219 
Q 1534 4219 1204 4116 
Q 875 4013 500 3803 
L 500 4441 
Q 881 4594 1212 4672 
Q 1544 4750 1819 4750 
Q 2544 4750 2975 4387 
Q 3406 4025 3406 3419 
Q 3406 3131 3298 2873 
Q 3191 2616 2906 2266 
Q 2828 2175 2409 1742 
Q 1991 1309 1228 531 
z
" id="DejaVuSans-32" transform="scale(0.015625)"/>
       </defs>
       <use xlink:href="#DejaVuSans-30"/>
       <use x="63.623047" xlink:href="#DejaVuSans-2e"/>
       <use x="95.410156" xlink:href="#DejaVuSans-32"/>
      </g>
     </g>
    </g>
    <g id="xtick_3">
     <g id="line2d_3">
      <g>
       <use style="stroke:#000000;stroke-width:0.8;" x="469.8" xlink:href="#mdb123c872f" y="448.56"/>
      </g>
     </g>
     <g id="text_3">
      <!-- 0.4 -->
      <g transform="translate(455.487188 469.237188)scale(0.18 -0.18)">
       <defs>
        <path d="M 2419 4116 
L 825 1625 
L 2419 1625 
L 2419 4116 
z
M 2253 4666 
L 3047 4666 
L 3047 1625 
L 3713 1625 
L 3713 1100 
L 3047 1100 
L 3047 0 
L 2419 0 
L 2419 1100 
L 313 1100 
L 313 1709 
L 2253 4666 
z
" id="DejaVuSans-34" transform="scale(0.015625)"/>
       </defs>
       <use xlink:href="#DejaVuSans-30"/>
       <use x="63.623047" xlink:href="#DejaVuSans-2e"/>
       <use x="95.410156" xlink:href="#DejaVuSans-34"/>
      </g>
     </g>
    </g>
    <g id="xtick_4">
     <g id="line2d_4">
      <g>
       <use style="stroke:#000000;stroke-width:0.8;" x="637.2" xlink:href="#mdb123c872f" y="448.56"/>
      </g>
     </g>
     <g id="text_4">
      <!-- 0.6 -->
      <g transform="translate(622.887188 469.237188)scale(0.18 -0.18)">
       <defs>
        <path d="M 2113 2584 
Q 1688 2584 1439 2293 
Q 1191 2003 1191 1497 
Q 1191 994 1439 701 
Q 1688 409 2113 409 
Q 2538 409 2786 701 
Q 3034 994 3034 1497 
Q 3034 2003 2786 2293 
Q 2538 2584 2113 2584 
z
M 3366 4563 
L 3366 3988 
Q 3128 4100 2886 4159 
Q 2644 4219 2406 4219 
Q 1781 4219 1451 3797 
Q 1122 3375 1075 2522 
Q 1259 2794 1537 2939 
Q 1816 3084 2150 3084 
Q 2853 3084 3261 2657 
Q 3669 2231 3669 1497 
Q 3669 778 3244 343 
Q 2819 -91 2113 -91 
Q 1303 -91 875 529 
Q 447 1150 447 2328 
Q 447 3434 972 4092 
Q 1497 4750 2381 4750 
Q 2619 4750 2861 4703 
Q 3103 4656 3366 4563 
z
" id="DejaVuSans-36" transform="scale(0.015625)"/>
       </defs>
       <use xlink:href="#DejaVuSans-30"/>
       <use x="63.623047" xlink:href="#DejaVuSans-2e"/>
       <use x="95.410156" xlink:href="#DejaVuSans-36"/>
      </g>
     </g>
    </g>
    <g id="xtick_5">
     <g id="line2d_5">
      <g>
       <use style="stroke:#000000;stroke-width:0.8;" x="804.6" xlink:href="#mdb123c872f" y="448.56"/>
      </g>
     </g>
     <g id="text_5">
      <!-- 0.8 -->
      <g transform="translate(790.287188 469.237188)scale(0.18 -0.18)">
       <defs>
        <path d="M 2034 2216 
Q 1584 2216 1326 1975 
Q 1069 1734 1069 1313 
Q 1069 891 1326 650 
Q 1584 409 2034 409 
Q 2484 409 2743 651 
Q 3003 894 3003 1313 
Q 3003 1734 2745 1975 
Q 2488 2216 2034 2216 
z
M 1403 2484 
Q 997 2584 770 2862 
Q 544 3141 544 3541 
Q 544 4100 942 4425 
Q 1341 4750 2034 4750 
Q 2731 4750 3128 4425 
Q 3525 4100 3525 3541 
Q 3525 3141 3298 2862 
Q 3072 2584 2669 2484 
Q 3125 2378 3379 2068 
Q 3634 1759 3634 1313 
Q 3634 634 3220 271 
Q 2806 -91 2034 -91 
Q 1263 -91 848 271 
Q 434 634 434 1313 
Q 434 1759 690 2068 
Q 947 2378 1403 2484 
z
M 1172 3481 
Q 1172 3119 1398 2916 
Q 1625 2713 2034 2713 
Q 2441 2713 2670 2916 
Q 2900 3119 2900 3481 
Q 2900 3844 2670 4047 
Q 2441 4250 2034 4250 
Q 1625 4250 1398 4047 
Q 1172 3844 1172 3481 
z
" id="DejaVuSans-38" transform="scale(0.015625)"/>
       </defs>
       <use xlink:href="#DejaVuSans-30"/>
       <use x="63.623047" xlink:href="#DejaVuSans-2e"/>
       <use x="95.410156" xlink:href="#DejaVuSans-38"/>
      </g>
     </g>
    </g>
    <g id="xtick_6">
     <g id="line2d_6">
      <g>
       <use style="stroke:#000000;stroke-width:0.8;" x="972" xlink:href="#mdb123c872f" y="448.56"/>
      </g>
     </g>
     <g id="text_6">
      <!-- 1.0 -->
      <g transform="translate(957.687188 469.237188)scale(0.18 -0.18)">
       <defs>
        <path d="M 794 531 
L 1825 531 
L 1825 4091 
L 703 3866 
L 703 4441 
L 1819 4666 
L 2450 4666 
L 2450 531 
L 3481 531 
L 3481 0 
L 794 0 
L 794 531 
z
" id="DejaVuSans-31" transform="scale(0.015625)"/>
       </defs>
       <use xlink:href="#DejaVuSans-31"/>
       <use x="63.623047" xlink:href="#DejaVuSans-2e"/>
       <use x="95.410156" xlink:href="#DejaVuSans-30"/>
      </g>
     </g>
    </g>
    <g id="text_7">
     <!-- $FPR_{Fair}$ -->
     <g transform="translate(518.08 493.697187)scale(0.22 -0.22)">
      <defs>
       <path d="M 1081 4666 
L 3756 4666 
L 3653 4134 
L 1606 4134 
L 1338 2759 
L 3188 2759 
L 3084 2228 
L 1234 2228 
L 800 0 
L 172 0 
L 1081 4666 
z
" id="DejaVuSans-Oblique-46" transform="scale(0.015625)"/>
       <path d="M 1081 4666 
L 2541 4666 
Q 3178 4666 3512 4369 
Q 3847 4072 3847 3500 
Q 3847 2731 3353 2303 
Q 2859 1875 1966 1875 
L 1172 1875 
L 806 0 
L 172 0 
L 1081 4666 
z
M 1613 4147 
L 1275 2394 
L 2069 2394 
Q 2606 2394 2893 2669 
Q 3181 2944 3181 3456 
Q 3181 3784 2986 3965 
Q 2791 4147 2438 4147 
L 1613 4147 
z
" id="DejaVuSans-Oblique-50" transform="scale(0.015625)"/>
       <path d="M 1613 4147 
L 1294 2491 
L 2106 2491 
Q 2584 2491 2879 2755 
Q 3175 3019 3175 3444 
Q 3175 3784 2976 3965 
Q 2778 4147 2406 4147 
L 1613 4147 
z
M 2772 2241 
Q 2972 2194 3105 2009 
Q 3238 1825 3413 1275 
L 3809 0 
L 3144 0 
L 2778 1197 
Q 2638 1659 2453 1815 
Q 2269 1972 1888 1972 
L 1191 1972 
L 806 0 
L 172 0 
L 1081 4666 
L 2503 4666 
Q 3150 4666 3495 4373 
Q 3841 4081 3841 3531 
Q 3841 3044 3547 2687 
Q 3253 2331 2772 2241 
z
" id="DejaVuSans-Oblique-52" transform="scale(0.015625)"/>
       <path d="M 3438 1997 
L 3047 0 
L 2472 0 
L 2578 531 
Q 2325 219 2001 64 
Q 1678 -91 1281 -91 
Q 834 -91 548 182 
Q 263 456 263 884 
Q 263 1497 752 1853 
Q 1241 2209 2100 2209 
L 2900 2209 
L 2931 2363 
Q 2938 2388 2941 2417 
Q 2944 2447 2944 2509 
Q 2944 2788 2717 2942 
Q 2491 3097 2081 3097 
Q 1800 3097 1504 3025 
Q 1209 2953 897 2809 
L 997 3341 
Q 1322 3463 1633 3523 
Q 1944 3584 2234 3584 
Q 2853 3584 3176 3315 
Q 3500 3047 3500 2534 
Q 3500 2431 3484 2292 
Q 3469 2153 3438 1997 
z
M 2816 1759 
L 2241 1759 
Q 1534 1759 1195 1570 
Q 856 1381 856 984 
Q 856 709 1029 553 
Q 1203 397 1509 397 
Q 1978 397 2328 733 
Q 2678 1069 2791 1631 
L 2816 1759 
z
" id="DejaVuSans-Oblique-61" transform="scale(0.015625)"/>
       <path d="M 1172 4863 
L 1747 4863 
L 1606 4134 
L 1031 4134 
L 1172 4863 
z
M 909 3500 
L 1484 3500 
L 800 0 
L 225 0 
L 909 3500 
z
" id="DejaVuSans-Oblique-69" transform="scale(0.015625)"/>
       <path d="M 2853 2969 
Q 2766 3016 2653 3041 
Q 2541 3066 2413 3066 
Q 1953 3066 1609 2717 
Q 1266 2369 1153 1784 
L 800 0 
L 225 0 
L 909 3500 
L 1484 3500 
L 1375 2956 
Q 1603 3259 1920 3421 
Q 2238 3584 2597 3584 
Q 2691 3584 2781 3573 
Q 2872 3563 2963 3538 
L 2853 2969 
z
" id="DejaVuSans-Oblique-72" transform="scale(0.015625)"/>
      </defs>
      <use transform="translate(0 0.09375)" xlink:href="#DejaVuSans-Oblique-46"/>
      <use transform="translate(57.519531 0.09375)" xlink:href="#DejaVuSans-Oblique-50"/>
      <use transform="translate(117.822266 0.09375)" xlink:href="#DejaVuSans-Oblique-52"/>
      <use transform="translate(187.304688 -16.3125)scale(0.7)" xlink:href="#DejaVuSans-Oblique-46"/>
      <use transform="translate(227.568359 -16.3125)scale(0.7)" xlink:href="#DejaVuSans-Oblique-61"/>
      <use transform="translate(270.463867 -16.3125)scale(0.7)" xlink:href="#DejaVuSans-Oblique-69"/>
      <use transform="translate(289.912109 -16.3125)scale(0.7)" xlink:href="#DejaVuSans-Oblique-72"/>
     </g>
    </g>
   </g>
   <g id="matplotlib.axis_2">
    <g id="ytick_1">
     <g id="line2d_7">
      <defs>
       <path d="M 0 0 
L -3.5 0 
" id="m5305c02171" style="stroke:#000000;stroke-width:0.8;"/>
      </defs>
      <g>
       <use style="stroke:#000000;stroke-width:0.8;" x="135" xlink:href="#m5305c02171" y="448.56"/>
      </g>
     </g>
     <g id="text_8">
      <!-- 0.0 -->
      <g transform="translate(99.374375 455.398594)scale(0.18 -0.18)">
       <use xlink:href="#DejaVuSans-30"/>
       <use x="63.623047" xlink:href="#DejaVuSans-2e"/>
       <use x="95.410156" xlink:href="#DejaVuSans-30"/>
      </g>
     </g>
    </g>
    <g id="ytick_2">
     <g id="line2d_8">
      <g>
       <use style="stroke:#000000;stroke-width:0.8;" x="135" xlink:href="#m5305c02171" y="370.944"/>
      </g>
     </g>
     <g id="text_9">
      <!-- 0.2 -->
      <g transform="translate(99.374375 377.782594)scale(0.18 -0.18)">
       <use xlink:href="#DejaVuSans-30"/>
       <use x="63.623047" xlink:href="#DejaVuSans-2e"/>
       <use x="95.410156" xlink:href="#DejaVuSans-32"/>
      </g>
     </g>
    </g>
    <g id="ytick_3">
     <g id="line2d_9">
      <g>
       <use style="stroke:#000000;stroke-width:0.8;" x="135" xlink:href="#m5305c02171" y="293.328"/>
      </g>
     </g>
     <g id="text_10">
      <!-- 0.4 -->
      <g transform="translate(99.374375 300.166594)scale(0.18 -0.18)">
       <use xlink:href="#DejaVuSans-30"/>
       <use x="63.623047" xlink:href="#DejaVuSans-2e"/>
       <use x="95.410156" xlink:href="#DejaVuSans-34"/>
      </g>
     </g>
    </g>
    <g id="ytick_4">
     <g id="line2d_10">
      <g>
       <use style="stroke:#000000;stroke-width:0.8;" x="135" xlink:href="#m5305c02171" y="215.712"/>
      </g>
     </g>
     <g id="text_11">
      <!-- 0.6 -->
      <g transform="translate(99.374375 222.550594)scale(0.18 -0.18)">
       <use xlink:href="#DejaVuSans-30"/>
       <use x="63.623047" xlink:href="#DejaVuSans-2e"/>
       <use x="95.410156" xlink:href="#DejaVuSans-36"/>
      </g>
     </g>
    </g>
    <g id="ytick_5">
     <g id="line2d_11">
      <g>
       <use style="stroke:#000000;stroke-width:0.8;" x="135" xlink:href="#m5305c02171" y="138.096"/>
      </g>
     </g>
     <g id="text_12">
      <!-- 0.8 -->
      <g transform="translate(99.374375 144.934594)scale(0.18 -0.18)">
       <use xlink:href="#DejaVuSans-30"/>
       <use x="63.623047" xlink:href="#DejaVuSans-2e"/>
       <use x="95.410156" xlink:href="#DejaVuSans-38"/>
      </g>
     </g>
    </g>
    <g id="ytick_6">
     <g id="line2d_12">
      <g>
       <use style="stroke:#000000;stroke-width:0.8;" x="135" xlink:href="#m5305c02171" y="60.48"/>
      </g>
     </g>
     <g id="text_13">
      <!-- 1.0 -->
      <g transform="translate(99.374375 67.318594)scale(0.18 -0.18)">
       <use xlink:href="#DejaVuSans-31"/>
       <use x="63.623047" xlink:href="#DejaVuSans-2e"/>
       <use x="95.410156" xlink:href="#DejaVuSans-30"/>
      </g>
     </g>
    </g>
    <g id="text_14">
     <!-- $TPR_{Fair}$ -->
     <g transform="translate(90.799062 290.27)rotate(-90)scale(0.22 -0.22)">
      <defs>
       <path d="M 378 4666 
L 4325 4666 
L 4225 4134 
L 2559 4134 
L 1759 0 
L 1125 0 
L 1925 4134 
L 275 4134 
L 378 4666 
z
" id="DejaVuSans-Oblique-54" transform="scale(0.015625)"/>
      </defs>
      <use transform="translate(0 0.09375)" xlink:href="#DejaVuSans-Oblique-54"/>
      <use transform="translate(61.083984 0.09375)" xlink:href="#DejaVuSans-Oblique-50"/>
      <use transform="translate(121.386719 0.09375)" xlink:href="#DejaVuSans-Oblique-52"/>
      <use transform="translate(190.869141 -16.3125)scale(0.7)" xlink:href="#DejaVuSans-Oblique-46"/>
      <use transform="translate(231.132812 -16.3125)scale(0.7)" xlink:href="#DejaVuSans-Oblique-61"/>
      <use transform="translate(274.02832 -16.3125)scale(0.7)" xlink:href="#DejaVuSans-Oblique-69"/>
      <use transform="translate(293.476562 -16.3125)scale(0.7)" xlink:href="#DejaVuSans-Oblique-72"/>
     </g>
    </g>
   </g>
   <g id="line2d_13">
    <path clip-path="url(#p6a49b95052)" d="M 135 448.56 
L 972 60.48 
" style="fill:none;stroke:#ff0000;stroke-dasharray:5.55,2.4;stroke-dashoffset:0;stroke-width:1.5;"/>
   </g>
   <g id="line2d_14">
    <path clip-path="url(#p6a49b95052)" d="M 972 60.48 
L 300.197368 322.434 
L 233.085938 381.2928 
L 203.606557 400.05 
L 188.653846 412.264748 
L 174.993174 419.7312 
L 168.672414 424.874366 
L 163.862069 427.362353 
L 160.473913 431.6256 
L 157.931507 433.728917 
L 156.07554 435.292308 
L 154.304778 436.9176 
L 152.972393 437.704615 
L 151.550847 439.45791 
L 150.603196 440.039281 
L 149.758186 440.595672 
L 147.89218 441.174394 
L 147.116927 441.607427 
L 146.453684 442.082185 
L 145.104628 442.435352 
L 144.694981 442.631 
L 144.189387 442.890837 
L 143.795096 443.080051 
L 143.397993 443.276733 
L 143.060995 443.416771 
L 142.04977 443.601951 
L 141.779823 443.752703 
L 141.567047 444.323319 
L 141.349655 444.483529 
L 140.583722 444.604037 
L 139.869425 444.698507 
L 139.767722 445.178858 
L 139.641405 445.277368 
L 139.543426 445.349779 
L 139.465323 445.4415 
L 138.888502 445.522852 
L 138.813212 445.610068 
L 138.72621 445.678218 
L 138.64309 445.729595 
L 138.580749 446.082235 
L 138.518655 446.1345 
L 138.458678 446.180966 
L 138.398985 446.236168 
L 137.928036 446.260267 
L 137.869246 446.318383 
L 137.423745 446.353433 
L 137.39485 446.652303 
L 136.963867 446.694231 
L 136.542146 446.723245 
L 136.517679 447.009747 
L 136.501345 447.039112 
L 136.482072 447.061622 
L 136.460096 447.077836 
L 136.44 447.100138 
L 136.424075 447.124439 
L 136.407314 447.383287 
L 136.390365 447.408427 
L 136.377778 447.651148 
L 136.364303 447.662705 
L 136.348912 447.674478 
L 136.332272 447.688889 
L 135.988972 447.699512 
L 135.979329 447.712664 
L 135.969124 447.724521 
L 135.9617 447.734298 
L 135.634091 447.744277 
L 135.626966 447.750657 
L 135.309541 447.759009 
L 135.306145 447.963871 
L 135.302166 447.971108 
L 135.299785 447.975835 
L 135.297019 447.981352 
L 135.293581 447.98535 
L 135.290625 447.989853 
L 135.287629 447.997021 
L 135.2845 447.999461 
L 135.282008 448.190048 
L 135.279466 448.194748 
L 135.27752 448.198659 
L 135.275329 448.201331 
L 135.273351 448.205912 
L 135.271842 448.209431 
L 135.269652 448.213345 
L 135.267071 448.217022 
L 135.265968 448.220026 
L 135.263705 448.222539 
L 135.262218 448.227312 
L 135 448.23014 
L 135 448.23292 
L 135 448.235383 
L 135 448.238209 
L 135 448.239802 
L 135 448.241902 
L 135 448.243716 
L 135 448.247284 
L 135 448.249908 
L 135 448.252 
L 135 448.254425 
L 135 448.257049 
L 135 448.259163 
L 135 448.261592 
" style="fill:none;stroke:#1f77b4;stroke-linecap:square;stroke-width:1.5;"/>
   </g>
   <g id="line2d_15">
    <path clip-path="url(#p6a49b95052)" d="M 972 60.48 
L 719.15625 132.552 
L 595.004132 184.38506 
L 511.084459 217.363404 
L 460.911504 250.959633 
L 416.19685 277.62 
L 383.943794 300.529485 
L 351.676409 311.372484 
L 327.541825 323.738947 
L 314.357143 335.626667 
L 301.005 345.88835 
L 287.537383 355.83292 
L 277.17873 361.423534 
L 268.50208 368.705077 
L 261.153342 373.493431 
L 254.571429 378.241231 
L 247.787234 382.103651 
L 239.85906 386.253578 
L 233.7322 390.88 
L 226.949692 394.036364 
L 223.322485 395.921489 
L 217.832234 398.678252 
L 212.542234 400.5351 
L 208.510435 402.49295 
L 203.987384 403.974021 
L 199.073328 405.88 
L 196.180404 407.686829 
L 193.70362 409.584363 
L 190.30837 411.330219 
L 187.573876 412.743286 
L 185.498613 413.667692 
L 183.365058 414.928919 
L 181.809587 415.821498 
L 180.287484 416.52 
L 179.137621 417.302878 
L 177.639623 418.311072 
L 176.435644 419.71395 
L 175.606428 420.324061 
L 174.312128 420.7476 
L 172.733607 421.543784 
L 172.01838 422.149432 
L 170.627128 423.137238 
L 169.563616 423.590512 
L 168.22161 423.858589 
L 166.790559 424.395979 
L 164.715976 424.770753 
L 164.368421 425.63186 
L 162.680315 426.58271 
L 161.358802 426.923924 
L 160.492386 427.451046 
L 159.828054 427.798519 
L 159.544235 428.203416 
L 158.843811 428.91038 
L 157.77551 429.629268 
L 157.100336 430.164 
L 156.451353 430.694425 
L 155.846335 431.263277 
L 155.642624 431.948635 
L 155.424033 432.35027 
L 154.801638 432.753702 
L 154.535009 433.027527 
L 153.641425 433.422128 
L 153.099294 433.668558 
L 152.536447 434.03772 
L 152.407279 435.024906 
L 151.86198 435.177931 
L 151.342105 435.275556 
L 150.096896 435.415702 
L 149.927831 435.709669 
L 149.756458 436.06179 
L 149.606737 436.346956 
L 149.157874 436.458581 
L 148.343962 436.536154 
L 148.254157 436.849804 
L 147.836414 437.008794 
L 147.721356 437.08668 
L 147.29455 437.608538 
L 147.186207 437.730776 
L 147.098136 438.029186 
L 146.704082 438.30664 
L 146.638106 438.432851 
L 146.568547 438.672611 
L 146.180705 438.754286 
L 145.778146 438.86732 
L 145.439472 439.302366 
L 145.340843 439.3725 
L 145.273646 439.847259 
L 144.892908 440.115667 
L 144.511364 440.367398 
L 143.577032 440.600292 
L 142.641152 440.840506 
L 142.313876 441.056655 
L 142.273201 441.276997 
L 141.93886 441.485176 
L 141.606383 441.739613 
L 141.265396 441.801968 
L 140.934166 442.173235 
L 140.896344 442.225361 
L 140.860954 442.434164 
L 140.554081 442.478272 
L 140.530228 442.521749 
" style="fill:none;stroke:#ff7f0e;stroke-linecap:square;stroke-width:1.5;"/>
   </g>
   <g id="line2d_16">
    <path clip-path="url(#p6a49b95052)" d="M 972 60.48 
L 972 60.48 
L 968.526971 60.48 
L 965.053942 60.48 
L 964.90678 67.633548 
L 964.689956 71.112329 
L 964.59292 72.884384 
L 960.689189 72.941284 
L 956.571429 73.115163 
L 956.35514 76.65 
L 952.352113 80.152258 
L 952.165877 82.04 
L 948.085714 82.140279 
L 947.855769 82.446792 
L 947.855769 85.987606 
L 947.855769 87.938491 
L 947.73913 87.938491 
L 947.138614 93.122243 
L 946.763819 93.430189 
L 937.836735 95.592 
L 933.761421 97.264834 
L 932.352632 99.661154 
L 931.5 103.392692 
L 931.059783 108.528 
L 925.756906 112.224 
L 919.983051 114.328421 
L 919.388571 116.453077 
L 918.780347 116.996505 
L 917.841176 122.648155 
L 907.994118 127.647692 
L 906.054545 132.896842 
L 900.110429 133.596522 
L 899.217391 133.596522 
L 897.363057 138.096 
L 896.884615 141.406635 
L 891.519231 144.686038 
L 880.2 148.763602 
L 878.388158 148.763602 
L 876.503356 148.763602 
L 874.541096 152.008302 
L 873.868966 160.170275 
L 871.795775 163.730642 
L 860.79021 168.084 
L 858.407143 168.084 
L 855.919708 172.358919 
L 852.428571 173.597489 
L 847.074627 175.14 
L 842.232558 182.847568 
L 839.142857 184.595676 
L 838.08 188.669321 
L 831.384 191.000179 
L 819.214286 192.740448 
L 817.992 196.220987 
L 815.487805 199.701525 
L 814.204918 200.961448 
L 805.983471 205.572973 
L 804.6 210.5376 
L 803.193277 212.565405 
L 801.762712 215.009593 
L 798.827586 218.844484 
L 798.827586 225.0675 
L 795.789474 226.55027 
L 792.642857 227.301719 
L 791.027027 230.813756 
L 783.486486 233.953548 
L 780.027523 236.718165 
L 776.439252 238.644 
L 764.742857 238.644 
L 764.742857 240.278532 
L 764.742857 242.058716 
L 764.742857 243.74 
L 762.75 243.74 
L 758.647059 243.74 
L 758.647059 247.266168 
L 754.38 250.926667 
L 745.3125 252.739817 
L 740.489362 256.316667 
L 738 256.316667 
L 738 261.773832 
L 727.483146 263.67283 
L 724.704545 267.214206 
L 712.241379 269.164528 
L 709.22093 270.153555 
L 702.964286 272.16 
L 696.402439 274.205217 
L 696.402439 274.205217 
L 689.5125 278.416552 
L 682.269231 279.495446 
L 674.644737 283.626 
L 653.704225 287.024162 
L 639.661765 289.347692 
L 634.701493 292.527835 
L 634.701493 294.945 
L 624.323077 296.172565 
L 613.285714 298.666667 
L 607.5 302.268063 
L 601.52459 304.826667 
L 588.966102 306.88 
L 588.966102 310.854194 
L 582.362069 313.575652 
L 582.362069 313.575652 
" style="fill:none;stroke:#2ca02c;stroke-linecap:square;stroke-width:1.5;"/>
   </g>
   <g id="line2d_17">
    <path clip-path="url(#p6a49b95052)" d="M 972 60.48 
L 972 60.48 
L 969.713115 60.48 
L 967.42623 60.48 
L 967.362881 65.285944 
L 967.271186 67.666667 
L 967.217143 67.77931 
L 964.721739 67.802264 
L 962.065282 67.943077 
L 961.915663 70.430769 
L 959.279635 72.99871 
L 959.162577 74.430588 
L 956.403727 74.476328 
L 956.207547 74.805101 
L 956.107595 76.16 
L 956.107595 76.266305 
L 955.955272 76.428493 
L 955.534426 79.086575 
L 955.370861 79.476923 
L 949.605351 79.746383 
L 946.89 79.746383 
L 946.113402 81.419568 
L 945.752613 82.896173 
L 945.381625 84.297184 
L 942 85.789565 
L 938.274725 87.390657 
L 937.9 87.789333 
L 937.516854 87.993134 
L 937.125 92.337313 
L 930.310345 95.104238 
L 929.496094 99.288 
L 925.5 99.577612 
L 924.939759 99.577612 
L 923.777778 103.440886 
L 923.578512 106.474667 
L 919.247899 109.169004 
L 911.707627 112.224 
L 910.402597 112.224 
L 909.317181 112.610149 
L 908.477679 115.30171 
L 907.905405 122.5728 
L 906.729358 125.632117 
L 898.714286 129.881168 
L 896.630332 129.881168 
L 895.543269 133.8624 
L 893.660099 134.130219 
L 888.3 135.499182 
L 885.71134 142.408 
L 883.894737 142.712565 
L 883.428571 145.915522 
L 878.505319 148.811642 
L 870.142857 150.595955 
L 869.053476 154.56 
L 867.940541 157.868897 
L 866.225275 159.372973 
L 861.016575 163.868108 
L 860.4 169.023448 
L 859.776536 170.71284 
L 859.146067 172.659375 
L 855.884393 176.302326 
L 855.209302 180.814884 
L 853.835294 182.709921 
L 852.428571 183.193043 
L 851.712575 186.26087 
L 845.945783 188.796774 
L 844.408537 191.398554 
L 842.031056 193.447649 
L 834.265823 193.447649 
L 832.5 194.515663 
L 829.764706 197.172146 
L 828.828947 198.288 
L 827.880795 198.288 
L 822.945205 198.288 
L 820.875 199.996364 
L 818.746479 202.616296 
L 810.8 203.203636 
L 805.877863 207.232941 
L 804.6 209.741538 
L 800.645669 214.373793 
L 793.622951 215.712 
L 792.14876 220.773913 
L 787.576271 222.18 
L 782.765217 223.610973 
L 777.696429 225.0675 
L 774.163636 227.301719 
L 770.5 228.825205 
L 766.698113 232.758505 
L 760.718447 235.207962 
L 756.534653 238.584348 
L 742.926316 242.093793 
L 735.456522 244.818 
L 732.857143 246.68 
L 732.857143 249.544615 
L 727.483146 250.519175 
L 718.953488 252.49875 
L 715.976471 257.536166 
L 709.807229 259.599581 
L 703.333333 260.647579 
L 696.531646 264.952258 
L 693 268.304262 
L 689.376623 268.304262 
" style="fill:none;stroke:#d62728;stroke-linecap:square;stroke-width:1.5;"/>
   </g>
   <g id="line2d_18">
    <path clip-path="url(#p6a49b95052)" d="M 972 60.48 
L 972 60.48 
L 970.230444 60.48 
L 968.438298 60.48 
L 968.4 64.176 
L 968.33698 66.024 
L 968.288248 67.010192 
L 966.369955 67.025928 
L 964.356164 67.138235 
L 964.232019 69.040588 
L 962.152941 70.994483 
L 962.059382 72.064478 
L 959.927885 72.1224 
L 959.781022 72.329771 
L 959.721271 74.375448 
L 959.630542 75.52186 
L 959.538462 75.678956 
L 959.253807 78.814488 
L 959.056701 79.157647 
L 954.5625 80.408432 
L 952.331593 81.571304 
L 951.80429 82.869231 
L 951.585366 85.001538 
L 951.247934 88.048525 
L 948.685237 90.16918 
L 945.84375 91.398462 
L 945.543103 92.730416 
L 945.313043 92.910084 
L 945 96.153092 
L 939.616071 99.180499 
L 938.927052 102.289724 
L 935.833333 102.639109 
L 935.38125 102.756872 
L 934.681529 105.756 
L 934.321543 108.044123 
L 931.104235 110.068 
L 925.194079 112.513073 
L 924.251678 112.513073 
L 923.43686 112.805393 
L 922.59375 114.832941 
L 922.073684 120.349091 
L 921.362989 122.658564 
L 915 126.238 
L 913.747253 126.238 
L 913.1 129.472 
L 911.761364 130.55 
L 907.615385 131.737627 
L 905.833992 137.436374 
L 904.5 138.535751 
L 903.393443 140.9625 
L 899.367769 143.403077 
L 892.450413 144.7488 
L 891.451883 147.966243 
L 890.080851 150.994286 
L 888.662338 152.333254 
L 884.66087 155.777751 
L 883.506608 159.782824 
L 882.72 161.264955 
L 881.919283 162.728623 
L 879.853211 165.898746 
L 879 170.205 
L 878.130841 171.526988 
L 876.796209 171.862477 
L 875.423077 174.898723 
L 870.42233 176.664444 
L 868.921182 178.695138 
L 865.781726 180.713374 
L 858.65625 180.713374 
L 856.244681 182.206957 
L 853.728261 184.1805 
L 853.081967 184.958491 
L 851.1 185.351167 
L 846.931034 185.351167 
L 845.476744 187.780127 
L 843.988235 191.487898 
L 838.490798 193.536 
L 834.265823 196.495177 
L 831.6 198.717647 
L 827.880795 202.180263 
L 822.945205 203.118675 
L 820.875 208.443612 
L 817.659574 209.44 
L 814.304348 210.96 
L 810.8 213.035586 
L 804.6 215.712 
L 801.984375 217.363404 
L 799.285714 220.773913 
L 795.073171 223.131176 
L 790.65 228.258947 
L 781.105263 230.820458 
L 774.163636 234.134475 
L 772.348624 237.018353 
L 772.348624 239.12 
L 768.616822 239.831713 
L 762.75 242.00129 
L 756.534653 247.449717 
L 749.938776 248.976 
L 745.3125 251.339016 
L 740.489362 255.331883 
L 738 257.808814 
L 732.857143 257.808814 
" style="fill:none;stroke:#9467bd;stroke-linecap:square;stroke-width:1.5;"/>
   </g>
   <g id="line2d_19">
    <path clip-path="url(#p6a49b95052)" d="M 972 60.48 
L 938.0859 66.315789 
L 899.104199 72.72 
L 865.335832 77.664354 
L 832.5 85.743797 
L 806.257426 94.884255 
L 783.298755 102.011368 
L 756.255061 107.560763 
L 734.442971 113.522076 
L 718.164706 121.651932 
L 699.813625 127.232378 
L 682.107053 133.690417 
L 665.653846 140.640787 
L 649.215328 147.703192 
L 635.207143 152.641163 
L 618.556845 158.125935 
L 603.37798 163.097308 
L 585.764246 168.521472 
L 570.497256 175.056 
L 558.487541 178.940032 
L 545.520127 182.902713 
L 529.0875 186.376819 
L 516.699387 190.043717 
L 501.343968 194.25913 
L 489.398049 197.837527 
L 475.256951 201.166452 
L 465.540057 204.674862 
L 456.327475 207.337021 
L 446.124207 211.982703 
L 435.423214 214.902295 
L 422.833773 218.119586 
L 414.486486 223.168559 
L 406.809278 226.560346 
L 399.053571 228.62944 
L 394.222785 233.386931 
L 387.495 237.223955 
L 380.933333 240.832531 
L 373.076985 243.546703 
L 366.26747 245.736296 
L 360.165733 248.991045 
L 354.811514 252.706542 
L 348.674236 255.036064 
L 342.954334 259.14 
L 337.034483 260.4 
L 331.755102 264.120937 
L 326.027027 266.112 
L 321.763433 268.470588 
L 315.113924 273.493924 
L 308.914097 274.958544 
L 303.980392 277.8048 
L 301.311416 280.458509 
L 298.8 283.303427 
L 295.276596 286.570141 
L 290.981013 289.258619 
L 286.651568 292.339261 
L 283.518569 295.486726 
L 280.391689 298.476496 
L 278.081757 300.534504 
L 275.714668 302.909027 
L 271.527963 305.076328 
L 268.809868 307.743764 
L 266.294118 309.823784 
L 263.811039 311.646131 
L 261.441575 314.170207 
L 259.179191 316.367299 
L 255.028681 317.159126 
L 251.456798 318.576578 
L 245.965909 319.665324 
L 242.711864 321.374118 
L 238.712951 322.92259 
L 236.922509 324.615789 
L 234.435395 325.691183 
L 229.47529 325.984076 
L 228.11307 328.44 
L 225.527492 331.447101 
L 221.777577 332.044255 
L 218.448649 334.472727 
L 215.903341 337.353113 
L 213.57754 339.441035 
L 210.820604 340.860984 
L 209.389052 344.286168 
L 207.654545 346.12493 
L 205.076698 347.929953 
L 202.641279 350.528204 
L 199.872378 352.442512 
L 198.453125 354.016148 
L 196.749856 357.484578 
L 194.92268 359.485121 
L 192.609215 362.22007 
L 189.245594 364.018818 
L 187.105263 366.171787 
L 185.870006 367.879024 
L 185.472362 369.681951 
L 183.413793 370.675433 
L 181.371191 372.631304 
L 179.584843 374.851442 
L 177.078689 376.183524 
L 175.507341 377.316123 
L 174.340357 379.764 
L 173.291173 381.741209 
L 172.289855 382.776246 
" style="fill:none;stroke:#8c564b;stroke-linecap:square;stroke-width:1.5;"/>
   </g>
   <g id="line2d_20">
    <path clip-path="url(#p6a49b95052)" d="M 972 60.48 
L 957.276049 65.637209 
L 951.557666 70.709456 
L 941.378049 75.723732 
L 937.74352 86.434395 
L 928.31044 95.097465 
L 917.039672 103.001111 
L 903.29959 107.879084 
L 894.756198 114.740426 
L 885.294199 121.480599 
L 876.04558 128.322133 
L 869.98338 138.096 
L 863.435146 142.766304 
L 847.143646 149.909531 
L 837.297111 156.409888 
L 830.777778 160.911392 
L 824.091781 170.061818 
L 817.085635 177.326975 
L 808.0875 182.643582 
L 793.547455 188.969475 
L 785.363885 193.624468 
L 775.126547 198.23555 
L 771.444598 202.946211 
L 766.543933 208.582975 
L 759.539749 212.120514 
L 750.371831 216.796849 
L 737.874126 219.931327 
L 731.684874 223.113275 
L 728.316456 227.556625 
L 717.36338 232.539829 
L 710.065434 236.073357 
L 704.591691 239.237613 
L 694.601148 242.378182 
L 688.968208 246.86645 
L 683.295652 249.142448 
L 677.590116 251.63712 
L 671.069869 255.837014 
L 662.727273 258.024108 
L 658.28 259.540157 
L 650.651786 262.506073 
L 646.988006 265.382832 
L 641.505295 268.274198 
L 634.39726 272.540994 
L 627.202144 274.132645 
L 622.497689 277.408884 
L 615.139535 280.54226 
L 609.560748 283.758904 
L 600.292913 288.186246 
L 594.685714 290.648787 
L 586.926518 293.166971 
L 581.578275 296.285561 
L 573.365506 298.900431 
L 571.464229 301.384748 
L 564.810811 304.370604 
L 560.889246 306.7539 
L 555.5088 309.481584 
L 550.817308 312.4598 
L 548.134615 315.072861 
L 544.767255 317.020496 
L 539.956311 319.836614 
L 536.54295 322.870685 
L 530.475728 325.114319 
L 527.047002 326.559923 
L 522.97731 328.68973 
L 518.172078 330.562703 
L 510.489396 332.654427 
L 503.940789 333.573333 
L 495.703827 334.2675 
L 490.51505 335.998408 
L 480.809444 338.305851 
L 477.730964 339.503684 
L 473.210526 340.941176 
L 460.821799 341.739092 
L 457.367876 343.634667 
L 451.232236 346.001105 
L 441.753927 347.105814 
L 436.142857 349.949508 
L 429.886121 352.070164 
L 423.466071 354.000652 
L 418.014388 354.873418 
L 415.508108 357.247059 
L 410.983784 358.707243 
L 403.927798 360.502386 
L 398.836957 362.667742 
L 392.067642 365.0535 
L 385.946984 366.4395 
L 381.176471 369.14059 
L 375.907749 370.667047 
L 369.48423 373.157647 
L 361.131332 374.672883 
L 353.761364 376.46336 
L 350.590909 378.18816 
L 349.411765 379.690435 
L 343.851429 380.156174 
L 335.88 381.826667 
L 330.62069 383.766327 
L 322.436293 385.130404 
L 315.752918 386.196052 
L 312.842105 387.784567 
L 308.285156 389.718773 
L 303.710372 390.500787 
" style="fill:none;stroke:#e377c2;stroke-linecap:square;stroke-width:1.5;"/>
   </g>
   <g id="line2d_21">
    <path clip-path="url(#p6a49b95052)" d="M 972 60.48 
L 938.909302 67.910103 
L 906.02027 79.939599 
L 878.794928 89.367978 
L 852.943966 99.712131 
L 830.42234 107.551698 
L 806.34375 118.333615 
L 782.006135 124.908327 
L 758.137275 134.51831 
L 737.211614 144.193017 
L 719.122587 152.381153 
L 701.71875 164.091347 
L 685.699065 169.79831 
L 666.732176 177.7125 
L 653.608813 183.031579 
L 638.082601 190.717017 
L 622.530928 198.0328 
L 606.609137 205.266958 
L 592.625209 213.800685 
L 578.842881 218.601957 
L 569.349718 221.050667 
L 554.828571 226.742069 
L 541.784603 230.315426 
L 526.192716 234.776978 
L 513.080238 239.13878 
L 497.90365 244.204935 
L 487.611071 248.570208 
L 477.35543 252.054194 
L 466.324567 256.947834 
L 454.861717 259.884309 
L 444.853675 263.099379 
L 437.53012 266.76 
L 429.005976 270.453942 
L 421.704142 272.639782 
L 416.372139 277.307616 
L 410.022035 280.539387 
L 404.496787 284.449913 
L 397.231458 287.470189 
L 390.823716 289.770051 
L 384.992439 291.495582 
L 378.77625 294.294174 
L 373.399254 296.96625 
L 366.983333 300.222983 
L 361.077348 301.455 
L 354.250454 304.70008 
L 348.164756 306.821053 
L 344.25 309.384345 
L 337 313.348 
L 329.789132 315.739544 
L 324.268893 317.991028 
L 320.621071 320.697222 
L 318.09375 322.873308 
L 314.66514 325.052945 
L 310.784291 327.488513 
L 307.239796 329.808109 
L 303.15363 332.252892 
L 300.246644 334.757773 
L 297.555927 336.779202 
L 294.892027 338.332715 
L 291.160154 340.238769 
L 288.009793 342.72 
L 285.126418 344.303896 
L 282.07093 345.628387 
L 279.325705 348.223077 
L 276.721338 350.165779 
L 272.431144 351.403544 
L 268.179136 352.151043 
L 262.789612 353.492519 
L 259.177512 355.098519 
L 254.571429 356.822274 
L 252.360555 358.061235 
L 249.932619 359.227377 
L 244.322449 359.652481 
L 242.53566 361.090509 
L 239.625 363.28211 
L 235.071536 363.659311 
L 231.753363 365.978667 
L 228.876923 367.926756 
L 226.527462 369.39168 
L 224.103992 370.582515 
L 222.674009 372.899841 
L 221.149756 374.165217 
L 218.86284 376.016941 
L 215.869565 377.884856 
L 213.481392 379.449863 
L 211.383285 380.727953 
L 209.488995 383.170148 
L 207.141429 384.544236 
L 204.452347 386.207815 
L 201.485106 387.323515 
L 198.504713 389.218273 
L 197.087324 390.459731 
L 196.291511 391.846331 
L 194.146444 392.309371 
L 192.015292 394.066793 
L 189.979789 395.951425 
L 187.432099 397.271894 
L 185.334396 398.014828 
L 183.967347 399.475738 
L 182.634146 401.015373 
L 180.743902 401.817813 
" style="fill:none;stroke:#7f7f7f;stroke-linecap:square;stroke-width:1.5;"/>
   </g>
   <g id="line2d_22">
    <path clip-path="url(#p6a49b95052)" d="M 972 60.48 
L 972 60.48 
L 971.074115 60.48 
L 970.12542 60.48 
L 970.102041 62.594877 
L 970.066975 63.674074 
L 970.039813 63.705042 
L 969.007151 63.714 
L 967.946731 63.768814 
L 967.886978 64.883745 
L 966.807692 66.031931 
L 966.755639 66.64 
L 965.618806 66.675762 
L 965.528351 66.757765 
L 965.469441 67.3792 
L 965.418087 67.482947 
L 965.365918 67.568219 
L 965.25 68.838646 
L 965.129959 68.942804 
L 962.764138 69.04959 
L 961.552011 69.117711 
L 961.360169 69.838842 
L 961.207736 70.543663 
L 961.050872 71.242414 
L 959.691176 71.950345 
L 958.134036 72.687815 
L 957.922018 72.810301 
L 957.747678 72.893333 
L 957.568966 74.95078 
L 954.5904 76.32 
L 954.191489 78.3 
L 952.502496 78.391385 
L 952.138983 78.45283 
L 951.831325 80.449811 
L 951.513986 81.854458 
L 949.818021 83.190361 
L 946.591071 84.735 
L 946.034672 84.947391 
L 945.601113 85.033392 
L 945.20339 86.397469 
L 944.68906 90.228293 
L 944.263158 91.743888 
L 940.571146 94.017778 
L 939.9375 94.19617 
L 939.478528 96.323979 
L 938.660377 96.645161 
L 936.533898 97.238033 
L 935.608696 101.142794 
L 934.8 101.596283 
L 934.126697 103.197761 
L 931.869863 104.977895 
L 927.947368 106.05 
L 927.540416 108.06069 
L 926.915691 109.926486 
L 926.273159 110.505938 
L 923.478261 113.088094 
L 922.764706 116.137839 
L 922.153846 116.69 
L 921.654135 117.91584 
L 920.885496 120.484337 
L 920.492308 123.326964 
L 919.6875 123.84 
L 918.997361 124.230308 
L 918.574468 126.639168 
L 915.75 127.474863 
L 914.196133 129.253671 
L 912.889831 130.742905 
L 908.738372 131.339618 
L 907.615385 132.099914 
L 905.449541 133.56 
L 904.833333 134.037647 
L 903.99375 134.684308 
L 901.114007 134.684308 
L 900.414474 135.675902 
L 899.217391 138.270811 
L 896.698962 138.446411 
L 894.829787 140.772414 
L 892.865455 141.895385 
L 891.100372 144.290704 
L 889.254753 145.286081 
L 888.62069 149.31759 
L 887.322957 149.964466 
L 885.298805 151.511111 
L 882.811475 153.112161 
L 880.563025 154.53 
L 879 155.499588 
L 877.382609 157.5 
L 875.28 158.532128 
L 872.174312 160.663696 
L 868.371429 161.764615 
L 864.79803 163.750588 
L 863.19 165.2175 
L 862.643216 167.033757 
L 859.824742 167.653256 
L 856.244681 169.879407 
L 853.081967 174.68973 
L 849.050847 176.430732 
L 845.476744 177.142086 
L 842.464286 178.959252 
L 839.304878 181.216 
L 835.132075 182.376923 
" style="fill:none;stroke:#bcbd22;stroke-linecap:square;stroke-width:1.5;"/>
   </g>
   <g id="line2d_23">
    <path clip-path="url(#p6a49b95052)" d="M 972 60.48 
L 947.715667 66.536471 
L 919.983051 76.440987 
L 898.169916 83.890858 
L 878.4033 92.636459 
L 859.385455 98.938378 
L 839.25 108.131416 
L 818.673451 113.803969 
L 797.594595 121.8 
L 779.122958 130.177683 
L 762.92718 136.870484 
L 747.217681 147.429065 
L 732.956126 152.372927 
L 715.511002 159.256901 
L 703.133172 164.174357 
L 688.564388 170.921739 
L 673.631045 177.435616 
L 658.205543 184.215652 
L 644.727896 192.051282 
L 631.302099 196.436261 
L 622.422107 198.975593 
L 608.033675 204.427661 
L 594.624277 207.72 
L 578.746629 211.856191 
L 565.457143 215.994754 
L 550.041322 220.811881 
L 539.521472 225.0675 
L 528.485561 228.762478 
L 517.01255 233.450858 
L 504.990177 236.481529 
L 494.724967 239.670851 
L 487.135922 243.3 
L 478.508671 247.044422 
L 470.866242 249.3456 
L 464.695044 254.043243 
L 458.098866 257.500404 
L 452.08516 261.511033 
L 444.496565 264.537951 
L 437.423507 266.886042 
L 430.778053 268.629242 
L 423.478073 271.72478 
L 417.944069 274.654819 
L 410.934066 278.089412 
L 404.671733 279.366585 
L 396.719784 282.741341 
L 390.176789 284.820541 
L 386.1 287.371016 
L 378.626786 291.466147 
L 370.760754 294.546188 
L 364.697484 296.952765 
L 360.795349 299.781722 
L 357.8125 301.964627 
L 353.493976 304.237423 
L 349.382772 306.669133 
L 345.676705 309.054118 
L 340.578947 311.722543 
L 336.33371 314.758455 
L 332.329949 316.983983 
L 329.202809 318.92359 
L 325.20603 320.851404 
L 321.615894 323.771025 
L 317.835346 325.576901 
L 314.552948 327.607044 
L 311.186688 330.54263 
L 308.094492 332.727258 
L 303.393204 334.277131 
L 298.897532 335.203299 
L 293.000535 337.073269 
L 289.079045 338.701064 
L 283.564184 340.89227 
L 280.507878 342.193433 
L 277.486684 343.531583 
L 271.733299 344.026667 
L 269.006736 345.840648 
L 265.525476 348.275532 
L 260.464066 348.671129 
L 256.955521 351.214648 
L 253.290306 353.551786 
L 250.183486 355.224304 
L 247.223464 356.639521 
L 245.586989 359.280957 
L 243.570136 360.978743 
L 240.097941 363.284526 
L 236.175824 365.181445 
L 233.716642 367.167811 
L 231.096918 368.504204 
L 229.058911 371.044997 
L 226.53399 372.500336 
L 223.018673 374.364537 
L 219.234168 375.5126 
L 216.079256 377.453729 
L 214.20878 378.7056 
L 213.265988 380.339884 
L 210.980686 381.013642 
L 208.343284 383.217465 
L 205.749284 385.366897 
L 202.358571 386.9325 
L 199.782051 387.737817 
L 197.953169 389.477701 
L 196.166902 391.057604 
L 194.193777 392.112 
" style="fill:none;stroke:#17becf;stroke-linecap:square;stroke-width:1.5;"/>
   </g>
   <g id="patch_3">
    <path d="M 135 448.56 
L 135 60.48 
" style="fill:none;stroke:#000000;stroke-linecap:square;stroke-linejoin:miter;stroke-width:0.8;"/>
   </g>
   <g id="patch_4">
    <path d="M 972 448.56 
L 972 60.48 
" style="fill:none;stroke:#000000;stroke-linecap:square;stroke-linejoin:miter;stroke-width:0.8;"/>
   </g>
   <g id="patch_5">
    <path d="M 135 448.56 
L 972 448.56 
" style="fill:none;stroke:#000000;stroke-linecap:square;stroke-linejoin:miter;stroke-width:0.8;"/>
   </g>
   <g id="patch_6">
    <path d="M 135 60.48 
L 972 60.48 
" style="fill:none;stroke:#000000;stroke-linecap:square;stroke-linejoin:miter;stroke-width:0.8;"/>
   </g>
   <g id="legend_1">
    <g id="patch_7">
     <path d="M 147.6 339.08625 
L 256.730625 339.08625 
Q 260.330625 339.08625 260.330625 335.48625 
L 260.330625 73.08 
Q 260.330625 69.48 256.730625 69.48 
L 147.6 69.48 
Q 144 69.48 144 73.08 
L 144 335.48625 
Q 144 339.08625 147.6 339.08625 
z
" style="fill:#ffffff;opacity:0.8;stroke:#cccccc;stroke-linejoin:miter;"/>
    </g>
    <g id="line2d_24">
     <path d="M 151.2 84.057188 
L 187.2 84.057188 
" style="fill:none;stroke:#1f77b4;stroke-linecap:square;stroke-width:1.5;"/>
    </g>
    <g id="line2d_25"/>
    <g id="text_15">
     <!-- 0.001 -->
     <g transform="translate(201.6 90.357188)scale(0.18 -0.18)">
      <use xlink:href="#DejaVuSans-30"/>
      <use x="63.623047" xlink:href="#DejaVuSans-2e"/>
      <use x="95.410156" xlink:href="#DejaVuSans-30"/>
      <use x="159.033203" xlink:href="#DejaVuSans-30"/>
      <use x="222.65625" xlink:href="#DejaVuSans-31"/>
     </g>
    </g>
    <g id="line2d_26">
     <path d="M 151.2 110.477812 
L 187.2 110.477812 
" style="fill:none;stroke:#ff7f0e;stroke-linecap:square;stroke-width:1.5;"/>
    </g>
    <g id="line2d_27"/>
    <g id="text_16">
     <!-- 0.011 -->
     <g transform="translate(201.6 116.777812)scale(0.18 -0.18)">
      <use xlink:href="#DejaVuSans-30"/>
      <use x="63.623047" xlink:href="#DejaVuSans-2e"/>
      <use x="95.410156" xlink:href="#DejaVuSans-30"/>
      <use x="159.033203" xlink:href="#DejaVuSans-31"/>
      <use x="222.65625" xlink:href="#DejaVuSans-31"/>
     </g>
    </g>
    <g id="line2d_28">
     <path d="M 151.2 136.898438 
L 187.2 136.898438 
" style="fill:none;stroke:#2ca02c;stroke-linecap:square;stroke-width:1.5;"/>
    </g>
    <g id="line2d_29"/>
    <g id="text_17">
     <!-- 0.021 -->
     <g transform="translate(201.6 143.198438)scale(0.18 -0.18)">
      <use xlink:href="#DejaVuSans-30"/>
      <use x="63.623047" xlink:href="#DejaVuSans-2e"/>
      <use x="95.410156" xlink:href="#DejaVuSans-30"/>
      <use x="159.033203" xlink:href="#DejaVuSans-32"/>
      <use x="222.65625" xlink:href="#DejaVuSans-31"/>
     </g>
    </g>
    <g id="line2d_30">
     <path d="M 151.2 163.319062 
L 187.2 163.319062 
" style="fill:none;stroke:#d62728;stroke-linecap:square;stroke-width:1.5;"/>
    </g>
    <g id="line2d_31"/>
    <g id="text_18">
     <!-- 0.031 -->
     <g transform="translate(201.6 169.619062)scale(0.18 -0.18)">
      <defs>
       <path d="M 2597 2516 
Q 3050 2419 3304 2112 
Q 3559 1806 3559 1356 
Q 3559 666 3084 287 
Q 2609 -91 1734 -91 
Q 1441 -91 1130 -33 
Q 819 25 488 141 
L 488 750 
Q 750 597 1062 519 
Q 1375 441 1716 441 
Q 2309 441 2620 675 
Q 2931 909 2931 1356 
Q 2931 1769 2642 2001 
Q 2353 2234 1838 2234 
L 1294 2234 
L 1294 2753 
L 1863 2753 
Q 2328 2753 2575 2939 
Q 2822 3125 2822 3475 
Q 2822 3834 2567 4026 
Q 2313 4219 1838 4219 
Q 1578 4219 1281 4162 
Q 984 4106 628 3988 
L 628 4550 
Q 988 4650 1302 4700 
Q 1616 4750 1894 4750 
Q 2613 4750 3031 4423 
Q 3450 4097 3450 3541 
Q 3450 3153 3228 2886 
Q 3006 2619 2597 2516 
z
" id="DejaVuSans-33" transform="scale(0.015625)"/>
      </defs>
      <use xlink:href="#DejaVuSans-30"/>
      <use x="63.623047" xlink:href="#DejaVuSans-2e"/>
      <use x="95.410156" xlink:href="#DejaVuSans-30"/>
      <use x="159.033203" xlink:href="#DejaVuSans-33"/>
      <use x="222.65625" xlink:href="#DejaVuSans-31"/>
     </g>
    </g>
    <g id="line2d_32">
     <path d="M 151.2 189.739688 
L 187.2 189.739688 
" style="fill:none;stroke:#9467bd;stroke-linecap:square;stroke-width:1.5;"/>
    </g>
    <g id="line2d_33"/>
    <g id="text_19">
     <!-- 0.041 -->
     <g transform="translate(201.6 196.039688)scale(0.18 -0.18)">
      <use xlink:href="#DejaVuSans-30"/>
      <use x="63.623047" xlink:href="#DejaVuSans-2e"/>
      <use x="95.410156" xlink:href="#DejaVuSans-30"/>
      <use x="159.033203" xlink:href="#DejaVuSans-34"/>
      <use x="222.65625" xlink:href="#DejaVuSans-31"/>
     </g>
    </g>
    <g id="line2d_34">
     <path d="M 151.2 216.160312 
L 187.2 216.160312 
" style="fill:none;stroke:#8c564b;stroke-linecap:square;stroke-width:1.5;"/>
    </g>
    <g id="line2d_35"/>
    <g id="text_20">
     <!-- 0.051 -->
     <g transform="translate(201.6 222.460312)scale(0.18 -0.18)">
      <defs>
       <path d="M 691 4666 
L 3169 4666 
L 3169 4134 
L 1269 4134 
L 1269 2991 
Q 1406 3038 1543 3061 
Q 1681 3084 1819 3084 
Q 2600 3084 3056 2656 
Q 3513 2228 3513 1497 
Q 3513 744 3044 326 
Q 2575 -91 1722 -91 
Q 1428 -91 1123 -41 
Q 819 9 494 109 
L 494 744 
Q 775 591 1075 516 
Q 1375 441 1709 441 
Q 2250 441 2565 725 
Q 2881 1009 2881 1497 
Q 2881 1984 2565 2268 
Q 2250 2553 1709 2553 
Q 1456 2553 1204 2497 
Q 953 2441 691 2322 
L 691 4666 
z
" id="DejaVuSans-35" transform="scale(0.015625)"/>
      </defs>
      <use xlink:href="#DejaVuSans-30"/>
      <use x="63.623047" xlink:href="#DejaVuSans-2e"/>
      <use x="95.410156" xlink:href="#DejaVuSans-30"/>
      <use x="159.033203" xlink:href="#DejaVuSans-35"/>
      <use x="222.65625" xlink:href="#DejaVuSans-31"/>
     </g>
    </g>
    <g id="line2d_36">
     <path d="M 151.2 242.580937 
L 187.2 242.580937 
" style="fill:none;stroke:#e377c2;stroke-linecap:square;stroke-width:1.5;"/>
    </g>
    <g id="line2d_37"/>
    <g id="text_21">
     <!-- 0.061 -->
     <g transform="translate(201.6 248.880937)scale(0.18 -0.18)">
      <use xlink:href="#DejaVuSans-30"/>
      <use x="63.623047" xlink:href="#DejaVuSans-2e"/>
      <use x="95.410156" xlink:href="#DejaVuSans-30"/>
      <use x="159.033203" xlink:href="#DejaVuSans-36"/>
      <use x="222.65625" xlink:href="#DejaVuSans-31"/>
     </g>
    </g>
    <g id="line2d_38">
     <path d="M 151.2 269.001562 
L 187.2 269.001562 
" style="fill:none;stroke:#7f7f7f;stroke-linecap:square;stroke-width:1.5;"/>
    </g>
    <g id="line2d_39"/>
    <g id="text_22">
     <!-- 0.071 -->
     <g transform="translate(201.6 275.301562)scale(0.18 -0.18)">
      <defs>
       <path d="M 525 4666 
L 3525 4666 
L 3525 4397 
L 1831 0 
L 1172 0 
L 2766 4134 
L 525 4134 
L 525 4666 
z
" id="DejaVuSans-37" transform="scale(0.015625)"/>
      </defs>
      <use xlink:href="#DejaVuSans-30"/>
      <use x="63.623047" xlink:href="#DejaVuSans-2e"/>
      <use x="95.410156" xlink:href="#DejaVuSans-30"/>
      <use x="159.033203" xlink:href="#DejaVuSans-37"/>
      <use x="222.65625" xlink:href="#DejaVuSans-31"/>
     </g>
    </g>
    <g id="line2d_40">
     <path d="M 151.2 295.422188 
L 187.2 295.422188 
" style="fill:none;stroke:#bcbd22;stroke-linecap:square;stroke-width:1.5;"/>
    </g>
    <g id="line2d_41"/>
    <g id="text_23">
     <!-- 0.081 -->
     <g transform="translate(201.6 301.722188)scale(0.18 -0.18)">
      <use xlink:href="#DejaVuSans-30"/>
      <use x="63.623047" xlink:href="#DejaVuSans-2e"/>
      <use x="95.410156" xlink:href="#DejaVuSans-30"/>
      <use x="159.033203" xlink:href="#DejaVuSans-38"/>
      <use x="222.65625" xlink:href="#DejaVuSans-31"/>
     </g>
    </g>
    <g id="line2d_42">
     <path d="M 151.2 321.842812 
L 187.2 321.842812 
" style="fill:none;stroke:#17becf;stroke-linecap:square;stroke-width:1.5;"/>
    </g>
    <g id="line2d_43"/>
    <g id="text_24">
     <!-- 0.091 -->
     <g transform="translate(201.6 328.142812)scale(0.18 -0.18)">
      <defs>
       <path d="M 703 97 
L 703 672 
Q 941 559 1184 500 
Q 1428 441 1663 441 
Q 2288 441 2617 861 
Q 2947 1281 2994 2138 
Q 2813 1869 2534 1725 
Q 2256 1581 1919 1581 
Q 1219 1581 811 2004 
Q 403 2428 403 3163 
Q 403 3881 828 4315 
Q 1253 4750 1959 4750 
Q 2769 4750 3195 4129 
Q 3622 3509 3622 2328 
Q 3622 1225 3098 567 
Q 2575 -91 1691 -91 
Q 1453 -91 1209 -44 
Q 966 3 703 97 
z
M 1959 2075 
Q 2384 2075 2632 2365 
Q 2881 2656 2881 3163 
Q 2881 3666 2632 3958 
Q 2384 4250 1959 4250 
Q 1534 4250 1286 3958 
Q 1038 3666 1038 3163 
Q 1038 2656 1286 2365 
Q 1534 2075 1959 2075 
z
" id="DejaVuSans-39" transform="scale(0.015625)"/>
      </defs>
      <use xlink:href="#DejaVuSans-30"/>
      <use x="63.623047" xlink:href="#DejaVuSans-2e"/>
      <use x="95.410156" xlink:href="#DejaVuSans-30"/>
      <use x="159.033203" xlink:href="#DejaVuSans-39"/>
      <use x="222.65625" xlink:href="#DejaVuSans-31"/>
     </g>
    </g>
   </g>
  </g>
 </g>
 <defs>
  <clipPath id="p6a49b95052">
   <rect height="388.08" width="837" x="135" y="60.48"/>
  </clipPath>
 </defs>
</svg>
