<?xml version="1.0" encoding="utf-8" standalone="no"?>
<!DOCTYPE svg PUBLIC "-//W3C//DTD SVG 1.1//EN"
  "http://www.w3.org/Graphics/SVG/1.1/DTD/svg11.dtd">
<svg height="504pt" version="1.1" viewBox="0 0 1080 504" width="1080pt" xmlns="http://www.w3.org/2000/svg" xmlns:xlink="http://www.w3.org/1999/xlink">
 <metadata>
  <rdf:RDF xmlns:cc="http://creativecommons.org/ns#" xmlns:dc="http://purl.org/dc/elements/1.1/" xmlns:rdf="http://www.w3.org/1999/02/22-rdf-syntax-ns#">
   <cc:Work>
    <dc:type rdf:resource="http://purl.org/dc/dcmitype/StillImage"/>
    <dc:date>2022-01-07T13:22:36.883086</dc:date>
    <dc:format>image/svg+xml</dc:format>
    <dc:creator>
     <cc:Agent>
      <dc:title>Matplotlib v3.4.3, https://matplotlib.org/</dc:title>
     </cc:Agent>
    </dc:creator>
   </cc:Work>
  </rdf:RDF>
 </metadata>
 <defs>
  <style type="text/css">*{stroke-linecap:butt;stroke-linejoin:round;}</style>
 </defs>
 <g id="figure_1">
  <g id="patch_1">
   <path d="M 0 504 
L 1080 504 
L 1080 0 
L 0 0 
z
" style="fill:#ffffff;"/>
  </g>
  <g id="axes_1">
   <g id="patch_2">
    <path d="M 135 448.56 
L 972 448.56 
L 972 60.48 
L 135 60.48 
z
" style="fill:#ffffff;"/>
   </g>
   <g id="matplotlib.axis_1">
    <g id="xtick_1">
     <g id="line2d_1">
      <defs>
       <path d="M 0 0 
L 0 3.5 
" id="mf4aee64290" style="stroke:#000000;stroke-width:0.8;"/>
      </defs>
      <g>
       <use style="stroke:#000000;stroke-width:0.8;" x="135" xlink:href="#mf4aee64290" y="448.56"/>
      </g>
     </g>
     <g id="text_1">
      <!-- 0.0 -->
      <g transform="translate(120.687187 469.237188)scale(0.18 -0.18)">
       <defs>
        <path d="M 2034 4250 
Q 1547 4250 1301 3770 
Q 1056 3291 1056 2328 
Q 1056 1369 1301 889 
Q 1547 409 2034 409 
Q 2525 409 2770 889 
Q 3016 1369 3016 2328 
Q 3016 3291 2770 3770 
Q 2525 4250 2034 4250 
z
M 2034 4750 
Q 2819 4750 3233 4129 
Q 3647 3509 3647 2328 
Q 3647 1150 3233 529 
Q 2819 -91 2034 -91 
Q 1250 -91 836 529 
Q 422 1150 422 2328 
Q 422 3509 836 4129 
Q 1250 4750 2034 4750 
z
" id="DejaVuSans-30" transform="scale(0.015625)"/>
        <path d="M 684 794 
L 1344 794 
L 1344 0 
L 684 0 
L 684 794 
z
" id="DejaVuSans-2e" transform="scale(0.015625)"/>
       </defs>
       <use xlink:href="#DejaVuSans-30"/>
       <use x="63.623047" xlink:href="#DejaVuSans-2e"/>
       <use x="95.410156" xlink:href="#DejaVuSans-30"/>
      </g>
     </g>
    </g>
    <g id="xtick_2">
     <g id="line2d_2">
      <g>
       <use style="stroke:#000000;stroke-width:0.8;" x="302.4" xlink:href="#mf4aee64290" y="448.56"/>
      </g>
     </g>
     <g id="text_2">
      <!-- 0.2 -->
      <g transform="translate(288.087187 469.237188)scale(0.18 -0.18)">
       <defs>
        <path d="M 1228 531 
L 3431 531 
L 3431 0 
L 469 0 
L 469 531 
Q 828 903 1448 1529 
Q 2069 2156 2228 2338 
Q 2531 2678 2651 2914 
Q 2772 3150 2772 3378 
Q 2772 3750 2511 3984 
Q 2250 4219 1831 4219 
Q 1534 4219 1204 4116 
Q 875 4013 500 3803 
L 500 4441 
Q 881 4594 1212 4672 
Q 1544 4750 1819 4750 
Q 2544 4750 2975 4387 
Q 3406 4025 3406 3419 
Q 3406 3131 3298 2873 
Q 3191 2616 2906 2266 
Q 2828 2175 2409 1742 
Q 1991 1309 1228 531 
z
" id="DejaVuSans-32" transform="scale(0.015625)"/>
       </defs>
       <use xlink:href="#DejaVuSans-30"/>
       <use x="63.623047" xlink:href="#DejaVuSans-2e"/>
       <use x="95.410156" xlink:href="#DejaVuSans-32"/>
      </g>
     </g>
    </g>
    <g id="xtick_3">
     <g id="line2d_3">
      <g>
       <use style="stroke:#000000;stroke-width:0.8;" x="469.8" xlink:href="#mf4aee64290" y="448.56"/>
      </g>
     </g>
     <g id="text_3">
      <!-- 0.4 -->
      <g transform="translate(455.487188 469.237188)scale(0.18 -0.18)">
       <defs>
        <path d="M 2419 4116 
L 825 1625 
L 2419 1625 
L 2419 4116 
z
M 2253 4666 
L 3047 4666 
L 3047 1625 
L 3713 1625 
L 3713 1100 
L 3047 1100 
L 3047 0 
L 2419 0 
L 2419 1100 
L 313 1100 
L 313 1709 
L 2253 4666 
z
" id="DejaVuSans-34" transform="scale(0.015625)"/>
       </defs>
       <use xlink:href="#DejaVuSans-30"/>
       <use x="63.623047" xlink:href="#DejaVuSans-2e"/>
       <use x="95.410156" xlink:href="#DejaVuSans-34"/>
      </g>
     </g>
    </g>
    <g id="xtick_4">
     <g id="line2d_4">
      <g>
       <use style="stroke:#000000;stroke-width:0.8;" x="637.2" xlink:href="#mf4aee64290" y="448.56"/>
      </g>
     </g>
     <g id="text_4">
      <!-- 0.6 -->
      <g transform="translate(622.887188 469.237188)scale(0.18 -0.18)">
       <defs>
        <path d="M 2113 2584 
Q 1688 2584 1439 2293 
Q 1191 2003 1191 1497 
Q 1191 994 1439 701 
Q 1688 409 2113 409 
Q 2538 409 2786 701 
Q 3034 994 3034 1497 
Q 3034 2003 2786 2293 
Q 2538 2584 2113 2584 
z
M 3366 4563 
L 3366 3988 
Q 3128 4100 2886 4159 
Q 2644 4219 2406 4219 
Q 1781 4219 1451 3797 
Q 1122 3375 1075 2522 
Q 1259 2794 1537 2939 
Q 1816 3084 2150 3084 
Q 2853 3084 3261 2657 
Q 3669 2231 3669 1497 
Q 3669 778 3244 343 
Q 2819 -91 2113 -91 
Q 1303 -91 875 529 
Q 447 1150 447 2328 
Q 447 3434 972 4092 
Q 1497 4750 2381 4750 
Q 2619 4750 2861 4703 
Q 3103 4656 3366 4563 
z
" id="DejaVuSans-36" transform="scale(0.015625)"/>
       </defs>
       <use xlink:href="#DejaVuSans-30"/>
       <use x="63.623047" xlink:href="#DejaVuSans-2e"/>
       <use x="95.410156" xlink:href="#DejaVuSans-36"/>
      </g>
     </g>
    </g>
    <g id="xtick_5">
     <g id="line2d_5">
      <g>
       <use style="stroke:#000000;stroke-width:0.8;" x="804.6" xlink:href="#mf4aee64290" y="448.56"/>
      </g>
     </g>
     <g id="text_5">
      <!-- 0.8 -->
      <g transform="translate(790.287188 469.237188)scale(0.18 -0.18)">
       <defs>
        <path d="M 2034 2216 
Q 1584 2216 1326 1975 
Q 1069 1734 1069 1313 
Q 1069 891 1326 650 
Q 1584 409 2034 409 
Q 2484 409 2743 651 
Q 3003 894 3003 1313 
Q 3003 1734 2745 1975 
Q 2488 2216 2034 2216 
z
M 1403 2484 
Q 997 2584 770 2862 
Q 544 3141 544 3541 
Q 544 4100 942 4425 
Q 1341 4750 2034 4750 
Q 2731 4750 3128 4425 
Q 3525 4100 3525 3541 
Q 3525 3141 3298 2862 
Q 3072 2584 2669 2484 
Q 3125 2378 3379 2068 
Q 3634 1759 3634 1313 
Q 3634 634 3220 271 
Q 2806 -91 2034 -91 
Q 1263 -91 848 271 
Q 434 634 434 1313 
Q 434 1759 690 2068 
Q 947 2378 1403 2484 
z
M 1172 3481 
Q 1172 3119 1398 2916 
Q 1625 2713 2034 2713 
Q 2441 2713 2670 2916 
Q 2900 3119 2900 3481 
Q 2900 3844 2670 4047 
Q 2441 4250 2034 4250 
Q 1625 4250 1398 4047 
Q 1172 3844 1172 3481 
z
" id="DejaVuSans-38" transform="scale(0.015625)"/>
       </defs>
       <use xlink:href="#DejaVuSans-30"/>
       <use x="63.623047" xlink:href="#DejaVuSans-2e"/>
       <use x="95.410156" xlink:href="#DejaVuSans-38"/>
      </g>
     </g>
    </g>
    <g id="xtick_6">
     <g id="line2d_6">
      <g>
       <use style="stroke:#000000;stroke-width:0.8;" x="972" xlink:href="#mf4aee64290" y="448.56"/>
      </g>
     </g>
     <g id="text_6">
      <!-- 1.0 -->
      <g transform="translate(957.687188 469.237188)scale(0.18 -0.18)">
       <defs>
        <path d="M 794 531 
L 1825 531 
L 1825 4091 
L 703 3866 
L 703 4441 
L 1819 4666 
L 2450 4666 
L 2450 531 
L 3481 531 
L 3481 0 
L 794 0 
L 794 531 
z
" id="DejaVuSans-31" transform="scale(0.015625)"/>
       </defs>
       <use xlink:href="#DejaVuSans-31"/>
       <use x="63.623047" xlink:href="#DejaVuSans-2e"/>
       <use x="95.410156" xlink:href="#DejaVuSans-30"/>
      </g>
     </g>
    </g>
    <g id="text_7">
     <!-- $FPR_{Fair}$ -->
     <g transform="translate(518.08 493.697187)scale(0.22 -0.22)">
      <defs>
       <path d="M 1081 4666 
L 3756 4666 
L 3653 4134 
L 1606 4134 
L 1338 2759 
L 3188 2759 
L 3084 2228 
L 1234 2228 
L 800 0 
L 172 0 
L 1081 4666 
z
" id="DejaVuSans-Oblique-46" transform="scale(0.015625)"/>
       <path d="M 1081 4666 
L 2541 4666 
Q 3178 4666 3512 4369 
Q 3847 4072 3847 3500 
Q 3847 2731 3353 2303 
Q 2859 1875 1966 1875 
L 1172 1875 
L 806 0 
L 172 0 
L 1081 4666 
z
M 1613 4147 
L 1275 2394 
L 2069 2394 
Q 2606 2394 2893 2669 
Q 3181 2944 3181 3456 
Q 3181 3784 2986 3965 
Q 2791 4147 2438 4147 
L 1613 4147 
z
" id="DejaVuSans-Oblique-50" transform="scale(0.015625)"/>
       <path d="M 1613 4147 
L 1294 2491 
L 2106 2491 
Q 2584 2491 2879 2755 
Q 3175 3019 3175 3444 
Q 3175 3784 2976 3965 
Q 2778 4147 2406 4147 
L 1613 4147 
z
M 2772 2241 
Q 2972 2194 3105 2009 
Q 3238 1825 3413 1275 
L 3809 0 
L 3144 0 
L 2778 1197 
Q 2638 1659 2453 1815 
Q 2269 1972 1888 1972 
L 1191 1972 
L 806 0 
L 172 0 
L 1081 4666 
L 2503 4666 
Q 3150 4666 3495 4373 
Q 3841 4081 3841 3531 
Q 3841 3044 3547 2687 
Q 3253 2331 2772 2241 
z
" id="DejaVuSans-Oblique-52" transform="scale(0.015625)"/>
       <path d="M 3438 1997 
L 3047 0 
L 2472 0 
L 2578 531 
Q 2325 219 2001 64 
Q 1678 -91 1281 -91 
Q 834 -91 548 182 
Q 263 456 263 884 
Q 263 1497 752 1853 
Q 1241 2209 2100 2209 
L 2900 2209 
L 2931 2363 
Q 2938 2388 2941 2417 
Q 2944 2447 2944 2509 
Q 2944 2788 2717 2942 
Q 2491 3097 2081 3097 
Q 1800 3097 1504 3025 
Q 1209 2953 897 2809 
L 997 3341 
Q 1322 3463 1633 3523 
Q 1944 3584 2234 3584 
Q 2853 3584 3176 3315 
Q 3500 3047 3500 2534 
Q 3500 2431 3484 2292 
Q 3469 2153 3438 1997 
z
M 2816 1759 
L 2241 1759 
Q 1534 1759 1195 1570 
Q 856 1381 856 984 
Q 856 709 1029 553 
Q 1203 397 1509 397 
Q 1978 397 2328 733 
Q 2678 1069 2791 1631 
L 2816 1759 
z
" id="DejaVuSans-Oblique-61" transform="scale(0.015625)"/>
       <path d="M 1172 4863 
L 1747 4863 
L 1606 4134 
L 1031 4134 
L 1172 4863 
z
M 909 3500 
L 1484 3500 
L 800 0 
L 225 0 
L 909 3500 
z
" id="DejaVuSans-Oblique-69" transform="scale(0.015625)"/>
       <path d="M 2853 2969 
Q 2766 3016 2653 3041 
Q 2541 3066 2413 3066 
Q 1953 3066 1609 2717 
Q 1266 2369 1153 1784 
L 800 0 
L 225 0 
L 909 3500 
L 1484 3500 
L 1375 2956 
Q 1603 3259 1920 3421 
Q 2238 3584 2597 3584 
Q 2691 3584 2781 3573 
Q 2872 3563 2963 3538 
L 2853 2969 
z
" id="DejaVuSans-Oblique-72" transform="scale(0.015625)"/>
      </defs>
      <use transform="translate(0 0.09375)" xlink:href="#DejaVuSans-Oblique-46"/>
      <use transform="translate(57.519531 0.09375)" xlink:href="#DejaVuSans-Oblique-50"/>
      <use transform="translate(117.822266 0.09375)" xlink:href="#DejaVuSans-Oblique-52"/>
      <use transform="translate(187.304688 -16.3125)scale(0.7)" xlink:href="#DejaVuSans-Oblique-46"/>
      <use transform="translate(227.568359 -16.3125)scale(0.7)" xlink:href="#DejaVuSans-Oblique-61"/>
      <use transform="translate(270.463867 -16.3125)scale(0.7)" xlink:href="#DejaVuSans-Oblique-69"/>
      <use transform="translate(289.912109 -16.3125)scale(0.7)" xlink:href="#DejaVuSans-Oblique-72"/>
     </g>
    </g>
   </g>
   <g id="matplotlib.axis_2">
    <g id="ytick_1">
     <g id="line2d_7">
      <defs>
       <path d="M 0 0 
L -3.5 0 
" id="ma5889275e5" style="stroke:#000000;stroke-width:0.8;"/>
      </defs>
      <g>
       <use style="stroke:#000000;stroke-width:0.8;" x="135" xlink:href="#ma5889275e5" y="448.56"/>
      </g>
     </g>
     <g id="text_8">
      <!-- 0.0 -->
      <g transform="translate(99.374375 455.398594)scale(0.18 -0.18)">
       <use xlink:href="#DejaVuSans-30"/>
       <use x="63.623047" xlink:href="#DejaVuSans-2e"/>
       <use x="95.410156" xlink:href="#DejaVuSans-30"/>
      </g>
     </g>
    </g>
    <g id="ytick_2">
     <g id="line2d_8">
      <g>
       <use style="stroke:#000000;stroke-width:0.8;" x="135" xlink:href="#ma5889275e5" y="370.944"/>
      </g>
     </g>
     <g id="text_9">
      <!-- 0.2 -->
      <g transform="translate(99.374375 377.782594)scale(0.18 -0.18)">
       <use xlink:href="#DejaVuSans-30"/>
       <use x="63.623047" xlink:href="#DejaVuSans-2e"/>
       <use x="95.410156" xlink:href="#DejaVuSans-32"/>
      </g>
     </g>
    </g>
    <g id="ytick_3">
     <g id="line2d_9">
      <g>
       <use style="stroke:#000000;stroke-width:0.8;" x="135" xlink:href="#ma5889275e5" y="293.328"/>
      </g>
     </g>
     <g id="text_10">
      <!-- 0.4 -->
      <g transform="translate(99.374375 300.166594)scale(0.18 -0.18)">
       <use xlink:href="#DejaVuSans-30"/>
       <use x="63.623047" xlink:href="#DejaVuSans-2e"/>
       <use x="95.410156" xlink:href="#DejaVuSans-34"/>
      </g>
     </g>
    </g>
    <g id="ytick_4">
     <g id="line2d_10">
      <g>
       <use style="stroke:#000000;stroke-width:0.8;" x="135" xlink:href="#ma5889275e5" y="215.712"/>
      </g>
     </g>
     <g id="text_11">
      <!-- 0.6 -->
      <g transform="translate(99.374375 222.550594)scale(0.18 -0.18)">
       <use xlink:href="#DejaVuSans-30"/>
       <use x="63.623047" xlink:href="#DejaVuSans-2e"/>
       <use x="95.410156" xlink:href="#DejaVuSans-36"/>
      </g>
     </g>
    </g>
    <g id="ytick_5">
     <g id="line2d_11">
      <g>
       <use style="stroke:#000000;stroke-width:0.8;" x="135" xlink:href="#ma5889275e5" y="138.096"/>
      </g>
     </g>
     <g id="text_12">
      <!-- 0.8 -->
      <g transform="translate(99.374375 144.934594)scale(0.18 -0.18)">
       <use xlink:href="#DejaVuSans-30"/>
       <use x="63.623047" xlink:href="#DejaVuSans-2e"/>
       <use x="95.410156" xlink:href="#DejaVuSans-38"/>
      </g>
     </g>
    </g>
    <g id="ytick_6">
     <g id="line2d_12">
      <g>
       <use style="stroke:#000000;stroke-width:0.8;" x="135" xlink:href="#ma5889275e5" y="60.48"/>
      </g>
     </g>
     <g id="text_13">
      <!-- 1.0 -->
      <g transform="translate(99.374375 67.318594)scale(0.18 -0.18)">
       <use xlink:href="#DejaVuSans-31"/>
       <use x="63.623047" xlink:href="#DejaVuSans-2e"/>
       <use x="95.410156" xlink:href="#DejaVuSans-30"/>
      </g>
     </g>
    </g>
    <g id="text_14">
     <!-- $TPR_{Fair}$ -->
     <g transform="translate(90.799062 290.27)rotate(-90)scale(0.22 -0.22)">
      <defs>
       <path d="M 378 4666 
L 4325 4666 
L 4225 4134 
L 2559 4134 
L 1759 0 
L 1125 0 
L 1925 4134 
L 275 4134 
L 378 4666 
z
" id="DejaVuSans-Oblique-54" transform="scale(0.015625)"/>
      </defs>
      <use transform="translate(0 0.09375)" xlink:href="#DejaVuSans-Oblique-54"/>
      <use transform="translate(61.083984 0.09375)" xlink:href="#DejaVuSans-Oblique-50"/>
      <use transform="translate(121.386719 0.09375)" xlink:href="#DejaVuSans-Oblique-52"/>
      <use transform="translate(190.869141 -16.3125)scale(0.7)" xlink:href="#DejaVuSans-Oblique-46"/>
      <use transform="translate(231.132812 -16.3125)scale(0.7)" xlink:href="#DejaVuSans-Oblique-61"/>
      <use transform="translate(274.02832 -16.3125)scale(0.7)" xlink:href="#DejaVuSans-Oblique-69"/>
      <use transform="translate(293.476562 -16.3125)scale(0.7)" xlink:href="#DejaVuSans-Oblique-72"/>
     </g>
    </g>
   </g>
   <g id="line2d_13">
    <path clip-path="url(#pe6d5cfc23c)" d="M 135 448.56 
L 972 60.48 
" style="fill:none;stroke:#ff0000;stroke-dasharray:5.55,2.4;stroke-dashoffset:0;stroke-width:1.5;"/>
   </g>
   <g id="line2d_14">
    <path clip-path="url(#pe6d5cfc23c)" d="M 972 60.48 
L 856.911784 61.847021 
L 769.382557 63.239848 
L 706.023996 64.6326 
L 657.239504 66.046621 
L 619.139265 67.505715 
L 589.83517 69.030491 
L 565.970189 70.548721 
L 545.953251 72.029966 
L 529.422451 73.512598 
L 514.923491 74.951841 
L 502.552792 76.337762 
L 492.204721 77.589989 
L 483.06325 78.682338 
L 474.739485 79.754512 
L 467.356396 80.781112 
L 460.644248 81.823034 
L 454.333272 82.743472 
L 448.396607 83.632403 
L 442.912924 84.500644 
L 438.044953 85.374794 
L 433.627272 86.279958 
L 429.383366 87.120693 
L 425.302941 87.940141 
L 421.277311 88.748851 
L 417.135206 89.535785 
L 413.178418 90.336377 
L 408.761406 91.113869 
L 404.651625 91.848661 
L 400.698921 92.682652 
L 396.769496 93.520613 
L 393.316547 94.275054 
L 389.915071 95.041167 
L 386.613687 95.828495 
L 383.374862 96.584127 
L 380.164252 97.402162 
L 376.774936 98.233715 
L 373.651182 99.041339 
L 370.60304 99.873764 
L 367.801467 100.712485 
L 365.189746 101.501524 
L 362.436087 102.405511 
L 359.798953 103.376015 
L 357.16689 104.339419 
L 354.524206 105.314363 
L 351.959418 106.223988 
L 349.421896 107.146255 
L 346.933486 108.141039 
L 344.373186 109.076688 
L 342.08715 110.076716 
L 339.868139 111.072244 
L 337.639108 112.066831 
L 335.622115 113.097101 
L 333.424646 114.137069 
L 331.24675 115.143206 
L 329.175591 116.191758 
L 326.904223 117.248328 
L 324.825643 118.290106 
L 322.805709 119.282312 
L 320.881767 120.216662 
L 318.969151 121.139254 
L 317.121619 122.06319 
L 315.266036 123.023656 
L 313.405682 124.022127 
L 311.755888 125.02554 
L 310.132797 126.038206 
L 308.45846 127.054703 
L 306.780947 128.052045 
L 305.07549 129.055508 
L 303.318087 130.127815 
L 301.601371 131.179576 
L 299.769569 132.227187 
L 298.161655 133.313705 
L 296.474269 134.419386 
L 294.863704 135.509095 
L 293.238337 136.652773 
L 291.651357 137.798472 
L 290.063805 138.960664 
L 288.53593 140.131804 
L 287.069662 141.346919 
L 285.685213 142.608575 
L 284.237093 143.842584 
L 282.729007 145.057103 
L 281.436396 146.301956 
L 280.17572 147.581534 
L 278.859375 148.84243 
L 277.537709 150.132761 
L 276.117953 151.376056 
L 274.781515 152.611694 
L 273.515918 153.9365 
L 272.268655 155.204603 
L 270.988129 156.562463 
L 269.743493 157.909379 
L 268.677006 159.277293 
L 267.527869 160.693052 
L 266.411105 162.123678 
L 265.373006 163.597957 
L 264.175846 165.165001 
L 263.184963 166.691406 
L 262.067919 168.189249 
L 260.82557 169.788571 
" style="fill:none;stroke:#1f77b4;stroke-linecap:square;stroke-width:1.5;"/>
   </g>
   <g id="line2d_15">
    <path clip-path="url(#pe6d5cfc23c)" d="M 972 60.48 
L 971.874323 60.496241 
L 971.820718 60.519137 
L 971.711283 60.525864 
L 971.600704 60.545798 
L 971.418751 60.55925 
L 971.183048 60.596003 
L 970.838681 60.606345 
L 970.543443 60.620095 
L 970.165278 60.640578 
L 969.701009 60.681292 
L 969.281451 60.708722 
L 969.02803 60.743052 
L 968.842881 60.764043 
L 968.651092 60.788549 
L 968.419354 60.860654 
L 968.243454 60.946737 
L 968.127033 60.96843 
L 967.961053 60.993483 
L 967.866519 61.012007 
L 967.759738 61.030575 
L 967.695113 61.083755 
L 967.583976 61.126737 
L 967.474451 61.138721 
L 967.34705 61.168184 
L 967.247963 61.228981 
L 967.123341 61.258779 
L 967.033342 61.288668 
L 966.933033 61.297675 
L 966.883686 61.334949 
L 966.823851 61.375762 
L 966.751363 61.3957 
L 966.668699 61.419241 
L 966.602661 61.424942 
L 966.479617 61.441449 
L 966.350479 61.458269 
L 966.206903 61.478666 
L 966.044801 61.506268 
L 965.933906 61.527163 
L 965.85638 61.558601 
L 965.779329 61.564891 
L 965.694764 61.589515 
L 965.605184 61.599885 
L 965.473605 61.635944 
L 965.335555 61.639092 
L 965.176329 61.649622 
L 965.070642 61.663675 
L 965.01556 61.684977 
L 964.945655 61.71051 
L 964.863195 61.73609 
L 964.763259 61.772944 
L 964.661866 61.798594 
L 964.544145 61.806022 
L 964.387356 61.828462 
L 964.291605 61.84345 
L 964.204476 61.866309 
L 964.100953 61.900431 
L 964.033323 61.920492 
L 963.953488 61.936174 
L 963.84899 61.955241 
L 963.759174 61.97513 
L 963.685051 61.998904 
L 963.607794 62.026381 
L 963.513724 62.093061 
L 963.350371 62.152175 
L 963.194897 62.196 
L 963.07856 62.224582 
L 962.976578 62.245882 
L 962.890544 62.270662 
L 962.787431 62.307877 
L 962.705015 62.40072 
L 962.580218 62.442138 
L 962.44979 62.456517 
L 962.3489 62.486919 
L 962.263062 62.533756 
L 962.123707 62.544788 
L 961.989356 62.584298 
L 961.854254 62.608358 
L 961.692755 62.649563 
L 961.583737 62.691479 
L 961.438662 62.722315 
L 961.217801 62.748536 
L 961.034077 62.771299 
L 960.928998 62.798889 
L 960.797381 62.813113 
L 960.633876 62.847285 
L 960.446572 62.891792 
L 960.302381 62.949212 
L 960.124142 62.969731 
L 959.918187 63.01243 
L 959.739982 63.128074 
L 959.608219 63.193665 
L 959.477137 63.230252 
L 959.330971 63.300785 
L 959.152491 63.352202 
L 958.969651 63.431614 
L 958.798343 63.473452 
L 958.613938 63.540215 
L 958.457947 63.621474 
L 958.290061 63.669239 
L 958.126644 63.744442 
" style="fill:none;stroke:#ff7f0e;stroke-linecap:square;stroke-width:1.5;"/>
   </g>
   <g id="line2d_16">
    <path clip-path="url(#pe6d5cfc23c)" d="M 972 60.48 
L 941.489531 74.173236 
L 913.177933 86.794201 
L 887.00422 98.439119 
L 862.691899 109.088931 
L 840.261011 118.827439 
L 819.238285 127.869082 
L 799.59863 136.24262 
L 781.525639 144.010136 
L 764.369735 151.233155 
L 748.094834 158.031239 
L 732.96618 164.161045 
L 718.549294 169.739899 
L 704.844235 174.998451 
L 691.721346 179.896178 
L 679.097121 184.524947 
L 667.092299 188.998793 
L 655.532357 193.216541 
L 644.29799 197.034653 
L 633.506698 200.740042 
L 623.146539 204.287413 
L 613.072811 207.703824 
L 603.311958 211.005169 
L 593.996126 214.25481 
L 584.721737 217.458778 
L 575.843203 220.592017 
L 567.182875 223.635191 
L 558.735528 226.482139 
L 550.506616 229.276161 
L 542.602961 232.09121 
L 534.907129 234.808377 
L 527.455172 237.404863 
L 520.237404 240.00772 
L 513.093687 242.490814 
L 506.210752 245.008879 
L 499.440013 247.506572 
L 492.823795 249.967718 
L 486.349013 252.502797 
L 480.083915 254.989461 
L 474.069724 257.330646 
L 468.041874 259.652761 
L 462.163112 262.002078 
L 456.481049 264.329309 
L 450.909554 266.645592 
L 445.510022 268.863027 
L 440.186478 271.027722 
L 435.001963 273.169907 
L 429.924372 275.27018 
L 424.992269 277.344953 
L 420.138381 279.370096 
L 415.463616 281.372858 
L 410.835608 283.339172 
L 406.356828 285.284235 
L 401.903767 287.184524 
L 397.566409 289.089198 
L 393.30238 290.969613 
L 389.161986 292.791234 
L 385.082189 294.528887 
L 381.04699 296.223875 
L 377.150681 297.84242 
L 373.349325 299.436075 
L 369.598909 300.983366 
L 365.888688 302.515216 
L 362.261974 304.058714 
L 358.703546 305.574778 
L 355.235192 307.068245 
L 351.846192 308.527772 
L 348.49128 309.959917 
L 345.195954 311.377707 
L 341.988689 312.788395 
L 338.83176 314.163034 
L 335.712301 315.54305 
L 332.61028 316.904415 
L 329.590855 318.237712 
L 326.667574 319.538019 
L 323.781684 320.805492 
L 320.921558 322.100488 
L 318.132384 323.37271 
L 315.425737 324.629359 
L 312.707373 325.88291 
L 310.053449 327.134502 
L 307.490269 328.355667 
L 304.916008 329.549885 
L 302.409179 330.71422 
L 299.915108 331.835176 
L 297.47815 332.963873 
L 295.076634 334.101197 
L 292.686082 335.222723 
L 290.372744 336.309645 
L 288.101258 337.419326 
L 285.859653 338.50962 
L 283.632397 339.611791 
L 281.470457 340.700319 
L 279.32952 341.762842 
L 277.180491 342.858308 
L 275.072447 343.951871 
L 272.990578 345.049723 
L 270.933025 346.183256 
L 268.91209 347.275114 
L 266.938572 348.394912 
L 264.971234 349.497973 
" style="fill:none;stroke:#2ca02c;stroke-linecap:square;stroke-width:1.5;"/>
   </g>
   <g id="line2d_17">
    <path clip-path="url(#pe6d5cfc23c)" d="M 972 60.48 
L 952.878281 71.290216 
L 934.699818 81.569477 
L 917.735527 91.158596 
L 901.823977 100.075902 
L 886.898417 108.404509 
L 872.944166 116.265768 
L 859.771964 123.75529 
L 847.486096 130.738508 
L 835.77792 137.247942 
L 824.511188 143.418769 
L 813.854649 149.023743 
L 803.748228 154.092089 
L 793.902017 158.782394 
L 784.390881 163.252541 
L 775.125354 167.470718 
L 766.265295 171.580885 
L 757.555904 175.429566 
L 748.987143 179.040316 
L 740.643313 182.424101 
L 732.562352 185.737889 
L 724.677287 188.961211 
L 716.935358 192.086142 
L 709.481759 195.118004 
L 701.969652 198.107243 
L 694.56858 201.018673 
L 687.299409 203.892602 
L 680.111726 206.619038 
L 673.003159 209.27545 
L 666.09687 211.997491 
L 659.295956 214.633403 
L 652.675567 217.113711 
L 646.159314 219.643387 
L 639.682138 222.038532 
L 633.37469 224.468442 
L 627.047799 226.886936 
L 620.793866 229.318549 
L 614.629481 231.793116 
L 608.614833 234.210144 
L 602.771849 236.536086 
L 596.917081 238.830556 
L 591.133583 241.18598 
L 585.474584 243.541693 
L 579.82708 245.883522 
L 574.326956 248.174707 
L 568.875576 250.403639 
L 563.51099 252.611562 
L 558.244535 254.782369 
L 553.094874 256.914261 
L 547.916571 259.015717 
L 542.916199 261.056825 
L 537.94999 263.088021 
L 533.12055 265.068844 
L 528.273574 267.029323 
L 523.490844 268.984198 
L 518.775308 270.952383 
L 514.154466 272.853643 
L 509.540465 274.693028 
L 504.948508 276.472547 
L 500.460381 278.157132 
L 496.058711 279.824286 
L 491.68894 281.446868 
L 487.384636 283.079568 
L 483.085912 284.735119 
L 478.875413 286.378847 
L 474.738796 288.010195 
L 470.678984 289.602756 
L 466.613671 291.152285 
L 462.59053 292.720474 
L 458.682796 294.268547 
L 454.799914 295.771757 
L 450.940296 297.279071 
L 447.100043 298.767588 
L 443.306869 300.248876 
L 439.618836 301.676077 
L 435.92298 303.087418 
L 432.290397 304.51969 
L 428.726458 305.930891 
L 425.243874 307.334551 
L 421.722673 308.747076 
L 418.268719 310.14362 
L 414.874885 311.516605 
L 411.498913 312.843807 
L 408.201842 314.180254 
L 404.924706 315.457657 
L 401.698587 316.723585 
L 398.489977 318.018006 
L 395.321032 319.27536 
L 392.222066 320.509535 
L 389.144676 321.784517 
L 386.11063 323.027496 
L 383.070466 324.307349 
L 380.121702 325.573873 
L 377.192166 326.809716 
L 374.226917 328.09016 
L 371.324017 329.35215 
L 368.403917 330.622177 
L 365.511522 331.926039 
L 362.668057 333.221148 
L 359.856452 334.518641 
L 357.058933 335.806433 
" style="fill:none;stroke:#d62728;stroke-linecap:square;stroke-width:1.5;"/>
   </g>
   <g id="line2d_18">
    <path clip-path="url(#pe6d5cfc23c)" d="M 972 60.48 
L 965.19093 64.291342 
L 958.50756 67.95833 
L 951.789989 71.538208 
L 945.302752 74.918893 
L 938.876061 78.093726 
L 932.462347 81.144391 
L 926.106261 84.013349 
L 919.932576 86.75399 
L 913.821942 89.371767 
L 907.830115 91.963269 
L 901.879432 94.340193 
L 896.028314 96.691812 
L 890.336761 98.929976 
L 884.754151 101.08439 
L 879.148613 103.141984 
L 873.614657 105.174879 
L 868.138028 107.121171 
L 862.658344 108.913401 
L 857.270954 110.676397 
L 851.954789 112.363532 
L 846.520333 113.99078 
L 841.148783 115.625255 
L 835.866902 117.243966 
L 830.484744 118.819176 
L 825.159733 120.436286 
L 819.88111 122.018774 
L 814.662965 123.536688 
L 809.441669 125.059949 
L 804.278113 126.617643 
L 799.144308 128.191636 
L 794.03339 129.739415 
L 788.960311 131.280799 
L 783.87903 132.807504 
L 778.864478 134.358362 
L 773.776245 135.876462 
L 768.721736 137.433622 
L 763.656838 139.048672 
L 758.740509 140.637205 
L 753.875869 142.170992 
L 748.91977 143.737517 
L 743.95887 145.335245 
L 739.088404 146.920302 
L 734.194725 148.513836 
L 729.356549 150.032832 
L 724.500148 151.542881 
L 719.714298 153.03467 
L 714.963421 154.56625 
L 710.236179 156.076107 
L 705.487193 157.630795 
L 700.85316 159.177018 
L 696.171682 160.662448 
L 691.617478 162.143909 
L 687.005422 163.617053 
L 682.395778 165.121097 
L 677.827669 166.646329 
L 673.313847 168.120015 
L 668.816416 169.517406 
L 664.242643 170.920413 
L 659.774034 172.327953 
L 655.407964 173.731746 
L 650.995044 175.064346 
L 646.56248 176.38579 
L 642.183374 177.71343 
L 637.759224 179.06486 
L 633.434618 180.359636 
L 629.170899 181.635112 
L 624.861461 182.866109 
L 620.583796 184.098648 
L 616.353444 185.326878 
L 612.162603 186.524636 
L 607.922874 187.701711 
L 603.672664 188.896269 
L 599.516595 190.08633 
L 595.405187 191.261314 
L 591.295178 192.40274 
L 587.203115 193.605803 
L 583.151677 194.761167 
L 579.161221 195.925463 
L 575.093201 197.074754 
L 571.134694 198.235457 
L 567.216256 199.37492 
L 563.252568 200.495091 
L 559.348374 201.568161 
L 555.459773 202.654212 
L 551.534226 203.718236 
L 547.649135 204.820994 
L 543.772837 205.869047 
L 539.943259 206.915752 
L 536.133573 207.968996 
L 532.343746 209.015611 
L 528.575984 210.106983 
L 524.847705 211.154643 
L 521.120108 212.211458 
L 517.325511 213.330982 
L 513.627176 214.419952 
L 509.906382 215.534748 
L 506.230959 216.659538 
L 502.55641 217.779107 
L 498.909667 218.888896 
L 495.2517 219.990192 
" style="fill:none;stroke:#9467bd;stroke-linecap:square;stroke-width:1.5;"/>
   </g>
   <g id="line2d_19">
    <path clip-path="url(#pe6d5cfc23c)" d="M 972 60.48 
L 965.920169 63.339685 
L 960.019515 66.210412 
L 954.551122 69.058936 
L 949.540101 71.907872 
L 944.92318 74.791644 
L 940.787466 77.676958 
L 937.025312 80.599452 
L 933.570896 83.395272 
L 930.358625 86.167094 
L 927.285079 88.841847 
L 924.529516 91.348853 
L 922.012653 93.548549 
L 919.580696 95.570621 
L 917.230177 97.539127 
L 914.982879 99.450407 
L 912.830209 101.344399 
L 910.716969 103.132788 
L 908.640083 104.840497 
L 906.628221 106.500344 
L 904.691754 108.132982 
L 902.81962 109.770548 
L 900.981425 111.36094 
L 899.232937 112.901785 
L 897.413519 114.444931 
L 895.540771 115.962823 
L 893.650403 117.432892 
L 891.692776 118.860516 
L 889.727906 120.27065 
L 887.831011 121.767241 
L 885.886178 123.278281 
L 884.073882 124.704451 
L 882.301878 126.139874 
L 880.487668 127.507828 
L 878.695574 128.958527 
L 876.858541 130.427034 
L 874.961249 131.89903 
L 873.092005 133.38678 
L 871.217169 134.8803 
L 869.455235 136.3588 
L 867.657889 137.811645 
L 865.870452 139.371751 
L 864.055291 140.979469 
L 862.260373 142.583668 
L 860.413695 144.217408 
L 858.532947 145.805856 
L 856.65686 147.424085 
L 854.777907 149.047023 
L 852.967449 150.667063 
L 851.166431 152.286413 
L 849.381486 153.887649 
L 847.583659 155.520466 
L 845.833665 157.139242 
L 844.011537 158.737766 
L 842.166327 160.362368 
L 840.290215 161.995634 
L 838.424758 163.583293 
L 836.516286 165.160346 
L 834.604022 166.700916 
L 832.677788 168.111569 
L 830.789133 169.522507 
L 828.932204 170.940835 
L 827.085946 172.411812 
L 825.210107 173.92234 
L 823.343704 175.411647 
L 821.499118 176.929862 
L 819.639818 178.460024 
L 817.709738 179.984875 
L 815.776436 181.522966 
L 813.868296 183.087189 
L 811.909846 184.613843 
L 809.954373 186.191986 
L 807.922202 187.800088 
L 805.857381 189.406974 
L 803.870856 190.996627 
L 801.803786 192.618037 
L 799.735144 194.259146 
L 797.727367 195.903469 
L 795.71932 197.547836 
L 793.691183 199.234975 
L 791.629533 200.919699 
L 789.562756 202.577743 
L 787.55501 204.195663 
L 785.595464 205.864982 
L 783.65298 207.492521 
L 781.683021 209.142919 
L 779.730941 210.784587 
L 777.75684 212.417935 
L 775.826936 214.045955 
L 773.876056 215.729307 
L 771.918377 217.408304 
L 769.955355 219.129978 
L 768.053006 220.865566 
L 766.117641 222.585865 
L 764.11899 224.335755 
L 762.128349 226.104823 
L 760.097781 227.905713 
L 758.005079 229.773177 
L 755.959137 231.606583 
L 753.864988 233.473395 
L 751.762735 235.360472 
" style="fill:none;stroke:#8c564b;stroke-linecap:square;stroke-width:1.5;"/>
   </g>
   <g id="line2d_20">
    <path clip-path="url(#pe6d5cfc23c)" d="M 972 60.48 
L 963.183785 65.673675 
L 954.614652 70.721186 
L 946.443861 75.506488 
L 938.667228 80.15244 
L 931.237109 84.561601 
L 924.20144 88.842388 
L 917.513282 93.016557 
L 911.134279 96.968342 
L 904.966696 100.774578 
L 898.977707 104.448459 
L 893.24322 107.843509 
L 887.733985 110.99929 
L 882.338994 113.929438 
L 877.061121 116.745931 
L 871.85879 119.467137 
L 866.790394 122.128186 
L 861.827961 124.650219 
L 856.846058 127.025023 
L 851.939952 129.308055 
L 847.133174 131.551866 
L 842.333424 133.745319 
L 837.599204 135.895677 
L 832.978969 137.990289 
L 828.260115 140.067293 
L 823.530355 142.147588 
L 818.830697 144.211359 
L 814.129003 146.192236 
L 809.413022 148.136 
L 804.773982 150.123524 
L 800.174178 152.077599 
L 795.655484 153.923086 
L 791.165475 155.827386 
L 786.635866 157.662306 
L 782.185222 159.551008 
L 777.651831 161.444598 
L 773.149574 163.366976 
L 768.640174 165.317621 
L 764.195514 167.235991 
L 759.842878 169.095719 
L 755.425311 170.93067 
L 751.026703 172.847464 
L 746.648581 174.791843 
L 742.282353 176.736459 
L 737.940525 178.650386 
L 733.598978 180.537594 
L 729.268812 182.430514 
L 724.972833 184.304844 
L 720.758833 186.154181 
L 716.503747 187.998814 
L 712.350166 189.81689 
L 708.162617 191.664212 
L 704.055608 193.466282 
L 699.920047 195.2508 
L 695.780161 197.039715 
L 691.655718 198.844304 
L 687.553306 200.595627 
L 683.443607 202.288259 
L 679.317705 203.933047 
L 675.245952 205.527513 
L 671.224247 207.092559 
L 667.203857 208.619204 
L 663.172572 210.156237 
L 659.143576 211.720921 
L 655.166415 213.268845 
L 651.23367 214.811184 
L 647.340879 216.343563 
L 643.375474 217.853729 
L 639.433469 219.386327 
L 635.49937 220.908136 
L 631.619539 222.409488 
L 627.709435 223.921572 
L 623.770003 225.423364 
L 619.871822 226.921568 
L 616.035663 228.374949 
L 612.182907 229.835687 
L 608.338325 231.326344 
L 604.529165 232.799921 
L 600.787206 234.251807 
L 596.990037 235.737318 
L 593.213047 237.211954 
L 589.479986 238.681748 
L 585.773302 240.095408 
L 582.119807 241.522725 
L 578.477708 242.902271 
L 574.848054 244.293341 
L 571.212365 245.709136 
L 567.593137 247.082968 
L 564.02079 248.439587 
L 560.442681 249.831568 
L 556.890358 251.202521 
L 553.310492 252.606365 
L 549.817135 254.008118 
L 546.309105 255.381151 
L 542.746302 256.803826 
L 539.212765 258.226523 
L 535.669129 259.65142 
L 532.150786 261.1061 
L 528.641829 262.557651 
L 525.152196 263.997243 
L 521.678828 265.449062 
" style="fill:none;stroke:#e377c2;stroke-linecap:square;stroke-width:1.5;"/>
   </g>
   <g id="line2d_21">
    <path clip-path="url(#pe6d5cfc23c)" d="M 972 60.48 
L 967.306049 62.573103 
L 962.702157 64.677091 
L 958.406906 66.750572 
L 954.451662 68.848298 
L 950.804539 70.953513 
L 947.504225 73.062558 
L 944.465303 75.206857 
L 941.69393 77.256581 
L 939.077672 79.297842 
L 936.580576 81.233274 
L 934.309399 83.074112 
L 932.214417 84.708382 
L 930.176553 86.209955 
L 928.204405 87.665007 
L 926.31728 89.069409 
L 924.507243 90.477287 
L 922.731977 91.783764 
L 920.969358 93.050047 
L 919.262762 94.28097 
L 917.587158 95.510886 
L 915.96799 96.734673 
L 914.370603 97.950733 
L 912.83609 99.112584 
L 911.262836 100.287836 
L 909.648846 101.425779 
L 908.020147 102.541269 
L 906.335374 103.612383 
L 904.633091 104.670938 
L 902.991961 105.808141 
L 901.323968 106.968229 
L 899.740968 108.041048 
L 898.188563 109.146351 
L 896.58086 110.197125 
L 894.996176 111.326999 
L 893.382668 112.464402 
L 891.708109 113.613765 
L 890.055434 114.772027 
L 888.415974 115.937137 
L 886.857283 117.078739 
L 885.273304 118.200415 
L 883.677175 119.402152 
L 882.067266 120.644344 
L 880.476183 121.888129 
L 878.815069 123.149928 
L 877.123877 124.382123 
L 875.455728 125.65214 
L 873.791415 126.936192 
L 872.162861 128.204607 
L 870.540806 129.486147 
L 868.940716 130.761229 
L 867.312431 132.044974 
L 865.737754 133.333259 
L 864.095259 134.613243 
L 862.431254 135.892609 
L 860.762767 137.219411 
L 859.070068 138.506747 
L 857.33678 139.787285 
L 855.589626 141.027627 
L 853.859996 142.184553 
L 852.146823 143.316836 
L 850.45661 144.478816 
L 848.748594 145.681169 
L 847.016944 146.927747 
L 845.302639 148.14928 
L 843.61218 149.402351 
L 841.889114 150.647749 
L 840.121226 151.917189 
L 838.344028 153.191842 
L 836.5846 154.474689 
L 834.797882 155.757991 
L 832.993756 157.06988 
L 831.134977 158.390284 
L 829.244054 159.728851 
L 827.401683 161.055788 
L 825.495399 162.418646 
L 823.593318 163.781861 
L 821.705806 165.165332 
L 819.835036 166.534949 
L 817.940578 167.956778 
L 816.03064 169.369565 
L 814.10452 170.785066 
L 812.232863 172.177788 
L 810.394946 173.595291 
L 808.582339 174.972418 
L 806.730879 176.38127 
L 804.891267 177.789734 
L 803.030666 179.176587 
L 801.219874 180.56613 
L 799.360676 182.017797 
L 797.50365 183.463736 
L 795.642958 184.95659 
L 793.827008 186.444363 
L 791.977804 187.935866 
L 790.083499 189.451091 
L 788.158765 190.973887 
L 786.220797 192.546383 
L 784.245649 194.163825 
L 782.271438 195.764643 
L 780.253869 197.372792 
L 778.260605 199.012127 
" style="fill:none;stroke:#7f7f7f;stroke-linecap:square;stroke-width:1.5;"/>
   </g>
   <g id="line2d_22">
    <path clip-path="url(#pe6d5cfc23c)" d="M 972 60.48 
L 965.350475 64.636069 
L 958.828787 68.638318 
L 952.588233 72.449661 
L 946.678458 76.16872 
L 941.007467 79.703524 
L 935.608465 83.140942 
L 930.482575 86.494013 
L 925.605393 89.702907 
L 920.862663 92.78878 
L 916.282899 95.796921 
L 911.867763 98.596017 
L 907.624376 101.204068 
L 903.492133 103.648876 
L 899.441221 106.012392 
L 895.417893 108.275935 
L 891.454419 110.489305 
L 887.574838 112.58319 
L 883.698119 114.57494 
L 879.875104 116.484806 
L 876.093195 118.365851 
L 872.298977 120.2151 
L 868.567085 122.020949 
L 864.932164 123.787168 
L 861.168477 125.562731 
L 857.421388 127.314809 
L 853.682 129.077821 
L 849.907893 130.749806 
L 846.118073 132.39958 
L 842.378202 134.087316 
L 838.655603 135.781263 
L 835.000857 137.371859 
L 831.363049 139.005424 
L 827.694497 140.595727 
L 824.086308 142.229128 
L 820.39093 143.867192 
L 816.707293 145.52683 
L 813.000873 147.232417 
L 809.325785 148.900976 
L 805.732118 150.524703 
L 802.09253 152.127142 
L 798.448193 153.792678 
L 794.798599 155.489054 
L 791.157279 157.196157 
L 787.519877 158.871069 
L 783.859549 160.522752 
L 780.217899 162.192371 
L 776.581557 163.837796 
L 772.994006 165.472812 
L 769.390356 167.116693 
L 765.835876 168.745919 
L 762.253097 170.387089 
L 758.738852 172.004529 
L 755.158258 173.607226 
L 751.57004 175.221371 
L 747.989559 176.848554 
L 744.410192 178.440101 
L 740.835396 179.962603 
L 737.240713 181.453951 
L 733.67167 182.906275 
L 730.137224 184.330112 
L 726.59944 185.725089 
L 723.043679 187.130453 
L 719.493399 188.561198 
L 715.964107 189.961735 
L 712.448043 191.360422 
L 708.956915 192.768801 
L 705.393765 194.146475 
L 701.838747 195.537794 
L 698.299778 196.930711 
L 694.800374 198.307988 
L 691.253211 199.708433 
L 687.667691 201.089651 
L 684.114951 202.465722 
L 680.586506 203.812086 
L 677.049688 205.162614 
L 673.493477 206.546666 
L 669.979066 207.91495 
L 666.50508 209.262929 
L 662.970011 210.645832 
L 659.449912 212.020905 
L 655.946196 213.391645 
L 652.465439 214.715329 
L 649.036419 216.049666 
L 645.603877 217.336147 
L 642.17752 218.641409 
L 638.744109 219.968067 
L 635.306251 221.261902 
L 631.894997 222.525341 
L 628.485945 223.832726 
L 625.075758 225.114254 
L 621.651187 226.426282 
L 618.286939 227.744844 
L 614.901911 229.034943 
L 611.478357 230.361193 
L 608.052148 231.703553 
L 604.612676 233.048889 
L 601.185071 234.425288 
L 597.758523 235.794332 
L 594.351461 237.148978 
L 590.937017 238.519912 
" style="fill:none;stroke:#bcbd22;stroke-linecap:square;stroke-width:1.5;"/>
   </g>
   <g id="line2d_23">
    <path clip-path="url(#pe6d5cfc23c)" d="M 972 60.48 
L 970.57051 60.956001 
L 969.131328 61.446172 
L 967.823313 61.957245 
L 966.599621 62.488069 
L 965.475697 62.991515 
L 964.486591 63.526723 
L 963.576539 64.064685 
L 962.717627 64.587612 
L 961.942227 65.117168 
L 961.205841 65.6355 
L 960.544862 66.111623 
L 959.954108 66.552866 
L 959.409757 66.956707 
L 958.877764 67.345804 
L 958.380449 67.720315 
L 957.91425 68.084421 
L 957.466406 68.421328 
L 957.020746 68.7384 
L 956.61569 69.064929 
L 956.21578 69.389979 
L 955.857861 69.715064 
L 955.48876 70.016952 
L 955.132044 70.33084 
L 954.774078 70.654468 
L 954.396773 70.961966 
L 954.008446 71.255945 
L 953.592634 71.555686 
L 953.17705 71.829215 
L 952.765409 72.149931 
L 952.365068 72.483824 
L 951.976957 72.775141 
L 951.601026 73.058222 
L 951.227479 73.34227 
L 950.866807 73.634086 
L 950.46981 73.943021 
L 950.062236 74.256227 
L 949.664921 74.590121 
L 949.280434 74.916126 
L 948.910392 75.222245 
L 948.562755 75.539838 
L 948.204071 75.896332 
L 947.835347 76.27197 
L 947.46482 76.659225 
L 947.067933 77.054091 
L 946.66195 77.403966 
L 946.247593 77.78343 
L 945.857255 78.186078 
L 945.480114 78.560377 
L 945.11596 78.953347 
L 944.756129 79.379057 
L 944.375549 79.79782 
L 944.018001 80.230368 
L 943.632495 80.660757 
L 943.245148 81.088154 
L 942.854452 81.541802 
L 942.442007 81.99111 
L 942.016696 82.434561 
L 941.583419 82.852713 
L 941.165358 83.258385 
L 940.749893 83.639706 
L 940.34998 84.036131 
L 939.935657 84.454875 
L 939.518771 84.886354 
L 939.104304 85.317082 
L 938.687824 85.752169 
L 938.286949 86.197326 
L 937.867599 86.628682 
L 937.422713 87.073577 
L 936.985992 87.540687 
L 936.535987 88.003651 
L 936.08993 88.467871 
L 935.632446 88.935167 
L 935.173097 89.40871 
L 934.719731 89.891237 
L 934.246088 90.40433 
L 933.764925 90.930753 
L 933.302856 91.457155 
L 932.841769 91.976872 
L 932.372314 92.52074 
L 931.908727 93.094701 
L 931.427242 93.691758 
L 930.97623 94.269481 
L 930.531804 94.853282 
L 930.096603 95.453618 
L 929.657233 96.053504 
L 929.228418 96.668489 
L 928.796251 97.261451 
L 928.346554 97.861799 
L 927.912207 98.514842 
L 927.479385 99.147868 
L 927.043772 99.797664 
L 926.627205 100.465056 
L 926.181186 101.132992 
L 925.73545 101.831734 
L 925.278933 102.551389 
L 924.814475 103.316176 
L 924.346513 104.095509 
L 923.875742 104.855263 
L 923.395613 105.596817 
L 922.926324 106.398316 
" style="fill:none;stroke:#17becf;stroke-linecap:square;stroke-width:1.5;"/>
   </g>
   <g id="patch_3">
    <path d="M 135 448.56 
L 135 60.48 
" style="fill:none;stroke:#000000;stroke-linecap:square;stroke-linejoin:miter;stroke-width:0.8;"/>
   </g>
   <g id="patch_4">
    <path d="M 972 448.56 
L 972 60.48 
" style="fill:none;stroke:#000000;stroke-linecap:square;stroke-linejoin:miter;stroke-width:0.8;"/>
   </g>
   <g id="patch_5">
    <path d="M 135 448.56 
L 972 448.56 
" style="fill:none;stroke:#000000;stroke-linecap:square;stroke-linejoin:miter;stroke-width:0.8;"/>
   </g>
   <g id="patch_6">
    <path d="M 135 60.48 
L 972 60.48 
" style="fill:none;stroke:#000000;stroke-linecap:square;stroke-linejoin:miter;stroke-width:0.8;"/>
   </g>
   <g id="legend_1">
    <g id="patch_7">
     <path d="M 147.6 339.08625 
L 256.730625 339.08625 
Q 260.330625 339.08625 260.330625 335.48625 
L 260.330625 73.08 
Q 260.330625 69.48 256.730625 69.48 
L 147.6 69.48 
Q 144 69.48 144 73.08 
L 144 335.48625 
Q 144 339.08625 147.6 339.08625 
z
" style="fill:#ffffff;opacity:0.8;stroke:#cccccc;stroke-linejoin:miter;"/>
    </g>
    <g id="line2d_24">
     <path d="M 151.2 84.057188 
L 187.2 84.057188 
" style="fill:none;stroke:#1f77b4;stroke-linecap:square;stroke-width:1.5;"/>
    </g>
    <g id="line2d_25"/>
    <g id="text_15">
     <!-- 0.001 -->
     <g transform="translate(201.6 90.357188)scale(0.18 -0.18)">
      <use xlink:href="#DejaVuSans-30"/>
      <use x="63.623047" xlink:href="#DejaVuSans-2e"/>
      <use x="95.410156" xlink:href="#DejaVuSans-30"/>
      <use x="159.033203" xlink:href="#DejaVuSans-30"/>
      <use x="222.65625" xlink:href="#DejaVuSans-31"/>
     </g>
    </g>
    <g id="line2d_26">
     <path d="M 151.2 110.477812 
L 187.2 110.477812 
" style="fill:none;stroke:#ff7f0e;stroke-linecap:square;stroke-width:1.5;"/>
    </g>
    <g id="line2d_27"/>
    <g id="text_16">
     <!-- 0.011 -->
     <g transform="translate(201.6 116.777812)scale(0.18 -0.18)">
      <use xlink:href="#DejaVuSans-30"/>
      <use x="63.623047" xlink:href="#DejaVuSans-2e"/>
      <use x="95.410156" xlink:href="#DejaVuSans-30"/>
      <use x="159.033203" xlink:href="#DejaVuSans-31"/>
      <use x="222.65625" xlink:href="#DejaVuSans-31"/>
     </g>
    </g>
    <g id="line2d_28">
     <path d="M 151.2 136.898438 
L 187.2 136.898438 
" style="fill:none;stroke:#2ca02c;stroke-linecap:square;stroke-width:1.5;"/>
    </g>
    <g id="line2d_29"/>
    <g id="text_17">
     <!-- 0.021 -->
     <g transform="translate(201.6 143.198438)scale(0.18 -0.18)">
      <use xlink:href="#DejaVuSans-30"/>
      <use x="63.623047" xlink:href="#DejaVuSans-2e"/>
      <use x="95.410156" xlink:href="#DejaVuSans-30"/>
      <use x="159.033203" xlink:href="#DejaVuSans-32"/>
      <use x="222.65625" xlink:href="#DejaVuSans-31"/>
     </g>
    </g>
    <g id="line2d_30">
     <path d="M 151.2 163.319062 
L 187.2 163.319062 
" style="fill:none;stroke:#d62728;stroke-linecap:square;stroke-width:1.5;"/>
    </g>
    <g id="line2d_31"/>
    <g id="text_18">
     <!-- 0.031 -->
     <g transform="translate(201.6 169.619062)scale(0.18 -0.18)">
      <defs>
       <path d="M 2597 2516 
Q 3050 2419 3304 2112 
Q 3559 1806 3559 1356 
Q 3559 666 3084 287 
Q 2609 -91 1734 -91 
Q 1441 -91 1130 -33 
Q 819 25 488 141 
L 488 750 
Q 750 597 1062 519 
Q 1375 441 1716 441 
Q 2309 441 2620 675 
Q 2931 909 2931 1356 
Q 2931 1769 2642 2001 
Q 2353 2234 1838 2234 
L 1294 2234 
L 1294 2753 
L 1863 2753 
Q 2328 2753 2575 2939 
Q 2822 3125 2822 3475 
Q 2822 3834 2567 4026 
Q 2313 4219 1838 4219 
Q 1578 4219 1281 4162 
Q 984 4106 628 3988 
L 628 4550 
Q 988 4650 1302 4700 
Q 1616 4750 1894 4750 
Q 2613 4750 3031 4423 
Q 3450 4097 3450 3541 
Q 3450 3153 3228 2886 
Q 3006 2619 2597 2516 
z
" id="DejaVuSans-33" transform="scale(0.015625)"/>
      </defs>
      <use xlink:href="#DejaVuSans-30"/>
      <use x="63.623047" xlink:href="#DejaVuSans-2e"/>
      <use x="95.410156" xlink:href="#DejaVuSans-30"/>
      <use x="159.033203" xlink:href="#DejaVuSans-33"/>
      <use x="222.65625" xlink:href="#DejaVuSans-31"/>
     </g>
    </g>
    <g id="line2d_32">
     <path d="M 151.2 189.739688 
L 187.2 189.739688 
" style="fill:none;stroke:#9467bd;stroke-linecap:square;stroke-width:1.5;"/>
    </g>
    <g id="line2d_33"/>
    <g id="text_19">
     <!-- 0.041 -->
     <g transform="translate(201.6 196.039688)scale(0.18 -0.18)">
      <use xlink:href="#DejaVuSans-30"/>
      <use x="63.623047" xlink:href="#DejaVuSans-2e"/>
      <use x="95.410156" xlink:href="#DejaVuSans-30"/>
      <use x="159.033203" xlink:href="#DejaVuSans-34"/>
      <use x="222.65625" xlink:href="#DejaVuSans-31"/>
     </g>
    </g>
    <g id="line2d_34">
     <path d="M 151.2 216.160312 
L 187.2 216.160312 
" style="fill:none;stroke:#8c564b;stroke-linecap:square;stroke-width:1.5;"/>
    </g>
    <g id="line2d_35"/>
    <g id="text_20">
     <!-- 0.051 -->
     <g transform="translate(201.6 222.460312)scale(0.18 -0.18)">
      <defs>
       <path d="M 691 4666 
L 3169 4666 
L 3169 4134 
L 1269 4134 
L 1269 2991 
Q 1406 3038 1543 3061 
Q 1681 3084 1819 3084 
Q 2600 3084 3056 2656 
Q 3513 2228 3513 1497 
Q 3513 744 3044 326 
Q 2575 -91 1722 -91 
Q 1428 -91 1123 -41 
Q 819 9 494 109 
L 494 744 
Q 775 591 1075 516 
Q 1375 441 1709 441 
Q 2250 441 2565 725 
Q 2881 1009 2881 1497 
Q 2881 1984 2565 2268 
Q 2250 2553 1709 2553 
Q 1456 2553 1204 2497 
Q 953 2441 691 2322 
L 691 4666 
z
" id="DejaVuSans-35" transform="scale(0.015625)"/>
      </defs>
      <use xlink:href="#DejaVuSans-30"/>
      <use x="63.623047" xlink:href="#DejaVuSans-2e"/>
      <use x="95.410156" xlink:href="#DejaVuSans-30"/>
      <use x="159.033203" xlink:href="#DejaVuSans-35"/>
      <use x="222.65625" xlink:href="#DejaVuSans-31"/>
     </g>
    </g>
    <g id="line2d_36">
     <path d="M 151.2 242.580937 
L 187.2 242.580937 
" style="fill:none;stroke:#e377c2;stroke-linecap:square;stroke-width:1.5;"/>
    </g>
    <g id="line2d_37"/>
    <g id="text_21">
     <!-- 0.061 -->
     <g transform="translate(201.6 248.880937)scale(0.18 -0.18)">
      <use xlink:href="#DejaVuSans-30"/>
      <use x="63.623047" xlink:href="#DejaVuSans-2e"/>
      <use x="95.410156" xlink:href="#DejaVuSans-30"/>
      <use x="159.033203" xlink:href="#DejaVuSans-36"/>
      <use x="222.65625" xlink:href="#DejaVuSans-31"/>
     </g>
    </g>
    <g id="line2d_38">
     <path d="M 151.2 269.001562 
L 187.2 269.001562 
" style="fill:none;stroke:#7f7f7f;stroke-linecap:square;stroke-width:1.5;"/>
    </g>
    <g id="line2d_39"/>
    <g id="text_22">
     <!-- 0.071 -->
     <g transform="translate(201.6 275.301562)scale(0.18 -0.18)">
      <defs>
       <path d="M 525 4666 
L 3525 4666 
L 3525 4397 
L 1831 0 
L 1172 0 
L 2766 4134 
L 525 4134 
L 525 4666 
z
" id="DejaVuSans-37" transform="scale(0.015625)"/>
      </defs>
      <use xlink:href="#DejaVuSans-30"/>
      <use x="63.623047" xlink:href="#DejaVuSans-2e"/>
      <use x="95.410156" xlink:href="#DejaVuSans-30"/>
      <use x="159.033203" xlink:href="#DejaVuSans-37"/>
      <use x="222.65625" xlink:href="#DejaVuSans-31"/>
     </g>
    </g>
    <g id="line2d_40">
     <path d="M 151.2 295.422188 
L 187.2 295.422188 
" style="fill:none;stroke:#bcbd22;stroke-linecap:square;stroke-width:1.5;"/>
    </g>
    <g id="line2d_41"/>
    <g id="text_23">
     <!-- 0.081 -->
     <g transform="translate(201.6 301.722188)scale(0.18 -0.18)">
      <use xlink:href="#DejaVuSans-30"/>
      <use x="63.623047" xlink:href="#DejaVuSans-2e"/>
      <use x="95.410156" xlink:href="#DejaVuSans-30"/>
      <use x="159.033203" xlink:href="#DejaVuSans-38"/>
      <use x="222.65625" xlink:href="#DejaVuSans-31"/>
     </g>
    </g>
    <g id="line2d_42">
     <path d="M 151.2 321.842812 
L 187.2 321.842812 
" style="fill:none;stroke:#17becf;stroke-linecap:square;stroke-width:1.5;"/>
    </g>
    <g id="line2d_43"/>
    <g id="text_24">
     <!-- 0.091 -->
     <g transform="translate(201.6 328.142812)scale(0.18 -0.18)">
      <defs>
       <path d="M 703 97 
L 703 672 
Q 941 559 1184 500 
Q 1428 441 1663 441 
Q 2288 441 2617 861 
Q 2947 1281 2994 2138 
Q 2813 1869 2534 1725 
Q 2256 1581 1919 1581 
Q 1219 1581 811 2004 
Q 403 2428 403 3163 
Q 403 3881 828 4315 
Q 1253 4750 1959 4750 
Q 2769 4750 3195 4129 
Q 3622 3509 3622 2328 
Q 3622 1225 3098 567 
Q 2575 -91 1691 -91 
Q 1453 -91 1209 -44 
Q 966 3 703 97 
z
M 1959 2075 
Q 2384 2075 2632 2365 
Q 2881 2656 2881 3163 
Q 2881 3666 2632 3958 
Q 2384 4250 1959 4250 
Q 1534 4250 1286 3958 
Q 1038 3666 1038 3163 
Q 1038 2656 1286 2365 
Q 1534 2075 1959 2075 
z
" id="DejaVuSans-39" transform="scale(0.015625)"/>
      </defs>
      <use xlink:href="#DejaVuSans-30"/>
      <use x="63.623047" xlink:href="#DejaVuSans-2e"/>
      <use x="95.410156" xlink:href="#DejaVuSans-30"/>
      <use x="159.033203" xlink:href="#DejaVuSans-39"/>
      <use x="222.65625" xlink:href="#DejaVuSans-31"/>
     </g>
    </g>
   </g>
  </g>
 </g>
 <defs>
  <clipPath id="pe6d5cfc23c">
   <rect height="388.08" width="837" x="135" y="60.48"/>
  </clipPath>
 </defs>
</svg>
