<?xml version="1.0" encoding="utf-8" standalone="no"?>
<!DOCTYPE svg PUBLIC "-//W3C//DTD SVG 1.1//EN"
  "http://www.w3.org/Graphics/SVG/1.1/DTD/svg11.dtd">
<svg height="504pt" version="1.1" viewBox="0 0 1080 504" width="1080pt" xmlns="http://www.w3.org/2000/svg" xmlns:xlink="http://www.w3.org/1999/xlink">
 <metadata>
  <rdf:RDF xmlns:cc="http://creativecommons.org/ns#" xmlns:dc="http://purl.org/dc/elements/1.1/" xmlns:rdf="http://www.w3.org/1999/02/22-rdf-syntax-ns#">
   <cc:Work>
    <dc:type rdf:resource="http://purl.org/dc/dcmitype/StillImage"/>
    <dc:date>2022-01-07T13:24:42.643801</dc:date>
    <dc:format>image/svg+xml</dc:format>
    <dc:creator>
     <cc:Agent>
      <dc:title>Matplotlib v3.4.3, https://matplotlib.org/</dc:title>
     </cc:Agent>
    </dc:creator>
   </cc:Work>
  </rdf:RDF>
 </metadata>
 <defs>
  <style type="text/css">*{stroke-linecap:butt;stroke-linejoin:round;}</style>
 </defs>
 <g id="figure_1">
  <g id="patch_1">
   <path d="M 0 504 
L 1080 504 
L 1080 0 
L 0 0 
z
" style="fill:#ffffff;"/>
  </g>
  <g id="axes_1">
   <g id="patch_2">
    <path d="M 135 448.56 
L 972 448.56 
L 972 60.48 
L 135 60.48 
z
" style="fill:#ffffff;"/>
   </g>
   <g id="matplotlib.axis_1">
    <g id="xtick_1">
     <g id="line2d_1">
      <defs>
       <path d="M 0 0 
L 0 3.5 
" id="me660eaca2d" style="stroke:#000000;stroke-width:0.8;"/>
      </defs>
      <g>
       <use style="stroke:#000000;stroke-width:0.8;" x="135" xlink:href="#me660eaca2d" y="448.56"/>
      </g>
     </g>
     <g id="text_1">
      <!-- 0.0 -->
      <g transform="translate(120.687187 469.237188)scale(0.18 -0.18)">
       <defs>
        <path d="M 2034 4250 
Q 1547 4250 1301 3770 
Q 1056 3291 1056 2328 
Q 1056 1369 1301 889 
Q 1547 409 2034 409 
Q 2525 409 2770 889 
Q 3016 1369 3016 2328 
Q 3016 3291 2770 3770 
Q 2525 4250 2034 4250 
z
M 2034 4750 
Q 2819 4750 3233 4129 
Q 3647 3509 3647 2328 
Q 3647 1150 3233 529 
Q 2819 -91 2034 -91 
Q 1250 -91 836 529 
Q 422 1150 422 2328 
Q 422 3509 836 4129 
Q 1250 4750 2034 4750 
z
" id="DejaVuSans-30" transform="scale(0.015625)"/>
        <path d="M 684 794 
L 1344 794 
L 1344 0 
L 684 0 
L 684 794 
z
" id="DejaVuSans-2e" transform="scale(0.015625)"/>
       </defs>
       <use xlink:href="#DejaVuSans-30"/>
       <use x="63.623047" xlink:href="#DejaVuSans-2e"/>
       <use x="95.410156" xlink:href="#DejaVuSans-30"/>
      </g>
     </g>
    </g>
    <g id="xtick_2">
     <g id="line2d_2">
      <g>
       <use style="stroke:#000000;stroke-width:0.8;" x="302.4" xlink:href="#me660eaca2d" y="448.56"/>
      </g>
     </g>
     <g id="text_2">
      <!-- 0.2 -->
      <g transform="translate(288.087187 469.237188)scale(0.18 -0.18)">
       <defs>
        <path d="M 1228 531 
L 3431 531 
L 3431 0 
L 469 0 
L 469 531 
Q 828 903 1448 1529 
Q 2069 2156 2228 2338 
Q 2531 2678 2651 2914 
Q 2772 3150 2772 3378 
Q 2772 3750 2511 3984 
Q 2250 4219 1831 4219 
Q 1534 4219 1204 4116 
Q 875 4013 500 3803 
L 500 4441 
Q 881 4594 1212 4672 
Q 1544 4750 1819 4750 
Q 2544 4750 2975 4387 
Q 3406 4025 3406 3419 
Q 3406 3131 3298 2873 
Q 3191 2616 2906 2266 
Q 2828 2175 2409 1742 
Q 1991 1309 1228 531 
z
" id="DejaVuSans-32" transform="scale(0.015625)"/>
       </defs>
       <use xlink:href="#DejaVuSans-30"/>
       <use x="63.623047" xlink:href="#DejaVuSans-2e"/>
       <use x="95.410156" xlink:href="#DejaVuSans-32"/>
      </g>
     </g>
    </g>
    <g id="xtick_3">
     <g id="line2d_3">
      <g>
       <use style="stroke:#000000;stroke-width:0.8;" x="469.8" xlink:href="#me660eaca2d" y="448.56"/>
      </g>
     </g>
     <g id="text_3">
      <!-- 0.4 -->
      <g transform="translate(455.487188 469.237188)scale(0.18 -0.18)">
       <defs>
        <path d="M 2419 4116 
L 825 1625 
L 2419 1625 
L 2419 4116 
z
M 2253 4666 
L 3047 4666 
L 3047 1625 
L 3713 1625 
L 3713 1100 
L 3047 1100 
L 3047 0 
L 2419 0 
L 2419 1100 
L 313 1100 
L 313 1709 
L 2253 4666 
z
" id="DejaVuSans-34" transform="scale(0.015625)"/>
       </defs>
       <use xlink:href="#DejaVuSans-30"/>
       <use x="63.623047" xlink:href="#DejaVuSans-2e"/>
       <use x="95.410156" xlink:href="#DejaVuSans-34"/>
      </g>
     </g>
    </g>
    <g id="xtick_4">
     <g id="line2d_4">
      <g>
       <use style="stroke:#000000;stroke-width:0.8;" x="637.2" xlink:href="#me660eaca2d" y="448.56"/>
      </g>
     </g>
     <g id="text_4">
      <!-- 0.6 -->
      <g transform="translate(622.887188 469.237188)scale(0.18 -0.18)">
       <defs>
        <path d="M 2113 2584 
Q 1688 2584 1439 2293 
Q 1191 2003 1191 1497 
Q 1191 994 1439 701 
Q 1688 409 2113 409 
Q 2538 409 2786 701 
Q 3034 994 3034 1497 
Q 3034 2003 2786 2293 
Q 2538 2584 2113 2584 
z
M 3366 4563 
L 3366 3988 
Q 3128 4100 2886 4159 
Q 2644 4219 2406 4219 
Q 1781 4219 1451 3797 
Q 1122 3375 1075 2522 
Q 1259 2794 1537 2939 
Q 1816 3084 2150 3084 
Q 2853 3084 3261 2657 
Q 3669 2231 3669 1497 
Q 3669 778 3244 343 
Q 2819 -91 2113 -91 
Q 1303 -91 875 529 
Q 447 1150 447 2328 
Q 447 3434 972 4092 
Q 1497 4750 2381 4750 
Q 2619 4750 2861 4703 
Q 3103 4656 3366 4563 
z
" id="DejaVuSans-36" transform="scale(0.015625)"/>
       </defs>
       <use xlink:href="#DejaVuSans-30"/>
       <use x="63.623047" xlink:href="#DejaVuSans-2e"/>
       <use x="95.410156" xlink:href="#DejaVuSans-36"/>
      </g>
     </g>
    </g>
    <g id="xtick_5">
     <g id="line2d_5">
      <g>
       <use style="stroke:#000000;stroke-width:0.8;" x="804.6" xlink:href="#me660eaca2d" y="448.56"/>
      </g>
     </g>
     <g id="text_5">
      <!-- 0.8 -->
      <g transform="translate(790.287188 469.237188)scale(0.18 -0.18)">
       <defs>
        <path d="M 2034 2216 
Q 1584 2216 1326 1975 
Q 1069 1734 1069 1313 
Q 1069 891 1326 650 
Q 1584 409 2034 409 
Q 2484 409 2743 651 
Q 3003 894 3003 1313 
Q 3003 1734 2745 1975 
Q 2488 2216 2034 2216 
z
M 1403 2484 
Q 997 2584 770 2862 
Q 544 3141 544 3541 
Q 544 4100 942 4425 
Q 1341 4750 2034 4750 
Q 2731 4750 3128 4425 
Q 3525 4100 3525 3541 
Q 3525 3141 3298 2862 
Q 3072 2584 2669 2484 
Q 3125 2378 3379 2068 
Q 3634 1759 3634 1313 
Q 3634 634 3220 271 
Q 2806 -91 2034 -91 
Q 1263 -91 848 271 
Q 434 634 434 1313 
Q 434 1759 690 2068 
Q 947 2378 1403 2484 
z
M 1172 3481 
Q 1172 3119 1398 2916 
Q 1625 2713 2034 2713 
Q 2441 2713 2670 2916 
Q 2900 3119 2900 3481 
Q 2900 3844 2670 4047 
Q 2441 4250 2034 4250 
Q 1625 4250 1398 4047 
Q 1172 3844 1172 3481 
z
" id="DejaVuSans-38" transform="scale(0.015625)"/>
       </defs>
       <use xlink:href="#DejaVuSans-30"/>
       <use x="63.623047" xlink:href="#DejaVuSans-2e"/>
       <use x="95.410156" xlink:href="#DejaVuSans-38"/>
      </g>
     </g>
    </g>
    <g id="xtick_6">
     <g id="line2d_6">
      <g>
       <use style="stroke:#000000;stroke-width:0.8;" x="972" xlink:href="#me660eaca2d" y="448.56"/>
      </g>
     </g>
     <g id="text_6">
      <!-- 1.0 -->
      <g transform="translate(957.687188 469.237188)scale(0.18 -0.18)">
       <defs>
        <path d="M 794 531 
L 1825 531 
L 1825 4091 
L 703 3866 
L 703 4441 
L 1819 4666 
L 2450 4666 
L 2450 531 
L 3481 531 
L 3481 0 
L 794 0 
L 794 531 
z
" id="DejaVuSans-31" transform="scale(0.015625)"/>
       </defs>
       <use xlink:href="#DejaVuSans-31"/>
       <use x="63.623047" xlink:href="#DejaVuSans-2e"/>
       <use x="95.410156" xlink:href="#DejaVuSans-30"/>
      </g>
     </g>
    </g>
    <g id="text_7">
     <!-- $FPR_{Fair}$ -->
     <g transform="translate(518.08 493.697187)scale(0.22 -0.22)">
      <defs>
       <path d="M 1081 4666 
L 3756 4666 
L 3653 4134 
L 1606 4134 
L 1338 2759 
L 3188 2759 
L 3084 2228 
L 1234 2228 
L 800 0 
L 172 0 
L 1081 4666 
z
" id="DejaVuSans-Oblique-46" transform="scale(0.015625)"/>
       <path d="M 1081 4666 
L 2541 4666 
Q 3178 4666 3512 4369 
Q 3847 4072 3847 3500 
Q 3847 2731 3353 2303 
Q 2859 1875 1966 1875 
L 1172 1875 
L 806 0 
L 172 0 
L 1081 4666 
z
M 1613 4147 
L 1275 2394 
L 2069 2394 
Q 2606 2394 2893 2669 
Q 3181 2944 3181 3456 
Q 3181 3784 2986 3965 
Q 2791 4147 2438 4147 
L 1613 4147 
z
" id="DejaVuSans-Oblique-50" transform="scale(0.015625)"/>
       <path d="M 1613 4147 
L 1294 2491 
L 2106 2491 
Q 2584 2491 2879 2755 
Q 3175 3019 3175 3444 
Q 3175 3784 2976 3965 
Q 2778 4147 2406 4147 
L 1613 4147 
z
M 2772 2241 
Q 2972 2194 3105 2009 
Q 3238 1825 3413 1275 
L 3809 0 
L 3144 0 
L 2778 1197 
Q 2638 1659 2453 1815 
Q 2269 1972 1888 1972 
L 1191 1972 
L 806 0 
L 172 0 
L 1081 4666 
L 2503 4666 
Q 3150 4666 3495 4373 
Q 3841 4081 3841 3531 
Q 3841 3044 3547 2687 
Q 3253 2331 2772 2241 
z
" id="DejaVuSans-Oblique-52" transform="scale(0.015625)"/>
       <path d="M 3438 1997 
L 3047 0 
L 2472 0 
L 2578 531 
Q 2325 219 2001 64 
Q 1678 -91 1281 -91 
Q 834 -91 548 182 
Q 263 456 263 884 
Q 263 1497 752 1853 
Q 1241 2209 2100 2209 
L 2900 2209 
L 2931 2363 
Q 2938 2388 2941 2417 
Q 2944 2447 2944 2509 
Q 2944 2788 2717 2942 
Q 2491 3097 2081 3097 
Q 1800 3097 1504 3025 
Q 1209 2953 897 2809 
L 997 3341 
Q 1322 3463 1633 3523 
Q 1944 3584 2234 3584 
Q 2853 3584 3176 3315 
Q 3500 3047 3500 2534 
Q 3500 2431 3484 2292 
Q 3469 2153 3438 1997 
z
M 2816 1759 
L 2241 1759 
Q 1534 1759 1195 1570 
Q 856 1381 856 984 
Q 856 709 1029 553 
Q 1203 397 1509 397 
Q 1978 397 2328 733 
Q 2678 1069 2791 1631 
L 2816 1759 
z
" id="DejaVuSans-Oblique-61" transform="scale(0.015625)"/>
       <path d="M 1172 4863 
L 1747 4863 
L 1606 4134 
L 1031 4134 
L 1172 4863 
z
M 909 3500 
L 1484 3500 
L 800 0 
L 225 0 
L 909 3500 
z
" id="DejaVuSans-Oblique-69" transform="scale(0.015625)"/>
       <path d="M 2853 2969 
Q 2766 3016 2653 3041 
Q 2541 3066 2413 3066 
Q 1953 3066 1609 2717 
Q 1266 2369 1153 1784 
L 800 0 
L 225 0 
L 909 3500 
L 1484 3500 
L 1375 2956 
Q 1603 3259 1920 3421 
Q 2238 3584 2597 3584 
Q 2691 3584 2781 3573 
Q 2872 3563 2963 3538 
L 2853 2969 
z
" id="DejaVuSans-Oblique-72" transform="scale(0.015625)"/>
      </defs>
      <use transform="translate(0 0.09375)" xlink:href="#DejaVuSans-Oblique-46"/>
      <use transform="translate(57.519531 0.09375)" xlink:href="#DejaVuSans-Oblique-50"/>
      <use transform="translate(117.822266 0.09375)" xlink:href="#DejaVuSans-Oblique-52"/>
      <use transform="translate(187.304688 -16.3125)scale(0.7)" xlink:href="#DejaVuSans-Oblique-46"/>
      <use transform="translate(227.568359 -16.3125)scale(0.7)" xlink:href="#DejaVuSans-Oblique-61"/>
      <use transform="translate(270.463867 -16.3125)scale(0.7)" xlink:href="#DejaVuSans-Oblique-69"/>
      <use transform="translate(289.912109 -16.3125)scale(0.7)" xlink:href="#DejaVuSans-Oblique-72"/>
     </g>
    </g>
   </g>
   <g id="matplotlib.axis_2">
    <g id="ytick_1">
     <g id="line2d_7">
      <defs>
       <path d="M 0 0 
L -3.5 0 
" id="m55bb6b200e" style="stroke:#000000;stroke-width:0.8;"/>
      </defs>
      <g>
       <use style="stroke:#000000;stroke-width:0.8;" x="135" xlink:href="#m55bb6b200e" y="448.56"/>
      </g>
     </g>
     <g id="text_8">
      <!-- 0.0 -->
      <g transform="translate(99.374375 455.398594)scale(0.18 -0.18)">
       <use xlink:href="#DejaVuSans-30"/>
       <use x="63.623047" xlink:href="#DejaVuSans-2e"/>
       <use x="95.410156" xlink:href="#DejaVuSans-30"/>
      </g>
     </g>
    </g>
    <g id="ytick_2">
     <g id="line2d_8">
      <g>
       <use style="stroke:#000000;stroke-width:0.8;" x="135" xlink:href="#m55bb6b200e" y="370.944"/>
      </g>
     </g>
     <g id="text_9">
      <!-- 0.2 -->
      <g transform="translate(99.374375 377.782594)scale(0.18 -0.18)">
       <use xlink:href="#DejaVuSans-30"/>
       <use x="63.623047" xlink:href="#DejaVuSans-2e"/>
       <use x="95.410156" xlink:href="#DejaVuSans-32"/>
      </g>
     </g>
    </g>
    <g id="ytick_3">
     <g id="line2d_9">
      <g>
       <use style="stroke:#000000;stroke-width:0.8;" x="135" xlink:href="#m55bb6b200e" y="293.328"/>
      </g>
     </g>
     <g id="text_10">
      <!-- 0.4 -->
      <g transform="translate(99.374375 300.166594)scale(0.18 -0.18)">
       <use xlink:href="#DejaVuSans-30"/>
       <use x="63.623047" xlink:href="#DejaVuSans-2e"/>
       <use x="95.410156" xlink:href="#DejaVuSans-34"/>
      </g>
     </g>
    </g>
    <g id="ytick_4">
     <g id="line2d_10">
      <g>
       <use style="stroke:#000000;stroke-width:0.8;" x="135" xlink:href="#m55bb6b200e" y="215.712"/>
      </g>
     </g>
     <g id="text_11">
      <!-- 0.6 -->
      <g transform="translate(99.374375 222.550594)scale(0.18 -0.18)">
       <use xlink:href="#DejaVuSans-30"/>
       <use x="63.623047" xlink:href="#DejaVuSans-2e"/>
       <use x="95.410156" xlink:href="#DejaVuSans-36"/>
      </g>
     </g>
    </g>
    <g id="ytick_5">
     <g id="line2d_11">
      <g>
       <use style="stroke:#000000;stroke-width:0.8;" x="135" xlink:href="#m55bb6b200e" y="138.096"/>
      </g>
     </g>
     <g id="text_12">
      <!-- 0.8 -->
      <g transform="translate(99.374375 144.934594)scale(0.18 -0.18)">
       <use xlink:href="#DejaVuSans-30"/>
       <use x="63.623047" xlink:href="#DejaVuSans-2e"/>
       <use x="95.410156" xlink:href="#DejaVuSans-38"/>
      </g>
     </g>
    </g>
    <g id="ytick_6">
     <g id="line2d_12">
      <g>
       <use style="stroke:#000000;stroke-width:0.8;" x="135" xlink:href="#m55bb6b200e" y="60.48"/>
      </g>
     </g>
     <g id="text_13">
      <!-- 1.0 -->
      <g transform="translate(99.374375 67.318594)scale(0.18 -0.18)">
       <use xlink:href="#DejaVuSans-31"/>
       <use x="63.623047" xlink:href="#DejaVuSans-2e"/>
       <use x="95.410156" xlink:href="#DejaVuSans-30"/>
      </g>
     </g>
    </g>
    <g id="text_14">
     <!-- $TPR_{Fair}$ -->
     <g transform="translate(90.799062 290.27)rotate(-90)scale(0.22 -0.22)">
      <defs>
       <path d="M 378 4666 
L 4325 4666 
L 4225 4134 
L 2559 4134 
L 1759 0 
L 1125 0 
L 1925 4134 
L 275 4134 
L 378 4666 
z
" id="DejaVuSans-Oblique-54" transform="scale(0.015625)"/>
      </defs>
      <use transform="translate(0 0.09375)" xlink:href="#DejaVuSans-Oblique-54"/>
      <use transform="translate(61.083984 0.09375)" xlink:href="#DejaVuSans-Oblique-50"/>
      <use transform="translate(121.386719 0.09375)" xlink:href="#DejaVuSans-Oblique-52"/>
      <use transform="translate(190.869141 -16.3125)scale(0.7)" xlink:href="#DejaVuSans-Oblique-46"/>
      <use transform="translate(231.132812 -16.3125)scale(0.7)" xlink:href="#DejaVuSans-Oblique-61"/>
      <use transform="translate(274.02832 -16.3125)scale(0.7)" xlink:href="#DejaVuSans-Oblique-69"/>
      <use transform="translate(293.476562 -16.3125)scale(0.7)" xlink:href="#DejaVuSans-Oblique-72"/>
     </g>
    </g>
   </g>
   <g id="line2d_13">
    <path clip-path="url(#p2a96c76894)" d="M 135 448.56 
L 972 60.48 
" style="fill:none;stroke:#ff0000;stroke-dasharray:5.55,2.4;stroke-dashoffset:0;stroke-width:1.5;"/>
   </g>
   <g id="line2d_14">
    <path clip-path="url(#p2a96c76894)" d="M 972 60.48 
L 206.266649 412.36977 
L 171.492629 429.64209 
L 159.243023 435.766609 
L 152.966824 438.921622 
L 149.150211 440.856343 
L 146.611182 442.155482 
L 144.778803 443.056206 
L 143.413931 443.773042 
L 142.358506 444.311888 
L 141.505119 444.750237 
L 140.801627 445.11407 
L 140.221481 445.420251 
L 139.726725 445.669073 
L 139.313377 445.883793 
L 138.958265 446.070551 
L 138.647559 446.235846 
L 138.370626 446.392014 
L 138.125472 446.519546 
L 137.911949 446.636414 
L 137.718432 446.738189 
L 137.545782 446.831012 
L 137.389833 446.914616 
L 137.250366 446.995871 
L 137.126027 447.064787 
L 137.011131 447.132534 
L 136.906431 447.1906 
L 136.808158 447.24604 
L 136.717388 447.297085 
L 136.636969 447.345215 
L 136.557501 447.389708 
L 136.487999 447.432699 
L 136.422197 447.473563 
L 136.358636 447.51187 
L 136.301204 447.545774 
L 136.247128 447.577593 
L 136.196906 447.607353 
L 136.149341 447.636202 
L 136.106936 447.663035 
L 136.066506 447.689177 
L 136.028836 447.714017 
L 135.990578 447.739208 
L 135.958317 447.760137 
L 135.925839 447.783934 
L 135.895778 447.80757 
L 135.867356 447.82784 
L 135.838351 447.846857 
L 135.812167 447.864998 
L 135.787274 447.881554 
L 135.763515 447.900811 
L 135.742276 447.918371 
L 135.719518 447.93424 
L 135.699269 447.953586 
L 135.679582 447.968285 
L 135.661598 447.982159 
L 135.643547 447.996481 
L 135.62755 448.010691 
L 135.611984 448.023472 
L 135.596825 448.036493 
L 135.580889 448.046105 
L 135.565395 448.057469 
L 135.551488 448.068275 
L 135.537379 448.077851 
L 135.524053 448.088247 
L 135.511404 448.098649 
L 135.500072 448.107158 
L 135.488556 448.118409 
L 135.476929 448.127513 
L 135.465428 448.135585 
L 135.455122 448.142565 
L 135.445711 448.150525 
L 135.435785 448.159014 
L 135.425719 448.168087 
L 135.414722 448.175171 
L 135.406573 448.183107 
L 135.397508 448.189636 
L 135.386772 448.19675 
L 135.378242 448.203488 
L 135.369437 448.209868 
L 135.360195 448.216785 
L 135.350834 448.224445 
L 135.340636 448.230608 
L 135.33137 448.235988 
L 135.321191 448.241535 
L 135.311536 448.247181 
L 135.302384 448.253565 
L 135.295459 448.258552 
L 135.288466 448.264269 
L 135.279831 448.270507 
L 135.272919 448.276211 
L 135.265317 448.282421 
L 135.25694 448.288281 
L 135.250497 448.294506 
L 135.242433 448.300368 
L 135.236805 448.304952 
L 135.230849 448.310202 
L 135.223833 448.31519 
L 135.21815 448.321966 
L 135.212379 448.328077 
L 135.206434 448.334642 
L 135.200689 448.339603 
" style="fill:none;stroke:#1f77b4;stroke-linecap:square;stroke-width:1.5;"/>
   </g>
   <g id="line2d_15">
    <path clip-path="url(#p2a96c76894)" d="M 972 60.48 
L 771.066223 117.651418 
L 644.084247 160.292778 
L 556.657554 193.153079 
L 492.420599 219.688981 
L 443.761715 241.826895 
L 405.72944 259.825438 
L 374.933278 274.891703 
L 349.64672 287.778775 
L 328.407015 298.914658 
L 310.460867 308.631773 
L 295.12098 317.477998 
L 281.830623 325.225161 
L 270.176107 332.018669 
L 259.911731 338.211256 
L 250.864158 343.673619 
L 242.759859 348.643502 
L 235.534077 353.334718 
L 229.067132 357.628586 
L 223.149688 361.499533 
L 217.792465 365.03564 
L 212.989228 368.292468 
L 208.582451 371.270163 
L 204.518678 374.071695 
L 200.797126 376.731949 
L 197.380804 379.243482 
L 194.248295 381.545692 
L 191.343694 383.611364 
L 188.694611 385.551501 
L 186.241265 387.523453 
L 183.918458 389.273665 
L 181.784588 390.964749 
L 179.771572 392.556004 
L 177.934204 394.037104 
L 176.196282 395.461213 
L 174.57092 396.831884 
L 173.06265 398.092575 
L 171.616483 399.223665 
L 170.265223 400.33817 
L 169.014658 401.446493 
L 167.839849 402.500608 
L 166.718492 403.496474 
L 165.674888 404.447844 
L 164.682576 405.362371 
L 163.733056 406.233799 
L 162.820854 407.061059 
L 161.971658 407.907574 
L 161.164986 408.694668 
L 160.38226 409.44339 
L 159.659981 410.188731 
L 158.971456 410.905825 
L 158.292162 411.616627 
L 157.65524 412.338804 
L 157.041234 412.968084 
L 156.466172 413.607206 
L 155.88472 414.23206 
L 155.354706 414.837067 
L 154.843977 415.405354 
L 154.346149 415.992805 
L 153.864695 416.566388 
L 153.401204 417.111693 
L 152.958904 417.632248 
L 152.500065 418.140281 
L 152.075506 418.635343 
L 151.663059 419.127975 
L 151.253208 419.606545 
L 150.858545 420.098991 
L 150.478563 420.570245 
L 150.104918 421.040139 
L 149.757741 421.509358 
L 149.419052 421.940434 
L 149.088705 422.362658 
L 148.763978 422.797612 
L 148.442791 423.20389 
L 148.123512 423.6146 
L 147.816031 424.013563 
L 147.51923 424.415385 
L 147.230249 424.789585 
L 146.945367 425.197329 
L 146.675458 425.585025 
L 146.408716 425.958067 
L 146.151126 426.340798 
L 145.888348 426.690491 
L 145.63314 427.052748 
L 145.389844 427.406982 
L 145.151789 427.749489 
L 144.917989 428.112306 
L 144.694511 428.463175 
L 144.48437 428.825974 
L 144.259529 429.189702 
L 144.044755 429.536168 
L 143.845696 429.854824 
L 143.648268 430.213072 
L 143.434731 430.568148 
L 143.230561 430.894353 
L 143.025581 431.222661 
L 142.829749 431.559723 
L 142.647019 431.894051 
L 142.463981 432.257081 
L 142.265508 432.614498 
L 142.077908 432.933045 
" style="fill:none;stroke:#ff7f0e;stroke-linecap:square;stroke-width:1.5;"/>
   </g>
   <g id="line2d_16">
    <path clip-path="url(#p2a96c76894)" d="M 972 60.48 
L 707.127524 158.401688 
L 566.227305 217.355025 
L 478.383019 256.481821 
L 418.529799 284.461575 
L 375.22375 305.591977 
L 342.41235 322.109223 
L 316.708354 335.008336 
L 296.050214 345.963403 
L 279.117409 354.794141 
L 264.960744 362.304831 
L 253.015788 368.811778 
L 242.79487 374.437348 
L 233.946715 379.319196 
L 226.230073 383.734238 
L 219.427767 387.554602 
L 213.405058 391.009655 
L 208.042098 394.129962 
L 203.274007 396.968762 
L 198.930783 399.51432 
L 195.003878 401.86267 
L 191.476257 403.986057 
L 188.263736 405.929326 
L 185.31137 407.742086 
L 182.615939 409.430973 
L 180.150865 411.020361 
L 177.880883 412.467784 
L 175.797824 413.781059 
L 173.894118 415.043572 
L 172.111588 416.228522 
L 170.443684 417.32717 
L 168.914742 418.364407 
L 167.4686 419.349481 
L 166.139134 420.251076 
L 164.900111 421.107093 
L 163.73234 421.917076 
L 162.642952 422.689903 
L 161.626292 423.412743 
L 160.662264 424.100755 
L 159.763643 424.772486 
L 158.916069 425.401686 
L 158.106714 426.010074 
L 157.349397 426.592744 
L 156.636206 427.147278 
L 155.952816 427.678771 
L 155.298683 428.182649 
L 154.689641 428.683041 
L 154.099898 429.144166 
L 153.533036 429.598017 
L 153.0087 430.031678 
L 152.503893 430.447085 
L 152.012884 430.853756 
L 151.54268 431.253496 
L 151.092021 431.621356 
L 150.671972 431.989609 
L 150.250353 432.330153 
L 149.856362 432.668557 
L 149.475003 432.987811 
L 149.100445 433.307641 
L 148.741364 433.623354 
L 148.393478 433.925012 
L 148.065827 434.217399 
L 147.735911 434.499389 
L 147.421267 434.765673 
L 147.117375 435.031555 
L 146.81017 435.29194 
L 146.52441 435.546488 
L 146.241955 435.795916 
L 145.970478 436.035108 
L 145.717604 436.269533 
L 145.468774 436.497279 
L 145.22073 436.722803 
L 144.979311 436.951728 
L 144.741916 437.166097 
L 144.511082 437.375032 
L 144.278852 437.582164 
L 144.062291 437.780128 
L 143.848631 437.974691 
L 143.641853 438.178533 
L 143.441441 438.367394 
L 143.244453 438.557838 
L 143.054439 438.744972 
L 142.8627 438.917563 
L 142.675962 439.092449 
L 142.501564 439.264399 
L 142.32994 439.432275 
L 142.162187 439.605084 
L 141.992256 439.770907 
L 141.831953 439.937396 
L 141.673525 440.094587 
L 141.517202 440.25863 
L 141.369829 440.411297 
L 141.216669 440.569528 
L 141.06391 440.726623 
L 140.917776 440.878477 
L 140.774494 441.02543 
L 140.629797 441.17466 
L 140.493518 441.325137 
L 140.359029 441.477828 
L 140.215862 441.633591 
L 140.084587 441.775318 
" style="fill:none;stroke:#2ca02c;stroke-linecap:square;stroke-width:1.5;"/>
   </g>
   <g id="line2d_17">
    <path clip-path="url(#p2a96c76894)" d="M 972 60.48 
L 936.578411 73.538458 
L 903.151455 85.65971 
L 871.338237 97.258849 
L 841.105145 108.258655 
L 812.320976 118.905272 
L 784.984293 128.701661 
L 759.056384 137.614289 
L 734.422463 146.230264 
L 710.719401 154.41418 
L 688.207697 162.263888 
L 666.813762 170.101215 
L 646.338625 177.564073 
L 626.900586 184.459487 
L 608.334559 191.051515 
L 590.598942 197.530153 
L 573.805214 203.536699 
L 557.752197 209.470311 
L 542.569912 215.014893 
L 527.833901 220.246149 
L 513.786928 225.265802 
L 500.451233 230.055096 
L 487.717585 234.610793 
L 475.624125 239.067224 
L 464.128801 243.338707 
L 453.050866 247.59486 
L 442.452429 251.539012 
L 432.450801 255.2868 
L 422.930208 258.816043 
L 413.814227 262.384956 
L 405.06426 265.674133 
L 396.790189 268.846112 
L 388.80642 272.164651 
L 381.22434 275.160499 
L 373.968558 278.086116 
L 366.980351 280.874499 
L 360.314438 283.522032 
L 353.88369 286.073191 
L 347.701177 288.517911 
L 341.880502 290.983123 
L 336.25519 293.363166 
L 330.78932 295.678068 
L 325.576703 297.945311 
L 320.652023 300.145125 
L 315.88268 302.336834 
L 311.211701 304.372726 
L 306.843686 306.493179 
L 302.494575 308.469733 
L 298.328299 310.501489 
L 294.352906 312.425328 
L 290.421914 314.323188 
L 286.647448 316.127165 
L 283.055299 317.947402 
L 279.518187 319.728863 
L 276.148141 321.524649 
L 272.807877 323.202352 
L 269.691175 324.933617 
L 266.566617 326.58856 
L 263.516009 328.198447 
L 260.614353 329.806495 
L 257.757097 331.415365 
L 255.043945 332.999255 
L 252.290261 334.533359 
L 249.679374 336.059283 
L 247.093862 337.646619 
L 244.524935 339.143801 
L 242.058619 340.631943 
L 239.642429 342.121961 
L 237.317818 343.562377 
L 235.075063 345.015376 
L 232.875302 346.478564 
L 230.690644 347.949722 
L 228.59454 349.383241 
L 226.508606 350.801022 
L 224.463375 352.208161 
L 222.476797 353.591934 
L 220.516425 354.998996 
L 218.637932 356.36166 
L 216.820402 357.809672 
L 214.997151 359.194687 
L 213.210844 360.606521 
L 211.436004 361.974305 
L 209.71397 363.328447 
L 208.001075 364.689864 
L 206.416348 366.019099 
L 204.813424 367.327556 
L 203.234505 368.693299 
L 201.673087 370.025353 
L 200.185272 371.338035 
L 198.688549 372.622963 
L 197.217175 374.005718 
L 195.797241 375.266654 
L 194.353449 376.628423 
L 192.927924 377.993186 
L 191.556007 379.289622 
L 190.184953 380.559106 
L 188.825134 381.886208 
L 187.538282 383.156997 
L 186.252797 384.49126 
L 184.915552 385.851005 
L 183.663163 387.130523 
" style="fill:none;stroke:#d62728;stroke-linecap:square;stroke-width:1.5;"/>
   </g>
   <g id="line2d_18">
    <path clip-path="url(#p2a96c76894)" d="M 972 60.48 
L 822.73329 110.267242 
L 716.28498 149.060682 
L 636.097848 179.983284 
L 573.680864 205.282183 
L 523.697918 226.466174 
L 482.78697 244.511797 
L 448.76452 259.560089 
L 420.089806 273.144847 
L 395.561848 284.65666 
L 374.367437 294.849813 
L 355.887067 304.038926 
L 339.631992 312.21093 
L 325.255048 319.49313 
L 312.484412 326.247487 
L 300.99124 332.22182 
L 290.693959 337.758088 
L 281.318941 342.8342 
L 272.888617 347.538941 
L 265.154714 351.806591 
L 258.096218 355.835691 
L 251.629392 359.520481 
L 245.665753 362.952193 
L 240.16309 366.185446 
L 235.064766 369.220245 
L 230.358868 372.06412 
L 225.990426 374.712229 
L 221.926071 377.149386 
L 218.151197 379.483942 
L 214.62239 381.703679 
L 211.283712 383.783406 
L 208.194308 385.780379 
L 205.243649 387.669894 
L 202.517229 389.436574 
L 199.92939 391.120059 
L 197.475626 392.716079 
L 195.192735 394.24679 
L 193.01389 395.689356 
L 190.956841 397.074776 
L 189.025712 398.412915 
L 187.170186 399.677993 
L 185.394485 400.91212 
L 183.719273 402.093981 
L 182.126694 403.222129 
L 180.600547 404.308147 
L 179.139651 405.35383 
L 177.765311 406.369029 
L 176.429811 407.321726 
L 175.157131 408.274496 
L 173.945162 409.168525 
L 172.755828 410.033088 
L 171.624682 410.876303 
L 170.54337 411.697217 
L 169.492704 412.473388 
L 168.496329 413.251453 
L 167.530725 413.986763 
L 166.609881 414.707047 
L 165.70177 415.400693 
L 164.817035 416.075784 
L 163.991669 416.733287 
L 163.178263 417.378377 
L 162.399556 418.012765 
L 161.627208 418.62256 
L 160.892781 419.198435 
L 160.178058 419.79218 
L 159.475506 420.347697 
L 158.800364 420.903766 
L 158.144484 421.453046 
L 157.517783 421.97644 
L 156.911081 422.493569 
L 156.319944 423.003924 
L 155.746545 423.508758 
L 155.196018 424.005716 
L 154.649046 424.489313 
L 154.112789 424.954479 
L 153.59912 425.410995 
L 153.096953 425.859608 
L 152.619079 426.293323 
L 152.156495 426.746675 
L 151.700604 427.182523 
L 151.253792 427.615959 
L 150.817061 428.032913 
L 150.394659 428.440998 
L 149.98179 428.843108 
L 149.589655 429.235128 
L 149.198186 429.623784 
L 148.818626 430.009877 
L 148.447816 430.379726 
L 148.089461 430.755073 
L 147.735298 431.106169 
L 147.392526 431.483348 
L 147.058625 431.824924 
L 146.720158 432.182328 
L 146.391312 432.534388 
L 146.075026 432.872607 
L 145.761256 433.201434 
L 145.457918 433.538744 
L 145.163527 433.86919 
L 144.87805 434.204309 
L 144.587842 434.546845 
L 144.308826 434.867802 
" style="fill:none;stroke:#9467bd;stroke-linecap:square;stroke-width:1.5;"/>
   </g>
   <g id="line2d_19">
    <path clip-path="url(#p2a96c76894)" d="M 972 60.48 
L 836.977455 107.168446 
L 736.910812 144.121168 
L 659.531184 173.931375 
L 598.078429 198.669417 
L 548.088724 219.528073 
L 506.737334 237.404462 
L 471.955307 252.492505 
L 442.365569 266.085132 
L 416.86411 277.731911 
L 394.668089 288.089759 
L 375.222545 297.424712 
L 358.029063 305.760615 
L 342.749218 313.226144 
L 329.126902 320.141798 
L 316.82016 326.303214 
L 305.729118 332.0239 
L 295.614159 337.283361 
L 286.478747 342.145464 
L 278.086701 346.591129 
L 270.40858 350.757581 
L 263.366166 354.607314 
L 256.869686 358.189688 
L 250.84958 361.577729 
L 245.261687 364.74513 
L 240.09287 367.712516 
L 235.291286 370.498587 
L 230.804756 373.06587 
L 226.640636 375.518688 
L 222.744496 377.858817 
L 219.0638 380.040379 
L 215.643989 382.144677 
L 212.381811 384.135436 
L 209.352012 386.013976 
L 206.477747 387.797135 
L 203.768764 389.480505 
L 201.229181 391.094407 
L 198.793188 392.622062 
L 196.502371 394.09385 
L 194.343599 395.511818 
L 192.267984 396.866141 
L 190.286618 398.167191 
L 188.418406 399.422804 
L 186.630402 400.624504 
L 184.925871 401.778537 
L 183.299142 402.897647 
L 181.76778 403.973449 
L 180.274188 404.992025 
L 178.851533 406.005056 
L 177.49235 406.954069 
L 176.165986 407.883517 
L 174.897213 408.77898 
L 173.687064 409.65007 
L 172.522004 410.484459 
L 171.411723 411.304355 
L 170.333556 412.09209 
L 169.298111 412.857329 
L 168.290433 413.603395 
L 167.305198 414.332203 
L 166.377411 415.033181 
L 165.469796 415.727134 
L 164.602591 416.397329 
L 163.741727 417.050904 
L 162.921725 417.672663 
L 162.128322 418.298338 
L 161.347588 418.892043 
L 160.599794 419.484547 
L 159.87839 420.065871 
L 159.184706 420.623695 
L 158.507232 421.167408 
L 157.853651 421.712945 
L 157.220771 422.256057 
L 156.617514 422.790573 
L 156.012712 423.307171 
L 155.431245 423.802125 
L 154.865566 424.290235 
L 154.316243 424.767452 
L 153.787268 425.23231 
L 153.274263 425.716699 
L 152.774407 426.190623 
L 152.282754 426.651189 
L 151.810351 427.09106 
L 151.346481 427.52592 
L 150.89706 427.955802 
L 150.467723 428.373022 
L 150.039628 428.788903 
L 149.624149 429.203149 
L 149.225165 429.599517 
L 148.833448 430.000229 
L 148.451742 430.376498 
L 148.080312 430.772328 
L 147.714014 431.138505 
L 147.347531 431.525732 
L 146.992276 431.896888 
L 146.649464 432.25689 
L 146.30955 432.608474 
L 145.983736 432.971398 
L 145.66727 433.320609 
L 145.356533 433.678668 
L 145.041931 434.042348 
L 144.741336 434.385044 
" style="fill:none;stroke:#8c564b;stroke-linecap:square;stroke-width:1.5;"/>
   </g>
   <g id="line2d_20">
    <path clip-path="url(#p2a96c76894)" d="M 972 60.48 
L 906.390742 86.590485 
L 848.763444 109.806799 
L 797.654709 130.202587 
L 751.993026 148.342222 
L 710.867793 164.826062 
L 673.771408 179.842472 
L 640.221144 193.078351 
L 609.739424 205.587148 
L 582.018964 216.746482 
L 556.53361 227.063813 
L 533.253565 236.637969 
L 511.843119 245.503933 
L 492.03628 253.653998 
L 473.788549 261.434897 
L 456.803269 268.523756 
L 441.038213 275.16553 
L 426.270226 281.407913 
L 412.663157 287.268604 
L 399.903658 292.720847 
L 388.014972 297.996957 
L 376.850741 302.877162 
L 366.335591 307.489302 
L 356.460045 311.87511 
L 347.169886 316.065066 
L 338.468246 320.036083 
L 330.273813 323.833831 
L 322.517302 327.371273 
L 315.233844 330.780773 
L 308.352114 334.060205 
L 301.778132 337.111598 
L 295.614652 340.114795 
L 289.711971 342.969648 
L 284.147649 345.697445 
L 278.858855 348.309262 
L 273.833327 350.792179 
L 269.096325 353.173723 
L 264.530063 355.458031 
L 260.200873 357.655738 
L 256.07761 359.792575 
L 252.109616 361.829137 
L 248.315537 363.807479 
L 244.701184 365.720773 
L 241.256684 367.570521 
L 237.951149 369.352749 
L 234.771122 371.0967 
L 231.760863 372.769738 
L 228.829195 374.378097 
L 226.034518 375.983077 
L 223.341163 377.504704 
L 220.710594 378.987813 
L 218.186089 380.421094 
L 215.766295 381.821434 
L 213.429719 383.159374 
L 211.188879 384.481673 
L 209.033019 385.76214 
L 206.937929 387.00697 
L 204.908086 388.218563 
L 202.911868 389.410784 
L 201.017318 390.561627 
L 199.167244 391.698924 
L 197.391374 392.798871 
L 195.635439 393.874974 
L 193.968297 394.9045 
L 192.344557 395.929689 
L 190.748246 396.913444 
L 189.228372 397.889717 
L 187.753032 398.84995 
L 186.330791 399.778042 
L 184.937129 400.672486 
L 183.590104 401.575979 
L 182.288762 402.474723 
L 181.035841 403.371011 
L 179.792081 404.234716 
L 178.583751 405.074284 
L 177.40826 405.897676 
L 176.268092 406.705047 
L 175.160341 407.482063 
L 174.092475 408.295998 
L 173.048717 409.08603 
L 172.029105 409.866715 
L 171.046285 410.61454 
L 170.080419 411.347823 
L 169.137901 412.076182 
L 168.234125 412.793101 
L 167.330306 413.50211 
L 166.455558 414.206603 
L 165.616504 414.887659 
L 164.792352 415.577672 
L 163.984799 416.225891 
L 163.198132 416.910372 
L 162.424559 417.542754 
L 161.651771 418.210161 
L 160.902973 418.846681 
L 160.175449 419.482964 
L 159.458454 420.098951 
L 158.769712 420.731519 
L 158.09565 421.347029 
L 157.431143 421.969251 
L 156.759314 422.608383 
L 156.117777 423.21278 
" style="fill:none;stroke:#e377c2;stroke-linecap:square;stroke-width:1.5;"/>
   </g>
   <g id="line2d_21">
    <path clip-path="url(#p2a96c76894)" d="M 972 60.48 
L 900.911544 89.067592 
L 839.18702 113.750798 
L 784.877214 135.45036 
L 736.829837 154.583724 
L 694.130175 171.83887 
L 655.874767 187.311959 
L 621.471064 200.994824 
L 590.529712 213.814993 
L 562.418486 225.224625 
L 536.789474 235.698131 
L 513.443146 245.430103 
L 492.037036 254.336633 
L 472.350786 262.481446 
L 454.26323 270.212568 
L 437.500418 277.220208 
L 422.020514 283.861139 
L 407.562053 290.084152 
L 394.266795 295.907569 
L 381.847164 301.297234 
L 370.29052 306.448335 
L 359.49053 311.255755 
L 349.366019 315.809289 
L 339.857332 320.137616 
L 330.967046 324.237869 
L 322.645879 328.100809 
L 314.807493 331.776189 
L 307.411642 335.196034 
L 300.491245 338.501157 
L 293.941626 341.631927 
L 287.7173 344.599104 
L 281.904366 347.470946 
L 276.337241 350.230421 
L 271.089831 352.838212 
L 266.107121 355.328634 
L 261.396292 357.688217 
L 256.957158 359.957749 
L 252.685448 362.128776 
L 248.644099 364.20925 
L 244.807341 366.242171 
L 241.122988 368.196047 
L 237.60834 370.062883 
L 234.259059 371.874925 
L 231.078855 373.621033 
L 228.035152 375.298601 
L 225.105444 376.94338 
L 222.338791 378.526441 
L 219.646485 380.025161 
L 217.08042 381.531684 
L 214.616026 382.948752 
L 212.218531 384.345143 
L 209.925859 385.69624 
L 207.720987 387.01167 
L 205.589611 388.2685 
L 203.551153 389.511662 
L 201.593272 390.711451 
L 199.694256 391.878642 
L 197.851149 393.020671 
L 196.043923 394.138438 
L 194.326203 395.209776 
L 192.657091 396.266007 
L 191.053875 397.297316 
L 189.481189 398.302245 
L 187.987608 399.263545 
L 186.537058 400.225418 
L 185.101681 401.153867 
L 183.732248 402.062887 
L 182.411643 402.94967 
L 181.125382 403.812116 
L 179.872257 404.643619 
L 178.668425 405.485189 
L 177.503566 406.325941 
L 176.384367 407.160392 
L 175.267083 407.965168 
L 174.186063 408.738973 
L 173.138842 409.508053 
L 172.12231 410.259495 
L 171.131755 410.993891 
L 170.172639 411.747992 
L 169.237566 412.484571 
L 168.329081 413.202515 
L 167.450314 413.895176 
L 166.588183 414.570547 
L 165.75232 415.247213 
L 164.949488 415.908665 
L 164.144813 416.564384 
L 163.367309 417.217321 
L 162.62215 417.843692 
L 161.886227 418.47854 
L 161.160593 419.078994 
L 160.456807 419.706063 
L 159.768524 420.291084 
L 159.081276 420.900498 
L 158.415299 421.487987 
L 157.768575 422.074966 
L 157.130545 422.641308 
L 156.51339 423.22419 
L 155.909062 423.784194 
L 155.311959 424.358165 
L 154.708482 424.94161 
L 154.13532 425.498137 
" style="fill:none;stroke:#7f7f7f;stroke-linecap:square;stroke-width:1.5;"/>
   </g>
   <g id="line2d_22">
    <path clip-path="url(#p2a96c76894)" d="M 972 60.48 
L 914.081065 85.248176 
L 862.347037 107.396242 
L 815.364788 127.087395 
L 772.76101 144.72522 
L 733.894646 160.793452 
L 698.30459 175.386604 
L 665.687995 188.43294 
L 635.80493 200.819141 
L 608.267421 211.943834 
L 582.776699 222.242201 
L 559.24624 231.810084 
L 537.343701 240.74782 
L 517.004792 248.93981 
L 498.156353 256.736875 
L 480.51585 263.847926 
L 464.088388 270.630813 
L 448.623842 276.990024 
L 434.27692 282.962016 
L 420.788525 288.499941 
L 408.117475 293.839714 
L 396.208648 298.859377 
L 384.988559 303.59025 
L 374.389163 308.13075 
L 364.426086 312.399089 
L 355.079285 316.476484 
L 346.243877 320.357742 
L 337.875595 323.969166 
L 329.983621 327.469888 
L 322.518408 330.824144 
L 315.413116 333.990033 
L 308.738384 337.060335 
L 302.331626 340.018079 
L 296.288663 342.824931 
L 290.535497 345.499781 
L 285.083103 348.057986 
L 279.934633 350.515564 
L 274.964258 352.859753 
L 270.258563 355.120368 
L 265.797913 357.32841 
L 261.491447 359.436159 
L 257.389907 361.470601 
L 253.474752 363.446418 
L 249.756469 365.346798 
L 246.195095 367.185055 
L 242.768529 368.989571 
L 239.518333 370.717858 
L 236.351719 372.360953 
L 233.327368 374.000094 
L 230.435843 375.553002 
L 227.617218 377.071348 
L 224.922359 378.546345 
L 222.335727 379.991432 
L 219.826767 381.381407 
L 217.412879 382.750563 
L 215.106761 384.063997 
L 212.874053 385.34502 
L 210.694819 386.594501 
L 208.564499 387.820246 
L 206.536256 389.009018 
L 204.559841 390.178659 
L 202.663142 391.312655 
L 200.805357 392.412477 
L 199.04158 393.463368 
L 197.324693 394.512063 
L 195.631654 395.526674 
L 194.019623 396.529474 
L 192.454428 397.505549 
L 190.929827 398.455212 
L 189.446687 399.368103 
L 188.020308 400.293211 
L 186.639016 401.22197 
L 185.31395 402.139229 
L 183.99055 403.026649 
L 182.706463 403.884877 
L 181.46791 404.734372 
L 180.257625 405.566592 
L 179.082546 406.380388 
L 177.948792 407.21138 
L 176.839216 408.030235 
L 175.767883 408.825979 
L 174.718802 409.597513 
L 173.694677 410.344333 
L 172.695025 411.096089 
L 171.734965 411.830296 
L 170.773122 412.558198 
L 169.844842 413.286534 
L 168.952076 413.990697 
L 168.068578 414.69737 
L 167.195882 415.36792 
L 166.346825 416.068112 
L 165.519716 416.72263 
L 164.693219 417.406862 
L 163.891272 418.06765 
L 163.107422 418.724234 
L 162.336284 419.359087 
L 161.581985 420.011446 
L 160.845117 420.646382 
L 160.11893 421.292445 
L 159.38579 421.951748 
L 158.685087 422.581443 
" style="fill:none;stroke:#bcbd22;stroke-linecap:square;stroke-width:1.5;"/>
   </g>
   <g id="line2d_23">
    <path clip-path="url(#p2a96c76894)" d="M 972 60.48 
L 899.822311 88.828684 
L 837.232416 113.589847 
L 782.250407 135.150257 
L 733.604928 154.355007 
L 690.474206 171.543166 
L 651.839815 187.092744 
L 617.156336 200.825534 
L 585.900601 213.72389 
L 557.601186 225.192173 
L 531.821724 235.696371 
L 508.327879 245.447882 
L 486.803174 254.405619 
L 467.033277 262.607395 
L 448.896529 270.3838 
L 432.086618 277.429235 
L 416.556195 284.113902 
L 402.092106 290.353939 
L 388.750979 296.218687 
L 376.315952 301.63274 
L 364.744044 306.793145 
L 353.935852 311.613491 
L 343.812015 316.166245 
L 334.316672 320.510417 
L 325.427382 324.613605 
L 317.133049 328.495025 
L 309.330722 332.192751 
L 301.973485 335.626497 
L 295.076068 338.943655 
L 288.569351 342.098122 
L 282.424809 345.077113 
L 276.651803 347.953154 
L 271.149368 350.710207 
L 265.976641 353.339806 
L 261.064289 355.827434 
L 256.440358 358.2075 
L 252.06985 360.497119 
L 247.880209 362.679251 
L 243.923152 364.771375 
L 240.173314 366.811017 
L 236.577514 368.75677 
L 233.161295 370.634663 
L 229.908469 372.457552 
L 226.818176 374.195099 
L 223.862343 375.878771 
L 221.029528 377.518473 
L 218.348858 379.099255 
L 215.744691 380.60296 
L 213.260372 382.095167 
L 210.890252 383.517554 
L 208.583026 384.902072 
L 206.382878 386.238814 
L 204.281812 387.549412 
L 202.246028 388.805288 
L 200.287405 390.045895 
L 198.425774 391.23742 
L 196.620805 392.395926 
L 194.865351 393.532112 
L 193.158382 394.639629 
L 191.529134 395.711626 
L 189.942224 396.766252 
L 188.419426 397.785381 
L 186.937092 398.778218 
L 185.523786 399.727888 
L 184.155614 400.671201 
L 182.812568 401.587064 
L 181.526439 402.491067 
L 180.278777 403.37033 
L 179.065685 404.226813 
L 177.895737 405.049123 
L 176.767514 405.880989 
L 175.674472 406.710455 
L 174.628658 407.527085 
L 173.586046 408.320275 
L 172.565347 409.086543 
L 171.588885 409.848314 
L 170.64098 410.59126 
L 169.723951 411.318158 
L 168.830222 412.058926 
L 167.955289 412.785628 
L 167.111875 413.499862 
L 166.289281 414.184298 
L 165.487067 414.850107 
L 164.706054 415.522671 
L 163.951329 416.17619 
L 163.195281 416.824247 
L 162.469347 417.473386 
L 161.766188 418.103179 
L 161.07063 418.731576 
L 160.385577 419.329771 
L 159.715457 419.949875 
L 159.066863 420.537278 
L 158.415351 421.141664 
L 157.78129 421.731595 
L 157.159238 422.314714 
L 156.547369 422.875986 
L 155.951202 423.453731 
L 155.366382 424.01684 
L 154.790704 424.589406 
L 154.209561 425.169354 
L 153.650594 425.728682 
" style="fill:none;stroke:#17becf;stroke-linecap:square;stroke-width:1.5;"/>
   </g>
   <g id="patch_3">
    <path d="M 135 448.56 
L 135 60.48 
" style="fill:none;stroke:#000000;stroke-linecap:square;stroke-linejoin:miter;stroke-width:0.8;"/>
   </g>
   <g id="patch_4">
    <path d="M 972 448.56 
L 972 60.48 
" style="fill:none;stroke:#000000;stroke-linecap:square;stroke-linejoin:miter;stroke-width:0.8;"/>
   </g>
   <g id="patch_5">
    <path d="M 135 448.56 
L 972 448.56 
" style="fill:none;stroke:#000000;stroke-linecap:square;stroke-linejoin:miter;stroke-width:0.8;"/>
   </g>
   <g id="patch_6">
    <path d="M 135 60.48 
L 972 60.48 
" style="fill:none;stroke:#000000;stroke-linecap:square;stroke-linejoin:miter;stroke-width:0.8;"/>
   </g>
   <g id="legend_1">
    <g id="patch_7">
     <path d="M 850.269375 439.56 
L 959.4 439.56 
Q 963 439.56 963 435.96 
L 963 173.55375 
Q 963 169.95375 959.4 169.95375 
L 850.269375 169.95375 
Q 846.669375 169.95375 846.669375 173.55375 
L 846.669375 435.96 
Q 846.669375 439.56 850.269375 439.56 
z
" style="fill:#ffffff;opacity:0.8;stroke:#cccccc;stroke-linejoin:miter;"/>
    </g>
    <g id="line2d_24">
     <path d="M 853.869375 184.530938 
L 889.869375 184.530938 
" style="fill:none;stroke:#1f77b4;stroke-linecap:square;stroke-width:1.5;"/>
    </g>
    <g id="line2d_25"/>
    <g id="text_15">
     <!-- 0.001 -->
     <g transform="translate(904.269375 190.830938)scale(0.18 -0.18)">
      <use xlink:href="#DejaVuSans-30"/>
      <use x="63.623047" xlink:href="#DejaVuSans-2e"/>
      <use x="95.410156" xlink:href="#DejaVuSans-30"/>
      <use x="159.033203" xlink:href="#DejaVuSans-30"/>
      <use x="222.65625" xlink:href="#DejaVuSans-31"/>
     </g>
    </g>
    <g id="line2d_26">
     <path d="M 853.869375 210.951563 
L 889.869375 210.951563 
" style="fill:none;stroke:#ff7f0e;stroke-linecap:square;stroke-width:1.5;"/>
    </g>
    <g id="line2d_27"/>
    <g id="text_16">
     <!-- 0.011 -->
     <g transform="translate(904.269375 217.251563)scale(0.18 -0.18)">
      <use xlink:href="#DejaVuSans-30"/>
      <use x="63.623047" xlink:href="#DejaVuSans-2e"/>
      <use x="95.410156" xlink:href="#DejaVuSans-30"/>
      <use x="159.033203" xlink:href="#DejaVuSans-31"/>
      <use x="222.65625" xlink:href="#DejaVuSans-31"/>
     </g>
    </g>
    <g id="line2d_28">
     <path d="M 853.869375 237.372188 
L 889.869375 237.372188 
" style="fill:none;stroke:#2ca02c;stroke-linecap:square;stroke-width:1.5;"/>
    </g>
    <g id="line2d_29"/>
    <g id="text_17">
     <!-- 0.021 -->
     <g transform="translate(904.269375 243.672188)scale(0.18 -0.18)">
      <use xlink:href="#DejaVuSans-30"/>
      <use x="63.623047" xlink:href="#DejaVuSans-2e"/>
      <use x="95.410156" xlink:href="#DejaVuSans-30"/>
      <use x="159.033203" xlink:href="#DejaVuSans-32"/>
      <use x="222.65625" xlink:href="#DejaVuSans-31"/>
     </g>
    </g>
    <g id="line2d_30">
     <path d="M 853.869375 263.792813 
L 889.869375 263.792813 
" style="fill:none;stroke:#d62728;stroke-linecap:square;stroke-width:1.5;"/>
    </g>
    <g id="line2d_31"/>
    <g id="text_18">
     <!-- 0.031 -->
     <g transform="translate(904.269375 270.092813)scale(0.18 -0.18)">
      <defs>
       <path d="M 2597 2516 
Q 3050 2419 3304 2112 
Q 3559 1806 3559 1356 
Q 3559 666 3084 287 
Q 2609 -91 1734 -91 
Q 1441 -91 1130 -33 
Q 819 25 488 141 
L 488 750 
Q 750 597 1062 519 
Q 1375 441 1716 441 
Q 2309 441 2620 675 
Q 2931 909 2931 1356 
Q 2931 1769 2642 2001 
Q 2353 2234 1838 2234 
L 1294 2234 
L 1294 2753 
L 1863 2753 
Q 2328 2753 2575 2939 
Q 2822 3125 2822 3475 
Q 2822 3834 2567 4026 
Q 2313 4219 1838 4219 
Q 1578 4219 1281 4162 
Q 984 4106 628 3988 
L 628 4550 
Q 988 4650 1302 4700 
Q 1616 4750 1894 4750 
Q 2613 4750 3031 4423 
Q 3450 4097 3450 3541 
Q 3450 3153 3228 2886 
Q 3006 2619 2597 2516 
z
" id="DejaVuSans-33" transform="scale(0.015625)"/>
      </defs>
      <use xlink:href="#DejaVuSans-30"/>
      <use x="63.623047" xlink:href="#DejaVuSans-2e"/>
      <use x="95.410156" xlink:href="#DejaVuSans-30"/>
      <use x="159.033203" xlink:href="#DejaVuSans-33"/>
      <use x="222.65625" xlink:href="#DejaVuSans-31"/>
     </g>
    </g>
    <g id="line2d_32">
     <path d="M 853.869375 290.213438 
L 889.869375 290.213438 
" style="fill:none;stroke:#9467bd;stroke-linecap:square;stroke-width:1.5;"/>
    </g>
    <g id="line2d_33"/>
    <g id="text_19">
     <!-- 0.041 -->
     <g transform="translate(904.269375 296.513438)scale(0.18 -0.18)">
      <use xlink:href="#DejaVuSans-30"/>
      <use x="63.623047" xlink:href="#DejaVuSans-2e"/>
      <use x="95.410156" xlink:href="#DejaVuSans-30"/>
      <use x="159.033203" xlink:href="#DejaVuSans-34"/>
      <use x="222.65625" xlink:href="#DejaVuSans-31"/>
     </g>
    </g>
    <g id="line2d_34">
     <path d="M 853.869375 316.634063 
L 889.869375 316.634063 
" style="fill:none;stroke:#8c564b;stroke-linecap:square;stroke-width:1.5;"/>
    </g>
    <g id="line2d_35"/>
    <g id="text_20">
     <!-- 0.051 -->
     <g transform="translate(904.269375 322.934063)scale(0.18 -0.18)">
      <defs>
       <path d="M 691 4666 
L 3169 4666 
L 3169 4134 
L 1269 4134 
L 1269 2991 
Q 1406 3038 1543 3061 
Q 1681 3084 1819 3084 
Q 2600 3084 3056 2656 
Q 3513 2228 3513 1497 
Q 3513 744 3044 326 
Q 2575 -91 1722 -91 
Q 1428 -91 1123 -41 
Q 819 9 494 109 
L 494 744 
Q 775 591 1075 516 
Q 1375 441 1709 441 
Q 2250 441 2565 725 
Q 2881 1009 2881 1497 
Q 2881 1984 2565 2268 
Q 2250 2553 1709 2553 
Q 1456 2553 1204 2497 
Q 953 2441 691 2322 
L 691 4666 
z
" id="DejaVuSans-35" transform="scale(0.015625)"/>
      </defs>
      <use xlink:href="#DejaVuSans-30"/>
      <use x="63.623047" xlink:href="#DejaVuSans-2e"/>
      <use x="95.410156" xlink:href="#DejaVuSans-30"/>
      <use x="159.033203" xlink:href="#DejaVuSans-35"/>
      <use x="222.65625" xlink:href="#DejaVuSans-31"/>
     </g>
    </g>
    <g id="line2d_36">
     <path d="M 853.869375 343.054688 
L 889.869375 343.054688 
" style="fill:none;stroke:#e377c2;stroke-linecap:square;stroke-width:1.5;"/>
    </g>
    <g id="line2d_37"/>
    <g id="text_21">
     <!-- 0.061 -->
     <g transform="translate(904.269375 349.354688)scale(0.18 -0.18)">
      <use xlink:href="#DejaVuSans-30"/>
      <use x="63.623047" xlink:href="#DejaVuSans-2e"/>
      <use x="95.410156" xlink:href="#DejaVuSans-30"/>
      <use x="159.033203" xlink:href="#DejaVuSans-36"/>
      <use x="222.65625" xlink:href="#DejaVuSans-31"/>
     </g>
    </g>
    <g id="line2d_38">
     <path d="M 853.869375 369.475313 
L 889.869375 369.475313 
" style="fill:none;stroke:#7f7f7f;stroke-linecap:square;stroke-width:1.5;"/>
    </g>
    <g id="line2d_39"/>
    <g id="text_22">
     <!-- 0.071 -->
     <g transform="translate(904.269375 375.775313)scale(0.18 -0.18)">
      <defs>
       <path d="M 525 4666 
L 3525 4666 
L 3525 4397 
L 1831 0 
L 1172 0 
L 2766 4134 
L 525 4134 
L 525 4666 
z
" id="DejaVuSans-37" transform="scale(0.015625)"/>
      </defs>
      <use xlink:href="#DejaVuSans-30"/>
      <use x="63.623047" xlink:href="#DejaVuSans-2e"/>
      <use x="95.410156" xlink:href="#DejaVuSans-30"/>
      <use x="159.033203" xlink:href="#DejaVuSans-37"/>
      <use x="222.65625" xlink:href="#DejaVuSans-31"/>
     </g>
    </g>
    <g id="line2d_40">
     <path d="M 853.869375 395.895938 
L 889.869375 395.895938 
" style="fill:none;stroke:#bcbd22;stroke-linecap:square;stroke-width:1.5;"/>
    </g>
    <g id="line2d_41"/>
    <g id="text_23">
     <!-- 0.081 -->
     <g transform="translate(904.269375 402.195938)scale(0.18 -0.18)">
      <use xlink:href="#DejaVuSans-30"/>
      <use x="63.623047" xlink:href="#DejaVuSans-2e"/>
      <use x="95.410156" xlink:href="#DejaVuSans-30"/>
      <use x="159.033203" xlink:href="#DejaVuSans-38"/>
      <use x="222.65625" xlink:href="#DejaVuSans-31"/>
     </g>
    </g>
    <g id="line2d_42">
     <path d="M 853.869375 422.316563 
L 889.869375 422.316563 
" style="fill:none;stroke:#17becf;stroke-linecap:square;stroke-width:1.5;"/>
    </g>
    <g id="line2d_43"/>
    <g id="text_24">
     <!-- 0.091 -->
     <g transform="translate(904.269375 428.616563)scale(0.18 -0.18)">
      <defs>
       <path d="M 703 97 
L 703 672 
Q 941 559 1184 500 
Q 1428 441 1663 441 
Q 2288 441 2617 861 
Q 2947 1281 2994 2138 
Q 2813 1869 2534 1725 
Q 2256 1581 1919 1581 
Q 1219 1581 811 2004 
Q 403 2428 403 3163 
Q 403 3881 828 4315 
Q 1253 4750 1959 4750 
Q 2769 4750 3195 4129 
Q 3622 3509 3622 2328 
Q 3622 1225 3098 567 
Q 2575 -91 1691 -91 
Q 1453 -91 1209 -44 
Q 966 3 703 97 
z
M 1959 2075 
Q 2384 2075 2632 2365 
Q 2881 2656 2881 3163 
Q 2881 3666 2632 3958 
Q 2384 4250 1959 4250 
Q 1534 4250 1286 3958 
Q 1038 3666 1038 3163 
Q 1038 2656 1286 2365 
Q 1534 2075 1959 2075 
z
" id="DejaVuSans-39" transform="scale(0.015625)"/>
      </defs>
      <use xlink:href="#DejaVuSans-30"/>
      <use x="63.623047" xlink:href="#DejaVuSans-2e"/>
      <use x="95.410156" xlink:href="#DejaVuSans-30"/>
      <use x="159.033203" xlink:href="#DejaVuSans-39"/>
      <use x="222.65625" xlink:href="#DejaVuSans-31"/>
     </g>
    </g>
   </g>
  </g>
 </g>
 <defs>
  <clipPath id="p2a96c76894">
   <rect height="388.08" width="837" x="135" y="60.48"/>
  </clipPath>
 </defs>
</svg>
