<?xml version="1.0" encoding="utf-8" standalone="no"?>
<!DOCTYPE svg PUBLIC "-//W3C//DTD SVG 1.1//EN"
  "http://www.w3.org/Graphics/SVG/1.1/DTD/svg11.dtd">
<svg height="504pt" version="1.1" viewBox="0 0 1080 504" width="1080pt" xmlns="http://www.w3.org/2000/svg" xmlns:xlink="http://www.w3.org/1999/xlink">
 <metadata>
  <rdf:RDF xmlns:cc="http://creativecommons.org/ns#" xmlns:dc="http://purl.org/dc/elements/1.1/" xmlns:rdf="http://www.w3.org/1999/02/22-rdf-syntax-ns#">
   <cc:Work>
    <dc:type rdf:resource="http://purl.org/dc/dcmitype/StillImage"/>
    <dc:date>2022-01-07T13:24:53.485056</dc:date>
    <dc:format>image/svg+xml</dc:format>
    <dc:creator>
     <cc:Agent>
      <dc:title>Matplotlib v3.4.3, https://matplotlib.org/</dc:title>
     </cc:Agent>
    </dc:creator>
   </cc:Work>
  </rdf:RDF>
 </metadata>
 <defs>
  <style type="text/css">*{stroke-linecap:butt;stroke-linejoin:round;}</style>
 </defs>
 <g id="figure_1">
  <g id="patch_1">
   <path d="M 0 504 
L 1080 504 
L 1080 0 
L 0 0 
z
" style="fill:#ffffff;"/>
  </g>
  <g id="axes_1">
   <g id="patch_2">
    <path d="M 135 448.56 
L 972 448.56 
L 972 60.48 
L 135 60.48 
z
" style="fill:#ffffff;"/>
   </g>
   <g id="matplotlib.axis_1">
    <g id="xtick_1">
     <g id="line2d_1">
      <defs>
       <path d="M 0 0 
L 0 3.5 
" id="m7d8079d342" style="stroke:#000000;stroke-width:0.8;"/>
      </defs>
      <g>
       <use style="stroke:#000000;stroke-width:0.8;" x="135" xlink:href="#m7d8079d342" y="448.56"/>
      </g>
     </g>
     <g id="text_1">
      <!-- 0.0 -->
      <g transform="translate(120.687187 469.237188)scale(0.18 -0.18)">
       <defs>
        <path d="M 2034 4250 
Q 1547 4250 1301 3770 
Q 1056 3291 1056 2328 
Q 1056 1369 1301 889 
Q 1547 409 2034 409 
Q 2525 409 2770 889 
Q 3016 1369 3016 2328 
Q 3016 3291 2770 3770 
Q 2525 4250 2034 4250 
z
M 2034 4750 
Q 2819 4750 3233 4129 
Q 3647 3509 3647 2328 
Q 3647 1150 3233 529 
Q 2819 -91 2034 -91 
Q 1250 -91 836 529 
Q 422 1150 422 2328 
Q 422 3509 836 4129 
Q 1250 4750 2034 4750 
z
" id="DejaVuSans-30" transform="scale(0.015625)"/>
        <path d="M 684 794 
L 1344 794 
L 1344 0 
L 684 0 
L 684 794 
z
" id="DejaVuSans-2e" transform="scale(0.015625)"/>
       </defs>
       <use xlink:href="#DejaVuSans-30"/>
       <use x="63.623047" xlink:href="#DejaVuSans-2e"/>
       <use x="95.410156" xlink:href="#DejaVuSans-30"/>
      </g>
     </g>
    </g>
    <g id="xtick_2">
     <g id="line2d_2">
      <g>
       <use style="stroke:#000000;stroke-width:0.8;" x="302.4" xlink:href="#m7d8079d342" y="448.56"/>
      </g>
     </g>
     <g id="text_2">
      <!-- 0.2 -->
      <g transform="translate(288.087187 469.237188)scale(0.18 -0.18)">
       <defs>
        <path d="M 1228 531 
L 3431 531 
L 3431 0 
L 469 0 
L 469 531 
Q 828 903 1448 1529 
Q 2069 2156 2228 2338 
Q 2531 2678 2651 2914 
Q 2772 3150 2772 3378 
Q 2772 3750 2511 3984 
Q 2250 4219 1831 4219 
Q 1534 4219 1204 4116 
Q 875 4013 500 3803 
L 500 4441 
Q 881 4594 1212 4672 
Q 1544 4750 1819 4750 
Q 2544 4750 2975 4387 
Q 3406 4025 3406 3419 
Q 3406 3131 3298 2873 
Q 3191 2616 2906 2266 
Q 2828 2175 2409 1742 
Q 1991 1309 1228 531 
z
" id="DejaVuSans-32" transform="scale(0.015625)"/>
       </defs>
       <use xlink:href="#DejaVuSans-30"/>
       <use x="63.623047" xlink:href="#DejaVuSans-2e"/>
       <use x="95.410156" xlink:href="#DejaVuSans-32"/>
      </g>
     </g>
    </g>
    <g id="xtick_3">
     <g id="line2d_3">
      <g>
       <use style="stroke:#000000;stroke-width:0.8;" x="469.8" xlink:href="#m7d8079d342" y="448.56"/>
      </g>
     </g>
     <g id="text_3">
      <!-- 0.4 -->
      <g transform="translate(455.487188 469.237188)scale(0.18 -0.18)">
       <defs>
        <path d="M 2419 4116 
L 825 1625 
L 2419 1625 
L 2419 4116 
z
M 2253 4666 
L 3047 4666 
L 3047 1625 
L 3713 1625 
L 3713 1100 
L 3047 1100 
L 3047 0 
L 2419 0 
L 2419 1100 
L 313 1100 
L 313 1709 
L 2253 4666 
z
" id="DejaVuSans-34" transform="scale(0.015625)"/>
       </defs>
       <use xlink:href="#DejaVuSans-30"/>
       <use x="63.623047" xlink:href="#DejaVuSans-2e"/>
       <use x="95.410156" xlink:href="#DejaVuSans-34"/>
      </g>
     </g>
    </g>
    <g id="xtick_4">
     <g id="line2d_4">
      <g>
       <use style="stroke:#000000;stroke-width:0.8;" x="637.2" xlink:href="#m7d8079d342" y="448.56"/>
      </g>
     </g>
     <g id="text_4">
      <!-- 0.6 -->
      <g transform="translate(622.887188 469.237188)scale(0.18 -0.18)">
       <defs>
        <path d="M 2113 2584 
Q 1688 2584 1439 2293 
Q 1191 2003 1191 1497 
Q 1191 994 1439 701 
Q 1688 409 2113 409 
Q 2538 409 2786 701 
Q 3034 994 3034 1497 
Q 3034 2003 2786 2293 
Q 2538 2584 2113 2584 
z
M 3366 4563 
L 3366 3988 
Q 3128 4100 2886 4159 
Q 2644 4219 2406 4219 
Q 1781 4219 1451 3797 
Q 1122 3375 1075 2522 
Q 1259 2794 1537 2939 
Q 1816 3084 2150 3084 
Q 2853 3084 3261 2657 
Q 3669 2231 3669 1497 
Q 3669 778 3244 343 
Q 2819 -91 2113 -91 
Q 1303 -91 875 529 
Q 447 1150 447 2328 
Q 447 3434 972 4092 
Q 1497 4750 2381 4750 
Q 2619 4750 2861 4703 
Q 3103 4656 3366 4563 
z
" id="DejaVuSans-36" transform="scale(0.015625)"/>
       </defs>
       <use xlink:href="#DejaVuSans-30"/>
       <use x="63.623047" xlink:href="#DejaVuSans-2e"/>
       <use x="95.410156" xlink:href="#DejaVuSans-36"/>
      </g>
     </g>
    </g>
    <g id="xtick_5">
     <g id="line2d_5">
      <g>
       <use style="stroke:#000000;stroke-width:0.8;" x="804.6" xlink:href="#m7d8079d342" y="448.56"/>
      </g>
     </g>
     <g id="text_5">
      <!-- 0.8 -->
      <g transform="translate(790.287188 469.237188)scale(0.18 -0.18)">
       <defs>
        <path d="M 2034 2216 
Q 1584 2216 1326 1975 
Q 1069 1734 1069 1313 
Q 1069 891 1326 650 
Q 1584 409 2034 409 
Q 2484 409 2743 651 
Q 3003 894 3003 1313 
Q 3003 1734 2745 1975 
Q 2488 2216 2034 2216 
z
M 1403 2484 
Q 997 2584 770 2862 
Q 544 3141 544 3541 
Q 544 4100 942 4425 
Q 1341 4750 2034 4750 
Q 2731 4750 3128 4425 
Q 3525 4100 3525 3541 
Q 3525 3141 3298 2862 
Q 3072 2584 2669 2484 
Q 3125 2378 3379 2068 
Q 3634 1759 3634 1313 
Q 3634 634 3220 271 
Q 2806 -91 2034 -91 
Q 1263 -91 848 271 
Q 434 634 434 1313 
Q 434 1759 690 2068 
Q 947 2378 1403 2484 
z
M 1172 3481 
Q 1172 3119 1398 2916 
Q 1625 2713 2034 2713 
Q 2441 2713 2670 2916 
Q 2900 3119 2900 3481 
Q 2900 3844 2670 4047 
Q 2441 4250 2034 4250 
Q 1625 4250 1398 4047 
Q 1172 3844 1172 3481 
z
" id="DejaVuSans-38" transform="scale(0.015625)"/>
       </defs>
       <use xlink:href="#DejaVuSans-30"/>
       <use x="63.623047" xlink:href="#DejaVuSans-2e"/>
       <use x="95.410156" xlink:href="#DejaVuSans-38"/>
      </g>
     </g>
    </g>
    <g id="xtick_6">
     <g id="line2d_6">
      <g>
       <use style="stroke:#000000;stroke-width:0.8;" x="972" xlink:href="#m7d8079d342" y="448.56"/>
      </g>
     </g>
     <g id="text_6">
      <!-- 1.0 -->
      <g transform="translate(957.687188 469.237188)scale(0.18 -0.18)">
       <defs>
        <path d="M 794 531 
L 1825 531 
L 1825 4091 
L 703 3866 
L 703 4441 
L 1819 4666 
L 2450 4666 
L 2450 531 
L 3481 531 
L 3481 0 
L 794 0 
L 794 531 
z
" id="DejaVuSans-31" transform="scale(0.015625)"/>
       </defs>
       <use xlink:href="#DejaVuSans-31"/>
       <use x="63.623047" xlink:href="#DejaVuSans-2e"/>
       <use x="95.410156" xlink:href="#DejaVuSans-30"/>
      </g>
     </g>
    </g>
    <g id="text_7">
     <!-- $FPR_{Fair}$ -->
     <g transform="translate(518.08 493.697187)scale(0.22 -0.22)">
      <defs>
       <path d="M 1081 4666 
L 3756 4666 
L 3653 4134 
L 1606 4134 
L 1338 2759 
L 3188 2759 
L 3084 2228 
L 1234 2228 
L 800 0 
L 172 0 
L 1081 4666 
z
" id="DejaVuSans-Oblique-46" transform="scale(0.015625)"/>
       <path d="M 1081 4666 
L 2541 4666 
Q 3178 4666 3512 4369 
Q 3847 4072 3847 3500 
Q 3847 2731 3353 2303 
Q 2859 1875 1966 1875 
L 1172 1875 
L 806 0 
L 172 0 
L 1081 4666 
z
M 1613 4147 
L 1275 2394 
L 2069 2394 
Q 2606 2394 2893 2669 
Q 3181 2944 3181 3456 
Q 3181 3784 2986 3965 
Q 2791 4147 2438 4147 
L 1613 4147 
z
" id="DejaVuSans-Oblique-50" transform="scale(0.015625)"/>
       <path d="M 1613 4147 
L 1294 2491 
L 2106 2491 
Q 2584 2491 2879 2755 
Q 3175 3019 3175 3444 
Q 3175 3784 2976 3965 
Q 2778 4147 2406 4147 
L 1613 4147 
z
M 2772 2241 
Q 2972 2194 3105 2009 
Q 3238 1825 3413 1275 
L 3809 0 
L 3144 0 
L 2778 1197 
Q 2638 1659 2453 1815 
Q 2269 1972 1888 1972 
L 1191 1972 
L 806 0 
L 172 0 
L 1081 4666 
L 2503 4666 
Q 3150 4666 3495 4373 
Q 3841 4081 3841 3531 
Q 3841 3044 3547 2687 
Q 3253 2331 2772 2241 
z
" id="DejaVuSans-Oblique-52" transform="scale(0.015625)"/>
       <path d="M 3438 1997 
L 3047 0 
L 2472 0 
L 2578 531 
Q 2325 219 2001 64 
Q 1678 -91 1281 -91 
Q 834 -91 548 182 
Q 263 456 263 884 
Q 263 1497 752 1853 
Q 1241 2209 2100 2209 
L 2900 2209 
L 2931 2363 
Q 2938 2388 2941 2417 
Q 2944 2447 2944 2509 
Q 2944 2788 2717 2942 
Q 2491 3097 2081 3097 
Q 1800 3097 1504 3025 
Q 1209 2953 897 2809 
L 997 3341 
Q 1322 3463 1633 3523 
Q 1944 3584 2234 3584 
Q 2853 3584 3176 3315 
Q 3500 3047 3500 2534 
Q 3500 2431 3484 2292 
Q 3469 2153 3438 1997 
z
M 2816 1759 
L 2241 1759 
Q 1534 1759 1195 1570 
Q 856 1381 856 984 
Q 856 709 1029 553 
Q 1203 397 1509 397 
Q 1978 397 2328 733 
Q 2678 1069 2791 1631 
L 2816 1759 
z
" id="DejaVuSans-Oblique-61" transform="scale(0.015625)"/>
       <path d="M 1172 4863 
L 1747 4863 
L 1606 4134 
L 1031 4134 
L 1172 4863 
z
M 909 3500 
L 1484 3500 
L 800 0 
L 225 0 
L 909 3500 
z
" id="DejaVuSans-Oblique-69" transform="scale(0.015625)"/>
       <path d="M 2853 2969 
Q 2766 3016 2653 3041 
Q 2541 3066 2413 3066 
Q 1953 3066 1609 2717 
Q 1266 2369 1153 1784 
L 800 0 
L 225 0 
L 909 3500 
L 1484 3500 
L 1375 2956 
Q 1603 3259 1920 3421 
Q 2238 3584 2597 3584 
Q 2691 3584 2781 3573 
Q 2872 3563 2963 3538 
L 2853 2969 
z
" id="DejaVuSans-Oblique-72" transform="scale(0.015625)"/>
      </defs>
      <use transform="translate(0 0.09375)" xlink:href="#DejaVuSans-Oblique-46"/>
      <use transform="translate(57.519531 0.09375)" xlink:href="#DejaVuSans-Oblique-50"/>
      <use transform="translate(117.822266 0.09375)" xlink:href="#DejaVuSans-Oblique-52"/>
      <use transform="translate(187.304688 -16.3125)scale(0.7)" xlink:href="#DejaVuSans-Oblique-46"/>
      <use transform="translate(227.568359 -16.3125)scale(0.7)" xlink:href="#DejaVuSans-Oblique-61"/>
      <use transform="translate(270.463867 -16.3125)scale(0.7)" xlink:href="#DejaVuSans-Oblique-69"/>
      <use transform="translate(289.912109 -16.3125)scale(0.7)" xlink:href="#DejaVuSans-Oblique-72"/>
     </g>
    </g>
   </g>
   <g id="matplotlib.axis_2">
    <g id="ytick_1">
     <g id="line2d_7">
      <defs>
       <path d="M 0 0 
L -3.5 0 
" id="m41f65b752c" style="stroke:#000000;stroke-width:0.8;"/>
      </defs>
      <g>
       <use style="stroke:#000000;stroke-width:0.8;" x="135" xlink:href="#m41f65b752c" y="448.56"/>
      </g>
     </g>
     <g id="text_8">
      <!-- 0.0 -->
      <g transform="translate(99.374375 455.398594)scale(0.18 -0.18)">
       <use xlink:href="#DejaVuSans-30"/>
       <use x="63.623047" xlink:href="#DejaVuSans-2e"/>
       <use x="95.410156" xlink:href="#DejaVuSans-30"/>
      </g>
     </g>
    </g>
    <g id="ytick_2">
     <g id="line2d_8">
      <g>
       <use style="stroke:#000000;stroke-width:0.8;" x="135" xlink:href="#m41f65b752c" y="370.944"/>
      </g>
     </g>
     <g id="text_9">
      <!-- 0.2 -->
      <g transform="translate(99.374375 377.782594)scale(0.18 -0.18)">
       <use xlink:href="#DejaVuSans-30"/>
       <use x="63.623047" xlink:href="#DejaVuSans-2e"/>
       <use x="95.410156" xlink:href="#DejaVuSans-32"/>
      </g>
     </g>
    </g>
    <g id="ytick_3">
     <g id="line2d_9">
      <g>
       <use style="stroke:#000000;stroke-width:0.8;" x="135" xlink:href="#m41f65b752c" y="293.328"/>
      </g>
     </g>
     <g id="text_10">
      <!-- 0.4 -->
      <g transform="translate(99.374375 300.166594)scale(0.18 -0.18)">
       <use xlink:href="#DejaVuSans-30"/>
       <use x="63.623047" xlink:href="#DejaVuSans-2e"/>
       <use x="95.410156" xlink:href="#DejaVuSans-34"/>
      </g>
     </g>
    </g>
    <g id="ytick_4">
     <g id="line2d_10">
      <g>
       <use style="stroke:#000000;stroke-width:0.8;" x="135" xlink:href="#m41f65b752c" y="215.712"/>
      </g>
     </g>
     <g id="text_11">
      <!-- 0.6 -->
      <g transform="translate(99.374375 222.550594)scale(0.18 -0.18)">
       <use xlink:href="#DejaVuSans-30"/>
       <use x="63.623047" xlink:href="#DejaVuSans-2e"/>
       <use x="95.410156" xlink:href="#DejaVuSans-36"/>
      </g>
     </g>
    </g>
    <g id="ytick_5">
     <g id="line2d_11">
      <g>
       <use style="stroke:#000000;stroke-width:0.8;" x="135" xlink:href="#m41f65b752c" y="138.096"/>
      </g>
     </g>
     <g id="text_12">
      <!-- 0.8 -->
      <g transform="translate(99.374375 144.934594)scale(0.18 -0.18)">
       <use xlink:href="#DejaVuSans-30"/>
       <use x="63.623047" xlink:href="#DejaVuSans-2e"/>
       <use x="95.410156" xlink:href="#DejaVuSans-38"/>
      </g>
     </g>
    </g>
    <g id="ytick_6">
     <g id="line2d_12">
      <g>
       <use style="stroke:#000000;stroke-width:0.8;" x="135" xlink:href="#m41f65b752c" y="60.48"/>
      </g>
     </g>
     <g id="text_13">
      <!-- 1.0 -->
      <g transform="translate(99.374375 67.318594)scale(0.18 -0.18)">
       <use xlink:href="#DejaVuSans-31"/>
       <use x="63.623047" xlink:href="#DejaVuSans-2e"/>
       <use x="95.410156" xlink:href="#DejaVuSans-30"/>
      </g>
     </g>
    </g>
    <g id="text_14">
     <!-- $TPR_{Fair}$ -->
     <g transform="translate(90.799062 290.27)rotate(-90)scale(0.22 -0.22)">
      <defs>
       <path d="M 378 4666 
L 4325 4666 
L 4225 4134 
L 2559 4134 
L 1759 0 
L 1125 0 
L 1925 4134 
L 275 4134 
L 378 4666 
z
" id="DejaVuSans-Oblique-54" transform="scale(0.015625)"/>
      </defs>
      <use transform="translate(0 0.09375)" xlink:href="#DejaVuSans-Oblique-54"/>
      <use transform="translate(61.083984 0.09375)" xlink:href="#DejaVuSans-Oblique-50"/>
      <use transform="translate(121.386719 0.09375)" xlink:href="#DejaVuSans-Oblique-52"/>
      <use transform="translate(190.869141 -16.3125)scale(0.7)" xlink:href="#DejaVuSans-Oblique-46"/>
      <use transform="translate(231.132812 -16.3125)scale(0.7)" xlink:href="#DejaVuSans-Oblique-61"/>
      <use transform="translate(274.02832 -16.3125)scale(0.7)" xlink:href="#DejaVuSans-Oblique-69"/>
      <use transform="translate(293.476562 -16.3125)scale(0.7)" xlink:href="#DejaVuSans-Oblique-72"/>
     </g>
    </g>
   </g>
   <g id="line2d_13">
    <path clip-path="url(#pef89be87b2)" d="M 135 448.56 
L 972 60.48 
" style="fill:none;stroke:#ff0000;stroke-dasharray:5.55,2.4;stroke-dashoffset:0;stroke-width:1.5;"/>
   </g>
   <g id="line2d_14">
    <path clip-path="url(#pef89be87b2)" d="M 972 60.48 
L 220.609052 330.423882 
L 186.337451 379.114105 
L 173.027066 399.900185 
L 165.390484 410.913243 
L 160.765336 417.507358 
L 157.801551 421.893882 
L 155.780899 425.223077 
L 154.051487 428.029452 
L 152.870473 430.175258 
L 151.889431 431.71366 
L 151.088103 432.822573 
L 150.28166 433.732378 
L 149.526492 434.720811 
L 148.740226 435.578209 
L 148.093924 436.420328 
L 147.464085 437.09177 
L 147.094005 437.608266 
L 146.615435 438.080488 
L 146.190912 438.645154 
L 145.868436 439.139833 
L 145.550241 439.71879 
L 145.303072 440.031293 
L 144.968645 440.298041 
L 144.724217 440.603304 
L 144.393061 440.85531 
L 144.197379 441.129771 
L 143.928 441.398777 
L 143.64 441.63217 
L 143.474928 441.914659 
L 143.28927 442.155021 
L 142.969067 442.423306 
L 142.736126 442.785876 
L 142.589734 443.009306 
L 142.441203 443.345197 
L 142.262039 443.622244 
L 142.018455 443.823191 
L 141.853237 444.084067 
L 141.765184 444.367176 
L 141.647608 444.692305 
L 141.534201 444.988906 
L 141.39659 445.129527 
L 141.266245 445.173613 
L 141.165026 445.25112 
L 141.062848 445.2953 
L 140.937421 445.334876 
L 140.820382 445.368938 
L 140.730116 445.412625 
L 140.620897 445.459911 
L 140.490195 445.50866 
L 140.384801 445.551628 
L 140.284793 445.60108 
L 140.124321 445.672261 
L 140.075208 445.736353 
L 140.034017 445.77162 
L 139.944712 445.799609 
L 139.908152 445.829019 
L 139.869048 445.855169 
L 139.800395 445.908087 
L 139.769008 445.961416 
L 139.708642 446.015855 
L 139.647575 446.041572 
L 139.617685 446.072461 
L 139.530892 446.128599 
L 139.450122 446.161138 
L 139.396192 446.192678 
L 139.342573 446.217236 
L 139.311893 446.250801 
L 139.233947 446.272735 
L 139.160548 446.295156 
L 139.137336 446.314747 
L 139.111191 446.36088 
L 139.087474 446.383611 
L 139.036939 446.40353 
L 138.943991 446.423319 
L 138.92021 446.440934 
L 138.874676 446.457591 
L 138.831248 446.475636 
L 138.783051 446.513742 
L 138.738962 446.529431 
L 138.692848 446.583667 
L 138.647799 446.6003 
L 138.626985 446.635019 
L 138.608725 446.672338 
L 138.589691 446.690246 
L 138.528462 446.726822 
L 138.444535 446.761931 
L 138.359594 446.796 
L 138.343717 446.81298 
L 138.327643 446.828076 
L 138.288292 446.842428 
L 138.272222 446.873169 
L 138.256309 446.900768 
L 138.176997 446.927905 
L 138.11965 446.953856 
L 138.08093 446.981069 
L 138.065396 446.990397 
L 138.007261 447.016171 
L 137.992403 447.024984 
L 137.956647 447.05259 
L 137.942618 447.063879 
" style="fill:none;stroke:#1f77b4;stroke-linecap:square;stroke-width:1.5;"/>
   </g>
   <g id="line2d_15">
    <path clip-path="url(#pef89be87b2)" d="M 972 60.48 
L 902.496056 67.761701 
L 859.959634 74.217954 
L 825.258956 81.173969 
L 796.74178 88.012627 
L 772.313684 94.220304 
L 753.079919 99.709731 
L 737.174924 105.651035 
L 723.577178 111.263654 
L 712.370216 116.561294 
L 702.394087 121.406516 
L 693.121199 124.824218 
L 684.125146 128.328781 
L 675.200903 132.389673 
L 665.695985 136.175732 
L 657.62272 140.027155 
L 650.151789 144.024006 
L 643.467451 147.0097 
L 636.228465 150.146232 
L 629.556388 153.843823 
L 623.518363 157.494962 
L 618.309257 161.401662 
L 612.586203 164.190346 
L 607.472686 166.589562 
L 602.372039 169.603368 
L 597.870882 172.063589 
L 593.60615 174.383491 
L 589.225756 176.941077 
L 585.06482 179.663947 
L 581.053001 182.157923 
L 576.363647 184.801412 
L 571.51494 187.398526 
L 567.082583 190.01066 
L 563.001414 192.280755 
L 558.759765 194.894787 
L 554.348932 197.147102 
L 549.838964 199.567247 
L 545.649825 201.98176 
L 541.793706 204.324538 
L 538.064051 206.269682 
L 534.416335 207.655535 
L 530.888459 209.259233 
L 527.568005 210.792035 
L 524.110759 212.507603 
L 520.55292 214.192382 
L 517.082441 215.625608 
L 513.799845 216.950553 
L 510.299701 218.66148 
L 507.108301 220.453539 
L 504.146559 222.414572 
L 501.130905 224.121605 
L 498.197924 226.191072 
L 494.766828 228.034605 
L 491.393703 229.657783 
L 488.497626 231.286388 
L 485.861169 232.571255 
L 483.20858 233.931928 
L 480.237745 235.157961 
L 477.198509 236.566758 
L 474.691332 237.979749 
L 472.008517 239.497548 
L 469.193816 240.823158 
L 466.702246 242.436002 
L 463.626443 244.129024 
L 460.942289 245.846755 
L 458.230187 247.609167 
L 455.537765 248.962847 
L 452.772307 250.777146 
L 449.931523 251.953657 
L 447.513725 253.245291 
L 445.177113 254.382366 
L 442.569462 255.841864 
L 440.236185 257.176543 
L 437.58639 258.30872 
L 435.310435 259.509668 
L 432.730508 260.642737 
L 430.31359 261.693777 
L 428.054646 262.891404 
L 425.473161 263.994947 
L 423.081204 265.002297 
L 420.481992 266.008594 
L 417.910373 267.096739 
L 415.57428 268.069954 
L 413.278806 269.360491 
L 410.934583 270.634182 
L 408.689375 271.842124 
L 406.359499 273.063619 
L 403.656769 274.232121 
L 401.450072 275.523939 
L 399.252453 276.633853 
L 397.013495 277.836753 
L 394.908169 278.805987 
L 392.752358 279.592963 
L 390.294785 280.416442 
L 388.287126 281.128041 
L 385.734806 281.971598 
L 383.425841 282.809444 
L 381.015861 283.565504 
L 378.847615 284.404204 
L 376.634418 285.395036 
L 374.414862 286.396001 
" style="fill:none;stroke:#ff7f0e;stroke-linecap:square;stroke-width:1.5;"/>
   </g>
   <g id="line2d_16">
    <path clip-path="url(#pef89be87b2)" d="M 972 60.48 
L 739.661803 97.193653 
L 638.020356 127.371722 
L 572.122265 154.144636 
L 525.504715 176.538826 
L 489.509523 194.674143 
L 464.259071 209.072388 
L 444.291045 223.16 
L 428.211968 235.831122 
L 415.190656 246.713647 
L 404.375187 255.743455 
L 394.18231 262.776515 
L 384.99484 269.360801 
L 376.271341 276.428827 
L 367.353438 282.980943 
L 360.025161 289.282591 
L 353.100684 295.703664 
L 347.055461 300.250964 
L 340.763872 305.054723 
L 335.146715 309.929985 
L 330.258858 314.872708 
L 325.993522 319.971219 
L 321.501532 323.170491 
L 317.385913 325.958827 
L 313.607389 329.269053 
L 310.128071 331.881037 
L 306.932561 334.321855 
L 303.58587 336.699743 
L 300.606406 339.317258 
L 297.763072 341.602431 
L 294.536277 343.954326 
L 291.317919 346.292624 
L 288.210483 348.571737 
L 285.646827 350.474808 
L 282.916699 352.666888 
L 280.125709 354.654152 
L 277.320133 356.621335 
L 274.829652 358.535345 
L 272.420879 360.543814 
L 270.078134 362.421501 
L 268.107742 363.712497 
L 265.923046 364.892708 
L 263.868508 365.965867 
L 261.980711 367.071214 
L 259.919733 368.215512 
L 257.983493 369.2192 
L 256.034483 370.118566 
L 254.099962 371.153073 
L 252.254531 372.351085 
L 250.75865 373.528447 
L 249.251796 374.540535 
L 247.695869 375.728386 
L 245.920927 376.844987 
L 244.331886 377.854728 
L 242.802729 378.674896 
L 241.310471 379.446749 
L 239.94725 380.257018 
L 238.573586 380.955936 
L 237.134076 381.654245 
L 236.007908 382.454232 
L 234.840954 383.270222 
L 233.376051 384.034866 
L 232.185768 384.889121 
L 230.891941 385.802585 
L 229.686839 386.699152 
L 228.384692 387.576296 
L 227.21831 388.252212 
L 226.108795 389.264363 
L 224.776063 389.977326 
L 223.721953 390.836201 
L 222.85105 391.47071 
L 221.719983 392.22263 
L 220.733451 392.880145 
L 219.678207 393.424327 
L 218.757305 393.929523 
L 217.732317 394.416842 
L 216.73615 394.968993 
L 215.947425 395.517696 
L 215.057346 396.107161 
L 214.028695 396.567266 
L 213.085186 397.055897 
L 212.163124 397.567241 
L 211.239701 398.045342 
L 210.188883 398.6075 
L 209.396096 399.118837 
L 208.500157 399.63713 
L 207.601501 400.111662 
L 206.736654 400.59427 
L 205.965207 401.157871 
L 205.138099 401.605539 
L 204.170003 402.105255 
L 203.385501 402.480063 
L 202.567424 402.793219 
L 201.694751 403.112219 
L 200.945198 403.456231 
L 200.158087 403.893119 
L 199.378155 404.236437 
L 198.504772 404.588392 
L 197.780728 404.875731 
L 196.963109 405.336464 
L 196.17127 405.784772 
" style="fill:none;stroke:#2ca02c;stroke-linecap:square;stroke-width:1.5;"/>
   </g>
   <g id="line2d_17">
    <path clip-path="url(#pef89be87b2)" d="M 972 60.48 
L 902.496056 67.761701 
L 859.959634 74.217954 
L 825.258956 81.173969 
L 796.74178 88.012627 
L 772.313684 94.220304 
L 753.079919 99.709731 
L 737.174924 105.651035 
L 723.577178 111.263654 
L 712.370216 116.561294 
L 702.394087 121.406516 
L 693.121199 124.824218 
L 684.125146 128.328781 
L 675.200903 132.389673 
L 665.695985 136.175732 
L 657.62272 140.027155 
L 650.151789 144.024006 
L 643.467451 147.0097 
L 636.228465 150.146232 
L 629.556388 153.843823 
L 623.518363 157.494962 
L 618.309257 161.401662 
L 612.586203 164.190346 
L 607.472686 166.589562 
L 602.372039 169.603368 
L 597.870882 172.063589 
L 593.60615 174.383491 
L 589.225756 176.941077 
L 585.06482 179.663947 
L 581.053001 182.157923 
L 576.363647 184.801412 
L 571.51494 187.398526 
L 567.082583 190.01066 
L 563.001414 192.280755 
L 558.759765 194.894787 
L 554.348932 197.147102 
L 549.838964 199.567247 
L 545.649825 201.98176 
L 541.793706 204.324538 
L 538.064051 206.269682 
L 534.416335 207.655535 
L 530.888459 209.259233 
L 527.568005 210.792035 
L 524.110759 212.507603 
L 520.55292 214.192382 
L 517.082441 215.625608 
L 513.799845 216.950553 
L 510.299701 218.66148 
L 507.108301 220.453539 
L 504.146559 222.414572 
L 501.130905 224.121605 
L 498.197924 226.191072 
L 494.766828 228.034605 
L 491.393703 229.657783 
L 488.497626 231.286388 
L 485.861169 232.571255 
L 483.20858 233.931928 
L 480.237745 235.157961 
L 477.198509 236.566758 
L 474.691332 237.979749 
L 472.008517 239.497548 
L 469.193816 240.823158 
L 466.702246 242.436002 
L 463.626443 244.129024 
L 460.942289 245.846755 
L 458.230187 247.609167 
L 455.537765 248.962847 
L 452.772307 250.777146 
L 449.931523 251.953657 
L 447.513725 253.245291 
L 445.177113 254.382366 
L 442.569462 255.841864 
L 440.236185 257.176543 
L 437.58639 258.30872 
L 435.310435 259.509668 
L 432.730508 260.642737 
L 430.31359 261.693777 
L 428.054646 262.891404 
L 425.473161 263.994947 
L 423.081204 265.002297 
L 420.481992 266.008594 
L 417.910373 267.096739 
L 415.57428 268.069954 
L 413.278806 269.360491 
L 410.934583 270.634182 
L 408.689375 271.842124 
L 406.359499 273.063619 
L 403.656769 274.232121 
L 401.450072 275.523939 
L 399.252453 276.633853 
L 397.013495 277.836753 
L 394.908169 278.805987 
L 392.752358 279.592963 
L 390.294785 280.416442 
L 388.287126 281.128041 
L 385.734806 281.971598 
L 383.425841 282.809444 
L 381.015861 283.565504 
L 378.847615 284.404204 
L 376.634418 285.395036 
L 374.414862 286.396001 
" style="fill:none;stroke:#d62728;stroke-linecap:square;stroke-width:1.5;"/>
   </g>
   <g id="line2d_18">
    <path clip-path="url(#pef89be87b2)" d="M 972 60.48 
L 830.022514 79.83791 
L 754.022487 96.922146 
L 698.758879 113.502682 
L 656.338363 128.666172 
L 621.691853 141.584892 
L 596.311233 152.356379 
L 575.442585 163.466471 
L 558.249495 173.73138 
L 544.32534 182.959892 
L 532.154891 190.817331 
L 520.868694 196.928525 
L 510.46027 202.813349 
L 500.25778 209.233753 
L 489.702359 215.330282 
L 480.794148 221.346226 
L 472.479931 227.501772 
L 465.148776 232.000206 
L 457.39977 236.858284 
L 450.386437 241.950132 
L 444.194239 247.20291 
L 438.779638 252.722678 
L 433.019371 256.306586 
L 427.575241 259.380666 
L 422.407981 263.169386 
L 417.868882 266.27512 
L 413.62952 269.175029 
L 409.251064 272.121929 
L 405.104998 275.288807 
L 401.314383 278.141153 
L 396.880048 281.083429 
L 392.460565 283.948573 
L 388.266902 286.763999 
L 384.54121 289.150506 
L 380.590355 291.889779 
L 376.679497 294.319731 
L 372.6582 296.751614 
L 369.226097 299.219828 
L 365.824845 301.709589 
L 362.608434 303.849107 
L 359.625379 305.383531 
L 356.591054 306.901452 
L 353.700573 308.331853 
L 350.839857 309.893525 
L 347.868336 311.425063 
L 345.00946 312.761464 
L 342.304353 313.978447 
L 339.39175 315.443786 
L 336.66425 317.09087 
L 334.291544 318.792257 
L 331.814962 320.314872 
L 329.389495 322.06027 
L 326.681421 323.67081 
L 324.03031 325.059701 
L 321.739027 326.366536 
L 319.595383 327.448792 
L 317.483661 328.579097 
L 315.223504 329.600407 
L 312.950102 330.671214 
L 311.133503 331.80118 
L 309.095624 333.041835 
L 306.962854 334.128615 
L 305.074809 335.373966 
L 302.9682 336.723069 
L 301.00233 338.035145 
L 298.944634 339.37139 
L 297.052141 340.394195 
L 295.162548 341.867146 
L 293.180271 342.84178 
L 291.547332 343.944 
L 289.907054 344.881063 
L 288.023733 345.993335 
L 286.36896 346.990534 
L 284.641138 347.849379 
L 283.044192 348.675091 
L 281.358075 349.457358 
L 279.640635 350.28469 
L 278.23198 351.125476 
L 276.557697 351.973315 
L 274.814999 352.710239 
L 273.107549 353.423231 
L 271.477236 354.222696 
L 270.03054 354.981251 
L 268.389869 355.883933 
L 267.002199 356.755071 
L 265.612491 357.605276 
L 263.982403 358.42696 
L 262.356796 359.261565 
L 261.032905 360.197366 
L 259.611193 360.971012 
L 258.168258 361.776507 
L 256.952153 362.42984 
L 255.580923 362.932751 
L 254.060099 363.476853 
L 252.828022 364.007904 
L 251.357699 364.639111 
L 250.004391 365.252612 
L 248.545363 365.784741 
L 247.30804 366.324764 
L 246.019013 367.050414 
L 244.719888 367.776247 
" style="fill:none;stroke:#9467bd;stroke-linecap:square;stroke-width:1.5;"/>
   </g>
   <g id="line2d_19">
    <path clip-path="url(#pef89be87b2)" d="M 972 60.48 
L 862.177455 68.718835 
L 799.1524 76.582515 
L 751.18647 84.781288 
L 713.20293 92.713618 
L 681.357093 99.432017 
L 656.893675 105.307282 
L 637.236399 111.71843 
L 620.466376 118.13326 
L 606.830574 123.906055 
L 595.111441 128.955974 
L 583.806674 132.806013 
L 573.303047 136.721969 
L 562.803602 141.376719 
L 551.985717 145.363462 
L 542.807132 149.689785 
L 534.303607 153.880992 
L 526.777431 157.226133 
L 518.707118 160.78984 
L 511.516696 164.632791 
L 504.759989 168.625253 
L 499.113825 172.835147 
L 492.910563 175.909024 
L 487.216872 178.583617 
L 481.658696 181.818431 
L 476.831507 184.6656 
L 472.329333 187.368235 
L 467.613858 190.388055 
L 463.067123 193.381511 
L 458.903255 195.902374 
L 454.151224 198.681286 
L 449.275128 201.424107 
L 444.653564 203.920168 
L 440.471888 206.223842 
L 436.13275 208.755418 
L 431.900837 211.201979 
L 427.433301 213.570969 
L 423.459713 216.046474 
L 419.789906 218.491922 
L 416.192945 220.622735 
L 412.771916 222.134044 
L 409.325032 223.760044 
L 406.026367 225.354965 
L 402.74883 227.130552 
L 399.420367 228.863116 
L 396.13467 230.419214 
L 393.097939 231.884741 
L 389.75444 233.628156 
L 386.764584 235.519661 
L 384.019627 237.564387 
L 381.303974 239.301675 
L 378.495428 241.368316 
L 375.377485 243.153219 
L 372.302592 244.80591 
L 369.556941 246.443292 
L 367.150725 247.789096 
L 364.67823 249.163143 
L 362.007062 250.421833 
L 359.426802 251.770032 
L 357.23969 253.171485 
L 354.890857 254.762449 
L 352.362432 256.177361 
L 350.27748 257.838905 
L 347.555782 259.562272 
L 345.347434 261.194128 
L 343.023447 262.796439 
L 340.723013 264.184828 
L 338.413869 266.052977 
L 336.037602 267.342504 
L 334.103039 268.675573 
L 332.098322 269.805393 
L 329.877737 271.369797 
L 327.867773 272.7293 
L 325.807468 273.911899 
L 323.886647 275.01066 
L 321.87207 276.113335 
L 319.919689 277.179424 
L 318.125017 278.318904 
L 316.161701 279.472979 
L 314.188406 280.532368 
L 312.170967 281.522378 
L 310.275533 282.650667 
L 308.466383 283.69686 
L 306.519966 285.033182 
L 304.766385 286.329836 
L 303.098985 287.56737 
L 301.172473 288.799398 
L 299.130149 290.024767 
L 297.549868 291.376324 
L 295.843746 292.478056 
L 294.166694 293.677127 
L 292.644292 294.754384 
L 291.050466 295.544083 
L 289.242805 296.282329 
L 287.71445 296.964727 
L 285.944336 297.778918 
L 284.300771 298.570564 
L 282.471322 299.321855 
L 280.929459 300.119297 
L 279.390589 301.03818 
L 277.784825 302.019589 
" style="fill:none;stroke:#8c564b;stroke-linecap:square;stroke-width:1.5;"/>
   </g>
   <g id="line2d_20">
    <path clip-path="url(#pef89be87b2)" d="M 972 60.48 
L 935.881801 63.027865 
L 910.982788 65.220884 
L 889.45643 67.284875 
L 871.830462 69.540365 
L 853.686622 71.59591 
L 839.242874 73.070575 
L 828.189707 74.962109 
L 819.429229 77.254723 
L 814.52971 78.697655 
L 809.658979 80.398013 
L 804.249272 81.532551 
L 798.107323 82.480849 
L 792.024311 83.848846 
L 787.729172 85.299269 
L 783.619291 86.900856 
L 779.262114 88.856708 
L 774.24631 89.945205 
L 770.121136 91.15275 
L 766.385576 92.563426 
L 763.06278 94.183258 
L 760.693223 96.151323 
L 757.829154 97.290139 
L 755.273277 98.256758 
L 752.876512 99.476061 
L 750.487713 100.360476 
L 748.347464 101.618469 
L 746.225024 102.782391 
L 744.179882 103.967433 
L 742.214297 104.854386 
L 740.01274 105.637103 
L 737.553651 106.781146 
L 734.817647 107.877447 
L 732.404221 108.636174 
L 729.554855 109.36716 
L 726.521369 110.720734 
L 723.321774 111.760327 
L 720.684456 112.501157 
L 718.070899 113.541779 
L 715.487348 114.552844 
L 712.931875 115.12219 
L 709.788231 115.961716 
L 706.95 116.572113 
L 704.494091 117.131347 
L 702.544202 117.977395 
L 700.418461 118.455924 
L 698.180079 119.076782 
L 695.672808 119.973137 
L 693.333732 120.766411 
L 691.307833 121.732597 
L 689.313552 122.469851 
L 687.185151 123.411892 
L 684.803646 124.528108 
L 682.565986 125.393059 
L 680.357583 125.970342 
L 678.295902 126.780683 
L 676.072911 127.677448 
L 673.80663 128.481488 
L 671.474481 129.52107 
L 669.677605 130.37415 
L 667.421366 131.3311 
L 664.96691 132.191235 
L 662.89452 133.178283 
L 659.990688 134.20195 
L 657.89483 135.093788 
L 655.613897 136.287215 
L 653.437604 137.096495 
L 650.331439 137.79425 
L 647.621628 138.324412 
L 645.57938 138.893046 
L 643.608658 139.462869 
L 641.187217 139.872618 
L 639.005108 140.422405 
L 636.712695 140.978076 
L 634.245445 141.365525 
L 631.760433 141.96642 
L 629.405986 142.499587 
L 627.160295 143.199579 
L 624.299074 143.929275 
L 621.710801 144.468573 
L 619.293706 145.212163 
L 617.133329 145.789888 
L 615.048131 146.459344 
L 612.933089 147.1918 
L 610.714539 147.821289 
L 608.596329 148.590285 
L 606.190947 149.191452 
L 603.291542 149.758546 
L 601.044734 150.310217 
L 598.640059 150.868632 
L 595.923904 151.629662 
L 593.143809 152.333476 
L 590.672381 153.001391 
L 587.944678 153.65521 
L 585.674801 154.006829 
L 582.864916 154.528081 
L 580.461223 155.166703 
L 577.8 155.852082 
L 575.138614 156.558424 
L 572.256867 157.226439 
L 569.666229 157.868323 
" style="fill:none;stroke:#e377c2;stroke-linecap:square;stroke-width:1.5;"/>
   </g>
   <g id="line2d_21">
    <path clip-path="url(#pef89be87b2)" d="M 972 60.48 
L 926.108024 66.777128 
L 895.660714 73.059537 
L 869.442379 79.51306 
L 847.960347 86.19188 
L 826.730594 92.140606 
L 809.638673 97.147023 
L 796.590604 101.78396 
L 785.330419 106.95197 
L 777.107143 112.056429 
L 769.498854 116.853575 
L 760.897293 120.059756 
L 752.364688 123.517773 
L 743.714595 127.523799 
L 735.549322 131.104161 
L 728.523556 134.791696 
L 721.313503 138.469603 
L 714.619926 141.429917 
L 707.222145 144.483919 
L 701.12379 147.902074 
L 695.354908 151.616504 
L 690.073861 155.403233 
L 684.284421 158.192224 
L 678.810124 160.606875 
L 673.215873 163.373294 
L 668.745953 166.002014 
L 664.143716 168.354913 
L 659.1294 171.095088 
L 654.204801 174.014043 
L 650.004988 176.471131 
L 644.607139 179.031338 
L 638.779809 181.804088 
L 633.555828 184.192989 
L 628.959624 186.277119 
L 624.678422 188.582822 
L 620.00146 190.870415 
L 615.171773 193.307734 
L 610.91405 195.869101 
L 607.153846 198.390628 
L 603.447559 200.646383 
L 599.37246 202.111499 
L 594.858033 203.717487 
L 590.616682 205.420006 
L 586.262973 207.215476 
L 582.246675 208.961523 
L 578.344104 210.526875 
L 574.202662 212.015608 
L 569.545508 213.779889 
L 565.629021 215.760895 
L 561.919411 217.870475 
L 558.177066 219.708335 
L 554.686197 221.850869 
L 550.477283 223.784447 
L 546.659056 225.61536 
L 543.276826 227.332887 
L 539.935018 228.651934 
L 536.459807 229.986658 
L 532.762563 231.298531 
L 529.401644 232.661412 
L 526.504713 233.997192 
L 523.207304 235.700196 
L 519.548277 237.065445 
L 516.513864 238.79427 
L 512.673501 240.588581 
L 509.446515 242.245701 
L 506.001782 243.809143 
L 502.552738 245.299653 
L 498.994664 247.432674 
L 495.340416 248.816487 
L 492.30577 250.262185 
L 489.35674 251.546947 
L 486.114818 253.422385 
L 483.232615 254.93866 
L 480.088017 256.258969 
L 477.199074 257.468333 
L 474.069452 258.598811 
L 471.175572 259.785137 
L 468.457651 261.006737 
L 465.383709 262.218307 
L 462.46706 263.267887 
L 459.391877 264.264444 
L 456.482188 265.468827 
L 453.878594 266.505366 
L 450.999039 267.882481 
L 448.171578 269.197195 
L 445.485994 270.354163 
L 442.548837 271.658173 
L 439.272982 273.05437 
L 436.671162 274.600764 
L 434.0778 275.802136 
L 431.460249 277.079239 
L 428.87558 278.292581 
L 426.293574 279.116145 
L 423.368445 279.901256 
L 420.93546 280.537663 
L 417.949876 281.37727 
L 415.226819 282.149154 
L 412.210309 282.898778 
L 409.520423 283.702269 
L 406.852145 284.530477 
L 404.147195 285.505641 
" style="fill:none;stroke:#7f7f7f;stroke-linecap:square;stroke-width:1.5;"/>
   </g>
   <g id="line2d_22">
    <path clip-path="url(#pef89be87b2)" d="M 972 60.48 
L 888.189957 69.929876 
L 838.527915 78.72757 
L 799.106055 87.820322 
L 766.633743 96.478699 
L 738.798815 103.986086 
L 717.595827 110.669237 
L 699.849701 117.727467 
L 685.055871 124.487319 
L 673.021424 130.864305 
L 662.215442 136.592811 
L 652.23068 140.782284 
L 642.546419 145.009467 
L 632.966248 149.92217 
L 622.833752 154.295167 
L 614.362676 158.86288 
L 606.422958 163.386084 
L 599.318641 166.80156 
L 591.547682 170.530355 
L 584.447348 174.645575 
L 578.082136 178.896163 
L 572.70893 183.360063 
L 566.801839 186.382264 
L 561.39398 189.105306 
L 556.084358 192.428404 
L 551.341385 195.249636 
L 546.907876 197.964982 
L 542.33407 200.873589 
L 537.900536 203.757289 
L 533.762069 206.426104 
L 529.032348 209.224475 
L 524.179373 212.114538 
L 519.564458 214.82656 
L 515.429527 217.272215 
L 511.063045 220.074588 
L 506.706153 222.467508 
L 502.102074 224.920053 
L 497.977537 227.472333 
L 494.255435 229.978255 
L 490.521517 232.129723 
L 486.946937 233.659569 
L 483.440464 235.283353 
L 480.100302 236.928806 
L 476.654482 238.636962 
L 473.11287 240.300788 
L 469.631398 241.822663 
L 466.35448 243.165848 
L 462.859995 244.823683 
L 459.723221 246.685358 
L 456.846639 248.627957 
L 453.806735 250.359667 
L 450.91977 252.402144 
L 447.509081 254.239853 
L 444.249566 255.92095 
L 441.38412 257.5406 
L 438.83434 258.86393 
L 436.164475 260.276975 
L 433.290334 261.512731 
L 430.357616 262.871924 
L 427.932475 264.266301 
L 425.326097 265.836212 
L 422.579228 267.188553 
L 420.141486 268.761764 
L 417.162588 270.378845 
L 414.648397 272.03966 
L 412.032902 273.706067 
L 409.478155 275.051874 
L 406.841117 276.814091 
L 404.169036 277.948302 
L 401.87747 279.193407 
L 399.598311 280.334222 
L 397.084739 281.771642 
L 394.884935 283.044936 
L 392.374232 284.204769 
L 390.162472 285.343688 
L 387.680889 286.399832 
L 385.431689 287.442669 
L 383.31029 288.516509 
L 380.96167 289.6685 
L 378.678593 290.665725 
L 376.282824 291.652025 
L 373.984841 292.729502 
L 371.856969 293.706944 
L 369.638083 294.947436 
L 367.490383 296.174773 
L 365.469794 297.345912 
L 363.266827 298.530407 
L 360.729742 299.640084 
L 358.723355 300.868769 
L 356.718418 301.926452 
L 354.67688 303.086604 
L 352.767493 304.046091 
L 350.778962 304.793904 
L 348.554048 305.553662 
L 346.660119 306.208061 
L 344.368214 307.038068 
L 342.269208 307.827998 
L 340.080221 308.566025 
L 338.137464 309.359495 
L 336.169859 310.284009 
L 334.167722 311.233468 
" style="fill:none;stroke:#bcbd22;stroke-linecap:square;stroke-width:1.5;"/>
   </g>
   <g id="line2d_23">
    <path clip-path="url(#pef89be87b2)" d="M 972 60.48 
L 894.637426 68.486169 
L 849.358759 76.045194 
L 812.232888 84.093452 
L 781.809149 91.968121 
L 755.972308 98.736476 
L 735.837945 104.788091 
L 719.103976 111.368386 
L 705.175584 117.535694 
L 693.623855 123.441172 
L 683.13129 128.665403 
L 673.359522 132.364887 
L 664.433843 136.190514 
L 655.212264 140.3598 
L 645.534967 144.412553 
L 637.320692 148.648229 
L 629.482027 152.931026 
L 622.595685 156.156889 
L 615.016336 159.710582 
L 608.040091 163.632101 
L 601.893835 167.563387 
L 596.621701 171.760538 
L 590.805136 174.663042 
L 585.39428 177.327054 
L 580.090572 180.47767 
L 575.367403 183.177872 
L 571.061992 185.817472 
L 566.565688 188.563585 
L 562.25447 191.484119 
L 558.120305 194.129059 
L 553.387118 196.880913 
L 548.627571 199.644866 
L 544.140145 202.342011 
L 540.018782 204.696856 
L 535.792339 207.452701 
L 531.419714 209.827537 
L 526.805212 212.308254 
L 522.681349 214.796518 
L 518.899345 217.257621 
L 515.137959 219.353837 
L 511.451128 220.832018 
L 507.856232 222.515271 
L 504.487869 224.133577 
L 500.974114 225.881618 
L 497.379478 227.534305 
L 493.926231 229.005386 
L 490.656336 230.401317 
L 487.146067 232.111026 
L 484.000312 233.994285 
L 481.013106 235.981358 
L 477.955775 237.754997 
L 475.05504 239.886342 
L 471.639895 241.687728 
L 468.304736 243.368463 
L 465.402741 245.026976 
L 462.758899 246.347262 
L 460.115882 247.742469 
L 457.189012 248.994305 
L 454.269833 250.341266 
L 451.813081 251.749021 
L 449.151886 253.287498 
L 446.325687 254.661612 
L 443.881738 256.272337 
L 440.854067 257.959432 
L 438.240093 259.700792 
L 435.567982 261.402487 
L 432.957999 262.73224 
L 430.240471 264.526922 
L 427.481412 265.754094 
L 425.13217 267.052583 
L 422.824112 268.191991 
L 420.24497 269.656811 
L 417.951944 270.991582 
L 415.399132 272.199068 
L 413.195276 273.389404 
L 410.657771 274.494814 
L 408.314558 275.570715 
L 406.131346 276.726849 
L 403.593933 277.878618 
L 401.209481 278.894483 
L 398.736135 279.938164 
L 396.27618 281.02804 
L 394.015135 282.000461 
L 391.765639 283.261118 
L 389.481665 284.505548 
L 387.32147 285.710552 
L 385.023417 286.903365 
L 382.425747 288.051984 
L 380.33957 289.336958 
L 378.203856 290.449732 
L 376.092627 291.646237 
L 374.059236 292.657422 
L 372.013126 293.429851 
L 369.680798 294.22358 
L 367.771944 294.926436 
L 365.330834 295.735546 
L 363.127178 296.56325 
L 360.827306 297.307331 
L 358.790095 298.139817 
L 356.681867 299.095477 
L 354.604961 300.069359 
" style="fill:none;stroke:#17becf;stroke-linecap:square;stroke-width:1.5;"/>
   </g>
   <g id="patch_3">
    <path d="M 135 448.56 
L 135 60.48 
" style="fill:none;stroke:#000000;stroke-linecap:square;stroke-linejoin:miter;stroke-width:0.8;"/>
   </g>
   <g id="patch_4">
    <path d="M 972 448.56 
L 972 60.48 
" style="fill:none;stroke:#000000;stroke-linecap:square;stroke-linejoin:miter;stroke-width:0.8;"/>
   </g>
   <g id="patch_5">
    <path d="M 135 448.56 
L 972 448.56 
" style="fill:none;stroke:#000000;stroke-linecap:square;stroke-linejoin:miter;stroke-width:0.8;"/>
   </g>
   <g id="patch_6">
    <path d="M 135 60.48 
L 972 60.48 
" style="fill:none;stroke:#000000;stroke-linecap:square;stroke-linejoin:miter;stroke-width:0.8;"/>
   </g>
   <g id="legend_1">
    <g id="patch_7">
     <path d="M 850.269375 439.56 
L 959.4 439.56 
Q 963 439.56 963 435.96 
L 963 173.55375 
Q 963 169.95375 959.4 169.95375 
L 850.269375 169.95375 
Q 846.669375 169.95375 846.669375 173.55375 
L 846.669375 435.96 
Q 846.669375 439.56 850.269375 439.56 
z
" style="fill:#ffffff;opacity:0.8;stroke:#cccccc;stroke-linejoin:miter;"/>
    </g>
    <g id="line2d_24">
     <path d="M 853.869375 184.530938 
L 889.869375 184.530938 
" style="fill:none;stroke:#1f77b4;stroke-linecap:square;stroke-width:1.5;"/>
    </g>
    <g id="line2d_25"/>
    <g id="text_15">
     <!-- 0.001 -->
     <g transform="translate(904.269375 190.830938)scale(0.18 -0.18)">
      <use xlink:href="#DejaVuSans-30"/>
      <use x="63.623047" xlink:href="#DejaVuSans-2e"/>
      <use x="95.410156" xlink:href="#DejaVuSans-30"/>
      <use x="159.033203" xlink:href="#DejaVuSans-30"/>
      <use x="222.65625" xlink:href="#DejaVuSans-31"/>
     </g>
    </g>
    <g id="line2d_26">
     <path d="M 853.869375 210.951563 
L 889.869375 210.951563 
" style="fill:none;stroke:#ff7f0e;stroke-linecap:square;stroke-width:1.5;"/>
    </g>
    <g id="line2d_27"/>
    <g id="text_16">
     <!-- 0.011 -->
     <g transform="translate(904.269375 217.251563)scale(0.18 -0.18)">
      <use xlink:href="#DejaVuSans-30"/>
      <use x="63.623047" xlink:href="#DejaVuSans-2e"/>
      <use x="95.410156" xlink:href="#DejaVuSans-30"/>
      <use x="159.033203" xlink:href="#DejaVuSans-31"/>
      <use x="222.65625" xlink:href="#DejaVuSans-31"/>
     </g>
    </g>
    <g id="line2d_28">
     <path d="M 853.869375 237.372188 
L 889.869375 237.372188 
" style="fill:none;stroke:#2ca02c;stroke-linecap:square;stroke-width:1.5;"/>
    </g>
    <g id="line2d_29"/>
    <g id="text_17">
     <!-- 0.021 -->
     <g transform="translate(904.269375 243.672188)scale(0.18 -0.18)">
      <use xlink:href="#DejaVuSans-30"/>
      <use x="63.623047" xlink:href="#DejaVuSans-2e"/>
      <use x="95.410156" xlink:href="#DejaVuSans-30"/>
      <use x="159.033203" xlink:href="#DejaVuSans-32"/>
      <use x="222.65625" xlink:href="#DejaVuSans-31"/>
     </g>
    </g>
    <g id="line2d_30">
     <path d="M 853.869375 263.792813 
L 889.869375 263.792813 
" style="fill:none;stroke:#d62728;stroke-linecap:square;stroke-width:1.5;"/>
    </g>
    <g id="line2d_31"/>
    <g id="text_18">
     <!-- 0.031 -->
     <g transform="translate(904.269375 270.092813)scale(0.18 -0.18)">
      <defs>
       <path d="M 2597 2516 
Q 3050 2419 3304 2112 
Q 3559 1806 3559 1356 
Q 3559 666 3084 287 
Q 2609 -91 1734 -91 
Q 1441 -91 1130 -33 
Q 819 25 488 141 
L 488 750 
Q 750 597 1062 519 
Q 1375 441 1716 441 
Q 2309 441 2620 675 
Q 2931 909 2931 1356 
Q 2931 1769 2642 2001 
Q 2353 2234 1838 2234 
L 1294 2234 
L 1294 2753 
L 1863 2753 
Q 2328 2753 2575 2939 
Q 2822 3125 2822 3475 
Q 2822 3834 2567 4026 
Q 2313 4219 1838 4219 
Q 1578 4219 1281 4162 
Q 984 4106 628 3988 
L 628 4550 
Q 988 4650 1302 4700 
Q 1616 4750 1894 4750 
Q 2613 4750 3031 4423 
Q 3450 4097 3450 3541 
Q 3450 3153 3228 2886 
Q 3006 2619 2597 2516 
z
" id="DejaVuSans-33" transform="scale(0.015625)"/>
      </defs>
      <use xlink:href="#DejaVuSans-30"/>
      <use x="63.623047" xlink:href="#DejaVuSans-2e"/>
      <use x="95.410156" xlink:href="#DejaVuSans-30"/>
      <use x="159.033203" xlink:href="#DejaVuSans-33"/>
      <use x="222.65625" xlink:href="#DejaVuSans-31"/>
     </g>
    </g>
    <g id="line2d_32">
     <path d="M 853.869375 290.213438 
L 889.869375 290.213438 
" style="fill:none;stroke:#9467bd;stroke-linecap:square;stroke-width:1.5;"/>
    </g>
    <g id="line2d_33"/>
    <g id="text_19">
     <!-- 0.041 -->
     <g transform="translate(904.269375 296.513438)scale(0.18 -0.18)">
      <use xlink:href="#DejaVuSans-30"/>
      <use x="63.623047" xlink:href="#DejaVuSans-2e"/>
      <use x="95.410156" xlink:href="#DejaVuSans-30"/>
      <use x="159.033203" xlink:href="#DejaVuSans-34"/>
      <use x="222.65625" xlink:href="#DejaVuSans-31"/>
     </g>
    </g>
    <g id="line2d_34">
     <path d="M 853.869375 316.634063 
L 889.869375 316.634063 
" style="fill:none;stroke:#8c564b;stroke-linecap:square;stroke-width:1.5;"/>
    </g>
    <g id="line2d_35"/>
    <g id="text_20">
     <!-- 0.051 -->
     <g transform="translate(904.269375 322.934063)scale(0.18 -0.18)">
      <defs>
       <path d="M 691 4666 
L 3169 4666 
L 3169 4134 
L 1269 4134 
L 1269 2991 
Q 1406 3038 1543 3061 
Q 1681 3084 1819 3084 
Q 2600 3084 3056 2656 
Q 3513 2228 3513 1497 
Q 3513 744 3044 326 
Q 2575 -91 1722 -91 
Q 1428 -91 1123 -41 
Q 819 9 494 109 
L 494 744 
Q 775 591 1075 516 
Q 1375 441 1709 441 
Q 2250 441 2565 725 
Q 2881 1009 2881 1497 
Q 2881 1984 2565 2268 
Q 2250 2553 1709 2553 
Q 1456 2553 1204 2497 
Q 953 2441 691 2322 
L 691 4666 
z
" id="DejaVuSans-35" transform="scale(0.015625)"/>
      </defs>
      <use xlink:href="#DejaVuSans-30"/>
      <use x="63.623047" xlink:href="#DejaVuSans-2e"/>
      <use x="95.410156" xlink:href="#DejaVuSans-30"/>
      <use x="159.033203" xlink:href="#DejaVuSans-35"/>
      <use x="222.65625" xlink:href="#DejaVuSans-31"/>
     </g>
    </g>
    <g id="line2d_36">
     <path d="M 853.869375 343.054688 
L 889.869375 343.054688 
" style="fill:none;stroke:#e377c2;stroke-linecap:square;stroke-width:1.5;"/>
    </g>
    <g id="line2d_37"/>
    <g id="text_21">
     <!-- 0.061 -->
     <g transform="translate(904.269375 349.354688)scale(0.18 -0.18)">
      <use xlink:href="#DejaVuSans-30"/>
      <use x="63.623047" xlink:href="#DejaVuSans-2e"/>
      <use x="95.410156" xlink:href="#DejaVuSans-30"/>
      <use x="159.033203" xlink:href="#DejaVuSans-36"/>
      <use x="222.65625" xlink:href="#DejaVuSans-31"/>
     </g>
    </g>
    <g id="line2d_38">
     <path d="M 853.869375 369.475313 
L 889.869375 369.475313 
" style="fill:none;stroke:#7f7f7f;stroke-linecap:square;stroke-width:1.5;"/>
    </g>
    <g id="line2d_39"/>
    <g id="text_22">
     <!-- 0.071 -->
     <g transform="translate(904.269375 375.775313)scale(0.18 -0.18)">
      <defs>
       <path d="M 525 4666 
L 3525 4666 
L 3525 4397 
L 1831 0 
L 1172 0 
L 2766 4134 
L 525 4134 
L 525 4666 
z
" id="DejaVuSans-37" transform="scale(0.015625)"/>
      </defs>
      <use xlink:href="#DejaVuSans-30"/>
      <use x="63.623047" xlink:href="#DejaVuSans-2e"/>
      <use x="95.410156" xlink:href="#DejaVuSans-30"/>
      <use x="159.033203" xlink:href="#DejaVuSans-37"/>
      <use x="222.65625" xlink:href="#DejaVuSans-31"/>
     </g>
    </g>
    <g id="line2d_40">
     <path d="M 853.869375 395.895938 
L 889.869375 395.895938 
" style="fill:none;stroke:#bcbd22;stroke-linecap:square;stroke-width:1.5;"/>
    </g>
    <g id="line2d_41"/>
    <g id="text_23">
     <!-- 0.081 -->
     <g transform="translate(904.269375 402.195938)scale(0.18 -0.18)">
      <use xlink:href="#DejaVuSans-30"/>
      <use x="63.623047" xlink:href="#DejaVuSans-2e"/>
      <use x="95.410156" xlink:href="#DejaVuSans-30"/>
      <use x="159.033203" xlink:href="#DejaVuSans-38"/>
      <use x="222.65625" xlink:href="#DejaVuSans-31"/>
     </g>
    </g>
    <g id="line2d_42">
     <path d="M 853.869375 422.316563 
L 889.869375 422.316563 
" style="fill:none;stroke:#17becf;stroke-linecap:square;stroke-width:1.5;"/>
    </g>
    <g id="line2d_43"/>
    <g id="text_24">
     <!-- 0.091 -->
     <g transform="translate(904.269375 428.616563)scale(0.18 -0.18)">
      <defs>
       <path d="M 703 97 
L 703 672 
Q 941 559 1184 500 
Q 1428 441 1663 441 
Q 2288 441 2617 861 
Q 2947 1281 2994 2138 
Q 2813 1869 2534 1725 
Q 2256 1581 1919 1581 
Q 1219 1581 811 2004 
Q 403 2428 403 3163 
Q 403 3881 828 4315 
Q 1253 4750 1959 4750 
Q 2769 4750 3195 4129 
Q 3622 3509 3622 2328 
Q 3622 1225 3098 567 
Q 2575 -91 1691 -91 
Q 1453 -91 1209 -44 
Q 966 3 703 97 
z
M 1959 2075 
Q 2384 2075 2632 2365 
Q 2881 2656 2881 3163 
Q 2881 3666 2632 3958 
Q 2384 4250 1959 4250 
Q 1534 4250 1286 3958 
Q 1038 3666 1038 3163 
Q 1038 2656 1286 2365 
Q 1534 2075 1959 2075 
z
" id="DejaVuSans-39" transform="scale(0.015625)"/>
      </defs>
      <use xlink:href="#DejaVuSans-30"/>
      <use x="63.623047" xlink:href="#DejaVuSans-2e"/>
      <use x="95.410156" xlink:href="#DejaVuSans-30"/>
      <use x="159.033203" xlink:href="#DejaVuSans-39"/>
      <use x="222.65625" xlink:href="#DejaVuSans-31"/>
     </g>
    </g>
   </g>
  </g>
 </g>
 <defs>
  <clipPath id="pef89be87b2">
   <rect height="388.08" width="837" x="135" y="60.48"/>
  </clipPath>
 </defs>
</svg>
