<?xml version="1.0" encoding="utf-8" standalone="no"?>
<!DOCTYPE svg PUBLIC "-//W3C//DTD SVG 1.1//EN"
  "http://www.w3.org/Graphics/SVG/1.1/DTD/svg11.dtd">
<svg height="504pt" version="1.1" viewBox="0 0 1080 504" width="1080pt" xmlns="http://www.w3.org/2000/svg" xmlns:xlink="http://www.w3.org/1999/xlink">
 <metadata>
  <rdf:RDF xmlns:cc="http://creativecommons.org/ns#" xmlns:dc="http://purl.org/dc/elements/1.1/" xmlns:rdf="http://www.w3.org/1999/02/22-rdf-syntax-ns#">
   <cc:Work>
    <dc:type rdf:resource="http://purl.org/dc/dcmitype/StillImage"/>
    <dc:date>2022-01-07T13:25:01.361827</dc:date>
    <dc:format>image/svg+xml</dc:format>
    <dc:creator>
     <cc:Agent>
      <dc:title>Matplotlib v3.4.3, https://matplotlib.org/</dc:title>
     </cc:Agent>
    </dc:creator>
   </cc:Work>
  </rdf:RDF>
 </metadata>
 <defs>
  <style type="text/css">*{stroke-linecap:butt;stroke-linejoin:round;}</style>
 </defs>
 <g id="figure_1">
  <g id="patch_1">
   <path d="M 0 504 
L 1080 504 
L 1080 0 
L 0 0 
z
" style="fill:#ffffff;"/>
  </g>
  <g id="axes_1">
   <g id="patch_2">
    <path d="M 135 448.56 
L 972 448.56 
L 972 60.48 
L 135 60.48 
z
" style="fill:#ffffff;"/>
   </g>
   <g id="matplotlib.axis_1">
    <g id="xtick_1">
     <g id="line2d_1">
      <defs>
       <path d="M 0 0 
L 0 3.5 
" id="m13a97e8c1e" style="stroke:#000000;stroke-width:0.8;"/>
      </defs>
      <g>
       <use style="stroke:#000000;stroke-width:0.8;" x="135" xlink:href="#m13a97e8c1e" y="448.56"/>
      </g>
     </g>
     <g id="text_1">
      <!-- 0.0 -->
      <g transform="translate(120.687187 469.237188)scale(0.18 -0.18)">
       <defs>
        <path d="M 2034 4250 
Q 1547 4250 1301 3770 
Q 1056 3291 1056 2328 
Q 1056 1369 1301 889 
Q 1547 409 2034 409 
Q 2525 409 2770 889 
Q 3016 1369 3016 2328 
Q 3016 3291 2770 3770 
Q 2525 4250 2034 4250 
z
M 2034 4750 
Q 2819 4750 3233 4129 
Q 3647 3509 3647 2328 
Q 3647 1150 3233 529 
Q 2819 -91 2034 -91 
Q 1250 -91 836 529 
Q 422 1150 422 2328 
Q 422 3509 836 4129 
Q 1250 4750 2034 4750 
z
" id="DejaVuSans-30" transform="scale(0.015625)"/>
        <path d="M 684 794 
L 1344 794 
L 1344 0 
L 684 0 
L 684 794 
z
" id="DejaVuSans-2e" transform="scale(0.015625)"/>
       </defs>
       <use xlink:href="#DejaVuSans-30"/>
       <use x="63.623047" xlink:href="#DejaVuSans-2e"/>
       <use x="95.410156" xlink:href="#DejaVuSans-30"/>
      </g>
     </g>
    </g>
    <g id="xtick_2">
     <g id="line2d_2">
      <g>
       <use style="stroke:#000000;stroke-width:0.8;" x="302.4" xlink:href="#m13a97e8c1e" y="448.56"/>
      </g>
     </g>
     <g id="text_2">
      <!-- 0.2 -->
      <g transform="translate(288.087187 469.237188)scale(0.18 -0.18)">
       <defs>
        <path d="M 1228 531 
L 3431 531 
L 3431 0 
L 469 0 
L 469 531 
Q 828 903 1448 1529 
Q 2069 2156 2228 2338 
Q 2531 2678 2651 2914 
Q 2772 3150 2772 3378 
Q 2772 3750 2511 3984 
Q 2250 4219 1831 4219 
Q 1534 4219 1204 4116 
Q 875 4013 500 3803 
L 500 4441 
Q 881 4594 1212 4672 
Q 1544 4750 1819 4750 
Q 2544 4750 2975 4387 
Q 3406 4025 3406 3419 
Q 3406 3131 3298 2873 
Q 3191 2616 2906 2266 
Q 2828 2175 2409 1742 
Q 1991 1309 1228 531 
z
" id="DejaVuSans-32" transform="scale(0.015625)"/>
       </defs>
       <use xlink:href="#DejaVuSans-30"/>
       <use x="63.623047" xlink:href="#DejaVuSans-2e"/>
       <use x="95.410156" xlink:href="#DejaVuSans-32"/>
      </g>
     </g>
    </g>
    <g id="xtick_3">
     <g id="line2d_3">
      <g>
       <use style="stroke:#000000;stroke-width:0.8;" x="469.8" xlink:href="#m13a97e8c1e" y="448.56"/>
      </g>
     </g>
     <g id="text_3">
      <!-- 0.4 -->
      <g transform="translate(455.487188 469.237188)scale(0.18 -0.18)">
       <defs>
        <path d="M 2419 4116 
L 825 1625 
L 2419 1625 
L 2419 4116 
z
M 2253 4666 
L 3047 4666 
L 3047 1625 
L 3713 1625 
L 3713 1100 
L 3047 1100 
L 3047 0 
L 2419 0 
L 2419 1100 
L 313 1100 
L 313 1709 
L 2253 4666 
z
" id="DejaVuSans-34" transform="scale(0.015625)"/>
       </defs>
       <use xlink:href="#DejaVuSans-30"/>
       <use x="63.623047" xlink:href="#DejaVuSans-2e"/>
       <use x="95.410156" xlink:href="#DejaVuSans-34"/>
      </g>
     </g>
    </g>
    <g id="xtick_4">
     <g id="line2d_4">
      <g>
       <use style="stroke:#000000;stroke-width:0.8;" x="637.2" xlink:href="#m13a97e8c1e" y="448.56"/>
      </g>
     </g>
     <g id="text_4">
      <!-- 0.6 -->
      <g transform="translate(622.887188 469.237188)scale(0.18 -0.18)">
       <defs>
        <path d="M 2113 2584 
Q 1688 2584 1439 2293 
Q 1191 2003 1191 1497 
Q 1191 994 1439 701 
Q 1688 409 2113 409 
Q 2538 409 2786 701 
Q 3034 994 3034 1497 
Q 3034 2003 2786 2293 
Q 2538 2584 2113 2584 
z
M 3366 4563 
L 3366 3988 
Q 3128 4100 2886 4159 
Q 2644 4219 2406 4219 
Q 1781 4219 1451 3797 
Q 1122 3375 1075 2522 
Q 1259 2794 1537 2939 
Q 1816 3084 2150 3084 
Q 2853 3084 3261 2657 
Q 3669 2231 3669 1497 
Q 3669 778 3244 343 
Q 2819 -91 2113 -91 
Q 1303 -91 875 529 
Q 447 1150 447 2328 
Q 447 3434 972 4092 
Q 1497 4750 2381 4750 
Q 2619 4750 2861 4703 
Q 3103 4656 3366 4563 
z
" id="DejaVuSans-36" transform="scale(0.015625)"/>
       </defs>
       <use xlink:href="#DejaVuSans-30"/>
       <use x="63.623047" xlink:href="#DejaVuSans-2e"/>
       <use x="95.410156" xlink:href="#DejaVuSans-36"/>
      </g>
     </g>
    </g>
    <g id="xtick_5">
     <g id="line2d_5">
      <g>
       <use style="stroke:#000000;stroke-width:0.8;" x="804.6" xlink:href="#m13a97e8c1e" y="448.56"/>
      </g>
     </g>
     <g id="text_5">
      <!-- 0.8 -->
      <g transform="translate(790.287188 469.237188)scale(0.18 -0.18)">
       <defs>
        <path d="M 2034 2216 
Q 1584 2216 1326 1975 
Q 1069 1734 1069 1313 
Q 1069 891 1326 650 
Q 1584 409 2034 409 
Q 2484 409 2743 651 
Q 3003 894 3003 1313 
Q 3003 1734 2745 1975 
Q 2488 2216 2034 2216 
z
M 1403 2484 
Q 997 2584 770 2862 
Q 544 3141 544 3541 
Q 544 4100 942 4425 
Q 1341 4750 2034 4750 
Q 2731 4750 3128 4425 
Q 3525 4100 3525 3541 
Q 3525 3141 3298 2862 
Q 3072 2584 2669 2484 
Q 3125 2378 3379 2068 
Q 3634 1759 3634 1313 
Q 3634 634 3220 271 
Q 2806 -91 2034 -91 
Q 1263 -91 848 271 
Q 434 634 434 1313 
Q 434 1759 690 2068 
Q 947 2378 1403 2484 
z
M 1172 3481 
Q 1172 3119 1398 2916 
Q 1625 2713 2034 2713 
Q 2441 2713 2670 2916 
Q 2900 3119 2900 3481 
Q 2900 3844 2670 4047 
Q 2441 4250 2034 4250 
Q 1625 4250 1398 4047 
Q 1172 3844 1172 3481 
z
" id="DejaVuSans-38" transform="scale(0.015625)"/>
       </defs>
       <use xlink:href="#DejaVuSans-30"/>
       <use x="63.623047" xlink:href="#DejaVuSans-2e"/>
       <use x="95.410156" xlink:href="#DejaVuSans-38"/>
      </g>
     </g>
    </g>
    <g id="xtick_6">
     <g id="line2d_6">
      <g>
       <use style="stroke:#000000;stroke-width:0.8;" x="972" xlink:href="#m13a97e8c1e" y="448.56"/>
      </g>
     </g>
     <g id="text_6">
      <!-- 1.0 -->
      <g transform="translate(957.687188 469.237188)scale(0.18 -0.18)">
       <defs>
        <path d="M 794 531 
L 1825 531 
L 1825 4091 
L 703 3866 
L 703 4441 
L 1819 4666 
L 2450 4666 
L 2450 531 
L 3481 531 
L 3481 0 
L 794 0 
L 794 531 
z
" id="DejaVuSans-31" transform="scale(0.015625)"/>
       </defs>
       <use xlink:href="#DejaVuSans-31"/>
       <use x="63.623047" xlink:href="#DejaVuSans-2e"/>
       <use x="95.410156" xlink:href="#DejaVuSans-30"/>
      </g>
     </g>
    </g>
    <g id="text_7">
     <!-- $FPR_{Fair}$ -->
     <g transform="translate(518.08 493.697187)scale(0.22 -0.22)">
      <defs>
       <path d="M 1081 4666 
L 3756 4666 
L 3653 4134 
L 1606 4134 
L 1338 2759 
L 3188 2759 
L 3084 2228 
L 1234 2228 
L 800 0 
L 172 0 
L 1081 4666 
z
" id="DejaVuSans-Oblique-46" transform="scale(0.015625)"/>
       <path d="M 1081 4666 
L 2541 4666 
Q 3178 4666 3512 4369 
Q 3847 4072 3847 3500 
Q 3847 2731 3353 2303 
Q 2859 1875 1966 1875 
L 1172 1875 
L 806 0 
L 172 0 
L 1081 4666 
z
M 1613 4147 
L 1275 2394 
L 2069 2394 
Q 2606 2394 2893 2669 
Q 3181 2944 3181 3456 
Q 3181 3784 2986 3965 
Q 2791 4147 2438 4147 
L 1613 4147 
z
" id="DejaVuSans-Oblique-50" transform="scale(0.015625)"/>
       <path d="M 1613 4147 
L 1294 2491 
L 2106 2491 
Q 2584 2491 2879 2755 
Q 3175 3019 3175 3444 
Q 3175 3784 2976 3965 
Q 2778 4147 2406 4147 
L 1613 4147 
z
M 2772 2241 
Q 2972 2194 3105 2009 
Q 3238 1825 3413 1275 
L 3809 0 
L 3144 0 
L 2778 1197 
Q 2638 1659 2453 1815 
Q 2269 1972 1888 1972 
L 1191 1972 
L 806 0 
L 172 0 
L 1081 4666 
L 2503 4666 
Q 3150 4666 3495 4373 
Q 3841 4081 3841 3531 
Q 3841 3044 3547 2687 
Q 3253 2331 2772 2241 
z
" id="DejaVuSans-Oblique-52" transform="scale(0.015625)"/>
       <path d="M 3438 1997 
L 3047 0 
L 2472 0 
L 2578 531 
Q 2325 219 2001 64 
Q 1678 -91 1281 -91 
Q 834 -91 548 182 
Q 263 456 263 884 
Q 263 1497 752 1853 
Q 1241 2209 2100 2209 
L 2900 2209 
L 2931 2363 
Q 2938 2388 2941 2417 
Q 2944 2447 2944 2509 
Q 2944 2788 2717 2942 
Q 2491 3097 2081 3097 
Q 1800 3097 1504 3025 
Q 1209 2953 897 2809 
L 997 3341 
Q 1322 3463 1633 3523 
Q 1944 3584 2234 3584 
Q 2853 3584 3176 3315 
Q 3500 3047 3500 2534 
Q 3500 2431 3484 2292 
Q 3469 2153 3438 1997 
z
M 2816 1759 
L 2241 1759 
Q 1534 1759 1195 1570 
Q 856 1381 856 984 
Q 856 709 1029 553 
Q 1203 397 1509 397 
Q 1978 397 2328 733 
Q 2678 1069 2791 1631 
L 2816 1759 
z
" id="DejaVuSans-Oblique-61" transform="scale(0.015625)"/>
       <path d="M 1172 4863 
L 1747 4863 
L 1606 4134 
L 1031 4134 
L 1172 4863 
z
M 909 3500 
L 1484 3500 
L 800 0 
L 225 0 
L 909 3500 
z
" id="DejaVuSans-Oblique-69" transform="scale(0.015625)"/>
       <path d="M 2853 2969 
Q 2766 3016 2653 3041 
Q 2541 3066 2413 3066 
Q 1953 3066 1609 2717 
Q 1266 2369 1153 1784 
L 800 0 
L 225 0 
L 909 3500 
L 1484 3500 
L 1375 2956 
Q 1603 3259 1920 3421 
Q 2238 3584 2597 3584 
Q 2691 3584 2781 3573 
Q 2872 3563 2963 3538 
L 2853 2969 
z
" id="DejaVuSans-Oblique-72" transform="scale(0.015625)"/>
      </defs>
      <use transform="translate(0 0.09375)" xlink:href="#DejaVuSans-Oblique-46"/>
      <use transform="translate(57.519531 0.09375)" xlink:href="#DejaVuSans-Oblique-50"/>
      <use transform="translate(117.822266 0.09375)" xlink:href="#DejaVuSans-Oblique-52"/>
      <use transform="translate(187.304688 -16.3125)scale(0.7)" xlink:href="#DejaVuSans-Oblique-46"/>
      <use transform="translate(227.568359 -16.3125)scale(0.7)" xlink:href="#DejaVuSans-Oblique-61"/>
      <use transform="translate(270.463867 -16.3125)scale(0.7)" xlink:href="#DejaVuSans-Oblique-69"/>
      <use transform="translate(289.912109 -16.3125)scale(0.7)" xlink:href="#DejaVuSans-Oblique-72"/>
     </g>
    </g>
   </g>
   <g id="matplotlib.axis_2">
    <g id="ytick_1">
     <g id="line2d_7">
      <defs>
       <path d="M 0 0 
L -3.5 0 
" id="m9121e4a549" style="stroke:#000000;stroke-width:0.8;"/>
      </defs>
      <g>
       <use style="stroke:#000000;stroke-width:0.8;" x="135" xlink:href="#m9121e4a549" y="448.56"/>
      </g>
     </g>
     <g id="text_8">
      <!-- 0.0 -->
      <g transform="translate(99.374375 455.398594)scale(0.18 -0.18)">
       <use xlink:href="#DejaVuSans-30"/>
       <use x="63.623047" xlink:href="#DejaVuSans-2e"/>
       <use x="95.410156" xlink:href="#DejaVuSans-30"/>
      </g>
     </g>
    </g>
    <g id="ytick_2">
     <g id="line2d_8">
      <g>
       <use style="stroke:#000000;stroke-width:0.8;" x="135" xlink:href="#m9121e4a549" y="370.944"/>
      </g>
     </g>
     <g id="text_9">
      <!-- 0.2 -->
      <g transform="translate(99.374375 377.782594)scale(0.18 -0.18)">
       <use xlink:href="#DejaVuSans-30"/>
       <use x="63.623047" xlink:href="#DejaVuSans-2e"/>
       <use x="95.410156" xlink:href="#DejaVuSans-32"/>
      </g>
     </g>
    </g>
    <g id="ytick_3">
     <g id="line2d_9">
      <g>
       <use style="stroke:#000000;stroke-width:0.8;" x="135" xlink:href="#m9121e4a549" y="293.328"/>
      </g>
     </g>
     <g id="text_10">
      <!-- 0.4 -->
      <g transform="translate(99.374375 300.166594)scale(0.18 -0.18)">
       <use xlink:href="#DejaVuSans-30"/>
       <use x="63.623047" xlink:href="#DejaVuSans-2e"/>
       <use x="95.410156" xlink:href="#DejaVuSans-34"/>
      </g>
     </g>
    </g>
    <g id="ytick_4">
     <g id="line2d_10">
      <g>
       <use style="stroke:#000000;stroke-width:0.8;" x="135" xlink:href="#m9121e4a549" y="215.712"/>
      </g>
     </g>
     <g id="text_11">
      <!-- 0.6 -->
      <g transform="translate(99.374375 222.550594)scale(0.18 -0.18)">
       <use xlink:href="#DejaVuSans-30"/>
       <use x="63.623047" xlink:href="#DejaVuSans-2e"/>
       <use x="95.410156" xlink:href="#DejaVuSans-36"/>
      </g>
     </g>
    </g>
    <g id="ytick_5">
     <g id="line2d_11">
      <g>
       <use style="stroke:#000000;stroke-width:0.8;" x="135" xlink:href="#m9121e4a549" y="138.096"/>
      </g>
     </g>
     <g id="text_12">
      <!-- 0.8 -->
      <g transform="translate(99.374375 144.934594)scale(0.18 -0.18)">
       <use xlink:href="#DejaVuSans-30"/>
       <use x="63.623047" xlink:href="#DejaVuSans-2e"/>
       <use x="95.410156" xlink:href="#DejaVuSans-38"/>
      </g>
     </g>
    </g>
    <g id="ytick_6">
     <g id="line2d_12">
      <g>
       <use style="stroke:#000000;stroke-width:0.8;" x="135" xlink:href="#m9121e4a549" y="60.48"/>
      </g>
     </g>
     <g id="text_13">
      <!-- 1.0 -->
      <g transform="translate(99.374375 67.318594)scale(0.18 -0.18)">
       <use xlink:href="#DejaVuSans-31"/>
       <use x="63.623047" xlink:href="#DejaVuSans-2e"/>
       <use x="95.410156" xlink:href="#DejaVuSans-30"/>
      </g>
     </g>
    </g>
    <g id="text_14">
     <!-- $TPR_{Fair}$ -->
     <g transform="translate(90.799062 290.27)rotate(-90)scale(0.22 -0.22)">
      <defs>
       <path d="M 378 4666 
L 4325 4666 
L 4225 4134 
L 2559 4134 
L 1759 0 
L 1125 0 
L 1925 4134 
L 275 4134 
L 378 4666 
z
" id="DejaVuSans-Oblique-54" transform="scale(0.015625)"/>
      </defs>
      <use transform="translate(0 0.09375)" xlink:href="#DejaVuSans-Oblique-54"/>
      <use transform="translate(61.083984 0.09375)" xlink:href="#DejaVuSans-Oblique-50"/>
      <use transform="translate(121.386719 0.09375)" xlink:href="#DejaVuSans-Oblique-52"/>
      <use transform="translate(190.869141 -16.3125)scale(0.7)" xlink:href="#DejaVuSans-Oblique-46"/>
      <use transform="translate(231.132812 -16.3125)scale(0.7)" xlink:href="#DejaVuSans-Oblique-61"/>
      <use transform="translate(274.02832 -16.3125)scale(0.7)" xlink:href="#DejaVuSans-Oblique-69"/>
      <use transform="translate(293.476562 -16.3125)scale(0.7)" xlink:href="#DejaVuSans-Oblique-72"/>
     </g>
    </g>
   </g>
   <g id="line2d_13">
    <path clip-path="url(#p95d68a8510)" d="M 135 448.56 
L 972 60.48 
" style="fill:none;stroke:#ff0000;stroke-dasharray:5.55,2.4;stroke-dashoffset:0;stroke-width:1.5;"/>
   </g>
   <g id="line2d_14">
    <path clip-path="url(#p95d68a8510)" d="M 972 60.48 
L 583.392857 183.031579 
L 465.394737 268.38 
L 407.934783 319.2 
L 391.22449 360.050526 
L 352 376.488 
L 312.545455 385.497 
L 291.24 390.571034 
L 276.180723 401.9904 
L 266.662921 407.709474 
L 255.804124 410.698537 
L 249.882353 414.567591 
L 243.5 417.305235 
L 230.268293 421.711698 
L 224.450382 423.74093 
L 219.913043 424.975028 
L 209.527397 426.890558 
L 207.54 428.887742 
L 203.433962 430.159655 
L 193.736842 431.206829 
L 192.068182 431.884687 
L 188.71123 432.690558 
L 188.425532 433.422128 
L 187.3125 434.186667 
L 185.472362 434.744854 
L 180.35468 435.343653 
L 178.429245 435.663082 
L 177.233945 437.179355 
L 176.85 437.658876 
L 172.366071 438.071351 
L 168.185022 438.347368 
L 167.469828 439.558144 
L 166.518828 439.806316 
L 166.128099 440.103051 
L 165.872951 440.322453 
L 162.219512 440.512258 
L 161.784 440.76375 
L 161.362205 440.950588 
L 161.15625 441.048774 
L 160.753846 441.982373 
L 160.557252 442.105447 
L 160.363636 442.236904 
L 159.708487 442.412198 
L 156.383212 442.460511 
L 156 442.566486 
L 152.871886 442.68 
L 152.745583 443.444068 
L 149.735915 443.557127 
L 146.706294 443.611803 
L 146.544828 444.387097 
L 146.387755 444.474947 
L 146.049505 444.538446 
L 145.977049 444.566038 
L 145.834951 444.63339 
L 145.8 444.666221 
L 145.696486 445.373793 
L 145.594937 445.445393 
L 145.528302 446.096 
L 145.4625 446.115402 
L 145.429907 446.138284 
L 145.397516 446.175484 
L 142.75 446.200851 
L 142.726154 446.236168 
L 142.678899 446.263669 
L 142.632219 446.293839 
L 140.072727 446.329655 
L 140.057402 446.351863 
L 137.521084 446.358128 
L 137.505988 446.910935 
L 137.469027 446.931692 
L 137.469027 446.940751 
L 137.461765 446.962963 
L 137.454545 446.969508 
L 137.440233 446.984574 
L 137.419075 447.003529 
L 137.398281 447.013865 
L 137.398281 447.538737 
L 137.398281 447.549375 
L 137.391429 447.563646 
L 137.377841 447.566197 
L 137.371105 447.576274 
L 137.331476 447.586148 
L 137.305785 447.593425 
L 137.305785 447.602959 
L 137.305785 447.609988 
L 137.286885 447.618058 
L 137.280654 447.621475 
L 135 447.629353 
L 135 447.638195 
L 135 447.643636 
L 135 447.646871 
L 135 447.649014 
L 135 447.654329 
L 135 447.658537 
L 135 447.667862 
L 135 447.676997 
L 135 447.681991 
L 135 447.686929 
L 135 447.691812 
L 135 447.695679 
L 135 447.700465 
" style="fill:none;stroke:#1f77b4;stroke-linecap:square;stroke-width:1.5;"/>
   </g>
   <g id="line2d_15">
    <path clip-path="url(#p95d68a8510)" d="M 972 60.48 
L 716.129534 137.002817 
L 585.692308 196.531034 
L 497.609121 234.446897 
L 446.222535 266.801013 
L 398.881773 292.484348 
L 367.093886 313.522759 
L 338.905697 324.060347 
L 315.851786 337.967254 
L 299.655738 347.878868 
L 287.765337 356.601913 
L 275.702586 366.699375 
L 265.78125 371.372818 
L 256.22796 377.577846 
L 249.725864 381.996117 
L 243.885747 386.232 
L 237.710441 389.877432 
L 230.559633 393.643019 
L 225.200971 397.575 
L 218.778297 400.168606 
L 215.394075 401.659336 
L 210.502577 404.208 
L 205.732394 405.918579 
L 201.933492 407.425182 
L 197.663102 408.777741 
L 193.295455 410.497553 
L 190.681529 412.165528 
L 188.572608 413.789827 
L 185.421687 415.223529 
L 182.828571 416.48436 
L 181.029709 417.541172 
L 179.162011 418.604128 
L 177.559322 419.437639 
L 176.155806 420.062376 
L 175.043174 420.84 
L 173.785469 421.732789 
L 172.681486 423.024514 
L 171.851954 423.578802 
L 170.665049 424.037678 
L 169.208599 424.708373 
L 168.60219 425.148502 
L 167.225359 426.050818 
L 166.234493 426.588213 
L 164.952286 426.825425 
L 163.566553 427.326882 
L 161.635487 427.630409 
L 161.318247 428.383825 
L 159.767966 429.229407 
L 158.561144 429.529385 
L 157.816901 429.989301 
L 157.184636 430.291901 
L 156.918775 430.595466 
L 156.245514 431.210541 
L 155.290909 431.863535 
L 154.72365 432.315826 
L 154.135478 432.773695 
L 153.584416 433.2609 
L 153.407054 433.855157 
L 153.233046 434.233485 
L 152.699878 434.588286 
L 152.472501 434.809942 
L 151.640159 435.156923 
L 151.14685 435.33683 
L 150.663158 435.703119 
L 150.547988 436.585857 
L 150.055109 436.711712 
L 149.573051 436.805839 
L 148.459611 436.932849 
L 148.310281 437.196018 
L 148.130609 437.504124 
L 148.002529 437.759309 
L 147.590974 437.85689 
L 146.880767 437.927671 
L 146.763879 438.189367 
L 146.365947 438.319 
L 146.236833 438.380267 
L 145.866416 438.8359 
L 145.77439 438.949734 
L 145.694687 439.225336 
L 145.340234 439.467056 
L 145.264833 439.578236 
L 145.200593 439.824 
L 144.859948 439.924929 
L 144.505191 440.012706 
L 144.200776 440.396769 
L 144.118231 440.458121 
L 144.063057 440.875248 
L 143.735294 441.099975 
L 143.404142 441.320876 
L 142.580575 441.529565 
L 141.75419 441.746145 
L 141.462322 441.930107 
L 141.422652 442.122654 
L 141.129997 442.308024 
L 140.835405 442.526887 
L 140.538045 442.582642 
L 140.25 442.909793 
L 140.215727 442.946357 
L 140.184956 443.137432 
L 139.9163 443.178081 
L 139.897601 443.216137 
" style="fill:none;stroke:#ff7f0e;stroke-linecap:square;stroke-width:1.5;"/>
   </g>
   <g id="line2d_16">
    <path clip-path="url(#p95d68a8510)" d="M 972 60.48 
L 972 60.48 
L 965.082645 60.48 
L 958.222222 60.48 
L 957.932773 72.828 
L 957.506494 76.212973 
L 953.724891 77.961081 
L 949.68 79.709189 
L 941.701357 79.972603 
L 941.284404 83.412 
L 937.285714 86.820271 
L 936.962791 88.704 
L 932.88785 92.088326 
L 932.518868 92.523303 
L 932.518868 95.921096 
L 928.774648 99.465205 
L 928.570755 99.465205 
L 927.521739 104.380452 
L 926.867647 104.78137 
L 917.865672 106.978065 
L 913.990099 108.544954 
L 907.943878 112.583333 
L 906.609375 117.708387 
L 905.921053 122.501918 
L 896.31383 127.512 
L 890.119565 131.04 
L 889.21978 133.134247 
L 888.3 133.803871 
L 886.881356 139.169032 
L 873.252809 143.766575 
L 870.398844 150.036923 
L 864.315789 150.854795 
L 863.04142 152.208 
L 860.4 156.194798 
L 859.719512 159.2325 
L 854.615854 162.2432 
L 843.625767 166.1625 
L 841.21875 166.1625 
L 834.265823 166.1625 
L 831.6 170.378761 
L 830.688312 177.573103 
L 823.322368 180.918621 
L 808.948052 184.864615 
L 805.708609 185.986723 
L 802.337838 189.84 
L 797.625 190.927059 
L 793.055172 192.59234 
L 786.664286 199.66481 
L 782.605839 202.341176 
L 781.213235 206.214684 
L 770.386861 208.242678 
L 755.223022 211.847303 
L 753.652174 216.032727 
L 750.441176 219.24 
L 748.8 220.563 
L 740.88806 225.654545 
L 734.641791 229.968 
L 732.857143 232.069091 
L 731.045455 234.391369 
L 727.338462 237.751111 
L 727.338462 243.386557 
L 723.515625 244.898182 
L 719.571429 246.501818 
L 717.552 250.527407 
L 710.856 253.708117 
L 706.609756 256.137 
L 702.22314 258.512593 
L 690.655462 258.512593 
L 690.655462 260.156017 
L 690.655462 261.766307 
L 690.655462 263.450711 
L 688.271186 264.222 
L 683.37931 264.222 
L 683.37931 267.564706 
L 678.315789 270.69 
L 667.636364 272.16 
L 662 276.258921 
L 659.102804 276.258921 
L 659.102804 281.312134 
L 646.951456 283.175696 
L 643.764706 286.183431 
L 632.227723 288.088101 
L 628.83 289.052542 
L 621.826531 291.006154 
L 614.53125 292.993448 
L 614.53125 292.993448 
L 606.925532 297.072632 
L 594 298.11489 
L 585.692308 301.952 
L 563.232558 305.215135 
L 548.457831 307.44 
L 543.292683 310.339726 
L 543.292683 312.642581 
L 532.575 313.81 
L 521.307692 316.17757 
L 515.454545 319.2 
L 509.447368 321.617944 
L 496.945946 323.431402 
L 496.945946 327.170047 
L 490.438356 329.722105 
L 490.438356 329.722105 
" style="fill:none;stroke:#2ca02c;stroke-linecap:square;stroke-width:1.5;"/>
   </g>
   <g id="line2d_17">
    <path clip-path="url(#p95d68a8510)" d="M 972 60.48 
L 972 60.48 
L 967.438692 60.48 
L 962.902174 60.48 
L 962.77686 66.468889 
L 962.595506 68.838646 
L 960.144476 68.96925 
L 957.568966 68.995862 
L 952.363636 69.159105 
L 952.071429 71.63885 
L 949.378378 74.206302 
L 949.172727 75.649251 
L 946.325153 76.913355 
L 946.006211 77.2968 
L 945.84375 78.65097 
L 943.317757 80.014228 
L 943.04717 80.212881 
L 942.3 82.843932 
L 942.009772 83.308235 
L 936.207237 83.628632 
L 933.580328 83.628632 
L 929.727273 85.339217 
L 929.150171 86.814 
L 928.557093 88.2 
L 922.248252 89.690323 
L 918.192857 91.302238 
L 917.610108 91.753846 
L 917.014599 91.984649 
L 916.405904 96.280738 
L 906.657993 99.002647 
L 905.420455 103.126154 
L 901.176923 103.440886 
L 900.350195 103.440886 
L 898.63745 107.219562 
L 898.344 110.233846 
L 893.743902 112.884964 
L 886.241803 115.92 
L 884.447699 115.92 
L 879.788136 116.329151 
L 878.600858 118.977353 
L 877.792208 126.090647 
L 872.881579 129.129531 
L 861.868421 133.332563 
L 858.891892 133.332563 
L 857.342466 137.258417 
L 854.663551 137.535596 
L 849.028436 138.952059 
L 845.429268 145.772308 
L 842.910448 147.193846 
L 842.265 150.366176 
L 833.895 153.219706 
L 822.831683 154.993948 
L 821.34 158.94806 
L 819.818182 162.22382 
L 817.476923 163.771255 
L 812.365979 168.198023 
L 808.051546 173.242868 
L 807.202073 174.971034 
L 806.34375 176.904 
L 801.914439 180.458931 
L 801 184.902595 
L 799.141304 186.831628 
L 797.241758 187.323268 
L 796.276243 190.343346 
L 790.65 192.92 
L 788.61236 195.464348 
L 785.468571 197.449412 
L 777.348837 197.449412 
L 775.058824 198.532174 
L 771.520958 201.178327 
L 770.313253 202.308434 
L 769.090909 202.308434 
L 762.75 202.308434 
L 760.101266 204.038049 
L 757.384615 206.59919 
L 747.302013 207.193171 
L 741.103448 211.221818 
L 739.5 213.755294 
L 734.553191 218.343051 
L 725.823529 219.692308 
L 724 224.667692 
L 718.363636 226.083103 
L 712.465116 227.52313 
L 706.285714 228.988421 
L 702 231.2352 
L 697.57377 232.766637 
L 693 236.718165 
L 681.177966 239.177302 
L 676.163793 242.564929 
L 660.027273 246.083478 
L 651.280374 248.812941 
L 648.254717 250.677624 
L 648.254717 253.544925 
L 642.028846 254.52 
L 632.227723 256.5 
L 628.83 261.414822 
L 621.826531 263.475692 
L 614.53125 264.522062 
L 606.925532 268.817684 
L 603 272.16 
L 598.98913 272.16 
" style="fill:none;stroke:#d62728;stroke-linecap:square;stroke-width:1.5;"/>
   </g>
   <g id="line2d_18">
    <path clip-path="url(#p95d68a8510)" d="M 972 60.48 
L 972 61.397447 
L 968.468354 63.23234 
L 964.90678 63.252 
L 964.830835 67.802264 
L 964.705882 70.524424 
L 960.962637 71.541663 
L 955.334071 72.463468 
L 949.479821 73.571855 
L 949.120729 78.12 
L 946.87067 80.070577 
L 946.636364 82.977391 
L 944.363208 84.852174 
L 944.033413 86.161765 
L 940.038186 88.2 
L 937.877698 90.332308 
L 937.630435 92.416758 
L 936.866667 94.607638 
L 934.335 95.218619 
L 929.727273 96.580465 
L 927.501266 97.776 
L 922.255814 100.100733 
L 921.736292 101.223307 
L 920.93634 102.24189 
L 913.968 103.373053 
L 910.589674 105.534142 
L 909.914835 106.01472 
L 907.259669 108.08448 
L 906.536313 111.18912 
L 898.70339 114.008276 
L 895.034483 116.946667 
L 891.472303 117.3984 
L 890.522124 117.550588 
L 889.054054 121.214005 
L 886.024169 123.439787 
L 882.412844 125.331565 
L 876.416667 128.600426 
L 874.613208 128.600426 
L 870.707006 129.81696 
L 869.067961 131.696809 
L 868.058824 136.673717 
L 864.267327 139.721466 
L 855.596026 143.202316 
L 850.818182 143.202316 
L 849.581633 147.059528 
L 847.03125 148.07811 
L 842.323944 150.275106 
L 839.046931 155.68896 
L 836.602941 156.72384 
L 834.58209 159.056471 
L 825.212687 161.401609 
L 811.394834 163.482466 
L 809.597015 166.702439 
L 807.136364 169.69377 
L 804.6 171.206427 
L 800.722008 174.431468 
L 796.132296 178.08 
L 794.752941 179.722458 
L 793.351779 181.143529 
L 789.75 184.058547 
L 788.268293 188.038329 
L 786.762295 189.475606 
L 784.456432 189.84 
L 782.092437 192.78 
L 774.227848 195.415862 
L 771.692308 197.253181 
L 766.421053 199.08 
L 758.058296 199.790769 
L 754.150685 201.396657 
L 750.097674 203.338435 
L 749.060748 204.171429 
L 745.890995 205.302857 
L 739.273171 205.302857 
L 736.980296 208.428387 
L 734.641791 211.146353 
L 726.07732 211.590796 
L 719.571429 214.553552 
L 715.5 216.888 
L 709.862637 220.208049 
L 702.457627 221.187975 
L 699.377143 226.971111 
L 694.622093 228.68805 
L 686.435294 230.945047 
L 681.305389 233.773585 
L 672.333333 236.541853 
L 668.5875 239.593846 
L 664.746835 243.105882 
L 655.442308 245.524768 
L 649.235294 250.586757 
L 636.061224 253.857747 
L 626.664336 257.877093 
L 624.232394 259.947692 
L 624.232394 262.718873 
L 619.264286 264.085352 
L 611.540146 266.259075 
L 603.470149 271.152 
L 595.030534 274.54548 
L 589.186047 276.696 
L 583.15748 280.6272 
L 580.071429 283.055294 
L 570.24 283.055294 
" style="fill:none;stroke:#9467bd;stroke-linecap:square;stroke-width:1.5;"/>
   </g>
   <g id="line2d_19">
    <path clip-path="url(#p95d68a8510)" d="M 972 60.48 
L 912.871272 75.433541 
L 863.959941 92.535817 
L 820.139241 106.68 
L 785.371622 123.904078 
L 752.137841 136.88325 
L 721.633292 152.408996 
L 690.3076 162.160349 
L 662.3979 174.653465 
L 636.259551 186.856119 
L 615.245902 197.509565 
L 597.130851 211.616683 
L 578.679461 218.938093 
L 556.841317 228.648 
L 543.332362 235.319302 
L 527.491525 243.703208 
L 512.876374 252.166703 
L 497.474394 259.956466 
L 483.015789 268.133277 
L 468.799317 273.904016 
L 459.565327 277.741826 
L 445.35603 282.90197 
L 433.880705 286.508825 
L 420.281832 290.481081 
L 409.779123 294.214196 
L 396.716814 298.323806 
L 387.667867 302.094545 
L 379.272152 305.435816 
L 370.693681 309.495146 
L 361.125 312.580538 
L 351.87674 315.333561 
L 345.48654 318.548312 
L 338.856959 321.963648 
L 332.661999 324.235912 
L 328.681589 327.632051 
L 323.54636 330.013688 
L 318.99569 333.385951 
L 313.702555 335.787132 
L 308.346177 337.555135 
L 303 339.367483 
L 299.437168 341.483912 
L 295.036364 343.635703 
L 290.754783 346.63721 
L 286.351894 347.703051 
L 281.734498 350.260763 
L 277.308725 352.073077 
L 274.189655 354.198082 
L 268.495033 357.402037 
L 263.87432 358.963007 
L 260.1 360.746277 
L 257.563898 362.631643 
L 255.644667 364.425469 
L 253.133821 366.35462 
L 250.103788 368.241702 
L 247.465116 369.999283 
L 245.28907 371.829354 
L 243.232759 373.798953 
L 241.573226 375.554851 
L 239.938561 376.719852 
L 236.870343 378 
L 234.897348 379.552405 
L 232.751825 380.855396 
L 230.784162 381.808399 
L 228.57764 383.537778 
L 226.982398 385.014737 
L 224.084674 385.864968 
L 221.098168 386.485063 
L 217.020532 387.202603 
L 214.4375 388.3635 
L 211.405046 389.494837 
L 210.398544 390.413333 
L 208.440977 391.170938 
L 204.687219 391.521065 
L 203.349398 392.752035 
L 201.293363 394.305395 
L 198.280879 394.665894 
L 195.806127 396.128139 
L 194.03091 397.667696 
L 192.398438 398.907366 
L 190.365759 399.558956 
L 189.289948 401.283305 
L 188.006418 402.292059 
L 186.019182 403.509589 
L 184.235294 404.725057 
L 182.11003 405.929242 
L 181.050819 406.745326 
L 179.80803 408.427427 
L 178.466971 409.477045 
L 176.867301 410.889949 
L 174.33141 411.78629 
L 172.749077 412.961684 
L 171.926471 413.82684 
L 171.686688 414.738287 
L 170.170909 415.065 
L 168.655006 415.949838 
L 167.359107 417.058152 
L 165.53291 417.792957 
L 164.385799 418.346809 
L 163.590106 419.397919 
L 162.801876 420.413948 
L 162.073655 420.972252 
" style="fill:none;stroke:#8c564b;stroke-linecap:square;stroke-width:1.5;"/>
   </g>
   <g id="line2d_20">
    <path clip-path="url(#p95d68a8510)" d="M 972 60.48 
L 970.848693 61.132235 
L 968.522161 63.088941 
L 966.155028 63.106599 
L 966.088983 66.350118 
L 965.978417 68.32 
L 963.508696 69.030915 
L 959.709251 69.704312 
L 955.808036 71.148866 
L 951.861654 74.434932 
L 950.37538 75.869379 
L 950.142857 77.936886 
L 948.53271 79.279723 
L 948.236593 80.224421 
L 944.144216 81.697778 
L 942.678344 83.349 
L 942.443018 84.909496 
L 941.911765 86.5872 
L 940.021595 86.972546 
L 935.608696 88.044561 
L 932.677852 88.876098 
L 927.797274 90.615 
L 927.263793 91.645124 
L 926.638112 92.509635 
L 920.605263 93.444324 
L 918 95.076279 
L 915.896739 95.346563 
L 913.853748 96.933699 
L 913.317343 99.288 
L 904.977654 101.490411 
L 902.117647 103.684219 
L 899.567308 103.938861 
L 895.315789 104.110296 
L 894.10099 106.988605 
L 890.137725 108.608031 
L 887.625 110.03835 
L 883.536585 112.530178 
L 881.701245 112.944095 
L 878.608421 113.821673 
L 877.008565 115.367809 
L 875.772234 119.419172 
L 869.210526 121.836522 
L 862.503326 124.517058 
L 858.891892 124.772695 
L 857.342466 127.736892 
L 853.538283 129.056386 
L 850.183099 131.326247 
L 845.242788 136.028361 
L 843.07335 137.295835 
L 840.501247 139.058182 
L 833.895 141.161913 
L 824.171642 143.29205 
L 823.06015 145.808372 
L 821.170051 148.191045 
L 818.837629 149.327689 
L 815.875648 152.04 
L 810.703125 155.194989 
L 809.858639 156.228996 
L 808.575198 157.5 
L 805.946381 161.124923 
L 804.6 164.996026 
L 802.770492 165.927127 
L 801.371901 166.1625 
L 799.95 169.491236 
L 794.312849 171.36 
L 790.769231 173.12 
L 785.191304 174.621176 
L 778.272997 175.499186 
L 775.355422 176.815195 
L 769.876161 178.513548 
L 767.98125 179.335128 
L 765.398734 180.514047 
L 754.490132 180.514047 
L 753.049669 183.175082 
L 749.363636 185.873774 
L 741.103448 186.170213 
L 736.225352 188.909353 
L 731.136691 190.784234 
L 724.565693 193.31912 
L 719.966543 193.971892 
L 718.078652 198.805545 
L 715.193182 200.459104 
L 708.023077 203.0994 
L 701.684825 205.88719 
L 695.223108 208.746462 
L 690.740891 211.511134 
L 686.111111 215.304567 
L 679.05 216.947268 
L 672.817021 220.523774 
L 663.631579 222.883043 
L 655.297297 225.733846 
L 652.418182 228.648 
L 650.958904 231.148235 
L 644.986047 232.235294 
L 637.2 234.787119 
L 630.699029 239.085 
L 620.46 242.910769 
L 611.446154 244.5408 
L 607.709845 248.368876 
L 601.957895 251.674839 
L 593.569149 252.802832 
" style="fill:none;stroke:#e377c2;stroke-linecap:square;stroke-width:1.5;"/>
   </g>
   <g id="line2d_21">
    <path clip-path="url(#p95d68a8510)" d="M 972 60.48 
L 972 60.48 
L 969.958537 60.48 
L 967.866667 60.48 
L 967.815 63.406697 
L 967.735032 64.602246 
L 966.6 64.646503 
L 965.409449 64.659323 
L 963.083888 64.731268 
L 962.939107 65.954483 
L 961.709016 67.223886 
L 961.595304 67.907368 
L 960.277311 68.552064 
L 960.12766 68.67 
L 960.025751 69.357647 
L 958.752518 70.133731 
L 958.637155 70.247114 
L 958.400295 71.661966 
L 958.175676 71.81567 
L 955.538578 71.973659 
L 954.191489 72.034046 
L 952.595054 72.843611 
L 952.382812 73.647 
L 952.103011 74.439712 
L 949.2336 75.243913 
L 947.382353 76.088336 
L 947.056291 76.203315 
L 946.80602 76.290667 
L 946.464407 78.513457 
L 941.798969 79.992402 
L 941.163158 82.120149 
L 939.234875 82.241495 
L 938.580762 82.323152 
L 938.088398 84.507467 
L 937.645522 86.059661 
L 935.677358 87.521356 
L 932.218631 89.199393 
L 931.368932 89.419044 
L 929.161417 89.530134 
L 928.476 91.019885 
L 927.768293 95.15635 
L 925.404124 96.769924 
L 919.578288 99.213512 
L 918.574468 99.362775 
L 917.766739 101.685405 
L 916.446903 102.087018 
L 913.95302 102.83 
L 912.351724 107.142926 
L 910.948235 108.207581 
L 909.776978 109.872 
L 905.282609 111.750732 
L 899.217391 112.96623 
L 898.686131 115.116522 
L 897.6 117.193152 
L 896.481203 117.912558 
L 893.398477 120.62828 
L 890.654731 123.789661 
L 889.813953 124.467495 
L 888.955614 125.717586 
L 887.633952 128.52 
L 886.957219 131.501176 
L 886.037838 132.125538 
L 884.860274 132.283348 
L 884.138122 134.811581 
L 880.818436 135.648649 
L 878.467049 137.396757 
L 876.272727 138.96809 
L 870.851964 139.322438 
L 868.984615 140.222466 
L 866.050633 141.851613 
L 865.035144 142.418005 
L 863.650485 142.992336 
L 858.891892 142.992336 
L 858.122449 143.96766 
L 856.152249 146.823158 
L 852 147.030216 
L 848.911765 149.454439 
L 846.135338 150.775842 
L 843.724138 153.155821 
L 841.21875 154.087236 
L 840.188976 158.240611 
L 838.613546 158.992615 
L 835.902439 160.272 
L 832.5 162.12 
L 828.923077 163.759355 
L 826.434783 164.881957 
L 823.858407 167.202 
L 817.418919 168.401124 
L 813.125 170.565731 
L 807.803828 171.842087 
L 802.113861 174.148402 
L 799.552764 175.855135 
L 798.681818 177.613902 
L 794.19171 177.97211 
L 789.462766 180.168224 
L 785.494565 185.351167 
L 779.207865 187.352308 
L 773.635838 188.170839 
L 770.135294 190.264131 
L 766.508982 192.868495 
L 760.166667 193.76 
" style="fill:none;stroke:#7f7f7f;stroke-linecap:square;stroke-width:1.5;"/>
   </g>
   <g id="line2d_22">
    <path clip-path="url(#p95d68a8510)" d="M 972 60.48 
L 947.907249 67.171034 
L 920.66632 78.074301 
L 898.323439 83.455135 
L 875.261307 92.249773 
L 853.854871 98.755056 
L 836.20354 108.097178 
L 813.692532 113.975913 
L 792.75717 122.758707 
L 775.1983 132.649263 
L 758.662326 139.175249 
L 744.495868 150.609064 
L 729.810737 155.987439 
L 713.017937 163.370297 
L 700.160177 168.397557 
L 684.530789 175.606214 
L 671.337031 181.262118 
L 655.392586 187.510424 
L 641.109258 195.622204 
L 627.312551 199.883478 
L 617.545749 202.655851 
L 602.302716 208.584 
L 588.375 211.44391 
L 571.835511 214.847854 
L 557.281627 217.978731 
L 541.667411 222.373653 
L 531.311487 226.03 
L 519.862419 229.310079 
L 508.256757 233.465806 
L 495.989429 236.640466 
L 484.773585 239.794582 
L 477.382578 243.47408 
L 468.410788 247.266168 
L 460.5 249.470632 
L 454.456908 253.987411 
L 447.669153 256.976203 
L 441.467296 261.462397 
L 433.6875 264.023295 
L 426.470314 266.658185 
L 420.479761 268.610394 
L 413.263852 271.429439 
L 407.409449 274.306427 
L 400.549837 277.659353 
L 393.916342 279.084112 
L 386.367412 282.51906 
L 379.636886 284.559665 
L 375.358323 287.347538 
L 367.793932 291.256514 
L 359.94375 294.100299 
L 353.843866 296.271393 
L 349.654982 298.808276 
L 346.678681 301.368157 
L 342.478839 303.7824 
L 338.33614 306.032248 
L 334.596165 308.271129 
L 329.883582 310.833953 
L 326.086801 313.616115 
L 322.817052 315.486316 
L 319.849823 317.451892 
L 315.827283 319.405008 
L 312.383903 322.158549 
L 308.571429 323.678238 
L 305.180412 325.355195 
L 302.115145 328.152597 
L 299.275452 330.513994 
L 294.631579 331.866708 
L 290.139718 332.612903 
L 284.279865 334.418824 
L 280.241379 336.073043 
L 274.654656 337.806575 
L 272.122595 339.192 
L 269.395412 340.531679 
L 263.382642 341.100677 
L 261.185466 342.852731 
L 257.982239 345.285337 
L 253.15942 345.576252 
L 249.522715 348.419686 
L 246.09435 350.527869 
L 243.244279 352.332294 
L 240.179745 353.843145 
L 238.523684 356.570667 
L 236.441238 358.103118 
L 233.496339 360.553563 
L 229.836798 362.729168 
L 227.274571 364.367334 
L 225.018614 365.86368 
L 222.969088 368.586898 
L 220.373142 370.049935 
L 217.159509 372.12 
L 213.57551 373.456748 
L 210.317234 375.621004 
L 208.778116 376.961608 
L 207.837525 378.733419 
L 205.519559 379.487863 
L 202.797 381.716327 
L 200.150719 383.788125 
L 197.382527 385.390573 
L 195.109198 386.248563 
L 193.261765 387.914001 
L 191.426966 389.628328 
L 189.355957 390.766597 
" style="fill:none;stroke:#bcbd22;stroke-linecap:square;stroke-width:1.5;"/>
   </g>
   <g id="line2d_23">
    <path clip-path="url(#p95d68a8510)" d="M 972 60.48 
L 960.489194 63.298983 
L 956.33202 66.104348 
L 949.602577 69.831325 
L 947.678357 76.150689 
L 940.686552 81.581277 
L 932.102434 86.077739 
L 923.317347 88.687456 
L 916.888889 92.094545 
L 910.481366 97.331676 
L 904.275934 101.832787 
L 900.4317 107.067692 
L 896.149631 111.625803 
L 883.20063 115.7275 
L 876.746048 120.322025 
L 871.914286 124.114365 
L 868.820404 128.595658 
L 862.670236 133.356774 
L 856.427184 136.661986 
L 846.135338 140.60263 
L 839.983906 143.894897 
L 833.555676 146.769677 
L 830.213115 150.48248 
L 825.871823 154.841918 
L 819.818182 157.056986 
L 812.123596 160.044424 
L 802.528684 162.162288 
L 797.033898 164.382426 
L 794.483466 167.81184 
L 785.892857 173.049481 
L 779.071013 175.902222 
L 774.306698 177.948161 
L 767.950296 180.0225 
L 762.75 183.529756 
L 759.476534 185.833274 
L 754.663043 188.272863 
L 748.8 191.830154 
L 741.492044 192.838411 
L 736.108776 194.256476 
L 729.134496 197.324803 
L 724.704545 200.876112 
L 720.687023 203.964714 
L 714.461538 208.100948 
L 707.4 209.613003 
L 702.457627 212.969679 
L 695.579921 215.546154 
L 691.149867 217.71931 
L 685.125 222.005189 
L 679.334694 224.326616 
L 672.743836 226.73987 
L 667.010959 229.74 
L 659.550409 232.308078 
L 657.407407 234.505016 
L 652.64876 237.033225 
L 649.9875 239.072977 
L 642.343575 241.809956 
L 636.493671 245.460586 
L 630.560907 247.756078 
L 626.024148 250.292549 
L 623.050143 253.045212 
L 620.844828 256.21098 
L 615.008646 258.324706 
L 611.036179 260.220849 
L 607.558781 262.808675 
L 602.986861 264.552871 
L 596.153619 267.257856 
L 591.659193 268.893333 
L 584.028875 270.230022 
L 579.09633 271.772733 
L 569.670788 274.990154 
L 565.866252 276.08 
L 561.346875 278.349474 
L 552.167197 279.277557 
L 548.151757 281.936386 
L 542.080257 285.157895 
L 531.75974 286.472061 
L 526.699507 289.58747 
L 520.131229 292.475077 
L 514.815126 295.281138 
L 508.888325 296.739692 
L 506.684746 300.352848 
L 502.255102 302.655612 
L 493.304795 305.017674 
L 486.65625 307.714095 
L 480.940455 310.700846 
L 475.399648 312.277726 
L 471.281416 315.442056 
L 465.629893 317.469431 
L 457.735135 320.645363 
L 448.683729 322.520625 
L 441.332717 325.277315 
L 437.379888 327.04 
L 436.382463 328.982302 
L 430.227017 329.992153 
L 421.342105 332.971053 
L 415.585227 336.36 
L 405.982759 338.626075 
L 398.380309 340.00308 
L 393.413592 342.036902 
L 388.388672 344.213547 
L 381.660118 345.66336 
" style="fill:none;stroke:#17becf;stroke-linecap:square;stroke-width:1.5;"/>
   </g>
   <g id="patch_3">
    <path d="M 135 448.56 
L 135 60.48 
" style="fill:none;stroke:#000000;stroke-linecap:square;stroke-linejoin:miter;stroke-width:0.8;"/>
   </g>
   <g id="patch_4">
    <path d="M 972 448.56 
L 972 60.48 
" style="fill:none;stroke:#000000;stroke-linecap:square;stroke-linejoin:miter;stroke-width:0.8;"/>
   </g>
   <g id="patch_5">
    <path d="M 135 448.56 
L 972 448.56 
" style="fill:none;stroke:#000000;stroke-linecap:square;stroke-linejoin:miter;stroke-width:0.8;"/>
   </g>
   <g id="patch_6">
    <path d="M 135 60.48 
L 972 60.48 
" style="fill:none;stroke:#000000;stroke-linecap:square;stroke-linejoin:miter;stroke-width:0.8;"/>
   </g>
   <g id="legend_1">
    <g id="patch_7">
     <path d="M 147.6 339.08625 
L 256.730625 339.08625 
Q 260.330625 339.08625 260.330625 335.48625 
L 260.330625 73.08 
Q 260.330625 69.48 256.730625 69.48 
L 147.6 69.48 
Q 144 69.48 144 73.08 
L 144 335.48625 
Q 144 339.08625 147.6 339.08625 
z
" style="fill:#ffffff;opacity:0.8;stroke:#cccccc;stroke-linejoin:miter;"/>
    </g>
    <g id="line2d_24">
     <path d="M 151.2 84.057188 
L 187.2 84.057188 
" style="fill:none;stroke:#1f77b4;stroke-linecap:square;stroke-width:1.5;"/>
    </g>
    <g id="line2d_25"/>
    <g id="text_15">
     <!-- 0.001 -->
     <g transform="translate(201.6 90.357188)scale(0.18 -0.18)">
      <use xlink:href="#DejaVuSans-30"/>
      <use x="63.623047" xlink:href="#DejaVuSans-2e"/>
      <use x="95.410156" xlink:href="#DejaVuSans-30"/>
      <use x="159.033203" xlink:href="#DejaVuSans-30"/>
      <use x="222.65625" xlink:href="#DejaVuSans-31"/>
     </g>
    </g>
    <g id="line2d_26">
     <path d="M 151.2 110.477812 
L 187.2 110.477812 
" style="fill:none;stroke:#ff7f0e;stroke-linecap:square;stroke-width:1.5;"/>
    </g>
    <g id="line2d_27"/>
    <g id="text_16">
     <!-- 0.011 -->
     <g transform="translate(201.6 116.777812)scale(0.18 -0.18)">
      <use xlink:href="#DejaVuSans-30"/>
      <use x="63.623047" xlink:href="#DejaVuSans-2e"/>
      <use x="95.410156" xlink:href="#DejaVuSans-30"/>
      <use x="159.033203" xlink:href="#DejaVuSans-31"/>
      <use x="222.65625" xlink:href="#DejaVuSans-31"/>
     </g>
    </g>
    <g id="line2d_28">
     <path d="M 151.2 136.898438 
L 187.2 136.898438 
" style="fill:none;stroke:#2ca02c;stroke-linecap:square;stroke-width:1.5;"/>
    </g>
    <g id="line2d_29"/>
    <g id="text_17">
     <!-- 0.021 -->
     <g transform="translate(201.6 143.198438)scale(0.18 -0.18)">
      <use xlink:href="#DejaVuSans-30"/>
      <use x="63.623047" xlink:href="#DejaVuSans-2e"/>
      <use x="95.410156" xlink:href="#DejaVuSans-30"/>
      <use x="159.033203" xlink:href="#DejaVuSans-32"/>
      <use x="222.65625" xlink:href="#DejaVuSans-31"/>
     </g>
    </g>
    <g id="line2d_30">
     <path d="M 151.2 163.319062 
L 187.2 163.319062 
" style="fill:none;stroke:#d62728;stroke-linecap:square;stroke-width:1.5;"/>
    </g>
    <g id="line2d_31"/>
    <g id="text_18">
     <!-- 0.031 -->
     <g transform="translate(201.6 169.619062)scale(0.18 -0.18)">
      <defs>
       <path d="M 2597 2516 
Q 3050 2419 3304 2112 
Q 3559 1806 3559 1356 
Q 3559 666 3084 287 
Q 2609 -91 1734 -91 
Q 1441 -91 1130 -33 
Q 819 25 488 141 
L 488 750 
Q 750 597 1062 519 
Q 1375 441 1716 441 
Q 2309 441 2620 675 
Q 2931 909 2931 1356 
Q 2931 1769 2642 2001 
Q 2353 2234 1838 2234 
L 1294 2234 
L 1294 2753 
L 1863 2753 
Q 2328 2753 2575 2939 
Q 2822 3125 2822 3475 
Q 2822 3834 2567 4026 
Q 2313 4219 1838 4219 
Q 1578 4219 1281 4162 
Q 984 4106 628 3988 
L 628 4550 
Q 988 4650 1302 4700 
Q 1616 4750 1894 4750 
Q 2613 4750 3031 4423 
Q 3450 4097 3450 3541 
Q 3450 3153 3228 2886 
Q 3006 2619 2597 2516 
z
" id="DejaVuSans-33" transform="scale(0.015625)"/>
      </defs>
      <use xlink:href="#DejaVuSans-30"/>
      <use x="63.623047" xlink:href="#DejaVuSans-2e"/>
      <use x="95.410156" xlink:href="#DejaVuSans-30"/>
      <use x="159.033203" xlink:href="#DejaVuSans-33"/>
      <use x="222.65625" xlink:href="#DejaVuSans-31"/>
     </g>
    </g>
    <g id="line2d_32">
     <path d="M 151.2 189.739688 
L 187.2 189.739688 
" style="fill:none;stroke:#9467bd;stroke-linecap:square;stroke-width:1.5;"/>
    </g>
    <g id="line2d_33"/>
    <g id="text_19">
     <!-- 0.041 -->
     <g transform="translate(201.6 196.039688)scale(0.18 -0.18)">
      <use xlink:href="#DejaVuSans-30"/>
      <use x="63.623047" xlink:href="#DejaVuSans-2e"/>
      <use x="95.410156" xlink:href="#DejaVuSans-30"/>
      <use x="159.033203" xlink:href="#DejaVuSans-34"/>
      <use x="222.65625" xlink:href="#DejaVuSans-31"/>
     </g>
    </g>
    <g id="line2d_34">
     <path d="M 151.2 216.160312 
L 187.2 216.160312 
" style="fill:none;stroke:#8c564b;stroke-linecap:square;stroke-width:1.5;"/>
    </g>
    <g id="line2d_35"/>
    <g id="text_20">
     <!-- 0.051 -->
     <g transform="translate(201.6 222.460312)scale(0.18 -0.18)">
      <defs>
       <path d="M 691 4666 
L 3169 4666 
L 3169 4134 
L 1269 4134 
L 1269 2991 
Q 1406 3038 1543 3061 
Q 1681 3084 1819 3084 
Q 2600 3084 3056 2656 
Q 3513 2228 3513 1497 
Q 3513 744 3044 326 
Q 2575 -91 1722 -91 
Q 1428 -91 1123 -41 
Q 819 9 494 109 
L 494 744 
Q 775 591 1075 516 
Q 1375 441 1709 441 
Q 2250 441 2565 725 
Q 2881 1009 2881 1497 
Q 2881 1984 2565 2268 
Q 2250 2553 1709 2553 
Q 1456 2553 1204 2497 
Q 953 2441 691 2322 
L 691 4666 
z
" id="DejaVuSans-35" transform="scale(0.015625)"/>
      </defs>
      <use xlink:href="#DejaVuSans-30"/>
      <use x="63.623047" xlink:href="#DejaVuSans-2e"/>
      <use x="95.410156" xlink:href="#DejaVuSans-30"/>
      <use x="159.033203" xlink:href="#DejaVuSans-35"/>
      <use x="222.65625" xlink:href="#DejaVuSans-31"/>
     </g>
    </g>
    <g id="line2d_36">
     <path d="M 151.2 242.580937 
L 187.2 242.580937 
" style="fill:none;stroke:#e377c2;stroke-linecap:square;stroke-width:1.5;"/>
    </g>
    <g id="line2d_37"/>
    <g id="text_21">
     <!-- 0.061 -->
     <g transform="translate(201.6 248.880937)scale(0.18 -0.18)">
      <use xlink:href="#DejaVuSans-30"/>
      <use x="63.623047" xlink:href="#DejaVuSans-2e"/>
      <use x="95.410156" xlink:href="#DejaVuSans-30"/>
      <use x="159.033203" xlink:href="#DejaVuSans-36"/>
      <use x="222.65625" xlink:href="#DejaVuSans-31"/>
     </g>
    </g>
    <g id="line2d_38">
     <path d="M 151.2 269.001562 
L 187.2 269.001562 
" style="fill:none;stroke:#7f7f7f;stroke-linecap:square;stroke-width:1.5;"/>
    </g>
    <g id="line2d_39"/>
    <g id="text_22">
     <!-- 0.071 -->
     <g transform="translate(201.6 275.301562)scale(0.18 -0.18)">
      <defs>
       <path d="M 525 4666 
L 3525 4666 
L 3525 4397 
L 1831 0 
L 1172 0 
L 2766 4134 
L 525 4134 
L 525 4666 
z
" id="DejaVuSans-37" transform="scale(0.015625)"/>
      </defs>
      <use xlink:href="#DejaVuSans-30"/>
      <use x="63.623047" xlink:href="#DejaVuSans-2e"/>
      <use x="95.410156" xlink:href="#DejaVuSans-30"/>
      <use x="159.033203" xlink:href="#DejaVuSans-37"/>
      <use x="222.65625" xlink:href="#DejaVuSans-31"/>
     </g>
    </g>
    <g id="line2d_40">
     <path d="M 151.2 295.422188 
L 187.2 295.422188 
" style="fill:none;stroke:#bcbd22;stroke-linecap:square;stroke-width:1.5;"/>
    </g>
    <g id="line2d_41"/>
    <g id="text_23">
     <!-- 0.081 -->
     <g transform="translate(201.6 301.722188)scale(0.18 -0.18)">
      <use xlink:href="#DejaVuSans-30"/>
      <use x="63.623047" xlink:href="#DejaVuSans-2e"/>
      <use x="95.410156" xlink:href="#DejaVuSans-30"/>
      <use x="159.033203" xlink:href="#DejaVuSans-38"/>
      <use x="222.65625" xlink:href="#DejaVuSans-31"/>
     </g>
    </g>
    <g id="line2d_42">
     <path d="M 151.2 321.842812 
L 187.2 321.842812 
" style="fill:none;stroke:#17becf;stroke-linecap:square;stroke-width:1.5;"/>
    </g>
    <g id="line2d_43"/>
    <g id="text_24">
     <!-- 0.091 -->
     <g transform="translate(201.6 328.142812)scale(0.18 -0.18)">
      <defs>
       <path d="M 703 97 
L 703 672 
Q 941 559 1184 500 
Q 1428 441 1663 441 
Q 2288 441 2617 861 
Q 2947 1281 2994 2138 
Q 2813 1869 2534 1725 
Q 2256 1581 1919 1581 
Q 1219 1581 811 2004 
Q 403 2428 403 3163 
Q 403 3881 828 4315 
Q 1253 4750 1959 4750 
Q 2769 4750 3195 4129 
Q 3622 3509 3622 2328 
Q 3622 1225 3098 567 
Q 2575 -91 1691 -91 
Q 1453 -91 1209 -44 
Q 966 3 703 97 
z
M 1959 2075 
Q 2384 2075 2632 2365 
Q 2881 2656 2881 3163 
Q 2881 3666 2632 3958 
Q 2384 4250 1959 4250 
Q 1534 4250 1286 3958 
Q 1038 3666 1038 3163 
Q 1038 2656 1286 2365 
Q 1534 2075 1959 2075 
z
" id="DejaVuSans-39" transform="scale(0.015625)"/>
      </defs>
      <use xlink:href="#DejaVuSans-30"/>
      <use x="63.623047" xlink:href="#DejaVuSans-2e"/>
      <use x="95.410156" xlink:href="#DejaVuSans-30"/>
      <use x="159.033203" xlink:href="#DejaVuSans-39"/>
      <use x="222.65625" xlink:href="#DejaVuSans-31"/>
     </g>
    </g>
   </g>
  </g>
 </g>
 <defs>
  <clipPath id="p95d68a8510">
   <rect height="388.08" width="837" x="135" y="60.48"/>
  </clipPath>
 </defs>
</svg>
