<?xml version="1.0" encoding="utf-8" standalone="no"?>
<!DOCTYPE svg PUBLIC "-//W3C//DTD SVG 1.1//EN"
  "http://www.w3.org/Graphics/SVG/1.1/DTD/svg11.dtd">
<svg height="504pt" version="1.1" viewBox="0 0 1080 504" width="1080pt" xmlns="http://www.w3.org/2000/svg" xmlns:xlink="http://www.w3.org/1999/xlink">
 <metadata>
  <rdf:RDF xmlns:cc="http://creativecommons.org/ns#" xmlns:dc="http://purl.org/dc/elements/1.1/" xmlns:rdf="http://www.w3.org/1999/02/22-rdf-syntax-ns#">
   <cc:Work>
    <dc:type rdf:resource="http://purl.org/dc/dcmitype/StillImage"/>
    <dc:date>2022-01-07T13:22:37.614792</dc:date>
    <dc:format>image/svg+xml</dc:format>
    <dc:creator>
     <cc:Agent>
      <dc:title>Matplotlib v3.4.3, https://matplotlib.org/</dc:title>
     </cc:Agent>
    </dc:creator>
   </cc:Work>
  </rdf:RDF>
 </metadata>
 <defs>
  <style type="text/css">*{stroke-linecap:butt;stroke-linejoin:round;}</style>
 </defs>
 <g id="figure_1">
  <g id="patch_1">
   <path d="M 0 504 
L 1080 504 
L 1080 0 
L 0 0 
z
" style="fill:#ffffff;"/>
  </g>
  <g id="axes_1">
   <g id="patch_2">
    <path d="M 135 448.56 
L 972 448.56 
L 972 60.48 
L 135 60.48 
z
" style="fill:#ffffff;"/>
   </g>
   <g id="matplotlib.axis_1">
    <g id="xtick_1">
     <g id="line2d_1">
      <defs>
       <path d="M 0 0 
L 0 3.5 
" id="m1be47e19b2" style="stroke:#000000;stroke-width:0.8;"/>
      </defs>
      <g>
       <use style="stroke:#000000;stroke-width:0.8;" x="135" xlink:href="#m1be47e19b2" y="448.56"/>
      </g>
     </g>
     <g id="text_1">
      <!-- 0.0 -->
      <g transform="translate(120.687187 469.237188)scale(0.18 -0.18)">
       <defs>
        <path d="M 2034 4250 
Q 1547 4250 1301 3770 
Q 1056 3291 1056 2328 
Q 1056 1369 1301 889 
Q 1547 409 2034 409 
Q 2525 409 2770 889 
Q 3016 1369 3016 2328 
Q 3016 3291 2770 3770 
Q 2525 4250 2034 4250 
z
M 2034 4750 
Q 2819 4750 3233 4129 
Q 3647 3509 3647 2328 
Q 3647 1150 3233 529 
Q 2819 -91 2034 -91 
Q 1250 -91 836 529 
Q 422 1150 422 2328 
Q 422 3509 836 4129 
Q 1250 4750 2034 4750 
z
" id="DejaVuSans-30" transform="scale(0.015625)"/>
        <path d="M 684 794 
L 1344 794 
L 1344 0 
L 684 0 
L 684 794 
z
" id="DejaVuSans-2e" transform="scale(0.015625)"/>
       </defs>
       <use xlink:href="#DejaVuSans-30"/>
       <use x="63.623047" xlink:href="#DejaVuSans-2e"/>
       <use x="95.410156" xlink:href="#DejaVuSans-30"/>
      </g>
     </g>
    </g>
    <g id="xtick_2">
     <g id="line2d_2">
      <g>
       <use style="stroke:#000000;stroke-width:0.8;" x="302.4" xlink:href="#m1be47e19b2" y="448.56"/>
      </g>
     </g>
     <g id="text_2">
      <!-- 0.2 -->
      <g transform="translate(288.087187 469.237188)scale(0.18 -0.18)">
       <defs>
        <path d="M 1228 531 
L 3431 531 
L 3431 0 
L 469 0 
L 469 531 
Q 828 903 1448 1529 
Q 2069 2156 2228 2338 
Q 2531 2678 2651 2914 
Q 2772 3150 2772 3378 
Q 2772 3750 2511 3984 
Q 2250 4219 1831 4219 
Q 1534 4219 1204 4116 
Q 875 4013 500 3803 
L 500 4441 
Q 881 4594 1212 4672 
Q 1544 4750 1819 4750 
Q 2544 4750 2975 4387 
Q 3406 4025 3406 3419 
Q 3406 3131 3298 2873 
Q 3191 2616 2906 2266 
Q 2828 2175 2409 1742 
Q 1991 1309 1228 531 
z
" id="DejaVuSans-32" transform="scale(0.015625)"/>
       </defs>
       <use xlink:href="#DejaVuSans-30"/>
       <use x="63.623047" xlink:href="#DejaVuSans-2e"/>
       <use x="95.410156" xlink:href="#DejaVuSans-32"/>
      </g>
     </g>
    </g>
    <g id="xtick_3">
     <g id="line2d_3">
      <g>
       <use style="stroke:#000000;stroke-width:0.8;" x="469.8" xlink:href="#m1be47e19b2" y="448.56"/>
      </g>
     </g>
     <g id="text_3">
      <!-- 0.4 -->
      <g transform="translate(455.487188 469.237188)scale(0.18 -0.18)">
       <defs>
        <path d="M 2419 4116 
L 825 1625 
L 2419 1625 
L 2419 4116 
z
M 2253 4666 
L 3047 4666 
L 3047 1625 
L 3713 1625 
L 3713 1100 
L 3047 1100 
L 3047 0 
L 2419 0 
L 2419 1100 
L 313 1100 
L 313 1709 
L 2253 4666 
z
" id="DejaVuSans-34" transform="scale(0.015625)"/>
       </defs>
       <use xlink:href="#DejaVuSans-30"/>
       <use x="63.623047" xlink:href="#DejaVuSans-2e"/>
       <use x="95.410156" xlink:href="#DejaVuSans-34"/>
      </g>
     </g>
    </g>
    <g id="xtick_4">
     <g id="line2d_4">
      <g>
       <use style="stroke:#000000;stroke-width:0.8;" x="637.2" xlink:href="#m1be47e19b2" y="448.56"/>
      </g>
     </g>
     <g id="text_4">
      <!-- 0.6 -->
      <g transform="translate(622.887188 469.237188)scale(0.18 -0.18)">
       <defs>
        <path d="M 2113 2584 
Q 1688 2584 1439 2293 
Q 1191 2003 1191 1497 
Q 1191 994 1439 701 
Q 1688 409 2113 409 
Q 2538 409 2786 701 
Q 3034 994 3034 1497 
Q 3034 2003 2786 2293 
Q 2538 2584 2113 2584 
z
M 3366 4563 
L 3366 3988 
Q 3128 4100 2886 4159 
Q 2644 4219 2406 4219 
Q 1781 4219 1451 3797 
Q 1122 3375 1075 2522 
Q 1259 2794 1537 2939 
Q 1816 3084 2150 3084 
Q 2853 3084 3261 2657 
Q 3669 2231 3669 1497 
Q 3669 778 3244 343 
Q 2819 -91 2113 -91 
Q 1303 -91 875 529 
Q 447 1150 447 2328 
Q 447 3434 972 4092 
Q 1497 4750 2381 4750 
Q 2619 4750 2861 4703 
Q 3103 4656 3366 4563 
z
" id="DejaVuSans-36" transform="scale(0.015625)"/>
       </defs>
       <use xlink:href="#DejaVuSans-30"/>
       <use x="63.623047" xlink:href="#DejaVuSans-2e"/>
       <use x="95.410156" xlink:href="#DejaVuSans-36"/>
      </g>
     </g>
    </g>
    <g id="xtick_5">
     <g id="line2d_5">
      <g>
       <use style="stroke:#000000;stroke-width:0.8;" x="804.6" xlink:href="#m1be47e19b2" y="448.56"/>
      </g>
     </g>
     <g id="text_5">
      <!-- 0.8 -->
      <g transform="translate(790.287188 469.237188)scale(0.18 -0.18)">
       <defs>
        <path d="M 2034 2216 
Q 1584 2216 1326 1975 
Q 1069 1734 1069 1313 
Q 1069 891 1326 650 
Q 1584 409 2034 409 
Q 2484 409 2743 651 
Q 3003 894 3003 1313 
Q 3003 1734 2745 1975 
Q 2488 2216 2034 2216 
z
M 1403 2484 
Q 997 2584 770 2862 
Q 544 3141 544 3541 
Q 544 4100 942 4425 
Q 1341 4750 2034 4750 
Q 2731 4750 3128 4425 
Q 3525 4100 3525 3541 
Q 3525 3141 3298 2862 
Q 3072 2584 2669 2484 
Q 3125 2378 3379 2068 
Q 3634 1759 3634 1313 
Q 3634 634 3220 271 
Q 2806 -91 2034 -91 
Q 1263 -91 848 271 
Q 434 634 434 1313 
Q 434 1759 690 2068 
Q 947 2378 1403 2484 
z
M 1172 3481 
Q 1172 3119 1398 2916 
Q 1625 2713 2034 2713 
Q 2441 2713 2670 2916 
Q 2900 3119 2900 3481 
Q 2900 3844 2670 4047 
Q 2441 4250 2034 4250 
Q 1625 4250 1398 4047 
Q 1172 3844 1172 3481 
z
" id="DejaVuSans-38" transform="scale(0.015625)"/>
       </defs>
       <use xlink:href="#DejaVuSans-30"/>
       <use x="63.623047" xlink:href="#DejaVuSans-2e"/>
       <use x="95.410156" xlink:href="#DejaVuSans-38"/>
      </g>
     </g>
    </g>
    <g id="xtick_6">
     <g id="line2d_6">
      <g>
       <use style="stroke:#000000;stroke-width:0.8;" x="972" xlink:href="#m1be47e19b2" y="448.56"/>
      </g>
     </g>
     <g id="text_6">
      <!-- 1.0 -->
      <g transform="translate(957.687188 469.237188)scale(0.18 -0.18)">
       <defs>
        <path d="M 794 531 
L 1825 531 
L 1825 4091 
L 703 3866 
L 703 4441 
L 1819 4666 
L 2450 4666 
L 2450 531 
L 3481 531 
L 3481 0 
L 794 0 
L 794 531 
z
" id="DejaVuSans-31" transform="scale(0.015625)"/>
       </defs>
       <use xlink:href="#DejaVuSans-31"/>
       <use x="63.623047" xlink:href="#DejaVuSans-2e"/>
       <use x="95.410156" xlink:href="#DejaVuSans-30"/>
      </g>
     </g>
    </g>
    <g id="text_7">
     <!-- $FPR_{Fair}$ -->
     <g transform="translate(518.08 493.697187)scale(0.22 -0.22)">
      <defs>
       <path d="M 1081 4666 
L 3756 4666 
L 3653 4134 
L 1606 4134 
L 1338 2759 
L 3188 2759 
L 3084 2228 
L 1234 2228 
L 800 0 
L 172 0 
L 1081 4666 
z
" id="DejaVuSans-Oblique-46" transform="scale(0.015625)"/>
       <path d="M 1081 4666 
L 2541 4666 
Q 3178 4666 3512 4369 
Q 3847 4072 3847 3500 
Q 3847 2731 3353 2303 
Q 2859 1875 1966 1875 
L 1172 1875 
L 806 0 
L 172 0 
L 1081 4666 
z
M 1613 4147 
L 1275 2394 
L 2069 2394 
Q 2606 2394 2893 2669 
Q 3181 2944 3181 3456 
Q 3181 3784 2986 3965 
Q 2791 4147 2438 4147 
L 1613 4147 
z
" id="DejaVuSans-Oblique-50" transform="scale(0.015625)"/>
       <path d="M 1613 4147 
L 1294 2491 
L 2106 2491 
Q 2584 2491 2879 2755 
Q 3175 3019 3175 3444 
Q 3175 3784 2976 3965 
Q 2778 4147 2406 4147 
L 1613 4147 
z
M 2772 2241 
Q 2972 2194 3105 2009 
Q 3238 1825 3413 1275 
L 3809 0 
L 3144 0 
L 2778 1197 
Q 2638 1659 2453 1815 
Q 2269 1972 1888 1972 
L 1191 1972 
L 806 0 
L 172 0 
L 1081 4666 
L 2503 4666 
Q 3150 4666 3495 4373 
Q 3841 4081 3841 3531 
Q 3841 3044 3547 2687 
Q 3253 2331 2772 2241 
z
" id="DejaVuSans-Oblique-52" transform="scale(0.015625)"/>
       <path d="M 3438 1997 
L 3047 0 
L 2472 0 
L 2578 531 
Q 2325 219 2001 64 
Q 1678 -91 1281 -91 
Q 834 -91 548 182 
Q 263 456 263 884 
Q 263 1497 752 1853 
Q 1241 2209 2100 2209 
L 2900 2209 
L 2931 2363 
Q 2938 2388 2941 2417 
Q 2944 2447 2944 2509 
Q 2944 2788 2717 2942 
Q 2491 3097 2081 3097 
Q 1800 3097 1504 3025 
Q 1209 2953 897 2809 
L 997 3341 
Q 1322 3463 1633 3523 
Q 1944 3584 2234 3584 
Q 2853 3584 3176 3315 
Q 3500 3047 3500 2534 
Q 3500 2431 3484 2292 
Q 3469 2153 3438 1997 
z
M 2816 1759 
L 2241 1759 
Q 1534 1759 1195 1570 
Q 856 1381 856 984 
Q 856 709 1029 553 
Q 1203 397 1509 397 
Q 1978 397 2328 733 
Q 2678 1069 2791 1631 
L 2816 1759 
z
" id="DejaVuSans-Oblique-61" transform="scale(0.015625)"/>
       <path d="M 1172 4863 
L 1747 4863 
L 1606 4134 
L 1031 4134 
L 1172 4863 
z
M 909 3500 
L 1484 3500 
L 800 0 
L 225 0 
L 909 3500 
z
" id="DejaVuSans-Oblique-69" transform="scale(0.015625)"/>
       <path d="M 2853 2969 
Q 2766 3016 2653 3041 
Q 2541 3066 2413 3066 
Q 1953 3066 1609 2717 
Q 1266 2369 1153 1784 
L 800 0 
L 225 0 
L 909 3500 
L 1484 3500 
L 1375 2956 
Q 1603 3259 1920 3421 
Q 2238 3584 2597 3584 
Q 2691 3584 2781 3573 
Q 2872 3563 2963 3538 
L 2853 2969 
z
" id="DejaVuSans-Oblique-72" transform="scale(0.015625)"/>
      </defs>
      <use transform="translate(0 0.09375)" xlink:href="#DejaVuSans-Oblique-46"/>
      <use transform="translate(57.519531 0.09375)" xlink:href="#DejaVuSans-Oblique-50"/>
      <use transform="translate(117.822266 0.09375)" xlink:href="#DejaVuSans-Oblique-52"/>
      <use transform="translate(187.304688 -16.3125)scale(0.7)" xlink:href="#DejaVuSans-Oblique-46"/>
      <use transform="translate(227.568359 -16.3125)scale(0.7)" xlink:href="#DejaVuSans-Oblique-61"/>
      <use transform="translate(270.463867 -16.3125)scale(0.7)" xlink:href="#DejaVuSans-Oblique-69"/>
      <use transform="translate(289.912109 -16.3125)scale(0.7)" xlink:href="#DejaVuSans-Oblique-72"/>
     </g>
    </g>
   </g>
   <g id="matplotlib.axis_2">
    <g id="ytick_1">
     <g id="line2d_7">
      <defs>
       <path d="M 0 0 
L -3.5 0 
" id="md9e4c52edf" style="stroke:#000000;stroke-width:0.8;"/>
      </defs>
      <g>
       <use style="stroke:#000000;stroke-width:0.8;" x="135" xlink:href="#md9e4c52edf" y="448.56"/>
      </g>
     </g>
     <g id="text_8">
      <!-- 0.0 -->
      <g transform="translate(99.374375 455.398594)scale(0.18 -0.18)">
       <use xlink:href="#DejaVuSans-30"/>
       <use x="63.623047" xlink:href="#DejaVuSans-2e"/>
       <use x="95.410156" xlink:href="#DejaVuSans-30"/>
      </g>
     </g>
    </g>
    <g id="ytick_2">
     <g id="line2d_8">
      <g>
       <use style="stroke:#000000;stroke-width:0.8;" x="135" xlink:href="#md9e4c52edf" y="370.944"/>
      </g>
     </g>
     <g id="text_9">
      <!-- 0.2 -->
      <g transform="translate(99.374375 377.782594)scale(0.18 -0.18)">
       <use xlink:href="#DejaVuSans-30"/>
       <use x="63.623047" xlink:href="#DejaVuSans-2e"/>
       <use x="95.410156" xlink:href="#DejaVuSans-32"/>
      </g>
     </g>
    </g>
    <g id="ytick_3">
     <g id="line2d_9">
      <g>
       <use style="stroke:#000000;stroke-width:0.8;" x="135" xlink:href="#md9e4c52edf" y="293.328"/>
      </g>
     </g>
     <g id="text_10">
      <!-- 0.4 -->
      <g transform="translate(99.374375 300.166594)scale(0.18 -0.18)">
       <use xlink:href="#DejaVuSans-30"/>
       <use x="63.623047" xlink:href="#DejaVuSans-2e"/>
       <use x="95.410156" xlink:href="#DejaVuSans-34"/>
      </g>
     </g>
    </g>
    <g id="ytick_4">
     <g id="line2d_10">
      <g>
       <use style="stroke:#000000;stroke-width:0.8;" x="135" xlink:href="#md9e4c52edf" y="215.712"/>
      </g>
     </g>
     <g id="text_11">
      <!-- 0.6 -->
      <g transform="translate(99.374375 222.550594)scale(0.18 -0.18)">
       <use xlink:href="#DejaVuSans-30"/>
       <use x="63.623047" xlink:href="#DejaVuSans-2e"/>
       <use x="95.410156" xlink:href="#DejaVuSans-36"/>
      </g>
     </g>
    </g>
    <g id="ytick_5">
     <g id="line2d_11">
      <g>
       <use style="stroke:#000000;stroke-width:0.8;" x="135" xlink:href="#md9e4c52edf" y="138.096"/>
      </g>
     </g>
     <g id="text_12">
      <!-- 0.8 -->
      <g transform="translate(99.374375 144.934594)scale(0.18 -0.18)">
       <use xlink:href="#DejaVuSans-30"/>
       <use x="63.623047" xlink:href="#DejaVuSans-2e"/>
       <use x="95.410156" xlink:href="#DejaVuSans-38"/>
      </g>
     </g>
    </g>
    <g id="ytick_6">
     <g id="line2d_12">
      <g>
       <use style="stroke:#000000;stroke-width:0.8;" x="135" xlink:href="#md9e4c52edf" y="60.48"/>
      </g>
     </g>
     <g id="text_13">
      <!-- 1.0 -->
      <g transform="translate(99.374375 67.318594)scale(0.18 -0.18)">
       <use xlink:href="#DejaVuSans-31"/>
       <use x="63.623047" xlink:href="#DejaVuSans-2e"/>
       <use x="95.410156" xlink:href="#DejaVuSans-30"/>
      </g>
     </g>
    </g>
    <g id="text_14">
     <!-- $TPR_{Fair}$ -->
     <g transform="translate(90.799062 290.27)rotate(-90)scale(0.22 -0.22)">
      <defs>
       <path d="M 378 4666 
L 4325 4666 
L 4225 4134 
L 2559 4134 
L 1759 0 
L 1125 0 
L 1925 4134 
L 275 4134 
L 378 4666 
z
" id="DejaVuSans-Oblique-54" transform="scale(0.015625)"/>
      </defs>
      <use transform="translate(0 0.09375)" xlink:href="#DejaVuSans-Oblique-54"/>
      <use transform="translate(61.083984 0.09375)" xlink:href="#DejaVuSans-Oblique-50"/>
      <use transform="translate(121.386719 0.09375)" xlink:href="#DejaVuSans-Oblique-52"/>
      <use transform="translate(190.869141 -16.3125)scale(0.7)" xlink:href="#DejaVuSans-Oblique-46"/>
      <use transform="translate(231.132812 -16.3125)scale(0.7)" xlink:href="#DejaVuSans-Oblique-61"/>
      <use transform="translate(274.02832 -16.3125)scale(0.7)" xlink:href="#DejaVuSans-Oblique-69"/>
      <use transform="translate(293.476562 -16.3125)scale(0.7)" xlink:href="#DejaVuSans-Oblique-72"/>
     </g>
    </g>
   </g>
   <g id="line2d_13">
    <path clip-path="url(#pe56e81206e)" d="M 135 448.56 
L 972 60.48 
" style="fill:none;stroke:#ff0000;stroke-dasharray:5.55,2.4;stroke-dashoffset:0;stroke-width:1.5;"/>
   </g>
   <g id="line2d_14">
    <path clip-path="url(#pe56e81206e)" d="M 972 60.48 
L 860.706424 61.826851 
L 774.791235 63.206282 
L 712.473618 64.593584 
L 664.30451 65.99025 
L 626.750436 67.427552 
L 597.815305 68.939241 
L 574.419621 70.448344 
L 554.675546 71.913243 
L 538.385501 73.38941 
L 524.16659 74.821543 
L 512.065958 76.198796 
L 501.759462 77.43744 
L 492.618912 78.525049 
L 484.33204 79.590015 
L 477.009961 80.605334 
L 470.259833 81.637628 
L 463.86955 82.551501 
L 457.870557 83.435289 
L 452.226465 84.295149 
L 447.290558 85.161239 
L 442.764053 86.052844 
L 438.460242 86.881217 
L 434.333616 87.699156 
L 430.263587 88.499697 
L 426.014834 89.280703 
L 422.000652 90.071939 
L 417.487711 90.83677 
L 413.262133 91.573353 
L 409.187801 92.400202 
L 405.155171 93.230669 
L 401.626737 93.981914 
L 398.201205 94.738728 
L 394.85663 95.511754 
L 391.591746 96.266298 
L 388.342225 97.077731 
L 384.902818 97.899511 
L 381.757681 98.709815 
L 378.636271 99.538217 
L 375.76735 100.353508 
L 373.08479 101.140373 
L 370.2587 102.041048 
L 367.576037 102.998627 
L 364.890504 103.963033 
L 362.177811 104.941275 
L 359.556627 105.842047 
L 356.951345 106.752508 
L 354.365646 107.736179 
L 351.735995 108.663545 
L 349.382026 109.653196 
L 347.079952 110.639987 
L 344.799449 111.631384 
L 342.7264 112.658735 
L 340.480487 113.686339 
L 338.244389 114.692826 
L 336.106143 115.739495 
L 333.755763 116.783948 
L 331.570521 117.827678 
L 329.485716 118.817615 
L 327.493398 119.738346 
L 325.518704 120.653605 
L 323.607684 121.57576 
L 321.712375 122.534995 
L 319.79745 123.527467 
L 318.107384 124.520722 
L 316.458003 125.52689 
L 314.74071 126.529553 
L 313.02538 127.514636 
L 311.273851 128.514013 
L 309.459262 129.577619 
L 307.693223 130.602041 
L 305.826359 131.649211 
L 304.150171 132.733495 
L 302.417126 133.834122 
L 300.793325 134.916143 
L 299.144946 136.05086 
L 297.528444 137.186726 
L 295.899634 138.355376 
L 294.347881 139.516407 
L 292.833291 140.727708 
L 291.393218 141.985931 
L 289.914595 143.219109 
L 288.361072 144.422297 
L 287.02013 145.665628 
L 285.716752 146.951516 
L 284.37811 148.20888 
L 283.037495 149.490578 
L 281.564627 150.722136 
L 280.198137 151.959573 
L 278.88968 153.28534 
L 277.625709 154.53739 
L 276.31046 155.88488 
L 275.024045 157.223445 
L 273.923016 158.585156 
L 272.739113 159.986975 
L 271.583824 161.402832 
L 270.51058 162.883152 
L 269.278444 164.450379 
L 268.245504 165.96554 
L 267.104548 167.460655 
L 265.838705 169.055585 
" style="fill:none;stroke:#1f77b4;stroke-linecap:square;stroke-width:1.5;"/>
   </g>
   <g id="line2d_15">
    <path clip-path="url(#pe56e81206e)" d="M 972 60.48 
L 932.474037 80.208471 
L 896.545377 97.662667 
L 863.477319 113.057692 
L 832.586926 126.765838 
L 804.246093 138.825071 
L 777.796485 149.761486 
L 753.114259 159.521404 
L 730.48995 168.655102 
L 709.164015 176.732025 
L 689.168714 184.382614 
L 670.6562 191.160678 
L 653.162222 197.555073 
L 636.555403 203.505182 
L 621.078801 209.048307 
L 606.305157 214.103076 
L 592.40112 218.928286 
L 579.189278 223.464897 
L 566.442495 227.593166 
L 554.285384 231.592699 
L 542.78676 235.406997 
L 531.651635 239.046348 
L 521.04711 242.567593 
L 510.99982 246.012693 
L 501.174365 249.360914 
L 491.868747 252.609982 
L 482.842324 255.779373 
L 474.131099 258.74224 
L 465.791104 261.639924 
L 457.838245 264.488644 
L 450.170127 267.211862 
L 442.788309 269.772817 
L 435.679629 272.370864 
L 428.669517 274.868095 
L 422.006886 277.352142 
L 415.514704 279.814591 
L 409.206963 282.27248 
L 403.110761 284.721819 
L 397.273483 287.131552 
L 391.701746 289.359397 
L 386.099167 291.561347 
L 380.659497 293.792758 
L 375.481458 296.024628 
L 370.426701 298.21984 
L 365.55993 300.26816 
L 360.83043 302.302363 
L 356.234751 304.328477 
L 351.744546 306.285064 
L 347.388618 308.213249 
L 343.139653 310.113465 
L 339.052182 311.965629 
L 335.038013 313.785605 
L 331.208869 315.546202 
L 327.428265 317.270766 
L 323.743965 318.99651 
L 320.162915 320.709119 
L 316.674537 322.322533 
L 313.282406 323.878857 
L 309.935479 325.37196 
L 306.703059 326.843399 
L 303.569769 328.311205 
L 300.492836 329.700842 
L 297.463555 330.990595 
L 294.537419 332.33376 
L 291.648731 333.635585 
L 288.829978 334.85942 
L 286.126711 336.074689 
L 283.46436 337.271467 
L 280.831573 338.447167 
L 278.27618 339.617972 
L 275.748055 340.787593 
L 273.292491 341.901746 
L 270.862342 343.010202 
L 268.513001 344.096771 
L 266.234935 345.17097 
L 264.007022 346.175014 
L 261.822814 347.212066 
L 259.667515 348.241841 
L 257.573433 349.261586 
L 255.467002 350.305144 
L 253.431036 351.360648 
L 251.486797 352.382252 
L 249.515376 353.355988 
L 247.605039 354.327097 
L 245.719923 355.215524 
L 243.895887 356.065928 
L 242.071508 356.97746 
L 240.236419 357.848423 
L 238.491169 358.69995 
L 236.794128 359.569403 
L 235.099424 360.407153 
L 233.42514 361.255782 
L 231.808511 362.082909 
L 230.221751 362.865493 
L 228.622626 363.709495 
L 227.04907 364.57712 
L 225.494042 365.434083 
L 223.978576 366.332739 
L 222.494249 367.224559 
L 221.068854 368.113407 
L 219.625854 368.983079 
" style="fill:none;stroke:#ff7f0e;stroke-linecap:square;stroke-width:1.5;"/>
   </g>
   <g id="line2d_16">
    <path clip-path="url(#pe56e81206e)" d="M 972 60.48 
L 971.983919 60.48 
L 971.979527 60.481717 
L 971.96859 60.481725 
L 971.953183 60.485196 
L 971.929958 60.488693 
L 971.907599 60.488725 
L 971.878378 60.490503 
L 971.855531 60.499316 
L 971.822394 60.502891 
L 971.76645 60.506486 
L 971.725767 60.506552 
L 971.694822 60.510167 
L 971.671555 60.51558 
L 971.648018 60.51567 
L 971.61742 60.519333 
L 971.59347 60.521221 
L 971.580868 60.523117 
L 971.558789 60.525007 
L 971.542357 60.525114 
L 971.52332 60.525223 
L 971.514816 60.530764 
L 971.497847 60.532696 
L 971.483175 60.534635 
L 971.470585 60.534772 
L 971.455467 60.534905 
L 971.434151 60.53504 
L 971.418683 60.535166 
L 971.399289 60.535299 
L 971.393384 60.539123 
L 971.382465 60.541106 
L 971.378876 60.541256 
L 971.366427 60.543266 
L 971.358834 60.543406 
L 971.346239 60.543552 
L 971.332048 60.545585 
L 971.316381 60.547621 
L 971.288842 60.54968 
L 971.268913 60.55176 
L 971.25802 60.553845 
L 971.245577 60.554041 
L 971.231563 60.554235 
L 971.216169 60.554435 
L 971.199034 60.556552 
L 971.175207 60.562517 
L 971.150969 60.570433 
L 971.131833 60.572592 
L 971.123625 60.574749 
L 971.112418 60.578872 
L 971.099815 60.581043 
L 971.086986 60.589084 
L 971.075377 60.589341 
L 971.059361 60.591588 
L 971.033012 60.599741 
L 971.020876 60.600077 
L 971.008501 60.606331 
L 970.993038 60.606698 
L 970.978895 60.609067 
L 970.966061 60.609428 
L 970.956286 60.609778 
L 970.943252 60.614171 
L 970.932985 60.620593 
L 970.918006 60.623039 
L 970.9075 60.629562 
L 970.889076 60.630041 
L 970.859484 60.634601 
L 970.840498 60.63509 
L 970.827826 60.637641 
L 970.816397 60.642212 
L 970.795407 60.646833 
L 970.781852 60.655629 
L 970.766694 60.658253 
L 970.741383 60.662983 
L 970.723957 60.663589 
L 970.703338 60.670432 
L 970.674046 60.673131 
L 970.644291 60.67583 
L 970.631057 60.676442 
L 970.60413 60.677119 
L 970.588701 60.682069 
L 970.576516 60.684958 
L 970.555902 60.687806 
L 970.527314 60.690732 
L 970.503855 60.691498 
L 970.488582 60.692264 
L 970.46255 60.695168 
L 970.437955 60.696001 
L 970.41995 60.696864 
L 970.400298 60.708742 
L 970.367457 60.709761 
L 970.343335 60.710773 
L 970.328116 60.714071 
L 970.309118 60.715214 
L 970.289859 60.727513 
L 970.26791 60.731022 
L 970.237899 60.73912 
L 970.21338 60.745041 
L 970.192173 60.751195 
L 970.172891 60.7597 
L 970.141395 60.766155 
L 970.119124 60.768011 
" style="fill:none;stroke:#2ca02c;stroke-linecap:square;stroke-width:1.5;"/>
   </g>
   <g id="line2d_17">
    <path clip-path="url(#pe56e81206e)" d="M 972 60.48 
L 966.856135 63.231664 
L 961.793276 65.951546 
L 957.174409 68.6959 
L 952.874879 71.443155 
L 948.989277 74.1909 
L 945.615904 76.930181 
L 942.569876 79.717497 
L 939.724975 82.389312 
L 937.222114 85.027273 
L 934.85605 87.491304 
L 932.722929 89.865268 
L 930.821843 91.96886 
L 929.070387 93.877214 
L 927.374199 95.744377 
L 925.830689 97.488819 
L 924.338602 99.267423 
L 922.849745 100.949591 
L 921.438613 102.548516 
L 920.096907 104.082406 
L 918.800541 105.59851 
L 917.621211 107.131682 
L 916.435594 108.567404 
L 915.316002 110.022356 
L 914.149401 111.435087 
L 912.930015 112.798608 
L 911.691771 114.235648 
L 910.351257 115.59599 
L 909.019324 116.909635 
L 907.708839 118.373627 
L 906.403517 119.802736 
L 905.192605 121.082335 
L 904.003389 122.481943 
L 902.790194 123.873692 
L 901.647072 125.203323 
L 900.444714 126.611969 
L 899.181678 128.057075 
L 897.969608 129.457093 
L 896.724976 130.879524 
L 895.55395 132.29237 
L 894.438808 133.683493 
L 893.294085 135.203992 
L 892.147617 136.803808 
L 890.986936 138.343355 
L 889.787781 139.921721 
L 888.555727 141.450004 
L 887.313308 142.9669 
L 886.065509 144.521545 
L 884.849796 146.007169 
L 883.698199 147.554156 
L 882.574037 149.101105 
L 881.403269 150.657072 
L 880.315897 152.196666 
L 879.170655 153.721528 
L 877.954772 155.283953 
L 876.761969 156.861444 
L 875.531801 158.403517 
L 874.258744 159.969076 
L 872.973687 161.438994 
L 871.698967 162.866783 
L 870.455394 164.265212 
L 869.257235 165.649426 
L 868.049617 167.078069 
L 866.856924 168.568783 
L 865.642143 170.055002 
L 864.43304 171.585153 
L 863.249807 173.142157 
L 862.019882 174.65307 
L 860.71183 176.165418 
L 859.432302 177.722854 
L 858.078339 179.268709 
L 856.737197 180.805943 
L 855.365954 182.391178 
L 853.989369 183.975066 
L 852.658683 185.566752 
L 851.265373 187.183562 
L 849.888891 188.792422 
L 848.567752 190.425254 
L 847.229289 192.058636 
L 845.893545 193.728245 
L 844.565182 195.418542 
L 843.215569 197.054263 
L 841.903517 198.694036 
L 840.63421 200.360999 
L 839.397622 202.035538 
L 838.150161 203.676916 
L 836.937696 205.343425 
L 835.720446 206.988137 
L 834.47455 208.644104 
L 833.27137 210.383101 
L 832.046544 212.061943 
L 830.807772 213.867997 
L 829.643686 215.657714 
L 828.423586 217.434836 
L 827.168928 219.274451 
L 825.920536 221.140348 
L 824.634251 223.015994 
L 823.316573 224.996898 
L 822.015276 226.952927 
L 820.676506 228.898671 
L 819.358596 230.924306 
" style="fill:none;stroke:#d62728;stroke-linecap:square;stroke-width:1.5;"/>
   </g>
   <g id="line2d_18">
    <path clip-path="url(#pe56e81206e)" d="M 972 60.48 
L 957.952983 68.561748 
L 944.491505 76.295865 
L 931.734698 83.551379 
L 919.632267 90.495585 
L 908.233945 97.001084 
L 897.478727 103.21381 
L 887.305893 109.224616 
L 877.707262 114.876732 
L 868.439174 120.222553 
L 859.491025 125.329893 
L 850.990537 129.99792 
L 842.865223 134.289044 
L 834.923051 138.276251 
L 827.216442 142.071872 
L 819.662787 145.704579 
L 812.359948 149.242337 
L 805.220526 152.576463 
L 798.09839 155.702557 
L 791.138186 158.685372 
L 784.367668 161.601878 
L 777.641741 164.43243 
L 771.064436 167.191303 
L 764.681955 169.869517 
L 758.183068 172.50269 
L 751.749321 175.132564 
L 745.375391 177.738514 
L 739.03437 180.22005 
L 732.737694 182.635325 
L 726.598277 185.102857 
L 720.532831 187.511924 
L 714.594764 189.778897 
L 708.749012 192.115464 
L 702.882751 194.348759 
L 697.160169 196.635654 
L 691.357522 198.914908 
L 685.639738 201.218155 
L 679.949341 203.545585 
L 674.368462 205.824476 
L 668.943799 208.020524 
L 663.450109 210.188822 
L 658.020507 212.429994 
L 652.670556 214.68161 
L 647.350756 216.931014 
L 642.109067 219.131498 
L 636.900465 221.299762 
L 631.745468 223.459129 
L 626.66045 225.580446 
L 621.671988 227.662815 
L 616.662328 229.724522 
L 611.802038 231.750835 
L 606.936258 233.795307 
L 602.198134 235.780894 
L 597.442499 237.744714 
L 592.705965 239.707901 
L 588.024825 241.676442 
L 583.403407 243.571322 
L 578.798187 245.40666 
L 574.198293 247.185908 
L 569.676746 248.897126 
L 565.234715 250.583995 
L 560.820393 252.219334 
L 556.41736 253.861338 
L 552.028954 255.536111 
L 547.7224 257.189389 
L 543.479201 258.836871 
L 539.309678 260.464396 
L 535.092599 262.065119 
L 530.910615 263.679437 
L 526.797068 265.274195 
L 522.731424 266.837539 
L 518.66747 268.405167 
L 514.588216 269.960064 
L 510.574348 271.504806 
L 506.646792 272.997028 
L 502.716035 274.486868 
L 498.824206 275.998446 
L 494.987722 277.483255 
L 491.227567 278.951708 
L 487.432007 280.446986 
L 483.693811 281.930325 
L 480.013068 283.402725 
L 476.354804 284.823654 
L 472.775171 286.248041 
L 469.206714 287.623098 
L 465.672628 288.995426 
L 462.156079 290.395104 
L 458.661876 291.757105 
L 455.245521 293.0963 
L 451.824453 294.463889 
L 448.454582 295.806695 
L 445.072683 297.185045 
L 441.784053 298.556495 
L 438.498777 299.894729 
L 435.163287 301.281987 
L 431.889578 302.651797 
L 428.60357 304.029791 
L 425.356527 305.433904 
L 422.151905 306.82996 
L 418.964683 308.218762 
L 415.803876 309.611255 
" style="fill:none;stroke:#9467bd;stroke-linecap:square;stroke-width:1.5;"/>
   </g>
   <g id="line2d_19">
    <path clip-path="url(#pe56e81206e)" d="M 972 60.48 
L 959.557469 67.774799 
L 947.490501 74.730649 
L 936.057791 81.330213 
L 925.261414 87.618054 
L 915.035482 93.549503 
L 905.397675 99.238732 
L 896.217555 104.731358 
L 887.577088 109.913325 
L 879.261027 114.846252 
L 871.22729 119.589518 
L 863.571788 123.937021 
L 856.222264 127.936479 
L 849.063762 131.659133 
L 842.108195 135.20839 
L 835.276369 138.573917 
L 828.624484 141.867984 
L 822.11447 144.992998 
L 815.631733 147.920846 
L 809.262531 150.736179 
L 803.052368 153.469106 
L 796.922704 156.146896 
L 790.886752 158.757647 
L 784.995365 161.30788 
L 778.984146 163.830985 
L 773.052746 166.309154 
L 767.167084 168.78385 
L 761.264364 171.13014 
L 755.421556 173.421721 
L 749.691634 175.769528 
L 744.013667 178.094504 
L 738.457309 180.282185 
L 732.974829 182.51949 
L 727.480732 184.680359 
L 722.096086 186.864747 
L 716.661672 189.054216 
L 711.25547 191.263538 
L 705.885848 193.512734 
L 700.609963 195.720358 
L 695.465321 197.850995 
L 690.255019 199.956153 
L 685.081059 202.130137 
L 679.982643 204.326188 
L 674.908115 206.505147 
L 669.886537 208.659843 
L 664.867391 210.76277 
L 659.895934 212.861626 
L 654.988451 214.941089 
L 650.173312 216.979711 
L 645.335319 219.011031 
L 640.635818 221.011112 
L 635.924155 223.024912 
L 631.321507 224.990396 
L 626.688667 226.913943 
L 622.062484 228.849248 
L 617.488313 230.787396 
L 612.965366 232.671218 
L 608.443345 234.48233 
L 603.94895 236.257909 
L 599.507737 237.961581 
L 595.148079 239.636962 
L 590.809636 241.260607 
L 586.465852 242.897612 
L 582.15476 244.559301 
L 577.896176 246.199783 
L 573.702773 247.83585 
L 569.567187 249.455367 
L 565.36628 251.038372 
L 561.209958 252.637504 
L 557.109869 254.226069 
L 553.07149 255.785998 
L 548.9912 257.352763 
L 544.897349 258.899755 
L 540.867601 260.442953 
L 536.911499 261.953329 
L 532.960207 263.442193 
L 529.026789 264.967333 
L 525.155751 266.467552 
L 521.359006 267.945384 
L 517.502833 269.447896 
L 513.708749 270.940415 
L 509.980915 272.414404 
L 506.263345 273.844937 
L 502.609895 275.279303 
L 498.984858 276.664871 
L 495.374797 278.056603 
L 491.794513 279.467452 
L 488.225243 280.849553 
L 484.708791 282.201539 
L 481.207847 283.581685 
L 477.740993 284.937393 
L 474.269571 286.328341 
L 470.878286 287.70521 
L 467.484854 289.061352 
L 464.057533 290.452744 
L 460.679031 291.848592 
L 457.294398 293.231926 
L 453.930985 294.658573 
L 450.598558 296.069361 
L 447.293806 297.472869 
L 444.00597 298.882127 
" style="fill:none;stroke:#8c564b;stroke-linecap:square;stroke-width:1.5;"/>
   </g>
   <g id="line2d_20">
    <path clip-path="url(#pe56e81206e)" d="M 972 60.48 
L 962.086607 66.357776 
L 952.460468 72.043125 
L 943.270261 77.481724 
L 934.5313 82.701251 
L 926.211214 87.646033 
L 918.332797 92.419175 
L 910.835895 97.035276 
L 903.723839 101.410388 
L 896.880978 105.613876 
L 890.256225 109.642838 
L 883.911416 113.375637 
L 877.778164 116.819841 
L 871.79842 120.055059 
L 865.969619 123.154886 
L 860.223162 126.118565 
L 854.61619 129.000757 
L 849.110251 131.724815 
L 843.614435 134.29136 
L 838.218342 136.769587 
L 832.932846 139.193084 
L 827.651912 141.568793 
L 822.445617 143.887751 
L 817.375183 146.167491 
L 812.207559 148.410661 
L 807.06463 150.639238 
L 801.944797 152.858202 
L 796.796176 154.9604 
L 791.671139 157.046532 
L 786.649338 159.168589 
L 781.655963 161.274267 
L 776.759641 163.242752 
L 771.902044 165.263515 
L 767.007131 167.213315 
L 762.192826 169.214178 
L 757.327393 171.22441 
L 752.494333 173.258197 
L 747.65563 175.310506 
L 742.884439 177.341005 
L 738.221841 179.319771 
L 733.510632 181.254664 
L 728.814846 183.270214 
L 724.16006 185.32629 
L 719.530914 187.363016 
L 714.924142 189.351202 
L 710.325357 191.316166 
L 705.746256 193.287137 
L 701.195849 195.24167 
L 696.736847 197.166369 
L 692.247802 199.092653 
L 687.859806 200.984942 
L 683.462333 202.892971 
L 679.151439 204.758517 
L 674.804417 206.614911 
L 670.468177 208.455601 
L 666.144146 210.307992 
L 661.862356 212.110174 
L 657.567419 213.852073 
L 653.265555 215.560073 
L 649.01268 217.194188 
L 644.846969 218.800253 
L 640.677579 220.369222 
L 636.493539 221.936944 
L 632.348368 223.544913 
L 628.241421 225.128528 
L 624.180076 226.695826 
L 620.165805 228.270075 
L 616.078905 229.804228 
L 612.028694 231.354525 
L 608.005207 232.898134 
L 604.040742 234.417964 
L 600.037646 235.948616 
L 596.016547 237.466249 
L 592.045319 238.986905 
L 588.140401 240.46542 
L 584.219272 241.939553 
L 580.31513 243.441292 
L 576.448837 244.927833 
L 572.652725 246.399583 
L 568.797052 247.89288 
L 564.990204 249.375151 
L 561.216502 250.841723 
L 557.472762 252.255774 
L 553.77912 253.681836 
L 550.094177 255.06001 
L 546.439704 256.454879 
L 542.783454 257.857241 
L 539.14925 259.229424 
L 535.563005 260.576413 
L 531.977356 261.958189 
L 528.422999 263.315009 
L 524.859258 264.711217 
L 521.371451 266.092173 
L 517.880749 267.452861 
L 514.332094 268.85316 
L 510.817078 270.260311 
L 507.308549 271.663584 
L 503.818506 273.096578 
L 500.332406 274.517081 
L 496.883657 275.927621 
L 493.440602 277.3557 
" style="fill:none;stroke:#e377c2;stroke-linecap:square;stroke-width:1.5;"/>
   </g>
   <g id="line2d_21">
    <path clip-path="url(#pe56e81206e)" d="M 972 60.48 
L 964.662757 64.880856 
L 957.503523 69.168381 
L 950.639695 73.248804 
L 944.126498 77.211956 
L 937.893195 80.98332 
L 931.990009 84.657471 
L 926.399062 88.243374 
L 921.066044 91.65964 
L 915.879817 94.97146 
L 910.857634 98.160583 
L 906.028639 101.126826 
L 901.392589 103.894096 
L 896.856568 106.469359 
L 892.411718 108.952469 
L 888.01757 111.345884 
L 883.725978 113.697443 
L 879.526478 115.916173 
L 875.298452 118.01725 
L 871.137067 120.041755 
L 867.032658 122.027212 
L 862.933096 123.97713 
L 858.881133 125.89266 
L 854.931769 127.759053 
L 850.875904 129.617866 
L 846.804394 131.481754 
L 842.75707 133.337503 
L 838.690001 135.1127 
L 834.616332 136.85663 
L 830.58648 138.64548 
L 826.584553 140.413 
L 822.665191 142.081694 
L 818.753245 143.803389 
L 814.803635 145.469641 
L 810.913457 147.186166 
L 806.945222 148.908184 
L 802.991737 150.655769 
L 799.033384 152.434814 
L 795.118795 154.184422 
L 791.283157 155.882629 
L 787.379967 157.561885 
L 783.480537 159.322411 
L 779.586066 161.103536 
L 775.691371 162.893445 
L 771.818913 164.655057 
L 767.933251 166.395173 
L 764.048973 168.144958 
L 760.186163 169.883007 
L 756.397751 171.599305 
L 752.56153 173.316023 
L 748.817733 175.013502 
L 745.025621 176.736444 
L 741.307416 178.42176 
L 737.545196 180.096049 
L 733.764268 181.771258 
L 729.995874 183.464882 
L 726.244983 185.111757 
L 722.477378 186.705606 
L 718.693884 188.255369 
L 714.947155 189.75993 
L 711.244961 191.236118 
L 707.537272 192.679625 
L 703.80443 194.13379 
L 700.071226 195.612866 
L 696.378449 197.078359 
L 692.71895 198.536693 
L 689.086715 199.98856 
L 685.372005 201.420439 
L 681.684956 202.874976 
L 677.981146 204.324327 
L 674.331843 205.755085 
L 670.652853 207.196994 
L 666.934325 208.628036 
L 663.245279 210.0589 
L 659.6026 211.449243 
L 655.93758 212.847344 
L 652.270734 214.279052 
L 648.638152 215.698657 
L 645.054331 217.096727 
L 641.415578 218.529946 
L 637.786462 219.954202 
L 634.19757 221.377149 
L 630.627216 222.747967 
L 627.105162 224.133098 
L 623.58745 225.469839 
L 620.076664 226.820433 
L 616.564181 228.197501 
L 613.049624 229.5353 
L 609.579052 230.852105 
L 606.098452 232.20329 
L 602.634953 233.533488 
L 599.13546 234.898531 
L 595.711217 236.260627 
L 592.271003 237.600088 
L 588.770984 238.987038 
L 585.285538 240.373554 
L 581.787959 241.768837 
L 578.312869 243.192677 
L 574.838114 244.61216 
L 571.376707 246.022892 
L 567.927709 247.445538 
" style="fill:none;stroke:#7f7f7f;stroke-linecap:square;stroke-width:1.5;"/>
   </g>
   <g id="line2d_22">
    <path clip-path="url(#pe56e81206e)" d="M 972 60.48 
L 971.883117 60.518381 
L 971.773871 60.549842 
L 971.665699 60.599455 
L 971.561622 60.646216 
L 971.474635 60.682384 
L 971.384366 60.72418 
L 971.307721 60.768449 
L 971.241254 60.811583 
L 971.176296 60.857158 
L 971.104422 60.893761 
L 971.050264 60.934113 
L 970.996168 60.967229 
L 970.948787 61.009659 
L 970.909222 61.037497 
L 970.869744 61.064525 
L 970.828952 61.092144 
L 970.79545 61.123608 
L 970.765165 61.152267 
L 970.729976 61.189908 
L 970.699419 61.217447 
L 970.670529 61.246855 
L 970.642628 61.272631 
L 970.611868 61.301388 
L 970.582981 61.330235 
L 970.55219 61.355429 
L 970.51965 61.380774 
L 970.484389 61.406127 
L 970.455591 61.429713 
L 970.423482 61.462012 
L 970.39032 61.484839 
L 970.360559 61.518162 
L 970.32919 61.548496 
L 970.295895 61.575865 
L 970.262789 61.605867 
L 970.228346 61.632172 
L 970.192451 61.671127 
L 970.156502 61.705017 
L 970.123105 61.743441 
L 970.092784 61.77335 
L 970.057262 61.79957 
L 970.023627 61.842863 
L 969.987954 61.876252 
L 969.945878 61.912618 
L 969.908759 61.956063 
L 969.869915 61.988064 
L 969.830732 62.017997 
L 969.786182 62.05985 
L 969.749902 62.098492 
L 969.708299 62.134691 
L 969.670426 62.180336 
L 969.632444 62.224881 
L 969.593333 62.270396 
L 969.552439 62.310682 
L 969.517561 62.351914 
L 969.478923 62.403304 
L 969.442916 62.442115 
L 969.401453 62.488841 
L 969.359193 62.530728 
L 969.315951 62.566536 
L 969.2805 62.603233 
L 969.24405 62.645029 
L 969.210302 62.681546 
L 969.173994 62.720193 
L 969.130631 62.765663 
L 969.092864 62.815841 
L 969.055272 62.852995 
L 969.015494 62.896034 
L 968.97963 62.939195 
L 968.934493 62.985183 
L 968.886119 63.034473 
L 968.844738 63.078484 
L 968.791877 63.123465 
L 968.746642 63.17084 
L 968.708464 63.229891 
L 968.657754 63.281396 
L 968.607017 63.335523 
L 968.56883 63.394645 
L 968.529613 63.450239 
L 968.484327 63.500365 
L 968.44309 63.556094 
L 968.39987 63.61005 
L 968.357829 63.681537 
L 968.317343 63.73942 
L 968.279154 63.795859 
L 968.241235 63.862972 
L 968.20108 63.920984 
L 968.163494 63.973947 
L 968.121836 64.038692 
L 968.081161 64.105441 
L 968.041618 64.169141 
L 968.004136 64.240621 
L 967.960882 64.307581 
L 967.91894 64.374164 
L 967.8771 64.447191 
L 967.832595 64.51953 
L 967.790884 64.594485 
L 967.748261 64.676437 
L 967.705849 64.76024 
L 967.659113 64.839498 
L 967.615894 64.924675 
" style="fill:none;stroke:#bcbd22;stroke-linecap:square;stroke-width:1.5;"/>
   </g>
   <g id="line2d_23">
    <path clip-path="url(#pe56e81206e)" d="M 972 60.48 
L 965.126502 64.77067 
L 958.405093 68.902811 
L 951.975501 72.898544 
L 945.901451 76.712961 
L 940.126705 80.412206 
L 934.627368 83.9681 
L 929.398464 87.415525 
L 924.471738 90.735877 
L 919.705221 93.931465 
L 915.088791 97.01525 
L 910.679058 99.900635 
L 906.428778 102.577656 
L 902.317188 105.108852 
L 898.292621 107.542833 
L 894.307852 109.849873 
L 890.409326 112.123034 
L 886.557542 114.27823 
L 882.717708 116.302588 
L 878.935259 118.263031 
L 875.200619 120.187582 
L 871.477642 122.08363 
L 867.782417 123.928225 
L 864.196347 125.763571 
L 860.480674 127.587644 
L 856.797385 129.381077 
L 853.126753 131.169721 
L 849.396556 132.875913 
L 845.694314 134.562169 
L 842.024785 136.294399 
L 838.366446 138.026484 
L 834.782695 139.658111 
L 831.223385 141.307183 
L 827.619142 142.939743 
L 824.048908 144.577677 
L 820.435316 146.234964 
L 816.794341 147.912207 
L 813.179138 149.634472 
L 809.584827 151.337491 
L 806.065142 152.977018 
L 802.484613 154.609647 
L 798.901478 156.306843 
L 795.35066 158.03538 
L 791.792713 159.767356 
L 788.203825 161.461368 
L 784.592919 163.127439 
L 781.015298 164.816858 
L 777.417466 166.48718 
L 773.885448 168.149514 
L 770.343312 169.826472 
L 766.870569 171.491695 
L 763.354393 173.157792 
L 759.924495 174.810653 
L 756.402739 176.446023 
L 752.868734 178.091062 
L 749.354355 179.746151 
L 745.849468 181.366323 
L 742.339052 182.914111 
L 738.791624 184.452303 
L 735.280476 185.924675 
L 731.809582 187.372051 
L 728.330449 188.800133 
L 724.841281 190.218858 
L 721.363397 191.663649 
L 717.875952 193.098655 
L 714.429622 194.515415 
L 711.005429 195.925461 
L 707.510925 197.31 
L 704.026973 198.709349 
L 700.535529 200.116966 
L 697.101052 201.495158 
L 693.60579 202.891554 
L 690.084077 204.277214 
L 686.592241 205.652877 
L 683.126449 207.018063 
L 679.651576 208.373746 
L 676.14014 209.749649 
L 672.683838 211.129709 
L 669.247154 212.496225 
L 665.747032 213.887932 
L 662.284803 215.273458 
L 658.841072 216.655594 
L 655.419521 217.998455 
L 652.019482 219.335591 
L 648.63598 220.640218 
L 645.262212 221.961143 
L 641.885639 223.285932 
L 638.495601 224.581607 
L 635.121252 225.850123 
L 631.764178 227.144127 
L 628.409359 228.419587 
L 625.055469 229.726527 
L 621.755598 231.019192 
L 618.424922 232.306276 
L 615.051558 233.615777 
L 611.694646 234.94863 
L 608.299977 236.271848 
L 604.922065 237.640405 
L 601.541586 238.988417 
L 598.178379 240.33725 
L 594.809766 241.705198 
" style="fill:none;stroke:#17becf;stroke-linecap:square;stroke-width:1.5;"/>
   </g>
   <g id="patch_3">
    <path d="M 135 448.56 
L 135 60.48 
" style="fill:none;stroke:#000000;stroke-linecap:square;stroke-linejoin:miter;stroke-width:0.8;"/>
   </g>
   <g id="patch_4">
    <path d="M 972 448.56 
L 972 60.48 
" style="fill:none;stroke:#000000;stroke-linecap:square;stroke-linejoin:miter;stroke-width:0.8;"/>
   </g>
   <g id="patch_5">
    <path d="M 135 448.56 
L 972 448.56 
" style="fill:none;stroke:#000000;stroke-linecap:square;stroke-linejoin:miter;stroke-width:0.8;"/>
   </g>
   <g id="patch_6">
    <path d="M 135 60.48 
L 972 60.48 
" style="fill:none;stroke:#000000;stroke-linecap:square;stroke-linejoin:miter;stroke-width:0.8;"/>
   </g>
   <g id="legend_1">
    <g id="patch_7">
     <path d="M 147.6 339.08625 
L 256.730625 339.08625 
Q 260.330625 339.08625 260.330625 335.48625 
L 260.330625 73.08 
Q 260.330625 69.48 256.730625 69.48 
L 147.6 69.48 
Q 144 69.48 144 73.08 
L 144 335.48625 
Q 144 339.08625 147.6 339.08625 
z
" style="fill:#ffffff;opacity:0.8;stroke:#cccccc;stroke-linejoin:miter;"/>
    </g>
    <g id="line2d_24">
     <path d="M 151.2 84.057188 
L 187.2 84.057188 
" style="fill:none;stroke:#1f77b4;stroke-linecap:square;stroke-width:1.5;"/>
    </g>
    <g id="line2d_25"/>
    <g id="text_15">
     <!-- 0.001 -->
     <g transform="translate(201.6 90.357188)scale(0.18 -0.18)">
      <use xlink:href="#DejaVuSans-30"/>
      <use x="63.623047" xlink:href="#DejaVuSans-2e"/>
      <use x="95.410156" xlink:href="#DejaVuSans-30"/>
      <use x="159.033203" xlink:href="#DejaVuSans-30"/>
      <use x="222.65625" xlink:href="#DejaVuSans-31"/>
     </g>
    </g>
    <g id="line2d_26">
     <path d="M 151.2 110.477812 
L 187.2 110.477812 
" style="fill:none;stroke:#ff7f0e;stroke-linecap:square;stroke-width:1.5;"/>
    </g>
    <g id="line2d_27"/>
    <g id="text_16">
     <!-- 0.011 -->
     <g transform="translate(201.6 116.777812)scale(0.18 -0.18)">
      <use xlink:href="#DejaVuSans-30"/>
      <use x="63.623047" xlink:href="#DejaVuSans-2e"/>
      <use x="95.410156" xlink:href="#DejaVuSans-30"/>
      <use x="159.033203" xlink:href="#DejaVuSans-31"/>
      <use x="222.65625" xlink:href="#DejaVuSans-31"/>
     </g>
    </g>
    <g id="line2d_28">
     <path d="M 151.2 136.898438 
L 187.2 136.898438 
" style="fill:none;stroke:#2ca02c;stroke-linecap:square;stroke-width:1.5;"/>
    </g>
    <g id="line2d_29"/>
    <g id="text_17">
     <!-- 0.021 -->
     <g transform="translate(201.6 143.198438)scale(0.18 -0.18)">
      <use xlink:href="#DejaVuSans-30"/>
      <use x="63.623047" xlink:href="#DejaVuSans-2e"/>
      <use x="95.410156" xlink:href="#DejaVuSans-30"/>
      <use x="159.033203" xlink:href="#DejaVuSans-32"/>
      <use x="222.65625" xlink:href="#DejaVuSans-31"/>
     </g>
    </g>
    <g id="line2d_30">
     <path d="M 151.2 163.319062 
L 187.2 163.319062 
" style="fill:none;stroke:#d62728;stroke-linecap:square;stroke-width:1.5;"/>
    </g>
    <g id="line2d_31"/>
    <g id="text_18">
     <!-- 0.031 -->
     <g transform="translate(201.6 169.619062)scale(0.18 -0.18)">
      <defs>
       <path d="M 2597 2516 
Q 3050 2419 3304 2112 
Q 3559 1806 3559 1356 
Q 3559 666 3084 287 
Q 2609 -91 1734 -91 
Q 1441 -91 1130 -33 
Q 819 25 488 141 
L 488 750 
Q 750 597 1062 519 
Q 1375 441 1716 441 
Q 2309 441 2620 675 
Q 2931 909 2931 1356 
Q 2931 1769 2642 2001 
Q 2353 2234 1838 2234 
L 1294 2234 
L 1294 2753 
L 1863 2753 
Q 2328 2753 2575 2939 
Q 2822 3125 2822 3475 
Q 2822 3834 2567 4026 
Q 2313 4219 1838 4219 
Q 1578 4219 1281 4162 
Q 984 4106 628 3988 
L 628 4550 
Q 988 4650 1302 4700 
Q 1616 4750 1894 4750 
Q 2613 4750 3031 4423 
Q 3450 4097 3450 3541 
Q 3450 3153 3228 2886 
Q 3006 2619 2597 2516 
z
" id="DejaVuSans-33" transform="scale(0.015625)"/>
      </defs>
      <use xlink:href="#DejaVuSans-30"/>
      <use x="63.623047" xlink:href="#DejaVuSans-2e"/>
      <use x="95.410156" xlink:href="#DejaVuSans-30"/>
      <use x="159.033203" xlink:href="#DejaVuSans-33"/>
      <use x="222.65625" xlink:href="#DejaVuSans-31"/>
     </g>
    </g>
    <g id="line2d_32">
     <path d="M 151.2 189.739688 
L 187.2 189.739688 
" style="fill:none;stroke:#9467bd;stroke-linecap:square;stroke-width:1.5;"/>
    </g>
    <g id="line2d_33"/>
    <g id="text_19">
     <!-- 0.041 -->
     <g transform="translate(201.6 196.039688)scale(0.18 -0.18)">
      <use xlink:href="#DejaVuSans-30"/>
      <use x="63.623047" xlink:href="#DejaVuSans-2e"/>
      <use x="95.410156" xlink:href="#DejaVuSans-30"/>
      <use x="159.033203" xlink:href="#DejaVuSans-34"/>
      <use x="222.65625" xlink:href="#DejaVuSans-31"/>
     </g>
    </g>
    <g id="line2d_34">
     <path d="M 151.2 216.160312 
L 187.2 216.160312 
" style="fill:none;stroke:#8c564b;stroke-linecap:square;stroke-width:1.5;"/>
    </g>
    <g id="line2d_35"/>
    <g id="text_20">
     <!-- 0.051 -->
     <g transform="translate(201.6 222.460312)scale(0.18 -0.18)">
      <defs>
       <path d="M 691 4666 
L 3169 4666 
L 3169 4134 
L 1269 4134 
L 1269 2991 
Q 1406 3038 1543 3061 
Q 1681 3084 1819 3084 
Q 2600 3084 3056 2656 
Q 3513 2228 3513 1497 
Q 3513 744 3044 326 
Q 2575 -91 1722 -91 
Q 1428 -91 1123 -41 
Q 819 9 494 109 
L 494 744 
Q 775 591 1075 516 
Q 1375 441 1709 441 
Q 2250 441 2565 725 
Q 2881 1009 2881 1497 
Q 2881 1984 2565 2268 
Q 2250 2553 1709 2553 
Q 1456 2553 1204 2497 
Q 953 2441 691 2322 
L 691 4666 
z
" id="DejaVuSans-35" transform="scale(0.015625)"/>
      </defs>
      <use xlink:href="#DejaVuSans-30"/>
      <use x="63.623047" xlink:href="#DejaVuSans-2e"/>
      <use x="95.410156" xlink:href="#DejaVuSans-30"/>
      <use x="159.033203" xlink:href="#DejaVuSans-35"/>
      <use x="222.65625" xlink:href="#DejaVuSans-31"/>
     </g>
    </g>
    <g id="line2d_36">
     <path d="M 151.2 242.580937 
L 187.2 242.580937 
" style="fill:none;stroke:#e377c2;stroke-linecap:square;stroke-width:1.5;"/>
    </g>
    <g id="line2d_37"/>
    <g id="text_21">
     <!-- 0.061 -->
     <g transform="translate(201.6 248.880937)scale(0.18 -0.18)">
      <use xlink:href="#DejaVuSans-30"/>
      <use x="63.623047" xlink:href="#DejaVuSans-2e"/>
      <use x="95.410156" xlink:href="#DejaVuSans-30"/>
      <use x="159.033203" xlink:href="#DejaVuSans-36"/>
      <use x="222.65625" xlink:href="#DejaVuSans-31"/>
     </g>
    </g>
    <g id="line2d_38">
     <path d="M 151.2 269.001562 
L 187.2 269.001562 
" style="fill:none;stroke:#7f7f7f;stroke-linecap:square;stroke-width:1.5;"/>
    </g>
    <g id="line2d_39"/>
    <g id="text_22">
     <!-- 0.071 -->
     <g transform="translate(201.6 275.301562)scale(0.18 -0.18)">
      <defs>
       <path d="M 525 4666 
L 3525 4666 
L 3525 4397 
L 1831 0 
L 1172 0 
L 2766 4134 
L 525 4134 
L 525 4666 
z
" id="DejaVuSans-37" transform="scale(0.015625)"/>
      </defs>
      <use xlink:href="#DejaVuSans-30"/>
      <use x="63.623047" xlink:href="#DejaVuSans-2e"/>
      <use x="95.410156" xlink:href="#DejaVuSans-30"/>
      <use x="159.033203" xlink:href="#DejaVuSans-37"/>
      <use x="222.65625" xlink:href="#DejaVuSans-31"/>
     </g>
    </g>
    <g id="line2d_40">
     <path d="M 151.2 295.422188 
L 187.2 295.422188 
" style="fill:none;stroke:#bcbd22;stroke-linecap:square;stroke-width:1.5;"/>
    </g>
    <g id="line2d_41"/>
    <g id="text_23">
     <!-- 0.081 -->
     <g transform="translate(201.6 301.722188)scale(0.18 -0.18)">
      <use xlink:href="#DejaVuSans-30"/>
      <use x="63.623047" xlink:href="#DejaVuSans-2e"/>
      <use x="95.410156" xlink:href="#DejaVuSans-30"/>
      <use x="159.033203" xlink:href="#DejaVuSans-38"/>
      <use x="222.65625" xlink:href="#DejaVuSans-31"/>
     </g>
    </g>
    <g id="line2d_42">
     <path d="M 151.2 321.842812 
L 187.2 321.842812 
" style="fill:none;stroke:#17becf;stroke-linecap:square;stroke-width:1.5;"/>
    </g>
    <g id="line2d_43"/>
    <g id="text_24">
     <!-- 0.091 -->
     <g transform="translate(201.6 328.142812)scale(0.18 -0.18)">
      <defs>
       <path d="M 703 97 
L 703 672 
Q 941 559 1184 500 
Q 1428 441 1663 441 
Q 2288 441 2617 861 
Q 2947 1281 2994 2138 
Q 2813 1869 2534 1725 
Q 2256 1581 1919 1581 
Q 1219 1581 811 2004 
Q 403 2428 403 3163 
Q 403 3881 828 4315 
Q 1253 4750 1959 4750 
Q 2769 4750 3195 4129 
Q 3622 3509 3622 2328 
Q 3622 1225 3098 567 
Q 2575 -91 1691 -91 
Q 1453 -91 1209 -44 
Q 966 3 703 97 
z
M 1959 2075 
Q 2384 2075 2632 2365 
Q 2881 2656 2881 3163 
Q 2881 3666 2632 3958 
Q 2384 4250 1959 4250 
Q 1534 4250 1286 3958 
Q 1038 3666 1038 3163 
Q 1038 2656 1286 2365 
Q 1534 2075 1959 2075 
z
" id="DejaVuSans-39" transform="scale(0.015625)"/>
      </defs>
      <use xlink:href="#DejaVuSans-30"/>
      <use x="63.623047" xlink:href="#DejaVuSans-2e"/>
      <use x="95.410156" xlink:href="#DejaVuSans-30"/>
      <use x="159.033203" xlink:href="#DejaVuSans-39"/>
      <use x="222.65625" xlink:href="#DejaVuSans-31"/>
     </g>
    </g>
   </g>
  </g>
 </g>
 <defs>
  <clipPath id="pe56e81206e">
   <rect height="388.08" width="837" x="135" y="60.48"/>
  </clipPath>
 </defs>
</svg>
