<?xml version="1.0" encoding="utf-8" standalone="no"?>
<!DOCTYPE svg PUBLIC "-//W3C//DTD SVG 1.1//EN"
  "http://www.w3.org/Graphics/SVG/1.1/DTD/svg11.dtd">
<svg height="504pt" version="1.1" viewBox="0 0 1080 504" width="1080pt" xmlns="http://www.w3.org/2000/svg" xmlns:xlink="http://www.w3.org/1999/xlink">
 <metadata>
  <rdf:RDF xmlns:cc="http://creativecommons.org/ns#" xmlns:dc="http://purl.org/dc/elements/1.1/" xmlns:rdf="http://www.w3.org/1999/02/22-rdf-syntax-ns#">
   <cc:Work>
    <dc:type rdf:resource="http://purl.org/dc/dcmitype/StillImage"/>
    <dc:date>2022-01-07T14:35:50.455358</dc:date>
    <dc:format>image/svg+xml</dc:format>
    <dc:creator>
     <cc:Agent>
      <dc:title>Matplotlib v3.4.3, https://matplotlib.org/</dc:title>
     </cc:Agent>
    </dc:creator>
   </cc:Work>
  </rdf:RDF>
 </metadata>
 <defs>
  <style type="text/css">*{stroke-linecap:butt;stroke-linejoin:round;}</style>
 </defs>
 <g id="figure_1">
  <g id="patch_1">
   <path d="M 0 504 
L 1080 504 
L 1080 0 
L 0 0 
z
" style="fill:#ffffff;"/>
  </g>
  <g id="axes_1">
   <g id="patch_2">
    <path d="M 135 448.56 
L 972 448.56 
L 972 60.48 
L 135 60.48 
z
" style="fill:#ffffff;"/>
   </g>
   <g id="matplotlib.axis_1">
    <g id="xtick_1">
     <g id="line2d_1">
      <defs>
       <path d="M 0 0 
L 0 3.5 
" id="m167631de3e" style="stroke:#000000;stroke-width:0.8;"/>
      </defs>
      <g>
       <use style="stroke:#000000;stroke-width:0.8;" x="135" xlink:href="#m167631de3e" y="448.56"/>
      </g>
     </g>
     <g id="text_1">
      <!-- 0.0 -->
      <g transform="translate(120.687187 469.237188)scale(0.18 -0.18)">
       <defs>
        <path d="M 2034 4250 
Q 1547 4250 1301 3770 
Q 1056 3291 1056 2328 
Q 1056 1369 1301 889 
Q 1547 409 2034 409 
Q 2525 409 2770 889 
Q 3016 1369 3016 2328 
Q 3016 3291 2770 3770 
Q 2525 4250 2034 4250 
z
M 2034 4750 
Q 2819 4750 3233 4129 
Q 3647 3509 3647 2328 
Q 3647 1150 3233 529 
Q 2819 -91 2034 -91 
Q 1250 -91 836 529 
Q 422 1150 422 2328 
Q 422 3509 836 4129 
Q 1250 4750 2034 4750 
z
" id="DejaVuSans-30" transform="scale(0.015625)"/>
        <path d="M 684 794 
L 1344 794 
L 1344 0 
L 684 0 
L 684 794 
z
" id="DejaVuSans-2e" transform="scale(0.015625)"/>
       </defs>
       <use xlink:href="#DejaVuSans-30"/>
       <use x="63.623047" xlink:href="#DejaVuSans-2e"/>
       <use x="95.410156" xlink:href="#DejaVuSans-30"/>
      </g>
     </g>
    </g>
    <g id="xtick_2">
     <g id="line2d_2">
      <g>
       <use style="stroke:#000000;stroke-width:0.8;" x="302.4" xlink:href="#m167631de3e" y="448.56"/>
      </g>
     </g>
     <g id="text_2">
      <!-- 0.2 -->
      <g transform="translate(288.087187 469.237188)scale(0.18 -0.18)">
       <defs>
        <path d="M 1228 531 
L 3431 531 
L 3431 0 
L 469 0 
L 469 531 
Q 828 903 1448 1529 
Q 2069 2156 2228 2338 
Q 2531 2678 2651 2914 
Q 2772 3150 2772 3378 
Q 2772 3750 2511 3984 
Q 2250 4219 1831 4219 
Q 1534 4219 1204 4116 
Q 875 4013 500 3803 
L 500 4441 
Q 881 4594 1212 4672 
Q 1544 4750 1819 4750 
Q 2544 4750 2975 4387 
Q 3406 4025 3406 3419 
Q 3406 3131 3298 2873 
Q 3191 2616 2906 2266 
Q 2828 2175 2409 1742 
Q 1991 1309 1228 531 
z
" id="DejaVuSans-32" transform="scale(0.015625)"/>
       </defs>
       <use xlink:href="#DejaVuSans-30"/>
       <use x="63.623047" xlink:href="#DejaVuSans-2e"/>
       <use x="95.410156" xlink:href="#DejaVuSans-32"/>
      </g>
     </g>
    </g>
    <g id="xtick_3">
     <g id="line2d_3">
      <g>
       <use style="stroke:#000000;stroke-width:0.8;" x="469.8" xlink:href="#m167631de3e" y="448.56"/>
      </g>
     </g>
     <g id="text_3">
      <!-- 0.4 -->
      <g transform="translate(455.487188 469.237188)scale(0.18 -0.18)">
       <defs>
        <path d="M 2419 4116 
L 825 1625 
L 2419 1625 
L 2419 4116 
z
M 2253 4666 
L 3047 4666 
L 3047 1625 
L 3713 1625 
L 3713 1100 
L 3047 1100 
L 3047 0 
L 2419 0 
L 2419 1100 
L 313 1100 
L 313 1709 
L 2253 4666 
z
" id="DejaVuSans-34" transform="scale(0.015625)"/>
       </defs>
       <use xlink:href="#DejaVuSans-30"/>
       <use x="63.623047" xlink:href="#DejaVuSans-2e"/>
       <use x="95.410156" xlink:href="#DejaVuSans-34"/>
      </g>
     </g>
    </g>
    <g id="xtick_4">
     <g id="line2d_4">
      <g>
       <use style="stroke:#000000;stroke-width:0.8;" x="637.2" xlink:href="#m167631de3e" y="448.56"/>
      </g>
     </g>
     <g id="text_4">
      <!-- 0.6 -->
      <g transform="translate(622.887188 469.237188)scale(0.18 -0.18)">
       <defs>
        <path d="M 2113 2584 
Q 1688 2584 1439 2293 
Q 1191 2003 1191 1497 
Q 1191 994 1439 701 
Q 1688 409 2113 409 
Q 2538 409 2786 701 
Q 3034 994 3034 1497 
Q 3034 2003 2786 2293 
Q 2538 2584 2113 2584 
z
M 3366 4563 
L 3366 3988 
Q 3128 4100 2886 4159 
Q 2644 4219 2406 4219 
Q 1781 4219 1451 3797 
Q 1122 3375 1075 2522 
Q 1259 2794 1537 2939 
Q 1816 3084 2150 3084 
Q 2853 3084 3261 2657 
Q 3669 2231 3669 1497 
Q 3669 778 3244 343 
Q 2819 -91 2113 -91 
Q 1303 -91 875 529 
Q 447 1150 447 2328 
Q 447 3434 972 4092 
Q 1497 4750 2381 4750 
Q 2619 4750 2861 4703 
Q 3103 4656 3366 4563 
z
" id="DejaVuSans-36" transform="scale(0.015625)"/>
       </defs>
       <use xlink:href="#DejaVuSans-30"/>
       <use x="63.623047" xlink:href="#DejaVuSans-2e"/>
       <use x="95.410156" xlink:href="#DejaVuSans-36"/>
      </g>
     </g>
    </g>
    <g id="xtick_5">
     <g id="line2d_5">
      <g>
       <use style="stroke:#000000;stroke-width:0.8;" x="804.6" xlink:href="#m167631de3e" y="448.56"/>
      </g>
     </g>
     <g id="text_5">
      <!-- 0.8 -->
      <g transform="translate(790.287188 469.237188)scale(0.18 -0.18)">
       <defs>
        <path d="M 2034 2216 
Q 1584 2216 1326 1975 
Q 1069 1734 1069 1313 
Q 1069 891 1326 650 
Q 1584 409 2034 409 
Q 2484 409 2743 651 
Q 3003 894 3003 1313 
Q 3003 1734 2745 1975 
Q 2488 2216 2034 2216 
z
M 1403 2484 
Q 997 2584 770 2862 
Q 544 3141 544 3541 
Q 544 4100 942 4425 
Q 1341 4750 2034 4750 
Q 2731 4750 3128 4425 
Q 3525 4100 3525 3541 
Q 3525 3141 3298 2862 
Q 3072 2584 2669 2484 
Q 3125 2378 3379 2068 
Q 3634 1759 3634 1313 
Q 3634 634 3220 271 
Q 2806 -91 2034 -91 
Q 1263 -91 848 271 
Q 434 634 434 1313 
Q 434 1759 690 2068 
Q 947 2378 1403 2484 
z
M 1172 3481 
Q 1172 3119 1398 2916 
Q 1625 2713 2034 2713 
Q 2441 2713 2670 2916 
Q 2900 3119 2900 3481 
Q 2900 3844 2670 4047 
Q 2441 4250 2034 4250 
Q 1625 4250 1398 4047 
Q 1172 3844 1172 3481 
z
" id="DejaVuSans-38" transform="scale(0.015625)"/>
       </defs>
       <use xlink:href="#DejaVuSans-30"/>
       <use x="63.623047" xlink:href="#DejaVuSans-2e"/>
       <use x="95.410156" xlink:href="#DejaVuSans-38"/>
      </g>
     </g>
    </g>
    <g id="xtick_6">
     <g id="line2d_6">
      <g>
       <use style="stroke:#000000;stroke-width:0.8;" x="972" xlink:href="#m167631de3e" y="448.56"/>
      </g>
     </g>
     <g id="text_6">
      <!-- 1.0 -->
      <g transform="translate(957.687188 469.237188)scale(0.18 -0.18)">
       <defs>
        <path d="M 794 531 
L 1825 531 
L 1825 4091 
L 703 3866 
L 703 4441 
L 1819 4666 
L 2450 4666 
L 2450 531 
L 3481 531 
L 3481 0 
L 794 0 
L 794 531 
z
" id="DejaVuSans-31" transform="scale(0.015625)"/>
       </defs>
       <use xlink:href="#DejaVuSans-31"/>
       <use x="63.623047" xlink:href="#DejaVuSans-2e"/>
       <use x="95.410156" xlink:href="#DejaVuSans-30"/>
      </g>
     </g>
    </g>
    <g id="text_7">
     <!-- $FPR_{Utility}$ -->
     <g transform="translate(509.94 493.040625)scale(0.22 -0.22)">
      <defs>
       <path d="M 1081 4666 
L 3756 4666 
L 3653 4134 
L 1606 4134 
L 1338 2759 
L 3188 2759 
L 3084 2228 
L 1234 2228 
L 800 0 
L 172 0 
L 1081 4666 
z
" id="DejaVuSans-Oblique-46" transform="scale(0.015625)"/>
       <path d="M 1081 4666 
L 2541 4666 
Q 3178 4666 3512 4369 
Q 3847 4072 3847 3500 
Q 3847 2731 3353 2303 
Q 2859 1875 1966 1875 
L 1172 1875 
L 806 0 
L 172 0 
L 1081 4666 
z
M 1613 4147 
L 1275 2394 
L 2069 2394 
Q 2606 2394 2893 2669 
Q 3181 2944 3181 3456 
Q 3181 3784 2986 3965 
Q 2791 4147 2438 4147 
L 1613 4147 
z
" id="DejaVuSans-Oblique-50" transform="scale(0.015625)"/>
       <path d="M 1613 4147 
L 1294 2491 
L 2106 2491 
Q 2584 2491 2879 2755 
Q 3175 3019 3175 3444 
Q 3175 3784 2976 3965 
Q 2778 4147 2406 4147 
L 1613 4147 
z
M 2772 2241 
Q 2972 2194 3105 2009 
Q 3238 1825 3413 1275 
L 3809 0 
L 3144 0 
L 2778 1197 
Q 2638 1659 2453 1815 
Q 2269 1972 1888 1972 
L 1191 1972 
L 806 0 
L 172 0 
L 1081 4666 
L 2503 4666 
Q 3150 4666 3495 4373 
Q 3841 4081 3841 3531 
Q 3841 3044 3547 2687 
Q 3253 2331 2772 2241 
z
" id="DejaVuSans-Oblique-52" transform="scale(0.015625)"/>
       <path d="M 991 4666 
L 1625 4666 
L 1075 1831 
Q 1041 1641 1027 1517 
Q 1013 1394 1013 1300 
Q 1013 869 1253 645 
Q 1494 422 1959 422 
Q 2563 422 2898 753 
Q 3234 1084 3378 1831 
L 3928 4666 
L 4563 4666 
L 4000 1753 
Q 3816 809 3300 359 
Q 2784 -91 1888 -91 
Q 1188 -91 780 261 
Q 372 613 372 1216 
Q 372 1325 387 1461 
Q 403 1597 434 1753 
L 991 4666 
z
" id="DejaVuSans-Oblique-55" transform="scale(0.015625)"/>
       <path d="M 2706 3500 
L 2619 3053 
L 1472 3053 
L 1100 1153 
Q 1081 1047 1072 975 
Q 1063 903 1063 863 
Q 1063 663 1183 572 
Q 1303 481 1569 481 
L 2150 481 
L 2053 0 
L 1503 0 
Q 991 0 739 200 
Q 488 400 488 806 
Q 488 878 497 964 
Q 506 1050 525 1153 
L 897 3053 
L 409 3053 
L 500 3500 
L 978 3500 
L 1172 4494 
L 1747 4494 
L 1556 3500 
L 2706 3500 
z
" id="DejaVuSans-Oblique-74" transform="scale(0.015625)"/>
       <path d="M 1172 4863 
L 1747 4863 
L 1606 4134 
L 1031 4134 
L 1172 4863 
z
M 909 3500 
L 1484 3500 
L 800 0 
L 225 0 
L 909 3500 
z
" id="DejaVuSans-Oblique-69" transform="scale(0.015625)"/>
       <path d="M 1172 4863 
L 1747 4863 
L 800 0 
L 225 0 
L 1172 4863 
z
" id="DejaVuSans-Oblique-6c" transform="scale(0.015625)"/>
       <path d="M 1588 -325 
Q 1188 -997 936 -1164 
Q 684 -1331 294 -1331 
L -159 -1331 
L -63 -850 
L 269 -850 
Q 509 -850 678 -719 
Q 847 -588 1056 -206 
L 1234 128 
L 459 3500 
L 1069 3500 
L 1650 819 
L 3256 3500 
L 3859 3500 
L 1588 -325 
z
" id="DejaVuSans-Oblique-79" transform="scale(0.015625)"/>
      </defs>
      <use transform="translate(0 0.09375)" xlink:href="#DejaVuSans-Oblique-46"/>
      <use transform="translate(57.519531 0.09375)" xlink:href="#DejaVuSans-Oblique-50"/>
      <use transform="translate(117.822266 0.09375)" xlink:href="#DejaVuSans-Oblique-52"/>
      <use transform="translate(187.304688 -16.3125)scale(0.7)" xlink:href="#DejaVuSans-Oblique-55"/>
      <use transform="translate(238.540039 -16.3125)scale(0.7)" xlink:href="#DejaVuSans-Oblique-74"/>
      <use transform="translate(265.986328 -16.3125)scale(0.7)" xlink:href="#DejaVuSans-Oblique-69"/>
      <use transform="translate(285.43457 -16.3125)scale(0.7)" xlink:href="#DejaVuSans-Oblique-6c"/>
      <use transform="translate(304.882812 -16.3125)scale(0.7)" xlink:href="#DejaVuSans-Oblique-69"/>
      <use transform="translate(324.331055 -16.3125)scale(0.7)" xlink:href="#DejaVuSans-Oblique-74"/>
      <use transform="translate(351.777344 -16.3125)scale(0.7)" xlink:href="#DejaVuSans-Oblique-79"/>
     </g>
    </g>
   </g>
   <g id="matplotlib.axis_2">
    <g id="ytick_1">
     <g id="line2d_7">
      <defs>
       <path d="M 0 0 
L -3.5 0 
" id="mfe89b6e255" style="stroke:#000000;stroke-width:0.8;"/>
      </defs>
      <g>
       <use style="stroke:#000000;stroke-width:0.8;" x="135" xlink:href="#mfe89b6e255" y="448.56"/>
      </g>
     </g>
     <g id="text_8">
      <!-- 0.0 -->
      <g transform="translate(99.374375 455.398594)scale(0.18 -0.18)">
       <use xlink:href="#DejaVuSans-30"/>
       <use x="63.623047" xlink:href="#DejaVuSans-2e"/>
       <use x="95.410156" xlink:href="#DejaVuSans-30"/>
      </g>
     </g>
    </g>
    <g id="ytick_2">
     <g id="line2d_8">
      <g>
       <use style="stroke:#000000;stroke-width:0.8;" x="135" xlink:href="#mfe89b6e255" y="370.944"/>
      </g>
     </g>
     <g id="text_9">
      <!-- 0.2 -->
      <g transform="translate(99.374375 377.782594)scale(0.18 -0.18)">
       <use xlink:href="#DejaVuSans-30"/>
       <use x="63.623047" xlink:href="#DejaVuSans-2e"/>
       <use x="95.410156" xlink:href="#DejaVuSans-32"/>
      </g>
     </g>
    </g>
    <g id="ytick_3">
     <g id="line2d_9">
      <g>
       <use style="stroke:#000000;stroke-width:0.8;" x="135" xlink:href="#mfe89b6e255" y="293.328"/>
      </g>
     </g>
     <g id="text_10">
      <!-- 0.4 -->
      <g transform="translate(99.374375 300.166594)scale(0.18 -0.18)">
       <use xlink:href="#DejaVuSans-30"/>
       <use x="63.623047" xlink:href="#DejaVuSans-2e"/>
       <use x="95.410156" xlink:href="#DejaVuSans-34"/>
      </g>
     </g>
    </g>
    <g id="ytick_4">
     <g id="line2d_10">
      <g>
       <use style="stroke:#000000;stroke-width:0.8;" x="135" xlink:href="#mfe89b6e255" y="215.712"/>
      </g>
     </g>
     <g id="text_11">
      <!-- 0.6 -->
      <g transform="translate(99.374375 222.550594)scale(0.18 -0.18)">
       <use xlink:href="#DejaVuSans-30"/>
       <use x="63.623047" xlink:href="#DejaVuSans-2e"/>
       <use x="95.410156" xlink:href="#DejaVuSans-36"/>
      </g>
     </g>
    </g>
    <g id="ytick_5">
     <g id="line2d_11">
      <g>
       <use style="stroke:#000000;stroke-width:0.8;" x="135" xlink:href="#mfe89b6e255" y="138.096"/>
      </g>
     </g>
     <g id="text_12">
      <!-- 0.8 -->
      <g transform="translate(99.374375 144.934594)scale(0.18 -0.18)">
       <use xlink:href="#DejaVuSans-30"/>
       <use x="63.623047" xlink:href="#DejaVuSans-2e"/>
       <use x="95.410156" xlink:href="#DejaVuSans-38"/>
      </g>
     </g>
    </g>
    <g id="ytick_6">
     <g id="line2d_12">
      <g>
       <use style="stroke:#000000;stroke-width:0.8;" x="135" xlink:href="#mfe89b6e255" y="60.48"/>
      </g>
     </g>
     <g id="text_13">
      <!-- 1.0 -->
      <g transform="translate(99.374375 67.318594)scale(0.18 -0.18)">
       <use xlink:href="#DejaVuSans-31"/>
       <use x="63.623047" xlink:href="#DejaVuSans-2e"/>
       <use x="95.410156" xlink:href="#DejaVuSans-30"/>
      </g>
     </g>
    </g>
    <g id="text_14">
     <!-- $TPR_{Utility}$ -->
     <g transform="translate(88.554375 298.52)rotate(-90)scale(0.22 -0.22)">
      <defs>
       <path d="M 378 4666 
L 4325 4666 
L 4225 4134 
L 2559 4134 
L 1759 0 
L 1125 0 
L 1925 4134 
L 275 4134 
L 378 4666 
z
" id="DejaVuSans-Oblique-54" transform="scale(0.015625)"/>
      </defs>
      <use transform="translate(0 0.09375)" xlink:href="#DejaVuSans-Oblique-54"/>
      <use transform="translate(61.083984 0.09375)" xlink:href="#DejaVuSans-Oblique-50"/>
      <use transform="translate(121.386719 0.09375)" xlink:href="#DejaVuSans-Oblique-52"/>
      <use transform="translate(190.869141 -16.3125)scale(0.7)" xlink:href="#DejaVuSans-Oblique-55"/>
      <use transform="translate(242.104492 -16.3125)scale(0.7)" xlink:href="#DejaVuSans-Oblique-74"/>
      <use transform="translate(269.550781 -16.3125)scale(0.7)" xlink:href="#DejaVuSans-Oblique-69"/>
      <use transform="translate(288.999023 -16.3125)scale(0.7)" xlink:href="#DejaVuSans-Oblique-6c"/>
      <use transform="translate(308.447266 -16.3125)scale(0.7)" xlink:href="#DejaVuSans-Oblique-69"/>
      <use transform="translate(327.895508 -16.3125)scale(0.7)" xlink:href="#DejaVuSans-Oblique-74"/>
      <use transform="translate(355.341797 -16.3125)scale(0.7)" xlink:href="#DejaVuSans-Oblique-79"/>
     </g>
    </g>
   </g>
   <g id="line2d_13">
    <path clip-path="url(#p4675506672)" d="M 135 448.56 
L 135 433.755858 
L 137.051471 433.755858 
L 137.051471 430.583542 
L 139.102941 430.583542 
L 139.102941 421.066594 
L 143.205882 421.066594 
L 143.205882 403.090136 
L 145.257353 403.090136 
L 145.257353 402.032698 
L 147.308824 402.032698 
L 147.308824 399.91782 
L 149.360294 399.91782 
L 149.360294 396.745504 
L 151.411765 396.745504 
L 151.411765 384.05624 
L 153.463235 384.05624 
L 153.463235 381.941362 
L 155.514706 381.941362 
L 155.514706 377.711608 
L 157.566176 377.711608 
L 157.566176 374.539292 
L 159.617647 374.539292 
L 159.617647 365.022343 
L 161.669118 365.022343 
L 161.669118 354.447956 
L 163.720588 354.447956 
L 163.720588 349.160763 
L 165.772059 349.160763 
L 165.772059 342.816131 
L 167.823529 342.816131 
L 167.823529 339.643815 
L 169.875 339.643815 
L 169.875 337.528937 
L 171.926471 337.528937 
L 171.926471 335.41406 
L 176.029412 335.41406 
L 176.029412 331.184305 
L 178.080882 331.184305 
L 178.080882 329.069428 
L 182.183824 329.069428 
L 182.183824 328.011989 
L 184.235294 328.011989 
L 184.235294 326.95455 
L 188.338235 326.95455 
L 188.338235 311.09297 
L 190.389706 311.09297 
L 190.389706 305.805777 
L 192.441176 305.805777 
L 192.441176 304.748338 
L 194.492647 304.748338 
L 194.492647 301.576022 
L 198.595588 301.576022 
L 198.595588 300.518583 
L 202.698529 300.518583 
L 202.698529 298.403706 
L 204.75 298.403706 
L 204.75 297.346267 
L 206.801471 297.346267 
L 206.801471 293.116512 
L 210.904412 293.116512 
L 210.904412 287.829319 
L 212.955882 287.829319 
L 212.955882 283.599564 
L 215.007353 283.599564 
L 215.007353 282.542125 
L 217.058824 282.542125 
L 217.058824 281.484687 
L 219.110294 281.484687 
L 219.110294 280.427248 
L 223.213235 280.427248 
L 223.213235 279.369809 
L 225.264706 279.369809 
L 225.264706 276.197493 
L 229.367647 276.197493 
L 229.367647 269.852861 
L 231.419118 269.852861 
L 231.419118 267.737984 
L 233.470588 267.737984 
L 233.470588 264.565668 
L 237.573529 264.565668 
L 237.573529 262.45079 
L 241.676471 262.45079 
L 241.676471 260.335913 
L 249.882353 260.335913 
L 249.882353 251.876403 
L 251.933824 251.876403 
L 251.933824 249.761526 
L 253.985294 249.761526 
L 253.985294 247.646649 
L 262.191176 247.646649 
L 262.191176 246.58921 
L 264.242647 246.58921 
L 264.242647 245.531771 
L 268.345588 245.531771 
L 268.345588 244.474332 
L 270.397059 244.474332 
L 270.397059 243.416894 
L 272.448529 243.416894 
L 272.448529 239.187139 
L 274.5 239.187139 
L 274.5 233.899946 
L 276.551471 233.899946 
L 276.551471 232.842507 
L 278.602941 232.842507 
L 278.602941 231.785068 
L 280.654412 231.785068 
L 280.654412 230.727629 
L 282.705882 230.727629 
L 282.705882 226.497875 
L 284.757353 226.497875 
L 284.757353 222.26812 
L 286.808824 222.26812 
L 286.808824 220.153243 
L 290.911765 220.153243 
L 290.911765 219.095804 
L 292.963235 219.095804 
L 292.963235 216.980926 
L 301.169118 216.980926 
L 301.169118 210.636294 
L 305.272059 210.636294 
L 305.272059 207.463978 
L 307.323529 207.463978 
L 307.323529 206.40654 
L 311.426471 206.40654 
L 311.426471 203.234223 
L 313.477941 203.234223 
L 313.477941 199.004469 
L 315.529412 199.004469 
L 315.529412 194.774714 
L 317.580882 194.774714 
L 317.580882 193.717275 
L 319.632353 193.717275 
L 319.632353 191.602398 
L 325.786765 191.602398 
L 325.786765 190.544959 
L 336.044118 190.544959 
L 336.044118 189.48752 
L 338.095588 189.48752 
L 338.095588 186.315204 
L 342.198529 186.315204 
L 342.198529 185.257766 
L 350.404412 185.257766 
L 350.404412 184.200327 
L 360.661765 184.200327 
L 360.661765 177.855695 
L 366.816176 177.855695 
L 366.816176 175.740817 
L 377.073529 175.740817 
L 377.073529 174.683379 
L 379.125 174.683379 
L 379.125 172.568501 
L 381.176471 172.568501 
L 381.176471 171.511063 
L 385.279412 171.511063 
L 385.279412 165.166431 
L 391.433824 165.166431 
L 391.433824 164.108992 
L 399.639706 164.108992 
L 399.639706 163.051553 
L 409.897059 163.051553 
L 409.897059 160.936676 
L 411.948529 160.936676 
L 411.948529 156.706921 
L 414 156.706921 
L 414 155.649482 
L 426.308824 155.649482 
L 426.308824 154.592044 
L 430.411765 154.592044 
L 430.411765 153.534605 
L 436.566176 153.534605 
L 436.566176 151.419728 
L 438.617647 151.419728 
L 438.617647 149.30485 
L 442.720588 149.30485 
L 442.720588 146.132534 
L 444.772059 146.132534 
L 444.772059 144.017657 
L 446.823529 144.017657 
L 446.823529 142.960218 
L 448.875 142.960218 
L 448.875 141.902779 
L 459.132353 141.902779 
L 459.132353 138.730463 
L 467.338235 138.730463 
L 467.338235 137.673025 
L 481.698529 137.673025 
L 481.698529 136.615586 
L 487.852941 136.615586 
L 487.852941 134.500708 
L 489.904412 134.500708 
L 489.904412 128.156076 
L 498.110294 128.156076 
L 498.110294 127.098638 
L 502.213235 127.098638 
L 502.213235 124.98376 
L 506.316176 124.98376 
L 506.316176 123.926322 
L 510.419118 123.926322 
L 510.419118 122.868883 
L 514.522059 122.868883 
L 514.522059 121.811444 
L 535.036765 121.811444 
L 535.036765 120.754005 
L 537.088235 120.754005 
L 537.088235 119.696567 
L 541.191176 119.696567 
L 541.191176 118.639128 
L 547.345588 118.639128 
L 547.345588 116.524251 
L 565.808824 116.524251 
L 565.808824 115.466812 
L 569.911765 115.466812 
L 569.911765 113.351935 
L 588.375 113.351935 
L 588.375 111.237057 
L 596.580882 111.237057 
L 596.580882 108.064741 
L 598.632353 108.064741 
L 598.632353 104.892425 
L 602.735294 104.892425 
L 602.735294 102.777548 
L 604.786765 102.777548 
L 604.786765 101.720109 
L 606.838235 101.720109 
L 606.838235 100.66267 
L 608.889706 100.66267 
L 608.889706 99.605232 
L 612.992647 99.605232 
L 612.992647 98.547793 
L 615.044118 98.547793 
L 615.044118 97.490354 
L 627.352941 97.490354 
L 627.352941 96.432916 
L 631.455882 96.432916 
L 631.455882 94.318038 
L 649.919118 94.318038 
L 649.919118 93.260599 
L 651.970588 93.260599 
L 651.970588 90.088283 
L 664.279412 90.088283 
L 664.279412 89.030845 
L 680.691176 89.030845 
L 680.691176 87.973406 
L 703.257353 87.973406 
L 703.257353 84.80109 
L 707.360294 84.80109 
L 707.360294 82.686213 
L 713.514706 82.686213 
L 713.514706 80.571335 
L 752.492647 80.571335 
L 752.492647 79.513896 
L 758.647059 79.513896 
L 758.647059 77.399019 
L 760.698529 77.399019 
L 760.698529 75.284142 
L 770.955882 75.284142 
L 770.955882 74.226703 
L 787.367647 74.226703 
L 787.367647 73.169264 
L 816.088235 73.169264 
L 816.088235 69.996948 
L 836.602941 69.996948 
L 836.602941 68.93951 
L 850.963235 68.93951 
L 850.963235 67.882071 
L 857.117647 67.882071 
L 857.117647 66.824632 
L 865.323529 66.824632 
L 865.323529 65.767193 
L 877.632353 65.767193 
L 877.632353 64.709755 
L 906.352941 64.709755 
L 906.352941 63.652316 
L 908.404412 63.652316 
L 908.404412 62.594877 
L 957.639706 62.594877 
L 957.639706 61.537439 
L 959.691176 61.537439 
L 959.691176 60.48 
L 972 60.48 
L 972 60.48 
" style="fill:none;stroke:#1f77b4;stroke-linecap:square;stroke-width:1.5;"/>
   </g>
   <g id="line2d_14">
    <path clip-path="url(#p4675506672)" d="M 135 448.56 
L 135 439.043052 
L 137.051471 439.043052 
L 137.051471 432.69842 
L 139.102941 432.69842 
L 139.102941 414.721962 
L 143.205882 414.721962 
L 143.205882 412.607084 
L 145.257353 412.607084 
L 145.257353 410.492207 
L 147.308824 410.492207 
L 147.308824 398.860381 
L 151.411765 398.860381 
L 151.411765 384.05624 
L 153.463235 384.05624 
L 153.463235 375.59673 
L 155.514706 375.59673 
L 155.514706 374.539292 
L 157.566176 374.539292 
L 157.566176 362.907466 
L 159.617647 362.907466 
L 159.617647 359.73515 
L 163.720588 359.73515 
L 163.720588 351.27564 
L 167.823529 351.27564 
L 167.823529 350.218202 
L 169.875 350.218202 
L 169.875 339.643815 
L 171.926471 339.643815 
L 171.926471 336.471499 
L 173.977941 336.471499 
L 173.977941 329.069428 
L 176.029412 329.069428 
L 176.029412 328.011989 
L 178.080882 328.011989 
L 178.080882 326.95455 
L 180.132353 326.95455 
L 180.132353 325.897112 
L 184.235294 325.897112 
L 184.235294 324.839673 
L 186.286765 324.839673 
L 186.286765 318.495041 
L 190.389706 318.495041 
L 190.389706 316.380163 
L 192.441176 316.380163 
L 192.441176 315.322725 
L 194.492647 315.322725 
L 194.492647 312.150409 
L 196.544118 312.150409 
L 196.544118 311.09297 
L 198.595588 311.09297 
L 198.595588 310.035531 
L 200.647059 310.035531 
L 200.647059 307.920654 
L 202.698529 307.920654 
L 202.698529 305.805777 
L 204.75 305.805777 
L 204.75 303.690899 
L 208.852941 303.690899 
L 208.852941 298.403706 
L 215.007353 298.403706 
L 215.007353 296.288828 
L 217.058824 296.288828 
L 217.058824 295.23139 
L 219.110294 295.23139 
L 219.110294 289.944196 
L 221.161765 289.944196 
L 221.161765 286.77188 
L 223.213235 286.77188 
L 223.213235 283.599564 
L 227.316176 283.599564 
L 227.316176 282.542125 
L 231.419118 282.542125 
L 231.419118 281.484687 
L 233.470588 281.484687 
L 233.470588 278.312371 
L 235.522059 278.312371 
L 235.522059 276.197493 
L 237.573529 276.197493 
L 237.573529 275.140054 
L 239.625 275.140054 
L 239.625 273.025177 
L 241.676471 273.025177 
L 241.676471 271.967738 
L 247.830882 271.967738 
L 247.830882 263.508229 
L 249.882353 263.508229 
L 249.882353 256.106158 
L 258.088235 256.106158 
L 258.088235 251.876403 
L 260.139706 251.876403 
L 260.139706 250.818965 
L 262.191176 250.818965 
L 262.191176 247.646649 
L 264.242647 247.646649 
L 264.242647 242.359455 
L 266.294118 242.359455 
L 266.294118 241.302016 
L 268.345588 241.302016 
L 268.345588 240.244578 
L 272.448529 240.244578 
L 272.448529 234.957384 
L 278.602941 234.957384 
L 278.602941 232.842507 
L 280.654412 232.842507 
L 280.654412 231.785068 
L 284.757353 231.785068 
L 284.757353 229.670191 
L 286.808824 229.670191 
L 286.808824 228.612752 
L 290.911765 228.612752 
L 290.911765 227.555313 
L 292.963235 227.555313 
L 292.963235 226.497875 
L 295.014706 226.497875 
L 295.014706 225.440436 
L 297.066176 225.440436 
L 297.066176 223.325559 
L 299.117647 223.325559 
L 299.117647 218.038365 
L 303.220588 218.038365 
L 303.220588 216.980926 
L 311.426471 216.980926 
L 311.426471 213.80861 
L 313.477941 213.80861 
L 313.477941 212.751172 
L 315.529412 212.751172 
L 315.529412 206.40654 
L 325.786765 206.40654 
L 325.786765 203.234223 
L 327.838235 203.234223 
L 327.838235 200.061907 
L 329.889706 200.061907 
L 329.889706 199.004469 
L 331.941176 199.004469 
L 331.941176 197.94703 
L 333.992647 197.94703 
L 333.992647 195.832153 
L 336.044118 195.832153 
L 336.044118 193.717275 
L 340.147059 193.717275 
L 340.147059 186.315204 
L 342.198529 186.315204 
L 342.198529 185.257766 
L 358.610294 185.257766 
L 358.610294 184.200327 
L 364.764706 184.200327 
L 364.764706 174.683379 
L 368.867647 174.683379 
L 368.867647 173.62594 
L 372.970588 173.62594 
L 372.970588 172.568501 
L 375.022059 172.568501 
L 375.022059 171.511063 
L 379.125 171.511063 
L 379.125 169.396185 
L 383.227941 169.396185 
L 383.227941 168.338747 
L 393.485294 168.338747 
L 393.485294 164.108992 
L 395.536765 164.108992 
L 395.536765 161.994114 
L 399.639706 161.994114 
L 399.639706 160.936676 
L 403.742647 160.936676 
L 403.742647 158.821798 
L 405.794118 158.821798 
L 405.794118 157.76436 
L 407.845588 157.76436 
L 407.845588 156.706921 
L 418.102941 156.706921 
L 418.102941 154.592044 
L 424.257353 154.592044 
L 424.257353 153.534605 
L 426.308824 153.534605 
L 426.308824 152.477166 
L 428.360294 152.477166 
L 428.360294 151.419728 
L 457.080882 151.419728 
L 457.080882 150.362289 
L 465.286765 150.362289 
L 465.286765 149.30485 
L 475.544118 149.30485 
L 475.544118 146.132534 
L 479.647059 146.132534 
L 479.647059 144.017657 
L 483.75 144.017657 
L 483.75 141.902779 
L 496.058824 141.902779 
L 496.058824 140.845341 
L 504.264706 140.845341 
L 504.264706 137.673025 
L 506.316176 137.673025 
L 506.316176 134.500708 
L 516.573529 134.500708 
L 516.573529 132.385831 
L 522.727941 132.385831 
L 522.727941 131.328392 
L 528.882353 131.328392 
L 528.882353 129.213515 
L 530.933824 129.213515 
L 530.933824 128.156076 
L 532.985294 128.156076 
L 532.985294 127.098638 
L 537.088235 127.098638 
L 537.088235 124.98376 
L 539.139706 124.98376 
L 539.139706 123.926322 
L 547.345588 123.926322 
L 547.345588 121.811444 
L 549.397059 121.811444 
L 549.397059 120.754005 
L 559.654412 120.754005 
L 559.654412 118.639128 
L 565.808824 118.639128 
L 565.808824 116.524251 
L 567.860294 116.524251 
L 567.860294 115.466812 
L 569.911765 115.466812 
L 569.911765 114.409373 
L 571.963235 114.409373 
L 571.963235 112.294496 
L 576.066176 112.294496 
L 576.066176 111.237057 
L 582.220588 111.237057 
L 582.220588 110.179619 
L 586.323529 110.179619 
L 586.323529 109.12218 
L 590.426471 109.12218 
L 590.426471 107.007302 
L 592.477941 107.007302 
L 592.477941 104.892425 
L 596.580882 104.892425 
L 596.580882 103.834986 
L 608.889706 103.834986 
L 608.889706 101.720109 
L 610.941176 101.720109 
L 610.941176 99.605232 
L 621.198529 99.605232 
L 621.198529 98.547793 
L 623.25 98.547793 
L 623.25 97.490354 
L 627.352941 97.490354 
L 627.352941 96.432916 
L 631.455882 96.432916 
L 631.455882 94.318038 
L 633.507353 94.318038 
L 633.507353 93.260599 
L 639.661765 93.260599 
L 639.661765 92.203161 
L 662.227941 92.203161 
L 662.227941 91.145722 
L 668.382353 91.145722 
L 668.382353 90.088283 
L 688.897059 90.088283 
L 688.897059 89.030845 
L 697.102941 89.030845 
L 697.102941 87.973406 
L 701.205882 87.973406 
L 701.205882 86.915967 
L 709.411765 86.915967 
L 709.411765 85.858529 
L 713.514706 85.858529 
L 713.514706 84.80109 
L 717.617647 84.80109 
L 717.617647 83.743651 
L 729.926471 83.743651 
L 729.926471 82.686213 
L 740.183824 82.686213 
L 740.183824 81.628774 
L 746.338235 81.628774 
L 746.338235 80.571335 
L 750.441176 80.571335 
L 750.441176 78.456458 
L 754.544118 78.456458 
L 754.544118 77.399019 
L 770.955882 77.399019 
L 770.955882 76.34158 
L 777.110294 76.34158 
L 777.110294 75.284142 
L 820.191176 75.284142 
L 820.191176 74.226703 
L 822.242647 74.226703 
L 822.242647 73.169264 
L 826.345588 73.169264 
L 826.345588 72.111826 
L 838.654412 72.111826 
L 838.654412 71.054387 
L 848.911765 71.054387 
L 848.911765 68.93951 
L 861.220588 68.93951 
L 861.220588 67.882071 
L 869.426471 67.882071 
L 869.426471 66.824632 
L 873.529412 66.824632 
L 873.529412 65.767193 
L 891.992647 65.767193 
L 891.992647 63.652316 
L 937.125 63.652316 
L 937.125 62.594877 
L 969.948529 62.594877 
L 969.948529 60.48 
L 972 60.48 
L 972 60.48 
" style="fill:none;stroke:#ff7f0e;stroke-linecap:square;stroke-width:1.5;"/>
   </g>
   <g id="line2d_15">
    <path clip-path="url(#p4675506672)" d="M 135 448.56 
L 135 432.69842 
L 137.051471 432.69842 
L 137.051471 415.779401 
L 139.102941 415.779401 
L 139.102941 410.492207 
L 141.154412 410.492207 
L 141.154412 405.205014 
L 143.205882 405.205014 
L 143.205882 399.91782 
L 145.257353 399.91782 
L 145.257353 397.802943 
L 147.308824 397.802943 
L 147.308824 395.688065 
L 149.360294 395.688065 
L 149.360294 387.228556 
L 151.411765 387.228556 
L 151.411765 384.05624 
L 153.463235 384.05624 
L 153.463235 379.826485 
L 155.514706 379.826485 
L 155.514706 376.654169 
L 159.617647 376.654169 
L 159.617647 371.366975 
L 161.669118 371.366975 
L 161.669118 360.792589 
L 163.720588 360.792589 
L 163.720588 358.677711 
L 165.772059 358.677711 
L 165.772059 357.620272 
L 167.823529 357.620272 
L 167.823529 350.218202 
L 169.875 350.218202 
L 169.875 338.586376 
L 171.926471 338.586376 
L 171.926471 325.897112 
L 173.977941 325.897112 
L 173.977941 316.380163 
L 176.029412 316.380163 
L 176.029412 315.322725 
L 178.080882 315.322725 
L 178.080882 312.150409 
L 184.235294 312.150409 
L 184.235294 308.978093 
L 186.286765 308.978093 
L 186.286765 307.920654 
L 190.389706 307.920654 
L 190.389706 305.805777 
L 192.441176 305.805777 
L 192.441176 304.748338 
L 194.492647 304.748338 
L 194.492647 302.63346 
L 196.544118 302.63346 
L 196.544118 299.461144 
L 200.647059 299.461144 
L 200.647059 298.403706 
L 202.698529 298.403706 
L 202.698529 297.346267 
L 204.75 297.346267 
L 204.75 294.173951 
L 206.801471 294.173951 
L 206.801471 289.944196 
L 208.852941 289.944196 
L 208.852941 288.886757 
L 210.904412 288.886757 
L 210.904412 286.77188 
L 212.955882 286.77188 
L 212.955882 283.599564 
L 215.007353 283.599564 
L 215.007353 282.542125 
L 221.161765 282.542125 
L 221.161765 281.484687 
L 223.213235 281.484687 
L 223.213235 279.369809 
L 227.316176 279.369809 
L 227.316176 274.082616 
L 229.367647 274.082616 
L 229.367647 267.737984 
L 237.573529 267.737984 
L 237.573529 265.623106 
L 239.625 265.623106 
L 239.625 262.45079 
L 245.779412 262.45079 
L 245.779412 261.393351 
L 249.882353 261.393351 
L 249.882353 260.335913 
L 251.933824 260.335913 
L 251.933824 257.163597 
L 260.139706 257.163597 
L 260.139706 255.048719 
L 262.191176 255.048719 
L 262.191176 248.704087 
L 264.242647 248.704087 
L 264.242647 245.531771 
L 268.345588 245.531771 
L 268.345588 244.474332 
L 270.397059 244.474332 
L 270.397059 243.416894 
L 272.448529 243.416894 
L 272.448529 242.359455 
L 274.5 242.359455 
L 274.5 241.302016 
L 282.705882 241.302016 
L 282.705882 238.1297 
L 284.757353 238.1297 
L 284.757353 232.842507 
L 288.860294 232.842507 
L 288.860294 231.785068 
L 290.911765 231.785068 
L 290.911765 225.440436 
L 295.014706 225.440436 
L 295.014706 222.26812 
L 297.066176 222.26812 
L 297.066176 219.095804 
L 307.323529 219.095804 
L 307.323529 218.038365 
L 309.375 218.038365 
L 309.375 215.923488 
L 311.426471 215.923488 
L 311.426471 213.80861 
L 317.580882 213.80861 
L 317.580882 211.693733 
L 319.632353 211.693733 
L 319.632353 208.521417 
L 321.683824 208.521417 
L 321.683824 205.349101 
L 323.735294 205.349101 
L 323.735294 204.291662 
L 333.992647 204.291662 
L 333.992647 201.119346 
L 338.095588 201.119346 
L 338.095588 200.061907 
L 340.147059 200.061907 
L 340.147059 197.94703 
L 342.198529 197.94703 
L 342.198529 193.717275 
L 352.455882 193.717275 
L 352.455882 191.602398 
L 354.507353 191.602398 
L 354.507353 189.48752 
L 360.661765 189.48752 
L 360.661765 187.372643 
L 364.764706 187.372643 
L 364.764706 186.315204 
L 366.816176 186.315204 
L 366.816176 183.142888 
L 370.919118 183.142888 
L 370.919118 181.028011 
L 372.970588 181.028011 
L 372.970588 178.913134 
L 377.073529 178.913134 
L 377.073529 177.855695 
L 387.330882 177.855695 
L 387.330882 176.798256 
L 391.433824 176.798256 
L 391.433824 175.740817 
L 403.742647 175.740817 
L 403.742647 173.62594 
L 411.948529 173.62594 
L 411.948529 172.568501 
L 416.051471 172.568501 
L 416.051471 168.338747 
L 422.205882 168.338747 
L 422.205882 165.166431 
L 432.463235 165.166431 
L 432.463235 164.108992 
L 436.566176 164.108992 
L 436.566176 161.994114 
L 438.617647 161.994114 
L 438.617647 160.936676 
L 440.669118 160.936676 
L 440.669118 159.879237 
L 446.823529 159.879237 
L 446.823529 158.821798 
L 450.926471 158.821798 
L 450.926471 157.76436 
L 459.132353 157.76436 
L 459.132353 156.706921 
L 461.183824 156.706921 
L 461.183824 155.649482 
L 469.389706 155.649482 
L 469.389706 153.534605 
L 475.544118 153.534605 
L 475.544118 152.477166 
L 477.595588 152.477166 
L 477.595588 151.419728 
L 485.801471 151.419728 
L 485.801471 150.362289 
L 489.904412 150.362289 
L 489.904412 147.189973 
L 494.007353 147.189973 
L 494.007353 146.132534 
L 502.213235 146.132534 
L 502.213235 144.017657 
L 506.316176 144.017657 
L 506.316176 142.960218 
L 508.367647 142.960218 
L 508.367647 141.902779 
L 510.419118 141.902779 
L 510.419118 139.787902 
L 512.470588 139.787902 
L 512.470588 138.730463 
L 518.625 138.730463 
L 518.625 137.673025 
L 526.830882 137.673025 
L 526.830882 135.558147 
L 530.933824 135.558147 
L 530.933824 133.44327 
L 537.088235 133.44327 
L 537.088235 130.270954 
L 543.242647 130.270954 
L 543.242647 128.156076 
L 547.345588 128.156076 
L 547.345588 127.098638 
L 549.397059 127.098638 
L 549.397059 126.041199 
L 551.448529 126.041199 
L 551.448529 123.926322 
L 553.5 123.926322 
L 553.5 121.811444 
L 557.602941 121.811444 
L 557.602941 120.754005 
L 563.757353 120.754005 
L 563.757353 118.639128 
L 567.860294 118.639128 
L 567.860294 117.581689 
L 580.169118 117.581689 
L 580.169118 116.524251 
L 582.220588 116.524251 
L 582.220588 115.466812 
L 588.375 115.466812 
L 588.375 114.409373 
L 590.426471 114.409373 
L 590.426471 113.351935 
L 606.838235 113.351935 
L 606.838235 112.294496 
L 610.941176 112.294496 
L 610.941176 110.179619 
L 612.992647 110.179619 
L 612.992647 109.12218 
L 625.301471 109.12218 
L 625.301471 107.007302 
L 627.352941 107.007302 
L 627.352941 105.949864 
L 633.507353 105.949864 
L 633.507353 104.892425 
L 645.816176 104.892425 
L 645.816176 102.777548 
L 647.867647 102.777548 
L 647.867647 98.547793 
L 651.970588 98.547793 
L 651.970588 97.490354 
L 666.330882 97.490354 
L 666.330882 94.318038 
L 670.433824 94.318038 
L 670.433824 93.260599 
L 674.536765 93.260599 
L 674.536765 92.203161 
L 678.639706 92.203161 
L 678.639706 91.145722 
L 682.742647 91.145722 
L 682.742647 89.030845 
L 693 89.030845 
L 693 87.973406 
L 699.154412 87.973406 
L 699.154412 86.915967 
L 715.566176 86.915967 
L 715.566176 85.858529 
L 721.720588 85.858529 
L 721.720588 84.80109 
L 744.286765 84.80109 
L 744.286765 82.686213 
L 746.338235 82.686213 
L 746.338235 79.513896 
L 760.698529 79.513896 
L 760.698529 78.456458 
L 764.801471 78.456458 
L 764.801471 77.399019 
L 768.904412 77.399019 
L 768.904412 75.284142 
L 787.367647 75.284142 
L 787.367647 74.226703 
L 809.933824 74.226703 
L 809.933824 73.169264 
L 824.294118 73.169264 
L 824.294118 72.111826 
L 828.397059 72.111826 
L 828.397059 71.054387 
L 848.911765 71.054387 
L 848.911765 69.996948 
L 863.272059 69.996948 
L 863.272059 68.93951 
L 867.375 68.93951 
L 867.375 67.882071 
L 873.529412 67.882071 
L 873.529412 66.824632 
L 879.683824 66.824632 
L 879.683824 65.767193 
L 887.889706 65.767193 
L 887.889706 64.709755 
L 906.352941 64.709755 
L 906.352941 63.652316 
L 918.661765 63.652316 
L 918.661765 62.594877 
L 939.176471 62.594877 
L 939.176471 61.537439 
L 943.279412 61.537439 
L 943.279412 60.48 
L 972 60.48 
L 972 60.48 
" style="fill:none;stroke:#2ca02c;stroke-linecap:square;stroke-width:1.5;"/>
   </g>
   <g id="line2d_16">
    <path clip-path="url(#p4675506672)" d="M 135 448.56 
L 135 435.870736 
L 137.051471 435.870736 
L 137.051471 429.526104 
L 139.102941 429.526104 
L 139.102941 423.181471 
L 141.154412 423.181471 
L 141.154412 407.319891 
L 143.205882 407.319891 
L 143.205882 387.228556 
L 145.257353 387.228556 
L 145.257353 379.826485 
L 149.360294 379.826485 
L 149.360294 376.654169 
L 153.463235 376.654169 
L 153.463235 372.424414 
L 155.514706 372.424414 
L 155.514706 363.964905 
L 157.566176 363.964905 
L 157.566176 358.677711 
L 159.617647 358.677711 
L 159.617647 354.447956 
L 161.669118 354.447956 
L 161.669118 351.27564 
L 163.720588 351.27564 
L 163.720588 340.701253 
L 165.772059 340.701253 
L 165.772059 335.41406 
L 169.875 335.41406 
L 169.875 333.299183 
L 171.926471 333.299183 
L 171.926471 331.184305 
L 176.029412 331.184305 
L 176.029412 326.95455 
L 182.183824 326.95455 
L 182.183824 321.667357 
L 184.235294 321.667357 
L 184.235294 320.609918 
L 188.338235 320.609918 
L 188.338235 313.207847 
L 190.389706 313.207847 
L 190.389706 312.150409 
L 192.441176 312.150409 
L 192.441176 311.09297 
L 194.492647 311.09297 
L 194.492647 305.805777 
L 196.544118 305.805777 
L 196.544118 302.63346 
L 198.595588 302.63346 
L 198.595588 297.346267 
L 200.647059 297.346267 
L 200.647059 291.001635 
L 212.955882 291.001635 
L 212.955882 289.944196 
L 215.007353 289.944196 
L 215.007353 286.77188 
L 223.213235 286.77188 
L 223.213235 285.714441 
L 225.264706 285.714441 
L 225.264706 282.542125 
L 227.316176 282.542125 
L 227.316176 280.427248 
L 231.419118 280.427248 
L 231.419118 276.197493 
L 233.470588 276.197493 
L 233.470588 275.140054 
L 237.573529 275.140054 
L 237.573529 273.025177 
L 239.625 273.025177 
L 239.625 270.9103 
L 241.676471 270.9103 
L 241.676471 269.852861 
L 253.985294 269.852861 
L 253.985294 262.45079 
L 258.088235 262.45079 
L 258.088235 261.393351 
L 260.139706 261.393351 
L 260.139706 258.221035 
L 264.242647 258.221035 
L 264.242647 247.646649 
L 268.345588 247.646649 
L 268.345588 244.474332 
L 274.5 244.474332 
L 274.5 243.416894 
L 276.551471 243.416894 
L 276.551471 242.359455 
L 282.705882 242.359455 
L 282.705882 238.1297 
L 286.808824 238.1297 
L 286.808824 229.670191 
L 292.963235 229.670191 
L 292.963235 228.612752 
L 295.014706 228.612752 
L 295.014706 227.555313 
L 297.066176 227.555313 
L 297.066176 223.325559 
L 303.220588 223.325559 
L 303.220588 214.866049 
L 305.272059 214.866049 
L 305.272059 212.751172 
L 307.323529 212.751172 
L 307.323529 211.693733 
L 309.375 211.693733 
L 309.375 210.636294 
L 311.426471 210.636294 
L 311.426471 209.578856 
L 313.477941 209.578856 
L 313.477941 206.40654 
L 315.529412 206.40654 
L 315.529412 205.349101 
L 319.632353 205.349101 
L 319.632353 203.234223 
L 323.735294 203.234223 
L 323.735294 202.176785 
L 329.889706 202.176785 
L 329.889706 199.004469 
L 346.301471 199.004469 
L 346.301471 194.774714 
L 348.352941 194.774714 
L 348.352941 192.659837 
L 354.507353 192.659837 
L 354.507353 190.544959 
L 356.558824 190.544959 
L 356.558824 187.372643 
L 360.661765 187.372643 
L 360.661765 183.142888 
L 364.764706 183.142888 
L 364.764706 181.028011 
L 370.919118 181.028011 
L 370.919118 177.855695 
L 379.125 177.855695 
L 379.125 176.798256 
L 381.176471 176.798256 
L 381.176471 173.62594 
L 383.227941 173.62594 
L 383.227941 172.568501 
L 391.433824 172.568501 
L 391.433824 167.281308 
L 395.536765 167.281308 
L 395.536765 166.223869 
L 401.691176 166.223869 
L 401.691176 164.108992 
L 403.742647 164.108992 
L 403.742647 163.051553 
L 416.051471 163.051553 
L 416.051471 161.994114 
L 424.257353 161.994114 
L 424.257353 159.879237 
L 430.411765 159.879237 
L 430.411765 157.76436 
L 438.617647 157.76436 
L 438.617647 155.649482 
L 444.772059 155.649482 
L 444.772059 154.592044 
L 446.823529 154.592044 
L 446.823529 153.534605 
L 452.977941 153.534605 
L 452.977941 149.30485 
L 457.080882 149.30485 
L 457.080882 147.189973 
L 459.132353 147.189973 
L 459.132353 146.132534 
L 463.235294 146.132534 
L 463.235294 145.075095 
L 471.441176 145.075095 
L 471.441176 142.960218 
L 481.698529 142.960218 
L 481.698529 140.845341 
L 489.904412 140.845341 
L 489.904412 139.787902 
L 496.058824 139.787902 
L 496.058824 138.730463 
L 518.625 138.730463 
L 518.625 137.673025 
L 520.676471 137.673025 
L 520.676471 136.615586 
L 522.727941 136.615586 
L 522.727941 135.558147 
L 532.985294 135.558147 
L 532.985294 134.500708 
L 537.088235 134.500708 
L 537.088235 132.385831 
L 543.242647 132.385831 
L 543.242647 131.328392 
L 547.345588 131.328392 
L 547.345588 128.156076 
L 549.397059 128.156076 
L 549.397059 127.098638 
L 551.448529 127.098638 
L 551.448529 126.041199 
L 553.5 126.041199 
L 553.5 124.98376 
L 555.551471 124.98376 
L 555.551471 122.868883 
L 563.757353 122.868883 
L 563.757353 121.811444 
L 567.860294 121.811444 
L 567.860294 119.696567 
L 571.963235 119.696567 
L 571.963235 118.639128 
L 578.117647 118.639128 
L 578.117647 117.581689 
L 586.323529 117.581689 
L 586.323529 116.524251 
L 588.375 116.524251 
L 588.375 115.466812 
L 590.426471 115.466812 
L 590.426471 114.409373 
L 592.477941 114.409373 
L 592.477941 113.351935 
L 596.580882 113.351935 
L 596.580882 112.294496 
L 604.786765 112.294496 
L 604.786765 111.237057 
L 606.838235 111.237057 
L 606.838235 108.064741 
L 610.941176 108.064741 
L 610.941176 107.007302 
L 619.147059 107.007302 
L 619.147059 103.834986 
L 623.25 103.834986 
L 623.25 102.777548 
L 631.455882 102.777548 
L 631.455882 101.720109 
L 635.558824 101.720109 
L 635.558824 100.66267 
L 649.919118 100.66267 
L 649.919118 99.605232 
L 656.073529 99.605232 
L 656.073529 98.547793 
L 658.125 98.547793 
L 658.125 97.490354 
L 662.227941 97.490354 
L 662.227941 96.432916 
L 695.051471 96.432916 
L 695.051471 95.375477 
L 697.102941 95.375477 
L 697.102941 94.318038 
L 707.360294 94.318038 
L 707.360294 92.203161 
L 711.463235 92.203161 
L 711.463235 91.145722 
L 713.514706 91.145722 
L 713.514706 85.858529 
L 717.617647 85.858529 
L 717.617647 84.80109 
L 731.977941 84.80109 
L 731.977941 82.686213 
L 756.595588 82.686213 
L 756.595588 81.628774 
L 779.161765 81.628774 
L 779.161765 78.456458 
L 789.419118 78.456458 
L 789.419118 77.399019 
L 799.676471 77.399019 
L 799.676471 75.284142 
L 809.933824 75.284142 
L 809.933824 74.226703 
L 824.294118 74.226703 
L 824.294118 72.111826 
L 832.5 72.111826 
L 832.5 71.054387 
L 834.551471 71.054387 
L 834.551471 69.996948 
L 836.602941 69.996948 
L 836.602941 68.93951 
L 846.860294 68.93951 
L 846.860294 67.882071 
L 900.198529 67.882071 
L 900.198529 66.824632 
L 904.301471 66.824632 
L 904.301471 65.767193 
L 916.610294 65.767193 
L 916.610294 64.709755 
L 926.867647 64.709755 
L 926.867647 63.652316 
L 930.970588 63.652316 
L 930.970588 62.594877 
L 945.330882 62.594877 
L 945.330882 61.537439 
L 955.588235 61.537439 
L 955.588235 60.48 
L 972 60.48 
L 972 60.48 
" style="fill:none;stroke:#d62728;stroke-linecap:square;stroke-width:1.5;"/>
   </g>
   <g id="line2d_17">
    <path clip-path="url(#p4675506672)" d="M 135 448.56 
L 972 60.48 
" style="fill:none;stroke:#ff0000;stroke-dasharray:5.55,2.4;stroke-dashoffset:0;stroke-width:1.5;"/>
   </g>
   <g id="patch_3">
    <path d="M 135 448.56 
L 135 60.48 
" style="fill:none;stroke:#000000;stroke-linecap:square;stroke-linejoin:miter;stroke-width:0.8;"/>
   </g>
   <g id="patch_4">
    <path d="M 972 448.56 
L 972 60.48 
" style="fill:none;stroke:#000000;stroke-linecap:square;stroke-linejoin:miter;stroke-width:0.8;"/>
   </g>
   <g id="patch_5">
    <path d="M 135 448.56 
L 972 448.56 
" style="fill:none;stroke:#000000;stroke-linecap:square;stroke-linejoin:miter;stroke-width:0.8;"/>
   </g>
   <g id="patch_6">
    <path d="M 135 60.48 
L 972 60.48 
" style="fill:none;stroke:#000000;stroke-linecap:square;stroke-linejoin:miter;stroke-width:0.8;"/>
   </g>
   <g id="text_15">
    <!-- Compas -->
    <g transform="translate(529.183125 54.48)scale(0.12 -0.12)">
     <defs>
      <path d="M 4122 4306 
L 4122 3641 
Q 3803 3938 3442 4084 
Q 3081 4231 2675 4231 
Q 1875 4231 1450 3742 
Q 1025 3253 1025 2328 
Q 1025 1406 1450 917 
Q 1875 428 2675 428 
Q 3081 428 3442 575 
Q 3803 722 4122 1019 
L 4122 359 
Q 3791 134 3420 21 
Q 3050 -91 2638 -91 
Q 1578 -91 968 557 
Q 359 1206 359 2328 
Q 359 3453 968 4101 
Q 1578 4750 2638 4750 
Q 3056 4750 3426 4639 
Q 3797 4528 4122 4306 
z
" id="DejaVuSans-43" transform="scale(0.015625)"/>
      <path d="M 1959 3097 
Q 1497 3097 1228 2736 
Q 959 2375 959 1747 
Q 959 1119 1226 758 
Q 1494 397 1959 397 
Q 2419 397 2687 759 
Q 2956 1122 2956 1747 
Q 2956 2369 2687 2733 
Q 2419 3097 1959 3097 
z
M 1959 3584 
Q 2709 3584 3137 3096 
Q 3566 2609 3566 1747 
Q 3566 888 3137 398 
Q 2709 -91 1959 -91 
Q 1206 -91 779 398 
Q 353 888 353 1747 
Q 353 2609 779 3096 
Q 1206 3584 1959 3584 
z
" id="DejaVuSans-6f" transform="scale(0.015625)"/>
      <path d="M 3328 2828 
Q 3544 3216 3844 3400 
Q 4144 3584 4550 3584 
Q 5097 3584 5394 3201 
Q 5691 2819 5691 2113 
L 5691 0 
L 5113 0 
L 5113 2094 
Q 5113 2597 4934 2840 
Q 4756 3084 4391 3084 
Q 3944 3084 3684 2787 
Q 3425 2491 3425 1978 
L 3425 0 
L 2847 0 
L 2847 2094 
Q 2847 2600 2669 2842 
Q 2491 3084 2119 3084 
Q 1678 3084 1418 2786 
Q 1159 2488 1159 1978 
L 1159 0 
L 581 0 
L 581 3500 
L 1159 3500 
L 1159 2956 
Q 1356 3278 1631 3431 
Q 1906 3584 2284 3584 
Q 2666 3584 2933 3390 
Q 3200 3197 3328 2828 
z
" id="DejaVuSans-6d" transform="scale(0.015625)"/>
      <path d="M 1159 525 
L 1159 -1331 
L 581 -1331 
L 581 3500 
L 1159 3500 
L 1159 2969 
Q 1341 3281 1617 3432 
Q 1894 3584 2278 3584 
Q 2916 3584 3314 3078 
Q 3713 2572 3713 1747 
Q 3713 922 3314 415 
Q 2916 -91 2278 -91 
Q 1894 -91 1617 61 
Q 1341 213 1159 525 
z
M 3116 1747 
Q 3116 2381 2855 2742 
Q 2594 3103 2138 3103 
Q 1681 3103 1420 2742 
Q 1159 2381 1159 1747 
Q 1159 1113 1420 752 
Q 1681 391 2138 391 
Q 2594 391 2855 752 
Q 3116 1113 3116 1747 
z
" id="DejaVuSans-70" transform="scale(0.015625)"/>
      <path d="M 2194 1759 
Q 1497 1759 1228 1600 
Q 959 1441 959 1056 
Q 959 750 1161 570 
Q 1363 391 1709 391 
Q 2188 391 2477 730 
Q 2766 1069 2766 1631 
L 2766 1759 
L 2194 1759 
z
M 3341 1997 
L 3341 0 
L 2766 0 
L 2766 531 
Q 2569 213 2275 61 
Q 1981 -91 1556 -91 
Q 1019 -91 701 211 
Q 384 513 384 1019 
Q 384 1609 779 1909 
Q 1175 2209 1959 2209 
L 2766 2209 
L 2766 2266 
Q 2766 2663 2505 2880 
Q 2244 3097 1772 3097 
Q 1472 3097 1187 3025 
Q 903 2953 641 2809 
L 641 3341 
Q 956 3463 1253 3523 
Q 1550 3584 1831 3584 
Q 2591 3584 2966 3190 
Q 3341 2797 3341 1997 
z
" id="DejaVuSans-61" transform="scale(0.015625)"/>
      <path d="M 2834 3397 
L 2834 2853 
Q 2591 2978 2328 3040 
Q 2066 3103 1784 3103 
Q 1356 3103 1142 2972 
Q 928 2841 928 2578 
Q 928 2378 1081 2264 
Q 1234 2150 1697 2047 
L 1894 2003 
Q 2506 1872 2764 1633 
Q 3022 1394 3022 966 
Q 3022 478 2636 193 
Q 2250 -91 1575 -91 
Q 1294 -91 989 -36 
Q 684 19 347 128 
L 347 722 
Q 666 556 975 473 
Q 1284 391 1588 391 
Q 1994 391 2212 530 
Q 2431 669 2431 922 
Q 2431 1156 2273 1281 
Q 2116 1406 1581 1522 
L 1381 1569 
Q 847 1681 609 1914 
Q 372 2147 372 2553 
Q 372 3047 722 3315 
Q 1072 3584 1716 3584 
Q 2034 3584 2315 3537 
Q 2597 3491 2834 3397 
z
" id="DejaVuSans-73" transform="scale(0.015625)"/>
     </defs>
     <use xlink:href="#DejaVuSans-43"/>
     <use x="69.824219" xlink:href="#DejaVuSans-6f"/>
     <use x="131.005859" xlink:href="#DejaVuSans-6d"/>
     <use x="228.417969" xlink:href="#DejaVuSans-70"/>
     <use x="291.894531" xlink:href="#DejaVuSans-61"/>
     <use x="353.173828" xlink:href="#DejaVuSans-73"/>
    </g>
   </g>
   <g id="legend_1">
    <g id="patch_7">
     <path d="M 681.5875 438.56 
L 958 438.56 
Q 962 438.56 962 434.56 
L 962 316.91 
Q 962 312.91 958 312.91 
L 681.5875 312.91 
Q 677.5875 312.91 677.5875 316.91 
L 677.5875 434.56 
Q 677.5875 438.56 681.5875 438.56 
z
" style="fill:#ffffff;opacity:0.8;stroke:#cccccc;stroke-linejoin:miter;"/>
    </g>
    <g id="line2d_18">
     <path d="M 685.5875 329.106875 
L 725.5875 329.106875 
" style="fill:none;stroke:#1f77b4;stroke-linecap:square;stroke-width:1.5;"/>
    </g>
    <g id="line2d_19"/>
    <g id="text_16">
     <!-- AUC_2-Layers = 0.78 -->
     <g transform="translate(741.5875 336.106875)scale(0.2 -0.2)">
      <defs>
       <path d="M 2188 4044 
L 1331 1722 
L 3047 1722 
L 2188 4044 
z
M 1831 4666 
L 2547 4666 
L 4325 0 
L 3669 0 
L 3244 1197 
L 1141 1197 
L 716 0 
L 50 0 
L 1831 4666 
z
" id="DejaVuSans-41" transform="scale(0.015625)"/>
       <path d="M 556 4666 
L 1191 4666 
L 1191 1831 
Q 1191 1081 1462 751 
Q 1734 422 2344 422 
Q 2950 422 3222 751 
Q 3494 1081 3494 1831 
L 3494 4666 
L 4128 4666 
L 4128 1753 
Q 4128 841 3676 375 
Q 3225 -91 2344 -91 
Q 1459 -91 1007 375 
Q 556 841 556 1753 
L 556 4666 
z
" id="DejaVuSans-55" transform="scale(0.015625)"/>
       <path d="M 3263 -1063 
L 3263 -1509 
L -63 -1509 
L -63 -1063 
L 3263 -1063 
z
" id="DejaVuSans-5f" transform="scale(0.015625)"/>
       <path d="M 313 2009 
L 1997 2009 
L 1997 1497 
L 313 1497 
L 313 2009 
z
" id="DejaVuSans-2d" transform="scale(0.015625)"/>
       <path d="M 628 4666 
L 1259 4666 
L 1259 531 
L 3531 531 
L 3531 0 
L 628 0 
L 628 4666 
z
" id="DejaVuSans-4c" transform="scale(0.015625)"/>
       <path d="M 2059 -325 
Q 1816 -950 1584 -1140 
Q 1353 -1331 966 -1331 
L 506 -1331 
L 506 -850 
L 844 -850 
Q 1081 -850 1212 -737 
Q 1344 -625 1503 -206 
L 1606 56 
L 191 3500 
L 800 3500 
L 1894 763 
L 2988 3500 
L 3597 3500 
L 2059 -325 
z
" id="DejaVuSans-79" transform="scale(0.015625)"/>
       <path d="M 3597 1894 
L 3597 1613 
L 953 1613 
Q 991 1019 1311 708 
Q 1631 397 2203 397 
Q 2534 397 2845 478 
Q 3156 559 3463 722 
L 3463 178 
Q 3153 47 2828 -22 
Q 2503 -91 2169 -91 
Q 1331 -91 842 396 
Q 353 884 353 1716 
Q 353 2575 817 3079 
Q 1281 3584 2069 3584 
Q 2775 3584 3186 3129 
Q 3597 2675 3597 1894 
z
M 3022 2063 
Q 3016 2534 2758 2815 
Q 2500 3097 2075 3097 
Q 1594 3097 1305 2825 
Q 1016 2553 972 2059 
L 3022 2063 
z
" id="DejaVuSans-65" transform="scale(0.015625)"/>
       <path d="M 2631 2963 
Q 2534 3019 2420 3045 
Q 2306 3072 2169 3072 
Q 1681 3072 1420 2755 
Q 1159 2438 1159 1844 
L 1159 0 
L 581 0 
L 581 3500 
L 1159 3500 
L 1159 2956 
Q 1341 3275 1631 3429 
Q 1922 3584 2338 3584 
Q 2397 3584 2469 3576 
Q 2541 3569 2628 3553 
L 2631 2963 
z
" id="DejaVuSans-72" transform="scale(0.015625)"/>
       <path id="DejaVuSans-20" transform="scale(0.015625)"/>
       <path d="M 678 2906 
L 4684 2906 
L 4684 2381 
L 678 2381 
L 678 2906 
z
M 678 1631 
L 4684 1631 
L 4684 1100 
L 678 1100 
L 678 1631 
z
" id="DejaVuSans-3d" transform="scale(0.015625)"/>
       <path d="M 525 4666 
L 3525 4666 
L 3525 4397 
L 1831 0 
L 1172 0 
L 2766 4134 
L 525 4134 
L 525 4666 
z
" id="DejaVuSans-37" transform="scale(0.015625)"/>
      </defs>
      <use xlink:href="#DejaVuSans-41"/>
      <use x="68.408203" xlink:href="#DejaVuSans-55"/>
      <use x="141.601562" xlink:href="#DejaVuSans-43"/>
      <use x="211.425781" xlink:href="#DejaVuSans-5f"/>
      <use x="261.425781" xlink:href="#DejaVuSans-32"/>
      <use x="325.048828" xlink:href="#DejaVuSans-2d"/>
      <use x="361.132812" xlink:href="#DejaVuSans-4c"/>
      <use x="416.845703" xlink:href="#DejaVuSans-61"/>
      <use x="478.125" xlink:href="#DejaVuSans-79"/>
      <use x="537.304688" xlink:href="#DejaVuSans-65"/>
      <use x="598.828125" xlink:href="#DejaVuSans-72"/>
      <use x="639.941406" xlink:href="#DejaVuSans-73"/>
      <use x="692.041016" xlink:href="#DejaVuSans-20"/>
      <use x="723.828125" xlink:href="#DejaVuSans-3d"/>
      <use x="807.617188" xlink:href="#DejaVuSans-20"/>
      <use x="839.404297" xlink:href="#DejaVuSans-30"/>
      <use x="903.027344" xlink:href="#DejaVuSans-2e"/>
      <use x="934.814453" xlink:href="#DejaVuSans-37"/>
      <use x="998.4375" xlink:href="#DejaVuSans-38"/>
     </g>
    </g>
    <g id="line2d_20">
     <path d="M 685.5875 359.019375 
L 725.5875 359.019375 
" style="fill:none;stroke:#ff7f0e;stroke-linecap:square;stroke-width:1.5;"/>
    </g>
    <g id="line2d_21"/>
    <g id="text_17">
     <!-- AUC_2-Layers = 0.77 -->
     <g transform="translate(741.5875 366.019375)scale(0.2 -0.2)">
      <use xlink:href="#DejaVuSans-41"/>
      <use x="68.408203" xlink:href="#DejaVuSans-55"/>
      <use x="141.601562" xlink:href="#DejaVuSans-43"/>
      <use x="211.425781" xlink:href="#DejaVuSans-5f"/>
      <use x="261.425781" xlink:href="#DejaVuSans-32"/>
      <use x="325.048828" xlink:href="#DejaVuSans-2d"/>
      <use x="361.132812" xlink:href="#DejaVuSans-4c"/>
      <use x="416.845703" xlink:href="#DejaVuSans-61"/>
      <use x="478.125" xlink:href="#DejaVuSans-79"/>
      <use x="537.304688" xlink:href="#DejaVuSans-65"/>
      <use x="598.828125" xlink:href="#DejaVuSans-72"/>
      <use x="639.941406" xlink:href="#DejaVuSans-73"/>
      <use x="692.041016" xlink:href="#DejaVuSans-20"/>
      <use x="723.828125" xlink:href="#DejaVuSans-3d"/>
      <use x="807.617188" xlink:href="#DejaVuSans-20"/>
      <use x="839.404297" xlink:href="#DejaVuSans-30"/>
      <use x="903.027344" xlink:href="#DejaVuSans-2e"/>
      <use x="934.814453" xlink:href="#DejaVuSans-37"/>
      <use x="998.4375" xlink:href="#DejaVuSans-37"/>
     </g>
    </g>
    <g id="line2d_22">
     <path d="M 685.5875 388.931875 
L 725.5875 388.931875 
" style="fill:none;stroke:#2ca02c;stroke-linecap:square;stroke-width:1.5;"/>
    </g>
    <g id="line2d_23"/>
    <g id="text_18">
     <!-- AUC_2-Layers = 0.77 -->
     <g transform="translate(741.5875 395.931875)scale(0.2 -0.2)">
      <use xlink:href="#DejaVuSans-41"/>
      <use x="68.408203" xlink:href="#DejaVuSans-55"/>
      <use x="141.601562" xlink:href="#DejaVuSans-43"/>
      <use x="211.425781" xlink:href="#DejaVuSans-5f"/>
      <use x="261.425781" xlink:href="#DejaVuSans-32"/>
      <use x="325.048828" xlink:href="#DejaVuSans-2d"/>
      <use x="361.132812" xlink:href="#DejaVuSans-4c"/>
      <use x="416.845703" xlink:href="#DejaVuSans-61"/>
      <use x="478.125" xlink:href="#DejaVuSans-79"/>
      <use x="537.304688" xlink:href="#DejaVuSans-65"/>
      <use x="598.828125" xlink:href="#DejaVuSans-72"/>
      <use x="639.941406" xlink:href="#DejaVuSans-73"/>
      <use x="692.041016" xlink:href="#DejaVuSans-20"/>
      <use x="723.828125" xlink:href="#DejaVuSans-3d"/>
      <use x="807.617188" xlink:href="#DejaVuSans-20"/>
      <use x="839.404297" xlink:href="#DejaVuSans-30"/>
      <use x="903.027344" xlink:href="#DejaVuSans-2e"/>
      <use x="934.814453" xlink:href="#DejaVuSans-37"/>
      <use x="998.4375" xlink:href="#DejaVuSans-37"/>
     </g>
    </g>
    <g id="line2d_24">
     <path d="M 685.5875 418.844375 
L 725.5875 418.844375 
" style="fill:none;stroke:#d62728;stroke-linecap:square;stroke-width:1.5;"/>
    </g>
    <g id="line2d_25"/>
    <g id="text_19">
     <!-- AUC_2-Layers = 0.77 -->
     <g transform="translate(741.5875 425.844375)scale(0.2 -0.2)">
      <use xlink:href="#DejaVuSans-41"/>
      <use x="68.408203" xlink:href="#DejaVuSans-55"/>
      <use x="141.601562" xlink:href="#DejaVuSans-43"/>
      <use x="211.425781" xlink:href="#DejaVuSans-5f"/>
      <use x="261.425781" xlink:href="#DejaVuSans-32"/>
      <use x="325.048828" xlink:href="#DejaVuSans-2d"/>
      <use x="361.132812" xlink:href="#DejaVuSans-4c"/>
      <use x="416.845703" xlink:href="#DejaVuSans-61"/>
      <use x="478.125" xlink:href="#DejaVuSans-79"/>
      <use x="537.304688" xlink:href="#DejaVuSans-65"/>
      <use x="598.828125" xlink:href="#DejaVuSans-72"/>
      <use x="639.941406" xlink:href="#DejaVuSans-73"/>
      <use x="692.041016" xlink:href="#DejaVuSans-20"/>
      <use x="723.828125" xlink:href="#DejaVuSans-3d"/>
      <use x="807.617188" xlink:href="#DejaVuSans-20"/>
      <use x="839.404297" xlink:href="#DejaVuSans-30"/>
      <use x="903.027344" xlink:href="#DejaVuSans-2e"/>
      <use x="934.814453" xlink:href="#DejaVuSans-37"/>
      <use x="998.4375" xlink:href="#DejaVuSans-37"/>
     </g>
    </g>
   </g>
  </g>
 </g>
 <defs>
  <clipPath id="p4675506672">
   <rect height="388.08" width="837" x="135" y="60.48"/>
  </clipPath>
 </defs>
</svg>
