<?xml version="1.0" encoding="utf-8" standalone="no"?>
<!DOCTYPE svg PUBLIC "-//W3C//DTD SVG 1.1//EN"
  "http://www.w3.org/Graphics/SVG/1.1/DTD/svg11.dtd">
<svg height="504pt" version="1.1" viewBox="0 0 1080 504" width="1080pt" xmlns="http://www.w3.org/2000/svg" xmlns:xlink="http://www.w3.org/1999/xlink">
 <metadata>
  <rdf:RDF xmlns:cc="http://creativecommons.org/ns#" xmlns:dc="http://purl.org/dc/elements/1.1/" xmlns:rdf="http://www.w3.org/1999/02/22-rdf-syntax-ns#">
   <cc:Work>
    <dc:type rdf:resource="http://purl.org/dc/dcmitype/StillImage"/>
    <dc:date>2022-01-07T14:07:57.841159</dc:date>
    <dc:format>image/svg+xml</dc:format>
    <dc:creator>
     <cc:Agent>
      <dc:title>Matplotlib v3.4.3, https://matplotlib.org/</dc:title>
     </cc:Agent>
    </dc:creator>
   </cc:Work>
  </rdf:RDF>
 </metadata>
 <defs>
  <style type="text/css">*{stroke-linecap:butt;stroke-linejoin:round;}</style>
 </defs>
 <g id="figure_1">
  <g id="patch_1">
   <path d="M 0 504 
L 1080 504 
L 1080 0 
L 0 0 
z
" style="fill:#ffffff;"/>
  </g>
  <g id="axes_1">
   <g id="patch_2">
    <path d="M 135 448.56 
L 972 448.56 
L 972 60.48 
L 135 60.48 
z
" style="fill:#ffffff;"/>
   </g>
   <g id="matplotlib.axis_1">
    <g id="xtick_1">
     <g id="line2d_1">
      <defs>
       <path d="M 0 0 
L 0 3.5 
" id="md6220fd89d" style="stroke:#000000;stroke-width:0.8;"/>
      </defs>
      <g>
       <use style="stroke:#000000;stroke-width:0.8;" x="135" xlink:href="#md6220fd89d" y="448.56"/>
      </g>
     </g>
     <g id="text_1">
      <!-- 0.0 -->
      <g transform="translate(120.687187 469.237188)scale(0.18 -0.18)">
       <defs>
        <path d="M 2034 4250 
Q 1547 4250 1301 3770 
Q 1056 3291 1056 2328 
Q 1056 1369 1301 889 
Q 1547 409 2034 409 
Q 2525 409 2770 889 
Q 3016 1369 3016 2328 
Q 3016 3291 2770 3770 
Q 2525 4250 2034 4250 
z
M 2034 4750 
Q 2819 4750 3233 4129 
Q 3647 3509 3647 2328 
Q 3647 1150 3233 529 
Q 2819 -91 2034 -91 
Q 1250 -91 836 529 
Q 422 1150 422 2328 
Q 422 3509 836 4129 
Q 1250 4750 2034 4750 
z
" id="DejaVuSans-30" transform="scale(0.015625)"/>
        <path d="M 684 794 
L 1344 794 
L 1344 0 
L 684 0 
L 684 794 
z
" id="DejaVuSans-2e" transform="scale(0.015625)"/>
       </defs>
       <use xlink:href="#DejaVuSans-30"/>
       <use x="63.623047" xlink:href="#DejaVuSans-2e"/>
       <use x="95.410156" xlink:href="#DejaVuSans-30"/>
      </g>
     </g>
    </g>
    <g id="xtick_2">
     <g id="line2d_2">
      <g>
       <use style="stroke:#000000;stroke-width:0.8;" x="302.4" xlink:href="#md6220fd89d" y="448.56"/>
      </g>
     </g>
     <g id="text_2">
      <!-- 0.2 -->
      <g transform="translate(288.087187 469.237188)scale(0.18 -0.18)">
       <defs>
        <path d="M 1228 531 
L 3431 531 
L 3431 0 
L 469 0 
L 469 531 
Q 828 903 1448 1529 
Q 2069 2156 2228 2338 
Q 2531 2678 2651 2914 
Q 2772 3150 2772 3378 
Q 2772 3750 2511 3984 
Q 2250 4219 1831 4219 
Q 1534 4219 1204 4116 
Q 875 4013 500 3803 
L 500 4441 
Q 881 4594 1212 4672 
Q 1544 4750 1819 4750 
Q 2544 4750 2975 4387 
Q 3406 4025 3406 3419 
Q 3406 3131 3298 2873 
Q 3191 2616 2906 2266 
Q 2828 2175 2409 1742 
Q 1991 1309 1228 531 
z
" id="DejaVuSans-32" transform="scale(0.015625)"/>
       </defs>
       <use xlink:href="#DejaVuSans-30"/>
       <use x="63.623047" xlink:href="#DejaVuSans-2e"/>
       <use x="95.410156" xlink:href="#DejaVuSans-32"/>
      </g>
     </g>
    </g>
    <g id="xtick_3">
     <g id="line2d_3">
      <g>
       <use style="stroke:#000000;stroke-width:0.8;" x="469.8" xlink:href="#md6220fd89d" y="448.56"/>
      </g>
     </g>
     <g id="text_3">
      <!-- 0.4 -->
      <g transform="translate(455.487188 469.237188)scale(0.18 -0.18)">
       <defs>
        <path d="M 2419 4116 
L 825 1625 
L 2419 1625 
L 2419 4116 
z
M 2253 4666 
L 3047 4666 
L 3047 1625 
L 3713 1625 
L 3713 1100 
L 3047 1100 
L 3047 0 
L 2419 0 
L 2419 1100 
L 313 1100 
L 313 1709 
L 2253 4666 
z
" id="DejaVuSans-34" transform="scale(0.015625)"/>
       </defs>
       <use xlink:href="#DejaVuSans-30"/>
       <use x="63.623047" xlink:href="#DejaVuSans-2e"/>
       <use x="95.410156" xlink:href="#DejaVuSans-34"/>
      </g>
     </g>
    </g>
    <g id="xtick_4">
     <g id="line2d_4">
      <g>
       <use style="stroke:#000000;stroke-width:0.8;" x="637.2" xlink:href="#md6220fd89d" y="448.56"/>
      </g>
     </g>
     <g id="text_4">
      <!-- 0.6 -->
      <g transform="translate(622.887188 469.237188)scale(0.18 -0.18)">
       <defs>
        <path d="M 2113 2584 
Q 1688 2584 1439 2293 
Q 1191 2003 1191 1497 
Q 1191 994 1439 701 
Q 1688 409 2113 409 
Q 2538 409 2786 701 
Q 3034 994 3034 1497 
Q 3034 2003 2786 2293 
Q 2538 2584 2113 2584 
z
M 3366 4563 
L 3366 3988 
Q 3128 4100 2886 4159 
Q 2644 4219 2406 4219 
Q 1781 4219 1451 3797 
Q 1122 3375 1075 2522 
Q 1259 2794 1537 2939 
Q 1816 3084 2150 3084 
Q 2853 3084 3261 2657 
Q 3669 2231 3669 1497 
Q 3669 778 3244 343 
Q 2819 -91 2113 -91 
Q 1303 -91 875 529 
Q 447 1150 447 2328 
Q 447 3434 972 4092 
Q 1497 4750 2381 4750 
Q 2619 4750 2861 4703 
Q 3103 4656 3366 4563 
z
" id="DejaVuSans-36" transform="scale(0.015625)"/>
       </defs>
       <use xlink:href="#DejaVuSans-30"/>
       <use x="63.623047" xlink:href="#DejaVuSans-2e"/>
       <use x="95.410156" xlink:href="#DejaVuSans-36"/>
      </g>
     </g>
    </g>
    <g id="xtick_5">
     <g id="line2d_5">
      <g>
       <use style="stroke:#000000;stroke-width:0.8;" x="804.6" xlink:href="#md6220fd89d" y="448.56"/>
      </g>
     </g>
     <g id="text_5">
      <!-- 0.8 -->
      <g transform="translate(790.287188 469.237188)scale(0.18 -0.18)">
       <defs>
        <path d="M 2034 2216 
Q 1584 2216 1326 1975 
Q 1069 1734 1069 1313 
Q 1069 891 1326 650 
Q 1584 409 2034 409 
Q 2484 409 2743 651 
Q 3003 894 3003 1313 
Q 3003 1734 2745 1975 
Q 2488 2216 2034 2216 
z
M 1403 2484 
Q 997 2584 770 2862 
Q 544 3141 544 3541 
Q 544 4100 942 4425 
Q 1341 4750 2034 4750 
Q 2731 4750 3128 4425 
Q 3525 4100 3525 3541 
Q 3525 3141 3298 2862 
Q 3072 2584 2669 2484 
Q 3125 2378 3379 2068 
Q 3634 1759 3634 1313 
Q 3634 634 3220 271 
Q 2806 -91 2034 -91 
Q 1263 -91 848 271 
Q 434 634 434 1313 
Q 434 1759 690 2068 
Q 947 2378 1403 2484 
z
M 1172 3481 
Q 1172 3119 1398 2916 
Q 1625 2713 2034 2713 
Q 2441 2713 2670 2916 
Q 2900 3119 2900 3481 
Q 2900 3844 2670 4047 
Q 2441 4250 2034 4250 
Q 1625 4250 1398 4047 
Q 1172 3844 1172 3481 
z
" id="DejaVuSans-38" transform="scale(0.015625)"/>
       </defs>
       <use xlink:href="#DejaVuSans-30"/>
       <use x="63.623047" xlink:href="#DejaVuSans-2e"/>
       <use x="95.410156" xlink:href="#DejaVuSans-38"/>
      </g>
     </g>
    </g>
    <g id="xtick_6">
     <g id="line2d_6">
      <g>
       <use style="stroke:#000000;stroke-width:0.8;" x="972" xlink:href="#md6220fd89d" y="448.56"/>
      </g>
     </g>
     <g id="text_6">
      <!-- 1.0 -->
      <g transform="translate(957.687188 469.237188)scale(0.18 -0.18)">
       <defs>
        <path d="M 794 531 
L 1825 531 
L 1825 4091 
L 703 3866 
L 703 4441 
L 1819 4666 
L 2450 4666 
L 2450 531 
L 3481 531 
L 3481 0 
L 794 0 
L 794 531 
z
" id="DejaVuSans-31" transform="scale(0.015625)"/>
       </defs>
       <use xlink:href="#DejaVuSans-31"/>
       <use x="63.623047" xlink:href="#DejaVuSans-2e"/>
       <use x="95.410156" xlink:href="#DejaVuSans-30"/>
      </g>
     </g>
    </g>
    <g id="text_7">
     <!-- $FPR_{Utility}$ -->
     <g transform="translate(509.94 493.040625)scale(0.22 -0.22)">
      <defs>
       <path d="M 1081 4666 
L 3756 4666 
L 3653 4134 
L 1606 4134 
L 1338 2759 
L 3188 2759 
L 3084 2228 
L 1234 2228 
L 800 0 
L 172 0 
L 1081 4666 
z
" id="DejaVuSans-Oblique-46" transform="scale(0.015625)"/>
       <path d="M 1081 4666 
L 2541 4666 
Q 3178 4666 3512 4369 
Q 3847 4072 3847 3500 
Q 3847 2731 3353 2303 
Q 2859 1875 1966 1875 
L 1172 1875 
L 806 0 
L 172 0 
L 1081 4666 
z
M 1613 4147 
L 1275 2394 
L 2069 2394 
Q 2606 2394 2893 2669 
Q 3181 2944 3181 3456 
Q 3181 3784 2986 3965 
Q 2791 4147 2438 4147 
L 1613 4147 
z
" id="DejaVuSans-Oblique-50" transform="scale(0.015625)"/>
       <path d="M 1613 4147 
L 1294 2491 
L 2106 2491 
Q 2584 2491 2879 2755 
Q 3175 3019 3175 3444 
Q 3175 3784 2976 3965 
Q 2778 4147 2406 4147 
L 1613 4147 
z
M 2772 2241 
Q 2972 2194 3105 2009 
Q 3238 1825 3413 1275 
L 3809 0 
L 3144 0 
L 2778 1197 
Q 2638 1659 2453 1815 
Q 2269 1972 1888 1972 
L 1191 1972 
L 806 0 
L 172 0 
L 1081 4666 
L 2503 4666 
Q 3150 4666 3495 4373 
Q 3841 4081 3841 3531 
Q 3841 3044 3547 2687 
Q 3253 2331 2772 2241 
z
" id="DejaVuSans-Oblique-52" transform="scale(0.015625)"/>
       <path d="M 991 4666 
L 1625 4666 
L 1075 1831 
Q 1041 1641 1027 1517 
Q 1013 1394 1013 1300 
Q 1013 869 1253 645 
Q 1494 422 1959 422 
Q 2563 422 2898 753 
Q 3234 1084 3378 1831 
L 3928 4666 
L 4563 4666 
L 4000 1753 
Q 3816 809 3300 359 
Q 2784 -91 1888 -91 
Q 1188 -91 780 261 
Q 372 613 372 1216 
Q 372 1325 387 1461 
Q 403 1597 434 1753 
L 991 4666 
z
" id="DejaVuSans-Oblique-55" transform="scale(0.015625)"/>
       <path d="M 2706 3500 
L 2619 3053 
L 1472 3053 
L 1100 1153 
Q 1081 1047 1072 975 
Q 1063 903 1063 863 
Q 1063 663 1183 572 
Q 1303 481 1569 481 
L 2150 481 
L 2053 0 
L 1503 0 
Q 991 0 739 200 
Q 488 400 488 806 
Q 488 878 497 964 
Q 506 1050 525 1153 
L 897 3053 
L 409 3053 
L 500 3500 
L 978 3500 
L 1172 4494 
L 1747 4494 
L 1556 3500 
L 2706 3500 
z
" id="DejaVuSans-Oblique-74" transform="scale(0.015625)"/>
       <path d="M 1172 4863 
L 1747 4863 
L 1606 4134 
L 1031 4134 
L 1172 4863 
z
M 909 3500 
L 1484 3500 
L 800 0 
L 225 0 
L 909 3500 
z
" id="DejaVuSans-Oblique-69" transform="scale(0.015625)"/>
       <path d="M 1172 4863 
L 1747 4863 
L 800 0 
L 225 0 
L 1172 4863 
z
" id="DejaVuSans-Oblique-6c" transform="scale(0.015625)"/>
       <path d="M 1588 -325 
Q 1188 -997 936 -1164 
Q 684 -1331 294 -1331 
L -159 -1331 
L -63 -850 
L 269 -850 
Q 509 -850 678 -719 
Q 847 -588 1056 -206 
L 1234 128 
L 459 3500 
L 1069 3500 
L 1650 819 
L 3256 3500 
L 3859 3500 
L 1588 -325 
z
" id="DejaVuSans-Oblique-79" transform="scale(0.015625)"/>
      </defs>
      <use transform="translate(0 0.09375)" xlink:href="#DejaVuSans-Oblique-46"/>
      <use transform="translate(57.519531 0.09375)" xlink:href="#DejaVuSans-Oblique-50"/>
      <use transform="translate(117.822266 0.09375)" xlink:href="#DejaVuSans-Oblique-52"/>
      <use transform="translate(187.304688 -16.3125)scale(0.7)" xlink:href="#DejaVuSans-Oblique-55"/>
      <use transform="translate(238.540039 -16.3125)scale(0.7)" xlink:href="#DejaVuSans-Oblique-74"/>
      <use transform="translate(265.986328 -16.3125)scale(0.7)" xlink:href="#DejaVuSans-Oblique-69"/>
      <use transform="translate(285.43457 -16.3125)scale(0.7)" xlink:href="#DejaVuSans-Oblique-6c"/>
      <use transform="translate(304.882812 -16.3125)scale(0.7)" xlink:href="#DejaVuSans-Oblique-69"/>
      <use transform="translate(324.331055 -16.3125)scale(0.7)" xlink:href="#DejaVuSans-Oblique-74"/>
      <use transform="translate(351.777344 -16.3125)scale(0.7)" xlink:href="#DejaVuSans-Oblique-79"/>
     </g>
    </g>
   </g>
   <g id="matplotlib.axis_2">
    <g id="ytick_1">
     <g id="line2d_7">
      <defs>
       <path d="M 0 0 
L -3.5 0 
" id="m49dda94fae" style="stroke:#000000;stroke-width:0.8;"/>
      </defs>
      <g>
       <use style="stroke:#000000;stroke-width:0.8;" x="135" xlink:href="#m49dda94fae" y="448.56"/>
      </g>
     </g>
     <g id="text_8">
      <!-- 0.0 -->
      <g transform="translate(99.374375 455.398594)scale(0.18 -0.18)">
       <use xlink:href="#DejaVuSans-30"/>
       <use x="63.623047" xlink:href="#DejaVuSans-2e"/>
       <use x="95.410156" xlink:href="#DejaVuSans-30"/>
      </g>
     </g>
    </g>
    <g id="ytick_2">
     <g id="line2d_8">
      <g>
       <use style="stroke:#000000;stroke-width:0.8;" x="135" xlink:href="#m49dda94fae" y="370.944"/>
      </g>
     </g>
     <g id="text_9">
      <!-- 0.2 -->
      <g transform="translate(99.374375 377.782594)scale(0.18 -0.18)">
       <use xlink:href="#DejaVuSans-30"/>
       <use x="63.623047" xlink:href="#DejaVuSans-2e"/>
       <use x="95.410156" xlink:href="#DejaVuSans-32"/>
      </g>
     </g>
    </g>
    <g id="ytick_3">
     <g id="line2d_9">
      <g>
       <use style="stroke:#000000;stroke-width:0.8;" x="135" xlink:href="#m49dda94fae" y="293.328"/>
      </g>
     </g>
     <g id="text_10">
      <!-- 0.4 -->
      <g transform="translate(99.374375 300.166594)scale(0.18 -0.18)">
       <use xlink:href="#DejaVuSans-30"/>
       <use x="63.623047" xlink:href="#DejaVuSans-2e"/>
       <use x="95.410156" xlink:href="#DejaVuSans-34"/>
      </g>
     </g>
    </g>
    <g id="ytick_4">
     <g id="line2d_10">
      <g>
       <use style="stroke:#000000;stroke-width:0.8;" x="135" xlink:href="#m49dda94fae" y="215.712"/>
      </g>
     </g>
     <g id="text_11">
      <!-- 0.6 -->
      <g transform="translate(99.374375 222.550594)scale(0.18 -0.18)">
       <use xlink:href="#DejaVuSans-30"/>
       <use x="63.623047" xlink:href="#DejaVuSans-2e"/>
       <use x="95.410156" xlink:href="#DejaVuSans-36"/>
      </g>
     </g>
    </g>
    <g id="ytick_5">
     <g id="line2d_11">
      <g>
       <use style="stroke:#000000;stroke-width:0.8;" x="135" xlink:href="#m49dda94fae" y="138.096"/>
      </g>
     </g>
     <g id="text_12">
      <!-- 0.8 -->
      <g transform="translate(99.374375 144.934594)scale(0.18 -0.18)">
       <use xlink:href="#DejaVuSans-30"/>
       <use x="63.623047" xlink:href="#DejaVuSans-2e"/>
       <use x="95.410156" xlink:href="#DejaVuSans-38"/>
      </g>
     </g>
    </g>
    <g id="ytick_6">
     <g id="line2d_12">
      <g>
       <use style="stroke:#000000;stroke-width:0.8;" x="135" xlink:href="#m49dda94fae" y="60.48"/>
      </g>
     </g>
     <g id="text_13">
      <!-- 1.0 -->
      <g transform="translate(99.374375 67.318594)scale(0.18 -0.18)">
       <use xlink:href="#DejaVuSans-31"/>
       <use x="63.623047" xlink:href="#DejaVuSans-2e"/>
       <use x="95.410156" xlink:href="#DejaVuSans-30"/>
      </g>
     </g>
    </g>
    <g id="text_14">
     <!-- $TPR_{Utility}$ -->
     <g transform="translate(88.554375 298.52)rotate(-90)scale(0.22 -0.22)">
      <defs>
       <path d="M 378 4666 
L 4325 4666 
L 4225 4134 
L 2559 4134 
L 1759 0 
L 1125 0 
L 1925 4134 
L 275 4134 
L 378 4666 
z
" id="DejaVuSans-Oblique-54" transform="scale(0.015625)"/>
      </defs>
      <use transform="translate(0 0.09375)" xlink:href="#DejaVuSans-Oblique-54"/>
      <use transform="translate(61.083984 0.09375)" xlink:href="#DejaVuSans-Oblique-50"/>
      <use transform="translate(121.386719 0.09375)" xlink:href="#DejaVuSans-Oblique-52"/>
      <use transform="translate(190.869141 -16.3125)scale(0.7)" xlink:href="#DejaVuSans-Oblique-55"/>
      <use transform="translate(242.104492 -16.3125)scale(0.7)" xlink:href="#DejaVuSans-Oblique-74"/>
      <use transform="translate(269.550781 -16.3125)scale(0.7)" xlink:href="#DejaVuSans-Oblique-69"/>
      <use transform="translate(288.999023 -16.3125)scale(0.7)" xlink:href="#DejaVuSans-Oblique-6c"/>
      <use transform="translate(308.447266 -16.3125)scale(0.7)" xlink:href="#DejaVuSans-Oblique-69"/>
      <use transform="translate(327.895508 -16.3125)scale(0.7)" xlink:href="#DejaVuSans-Oblique-74"/>
      <use transform="translate(355.341797 -16.3125)scale(0.7)" xlink:href="#DejaVuSans-Oblique-79"/>
     </g>
    </g>
   </g>
   <g id="line2d_13">
    <path clip-path="url(#p6803910c2d)" d="M 135 448.56 
L 135 446.445123 
L 137.051471 446.445123 
L 137.051471 423.181471 
L 139.102941 423.181471 
L 139.102941 422.124033 
L 141.154412 422.124033 
L 141.154412 420.009155 
L 143.205882 420.009155 
L 143.205882 415.779401 
L 145.257353 415.779401 
L 145.257353 413.664523 
L 147.308824 413.664523 
L 147.308824 402.032698 
L 151.411765 402.032698 
L 151.411765 390.400872 
L 153.463235 390.400872 
L 153.463235 381.941362 
L 155.514706 381.941362 
L 155.514706 378.769046 
L 159.617647 378.769046 
L 159.617647 374.539292 
L 161.669118 374.539292 
L 161.669118 372.424414 
L 163.720588 372.424414 
L 163.720588 371.366975 
L 165.772059 371.366975 
L 165.772059 358.677711 
L 167.823529 358.677711 
L 167.823529 352.333079 
L 169.875 352.333079 
L 169.875 351.27564 
L 171.926471 351.27564 
L 171.926471 345.988447 
L 173.977941 345.988447 
L 173.977941 340.701253 
L 176.029412 340.701253 
L 176.029412 334.356621 
L 178.080882 334.356621 
L 178.080882 330.126866 
L 180.132353 330.126866 
L 180.132353 328.011989 
L 184.235294 328.011989 
L 184.235294 326.95455 
L 186.286765 326.95455 
L 186.286765 321.667357 
L 188.338235 321.667357 
L 188.338235 320.609918 
L 194.492647 320.609918 
L 194.492647 319.55248 
L 196.544118 319.55248 
L 196.544118 308.978093 
L 198.595588 308.978093 
L 198.595588 307.920654 
L 200.647059 307.920654 
L 200.647059 306.863215 
L 202.698529 306.863215 
L 202.698529 304.748338 
L 204.75 304.748338 
L 204.75 301.576022 
L 206.801471 301.576022 
L 206.801471 300.518583 
L 208.852941 300.518583 
L 208.852941 299.461144 
L 210.904412 299.461144 
L 210.904412 297.346267 
L 217.058824 297.346267 
L 217.058824 296.288828 
L 219.110294 296.288828 
L 219.110294 294.173951 
L 225.264706 294.173951 
L 225.264706 292.059074 
L 227.316176 292.059074 
L 227.316176 289.944196 
L 229.367647 289.944196 
L 229.367647 287.829319 
L 231.419118 287.829319 
L 231.419118 283.599564 
L 233.470588 283.599564 
L 233.470588 282.542125 
L 235.522059 282.542125 
L 235.522059 281.484687 
L 237.573529 281.484687 
L 237.573529 279.369809 
L 239.625 279.369809 
L 239.625 278.312371 
L 241.676471 278.312371 
L 241.676471 276.197493 
L 243.727941 276.197493 
L 243.727941 268.795422 
L 245.779412 268.795422 
L 245.779412 267.737984 
L 251.933824 267.737984 
L 251.933824 260.335913 
L 253.985294 260.335913 
L 253.985294 258.221035 
L 256.036765 258.221035 
L 256.036765 256.106158 
L 258.088235 256.106158 
L 258.088235 253.991281 
L 260.139706 253.991281 
L 260.139706 252.933842 
L 262.191176 252.933842 
L 262.191176 250.818965 
L 264.242647 250.818965 
L 264.242647 248.704087 
L 268.345588 248.704087 
L 268.345588 247.646649 
L 272.448529 247.646649 
L 272.448529 245.531771 
L 274.5 245.531771 
L 274.5 244.474332 
L 278.602941 244.474332 
L 278.602941 243.416894 
L 292.963235 243.416894 
L 292.963235 242.359455 
L 295.014706 242.359455 
L 295.014706 239.187139 
L 297.066176 239.187139 
L 297.066176 236.014823 
L 303.220588 236.014823 
L 303.220588 230.727629 
L 307.323529 230.727629 
L 307.323529 224.382997 
L 309.375 224.382997 
L 309.375 221.210681 
L 311.426471 221.210681 
L 311.426471 220.153243 
L 321.683824 220.153243 
L 321.683824 212.751172 
L 323.735294 212.751172 
L 323.735294 211.693733 
L 327.838235 211.693733 
L 327.838235 208.521417 
L 329.889706 208.521417 
L 329.889706 205.349101 
L 336.044118 205.349101 
L 336.044118 204.291662 
L 338.095588 204.291662 
L 338.095588 202.176785 
L 340.147059 202.176785 
L 340.147059 197.94703 
L 342.198529 197.94703 
L 342.198529 196.889591 
L 344.25 196.889591 
L 344.25 195.832153 
L 348.352941 195.832153 
L 348.352941 193.717275 
L 352.455882 193.717275 
L 352.455882 187.372643 
L 356.558824 187.372643 
L 356.558824 186.315204 
L 366.816176 186.315204 
L 366.816176 185.257766 
L 368.867647 185.257766 
L 368.867647 184.200327 
L 370.919118 184.200327 
L 370.919118 182.08545 
L 379.125 182.08545 
L 379.125 181.028011 
L 381.176471 181.028011 
L 381.176471 176.798256 
L 393.485294 176.798256 
L 393.485294 175.740817 
L 399.639706 175.740817 
L 399.639706 171.511063 
L 401.691176 171.511063 
L 401.691176 169.396185 
L 403.742647 169.396185 
L 403.742647 167.281308 
L 405.794118 167.281308 
L 405.794118 166.223869 
L 420.154412 166.223869 
L 420.154412 163.051553 
L 424.257353 163.051553 
L 424.257353 159.879237 
L 430.411765 159.879237 
L 430.411765 154.592044 
L 434.514706 154.592044 
L 434.514706 152.477166 
L 450.926471 152.477166 
L 450.926471 151.419728 
L 452.977941 151.419728 
L 452.977941 149.30485 
L 457.080882 149.30485 
L 457.080882 148.247411 
L 461.183824 148.247411 
L 461.183824 142.960218 
L 463.235294 142.960218 
L 463.235294 141.902779 
L 469.389706 141.902779 
L 469.389706 139.787902 
L 477.595588 139.787902 
L 477.595588 138.730463 
L 481.698529 138.730463 
L 481.698529 135.558147 
L 483.75 135.558147 
L 483.75 133.44327 
L 487.852941 133.44327 
L 487.852941 132.385831 
L 496.058824 132.385831 
L 496.058824 131.328392 
L 498.110294 131.328392 
L 498.110294 129.213515 
L 502.213235 129.213515 
L 502.213235 127.098638 
L 506.316176 127.098638 
L 506.316176 126.041199 
L 520.676471 126.041199 
L 520.676471 124.98376 
L 526.830882 124.98376 
L 526.830882 123.926322 
L 528.882353 123.926322 
L 528.882353 121.811444 
L 547.345588 121.811444 
L 547.345588 120.754005 
L 561.705882 120.754005 
L 561.705882 118.639128 
L 567.860294 118.639128 
L 567.860294 117.581689 
L 576.066176 117.581689 
L 576.066176 116.524251 
L 580.169118 116.524251 
L 580.169118 115.466812 
L 612.992647 115.466812 
L 612.992647 114.409373 
L 621.198529 114.409373 
L 621.198529 108.064741 
L 623.25 108.064741 
L 623.25 107.007302 
L 625.301471 107.007302 
L 625.301471 105.949864 
L 627.352941 105.949864 
L 627.352941 104.892425 
L 631.455882 104.892425 
L 631.455882 103.834986 
L 637.610294 103.834986 
L 637.610294 101.720109 
L 645.816176 101.720109 
L 645.816176 99.605232 
L 654.022059 99.605232 
L 654.022059 98.547793 
L 660.176471 98.547793 
L 660.176471 97.490354 
L 662.227941 97.490354 
L 662.227941 95.375477 
L 668.382353 95.375477 
L 668.382353 91.145722 
L 670.433824 91.145722 
L 670.433824 90.088283 
L 678.639706 90.088283 
L 678.639706 89.030845 
L 680.691176 89.030845 
L 680.691176 87.973406 
L 695.051471 87.973406 
L 695.051471 86.915967 
L 707.360294 86.915967 
L 707.360294 85.858529 
L 709.411765 85.858529 
L 709.411765 84.80109 
L 738.132353 84.80109 
L 738.132353 81.628774 
L 748.389706 81.628774 
L 748.389706 80.571335 
L 750.441176 80.571335 
L 750.441176 79.513896 
L 754.544118 79.513896 
L 754.544118 78.456458 
L 760.698529 78.456458 
L 760.698529 77.399019 
L 773.007353 77.399019 
L 773.007353 75.284142 
L 777.110294 75.284142 
L 777.110294 74.226703 
L 779.161765 74.226703 
L 779.161765 73.169264 
L 781.213235 73.169264 
L 781.213235 72.111826 
L 789.419118 72.111826 
L 789.419118 71.054387 
L 791.470588 71.054387 
L 791.470588 69.996948 
L 793.522059 69.996948 
L 793.522059 68.93951 
L 809.933824 68.93951 
L 809.933824 67.882071 
L 818.139706 67.882071 
L 818.139706 66.824632 
L 848.911765 66.824632 
L 848.911765 65.767193 
L 867.375 65.767193 
L 867.375 64.709755 
L 902.25 64.709755 
L 902.25 63.652316 
L 908.404412 63.652316 
L 908.404412 62.594877 
L 941.227941 62.594877 
L 941.227941 61.537439 
L 955.588235 61.537439 
L 955.588235 60.48 
L 972 60.48 
L 972 60.48 
" style="fill:none;stroke:#1f77b4;stroke-linecap:square;stroke-width:1.5;"/>
   </g>
   <g id="line2d_14">
    <path clip-path="url(#p6803910c2d)" d="M 135 448.56 
L 135 441.157929 
L 137.051471 441.157929 
L 137.051471 427.411226 
L 139.102941 427.411226 
L 139.102941 422.124033 
L 141.154412 422.124033 
L 141.154412 421.066594 
L 143.205882 421.066594 
L 143.205882 416.836839 
L 145.257353 416.836839 
L 145.257353 413.664523 
L 147.308824 413.664523 
L 147.308824 404.147575 
L 149.360294 404.147575 
L 149.360294 402.032698 
L 151.411765 402.032698 
L 151.411765 389.343433 
L 155.514706 389.343433 
L 155.514706 388.285995 
L 157.566176 388.285995 
L 157.566176 380.883924 
L 159.617647 380.883924 
L 159.617647 374.539292 
L 161.669118 374.539292 
L 161.669118 365.022343 
L 165.772059 365.022343 
L 165.772059 356.562834 
L 167.823529 356.562834 
L 167.823529 355.505395 
L 169.875 355.505395 
L 169.875 354.447956 
L 171.926471 354.447956 
L 171.926471 353.390518 
L 173.977941 353.390518 
L 173.977941 351.27564 
L 176.029412 351.27564 
L 176.029412 348.103324 
L 178.080882 348.103324 
L 178.080882 344.931008 
L 180.132353 344.931008 
L 180.132353 339.643815 
L 182.183824 339.643815 
L 182.183824 337.528937 
L 186.286765 337.528937 
L 186.286765 328.011989 
L 188.338235 328.011989 
L 188.338235 326.95455 
L 190.389706 326.95455 
L 190.389706 316.380163 
L 196.544118 316.380163 
L 196.544118 310.035531 
L 200.647059 310.035531 
L 200.647059 306.863215 
L 204.75 306.863215 
L 204.75 299.461144 
L 206.801471 299.461144 
L 206.801471 295.23139 
L 210.904412 295.23139 
L 210.904412 294.173951 
L 212.955882 294.173951 
L 212.955882 293.116512 
L 215.007353 293.116512 
L 215.007353 292.059074 
L 217.058824 292.059074 
L 217.058824 286.77188 
L 219.110294 286.77188 
L 219.110294 285.714441 
L 221.161765 285.714441 
L 221.161765 283.599564 
L 223.213235 283.599564 
L 223.213235 281.484687 
L 229.367647 281.484687 
L 229.367647 279.369809 
L 231.419118 279.369809 
L 231.419118 278.312371 
L 233.470588 278.312371 
L 233.470588 275.140054 
L 235.522059 275.140054 
L 235.522059 270.9103 
L 237.573529 270.9103 
L 237.573529 269.852861 
L 243.727941 269.852861 
L 243.727941 267.737984 
L 251.933824 267.737984 
L 251.933824 260.335913 
L 256.036765 260.335913 
L 256.036765 256.106158 
L 258.088235 256.106158 
L 258.088235 252.933842 
L 266.294118 252.933842 
L 266.294118 250.818965 
L 268.345588 250.818965 
L 268.345588 249.761526 
L 276.551471 249.761526 
L 276.551471 248.704087 
L 278.602941 248.704087 
L 278.602941 247.646649 
L 280.654412 247.646649 
L 280.654412 243.416894 
L 288.860294 243.416894 
L 288.860294 240.244578 
L 290.911765 240.244578 
L 290.911765 238.1297 
L 297.066176 238.1297 
L 297.066176 237.072262 
L 301.169118 237.072262 
L 301.169118 236.014823 
L 303.220588 236.014823 
L 303.220588 232.842507 
L 305.272059 232.842507 
L 305.272059 231.785068 
L 307.323529 231.785068 
L 307.323529 229.670191 
L 311.426471 229.670191 
L 311.426471 224.382997 
L 313.477941 224.382997 
L 313.477941 222.26812 
L 317.580882 222.26812 
L 317.580882 221.210681 
L 325.786765 221.210681 
L 325.786765 214.866049 
L 331.941176 214.866049 
L 331.941176 213.80861 
L 333.992647 213.80861 
L 333.992647 212.751172 
L 336.044118 212.751172 
L 336.044118 209.578856 
L 340.147059 209.578856 
L 340.147059 201.119346 
L 342.198529 201.119346 
L 342.198529 199.004469 
L 348.352941 199.004469 
L 348.352941 195.832153 
L 350.404412 195.832153 
L 350.404412 194.774714 
L 352.455882 194.774714 
L 352.455882 193.717275 
L 356.558824 193.717275 
L 356.558824 192.659837 
L 358.610294 192.659837 
L 358.610294 191.602398 
L 362.713235 191.602398 
L 362.713235 190.544959 
L 364.764706 190.544959 
L 364.764706 187.372643 
L 366.816176 187.372643 
L 366.816176 186.315204 
L 375.022059 186.315204 
L 375.022059 185.257766 
L 379.125 185.257766 
L 379.125 183.142888 
L 381.176471 183.142888 
L 381.176471 182.08545 
L 389.382353 182.08545 
L 389.382353 181.028011 
L 391.433824 181.028011 
L 391.433824 179.970572 
L 395.536765 179.970572 
L 395.536765 177.855695 
L 397.588235 177.855695 
L 397.588235 174.683379 
L 407.845588 174.683379 
L 407.845588 170.453624 
L 411.948529 170.453624 
L 411.948529 167.281308 
L 416.051471 167.281308 
L 416.051471 165.166431 
L 418.102941 165.166431 
L 418.102941 163.051553 
L 424.257353 163.051553 
L 424.257353 160.936676 
L 430.411765 160.936676 
L 430.411765 159.879237 
L 432.463235 159.879237 
L 432.463235 157.76436 
L 434.514706 157.76436 
L 434.514706 156.706921 
L 438.617647 156.706921 
L 438.617647 155.649482 
L 442.720588 155.649482 
L 442.720588 152.477166 
L 452.977941 152.477166 
L 452.977941 151.419728 
L 455.029412 151.419728 
L 455.029412 150.362289 
L 459.132353 150.362289 
L 459.132353 147.189973 
L 461.183824 147.189973 
L 461.183824 146.132534 
L 463.235294 146.132534 
L 463.235294 144.017657 
L 467.338235 144.017657 
L 467.338235 142.960218 
L 475.544118 142.960218 
L 475.544118 141.902779 
L 477.595588 141.902779 
L 477.595588 140.845341 
L 483.75 140.845341 
L 483.75 139.787902 
L 487.852941 139.787902 
L 487.852941 134.500708 
L 491.955882 134.500708 
L 491.955882 133.44327 
L 494.007353 133.44327 
L 494.007353 132.385831 
L 496.058824 132.385831 
L 496.058824 131.328392 
L 498.110294 131.328392 
L 498.110294 128.156076 
L 508.367647 128.156076 
L 508.367647 126.041199 
L 510.419118 126.041199 
L 510.419118 123.926322 
L 514.522059 123.926322 
L 514.522059 121.811444 
L 522.727941 121.811444 
L 522.727941 120.754005 
L 526.830882 120.754005 
L 526.830882 119.696567 
L 530.933824 119.696567 
L 530.933824 118.639128 
L 535.036765 118.639128 
L 535.036765 117.581689 
L 553.5 117.581689 
L 553.5 116.524251 
L 563.757353 116.524251 
L 563.757353 115.466812 
L 567.860294 115.466812 
L 567.860294 114.409373 
L 574.014706 114.409373 
L 574.014706 113.351935 
L 578.117647 113.351935 
L 578.117647 112.294496 
L 584.272059 112.294496 
L 584.272059 111.237057 
L 590.426471 111.237057 
L 590.426471 110.179619 
L 600.683824 110.179619 
L 600.683824 109.12218 
L 606.838235 109.12218 
L 606.838235 108.064741 
L 623.25 108.064741 
L 623.25 107.007302 
L 625.301471 107.007302 
L 625.301471 105.949864 
L 633.507353 105.949864 
L 633.507353 103.834986 
L 635.558824 103.834986 
L 635.558824 101.720109 
L 637.610294 101.720109 
L 637.610294 100.66267 
L 643.764706 100.66267 
L 643.764706 99.605232 
L 656.073529 99.605232 
L 656.073529 95.375477 
L 658.125 95.375477 
L 658.125 94.318038 
L 670.433824 94.318038 
L 670.433824 93.260599 
L 676.588235 93.260599 
L 676.588235 91.145722 
L 678.639706 91.145722 
L 678.639706 89.030845 
L 684.794118 89.030845 
L 684.794118 87.973406 
L 688.897059 87.973406 
L 688.897059 86.915967 
L 690.948529 86.915967 
L 690.948529 85.858529 
L 697.102941 85.858529 
L 697.102941 84.80109 
L 705.308824 84.80109 
L 705.308824 83.743651 
L 719.669118 83.743651 
L 719.669118 82.686213 
L 727.875 82.686213 
L 727.875 81.628774 
L 734.029412 81.628774 
L 734.029412 80.571335 
L 740.183824 80.571335 
L 740.183824 79.513896 
L 744.286765 79.513896 
L 744.286765 77.399019 
L 752.492647 77.399019 
L 752.492647 76.34158 
L 754.544118 76.34158 
L 754.544118 73.169264 
L 756.595588 73.169264 
L 756.595588 72.111826 
L 770.955882 72.111826 
L 770.955882 71.054387 
L 795.573529 71.054387 
L 795.573529 69.996948 
L 797.625 69.996948 
L 797.625 68.93951 
L 803.779412 68.93951 
L 803.779412 67.882071 
L 809.933824 67.882071 
L 809.933824 66.824632 
L 844.808824 66.824632 
L 844.808824 65.767193 
L 846.860294 65.767193 
L 846.860294 64.709755 
L 867.375 64.709755 
L 867.375 63.652316 
L 891.992647 63.652316 
L 891.992647 62.594877 
L 947.382353 62.594877 
L 947.382353 61.537439 
L 959.691176 61.537439 
L 959.691176 60.48 
L 972 60.48 
L 972 60.48 
" style="fill:none;stroke:#ff7f0e;stroke-linecap:square;stroke-width:1.5;"/>
   </g>
   <g id="line2d_15">
    <path clip-path="url(#p6803910c2d)" d="M 135 448.56 
L 135 442.215368 
L 137.051471 442.215368 
L 137.051471 424.23891 
L 139.102941 424.23891 
L 139.102941 414.721962 
L 141.154412 414.721962 
L 141.154412 410.492207 
L 143.205882 410.492207 
L 143.205882 408.37733 
L 145.257353 408.37733 
L 145.257353 404.147575 
L 147.308824 404.147575 
L 147.308824 400.975259 
L 149.360294 400.975259 
L 149.360294 396.745504 
L 151.411765 396.745504 
L 151.411765 381.941362 
L 153.463235 381.941362 
L 153.463235 378.769046 
L 155.514706 378.769046 
L 155.514706 375.59673 
L 157.566176 375.59673 
L 157.566176 372.424414 
L 159.617647 372.424414 
L 159.617647 360.792589 
L 161.669118 360.792589 
L 161.669118 351.27564 
L 163.720588 351.27564 
L 163.720588 340.701253 
L 167.823529 340.701253 
L 167.823529 337.528937 
L 169.875 337.528937 
L 169.875 335.41406 
L 173.977941 335.41406 
L 173.977941 334.356621 
L 176.029412 334.356621 
L 176.029412 330.126866 
L 178.080882 330.126866 
L 178.080882 329.069428 
L 180.132353 329.069428 
L 180.132353 328.011989 
L 184.235294 328.011989 
L 184.235294 321.667357 
L 186.286765 321.667357 
L 186.286765 314.265286 
L 188.338235 314.265286 
L 188.338235 308.978093 
L 190.389706 308.978093 
L 190.389706 299.461144 
L 192.441176 299.461144 
L 192.441176 296.288828 
L 194.492647 296.288828 
L 194.492647 295.23139 
L 196.544118 295.23139 
L 196.544118 291.001635 
L 200.647059 291.001635 
L 200.647059 285.714441 
L 202.698529 285.714441 
L 202.698529 283.599564 
L 204.75 283.599564 
L 204.75 282.542125 
L 206.801471 282.542125 
L 206.801471 281.484687 
L 208.852941 281.484687 
L 208.852941 280.427248 
L 217.058824 280.427248 
L 217.058824 278.312371 
L 219.110294 278.312371 
L 219.110294 277.254932 
L 221.161765 277.254932 
L 221.161765 275.140054 
L 223.213235 275.140054 
L 223.213235 274.082616 
L 225.264706 274.082616 
L 225.264706 270.9103 
L 233.470588 270.9103 
L 233.470588 268.795422 
L 237.573529 268.795422 
L 237.573529 265.623106 
L 239.625 265.623106 
L 239.625 264.565668 
L 241.676471 264.565668 
L 241.676471 262.45079 
L 243.727941 262.45079 
L 243.727941 261.393351 
L 247.830882 261.393351 
L 247.830882 260.335913 
L 249.882353 260.335913 
L 249.882353 258.221035 
L 256.036765 258.221035 
L 256.036765 257.163597 
L 258.088235 257.163597 
L 258.088235 256.106158 
L 262.191176 256.106158 
L 262.191176 255.048719 
L 264.242647 255.048719 
L 264.242647 249.761526 
L 266.294118 249.761526 
L 266.294118 247.646649 
L 270.397059 247.646649 
L 270.397059 245.531771 
L 272.448529 245.531771 
L 272.448529 242.359455 
L 276.551471 242.359455 
L 276.551471 241.302016 
L 282.705882 241.302016 
L 282.705882 239.187139 
L 286.808824 239.187139 
L 286.808824 236.014823 
L 288.860294 236.014823 
L 288.860294 230.727629 
L 297.066176 230.727629 
L 297.066176 228.612752 
L 303.220588 228.612752 
L 303.220588 226.497875 
L 305.272059 226.497875 
L 305.272059 222.26812 
L 307.323529 222.26812 
L 307.323529 219.095804 
L 309.375 219.095804 
L 309.375 216.980926 
L 315.529412 216.980926 
L 315.529412 214.866049 
L 317.580882 214.866049 
L 317.580882 212.751172 
L 327.838235 212.751172 
L 327.838235 210.636294 
L 329.889706 210.636294 
L 329.889706 204.291662 
L 331.941176 204.291662 
L 331.941176 202.176785 
L 333.992647 202.176785 
L 333.992647 201.119346 
L 336.044118 201.119346 
L 336.044118 196.889591 
L 338.095588 196.889591 
L 338.095588 195.832153 
L 340.147059 195.832153 
L 340.147059 194.774714 
L 342.198529 194.774714 
L 342.198529 190.544959 
L 348.352941 190.544959 
L 348.352941 189.48752 
L 354.507353 189.48752 
L 354.507353 188.430082 
L 356.558824 188.430082 
L 356.558824 183.142888 
L 358.610294 183.142888 
L 358.610294 182.08545 
L 360.661765 182.08545 
L 360.661765 181.028011 
L 362.713235 181.028011 
L 362.713235 179.970572 
L 366.816176 179.970572 
L 366.816176 175.740817 
L 368.867647 175.740817 
L 368.867647 170.453624 
L 372.970588 170.453624 
L 372.970588 169.396185 
L 375.022059 169.396185 
L 375.022059 168.338747 
L 379.125 168.338747 
L 379.125 167.281308 
L 381.176471 167.281308 
L 381.176471 161.994114 
L 391.433824 161.994114 
L 391.433824 160.936676 
L 395.536765 160.936676 
L 395.536765 159.879237 
L 399.639706 159.879237 
L 399.639706 153.534605 
L 407.845588 153.534605 
L 407.845588 151.419728 
L 409.897059 151.419728 
L 409.897059 150.362289 
L 411.948529 150.362289 
L 411.948529 149.30485 
L 422.205882 149.30485 
L 422.205882 148.247411 
L 432.463235 148.247411 
L 432.463235 147.189973 
L 434.514706 147.189973 
L 434.514706 146.132534 
L 436.566176 146.132534 
L 436.566176 145.075095 
L 442.720588 145.075095 
L 442.720588 144.017657 
L 461.183824 144.017657 
L 461.183824 140.845341 
L 467.338235 140.845341 
L 467.338235 139.787902 
L 469.389706 139.787902 
L 469.389706 136.615586 
L 477.595588 136.615586 
L 477.595588 134.500708 
L 485.801471 134.500708 
L 485.801471 133.44327 
L 504.264706 133.44327 
L 504.264706 132.385831 
L 506.316176 132.385831 
L 506.316176 131.328392 
L 510.419118 131.328392 
L 510.419118 130.270954 
L 512.470588 130.270954 
L 512.470588 129.213515 
L 514.522059 129.213515 
L 514.522059 124.98376 
L 520.676471 124.98376 
L 520.676471 120.754005 
L 522.727941 120.754005 
L 522.727941 119.696567 
L 530.933824 119.696567 
L 530.933824 116.524251 
L 555.551471 116.524251 
L 555.551471 115.466812 
L 574.014706 115.466812 
L 574.014706 113.351935 
L 580.169118 113.351935 
L 580.169118 112.294496 
L 584.272059 112.294496 
L 584.272059 111.237057 
L 592.477941 111.237057 
L 592.477941 109.12218 
L 598.632353 109.12218 
L 598.632353 107.007302 
L 606.838235 107.007302 
L 606.838235 105.949864 
L 608.889706 105.949864 
L 608.889706 103.834986 
L 610.941176 103.834986 
L 610.941176 102.777548 
L 612.992647 102.777548 
L 612.992647 101.720109 
L 615.044118 101.720109 
L 615.044118 99.605232 
L 621.198529 99.605232 
L 621.198529 98.547793 
L 627.352941 98.547793 
L 627.352941 97.490354 
L 639.661765 97.490354 
L 639.661765 94.318038 
L 643.764706 94.318038 
L 643.764706 93.260599 
L 651.970588 93.260599 
L 651.970588 92.203161 
L 662.227941 92.203161 
L 662.227941 84.80109 
L 674.536765 84.80109 
L 674.536765 83.743651 
L 682.742647 83.743651 
L 682.742647 82.686213 
L 701.205882 82.686213 
L 701.205882 81.628774 
L 713.514706 81.628774 
L 713.514706 80.571335 
L 719.669118 80.571335 
L 719.669118 79.513896 
L 723.772059 79.513896 
L 723.772059 78.456458 
L 746.338235 78.456458 
L 746.338235 77.399019 
L 748.389706 77.399019 
L 748.389706 75.284142 
L 750.441176 75.284142 
L 750.441176 74.226703 
L 754.544118 74.226703 
L 754.544118 73.169264 
L 756.595588 73.169264 
L 756.595588 72.111826 
L 773.007353 72.111826 
L 773.007353 71.054387 
L 777.110294 71.054387 
L 777.110294 69.996948 
L 797.625 69.996948 
L 797.625 68.93951 
L 801.727941 68.93951 
L 801.727941 67.882071 
L 809.933824 67.882071 
L 809.933824 66.824632 
L 811.985294 66.824632 
L 811.985294 65.767193 
L 855.066176 65.767193 
L 855.066176 64.709755 
L 871.477941 64.709755 
L 871.477941 63.652316 
L 900.198529 63.652316 
L 900.198529 62.594877 
L 937.125 62.594877 
L 937.125 61.537439 
L 949.433824 61.537439 
L 949.433824 60.48 
L 972 60.48 
L 972 60.48 
" style="fill:none;stroke:#2ca02c;stroke-linecap:square;stroke-width:1.5;"/>
   </g>
   <g id="line2d_16">
    <path clip-path="url(#p6803910c2d)" d="M 135 448.56 
L 135 435.870736 
L 137.051471 435.870736 
L 137.051471 421.066594 
L 139.102941 421.066594 
L 139.102941 405.205014 
L 141.154412 405.205014 
L 141.154412 403.090136 
L 143.205882 403.090136 
L 143.205882 390.400872 
L 145.257353 390.400872 
L 145.257353 384.05624 
L 151.411765 384.05624 
L 151.411765 382.998801 
L 155.514706 382.998801 
L 155.514706 377.711608 
L 157.566176 377.711608 
L 157.566176 375.59673 
L 159.617647 375.59673 
L 159.617647 362.907466 
L 161.669118 362.907466 
L 161.669118 352.333079 
L 163.720588 352.333079 
L 163.720588 351.27564 
L 165.772059 351.27564 
L 165.772059 347.045886 
L 167.823529 347.045886 
L 167.823529 344.931008 
L 169.875 344.931008 
L 169.875 341.758692 
L 171.926471 341.758692 
L 171.926471 324.839673 
L 173.977941 324.839673 
L 173.977941 318.495041 
L 176.029412 318.495041 
L 176.029412 311.09297 
L 178.080882 311.09297 
L 178.080882 307.920654 
L 180.132353 307.920654 
L 180.132353 305.805777 
L 182.183824 305.805777 
L 182.183824 304.748338 
L 184.235294 304.748338 
L 184.235294 298.403706 
L 188.338235 298.403706 
L 188.338235 297.346267 
L 192.441176 297.346267 
L 192.441176 295.23139 
L 194.492647 295.23139 
L 194.492647 294.173951 
L 196.544118 294.173951 
L 196.544118 293.116512 
L 198.595588 293.116512 
L 198.595588 292.059074 
L 202.698529 292.059074 
L 202.698529 289.944196 
L 206.801471 289.944196 
L 206.801471 287.829319 
L 208.852941 287.829319 
L 208.852941 280.427248 
L 217.058824 280.427248 
L 217.058824 279.369809 
L 219.110294 279.369809 
L 219.110294 276.197493 
L 221.161765 276.197493 
L 221.161765 273.025177 
L 223.213235 273.025177 
L 223.213235 269.852861 
L 225.264706 269.852861 
L 225.264706 267.737984 
L 227.316176 267.737984 
L 227.316176 266.680545 
L 239.625 266.680545 
L 239.625 262.45079 
L 241.676471 262.45079 
L 241.676471 258.221035 
L 245.779412 258.221035 
L 245.779412 257.163597 
L 247.830882 257.163597 
L 247.830882 255.048719 
L 249.882353 255.048719 
L 249.882353 253.991281 
L 251.933824 253.991281 
L 251.933824 252.933842 
L 258.088235 252.933842 
L 258.088235 251.876403 
L 270.397059 251.876403 
L 270.397059 246.58921 
L 278.602941 246.58921 
L 278.602941 245.531771 
L 280.654412 245.531771 
L 280.654412 241.302016 
L 282.705882 241.302016 
L 282.705882 238.1297 
L 286.808824 238.1297 
L 286.808824 232.842507 
L 288.860294 232.842507 
L 288.860294 228.612752 
L 290.911765 228.612752 
L 290.911765 227.555313 
L 292.963235 227.555313 
L 292.963235 225.440436 
L 297.066176 225.440436 
L 297.066176 224.382997 
L 299.117647 224.382997 
L 299.117647 212.751172 
L 301.169118 212.751172 
L 301.169118 210.636294 
L 303.220588 210.636294 
L 303.220588 209.578856 
L 305.272059 209.578856 
L 305.272059 207.463978 
L 313.477941 207.463978 
L 313.477941 206.40654 
L 315.529412 206.40654 
L 315.529412 204.291662 
L 325.786765 204.291662 
L 325.786765 201.119346 
L 329.889706 201.119346 
L 329.889706 200.061907 
L 331.941176 200.061907 
L 331.941176 199.004469 
L 333.992647 199.004469 
L 333.992647 195.832153 
L 336.044118 195.832153 
L 336.044118 193.717275 
L 344.25 193.717275 
L 344.25 191.602398 
L 346.301471 191.602398 
L 346.301471 188.430082 
L 348.352941 188.430082 
L 348.352941 184.200327 
L 356.558824 184.200327 
L 356.558824 183.142888 
L 360.661765 183.142888 
L 360.661765 178.913134 
L 364.764706 178.913134 
L 364.764706 177.855695 
L 366.816176 177.855695 
L 366.816176 176.798256 
L 368.867647 176.798256 
L 368.867647 174.683379 
L 375.022059 174.683379 
L 375.022059 171.511063 
L 379.125 171.511063 
L 379.125 167.281308 
L 381.176471 167.281308 
L 381.176471 166.223869 
L 383.227941 166.223869 
L 383.227941 165.166431 
L 387.330882 165.166431 
L 387.330882 163.051553 
L 389.382353 163.051553 
L 389.382353 159.879237 
L 393.485294 159.879237 
L 393.485294 158.821798 
L 395.536765 158.821798 
L 395.536765 157.76436 
L 397.588235 157.76436 
L 397.588235 155.649482 
L 399.639706 155.649482 
L 399.639706 154.592044 
L 407.845588 154.592044 
L 407.845588 153.534605 
L 409.897059 153.534605 
L 409.897059 152.477166 
L 414 152.477166 
L 414 150.362289 
L 416.051471 150.362289 
L 416.051471 149.30485 
L 422.205882 149.30485 
L 422.205882 148.247411 
L 424.257353 148.247411 
L 424.257353 146.132534 
L 430.411765 146.132534 
L 430.411765 144.017657 
L 434.514706 144.017657 
L 434.514706 142.960218 
L 452.977941 142.960218 
L 452.977941 140.845341 
L 457.080882 140.845341 
L 457.080882 139.787902 
L 463.235294 139.787902 
L 463.235294 138.730463 
L 465.286765 138.730463 
L 465.286765 137.673025 
L 469.389706 137.673025 
L 469.389706 134.500708 
L 471.441176 134.500708 
L 471.441176 133.44327 
L 473.492647 133.44327 
L 473.492647 132.385831 
L 483.75 132.385831 
L 483.75 131.328392 
L 487.852941 131.328392 
L 487.852941 130.270954 
L 489.904412 130.270954 
L 489.904412 126.041199 
L 494.007353 126.041199 
L 494.007353 124.98376 
L 518.625 124.98376 
L 518.625 123.926322 
L 520.676471 123.926322 
L 520.676471 122.868883 
L 526.830882 122.868883 
L 526.830882 121.811444 
L 530.933824 121.811444 
L 530.933824 120.754005 
L 535.036765 120.754005 
L 535.036765 119.696567 
L 539.139706 119.696567 
L 539.139706 117.581689 
L 543.242647 117.581689 
L 543.242647 116.524251 
L 545.294118 116.524251 
L 545.294118 115.466812 
L 549.397059 115.466812 
L 549.397059 113.351935 
L 557.602941 113.351935 
L 557.602941 112.294496 
L 576.066176 112.294496 
L 576.066176 110.179619 
L 590.426471 110.179619 
L 590.426471 105.949864 
L 592.477941 105.949864 
L 592.477941 104.892425 
L 598.632353 104.892425 
L 598.632353 103.834986 
L 602.735294 103.834986 
L 602.735294 102.777548 
L 608.889706 102.777548 
L 608.889706 101.720109 
L 617.095588 101.720109 
L 617.095588 100.66267 
L 619.147059 100.66267 
L 619.147059 99.605232 
L 633.507353 99.605232 
L 633.507353 97.490354 
L 641.713235 97.490354 
L 641.713235 95.375477 
L 645.816176 95.375477 
L 645.816176 94.318038 
L 654.022059 94.318038 
L 654.022059 93.260599 
L 662.227941 93.260599 
L 662.227941 92.203161 
L 672.485294 92.203161 
L 672.485294 90.088283 
L 680.691176 90.088283 
L 680.691176 89.030845 
L 682.742647 89.030845 
L 682.742647 87.973406 
L 690.948529 87.973406 
L 690.948529 86.915967 
L 695.051471 86.915967 
L 695.051471 84.80109 
L 703.257353 84.80109 
L 703.257353 83.743651 
L 711.463235 83.743651 
L 711.463235 82.686213 
L 713.514706 82.686213 
L 713.514706 81.628774 
L 715.566176 81.628774 
L 715.566176 80.571335 
L 717.617647 80.571335 
L 717.617647 79.513896 
L 719.669118 79.513896 
L 719.669118 78.456458 
L 738.132353 78.456458 
L 738.132353 77.399019 
L 744.286765 77.399019 
L 744.286765 75.284142 
L 748.389706 75.284142 
L 748.389706 73.169264 
L 758.647059 73.169264 
L 758.647059 72.111826 
L 766.852941 72.111826 
L 766.852941 68.93951 
L 805.830882 68.93951 
L 805.830882 67.882071 
L 834.551471 67.882071 
L 834.551471 65.767193 
L 840.705882 65.767193 
L 840.705882 64.709755 
L 850.963235 64.709755 
L 850.963235 63.652316 
L 873.529412 63.652316 
L 873.529412 62.594877 
L 933.022059 62.594877 
L 933.022059 61.537439 
L 961.742647 61.537439 
L 961.742647 60.48 
L 972 60.48 
L 972 60.48 
" style="fill:none;stroke:#d62728;stroke-linecap:square;stroke-width:1.5;"/>
   </g>
   <g id="line2d_17">
    <path clip-path="url(#p6803910c2d)" d="M 135 448.56 
L 972 60.48 
" style="fill:none;stroke:#ff0000;stroke-dasharray:5.55,2.4;stroke-dashoffset:0;stroke-width:1.5;"/>
   </g>
   <g id="patch_3">
    <path d="M 135 448.56 
L 135 60.48 
" style="fill:none;stroke:#000000;stroke-linecap:square;stroke-linejoin:miter;stroke-width:0.8;"/>
   </g>
   <g id="patch_4">
    <path d="M 972 448.56 
L 972 60.48 
" style="fill:none;stroke:#000000;stroke-linecap:square;stroke-linejoin:miter;stroke-width:0.8;"/>
   </g>
   <g id="patch_5">
    <path d="M 135 448.56 
L 972 448.56 
" style="fill:none;stroke:#000000;stroke-linecap:square;stroke-linejoin:miter;stroke-width:0.8;"/>
   </g>
   <g id="patch_6">
    <path d="M 135 60.48 
L 972 60.48 
" style="fill:none;stroke:#000000;stroke-linecap:square;stroke-linejoin:miter;stroke-width:0.8;"/>
   </g>
   <g id="text_15">
    <!-- Compas -->
    <g transform="translate(529.183125 54.48)scale(0.12 -0.12)">
     <defs>
      <path d="M 4122 4306 
L 4122 3641 
Q 3803 3938 3442 4084 
Q 3081 4231 2675 4231 
Q 1875 4231 1450 3742 
Q 1025 3253 1025 2328 
Q 1025 1406 1450 917 
Q 1875 428 2675 428 
Q 3081 428 3442 575 
Q 3803 722 4122 1019 
L 4122 359 
Q 3791 134 3420 21 
Q 3050 -91 2638 -91 
Q 1578 -91 968 557 
Q 359 1206 359 2328 
Q 359 3453 968 4101 
Q 1578 4750 2638 4750 
Q 3056 4750 3426 4639 
Q 3797 4528 4122 4306 
z
" id="DejaVuSans-43" transform="scale(0.015625)"/>
      <path d="M 1959 3097 
Q 1497 3097 1228 2736 
Q 959 2375 959 1747 
Q 959 1119 1226 758 
Q 1494 397 1959 397 
Q 2419 397 2687 759 
Q 2956 1122 2956 1747 
Q 2956 2369 2687 2733 
Q 2419 3097 1959 3097 
z
M 1959 3584 
Q 2709 3584 3137 3096 
Q 3566 2609 3566 1747 
Q 3566 888 3137 398 
Q 2709 -91 1959 -91 
Q 1206 -91 779 398 
Q 353 888 353 1747 
Q 353 2609 779 3096 
Q 1206 3584 1959 3584 
z
" id="DejaVuSans-6f" transform="scale(0.015625)"/>
      <path d="M 3328 2828 
Q 3544 3216 3844 3400 
Q 4144 3584 4550 3584 
Q 5097 3584 5394 3201 
Q 5691 2819 5691 2113 
L 5691 0 
L 5113 0 
L 5113 2094 
Q 5113 2597 4934 2840 
Q 4756 3084 4391 3084 
Q 3944 3084 3684 2787 
Q 3425 2491 3425 1978 
L 3425 0 
L 2847 0 
L 2847 2094 
Q 2847 2600 2669 2842 
Q 2491 3084 2119 3084 
Q 1678 3084 1418 2786 
Q 1159 2488 1159 1978 
L 1159 0 
L 581 0 
L 581 3500 
L 1159 3500 
L 1159 2956 
Q 1356 3278 1631 3431 
Q 1906 3584 2284 3584 
Q 2666 3584 2933 3390 
Q 3200 3197 3328 2828 
z
" id="DejaVuSans-6d" transform="scale(0.015625)"/>
      <path d="M 1159 525 
L 1159 -1331 
L 581 -1331 
L 581 3500 
L 1159 3500 
L 1159 2969 
Q 1341 3281 1617 3432 
Q 1894 3584 2278 3584 
Q 2916 3584 3314 3078 
Q 3713 2572 3713 1747 
Q 3713 922 3314 415 
Q 2916 -91 2278 -91 
Q 1894 -91 1617 61 
Q 1341 213 1159 525 
z
M 3116 1747 
Q 3116 2381 2855 2742 
Q 2594 3103 2138 3103 
Q 1681 3103 1420 2742 
Q 1159 2381 1159 1747 
Q 1159 1113 1420 752 
Q 1681 391 2138 391 
Q 2594 391 2855 752 
Q 3116 1113 3116 1747 
z
" id="DejaVuSans-70" transform="scale(0.015625)"/>
      <path d="M 2194 1759 
Q 1497 1759 1228 1600 
Q 959 1441 959 1056 
Q 959 750 1161 570 
Q 1363 391 1709 391 
Q 2188 391 2477 730 
Q 2766 1069 2766 1631 
L 2766 1759 
L 2194 1759 
z
M 3341 1997 
L 3341 0 
L 2766 0 
L 2766 531 
Q 2569 213 2275 61 
Q 1981 -91 1556 -91 
Q 1019 -91 701 211 
Q 384 513 384 1019 
Q 384 1609 779 1909 
Q 1175 2209 1959 2209 
L 2766 2209 
L 2766 2266 
Q 2766 2663 2505 2880 
Q 2244 3097 1772 3097 
Q 1472 3097 1187 3025 
Q 903 2953 641 2809 
L 641 3341 
Q 956 3463 1253 3523 
Q 1550 3584 1831 3584 
Q 2591 3584 2966 3190 
Q 3341 2797 3341 1997 
z
" id="DejaVuSans-61" transform="scale(0.015625)"/>
      <path d="M 2834 3397 
L 2834 2853 
Q 2591 2978 2328 3040 
Q 2066 3103 1784 3103 
Q 1356 3103 1142 2972 
Q 928 2841 928 2578 
Q 928 2378 1081 2264 
Q 1234 2150 1697 2047 
L 1894 2003 
Q 2506 1872 2764 1633 
Q 3022 1394 3022 966 
Q 3022 478 2636 193 
Q 2250 -91 1575 -91 
Q 1294 -91 989 -36 
Q 684 19 347 128 
L 347 722 
Q 666 556 975 473 
Q 1284 391 1588 391 
Q 1994 391 2212 530 
Q 2431 669 2431 922 
Q 2431 1156 2273 1281 
Q 2116 1406 1581 1522 
L 1381 1569 
Q 847 1681 609 1914 
Q 372 2147 372 2553 
Q 372 3047 722 3315 
Q 1072 3584 1716 3584 
Q 2034 3584 2315 3537 
Q 2597 3491 2834 3397 
z
" id="DejaVuSans-73" transform="scale(0.015625)"/>
     </defs>
     <use xlink:href="#DejaVuSans-43"/>
     <use x="69.824219" xlink:href="#DejaVuSans-6f"/>
     <use x="131.005859" xlink:href="#DejaVuSans-6d"/>
     <use x="228.417969" xlink:href="#DejaVuSans-70"/>
     <use x="291.894531" xlink:href="#DejaVuSans-61"/>
     <use x="353.173828" xlink:href="#DejaVuSans-73"/>
    </g>
   </g>
   <g id="legend_1">
    <g id="patch_7">
     <path d="M 681.5875 438.56 
L 958 438.56 
Q 962 438.56 962 434.56 
L 962 316.91 
Q 962 312.91 958 312.91 
L 681.5875 312.91 
Q 677.5875 312.91 677.5875 316.91 
L 677.5875 434.56 
Q 677.5875 438.56 681.5875 438.56 
z
" style="fill:#ffffff;opacity:0.8;stroke:#cccccc;stroke-linejoin:miter;"/>
    </g>
    <g id="line2d_18">
     <path d="M 685.5875 329.106875 
L 725.5875 329.106875 
" style="fill:none;stroke:#1f77b4;stroke-linecap:square;stroke-width:1.5;"/>
    </g>
    <g id="line2d_19"/>
    <g id="text_16">
     <!-- AUC_5-Layers = 0.77 -->
     <g transform="translate(741.5875 336.106875)scale(0.2 -0.2)">
      <defs>
       <path d="M 2188 4044 
L 1331 1722 
L 3047 1722 
L 2188 4044 
z
M 1831 4666 
L 2547 4666 
L 4325 0 
L 3669 0 
L 3244 1197 
L 1141 1197 
L 716 0 
L 50 0 
L 1831 4666 
z
" id="DejaVuSans-41" transform="scale(0.015625)"/>
       <path d="M 556 4666 
L 1191 4666 
L 1191 1831 
Q 1191 1081 1462 751 
Q 1734 422 2344 422 
Q 2950 422 3222 751 
Q 3494 1081 3494 1831 
L 3494 4666 
L 4128 4666 
L 4128 1753 
Q 4128 841 3676 375 
Q 3225 -91 2344 -91 
Q 1459 -91 1007 375 
Q 556 841 556 1753 
L 556 4666 
z
" id="DejaVuSans-55" transform="scale(0.015625)"/>
       <path d="M 3263 -1063 
L 3263 -1509 
L -63 -1509 
L -63 -1063 
L 3263 -1063 
z
" id="DejaVuSans-5f" transform="scale(0.015625)"/>
       <path d="M 691 4666 
L 3169 4666 
L 3169 4134 
L 1269 4134 
L 1269 2991 
Q 1406 3038 1543 3061 
Q 1681 3084 1819 3084 
Q 2600 3084 3056 2656 
Q 3513 2228 3513 1497 
Q 3513 744 3044 326 
Q 2575 -91 1722 -91 
Q 1428 -91 1123 -41 
Q 819 9 494 109 
L 494 744 
Q 775 591 1075 516 
Q 1375 441 1709 441 
Q 2250 441 2565 725 
Q 2881 1009 2881 1497 
Q 2881 1984 2565 2268 
Q 2250 2553 1709 2553 
Q 1456 2553 1204 2497 
Q 953 2441 691 2322 
L 691 4666 
z
" id="DejaVuSans-35" transform="scale(0.015625)"/>
       <path d="M 313 2009 
L 1997 2009 
L 1997 1497 
L 313 1497 
L 313 2009 
z
" id="DejaVuSans-2d" transform="scale(0.015625)"/>
       <path d="M 628 4666 
L 1259 4666 
L 1259 531 
L 3531 531 
L 3531 0 
L 628 0 
L 628 4666 
z
" id="DejaVuSans-4c" transform="scale(0.015625)"/>
       <path d="M 2059 -325 
Q 1816 -950 1584 -1140 
Q 1353 -1331 966 -1331 
L 506 -1331 
L 506 -850 
L 844 -850 
Q 1081 -850 1212 -737 
Q 1344 -625 1503 -206 
L 1606 56 
L 191 3500 
L 800 3500 
L 1894 763 
L 2988 3500 
L 3597 3500 
L 2059 -325 
z
" id="DejaVuSans-79" transform="scale(0.015625)"/>
       <path d="M 3597 1894 
L 3597 1613 
L 953 1613 
Q 991 1019 1311 708 
Q 1631 397 2203 397 
Q 2534 397 2845 478 
Q 3156 559 3463 722 
L 3463 178 
Q 3153 47 2828 -22 
Q 2503 -91 2169 -91 
Q 1331 -91 842 396 
Q 353 884 353 1716 
Q 353 2575 817 3079 
Q 1281 3584 2069 3584 
Q 2775 3584 3186 3129 
Q 3597 2675 3597 1894 
z
M 3022 2063 
Q 3016 2534 2758 2815 
Q 2500 3097 2075 3097 
Q 1594 3097 1305 2825 
Q 1016 2553 972 2059 
L 3022 2063 
z
" id="DejaVuSans-65" transform="scale(0.015625)"/>
       <path d="M 2631 2963 
Q 2534 3019 2420 3045 
Q 2306 3072 2169 3072 
Q 1681 3072 1420 2755 
Q 1159 2438 1159 1844 
L 1159 0 
L 581 0 
L 581 3500 
L 1159 3500 
L 1159 2956 
Q 1341 3275 1631 3429 
Q 1922 3584 2338 3584 
Q 2397 3584 2469 3576 
Q 2541 3569 2628 3553 
L 2631 2963 
z
" id="DejaVuSans-72" transform="scale(0.015625)"/>
       <path id="DejaVuSans-20" transform="scale(0.015625)"/>
       <path d="M 678 2906 
L 4684 2906 
L 4684 2381 
L 678 2381 
L 678 2906 
z
M 678 1631 
L 4684 1631 
L 4684 1100 
L 678 1100 
L 678 1631 
z
" id="DejaVuSans-3d" transform="scale(0.015625)"/>
       <path d="M 525 4666 
L 3525 4666 
L 3525 4397 
L 1831 0 
L 1172 0 
L 2766 4134 
L 525 4134 
L 525 4666 
z
" id="DejaVuSans-37" transform="scale(0.015625)"/>
      </defs>
      <use xlink:href="#DejaVuSans-41"/>
      <use x="68.408203" xlink:href="#DejaVuSans-55"/>
      <use x="141.601562" xlink:href="#DejaVuSans-43"/>
      <use x="211.425781" xlink:href="#DejaVuSans-5f"/>
      <use x="261.425781" xlink:href="#DejaVuSans-35"/>
      <use x="325.048828" xlink:href="#DejaVuSans-2d"/>
      <use x="361.132812" xlink:href="#DejaVuSans-4c"/>
      <use x="416.845703" xlink:href="#DejaVuSans-61"/>
      <use x="478.125" xlink:href="#DejaVuSans-79"/>
      <use x="537.304688" xlink:href="#DejaVuSans-65"/>
      <use x="598.828125" xlink:href="#DejaVuSans-72"/>
      <use x="639.941406" xlink:href="#DejaVuSans-73"/>
      <use x="692.041016" xlink:href="#DejaVuSans-20"/>
      <use x="723.828125" xlink:href="#DejaVuSans-3d"/>
      <use x="807.617188" xlink:href="#DejaVuSans-20"/>
      <use x="839.404297" xlink:href="#DejaVuSans-30"/>
      <use x="903.027344" xlink:href="#DejaVuSans-2e"/>
      <use x="934.814453" xlink:href="#DejaVuSans-37"/>
      <use x="998.4375" xlink:href="#DejaVuSans-37"/>
     </g>
    </g>
    <g id="line2d_20">
     <path d="M 685.5875 359.019375 
L 725.5875 359.019375 
" style="fill:none;stroke:#ff7f0e;stroke-linecap:square;stroke-width:1.5;"/>
    </g>
    <g id="line2d_21"/>
    <g id="text_17">
     <!-- AUC_4-Layers = 0.77 -->
     <g transform="translate(741.5875 366.019375)scale(0.2 -0.2)">
      <use xlink:href="#DejaVuSans-41"/>
      <use x="68.408203" xlink:href="#DejaVuSans-55"/>
      <use x="141.601562" xlink:href="#DejaVuSans-43"/>
      <use x="211.425781" xlink:href="#DejaVuSans-5f"/>
      <use x="261.425781" xlink:href="#DejaVuSans-34"/>
      <use x="325.048828" xlink:href="#DejaVuSans-2d"/>
      <use x="361.132812" xlink:href="#DejaVuSans-4c"/>
      <use x="416.845703" xlink:href="#DejaVuSans-61"/>
      <use x="478.125" xlink:href="#DejaVuSans-79"/>
      <use x="537.304688" xlink:href="#DejaVuSans-65"/>
      <use x="598.828125" xlink:href="#DejaVuSans-72"/>
      <use x="639.941406" xlink:href="#DejaVuSans-73"/>
      <use x="692.041016" xlink:href="#DejaVuSans-20"/>
      <use x="723.828125" xlink:href="#DejaVuSans-3d"/>
      <use x="807.617188" xlink:href="#DejaVuSans-20"/>
      <use x="839.404297" xlink:href="#DejaVuSans-30"/>
      <use x="903.027344" xlink:href="#DejaVuSans-2e"/>
      <use x="934.814453" xlink:href="#DejaVuSans-37"/>
      <use x="998.4375" xlink:href="#DejaVuSans-37"/>
     </g>
    </g>
    <g id="line2d_22">
     <path d="M 685.5875 388.931875 
L 725.5875 388.931875 
" style="fill:none;stroke:#2ca02c;stroke-linecap:square;stroke-width:1.5;"/>
    </g>
    <g id="line2d_23"/>
    <g id="text_18">
     <!-- AUC_3-Layers = 0.78 -->
     <g transform="translate(741.5875 395.931875)scale(0.2 -0.2)">
      <defs>
       <path d="M 2597 2516 
Q 3050 2419 3304 2112 
Q 3559 1806 3559 1356 
Q 3559 666 3084 287 
Q 2609 -91 1734 -91 
Q 1441 -91 1130 -33 
Q 819 25 488 141 
L 488 750 
Q 750 597 1062 519 
Q 1375 441 1716 441 
Q 2309 441 2620 675 
Q 2931 909 2931 1356 
Q 2931 1769 2642 2001 
Q 2353 2234 1838 2234 
L 1294 2234 
L 1294 2753 
L 1863 2753 
Q 2328 2753 2575 2939 
Q 2822 3125 2822 3475 
Q 2822 3834 2567 4026 
Q 2313 4219 1838 4219 
Q 1578 4219 1281 4162 
Q 984 4106 628 3988 
L 628 4550 
Q 988 4650 1302 4700 
Q 1616 4750 1894 4750 
Q 2613 4750 3031 4423 
Q 3450 4097 3450 3541 
Q 3450 3153 3228 2886 
Q 3006 2619 2597 2516 
z
" id="DejaVuSans-33" transform="scale(0.015625)"/>
      </defs>
      <use xlink:href="#DejaVuSans-41"/>
      <use x="68.408203" xlink:href="#DejaVuSans-55"/>
      <use x="141.601562" xlink:href="#DejaVuSans-43"/>
      <use x="211.425781" xlink:href="#DejaVuSans-5f"/>
      <use x="261.425781" xlink:href="#DejaVuSans-33"/>
      <use x="325.048828" xlink:href="#DejaVuSans-2d"/>
      <use x="361.132812" xlink:href="#DejaVuSans-4c"/>
      <use x="416.845703" xlink:href="#DejaVuSans-61"/>
      <use x="478.125" xlink:href="#DejaVuSans-79"/>
      <use x="537.304688" xlink:href="#DejaVuSans-65"/>
      <use x="598.828125" xlink:href="#DejaVuSans-72"/>
      <use x="639.941406" xlink:href="#DejaVuSans-73"/>
      <use x="692.041016" xlink:href="#DejaVuSans-20"/>
      <use x="723.828125" xlink:href="#DejaVuSans-3d"/>
      <use x="807.617188" xlink:href="#DejaVuSans-20"/>
      <use x="839.404297" xlink:href="#DejaVuSans-30"/>
      <use x="903.027344" xlink:href="#DejaVuSans-2e"/>
      <use x="934.814453" xlink:href="#DejaVuSans-37"/>
      <use x="998.4375" xlink:href="#DejaVuSans-38"/>
     </g>
    </g>
    <g id="line2d_24">
     <path d="M 685.5875 418.844375 
L 725.5875 418.844375 
" style="fill:none;stroke:#d62728;stroke-linecap:square;stroke-width:1.5;"/>
    </g>
    <g id="line2d_25"/>
    <g id="text_19">
     <!-- AUC_2-Layers = 0.78 -->
     <g transform="translate(741.5875 425.844375)scale(0.2 -0.2)">
      <use xlink:href="#DejaVuSans-41"/>
      <use x="68.408203" xlink:href="#DejaVuSans-55"/>
      <use x="141.601562" xlink:href="#DejaVuSans-43"/>
      <use x="211.425781" xlink:href="#DejaVuSans-5f"/>
      <use x="261.425781" xlink:href="#DejaVuSans-32"/>
      <use x="325.048828" xlink:href="#DejaVuSans-2d"/>
      <use x="361.132812" xlink:href="#DejaVuSans-4c"/>
      <use x="416.845703" xlink:href="#DejaVuSans-61"/>
      <use x="478.125" xlink:href="#DejaVuSans-79"/>
      <use x="537.304688" xlink:href="#DejaVuSans-65"/>
      <use x="598.828125" xlink:href="#DejaVuSans-72"/>
      <use x="639.941406" xlink:href="#DejaVuSans-73"/>
      <use x="692.041016" xlink:href="#DejaVuSans-20"/>
      <use x="723.828125" xlink:href="#DejaVuSans-3d"/>
      <use x="807.617188" xlink:href="#DejaVuSans-20"/>
      <use x="839.404297" xlink:href="#DejaVuSans-30"/>
      <use x="903.027344" xlink:href="#DejaVuSans-2e"/>
      <use x="934.814453" xlink:href="#DejaVuSans-37"/>
      <use x="998.4375" xlink:href="#DejaVuSans-38"/>
     </g>
    </g>
   </g>
  </g>
 </g>
 <defs>
  <clipPath id="p6803910c2d">
   <rect height="388.08" width="837" x="135" y="60.48"/>
  </clipPath>
 </defs>
</svg>
