<?xml version="1.0" encoding="utf-8" standalone="no"?>
<!DOCTYPE svg PUBLIC "-//W3C//DTD SVG 1.1//EN"
  "http://www.w3.org/Graphics/SVG/1.1/DTD/svg11.dtd">
<svg height="504pt" version="1.1" viewBox="0 0 1080 504" width="1080pt" xmlns="http://www.w3.org/2000/svg" xmlns:xlink="http://www.w3.org/1999/xlink">
 <metadata>
  <rdf:RDF xmlns:cc="http://creativecommons.org/ns#" xmlns:dc="http://purl.org/dc/elements/1.1/" xmlns:rdf="http://www.w3.org/1999/02/22-rdf-syntax-ns#">
   <cc:Work>
    <dc:type rdf:resource="http://purl.org/dc/dcmitype/StillImage"/>
    <dc:date>2022-01-07T14:10:29.713074</dc:date>
    <dc:format>image/svg+xml</dc:format>
    <dc:creator>
     <cc:Agent>
      <dc:title>Matplotlib v3.4.3, https://matplotlib.org/</dc:title>
     </cc:Agent>
    </dc:creator>
   </cc:Work>
  </rdf:RDF>
 </metadata>
 <defs>
  <style type="text/css">*{stroke-linecap:butt;stroke-linejoin:round;}</style>
 </defs>
 <g id="figure_1">
  <g id="patch_1">
   <path d="M 0 504 
L 1080 504 
L 1080 0 
L 0 0 
z
" style="fill:#ffffff;"/>
  </g>
  <g id="axes_1">
   <g id="patch_2">
    <path d="M 135 448.56 
L 972 448.56 
L 972 60.48 
L 135 60.48 
z
" style="fill:#ffffff;"/>
   </g>
   <g id="matplotlib.axis_1">
    <g id="xtick_1">
     <g id="line2d_1">
      <defs>
       <path d="M 0 0 
L 0 3.5 
" id="m7117c90d22" style="stroke:#000000;stroke-width:0.8;"/>
      </defs>
      <g>
       <use style="stroke:#000000;stroke-width:0.8;" x="135" xlink:href="#m7117c90d22" y="448.56"/>
      </g>
     </g>
     <g id="text_1">
      <!-- 0.0 -->
      <g transform="translate(120.687187 469.237188)scale(0.18 -0.18)">
       <defs>
        <path d="M 2034 4250 
Q 1547 4250 1301 3770 
Q 1056 3291 1056 2328 
Q 1056 1369 1301 889 
Q 1547 409 2034 409 
Q 2525 409 2770 889 
Q 3016 1369 3016 2328 
Q 3016 3291 2770 3770 
Q 2525 4250 2034 4250 
z
M 2034 4750 
Q 2819 4750 3233 4129 
Q 3647 3509 3647 2328 
Q 3647 1150 3233 529 
Q 2819 -91 2034 -91 
Q 1250 -91 836 529 
Q 422 1150 422 2328 
Q 422 3509 836 4129 
Q 1250 4750 2034 4750 
z
" id="DejaVuSans-30" transform="scale(0.015625)"/>
        <path d="M 684 794 
L 1344 794 
L 1344 0 
L 684 0 
L 684 794 
z
" id="DejaVuSans-2e" transform="scale(0.015625)"/>
       </defs>
       <use xlink:href="#DejaVuSans-30"/>
       <use x="63.623047" xlink:href="#DejaVuSans-2e"/>
       <use x="95.410156" xlink:href="#DejaVuSans-30"/>
      </g>
     </g>
    </g>
    <g id="xtick_2">
     <g id="line2d_2">
      <g>
       <use style="stroke:#000000;stroke-width:0.8;" x="302.4" xlink:href="#m7117c90d22" y="448.56"/>
      </g>
     </g>
     <g id="text_2">
      <!-- 0.2 -->
      <g transform="translate(288.087187 469.237188)scale(0.18 -0.18)">
       <defs>
        <path d="M 1228 531 
L 3431 531 
L 3431 0 
L 469 0 
L 469 531 
Q 828 903 1448 1529 
Q 2069 2156 2228 2338 
Q 2531 2678 2651 2914 
Q 2772 3150 2772 3378 
Q 2772 3750 2511 3984 
Q 2250 4219 1831 4219 
Q 1534 4219 1204 4116 
Q 875 4013 500 3803 
L 500 4441 
Q 881 4594 1212 4672 
Q 1544 4750 1819 4750 
Q 2544 4750 2975 4387 
Q 3406 4025 3406 3419 
Q 3406 3131 3298 2873 
Q 3191 2616 2906 2266 
Q 2828 2175 2409 1742 
Q 1991 1309 1228 531 
z
" id="DejaVuSans-32" transform="scale(0.015625)"/>
       </defs>
       <use xlink:href="#DejaVuSans-30"/>
       <use x="63.623047" xlink:href="#DejaVuSans-2e"/>
       <use x="95.410156" xlink:href="#DejaVuSans-32"/>
      </g>
     </g>
    </g>
    <g id="xtick_3">
     <g id="line2d_3">
      <g>
       <use style="stroke:#000000;stroke-width:0.8;" x="469.8" xlink:href="#m7117c90d22" y="448.56"/>
      </g>
     </g>
     <g id="text_3">
      <!-- 0.4 -->
      <g transform="translate(455.487188 469.237188)scale(0.18 -0.18)">
       <defs>
        <path d="M 2419 4116 
L 825 1625 
L 2419 1625 
L 2419 4116 
z
M 2253 4666 
L 3047 4666 
L 3047 1625 
L 3713 1625 
L 3713 1100 
L 3047 1100 
L 3047 0 
L 2419 0 
L 2419 1100 
L 313 1100 
L 313 1709 
L 2253 4666 
z
" id="DejaVuSans-34" transform="scale(0.015625)"/>
       </defs>
       <use xlink:href="#DejaVuSans-30"/>
       <use x="63.623047" xlink:href="#DejaVuSans-2e"/>
       <use x="95.410156" xlink:href="#DejaVuSans-34"/>
      </g>
     </g>
    </g>
    <g id="xtick_4">
     <g id="line2d_4">
      <g>
       <use style="stroke:#000000;stroke-width:0.8;" x="637.2" xlink:href="#m7117c90d22" y="448.56"/>
      </g>
     </g>
     <g id="text_4">
      <!-- 0.6 -->
      <g transform="translate(622.887188 469.237188)scale(0.18 -0.18)">
       <defs>
        <path d="M 2113 2584 
Q 1688 2584 1439 2293 
Q 1191 2003 1191 1497 
Q 1191 994 1439 701 
Q 1688 409 2113 409 
Q 2538 409 2786 701 
Q 3034 994 3034 1497 
Q 3034 2003 2786 2293 
Q 2538 2584 2113 2584 
z
M 3366 4563 
L 3366 3988 
Q 3128 4100 2886 4159 
Q 2644 4219 2406 4219 
Q 1781 4219 1451 3797 
Q 1122 3375 1075 2522 
Q 1259 2794 1537 2939 
Q 1816 3084 2150 3084 
Q 2853 3084 3261 2657 
Q 3669 2231 3669 1497 
Q 3669 778 3244 343 
Q 2819 -91 2113 -91 
Q 1303 -91 875 529 
Q 447 1150 447 2328 
Q 447 3434 972 4092 
Q 1497 4750 2381 4750 
Q 2619 4750 2861 4703 
Q 3103 4656 3366 4563 
z
" id="DejaVuSans-36" transform="scale(0.015625)"/>
       </defs>
       <use xlink:href="#DejaVuSans-30"/>
       <use x="63.623047" xlink:href="#DejaVuSans-2e"/>
       <use x="95.410156" xlink:href="#DejaVuSans-36"/>
      </g>
     </g>
    </g>
    <g id="xtick_5">
     <g id="line2d_5">
      <g>
       <use style="stroke:#000000;stroke-width:0.8;" x="804.6" xlink:href="#m7117c90d22" y="448.56"/>
      </g>
     </g>
     <g id="text_5">
      <!-- 0.8 -->
      <g transform="translate(790.287188 469.237188)scale(0.18 -0.18)">
       <defs>
        <path d="M 2034 2216 
Q 1584 2216 1326 1975 
Q 1069 1734 1069 1313 
Q 1069 891 1326 650 
Q 1584 409 2034 409 
Q 2484 409 2743 651 
Q 3003 894 3003 1313 
Q 3003 1734 2745 1975 
Q 2488 2216 2034 2216 
z
M 1403 2484 
Q 997 2584 770 2862 
Q 544 3141 544 3541 
Q 544 4100 942 4425 
Q 1341 4750 2034 4750 
Q 2731 4750 3128 4425 
Q 3525 4100 3525 3541 
Q 3525 3141 3298 2862 
Q 3072 2584 2669 2484 
Q 3125 2378 3379 2068 
Q 3634 1759 3634 1313 
Q 3634 634 3220 271 
Q 2806 -91 2034 -91 
Q 1263 -91 848 271 
Q 434 634 434 1313 
Q 434 1759 690 2068 
Q 947 2378 1403 2484 
z
M 1172 3481 
Q 1172 3119 1398 2916 
Q 1625 2713 2034 2713 
Q 2441 2713 2670 2916 
Q 2900 3119 2900 3481 
Q 2900 3844 2670 4047 
Q 2441 4250 2034 4250 
Q 1625 4250 1398 4047 
Q 1172 3844 1172 3481 
z
" id="DejaVuSans-38" transform="scale(0.015625)"/>
       </defs>
       <use xlink:href="#DejaVuSans-30"/>
       <use x="63.623047" xlink:href="#DejaVuSans-2e"/>
       <use x="95.410156" xlink:href="#DejaVuSans-38"/>
      </g>
     </g>
    </g>
    <g id="xtick_6">
     <g id="line2d_6">
      <g>
       <use style="stroke:#000000;stroke-width:0.8;" x="972" xlink:href="#m7117c90d22" y="448.56"/>
      </g>
     </g>
     <g id="text_6">
      <!-- 1.0 -->
      <g transform="translate(957.687188 469.237188)scale(0.18 -0.18)">
       <defs>
        <path d="M 794 531 
L 1825 531 
L 1825 4091 
L 703 3866 
L 703 4441 
L 1819 4666 
L 2450 4666 
L 2450 531 
L 3481 531 
L 3481 0 
L 794 0 
L 794 531 
z
" id="DejaVuSans-31" transform="scale(0.015625)"/>
       </defs>
       <use xlink:href="#DejaVuSans-31"/>
       <use x="63.623047" xlink:href="#DejaVuSans-2e"/>
       <use x="95.410156" xlink:href="#DejaVuSans-30"/>
      </g>
     </g>
    </g>
    <g id="text_7">
     <!-- $FPR_{Utility}$ -->
     <g transform="translate(509.94 493.040625)scale(0.22 -0.22)">
      <defs>
       <path d="M 1081 4666 
L 3756 4666 
L 3653 4134 
L 1606 4134 
L 1338 2759 
L 3188 2759 
L 3084 2228 
L 1234 2228 
L 800 0 
L 172 0 
L 1081 4666 
z
" id="DejaVuSans-Oblique-46" transform="scale(0.015625)"/>
       <path d="M 1081 4666 
L 2541 4666 
Q 3178 4666 3512 4369 
Q 3847 4072 3847 3500 
Q 3847 2731 3353 2303 
Q 2859 1875 1966 1875 
L 1172 1875 
L 806 0 
L 172 0 
L 1081 4666 
z
M 1613 4147 
L 1275 2394 
L 2069 2394 
Q 2606 2394 2893 2669 
Q 3181 2944 3181 3456 
Q 3181 3784 2986 3965 
Q 2791 4147 2438 4147 
L 1613 4147 
z
" id="DejaVuSans-Oblique-50" transform="scale(0.015625)"/>
       <path d="M 1613 4147 
L 1294 2491 
L 2106 2491 
Q 2584 2491 2879 2755 
Q 3175 3019 3175 3444 
Q 3175 3784 2976 3965 
Q 2778 4147 2406 4147 
L 1613 4147 
z
M 2772 2241 
Q 2972 2194 3105 2009 
Q 3238 1825 3413 1275 
L 3809 0 
L 3144 0 
L 2778 1197 
Q 2638 1659 2453 1815 
Q 2269 1972 1888 1972 
L 1191 1972 
L 806 0 
L 172 0 
L 1081 4666 
L 2503 4666 
Q 3150 4666 3495 4373 
Q 3841 4081 3841 3531 
Q 3841 3044 3547 2687 
Q 3253 2331 2772 2241 
z
" id="DejaVuSans-Oblique-52" transform="scale(0.015625)"/>
       <path d="M 991 4666 
L 1625 4666 
L 1075 1831 
Q 1041 1641 1027 1517 
Q 1013 1394 1013 1300 
Q 1013 869 1253 645 
Q 1494 422 1959 422 
Q 2563 422 2898 753 
Q 3234 1084 3378 1831 
L 3928 4666 
L 4563 4666 
L 4000 1753 
Q 3816 809 3300 359 
Q 2784 -91 1888 -91 
Q 1188 -91 780 261 
Q 372 613 372 1216 
Q 372 1325 387 1461 
Q 403 1597 434 1753 
L 991 4666 
z
" id="DejaVuSans-Oblique-55" transform="scale(0.015625)"/>
       <path d="M 2706 3500 
L 2619 3053 
L 1472 3053 
L 1100 1153 
Q 1081 1047 1072 975 
Q 1063 903 1063 863 
Q 1063 663 1183 572 
Q 1303 481 1569 481 
L 2150 481 
L 2053 0 
L 1503 0 
Q 991 0 739 200 
Q 488 400 488 806 
Q 488 878 497 964 
Q 506 1050 525 1153 
L 897 3053 
L 409 3053 
L 500 3500 
L 978 3500 
L 1172 4494 
L 1747 4494 
L 1556 3500 
L 2706 3500 
z
" id="DejaVuSans-Oblique-74" transform="scale(0.015625)"/>
       <path d="M 1172 4863 
L 1747 4863 
L 1606 4134 
L 1031 4134 
L 1172 4863 
z
M 909 3500 
L 1484 3500 
L 800 0 
L 225 0 
L 909 3500 
z
" id="DejaVuSans-Oblique-69" transform="scale(0.015625)"/>
       <path d="M 1172 4863 
L 1747 4863 
L 800 0 
L 225 0 
L 1172 4863 
z
" id="DejaVuSans-Oblique-6c" transform="scale(0.015625)"/>
       <path d="M 1588 -325 
Q 1188 -997 936 -1164 
Q 684 -1331 294 -1331 
L -159 -1331 
L -63 -850 
L 269 -850 
Q 509 -850 678 -719 
Q 847 -588 1056 -206 
L 1234 128 
L 459 3500 
L 1069 3500 
L 1650 819 
L 3256 3500 
L 3859 3500 
L 1588 -325 
z
" id="DejaVuSans-Oblique-79" transform="scale(0.015625)"/>
      </defs>
      <use transform="translate(0 0.09375)" xlink:href="#DejaVuSans-Oblique-46"/>
      <use transform="translate(57.519531 0.09375)" xlink:href="#DejaVuSans-Oblique-50"/>
      <use transform="translate(117.822266 0.09375)" xlink:href="#DejaVuSans-Oblique-52"/>
      <use transform="translate(187.304688 -16.3125)scale(0.7)" xlink:href="#DejaVuSans-Oblique-55"/>
      <use transform="translate(238.540039 -16.3125)scale(0.7)" xlink:href="#DejaVuSans-Oblique-74"/>
      <use transform="translate(265.986328 -16.3125)scale(0.7)" xlink:href="#DejaVuSans-Oblique-69"/>
      <use transform="translate(285.43457 -16.3125)scale(0.7)" xlink:href="#DejaVuSans-Oblique-6c"/>
      <use transform="translate(304.882812 -16.3125)scale(0.7)" xlink:href="#DejaVuSans-Oblique-69"/>
      <use transform="translate(324.331055 -16.3125)scale(0.7)" xlink:href="#DejaVuSans-Oblique-74"/>
      <use transform="translate(351.777344 -16.3125)scale(0.7)" xlink:href="#DejaVuSans-Oblique-79"/>
     </g>
    </g>
   </g>
   <g id="matplotlib.axis_2">
    <g id="ytick_1">
     <g id="line2d_7">
      <defs>
       <path d="M 0 0 
L -3.5 0 
" id="m26e868b365" style="stroke:#000000;stroke-width:0.8;"/>
      </defs>
      <g>
       <use style="stroke:#000000;stroke-width:0.8;" x="135" xlink:href="#m26e868b365" y="448.56"/>
      </g>
     </g>
     <g id="text_8">
      <!-- 0.0 -->
      <g transform="translate(99.374375 455.398594)scale(0.18 -0.18)">
       <use xlink:href="#DejaVuSans-30"/>
       <use x="63.623047" xlink:href="#DejaVuSans-2e"/>
       <use x="95.410156" xlink:href="#DejaVuSans-30"/>
      </g>
     </g>
    </g>
    <g id="ytick_2">
     <g id="line2d_8">
      <g>
       <use style="stroke:#000000;stroke-width:0.8;" x="135" xlink:href="#m26e868b365" y="370.944"/>
      </g>
     </g>
     <g id="text_9">
      <!-- 0.2 -->
      <g transform="translate(99.374375 377.782594)scale(0.18 -0.18)">
       <use xlink:href="#DejaVuSans-30"/>
       <use x="63.623047" xlink:href="#DejaVuSans-2e"/>
       <use x="95.410156" xlink:href="#DejaVuSans-32"/>
      </g>
     </g>
    </g>
    <g id="ytick_3">
     <g id="line2d_9">
      <g>
       <use style="stroke:#000000;stroke-width:0.8;" x="135" xlink:href="#m26e868b365" y="293.328"/>
      </g>
     </g>
     <g id="text_10">
      <!-- 0.4 -->
      <g transform="translate(99.374375 300.166594)scale(0.18 -0.18)">
       <use xlink:href="#DejaVuSans-30"/>
       <use x="63.623047" xlink:href="#DejaVuSans-2e"/>
       <use x="95.410156" xlink:href="#DejaVuSans-34"/>
      </g>
     </g>
    </g>
    <g id="ytick_4">
     <g id="line2d_10">
      <g>
       <use style="stroke:#000000;stroke-width:0.8;" x="135" xlink:href="#m26e868b365" y="215.712"/>
      </g>
     </g>
     <g id="text_11">
      <!-- 0.6 -->
      <g transform="translate(99.374375 222.550594)scale(0.18 -0.18)">
       <use xlink:href="#DejaVuSans-30"/>
       <use x="63.623047" xlink:href="#DejaVuSans-2e"/>
       <use x="95.410156" xlink:href="#DejaVuSans-36"/>
      </g>
     </g>
    </g>
    <g id="ytick_5">
     <g id="line2d_11">
      <g>
       <use style="stroke:#000000;stroke-width:0.8;" x="135" xlink:href="#m26e868b365" y="138.096"/>
      </g>
     </g>
     <g id="text_12">
      <!-- 0.8 -->
      <g transform="translate(99.374375 144.934594)scale(0.18 -0.18)">
       <use xlink:href="#DejaVuSans-30"/>
       <use x="63.623047" xlink:href="#DejaVuSans-2e"/>
       <use x="95.410156" xlink:href="#DejaVuSans-38"/>
      </g>
     </g>
    </g>
    <g id="ytick_6">
     <g id="line2d_12">
      <g>
       <use style="stroke:#000000;stroke-width:0.8;" x="135" xlink:href="#m26e868b365" y="60.48"/>
      </g>
     </g>
     <g id="text_13">
      <!-- 1.0 -->
      <g transform="translate(99.374375 67.318594)scale(0.18 -0.18)">
       <use xlink:href="#DejaVuSans-31"/>
       <use x="63.623047" xlink:href="#DejaVuSans-2e"/>
       <use x="95.410156" xlink:href="#DejaVuSans-30"/>
      </g>
     </g>
    </g>
    <g id="text_14">
     <!-- $TPR_{Utility}$ -->
     <g transform="translate(88.554375 298.52)rotate(-90)scale(0.22 -0.22)">
      <defs>
       <path d="M 378 4666 
L 4325 4666 
L 4225 4134 
L 2559 4134 
L 1759 0 
L 1125 0 
L 1925 4134 
L 275 4134 
L 378 4666 
z
" id="DejaVuSans-Oblique-54" transform="scale(0.015625)"/>
      </defs>
      <use transform="translate(0 0.09375)" xlink:href="#DejaVuSans-Oblique-54"/>
      <use transform="translate(61.083984 0.09375)" xlink:href="#DejaVuSans-Oblique-50"/>
      <use transform="translate(121.386719 0.09375)" xlink:href="#DejaVuSans-Oblique-52"/>
      <use transform="translate(190.869141 -16.3125)scale(0.7)" xlink:href="#DejaVuSans-Oblique-55"/>
      <use transform="translate(242.104492 -16.3125)scale(0.7)" xlink:href="#DejaVuSans-Oblique-74"/>
      <use transform="translate(269.550781 -16.3125)scale(0.7)" xlink:href="#DejaVuSans-Oblique-69"/>
      <use transform="translate(288.999023 -16.3125)scale(0.7)" xlink:href="#DejaVuSans-Oblique-6c"/>
      <use transform="translate(308.447266 -16.3125)scale(0.7)" xlink:href="#DejaVuSans-Oblique-69"/>
      <use transform="translate(327.895508 -16.3125)scale(0.7)" xlink:href="#DejaVuSans-Oblique-74"/>
      <use transform="translate(355.341797 -16.3125)scale(0.7)" xlink:href="#DejaVuSans-Oblique-79"/>
     </g>
    </g>
   </g>
   <g id="line2d_13">
    <path clip-path="url(#p4551104479)" d="M 135 448.56 
L 140.978571 448.56 
L 140.978571 442.092 
L 152.935714 442.092 
L 152.935714 435.624 
L 158.914286 435.624 
L 158.914286 422.688 
L 182.828571 422.688 
L 182.828571 403.284 
L 188.807143 403.284 
L 188.807143 396.816 
L 194.785714 396.816 
L 194.785714 390.348 
L 200.764286 390.348 
L 200.764286 383.88 
L 206.742857 383.88 
L 206.742857 377.412 
L 212.721429 377.412 
L 212.721429 370.944 
L 218.7 370.944 
L 218.7 358.008 
L 230.657143 358.008 
L 230.657143 351.54 
L 242.614286 351.54 
L 242.614286 345.072 
L 272.507143 345.072 
L 272.507143 338.604 
L 278.485714 338.604 
L 278.485714 332.136 
L 326.314286 332.136 
L 326.314286 325.668 
L 356.207143 325.668 
L 356.207143 312.732 
L 362.185714 312.732 
L 362.185714 299.796 
L 386.1 299.796 
L 386.1 293.328 
L 421.971429 293.328 
L 421.971429 280.392 
L 469.8 280.392 
L 469.8 273.924 
L 487.735714 273.924 
L 487.735714 267.456 
L 499.692857 267.456 
L 499.692857 260.988 
L 547.521429 260.988 
L 547.521429 254.52 
L 565.457143 254.52 
L 565.457143 248.052 
L 571.435714 248.052 
L 571.435714 241.584 
L 655.135714 241.584 
L 655.135714 228.648 
L 667.092857 228.648 
L 667.092857 222.18 
L 673.071429 222.18 
L 673.071429 209.244 
L 702.964286 209.244 
L 702.964286 202.776 
L 714.921429 202.776 
L 714.921429 196.308 
L 732.857143 196.308 
L 732.857143 189.84 
L 744.814286 189.84 
L 744.814286 183.372 
L 750.792857 183.372 
L 750.792857 170.436 
L 762.75 170.436 
L 762.75 163.968 
L 774.707143 163.968 
L 774.707143 157.5 
L 810.578571 157.5 
L 810.578571 144.564 
L 816.557143 144.564 
L 816.557143 131.628 
L 822.535714 131.628 
L 822.535714 125.16 
L 834.492857 125.16 
L 834.492857 118.692 
L 870.364286 118.692 
L 870.364286 105.756 
L 882.321429 105.756 
L 882.321429 99.288 
L 894.278571 99.288 
L 894.278571 92.82 
L 906.235714 92.82 
L 906.235714 79.884 
L 918.192857 79.884 
L 918.192857 73.416 
L 960.042857 73.416 
L 960.042857 66.948 
L 966.021429 66.948 
L 966.021429 60.48 
L 972 60.48 
" style="fill:none;stroke:#1f77b4;stroke-linecap:square;stroke-width:1.5;"/>
   </g>
   <g id="line2d_14">
    <path clip-path="url(#p4551104479)" d="M 135 448.56 
L 135 442.092 
L 158.914286 442.092 
L 158.914286 435.624 
L 194.785714 435.624 
L 194.785714 429.156 
L 218.7 429.156 
L 218.7 422.688 
L 230.657143 422.688 
L 230.657143 390.348 
L 254.571429 390.348 
L 254.571429 383.88 
L 260.55 383.88 
L 260.55 377.412 
L 266.528571 377.412 
L 266.528571 364.476 
L 308.378571 364.476 
L 308.378571 351.54 
L 314.357143 351.54 
L 314.357143 338.604 
L 320.335714 338.604 
L 320.335714 332.136 
L 344.25 332.136 
L 344.25 325.668 
L 392.078571 325.668 
L 392.078571 312.732 
L 404.035714 312.732 
L 404.035714 306.264 
L 439.907143 306.264 
L 439.907143 299.796 
L 469.8 299.796 
L 469.8 286.86 
L 553.5 286.86 
L 553.5 273.924 
L 571.435714 273.924 
L 571.435714 267.456 
L 577.414286 267.456 
L 577.414286 254.52 
L 595.35 254.52 
L 595.35 241.584 
L 601.328571 241.584 
L 601.328571 235.116 
L 625.242857 235.116 
L 625.242857 228.648 
L 643.178571 228.648 
L 643.178571 215.712 
L 685.028571 215.712 
L 685.028571 202.776 
L 708.942857 202.776 
L 708.942857 196.308 
L 756.771429 196.308 
L 756.771429 183.372 
L 762.75 183.372 
L 762.75 176.904 
L 768.728571 176.904 
L 768.728571 170.436 
L 822.535714 170.436 
L 822.535714 157.5 
L 828.514286 157.5 
L 828.514286 151.032 
L 840.471429 151.032 
L 840.471429 144.564 
L 846.45 144.564 
L 846.45 138.096 
L 852.428571 138.096 
L 852.428571 131.628 
L 858.407143 131.628 
L 858.407143 118.692 
L 870.364286 118.692 
L 870.364286 112.224 
L 882.321429 112.224 
L 882.321429 105.756 
L 906.235714 105.756 
L 906.235714 73.416 
L 918.192857 73.416 
L 918.192857 66.948 
L 972 66.948 
L 972 60.48 
" style="fill:none;stroke:#ff7f0e;stroke-linecap:square;stroke-width:1.5;"/>
   </g>
   <g id="line2d_15">
    <path clip-path="url(#p4551104479)" d="M 135 448.56 
L 135 442.092 
L 152.935714 442.092 
L 152.935714 435.624 
L 158.914286 435.624 
L 158.914286 429.156 
L 176.85 429.156 
L 176.85 422.688 
L 188.807143 422.688 
L 188.807143 409.752 
L 194.785714 409.752 
L 194.785714 403.284 
L 206.742857 403.284 
L 206.742857 396.816 
L 236.635714 396.816 
L 236.635714 390.348 
L 296.421429 390.348 
L 296.421429 383.88 
L 308.378571 383.88 
L 308.378571 377.412 
L 314.357143 377.412 
L 314.357143 370.944 
L 320.335714 370.944 
L 320.335714 358.008 
L 356.207143 358.008 
L 356.207143 351.54 
L 362.185714 351.54 
L 362.185714 345.072 
L 392.078571 345.072 
L 392.078571 338.604 
L 404.035714 338.604 
L 404.035714 319.2 
L 433.928571 319.2 
L 433.928571 312.732 
L 451.864286 312.732 
L 451.864286 306.264 
L 469.8 306.264 
L 469.8 299.796 
L 475.778571 299.796 
L 475.778571 293.328 
L 493.714286 293.328 
L 493.714286 286.86 
L 505.671429 286.86 
L 505.671429 260.988 
L 529.585714 260.988 
L 529.585714 254.52 
L 547.521429 254.52 
L 547.521429 248.052 
L 571.435714 248.052 
L 571.435714 241.584 
L 577.414286 241.584 
L 577.414286 222.18 
L 625.242857 222.18 
L 625.242857 215.712 
L 649.157143 215.712 
L 649.157143 209.244 
L 685.028571 209.244 
L 685.028571 202.776 
L 708.942857 202.776 
L 708.942857 189.84 
L 714.921429 189.84 
L 714.921429 183.372 
L 732.857143 183.372 
L 732.857143 163.968 
L 738.835714 163.968 
L 738.835714 157.5 
L 750.792857 157.5 
L 750.792857 138.096 
L 774.707143 138.096 
L 774.707143 131.628 
L 798.621429 131.628 
L 798.621429 125.16 
L 822.535714 125.16 
L 822.535714 118.692 
L 852.428571 118.692 
L 852.428571 112.224 
L 864.385714 112.224 
L 864.385714 105.756 
L 870.364286 105.756 
L 870.364286 99.288 
L 876.342857 99.288 
L 876.342857 92.82 
L 918.192857 92.82 
L 918.192857 86.352 
L 924.171429 86.352 
L 924.171429 79.884 
L 948.085714 79.884 
L 948.085714 66.948 
L 960.042857 66.948 
L 960.042857 60.48 
L 972 60.48 
" style="fill:none;stroke:#2ca02c;stroke-linecap:square;stroke-width:1.5;"/>
   </g>
   <g id="line2d_16">
    <path clip-path="url(#p4551104479)" d="M 135 448.56 
L 135 442.092 
L 135 435.624 
L 140.978571 435.624 
L 140.978571 422.688 
L 170.871429 422.688 
L 170.871429 416.22 
L 182.828571 416.22 
L 182.828571 409.752 
L 194.785714 409.752 
L 194.785714 403.284 
L 218.7 403.284 
L 218.7 396.816 
L 224.678571 396.816 
L 224.678571 390.348 
L 230.657143 390.348 
L 230.657143 383.88 
L 242.614286 383.88 
L 242.614286 370.944 
L 248.592857 370.944 
L 248.592857 364.476 
L 260.55 364.476 
L 260.55 358.008 
L 302.4 358.008 
L 302.4 351.54 
L 320.335714 351.54 
L 320.335714 325.668 
L 326.314286 325.668 
L 326.314286 319.2 
L 338.271429 319.2 
L 338.271429 306.264 
L 356.207143 306.264 
L 356.207143 299.796 
L 362.185714 299.796 
L 362.185714 286.86 
L 386.1 286.86 
L 386.1 273.924 
L 392.078571 273.924 
L 392.078571 267.456 
L 404.035714 267.456 
L 404.035714 260.988 
L 415.992857 260.988 
L 415.992857 241.584 
L 451.864286 241.584 
L 451.864286 228.648 
L 463.821429 228.648 
L 463.821429 215.712 
L 475.778571 215.712 
L 475.778571 196.308 
L 493.714286 196.308 
L 493.714286 189.84 
L 583.392857 189.84 
L 583.392857 183.372 
L 607.307143 183.372 
L 607.307143 176.904 
L 625.242857 176.904 
L 625.242857 170.436 
L 667.092857 170.436 
L 667.092857 163.968 
L 714.921429 163.968 
L 714.921429 157.5 
L 744.814286 157.5 
L 744.814286 151.032 
L 756.771429 151.032 
L 756.771429 144.564 
L 768.728571 144.564 
L 768.728571 125.16 
L 828.514286 125.16 
L 828.514286 118.692 
L 834.492857 118.692 
L 834.492857 112.224 
L 840.471429 112.224 
L 840.471429 99.288 
L 864.385714 99.288 
L 864.385714 86.352 
L 912.214286 86.352 
L 912.214286 79.884 
L 930.15 79.884 
L 930.15 73.416 
L 960.042857 73.416 
L 960.042857 60.48 
L 972 60.48 
" style="fill:none;stroke:#d62728;stroke-linecap:square;stroke-width:1.5;"/>
   </g>
   <g id="line2d_17">
    <path clip-path="url(#p4551104479)" d="M 135 448.56 
L 972 60.48 
" style="fill:none;stroke:#ff0000;stroke-dasharray:5.55,2.4;stroke-dashoffset:0;stroke-width:1.5;"/>
   </g>
   <g id="patch_3">
    <path d="M 135 448.56 
L 135 60.48 
" style="fill:none;stroke:#000000;stroke-linecap:square;stroke-linejoin:miter;stroke-width:0.8;"/>
   </g>
   <g id="patch_4">
    <path d="M 972 448.56 
L 972 60.48 
" style="fill:none;stroke:#000000;stroke-linecap:square;stroke-linejoin:miter;stroke-width:0.8;"/>
   </g>
   <g id="patch_5">
    <path d="M 135 448.56 
L 972 448.56 
" style="fill:none;stroke:#000000;stroke-linecap:square;stroke-linejoin:miter;stroke-width:0.8;"/>
   </g>
   <g id="patch_6">
    <path d="M 135 60.48 
L 972 60.48 
" style="fill:none;stroke:#000000;stroke-linecap:square;stroke-linejoin:miter;stroke-width:0.8;"/>
   </g>
   <g id="text_15">
    <!-- German -->
    <g transform="translate(529.47375 54.48)scale(0.12 -0.12)">
     <defs>
      <path d="M 3809 666 
L 3809 1919 
L 2778 1919 
L 2778 2438 
L 4434 2438 
L 4434 434 
Q 4069 175 3628 42 
Q 3188 -91 2688 -91 
Q 1594 -91 976 548 
Q 359 1188 359 2328 
Q 359 3472 976 4111 
Q 1594 4750 2688 4750 
Q 3144 4750 3555 4637 
Q 3966 4525 4313 4306 
L 4313 3634 
Q 3963 3931 3569 4081 
Q 3175 4231 2741 4231 
Q 1884 4231 1454 3753 
Q 1025 3275 1025 2328 
Q 1025 1384 1454 906 
Q 1884 428 2741 428 
Q 3075 428 3337 486 
Q 3600 544 3809 666 
z
" id="DejaVuSans-47" transform="scale(0.015625)"/>
      <path d="M 3597 1894 
L 3597 1613 
L 953 1613 
Q 991 1019 1311 708 
Q 1631 397 2203 397 
Q 2534 397 2845 478 
Q 3156 559 3463 722 
L 3463 178 
Q 3153 47 2828 -22 
Q 2503 -91 2169 -91 
Q 1331 -91 842 396 
Q 353 884 353 1716 
Q 353 2575 817 3079 
Q 1281 3584 2069 3584 
Q 2775 3584 3186 3129 
Q 3597 2675 3597 1894 
z
M 3022 2063 
Q 3016 2534 2758 2815 
Q 2500 3097 2075 3097 
Q 1594 3097 1305 2825 
Q 1016 2553 972 2059 
L 3022 2063 
z
" id="DejaVuSans-65" transform="scale(0.015625)"/>
      <path d="M 2631 2963 
Q 2534 3019 2420 3045 
Q 2306 3072 2169 3072 
Q 1681 3072 1420 2755 
Q 1159 2438 1159 1844 
L 1159 0 
L 581 0 
L 581 3500 
L 1159 3500 
L 1159 2956 
Q 1341 3275 1631 3429 
Q 1922 3584 2338 3584 
Q 2397 3584 2469 3576 
Q 2541 3569 2628 3553 
L 2631 2963 
z
" id="DejaVuSans-72" transform="scale(0.015625)"/>
      <path d="M 3328 2828 
Q 3544 3216 3844 3400 
Q 4144 3584 4550 3584 
Q 5097 3584 5394 3201 
Q 5691 2819 5691 2113 
L 5691 0 
L 5113 0 
L 5113 2094 
Q 5113 2597 4934 2840 
Q 4756 3084 4391 3084 
Q 3944 3084 3684 2787 
Q 3425 2491 3425 1978 
L 3425 0 
L 2847 0 
L 2847 2094 
Q 2847 2600 2669 2842 
Q 2491 3084 2119 3084 
Q 1678 3084 1418 2786 
Q 1159 2488 1159 1978 
L 1159 0 
L 581 0 
L 581 3500 
L 1159 3500 
L 1159 2956 
Q 1356 3278 1631 3431 
Q 1906 3584 2284 3584 
Q 2666 3584 2933 3390 
Q 3200 3197 3328 2828 
z
" id="DejaVuSans-6d" transform="scale(0.015625)"/>
      <path d="M 2194 1759 
Q 1497 1759 1228 1600 
Q 959 1441 959 1056 
Q 959 750 1161 570 
Q 1363 391 1709 391 
Q 2188 391 2477 730 
Q 2766 1069 2766 1631 
L 2766 1759 
L 2194 1759 
z
M 3341 1997 
L 3341 0 
L 2766 0 
L 2766 531 
Q 2569 213 2275 61 
Q 1981 -91 1556 -91 
Q 1019 -91 701 211 
Q 384 513 384 1019 
Q 384 1609 779 1909 
Q 1175 2209 1959 2209 
L 2766 2209 
L 2766 2266 
Q 2766 2663 2505 2880 
Q 2244 3097 1772 3097 
Q 1472 3097 1187 3025 
Q 903 2953 641 2809 
L 641 3341 
Q 956 3463 1253 3523 
Q 1550 3584 1831 3584 
Q 2591 3584 2966 3190 
Q 3341 2797 3341 1997 
z
" id="DejaVuSans-61" transform="scale(0.015625)"/>
      <path d="M 3513 2113 
L 3513 0 
L 2938 0 
L 2938 2094 
Q 2938 2591 2744 2837 
Q 2550 3084 2163 3084 
Q 1697 3084 1428 2787 
Q 1159 2491 1159 1978 
L 1159 0 
L 581 0 
L 581 3500 
L 1159 3500 
L 1159 2956 
Q 1366 3272 1645 3428 
Q 1925 3584 2291 3584 
Q 2894 3584 3203 3211 
Q 3513 2838 3513 2113 
z
" id="DejaVuSans-6e" transform="scale(0.015625)"/>
     </defs>
     <use xlink:href="#DejaVuSans-47"/>
     <use x="77.490234" xlink:href="#DejaVuSans-65"/>
     <use x="139.013672" xlink:href="#DejaVuSans-72"/>
     <use x="178.376953" xlink:href="#DejaVuSans-6d"/>
     <use x="275.789062" xlink:href="#DejaVuSans-61"/>
     <use x="337.068359" xlink:href="#DejaVuSans-6e"/>
    </g>
   </g>
   <g id="legend_1">
    <g id="patch_7">
     <path d="M 681.5875 438.56 
L 958 438.56 
Q 962 438.56 962 434.56 
L 962 316.91 
Q 962 312.91 958 312.91 
L 681.5875 312.91 
Q 677.5875 312.91 677.5875 316.91 
L 677.5875 434.56 
Q 677.5875 438.56 681.5875 438.56 
z
" style="fill:#ffffff;opacity:0.8;stroke:#cccccc;stroke-linejoin:miter;"/>
    </g>
    <g id="line2d_18">
     <path d="M 685.5875 329.106875 
L 725.5875 329.106875 
" style="fill:none;stroke:#1f77b4;stroke-linecap:square;stroke-width:1.5;"/>
    </g>
    <g id="line2d_19"/>
    <g id="text_16">
     <!-- AUC_5-Layers = 0.52 -->
     <g transform="translate(741.5875 336.106875)scale(0.2 -0.2)">
      <defs>
       <path d="M 2188 4044 
L 1331 1722 
L 3047 1722 
L 2188 4044 
z
M 1831 4666 
L 2547 4666 
L 4325 0 
L 3669 0 
L 3244 1197 
L 1141 1197 
L 716 0 
L 50 0 
L 1831 4666 
z
" id="DejaVuSans-41" transform="scale(0.015625)"/>
       <path d="M 556 4666 
L 1191 4666 
L 1191 1831 
Q 1191 1081 1462 751 
Q 1734 422 2344 422 
Q 2950 422 3222 751 
Q 3494 1081 3494 1831 
L 3494 4666 
L 4128 4666 
L 4128 1753 
Q 4128 841 3676 375 
Q 3225 -91 2344 -91 
Q 1459 -91 1007 375 
Q 556 841 556 1753 
L 556 4666 
z
" id="DejaVuSans-55" transform="scale(0.015625)"/>
       <path d="M 4122 4306 
L 4122 3641 
Q 3803 3938 3442 4084 
Q 3081 4231 2675 4231 
Q 1875 4231 1450 3742 
Q 1025 3253 1025 2328 
Q 1025 1406 1450 917 
Q 1875 428 2675 428 
Q 3081 428 3442 575 
Q 3803 722 4122 1019 
L 4122 359 
Q 3791 134 3420 21 
Q 3050 -91 2638 -91 
Q 1578 -91 968 557 
Q 359 1206 359 2328 
Q 359 3453 968 4101 
Q 1578 4750 2638 4750 
Q 3056 4750 3426 4639 
Q 3797 4528 4122 4306 
z
" id="DejaVuSans-43" transform="scale(0.015625)"/>
       <path d="M 3263 -1063 
L 3263 -1509 
L -63 -1509 
L -63 -1063 
L 3263 -1063 
z
" id="DejaVuSans-5f" transform="scale(0.015625)"/>
       <path d="M 691 4666 
L 3169 4666 
L 3169 4134 
L 1269 4134 
L 1269 2991 
Q 1406 3038 1543 3061 
Q 1681 3084 1819 3084 
Q 2600 3084 3056 2656 
Q 3513 2228 3513 1497 
Q 3513 744 3044 326 
Q 2575 -91 1722 -91 
Q 1428 -91 1123 -41 
Q 819 9 494 109 
L 494 744 
Q 775 591 1075 516 
Q 1375 441 1709 441 
Q 2250 441 2565 725 
Q 2881 1009 2881 1497 
Q 2881 1984 2565 2268 
Q 2250 2553 1709 2553 
Q 1456 2553 1204 2497 
Q 953 2441 691 2322 
L 691 4666 
z
" id="DejaVuSans-35" transform="scale(0.015625)"/>
       <path d="M 313 2009 
L 1997 2009 
L 1997 1497 
L 313 1497 
L 313 2009 
z
" id="DejaVuSans-2d" transform="scale(0.015625)"/>
       <path d="M 628 4666 
L 1259 4666 
L 1259 531 
L 3531 531 
L 3531 0 
L 628 0 
L 628 4666 
z
" id="DejaVuSans-4c" transform="scale(0.015625)"/>
       <path d="M 2059 -325 
Q 1816 -950 1584 -1140 
Q 1353 -1331 966 -1331 
L 506 -1331 
L 506 -850 
L 844 -850 
Q 1081 -850 1212 -737 
Q 1344 -625 1503 -206 
L 1606 56 
L 191 3500 
L 800 3500 
L 1894 763 
L 2988 3500 
L 3597 3500 
L 2059 -325 
z
" id="DejaVuSans-79" transform="scale(0.015625)"/>
       <path d="M 2834 3397 
L 2834 2853 
Q 2591 2978 2328 3040 
Q 2066 3103 1784 3103 
Q 1356 3103 1142 2972 
Q 928 2841 928 2578 
Q 928 2378 1081 2264 
Q 1234 2150 1697 2047 
L 1894 2003 
Q 2506 1872 2764 1633 
Q 3022 1394 3022 966 
Q 3022 478 2636 193 
Q 2250 -91 1575 -91 
Q 1294 -91 989 -36 
Q 684 19 347 128 
L 347 722 
Q 666 556 975 473 
Q 1284 391 1588 391 
Q 1994 391 2212 530 
Q 2431 669 2431 922 
Q 2431 1156 2273 1281 
Q 2116 1406 1581 1522 
L 1381 1569 
Q 847 1681 609 1914 
Q 372 2147 372 2553 
Q 372 3047 722 3315 
Q 1072 3584 1716 3584 
Q 2034 3584 2315 3537 
Q 2597 3491 2834 3397 
z
" id="DejaVuSans-73" transform="scale(0.015625)"/>
       <path id="DejaVuSans-20" transform="scale(0.015625)"/>
       <path d="M 678 2906 
L 4684 2906 
L 4684 2381 
L 678 2381 
L 678 2906 
z
M 678 1631 
L 4684 1631 
L 4684 1100 
L 678 1100 
L 678 1631 
z
" id="DejaVuSans-3d" transform="scale(0.015625)"/>
      </defs>
      <use xlink:href="#DejaVuSans-41"/>
      <use x="68.408203" xlink:href="#DejaVuSans-55"/>
      <use x="141.601562" xlink:href="#DejaVuSans-43"/>
      <use x="211.425781" xlink:href="#DejaVuSans-5f"/>
      <use x="261.425781" xlink:href="#DejaVuSans-35"/>
      <use x="325.048828" xlink:href="#DejaVuSans-2d"/>
      <use x="361.132812" xlink:href="#DejaVuSans-4c"/>
      <use x="416.845703" xlink:href="#DejaVuSans-61"/>
      <use x="478.125" xlink:href="#DejaVuSans-79"/>
      <use x="537.304688" xlink:href="#DejaVuSans-65"/>
      <use x="598.828125" xlink:href="#DejaVuSans-72"/>
      <use x="639.941406" xlink:href="#DejaVuSans-73"/>
      <use x="692.041016" xlink:href="#DejaVuSans-20"/>
      <use x="723.828125" xlink:href="#DejaVuSans-3d"/>
      <use x="807.617188" xlink:href="#DejaVuSans-20"/>
      <use x="839.404297" xlink:href="#DejaVuSans-30"/>
      <use x="903.027344" xlink:href="#DejaVuSans-2e"/>
      <use x="934.814453" xlink:href="#DejaVuSans-35"/>
      <use x="998.4375" xlink:href="#DejaVuSans-32"/>
     </g>
    </g>
    <g id="line2d_20">
     <path d="M 685.5875 359.019375 
L 725.5875 359.019375 
" style="fill:none;stroke:#ff7f0e;stroke-linecap:square;stroke-width:1.5;"/>
    </g>
    <g id="line2d_21"/>
    <g id="text_17">
     <!-- AUC_4-Layers = 0.49 -->
     <g transform="translate(741.5875 366.019375)scale(0.2 -0.2)">
      <defs>
       <path d="M 703 97 
L 703 672 
Q 941 559 1184 500 
Q 1428 441 1663 441 
Q 2288 441 2617 861 
Q 2947 1281 2994 2138 
Q 2813 1869 2534 1725 
Q 2256 1581 1919 1581 
Q 1219 1581 811 2004 
Q 403 2428 403 3163 
Q 403 3881 828 4315 
Q 1253 4750 1959 4750 
Q 2769 4750 3195 4129 
Q 3622 3509 3622 2328 
Q 3622 1225 3098 567 
Q 2575 -91 1691 -91 
Q 1453 -91 1209 -44 
Q 966 3 703 97 
z
M 1959 2075 
Q 2384 2075 2632 2365 
Q 2881 2656 2881 3163 
Q 2881 3666 2632 3958 
Q 2384 4250 1959 4250 
Q 1534 4250 1286 3958 
Q 1038 3666 1038 3163 
Q 1038 2656 1286 2365 
Q 1534 2075 1959 2075 
z
" id="DejaVuSans-39" transform="scale(0.015625)"/>
      </defs>
      <use xlink:href="#DejaVuSans-41"/>
      <use x="68.408203" xlink:href="#DejaVuSans-55"/>
      <use x="141.601562" xlink:href="#DejaVuSans-43"/>
      <use x="211.425781" xlink:href="#DejaVuSans-5f"/>
      <use x="261.425781" xlink:href="#DejaVuSans-34"/>
      <use x="325.048828" xlink:href="#DejaVuSans-2d"/>
      <use x="361.132812" xlink:href="#DejaVuSans-4c"/>
      <use x="416.845703" xlink:href="#DejaVuSans-61"/>
      <use x="478.125" xlink:href="#DejaVuSans-79"/>
      <use x="537.304688" xlink:href="#DejaVuSans-65"/>
      <use x="598.828125" xlink:href="#DejaVuSans-72"/>
      <use x="639.941406" xlink:href="#DejaVuSans-73"/>
      <use x="692.041016" xlink:href="#DejaVuSans-20"/>
      <use x="723.828125" xlink:href="#DejaVuSans-3d"/>
      <use x="807.617188" xlink:href="#DejaVuSans-20"/>
      <use x="839.404297" xlink:href="#DejaVuSans-30"/>
      <use x="903.027344" xlink:href="#DejaVuSans-2e"/>
      <use x="934.814453" xlink:href="#DejaVuSans-34"/>
      <use x="998.4375" xlink:href="#DejaVuSans-39"/>
     </g>
    </g>
    <g id="line2d_22">
     <path d="M 685.5875 388.931875 
L 725.5875 388.931875 
" style="fill:none;stroke:#2ca02c;stroke-linecap:square;stroke-width:1.5;"/>
    </g>
    <g id="line2d_23"/>
    <g id="text_18">
     <!-- AUC_3-Layers = 0.50 -->
     <g transform="translate(741.5875 395.931875)scale(0.2 -0.2)">
      <defs>
       <path d="M 2597 2516 
Q 3050 2419 3304 2112 
Q 3559 1806 3559 1356 
Q 3559 666 3084 287 
Q 2609 -91 1734 -91 
Q 1441 -91 1130 -33 
Q 819 25 488 141 
L 488 750 
Q 750 597 1062 519 
Q 1375 441 1716 441 
Q 2309 441 2620 675 
Q 2931 909 2931 1356 
Q 2931 1769 2642 2001 
Q 2353 2234 1838 2234 
L 1294 2234 
L 1294 2753 
L 1863 2753 
Q 2328 2753 2575 2939 
Q 2822 3125 2822 3475 
Q 2822 3834 2567 4026 
Q 2313 4219 1838 4219 
Q 1578 4219 1281 4162 
Q 984 4106 628 3988 
L 628 4550 
Q 988 4650 1302 4700 
Q 1616 4750 1894 4750 
Q 2613 4750 3031 4423 
Q 3450 4097 3450 3541 
Q 3450 3153 3228 2886 
Q 3006 2619 2597 2516 
z
" id="DejaVuSans-33" transform="scale(0.015625)"/>
      </defs>
      <use xlink:href="#DejaVuSans-41"/>
      <use x="68.408203" xlink:href="#DejaVuSans-55"/>
      <use x="141.601562" xlink:href="#DejaVuSans-43"/>
      <use x="211.425781" xlink:href="#DejaVuSans-5f"/>
      <use x="261.425781" xlink:href="#DejaVuSans-33"/>
      <use x="325.048828" xlink:href="#DejaVuSans-2d"/>
      <use x="361.132812" xlink:href="#DejaVuSans-4c"/>
      <use x="416.845703" xlink:href="#DejaVuSans-61"/>
      <use x="478.125" xlink:href="#DejaVuSans-79"/>
      <use x="537.304688" xlink:href="#DejaVuSans-65"/>
      <use x="598.828125" xlink:href="#DejaVuSans-72"/>
      <use x="639.941406" xlink:href="#DejaVuSans-73"/>
      <use x="692.041016" xlink:href="#DejaVuSans-20"/>
      <use x="723.828125" xlink:href="#DejaVuSans-3d"/>
      <use x="807.617188" xlink:href="#DejaVuSans-20"/>
      <use x="839.404297" xlink:href="#DejaVuSans-30"/>
      <use x="903.027344" xlink:href="#DejaVuSans-2e"/>
      <use x="934.814453" xlink:href="#DejaVuSans-35"/>
      <use x="998.4375" xlink:href="#DejaVuSans-30"/>
     </g>
    </g>
    <g id="line2d_24">
     <path d="M 685.5875 418.844375 
L 725.5875 418.844375 
" style="fill:none;stroke:#d62728;stroke-linecap:square;stroke-width:1.5;"/>
    </g>
    <g id="line2d_25"/>
    <g id="text_19">
     <!-- AUC_2-Layers = 0.59 -->
     <g transform="translate(741.5875 425.844375)scale(0.2 -0.2)">
      <use xlink:href="#DejaVuSans-41"/>
      <use x="68.408203" xlink:href="#DejaVuSans-55"/>
      <use x="141.601562" xlink:href="#DejaVuSans-43"/>
      <use x="211.425781" xlink:href="#DejaVuSans-5f"/>
      <use x="261.425781" xlink:href="#DejaVuSans-32"/>
      <use x="325.048828" xlink:href="#DejaVuSans-2d"/>
      <use x="361.132812" xlink:href="#DejaVuSans-4c"/>
      <use x="416.845703" xlink:href="#DejaVuSans-61"/>
      <use x="478.125" xlink:href="#DejaVuSans-79"/>
      <use x="537.304688" xlink:href="#DejaVuSans-65"/>
      <use x="598.828125" xlink:href="#DejaVuSans-72"/>
      <use x="639.941406" xlink:href="#DejaVuSans-73"/>
      <use x="692.041016" xlink:href="#DejaVuSans-20"/>
      <use x="723.828125" xlink:href="#DejaVuSans-3d"/>
      <use x="807.617188" xlink:href="#DejaVuSans-20"/>
      <use x="839.404297" xlink:href="#DejaVuSans-30"/>
      <use x="903.027344" xlink:href="#DejaVuSans-2e"/>
      <use x="934.814453" xlink:href="#DejaVuSans-35"/>
      <use x="998.4375" xlink:href="#DejaVuSans-39"/>
     </g>
    </g>
   </g>
  </g>
 </g>
 <defs>
  <clipPath id="p4551104479">
   <rect height="388.08" width="837" x="135" y="60.48"/>
  </clipPath>
 </defs>
</svg>
